<?xml version="1.0" encoding="utf-8"?>
<!-- Generator: Adobe Illustrator 15.0.2, SVG Export Plug-In . SVG Version: 6.00 Build 0)  -->
<!DOCTYPE svg PUBLIC "-//W3C//DTD SVG 1.1//EN" "http://www.w3.org/Graphics/SVG/1.1/DTD/svg11.dtd">
<svg version="1.1" id="Layer_1" xmlns="http://www.w3.org/2000/svg" xmlns:xlink="http://www.w3.org/1999/xlink" x="0px" y="0px"
	 width="720px" height="460px" viewBox="0 0 720 460" enable-background="new 0 0 720 460" xml:space="preserve">
<g>
	<path fill="#CED19C" d="M307.404,245.927c94.48-8.974,180.586,0.733,237.262,42.128c37.702,27.538,34.433,64.039,3.721,85.839
		c-34.16,24.253-103.49,24.718-201.623,24.718c-94.839,0-167.04-9.338-193.782-37.517c-19.226-20.259-12.674-54.255,21.904-75.646
		C212.521,262.17,250.005,251.377,307.404,245.927z"/>
	<g>
		<polygon fill="#E0D3B5" points="134.593,348.47 87.66,398.281 632.34,398.611 591.388,349.028 		"/>
	</g>
	<g>
		<path fill="#8E7565" d="M280.096,325.271c0,0-18.002-16.742-20.882-49.971c-3.369-38.873-2.462-73.561-2.462-73.561l-19.731-0.48
			c0,0,0.757,37.197-2.34,74.041c-2.504,29.773-19.226,49.971-19.226,49.971s13.624-1.064,24.399-3.849
			c2.885,4.253,8.018,7.188,8.018,7.188s4.871-2.789,7.787-6.867C267.576,324.29,280.096,325.271,280.096,325.271z"/>
		<ellipse fill="#BCC160" cx="245.726" cy="157.712" rx="117.612" ry="96.323"/>
	</g>
	<g>
		<path fill="#8E7565" d="M481.939,320.092c0,0-15.247-14.18-17.687-42.323c-2.854-32.923-2.084-62.302-2.084-62.302l-16.712-0.407
			c0,0,0.641,31.505-1.982,62.709c-2.119,25.218-16.283,42.323-16.283,42.323s11.539-0.902,20.666-3.26
			c2.442,3.603,6.79,6.088,6.79,6.088s4.125-2.361,6.596-5.816C471.335,319.261,481.939,320.092,481.939,320.092z"/>
		<ellipse fill="#C9CC7E" cx="452.83" cy="178.176" rx="99.611" ry="81.581"/>
	</g>
	<path fill="#89912B" d="M320.158,90.11c4.338,0.754,8.389-1.424,12.344-2.375c-2.535,8.074-11.387,14.99-18.443,19.656
		c4.705-0.599,9.662-2.25,13.955-3.559c-5.371,9.91-14.268,15.301-22.875,22.368c5.619,0.474,11.402-0.723,16.381-2.817
		c-6.303,11.541-21.344,14.265-27.408,25.057c6.85,0.881,14.037-0.759,20.475-3.141c-1.768,12.608-22.316,19.255-27.587,29.124
		c6.445,1.097,12.126-3.063,18.597-2.448c-1.092,8.341-18.169,15.151-24.018,21.256c5.993,0.561,11.931-1.147,17.809-0.539
		c-5.796,7.484-15.932,11.324-21.401,18.471c5.734,0.57,11.066-0.236,15.934-2.388c0.124,9.038-12.176,16.39-17.721,22.114
		c5.211,0.865,10.576-1.258,15.224-3.07c-1.07,5.662-14.28,16.641-19.487,20.107c4.332-0.092,9.048-2.242,13.236-3.049
		c-3.77,7.137-14.378,11.204-19.783,17.399c4.194,0.497,8.229-0.671,12.387-0.582c-0.796,7.201-9.985,11.036-10.5,19.46
		c36.72,1.968,75.954,2.678,112.64,1.028c12.502-0.562,23.445-2.13,35.154-6.081c7.547-2.545,19.93-3.478,25.98-7.1
		c-6.754-3.894-12.053-10.021-19.389-12.91c2.938,1.556,6.154,2.629,9.301,2.595c-7.525-5.615-15.225-11.071-22.705-16.899
		c5.922,0.113,11.66,2.492,17.596,1.682c-7.297-8.42-20.977-12.432-27.768-21.253c4.477,1.177,8.697,2.79,13.322,2.422
		c-4.035-7.565-16.658-13.259-22.227-21.183c5.357,0.045,10.621,2.408,15.955,2.352c-2.799-7.879-19.533-15.794-24.943-23.893
		c4.672-2.218,9.354,1.702,12.611-1.98c-6.145-6.188-13.273-11.896-17.814-19.587c3.541-0.046,7.137,1.171,10.391,2.486
		c-0.486-7.286-16.145-16.511-21.107-22.392c9.289,0.424,11.02,1.001,6.205-6.409c-3.223-4.961-8.135-8.984-11.535-13.991
		c3.953,0.022,8.133,1.509,12.133,1.452c-4.707-6.093-15.992-9.763-18.613-16.723c3.312,0.686,6.777,0.521,9.105-0.857
		c-4.42-5.134-11.695-10.406-13.596-17.05c1.34,0.302,2.984,0.223,4.236,0.602c-1.652-5.376-8.699-9.614-12.418-14.212
		C339.789,73.251,329.936,80.633,320.158,90.11z"/>
	<g>
		<path fill="#B2B748" d="M481.939,229.457c0,34.378-35.775,62.248-79.9,62.248c-44.129,0-79.902-27.87-79.902-62.248
			c0-34.381,35.773-62.25,79.902-62.25C446.164,167.207,481.939,195.076,481.939,229.457z"/>
	</g>
	<g>
		<g>
			<polygon fill="#AAB036" points="134.593,348.47 132.87,276.214 592.388,275.436 591.388,349.028 			"/>
		</g>
		<g>
			<polygon fill="#BABF5C" points="143.279,266.723 132.87,276.378 592.388,275.436 582.702,266.958 			"/>
		</g>
	</g>
</g>
<g>
	<g>
		<g>
			<g>
				<path fill="#7A574A" d="M392.959,275.182l-5.038,4.946c7.411,7.418,17.596,12.186,29.851,11.815
					c15.776-0.477,30.936-23.659,17.258-30.473C420.039,254.006,424.825,290.194,392.959,275.182z"/>
			</g>
			<g>
				<path fill="#7A574A" d="M382.978,272.552c0.027-0.066,0.056-0.132,0.085-0.195c0.844-1.833,3.312-3.455,4.416-2.446
					c0.667-1.234,2.811,0.132,3.339,1.559c0.984,2.668-0.753,6.673-3.865,6.84C383.512,278.491,381.766,275.475,382.978,272.552z"/>
			</g>
			<g>
				<g>
					<path fill="#7A574A" d="M466.814,311.293c-5.692,5.254-16.35,8.624-27.471,8.624c-9.257,0-19.852-2.616-22.377-9.871
						c-1.014,1.066-1.909,2.201-2.626,3.423c-8.491,14.474-9.778,31.143-4.814,50.888l5.431-0.085
						c3.053-16.184,12.195-28.357,26.883-31.568c3.068,14.086,12.147,29.232,27.877,38.268l5.522-2.809
						C461.293,349.747,468.74,326.275,466.814,311.293z"/>
				</g>
			</g>
			<g>
				<path fill="#7A574A" d="M475.659,308.954c-1.462-0.761-2.612-2.212-1.695-3.094c-0.912-1.264-0.328-3.812,1.491-4.578
					c3.043-1.275,7.133,1.101,7.312,4.435C482.996,309.953,478.642,310.508,475.659,308.954z"/>
			</g>
			<g>
				<path fill="#7A574A" d="M411.872,371.149c-1.647,0.227-5.442,0.646-6.791-0.226c-2.911-1.871,1.877-3.862,4.3-4.573
					C415.604,364.533,419.211,370.131,411.872,371.149z"/>
			</g>
			<g>
				<path fill="#7A574A" d="M475.388,375.477c-1.467,0.773-4.886,2.463-6.453,2.107c-3.378-0.766,0.44-4.271,2.481-5.768
					C476.641,367.98,481.942,372.011,475.388,375.477z"/>
			</g>
			<g>
				<g>
					<path fill="#7A574A" d="M447.898,251.506c-2.492,1.894-4.662,2.654-5.262,2.84c-6.419,4.307-13.739,5.887-18.201,5.939
						c-2.398,3.613-4.388,8.068-5.865,13.013c-3.601,12.052-3.649,26.067-0.832,35.957c3.728,13.085,37.327,12.399,48.902,0.841
						c-4.434-21.457-5.301-38.41-5.301-38.41s11.75,3.66,16.229,27.845l5.335,2.274
						C487.708,276.008,467.152,255.557,447.898,251.506z"/>
				</g>
				<path fill="#7A574A" d="M450.064,216.249c-3.155-3.141-6.486-5.509-11.422-6.369c-8.707-1.517-26.399,4.273-24.939,11.416
					c3.371-2.806,10.447-0.766,13.302,4.658c2.388,4.529,4.253,14.182,8.478,15.489c5.254,1.625,6.732,11.984,6.732,11.984
					s8.916-2.441,12.459-13.473C458.219,228.924,453.866,220.032,450.064,216.249z"/>
			</g>
			<path fill="#7A574A" d="M441.225,253.57c-0.389-2.709-2.232-9.995-6.037-11.172c-3.402-1.053-5.226-6.046-6.988-10.875
				c-0.709-1.939-1.378-3.772-2.079-5.104c-1.946-3.697-5.794-5.381-8.547-5.381c-1.308,0-2.425,0.355-3.23,1.025l-0.458,0.381
				c-1.896,3.281-3.104,7.171-3.263,11.606c-0.548,15.738,7.383,24.486,11.577,25.108c3.851,0.572,11.99-0.674,19.091-5.139
				L441.225,253.57z M415.334,241.438c-0.812,0.028-1.515-1.211-1.564-2.768c-0.054-1.562,0.564-2.843,1.378-2.87
				c0.811-0.028,1.514,1.213,1.566,2.769C416.765,240.125,416.148,241.41,415.334,241.438z"/>
		</g>
	</g>
</g>
</svg>
