<?xml version="1.0" encoding="utf-8"?>
<!-- Generator: Adobe Illustrator 15.0.2, SVG Export Plug-In . SVG Version: 6.00 Build 0)  -->
<!DOCTYPE svg PUBLIC "-//W3C//DTD SVG 1.1//EN" "http://www.w3.org/Graphics/SVG/1.1/DTD/svg11.dtd">
<svg version="1.1" id="Layer_1" xmlns="http://www.w3.org/2000/svg" xmlns:xlink="http://www.w3.org/1999/xlink" x="0px" y="0px"
	 width="720px" height="460px" viewBox="0 0 720 460" enable-background="new 0 0 720 460" xml:space="preserve">
<g>
	<g>
		<g>
			<polygon fill="#CFCDC4" points="664.367,210.939 547.979,407.68 55.633,286.148 267.099,176.099 			"/>
		</g>
		<path fill="#E19882" d="M613.297,228.154c-1.654-3.566-9.457-1.348-12.58-2.672c3.959-3.217,10.244,1.072,14.457-1.207
			c-6.15-1.105-12.84-1.041-19.133-1.506l-298.297-28.139l-0.206,0.131c0.122-0.077,0.206-0.131,0.206-0.131
			c-3.887-0.277-7.773-0.555-11.66-0.83c-2.04-0.146-13.296-2.275-14.582-0.748c2.476,0.791,5.439,0.857,8.049,1.07
			c1.695,0.137,7.805,0.746,2.95,1.93c-4.366,1.064-10.036-1.301-14.704-1.029c2.01,3.289,10.338-0.014,12.938,2.879
			c-2.464,0.893-6.055-0.066-8.662-0.285c-1.699-0.145-6.787-1.475-8.297-0.789c-2.676,1.215,5.173,2.758,6.441,2.939
			c2.743,0.391,5.253,0.432,7.869,1.385c-5.371,3.408-15.588-1.797-21.976-0.551c3.663,3.762,11.854,1.035,15.668,4.191
			c-2.566,1.912-7.563,1.727-10.649,1.062c-2.876-0.619-8.422-3.182-11.181-1.055c2.491,1.559,6.686,2.217,9.589,2.912
			c2.473,0.592,6.01,0.211,8.15,1.531c-4.456,1.445-9.98,1.502-14.57,0.656c-3.252-0.598-7.682-1.871-10.829-0.266
			c2.727,2.035,6.587,1.596,9.819,2.322c1.846,0.414,4.57,0.225,6.062,1.326c-4.239,1.514-9.626,1.418-13.918,0.332
			c-3.225-0.814-6.405-1.344-9.639-0.287c1.741,2.945,11.35,1.322,14.528,1.82c2.158,0.338,3.968,1.02,5.333,2.6
			c-8.658,1.189-16.909-1.932-25.414-1.234c1.616,4.625,16.818-1.859,17.971,4.418c-4.536,1.156-8.672,0.914-13.172-0.154
			c-2.483-0.59-8.332-2.324-10.442-0.59c5.151,3.828,14.96-1.375,19.378,4.186c-8.114,1.555-15.301-2.965-23.285-1.494
			c0.934,2.268,8.482,2.562,10.916,3.139c2.377,0.564,5.438,1.52,7.332,2.859c-4.533,0.383-7.995,0.354-12.252-1.334
			c-2.864-1.133-6.577-1.951-9.76-1.26c-6.176,1.344,4.769,3.113,6.635,3.449c2.935,0.527,9.094,0.646,11.128,2.926
			c-4.259,2.279-12.074-1.416-16.657-1.879c-2.186-0.219-10.336-1.906-11.141,0.824c5.002,3.232,12.99,0.691,17.988,4.172
			c-7.408,0.576-13.867-2.508-21.163-1.229c0.013,0.162,0.017,0.555,0.001,0.711c2.292,0.754,16.238,2.965,16.366,5.049
			c-7.833,2.104-16-6.146-23.743-2.812c2.34,1.777,6.143,2.859,8.934,3.713c2.234,0.684,6.062,0.67,7.713,2.057
			c-1.619,1.795-8.822-0.904-11.168-1.393c-3.491-0.727-6.959-1.164-10.59-0.957c1.66,2.047,8.088,2.729,10.921,3.748
			c2.427,0.875,5.249,1.104,7.341,2.242c-4.135,2.221-9.094-0.262-13.249-1.311c-2.063-0.521-9.469-2.543-10.315,0.336
			c5.518,3.229,15.913,0.096,20.416,4.709c-5.336,0.348-10.216-0.711-15.398-1.752c-3.881-0.779-8.069-1.883-11.9-0.537
			c-0.094,4.133,9.258,3.225,11.734,3.734c2.38,0.488,5.961,1.436,7.835,2.801c-5.883,0.236-9.752-0.234-15.101-2.535
			c-3.003-1.291-7.129-1.707-9.981-0.266c6.03,3.695,14.06,2.803,20.249,6.242c-5.825,0.436-11.506-0.5-17.166-1.732
			c-3.162-0.688-10.18-2.396-12.169,1.209c3.476,2.416,8.991,2.455,13.036,3.229c2.42,0.463,6.096,0.605,7.596,2.873
			c-5.17,1.062-11.069-1.268-16.09-2.334c-2.532-0.537-9.97-3.346-11.447-0.273c4.568,4.064,13.916,2.398,18.517,6.057
			c-4.269,0.279-8.632-0.326-12.72-1.26c-1.648-0.375-8.591-2.576-9.736-0.756c-0.261,0.412-0.19,0.758,0.104,1.047
			c1.262,1.236,6.641,1.439,7.789,1.553c3.541,0.348,6.822,0.879,10.185,1.871c1.056,0.312,5.894,2.047,6.927,1.389l323.82,71.895
			c0,0,0.004-0.006,0,0c1.283-1.633,6.664,1.383,8.084,1.854c3.535,1.174,7.307,1.275,10.912,2.27
			c1.699,0.469,8.195,3.096,7.016-0.648c-1.572-4.992-13.887-1.959-16.881-6.018c5.785-2.166,13.123,3.443,18.967,3.691
			c6.475,0.275,1.021-3.004-1.826-4.092c-2.812-1.076-12.549-1.85-13.139-4.875c7.885-0.764,16.053,3.283,23.912,3.232
			c0.506-5.037-15.502-6.322-17.93-9.234c3.994-0.211,7.865,0.01,11.629,0.951c3.385,0.846,7.184,2.875,10.625,1.609
			c0.176-5.867-16.58-3.607-18.23-7.551c3.408-0.201,7.314-0.119,10.633,0.527c2.57,0.5,5.066,2.246,7.734,1.633
			c-0.006-2.086-14.699-7.348-14.375-7.811c3.131-4.475,17.023,1.439,22.266-0.4c-1.047-3.723-12.887-3.629-16.248-5.092
			c0.139-0.264,0.225-0.545,0.34-0.857c6.855-0.996,14.324,0.592,21.25-0.467c-5.182-3.559-12.752-2.979-18.617-5.35
			c2.535-1.596,6.256-0.564,9.234-0.26c3.898,0.4,7.549,0.967,11.623,1.033c-2.314-4.445-15.408-2.371-16.164-7.299
			c6.42-0.314,14.271,3.396,20.24,1.219c-0.76-3.287-11.959-3.143-14.656-5.602c1.488-1.617,5.332,0.383,7.365,0.658
			c3.271,0.443,7.711,1.021,10.838-0.416c-2.238-1.16-4.734-2.559-7.172-3.168c-3.305-0.826-6.207-0.172-8.965-2.498
			c5.266-4.064,15.297,3.824,21.246,1.006c-3.639-4.207-11.332-2.307-15.246-5.85c4.309-0.582,13.102,3.619,16.58,0.684
			c-2.5-1.096-13.846-1.645-13.896-4.367c5.98-0.264,13.809,1.951,19.562-0.107c-0.18-3.457-12.104-4.02-14.904-4.656
			c0.029-0.178,0.02-0.715,0.008-0.904c3.463-0.754,13.629,3.115,15.664-0.066c-2.982-3.172-7.574-3.391-11.34-5.381
			c1.469-4.141,10.891,1.295,13.965-0.594c3.908-2.398-9.545-3.314-10.639-4.432c2.088-1.898,6.043-0.186,8.318,0.398
			c0.268,0.068,9.07,1.475,7.688-0.299c-1.145-1.465-13.008-2.871-11.307-5.941c0.811-1.459,5.6,0.115,6.74,0.34
			c3.305,0.648,5.938,0.439,9.141-0.123c0.215-5.076-10.221-1.508-10.562-5.902c3.475-0.277,12.041,2.822,14.312,0.285
			c-3.883-3.814-8.666-1.854-13.312-3.391c0.178-4.135,13.867,0.619,16.562-0.693c-2.723-4.629-10.82-1.883-14.332-4.916
			c2.668-1.096,15.123,2.15,15.332-1.277c-2.359-0.705-4.457-1.275-6.932-1.389c-1.918-0.09-7.773-0.414-3.016-1.666
			c4.971-1.309,11.5,1.803,16.623-0.066c-1.617-3.506-13.721,0.316-13.906-3.553c3.869-0.107,13.664,1.582,16.664-1.041
			c-3.547-3.09-11.773-0.582-15.021-3.943c5.734-1.383,11.102,1.014,16.938,0.201c-2.576-4.68-10.85-0.396-12.92-4.875
			C601.93,227.369,609.984,230.672,613.297,228.154z"/>
		<g>
			<polygon fill="#EBDB8A" points="388.355,228.287 381.883,232.17 370.834,231.158 370.252,218.406 360.947,217.574 
				361.35,225.492 354.496,229.743 353.629,229.58 352.982,215.562 359.453,212.541 387.926,214.914 			"/>
			<polygon fill="#E4ECF2" points="404.967,230.229 398.496,234.111 385.121,232.385 384.475,218.363 390.943,215.346 
				404.533,216.855 			"/>
			<polygon fill="#888886" points="397.998,232.777 386.201,231.447 385.785,220.482 397.832,221.729 			"/>
			<polygon fill="#E4ECF2" points="422.723,230.348 416.002,235.57 402.627,233.844 401.98,219.824 408.451,216.805 
				422.041,218.314 			"/>
			<polygon fill="#E4ECF2" points="313.799,267.537 331.445,252.994 330.67,226.041 324.076,224.295 304.299,235.932 
				305.268,266.182 			"/>
			<polygon fill="#6185A6" points="342.033,242.646 341.633,231.061 339.234,231.061 308.873,253.834 308.971,278.145 
				323.254,279.404 354.018,255.432 354.816,244.244 			"/>
			<g>
				<polygon fill="#E4ECF2" points="415.668,246.688 380.408,242.705 361.334,258.484 361.553,260.682 398.756,267.773 
					415.887,248.885 				"/>
				<polygon fill="#E4ECF2" points="371.42,277.379 369.732,279.066 366.611,278.217 364.416,259.766 369.332,259.16 				"/>
				<polygon fill="#E4ECF2" points="400.234,282.115 398.324,284.357 394.785,283.584 392.369,263.814 397.746,263.174 				"/>
				<polygon fill="#E4ECF2" points="415.809,267.508 414.039,269.521 410.926,269.074 409.387,249.527 414.451,248.324 				"/>
			</g>
			<g>
				<polygon fill="#CD4917" points="381.309,279.889 366.934,279.025 358.594,288.227 358.594,289.348 374.121,291.07 
					381.309,281.008 				"/>
				<polygon fill="#CD4917" points="372.146,278.764 369.908,268.691 356.396,268.402 355.697,269.244 357.883,278.67 
					371.449,279.604 				"/>
				<polygon fill="#CD4917" points="374.52,299.564 373.98,300.08 373.008,299.854 368.41,275.775 369.92,275.486 				"/>
				<polygon fill="#CD4917" points="382.607,294.205 382.121,294.664 381.1,294.492 378.482,280.783 379.988,280.494 				"/>
				<polygon fill="#CD4917" points="370.297,291.824 369.818,292.27 368.785,292.115 366.926,282.365 368.436,282.076 				"/>
				<polygon fill="#CD4917" points="364.328,297.195 363.666,297.686 362.818,297.484 357.887,274.633 359.393,274.344 				"/>
			</g>
			<g>
				<polygon fill="#CD4917" points="433.834,262.504 420.949,260.213 413.877,269.949 414.307,271.525 428.68,274.1 433.979,264.08 
									"/>
				<polygon fill="#CD4917" points="431.4,245.467 426.676,253.629 426.676,261.787 428.105,261.787 432.83,253.629 432.83,245.467 
									"/>
				<polygon fill="#CD4917" points="433.457,277.488 433.146,277.754 432.174,277.553 430.842,251.09 432.129,251.025 				"/>
				<polygon fill="#CD4917" points="430.166,284.074 429.83,284.422 428.879,284.139 427.545,257.674 428.834,257.609 				"/>
				<polygon fill="#CD4917" points="417.293,282.553 416.912,282.857 416.008,282.617 415.381,270.195 416.666,270.129 				"/>
				<polygon fill="#CD4917" points="423.436,274.625 423.125,274.881 422.15,274.691 421.523,262.27 422.811,262.203 				"/>
			</g>
			<g>
				<polygon fill="#CD4917" points="427.736,227.139 415.877,226.428 409.002,234.016 409.002,234.939 421.807,236.363 
					427.736,228.062 				"/>
				<path fill="#CD4917" d="M426.951,222.008l-1.844-8.307c-0.033-0.143-3.615-0.078-3.871-0.084c-1-0.02-1.664-0.115-2.371,0.688
					c-0.555,0.631-0.643,1.18-1.719,2.256c-1.346,1.346-2.357,1.246-2.84,1.619c0.201,0.389,0.625,3.732,0.881,3.75l11.189,0.77
					L426.951,222.008z"/>
				<polygon fill="#CD4917" points="428.365,236.443 427.926,236.787 427.117,236.684 423.324,216.826 424.568,216.586 				"/>
				<polygon fill="#CD4917" points="422.965,243.225 422.586,243.6 421.719,243.461 419.562,232.156 420.807,231.916 				"/>
				<polygon fill="#CD4917" points="412.812,241.264 412.484,241.664 411.566,241.5 410.031,233.461 411.275,233.223 				"/>
				<polygon fill="#CD4917" points="419.824,233.791 418.582,234.027 415.197,218.777 416.443,218.539 				"/>
			</g>
			<g>
				<g>
					<g>
						<g>
							<path fill="#7A574A" d="M552.932,235.463c-1.918-2.094-5.424,0.76-12.354,0.434c-1.566-0.074-3.072,1.215-3.586,1.711
								c0,0,3.08,1.195,4.902,4.055c1.895,2.977,1.508,5.566,1.508,5.566c4.188-0.6,7.725-4.146,8.832-6.035
								C553.471,239.092,553.68,236.277,552.932,235.463z"/>
						</g>
					</g>
				</g>
				<g>
					<path fill="#7A574A" d="M413.404,216.404c1.328,0.582,2.523,0.219,3.637-1.059c1.146-1.314,1.912-2.555,2.912-2.404
						c0.762,0.076,5.127,0.096,5.674,0.119c0.074-0.322,0.109-0.426,0.148-0.779c0.295-2.65-0.441-5.303-3.619-6.082
						c-3.5-0.859-5.996,0.387-8.014,2.99C412.531,211.262,411.049,215.375,413.404,216.404z"/>
				</g>
				<g>
					<g>
						<path fill="#7A574A" d="M431.904,103.238c-1.672,1.092-3.223,2.189-4.598,3.213c-0.268,0.943-0.48,1.928-0.619,2.967
							c-2.203,16.631,10.801,36.459,10.801,36.459l0.889-2.719l5.15,4.285l0.342-1.047c-3.506-4.104-6.842-9.23-9.66-15.547
							C430.154,121.775,429.391,112.169,431.904,103.238z"/>
					</g>
					<g>
						<g>
							<path fill="#7A574A" d="M447.082,95.042c8.15-1.66,17.035,4.344,20.34,7.434c1.893,1.77,6.018,4.662,11.725,14.193
								c4.266,7.125,12.709,25.816,12.801,25.959c1.568-1.827,3.762-6.749,3.762-6.749l5.225,6.564l4.238-11.033l3.492,4.85
								c0,0,0.971-20.379-4.432-34.881c-5.135-13.777-16.254-21.807-24.373-24.566c-6.74-2.295-13.15-3.201-20.877-1.123
								c-8.547,2.303-14.582,6.893-23.33,12.146c-6.969,4.188-21.471,10.283-21.471,10.283l12.9,0.869l-6.623,11.524
								C420.459,110.514,434.666,97.572,447.082,95.042z"/>
							<path fill="#7A574A" d="M490.041,141.457c-5.473-12.029-9.467-20.172-11.879-24.197c-4.836-8.08-8.443-11.236-10.598-13.121
								c-0.35-0.307-0.66-0.576-0.926-0.826c-2.744-2.562-9.752-7.408-16.652-7.408c-0.922,0-1.822,0.088-2.676,0.262
								c-4.646,0.945-9.594,3.432-13.92,6.123c-2.695,8.451-2.539,18.232,1.863,28.094c10.406,23.301,28.182,30.385,34.73,28.301
								c5.084-1.619,13.734-7.316,20.613-16.037C490.541,142.558,490.535,142.545,490.041,141.457z M443.008,133.074
								c-1.107,0.324-2.604-1.408-3.332-3.881c-0.727-2.475-0.41-4.744,0.697-5.072c1.111-0.326,2.605,1.412,3.332,3.885
								C444.434,130.48,444.121,132.746,443.008,133.074z M455.391,119.736c1.266-0.371,2.867,1.291,3.584,3.711
								c0.709,2.422,0.266,4.686-1.004,5.061c-1.262,0.369-2.865-1.289-3.58-3.71C453.68,122.373,454.127,120.109,455.391,119.736z"
								/>
						</g>
					</g>
				</g>
				<g>
					<path fill="#7A574A" d="M427.184,213.156c-1.184,1.309-1.354,3.115-0.668,4.625c0.654,1.439,2.451,1.793,3.578,1.141
						c0.623-0.359,1.186-0.688,1.912-0.799c0.891-0.137,1.77,0.039,2.619,0.311c1.023,0.326,2.064,0.555,3.154,0.494
						c0.877-0.047,1.615-0.266,2.08-0.83c0.441-0.533,0.506-1.564,0.48-2.23c-0.064-1.482-0.926-2.73-2.154-3.518
						C433.967,209.646,430.189,209.826,427.184,213.156z"/>
				</g>
				<g>
					<path fill="#7A574A" d="M440.1,212.557l2.756,8.021c35.473-7.883,63.156-29.987,61.588-49.949
						c-0.469-5.944-7.82-11.916-14.309-8.135c-8.035,4.682-9.248,16.42-17.604,27.523C469.855,193.568,459.01,205.432,440.1,212.557
						z"/>
					<path fill="#7A574A" d="M520.82,161.798c-7.695-11.143-13.797-14.594-18.938-16.729c-2.818-1.17-8.447-1.224-10.898-1.188
						c-6.922,8.549-15.51,14.189-20.674,15.834c-0.826,0.262-1.783,0.395-2.846,0.395c-2.438,0-5.555-0.715-8.979-2.295
						c-8.836,12.291-18.064,32.777-34.771,45.967l4.564,5.848c21.209-12.371,34.021-29.604,34.021-29.604s4.41,3.908,6.832,12.27
						c1.57-1.674,2.416-2.778,2.533-2.932c2.699-3.59,4.662-7.295,6.34-10.766c0.201-0.035,0.912,0.17,1.045,0.305
						c-1.758,3.672-3.633,7.275-6.52,11.113c-0.602,0.797-1.639,2.03-3.064,3.52c1.158,4.594,1.689,10.41,0.678,17.533
						c18.025-8.877,30.906-21.374,33.75-33.745c0.223-0.146,0.867,0.09,1.066,0.246c-1.811,7.889-7.557,15.993-16.74,23.405
						c-5.301,4.277-11.488,8.115-18.277,11.4c-0.029,0.168-0.049,0.33-0.078,0.5c-2.76,15.898,47.441,16.176,71.682,0.342
						C540.227,189.619,528.516,172.941,520.82,161.798z"/>
				</g>
				<path fill="#7A574A" d="M540.947,242.422c-1.998-3.43-5.096-4.162-5.096-4.162s-8.191,5.527-15.572,6.896
					c11.146-6.115,21.045-17.838,21.457-30.453c-0.008-0.02-1.23,0.721-1.238,0.701c-9.846,6.23-28.727,11.006-43.662,11.006
					c-12.428,0-22.299-2.311-26.176-6.922c-1.469-1.744-2.129-3.719-1.975-5.881c-11.693,7.373-25.604,20.432-19.48,31.787
					c4.078,7.564,13.887,8.51,16.926,8.619c-0.334-2.895,0.242-5.709,1.73-8.836c2.738-5.762,8.49-10.445,10.189-11.744l0.656,0.859
					c-1.648,1.262-7.232,5.807-9.869,11.35c-2.084,4.383-2.264,8.113-0.512,12.43c1.605,3.373,5.176,7.961,13.02,10.129
					c20.436,5.65,42.852-7.076,60.938-20.652C542.283,247.549,542.383,244.887,540.947,242.422z"/>
			</g>
		</g>
	</g>
	<g>
		<g>
			<path fill="#A1856E" d="M340.363,161.575c-0.758,1.154-1.697,2.267-3.01,1.22c-1.162-0.924-0.824-2.256-0.881-3.516
				c-0.074-1.615-0.412-2.825-1.379-3.057c-1.303-0.314-1.484,2.089-2.484,1.941c-0.799-0.114-0.887-1.156-0.916-2.093
				c-0.025-1.014,0.504-2.269,0.975-3.017c1.029-1.637,2.621-2.14,4.297-1.518C340.592,152.877,342.541,158.271,340.363,161.575z"/>
			<path fill="#A1856E" d="M233.013,157.235c0.717,1.18,1.618,2.324,2.965,1.324c1.193-0.882,0.902-2.226,1.004-3.483
				c0.129-1.61,0.51-2.809,1.484-3.006c1.312-0.268,1.41,2.14,2.416,2.028c0.801-0.087,0.926-1.126,0.987-2.061
				c0.062-1.012-0.425-2.284-0.868-3.048c-0.973-1.672-2.546-2.23-4.242-1.668C233.089,148.535,230.951,153.859,233.013,157.235z"/>
			<path fill="#A1856E" d="M268.217,217.832c-1.501,0.252-4.962,0.732-6.222-0.028c-2.713-1.64,1.619-3.586,3.82-4.298
				C271.463,211.678,274.911,216.709,268.217,217.832z"/>
			<path fill="#A1856E" d="M313.16,217.745c1.512,0.156,4.998,0.424,6.205-0.416c2.607-1.801-1.836-3.476-4.078-4.051
				C309.537,211.805,306.408,217.039,313.16,217.745z"/>
		</g>
		<g>
			<g>
				<path fill="#A1856E" d="M295.342,164.66c-8.563,0-17.37-1.253-24.162-3.438c-4.587-1.476-8.01-3.285-10.191-5.348
					c-0.018,0.065-0.042,0.119-0.06,0.185c-3.975,19.496,1.61,45.226,3.576,55.952l5.449-0.123
					c4.705-15.063,12.504-29.45,19.971-33.851c8.691,6.872,14.591,18.998,20.39,33.743l5.975-0.225
					c2.748-14.968,2.797-36.413,0.234-50.608C311.672,163.351,304.273,164.66,295.342,164.66z"/>
			</g>
		</g>
	</g>
</g>
<g>
	<g>
		<path fill="#A1856E" d="M280.845,86.527c2.727-1.196,4.584-0.684,6.986-0.689c1.105-5.871,2.502-10.016,5.577-13.193
			c2.594-2.674,7.688-4.476,12.117-4.585c3.287-0.08,7.17,0.515,9.613,2.34c2.881,2.148,2.938,6.776,2.562,11.303
			c2.533-7.417-0.115-15.874-4.516-20.958c-4.26-4.922-19.294-12.093-30.081-6.213c-17.489,9.532-11.389,33.769-9.887,37.087
			c0.586,1.294,3.861,4.898,4.955,5.696C277.786,92.176,278.501,87.553,280.845,86.527z"/>
		<g>
			<path fill="#A1856E" d="M314.539,71.2c-1.828-1.365-4.904-2.148-8.439-2.148c-0.186,0-0.369,0.002-0.551,0.007
				c-4.316,0.106-9.12,1.907-11.422,4.28c-3.014,3.114-4.304,7.322-5.313,12.683l-0.192,0.815h-0.83
				c-0.582,0-1.125-0.027-1.65-0.055c-0.49-0.025-0.953-0.049-1.417-0.049c-0.92,0-2.054,0.084-3.479,0.709
				c-1.654,0.724-2.47,4.569-2.076,9.796l0.003,0.045c0.817,1.175,1.731,2.325,2.773,3.35c4.967,4.889,11.963,7.403,15.482,7.805
				c4.343,0.495,14.319-5.818,18.481-20.876c0.025-0.109,0.053-0.228,0.086-0.354l0.064-0.294c0.148-0.688,0.266-1.388,0.377-2.088
				l0.266-3.207C317.043,77.519,317.053,73.074,314.539,71.2z M303.242,84.369c-0.152,1.67-0.986,2.955-1.857,2.875
				c-0.871-0.083-1.453-1.5-1.3-3.168c0.156-1.668,0.987-2.956,1.856-2.876C302.814,81.281,303.396,82.699,303.242,84.369z
				 M313.393,85.347c-0.16,1.702-0.912,3.023-1.674,2.955c-0.768-0.071-1.262-1.508-1.105-3.213c0.16-1.704,0.908-3.026,1.674-2.956
				S313.547,83.642,313.393,85.347z"/>
			<path fill="#A1856E" d="M330.455,151.886l6.092-2.817c-8.83-20.114-17.867-35.454-30.57-43.228c-0.002,0-0.002,0.001-0.002,0.002
				c-1.42,1.159-2.822,2.033-4.143,2.63c-0.088,0.041-0.178,0.084-0.266,0.122c-0.236,0.102-0.469,0.19-0.699,0.274
				c-0.156,0.057-0.311,0.109-0.464,0.158c-0.186,0.059-0.369,0.115-0.55,0.161c-0.204,0.053-0.401,0.093-0.599,0.13
				c-0.131,0.024-0.266,0.056-0.394,0.073c-0.324,0.046-0.64,0.074-0.938,0.074c0,0-0.001,0-0.002,0c0,0,0,0,0,0
				c-0.207,0-0.412-0.011-0.605-0.033c-3.572-0.408-10.801-2.898-16.071-8.086c-0.116-0.114-0.23-0.239-0.345-0.359
				c-0.113-0.117-0.226-0.229-0.337-0.35c-20.371,3.291-35.978,25.032-43.57,44.041l5.963,2.959c9-16.251,22.25-24.751,22.25-24.751
				s-3.301,12.665-5.965,28.024c1.711,12.341,45.06,17.065,58.634,8.117c-1.434-17.585-6.861-30.355-6.861-30.355
				S319.955,132.886,330.455,151.886z"/>
		</g>
	</g>
</g>
</svg>
