<?xml version="1.0" encoding="utf-8"?>
<!-- Generator: Adobe Illustrator 15.0.2, SVG Export Plug-In . SVG Version: 6.00 Build 0)  -->
<!DOCTYPE svg PUBLIC "-//W3C//DTD SVG 1.1//EN" "http://www.w3.org/Graphics/SVG/1.1/DTD/svg11.dtd">
<svg version="1.1" id="Layer_1" xmlns="http://www.w3.org/2000/svg" xmlns:xlink="http://www.w3.org/1999/xlink" x="0px" y="0px"
	 width="720px" height="460px" viewBox="0 0 720 460" enable-background="new 0 0 720 460" xml:space="preserve">
<g>
	<ellipse fill="#CABFA9" cx="360" cy="284.275" rx="352.079" ry="133.332"/>
</g>
<path fill="#E7D795" d="M360.001,188.746c-184.348,0-335.594,47.017-350.814,106.887c15.221,68.322,166.467,121.975,350.814,121.975
	c184.344,0,335.592-53.652,350.811-121.975C695.593,235.763,544.345,188.746,360.001,188.746z"/>
<path fill="#DEC96E" d="M224.45,264.604c3.723,4.065,8.02,3.675,11.02,9.245c2.316,4.303-0.572,7.609,3.878,11.025
	c3.967,3.042,15.034,1.916,19.823,2.174c10.26,0.551,17.76,2.874,28.227,2.777c23.15-0.214,46.945,2.661,68.777-5.746
	c4.082-1.57,10.082-1.938,12.072-6.425c3.174-7.157-2.818-7.809-5.646-11.806c-1.793-2.534-4.139-6.25-6.174-9.049
	c-0.49-0.674-4.1-0.914-4.881-2.174c-1.012-1.629,0.998-5.438-0.152-6.797c-5.947-7.029-21.398-3.311-31.992-5.785
	c-4.172-0.974-7.961-2.637-12.281-3.238c-2.154-0.301-5.008,1.537-6.773,1.091c-2.393-0.604-3.195-3.556-4.121-3.872
	c-13.615-4.651-43.545-13.001-57.396-6.587c-8.902,4.122-4.658,9.52-7.488,16.513C227.79,254.724,216.032,255.412,224.45,264.604z"
	/>
<g>
	<g>
		<path fill="#C83B0C" d="M368.45,221.095c-1.274-5.081-7.788-7.727-11.33-2.373c0.126-0.01,0.25-0.033,0.378-0.033
			c2.186,0,4.538,1.451,6.141,3.789c1.507,2.198,1.991,4.586,1.295,6.385c-0.865,2.236-2.182,4.578-3.865,6.962
			c1.005,0.517,2.311,0.695,4.103,0.431C371.017,235.39,369.733,226.206,368.45,221.095z"/>
	</g>
	<g>
		<path fill="#C83B0C" d="M213.909,208.57c1.68-1.613,4.082-1.811,5.65-0.766c1.682,1.121,2.232,3.631,1.279,5.121
			c2.662,1.793,6.887-1.348,8.121-4.492c1.666-4.248-0.48-9.445-5.811-9.885c-3.875-0.316-8.646,0.721-10.07,4.104
			C211.671,205.996,212.712,209.725,213.909,208.57z"/>
		<g>
			<path fill="#C83B0C" d="M219.716,212.352c0.02-0.038,0.025-0.077,0.048-0.113c0.545-0.855,0.225-2.613-0.91-3.371
				c-0.428-0.281-0.957-0.434-1.531-0.434c-0.887,0-1.783,0.373-2.479,1.016c-1.447,1.461-2.287,3.475-3.156,3.508
				c-1.947,0.07-4.928-0.121-6.699,1.166c-2.742,1.992-7.928,5.758-10.584,10.94c-2.33,4.548-1.635,7.649,0.635,9.554
				c2.234,1.875,8.428,2.496,12.746-1.093c5.014-4.165,10.342-10.55,10.773-12.499c0.471-2.117-1.227-3.244-1.75-4.898
				C216.374,214.758,217.997,214.082,219.716,212.352z"/>
		</g>
	</g>
	<g>
		<path fill="#C83B0C" d="M383.519,215.295c-1.002,1.721-3.102,2.771-4.867,1.111c-1.561-1.465-0.92-3.34-0.854-5.158
			c0.082-2.328-0.266-4.109-1.627-4.555c-1.834-0.605-2.377,2.829-3.799,2.502c-1.137-0.257-1.143-1.77-1.072-3.117
			c0.08-1.459,0.988-3.201,1.754-4.222c1.672-2.237,4.02-2.771,6.354-1.685C384.468,202.525,386.499,210.174,383.519,215.295z"/>
	</g>
	<g>
		<path fill="#C83B0C" d="M245.933,74.375c-1.861,1.219-3.59,2.441-5.123,3.58c-0.295,1.051-0.533,2.149-0.688,3.306
			c-2.455,18.526,12.033,40.614,12.033,40.614l0.988-3.029l5.74,4.773l0.379-1.168c-3.908-4.57-7.621-10.28-10.764-17.317
			C243.983,95.026,243.132,84.326,245.933,74.375z"/>
	</g>
	<g>
		<path fill="#C83B0C" d="M354.778,220.69c-4.637,3.717-8.207,7.216-16.188,10.604c11.568-7.178,15.993-14.525,13.985-23.932
			c-14.102,8.65-37.711,12.533-55.17,12.533c-14.982,0-25.881-2.73-29.9-7.492c-0.373-0.441-0.688-0.9-0.947-1.373
			c-1.362,1.406-2.631,2.81-3.772,4.187c-8.891,10.728-14.346,22.415-4.281,34.071c7.723,8.945,22.271,5.283,22.271,5.283
			s3.85,11.596,19.66,12.418c24.455,1.273,57.077-21.721,63.564-38.488C365.542,224.517,359.415,216.97,354.778,220.69z"/>
	</g>
	<g>
		<g>
			<g>
				<path fill="#C83B0C" d="M262.843,65.246c9.076-1.848,18.973,4.84,22.656,8.281c2.109,1.971,6.705,5.193,13.061,15.812
					c4.752,7.938,14.154,28.758,14.256,28.914c1.75-2.033,4.193-7.516,4.193-7.516l5.822,7.312l4.721-12.291l3.889,5.402
					c0,0,1.082-22.701-4.936-38.854c-5.721-15.348-18.109-24.292-27.152-27.366c-7.506-2.557-14.648-3.566-23.256-1.25
					c-9.52,2.563-16.244,7.676-25.988,13.532c-7.762,4.663-23.918,11.452-23.918,11.452l14.369,0.968l-7.377,12.836
					C233.183,82.479,249.009,68.066,262.843,65.246z"/>
			</g>
			<g>
				<g>
					<path fill="#C83B0C" d="M310.694,116.951c-6.094-13.402-10.545-22.469-13.229-26.957c-5.389-8.998-9.406-12.515-11.809-14.615
						c-0.389-0.342-0.734-0.644-1.029-0.92c-3.059-2.854-10.867-8.254-18.553-8.254c-1.027,0-2.029,0.1-2.98,0.292
						c-5.176,1.057-10.686,3.826-15.502,6.824c-3.008,9.411-2.834,20.308,2.072,31.292c11.594,25.957,31.393,33.848,38.688,31.529
						c5.664-1.805,15.303-8.152,22.963-17.867C311.253,118.175,311.245,118.162,310.694,116.951z M258.302,107.613
						c-1.234,0.361-2.9-1.57-3.713-4.324c-0.807-2.755-0.457-5.285,0.779-5.648c1.238-0.363,2.902,1.57,3.713,4.325
						S259.542,107.246,258.302,107.613z M272.097,92.753c1.406-0.414,3.191,1.438,3.99,4.135c0.791,2.696,0.297,5.22-1.115,5.638
						c-1.404,0.409-3.193-1.437-3.988-4.136C270.19,95.69,270.688,93.169,272.097,92.753z"/>
					<g>
						<path fill="#C83B0C" d="M305.028,126.519c-6.021,5.563-12.207,9.248-16.373,10.576c-0.9,0.286-1.945,0.431-3.106,0.431
							c-3.778,0-9.022-1.549-14.622-5.121c-24.006,10.338-43.08,33.703-50.541,63.523l7.715,1.205
							c11.74-27.735,39.646-36.424,39.646-36.424s4.752,11.998-0.98,45.659c-3.018,17.719,61.123,15.783,86.15-0.395
							c-1.471-26.29-11.533-42.764-11.533-42.764s22.32,6.744,31.098,35.288l9.391-1.363
							C376.839,150.679,340.067,128.084,305.028,126.519z"/>
					</g>
				</g>
			</g>
		</g>
	</g>
</g>
<g>
	<ellipse fill="#A0B0C4" cx="554.944" cy="328.031" rx="103" ry="39.858"/>
	<path fill="#879CB5" d="M653.901,313.354c0.215-2.202-0.117-4.438-1.174-6.648c-8.129-16.992-62.348-71.582-74.822-84.057
		c-7.668-7.668-16.051-12.184-25.943-11.445c-9.975,0.744-21.102,6.943-29.09,14.932c-8.703,8.702-66.045,64.404-68.131,74.488
		c-0.201,0.972-0.494,1.433-0.494,4.771c0,3.412-0.02,14.806,0.017,15.712c0.733,18.136,23.47,27.591,32.151,31.146
		c20.34,8.332,47.867,10.971,68.812,10.971c44.049,0,72.516-9.078,84.83-17.426c6.65-4.51,13.834-10.971,13.906-18.731
		C653.981,325.234,653.687,315.553,653.901,313.354z"/>
	<g>
		<path fill="#A0B0C4" d="M454.264,306.255c-0.071-1.811,0.075-3.688,0.478-5.631c2.086-10.084,59.428-65.786,68.131-74.488
			c7.988-7.988,19.115-14.188,29.09-14.932c9.893-0.738,18.275,3.777,25.943,11.445c12.475,12.475,66.693,67.064,74.822,84.057
			c4.584,9.584-4.451,18.667-12.67,24.24c-12.314,8.348-43.447,17.426-84.83,17.426c-20.945,0-48.473-2.639-68.812-10.971
			C477.733,333.847,454.997,324.392,454.264,306.255z"/>
	</g>
</g>
<path fill="#DEC96E" d="M172.597,235.115c3.863,0.977,4.208,0.053,7.295,2.414c1.557,1.191,2.258,3.766,4.16,4.703
	c6.758,3.322,9.943-1.691,14.5,5.529c1.906,3.02,6.447,8.305,0.546,11.031c2.545,4.521-4.111,7.496-7.283,4.875
	c-2.898,6.191-9.59,3.994-14.408,1.641c-1.027,6.459-10.273-0.582-13.205-1.426c-1.787-0.514-14.977-0.77-8.168-6.291
	c-3.584-1.762-3.062-5.148-1.086-7.9c-3.783-1.348-2.467-4.76,1.215-5.664c-0.27-0.609-0.211-2.154-0.459-2.76
	c0.295,0.723,6.668-5.883,7.236-6.215C167.077,232.643,167.774,233.895,172.597,235.115z"/>
<path fill="#DEC96E" d="M198.329,224.16c0.584-3.508,6.457-7.316,7.912-3.105c3.188-3.489,9.836,4.371,3.736,5.107
	c-1.453,3.295-3.547,7.643-7.293,8.383C196.354,235.795,191.642,225.961,198.329,224.16z"/>
<path fill="#DEC96E" d="M254.188,281.441c6.453-2.729,9.08-1.314,14.967,0.869c6.309,2.337,9.324-0.416,16.113-3.195
	c4.326-1.77,31.379-18.977,31.061-7.988c3.576-1.131,14.303-3.455,14.342,2.488c6.123,0.188,13.191,5.545,16.836,9.102
	c0.594,0.578-0.32,2.621,0.717,3.523c1.602,1.396,4.432,0.152,5.959,1.441c4.906,4.141-1.271,7.137-3.025,11.855
	c8.141,2.85-7.01,18.36-10.793,19.479c-1.324,8.953-13.486,10.3-20.643,11.82c-12.086,2.566-21.686,5.42-33.576,3.781
	c-7.744-1.066-13.805-4.234-21.24-5.898c-4.176-0.936-25.107-3.213-16.916-10.912c-9.631,0.312-16.211-8.133-12.213-16.383
	c0.832-1.719,3.068-2.658,3.994-4.385c0.986-1.838,0.617-4.502,2.277-6.849C244.8,286.305,249.901,283.254,254.188,281.441z"/>
<path fill="#DEC96E" d="M208.144,271.201c4.068-0.979,7.492,4.127,6.449,7.823c-1.926,6.823-11.377,3.808-16.205,3.546
	c-4.607-0.248-13.51,1.779-12.477-5.852C186.747,270.537,209.298,264.022,208.144,271.201z"/>
<path fill="#DEC96E" d="M398.226,241.055c6.607-0.85,4.91,10.998-1.834,11.516c6.723,5.756-6.275,6.162-9.119,6.029
	c-7.373-0.344-15.27-7.465-7.725-14.592C382.257,241.449,398.487,234.307,398.226,241.055z"/>
<path fill="#DEC96E" d="M399.104,276.746c-4.041,3.908-17.441-0.834-11.582-6.881C391.739,265.512,405.083,270.967,399.104,276.746z
	"/>
<path fill="#DEC96E" d="M449.749,282.25c3.527,5.137,5.65,7.547-2.299,9.07C432.521,294.182,438.587,279.729,449.749,282.25z"/>
</svg>
