<?xml version="1.0" encoding="utf-8"?>
<!-- Generator: Adobe Illustrator 15.0.2, SVG Export Plug-In . SVG Version: 6.00 Build 0)  -->
<!DOCTYPE svg PUBLIC "-//W3C//DTD SVG 1.1//EN" "http://www.w3.org/Graphics/SVG/1.1/DTD/svg11.dtd">
<svg version="1.1" id="Layer_1" xmlns="http://www.w3.org/2000/svg" xmlns:xlink="http://www.w3.org/1999/xlink" x="0px" y="0px"
	 width="720px" height="460px" viewBox="0 0 720 460" enable-background="new 0 0 720 460" xml:space="preserve">
<g>
	<polygon fill="#BABF5C" points="167.181,177.991 571.628,190.49 571.628,148.878 167.181,141.378 	"/>
	<polygon fill="#AAB036" points="165.181,192.99 569.628,205.49 569.628,159.878 165.181,151.378 	"/>
</g>
<g>
	<polygon fill="#E0D3B5" points="384.116,393.621 559.681,399.621 674.819,202.846 600.31,202.445 	"/>
</g>
<g>
	<polygon fill="#CED19C" points="45.18,380.095 285.911,389.24 562.681,202.145 179.79,191.655 53.67,262.667 	"/>
</g>
<polygon fill="#AAB036" points="600.31,202.445 384.116,393.621 380.618,262.667 598.976,148.521 "/>
<polygon fill="#99A031" points="285.911,389.24 384.116,393.621 380.618,262.667 284.435,259.075 "/>
<polygon fill="#BABF5C" points="571.628,148.878 284.435,259.075 380.618,262.667 598.976,148.521 "/>
<polygon fill="#F3E6C6" points="185.181,202.445 53.67,262.667 62.18,124.025 179.181,91.379 "/>
<polygon fill="#C9887A" points="127.622,60.379 66.425,76.379 62.18,124.025 191.181,91.379 "/>
<g>
	<g>
		<path fill="#7A574A" d="M465.778,206.273c-0.164,1.263-0.16,2.617,1.541,2.768c1.504,0.137,2.109-0.975,2.975-1.78
			c1.109-1.032,2.162-1.622,3.062-1.149c1.215,0.635-0.21,2.359,0.662,2.911c0.695,0.44,1.441-0.199,2.076-0.808
			c0.68-0.66,1.087-1.844,1.209-2.648c0.268-1.764-0.639-3.133-2.346-3.805C471.269,200.307,466.24,202.65,465.778,206.273z"/>
		<path fill="#7A574A" d="M595.146,226.811c-0.616,1.112-1.423,2.193-2.871,1.283c-1.285-0.802-1.113-2.059-1.33-3.229
			c-0.277-1.497-0.77-2.608-1.771-2.776c-1.348-0.228-1.229,2.017-2.254,1.93c-0.816-0.067-1.037-1.034-1.184-1.903
			c-0.154-0.942,0.222-2.136,0.6-2.854c0.831-1.575,2.367-2.12,4.131-1.625C594.28,218.706,596.921,223.631,595.146,226.811z"/>
		<path fill="#7A574A" d="M567.813,287.188c-1.237,0.338-4.115,1.01-5.393,0.249c-2.75-1.642,0.523-3.93,2.255-4.794
			C569.118,280.422,573.334,285.679,567.813,287.188z"/>
		<path fill="#7A574A" d="M525.993,286.812c-1.217,0.397-4.047,1.216-5.291,0.492c-2.68-1.546,0.552-4.028,2.258-4.988
			C527.339,279.854,531.422,285.024,525.993,286.812z"/>
	</g>
	<g>
		<g>
			<path fill="#7A574A" d="M557.778,234.498c-7.219,2.305-16.77,3.625-26.201,3.625c-6.938,0-13.289-0.701-18.557-2.033
				c0.355,12.977,3.193,28.309,9.091,44.881l6.048,0.11c1.328-14.989,7.186-23.464,13.187-31.479
				c7.935,3.976,17.11,17.911,23.224,31.869l5.512,0.023c0.992-9.813,4.342-36.711-1.629-52.702
				C566.29,230.995,562.706,232.926,557.778,234.498z"/>
		</g>
	</g>
	<g>
		<g>
			<path fill="#7A574A" d="M513.996,141.901c5.36-0.04,10.232,4.86,11.938,7.225c0.979,1.353,3.227,3.695,5.652,10.43
				c1.814,5.035,4.322,15.608,4.362,15.707c1.311-0.576,3.387-3.37,3.387-3.37l2.829,6.665l4.051-6.449l1.604,3.498
				c0,0,3.144-12.765,1.528-22.606c-1.537-9.347-7.572-15.807-12.363-18.562c-3.978-2.285-7.918-3.654-13.062-3.298
				c-5.69,0.395-10.077,2.547-16.261,4.785c-4.925,1.783-14.851,3.835-14.851,3.835l8.046,2.151l-5.617,6.465
				C495.241,148.379,505.831,141.959,513.996,141.901z"/>
			<path fill="#7A574A" d="M503.123,145.587c-1.165,0.482-2.253,0.978-3.216,1.444c-0.215,0.456-0.42,0.923-0.592,1.428
				c-3.456,10.243,2.305,24.395,2.305,24.395l0.897-1.607l2.728,3.347l0.299-0.535c-1.746-3.069-3.242-6.752-4.238-11.089
				C499.903,156.877,500.634,150.793,503.123,145.587z"/>
		</g>
		<g>
			<path fill="#7A574A" d="M544.323,178.28c-2.373-0.444-4.812-0.714-7.258-0.844c-6.015,5.488-12.947,8.15-16.375,8.544
				c-0.191,0.021-0.391,0.032-0.596,0.032c-2.328,0-6.017-1.629-9.615-5.187c-11.301,3.38-24.404,9.552-34.861,18.577l3.937,5.47
				c13.933-8.754,31.89-8.268,31.89-8.268s-0.669,21.453-0.522,37.861c20.226,6.292,58.331,0.88,58.938-10.647
				c-4.08-14.267-11.862-27.271-11.862-27.271s15.688,6.496,26.244,21.487l5.751-2.856
				C580.606,197.593,564.913,182.141,544.323,178.28z"/>
		</g>
	</g>
	<path fill="#7A574A" d="M539.067,173.821c-0.779,0.901-1.83,1.968-2.716,2.358l-0.944,0.415l-0.385-0.956
		c-0.033-0.08-0.033-0.08-0.201-0.762c-1.748-7.105-3.153-12.146-4.175-14.98c-2.046-5.681-3.921-8.102-5.042-9.549
		c-0.182-0.236-0.343-0.444-0.481-0.635c-1.366-1.894-6.017-6.81-11.062-6.81h-0.058c-3.113,0.022-6.633,1.029-9.746,2.232
		c-2.615,4.946-3.65,11.018-2.126,17.644c3.688,16.026,14.047,22.711,18.445,22.208c4.187-0.481,12.511-4.17,18.536-11.059
		L539.067,173.821z M506.259,164.665c-0.738,0.067-1.471-1.214-1.624-2.869c-0.151-1.653,0.328-3.05,1.071-3.12
		c0.742-0.069,1.471,1.215,1.625,2.87C507.481,163.201,507.005,164.595,506.259,164.665z M516.472,164.214
		c-0.844,0.077-1.652-1.171-1.802-2.79c-0.151-1.624,0.413-2.997,1.261-3.078c0.841-0.077,1.649,1.173,1.805,2.791
		C517.882,162.757,517.319,164.135,516.472,164.214z"/>
</g>
<g>
	<g>
		<g>
			<g>
				<path fill="#A1856E" d="M172.366,233.292c-2.535,0.76-5.357,1.362-8.438,1.788c-15.996,2.219-39.344-0.697-47.27-8.696
					c-3.975,19.496,1.609,45.226,3.576,55.952l5.449-0.123c4.705-15.064,12.504-29.449,19.971-33.851
					c8.691,6.872,14.59,18.997,20.389,33.743l5.975-0.226C175.019,265.547,175.685,247.213,172.366,233.292z"/>
			</g>
		</g>
		<path fill="#A1856E" d="M200.304,226.972c0.227,0.606,0.266,1.333-0.398,1.671c-1.533,0.781-2.432-1.865-2.848-2.826
			c-0.641-1.483-1.389-2.494-2.375-2.367c-1.328,0.17-0.643,2.48-1.631,2.699c-0.787,0.177-1.24-0.767-1.602-1.632
			c-0.383-0.938-0.334-2.299-0.16-3.165c0.369-1.84,1.73-2.828,3.529-3.039c1.619-0.19,3.328,0.303,4.408,1.57
			c1.332,1.561,1.074,3.217,0.531,4.994c-0.27,0.879,0.035,1.046,0.412,1.791C200.22,226.764,200.265,226.866,200.304,226.972z"/>
		<path fill="#A1856E" d="M88.743,227.561c0.717,1.181,1.617,2.324,2.965,1.324c1.193-0.883,0.902-2.226,1.004-3.482
			c0.129-1.611,0.51-2.81,1.484-3.007c1.312-0.269,1.41,2.14,2.416,2.027c0.801-0.087,0.926-1.126,0.986-2.061
			c0.062-1.013-0.424-2.284-0.867-3.048c-0.973-1.672-2.547-2.23-4.242-1.668C88.819,218.861,86.681,224.185,88.743,227.561z"/>
		<path fill="#A1856E" d="M123.946,288.158c-1.5,0.252-4.961,0.731-6.221-0.029c-2.713-1.639,1.619-3.586,3.82-4.297
			C127.192,282.004,130.642,287.035,123.946,288.158z"/>
		<path fill="#A1856E" d="M168.89,288.071c1.512,0.155,4.998,0.423,6.205-0.417c2.607-1.801-1.836-3.476-4.078-4.051
			C165.267,282.13,162.138,287.365,168.89,288.071z"/>
	</g>
	<g>
		<g>
			<path fill="#A1856E" d="M136.575,156.853c2.727-1.195,4.584-0.683,6.986-0.688c1.105-5.872,2.502-10.017,5.576-13.194
				c2.594-2.674,7.688-4.476,12.117-4.585c3.287-0.08,7.17,0.515,9.613,2.339c2.881,2.149,2.938,6.776,2.562,11.304
				c2.533-7.417-0.115-15.875-4.516-20.958c-4.26-4.922-19.293-12.094-30.08-6.214c-17.49,9.532-11.389,33.77-9.887,37.087
				c0.586,1.293,3.861,4.898,4.955,5.696C133.517,162.502,134.231,157.879,136.575,156.853z"/>
		</g>
		<g>
			<g>
				<g>
					<path fill="#A1856E" d="M171.726,157.534l0.064-0.293c0.373-1.734,0.635-3.512,0.783-5.284c0.355-4.3,0.324-8.451-2.254-10.453
						c-2.117-1.644-6.352-2.276-9.27-2.196c-3.879,0.108-8.953,1.849-11.291,4.262c-3.037,3.136-4.336,7.367-5.352,12.754
						l-0.133,0.699l-0.711,0.002c-0.594,0.002-1.152-0.026-1.688-0.054c-1.074-0.057-2.092-0.108-3.189,0.108
						c-0.588,0.115-1.166,0.299-1.766,0.563c-1.689,0.739-2.535,4.565-2.17,9.764c0.852,1.248,1.822,2.469,2.926,3.555
						c4.967,4.889,11.963,7.403,15.482,7.805c4.342,0.495,14.318-5.818,18.48-20.877C171.665,157.78,171.692,157.66,171.726,157.534
						z M155.815,154.402c0.156-1.668,0.986-2.956,1.855-2.876c0.873,0.082,1.455,1.499,1.301,3.169
						c-0.152,1.67-0.986,2.955-1.857,2.875C156.243,157.488,155.661,156.07,155.815,154.402z M169.122,155.673
						c-0.16,1.702-0.912,3.022-1.674,2.954c-0.768-0.071-1.262-1.507-1.105-3.213c0.16-1.704,0.908-3.026,1.674-2.956
						C168.782,152.529,169.276,153.968,169.122,155.673z"/>
					<g>
						<path fill="#A1856E" d="M189.726,219.982l5.598-3.957c-8.83-20.113-20.914-32.085-33.617-39.858
							c-2.969,2.427-5.889,3.625-8.055,3.625c-0.207,0-0.412-0.011-0.605-0.033c-3.572-0.408-10.801-2.898-16.072-8.086
							c-0.229-0.226-0.455-0.465-0.682-0.71c-20.371,3.291-35.979,25.031-43.57,44.041l5.963,2.959c9-16.25,22.25-24.75,22.25-24.75
							s-3.301,12.664-5.965,28.023c1.711,12.342,39.922,17.469,59.322,10.369c-1.434-17.586-7.551-32.606-7.551-32.606
							S179.226,200.982,189.726,219.982z"/>
					</g>
				</g>
			</g>
		</g>
	</g>
</g>
<g>
	<g>
		<path fill="#AF9474" d="M240.315,236.587c-2.633,3.446-4.816,5.468-8.635,6.126c-3.52,0.605-8.881,0.705-11.08-1.834
			c-1.586-1.834,2.803-7.956,2.902-9.178c0.137-1.682-0.164-4.712,1.336-6.959c-1.656-4.659-0.525-8.666-0.34-9.883
			c1.779,1.066,6.928,4.543,7,6.125c1.51-0.584,5.029-0.285,7.096,1.141c2.84-2.58,6.879-3.538,8.908-5.396
			c0.098,3.971-2.398,9.978-4.656,12.057C242.829,231.181,241.868,234.555,240.315,236.587z"/>
		<g>
			<g>
				<path fill="#AF9474" d="M261.679,249.25c-4.297-5.961-15.705-5.281-20.75-11.828c-2.66,3.44-5.037,5.58-9.078,6.275
					c-0.99,0.171-2.535,0.374-4.279,0.374c-0.398,0-0.822-0.017-1.254-0.044c-0.492,1.771-0.824,3.779-0.791,6.041
					c0.061,4.109,1.037,6.905,2.893,9.007c0.412,1.565-0.123,11.849-0.775,12.612c-0.629,0.001-1.914,0.645-2.064,1.56
					c-0.344,2.081,1.088,2.798,2.727,2.425c2.207-0.504,3.729-1.581,4.717-3.061c0.924-1.383,1.281-6.865,1.395-8.812
					c0.555,0.555,2.404,1.875,3.752,3.01c-0.016,1.75,0.045,5.867-0.184,6.855c-1.871,0.729-2.275,2.883-1.664,4.055
					c0.533,1.023,3.791,0.555,4.574,0.26c1.307-0.488,1.875-1.445,2.119-2.766c0.352-1.899,0.668-3.979,0.502-4.922
					c1.221,1.275,4.078,1.521,5.908,1.409c-2.219,0.722-2.078,3.262-0.078,3.679c1.377,0.287,2.695-0.326,3.842-0.963
					c1.881-1.042,3.719-2.16,5.594-3.21c1.709-0.956,1.807-1.847,1.898-2.857c1.24-0.543,3.01-2.518,3.504-4.452
					C265.534,258.607,264.974,253.822,261.679,249.25z"/>
				<g>
					<path fill="#AF9474" d="M275.37,227.541c-9.695,0.517-7.674,17.131-11.106,24.166c1.01,2.157,1.529,4.431,1.569,6.843
						c0.627-0.12,1.248-0.294,1.838-0.534c3.369-1.369,7.252-6.952,8.176-13.809C276.919,236.257,277.097,232.9,275.37,227.541z"/>
				</g>
			</g>
		</g>
	</g>
	<path fill="#C2AE95" d="M244.968,220.998c0.236,1.969-1.449,3.972-3.078,5.736c-0.189-1.047-1.25-2.461-2.137-3.133
		C239.753,223.602,242.653,221.349,244.968,220.998z"/>
	<path fill="#C2AE95" d="M224.937,218.273c-0.285,2.029-0.311,3.898,0.529,5.762c0.086-0.451,1.135-1.498,2.016-1.811
		C226.661,220.301,225.532,218.666,224.937,218.273z"/>
	<path fill="#8E7565" d="M224.181,241.379c1.16-1.876-1.162-5.474-3.641-3.125c-0.545,0.516-0.66,1.844-0.285,2.656
		c0.426,0.92,1.566,1.338,2.344,1.338C223.183,242.248,223.864,241.89,224.181,241.379z"/>
	<ellipse fill="#8E7565" cx="226.125" cy="230.348" rx="0.89" ry="1.803"/>
	<ellipse fill="#8E7565" cx="231.514" cy="231.031" rx="0.89" ry="1.802"/>
</g>
</svg>
