<?xml version="1.0" encoding="utf-8"?>
<!-- Generator: Adobe Illustrator 15.0.2, SVG Export Plug-In . SVG Version: 6.00 Build 0)  -->
<!DOCTYPE svg PUBLIC "-//W3C//DTD SVG 1.1//EN" "http://www.w3.org/Graphics/SVG/1.1/DTD/svg11.dtd">
<svg version="1.1" id="Layer_1" xmlns="http://www.w3.org/2000/svg" xmlns:xlink="http://www.w3.org/1999/xlink" x="0px" y="0px"
	 width="720px" height="460px" viewBox="0 0 720 460" enable-background="new 0 0 720 460" xml:space="preserve">
<g>
	<g>
		<path fill="#4E7094" d="M346.017,83.825l-41.256,308.538c0.115,0,0.232-0.006,0.348,0.002
			c202.603,14.279,314.585-76.113,314.585-76.113l-0.02-233.201L346.017,83.825z"/>
		<path fill="#F4EAAC" d="M346.017,83.852l-181.92-0.801v233.201c0,0,46.145,66.652,140.693,66.652l41.227-64.281V83.852z"/>
		<polygon fill="#DBC35E" points="289.122,407.861 63.762,407.861 164.097,316.252 346.017,316.252 		"/>
		<polygon fill="#BEB197" points="325.813,340.299 271.532,330.84 271.532,146.04 325.813,137.74 		"/>
		<g>
			<path fill="#8DB2C9" d="M358.81,157.242c-0.002-9.833,21.332-17.773,29.805-7.704c11.768-6.894,25.379,0.649,23.725,10.222
				c9.803-3.22,15.154,4.72,10.414,13.086c9.102-4,17.041,3.543,13.025,13.026c10.322-2.336,15.527,6.725,12.438,14.875
				c7.457-1.729,17.381,10.18,6.762,19.23c7.443,0.248,13.514,9.398,7.199,17.139c5.264,0.785,6.236,5.814,4.902,11.385
				c6.855-11.561,18.765-9.387,23.56,1.438c3.939-6.457,13.467-5.268,14.594,2.357c7.607-6.83,18.326-6.037,20.926,5.414
				c3.354-6.408,12.484-4.865,11.717,4.178c4.275-0.912,11.488,2.236,7.863,10.443c6.801-4.236,16.453,1.316,14.008,11.615
				c4.305-9.104,17.802-11.088,21.999-1.916c1.393-7.828,6.631-11.102,12.646-11.91c5.721-0.77,12.932,1.15,13.918,8.412
				c4.971-2.178,11.374,0.453,11.374,7.055c0,0,0,19.328,0,33.096c0,17.842-34.472,3.213-52.514,4.791
				c-32.266,2.82-69.178,2.689-101.331-1.598c-15.549-2.072-30.328-6.012-46.145-5.246c-13.533,0.654-26.332,3.02-39.957,2.35
				c-9.195-0.451-30.328,4.059-36.562-1.312c-7.072-6.088-5.383-24.215-5.773-32.564c-1.359-29.084,0.123-61.25-3.586-88.562
				c-0.998-7.351-0.127-22.884,2.697-29.975C339.009,160.299,346.11,149.393,358.81,157.242z"/>
			<path fill="#76A2BE" d="M656.238,407.861H289.122c0,0,22.25-35.318,22.975-36.453c5.744-9.002,11.41-18.053,17.232-27.004
				c17.463-26.844,9.16-13.256,17.463-26.844c6.461,0.115,16.123-2.863,22.514-2.334c6.635,0.551,13.807,0.389,20.326,0.154
				c3.682-0.133,7.58-0.186,11.23,0.197c4.129,0.432,9.645,1.236,13.021,1.398c7.112,0.344,12.692-2.938,19.771-1.795
				c7.844,1.266,14.869,0.678,23.031,1.23c6.926,0.471,13.031-0.494,19.935-0.979c4.943-0.348,11.264,3.016,16.232,2.301
				c12.549-1.805,23.918-3.336,36.816-1.861c5.752,0.656,11.43,0.674,17.635,0.924c6.67,0.271,13.977-1.064,20.529-0.555
				c4.704,0.367,12.009-0.85,16.964-0.729c5.57,0.137,12.342,0.801,18.125,0.738c14.596-0.152,16.771,0,16.771,0L656.238,407.861z"
				/>
			<polygon fill="#76A2BE" points="636.639,381.363 304.761,381.363 335.368,332.666 618.661,332.557 			"/>
			<polygon fill="#E3D7BC" points="535.652,377.363 310.97,373.803 332.827,339.686 529.672,335.607 			"/>
		</g>
		<path fill="#8E7565" d="M287.532,234.658c-0.148,0-0.723,0-0.869,0c-2.084,0-3.773,2.227-3.773,4.973s1.689,4.971,3.773,4.971
			c0.146,0,0.721,0,0.869,0c2.084,0,3.771-2.225,3.771-4.971S289.616,234.658,287.532,234.658z"/>
	</g>
	<g>
		<g>
			<g>
				<g>
					<path fill="#A1856E" d="M268.937,242.941l-3.762-3.311c-8.443,7.521-18.752,9.385-29.67,9.826
						c-3.551,5.031-7.744,7.758-10.846,7.828c-0.1,0.004-0.203,0.004-0.309,0.004c-4.563,0-12.074-1.938-17.779-6.193
						c-0.164-0.123-0.328-0.26-0.49-0.389c-14.861,2.955-32.938,12.33-48.881,32.648l5.057,3.553
						c14.219-13.168,28.414-12.242,28.414-12.242s-4.791,10.793-5.328,26.383c16.414,9.621,48.287,8.48,55.453,0.354
						c2.646-23.037-3.58-37.734-3.58-37.734S254.011,259.299,268.937,242.941z"/>
				</g>
				<g>
					<g>
						<path fill="#A1856E" d="M215.81,308.885c-11.457,0-22.162-2.271-29.686-6.26c-0.158,1.539-0.244,3.203-0.244,5.061
							c0,14.555,1.934,28.084,7.092,45.674l4.865,0.059c3.08-14.855,8.451-27.1,17.047-34.314
							c9.02,7.215,15.25,16.666,18.885,29.068l4.982-0.578c2.295-11.76,3.973-28.32,1.078-44
							C235.276,306.895,226.421,308.885,215.81,308.885z"/>
					</g>
				</g>
			</g>
		</g>
		<path fill="#A1856E" d="M275.815,232.879c-0.537-1.098-2.594-1.246-4.479,0.195c-1.182,0.904-1.221,2.254-2.133,2.316
			c-1.229,0.088-0.754-1.811-1.684-1.828c-0.742-0.016-1.055,0.906-1.146,1.762c-0.119,1.102-0.01,2.537,0.359,3.26
			c0.715,1.404,1.643,2.141,3.639,1.818c1.771-0.283,2.279-1.561,3.775-3.363C275.536,235.363,276.415,234.104,275.815,232.879z"/>
		<path fill="#A1856E" d="M151.687,294.059c0.498,1.17,1.168,2.332,2.529,1.6c1.203-0.646,1.117-1.91,1.375-3.041
			c0.332-1.449,0.838-2.492,1.752-2.543c1.232-0.07,1.002,2.137,1.932,2.166c0.742,0.029,0.994-0.9,1.174-1.744
			c0.189-0.914-0.084-2.139-0.389-2.893c-0.662-1.654-2.023-2.371-3.643-2.082C152.911,286.139,150.259,290.707,151.687,294.059z"/>
		<path fill="#A1856E" d="M236.103,353.375c1.402,0.039,4.621,0.043,5.672-0.812c2.27-1.836-1.93-3.064-4.025-3.438
			C232.364,348.174,229.856,353.197,236.103,353.375z"/>
		<path fill="#A1856E" d="M195.515,359.586c1.446,0.043,4.779,0.045,5.866-0.955c2.349-2.146-1.995-3.584-4.167-4.018
			C191.642,353.498,189.046,359.377,195.515,359.586z"/>
		<g>
			<path fill="#A1856E" d="M241.155,231.191l0.025-0.32c0.143-1.883,0.162-3.797,0.061-5.689c-0.248-4.588-0.881-8.965-3.893-10.703
				c-2.473-1.428-7.031-1.482-10.1-0.975c-4.078,0.676-9.182,3.248-11.299,6.133c-2.75,3.748-3.508,8.402-3.799,14.234l-0.039,0.758
				l-0.75,0.105c-0.627,0.088-1.219,0.139-1.789,0.188c-1.141,0.094-2.223,0.188-3.35,0.576c-0.604,0.207-1.188,0.484-1.783,0.85
				c-1.674,1.023-2.014,5.184-0.873,10.617c1.078,1.193,2.279,2.342,3.602,3.328c5.951,4.439,13.697,6.078,17.469,5.992
				c4.654-0.105,14.268-8.213,16.479-24.707C241.126,231.459,241.138,231.328,241.155,231.191z M223.911,230.191
				c-0.076-1.783,0.613-3.264,1.543-3.307c0.932-0.039,1.752,1.373,1.83,3.158c0.08,1.785-0.613,3.26-1.543,3.303
				C224.812,233.387,223.989,231.973,223.911,230.191z M238.138,229.604c0.078,1.82-0.525,3.322-1.338,3.361
				c-0.82,0.035-1.549-1.408-1.633-3.232c-0.078-1.82,0.52-3.324,1.338-3.361C237.323,226.336,238.054,227.783,238.138,229.604z"/>
			<path fill="#A1856E" d="M202.589,247.17c-1.266-6.027-0.768-10.393,1.33-11.674c0.658-0.404,1.306-0.713,1.98-0.943
				c1.258-0.434,2.443-0.531,3.59-0.627c0.555-0.047,1.1-0.096,1.668-0.174c0.301-5.979,1.1-10.77,3.986-14.707
				c2.471-3.365,7.998-5.875,11.943-6.527c0.35-0.059,0.729-0.09,1.098-0.133c0.216-0.027,0.43-0.055,0.648-0.078
				c0.097-0.008,0.19-0.016,0.287-0.021c2.693-0.242,5.58-0.057,7.854,0.902c0.062,0.025,0.12,0.057,0.182,0.084
				c0.222,0.1,0.45,0.189,0.657,0.305c0.653,0.359,1.203,0.838,1.674,1.404c1.962,2.287,2.504,5.975,2.729,9.76
				c1.397-8.072-2.567-16.418-7.864-21.068c-5.207-4.578-22.109-9.969-32.641-2.199c-17.076,12.594-7.125,37.287-5.061,40.57
				c0.787,1.252,4.604,4.455,5.96,5.236L202.589,247.17z"/>
		</g>
	</g>
	<path fill="#FAF4E6" d="M500.633,136.238c0-10.948,6.488-20.376,15.828-24.663c-1.379-0.216-2.791-0.33-4.23-0.33
		c-14.984,0-27.129,12.147-27.129,27.13s12.145,27.131,27.129,27.131c4.035,0,7.861-0.889,11.305-2.468
		C510.559,161.007,500.633,149.783,500.633,136.238z"/>
	<g>
		<polygon fill="#8E7565" points="304.761,116.249 296.044,116.249 296.044,382.904 304.761,382.904 310.769,373.652 
			310.769,133.305 325.741,136.372 325.741,339.686 332.827,339.686 336.249,334.416 336.249,125.753 		"/>
		<polygon fill="#AE9E7D" points="310.769,360.633 310.769,373.652 332.827,339.686 325.741,339.686 		"/>
		<g>
			<polygon fill="#9EB8CC" points="346.017,318.623 346.017,83.852 289.122,52.139 289.122,407.861 304.761,382.904 
				304.761,116.249 336.249,125.753 336.249,334.416 			"/>
			<rect x="282.116" y="52.139" fill="#97ADC2" width="7.006" height="355.722"/>
		</g>
		<rect x="325.741" y="136.372" fill="#A1856E" width="7.086" height="203.314"/>
	</g>
	<g>
		<g>
			<g>
				<path fill="#C83B0C" d="M441.149,298.842c-5.414,5.236-18.896,7.211-30.611,7.211c-8.012,0-15.785-0.924-21.753-2.561
					c1.056,14.064,5.983,30.438,3.614,49.693l4.75-0.262c9.295-13.719,15.766-25.469,18.699-35.311
					c6.496,5.521,12.412,17.162,16.412,32.244l4.986-0.053c4.439-18.041,7.18-35.41,3.922-50.889
					C441.163,298.891,441.155,298.865,441.149,298.842z"/>
			</g>
		</g>
		<path fill="#C83B0C" d="M365.923,307.957c0.729,1.033,1.621,2.021,2.791,1.025c1.033-0.881,0.686-2.088,0.699-3.244
			c0.02-1.475,0.293-2.596,1.172-2.836c1.182-0.328,1.42,1.865,2.33,1.701c0.729-0.127,0.777-1.084,0.775-1.941
			c-0.008-0.928-0.531-2.062-0.982-2.729c-0.99-1.471-2.464-1.883-3.977-1.264C365.452,300.006,363.831,305,365.923,307.957z"/>
		<path fill="#C83B0C" d="M457.437,301.049c-0.729,1.031-1.623,2.02-2.793,1.023c-1.033-0.879-0.686-2.088-0.697-3.244
			c-0.021-1.475-0.293-2.596-1.172-2.836c-1.182-0.328-1.42,1.867-2.332,1.701c-0.727-0.127-0.775-1.084-0.773-1.941
			c0.006-0.926,0.529-2.061,0.982-2.729c0.99-1.471,2.463-1.881,3.977-1.264C457.907,293.096,459.526,298.092,457.437,301.049z"/>
		<path fill="#C83B0C" d="M394.621,358.771c1.315,0.223,6.125,0.053,6.854-0.924c1.432-1.912-2.734-3.268-4.742-3.609
			C392.112,353.451,389.396,357.893,394.621,358.771z"/>
		<path fill="#C83B0C" d="M433.847,355.455c1.313,0.223,6.125,0.053,6.854-0.924c1.43-1.912-2.736-3.268-4.744-3.609
			C431.337,350.135,428.619,354.576,433.847,355.455z"/>
		<g>
			<path fill="#C83B0C" d="M416.173,207.117c-5.646,1.299-9.547,7.67-10.748,10.584c-0.691,1.668-2.473,4.691-3.338,12.381
				c-0.648,5.748-0.643,17.496-0.658,17.609c-1.523-0.279-4.404-2.699-4.404-2.699l-1.311,7.717l-5.871-5.77l-0.811,4.082
				c0,0-6.5-12.637-7.262-23.391c-0.721-10.215,4.01-18.516,8.357-22.611c3.613-3.396,7.414-5.822,12.916-6.734
				c6.077-1.008,11.23,0.159,18.293,0.967c5.627,0.643,16.576,0.32,16.576,0.32l-7.924,4.273l7.525,5.395
				C437.515,209.24,424.772,205.138,416.173,207.117z"/>
		</g>
		<g>
			<path fill="#C83B0C" d="M421.534,207.578c-1.926,0-3.654,0.172-5.138,0.514c-5.374,1.236-9.075,7.631-10.048,9.992
				c-0.098,0.234-0.217,0.496-0.35,0.791c-0.818,1.807-2.188,4.83-2.918,11.32c-0.368,3.264-0.586,8.938-0.645,16.863
				c-0.006,0.689-0.006,0.689-0.017,0.77l-0.144,1.033l-1.027-0.188c-1.051-0.191-2.469-1.098-3.519-1.863l-0.036,0.217
				c8.072,5.779,17.793,7.586,22.33,7.043c4.75-0.568,13.975-10.189,13.846-27.965c-0.056-7.4-2.695-13.561-6.729-18.121
				C425.321,207.74,423.407,207.578,421.534,207.578z M419.147,231.201c-0.912,0.129-1.848-1.178-2.098-2.92
				c-0.244-1.738,0.295-3.256,1.199-3.387c0.91-0.125,1.85,1.178,2.096,2.922C420.593,229.557,420.056,231.072,419.147,231.201z
				 M429.085,222.686c0.797-0.111,1.652,1.236,1.904,3.016c0.254,1.775-0.195,3.307-0.988,3.42
				c-0.803,0.113-1.654-1.234-1.908-3.012C427.841,224.332,428.286,222.799,429.085,222.686z"/>
			<g>
				<path fill="#C83B0C" d="M449.669,291.482l4.992-1.625c-2.559-13.432-11.031-31.975-28.26-38.625
					c-2.207,2.301-4.465,3.617-6.259,3.832c-0.548,0.064-1.159,0.098-1.816,0.098c-4.479,0-11.091-1.514-17.216-4.828
					c-14.045,4.32-23.371,17.783-31.771,45.451l5.657,2.396c6.7-19.096,15.024-25.314,15.024-25.314s-2.274,12.906-3.059,29.037
					c17.963,5.914,54.402,3.594,55.596-7.75c-0.772-13.57-7.125-24.539-7.125-24.539S444.706,276.889,449.669,291.482z"/>
			</g>
		</g>
	</g>
</g>
<path fill="#C83B0C" d="M432.203,208.891c-1.095-0.242-2.315-0.48-3.608-0.689c4.041,4.959,6.225,11.105,6.275,17.896
	c0.035,4.842-0.633,9.102-1.714,12.783l0.392,0.428l2.031-4.201l1.348,1.467c0,0,2.52-16.324-3.68-26.23
	C432.919,209.82,432.569,209.342,432.203,208.891z"/>
</svg>
