<?xml version="1.0" encoding="utf-8"?>
<!-- Generator: Adobe Illustrator 15.0.2, SVG Export Plug-In . SVG Version: 6.00 Build 0)  -->
<!DOCTYPE svg PUBLIC "-//W3C//DTD SVG 1.1//EN" "http://www.w3.org/Graphics/SVG/1.1/DTD/svg11.dtd">
<svg version="1.1" id="Layer_1" xmlns="http://www.w3.org/2000/svg" xmlns:xlink="http://www.w3.org/1999/xlink" x="0px" y="0px"
	 width="720px" height="460px" viewBox="0 0 720 460" enable-background="new 0 0 720 460" xml:space="preserve">
<g>
	<g>
		<path fill="#4E7094" d="M346.016,83.825L304.76,392.363c0.117,0,0.232-0.006,0.35,0.002
			c202.602,14.279,314.584-76.113,314.584-76.113l-0.02-233.201L346.016,83.825z"/>
		<path fill="#F4EAAC" d="M346.016,83.852l-181.919-0.801v233.201c0,0,46.146,66.652,140.694,66.652l41.225-64.281V83.852z"/>
		<polygon fill="#DBC35E" points="289.122,407.861 63.762,407.861 164.097,316.252 346.016,316.252 		"/>
		<polygon fill="#BEB197" points="325.814,340.299 271.532,330.84 271.532,146.04 325.814,137.74 		"/>
		<g>
			<path fill="#8DB2C9" d="M358.809,157.242c-0.002-9.833,21.334-17.773,29.805-7.704c11.77-6.894,25.379,0.649,23.725,10.222
				c9.803-3.22,15.154,4.72,10.414,13.086c9.102-4,17.041,3.543,13.025,13.026c10.322-2.336,15.527,6.725,12.439,14.875
				c7.456-1.729,17.38,10.18,6.761,19.23c7.443,0.248,13.514,9.398,7.199,17.139c5.264,0.785,6.236,5.814,4.902,11.385
				c6.855-11.561,18.765-9.387,23.56,1.438c3.939-6.457,13.467-5.268,14.594,2.357c7.607-6.83,18.326-6.037,20.926,5.414
				c3.354-6.408,12.484-4.865,11.717,4.178c4.275-0.912,11.488,2.236,7.863,10.443c6.801-4.236,16.453,1.316,14.008,11.615
				c4.305-9.104,17.802-11.088,21.999-1.916c1.393-7.828,6.631-11.102,12.646-11.91c5.721-0.77,12.932,1.15,13.918,8.412
				c4.971-2.178,11.374,0.453,11.374,7.055c0,0,0,19.328,0,33.096c0,17.842-34.472,3.213-52.514,4.791
				c-32.266,2.82-69.178,2.689-101.331-1.598c-15.548-2.072-30.327-6.012-46.146-5.246c-13.531,0.654-26.332,3.02-39.957,2.35
				c-9.193-0.451-30.326,4.059-36.562-1.312c-7.07-6.088-5.383-24.215-5.773-32.564c-1.359-29.084,0.123-61.25-3.584-88.562
				c-0.998-7.351-0.129-22.884,2.695-29.975C339.008,160.299,346.109,149.393,358.809,157.242z"/>
			<path fill="#76A2BE" d="M656.238,407.861H289.122c0,0,22.251-35.318,22.974-36.453c5.746-9.002,11.41-18.053,17.234-27.004
				c17.461-26.844,9.16-13.256,17.461-26.844c6.463,0.115,16.125-2.863,22.516-2.334c6.635,0.551,13.805,0.389,20.324,0.154
				c3.682-0.133,7.58-0.186,11.23,0.197c4.131,0.432,9.645,1.236,13.023,1.398c7.111,0.344,12.691-2.938,19.77-1.795
				c7.846,1.266,14.871,0.678,23.032,1.23c6.926,0.471,13.031-0.494,19.935-0.979c4.943-0.348,11.264,3.016,16.232,2.301
				c12.549-1.805,23.918-3.336,36.816-1.861c5.752,0.656,11.43,0.674,17.635,0.924c6.67,0.271,13.977-1.064,20.529-0.555
				c4.704,0.367,12.009-0.85,16.964-0.729c5.57,0.137,12.342,0.801,18.125,0.738c14.596-0.152,16.771,0,16.771,0L656.238,407.861z"
				/>
			<polygon fill="#76A2BE" points="636.639,381.363 304.76,381.363 335.367,332.666 618.661,332.557 			"/>
			<polygon fill="#E3D7BC" points="535.652,377.363 310.971,373.803 332.828,339.686 529.672,335.607 			"/>
		</g>
		<path fill="#8E7565" d="M287.533,234.658c-0.148,0-0.723,0-0.87,0c-2.084,0-3.772,2.227-3.772,4.973s1.688,4.971,3.772,4.971
			c0.147,0,0.722,0,0.87,0c2.084,0,3.771-2.225,3.771-4.971S289.617,234.658,287.533,234.658z"/>
	</g>
	<g>
		<g>
			<g>
				<g>
					<path fill="#A1856E" d="M268.938,242.941l-3.763-3.311c-8.442,7.521-18.752,9.385-29.669,9.826
						c-3.552,5.031-7.745,7.758-10.846,7.828c-0.101,0.004-0.203,0.004-0.309,0.004c-4.564,0-12.074-1.938-17.78-6.193
						c-0.164-0.123-0.327-0.26-0.49-0.389c-14.861,2.955-32.938,12.33-48.88,32.648l5.057,3.553
						c14.219-13.168,28.413-12.242,28.413-12.242s-4.79,10.793-5.327,26.383c16.413,9.621,48.286,8.48,55.453,0.354
						c2.646-23.037-3.58-37.734-3.58-37.734S254.011,259.299,268.938,242.941z"/>
				</g>
				<g>
					<g>
						<path fill="#A1856E" d="M215.81,308.885c-11.456,0-22.162-2.271-29.685-6.26c-0.159,1.539-0.244,3.203-0.244,5.061
							c0,14.555,1.934,28.084,7.091,45.674l4.866,0.059c3.08-14.855,8.451-27.1,17.046-34.314
							c9.02,7.215,15.251,16.666,18.886,29.068l4.982-0.578c2.294-11.76,3.973-28.32,1.077-44
							C235.276,306.895,226.421,308.885,215.81,308.885z"/>
					</g>
				</g>
			</g>
		</g>
		<path fill="#A1856E" d="M275.816,232.879c-0.537-1.098-2.594-1.246-4.479,0.195c-1.182,0.904-1.221,2.254-2.133,2.316
			c-1.229,0.088-0.754-1.811-1.685-1.828c-0.742-0.016-1.055,0.906-1.146,1.762c-0.12,1.102-0.01,2.537,0.359,3.26
			c0.715,1.404,1.642,2.141,3.638,1.818c1.771-0.283,2.279-1.561,3.776-3.363C275.537,235.363,276.415,234.104,275.816,232.879z"/>
		<path fill="#A1856E" d="M151.688,294.059c0.498,1.17,1.168,2.332,2.529,1.6c1.202-0.646,1.116-1.91,1.375-3.041
			c0.331-1.449,0.838-2.492,1.751-2.543c1.232-0.07,1.002,2.137,1.933,2.166c0.741,0.029,0.994-0.9,1.174-1.744
			c0.189-0.914-0.085-2.139-0.389-2.893c-0.662-1.654-2.023-2.371-3.644-2.082C152.911,286.139,150.259,290.707,151.688,294.059z"/>
		<path fill="#A1856E" d="M236.104,353.375c1.401,0.039,4.621,0.043,5.671-0.812c2.27-1.836-1.929-3.064-4.025-3.438
			C232.365,348.174,229.857,353.197,236.104,353.375z"/>
		<path fill="#A1856E" d="M195.515,359.586c1.446,0.043,4.779,0.045,5.866-0.955c2.349-2.146-1.995-3.584-4.167-4.018
			C191.643,353.498,189.046,359.377,195.515,359.586z"/>
		<g>
			<path fill="#A1856E" d="M241.156,231.191l0.024-0.32c0.143-1.883,0.163-3.797,0.062-5.689c-0.248-4.588-0.882-8.965-3.894-10.703
				c-2.472-1.428-7.031-1.482-10.099-0.975c-4.079,0.676-9.182,3.248-11.3,6.133c-2.749,3.748-3.508,8.402-3.798,14.234l-0.04,0.758
				l-0.75,0.105c-0.627,0.088-1.219,0.139-1.789,0.188c-1.141,0.094-2.223,0.188-3.349,0.576c-0.604,0.207-1.188,0.484-1.783,0.85
				c-1.675,1.023-2.014,5.184-0.874,10.617c1.078,1.193,2.28,2.342,3.603,3.328c5.95,4.439,13.696,6.078,17.468,5.992
				c4.654-0.105,14.269-8.213,16.479-24.707C241.127,231.459,241.139,231.328,241.156,231.191z M223.912,230.191
				c-0.077-1.783,0.613-3.264,1.542-3.307c0.933-0.039,1.752,1.373,1.831,3.158c0.08,1.785-0.613,3.26-1.543,3.303
				C224.812,233.387,223.99,231.973,223.912,230.191z M238.138,229.604c0.078,1.82-0.524,3.322-1.337,3.361
				c-0.821,0.035-1.55-1.408-1.633-3.232c-0.079-1.82,0.52-3.324,1.338-3.361C237.324,226.336,238.055,227.783,238.138,229.604z"/>
			<path fill="#A1856E" d="M202.589,247.17c-1.265-6.027-0.768-10.393,1.33-11.674c0.658-0.404,1.306-0.713,1.98-0.943
				c1.259-0.434,2.444-0.531,3.59-0.627c0.555-0.047,1.1-0.096,1.668-0.174c0.301-5.979,1.1-10.77,3.986-14.707
				c2.472-3.365,7.998-5.875,11.943-6.527c0.351-0.059,0.729-0.09,1.098-0.133c0.216-0.027,0.43-0.055,0.648-0.078
				c0.097-0.008,0.19-0.016,0.288-0.021c2.693-0.242,5.58-0.057,7.854,0.902c0.062,0.025,0.12,0.057,0.182,0.084
				c0.222,0.1,0.45,0.189,0.658,0.305c0.652,0.359,1.203,0.838,1.673,1.404c1.962,2.287,2.505,5.975,2.729,9.76
				c1.397-8.072-2.567-16.418-7.863-21.068c-5.207-4.578-22.11-9.969-32.641-2.199c-17.076,12.594-7.126,37.287-5.062,40.57
				c0.788,1.252,4.604,4.455,5.96,5.236L202.589,247.17z"/>
		</g>
	</g>
	<path fill="#FAF4E6" d="M500.633,136.238c0-10.948,6.488-20.376,15.828-24.663c-1.379-0.216-2.791-0.33-4.23-0.33
		c-14.984,0-27.129,12.147-27.129,27.13s12.145,27.131,27.129,27.131c4.035,0,7.861-0.889,11.305-2.468
		C510.559,161.007,500.633,149.783,500.633,136.238z"/>
	<g>
		<polygon fill="#8E7565" points="304.76,116.249 296.044,116.249 296.044,382.904 304.76,382.904 310.77,373.652 310.77,133.305 
			325.742,136.372 325.742,339.686 332.828,339.686 336.25,334.416 336.25,125.753 		"/>
		<polygon fill="#AE9E7D" points="310.77,360.633 310.77,373.652 332.828,339.686 325.742,339.686 		"/>
		<g>
			<polygon fill="#9EB8CC" points="346.016,318.623 346.016,83.852 289.122,52.139 289.122,407.861 304.76,382.904 304.76,116.249 
				336.25,125.753 336.25,334.416 			"/>
			<rect x="282.117" y="52.139" fill="#97ADC2" width="7.005" height="355.722"/>
		</g>
		<rect x="325.742" y="136.372" fill="#A1856E" width="7.086" height="203.314"/>
	</g>
	<g>
		<g>
			<g>
				<path fill="#44658B" d="M415.758,301.316c-5.957,0-14.426-0.488-22.258-2.676c1.111,15.078,1.838,34.389,0.634,53.078h6.197
					c9.953-14.688,16.59-28.232,19.73-38.77c6.149,7.605,12.472,19.059,16.752,35.207l5.34-0.057
					c4.554-18.502,4.903-35.793,1.858-51.783C439.328,299.576,426.729,301.316,415.758,301.316z"/>
			</g>
		</g>
		<path fill="#44658B" d="M367.027,303.494c0.779,1.105,1.737,2.164,2.989,1.096c1.106-0.941,0.734-2.236,0.748-3.473
			c0.021-1.578,0.313-2.781,1.254-3.037c1.266-0.35,1.52,1.998,2.496,1.822c0.778-0.137,0.831-1.162,0.83-2.08
			c-0.008-0.992-0.568-2.207-1.052-2.92c-1.062-1.574-2.638-2.016-4.26-1.354C366.523,294.979,364.788,300.328,367.027,303.494z"/>
		<path fill="#44658B" d="M462.143,296.965c-0.779,1.104-1.736,2.164-2.988,1.096c-1.107-0.941-0.734-2.236-0.748-3.473
			c-0.021-1.58-0.313-2.781-1.254-3.037c-1.267-0.35-1.521,1.998-2.496,1.822c-0.779-0.135-0.832-1.162-0.83-2.08
			c0.008-0.992,0.568-2.207,1.052-2.922c1.062-1.572,2.638-2.014,4.259-1.352C462.646,288.451,464.382,293.797,462.143,296.965z"/>
		<path fill="#44658B" d="M396.512,357.701c1.409,0.238,6.56,0.057,7.341-0.99c1.53-2.047-2.931-3.5-5.079-3.865
			C393.826,352.004,390.916,356.76,396.512,357.701z"/>
		<path fill="#44658B" d="M438.511,354.15c1.409,0.238,6.56,0.057,7.341-0.988c1.53-2.049-2.931-3.5-5.08-3.867
			C435.824,348.453,432.915,353.209,438.511,354.15z"/>
		<g>
			<path fill="#44658B" d="M451.826,286.723l7.346-1.738c-2.924-15.35-10.895-36.576-29.59-42.963
				c-2.161,2.523-4.455,3.936-6.229,4.146c-0.482,0.059-1.021,0.088-1.598,0.088c-4.087,0-10.204-1.447-15.746-4.617
				c-15.454,4.275-27.835,18.209-35.324,48.822l7.059,2.564c7.174-20.445,15.086-26.105,15.086-26.105s-1.828,25.693-1.273,30.092
				c19.232,6.332,50.012,2.525,53.108-2.721c-0.828-14.531-6.211-30.852-6.211-30.852S446.513,271.096,451.826,286.723z"/>
		</g>
		<g>
			<g>
				<path fill="#44658B" d="M431.51,201.244c-6.654-6.16-17.576-5.842-22.904-4.959c-4.823,0.797-8.158,2.928-11.322,5.906
					c-3.812,3.59-7.235,11.418-6.041,20.316c0.849,6.326,1.374,9.721,1.779,13.578c0.286,2.732-0.648,6.305-0.648,6.305
					s9.285,0.775,13.076-2.58c4.207-3.727,1.75-10.605,2.319-15.646c0.758-6.742,2.319-9.393,2.924-10.855
					c1.054-2.555,4.474-8.141,9.425-9.279c3.268-0.752,8.416-0.039,10.854,1.256c2.984,4.547,5.428,10.217,5.466,15.389
					c0.029,4.219-0.54,7.939-1.478,11.152c0,0,2.105-1.16,3.338-5.889C440.059,219.182,439.722,208.846,431.51,201.244z"/>
				<g>
					<path fill="#44658B" d="M435.146,217.766c-0.633-3.662-2.32-7.773-4.867-11.709c-1.646-0.791-4.497-1.334-7.068-1.334
						c-1.078,0-2.069,0.098-2.869,0.283c-4.662,1.07-7.879,6.631-8.725,8.684c-0.087,0.209-0.191,0.441-0.311,0.705
						c-0.713,1.578-1.908,4.217-2.545,9.883c-0.166,1.475-0.057,3.137,0.06,4.896c0.262,3.975,0.558,8.48-2.699,11.377
						c6.48,3.834,13.591,5.047,17.111,4.625c4.132-0.494,12.153-8.863,12.042-24.324
						C435.268,219.855,435.225,218.816,435.146,217.766z M422.472,225.283c-0.795,0.113-1.608-1.023-1.824-2.537
						c-0.214-1.514,0.254-2.832,1.043-2.945c0.791-0.111,1.607,1.023,1.821,2.539C423.728,223.855,423.26,225.172,422.472,225.283z
						 M431.911,223.477c-0.699,0.098-1.439-1.074-1.661-2.619c-0.221-1.549,0.169-2.879,0.862-2.979
						c0.695-0.098,1.438,1.076,1.658,2.621C432.99,222.045,432.601,223.379,431.911,223.477z"/>
				</g>
			</g>
		</g>
	</g>
</g>
</svg>
