<?xml version="1.0" encoding="utf-8"?>
<!-- Generator: Adobe Illustrator 15.0.2, SVG Export Plug-In . SVG Version: 6.00 Build 0)  -->
<!DOCTYPE svg PUBLIC "-//W3C//DTD SVG 1.1//EN" "http://www.w3.org/Graphics/SVG/1.1/DTD/svg11.dtd">
<svg version="1.1" id="Layer_1" xmlns="http://www.w3.org/2000/svg" xmlns:xlink="http://www.w3.org/1999/xlink" x="0px" y="0px"
	 width="720px" height="460px" viewBox="0 0 720 460" enable-background="new 0 0 720 460" xml:space="preserve">
<ellipse fill="#4E7094" cx="360" cy="230" rx="282.827" ry="208.941"/>
<path fill="#6C94B2" d="M360.001,378.015c-71.845,0-136.734,4.312-183.056,11.247c49.335,30.979,113.234,49.68,183.054,49.68
	c69.822,0,133.721-18.701,183.057-49.68C496.733,382.326,431.845,378.015,360.001,378.015z"/>
<g>
	<g>
		<g>
			<path fill="#334F72" d="M361.928,322.185c-0.042,0.052-0.087,0.101-0.134,0.151c-2.283,2.451-3.729-1.89-5.298-2.438
				c-3.421-1.196-0.173,1.237-2.458,2.127c-0.757,0.296-1.35-0.571-1.841-1.377c-0.526-0.874-0.686-2.233-0.646-3.122
				c0.087-1.885,1.287-3.076,3.042-3.562C357.97,313.029,364.757,318.766,361.928,322.185z"/>
			<path fill="#334F72" d="M250.553,339.408c0.895,1.064,1.965,2.063,3.151,0.861c1.052-1.059,0.557-2.35,0.465-3.616
				c-0.119-1.62,0.076-2.87,1.014-3.216c1.264-0.468,1.73,1.911,2.712,1.646c0.783-0.209,0.748-1.262,0.666-2.2
				c-0.093-1.016-0.772-2.206-1.33-2.897c-1.223-1.514-2.873-1.827-4.474-1.008C249.296,330.747,247.987,336.367,250.553,339.408z"
				/>
			<path fill="#334F72" d="M286.598,389.063c-1.511,0.253-4.992,0.735-6.259-0.029c-2.728-1.649,1.629-3.608,3.843-4.322
				C289.862,382.873,293.331,387.934,286.598,389.063z"/>
			<path fill="#334F72" d="M331.805,388.976c1.521,0.156,5.028,0.426,6.243-0.419c2.622-1.812-1.848-3.497-4.102-4.074
				C328.16,382.999,325.013,388.266,331.805,388.976z"/>
		</g>
		<g>
			<g>
				<path fill="#334F72" d="M334.717,332.288c-8.731,4.194-21.434,6.755-33.86,6.755c-10.936,0-19.175-2.018-23.386-5.562
					c-1.793,19.477,3.459,39.171,5.393,49.725l5.482-0.124c4.732-15.151,12.578-29.623,20.087-34.05
					c8.744,6.913,14.677,19.109,20.512,33.941l6.008-0.226c3.018-16.431,3.539-34.838,0.351-48.875
					C335.177,333.317,334.978,332.79,334.717,332.288z"/>
			</g>
		</g>
	</g>
	<g>
		<g>
			<path fill="#334F72" d="M290.381,265.36c1.94-2.28,3.846-2.636,6.017-3.697c-1.583-5.798-2.145-10.161-0.761-14.388
				c1.17-3.561,4.985-7.432,8.944-9.479c2.938-1.519,6.711-2.688,9.724-2.114c3.552,0.676,5.639,4.838,7.291,9.098
				c-0.971-7.823-7.089-14.308-13.306-16.971c-6.021-2.578-22.772-2.449-29.943,7.615c-11.625,16.318,4.558,35.559,7.377,37.898
				c1.099,0.911,5.647,2.73,6.988,2.972C290.102,271.816,288.714,267.32,290.381,265.36z"/>
		</g>
	</g>
	<g>
		<path fill="#334F72" d="M322.478,250.51l-0.07-0.293c-0.119-0.484-0.268-0.962-0.404-1.441l-1.4-3.611
			c-1.49-3.844-3.429-7.852-6.498-8.436c-0.451-0.086-0.944-0.13-1.465-0.13c-2.174,0-4.934,0.781-7.57,2.144
			c-3.844,1.988-7.385,5.717-8.42,8.864c-1.351,4.128-0.667,8.493,0.776,13.775l0.232,0.85l-0.792,0.388
			c-0.542,0.266-1.059,0.485-1.56,0.697c-1.501,0.639-2.798,1.188-4.114,2.734c-1.143,1.344-0.162,5.244,2.44,9.707l0.078,0.135
			c1.224,0.679,2.523,1.289,3.875,1.744c6.644,2.236,14.078,1.433,17.438,0.247c4.146-1.462,10.392-11.562,7.53-27.017
			C322.53,250.76,322.503,250.639,322.478,250.51z M309.276,256.972c-0.822,0.309-1.973-0.718-2.569-2.294
			c-0.593-1.577-0.407-3.108,0.414-3.419c0.825-0.31,1.975,0.716,2.571,2.295C310.289,255.131,310.1,256.66,309.276,256.972z
			 M319.091,253.379c-0.728,0.275-1.807-0.807-2.415-2.418c-0.605-1.612-0.511-3.137,0.212-3.41
			c0.726-0.273,1.805,0.811,2.415,2.422C319.907,251.582,319.808,253.106,319.091,253.379z"/>
		<g>
			<path fill="#334F72" d="M306.792,279.053c3.422,0,6.42-0.529,8.232-1.169c0.786-0.276,1.646-0.867,2.508-1.743
				c-5.425-2.082-11.133-2.941-17.043-2.031c-2.418,0.373-4.745,0.942-6.988,1.668c1.284,0.727,2.656,1.379,4.084,1.859
				C300.646,278.666,303.873,279.053,306.792,279.053z"/>
			<path fill="#334F72" d="M318.612,276.564c-1.053,1.141-2.158,1.945-3.233,2.324c-2.181,0.77-5.392,1.229-8.587,1.229
				c-3.387,0-6.688-0.508-9.545-1.471c-1.415-0.477-2.896-1.152-4.4-2.013l-0.251-0.144l-0.144-0.25
				c-0.017-0.029-0.03-0.056-0.046-0.086c-22.295,7.865-35.664,32.179-39.819,50.16l6.381,2.029
				c6.457-17.535,18.119-25.779,18.119-25.779s-1.132,10.859-1.427,26.539c3.591,12.006,42.365,11.252,60.564,1.221
				c-4.119-17.264-10.316-32.552-10.316-32.552s10.53,1.351,23.879,18.632l4.96-4.791
				C346.185,298.156,333.517,282.773,318.612,276.564z"/>
		</g>
	</g>
</g>
<g>
	<g>
		<g>
			<g>
				<path fill="#76A2BE" d="M366.685,345.998c-10.769,0-21.061-2.218-28.637-6.12c-0.035,1.331-0.047,2.747-0.048,4.276
					c0.535-0.187,1.093-0.295,1.664-0.295c0.815,0,1.611,0.2,2.364,0.595c2.35,1.228,3.515,4.362,2.711,7.289
					c-0.152,0.554-0.557,2.022-1.817,2.022c-0.583,0-1.026-0.334-1.418-0.63c-0.146-0.109-0.379-0.286-0.487-0.329
					c-0.046,0.035-0.146,0.133-0.289,0.365c-0.213,0.35-0.324,0.691-0.442,1.055c-0.183,0.557-0.389,1.189-0.966,1.73
					c-0.223,0.209-0.484,0.387-0.801,0.545c0.97,10.235,3.453,19.525,8.65,33.145l5.361,0.064
					c3.908-13.235,9.416-27.293,17.164-36.268c9.934,7.945,14.118,21.659,18.12,35.315l5.487-0.635
					c2.564-13.146,4.426-31.737,1.033-49.233C389.416,343.241,378.84,345.998,366.685,345.998z"/>
			</g>
		</g>
		<g>
			<path fill="#76A2BE" d="M338.671,355.264c-0.154,0.145-0.346,0.275-0.586,0.396c-3.598,1.771-4.198-4.2-3.29-6.765
				c1.163-3.279,4.136-4.99,6.794-3.599c1.963,1.025,2.918,3.71,2.234,6.196c-0.982,3.572-2.261-1.52-3.906,1.187
				C339.296,353.699,339.376,354.604,338.671,355.264z"/>
			<g>
				<g>
					<path fill="#76A2BE" d="M339.917,352.679c0.377-0.618,0.733-0.829,1.072-0.829c0.726,0,1.367,0.967,1.933,0.967
						c0.325,0,0.625-0.319,0.901-1.324c0.684-2.486-0.271-5.171-2.234-6.196c-0.633-0.331-1.285-0.487-1.925-0.487
						c-0.569,0-1.126,0.135-1.658,0.365c0.016,3.65,0.139,7.031,0.413,10.289c0.094-0.063,0.178-0.13,0.252-0.199
						C339.376,354.604,339.296,353.699,339.917,352.679z"/>
				</g>
			</g>
		</g>
		<g>
			<path fill="#76A2BE" d="M399.324,342.83c-0.323-0.393-0.509-0.979-0.524-1.441c-0.148-4.455,2.842-11.518,8.142-6.678
				c1.55,1.414,2.72,6.297,1.114,7.845c-2.645,2.546-3.623-2.448-5.701-2.209c-1.408,0.163-0.653,2.109-1.557,2.699
				C400.175,343.453,399.67,343.252,399.324,342.83z"/>
		</g>
		<path fill="#76A2BE" d="M390.386,394.49c1.543,0.042,5.087,0.046,6.244-0.896c2.5-2.021-2.125-3.373-4.434-3.783
			C386.268,388.764,383.507,394.295,390.386,394.49z"/>
		<path fill="#76A2BE" d="M351.009,396.07c-1.537,0.043-5.084,0.043-6.241-0.896c-2.497-2.023,2.124-3.375,4.436-3.784
			C355.13,390.341,357.893,395.874,351.009,396.07z"/>
		<g>
			<g>
				<path fill="#76A2BE" d="M354.032,266.05c2.83-5.653,8.73-9.002,6.807-17.93c9.082,2.292,13.305-3.035,16.151-2.342
					c1.727,0.421,4.196,1.726,5.867,5.755c-1.1-7.444-7.083-13.501-13.077-15.904c-5.804-2.33-21.793-1.838-28.415,7.931
					c-10.739,15.835,0.271,32.791,0.661,43.627c3.703,1.528,10.975,1.304,13.955-4.929
					C357.337,279.424,351.138,271.84,354.032,266.05z"/>
				<g>
					<path fill="#76A2BE" d="M405.551,330.926c-4.608-24.363-13.076-41.58-25.958-47.954c-0.642,0.544-1.295,0.954-1.939,1.198
						c-1.744,0.661-4.998,1.368-8.903,1.368c-2.996,0-5.812-0.403-8.368-1.198c-0.19-0.059-0.477-0.143-0.832-0.245
						c-1.137-0.329-2.117-0.63-2.987-0.914c-2.784,5.159-8.033,5.745-10.216,5.745c-0.191,0-0.379-0.019-0.57-0.026
						c-10.377,10.71-14.572,32.733-10.484,55.513l7.883-1.479c-1.621-21.586,6.057-36.762,11.316-41.281l0.619,0.721
						c-5.002,4.297-12.242,18.578-11.082,39.042c18.335,6.534,43.699,3.681,50.615-4.158c-1.6-14.534-7.537-33.399-7.537-33.399
						s9.084,15.631,12.546,29.225L405.551,330.926z"/>
				</g>
			</g>
			<path fill="#76A2BE" d="M383.909,257.325c-0.026-0.104-0.056-0.216-0.082-0.34l-0.076-0.278c-0.184-0.686-0.4-1.365-0.623-2.043
				l-1.147-2.767c-1.185-2.857-2.988-4.655-5.215-5.196c-0.099-0.024-0.204-0.036-0.321-0.036c-0.696,0-1.678,0.429-2.812,0.925
				c-1.986,0.867-4.707,2.057-8.359,2.057c-1.058,0-2.146-0.102-3.254-0.301c0.809,5.918-1.787,9.416-4.302,12.807
				c-1.062,1.431-2.063,2.782-2.835,4.322c-1.529,3.059-0.184,6.775,1.006,10.054c0.867,2.393,1.55,4.313,1.07,5.79
				c1.596,0.516,3.109,0.93,3.706,1.115c6.393,1.988,13.472,1.055,16.653-0.152C381.241,281.795,386.981,272.015,383.909,257.325z
				 M371.367,263.446c-0.778,0.314-1.902-0.641-2.503-2.134c-0.604-1.494-0.459-2.957,0.317-3.273
				c0.782-0.312,1.903,0.641,2.507,2.134C372.292,261.668,372.146,263.131,371.367,263.446z M380.656,259.801
				c-0.688,0.277-1.741-0.732-2.36-2.258c-0.613-1.523-0.555-2.982,0.13-3.26s1.741,0.734,2.358,2.26
				C381.396,258.064,381.335,259.523,380.656,259.801z"/>
		</g>
	</g>
</g>
<g>
	<g>
		<g>
			<path fill="#76A2BE" d="M258.579,363.41c-5.632,0-10.838-0.766-14.821-2.148c-0.673,9.191,3.339,16.678,3.956,31.852l3.477,0.354
				c6.471-9.049,10.096-16.657,12.51-24.025c6.281,6.522,9.904,11.716,11.959,20.576l3.666-0.072
				c1.927-6.539,4.199-25.048,2.684-33.58C278.886,361.188,268.233,363.41,258.579,363.41z"/>
		</g>
	</g>
	<path fill="#76A2BE" d="M297.256,352.809c-0.734,0.449-1.709-0.098-2.174-1.545c-0.318-0.998-0.568-1.745-1.143-2.041
		c-0.775-0.396-1.258,1.087-1.867,0.842c-0.484-0.195-0.428-0.881-0.25-1.461c0.229-0.748,0.756-1.452,1.193-1.82
		c0.854-0.707,1.6-1.121,2.805-0.357c1.068,0.675,1.727,1.658,2.197,3.241C298.452,351.139,298.178,352.241,297.256,352.809z"/>
	<path fill="#76A2BE" d="M226.573,359.353c0.523,0.728,1.162,1.423,1.984,0.71c0.729-0.629,0.475-1.484,0.479-2.302
		c0.004-1.049,0.191-1.844,0.812-2.02c0.836-0.237,1.016,1.315,1.662,1.192c0.514-0.094,0.545-0.773,0.537-1.381
		c-0.01-0.656-0.389-1.457-0.711-1.928c-0.711-1.035-1.758-1.318-2.826-0.871C226.194,353.719,225.075,357.269,226.573,359.353z"/>
	<path fill="#76A2BE" d="M276.458,393.694c0.998,0.117,3.303,0.327,4.197-0.187c1.936-1.1-0.867-2.201-2.307-2.589
		C274.653,389.928,272.012,393.171,276.458,393.694z"/>
	<path fill="#76A2BE" d="M248.19,396.801c0.998,0.115,3.303,0.324,4.199-0.187c1.932-1.099-0.867-2.204-2.309-2.589
		C246.381,393.031,243.745,396.279,248.19,396.801z"/>
	<path fill="#76A2BE" d="M256.616,321.896c-0.097-0.265-0.184-0.51-0.277-0.768c-0.606,0.105-1.194,0.227-1.769,0.36l0.059,0.017
		C255.445,321.737,256.146,321.874,256.616,321.896z"/>
	<g>
		<path fill="#76A2BE" d="M256.856,291.624c-3.429,2.26-4.444,7.458-4.52,9.688c-0.047,1.279-0.479,3.73,0.848,9.053
			c0.994,3.979,3.906,11.779,3.924,11.859c-1.08,0.191-3.594-0.702-3.594-0.702l1.041,5.45l-5.328-2.379l0.469,2.913
			c0,0-7.444-6.786-10.613-13.739c-3.007-6.606-1.92-13.293-0.046-17.088c1.56-3.153,3.483-5.703,6.909-7.671
			c3.79-2.175,7.501-2.677,12.393-3.89c3.895-0.965,11.09-3.891,11.09-3.891l-4.204,4.801l6.333,1.721
			C271.557,287.75,262.078,288.18,256.856,291.624z"/>
		<g>
			<path fill="#76A2BE" d="M272.486,322.021c-0.329,0.3-0.66,0.557-0.989,0.727c-1.777,0.915-5.292,1.895-9.825,1.895
				c-2.312,0-4.555-0.274-6.694-0.786l0.56,2.93l0.359,1.883l-1.75-0.781l-3.639-1.626l0.175,1.087l0.455,2.826l-2.116-1.928
				c-0.123-0.112-1.355-1.248-2.99-3.004c-6.594,4.645-11.139,12.943-17.316,25.902l4.023,1.662
				c7.748-11.244,12.607-13.797,12.607-13.797s-0.945,9.619-2.105,21.011c12.496,4.858,37.352,2.028,38.623-5.956
				c-0.92-11.265-4.574-19.534-4.574-19.534s8.775,4.993,13.709,12.118l4.34-1.877C291.35,333.34,282.897,325.18,272.486,322.021z"
				/>
		</g>
	</g>
	<g>
		<path fill="#76A2BE" d="M273.313,299.853c-1.808-4.737-4.938-8.097-8.583-10.149c-2.541,0.555-5.29,1.414-7.324,2.756
			c-3.164,2.085-4.011,7.123-4.071,8.891c-0.006,0.182-0.021,0.386-0.036,0.616c-0.095,1.386-0.254,3.705,0.855,8.157
			c0.559,2.237,1.814,6.041,3.73,11.307c0.184,0.506,0.184,0.506,0.201,0.584l0.22,1.016l-1.023,0.181
			c-0.119,0.021-0.254,0.026-0.39,0.031c5.955,1.016,11.612-0.077,14.148-1.384C274.054,320.303,277.799,311.63,273.313,299.853z
			 M264.793,306.884c-0.574,0.312-1.52-0.325-2.115-1.419c-0.593-1.098-0.609-2.237-0.043-2.547c0.573-0.31,1.521,0.325,2.118,1.422
			C265.347,305.434,265.366,306.573,264.793,306.884z M271.488,302.815c-0.503,0.273-1.403-0.409-2.013-1.528
			c-0.608-1.117-0.691-2.246-0.188-2.52c0.501-0.271,1.403,0.412,2.013,1.528C271.907,301.416,271.987,302.543,271.488,302.815z"/>
		<path fill="#76A2BE" d="M268.995,289.539c-0.37-0.286-0.748-0.535-1.131-0.756c-0.66,0.094-1.388,0.219-2.138,0.363
			c3.875,2.337,6.821,5.895,8.522,10.35c1.258,3.302,1.87,6.383,2.048,9.17l0.072,0.037l0.309-3.294l1.258,0.642
			C277.934,306.051,275.566,294.584,268.995,289.539z"/>
	</g>
</g>
<g>
	<path fill="#E3E1DC" d="M465.535,179.062c0.245,0.87,1.55,0.505,1.349-0.372c-4.646-20.273-17.191-37.645-36.084-46.783
		c-17.746-8.585-39.678-8.315-57.328,0.318c-0.945,0.462-0.273,2.075,0.719,1.706c18.215-6.777,37.391-8.229,55.424,0.003
		C448.192,142.414,460.118,159.843,465.535,179.062z"/>
	<path fill="#E3E1DC" d="M374.608,121.076c-0.832,0.625-0.072,2.032,0.836,1.43c24.287-16.102,62.574-12.387,85.74,4.368
		c0.62,0.448,1.422-0.589,0.819-1.062c-11.56-9.067-26.239-13.31-40.657-14.908C405.44,109.141,387.706,111.224,374.608,121.076z"/>
	<path fill="#E3E1DC" d="M367.097,119.388c15.396-14.006,35.994-20.256,56.615-18.461c0.946,0.083,0.931-1.378,0-1.469
		c-20.998-2.053-42.209,4.298-57.637,18.908C365.396,119.01,366.411,120.012,367.097,119.388z"/>
	<path fill="#E3E1DC" d="M364.239,116.31c1.551-9.634,5.998-19.345,14.859-24.251c0.566-0.313,0.065-1.159-0.505-0.863
		c-9.33,4.835-14.034,14.765-15.681,24.749C362.771,116.812,364.099,117.182,364.239,116.31z"/>
	<path fill="#E3E1DC" d="M326.638,100.994c9.02,0.533,15.578,7.76,20.355,14.759c0.537,0.786,1.809,0.067,1.289-0.753
		c-4.867-7.663-11.994-15.038-21.645-15.24C325.837,99.743,325.849,100.947,326.638,100.994z"/>
	<path fill="#E3E1DC" d="M292.137,107.959c8.334,0.372,16.695,0.576,24.879,2.338c8.717,1.876,16.293,6.468,23.043,12.157
		c0.795,0.669,1.938-0.432,1.154-1.154c-6.516-6.015-13.84-10.278-22.456-12.468c-8.624-2.19-17.796-1.984-26.621-2.037
		C291.383,106.79,291.391,107.926,292.137,107.959z"/>
	<path fill="#E3E1DC" d="M342.78,131.132c1.01,0.446,1.907-1.001,0.883-1.511c-12.113-6.025-25.564-8.864-39.054-6.885
		c-15.003,2.202-28.595,8.763-41.682,16.138c-0.655,0.369-0.072,1.361,0.588,1.005c11.66-6.289,23.76-11.926,36.815-14.561
		C314.917,122.374,329.335,125.2,342.78,131.132z"/>
	<path fill="#E3E1DC" d="M350.427,137.434c1.225,0.145,1.511-1.975,0.291-2.156c-32.012-4.767-68.303,13.051-76.792,45.92
		c-0.219,0.846,1.056,1.193,1.303,0.359C284.615,149.853,319.263,133.754,350.427,137.434z"/>
	<path fill="#E3E1DC" d="M354.136,142.078c-21.865,9.877-32.135,34.502-32.076,57.357c0.002,0.843,1.283,0.84,1.305,0
		c0.543-22.443,11.107-45.151,31.773-55.644C356.294,143.205,355.281,141.562,354.136,142.078z"/>
	<path fill="#E3E1DC" d="M371.212,140.631c-0.979-0.131-1.156,1.465-0.23,1.695c20.801,5.179,39.938,15.999,48.41,36.739
		c0.34,0.831,1.701,0.487,1.371-0.378C412.964,158.271,392.718,143.498,371.212,140.631z"/>
	<path fill="#E3E1DC" d="M362.024,137.92c-0.85-0.62-1.721,0.683-1.074,1.393c9.818,10.787,13.928,28.242,14.904,42.373
		c0.062,0.921,1.482,0.938,1.445,0c-0.385-9.737-2.592-19.168-6.049-28.263C369.267,148.202,366.718,141.343,362.024,137.92z"/>
	<path fill="#E3E1DC" d="M355.692,91.627c0.067-0.848-1.213-0.82-1.305,0c-1.078,9.605-0.27,19.221,1.365,28.717
		c0.18,1.044,1.727,0.589,1.574-0.434C355.925,110.542,354.933,101.1,355.692,91.627z"/>
	<path fill="#E3E1DC" d="M553.718,189.97c2.846-8.085,9.436-14.495,18.359-15.405c0.866-0.089,0.893-1.438,0-1.375
		c-9.785,0.679-18.041,7.845-20.362,17.229c-6.563-11.681-21.159-13.782-33.638-13.042c-0.641,0.038-0.647,1.027,0,1
		c11.961-0.503,25.529,1.548,32.121,12.322c-21.455-7.43-42.932,0.879-58.125,17.175c-0.623,0.669,0.359,1.659,1.006,1.006
		c14.527-14.677,33.91-22.05,53.711-16.618c-10.504,1.861-20.06,7.525-27.459,15.223c-6.82,7.098-12.238,17.578-9.395,27.569
		c0.234,0.823,1.492,0.478,1.281-0.354c-2.471-9.664,3.208-18.94,9.604-25.726c7.549-8.008,17.799-13.019,28.561-14.832
		c-11.865,11.547-16.092,28.804-12.434,44.908c0.186,0.822,1.432,0.472,1.258-0.348c-3.535-16.592,1.677-32.998,13.715-44.775
		c0.066,0.016,0.131,0.027,0.193,0.031c6.052,4.045,8.004,11.986,9.295,18.74c1.67,8.749,1.876,17.797,1.992,26.678
		c0.011,0.871,1.342,0.871,1.352,0c0.094-9.543-0.056-19.115-1.757-28.53c-1.165-6.447-3.392-13.632-8.681-17.829
		c8.734-2.05,17.053,0.115,24.775,4.795c6.494,3.936,13.756,11.026,14.264,19.064c0.058,0.922,1.459,0.939,1.445,0
		c-0.133-8.592-6.979-15.551-13.501-20.271c-7.101-5.14-16.56-7.911-25.21-6.067c12.139-8.186,30.244-5.365,39.395,6.432
		c0.582,0.751,1.885-0.253,1.318-1.018C587.112,182.865,566.2,179.406,553.718,189.97z"/>
	<path fill="#E3E1DC" d="M588.077,173.705c0.333-0.001,0.667-0.035,1-0.059c0.99-0.069,0.99-1.47,0-1.539
		c-0.333-0.023-0.667-0.058-1-0.059C587.009,172.046,587.009,173.708,588.077,173.705z"/>
	<path fill="#E3E1DC" d="M476.991,222.291c-1.006,1.079-1.615,2.607-1.59,4.086c0.014,0.879,1.295,0.863,1.352,0
		c0.072-1.115,0.645-2.128,1.409-2.914C478.907,222.695,477.72,221.51,476.991,222.291z"/>
	<path fill="#E3E1DC" d="M546.366,256.112c-0.129,0.054-0.252,0.097-0.386,0.134c-0.015-0.033-0.024-0.053-0.048-0.107
		c-0.016-0.036-0.054-0.189-0.062-0.262c-0.127-1.001-1.504-1.039-1.586,0c-0.055,0.676,0.115,1.419,0.742,1.791
		c0.638,0.377,1.328,0.215,1.951-0.106C547.765,257.153,547.2,255.766,546.366,256.112z M545.925,256.255
		C545.858,256.262,545.873,256.238,545.925,256.255L545.925,256.255z"/>
	<path fill="#E3E1DC" d="M605.151,222.877c-0.002-0.047-0.002-0.094-0.002-0.141c0.01-0.698-0.531-1.041-1.072-1.033
		c-0.543-0.008-1.084,0.335-1.072,1.033c-0.001,0.047-0.002,0.094-0.002,0.141c0,0.01,0.004,0.016,0.004,0.024
		c0.002,0.143,0.005,0.285,0.008,0.429c0.021,1.369,2.104,1.369,2.125,0c0.002-0.144,0.004-0.286,0.006-0.429
		C605.146,222.893,605.151,222.887,605.151,222.877z"/>
	<path fill="#E3E1DC" d="M355.44,129.877c0.02-0.167,0.039-0.334,0.059-0.5c0.139-1.188-1.983-1.188-1.844,0
		c0.02,0.166,0.039,0.333,0.059,0.5C353.843,130.987,355.31,130.987,355.44,129.877z"/>
	<path fill="#E3E1DC" d="M203.507,153.445c0.735,0.735,1.873-0.403,1.139-1.138c-0.167-0.167-0.339-0.328-0.509-0.491
		c-0.735-0.712-1.833,0.386-1.121,1.121C203.18,153.106,203.341,153.279,203.507,153.445z"/>
	<path fill="#E3E1DC" d="M169.607,154.847c0.606,0.605,1.545-0.333,0.939-0.939c-0.167-0.167-0.323-0.345-0.483-0.517
		c-0.607-0.648-1.621,0.365-0.973,0.973C169.262,154.523,169.441,154.68,169.607,154.847z"/>
	<path fill="#E3E1DC" d="M438.476,60.377c0.012-0.334,0.023-0.667,0.035-1c0.042-1.204-1.91-1.204-1.867,0
		c0.012,0.333,0.023,0.666,0.035,1C436.72,61.535,438.435,61.535,438.476,60.377z"/>
	<path fill="#E3E1DC" d="M508.077,94.635c0.977-0.025,0.977-1.485,0-1.516c-0.379-0.012-0.649-0.039-0.932-0.312
		c-0.752-0.727-1.919,0.466-1.138,1.138C506.626,94.479,507.27,94.655,508.077,94.635z"/>
	<path fill="#E3E1DC" d="M417.577,225.025c-0.167-0.016-0.334-0.031-0.5-0.047c-1.158-0.108-1.158,1.905,0,1.797
		c0.166-0.016,0.333-0.031,0.5-0.047C418.673,226.626,418.673,225.128,417.577,225.025z"/>
	<path fill="#E3E1DC" d="M535.257,110.028c1.719-0.369,3.418-0.368,4.775,0.893c0.727,0.674,1.817-0.412,1.088-1.088
		c-1.766-1.64-3.992-1.681-6.223-1.108C534.048,108.942,534.409,110.211,535.257,110.028z"/>
	<path fill="#E3E1DC" d="M534.941,118.012c0.878,0.948,1.245,2.209,1.839,3.33c0.566,1.069,2.07,0.132,1.592-0.931
		c-0.588-1.31-1.138-2.626-2.16-3.67C535.397,115.91,534.157,117.164,534.941,118.012z"/>
	<path fill="#E3E1DC" d="M528.483,116.529c-0.995,1.45-2.139,3.013-2.105,4.848c0.016,0.918,1.311,0.881,1.398,0
		c0.154-1.55,1.072-2.881,1.895-4.153C530.155,116.473,528.979,115.807,528.483,116.529z"/>
	<path fill="#E3E1DC" d="M521.229,113.028c1.645-1.426,3.159-2.05,5.349-2.112c1.336-0.038,1.342-2.066,0-2.078
		c-2.619-0.023-5.482,0.55-6.797,3.073C519.286,112.862,520.438,113.714,521.229,113.028z"/>
	<path fill="#E3E1DC" d="M526.372,103.119c1.637,0.249,3.322,0.083,4.805,0.942c0.891,0.517,1.65-0.813,0.801-1.369
		c-1.641-1.074-3.695-1.346-5.605-1.058C525.634,101.746,525.635,103.007,526.372,103.119z"/>
	<path fill="#E3E1DC" d="M271.077,62.014c-1.113,0.002-1.113,1.723,0,1.727c1.847,0.006,3.92-0.058,5.611,0.801
		c0.896,0.455,1.58-0.758,0.777-1.329C275.639,61.913,273.221,62.01,271.077,62.014z"/>
	<path fill="#E3E1DC" d="M268.778,68.146c-0.956-0.275-1.298,1.122-0.402,1.462c1.476,0.561,2.999,1.009,4.5,1.5
		c0.933,0.306,1.321-1.149,0.402-1.462C271.783,69.139,270.295,68.583,268.778,68.146z"/>
	<path fill="#E3E1DC" d="M262.841,71.588c0.309-0.736-0.826-1.349-1.325-0.771c-1.699,1.962-1.664,4.843-1.125,7.249
		c0.173,0.772,1.499,0.612,1.396-0.188C261.5,75.634,261.978,73.645,262.841,71.588z"/>
	<path fill="#E3E1DC" d="M256.906,64.759c-1.84,0.604-3.372,1.874-4.7,3.248c-0.471,0.486,0.247,1.199,0.74,0.74
		c1.28-1.192,2.659-2.136,4.3-2.753C258.007,65.709,257.702,64.498,256.906,64.759z"/>
	<path fill="#E3E1DC" d="M255.897,58.528c2.361,0.533,4.344,1.598,6.315,2.973c0.67,0.467,1.524-0.634,0.875-1.135
		c-2.034-1.575-4.308-2.63-6.831-3.142C255.408,57.054,255.043,58.335,255.897,58.528z"/>
	<path fill="#E3E1DC" d="M265.864,60.594c1.02-2.865,2.872-5.805,6.213-5.982c0.939-0.05,0.953-1.479,0-1.469
		c-4.032,0.041-6.856,3.32-7.787,7.018C264.029,61.192,265.515,61.575,265.864,60.594z"/>
	<path fill="#E3E1DC" d="M309.597,98.896c0.154-0.177,0.301-0.368,0.467-0.533c0.627-0.628-0.346-1.601-0.973-0.973
		c-0.166,0.166-0.357,0.312-0.533,0.467C307.843,98.483,308.97,99.61,309.597,98.896z"/>
	<path fill="#E3E1DC" d="M357.772,75.877c0.006,0.228-0.006,0.464,0.053,0.686c0.197,0.745,1.307,0.745,1.504,0
		c0.059-0.222,0.047-0.458,0.053-0.686C359.407,74.839,357.747,74.839,357.772,75.877z"/>
	<path fill="#E3E1DC" d="M207.22,116.021c0.029-0.032,0.175-0.183,0.242-0.257c0.06-0.01,0.324-0.134,0.322-0.134
		c0.736-0.303,0.743-1.206,0-1.507c-0.755-0.305-1.316,0.115-1.852,0.61C205.07,115.531,206.419,116.882,207.22,116.021z"/>
	<path fill="#E3E1DC" d="M490.294,134.664c0.16-0.022,0.32-0.045,0.48-0.068c0.717-0.101,0.717-1.338,0-1.438
		c-0.16-0.022-0.32-0.045-0.48-0.067C488.976,132.904,488.976,134.85,490.294,134.664z"/>
	<path fill="#E3E1DC" d="M536.577,315.154c-0.167-0.012-0.334-0.023-0.5-0.035c-0.978-0.068-0.978,1.584,0,1.516
		c0.166-0.012,0.333-0.023,0.5-0.035C537.507,316.534,537.507,315.22,536.577,315.154z"/>
	<path fill="#E3E1DC" d="M241.51,141.128c-56.58,23.54-104.473,74.079-126.396,131.183c-0.259,0.677,0.886,1.159,1.171,0.494
		c24.217-56.615,69.375-104.861,126.107-129.585C243.576,142.703,242.705,140.63,241.51,141.128z"/>
	<path fill="#E3E1DC" d="M553.616,247.053c-47.555,19.641-79.875,61.887-109.355,102.172c-0.574,0.784,0.715,1.498,1.289,0.752
		c30.43-39.621,62.18-79.93,108.902-100.938C555.569,248.536,554.752,246.584,553.616,247.053z"/>
	<path fill="#E3E1DC" d="M511.842,149.142c-43.782,44.185-68.992,107.075-75.964,168.235c-0.09,0.781,1.265,0.964,1.373,0.186
		c8.613-61.832,34.173-120.447,76.061-166.951C514.203,149.621,512.792,148.184,511.842,149.142z"/>
</g>
</svg>
