<?xml version="1.0" encoding="utf-8"?>
<!-- Generator: Adobe Illustrator 15.0.2, SVG Export Plug-In . SVG Version: 6.00 Build 0)  -->
<!DOCTYPE svg PUBLIC "-//W3C//DTD SVG 1.1//EN" "http://www.w3.org/Graphics/SVG/1.1/DTD/svg11.dtd">
<svg version="1.1" id="Layer_1" xmlns="http://www.w3.org/2000/svg" xmlns:xlink="http://www.w3.org/1999/xlink" x="0px" y="0px"
	 width="720px" height="460px" viewBox="0 0 720 460" enable-background="new 0 0 720 460" xml:space="preserve">
<path fill="#D3D696" d="M289.883,227.14c132.873-9.605,253.975,0.785,333.688,45.097c53.021,29.478,48.424,68.548,5.23,91.884
	c-48.045,25.961-145.549,47.372-283.566,47.372c-133.379,0-234.924-30.909-272.536-61.071
	c-27.039-21.686-17.824-58.077,30.807-80.975C156.438,244.526,209.154,232.973,289.883,227.14z"/>
<g>
	<g>
		<ellipse fill="#BEC366" cx="484.104" cy="233.361" rx="88.051" ry="70.598"/>
	</g>
</g>
<g>
	<g>
		<polygon fill="#E9DCBE" points="112.664,266.29 197.168,326.469 197.168,163.501 108.588,131.38 		"/>
		<polygon fill="#AC2400" points="322.77,65.636 182.217,159.738 184.141,164.35 197.168,163.501 439.979,151.907 450.137,151.614 
			453.42,149.279 		"/>
		<polygon fill="#F3E6C6" points="448.373,300.11 197.168,326.469 197.168,163.501 322.77,77.636 439.979,151.907 		"/>
	</g>
	<polygon fill="#B63E1F" points="182.217,159.738 102.656,129.827 105.053,133.612 184.141,164.35 	"/>
	<polygon fill="#BD5033" points="182.217,159.738 102.656,129.827 231.289,48.508 322.77,65.636 	"/>
</g>
<g>
	<path fill="#A1856E" d="M480.041,236.924c0.559,0.331,1.045,0.872,0.738,1.552c-0.705,1.568-3.064,0.07-3.99-0.416
		c-1.43-0.756-2.646-1.074-3.334-0.356c-0.93,0.965,1.053,2.335,0.42,3.126c-0.502,0.631-1.447,0.18-2.27-0.269
		c-0.889-0.491-1.703-1.581-2.109-2.366c-0.867-1.664-0.426-3.287,0.844-4.579c1.143-1.163,2.783-1.852,4.42-1.54
		c2.016,0.382,2.854,1.833,3.545,3.559c0.34,0.854,0.682,0.793,1.443,1.137C479.846,236.815,479.945,236.866,480.041,236.924z"/>
	<path fill="#A1856E" d="M391.91,331.134c-1.502,0.252-4.963,0.732-6.223-0.028c-2.713-1.64,1.619-3.587,3.82-4.298
		C395.156,324.979,398.604,330.011,391.91,331.134z"/>
	<path fill="#A1856E" d="M436.852,331.048c1.512,0.154,4.998,0.423,6.207-0.417c2.605-1.801-1.838-3.476-4.078-4.051
		C433.229,325.106,430.1,330.341,436.852,331.048z"/>
	<g>
		<g>
			<path fill="#A1856E" d="M438.789,272.547c-1.576,0.755-3.793,1.411-6.682,1.976c-5.287,1.035-12.336,1.629-19.338,1.629
				c-5.731,0-22.369-0.483-28.381-5.802c-4.451,19.171,1.877,44.417,3.809,54.962l5.449-0.123
				c4.705-15.063,12.504-29.449,19.971-33.85c8.691,6.871,14.59,18.996,20.391,33.742l5.973-0.225c3-16.334,3.365-34.6,0.348-48.588
				C440.016,274.819,439.479,273.604,438.789,272.547z"/>
		</g>
	</g>
	<g>
		<path fill="#A1856E" d="M402.322,201.264c2.564-1.515,4.469-1.229,6.854-1.524c0.391-5.962,1.277-10.245,3.949-13.77
			c2.252-2.967,7.092-5.368,11.475-6.01c3.254-0.476,7.18-0.353,9.826,1.165c3.117,1.786,3.73,6.373,3.904,10.913
			c1.621-7.668-2.025-15.746-7.006-20.263c-4.822-4.373-20.609-9.683-30.609-2.547c-16.215,11.567-7.24,34.896-5.35,38.008
			c0.736,1.214,4.422,4.397,5.604,5.059C399.967,207.24,400.119,202.565,402.322,201.264z"/>
	</g>
	<g>
		<path fill="#A1856E" d="M437.301,197.709l0.027-0.3c0.162-1.766,0.209-3.562,0.143-5.339c-0.166-4.312-0.695-8.429-3.496-10.106
			c-2.301-1.377-6.578-1.494-9.467-1.064c-3.838,0.574-8.666,2.914-10.695,5.591c-2.639,3.479-3.418,7.835-3.777,13.306l-0.049,0.71
			l-0.705,0.087c-0.59,0.074-1.146,0.113-1.682,0.15c-1.072,0.072-2.09,0.145-3.152,0.491c-0.57,0.185-1.123,0.438-1.686,0.771
			c-1.588,0.938-1.967,4.838-0.979,9.955c0.994,1.136,2.105,2.23,3.332,3.176c5.52,4.256,12.768,5.91,16.309,5.885
			c4.371-0.031,13.514-7.499,15.834-22.949C437.27,197.96,437.283,197.838,437.301,197.709z M421.129,196.515
			c-0.047-1.675,0.623-3.053,1.496-3.079c0.875-0.023,1.625,1.313,1.672,2.99c0.051,1.676-0.623,3.052-1.496,3.078
			C421.926,199.527,421.178,198.188,421.129,196.515z M434.492,196.175c0.045,1.709-0.543,3.109-1.307,3.134
			c-0.771,0.022-1.434-1.345-1.484-3.056c-0.047-1.711,0.537-3.114,1.307-3.137C433.775,193.095,434.439,194.464,434.492,196.175z"
			/>
		<g>
			<path fill="#A1856E" d="M470.641,230.042c-12.807-7.149-26.033-11.808-39.183-14.812c-3.351,4.412-7.19,6.771-10.026,6.791
				h-0.086c-3.594,0-11.043-1.622-16.842-6.092c-0.67-0.518-1.339-1.11-2-1.758c-19.046,2.576-28.377,6.068-43.238,16.121l3.166,8
				c15.334-10,27.771-8.75,27.771-8.75s-4.312,21.604-6.977,36.963c1.711,12.341,57.102,9.764,57.471,2.855
				c-1.434-17.586-7.67-39.318-7.67-39.318s15.324,1.316,34.066,8.031L470.641,230.042z"/>
		</g>
	</g>
</g>
<g>
	<g>
		<g>
			<g>
				<g>
					<path fill="#7A574A" d="M327.428,338.755c1.524,0.256,5.041,0.742,6.321-0.029c2.755-1.666-1.644-3.645-3.881-4.366
						C324.129,332.502,320.626,337.614,327.428,338.755z"/>
					<path fill="#7A574A" d="M373.724,335.013c1.538,0.157,5.079,0.43,6.306-0.424c2.649-1.83-1.865-3.531-4.144-4.115
						C370.045,328.976,366.863,334.294,373.724,335.013z"/>
				</g>
				<g>
					<g>
						<path fill="#7A574A" d="M348.961,286.581c-10.586,0-22.813-1.671-27.825-6.098c-3.613,18.703,1.354,42.506,3.16,52.355
							l5.537-0.125c4.778-15.303,16.089-32.251,23.677-36.722c8.828,6.981,12.639,16.595,17.326,32.958l6.067-0.229
							c2.919-15.883,5.21-34.557,2.013-49.104C374.293,284.397,361.463,286.581,348.961,286.581z"/>
					</g>
				</g>
				<g>
					<g>
						<path fill="#7A574A" d="M378.369,201.116l-4.072,5.584c7.699,12.81-2.324,14.928-10.276,18.088
							c-0.362-0.294-0.767-0.578-1.189-0.855c-1.651,1.383-3.266,2.183-4.611,2.346c-0.54,0.066-1.144,0.1-1.793,0.1
							c-4.272,0-10.546-1.42-16.399-4.516c-5.095,2.416-9.58,6.832-11.951,12.987c-3.744,9.72-5.52,26.015-8.228,41.619
							c1.74,12.537,58.474,11.897,59.842-0.44c-1.456-17.866-10.142-36.854-10.142-36.854
							C379.55,234.722,401.701,218.622,378.369,201.116z"/>
					</g>
					<path fill="#7A574A" d="M371.749,206.031c-0.265,1.574-0.604,3.065-1.011,4.466l0.434,0.471l1.961-4.07l1.305,1.418
						c0,0,0.133-1.627,0.188-4.104C373.9,205.206,372.932,206.01,371.749,206.031z"/>
				</g>
			</g>
		</g>
	</g>
	<path fill="#7A574A" d="M350.424,195.434c-1.379,0.12-2.436,1.582-2.803,2.819c-0.204,0.686-0.519,1.373-0.668,2.07
		c-0.226,1.051-0.191,2.188-0.012,3.242c0.542,3.175,4.04,3.082,6.571,2.343c3.905-1.144,9.004-6.402,7.011-10.702
		c-1.251-2.699-3.232-1.562-5.074-0.139c-0.518,0.4-2.869,2.859-3.475,1.468c-0.234-0.54-0.304-0.942-0.955-1.069
		C350.815,195.427,350.617,195.417,350.424,195.434z"/>
	<g>
		<path fill="#7A574A" d="M375.182,198.015c-0.217-1.003-0.611-1.684-1.279-2.207c-0.178-0.139-0.417-0.148-0.793-0.153
			c-0.289-0.003-0.617-0.007-0.94-0.116c-0.48-0.16-0.804-0.434-1.087-0.674c-0.154-0.131-0.312-0.266-0.506-0.387
			c-0.525-0.326-1.038-0.491-1.523-0.491c-0.932,0-1.595,0.603-1.986,1.107c-0.943,1.214-1.328,3.128-0.938,4.653
			c0.184,0.716,0.805,1.299,1.404,1.861c0.264,0.247,0.521,0.49,0.742,0.737c0.132,0.147,0.271,0.311,0.418,0.481
			c0.779,0.911,1.748,2.044,2.779,2.191c1.652,0.246,3.014-2.15,3.516-3.73C375.324,200.229,375.396,199.005,375.182,198.015z"/>
		<g>
			<path fill="#7A574A" d="M367.934,203.478c-0.142-0.165-0.276-0.322-0.404-0.465c-0.203-0.229-0.439-0.449-0.68-0.675
				c-0.672-0.63-1.434-1.345-1.689-2.342c-0.47-1.835-0.021-4.051,1.116-5.516c1.149-1.481,2.836-1.866,4.474-1.035
				c-1.076-4.694-3.446-9.445-5.834-12.77c-1.928-0.255-3.734-0.384-5.379-0.384c-1.882,0-3.569,0.17-5.016,0.505
				c-5.188,1.201-8.756,7.388-9.693,9.673c-0.094,0.226-0.207,0.477-0.334,0.759c-0.789,1.749-2.109,4.675-2.81,10.966
				c-0.018,0.158-0.033,0.35-0.05,0.52c0.826-0.171,1.671-0.32,2.544-0.432l0.45-0.057l1.62,7.221l-0.372,0.168
				c-1.855,0.836-3.428,1.867-4.715,3.036c-0.037,1.796-0.062,3.745-0.076,5.882c-0.004,0.657-0.004,0.657-0.014,0.734l-0.138,1.039
				l-1.032-0.187c-0.711-0.128-1.589-0.592-2.402-1.11c-0.01,0.059-0.018,0.117-0.027,0.177c7.613,5.034,16.422,6.61,20.627,6.101
				c3.299-0.401,8.679-5.326,11.48-14.423l0.041-0.104l0.156-0.541c0.409-1.406,0.713-2.873,0.963-4.367
				C369.612,205.433,368.692,204.365,367.934,203.478z M361.265,200.294c-1.33,2.931-4.472,5.695-7.472,6.574
				c-0.729,0.213-1.848,0.467-3.034,0.467c-2.661,0-4.413-1.312-4.804-3.602c-0.219-1.287-0.212-2.539,0.021-3.621
				c0.104-0.488,0.27-0.945,0.429-1.388c0.092-0.253,0.184-0.505,0.258-0.755c0.472-1.589,1.822-3.371,3.676-3.532
				c0.088-0.008,0.178-0.012,0.268-0.012c0.199,0,0.401,0.02,0.605,0.059c1.051,0.206,1.374,0.905,1.577,1.401
				c0.274-0.132,0.765-0.471,1.64-1.256c0.176-0.157,0.318-0.283,0.41-0.354c1.146-0.886,2.386-1.706,3.672-1.706
				c0.863,0,2.072,0.385,2.921,2.217C362.202,196.45,362.145,198.354,361.265,200.294z"/>
		</g>
	</g>
	<g>
		<path fill="#7A574A" d="M340.088,229.829c-3.088-3.648-4.331-7.742-3.488-11.546c0.865-3.897,3.875-7.227,8.496-9.409
			l-1.242-5.539c-10.506,1.464-15.104,6.929-17.11,11.289c-2.845,6.181-2.158,14.012,1.751,19.951l-0.418,0.274L340.088,229.829z"/>
		<g>
			<path fill="#7A574A" d="M337.736,217.968c0.805,0.539,1.701,1.051,2.345,1.168c0.007-0.051,0.006-2.395,0.06-5.461
				C338.982,214.974,338.172,216.421,337.736,217.968z"/>
			<path fill="#7A574A" d="M371.466,183.327c-2.471-4.465-5.312-8.411-11.402-10.341c-6.9-2.187-12.608-2.683-18.497-1.697
				c-5.321,0.892-9,3.245-12.493,6.543c-4.205,3.971-8.773,12.017-8.061,21.907c0.756,10.412-0.826,21.977-0.826,21.977l4.063-2.121
				c0.28-1.869,0.803-3.689,1.585-5.389c2.601-5.65,7.782-9.564,14.77-11.263c0.027-0.298,0.056-0.588,0.086-0.86
				c0.829-7.447,2.545-10.38,3.213-11.995c1.159-2.823,4.927-8.999,10.393-10.265c3.426-0.795,7.53-0.593,11.178-0.08
				c2.837,3.831,5.466,9.34,6.457,14.519c0.172,0.138,0.341,0.257,0.556,0.329c0.175,0.059,0.398,0.061,0.635,0.063
				c0.369,0.005,0.814,0.024,1.223,0.264C373.958,190.688,373.133,186.339,371.466,183.327z"/>
		</g>
	</g>
</g>
</svg>
