<?xml version="1.0" encoding="utf-8"?>
<!-- Generator: Adobe Illustrator 15.0.2, SVG Export Plug-In . SVG Version: 6.00 Build 0)  -->
<!DOCTYPE svg PUBLIC "-//W3C//DTD SVG 1.1//EN" "http://www.w3.org/Graphics/SVG/1.1/DTD/svg11.dtd">
<svg version="1.1" id="Layer_1" xmlns="http://www.w3.org/2000/svg" xmlns:xlink="http://www.w3.org/1999/xlink" x="0px" y="0px"
	 width="720px" height="460px" viewBox="0 0 720 460" enable-background="new 0 0 720 460" xml:space="preserve">
<path fill="#BEC27B" d="M289.882,162.786c132.873-13.674,253.976,1.117,333.687,64.176c53.021,41.949,48.424,97.555,5.23,130.764
	c-48.045,36.947-145.549,67.416-283.566,67.416c-133.378,0-234.923-43.99-272.535-86.912
	c-27.039-30.863-17.824-82.65,30.807-115.238C156.437,187.528,209.154,171.083,289.882,162.786z"/>
<path fill="#D8D3C1" d="M318.116,277.058c0.049-0.082,0.094-0.166,0.133-0.252c0.041-0.09,0.074-0.18,0.105-0.273
	c0.031-0.092,0.061-0.184,0.083-0.279c0.021-0.09,0.036-0.182,0.05-0.273c0.015-0.107,0.024-0.215,0.027-0.324
	c0.002-0.043,0.012-0.086,0.012-0.129l-2.994-225.428c0-0.027-0.008-0.055-0.01-0.084c-0.001-0.029,0.005-0.057,0.003-0.086
	c-0.005-0.072-0.026-0.141-0.036-0.211c-0.015-0.104-0.027-0.205-0.053-0.305c-0.023-0.096-0.057-0.186-0.09-0.277
	c-0.032-0.092-0.062-0.182-0.104-0.268c-0.047-0.1-0.102-0.189-0.156-0.281c-0.042-0.07-0.082-0.139-0.129-0.203
	c-0.072-0.102-0.154-0.193-0.238-0.285c-0.041-0.045-0.082-0.09-0.126-0.133c-0.103-0.098-0.212-0.184-0.326-0.266
	c-0.037-0.027-0.072-0.055-0.11-0.08c-0.127-0.082-0.26-0.15-0.398-0.213c-0.037-0.016-0.07-0.033-0.107-0.049
	c-0.138-0.055-0.28-0.098-0.427-0.131c-0.05-0.012-0.099-0.025-0.149-0.035c-0.125-0.021-0.253-0.031-0.383-0.037
	c-0.054-0.004-0.104-0.016-0.158-0.016c-0.014,0-0.027,0-0.041,0c-0.031,0-0.061,0.008-0.091,0.01
	c-0.028,0.002-0.054-0.004-0.082-0.002L69.989,64.345c-0.077,0.006-0.148,0.027-0.223,0.039c-0.103,0.016-0.206,0.027-0.305,0.053
	c-0.095,0.023-0.184,0.059-0.274,0.092c-0.094,0.033-0.188,0.064-0.277,0.107c-0.088,0.043-0.169,0.094-0.252,0.145
	c-0.083,0.049-0.165,0.098-0.242,0.154c-0.078,0.059-0.147,0.123-0.219,0.189c-0.071,0.062-0.143,0.125-0.207,0.195
	c-0.065,0.072-0.12,0.148-0.178,0.227c-0.058,0.076-0.117,0.15-0.166,0.232c-0.051,0.084-0.091,0.172-0.133,0.26
	c-0.042,0.086-0.085,0.17-0.119,0.26c-0.035,0.094-0.058,0.191-0.083,0.289c-0.024,0.094-0.05,0.184-0.065,0.279
	c-0.016,0.102-0.019,0.205-0.024,0.311c-0.005,0.074-0.02,0.148-0.018,0.225l7.284,340.773c0.035,1.635,1.371,2.936,2.998,2.936
	c0.022,0,0.044,0,0.065-0.002c0.337-0.008,0.655-0.082,0.955-0.191c0.322,0.113,0.654,0.193,0.998,0.193
	c0.497,0,1.001-0.123,1.466-0.385l236.027-132.543c0.041-0.023,0.072-0.055,0.111-0.078c0.09-0.057,0.176-0.117,0.26-0.184
	c0.074-0.059,0.146-0.117,0.215-0.182c0.07-0.066,0.136-0.137,0.199-0.211c0.064-0.074,0.127-0.148,0.184-0.227
	C318.019,277.224,318.068,277.142,318.116,277.058z M73.525,70.108l5.987,11.545l-5.992,0.523l-0.258-12.049L73.525,70.108z
	 M214.229,312.257l-0.204-17.434l11.871-5.787l-7.493,21.047L214.229,312.257z M217.91,311.468l-3.573,10.035l-0.095-8.125
	L217.91,311.468z M74.039,106.458l17.256-2.086l10.444,20.137l-27.225,4.197L74.039,106.458z M145.113,201.63l-9.135-17.615
	l24.807-6.307l-8.002,21.717L145.113,201.63z M152.362,200.565l-3.24,8.793l-3.548-6.84L152.362,200.565z M75.032,152.919
	l37.768-7.082l9.784,18.865l-47.078,10.396L75.032,152.919z M75.527,176.101l47.525-10.494l9.475,18.271L76,198.245L75.527,176.101z
	 M126.084,164.937l42.897-9.473l-7.785,21.127l-25.683,6.527L126.084,164.937z M172.462,154.694l33.832-7.471l0.209,17.852
	l-41.779,10.619L172.462,154.694z M310.503,123.204l-24.299,5.367l5.816-16.338l18.292-3.43L310.503,123.204z M282.748,129.333
	l-33.83,7.471l-7.429-15.096l47.118-8.836L282.748,129.333z M245.902,137.47l-33.635,7.428l-0.207-17.672l26.369-4.943
	L245.902,137.47z M206.282,146.22l-33.416,7.379l7.53-20.436l25.677-4.814L206.282,146.22z M212.279,145.901l34.071-7.523
	l7.247,14.729l-41.11,10.447L212.279,145.901z M249.365,137.712l32.994-7.285l-6.016,16.896l-19.775,5.027L249.365,137.712z
	 M285.815,129.663l24.702-5.455l0.191,14.381l-30.864,7.846L285.815,129.663z M310.722,139.601l0.189,14.361l-37.594,10.809
	l6.131-17.223L310.722,139.601z M311.319,184.663l-33.085,11.717l-6.58-13.371l39.476-12.664L311.319,184.663z M311.333,185.698
	l0.189,14.293l-26.465,10.256l-6.387-12.98L311.333,185.698z M310.298,107.802l-17.896,3.355l5.666-15.914l12.038-1.855
	L310.298,107.802z M288.991,111.798l-47.953,8.99l-7.663-15.572l61.324-9.453L288.991,111.798z M237.977,121.362l-25.929,4.861
	l-0.207-17.688l18.427-2.84L237.977,121.362z M206.061,127.347l-25.268,4.738l7.33-19.893l17.728-2.732L206.061,127.347z
	 M177.359,132.729l-61.954,11.615l-10.057-19.391l79.385-12.238L177.359,132.729z M176.961,133.808l-7.576,20.561l-43.77,9.664
	l-9.736-18.771L176.961,133.808z M76.022,199.253l56.97-14.48l9.18,17.703l-65.678,18.881L76.022,199.253z M164.312,176.812
	l42.203-10.727l0.209,17.832l-50.365,14.479L164.312,176.812z M212.498,164.565l41.542-10.559l7.029,14.285l-48.365,13.904
	L212.498,164.565z M257.011,153.251l18.936-4.812l-6.177,17.352l-5.771,1.66L257.011,153.251z M269.365,166.927l-2.36,6.633
	l-2.566-5.215L269.365,166.927z M272.912,165.907l38.013-10.928l0.191,14.34l-39.899,12.801l-2.365-4.807L272.912,165.907z
	 M268.33,183.048l-1.715,0.549l0.834-2.342L268.33,183.048z M268.767,183.937l6.62,13.451l-15.656,5.545l6.47-18.174
	L268.767,183.937z M275.823,198.274l6.426,13.061l-29.591,11.467l6.648-18.678L275.823,198.274z M282.685,212.22l6.24,12.682
	l-43.536,18.32l6.834-19.197L282.685,212.22z M285.493,211.132l26.044-10.092l0.189,14.266l-20.032,8.43L285.493,211.132z
	 M311.741,216.368l0.188,14.236l-13.777,6.256l-6.022-12.238L311.741,216.368z M309.901,77.956l0.192,14.432l-11.648,1.795
	l5.52-15.508L309.901,77.956z M304.339,77.628l5.359-15.053l0.191,14.383L304.339,77.628z M295.077,94.702l-62.16,9.584
	l-7.908-16.072l75.63-9.137L295.077,94.702z M229.81,104.765l-17.98,2.771l-0.207-17.703l10.231-1.236L229.81,104.765z
	 M205.839,108.46l-17.325,2.672l7.137-19.369l9.979-1.207L205.839,108.46z M185.125,111.653l-80.257,12.373l-10.393-20.039
	l97.83-11.82L185.125,111.653z M74.536,129.704l27.684-4.268l10.106,19.486l-37.315,6.996L74.536,129.704z M76.517,222.372
	l66.117-19.01l5.085,9.807l-3.583,9.725l-67.147,21.543L76.517,222.372z M149.588,216.772l1.943,3.748l-3.77,1.209L149.588,216.772z
	 M150.992,212.964l4.947-13.426l50.796-14.605l0.209,17.809l-52.517,16.85L150.992,212.964z M212.716,183.214l48.793-14.027
	l4.092,8.314l-2.581,7.25l-50.098,16.072L212.716,183.214z M262.606,185.913l-6.519,18.311l-42.946,15.211l-0.206-17.586
	L262.606,185.913z M255.664,205.415l-6.699,18.818l-35.605,13.797l-0.207-17.559L255.664,205.415z M248.529,225.456l-6.886,19.342
	l-28.066,11.812l-0.206-17.531L248.529,225.456z M241.196,246.056l-7.08,19.889l-20.321,9.23l-0.205-17.5L241.196,246.056z
	 M244.941,244.479l44.42-18.693l6.06,12.316l-57.506,26.117L244.941,244.479z M295.858,238.991l5.886,11.963l-71.52,34.865
	l7.228-20.303L295.858,238.991z M298.59,237.749l13.353-6.064l0.19,14.24c-0.051,0.006-0.102,0.014-0.15,0.037l-7.543,3.678
	L298.59,237.749z M301.012,78.03l-76.467,9.24l-8.164-16.59l90.052-7.881L301.012,78.03z M221.389,87.651l-9.778,1.182
	l-0.208-17.717l1.773-0.156L221.389,87.651z M211.391,70.112l-0.033-2.846l1.345,2.732L211.391,70.112z M205.397,70.638
	l-2.027,0.178l1.966-5.336L205.397,70.638z M205.409,71.64l0.21,17.918l-9.581,1.156l6.95-18.861L205.409,71.64z M192.691,91.118
	l-98.704,11.928L83.243,82.329l116.441-10.188L192.691,91.118z M90.807,103.431l-16.789,2.029l-0.476-22.281l6.469-0.566
	L90.807,103.431z M77.01,245.458l66.695-21.398l-8.462,22.963l-57.763,20.459L77.01,245.458z M147.332,222.896l4.657-1.494
	l8.627,16.637l-21.694,7.684L147.332,222.896z M154.886,220.472l52.071-16.705l0.208,17.785l-43.694,15.475L154.886,220.472z
	 M207.177,222.587l0.208,17.758l-35.133,13.613l-8.326-16.053L207.177,222.587z M207.397,241.394l0.208,17.73l-26.821,11.287
	l-8.077-15.574L207.397,241.394z M207.618,260.187l0.208,17.699l-18.749,8.514l-7.837-15.111L207.618,260.187z M207.837,278.966
	l0.207,17.666l-10.904,5.316l-7.608-14.668L207.837,278.966z M213.807,276.255l19.847-9.014l-7.282,20.457l-12.36,6.025
	L213.807,276.255z M229.748,287.157l72.436-35.311l5.719,11.623l-85.591,44.578L229.748,287.157z M304.88,250.532l7.268-3.543
	l0.189,14.328c-0.117-0.035-0.248-0.027-0.367,0.033l-1.406,0.732L304.88,250.532z M312.351,262.28l0.047,3.529l-1.393-2.83
	L312.351,262.28z M309.583,53.952l-2.781,7.812l-90.894,7.953l-4.619-9.385l98.287-6.977L309.583,53.952z M200.066,71.104
	L82.745,81.37l-5.96-11.492L203.84,60.86L200.066,71.104z M77.503,268.513l57.3-20.293l-8.705,23.623l-48.125,18.648L77.503,268.513
	z M138.48,246.917l22.592-8l8.367,16.133l-39.61,15.348L138.48,246.917z M169.894,255.927l8.116,15.65l-57.539,24.215l8.904-24.164
	L169.894,255.927z M178.466,272.456l7.876,15.186l-75.503,34.291l9.166-24.875L178.466,272.456z M186.797,288.522l7.646,14.74
	l-93.525,45.594l9.44-25.619L186.797,288.522z M194.901,304.146l7.423,14.312L90.696,376.597l9.725-26.393L194.901,304.146z
	 M197.598,302.831l10.459-5.1l0.207,17.633l-3.28,1.709L197.598,302.831z M208.277,316.485l0.083,7.098l-2.917-5.623
	L208.277,316.485z M221.818,309.433l86.526-45.066l4.145,8.424l0.014,1.033l-97.499,54.752L221.818,309.433z M77.995,291.538
	l47.65-18.465l-8.958,24.311L78.463,313.47L77.995,291.538z M78.486,314.53l37.734-15.879l-9.222,25.025l-28.044,12.738
	L78.486,314.53z M78.977,337.489l27.541-12.508l-9.498,25.775l-17.577,8.568L78.977,337.489z M79.467,360.419l17.056-8.314
	l-9.784,26.555l-6.806,3.545L79.467,360.419z M86.225,380.054l-5.991,16.258l-0.278-12.994L86.225,380.054z M80.575,404.065
	l9.607-26.072l112.602-58.646l5.655,10.902l0.023,2L80.575,404.065z"/>
<g>
	<path fill="#D8D3C1" d="M404.2,54.294c-0.258,0-0.477-0.197-0.498-0.459c-0.022-0.275,0.182-0.516,0.457-0.539l73-6
		c0.285-0.02,0.518,0.184,0.54,0.457c0.022,0.275-0.183,0.518-0.458,0.539l-73,6C404.228,54.294,404.214,54.294,404.2,54.294z"/>
	<path fill="#D8D3C1" d="M404.2,66.524c-0.252,0-0.467-0.189-0.494-0.444c-0.029-0.273,0.166-0.519,0.438-0.549l73.077-8.385
		c0.282-0.028,0.521,0.167,0.551,0.439c0.03,0.273-0.167,0.52-0.44,0.549l-73.076,8.385C404.237,66.523,404.219,66.524,404.2,66.524
		z"/>
	<path fill="#D8D3C1" d="M404.2,78.755c-0.246,0-0.457-0.183-0.49-0.43c-0.036-0.272,0.15-0.521,0.421-0.56l73.154-10.769
		c0.279-0.036,0.521,0.151,0.56,0.421c0.038,0.271-0.15,0.522-0.422,0.559l-73.153,10.77
		C404.246,78.753,404.224,78.755,404.2,78.755z"/>
	<path fill="#D8D3C1" d="M404.2,90.986c-0.24,0-0.447-0.175-0.486-0.417c-0.044-0.27,0.135-0.522,0.403-0.569l73.23-13.154
		c0.276-0.044,0.524,0.136,0.57,0.403c0.046,0.269-0.135,0.524-0.403,0.569l-73.23,13.154
		C404.256,90.982,404.229,90.986,404.2,90.986z"/>
	<path fill="#D8D3C1" d="M404.2,103.217c-0.235,0-0.438-0.168-0.482-0.402c-0.051-0.267,0.118-0.525,0.386-0.58l73.308-15.538
		c0.272-0.052,0.525,0.12,0.579,0.386c0.054,0.266-0.119,0.526-0.385,0.579l-73.308,15.538
		C404.266,103.212,404.232,103.217,404.2,103.217z"/>
	<path fill="#D8D3C1" d="M404.201,115.448c-0.23,0-0.43-0.161-0.479-0.388c-0.059-0.266,0.103-0.528,0.367-0.591l73.386-17.922
		c0.27-0.06,0.528,0.104,0.589,0.368c0.062,0.264-0.103,0.528-0.367,0.589l-73.384,17.923
		C404.275,115.441,404.238,115.448,404.201,115.448z"/>
	<path fill="#D8D3C1" d="M404.201,127.679c-0.224,0-0.421-0.154-0.476-0.374c-0.065-0.264,0.087-0.53,0.35-0.601l73.462-20.308
		c0.267-0.068,0.531,0.088,0.6,0.35c0.069,0.262-0.088,0.531-0.35,0.6l-73.461,20.308
		C404.285,127.671,404.242,127.679,404.201,127.679z"/>
	<path fill="#D8D3C1" d="M404.201,139.909c-0.218,0-0.411-0.146-0.472-0.36c-0.074-0.261,0.071-0.532,0.331-0.61l73.539-22.692
		c0.265-0.076,0.533,0.072,0.61,0.332s-0.071,0.533-0.331,0.609L404.34,139.88C404.295,139.901,404.248,139.909,404.201,139.909z"/>
	<path fill="#D8D3C1" d="M404.201,152.14c-0.213,0-0.402-0.139-0.468-0.346c-0.082-0.259,0.056-0.535,0.313-0.621l73.615-25.076
		c0.262-0.085,0.535,0.056,0.62,0.313c0.085,0.258-0.056,0.536-0.312,0.62l-73.615,25.077
		C404.305,152.131,404.252,152.14,404.201,152.14z"/>
	<path fill="#D8D3C1" d="M404.201,164.371c-0.207,0-0.395-0.132-0.464-0.332c-0.09-0.258,0.04-0.537,0.296-0.631l73.692-27.461
		c0.259-0.092,0.537,0.041,0.63,0.296c0.093,0.256-0.04,0.538-0.295,0.63l-73.692,27.462
		C404.314,164.36,404.257,164.371,404.201,164.371z"/>
	<path fill="#D8D3C1" d="M404.201,176.602c-0.201,0-0.386-0.124-0.46-0.317c-0.098-0.256,0.023-0.54,0.278-0.642l73.77-29.846
		c0.255-0.101,0.54,0.024,0.64,0.278c0.101,0.253-0.024,0.54-0.277,0.64l-73.769,29.846
		C404.324,176.59,404.262,176.602,404.201,176.602z"/>
	<path fill="#D8D3C1" d="M404.201,188.833c-0.195,0-0.378-0.117-0.456-0.304c-0.105-0.252,0.008-0.542,0.261-0.651l73.846-32.23
		c0.252-0.109,0.541,0.009,0.649,0.26c0.107,0.251-0.008,0.542-0.258,0.65l-73.847,32.23
		C404.333,188.819,404.267,188.833,404.201,188.833z"/>
	<path fill="#D8D3C1" d="M404.201,201.063c-0.189,0-0.369-0.109-0.452-0.29c-0.115-0.25-0.008-0.545,0.242-0.661l73.923-34.616
		c0.249-0.117,0.544-0.007,0.66,0.243c0.115,0.249,0.008,0.544-0.24,0.66l-73.923,34.616
		C404.343,201.049,404.271,201.063,404.201,201.063z"/>
	<path fill="#D8D3C1" d="M404.201,213.294c-0.184,0-0.36-0.102-0.448-0.275c-0.123-0.248-0.023-0.547,0.225-0.672l74-37
		c0.246-0.125,0.547-0.023,0.67,0.225c0.124,0.246,0.023,0.547-0.223,0.67l-74,37C404.353,213.278,404.276,213.294,404.201,213.294z
		"/>
</g>
<path fill="#D8D3C1" d="M481.167,49.864l0.008-12.004c0.002-1.656-1.34-3-2.997-3.002c-0.001,0-0.001,0-0.003,0
	c-0.699,0-1.334,0.25-1.844,0.65l-72.501,5.145l-3.081-0.367v3.379v182.357v2.158l120.524,40.439l1.994-213.74L481.167,49.864z
	 M515.383,256.835l-3.479-6.746l3.533,1.078L515.383,256.835z M475.163,55.192l-0.008,9.012l-5.1-0.783l3.216-8.453L475.163,55.192z
	 M475.114,120.171l-6.473,9.361l-20.225-4.289l-1.084-2.09l3.586-9.428l24.195,4.85V120.171z M459.46,154.95l7.182,13.926
	l-18.41-4.549l7.146-10.336L459.46,154.95z M455.987,153.11l1.445-2.09l1.426,2.764L455.987,153.11z M441.46,111.831l6.477,1.297
	l-2.455,6.455L441.46,111.831z M451.183,138.901l-9.07-2.027l3.406-8.953L451.183,138.901z M451.778,140.058l4.096,7.941
	l-3.023,4.371l-15.267-3.592l4.171-10.963L451.778,140.058z M452.241,153.251l-7.126,10.307l-12.024-2.971l4.135-10.869
	L452.241,153.251z M444.509,164.437l-7.025,10.16l-8.85-2.291l4.1-10.779L444.509,164.437z M447.624,165.206l19.625,4.848
	l6.747,13.082l-1.104,0.619l-32.313-8.359L447.624,165.206z M456.667,141.151l3.412,0.764l-1.723,2.494L456.667,141.151z
	 M456.067,139.995l-7.057-13.605l19.016,4.031l-7.334,10.609L456.067,139.995z M451.278,112.78l4.277-11.244l19.569,3.693
	l-0.009,12.328L451.278,112.78z M448.296,112.183l-7.424-1.488l-6.859-13.225l18.549,3.5L448.296,112.183z M428.778,95.466
	l-22.029-4.158V79.776l15.339,2.717L428.778,95.466z M421.513,81.376l-14.764-2.613V67.233l8.164,1.35L421.513,81.376z
	 M406.749,66.22V54.692l1.086,0.166l6.508,12.619L406.749,66.22z M429.358,96.591l6.785,13.156l-29.395-5.893V92.321L429.358,96.591
	z M436.729,110.882l6.881,13.342l-36.861-7.816v-11.533L436.729,110.882z M443.349,125.188l-4.193,11.023l-32.406-7.25v-11.535
	L443.349,125.188z M438.796,137.153l-4.158,10.932l-27.889-6.564v-11.537L438.796,137.153z M434.28,149.024l-4.123,10.838
	l-23.408-5.781v-11.537L434.28,149.024z M429.8,160.802l-4.088,10.748l-18.963-4.904v-11.537L429.8,160.802z M425.354,172.489
	l-4.055,10.658l-14.551-3.934v-11.537L425.354,172.489z M420.942,184.085l-4.02,10.568l-10.174-2.869v-11.537L420.942,184.085z
	 M406.749,192.821l9.816,2.768l-3.986,10.48l-5.83-1.711V192.821z M419.464,196.407l2.459,0.693l-6.052,8.752L419.464,196.407z
	 M419.821,195.47l4.031-10.598l5.498,1.486l-6.827,9.873L419.821,195.47z M424.21,183.935l4.066-10.689l8.602,2.225l-6.924,10.018
	L424.21,183.935z M439.974,176.271l31.662,8.191l-14.778,8.297l-23.831-6.441L439.974,176.271z M476.749,188.472l5.792,11.23
	l-17.411-4.705L476.749,188.472z M475.071,176.642l-2.769-5.34l2.772,0.686L475.071,176.642z M471.691,170.124l-7.262-14.004
	l10.655,2.508l-0.01,12.332L471.691,170.124z M463.825,154.954l-3.906-7.531l3.32-4.801l11.855,2.652l-0.009,12.33L463.825,154.954z
	 M463.851,141.737l7.357-10.641l3.896,0.826l-0.009,12.328L463.851,141.737z M471.823,130.206l3.286-4.752l-0.003,5.449
	L471.823,130.206z M481.124,106.362l3.129,0.592l-3.133,4.531L481.124,106.362z M481.125,105.347l0.009-12.396l11.404,2.021
	l-7.664,11.082L481.125,105.347z M475.126,104.214l-19.209-3.625l4.312-11.34l14.906,2.639L475.126,104.214z M452.922,100.022
	l-19.493-3.68l-6.762-13.039l30.557,5.412L452.922,100.022z M407.269,53.761l-0.52-0.08v-0.928L407.269,53.761z M406.749,219.046
	v-1.064l0.609,0.186L406.749,219.046z M407.954,217.302l-1.205-0.367v-11.535l5.474,1.607l-3.487,9.166L407.954,217.302z
	 M424.976,197.962l15.057,4.246l-13.943,7.83l-7.865-2.311L424.976,197.962z M425.576,197.093l6.849-9.904l23.189,6.27
	l-14.352,8.059L425.576,197.093z M463.888,195.694l19.273,5.211l7.5,14.543l-41.24-11.631L463.888,195.694z M487.083,201.966
	l28.74,7.77l-0.12,12.773l-21.093-5.947L487.083,201.966z M486.464,200.763l-7.098-13.76l0.168-0.096
	c0.035-0.02,0.062-0.047,0.098-0.068c0.089-0.055,0.173-0.115,0.256-0.18c0.021-0.016,0.045-0.029,0.066-0.047l35.997,9.312
	l-0.119,12.777L486.464,200.763z M480.667,185.767c0.04-0.072,0.08-0.143,0.115-0.219c0.039-0.086,0.071-0.178,0.104-0.268
	c0.033-0.094,0.064-0.186,0.087-0.281c0.022-0.088,0.036-0.18,0.05-0.271c0.016-0.107,0.027-0.213,0.031-0.322
	c0.002-0.037,0.012-0.074,0.012-0.111l0.008-10.824l35.007,8.646l-0.119,12.781L480.667,185.767z M481.075,172.44l0.009-12.4
	l35.125,8.268l-0.12,12.783L481.075,172.44z M481.085,159.017l0.01-12.4l35.243,7.885l-0.12,12.785L481.085,159.017z
	 M481.095,145.595l0.01-12.4l35.362,7.5l-0.12,12.787L481.095,145.595z M481.104,132.175l0.01-12.398l35.48,7.111l-0.119,12.787
	L481.104,132.175z M481.114,118.759l0.002-1.992l6.363-9.205l29.244,5.521l-0.119,12.789L481.114,118.759z M488.102,106.663
	l7.687-11.117l21.064,3.732l-0.119,12.791L488.102,106.663z M516.862,98.265l-20.449-3.621l7.801-11.283l12.768,2.113
	L516.862,98.265z M493.163,94.067l-12.028-2.131l0.009-12.393l19.797,3.275L493.163,94.067z M475.136,90.874l-14.545-2.576
	l4.352-11.436l10.203,1.688L475.136,90.874z M457.585,87.767l-31.497-5.58l-6.669-12.857l42.504,7.033L457.585,87.767z
	 M418.845,68.222l-6.575-12.68l54.392,8.367l-4.376,11.502L418.845,68.222z M411.146,218.276l0.264-0.693l6.215-8.99l7.246,2.129
	l-13.549,7.609L411.146,218.276z M432.917,213.085l66.615,19.562l7.725,14.977l-87.998-26.869L432.917,213.085z M434.136,212.401
	l14.055-7.893l43.098,12.154l7.611,14.758L434.136,212.401z M495.237,217.776l20.456,5.77l-0.118,12.771l-12.697-3.729
	L495.237,217.776z M517.12,70.661l-3.729-0.574l3.785-5.475L517.12,70.661z M517.11,71.671l-0.119,12.793l-12.149-2.012
	l7.917-11.451L517.11,71.671z M501.567,81.911l-20.422-3.381l0.009-12.391l28.308,4.354L501.567,81.911z M475.146,77.538
	l-9.842-1.629l4.389-11.533l5.463,0.84L475.146,77.538z M467.024,62.954l-55.325-8.512l-3.763-7.256l62.265,7.416L467.024,62.954z
	 M418.053,221.433l89.845,27.434l5.574,10.807l-102.358-34.344L418.053,221.433z M511.263,248.847l-7.752-15.031l12.055,3.539
	l-0.119,12.77L511.263,248.847z M516.628,60.132l-6.533,9.447l-28.939-4.451l0.006-9.221L516.628,60.132z M475.145,41.606
	l-2.744,7.215l-36.927-4.398L475.145,41.606z"/>
<g>
	<g>
		<path fill="#EDEDED" d="M384.708,206.468c3.066,3.633,11.189,7.693,16.934,9.973c5.262,2.088,10.826,0.854,14.311-3.17
			c2.516-2.908-4.441-12.609-4.6-14.545c-0.215-2.666,0.885-6.754-1.49-10.316c4.082-0.754,5.15-4.854,6.637-6.648
			c-4.391-4.316-13.57-2.266-15.551-0.086c-2.391-0.928-10.238-0.387-13.514,1.873c-4.5-4.09-12.445,0.936-15.616,5.424
			c1.296,0.725,4.862,3.201,8.878,5.131C380.726,197.899,382.095,203.37,384.708,206.468z"/>
		<g>
			<path fill="#EDEDED" d="M457.903,260.644c-1.363-1.529-3.275-3.004-3.578-5.082c-0.225-1.531,0.771-2.975,1.254-4.41
				c0.727-2.16,1.25-5.307,1.35-7.588c0.087-2.014,0.064-4.117-0.256-6.375c-0.919-0.643-1.926-1.252-3.053-1.818
				c-0.258-0.129-0.664-0.102-1.059-0.055c-0.227,0.027-0.453,0.053-0.678,0.053c-0.384,0-0.955-0.062-1.484-0.598
				c-0.965-0.979-0.637-2.158-0.328-2.646c0.674-1.463,2.055-2.51,3.912-3.053c-2.309-3.588-6.477-7.043-10.047-8.471
				c-5.943-2.377-17.057-2.896-22.781-3.369c-2.459-0.201-4.527-0.699-6.356-1.508c-2.273,1.762-5.052,2.717-8.051,2.717
				c-1.841,0-3.683-0.359-5.475-1.07c-4.554-1.807-10.329-4.607-14.241-7.49c-0.59,0.67-1.078,1.373-1.422,2.105
				c-1.854,3.949-3.693,9.24-3.596,15.848c0.096,6.512,1.643,10.943,4.582,14.273c0.654,2.48,5.223,19.01,4.189,20.221
				c-0.998,0-3.033,1.021-3.273,2.471c-0.545,3.299,3.934,4.449,6.531,3.859c4.426-1.01,4.771-3.848,4.258-8.727
				c-0.42-3.979-0.977-7.186-1.396-8.932c1.926,1.752,8.402,4.07,18.182,3.615c4.904-0.229,12.199-4.537,15.576,1.844
				c-1.381,1.945-3.773,4.346-3.469,7.453c0.217,2.217,0.828,4.896-0.414,6.934c-0.832,1.361-5.797,3.324-8.029,4.162
				c-2.088,0.783-3.631,3.35-1.811,5.664c1.092,1.391,5.113,0.789,6.615-0.059c4.137-2.33,10.516-4.986,12.926-8.777
				c1.436-2.26-2.137-3.998-0.715-5.689c1.039-1.236,4.189-3.027,6.436-4.211c0,0,2.127-1.1,5.039-3.211l0.587,0.809
				c-0.981,0.711-1.858,1.285-2.618,1.754c1.436,1.402,5.025,5.004,5.305,6.227c0.297,1.309-2.4,5.449-2.801,7.531
				c-0.984,5.127,5.795,4.164,7.904,0.793c1.111-1.777,2.936-6.432,3.131-9.117C458.931,264.233,459.706,262.669,457.903,260.644z"
				/>
		</g>
	</g>
	<g>
		<path fill="#8E7565" d="M409.862,188.409c4.359-0.99,5.213-4.928,6.637-6.648c-4.391-4.316-13.57-2.266-15.551-0.086
			C405.604,183.356,408.575,185.835,409.862,188.409z"/>
	</g>
	<g>
		<path fill="#8E7565" d="M387.435,183.548c-4.5-4.09-12.445,0.936-15.616,5.424c1.296,0.725,4.862,3.201,8.878,5.131
			C381.601,189.069,384.671,186.263,387.435,183.548z"/>
	</g>
	<g>
		<path fill="#BFA990" d="M397.382,206.14c-1.287,2.18-1.584,6.439,0.016,8.475c1.48,0.684,2.924,1.303,4.244,1.826
			c5.262,2.088,10.826,0.854,14.311-3.17c1.834-2.119-1.365-7.85-3.295-11.547c-0.354-0.68-3.885-1.529-6.756-1.033
			C403.028,201.187,398.929,203.524,397.382,206.14z"/>
	</g>
	<path fill="#AF9474" d="M374.8,188.509c1.75,0.893,4.57,2.805,6.438,3.467c0.506-1.857,3.787-6.076,4.943-7.076
		C386.181,184.899,380.841,181.575,374.8,188.509z"/>
	<path fill="#AF9474" d="M414.114,182.528c-0.398,1.408-2.729,4.152-5.123,4.631c-0.451-0.816-4.438-4.047-6.332-4.711
		C405.341,180.724,411.587,180.001,414.114,182.528z"/>
	<path fill="#8E7565" d="M410.28,214.062c-1.84-2.973,1.84-8.676,5.77-4.953c0.861,0.818,1.045,2.924,0.449,4.209
		c-0.674,1.459-2.48,2.121-3.713,2.121C411.859,215.438,410.78,214.872,410.28,214.062z"/>
	
		<ellipse transform="matrix(-0.9643 0.2647 -0.2647 -0.9643 853.6597 277.4531)" fill="#8E7565" cx="408.135" cy="196.247" rx="1.188" ry="2.406"/>
	<path fill="#8E7565" d="M397.269,197.417c-0.273,1.553,0.125,2.922,0.893,3.057c0.766,0.137,1.609-1.014,1.885-2.564
		c0.273-1.557-0.125-2.926-0.893-3.059C398.388,194.714,397.544,195.862,397.269,197.417z"/>
	<path fill="#EDEDED" d="M473.818,255.04c2.822-12.209-4.322-20.307-8.988-23.166c-2.308-1.414-5.134-2.227-7.752-2.227
		c-3.026,0-5.262,1.078-6.131,2.953c-0.075,0.131-0.468,0.828,0.164,1.467c0.21,0.215,0.435,0.301,0.772,0.301
		c0.185,0,0.373-0.023,0.56-0.045c0.227-0.027,0.453-0.053,0.677-0.053c0.361,0,0.671,0.066,0.948,0.205
		c14.97,7.52,11.739,21.574,9.144,32.867c-0.68,2.953-1.327,5.77-1.545,8.141c0.342-0.346,0.68-0.686,1.018-1.023
		C467.328,269.796,471.339,265.769,473.818,255.04z"/>
</g>
<g>
	<g>
		<g>
			<path fill="#A1856E" d="M585.435,319.474c-1.559,0.326-5.16,0.963-6.508,0.221c-2.902-1.607,1.551-3.816,3.824-4.65
				C588.587,312.907,592.394,318.034,585.435,319.474z"/>
			<path fill="#A1856E" d="M553.235,312.507c-1.576,0.223-5.211,0.641-6.508-0.189c-2.799-1.779,1.781-3.711,4.105-4.398
				C556.79,306.147,560.271,311.499,553.235,312.507z"/>
			<g>
				<g>
					<path fill="#A1856E" d="M594.594,266.165c0.218,0.758,0.269,1.598,0.126,2.512c-0.572,3.66-4.018,7.389-6.83,7.389
						c-0.771,0-2.191-0.283-3.023-2.188c-0.82-1.879,0.26-3.324,1.049-4.379c0.252-0.338,0.497-0.666,0.655-0.961
						c-0.588-0.035-1.071-0.205-1.44-0.51c-0.44-0.363-0.683-0.893-0.683-1.494c0-0.604,0.261-1.246,0.679-1.844
						c-5.854,0.99-11.824,1.117-14.48,1.117c-10.758,0-22.146-1.637-27.449-5.143c0.471,13.875,2.637,28.273,6.666,45.725h6.258
						c3.689-14.559,7.215-21.113,12.73-28.279c6.469,8.361,9.67,19.107,13.752,35.246l5.705-0.088
						c4.592-14.809,8.645-30.645,9.396-45.842C596.87,267.126,595.817,266.71,594.594,266.165z"/>
				</g>
			</g>
			<g>
				<path fill="#A1856E" d="M579.726,188.913c-2.115-1.457-3.771-1.326-5.805-1.723c0.02-5.152-0.488-8.893-2.578-12.086
					c-1.76-2.684-5.783-5.039-9.516-5.855c-2.771-0.602-6.158-0.729-8.523,0.416c-2.791,1.352-3.594,5.262-4.012,9.16
					c-0.939-6.695,2.68-13.428,7.234-17.02c4.412-3.477,18.314-7.105,26.496-0.365c13.262,10.922,4.148,30.459,2.336,33.027
					c-0.709,0.998-4.067,3.52-5.125,4.02C581.397,194.196,581.544,190.165,579.726,188.913z"/>
			</g>
			<path fill="#A1856E" d="M579.269,198.226c1.328-4.896,0.901-7.793-0.109-8.49c-1.418-0.975-2.605-1.141-3.979-1.332
				c-0.463-0.064-0.941-0.131-1.451-0.23l-0.812-0.158l0.003-0.828c0.018-4.682-0.387-8.434-2.414-11.533
				c-1.545-2.357-5.285-4.639-8.893-5.428c-1.291-0.279-2.612-0.428-3.822-0.428c-1.613,0-3.016,0.266-4.053,0.768
				c-2.375,1.15-3.078,4.875-3.453,8.367l-0.451,4.189c0.002,0.127-0.006,0.258-0.004,0.385l0.006,0.26
				c0.008,0.111,0.014,0.217,0.018,0.312c1.074,13.436,8.496,20.408,12.254,20.695c3.049,0.232,9.383-0.758,14.387-4.09
				c0.979-0.652,1.871-1.416,2.705-2.211L579.269,198.226z M554.743,182.847c-0.145,1.469-0.797,2.605-1.461,2.541
				c-0.656-0.066-1.078-1.305-0.936-2.773c0.148-1.469,0.801-2.607,1.461-2.545C554.467,180.136,554.886,181.378,554.743,182.847z
				 M563.825,183.704c-0.141,1.439-0.864,2.545-1.617,2.473c-0.748-0.074-1.246-1.301-1.102-2.738
				c0.139-1.441,0.861-2.547,1.615-2.475C563.472,181.04,563.966,182.265,563.825,183.704z"/>
		</g>
		<g>
			<path fill="#A1856E" d="M598.729,255.378c-0.022-0.578-0.058-1.133-0.087-1.701c-0.121,0.553-0.26,1.107-0.395,1.662
				C598.407,255.353,598.567,255.366,598.729,255.378z"/>
		</g>
		<g>
			<path fill="#A1856E" d="M534.062,259.396c-0.182,0.287-0.408,0.545-0.727,0.746c-1.029,0.652-2.324,0.5-3.152-0.402
				c-2.715-2.957,1.611-10.943,5.303-7.648c0.914,0.814,1.926,3.066,1.9,4.279c-0.029,1.57-1.201,1.814-2.389,1.094
				C534.612,258.108,534.425,258.817,534.062,259.396z"/>
		</g>
		<path fill="#A1856E" d="M589.3,263.438c-3.434,0.08-5.791,4.832-1.641,4.01c0.039,0.115,0.062,0.229,0.076,0.34
			c0.217,1.895-2.988,3.318-1.953,5.689c2.249,5.146,10.177-3.48,7.456-7.941C592.034,264.956,590.712,264.263,589.3,263.438z"/>
	</g>
	<g>
		<g>
			<g>
				<path fill="#C83B0C" d="M616.226,301.526c-6.398,0-14.121-1.072-18.191-3.975c-2.117,11.762-0.854,24.148,0.865,32.963
					l3.764,0.436c2.744-9.365,7.451-16.504,14.262-21.951c6.49,5.447,10.545,14.693,12.871,25.912l3.676-0.043
					c3.895-13.283,5.355-23.5,5.355-34.492c0-1.297-0.055-2.469-0.156-3.559C632.96,299.819,624.87,301.526,616.226,301.526z"/>
			</g>
		</g>
		<path fill="#C83B0C" d="M570.911,243.886c0.404-0.83,1.959-0.941,3.381,0.148c0.893,0.68,0.922,1.699,1.611,1.748
			c0.928,0.064,0.57-1.367,1.271-1.381c0.561-0.012,0.797,0.684,0.865,1.332c0.09,0.832,0.008,1.914-0.271,2.459
			c-0.539,1.061-1.24,1.617-2.746,1.373c-1.338-0.213-2.023-0.928-3.154-2.291C570.821,246.009,570.458,244.81,570.911,243.886z"/>
		<path fill="#C83B0C" d="M654.509,301.817c-0.621,0.73-1.363,1.42-2.184,0.586c-0.721-0.734-0.377-1.625-0.309-2.5
			c0.084-1.119-0.047-1.986-0.695-2.227c-0.873-0.326-1.199,1.316-1.879,1.131c-0.539-0.146-0.514-0.873-0.455-1.521
			c0.068-0.701,0.541-1.523,0.928-2c0.85-1.043,1.99-1.258,3.096-0.686C655.399,295.833,656.29,299.72,654.509,301.817z"/>
		<path fill="#C83B0C" d="M600.899,334.878c-1.059,0.031-3.49,0.033-4.281-0.613c-1.715-1.385,1.455-2.314,3.039-2.594
			C603.724,330.952,605.616,334.745,600.899,334.878z"/>
		<path fill="#C83B0C" d="M631.384,338.815c-1.057,0.029-3.486,0.029-4.279-0.615c-1.715-1.389,1.455-2.314,3.039-2.594
			C634.208,334.886,636.103,338.681,631.384,338.815z"/>
		<g>
			<g>
				<path fill="#C83B0C" d="M618.067,225.864c4.066,1.326,6.514,6.268,7.205,8.49c0.4,1.271,1.508,3.611,1.639,9.324
					c0.098,4.266-0.68,12.906-0.676,12.99c1.139-0.104,3.416-1.693,3.416-1.693l0.455,5.762l4.697-3.857l0.33,3.055
					c0,0,5.609-8.865,6.879-16.721c1.201-7.465-1.729-13.881-4.658-17.176c-2.432-2.738-5.068-4.771-9.051-5.805
					c-4.406-1.143-8.27-0.623-13.516-0.496c-4.18,0.104-12.209-0.855-12.209-0.855l5.543,3.666l-5.889,3.469
					C602.233,226.017,611.874,223.839,618.067,225.864z"/>
			</g>
			<g>
				<g>
					<path fill="#C83B0C" d="M648.487,294.292l4.441-1.428c-3.625-13.248-9.55-24.15-18.18-30.449l-0.301,0.475l-0.083-0.762
						c-0.796-0.564-1.61-1.096-2.451-1.58l-1.173,0.963l-1.48,1.215l-0.151-1.91l-0.136-1.723c-0.525-0.23-1.047-0.465-1.588-0.664
						c-5.664,2.711-10.896,2.949-12.506,2.949c-1.127,0-2.119-0.088-2.945-0.264c-1.6-0.338-3.592-1.893-5.326-4.482
						c-10.162,0.02-19.943-0.771-27.662-7.648l-2.842,2.5c11.273,12.354,23.955,15.652,23.955,15.652s-0.936,13.68-2.703,28.494
						c5.412,6.139,29.48,7,41.875-0.266c-0.404-11.773-4.023-19.924-4.023-19.924S641.864,280.817,648.487,294.292z"/>
					<g>
						<path fill="#A1856E" d="M575.366,252.157l-0.686-0.752l0.764-0.672l0.135-0.119c-0.227-0.004-0.465-0.021-0.715-0.061
							c-1.693-0.271-2.553-1.18-3.766-2.641c-1.789-2.162-1.449-3.727-1.086-4.467c0.369-0.756,1.188-1.207,2.189-1.207
							c0.898,0,1.857,0.355,2.696,1c0.458,0.35,0.743,0.75,0.952,1.088c0.191-0.412,0.566-0.91,1.338-0.926
							c0.379,0,1.629,0.16,1.846,2.225c0.066,0.607,0.045,1.357-0.077,2.027l0.655,0.584c2.902,2.586,6.157,4.271,9.562,5.371
							c0.799-21.355-9.941-31.881-10.063-31.998l0.688-0.725c0.127,0.121,11.277,11.006,10.366,33.016
							c2.323,0.67,4.705,1.088,7.087,1.34c5.307-21.574-0.092-42.363-14.358-52.66l-0.007,0.035
							c-0.049-0.053-0.098-0.098-0.146-0.15c-0.012-0.01-0.023-0.02-0.035-0.027l0.004-0.006c-1.033-1.127-2.109-2.061-3.221-2.842
							c-0.814,0.742-1.619,1.379-2.439,1.926c-4.451,2.965-10.254,4.291-14.029,4.291c-0.35,0-0.683-0.012-0.988-0.035
							c-2.15-0.166-4.857-1.92-7.27-5.033c-14.072,9.514-22.553,34.295-23.9,49.055l6.746,0.93
							c1.52-12.092,11.117-28.906,11.117-28.906s-7.895,19.146-7.584,34.35c0.164,8.021,30.836,10.857,47.34,6.785
							C584.454,260.511,579.818,257.036,575.366,252.157z"/>
					</g>
				</g>
			</g>
			<g>
				<path fill="#C83B0C" d="M602.808,238.563c0.465-4.795,2.354-9.049,5.434-12.414c-0.836,0.072-1.623,0.162-2.332,0.256
					c-0.206,0.229-0.416,0.449-0.611,0.707c-5.209,6.877-4.432,19.041-4.432,19.041l1.086-0.988l1.219,3.221l0.096-0.088
					C602.685,245.46,602.455,242.21,602.808,238.563z"/>
			</g>
		</g>
		<path fill="#C83B0C" d="M626.327,257.665l-1.041,0.094l-0.049-1.043c-0.004-0.076-0.004-0.076,0.039-0.596
			c0.477-5.826,0.691-10.004,0.635-12.418c-0.109-4.791-0.909-7.078-1.387-8.443c-0.08-0.225-0.148-0.424-0.207-0.607
			c-0.548-1.764-2.795-6.609-6.561-7.836c-1.648-0.539-3.738-0.812-6.21-0.812c-0.632,0-1.257,0.018-1.868,0.051
			c-3.123,3.068-5.363,7.32-5.875,12.605c-1.266,13.062,4.881,20.744,8.338,21.477c2.934,0.621,9.004,0.141,14.752-2.584
			C626.694,257.608,626.503,257.649,626.327,257.665z M608.052,239.042c-0.305,1.291-1.021,2.225-1.602,2.09
			c-0.576-0.135-0.807-1.291-0.504-2.58c0.305-1.291,1.02-2.227,1.602-2.09C608.128,236.595,608.353,237.753,608.052,239.042z
			 M616.026,241.368c-0.299,1.264-1.072,2.162-1.734,2.008c-0.658-0.156-0.953-1.303-0.656-2.566
			c0.297-1.268,1.072-2.164,1.732-2.012C616.024,238.952,616.321,240.103,616.026,241.368z"/>
	</g>
</g>
<g>
	<g>
		<g>
			<path fill="#A1856E" d="M298.744,316.179c1.572,0.33,5.2,0.971,6.559,0.223c2.927-1.619-1.563-3.846-3.855-4.684
				C295.567,309.562,291.732,314.731,298.744,316.179z"/>
		</g>
		<g>
			<path fill="#A1856E" d="M331.194,309.159c1.59,0.225,5.252,0.645,6.561-0.191c2.82-1.793-1.797-3.74-4.139-4.432
				C327.612,302.749,324.104,308.144,331.194,309.159z"/>
		</g>
		<g>
			<path fill="#A1856E" d="M298.592,158.302c3.15-2.918,6.442-5.088,11.229-5.748c8.447-1.166,25.305,5.021,23.652,11.857
				c-3.156-2.822-10.043-1.096-12.984,4.035c-2.454,4.285-4.582,13.523-8.701,14.641c-5.119,1.389-6.901,11.324-6.901,11.324
				s-8.509-2.658-11.548-13.414C290.299,170.241,294.799,161.819,298.592,158.302z"/>
			<g>
				<path fill="#A1856E" d="M333.312,165.608l-0.506-0.451c-0.801-0.717-1.943-1.096-3.305-1.096c-2.574,0-6.221,1.527-8.145,4.883
					c-0.719,1.254-1.424,2.994-2.172,4.838c-1.868,4.604-3.801,9.365-7.135,10.27c-3.691,1-5.711,7.945-6.18,10.537l-0.08,0.447
					c6.686,4.533,14.473,6.004,18.199,5.588c4.062-0.459,12.008-8.619,12.018-23.811
					C336.007,172.575,334.997,168.815,333.312,165.608z M331.213,183.772c-0.785-0.055-1.335-1.312-1.231-2.812
					c0.103-1.498,0.824-2.672,1.604-2.617c0.783,0.055,1.334,1.311,1.231,2.818C332.713,182.655,331.993,183.825,331.213,183.772z"
					/>
			</g>
		</g>
	</g>
	<g>
		<g>
			<path fill="#A1856E" d="M353.743,245.954c-1.326-14.545-9.525-38.758-23.146-48.789c-2.243,2.717-4.657,4.244-6.497,4.451
				c-0.439,0.051-0.925,0.074-1.443,0.074c-4.654,0-11.986-1.938-18.037-6.246c-1.078,0.771-2.125,1.684-3.131,2.779l0.002,0.002
				c-0.006,0.004-0.011,0.008-0.016,0.012c-0.055,0.061-0.111,0.111-0.166,0.172l-0.008-0.041
				c-16.241,11.725-21.092,36.936-11.855,61.545l5.356-1.746c-4.478-27.602,9.482-41.207,9.624-41.344l0.688,0.727
				c-0.139,0.133-13.853,13.545-9.255,40.875l0.071,0.426l-0.759,0.246c16.509,4.285,48.046,1.445,48.212-6.719
				c0.312-15.322-7.643-34.617-7.643-34.617s9.672,16.945,11.204,29.131L353.743,245.954z"/>
		</g>
		<path fill="#A1856E" d="M285.434,249.849c-0.03,0.588-0.067,1.164-0.09,1.764c-0.047,1.271,0.469,2.404,1.419,3.41
			C286.253,253.294,285.81,251.569,285.434,249.849z"/>
	</g>
	<g>
		<path fill="#A1856E" d="M349.993,254.755c0.049,0.174,0.086,0.332,0.113,0.459c0.291,1.357,0.922,2.666,2.449,2.961
			c1.639,0.314,2.811-0.469,3.258-2.043c0.365-1.287,0.445-2.582,0.037-3.879c-0.645-2.047-2.147-4.422-4.506-4.646
			c-1.955-0.188-3.357,1.232-4.465,2.625c-0.721,0.906-1.408,2.814-0.471,3.871c0.807,0.908,1.32,0.006,1.637-0.578
			C348.968,251.817,349.686,253.626,349.993,254.755z"/>
	</g>
	<g>
		<g>
			<path fill="#A1856E" d="M313.647,262.087c-2.668,0-8.654-0.131-14.534-1.121c0.152,0.182,0.288,0.363,0.401,0.545l0.632,1.018
				l-1.114,0.439c-0.425,0.168-1.313,0.703-1.903,1.066c0.184,0.32,0.517,0.684,0.742,0.783l0.588-0.58l0.702,0.648
				c0.632,0.586,0.944,1.43,0.878,2.373c-0.087,1.246-0.832,2.621-1.769,3.271c-0.787,0.543-1.671,0.82-2.626,0.82
				c-3.047,0-6.289-2.994-6.802-6.281c-0.265-1.699,0.248-3.203,1.396-4.361l-1.386,0.451l-0.169-0.443
				c-0.494-1.291-0.939-2.584-1.356-3.877c-0.374-0.277-0.727-0.564-1.042-0.871c-0.537,17.607,4.152,36.494,9.566,53.957
				l5.748,0.09c4.113-16.266,7.342-27.096,13.861-35.523c5.559,7.223,9.11,13.83,12.83,28.504h6.307
				c4.062-17.594,6.246-32.105,6.721-46.094C335.974,260.437,324.493,262.087,313.647,262.087z"/>
		</g>
	</g>
	<g>
		<g>
			<path fill="#B5B6B3" d="M299.251,262.882l-0.219,0.086c-0.425,0.168-1.313,0.703-1.903,1.066c0.184,0.32,0.517,0.684,0.742,0.783
				l0.588-0.58l0.691,0.639c3.425,0.184,6.158,3.02,6.158,6.49c0,3.588-2.92,6.508-6.508,6.508s-6.508-2.92-6.508-6.508
				c0-0.367,0.038-0.725,0.097-1.074c-0.622-0.404-1.199-0.906-1.704-1.479c-0.254,0.807-0.393,1.664-0.393,2.553
				c0,4.691,3.816,8.508,8.508,8.508c4.692,0,8.508-3.816,8.508-8.508C307.308,266.827,303.732,263.118,299.251,262.882z"/>
		</g>
		<path fill="#A5A5A3" d="M303.115,275.999c0.531-1.865,2.745-2.324,3.933-2.1c1.254,0.232,2.26,1.236,2.291,2.566
			c0.029,1.254-0.631,1.844-1.14,2.174c0.179,0.723,0.805,1.977,1.162,2.633c0.278,0.504,0.651,0.93,0.807,1.479
			c-0.813,0.346-2.163,0.654-1.8-0.396c-1.078,0.023-0.91-0.879-1.254-1.57c-0.16-0.324-0.534-1.193-0.807-1.332
			c-0.781,0.365-1.26,0.123-1.831-0.061C303.24,278.993,302.709,277.419,303.115,275.999z"/>
		<path fill="#BBBBBA" d="M306.657,275.118c2.244,1.754,1.275,4.674-0.227,5.879c0.91,0.93,3.607,5.701,3.711,7.338
			c-0.199,0.146-0.16,0.156-0.315,0.316c-0.726,0.363-1.524,0.582-1.739-0.418c-0.529,0.039-1.188-0.037-1.578-0.188
			c0.375-0.174,0.646-0.648,0.957-0.908c-0.496-0.252-0.988-0.375-1.544-0.379c0.208-1.129-0.556-1.473-0.52-2.479
			c-0.778-0.232-0.941-1.564-0.947-2.375c-1.3,0.24-3.063-0.316-3.61-1.703C299.267,276.202,303.609,272.739,306.657,275.118z"/>
		<path fill="#A5A5A3" d="M298.268,282.157c-0.414-0.57-0.592-1.332-0.688-2.016c-0.195-1.381,0.214-2.436,1.108-3.465
			c1.856-2.141,5.873-0.959,6.479,1.723c0.206,0.9,0.019,1.479-0.474,2.254c-0.371,0.592-0.975,0.803-1.381,1.332
			c-0.33,0.428-0.115,0.646,0.014,1.162c0.138,0.557,0.205,1.17,0.262,1.738c0.124,1.213-0.033,2.305-0.209,3.488
			c-0.137,0.902-0.526,2.482-1.695,2.527c-1.25,0.043-1.884-1.533-1.739-2.539c0.082-0.557-0.207-0.953-0.094-1.367
			c0.086-0.318,0.55-0.502,0.52-0.846c-0.031-0.328-0.555-0.498-0.792-0.633c0.165-0.27,0.958-0.672,0.895-1.002
			c-0.061-0.316-0.683-0.316-0.942-0.377c0.088-0.355,0.488-0.625,0.407-1.035C299.27,283.013,298.672,282.718,298.268,282.157z"/>
		<path fill="#BBBBBA" d="M292.733,277.905c0.005-1.863,1.776-3.867,4.331-3.768c2.32,0.092,4.217,1.576,4.325,3.771
			c0.051,1.039-0.676,3.379-2.556,3.871c-0.101,1.631,0.312,2.934,0.562,4.459c0.17,1.033,0.779,3.617,0.158,4.436
			c-0.699,0.924-2.911,0.881-3.545-0.152c-0.556-0.904,1.242-2.984-0.31-3.271c-0.088-0.018,0.749-4.682,0.219-5.266
			C294.661,282.136,292.727,280.392,292.733,277.905z"/>
		<path fill="#A5A5A3" d="M294.454,273.685c3.671,0.35,3.086,7.676,0.22,7.082c0.047,1.248-0.701,2.514-1.195,3.59
			c-0.526,1.145-1.039,2.42-1.799,3.426c-0.571,0.754-2.007,1.762-2.683,0.744c-0.503-0.76,0.138-1.43,0.263-2.084
			c0.213-1.109-0.033-0.594-0.809-1.162c0.351-0.086,0.701-0.273,0.946-0.525c-0.272-0.225-0.403-0.545-0.519-0.822
			c0.323-0.049,0.606-0.271,0.835-0.443c-0.226-0.17-0.358-0.52-0.524-0.715c0.436-0.18,0.878-0.314,1.343-0.354
			c0.065-0.334-0.375-1.223-0.311-1.357c0.196-0.424,1.062-0.451,1.454-0.543C289.71,278.05,290.439,273.298,294.454,273.685z"/>
	</g>
	<g>
		<path fill="#A1856E" d="M296,263.554c0.46-0.277,1.96-1.236,2.665-1.516c-0.785-1.264-3.006-2.824-5.062-2.166
			c-8.612,2.756-0.68,13.141,4.098,9.836c0.979-0.68,2.021-2.941,0.781-4.088C297.601,266.489,295.882,264.589,296,263.554z"/>
	</g>
</g>
</svg>
