<?xml version="1.0" encoding="utf-8"?>
<!-- Generator: Adobe Illustrator 15.0.2, SVG Export Plug-In . SVG Version: 6.00 Build 0)  -->
<!DOCTYPE svg PUBLIC "-//W3C//DTD SVG 1.1//EN" "http://www.w3.org/Graphics/SVG/1.1/DTD/svg11.dtd">
<svg version="1.1" id="Layer_1" xmlns="http://www.w3.org/2000/svg" xmlns:xlink="http://www.w3.org/1999/xlink" x="0px" y="0px"
	 width="720px" height="460px" viewBox="0 0 720 460" enable-background="new 0 0 720 460" xml:space="preserve">
<polygon fill="#C4C63A" points="707.232,399.73 12.767,399.73 41.18,351.301 671.342,351.301 "/>
<g>
	<polygon fill="#AAABA8" points="112.258,85.604 596.039,85.604 589.039,124.27 121.258,124.27 	"/>
	<polygon fill="#C7C4BA" points="112.258,85.604 596.039,85.604 570.98,60.27 136.393,60.27 	"/>
	<g>
		<polygon fill="#AAABA8" points="685.18,303.764 616.18,206.688 97.18,206.688 27.18,303.764 41.18,351.301 671.18,351.301 		"/>
		<polygon fill="#C7C4BA" points="685.18,303.764 27.18,303.764 97.18,206.688 616.18,206.688 		"/>
	</g>
	<g>
		<polygon fill="#AAABA8" points="627.584,168.42 589.039,124.27 121.258,124.27 85.91,168.42 97.18,206.688 616.312,206.688 		"/>
		<polygon fill="#C7C4BA" points="627.584,168.42 85.91,168.42 121.258,124.27 589.039,124.27 		"/>
	</g>
</g>
<g>
	<path fill="#E3DAC6" d="M311.559,142.441c0,0-18.008-24.223-21.143-28.492c-1.289-1.756-2.727-3.109-4.354-4.08
		c-0.619-0.371-38.674-25.67-41.125-26.545c-2.992-1.068-6.578-1.035-10.951,0.023c-7.184,1.736-85.416,20.65-92.344,22.324
		c-7.184,1.736-11.395,5.145-14.361,11.834c-3.086,6.965-15.01,36.305-15.01,36.305c-0.52,1.281-0.543,3.268-0.053,4.414
		l38.098,89.057c0.123,0.287,0.307,0.545,0.529,0.766c0.672,0.662,34,33.439,34.234,33.672c0.705,0.695,1.807,1.041,2.805,0.799
		l99.871-24.145c1.332-0.322,2.652-1.729,2.934-3.125l21.748-108.4C312.719,145.451,312.322,143.467,311.559,142.441z"/>
	
		<rect x="250.736" y="212.506" transform="matrix(0.8386 0.5448 -0.5448 0.8386 160.5253 -115.7553)" fill="#EBE3D0" width="49.723" height="1"/>
	
		<rect x="150.401" y="149.96" transform="matrix(0.086 0.9963 -0.9963 0.086 342.6529 -72.5956)" fill="#EBE3D0" width="120.986" height="1"/>
	
		<rect x="175.522" y="144.97" transform="matrix(0.0918 0.9958 -0.9958 0.0918 360.0981 -103.8869)" fill="#EBE3D0" width="122.961" height="1"/>
	<polygon fill="#D5CCB8" points="251.834,199.461 212.197,207.268 207.695,166.492 248.559,158.85 	"/>
	<polygon fill="#D4D2CB" points="296.701,232.195 254.055,202.834 140.037,226.549 149.453,248.98 186.051,286.131 291.168,259.438 
			"/>
	<polygon fill="#D1CFC6" points="254.055,202.834 140.037,226.549 149.453,248.98 249.848,224.078 	"/>
	<polygon fill="#D1CFC6" points="254.055,202.834 296.701,232.195 291.168,259.438 249.848,224.078 	"/>
	
		<rect x="117.306" y="157.633" transform="matrix(0.0918 0.9958 -0.9958 0.0918 318.3247 -32.7567)" fill="#EBE3D0" width="119.628" height="1"/>
	
		<rect x="91.267" y="163.49" transform="matrix(0.0916 0.9958 -0.9958 0.0916 300.2119 -1.1215)" fill="#EBE3D0" width="118.908" height="1"/>
	<path fill="#EBE3D0" d="M149.306,246.17l-37.693-88.111c-0.587-1.373-0.567-3.629,0.047-5.139
		c0.118-0.291,11.837-29.119,14.862-35.945c3.021-6.811,7.473-10.482,14.887-12.273l91.361-22.088
		c8.26-2.002,14.004-0.35,18.072,5.189c2.92,3.977,19.756,26.625,19.926,26.854c0.883,1.188,1.324,3.359,1.006,4.945l-18.705,93.135
		l-1.961-0.395l18.705-93.135c0.209-1.041-0.094-2.611-0.65-3.357c-0.169-0.229-17.008-22.881-19.933-26.863
		c-3.579-4.871-8.509-6.238-15.99-4.43l-91.361,22.088c-6.831,1.652-10.751,4.879-13.528,11.141
		c-3.013,6.797-14.72,35.598-14.838,35.889c-0.415,1.021-0.443,2.703-0.061,3.598l37.693,88.111L149.306,246.17z"/>
	<g>
		<path fill="#E7D8AA" d="M218.721,187.855c0.205-1.279,1.055-3.316,2.324-4.594c1.174-1.629,0.064-5.145-3.471-4.836
			c-0.756,0.064-1.594,0.514-1.336,2.35C215.441,181.979,215.27,184.506,218.721,187.855z"/>
		<path fill="#D7BD4E" d="M249.02,216.387c0.895,1.699,3.012,1.355,3.314,0.93c-0.041-0.154-0.209-0.334-0.547-0.523
			c0.545,0.084,0.82-0.084,0.945-0.357c-2.299-1.131-3.514-2.238-0.645-3.896c0.744-0.432,2.184-0.422,2.529-1.41
			c0.309-0.885-0.154-1.666-1.104-1.742c-1.188-0.094-1.066,0.838-1.77,1.461C249.967,212.42,247.637,213.756,249.02,216.387z"/>
		<path fill="#D7BD4E" d="M244.607,211.992c-0.369,1.693,0.584,3.707,2.336,2.781c-0.479-0.135-0.818-0.283-1-0.527
			c0.367,0.166,1.227-0.023,1.283-0.18c-2.662-0.848-0.756-3.262,0.754-4.23c1.6-1.027,3.65-2.611,0.98-2.723
			C247.188,207.037,244.92,210.562,244.607,211.992z"/>
		<path fill="#AAB036" d="M217.941,173.756c2.338-3.352,7.133-4.818,11.992-3.654c7.852,1.885,16.893,4.494,24.73,12.75
			c13.713,14.439,11.166,27.055,11.342,32.373c0.113,3.369-0.748,8.062-2.422,13.102c-0.881,2.648-5.881-1.332-5.258-2.676
			c2.898-6.254,4.766-9.254,3.047-11.086c-3.896-4.154-14.818-5.467-23.494-10.434c-5.094-2.918-9.383-7.5-8.793-13.17
			c0.414-3.994-2.182-5.529-5.002-5.518c-1.684,0.008-4.354-0.422-6.125-2.732C216.617,180.959,215.775,176.865,217.941,173.756z"/>
		<path fill="#919F9C" d="M222.219,178.547c0.258,0.896-0.199,1.812-1.02,2.045c-0.82,0.234-1.689-0.301-1.947-1.201
			c-0.258-0.893,0.199-1.812,1.02-2.047C221.09,177.109,221.963,177.646,222.219,178.547z"/>
		<path fill="#4E6460" d="M221.676,178.701c0.164,0.568-0.125,1.15-0.646,1.299c-0.52,0.148-1.072-0.191-1.234-0.764
			c-0.164-0.566,0.127-1.148,0.646-1.297S221.514,178.131,221.676,178.701z"/>
		<path fill="#4E6460" d="M238.004,177.906c-2.979,0.678-5.803,4.689-3.939,9.27c2.27,5.574,7.592,10.1,12.551,13.295
			c5.053,3.254,10.641,5.254,16.197,7.428c3.627,1.422,7.742,3.521,11.594,3.951c1.035-1.617-5.182-11.629-8.918-16.818
			c-3.812-5.293-7.412-10.775-14.848-15.217C245.68,176.852,240.799,177.27,238.004,177.906z"/>
	</g>
	
		<rect x="141.858" y="193.213" transform="matrix(0.0951 0.9955 -0.9955 0.0951 383.1402 -34.0521)" fill="#F1EBDD" width="136.884" height="1"/>
	
		<rect x="115.564" y="199.725" transform="matrix(0.0951 0.9955 -0.9955 0.0951 365.8285 -1.9846)" fill="#F1EBDD" width="136.884" height="1"/>
	
		<rect x="182.462" y="182.484" transform="matrix(0.0791 0.9969 -0.9969 0.0791 413.1153 -81.2344)" fill="#F1EBDD" width="136.128" height="1"/>
	
		<rect x="263.244" y="156.452" transform="matrix(0.8794 0.4762 -0.4762 0.8794 109.4059 -117.9003)" fill="#EBE3D0" width="48.249" height="1"/>
	
		<rect x="206.154" y="177.57" transform="matrix(0.0791 0.9969 -0.9969 0.0791 430.0336 -109.3768)" fill="#F1EBDD" width="136.128" height="1"/>
	
		<rect x="114.853" y="148.417" transform="matrix(0.7624 0.6471 -0.6471 0.7624 128.7721 -52.8781)" fill="#EBE3D0" width="43.079" height="1"/>
	
		<rect x="115.324" y="196.017" transform="matrix(0.7107 0.7035 -0.7035 0.7107 178.395 -40.7574)" fill="#EBE3D0" width="46.855" height="1"/>
	
		<rect x="134.09" y="236.537" transform="matrix(0.7306 0.6828 -0.6828 0.7306 203.9173 -42.775)" fill="#EBE3D0" width="44.155" height="1"/>
	
		<rect x="257.102" y="117.914" transform="matrix(0.8234 0.5674 -0.5674 0.8234 117.1815 -139.7433)" fill="#EBE3D0" width="52.052" height="1.001"/>
	<path fill="#F9F6F0" d="M187.23,283.756c-1.559,0-3.049-0.941-3.624-2.287l-39.99-93.475c-0.617-1.443-0.596-3.818,0.05-5.406
		c0.125-0.307,12.558-30.893,15.768-38.133c3.238-7.303,7.802-11.066,15.752-12.988c7.271-1.756,89.387-21.609,96.926-23.432
		c2.439-0.59,4.6-0.877,6.602-0.877c5.273,0,9.365,2.08,12.509,6.359c3.099,4.221,20.96,28.248,21.14,28.49
		c0.928,1.248,1.391,3.531,1.057,5.197l-22.422,111.529l-0.619,0.148L188.121,283.65
		C187.833,283.721,187.533,283.756,187.23,283.756z M278.713,109.158c-1.842,0-3.848,0.268-6.132,0.82
		c-7.539,1.822-89.654,21.676-96.926,23.432c-7.269,1.758-11.438,5.193-14.394,11.855c-3.197,7.211-15.617,37.768-15.743,38.076
		c-0.445,1.096-0.476,2.902-0.063,3.865l39.99,93.477c0.315,0.738,1.354,1.225,2.204,1.023l101.637-24.617l22.171-110.279
		c0.225-1.117-0.104-2.805-0.701-3.609c-0.18-0.242-18.045-24.275-21.146-28.5C286.832,110.92,283.369,109.158,278.713,109.158z"/>
	<polygon fill="#DCDAD4" points="296.701,232.195 295.928,231.664 295.789,232.41 175.318,260.812 142.543,229.018 141.332,226.279 
		140.037,226.549 149.453,248.98 186.051,286.131 291.168,259.438 	"/>
</g>
<polygon fill="#F5F1E7" points="268.598,221.652 226.184,232.553 212.197,207.268 251.834,199.461 "/>
<path fill="#F5F1E7" d="M211.322,208.459L206.6,165.68l42.867-8.018l3.436,42.607L211.322,208.459z M208.791,167.305l4.28,38.771
	l37.694-7.424l-3.114-38.615L208.791,167.305z"/>
<g>
	<g>
		<g>
			<g>
				<path fill="#7A574A" d="M454.791,275.989c-1.229-2.423-2.76-4.765-4.532-6.999c-0.092,0.1-0.173,0.201-0.269,0.301
					c-8.276,8.584-30.646,13.075-48.468,13.075c-5.708,0-17.727-0.519-23.229-4.61c-2.925,22.554,3.435,46.965-13.976,67.243
					l7.449,6.346c23.688-11.74,40.212-26.065,45.932-46.28c18.461,9.919,25.814,29.358,28.811,53.17l8.855,0.893
					C464.346,330.845,465.851,297.802,454.791,275.989z"/>
			</g>
		</g>
		<g>
			<polygon fill="#6882A1" points="483.611,256.726 454.904,252.529 448.797,245.498 491.198,225.104 490.016,236.854 			"/>
			<polygon fill="#C3CEDA" points="482.912,250.513 448.797,245.498 467.566,223.197 491.198,225.104 			"/>
			<polygon fill="#A1B2C5" points="481.084,247.349 453.188,243.921 468.661,225.625 487.635,227.204 			"/>
			<polygon fill="#7C93AE" points="485.658,233.286 471.072,231.974 468.661,225.625 487.635,227.204 			"/>
			<polygon fill="#B0BECE" points="481.084,247.349 460.627,244.835 471.072,231.974 485.658,233.286 			"/>
		</g>
		<g>
			<path fill="#7A574A" d="M458.162,246.092c0.189-0.99,1.008-1.851,2.562-1.735c0.751,0.056,1.252-2.16-0.173-3.167
				c-1.737-1.229-5.134-1.463-7.778-1.023c-2.641,0.438-4.658,1.602-5.633,3.389c-0.812,1.493-0.794,3.552-0.232,5.502
				c0.69,2.396,2.364,4.305,4.549,5.522c2.761,1.539,6.062,1.805,8.744,1.327c1.293-0.23,3.48-1.072,4.32-2.192
				c0.805-1.075,0.486-2.316-0.861-2.764c-1.066-0.354-3.393-0.437-4.448-1.366C457.832,248.369,457.953,247.188,458.162,246.092z"
				/>
			<g>
				<path fill="#7A574A" d="M467.263,218.854c-8.493,0.431-15.343-1.597-20.728-4.508c1.423,6.185,2.541,11.519,3.43,16.396
					c5.701,0.387,11.752-0.054,18.05-1.515L467.263,218.854z"/>
			</g>
		</g>
		<g>
			<path fill="#7A574A" d="M450.387,368.515c2.375,0.479,7.858,1.428,9.898,0.279c4.4-2.463-2.389-5.784-5.848-7.037
				C445.549,358.56,439.801,366.382,450.387,368.515z"/>
		</g>
		<g>
			<path fill="#7A574A" d="M361.348,357.062c2.068,1.254,6.893,4.017,9.204,3.639c4.979-0.811,0.071-8.019-2.762-10.376
				C360.531,344.279,352.124,351.435,361.348,357.062z"/>
		</g>
		<g>
			<path fill="#7A574A" d="M452.021,255.947c-0.356-0.157-0.717-0.308-1.051-0.494c-2.505-1.396-4.289-3.569-5.023-6.119
				c-0.68-2.36-0.564-4.641,0.315-6.258c0.811-1.486,2.253-2.625,4.151-3.322c-1.09-7.721-2.7-15.896-5.058-26.074
				c-1.798-7.762-4.726-15.334-8.979-21.455c-0.821,0.347-1.605,0.569-2.329,0.65c-0.664,0.074-1.4,0.111-2.189,0.111
				c-7.241,0-18.717-3.053-28.101-9.866c-0.364-0.124-1.319-0.477-2.632-1.153c-4.852,2.011-9.229,4.814-11.273,7.906
				c-7.344,11.105-6.533,15.104-9.898,27.164c-2.275,8.153-8.572,39.979-3.312,56.994c4.234,13.698,76.371,7.441,75.648-12.376
				C452.221,259.703,452.131,257.808,452.021,255.947z M445.127,253.716c-5.042,1.169-9.891,1.71-14.504,1.71
				c-24.38,0-42.213-15.084-47.668-32.076l0.953-0.306c6.322,19.694,29.68,36.759,60.576,29.793l-0.686-9.461
				c-25.588,1.017-36.477-20.237-36.584-20.453l0.895-0.447c0.105,0.212,10.885,21.164,36.128,19.88l0.489-0.025l0.818,11.289
				L445.127,253.716z"/>
		</g>
		<g>
			<path fill="#7A574A" d="M394.409,126.014c4.903-4.542,10.027-7.92,17.477-8.947c13.146-1.815,39.385,7.814,36.812,18.455
				c-4.91-4.391-15.631-1.706-20.207,6.281c-3.821,6.666-7.133,21.049-13.543,22.788c-7.969,2.159-10.74,17.624-10.74,17.624
				s-13.245-4.139-17.975-20.877C381.503,144.598,388.507,131.486,394.409,126.014z"/>
			<g>
				<path fill="#7A574A" d="M447.713,136.012c-1.326-1.037-3.107-1.59-5.197-1.59c-4.302,0-10.039,2.436-13.156,7.879
					c-1.139,1.985-2.246,4.714-3.418,7.603c-2.855,7.038-5.809,14.317-10.731,15.653c-7.265,1.968-9.991,16.687-10.018,16.835
					l-0.081,0.449c10.516,7.323,22.932,9.7,28.826,9.04c6.324-0.71,18.69-13.412,18.704-37.057
					C452.642,147.62,450.789,141.285,447.713,136.012z M445.181,165.654c-1.222-0.083-2.078-2.041-1.918-4.377
					c0.161-2.331,1.283-4.157,2.497-4.071c1.22,0.085,2.077,2.038,1.916,4.383C447.517,163.918,446.396,165.739,445.181,165.654z"/>
			</g>
		</g>
	</g>
	<g>
		<path fill="#7A574A" d="M470.094,218.349c4.431-3.063,10.354,0.091,11.336,5.103c-2.074-0.11-5.296-0.47-7.74-0.443
			c0.055,2.014,2.26,3.961,1.809,5.875c-0.893,3.792-5.453,0.414-6.451-1.627C467.682,224.463,467.154,220.381,470.094,218.349z"/>
	</g>
</g>
</svg>
