<?xml version="1.0" encoding="utf-8"?>
<!-- Generator: Adobe Illustrator 15.0.2, SVG Export Plug-In . SVG Version: 6.00 Build 0)  -->
<!DOCTYPE svg PUBLIC "-//W3C//DTD SVG 1.1//EN" "http://www.w3.org/Graphics/SVG/1.1/DTD/svg11.dtd">
<svg version="1.1" id="Layer_1" xmlns="http://www.w3.org/2000/svg" xmlns:xlink="http://www.w3.org/1999/xlink" x="0px" y="0px"
	 width="720px" height="460px" viewBox="0 0 720 460" enable-background="new 0 0 720 460" xml:space="preserve">
<g>
	<g>
		<polygon fill="#888886" points="536.629,389.539 672.035,389.539 377.355,220.063 301.391,220.063 		"/>
		<g>
			<polygon fill="#9F9F9D" points="630.32,389.539 644.82,389.539 370.203,217.961 368.55,218.089 368.543,220.063 			"/>
			<polygon fill="#9F9F9D" points="560.82,389.539 573.32,389.539 357.518,216.078 353.76,216.756 			"/>
		</g>
	</g>
	<polygon fill="#E7E4D9" points="47.965,365.608 292.297,198.105 336.654,198.105 536.629,365.608 536.629,389.539 47.965,389.539 	
		"/>
	<rect x="47.965" y="365.608" fill="#F0EEE7" width="488.664" height="23.931"/>
	<polygon fill="#C4C5C2" points="130.419,70.461 444.475,70.461 444.475,89.862 348.221,172.067 205.6,172.067 130.419,89.862 	"/>
	<polygon fill="#AAABA8" points="444.475,89.862 348.221,172.067 205.6,172.067 130.419,89.862 	"/>
	<polygon fill="#D2D0C8" points="138.946,303.812 261.377,303.812 287.447,231.816 287.447,143.438 261.377,101.18 138.946,101.18 	
		"/>
	<rect x="138.946" y="101.18" fill="#D9D7D0" width="122.431" height="202.633"/>
	<g>
		<path fill="#C83B0C" d="M322.605,262.092c-0.709,1.382-1.625,2.74-3.219,1.728c-1.41-0.892-1.193-2.423-1.41-3.825
			c-0.275-1.797-0.801-3.109-1.91-3.251c-1.494-0.194-1.406,2.515-2.543,2.472c-0.906-0.031-1.131-1.188-1.277-2.23
			c-0.15-1.131,0.291-2.598,0.725-3.49c0.955-1.955,2.674-2.709,4.623-2.217C321.811,252.34,324.641,258.136,322.605,262.092z"/>
		<path fill="#C83B0C" d="M209.736,271.064c0.943,1.232,2.09,2.403,3.475,1.122c1.227-1.131,0.74-2.599,0.701-4.017
			c-0.051-1.814,0.23-3.202,1.297-3.54c1.436-0.459,1.836,2.222,2.945,1.976c0.885-0.194,0.9-1.371,0.855-2.424
			c-0.053-1.139-0.75-2.502-1.338-3.303c-1.291-1.753-3.117-2.187-4.945-1.354C208.77,261.326,207.023,267.537,209.736,271.064z"/>
		<path fill="#C83B0C" d="M248.805,333.283c1.688,0.283,5.58,0.822,6.996-0.032c3.051-1.844-1.82-4.033-4.295-4.833
			C245.152,326.361,241.275,332.021,248.805,333.283z"/>
		<path fill="#C83B0C" d="M283.199,329.993c1.701,0.175,5.623,0.476,6.98-0.468c2.932-2.025-2.064-3.91-4.586-4.557
			C279.125,323.312,275.607,329.198,283.199,329.993z"/>
		<g>
			<g>
				<path fill="#C83B0C" d="M256.98,276.191c-5.445,0-16.367-0.482-21.943-4.064c0.197,18.045,4.242,37.035,10.432,54.608
					l6.127-0.138c3.725-17.492,6.725-28.16,13.328-37.4c6.215,7.469,10.375,18.868,14.93,34.346l6.717-0.254
					c3.624-18.938,7.973-39.695,8.164-54.931C288.271,273.291,271.233,276.191,256.98,276.191z"/>
			</g>
		</g>
		<g>
			<path fill="#C83B0C" d="M291.08,161.323c0.414,0.523,0.805,1.083,1.17,1.692c6.418,10.758,3.346,28.194,3.346,28.194
				l-1.408-1.602l-2.273,4.457l-0.467-0.533c1.229-3.903,2.021-8.439,2.092-13.596c0.102-7.335-2.262-14.131-6.451-19.45
				C288.518,160.741,289.873,161.031,291.08,161.323z"/>
		</g>
		<g>
			<path fill="#C83B0C" d="M274.021,159.171c-6.082,1.264-10.406,8.003-11.76,11.098c-0.779,1.771-2.752,4.973-3.857,13.195
				c-0.824,6.146-1.084,18.735-1.104,18.856c-1.627-0.332-4.66-2.99-4.66-2.99l-1.578,8.24l-6.162-6.316l-0.965,4.354
				c0,0-6.676-13.691-7.248-25.232c-0.541-10.963,4.715-19.754,9.471-24.044c3.947-3.559,8.078-6.073,13.99-6.925
				c6.543-0.943,12.037,0.424,19.586,1.449c6.016,0.817,17.758,0.719,17.758,0.719l-8.586,4.401l7.941,5.952
				C296.848,161.929,283.283,157.243,274.021,159.171z"/>
		</g>
		<g>
			<path fill="#C83B0C" d="M258.268,202.479l-0.162,1.01l-1.002-0.206c-0.209-0.042-0.438-0.112-0.678-0.208
				c-1.004-0.398-2.223-1.251-3.129-1.947l-0.066,0.341c8.537,6.422,18.967,8.593,23.855,8.112
				c5.105-0.504,15.207-10.605,15.473-29.659c0.109-7.984-2.615-14.686-6.885-19.672c-3.787-0.584-7.957-0.844-11.455-0.117
				c-5.816,1.209-9.953,8.012-11.061,10.531c-0.109,0.249-0.24,0.527-0.393,0.84c-0.918,1.924-2.457,5.144-3.389,12.091
				c-0.467,3.484-0.828,9.553-1.074,18.044C258.283,202.397,258.283,202.397,258.268,202.479z M288.342,183.067
				c-0.859,0.102-1.742-1.36-1.975-3.271c-0.23-1.912,0.281-3.544,1.141-3.648c0.859-0.102,1.742,1.363,1.973,3.273
				C289.713,181.333,289.195,182.963,288.342,183.067z M275.846,178.271c0.979-0.115,1.953,1.304,2.18,3.178
				c0.225,1.871-0.385,3.482-1.359,3.6c-0.982,0.117-1.955-1.306-2.184-3.176C274.262,180.002,274.873,178.389,275.846,178.271z"/>
			<g>
				<path fill="#C83B0C" d="M310.893,251.27l6.082-2.232c-8.99-22.732-18.283-36.334-31.527-44.041
					c-2.863,3.456-5.943,5.351-8.264,5.58c-0.465,0.045-0.975,0.068-1.515,0.068c-5.115,0-12.837-1.937-19.802-6.189
					c-1.044,0.286-2.113,0.582-3.238,0.894c-0.043,0.012-0.088,0.029-0.131,0.042l-0.453,2.367l-0.361,1.882l-1.338-1.371
					l-1.455-1.493c-14.293,6.781-30.531,29.397-36.223,49.768l7.023,2.589c8.102-19.257,21.891-30.359,21.891-30.359
					s-10.758,24.868-8.951,38.487c1.84,13.89,66.223,7.588,63.754-3.994c-4.422-20.743-3.758-36.291-3.758-36.291
					S301.924,233.767,310.893,251.27z"/>
			</g>
		</g>
	</g>
	<g>
		<g>
			<g>
				<circle fill="#939491" cx="355.602" cy="152.573" r="13.861"/>
				<circle fill="#E3E1DC" cx="355.602" cy="152.573" r="12.119"/>
				<g>
					<path fill="#939491" d="M355.602,153.043h-6.816c-0.414,0-0.75-0.336-0.75-0.75s0.336-0.75,0.75-0.75h6.066v-6.699
						c0-0.414,0.336-0.75,0.75-0.75s0.75,0.336,0.75,0.75v7.449C356.352,152.708,356.016,153.043,355.602,153.043z"/>
				</g>
				<g>
					<g>
						<g>
							<path fill="#AAABA8" d="M355.602,143.411c-0.275,0-0.5-0.224-0.5-0.5v-1.183c0-0.276,0.225-0.5,0.5-0.5
								c0.277,0,0.5,0.224,0.5,0.5v1.183C356.102,143.188,355.879,143.411,355.602,143.411z"/>
							<path fill="#AAABA8" d="M355.602,163.358c-0.275,0-0.5-0.224-0.5-0.5v-1.183c0-0.276,0.225-0.5,0.5-0.5
								c0.277,0,0.5,0.224,0.5,0.5v1.183C356.102,163.135,355.879,163.358,355.602,163.358z"/>
						</g>
					</g>
					<g>
						<g>
							<path fill="#AAABA8" d="M360.293,144.668c-0.084,0-0.17-0.021-0.249-0.067c-0.239-0.138-0.321-0.443-0.184-0.683l0.591-1.025
								c0.138-0.239,0.443-0.322,0.683-0.184c0.239,0.138,0.321,0.443,0.184,0.683l-0.591,1.025
								C360.635,144.578,360.466,144.668,360.293,144.668z"/>
							<path fill="#AAABA8" d="M350.318,161.943c-0.085,0-0.171-0.021-0.25-0.067c-0.238-0.138-0.32-0.444-0.183-0.683l0.592-1.025
								c0.138-0.24,0.444-0.321,0.683-0.183c0.24,0.138,0.322,0.444,0.184,0.683l-0.592,1.025
								C350.659,161.854,350.491,161.943,350.318,161.943z"/>
						</g>
					</g>
					<g>
						<g>
							<path fill="#AAABA8" d="M363.727,148.102c-0.173,0-0.341-0.09-0.434-0.25c-0.139-0.239-0.056-0.545,0.184-0.683l1.025-0.591
								c0.238-0.138,0.544-0.056,0.683,0.183c0.138,0.239,0.056,0.545-0.183,0.683l-1.025,0.591
								C363.896,148.081,363.811,148.102,363.727,148.102z"/>
							<path fill="#AAABA8" d="M346.452,158.076c-0.173,0-0.341-0.09-0.434-0.25c-0.138-0.239-0.056-0.545,0.183-0.683l1.025-0.592
								c0.238-0.139,0.545-0.057,0.684,0.183c0.139,0.239,0.057,0.545-0.184,0.683l-1.025,0.592
								C346.623,158.055,346.537,158.076,346.452,158.076z"/>
						</g>
					</g>
					<g>
						<g>
							<path fill="#AAABA8" d="M366.166,152.793h-1.182c-0.277,0-0.5-0.224-0.5-0.5s0.223-0.5,0.5-0.5h1.182
								c0.277,0,0.5,0.224,0.5,0.5S366.443,152.793,366.166,152.793z"/>
							<path fill="#AAABA8" d="M346.219,152.793h-1.184c-0.275,0-0.5-0.224-0.5-0.5s0.225-0.5,0.5-0.5h1.184
								c0.277,0,0.5,0.224,0.5,0.5S346.496,152.793,346.219,152.793z"/>
						</g>
					</g>
					<g>
						<g>
							<path fill="#AAABA8" d="M364.751,158.076c-0.085,0-0.171-0.021-0.249-0.067l-1.025-0.592
								c-0.24-0.138-0.322-0.444-0.184-0.683c0.139-0.24,0.444-0.322,0.684-0.183l1.025,0.592c0.238,0.138,0.32,0.444,0.183,0.683
								C365.092,157.986,364.924,158.076,364.751,158.076z"/>
							<path fill="#AAABA8" d="M347.477,148.102c-0.085,0-0.17-0.021-0.25-0.067l-1.025-0.591c-0.238-0.138-0.32-0.444-0.183-0.683
								s0.442-0.321,0.683-0.183l1.025,0.591c0.239,0.138,0.322,0.444,0.184,0.683C347.818,148.012,347.649,148.102,347.477,148.102
								z"/>
						</g>
					</g>
					<g>
						<g>
							<path fill="#AAABA8" d="M360.885,161.943c-0.173,0-0.342-0.09-0.434-0.25l-0.591-1.025c-0.138-0.239-0.056-0.545,0.184-0.683
								s0.546-0.056,0.683,0.184l0.591,1.025c0.138,0.239,0.056,0.545-0.184,0.683C361.055,161.922,360.969,161.943,360.885,161.943
								z"/>
							<path fill="#AAABA8" d="M350.911,144.668c-0.173,0-0.341-0.089-0.434-0.25l-0.592-1.025
								c-0.138-0.239-0.056-0.545,0.183-0.683c0.238-0.138,0.545-0.057,0.684,0.183l0.592,1.025
								c0.139,0.239,0.057,0.545-0.184,0.683C351.082,144.646,350.996,144.668,350.911,144.668z"/>
						</g>
					</g>
				</g>
			</g>
			<path fill="#939491" d="M354.65,135.251c0-0.524,1.9-0.524,1.9,0s0,4.128,0,4.128h-1.9
				C354.65,139.379,354.65,135.775,354.65,135.251z"/>
		</g>
		<path fill="#939491" d="M350.91,134.825c0-0.887,2.031-1.606,4.535-1.606c2.506,0,4.535,0.719,4.535,1.606
			c0,0.118,0,0.569,0,0.688c0,0.887-2.029,1.605-4.535,1.605c-2.504,0-4.535-0.719-4.535-1.605
			C350.91,135.395,350.91,134.943,350.91,134.825z"/>
	</g>
</g>
</svg>
