<?xml version="1.0" encoding="utf-8"?>
<!-- Generator: Adobe Illustrator 15.0.2, SVG Export Plug-In . SVG Version: 6.00 Build 0)  -->
<!DOCTYPE svg PUBLIC "-//W3C//DTD SVG 1.1//EN" "http://www.w3.org/Graphics/SVG/1.1/DTD/svg11.dtd">
<svg version="1.1" id="Layer_1" xmlns="http://www.w3.org/2000/svg" xmlns:xlink="http://www.w3.org/1999/xlink" x="0px" y="0px"
	 width="720px" height="460px" viewBox="0 0 720 460" enable-background="new 0 0 720 460" xml:space="preserve">
<path fill="#C7CB7A" d="M289.882,225.987c132.875-9.605,253.977,0.785,333.688,45.096c53.021,29.479,48.424,68.549,5.232,91.885
	c-48.045,25.961-145.549,47.371-283.566,47.371c-133.381,0-234.926-30.908-272.535-61.071
	c-27.039-21.685-17.826-58.077,30.805-80.975C156.437,243.374,209.155,231.819,289.882,225.987z"/>
<g>
	<path fill="#C37B6B" d="M439.919,234.497c0.037,2.025-10.283-3.713-11.262-3.941c-4.627-1.074-11.207,1.729-15.648,2.977
		c-0.504-0.409-1.207-0.453-1.883-0.467c-0.762-4.629-10.541-4.011-12.098-1.466c-1.848-1.234-3.564-2.932-4.73-4.899
		c0.094,1.586-0.25,3.444-0.102,4.93c-0.453-2.021-2.574-5.822-3.182-6.562c0.174,2.115-0.303,4.09-0.783,6.076
		c-0.725-1.373-2.377-2.896-3.252-4.412c0.283,1.638-0.279,3.463-0.066,5.047c-0.477-0.643-2.475-1.75-3.086-2.545
		c-0.203,1.848-0.965,3.088-0.783,5.062c-0.82-1.988-1.969-2.166-3.215-3.529c-0.32,0.465-0.604,1.135-0.934,1.615
		c-3.906,0.078-8.139,0.924-11.785,0.018c-0.221-0.705-0.625-1.912-0.75-2.5c-0.25,0.79-1.225,1.578-1.449,3.164
		c-3.795,0.167-7.906-0.072-11.197,0.135c-4.141,0.262-8.363,1.948-12.572,1.188c-2.789-0.503-4.4-1.498-7.045,0.812
		c-3.742-14.775,0.426-35.807,0.789-51.146c0.561-23.708,1.121-47.416,1.682-71.124c0.051-2.186,0.104-4.371,0.154-6.559l96-12
		C432.722,94.37,439.823,232.661,439.919,234.497z"/>
	<polygon fill="#C9887A" points="439.919,234.495 446.722,230.993 439.919,103.37 432.722,94.37 	"/>
	<polygon fill="#BA6957" points="361.679,136.544 347.013,138.544 347.013,114.949 361.679,112.949 	"/>
	<polygon fill="#BA6957" points="361.679,166.479 347.013,167.479 347.013,143.885 361.679,141.885 	"/>
	<polygon fill="#BA6957" points="361.679,198.235 347.013,198.235 347.013,173.641 361.679,172.641 	"/>
	<polygon fill="#BA6957" points="381.663,133.757 366.995,135.757 366.995,112.162 381.663,110.162 	"/>
	<polygon fill="#BA6957" points="381.663,165.084 366.995,166.084 366.995,141.489 381.663,140.489 	"/>
	<polygon fill="#BA6957" points="381.663,197.735 366.995,197.735 366.995,173.141 381.663,172.141 	"/>
	<polygon fill="#BA6957" points="361.679,234.495 347.013,234.495 347.013,209.899 361.679,208.899 	"/>
	<polygon fill="#BA6957" points="401.472,131.644 386.806,133.644 386.806,110.049 401.472,108.049 	"/>
	<polygon fill="#BA6957" points="401.472,164.139 386.806,165.139 386.806,139.544 401.472,137.544 	"/>
	<polygon fill="#BA6957" points="401.472,197.235 386.806,197.235 386.806,171.641 401.472,170.641 	"/>
	<polygon fill="#BA6957" points="421.651,129.368 406.985,131.368 406.985,107.773 421.651,105.773 	"/>
	<polygon fill="#BA6957" points="422.302,163.352 407.636,164.352 407.636,137.757 422.302,135.757 	"/>
	<polygon fill="#BA6957" points="421.651,197.235 406.985,197.235 406.985,170.641 421.651,169.641 	"/>
</g>
<g>
	<path fill="#8E7565" d="M439.206,247.598c0,0-6.115-5.688-7.092-16.976c-1.145-13.204-0.838-24.986-0.838-24.986l-6.701-0.164
		c0,0,0.256,12.636-0.795,25.15c-0.852,10.115-6.531,16.976-6.531,16.976s4.629-0.362,8.289-1.308
		c0.979,1.445,2.723,2.441,2.723,2.441s1.654-0.946,2.645-2.332C434.954,247.265,439.206,247.598,439.206,247.598z"/>
	<path fill="#9DA44F" d="M465.101,189.651c-0.283,0.597-0.873,1.102-1.883,1.447c0.85,1.273,2.367,3.929,2.014,5.54
		c-0.477,2.16-1.525,0.661-2.562,1.57c-1.479,1.295,0.688,5.284,0.789,6.775c0.084,1.231,0.076,3.357-1.762,3.362
		c-0.91,0.004-1.4-0.439-1.389-1.344c0.014,1.051-0.338,3.203-1.367,3.855c-1.951,1.24-3.98-1.469-5.021-2.812
		c-0.477-0.614-2.584-4.424-3.598-4.285c-1.09,0.15-1.086,2.033-1.35,2.901c-1.451-0.186-2.246-1.589-3.211-2.524
		c-0.668,1.363-0.787,2.504-0.508,3.85c0.262,1.258,0.928,2.551-1.168,2.566c0.375,1.318,5.486,5.718,2.533,6.445
		c0.359,0.498,1.23,1.238,1.189,1.948c-0.066,1.185-1.242,0.819-1.707,1.556c-0.971,1.537,1.537,3.655-2.023,3.235
		c-1.516-0.179-2.664-1.595-4.08-1.856c-0.453-0.084-1.441,0.389-2.195,0.293c-2.789-0.351-4.969-5.041-6.617-0.482
		c-0.135-0.31-0.652-0.715-0.801-1.057c-1.363,1.711-2.939,0.867-4.881,1.422c-1.816,0.52-3.893,0.811-5.775,0.488
		c-1.373-0.236-2.457-0.906-3.883-0.83c-2.742,0.147-6.123,2.909-8.818,2.158c-1.717-0.478-0.004-2.345-1.859-3.218
		c-1.594-0.75-3.496,0.433-5.213-0.69c-2.842-1.857,0.822-3.392,2.744-4.722c-0.637-0.807-1.955-0.71-2.596-1.615
		c-0.908-1.285,0.115-2.074,0.188-3.478c-1.43-0.609-3.242-0.343-4.549-1.174c0.068-0.187,0.09-0.445,0.145-0.604
		c-1.559-0.467-3.424-0.454-4.896-1.176c-1.307-0.64-2.053-2.618-2.84-3.778c-0.896-1.32-1.213-1.717-0.426-3.172
		c0.457-0.839,1.639-1.471,1.363-2.579c-0.23-0.923-1.307-0.817-1.738-1.405c-0.332-0.453-0.693-2.2-0.764-2.798
		c-0.148-1.29,0.615-1.914-0.354-2.717c-0.854-0.708-2.943,0.195-2.523-1.725c0.182-0.832,1.875-1.713,2.418-2.319
		c-1.051-1.28-2.191-0.803-1.572-2.848c0.465-1.536,2.004-2.715,3.227-3.624c1.484-1.103,1.795-0.911,1.311-2.367
		c-0.355-1.065-1.416-1.2-0.641-2.501c0.465-0.781,2.172-0.687,2.219-1.861c0.035-0.876-1.201-1.012-1.207-1.974
		c-0.018-3.031,4.398-1.646,5.861-2.812c0.945-0.755,0.791-2.462,2.02-3.014c1.262-0.568,1.984,0.63,3.191,0.526
		c2.818-0.24,2.043-4.995,3.996-5.755c0.721-0.28,2.1,0.979,2.9,1.044c2.828,0.231,3.158-2.646,5.189-3.732
		c-0.111,0.853,0.531,1.33,1.34,1.164c-0.01-0.291,0.096-0.685,0.051-0.966c0.393,0.959,1.627,2.734,2.996,1.819
		c0.945-0.633,0.559-2.541,0.898-3.485c1.008,0.898,2.92,2.337,4.236,2.636c2.568,0.584,2.629-2.085,4.664-2.504
		c2.145-0.44,1.525,1.901,2.895,3.044c2.191,1.831,3.023-0.897,4.924-1.563c3.998-1.403,1.658,6.733,5.203,5.301
		c1.094-0.443,1.377-1.687,2.775-1.737c0.998-0.037,1.781,0.521,2.645,0.977c2.654,1.401,1.348,0.909,0.158,2.427
		c2,2.072,6.373,0.259,8.775,1.983c-0.398,0.175-0.67,0.696-1.004,0.881c1.432,1.363,4.213-1.794,5.09-2.872
		c0.084,2.146-4.48,8.443,0.211,7.808c0.689-0.094,3.105-1.812,3.684-0.866c0.533,0.875-0.896,2.505-1.23,3.208
		c-1.562,3.286,1.35,0.83,2.795,2.468c1.609,1.825-2.289,3.651-2.908,4.965C462.601,183.588,466.208,187.319,465.101,189.651z"/>
</g>
<g>
	<path fill="#BA6957" d="M596.378,314.075c-4.486-1.525-8.971-3.052-13.457-4.578c-4.934-1.678-9.865-3.355-14.797-5.032
		c-3.553-1.208-7.15-3.354-10.885-3.921c0.848-3.423,1.273-6.746,4.369-8.615c-2.299,0.787-4.229,2.475-5.814,4.48
		c0.869-3.084,2.805-5.943,3.279-8.852c-2.076,1.189-3.875,3.447-5.26,5.047c-0.398-3.416,1.271-7.143,0.562-11.094
		c-0.971,2.009-1.912,4.188-2.703,6.248c-0.693-1.086-1.859-1.805-2.531-2.883c-0.43,4.482,1.342,7.68,1.363,11.862
		c-1.686-1.874-3.426-4.438-5.543-5.782c0.527,0.334-5.4-3.439-4.193-1.617c-0.924-1.395-1.057-1.964-3.059-1.457
		c-1.414,0.358-2.098,1.293-2.859,2.475c-1.244-1.385-3.123,0.562-3.58,1.793c-2.242-0.156-5.236-2.002-7.4-2.737
		c-2.805-0.954-5.609-1.908-8.414-2.862c-5.697-1.938-11.396-3.877-17.096-5.814c-10.488-3.567-20.975-7.135-31.463-10.702
		c-10.914-3.712-21.828-7.425-32.744-11.138c0,0,11.018-152.708,11.021-152.771c0.119-1.646,23.209-7.509,25.045-8.104
		c15.918-5.15,31.693-8.011,47.826-12.217c-0.154-1.045-0.572-1.636-0.771-2.626c2.658,0.428,6.039-0.609,8.748-0.354
		c0.051-1.178,0.311-2.513,0.328-3.675c6.643-1.522,73.758-18.731,73.824-23.174C600.175,56.007,596.378,314.075,596.378,314.075z"
		/>
	<g>
		<polygon fill="#B25642" points="474.55,255.956 499.87,262.827 502.356,214.478 477.589,212.229 		"/>
		<polygon fill="#B25642" points="552.185,144.688 581.583,143.688 582.448,83.688 553.05,90.688 		"/>
		<polygon fill="#B25642" points="549.591,206.237 578.989,208.237 579.854,156.237 551.319,156.237 		"/>
		<polygon fill="#B25642" points="546.997,275.327 577.261,283.327 578.124,222.327 549.591,219.327 		"/>
		<polygon fill="#B25642" points="515.149,147.37 541.271,146.19 542.083,94.418 516.724,101.418 		"/>
		<polygon fill="#B25642" points="511.794,203.181 537.966,204.822 540.509,156.99 514.286,157.169 		"/>
		<polygon fill="#B25642" points="507.974,278.465 535.823,286.927 538.017,217.129 511.794,214.487 		"/>
		<polygon fill="#B25642" points="484.532,148.825 505.448,147.449 507.974,104.225 487.747,109.225 		"/>
		<polygon fill="#B25642" points="479.521,201.526 504.179,202.774 505.665,158.424 482.802,158.801 		"/>
		<polygon fill="#B25642" points="446.108,248.732 467.298,254.06 470.378,211.185 449.487,209.145 		"/>
		<polygon fill="#B25642" points="454.624,151.424 474.128,150.176 477.241,111.95 457.313,116.488 		"/>
		<polygon fill="#B25642" points="449.431,199.433 470.229,200.565 473.31,159.227 453.177,159.568 		"/>
	</g>
	<path fill="#D19B8F" d="M596.378,314.075c0.014-0.908,19.891-7.077,22.061-6.898c-1.316-1.258-3.188-2.984-4.027-3.199
		c1.301,0.246,2.768-0.195,4.027-0.137c-1.068-2.252-2.893-4.427-5.027-5.895c2.43,0.139,4.809,1.605,6.33,3.277
		c-1.043-2.711-1.33-5.469-2.646-8.33c2.887,0.91,4.52,3.594,5.596,6.367c0.781-1.61,2.656-2.957,3.717-3.849
		c-0.535,1.688-0.201,3.712-0.613,5.661c1.502-1.221,3.166-1.613,4.482-2.461c-1.885,1.637-1.596,2.633-2.348,4.631
		c1.277-0.432,12.041-1.15,12.041-2.758c0.002-4.965,0-9.93,0-14.894c0-42.841,0-85.681,0-128.521c0-19.239-0.211-38.492,0-57.729
		c0.27-24.657-21.59-31.014-39.795-43.366C600.175,55.976,596.378,314.07,596.378,314.075z"/>
</g>
<path fill="#AAB036" d="M443.712,274.924c-0.01-1.273,0.547-2.362,2.193-2.417c-7.959,0.267-1.508-11.314,3.062-5.787
	c1.916-3.939,7.082,2.205,9.562,2.693c-1.906-5-7.01-8.084-11.35-10.823c-2.859-1.806-8.199-2.882-10.352-5.063
	c-1.887-1.913-1.199-5.096,0.604-6.7c-9.934-1.403,1.76-8.998,2.627-6.954c-2.523-5.949,5.047-5.277,8.361-3.532
	c2.4,1.263,3.414,3.454,5.311,5.122c1.262,1.11,1.799,1.026,2.656,2.729c1.02,2.027,2.963,4.545,3.34,6.758
	c-0.09-3.809-2.326-8.777-4.422-12.062c-1.027-1.609-7.67-6.632-3.83-7.662c-3.316,0.891-6.326-3.58-4.107-5.711
	c-3.818-1.51-1.525-11.025,4.465-7.496c3.371-3.115,6.309-3.645,8.982,0.674c-0.727-1.176,3.145-1.199,3.916-0.504
	c0.969,0.874,1.02,3.37,1.252,4.541c1.631-1.984,2.562-5.043,5.898-4.162c1.18-5.135,4.098-6.837,8.598-3.348
	c0.705-3.811,4.693-5.753,7.529-2.953c0.234,0.231,1.867,5.018,1.881,5.201c0.004,0.053-0.025,7.053-1.795,5.381
	c2.475,2.34,3.129,5.766,1.672,8.821c-0.166,0.347,2.506,1.044,2.787,1.066c-0.969-1.97-2.355-6.913,2.164-6.05
	c0.193-2.799-1.914-9.527,4.252-7.924c-0.312-3.593,1.205-6.084,5.701-4.855c0.527,0.145,2.936-1.854,4.049-1.805
	c1.447,0.062,3.26,1.35,3.342,2.621c3.562-1.812,2.754,10.255-1.795,12.346c2.012,1.111,1.867,4.846-0.307,5.564
	c2.57,0.914,1.547,4.238,0.006,5.686c2.18,1.286,2.725,6.057-0.355,6.301c3.516,2,0.428,4.013-1.066,6.06
	c1.516,0.496,7.811,0.03,5.08,3.655c4.426-1.157,4.598,5.307,0.242,5.708c1.588,1.001,1.182,2.84-0.283,4.023
	c-1.477,1.192-2.289,0.465-4.07,0.595c-8.072,0.591-12.633,10.83-13.711,17.861c-1.322,8.622-5.271,19.266-6.141,30.552
	c-0.002,0.028-5.953,3.681-6.783,0c-2.125-9.419-14.25-21.197-15.955-22.835c-3.439-3.309-7.229-7.114-11.594-9.193
	c-2.84-1.352-7.895-0.035-10.188-2.333C444.444,278.013,443.722,276.353,443.712,274.924z"/>
<g>
	<polygon fill="#BD6F5E" points="153.723,76.16 132.626,76.16 132.626,50.661 138.878,49.661 153.723,50.661 	"/>
	<polygon fill="#BD6F5E" points="184.175,79.16 167.626,79.16 167.626,59.158 172.53,58.373 184.175,59.158 	"/>
	<path fill="#C37B6B" d="M290.823,243.78c0.058,0.977-20.032,6.949-21.367,7.412c-7.611,2.641-15.224,5.281-22.835,7.922
		c-4.259,1.478-8.507,2.992-12.778,4.434c-2.049,0.691-9.012,0.998-6.711,4.711c-2.451,0.228-5.041,0.641-4.341,3.666
		c-2.302,0.271-4.517,1.248-6.899,1.102c-0.215,2.613,0.787,4.103-1.051,5.264c-2.143,1.355-4.042,0.277-4.725-1.923
		c-2.244-0.114-4.379,1.388-6.559,1.558c-0.086-0.314-0.011-0.586-0.099-0.9c-0.482-0.183-1.37-0.258-1.884-0.333
		c-0.316-0.046-2.866,1.05-3.816,1.044c-2.094-0.015-3.572-0.89-5.719-0.317c-4.271,1.14-9.104,3.79-13.473,5.306
		c-8.943,3.103-17.889,6.205-26.832,9.309c-8.891,3.084-17.78,6.168-26.67,9.252L122.079,62.91c0.141,0.008,0.282,0.015,0.424,0.021
		c23.051,1.167,46.102,3.333,69.153,4.5c16.416,0.83,32.832,3.661,49.248,4.491c7.401,0.375,15.433,2.665,22.684,0.617
		c-0.186,1.297,0.628,2.212,0.674,3.349c2.14,0.191,4.415-0.189,6.3-0.852c0.25,3.495,2.896,4.242,6.014,3.013
		c0.802,2.225,1.498,4.501,4.523,4.002c1.217,7.312,2.361,11.158,1.844,18.764c-0.089,1.312-1.92,15.999-1.134,16.124
		c-1-0.158-2.444,0.4-3.421,0.21c1.739,3.113,1.483,19.903,2.826,19.605c-0.203,0.97,0.379,2.419,0.18,3.391
		c0.824-0.111,1.971,0.294,2.795,0.18c1.093-0.151,2.031,28.71,2.152,30.673c0.735,11.946,1.471,23.894,2.207,35.839
		C289.307,219.151,290.065,231.466,290.823,243.78z"/>
	<path fill="#BA6957" d="M69.239,288.69l55.826,12.594L122.079,62.91c-11.393,2.7-25.963,3.595-36.451,8.39
		c0.934,5.576-3.889,2.827-6.095,5.242c-2.602,2.848,3.101,6.955-5.211,6.033c-0.059,1.981-0.794,3.382-1.381,5.192
		c0.068-0.212-2.339,1.103-2.69,1.688c-0.664,1.107,0.439,3.493,0.416,4.697c-0.053,2.794,0.275,5.693,0.257,8.522
		c-0.038,5.95-0.107,11.899-0.161,17.849c-0.13,14.283-0.26,28.566-0.389,42.85c-0.264,29.085-0.526,58.169-0.79,87.254
		C69.47,263.315,69.354,276.003,69.239,288.69z"/>
	<g>
		<polygon fill="#B65F4C" points="272.256,245.625 245.021,253.495 242.583,195.765 270.069,190.518 		"/>
		<polygon fill="#B65F4C" points="178.175,134.976 144.175,136.976 143.175,85.976 177.175,85.976 		"/>
		<polygon fill="#B65F4C" points="181.175,195.525 147.175,201.525 146.175,149.525 179.175,146.525 		"/>
		<polygon fill="#B65F4C" points="184.175,256.614 149.175,267.614 148.175,215.614 181.175,208.614 		"/>
		<polygon fill="#B65F4C" points="224.474,132.658 194.267,134.479 193.327,87.706 222.653,88.706 		"/>
		<polygon fill="#B65F4C" points="228.354,186.469 198.087,192.11 195.147,145.278 225.474,143.457 		"/>
		<polygon fill="#B65F4C" points="231.175,242.786 198.968,252.249 198.028,205.417 228.354,198.775 		"/>
		<polygon fill="#B65F4C" points="264.399,132.113 239.163,132.737 237.289,90.513 262.776,91.513 		"/>
		<polygon fill="#B65F4C" points="269.149,179.815 241.787,185.062 238.912,142.712 266.399,141.089 		"/>
	</g>
</g>
<path fill="#788126" d="M59.997,290.901c4.484-0.941,7.77,1.914,9.701,5.746c-5.529-10.186-8.378-18.762-7.938-30.576
	c6.299,2.426,8.279,9.969,10.898,15.57c-1.368-10.012-5.658-30.836,0.492-37.861c4.717,6.807,4.681,18.141,8.008,26.371
	c0.585-6.758,0.023-22.409,7.784-24.381c3.236,7.299,4.085,16.634,0.308,31.632c4.061-10.188,8.795-15.53,14.883-20.331
	c2.244,6.752-2.305,23.315-2.735,28.072c2.345-2.006,8.604-5.766,12.848-6.613c-1.197,7.374-10.584,18.627-14.224,24.688
	c3.969-0.459,8.406-0.316,11.075,2.366c-4.807,2.308-8.105,4.013-14.392,4.349c2.475,1.891,3.302,5.291,3.776,8.123
	c-5.751,1.275-10-3.314-13.003-6.829c-1.856,5.139-6.953,9.459-11.52,11.27c0.268-1.81-0.521-4.174-0.295-6.004
	c-3.18,1.757-6.351,3.354-9.91,4.149c-0.451-4.206,2.378-8.164,4.358-10.992C65.587,305.972,59.441,291.019,59.997,290.901z"/>
<path fill="#89912B" d="M301.692,203.813c-4.283-6.885,4.65-6.75,8.691-6.698c3.236,0.041,2.627-1.532,5.537,0.786
	c1.324,1.057,1.602,3.352,2.736,4.622c1.637,1.837,5.246,1.695,6.23,4.623c0.314,0.938,0.932,5.593-1.855,4.492
	c4.545,1.795,6.805,6.146,3.875,9.187c5.197,2.058,9.479,7.808,4.904,11.271c11.654,5.754,3.979,11.393-4.254,10.811
	c5.844,8.812-6.504,12.119-13.496,10.823c3.221,5.446-2.918,6.812-7.721,4.699c-2.146,4.35-8.156,4.128-12.531,1.537
	c-3.152,4.687-15.688,1.781-15.395-4.263c-4.545,1.91-8.72-1.557-5.582-6.106c-6.92-0.089-6.516-7.623-1.761-10.145
	c-8.95-1.565-2.518-11.165,1.878-13.216c-7.795-3.979,0.941-11.539,6.622-11.472c-7.194-7.985,4.796-13.069,11.991-9.822
	c-6.708,3.99-5.829-11.345,7.969-1.415C299.532,203.528,301.692,203.814,301.692,203.813z"/>
<path fill="#C37B6B" d="M238.55,267.66c2.725,0.11,5.508-0.39,8.139-0.581c0.334,0.421,1.035,1.665,1.232,2.145
	c-3.312,1.078-6.459,1.746-9.459,3.107C238.462,272.331,237.761,269.606,238.55,267.66z"/>
<path fill="#BA6957" d="M510.597,295.899c0.133-1.765,0.082-3.606,0.002-5.372c-2.184,0.867-5.965-0.648-8.32,0.363
	c-1.588,0.681-1.982,3.603-2.869,5.04C500.356,296.325,510.536,296.713,510.597,295.899z"/>
<path fill="#BA6957" d="M540.185,302.853c2.268,2.229,0.75,4.223,0.002,7.434c-2.506-2.418-12.236-5.145-12.236-5.145
	s2.125-2.385,2.898-4.428C533.524,300.781,538.069,300.772,540.185,302.853z"/>
<path fill="#89912B" d="M543.907,330.562c-6.041-4.678-6.379-11.683-0.48-15.17c-2.203-2.936-2.834-6.598-1.58-9.807
	c0.604-1.539,1.607-2.959,3.047-3.691c0.346-0.176,4.256-1.07,4.258-0.303c-0.008-3.561-0.105-6.155,2.979-7.928
	c2.936-1.688,7.314-1.256,9.621,1.987c1.334-3.007,2.711-6.577,6.654-6.816c3.18-0.194,4.721,2.801,7.227,4.106
	c2.711,1.415,3.908-0.77,6.623-0.611c1.662,0.097,3.264,0.783,4.598,1.969c1.475,1.311,1.73,3.699,2.908,4.832
	c2.816,2.711,6.541-0.904,9.74,2.463c0.857,0.903,4.383,8.908,2.18,9.211c5.99-0.822,12.311,2.544,14.264,9.191
	c2.648-1.057,6.469,1.591,7.119,4.897c0.383,1.984-1.744,3.138-0.469,5.331c1.311,2.252,4.707,2.209,4.119,5.918
	c-0.289,1.824-2.652,3.552-3.465,5.227c6.523,3.068,0.15,10.745-4.141,10.808c0.076,3.411-3.289,5.567-5.982,6.358
	c-1.291,0.379-8.533-0.691-8.949,0.217c-2.178,4.76-11.945,6.89-14.961,0.525c-1.715,5.592-9.988,7.164-13.373,1.168
	c-4.84,5.118-14.029,2.664-15.773-5.175c-4.283,4.675-17.074,1.233-12.354-6.22c-4.373-0.402-8.869-5-9.58-9.775
	C537.843,337.306,540.724,328.097,543.907,330.562z"/>
<g>
	<g>
		<g>
			<g>
				<path fill="#7A574A" d="M456.243,340.646c-0.822,0.138-2.715,0.4-3.404-0.016c-1.484-0.896,0.885-1.961,2.088-2.351
					C458.019,337.279,459.903,340.031,456.243,340.646z"/>
				<path fill="#7A574A" d="M480.825,340.598c0.828,0.085,2.734,0.231,3.395-0.228c1.426-0.984-1.004-1.901-2.23-2.215
					C478.845,337.349,477.132,340.212,480.825,340.598z"/>
			</g>
			<g>
				<g>
					<path fill="#7A574A" d="M475.159,314.648c-7.854,0-18.779-2.576-22.527-6.41c-0.217-0.222-0.4-0.446-0.566-0.673
						c-2.924,10.303,1.095,24.158,2.146,29.895l2.98-0.066c2.574-8.24,6.84-16.108,10.924-18.516
						c4.754,3.758,7.98,10.391,11.154,18.457l3.266-0.124c1.482-8.074,2.52-17.212,0.819-24.358
						C481.796,314.034,479.025,314.648,475.159,314.648z"/>
				</g>
			</g>
			<path fill="#7A574A" d="M443.702,301.44c0.404-0.241,0.531-1.008,0.422-1.445c-0.207-0.84-0.66-1.893-1.562-1.969
				c-1.98-0.168-3.648,2.89-2.562,4.521c0.289,0.436,1.012,0.697,1.463,0.266c0.541-0.518-0.016-1.869,0.834-2.249
				c0.566-0.255,0.264,0.579,0.764,0.845C443.323,301.55,443.536,301.54,443.702,301.44z"/>
			<path fill="#7A574A" d="M498.11,303.351c-0.416,0.217-1.135-0.08-1.449-0.402c-0.605-0.62-1.26-1.561-0.85-2.365
				c0.902-1.772,4.381-1.578,5.195,0.205c0.217,0.475,0.059,1.229-0.547,1.383c-0.725,0.188-1.58-0.998-2.352-0.477
				c-0.516,0.348,0.354,0.529,0.316,1.095C498.403,303.087,498.282,303.263,498.11,303.351z"/>
			<path fill="#7A574A" d="M488.007,260.411c-0.346-0.143-0.73-0.293-1.139-0.445c1.285,2.721,1.727,5.775,1.242,8.952
				c-0.324,2.12-0.885,4.01-1.586,5.675l0.734-1.051l0.57,0.866c0,0,2.646-8.196,0.273-13.808
				C488.074,260.534,488.038,260.477,488.007,260.411z"/>
			<g>
				<path fill="#7A574A" d="M481.534,281.449c-1.344,1.032-2.672,1.573-3.762,1.573l-0.127-0.002
					c-2.684-0.107-7.156-1.875-10.677-4.947c-11.528,1.123-20.435,10.33-25.319,18.467l2.961,2.12
					c6.281-7.987,13.844-10.534,13.844-10.534s-3.432,9.025-6.215,17.086c-0.154,6.812,29.715,11.918,31.504,5.479
					c0.764-9.621-0.467-18.173-0.467-18.173s2.4,5.502,10.816,8.888l1.668-2.058C490.767,295.435,488.907,286.454,481.534,281.449z"
					/>
			</g>
			<g>
				<path fill="#7A574A" d="M479.577,257.53c-3.014,0.203-5.547,3.161-6.406,4.562c-0.494,0.802-1.658,2.212-2.74,6.099
					c-0.809,2.905-1.775,8.953-1.793,9.01c-0.76-0.268-2.045-1.75-2.045-1.75l-1.311,3.863l-2.547-3.455l-0.756,2.033
					c0,0-2.301-7.042-1.807-12.641c0.475-5.317,3.594-9.201,6.172-10.95c2.141-1.45,4.297-2.386,7.203-2.401
					c3.213-0.017,5.77,1.01,9.34,2.008c2.842,0.796,8.506,1.533,8.506,1.533l-4.432,1.547l3.428,3.397
					C490.39,260.385,484.169,257.222,479.577,257.53z"/>
			</g>
			<path fill="#7A574A" d="M480.229,258.509c-0.197,0-0.393,0.007-0.585,0.02c-2.665,0.179-4.962,3.011-5.622,4.088
				c-0.072,0.116-0.156,0.245-0.253,0.391c-0.555,0.839-1.483,2.242-2.376,5.452c-0.314,1.131-0.867,3.542-1.718,8.606
				c-0.044,0.258-0.075,0.404-0.077,0.414l-0.295,1.017l-0.447-0.157c3.266,2.426,6.879,3.604,8.83,3.682
				c2.492,0.1,8.035-4.092,9.436-13.254c0.539-3.533-0.16-6.694-1.615-9.271C483.839,258.96,481.937,258.509,480.229,258.509z
				 M479.122,270.175c-0.48-0.009-0.854-0.76-0.84-1.676c0.02-0.916,0.422-1.652,0.898-1.645c0.479,0.01,0.854,0.758,0.836,1.678
				C480.001,269.448,479.599,270.183,479.122,270.175z M484.882,270.001c-0.424-0.009-0.75-0.772-0.734-1.709
				c0.018-0.936,0.373-1.688,0.793-1.681c0.42,0.009,0.748,0.772,0.732,1.708C485.657,269.257,485.298,270.007,484.882,270.001z"/>
		</g>
	</g>
</g>
</svg>
