<?xml version="1.0" encoding="utf-8"?>
<!-- Generator: Adobe Illustrator 15.0.2, SVG Export Plug-In . SVG Version: 6.00 Build 0)  -->
<!DOCTYPE svg PUBLIC "-//W3C//DTD SVG 1.1//EN" "http://www.w3.org/Graphics/SVG/1.1/DTD/svg11.dtd">
<svg version="1.1" id="Layer_1" xmlns="http://www.w3.org/2000/svg" xmlns:xlink="http://www.w3.org/1999/xlink" x="0px" y="0px"
	 width="720px" height="460px" viewBox="0 0 720 460" enable-background="new 0 0 720 460" xml:space="preserve">
<g>
	<polygon fill="#D19B8F" points="427.141,140.646 126.648,266.797 302.951,449.422 599.104,207.578 	"/>
	<polygon fill="#F5EBD1" points="427.141,140.646 126.648,266.797 101.896,33.209 437.781,10.578 	"/>
	<g>
		<g>
			<g>
				<polygon fill="#A1906D" points="259.136,208.049 250.851,204.818 241.251,205.891 241.419,286.846 249.833,294.082 
					259.052,286.873 				"/>
			</g>
		</g>
		<g>
			<g>
				<polygon fill="#A1906D" points="204.673,185.605 198.5,183.197 189.947,184.695 191,241.502 197.269,246.896 205.535,242.223 
									"/>
			</g>
		</g>
		<g>
			<g>
				<polygon fill="#A1906D" points="397.738,157.215 391.908,154.939 385.152,155.695 382.457,210.701 388.377,215.795 
					394.863,211.104 				"/>
			</g>
		</g>
		<g>
			<g>
				<polygon fill="#A1906D" points="406.025,150.988 174.103,172.559 175.98,182.711 239.789,228.861 405.086,158.324 				"/>
				<polygon fill="#AE9E7D" points="406.025,150.988 239.789,214.957 174.103,172.559 340.195,126.578 				"/>
			</g>
		</g>
	</g>
	<g>
		<g>
			<polygon fill="#B5B6B3" points="236.488,124.451 235.164,123.438 232.515,63.865 310.516,53.934 			"/>
			<polygon fill="#C7C4BA" points="311.84,107.898 236.488,124.451 233.839,63.865 311.84,53.934 			"/>
			<path fill="#F9F7F0" d="M318.572,105.416l-75.485,15.891c0,0-4.139-9.602-5.629-21.852c-1.557-12.797-2.295-35.59-2.295-35.59
				l78-9.932c0,0-1.1,14.572,0.441,29.301C315.094,97.469,318.572,105.416,318.572,105.416z"/>
			<polygon fill="#B5B6B3" points="313.494,50.107 233.728,67.838 232.072,66.633 231.687,55.818 311.84,48.9 			"/>
			<polygon fill="#C7C4BA" points="313.494,58.066 233.728,67.838 233.341,57.023 313.494,50.107 			"/>
			<polygon fill="#DDDBD5" points="284.617,69.826 266.24,72.143 266.078,68.48 284.617,66.184 			"/>
			<g>
				<path fill="#DCDAD4" d="M253.515,112.057c-2.591-10.16-4.076-21.979-4.076-32.428h1c0,10.369,1.474,22.098,4.045,32.182
					L253.515,112.057z"/>
				<path fill="#DCDAD4" d="M266.212,109.143c-2.516-9.857-3.957-21.328-3.957-31.471h1c0,10.064,1.431,21.443,3.926,31.223
					L266.212,109.143z"/>
				<path fill="#DCDAD4" d="M278.515,107.025c-2.516-9.865-3.957-21.346-3.957-31.498h1c0,10.072,1.431,21.463,3.926,31.252
					L278.515,107.025z"/>
				<path fill="#DCDAD4" d="M290.917,104.492c-2.646-10.373-3.986-20.648-3.986-30.537h1c0,9.807,1.33,19.996,3.955,30.289
					L290.917,104.492z"/>
				<path fill="#DCDAD4" d="M303.547,102.26c-2.453-9.617-3.858-20.807-3.858-30.697h1c0,9.811,1.395,20.91,3.827,30.451
					L303.547,102.26z"/>
			</g>
			
				<rect x="275.031" y="53.089" transform="matrix(0.1524 0.9883 -0.9883 0.1524 316.9794 -200.7636)" fill="#DCDAD4" width="1" height="62.645"/>
			
				<rect x="276.088" y="62.703" transform="matrix(0.1748 0.9846 -0.9846 0.1748 320.6737 -194.8524)" fill="#DCDAD4" width="1" height="62.377"/>
			
				<rect x="277.846" y="71.326" transform="matrix(0.1991 0.98 -0.98 0.1991 323.6131 -190.4837)" fill="#DCDAD4" width="1.001" height="62.845"/>
		</g>
		<path fill="#C9887A" d="M268.849,97.553c-2.002,0-4.734-0.373-6.568-2.115c-1.409-1.338-2.047-3.268-1.896-5.734
			c0.141-2.299,1.191-4.086,3.037-5.168c0.078-0.047,0.158-0.092,0.239-0.135c0.539-0.65,1.232-1.154,2.298-1.555
			c1.637-0.615,3.043-0.889,4.701-0.91c2.656-0.043,4.775,0.734,6.595,4.605c1.278,2.721,1.382,5.072,0.312,6.99
			c-1.381,2.471-4.452,3.645-6.865,3.916C270.242,97.5,269.596,97.553,268.849,97.553z M262.96,85.453
			c-1.268,1.008-1.965,2.445-2.077,4.281c-0.142,2.312,0.444,4.109,1.743,5.342c2.363,2.244,6.396,2.057,8.018,1.875
			c2.291-0.26,5.196-1.357,6.485-3.664c0.987-1.77,0.878-3.967-0.327-6.533c-1.712-3.643-3.637-4.363-6.136-4.318
			c-1.598,0.021-2.953,0.283-4.532,0.879c-0.398,0.15-0.738,0.314-1.035,0.496c2.643-0.801,5.852-0.455,7.879,0.523
			c1.625,0.783,3.595,2.42,4.254,4.66c0.463,1.574,0.207,3.174-0.76,4.754c-2.075,3.393-6.869,3.496-9.402,2.766
			c-3.859-1.117-5.873-3.328-5.67-6.229c0.036-0.514,0.129-1.004,0.271-1.469l-0.243-0.117c0.269-0.557,0.497-1.062,0.706-1.525
			C262.426,86.527,262.683,85.957,262.96,85.453z M262.46,88.176c-0.312,0.648-0.508,1.369-0.562,2.145
			c-0.237,3.383,2.757,4.975,5.31,5.713c2.393,0.693,6.907,0.611,8.837-2.547c0.891-1.455,1.128-2.918,0.706-4.352
			c-0.612-2.084-2.463-3.613-3.99-4.35c-2.277-1.1-6.105-1.369-8.773,0.008c-0.373,0.467-0.67,1.02-0.986,1.688
			c1.316-1.449,3.344-2.32,5.732-2.32c3.288,0,5.866,2.029,6.568,5.166c0.377,1.693,0.198,3.062-0.531,4.072
			c-0.75,1.037-2.05,1.656-3.862,1.838c-3.692,0.359-7.25-2.16-8.249-4.75C262.347,89.676,262.285,88.896,262.46,88.176z
			 M264.2,86.07l0.179,0.24c-1.4,1.035-1.846,2.455-1.252,3.994c0.914,2.369,4.317,4.787,7.732,4.434
			c1.664-0.166,2.844-0.715,3.506-1.633c0.643-0.889,0.794-2.123,0.449-3.67c-0.788-3.523-3.768-4.775-6.08-4.775
			C266.95,84.66,265.382,85.176,264.2,86.07z"/>
		<path fill="#D8642E" d="M268.931,91.676c0,0-0.184,0.186-0.436,0.229c-0.373,0.061-0.629-0.021-0.629-0.021l0.105-0.377
			c0,0-1.861-0.209-2.373-2.18c-0.295-1.129-0.094-2.359,1.619-2.797c1.607-0.41,2.426,1.031,2.553,2.215
			c0.188,1.758-1.338,2.658-1.338,2.658L268.931,91.676z"/>
		<path fill="#5FB8AC" d="M256.527,82.928c-0.646-0.74-0.379-1.531,0.703-1.936c0.697-0.26,1.822,0.152,1.822,0.152
			s-0.631-1.264,0.414-1.715c0.898-0.387,1.666,0.211,2.004,1.051c0.398,0.99,0.697,3.387,0.697,3.387s-1.438,0.58-2.543,0.543
			C258.492,84.373,257.281,83.787,256.527,82.928z"/>
		<path fill="#5FB8AC" d="M278.05,85.09c0.053-0.982,0.799-1.361,1.855-0.895c0.68,0.303,1.197,1.383,1.197,1.383
			s0.432-1.344,1.492-0.938c0.914,0.352,1.047,1.316,0.699,2.154c-0.406,0.984-1.865,2.908-1.865,2.908s-1.436-0.59-2.201-1.389
			C278.445,87.496,277.99,86.232,278.05,85.09z"/>
		<path fill="#C9BB9C" d="M272.362,93.605c-0.042-0.203-0.152-0.355-0.28-0.535c-0.148-0.209-0.312-0.439-0.377-0.77
			c-0.381,0.031-0.627-0.018-0.785-0.166c-0.209-0.195-0.186-0.469-0.165-0.709c0.022-0.268,0.027-0.441-0.106-0.574
			c-0.15-0.152-0.975,0.186-1.416,0.365c-0.513,0.211-0.965,0.371-1.27,0.379l0.019-0.5c0.209,0,0.661-0.178,1.062-0.342
			c0.809-0.328,1.573-0.641,1.959-0.256c0.309,0.307,0.275,0.691,0.252,0.971c-0.01,0.102-0.023,0.271,0.007,0.299
			c0.01,0.012,0.111,0.088,0.628,0.006l0.285-0.045l0.004,0.289c0.003,0.33,0.146,0.529,0.312,0.764
			c0.139,0.195,0.297,0.416,0.361,0.721L272.362,93.605z"/>
		<path fill="#C7C4BA" d="M233.885,56.432l-0.093-0.996c1.363-0.127,33.409-3.107,35.817-3.232c1.399-0.074,1.771-1.039,2.198-2.158
			c0.393-1.023,0.837-2.184,2.246-2.184c1.395,0,2.14,1.115,2.797,2.098c0.723,1.082,1.233,1.73,2.121,1.686
			c1.119-0.061,1.392-0.086,2.451-0.18c2.093-0.186,7.652-0.682,30.379-2.377l0.074,0.998c-22.719,1.693-28.274,2.189-30.365,2.375
			c-1.075,0.096-1.351,0.121-2.485,0.182c-1.537,0.09-2.314-1.092-3.007-2.127c-0.594-0.889-1.106-1.654-1.966-1.654
			c-0.656,0-0.893,0.445-1.312,1.541c-0.435,1.137-1.031,2.693-3.08,2.799C267.274,53.324,234.218,56.4,233.885,56.432z"/>
	</g>
	<polygon fill="#E6DBC3" points="599.104,207.578 427.141,140.646 437.781,10.578 618.104,47.578 	"/>
	<polygon fill="#BCAD8D" points="561.104,192.578 497.104,169.578 511.104,58.578 578.104,73.578 	"/>
	<polygon fill="#C4B79B" points="558.342,191.742 501.863,171.445 514.217,66.453 573.344,79.689 	"/>
	<g>
		<g>
			<g>
				<g>
					<path fill="#7A574A" d="M379.594,250.527c-0.037-0.045-0.078-0.086-0.115-0.129c-2.979,8.314-22.75,12.898-35.953,12.898
						c-3.652,0-9.178-0.367-12.555-2.291c-0.535,16.562,6.725,35.742-5.135,49.553l5.102,4.346
						c16.215-8.037,24.584-26.152,28.5-39.992c10.332,2.334,14.666,13,16.605,26.057l6.061,0.611
						C388.252,282.219,387.994,260.508,379.594,250.527z"/>
				</g>
			</g>
			<g>
				<path fill="#7A574A" d="M395.678,235.279c-0.363-0.479,1.115-1.777-1.045-2.531c-1.16-0.406-3.246,0.451-3.771,0.688
					c-1.674,0.75-2.805,1.873-3.139,3.225c-0.277,1.131,0.092,2.488,0.807,3.682c3.174,5.324,11.109,3.051,10.344-3.145
					C398.648,235.381,395.812,235.457,395.678,235.279z"/>
			</g>
			<g>
				<path fill="#7A574A" d="M378.695,308.008c1.625,0.328,5.379,0.977,6.775,0.191c3.014-1.688-1.633-3.961-4.002-4.818
					C375.383,301.191,371.449,306.547,378.695,308.008z"/>
			</g>
			<g>
				<path fill="#7A574A" d="M323.805,318.816c1.416,0.859,4.715,2.752,6.299,2.492c3.41-0.555,0.051-5.49-1.889-7.104
					C323.244,310.066,317.488,314.965,323.805,318.816z"/>
			</g>
			<g>
				<g>
					<path fill="#7A574A" d="M354.541,236.721c8.633,6.721,21.203,8.809,32.139,5.367l-1.006-6.16
						c-22.984,1.127-25.791-16.848-25.816-17.029l0.99-0.141c0.092,0.639,2.225,14.084,18.68,15.99
						c-0.455-5.467-1.652-11.262-3.312-18.432c-1.424-6.139-3.879-12.1-7.572-16.559c-1.861,0.395-4.131,0.617-6.396,0.617
						c-3.682,0-8.717-0.551-13.645-2.834c-0.236,0.234-0.469,0.457-0.682,0.654l-0.801,0.74l-0.668-0.863
						c-0.75-0.967-1.43-1.936-2.004-2.795c-2.705,1.301-5.043,2.947-6.229,4.74c-5.029,7.604-5.809,11.098-8.115,19.355
						c-1.555,5.58-4.529,26.611-0.928,38.258c2.896,9.379,47.26,3.615,49.594-8.385c0.312-1.607,0.535-3.166,0.693-4.701
						c0.004-0.002,0.008-0.002,0.012-0.002c-1.191,0.113-2.389,0.176-3.584,0.176c-7.99,0-15.914-2.5-21.965-7.209
						c-7.865-6.123-11.797-15.258-11.072-25.725l0.998,0.068C343.15,221.979,346.945,230.809,354.541,236.721z"/>
				</g>
				<path fill="#7A574A" d="M326.867,189.385c1.906-4.262,1.162-11.01,0.727-16.842c-0.793-10.701,0.096-13.957,4.002-18.848
					c3.248-4.061,6.797-7.248,12.404-8.898c6.678-1.963,14.666-0.979,19.312,0.824c1.949,0.758,5.902,2.096,9.828,3.803
					c2.611,1.133,9.912,2.307,12.84,1.709c-1.381,1.887-6.246,3.846-8.895,5.029c2.656,1.639,7.873,2.402,8.127,2.992
					c-6.93,2.865-14.979,2.939-23.562,2.529c-0.697,5.334-1.973,11.301-4.141,18.725c-2.178,7.459-6.244,13.332-10.268,17.053
					c-2.109-2.725-3.715-5.531-3.715-5.531s-3.139,2.279-8.859,4.209c0.578-3.461-0.102-6.996-0.102-6.996
					S330.42,189.17,326.867,189.385z"/>
			</g>
			<path fill="#7A574A" d="M379.443,167.918c-0.307-2.035-0.795-3.947-1.432-5.74c-2.857,0.465-6.053,0.688-9.756,0.688
				c-1.705,0-3.547-0.045-5.738-0.141c-0.762,5.4-2.055,11.139-4.049,17.965c-2.281,7.814-6.254,13.084-9.109,16.082
				c7.66,3.406,16.092,2.834,19.979,1.797C374.121,197.295,382.164,186.104,379.443,167.918z M374.959,180.109
				c-0.949,0.074-1.832-1.334-1.979-3.146c-0.148-1.811,0.504-3.344,1.449-3.418c0.945-0.072,1.834,1.328,1.977,3.145
				C376.553,178.502,375.902,180.033,374.959,180.109z"/>
		</g>
	</g>
	<g>
		<polygon fill="#C4B79B" points="555.297,121.607 519.854,111.578 523.768,81.5 560.678,89.865 		"/>
		<path fill="#BCAD8D" d="M556.496,123.506l-38.297-10.837l4.293-32.996l39.902,9.043L556.496,123.506z M521.508,110.487
			l32.59,9.222l4.865-28.694l-33.92-7.688L521.508,110.487z"/>
	</g>
	<g>
		<polygon fill="#C4B79B" points="549.309,163.094 514.023,150.988 518.104,120.328 554.281,130.467 		"/>
		<path fill="#BCAD8D" d="M550.521,165.096l-38.148-13.087l4.471-33.591l39.121,10.963L550.521,165.096z M515.672,149.968
			l32.426,11.124l4.502-29.539l-33.238-9.314L515.672,149.968z"/>
	</g>
</g>
</svg>
