<?xml version="1.0" encoding="utf-8"?>
<!-- Generator: Adobe Illustrator 15.0.2, SVG Export Plug-In . SVG Version: 6.00 Build 0)  -->
<!DOCTYPE svg PUBLIC "-//W3C//DTD SVG 1.1//EN" "http://www.w3.org/Graphics/SVG/1.1/DTD/svg11.dtd">
<svg version="1.1" id="Layer_1" xmlns="http://www.w3.org/2000/svg" xmlns:xlink="http://www.w3.org/1999/xlink" x="0px" y="0px"
	 width="720px" height="460px" viewBox="0 0 720 460" enable-background="new 0 0 720 460" xml:space="preserve">
<path fill="#C4C63A" d="M284.196,243.31c143.651-8.289,274.573,0.678,360.749,38.918c57.324,25.438,52.354,59.156,5.658,79.295
	c-51.941,22.403-157.354,40.881-306.564,40.881c-144.199,0-253.979-26.674-294.639-52.704
	c-29.233-18.714-19.272-50.119,33.303-69.88C139.926,258.314,196.919,248.344,284.196,243.31z"/>
<g>
	<g>
		<polygon fill="#AE9E7D" points="187.008,313.829 165.341,313.829 160.614,237.402 182.282,237.402 		"/>
		<polygon fill="#A1906D" points="187.008,313.829 194.493,305.161 190.554,236.613 182.282,237.402 		"/>
	</g>
	<g>
		<polygon fill="#AE9E7D" points="519.505,313.829 541.173,313.829 545.899,237.402 524.231,237.402 		"/>
		<polygon fill="#A1906D" points="519.505,313.829 512.021,305.161 515.96,236.613 524.231,237.402 		"/>
	</g>
	<g>
		<polygon fill="#AE9E7D" points="147.567,347.359 120.758,347.359 114.91,252.8 141.717,252.8 		"/>
		<polygon fill="#A1906D" points="147.567,347.359 156.827,336.636 151.953,251.825 141.717,252.8 		"/>
	</g>
	<g>
		<polygon fill="#AE9E7D" points="558.946,347.359 585.757,347.359 591.604,252.8 564.796,252.8 		"/>
		<polygon fill="#A1906D" points="558.946,347.359 549.687,336.636 554.56,251.825 564.796,252.8 		"/>
	</g>
	<g>
		<g>
			<polygon fill="#AE9E7D" points="340.618,314.585 333.78,314.585 332.288,261.455 339.126,261.455 			"/>
			<polygon fill="#A1906D" points="340.618,314.585 342.979,311.85 341.737,261.207 339.126,261.455 			"/>
		</g>
		<g>
			<polygon fill="#AE9E7D" points="409.849,314.585 416.687,314.585 418.179,261.455 411.341,261.455 			"/>
			<polygon fill="#A1906D" points="409.849,314.585 407.485,311.85 408.729,261.207 411.341,261.455 			"/>
		</g>
	</g>
	<g>
		<polygon fill="#AE9E7D" points="426.198,258.991 323.524,258.991 336.411,240.226 417.585,240.226 		"/>
		<polygon fill="#A1906D" points="425.437,265.077 324.284,265.077 323.524,258.991 426.198,258.991 		"/>
	</g>
	<g>
		<g>
			<g>
				<path fill="#7A574A" d="M415.118,239.462c-3.672,1.224-7.768,2.225-12.252,2.983c-23.281,3.941-57.537,0.702-69.471-10.64
					c-1.027,25.246,3.252,39.159,12.566,57.711l7.955-0.417c0.289-18.999,7.627-33.105,23.223-38.955
					c18.035,5.85,20.242,23.987,21.393,38.666l7.771,1.439C415.228,271.254,418.104,262.906,415.118,239.462z"/>
			</g>
		</g>
		<path fill="#7A574A" d="M354.704,297.815c0.381,3.713-0.801,7.745-3.549,8.188c-2.51,0.401-5.146-2.779-5.879-6.74
			C343.687,290.678,353.69,287.94,354.704,297.815z"/>
		<path fill="#7A574A" d="M396.962,297.412c-0.365,3.439,0.773,8.536,3.67,9.05c2.746,0.486,5.465-2.69,6.359-6.904
			C408.806,290.997,398.017,287.54,396.962,297.412z"/>
	</g>
	<g>
		<rect x="333.247" y="155.948" fill="#A1906D" width="89.527" height="57.736"/>
		<polygon fill="#AE9E7D" points="420.456,153.354 335.565,153.354 333.247,155.948 422.774,155.948 		"/>
	</g>
	<g>
		<polygon fill="#AE9E7D" points="619.876,242.077 81.765,242.077 146.104,206.009 552.61,206.009 		"/>
		<polygon fill="#A1906D" points="618.411,253.775 83.227,253.775 81.765,242.077 619.876,242.077 		"/>
	</g>
	<path fill="#7A574A" d="M433.132,221.479c-2.863,2.624-10.971,2.128-12.367-2.128c-1.498-4.564,2.01-5.666,2.01-5.666
		s0.549-2.742,3.264-3.618c2.992-0.965,7.227,0.723,8.48,3.801C435.587,216.49,435.177,219.605,433.132,221.479z"/>
	<g>
		<g>
			<path fill="#7A574A" d="M397.393,140.722c-7.093,6.373-15.46,10.477-21.716,10.477c-6.998,0-15.796-4.225-22.992-10.909
				c-27.027,9.958-39.869,38.304-27.148,68.369l6.396-5.301c-4.088-25.201,9.139-26.229,9.139-26.229s-0.246,7.652-4.021,28.88
				h78.994c-1.637-16.02-2.436-26.022-2.436-26.022s13.371,5.55,12.639,27.484l9.506,2.924
				C443.114,179.471,424.177,151.112,397.393,140.722z"/>
		</g>
		<g>
			<path fill="#7A574A" d="M403.1,107.661c-4.757-3.931-15.954-16.865-20.146-25.165c-7,6.825-23.227,12.092-28.98,13.803
				c-0.367,1.071-0.782,2.33-1.252,3.756c-1.434,4.348-3.396,10.304-6.449,18.445c-0.92,2.457-2.074,4.905-3.326,7.249
				c8.09,15.85,23.224,24.449,32.73,24.449c8.234,0,21.483-7.654,30.031-20.719C405.665,122.209,405.122,113.449,403.1,107.661z
				 M361.888,121.789c-1.662,0.01-2.961-2.059-2.914-4.621c0.053-2.559,1.441-4.643,3.09-4.652c1.652-0.009,2.959,2.056,2.906,4.622
				C364.921,119.699,363.538,121.781,361.888,121.789z M388.603,121.81c-1.658,0.007-2.953-2.177-2.9-4.884
				c0.057-2.705,1.449-4.903,3.104-4.913c1.654-0.005,2.949,2.18,2.893,4.885C391.644,119.605,390.243,121.798,388.603,121.81z"/>
		</g>
		<path fill="#7A574A" d="M417.841,89.272c-7.92-18.96-17.303-28.273-32.902-30.709c-23.395-4.876-45.086,9.262-52.396,29.733
			c-5.797,16.226-6.139,28.322-12.678,37.418c5.4-0.141,10.484-2.446,10.484-2.446l0.668,18.4c0,0,9.934-11.82,14.32-23.52
			c3.885-10.362,6.027-17.254,7.484-21.567c-4.715,1.292-10.893,1.763-11.166,1.783l-1.328,0.098l0.935-0.948
			c0.064-0.066,6.506-6.625,9.313-11.63l0.872,0.49c-2.251,4.014-6.625,8.84-8.542,10.873c2.246-0.224,6.893-0.783,10.328-1.822
			l0.014,0.044c7.205-2.112,22.711-7.35,29.186-13.871c-0.799-1.63-2.273-4.826-2.721-7.068l0.98-0.196
			c0.396,1.985,1.669,4.816,2.473,6.481c0.021-0.025,0.047-0.05,0.068-0.075c3.456,7.962,15.274,21.759,20.361,26.028l0.008-0.009
			c2.766,2.29,6.832,4.605,8.816,5.683c-0.98-2.617-3.143-8.76-3.662-13.333l0.993-0.113c0.648,5.705,4.046,14.244,4.08,14.33
			l0.495,1.236l-1.187-0.605c-0.226-0.115-4.919-2.521-8.664-5.258c3.54,12.108,1.827,33.729,1.827,33.729l8.16-11.633l2.562,6.131
			C417.024,136.927,425.882,108.525,417.841,89.272z"/>
	</g>
	<g>
		<g>
			<path fill="#DE723A" d="M476.241,184.697c-6.312,0-11.428,1.734-11.428,3.874l2.939,28.277c0,1.59,3.801,2.878,8.488,2.878
				s8.486-1.288,8.486-2.878l2.939-28.277C487.667,186.432,482.552,184.697,476.241,184.697z"/>
			<ellipse fill="#D35623" cx="476.24" cy="188.571" rx="9.688" ry="3.111"/>
		</g>
		<path fill="#AE9E7D" d="M471.53,192.842l-3.07,0.417c0,0-2.678-21.639-3.053-25.154c-0.453-4.246-0.453-6.366,0.543-6.506
			c0.994-0.143,1.717,1.896,2.35,6.055C468.792,170.892,471.53,192.842,471.53,192.842z"/>
		<g>
			<path fill="#AE9E7D" d="M478.575,167.716l3.445,0.15c0,0-0.719,23.099-0.975,27.857c-0.312,5.746-1.83,8.523-1.83,8.523
				s-1.525-2.923-1.428-8.592C477.86,191.243,478.575,167.716,478.575,167.716z"/>
			<polygon fill="#AAABA8" points="482.021,167.866 478.575,167.716 478.011,161.22 483.14,161.249 			"/>
			<polygon fill="#883830" points="483.337,155.606 478.013,155.764 478.011,161.249 483.14,161.249 			"/>
		</g>
		<g>
			<path fill="#BF9930" d="M474.554,175.74l3.098,0.112c0,0-0.646,17.134-0.877,20.663c-0.279,4.262-1.645,6.323-1.645,6.323
				s-1.369-2.167-1.283-6.372C473.913,193.192,474.554,175.74,474.554,175.74z"/>
			<polygon fill="#AAABA8" points="477.651,175.853 474.554,175.74 474.048,170.921 478.657,170.945 			"/>
			<polygon fill="#6C0900" points="479.831,165.753 473.323,165.522 474.048,170.945 478.657,170.945 			"/>
		</g>
		<g>
			<path fill="#902E1F" d="M482.896,175.097l3.023,0.676c0,0-3.748,16.732-4.615,20.16c-1.049,4.139-2.766,5.918-2.766,5.918
				s-0.953-2.381-0.105-6.497C479.095,192.146,482.896,175.097,482.896,175.097z"/>
			<polygon fill="#9F9F9D" points="485.919,175.772 482.89,175.133 483.021,171.628 487.265,172.538 			"/>
			<path fill="#6C0900" d="M488.761,167.903c-0.441-2.103-2.371-4.571-2.371-4.571s-2.639,1.353-3.242,3.628
				c-0.605,2.276-0.127,4.668-0.127,4.668l4.244,0.91C487.265,172.538,489.175,169.898,488.761,167.903z"/>
		</g>
		<g>
			<path fill="#9F4B3D" d="M462.562,180.655l2.76-1.406c0,0,7.771,15.284,9.287,18.479c1.828,3.859,1.637,6.325,1.637,6.325
				s-2.248-1.228-4.219-4.945C470.493,196.216,462.562,180.655,462.562,180.655z"/>
			<polygon fill="#888886" points="465.321,179.249 462.579,180.688 460.446,177.901 464.296,175.899 			"/>
			<path fill="#822E26" d="M461.327,170.364c-1.721-1.289-4.455-5.035-4.455-5.035s-1.201,5.342-0.389,7.554
				c1.357,3.679,3.963,5.019,3.963,5.019l3.85-2.002C464.296,175.899,463.651,172.109,461.327,170.364z"/>
		</g>
		<path fill="#DE723A" d="M485.899,188.474c0.004,0.033,0.029,0.062,0.029,0.098c0,1.72-4.336,3.111-9.688,3.111
			s-9.689-1.392-9.689-3.111c0-0.035,0.027-0.064,0.029-0.098h-1.74c-0.002,0.033-0.027,0.062-0.027,0.098l2.939,28.277
			c0,1.59,3.801,2.878,8.488,2.878s8.486-1.288,8.486-2.878l2.939-28.277c0-0.035-0.023-0.064-0.029-0.098H485.899z"/>
	</g>
	<g>
		<g>
			<path fill="#B5B6B3" d="M264.28,180.655c-7.08,0-12.818,1.742-12.818,3.891l3.299,28.412c0,1.598,4.262,2.893,9.52,2.893
				s9.52-1.295,9.52-2.893l3.299-28.412C277.098,182.397,271.358,180.655,264.28,180.655z"/>
			<ellipse fill="#AAABA8" cx="264.279" cy="184.546" rx="11.853" ry="3.41"/>
		</g>
		<g>
			<path fill="#B5B6B3" d="M264.28,200.325c-5.492,0-10.082-1.095-11.285-2.571l1.766,15.204c0,1.598,4.262,2.893,9.52,2.893
				s9.52-1.295,9.52-2.893l1.766-15.205C274.364,199.23,269.775,200.325,264.28,200.325z"/>
		</g>
		<ellipse fill="#C7C4BA" cx="264.28" cy="197.149" rx="11.363" ry="3.27"/>
	</g>
	<g>
		<path fill="#9F4B3D" d="M264.245,225.747l-0.707-2.967c0,0,16.439-3.902,19.852-4.614c4.12-0.854,6.438-0.103,6.438-0.103
			s-1.698,1.869-5.715,2.895C280.986,221.757,264.245,225.747,264.245,225.747z"/>
		<polygon fill="#888886" points="263.538,222.78 264.28,225.737 261.118,227.136 260.092,222.983 		"/>
		<path fill="#822E26" d="M254.102,224.546c-1.633,1.35-5.854,3.1-5.854,3.1s4.836,2.389,7.145,2.122
			c3.838-0.446,5.725-2.632,5.725-2.632l-1.025-4.152C260.092,222.983,256.312,222.725,254.102,224.546z"/>
	</g>
	<g>
		<path fill="#808080" d="M197.463,218.01c-0.638,0.424-2.566,1.239-2.566,1.239l2.206,0.336
			C197.458,218.856,198.168,218.323,197.463,218.01z"/>
		<path fill="#E9DCBE" d="M201.598,215.911c-0.178,0.123-2.062,0.736-4.135,2.099c0.705,0.313-0.006,0.847-0.36,1.575l4.819,0.809
			c0.135-0.016,0.285-0.027,0.445-0.044C203.434,218.417,202.943,216.78,201.598,215.911z"/>
		<path fill="#D8D3C1" d="M226.748,212.138c-5.858,0.657-17.843,2.365-25.106,3.745l-0.043,0.028
			c0.773,0.815,1.836,2.506,0.77,4.438c4.486-0.464,18.822-2.633,25.891-3.902C228.951,213.689,228.057,213.501,226.748,212.138z"/>
		<path fill="#D86A3D" d="M229.355,211.888c-0.591,0.038-1.506,0.13-2.607,0.25c1.31,1.363,2.203,1.552,1.511,4.31
			c0.938-0.169,1.758-0.319,2.398-0.448C232.104,214.306,232.076,212.315,229.355,211.888z"/>
	</g>
	<g>
		<path fill="#808080" d="M212.221,220.648c-0.653,0.524-2.672,1.608-2.672,1.608l2.436,0.143
			C212.298,221.568,213.021,220.919,212.221,220.648z"/>
		<path fill="#E9DCBE" d="M216.514,217.948c-0.182,0.15-2.174,1.009-4.293,2.7c0.8,0.271,0.077,0.92-0.236,1.751l5.332,0.398
			c0.146-0.029,0.308-0.059,0.481-0.093C218.765,220.495,218.067,218.76,216.514,217.948z"/>
		<path fill="#D8D3C1" d="M243.532,211.317c-6.314,1.302-19.197,4.363-26.973,6.596l-0.045,0.035
			c0.925,0.812,2.251,2.547,1.284,4.757c4.839-0.956,20.239-4.755,27.812-6.845C246.086,212.785,245.095,212.671,243.532,211.317z"
			/>
		<path fill="#D86A3D" d="M246.347,210.783c-0.639,0.102-1.628,0.292-2.815,0.534c1.563,1.354,2.555,1.468,2.078,4.543
			c1.004-0.277,1.881-0.526,2.568-0.73C249.583,213.143,249.354,210.977,246.347,210.783z"/>
	</g>
	<polygon fill="#F4E9CC" points="185.469,228.511 168.274,227.399 167.165,222.685 172.711,219.08 186.856,219.911 191.293,223.794 
			"/>
	<path fill="#A1906D" d="M239.411,205.769c-1.074,0.502-1.848,0.95-2.027,2.008c1.943,0.178,4.246-0.118,4.885-1.937
		c-0.656-0.095-1.347-0.108-2.025-0.071H239.411z"/>
	<path fill="#939491" d="M245.576,223.312c-0.05-1.692-5.56-0.412-6.411,0.029C239.719,226.041,245.674,226.61,245.576,223.312z"/>
	<polygon fill="#FDF6E2" points="354.194,206.657 345.356,221.522 416.351,224.993 417.366,209.416 	"/>
	<g>
		<path fill="#811200" d="M338.78,215.819l-2.174,1.571c0,0-8.68-12.047-10.4-14.579c-2.078-3.061-2.242-5.194-2.242-5.194
			s2.09,0.751,4.268,3.67C329.929,203.558,338.78,215.819,338.78,215.819z"/>
		<path fill="#7A574A" d="M334.099,208.57c0.242,0.305,0.521,0.614,0.959,0.587c0.656-0.042,1.002-0.707,0.908-1.27
			c-0.088-0.52-0.48-0.844-0.922-1.095c-0.336-0.191-0.734-0.322-1.125-0.291c-0.318,0.024-0.672,0.175-0.939,0.439
			C332.979,206.941,333.763,208.145,334.099,208.57z"/>
		<polygon fill="#AAABA8" points="336.606,217.391 338.78,215.819 341.501,219.134 339.003,221.127 		"/>
		<path fill="#B25642" d="M343.44,225.07c0.609-2.831-1.951-5.952-1.951-5.952l-2.486,2.009
			C339.003,221.127,340.647,223.931,343.44,225.07z"/>
	</g>
	<path fill="#7A574A" d="M337.114,212.691c-0.244-0.072-5.295-1.123-5.742-1.132c-0.59-0.014-1.082-0.822-0.85-1.34
		c0,0-1.494-2.165-1.875-2.715c-1.617,0.891-2.523,2.406-2.949,4.224c-0.553,2.346-0.77,4.388,0.199,5.743
		c0.832,1.16,2.447,1.665,3.91,1.793c1.693,0.152,3.439-0.146,4.475-0.877c0.715-0.504,1.5-1.193,1.615-1.617
		c0.814-0.365,2.23-0.284,2.883-0.951c0.539-0.549,0.465-1.746-0.033-2.243C338.306,213.134,337.716,212.87,337.114,212.691z"/>
	<g>
		<polygon fill="#B8B8B6" points="344.55,226.089 299.756,216.204 289.217,225.005 289.217,226.669 335.952,237.557 344.55,227.752 
					"/>
		<ellipse fill="#CD4917" cx="302.342" cy="220.152" rx="4.024" ry="1.802"/>
		<ellipse fill="#3F9583" cx="297.609" cy="224.021" rx="4.024" ry="1.802"/>
		<path fill="#76A2BE" d="M315.124,222.086c0,0.995-1.801,1.804-4.025,1.804c-2.223,0-4.023-0.809-4.023-1.804
			c0-0.993,1.801-1.801,4.023-1.801C313.323,220.285,315.124,221.093,315.124,222.086z"/>
		<ellipse fill="#E1CC6C" cx="306.366" cy="225.956" rx="4.023" ry="1.803"/>
		<ellipse fill="#99A031" cx="319.857" cy="224.021" rx="4.024" ry="1.802"/>
		<ellipse fill="#44658B" cx="315.123" cy="227.89" rx="4.024" ry="1.804"/>
		<path fill="#971B00" d="M332.638,225.957c0,0.994-1.801,1.801-4.023,1.801s-4.023-0.807-4.023-1.801
			c0-0.998,1.801-1.804,4.023-1.804S332.638,224.959,332.638,225.957z"/>
		<path fill="#AE9E7D" d="M327.905,229.827c0,0.993-1.803,1.799-4.023,1.799c-2.223,0-4.025-0.806-4.025-1.799
			c0-0.998,1.803-1.806,4.025-1.806C326.103,228.021,327.905,228.829,327.905,229.827z"/>
		<ellipse fill="#DE723A" cx="337.371" cy="227.89" rx="4.024" ry="1.804"/>
		<ellipse fill="#633120" cx="332.638" cy="231.759" rx="4.023" ry="1.803"/>
	</g>
	<g>
		<path fill="#888886" d="M445.735,220.768c-1.537,0.946-4.154,2.176-5.811,3.374c-1.867,1.347-3.309,2.872-4.354,4.869
			c2.932-0.658,5.926-1.549,8.787-2.919c1.57-0.752,5.322-2.99,5.758-3.07C449.519,221.01,447.267,220.792,445.735,220.768z"/>
		<path fill="#6185A6" d="M454.7,218.441c1.502-2.041,0.984-3.738-2.393-3.587c-1.045,0.048-2.973,0.928-3.941,2.688
			c-0.65,1.184,0.018,1.271-1.91,2.745c-0.193,0.149-0.445,0.311-0.721,0.48c1.531,0.024,3.783,0.242,4.381,2.254
			c1.086-0.194,2.15-0.042,3.363,0.017c2.664,0.126,7.201,0.614,8.139-2.533C462.771,216.64,456.741,217.542,454.7,218.441z"/>
		<path fill="#AE9E7D" d="M449.353,218.747c0.115,0.593,0.428,0.593,1.266,0.543c1.027-0.062,3.879-1.469,2.727-2.765
			c-0.428-0.48-1.303-0.626-1.871-0.353C450.56,216.613,449.175,217.83,449.353,218.747z"/>
		<path fill="#AE9E7D" d="M459.903,220.201c-0.65,1.543-3.205,1.637-4.58,1.638c-0.59,0.002-1.605,0.066-1.943-0.52
			C452.466,219.754,461.229,217.06,459.903,220.201z"/>
	</g>
	<polygon fill="#FDF6E2" points="497.55,216.037 518.253,208.077 562.847,217.328 552.714,230.682 	"/>
</g>
</svg>
