<?xml version="1.0" encoding="utf-8"?>
<!-- Generator: Adobe Illustrator 15.0.2, SVG Export Plug-In . SVG Version: 6.00 Build 0)  -->
<!DOCTYPE svg PUBLIC "-//W3C//DTD SVG 1.1//EN" "http://www.w3.org/Graphics/SVG/1.1/DTD/svg11.dtd">
<svg version="1.1" id="Layer_1" xmlns="http://www.w3.org/2000/svg" xmlns:xlink="http://www.w3.org/1999/xlink" x="0px" y="0px"
	 width="720px" height="460px" viewBox="0 0 720 460" enable-background="new 0 0 720 460" xml:space="preserve">
<path fill="#D3D696" d="M289.883,253.92c132.873-9.605,253.977,0.785,333.688,45.097c53.021,29.478,48.423,68.549,5.23,91.885
	c-48.045,25.96-145.549,47.371-283.566,47.371c-133.379,0-234.924-30.908-272.535-61.072
	c-27.039-21.685-17.824-58.076,30.807-80.975C156.438,271.307,209.154,259.753,289.883,253.92z"/>
<g>
	<g>
		<ellipse fill="#BEC366" cx="543.438" cy="271.739" rx="72.051" ry="57.769"/>
	</g>
</g>
<g>
	<g>
		<g>
			<polygon fill="#AC2400" points="318.188,21.728 113.646,150.228 119.232,160.795 149.218,168.281 149.76,159.165 
				504.276,157.479 505.093,168.281 527.113,152.553 532.18,141.676 			"/>
			<polygon fill="#C22D00" points="318.188,21.728 113.646,150.228 119.232,160.795 318.5,35.226 527.113,152.553 532.18,141.676 
							"/>
			<polygon fill="#F3E6C6" points="519.721,338.067 137.901,345.142 149.76,159.165 318.188,50.29 504.276,157.479 			"/>
		</g>
	</g>
	<polygon fill="#BCAD8D" points="510.359,361.354 485.595,332.735 171.627,336.968 147.807,364.326 150.005,376.409 
		508.163,373.438 	"/>
	<g>
		<g>
			<polygon fill="#FBF7EE" points="375.914,338.067 268.92,338.067 276.314,203.852 367.125,203.852 			"/>
			<polygon fill="#E0D3B5" points="363.725,321.778 281.11,321.778 286.476,214.761 357.197,214.761 			"/>
		</g>
		<polygon fill="#FBF7EE" points="281.11,321.778 215.154,322.169 223.297,194.233 286.476,214.761 		"/>
		<polygon fill="#C7C4BA" points="273.94,310.589 224.979,309.45 231.92,208.144 277.652,221.29 		"/>
	</g>
	<polygon fill="#C9BB9C" points="510.359,361.354 147.807,364.326 171.627,336.968 485.595,332.735 	"/>
	<g>
		<polygon fill="#FBF7EE" points="357.531,161.248 284.773,161.248 288.831,99.215 355.791,99.215 		"/>
		<polygon fill="#E0D3B5" points="350.492,154.784 291.993,154.784 295.206,105.679 348.572,105.679 		"/>
	</g>
	<g>
		<g>
			<path fill="#C83B0C" d="M294.546,289.974c0.423,0.643,0.946,1.264,1.678,0.679c0.648-0.514,0.459-1.258,0.492-1.96
				c0.039-0.9,0.229-1.575,0.768-1.705c0.727-0.175,0.828,1.165,1.386,1.084c0.444-0.064,0.494-0.646,0.511-1.169
				c0.014-0.564-0.281-1.264-0.541-1.681c-0.575-0.913-1.462-1.194-2.397-0.848C294.418,285.122,293.33,288.131,294.546,289.974z"/>
			<path fill="#C83B0C" d="M350.67,288.388c-0.4,0.658-0.904,1.296-1.652,0.738c-0.668-0.492-0.506-1.242-0.561-1.943
				c-0.074-0.898-0.285-1.566-0.828-1.676c-0.732-0.15-0.787,1.193-1.348,1.13c-0.445-0.048-0.516-0.628-0.551-1.148
				c-0.033-0.565,0.236-1.274,0.484-1.699c0.543-0.934,1.42-1.244,2.365-0.931C350.627,283.535,351.818,286.504,350.67,288.388z"/>
			<path fill="#C83B0C" d="M333.379,322.182c0.836,0.14,2.768,0.408,3.469-0.017c1.514-0.914-0.9-2-2.131-2.396
				C331.568,318.749,329.645,321.556,333.379,322.182z"/>
			<path fill="#C83B0C" d="M313.404,322.724c-0.844,0.087-2.788,0.235-3.461-0.232c-1.455-1.004,1.023-1.938,2.275-2.26
				C315.426,319.41,317.17,322.329,313.404,322.724z"/>
		</g>
		<g>
			<g>
				<path fill="#C83B0C" d="M321.548,294.271c-2.382,0-9.793-0.189-13.218-2.342c-0.799,8.135,0.549,19.263,3.402,27.471l3.33,0.125
					c0.475-8.154,2.398-15.144,8.396-19.204c4.234,4.256,7.387,9.132,8.098,18.546l3.037,0.067c3.99-10.44,4.191-19.12,3.76-28.121
					C334.785,293.471,326.779,294.271,321.548,294.271z"/>
			</g>
		</g>
		<g>
			<g>
				<path fill="#C83B0C" d="M345.127,283.034l3.322-1.65c-3.475-8.699-10.761-19.528-20.887-22.895
					c-2.449,2.054-5.11,3.195-7.039,3.195c-1.922,0-4.521-0.972-6.926-2.849c-9.67,3.8-14.295,14.692-16.972,24.401l3.118,0.777
					c3.488-9.107,11.607-14.551,11.607-14.551s-3.279,8.584-3.816,19.691c-0.285,5.866,31.477,5.521,31.645-1.424
					c0.166-6.812-6.463-18.499-6.463-18.499S340.105,273.972,345.127,283.034z"/>
			</g>
			<path fill="#C83B0C" d="M328.867,247.234c-1.504-1.309-4.578-4.815-6.166-7.522c-2.398,1.885-6.494,3.303-8.715,3.979
				c-0.09,0.27-0.188,0.568-0.297,0.898c-0.469,1.419-1.109,3.362-2.105,6.018c-0.359,0.962-0.826,1.919-1.326,2.818
				c2.705,4.709,7.314,7.26,10.266,7.26c2.473,0,6.329-2.131,9.097-5.801C329.648,252.495,329.537,249.302,328.867,247.234z
				 M316.029,251.782c-0.664,0.004-1.182-0.822-1.164-1.845c0.02-1.021,0.576-1.853,1.234-1.856s1.18,0.82,1.158,1.844
				C317.24,250.947,316.688,251.778,316.029,251.782z M324.723,251.741c-0.639,0.004-1.139-0.84-1.119-1.883
				c0.023-1.043,0.561-1.891,1.197-1.895c0.639-0.002,1.139,0.84,1.117,1.884S325.355,251.737,324.723,251.741z"/>
			<g>
				<path fill="#C83B0C" d="M334.244,240.858c-2.576-6.17-5.631-9.201-10.709-9.994c-7.611-1.586-14.672,3.015-17.049,9.676
					c-1.889,5.28-2,9.218-4.127,12.178c1.758-0.046,3.412-0.797,3.412-0.797l0.217,5.988c0,0,3.232-3.846,4.66-7.653
					c1.064-2.839,1.725-4.872,2.191-6.283c-1.514,0.368-3.301,0.506-3.385,0.512l-1.327,0.099l0.935-0.948
					c0.02-0.021,2.084-2.124,2.975-3.713l0.872,0.489c-0.559,0.997-1.505,2.139-2.213,2.934c0.741-0.098,1.915-0.307,2.511-0.465
					c2.225-0.586,6.745-2.125,9.033-4.088c-0.302-0.624-0.615-1.627-0.757-2.334l0.98-0.196c0.101,0.5,0.479,1.478,0.859,2.339
					c1.239,2.812,4.576,6.262,6.481,8.02c0.569,0.525,1.387,0.992,2.03,1.37c-0.345-1.007-0.774-2.425-0.903-3.562l0.992-0.113
					c0.207,1.811,1.295,4.549,1.307,4.576l0.493,1.236l-1.186-0.605c-0.065-0.034-1.279-0.659-2.419-1.43
					c0.848,4.021,0.371,10.064,0.371,10.064l2.654-3.786l0.834,1.995C333.979,256.366,336.861,247.123,334.244,240.858z"/>
			</g>
		</g>
	</g>
	<path fill="#6185A6" d="M390.125,342.515c2.344,0.395,6.861,1.517,9.025,0.131c4.643-2.974-2.77-5.051-5.23-5.902
		c0.09-1.308,2.029-3.854,1.334-4.925c-1.227-1.899-7.16-2.152-8.195-1.207c-0.855,0.782-2.164,4.818-2.125,7.773
		C384.961,340.503,387.418,342.062,390.125,342.515z"/>
	<path fill="#6185A6" d="M375.877,342.543c-2.865,0.746-7.136,1.152-7.988-0.537c-1.527-3.02,1.611-5.408,3.811-5.653
		c0-1.229-0.154-3.255-0.209-4.16c-0.117-1.94,5.947-2.521,7.537-1.467c0.73,2.391,1.839,5.968,1.148,8.376
		C379.66,340.914,378.295,341.913,375.877,342.543z"/>
</g>
</svg>
