<?xml version="1.0" encoding="utf-8"?>
<!-- Generator: Adobe Illustrator 15.0.2, SVG Export Plug-In . SVG Version: 6.00 Build 0)  -->
<!DOCTYPE svg PUBLIC "-//W3C//DTD SVG 1.1//EN" "http://www.w3.org/Graphics/SVG/1.1/DTD/svg11.dtd">
<svg version="1.1" id="Layer_1" xmlns="http://www.w3.org/2000/svg" xmlns:xlink="http://www.w3.org/1999/xlink" x="0px" y="0px"
	 width="720px" height="460px" viewBox="0 0 720 460" enable-background="new 0 0 720 460" xml:space="preserve">
<g>
	<g>
		<polygon fill="#F5EBD1" points="393.984,83.825 393.984,318.622 121.082,318.622 120.325,83.052 		"/>
		<polygon fill="#B2B748" points="450.879,407.86 636.238,407.86 535.904,316.253 393.984,316.253 		"/>
		<g>
			<polygon fill="#D7A89E" points="121.082,318.622 83.762,407.86 450.879,407.86 393.984,318.622 			"/>
			<polygon fill="#D1C5AA" points="607.217,381.364 435.239,381.364 403.75,334.415 555.797,334.415 			"/>
		</g>
		<path fill="#8E7565" d="M452.467,234.657c0.148,0,0.723,0,0.871,0c2.084,0,3.771,2.227,3.771,4.973s-1.688,4.973-3.771,4.973
			c-0.148,0-0.723,0-0.871,0c-2.084,0-3.771-2.227-3.771-4.973S450.383,234.657,452.467,234.657z"/>
	</g>
	<g>
		<polygon fill="#8E7565" points="435.239,116.249 443.957,116.249 443.957,382.903 435.239,382.903 429.23,373.653 429.23,133.306 
			414.258,136.372 414.258,339.687 407.172,339.687 403.75,334.415 403.75,125.753 		"/>
		<polygon fill="#AE9E7D" points="429.23,360.632 429.23,373.653 407.172,339.687 414.258,339.687 		"/>
		<g>
			<polygon fill="#9EB8CC" points="393.984,318.622 393.984,83.853 450.879,52.14 450.879,407.86 435.239,382.903 435.239,116.249 
				403.75,125.753 403.75,334.415 			"/>
			<rect x="450.879" y="52.14" fill="#97ADC2" width="7.004" height="355.721"/>
		</g>
		<rect x="407.172" y="136.372" fill="#A1856E" width="7.086" height="203.314"/>
		<polygon fill="#D1C5AA" points="401.172,339.687 330.05,324.841 330.05,144.04 401.172,134.704 		"/>
		<polygon fill="#B4A68A" points="401.172,339.687 407.172,337.841 407.172,136.372 401.172,134.704 		"/>
	</g>
</g>
<g>
	<g>
		<g>
			<path fill="#A1856E" d="M211.67,311.61c-7.612,0-16.834-0.574-20.919-2.109c1.567,14.258,5.877,30.654,3.536,49.688l5.085-0.281
				c9.953-14.689,16.881-27.27,20.021-37.807c6.957,5.91,13.293,18.375,17.573,34.523l5.34-0.055
				c4.354-17.691,7.166-34.775,4.931-50.256C239.326,311.253,216.855,311.61,211.67,311.61z"/>
		</g>
	</g>
	<g>
		<polygon fill="#C7A53A" points="141.451,343.915 186.093,361.272 200.98,355.624 203.572,316.032 154.664,302.294 
			139.059,307.015 		"/>
		<polygon fill="#E1CC6C" points="186.238,321.698 203.572,316.032 154.664,302.294 139.059,307.015 		"/>
	</g>
	<g>
		<g>
			<path fill="#A1856E" d="M168.29,306.532c2.337,2.199,5.123,0.75,6.375-0.316c0,0-1.5-0.438-2.688-0.938
				c-0.721-1.438-0.409-2.932,0.671-3.857c1.369-1.172,3.392-0.514,3.392-0.514c0.374-1.223,0.042-2.002-0.441-2.717
				c-1.062-1.574-3.313-1.961-4.935-1.301C167.154,298.321,165.228,303.653,168.29,306.532z"/>
			<g>
				<path fill="#BF9930" d="M179.855,303.649c-0.22-0.258-1.648-1.201-2.69-1.533c-0.679-0.217-1.553-0.459-2.292-0.459
					c-0.6,0-1.22,0.219-1.573,0.523c-0.675,0.578-0.879,1.445-0.567,2.324c1.044,0.408,2.2,0.746,2.213,0.75
					c0,0,1.564,0.318,1.809,1.002c0.197,0.555,0.081,1.914,0.058,2.83c-0.021,0.803-0.041,1.633-0.018,2.467
					c0.031,1.084,0.92,1.943,1.998,1.943c0.02,0,0.039,0,0.059-0.002c1.104-0.031,1.974-0.951,1.941-2.057
					c-0.021-0.744,0-1.512,0.019-2.25C180.872,306.794,180.92,304.899,179.855,303.649z"/>
				<path fill="#BF9930" d="M165.884,301.603c0.161-0.867,0.479-1.691,0.904-2.443c-2.09-0.324-2.54-0.006-2.972,0.309
					c-1.606,1.178-1.551,3.629-1.497,6c0.01,0.4,0.019,0.77,0.013,1.072c-0.022,1.105,0.854,2.018,1.958,2.041
					c1.098-0.01,2.019-0.854,2.041-1.959c0.007-0.326-0.001-0.721-0.011-1.145C165.787,304.323,165.626,302.989,165.884,301.603z"/>
			</g>
		</g>
	</g>
	<g>
		<path fill="#A1856E" d="M264.423,303.487c-0.779,1.105-1.736,2.164-2.988,1.098c-1.107-0.943-0.734-2.236-0.748-3.473
			c-0.021-1.58-0.313-2.781-1.254-3.039c-1.267-0.35-1.521,1.998-2.496,1.824c-0.779-0.137-0.832-1.164-0.83-2.082
			c0.008-0.992,0.568-2.207,1.052-2.92c1.062-1.574,2.638-2.016,4.259-1.354C264.927,294.974,266.662,300.321,264.423,303.487z"/>
	</g>
	<g>
		<path fill="#A1856E" d="M195.665,365.171c1.409,0.236,6.56,0.055,7.341-0.99c1.53-2.049-2.931-3.5-5.079-3.867
			C192.979,359.472,190.069,364.228,195.665,365.171z"/>
	</g>
	<g>
		<path fill="#A1856E" d="M238.664,361.618c1.409,0.238,6.56,0.057,7.341-0.988c1.53-2.049-2.931-3.5-5.08-3.867
			C235.978,355.921,233.068,360.677,238.664,361.618z"/>
	</g>
	<g>
		<path fill="#A1856E" d="M255.606,293.12l6.346-1.738c-2.774-14.57-12.689-34.754-31.888-41.627
			c-2.806,3.127-5.812,4.799-8.146,4.852c-0.093,0.004-0.188,0.004-0.286,0.004c-4.195,0-11.099-1.781-16.34-5.693
			c-0.054-0.039-0.106-0.086-0.16-0.125c-16.826,4.816-29.895,21.438-35.537,44.328l6.059,2.564
			c9.225-19.129,18.892-22.475,18.892-22.475s-4.802,22.91-5.08,34.068c-0.118,4.729,58.249,5.848,59.527-6.297
			c-0.828-14.529-8.63-31.275-8.63-31.275S250.293,277.495,255.606,293.12z"/>
	</g>
	<g>
		<path fill="#A1856E" d="M208.092,234.032c1.299-4.928,2.614-11.023,5.164-14.502c2.155-2.932,6.841-5.35,11.11-6.045
			c3.167-0.512,6.999-0.453,9.604,0.986c3.072,1.697,3.74,6.162,3.979,10.592c1.465-7.51-2.219-15.336-7.15-19.668
			c-4.771-4.191-20.26-9.133-29.909-2.014c-15.647,11.539-10.358,30.41-14.024,42.387c4.582,2.66,12.231,2.775,14.936-0.361
			C204.505,242.269,206.793,238.958,208.092,234.032z"/>
		<g>
			<path fill="#A1856E" d="M236.951,225.118c-0.216-4.004-0.796-8.297-3.464-9.771c-1.367-0.756-3.288-1.154-5.554-1.154
				c-1.11,0-2.257,0.094-3.406,0.279c-4.154,0.676-8.556,3.053-10.465,5.648c-2.105,2.875-3.375,7.828-4.494,12.197
				c-0.172,0.67-0.341,1.33-0.51,1.969c-1.326,5.031-3.653,8.389-6.036,11.223c0.878,0.93,1.824,1.828,2.868,2.607
				c5.451,4.068,12.55,5.57,16.006,5.492c4.265-0.098,13.074-7.527,15.1-22.641c0.01-0.109,0.02-0.229,0.036-0.355l0.022-0.291
				c0.046-0.604,0.06-1.211,0.078-1.816L236.951,225.118z M222.908,232.589c-0.852,0.035-1.605-1.26-1.677-2.893
				s0.562-2.99,1.413-3.029c0.854-0.035,1.605,1.258,1.678,2.895C224.396,231.196,223.76,232.548,222.908,232.589z M233.041,232.237
				c-0.752,0.033-1.42-1.289-1.496-2.961c-0.072-1.668,0.477-3.047,1.227-3.08s1.419,1.293,1.495,2.963
				C234.338,230.825,233.786,232.204,233.041,232.237z"/>
		</g>
	</g>
</g>
<g>
	<g>
		<g>
			<path fill="#C83B0C" d="M340.118,323.468c-8.561,0-15.723-1.604-19.463-4.268c-2.29,12.619-0.934,25.92,0.912,35.379l4.027,0.467
				c2.939-10.027,7.979-17.672,15.271-23.506c6.951,5.834,11.294,15.736,13.784,27.748l3.936-0.047
				c4.17-14.223,5.734-25.164,5.734-36.934c0-1.42-0.061-2.699-0.176-3.887C358.038,321.638,349.378,323.468,340.118,323.468z"/>
		</g>
	</g>
	<path fill="#C83B0C" d="M291.595,261.817c0.434-0.889,2.098-1.01,3.621,0.158c0.957,0.729,0.988,1.82,1.725,1.871
		c0.994,0.07,0.611-1.463,1.363-1.479c0.6-0.012,0.852,0.732,0.926,1.428c0.098,0.891,0.008,2.049-0.291,2.633
		c-0.578,1.135-1.326,1.73-2.941,1.471c-1.432-0.229-2.164-0.994-3.375-2.453C291.499,264.091,291.11,262.808,291.595,261.817z"/>
	<path fill="#C83B0C" d="M381.113,323.851c-0.666,0.783-1.461,1.521-2.338,0.627c-0.773-0.785-0.404-1.74-0.332-2.676
		c0.092-1.199-0.049-2.127-0.742-2.385c-0.936-0.35-1.285,1.41-2.012,1.211c-0.58-0.156-0.553-0.936-0.488-1.629
		c0.072-0.752,0.578-1.633,0.994-2.141c0.908-1.119,2.131-1.348,3.312-0.736C382.066,317.442,383.02,321.604,381.113,323.851z"/>
	<path fill="#C83B0C" d="M323.708,359.253c-1.133,0.033-3.736,0.035-4.586-0.658c-1.834-1.482,1.561-2.477,3.256-2.777
		C326.731,355.048,328.759,359.11,323.708,359.253z"/>
	<path fill="#C83B0C" d="M356.35,363.468c-1.131,0.031-3.732,0.033-4.582-0.658c-1.836-1.486,1.559-2.479,3.254-2.777
		C359.375,359.261,361.404,363.325,356.35,363.468z"/>
	<g>
		<g>
			<path fill="#C83B0C" d="M325.821,256.124c0.505-5.201,2.555-9.781,5.899-13.381c-0.931,0.076-1.81,0.174-2.599,0.277
				c-0.242,0.264-0.479,0.535-0.703,0.834c-5.58,7.365-4.746,20.391-4.746,20.391l1.162-1.059l1.305,3.449l0.162-0.148
				C325.687,263.464,325.446,260.005,325.821,256.124z"/>
		</g>
		<g>
			<path fill="#C83B0C" d="M374.664,315.794l4.758-1.531c-4.914-17.953-13.752-31.916-27.445-36.906
				c-6.028,2.869-11.585,3.121-13.3,3.121c-1.201,0-2.258-0.096-3.14-0.281c-1.692-0.359-3.799-1.998-5.636-4.73
				c-10.911,0.025-21.418-0.809-29.701-8.189l-3.044,2.678c12.071,13.227,25.651,16.76,25.651,16.76s-1.002,14.648-2.895,30.512
				c5.795,6.572,31.569,7.496,44.841-0.285c-0.434-12.605-4.309-21.334-4.309-21.334S367.573,301.364,374.664,315.794z"/>
		</g>
		<path fill="#C83B0C" d="M342.091,242.519c4.355,1.42,6.977,6.711,7.716,9.092c0.428,1.361,1.613,3.867,1.756,9.984
			c0.104,4.568-0.73,13.82-0.725,13.912c1.219-0.111,3.658-1.814,3.658-1.814l0.486,6.17l5.029-4.131l0.354,3.271
			c0,0,6.008-9.492,7.365-17.904c1.287-7.994-1.85-14.865-4.986-18.395c-2.604-2.932-5.428-5.107-9.691-6.215
			c-4.718-1.223-8.856-0.668-14.474-0.531c-4.475,0.111-13.074-0.916-13.074-0.916l5.936,3.926l-6.305,3.715
			C325.136,242.683,335.46,240.351,342.091,242.519z"/>
		<path fill="#C83B0C" d="M350.93,276.503l-1.023,0.092l-0.066-1.023c-0.005-0.086-0.005-0.086,0.045-0.707
			c0.508-6.227,0.736-10.684,0.678-13.246c-0.119-5.139-0.978-7.594-1.491-9.061c-0.084-0.242-0.158-0.455-0.219-0.65
			c-0.59-1.898-3.012-7.113-7.072-8.438c-1.773-0.58-4.017-0.873-6.67-0.873c-0.65,0-1.297,0.018-1.928,0.049
			c-3.385,3.293-5.812,7.873-6.365,13.574c-1.355,13.988,5.227,22.213,8.928,22.998c3.234,0.686,10.03,0.117,16.347-3.039
			C351.68,276.343,351.276,276.47,350.93,276.503z M331.365,256.63c-0.325,1.383-1.093,2.383-1.714,2.238
			c-0.617-0.145-0.863-1.383-0.539-2.764s1.092-2.385,1.713-2.238C331.446,254.011,331.688,255.251,331.365,256.63z M339.906,259.12
			c-0.319,1.354-1.147,2.316-1.858,2.152c-0.703-0.168-1.02-1.396-0.703-2.75c0.318-1.357,1.148-2.316,1.855-2.152
			C339.903,256.534,340.222,257.767,339.906,259.12z"/>
	</g>
</g>
</svg>
