<?xml version="1.0" encoding="utf-8"?>
<!-- Generator: Adobe Illustrator 15.0.2, SVG Export Plug-In . SVG Version: 6.00 Build 0)  -->
<!DOCTYPE svg PUBLIC "-//W3C//DTD SVG 1.1//EN" "http://www.w3.org/Graphics/SVG/1.1/DTD/svg11.dtd">
<svg version="1.1" id="Layer_1" xmlns="http://www.w3.org/2000/svg" xmlns:xlink="http://www.w3.org/1999/xlink" x="0px" y="0px"
	 width="720px" height="460px" viewBox="0 0 720 460" enable-background="new 0 0 720 460" xml:space="preserve">
<path fill="#C4C63A" d="M322.877,251.991c114.461-8.516,218.779,0.695,287.445,39.979c45.674,26.135,41.713,60.773,4.508,81.461
	c-41.387,23.014-125.381,41.996-244.271,41.996c-114.894,0-202.369-27.402-234.767-54.143
	c-23.293-19.225-15.355-51.486,26.537-71.787C207.924,267.405,253.336,257.163,322.877,251.991z"/>
<g>
	<polygon fill="#EFE9DA" points="356.709,252.013 67.489,329.38 141.784,370.853 401.34,271.993 	"/>
	<polygon fill="#B9BD71" points="376.055,260.2 97.606,349.403 101.917,352.581 377.029,260.958 	"/>
	<polygon fill="#B9BD71" points="249.776,330.327 176.895,298.858 182.745,297.735 251.694,328.478 	"/>
	<polygon fill="#B9BD71" points="208.459,347.028 131.727,310.868 138.1,309.644 210.549,345.015 	"/>
	<polygon fill="#B9BD71" points="162.368,364.915 87.918,325.024 94.292,323.8 164.458,362.901 	"/>
	<polygon fill="#B9BD71" points="380.947,280.505 325.758,257.647 330.018,256.827 382.344,279.159 	"/>
	<polygon fill="#B9BD71" points="355.842,291.854 293.958,266.222 298.735,265.306 357.408,290.345 	"/>
	<polygon fill="#B9BD71" points="326.092,303.919 259.106,276.177 264.276,275.185 327.785,302.286 	"/>
	<polygon fill="#B9BD71" points="289.877,316.13 219.436,287.009 225.026,285.937 291.709,314.364 	"/>
</g>
<polygon fill="#E1D7C2" points="346.219,254.819 92.12,322.792 94.475,146.421 351.738,112.294 "/>
<polygon fill="#DA7A5A" points="390.512,73.218 110.208,103.632 94.475,146.421 351.738,112.294 "/>
<polygon fill="#ECE5D3" points="346.146,308.013 652.51,365.122 652.51,119.886 344.053,99.462 "/>
<polygon fill="#E1D7C2" points="508.863,316.722 604.535,332.294 604.535,188.786 508.146,179.56 "/>
<polygon fill="#CD4917" points="519.232,302.79 594.01,314.962 594.01,198.886 518.672,190.892 "/>
<g>
	<polygon fill="#E0D3B5" points="574.047,377.343 607.01,358.269 608.27,317.177 560.996,328.095 	"/>
	<polygon fill="#ECE5D3" points="485.598,325.942 588.684,344.96 589.07,326.806 485.211,309.728 	"/>
	<polygon fill="#F6F2E9" points="505.184,301.159 608.27,317.177 589.07,326.806 485.211,309.728 	"/>
	<polygon fill="#ECE5D3" points="470.961,355.669 574.047,377.343 574.047,354.485 470.188,335.407 	"/>
	<polygon fill="#F6F2E9" points="485.598,325.942 588.684,344.96 574.047,354.485 470.188,335.407 	"/>
</g>
<polygon fill="#DE896D" points="406.783,44.573 643.164,53.886 652.51,119.886 344.053,99.462 "/>
<g>
	<g>
		<g>
			<g>
				<g>
					
						<rect x="161.267" y="254.06" transform="matrix(0.9982 0.0606 -0.0606 0.9982 17.3333 -9.2794)" fill="#AAABA8" width="1" height="54.566"/>
					
						<rect x="134.484" y="280.843" transform="matrix(0.0614 0.9981 -0.9981 0.0614 432.6425 102.6004)" fill="#AAABA8" width="54.566" height="1"/>
				</g>
				<g>
					
						<rect x="135.694" y="280.843" transform="matrix(0.3118 0.9502 -0.9502 0.3118 378.6475 39.9194)" fill="#AAABA8" width="52.146" height="1"/>
					
						<rect x="136.807" y="280.843" transform="matrix(0.442 0.897 -0.897 0.442 342.6413 11.8855)" fill="#AAABA8" width="49.922" height="1"/>
				</g>
				<g>
					
						<rect x="139.54" y="280.844" transform="matrix(0.7089 0.7053 -0.7053 0.7089 245.5416 -32.1921)" fill="#AAABA8" width="44.454" height="1"/>
					
						<rect x="140.855" y="280.842" transform="matrix(0.8336 0.5524 -0.5524 0.8336 182.3362 -42.5388)" fill="#AAABA8" width="41.824" height="1.001"/>
				</g>
				<g>
					
						<rect x="142.459" y="280.843" transform="matrix(0.9924 0.1234 -0.1234 0.9924 35.9578 -17.8133)" fill="#AAABA8" width="38.616" height="1"/>
					
						<rect x="161.267" y="262.035" transform="matrix(0.1231 0.9924 -0.9924 0.1231 421.0618 86.1798)" fill="#AAABA8" width="1" height="38.616"/>
				</g>
				<g>
					
						<rect x="161.267" y="260.431" transform="matrix(0.5524 0.8335 -0.8335 0.5524 306.9125 -8.9246)" fill="#AAABA8" width="1.001" height="41.824"/>
					
						<rect x="161.267" y="259.117" transform="matrix(0.7052 0.7091 -0.7091 0.7052 247.1858 -31.7482)" fill="#AAABA8" width="1" height="44.454"/>
				</g>
				<g>
					
						<rect x="161.268" y="256.382" transform="matrix(0.8973 0.4413 -0.4413 0.8973 140.7768 -42.512)" fill="#AAABA8" width="1" height="49.922"/>
					
						<rect x="161.267" y="255.27" transform="matrix(0.9499 0.3124 -0.3124 0.9499 95.9937 -36.4562)" fill="#AAABA8" width="1" height="52.146"/>
				</g>
			</g>
			<path fill="#888886" d="M162.311,251.155c-0.184,0-0.363,0.012-0.545,0.02c-0.182-0.008-0.359-0.02-0.543-0.02
				c-12.137,0-21.977,13.516-21.977,30.188c0,16.674,9.84,30.188,21.977,30.188c0.184,0,0.361-0.012,0.543-0.018
				c0.182,0.006,0.361,0.018,0.545,0.018c12.137,0,21.977-13.514,21.977-30.188C184.288,264.671,174.448,251.155,162.311,251.155z
				 M143.11,281.343c0-14.316,8.305-25.959,18.656-26.355c10.354,0.396,18.658,12.039,18.658,26.355s-8.305,25.959-18.658,26.355
				C151.415,307.302,143.11,295.659,143.11,281.343z"/>
		</g>
		<g>
			<g>
				<g>
					
						<rect x="227.147" y="241.373" transform="matrix(0.9982 0.0606 -0.0606 0.9982 16.5328 -13.2966)" fill="#AAABA8" width="1" height="49.506"/>
					
						<rect x="202.894" y="265.626" transform="matrix(0.0614 0.9981 -0.9981 0.0614 479.2866 22.5614)" fill="#AAABA8" width="49.506" height="1"/>
				</g>
				<g>
					
						<rect x="203.991" y="265.626" transform="matrix(0.3118 0.9501 -0.9501 0.3118 409.5244 -33.1505)" fill="#AAABA8" width="47.312" height="1"/>
					
						<rect x="204.999" y="265.627" transform="matrix(0.442 0.897 -0.897 0.442 365.7479 -55.7035)" fill="#AAABA8" width="45.296" height="1"/>
				</g>
				<g>
					
						<rect x="207.48" y="265.627" transform="matrix(0.7088 0.7054 -0.7054 0.7088 253.9953 -83.0893)" fill="#AAABA8" width="40.333" height="1"/>
					
						<rect x="208.674" y="265.626" transform="matrix(0.8336 0.5524 -0.5524 0.8336 184.9055 -81.4648)" fill="#AAABA8" width="37.947" height="1.001"/>
				</g>
				<g>
					
						<rect x="210.129" y="265.626" transform="matrix(0.9924 0.1234 -0.1234 0.9924 34.5869 -26.0623)" fill="#AAABA8" width="35.035" height="1"/>
					
						<rect x="227.147" y="248.608" transform="matrix(0.1231 0.9924 -0.9924 0.1231 463.7326 7.4568)" fill="#AAABA8" width="1" height="35.035"/>
				</g>
				<g>
					
						<rect x="227.147" y="247.153" transform="matrix(0.5524 0.8335 -0.8335 0.5524 323.7134 -70.649)" fill="#AAABA8" width="1.001" height="37.947"/>
					
						<rect x="227.146" y="245.961" transform="matrix(0.7052 0.7091 -0.7091 0.7052 255.8205 -82.9467)" fill="#AAABA8" width="1" height="40.333"/>
				</g>
				<g>
					
						<rect x="227.147" y="243.479" transform="matrix(0.8973 0.4413 -0.4413 0.8973 140.8248 -73.1497)" fill="#AAABA8" width="1" height="45.296"/>
					
						<rect x="227.146" y="242.47" transform="matrix(0.9499 0.3124 -0.3124 0.9499 94.5373 -57.7998)" fill="#AAABA8" width="1" height="47.312"/>
				</g>
			</g>
			<path fill="#888886" d="M228.139,238.737c-0.164,0-0.328,0.012-0.492,0.018c-0.166-0.006-0.33-0.018-0.494-0.018
				c-11.014,0-19.939,12.262-19.939,27.389s8.926,27.391,19.939,27.391c0.164,0,0.328-0.012,0.494-0.018
				c0.164,0.006,0.328,0.018,0.492,0.018c11.014,0,19.939-12.264,19.939-27.391S239.153,238.737,228.139,238.737z M210.719,266.126
				c0-12.988,7.533-23.553,16.928-23.912c9.393,0.359,16.926,10.924,16.926,23.912s-7.533,23.553-16.926,23.912
				C218.252,289.679,210.719,279.114,210.719,266.126z"/>
		</g>
		<path fill="#9F9F9D" d="M162.858,282.843c-0.052,0-0.104-0.002-0.157-0.008c-0.824-0.086-1.423-0.824-1.336-1.648l5.141-49.225
			c0.086-0.822,0.825-1.414,1.647-1.336c0.824,0.086,1.422,0.824,1.336,1.648l-5.141,49.225
			C164.268,282.271,163.617,282.843,162.858,282.843z"/>
		<path fill="#9F9F9D" d="M199.268,275.185c-0.36,0-0.723-0.129-1.01-0.391l-32.52-29.613c-0.612-0.559-0.656-1.508-0.099-2.119
			c0.558-0.613,1.507-0.658,2.118-0.1l32.52,29.613c0.613,0.557,0.658,1.506,0.1,2.119
			C200.082,275.019,199.676,275.185,199.268,275.185z"/>
		<path fill="#9F9F9D" d="M199.268,275.185c-0.668,0-1.277-0.449-1.452-1.127c-0.206-0.803,0.276-1.619,1.079-1.826l29.365-7.559
			c0.805-0.207,1.619,0.277,1.826,1.08s-0.276,1.619-1.078,1.826l-29.365,7.559C199.517,275.169,199.391,275.185,199.268,275.185z"
			/>
		<path fill="#9F9F9D" d="M199.27,275.185c-0.122,0-0.245-0.016-0.369-0.047c-0.803-0.201-1.289-1.018-1.087-1.82l9.52-37.73
			c0.203-0.803,1.015-1.293,1.821-1.086c0.804,0.201,1.291,1.018,1.088,1.82l-9.52,37.73
			C200.551,274.731,199.94,275.185,199.27,275.185z"/>
		<path fill="#9F9F9D" d="M228.635,267.626c-0.488,0-0.967-0.236-1.255-0.676l-19.846-30.172c-0.455-0.691-0.263-1.621,0.429-2.076
			c0.693-0.455,1.623-0.264,2.078,0.428l19.846,30.172c0.455,0.693,0.264,1.623-0.43,2.078
			C229.204,267.546,228.918,267.626,228.635,267.626z"/>
		<path fill="#9F9F9D" d="M208.788,237.954c-1.104,0-2-0.895-2-2v-4.895c0-1.105,0.896-2,2-2c1.105,0,2,0.895,2,2v4.895
			C210.788,237.06,209.893,237.954,208.788,237.954z"/>
	</g>
	<path fill="#939491" d="M153.636,234.147c-1.067,0-1.952-0.844-1.997-1.918c-0.045-1.104,0.812-2.035,1.917-2.08l27.29-1.117
		c1.086-0.055,2.034,0.812,2.08,1.916c0.045,1.104-0.812,2.035-1.917,2.08l-27.29,1.117
		C153.692,234.146,153.665,234.147,153.636,234.147z"/>
	<g>
		<path fill="#888886" d="M220.27,228c0-1.009-0.898-1.776-1.996-1.704l-6.403,0.418c-1.098,0.072-2.867,0.354-3.933,0.627
			l-6.732,1.727c-1.066,0.272-1.938,1.077-1.938,1.788s0.865,1.539,1.923,1.841l0.913,0.262c1.058,0.302,2.801,0.351,3.874,0.107
			l12.341-2.789C219.392,230.033,220.27,229.009,220.27,228z"/>
	</g>
</g>
<g>
	<g>
		<g>
			<g>
				<path fill="#A1856E" d="M348.943,323.944c1.811-5.49,3.258-14.691,3.576-16.656c-4.771,2.6-10.17,4.154-16.096,4.664
					c-1.627,1.646-4.137,2.791-6.496,2.791c-1.242,0-2.342-0.303-3.264-0.898c-0.078-0.049-0.152-0.1-0.225-0.15
					c-0.379-0.26-1.404-0.977-1.629-2.051c-11.889-1.592-22.172-6.758-26.922-11.789c-5.874,19.416-7.726,36.627-6.286,51.307
					l5.834,0.676c4.49-12.529,12.687-25.33,26.515-30.783c1.971,14.293,8.902,27.668,22.143,40.07l5.699-0.07
					C348.943,343.782,345.865,333.28,348.943,323.944z"/>
			</g>
		</g>
		<g>
			<path fill="#A1856E" d="M338.867,305.452l-0.271,0.207l-2.346-1.426c0.146,0.127,0.283,0.254,0.404,0.373
				c1.541,1.545,1.965,3.422,1.191,5.285c-0.121,0.293-0.277,0.578-0.453,0.857c5.436-0.592,10.795-2.148,15.643-4.99
				c0.361-6.871,0.293-14.328-0.324-21.566C351.193,292.323,346.57,299.567,338.867,305.452z"/>
			<g>
				<path fill="#A1856E" d="M327.006,312.872c-2.902-2-0.119-3.252,2.041-4.244c1.014-0.467,2.982-0.828,3.092-2.043
					c0.092-1.014-1.955-1.504-1.547-2.564c0.312-0.809,1.43-0.652,2.42-0.459c1.068,0.217,2.262,1.078,2.934,1.752
					c4.582,4.588-4.332,10.533-8.744,7.688C327.135,312.958,327.068,312.915,327.006,312.872z"/>
				<g>
					<path fill="#A1856E" d="M329.047,308.628c-1.227,0.562-2.654,1.213-3.125,2.033c3.33,0.389,6.748,0.48,10.148,0.207
						c1.369-1.627,1.727-3.701-0.125-5.555c-0.672-0.674-1.865-1.535-2.934-1.752c-0.414-0.082-0.85-0.156-1.24-0.156
						c-0.543,0-0.998,0.145-1.18,0.615c-0.408,1.061,1.639,1.551,1.547,2.564C332.029,307.8,330.061,308.161,329.047,308.628z"/>
				</g>
			</g>
		</g>
	</g>
	<path fill="#A1856E" d="M293.262,357.913c-1.641,0.045-5.41,0.049-6.639-0.953c-2.658-2.15,2.258-3.588,4.711-4.021
		C297.637,351.823,300.575,357.706,293.262,357.913z"/>
	<path fill="#A1856E" d="M350.492,367.911c-1.637,0.045-5.406,0.045-6.637-0.953c-2.656-2.15,2.258-3.588,4.715-4.023
		C354.873,361.819,357.809,367.702,350.492,367.911z"/>
	<g>
		<g>
			<path fill="#A1856E" d="M329.092,246.597c-2.268-3.148-2.703-7.182-3.123-11.082c-0.258-2.381-0.5-4.629-1.137-6.57
				c-0.658-2.002-2.35-3.053-4.309-4.27c-2.482-1.543-5.254-3.264-6.006-7.266c-1.707,1.125-3.492,1.396-4.775,1.592
				c-0.004,0-0.006,0.002-0.01,0.002c-0.846,2.902-1.463,6.453-1.658,10.316c-0.461,9.088,2.672,18.709,6.074,20.607
				c1.951,1.09,10.564,0.301,16.74-1.459C330.205,247.907,329.592,247.29,329.092,246.597z M312.803,233.702
				c-0.68-0.025-1.195-1.281-1.146-2.801c0.053-1.525,0.652-2.744,1.338-2.719c0.686,0.023,1.201,1.277,1.148,2.801
				C314.09,232.509,313.492,233.726,312.803,233.702z"/>
		</g>
		<g>
			<path fill="#A1856E" d="M325.781,228.634c-1.832-5.576-10.295-4.738-10.457-13.211c-2.066,2.221-4.664,2.406-6.223,2.666
				c0.666-5.623,2.213-7.926,7.117-11.373c4.744-3.34,19.293-6.297,27.354,1.115c13.068,12.02,6.291,28.217,12.559,41.535
				c-6.268,3.945-21.635,3.02-26.229-3.355C326.457,241.229,327.516,233.911,325.781,228.634z"/>
			<g>
				<path fill="#A1856E" d="M343.906,252.671l-0.043,0.23c-0.061-0.084-0.125-0.16-0.188-0.242
					c-3.969-0.252-8.523-1.277-11.785-3.451c-4.441,1.363-10.332,2.219-14.219,2.219c-0.701,0-1.316-0.029-1.857-0.082
					c-9.043,9.012-16.271,29.941-17.595,47.297c4.642,5.262,15.046,10.32,26.667,11.889c0.465-1.299,2.166-2.088,3.695-2.789
					l0.049-0.023c0.268-0.123,0.566-0.23,0.883-0.344c0.447-0.16,1.449-0.521,1.609-0.816c-0.092-0.111-0.301-0.287-0.436-0.4
					c-0.523-0.443-1.502-1.268-1.029-2.496c0.182-0.469,0.695-1.256,2.113-1.256c0.477,0,0.971,0.084,1.441,0.176
					c0.203,0.041,0.406,0.105,0.609,0.178l-1.484-0.902l0.439-0.449c10.58-10.846,6.402-25.934,6.357-26.084l0.961-0.277
					c0.045,0.154,4.275,15.375-6.17,26.605l4.604,2.799c16.17-12.543,18.127-31.373,5.41-51.777
					C343.93,252.673,343.918,252.673,343.906,252.671z"/>
			</g>
		</g>
	</g>
</g>
<g>
	<g>
		<path fill="#7A574A" d="M436.07,337.464c-0.316,0.811-0.75,1.613-1.693,1.141c-0.834-0.416-0.799-1.279-0.996-2.045
			c-0.254-0.98-0.619-1.682-1.242-1.701c-0.842-0.021-0.641,1.477-1.275,1.516c-0.504,0.035-0.695-0.594-0.834-1.166
			c-0.146-0.619,0.018-1.459,0.207-1.977c0.422-1.141,1.334-1.656,2.443-1.492C435.082,332.093,436.979,335.153,436.07,337.464z"/>
		<g>
			<g>
				<path fill="#7A574A" d="M421.01,342.876c0-0.648-0.023-1.252-0.066-1.814c-6.041,3.268-15.275,5.412-23.631,5.412
					c-3.834,0-10.002-0.498-12.92-3.4c-1.688,9.557-0.939,23.564,0.703,29.141l4.547,0.07c2.164-9.012,7.119-15.506,13.025-19.703
					c2.82,8.424,8.043,15.537,15.865,22.393l3.365-0.342C418.961,362.112,421.01,353.454,421.01,342.876z"/>
			</g>
		</g>
		<path fill="#7A574A" d="M369.568,337.786c0.496,0.666,1.57,0.525,2.508-0.609c0.645-0.781,1.137-1.363,1.758-1.424
			c0.838-0.08,0.742,1.43,1.375,1.426c0.506-0.002,0.703-0.637,0.75-1.221c0.064-0.754-0.158-1.576-0.42-2.064
			c-0.512-0.943-1.035-1.582-2.391-1.328c-1.203,0.223-2.146,0.871-3.139,2.125C369.094,335.856,368.941,336.944,369.568,337.786z"
			/>
		<path fill="#7A574A" d="M387.869,375.841c-0.965,0.113-3.193,0.316-4.061-0.18c-1.873-1.064,0.84-2.129,2.232-2.504
			C389.617,372.196,392.17,375.335,387.869,375.841z"/>
		<path fill="#7A574A" d="M421.822,378.423c-0.965,0.111-3.193,0.314-4.062-0.18c-1.869-1.062,0.84-2.133,2.232-2.504
			C423.57,374.776,426.123,377.919,421.822,378.423z"/>
		<g>
			<path fill="#7A574A" d="M385.465,289.71c-0.334-4.398,0.672-8.553,2.885-12.098c-0.703,0.188-1.375,0.381-1.969,0.568
				c-0.133,0.213-0.271,0.416-0.391,0.646c-3.674,7.125-1.021,18.139-1.021,18.139l0.836-1.08l1.627,2.756l0.025-0.035
				C386.461,296.087,385.725,293.128,385.465,289.71z"/>
			<g>
				<path fill="#7A574A" d="M429.018,332.286l3.652-1.771c-6.293-15.291-15.166-22.449-23.928-24.904
					c-4.303,2.412-8.598,3.357-10.939,3.357c-0.111,0-0.219-0.002-0.324-0.006c-1.49-0.055-3.514-1.111-5.48-3.115
					c-8.121,2.541-14.764,9.363-19.023,24.564l4.137,1.76c2.617-7.656,9.279-14.062,9.279-14.062s-3.068,8.461-2.373,22.625
					c2.652,7.359,26.787,5.555,37.785-1.32c-3.16-10.617-4.938-21.91-4.938-21.91S422.416,321.019,429.018,332.286z"/>
			</g>
		</g>
		<g>
			<path fill="#7A574A" d="M397.479,275.651c3.932,0.568,6.961,4.699,7.947,6.621c0.566,1.102,1.955,3.07,2.986,8.273
				c0.768,3.893,1.432,11.922,1.449,11.998c1.025-0.277,2.857-2.094,2.857-2.094l1.334,5.199l3.686-4.277l0.787,2.744
				c0,0,3.723-9.006,3.633-16.398c-0.088-7.023-3.795-12.428-7-14.98c-2.662-2.117-5.398-3.557-9.209-3.867
				c-4.213-0.344-7.738,0.254-12.52,1.207c-3.809,0.76-13.506,1.658-13.506,1.658l7.924,2.467l-4.836,4.113
				C383.012,278.315,391.488,274.788,397.479,275.651z"/>
		</g>
		<path fill="#7A574A" d="M410.123,303.509l-1.002,0.271l-0.234-1.012c-0.018-0.076-0.018-0.076-0.064-0.59
			c-0.49-5.398-0.959-9.246-1.393-11.438c-0.859-4.342-1.951-6.305-2.604-7.479c-0.109-0.199-0.207-0.375-0.289-0.533
			c-0.779-1.516-3.592-5.566-7.201-6.088c-0.58-0.084-1.217-0.125-1.891-0.125c-1.865,0-3.857,0.32-5.678,0.738
			c-2.33,3.293-3.674,7.506-3.305,12.379c0.922,12.158,7.771,18.209,11.053,18.328c2.738,0.1,8.088-1.256,12.859-4.549
			C410.291,303.444,410.203,303.487,410.123,303.509z M390.41,289.31c-0.072,1.23-0.578,2.199-1.133,2.168
			c-0.549-0.033-0.941-1.053-0.871-2.285c0.072-1.227,0.58-2.197,1.131-2.164C390.09,287.06,390.482,288.081,390.41,289.31z
			 M398.08,290.169c-0.07,1.201-0.635,2.148-1.268,2.111c-0.625-0.035-1.08-1.041-1.01-2.242c0.068-1.207,0.637-2.152,1.266-2.117
			C397.693,287.958,398.148,288.964,398.08,290.169z"/>
	</g>
</g>
</svg>
