<?xml version="1.0" encoding="utf-8"?>
<!-- Generator: Adobe Illustrator 15.0.2, SVG Export Plug-In . SVG Version: 6.00 Build 0)  -->
<!DOCTYPE svg PUBLIC "-//W3C//DTD SVG 1.1//EN" "http://www.w3.org/Graphics/SVG/1.1/DTD/svg11.dtd">
<svg version="1.1" id="Layer_1" xmlns="http://www.w3.org/2000/svg" xmlns:xlink="http://www.w3.org/1999/xlink" x="0px" y="0px"
	 width="720px" height="460px" viewBox="0 0 720 460" enable-background="new 0 0 720 460" xml:space="preserve">
<path fill="#D3D696" d="M296.987,231.482c132.873-9.572,253.978,0.783,333.688,44.926c53.021,29.367,48.424,68.293,5.23,91.539
	c-48.045,25.865-145.549,47.195-283.567,47.195c-133.378,0-234.923-30.795-272.535-60.842
	c-27.039-21.605-17.824-57.859,30.807-80.672C163.542,248.803,216.259,237.291,296.987,231.482z"/>
<path fill="#AE9E7D" d="M574.281,283.936c3.865-25.969,3.926-110.696-0.369-135.596c-2.285-13.248-12.613-36.271-17.195-41.357
	c-3.793-4.211-34.529-18.209-44.398-25.383c-6.859-4.984-27.014-29.299-27.01-32.9c0.004-2.312,11.199-4.172,13.201-3.791
	c3.305,0.631,20.309,22.178,22.51,23.684c2.637,1.803,10.904,4.605,20.748,5.154c-1.453-5.02-11.119-15.152-11.078-17.562
	c0.039-2.41,10.062-5.727,12.047-4.453s9.414,10.928,11.975,14.807c3.611,5.473,7.742,14.773,13.637,17.98
	c8.133,4.426,5.143-27.379,7.16-28.859c2.016-1.479,15.949,0.301,16.137,2.053c0.186,1.754-1.867,22.25-1.238,26.27
	c0.625,3.996,9.252,12.619,12.238,12.619c5.332,0,25.227-30.178,27.693-30.631c3.639-0.668,14.225,6.484,14.307,9.965
	c0.074,3.084-26.213,43.623-29.002,50.701c-2.535,6.43,1.924,65.299,3.318,97.079c0.996,22.707,4.014,61.127,8.518,71.055
	c6.303,13.895,37.52,23.908,33.199,33.105c-2.721,5.795-38.215-3.064-45.367-0.223c-7.15,2.842-14.785,14.854-23.525,14.643
	c-5.98-0.143-5.805-13.381-5.65-15.758c-3.301-8.551-47.668,3.801-53.295-1.021C527.213,320.693,571.395,303.34,574.281,283.936z"/>
<path fill="#AE9E7D" d="M167.126,277.51c-0.691-20.928-10.686-147.055-2.659-155.815c10.413-11.361,28.716-10.062,42.106-14.354
	c4.141-1.326,4.73-4.67,3.701-9.238c-1.2-5.322-4.094-3.648-8.361-2.801c-3.305,0.656-7.179,1.285-10.534,1.816
	c-0.29,0.045,7.246-8.121,8.137-8.875c3.112-2.639,6.757-5.494,9.359-8.645c4.122-4.99-0.463-7.531-2.986-10.273
	c2.21-5.232,5.686-13.877,5.044-15.83c-1.285-3.906-10.922-4.414-12.745-3.533c-1.822,0.879-6.941,18.965-10.791,25.342
	c-4.479,7.418-28.636,26.779-33.113,25.344c-3.06-0.982-4.689-8.303-5.652-10.84c-1.702-4.486-7.782-22.225-9.654-23.84
	c-0.928-0.801-9.908,3.695-10.157,5.426c-0.249,1.732,5.767,16.662,7.815,24.395c0.884,3.334,3.024,15.279-7.135,13.303
	c-7.057-1.373-14.247-10.922-19.047-15.664c-7.111-7.023-20.096-20.936-22.199-21.809c-2.774-1.15-6.976,1.738-11.861,5.684
	c2.406,5.574,9.461,7.766,11.85,13.234c-8.254,0.549-25.196,2.193-37.614,2.809c0.88,3.279,0.718,7.145,3.182,9.789
	c3.261,3.5,35.981-1.277,44.722,1.383c6.334,1.926,14.006,12.145,17.877,17.607c3.441,4.855,7.235,18.682,7.887,33.34
	c0.736,16.582-6.623,107.088-7.702,117.417c-0.986,9.443-4.311,19.059-9.879,26.094c-4.422,5.588-11.531,9.85-17.104,14.352
	c-6.205,5.012-9.9,10.316,1.791,9.16c7.953-0.785,19.016-2.799,29.057-0.736c8.341,1.713,12.197,12.359,18.618,12.844
	c6.091,0.461,13.504-10.961,26.611-12.811c9.121-1.289,29.877,8.148,33.004,3.021C201.818,319.678,167.897,300.801,167.126,277.51z"
	/>
<g>
	<g>
		<path fill="#C83B0C" d="M106.478,366.834c1.688,0.283,5.58,0.822,6.997-0.031c3.051-1.844-1.82-4.033-4.296-4.834
			C102.827,359.912,98.95,365.572,106.478,366.834z"/>
		<path fill="#C83B0C" d="M140.764,358.041c1.701,0.174,5.622,0.475,6.98-0.469c2.931-2.025-2.065-3.91-4.587-4.557
			C136.69,351.359,133.171,357.246,140.764,358.041z"/>
	</g>
	<g>
		<path fill="#C83B0C" d="M89.621,296.588c-0.009,0.666-0.026,1.322-0.026,2.004c0.001,1.379,0.615,2.58,1.701,3.625
			C90.662,300.34,90.103,298.461,89.621,296.588z"/>
		<g>
			<g>
				<path fill="#C83B0C" d="M140.741,190.671c0.466,0.477,0.913,0.995,1.339,1.561c7.503,10.033,6.264,27.693,6.264,27.693
					l-1.568-1.445l-1.797,4.668l-0.521-0.48c0.815-4.012,1.133-8.605,0.666-13.74c-0.663-7.305-3.72-13.818-8.44-18.674
					C138.132,190.359,139.509,190.507,140.741,190.671z"/>
			</g>
		</g>
		<path fill="#C83B0C" d="M123.55,190.308c-5.917,1.889-9.516,9.042-10.54,12.262c-0.591,1.844-2.221,5.232-2.463,13.525
			c-0.181,6.195,0.871,18.746,0.864,18.867c-1.653-0.16-4.945-2.488-4.945-2.488l-0.713,8.359l-6.785-5.641l-0.507,4.432
			c0,0-8.063-12.922-9.835-24.34c-1.68-10.848,2.632-20.139,6.916-24.901c3.557-3.951,7.402-6.881,13.194-8.344
			c6.409-1.619,12.015-0.83,19.63-0.598c6.067,0.188,17.736-1.133,17.736-1.133l-8.082,5.271l8.518,5.092
			C146.539,190.673,132.562,187.425,123.55,190.308z"/>
		<path fill="#C83B0C" d="M144.147,209.016c-0.722-7.953-4.131-14.334-8.896-18.848c-3.828-0.188-8.002-0.014-11.406,1.077
			c-5.657,1.807-9.062,9.004-9.903,11.623c-0.081,0.26-0.183,0.551-0.302,0.877c-0.714,2.01-1.91,5.371-2.111,12.379
			c-0.103,3.514,0.17,9.588,0.81,18.057c0.059,0.758,0.059,0.758,0.052,0.84l-0.057,1.021l-1.018-0.1
			c-0.213-0.021-0.446-0.066-0.695-0.139c-1.039-0.291-2.341-1.012-3.314-1.609l-0.031,0.346c9.16,5.498,19.758,6.572,24.571,5.586
			C136.871,239.092,145.865,227.994,144.147,209.016z M128.875,215.77c-0.965,0.219-2.08-1.094-2.502-2.93
			c-0.414-1.84,0.025-3.508,0.98-3.725c0.961-0.217,2.078,1.092,2.498,2.934C130.27,213.887,129.832,215.551,128.875,215.77z
			 M140.281,212.582c-0.844,0.191-1.875-1.17-2.305-3.047c-0.428-1.877-0.089-3.555,0.754-3.746
			c0.844-0.191,1.875,1.174,2.304,3.049C141.462,210.715,141.118,212.391,140.281,212.582z"/>
		<g>
			<path fill="#C83B0C" d="M161.026,289.883c-1.985-15.311-10.713-40.523-25.14-50.846c-1.347,1.123-2.669,1.826-3.839,2.066
				c-1.125,0.23-2.472,0.348-4.002,0.348c-2.375,0-10.206-0.371-18.604-4.592c-0.858,0.531-1.693,1.15-2.504,1.857l-0.188,2.203
				l-0.163,1.908l-1.473-1.225l-0.55-0.457c-0.02,0.023-0.04,0.041-0.059,0.064l-0.021-0.059
				c-16.898,13.143-21.072,40.262-10.202,66.16l5.692-2.1c-5.879-29.25,10.968-43.791,11.14-43.934l0.643,0.766
				c-0.168,0.141-16.718,14.467-10.718,43.387l0.087,0.422l-0.819,0.303c17.744,3.916,51.299-0.383,51.146-9.096
				c-0.286-16.334-9.542-36.566-9.542-36.566s10.989,17.658,13.114,30.578L161.026,289.883z"/>
		</g>
	</g>
	<g>
		<path fill="#C83B0C" d="M158.186,300.406c0.207,0.301,0.461,0.568,0.811,0.771c1.131,0.658,2.516,0.441,3.368-0.561
			c2.795-3.287-2.176-11.684-6.005-7.996c-0.948,0.912-1.941,3.371-1.866,4.674c0.096,1.684,1.365,1.896,2.609,1.076
			C157.542,299.047,157.772,299.799,158.186,300.406z"/>
	</g>
	<g>
		<path fill="#C83B0C" d="M101.904,311.438c0.01-0.121,0.031-0.244,0.067-0.369c5.017,0.797,1.035-5.561-3.245-4.012
			c-9.064,3.283,2.895,17.064,5.506,10.408C105.248,314.879,101.749,313.479,101.904,311.438z"/>
		<g>
			<g>
				<path fill="#C83B0C" d="M116.002,308.619c-2.429,0-6.932-0.111-11.596-0.744c0.567,0.688,0.904,1.459,0.904,2.172
					c0,0.912-0.595,1.969-2.245,2.08c0.181,0.348,0.487,0.727,0.805,1.119c0.878,1.088,2.081,2.576,1.292,4.584
					c-0.828,2.111-2.377,2.428-3.227,2.428c-3.016,0-6.774-3.906-7.447-7.738c-0.325-1.85,0.101-3.447,1.184-4.654l-1.938,0.715
					l-0.187-0.438c-0.581-1.361-1.11-2.729-1.608-4.094c-0.423-0.285-0.815-0.586-1.169-0.906
					c0.13,18.795,5.893,38.744,12.372,57.145l6.128-0.139c3.725-17.492,6.725-29.16,13.328-38.4
					c6.214,7.469,10.266,14.365,14.82,29.842l6.717-0.254c3.621-18.926,5.36-34.49,5.297-49.428
					C143.271,306.318,128.439,308.619,116.002,308.619z"/>
			</g>
		</g>
	</g>
</g>
<g>
	<g>
		<path fill="#F3E6C6" d="M533.609,205.438c0,0-57.192,59.445-159.925,59.445c-99.139,0-157.494-62.129-157.494-62.129l13.12-16.12
			c0,0,54.86,21.85,145.872,21.85c84.838,0,145.308-19.167,145.308-19.167L533.609,205.438z"/>
		<g>
			<path fill="#99A031" d="M369.976,221.633c-94.854,0-139.486-28.674-139.926-28.963l1.649-2.506
				c0.434,0.285,44.426,28.469,138.277,28.469c94.004,0,149.315-26.086,149.864-26.35l1.301,2.703
				C520.588,195.254,464.722,221.633,369.976,221.633z"/>
			<path fill="#C05803" d="M369.976,230.939c-85.931,0-142.212-34.006-142.771-34.35l1.571-2.555
				c0.552,0.34,56.164,33.904,141.199,33.904c103.826,0,151.174-32.268,151.64-32.594l1.719,2.459
				C522.861,198.135,474.735,230.939,369.976,230.939z"/>
			<path fill="#C4C63A" d="M371.268,239.404c-0.739,0-1.474-0.002-2.218-0.006c-87.543-0.439-144.278-38.799-144.841-39.186
				l1.701-2.471c0.556,0.381,56.586,38.221,143.155,38.656c105.698,0.549,154.754-37.066,155.236-37.447l1.854,2.359
				c-0.505,0.396-12.661,9.832-38.2,19.314C464.782,229.227,425.825,239.404,371.268,239.404z"/>
			<path fill="#B55D4A" d="M370.964,249.162c-0.636,0-1.268-0.002-1.907-0.004c-87.583-0.441-146.95-45.102-147.539-45.553
				l1.823-2.383c0.582,0.445,59.198,44.5,145.731,44.936c55.176,0.27,95.373-11.611,119.389-21.633
				c26.019-10.857,39.165-21.924,39.295-22.033l1.946,2.281c-0.54,0.463-13.537,11.422-39.937,22.459
				C465.749,237.273,425.733,249.162,370.964,249.162z"/>
		</g>
		<g>
			<g>
				<path fill="#A1856E" d="M375.826,188.14c-0.247-0.793-0.179-1.633-0.117-2.373c0.015-0.172,0.028-0.34,0.037-0.504
					c0.024-0.461,0.071-0.936,0.117-1.416c0.112-1.162,0.229-2.363,0.015-3.396c-0.562-2.723-2.254-4.707-4.044-6.809
					c-0.776-0.91-1.579-1.854-2.306-2.877c-0.361-0.51-0.627-1.102-0.885-1.676c-0.498-1.107-0.836-1.779-1.354-1.779
					c-0.031,0-0.062,0.002-0.095,0.006c-2.04,0.199-4.459,2.623-5.37,3.537c-1.994,2.002-5.549,2.895-8.049,3.391
					c-0.564,0.113-1.102,0.188-1.621,0.26c-1.289,0.18-2.401,0.336-3.496,1.004c-0.372,0.227-0.779,0.436-1.209,0.658
					c-1.168,0.598-2.49,1.277-2.754,2.225c-0.35,1.26-0.35,3.078-0.348,4.682c0,0.643,0,1.252-0.021,1.814
					c-0.01,0.264,0.064,0.738,0.136,1.195c0.197,1.254,0.448,2.902-0.383,3.93c4.365,7.624,11.984,11.563,16.691,11.389
					c4.398-0.16,11.498-4.785,15.434-12.301C376.091,188.878,375.964,188.576,375.826,188.14z M353.175,184.363
					c-1.02,0.043-1.865-1.197-1.893-2.771c-0.025-1.572,0.781-2.883,1.791-2.926c1.014-0.043,1.863,1.193,1.889,2.773
					C354.991,183.011,354.187,184.318,353.175,184.363z M366.546,184.421c-0.982,0.039-1.797-1.227-1.824-2.834
					c-0.025-1.607,0.752-2.941,1.734-2.982c0.98-0.041,1.797,1.229,1.82,2.834C368.304,183.046,367.519,184.376,366.546,184.421z"/>
			</g>
		</g>
		<g>
			<g>
				<path fill="#A1856E" d="M427.013,244.822c-0.732-5.115-2.807-10.549-8.674-10.547c-0.997,0-2.104,0.156-3.33,0.498
					c-8.385,2.332-7.803,10.303-4.314,19.666c0.201,0.002,0.402,0.006,0.604,0.006c6.404,0,12.105-2.926,15.844-6.787
					C427.173,246.662,427.14,245.707,427.013,244.822z"/>
			</g>
			<g>
				<g>
					<g>
						<g>
							<path fill="#A1856E" d="M382.728,173.847c0.225-12.15,9.867-25.529,21.947-25.344c15.26-1.732,25.533,13.521,26.105,23.936
								c0.273,4.951,0.879,9.605,0.877,14.576c-0.002,2.787-1.119,5.346-1.154,8.045c-0.027,2.273,1.711,4.463,1.096,6.797
								c-0.352,1.332-1.746,2.229-2.301,3.484c-0.525,1.191-0.748,2.721-1.033,4c-0.305,1.367-0.713,5.855-3.256,5.096
								c-1.658-0.496-1.811-5.035-1.998-6.408c-0.777-5.674,1.213-12.105-0.275-17.538c-0.77-2.811-1.139-4.533-0.861-7.418
								c0.068-0.713,0.756-9.701,0.273-9.854c-6.834-2.139-21.488-12.402-25.572-13.912c-3.256,2.594-7.031,11.488-6.855,17.969
								c0.096,3.508,0.393,7.008,0.574,10.51c0.18,3.403-0.615,7.317-0.006,10.598c0.477,2.564,2.125,4.641,1.838,7.412
								c-0.26,2.525-2.449,3.873-2.795,6.346c-0.186,1.32,0.742,4.768-1.771,4.35c-3.375-0.559-3.352-8.189-4.514-10.348
								c-2.17-4.027-0.885-8.246-1.482-12.551c-0.453-3.254-1.559-6.889-0.564-10.149
								C382.001,180.166,382.663,177.427,382.728,173.847z"/>
							<g>
								<path fill="#A1856E" d="M380.043,183.154c0.519-1.697,0.927-3.203,1.214-4.715c-0.232-0.928-0.465-1.859-0.512-2.904
									c-0.086-1.98-0.008-4.211-0.26-6.197c-0.016-0.125-0.033-0.248-0.051-0.369c-0.158-1.037-0.566-2.004-0.693-3.061
									c-0.174-1.43,0.014-1.385-1.1-2.199c-1.979-1.443-4.211-2.803-6.01-4.479c-1.77-1.648-2.416-2.143-4.732-2.354
									c-2.215-0.203-4.281-1.07-6.594-1.07c-4.201,0-8.408,1.023-12.07,3.105c-2.744,1.559-7.172,4.486-8.41,7.525
									c-0.678,1.664-0.875,3.658-1.162,5.406c-0.301,1.822-1.732,2.969-2.277,4.727c-0.484,1.559-0.053,2.982-0.033,4.545
									c0.025,2.053-0.33,3.051,1.17,4.631c0.506,0.533,0.941,0.854,1.318,1.482c0.346,0.58,0.299,1.262,0.807,1.783
									c0.492,0.51,1.768,1.023,2.396,0.613c1.238-0.809,0.24-3.549,0.285-4.775c0.072-2-0.127-4.816,0.404-6.727
									c0.496-1.785,2.947-2.578,4.404-3.469c1.754-1.07,3.486-1,5.443-1.391c2.443-0.486,5.76-1.334,7.537-3.117
									c1.479-1.482,3.76-3.609,5.98-3.826c1.914-0.188,2.232,2.439,3.246,3.867c2.369,3.342,5.639,5.84,6.514,10.061
									c0.336,1.627-0.025,3.434-0.113,5.07c-0.043,0.797-0.205,1.752,0.035,2.525c0.064,0.201,0.307,0.91,0.465,1.012
									c0.029,0.02,0.844,0.297,0.693,0.066c0.5,0.766,1.188,0.725,1.885,0.291C379.536,187.191,379.435,185.146,380.043,183.154z"
									/>
							</g>
						</g>
						<path fill="#A1856E" d="M391.558,209.6c-0.564,0.871-1.098,1.693-1.236,2.682c-0.031,0.223-0.014,0.637,0.004,1.037
							c0.052,1.186,0.115,2.662-0.737,3.553c-0.286,0.299-0.802,0.656-1.634,0.656c-0.178,0-0.365-0.016-0.559-0.049
							c-0.352-0.059-0.672-0.17-0.965-0.32c2.449,2.496,5.373,5.953,8.23,10.525l5.146-4.705c-2.143-4.498-4.768-9.287-8.016-13.752
							C391.714,209.352,391.635,209.48,391.558,209.6z"/>
					</g>
					<g>
						<path fill="#A1856E" d="M420.878,182.978c0.133-1.383,0.526-7.266,0.428-8.984c-4.172-1.461-10.529-5.311-16.166-8.725
							c-3.387-2.051-6.605-4-8.372-4.799c-2.903,2.814-6.21,10.859-6.048,16.779c0.061,2.223,0.205,4.488,0.346,6.678
							c0.08,1.27,0.162,2.539,0.228,3.807c0.021,0.404,0.027,0.814,0.026,1.229c4.302,5.301,9.881,8.436,13.645,8.573
							c4.462,0.164,11.324-3.062,16.169-9.37C420.808,186.57,420.681,185.041,420.878,182.978z M398.667,179.021
							c-1.061-0.051-1.916-1.5-1.887-3.254c0.027-1.75,0.916-3.135,1.986-3.09s1.918,1.5,1.891,3.252
							C400.628,177.681,399.739,179.062,398.667,179.021z M413.249,178.955c-1.104-0.047-1.98-1.473-1.949-3.188
							c0.029-1.723,0.953-3.07,2.061-3.023c1.102,0.045,1.98,1.477,1.953,3.189C415.282,177.65,414.362,179.003,413.249,178.955z"/>
					</g>
				</g>
			</g>
		</g>
		<g>
			<g>
				<path fill="#A1856E" d="M382.513,234.914c0.105,3.982,1.095,7.203,2.75,9.783c0.255-2.131,0.964-4.365,2.39-6.193
					C385.231,237.541,383.509,236.342,382.513,234.914z"/>
			</g>
			<g>
				<path fill="#A1856E" d="M407.53,241.1c-0.561,0.01-1.122,0.018-1.684,0.018c-0.17,0-0.34-0.002-0.51-0.002
					c0.918,1.961,1.394,4.268,1.344,6.699c-0.047,2.326-0.35,4.4-0.889,6.414c1.271,0.104,2.555,0.168,3.838,0.195
					C407.681,249.125,406.805,244.66,407.53,241.1z"/>
			</g>
			<g>
				<path fill="#A1856E" d="M431.218,235.326c-0.699,1.189-2.374,2.238-5.013,3.133c0.79,1.584,1.424,3.607,1.798,6.221
					c0.086,0.596,0.123,1.225,0.141,1.869c2.93-3.508,4.277-7.586,3.189-10.918C431.299,235.523,431.253,235.432,431.218,235.326z"
					/>
			</g>
		</g>
		<g>
			<g>
				<path fill="#A1856E" d="M337.89,235.82c-0.072,0.443-0.135,0.898-0.182,1.373c-0.242,2.393,0.65,4.799,2.39,6.992
					c0.411-1.289,0.968-2.475,1.728-3.492c0.541-0.727,1.172-1.334,1.869-1.85C341.046,238.012,338.976,236.996,337.89,235.82z"/>
			</g>
			<g>
				<path fill="#A1856E" d="M382.218,235.979c-1.307,1.977-3.883,3.25-6.822,4.061c1.691,2.072,2.59,5.039,2.847,7.889
					c2.821-2.633,4.442-6.271,4.087-10.975C382.306,236.631,382.267,236.305,382.218,235.979z"/>
			</g>
			<g>
				<path fill="#A1856E" d="M361.229,241.402c-1.217-0.029-2.453-0.092-3.692-0.18c0.815,2.518,0.226,5.734-0.444,8.662
					c-0.223,0.971-0.492,1.891-0.791,2.775c0.791,0.135,1.594,0.246,2.41,0.33c0.25,0.025,0.5,0.043,0.749,0.062
					c-0.097-0.928-0.157-1.883-0.179-2.887C359.214,246.758,359.909,243.693,361.229,241.402z"/>
			</g>
		</g>
		<path fill="#BCAD8D" d="M533.609,205.438c0,0-57.192,59.445-159.925,59.445c-99.139,0-157.494-62.129-157.494-62.129
			s56.119,43.547,158.992,43.547C472.976,246.301,533.609,205.438,533.609,205.438z"/>
		<g>
			
				<rect x="176.517" y="174.861" transform="matrix(0.9128 0.4085 -0.4085 0.9128 89.4365 -68.0805)" fill="#F3E6C6" width="55.202" height="0.999"/>
			
				<rect x="175.434" y="176.883" transform="matrix(0.8709 0.4914 -0.4914 0.8709 113.2959 -76.6045)" fill="#F3E6C6" width="54.087" height="0.986"/>
			<polygon fill="#F3E6C6" points="222.469,195.096 178.642,164.488 179.207,163.685 223.033,194.293 			"/>
			<polygon fill="#F3E6C6" points="219.15,199.098 178.603,164.46 179.246,163.712 219.792,198.352 			"/>
			
				<rect x="170.706" y="182.921" transform="matrix(0.6939 0.72 -0.72 0.6939 192.5354 -86.1103)" fill="#F3E6C6" width="53.703" height="0.999"/>
		</g>
		<g>
			
				<rect x="545.183" y="150.443" transform="matrix(0.4085 0.9128 -0.9128 0.4085 485.2861 -392.7634)" fill="#F3E6C6" width="0.999" height="55.202"/>
			
				<rect x="546.83" y="153.016" transform="matrix(0.4926 0.8702 -0.8702 0.4926 434.4012 -384.9471)" fill="#F3E6C6" width="0.985" height="54.086"/>
			<polygon fill="#F3E6C6" points="527.332,197.779 526.768,196.977 570.594,166.369 571.158,167.171 			"/>
			<polygon fill="#F3E6C6" points="530.65,201.781 530.009,201.035 570.556,166.396 571.197,167.144 			"/>
			
				<rect x="551.743" y="159.253" transform="matrix(0.7202 0.6938 -0.6938 0.7202 283.6488 -331.0653)" fill="#F3E6C6" width="0.999" height="53.703"/>
		</g>
		
			<rect x="215.144" y="179.498" transform="matrix(0.6905 0.7234 -0.7234 0.6905 204.2305 -98.0139)" fill="#B68D26" width="3" height="20.276"/>
		
			<rect x="523.145" y="191.268" transform="matrix(0.7105 0.7037 -0.7037 0.7105 290.1353 -319.6953)" fill="#B68D26" width="20.928" height="3"/>
	</g>
	<g>
		<g>
			<g>
				<path fill="#A1856E" d="M446.476,244.174c-1.172,1.289-3.025,1.52-4.629,1.041c-1.34-0.402-2.736-1.533-3.156-3.004
					c-1.021-3.586,1.68-7.107,5.785-5.283c3.24,1.439,4.488,4.143,2.156,7.064C446.581,244.055,446.53,244.115,446.476,244.174z"/>
			</g>
		</g>
	</g>
	<g>
		<path fill="#A1856E" d="M324.149,244.551c0.348,0.408,0.816,0.748,1.422,0.988c0.914,0.361,1.836,0.301,2.65-0.277
			c0.988-0.701,0.885-1.84,1.629-2.52c0.514,0.225,1.15,0.15,1.73,0.123c1.195-0.057-0.459-4.842-0.76-5.217
			c-0.926-1.146-2.822-1.471-4.184-0.865C324.003,237.953,322.228,242.297,324.149,244.551z"/>
	</g>
	<g>
		<path fill="#A1856E" d="M391.071,273.35c0.043-4.355,8.123-4.02,7.779-0.096c-0.162,1.855-1.062,6.924-3.941,6.689
			C392.347,279.734,391.04,276.371,391.071,273.35z"/>
		<path fill="#A1856E" d="M418.112,276.809c2.908,0.182,5.26-4.857,4.299-7.23c-1.52-3.771-6.949-3.094-7.049,0.318
			C415.343,270.574,415.466,276.646,418.112,276.809z"/>
		<path fill="#A1856E" d="M395.522,235.891c-8.133,0-10.088,7.932-9.195,13.033s1.861,12.5,5.818,19.873h5.475
			c5.307-9.146,7.912-13.73,8.061-21.004C405.81,241.498,402.286,235.891,395.522,235.891z"/>
		<g>
			<path fill="#A1856E" d="M427.013,244.822c0.857,5.982-2.16,14.936-5.322,20.66l-5.895,0.396
				c-6.746-13.656-12.471-27.855-0.787-31.105C423.462,232.42,426.157,238.84,427.013,244.822z"/>
			<g>
				<g>
					<g>
						<g>
							<g>
								<path fill="#A1856E" d="M427.505,214.619c-0.482,0.545-1.111,0.904-1.943,0.904c-0.273,0-0.555-0.043-0.839-0.129
									c-1.89-0.564-2.329-3.488-2.617-6.436c-0.031-0.32-0.058-0.592-0.085-0.793c-0.359-2.621-0.152-5.383,0.047-8.053
									c0.25-3.344,0.486-6.5-0.296-9.356c-0.056-0.203-0.105-0.393-0.157-0.588c-0.191-0.098-0.377-0.203-0.572-0.297
									c-0.584,0.686-1.168,1.311-1.732,1.866c-4.213,4.133-9.716,6.803-14.018,6.803c-0.123,0-0.246-0.002-0.365-0.006
									c-4.089-0.148-9.406-3.27-13.545-7.95c-0.035-0.041-0.068-0.082-0.103-0.123c-0.026,0.581-0.058,1.159-0.093,1.729
									c-0.125,2.061-0.253,4.189,0.086,6.012c0.164,0.887,0.488,1.723,0.834,2.609c0.598,1.541,1.217,3.133,1.015,5.086
									c-0.157,1.531-0.905,2.684-1.563,3.701c-0.564,0.871-1.098,1.693-1.236,2.682c-0.031,0.223-0.014,0.637,0.004,1.037
									c0.052,1.186,0.115,2.662-0.737,3.553c-0.286,0.299-0.802,0.656-1.634,0.656c-0.178,0-0.365-0.016-0.559-0.049
									c-2.972-0.492-3.777-4.531-4.424-7.777c-0.018-0.086-0.035-0.17-0.051-0.254c0.035,1.516,0.047,3.037-0.051,4.566
									c-0.379,5.932-0.92,11.957-0.377,18.082c0.221,2.496,2.457,4.334,5.855,5.617c1.803-1.844,4.262-2.822,7.174-2.822
									c3.042,0,5.693,1.064,7.666,3.076c0.616,0.629,1.152,1.354,1.615,2.145c0.991,0.012,1.986,0.008,2.979-0.016
									c0.117-0.381,0.252-0.754,0.413-1.111c1.136-2.541,3.339-4.283,6.546-5.176c1.275-0.354,2.484-0.533,3.598-0.533
									c2.447,0,5.332,0.896,7.381,4.293c3.318-1.098,5.254-2.492,4.807-4.064C428.419,226.119,427.788,220.137,427.505,214.619z"
									/>
								<g>
									<path fill="#A1856E" d="M382.876,213.867c0.57,0.475,1.217,1.037,1.938,1.709c-0.002-0.004-0.004-0.008-0.006-0.01
										c-0.114-0.186-0.221-0.379-0.32-0.58c-0.016-0.033-0.031-0.064-0.047-0.098c-0.088-0.182-0.172-0.371-0.25-0.564
										c-0.014-0.033-0.027-0.066-0.041-0.1c-0.086-0.219-0.17-0.443-0.246-0.676c0,0,0-0.002-0.002-0.004
										c-0.158-0.48-0.297-0.979-0.42-1.482c-0.014-0.053-0.026-0.105-0.039-0.16c-0.045-0.189-0.09-0.377-0.131-0.568
										c-0.018-0.072-0.033-0.145-0.049-0.217c-0.039-0.18-0.076-0.357-0.113-0.535c-0.014-0.068-0.028-0.137-0.043-0.205
										c-0.045-0.229-0.092-0.455-0.135-0.676c-0.018-0.086-0.035-0.17-0.051-0.254
										C382.956,210.914,382.964,212.389,382.876,213.867z"/>
									<path fill="#A1856E" d="M381.497,232.184c-0.439-4.967-0.176-9.879,0.139-14.652c-0.562-3.219-1.146-5.475-1.146-5.475
										s0.532,0.344,1.423,1.035c0.048-1.27,0.034-2.525,0.009-3.621l0.982-0.107c-0.227-1.127-0.463-2.232-0.737-2.744
										c-1.527-2.834-1.482-5.725-1.438-8.518c0-0.049,0-0.1,0.002-0.146c-2.061-1.469-4.279-2.75-6.669-3.785
										c-0.251,0.309-0.507,0.613-0.771,0.912c-3.811,4.309-8.709,7.182-12.48,7.318c-0.111,0.004-0.225,0.006-0.338,0.006
										c-3.967,0-9.035-2.459-12.914-6.264c-0.496-0.486-1.007-1.033-1.52-1.629c-14.695,7.674-19.47,27.418-20.312,41.07
										l6.01,0.75c1.721-7.441,6.941-20.039,10.414-23.73c0.414,7.455-2.996,14.232-4.168,20.832
										c-0.321,1.814,2.495,3.465,6.837,4.707c1.478-0.777,3.222-1.184,5.239-1.184h0.008h0.001
										c3.036,0.002,5.228,0.818,6.511,2.43c0.2,0.252,0.367,0.523,0.52,0.801c1.582,0.123,3.184,0.201,4.775,0.229
										c0.257-0.352,0.531-0.678,0.822-0.977c1.615-1.648,3.68-2.482,6.137-2.482c2.303,0,4.254,0.76,5.814,2.258
										c3.943-1.006,6.744-2.691,7.344-5.215C381.726,233.426,381.554,232.822,381.497,232.184z"/>
								</g>
							</g>
							<path fill="#A1856E" d="M432.394,198.701c0.298,1.059,0.49,2.205,0.172,3.412c-0.252,0.955-0.875,1.688-1.425,2.334
								c-0.38,0.447-0.738,0.869-0.928,1.299c-0.359,0.812-0.569,1.855-0.773,2.863c-0.065,0.326-0.13,0.645-0.198,0.951
								c-0.037,0.164-0.075,0.379-0.119,0.627c-0.101,0.557-0.229,1.256-0.424,1.963c3.889,5.123,9.509,15.867,11.178,23.084
								l6.555,0.184C445.741,224.256,441.558,209.156,432.394,198.701z"/>
						</g>
					</g>
				</g>
			</g>
		</g>
	</g>
	<g>
		<path fill="#A1856E" d="M373.015,272.166c-0.041-4.092-7.635-3.777-7.312-0.09c0.152,1.744,1,6.51,3.705,6.289
			C371.815,278.168,373.044,275.006,373.015,272.166z"/>
		<path fill="#A1856E" d="M344.952,275.494c2.74-0.021,4.615-3.898,3.561-6.061c-1.672-3.438-6.719-2.447-6.588,0.758
			C341.95,270.828,342.46,275.514,344.952,275.494z"/>
		<path fill="#A1856E" d="M368.831,237.959c7.643,0,9.129,9.469,8.291,14.264c-0.84,4.795-4.105,9.91-5.117,15.664h-5.146
			c-4.51-6.254-6.436-10.904-6.576-17.74C360.161,244.23,362.474,237.959,368.831,237.959z"/>
		<g>
			<path fill="#A1856E" d="M356.118,249.662c-1.527,6.674-5.143,10.971-7.49,16.824l-5.705-0.166
				c-4.443-14.971-4.258-28.369,7.143-28.361C358.312,237.963,357.386,244.125,356.118,249.662z"/>
			<g>
				<g>
					<path fill="#A1856E" d="M350.065,237.959c-0.003,0-0.005,0-0.008,0c-5.154,0-8.008,2.748-9.184,7.137
						c3.131,3.381,8.307,6.145,14.428,7.379c0.307-0.898,0.59-1.822,0.816-2.812C357.386,244.125,358.312,237.963,350.065,237.959z"
						/>
				</g>
			</g>
		</g>
	</g>
</g>
</svg>
