<?xml version="1.0" encoding="utf-8"?>
<!-- Generator: Adobe Illustrator 15.0.2, SVG Export Plug-In . SVG Version: 6.00 Build 0)  -->
<!DOCTYPE svg PUBLIC "-//W3C//DTD SVG 1.1//EN" "http://www.w3.org/Graphics/SVG/1.1/DTD/svg11.dtd">
<svg version="1.1" id="Layer_1" xmlns="http://www.w3.org/2000/svg" xmlns:xlink="http://www.w3.org/1999/xlink" x="0px" y="0px"
	 width="720px" height="460px" viewBox="0 0 720 460" enable-background="new 0 0 720 460" xml:space="preserve">
<g>
	<path fill="#DFDDD7" d="M297.302,329.251c118.813-4.918,227.096,0.4,298.375,23.084c47.408,15.09,43.299,35.09,4.678,47.035
		c-42.962,13.291-130.146,24.252-253.556,24.252c-119.266,0-210.065-15.824-243.694-31.264c-24.178-11.1-15.939-29.73,27.543-41.451
		C177.98,338.151,225.119,332.237,297.302,329.251z"/>
	<polygon fill="#D5A499" points="344.053,340.552 630.228,376.552 627.228,36.378 345.053,76.144 	"/>
	<g>
		<g>
			<g>
				<g>
					<path fill="#7A574A" d="M465.246,303.622c-3.275,4.516-14.592,5.043-19.637,5.043c-13.932,0-31.432-3.523-37.924-10.256
						c-0.24-0.25-0.462-0.502-0.67-0.758c-12.457,14.08-18.248,38.562-17.678,61.193l6.818,1.254
						c7.412-17.164,20.133-31.557,36.102-34.969c3,15.066,7.244,30.559,21.32,46.039l6.953-3.131
						C456.039,342.876,467.741,324.964,465.246,303.622z"/>
				</g>
			</g>
			<g>
				<path fill="#7A574A" d="M391.023,366.95c-1.879-0.158-6.188-0.637-7.467-1.939c-2.758-2.797,3.043-3.811,5.904-3.996
					C396.807,360.552,399.408,367.651,391.023,366.95z"/>
			</g>
			<g>
				<path fill="#7A574A" d="M460.135,377.708c-1.82,0.49-6.029,1.51-7.678,0.725c-3.551-1.688,1.688-6.016,4.318-7.164
					C463.52,368.321,468.258,375.501,460.135,377.708z"/>
			</g>
			<g>
				<path fill="#7A574A" d="M468.021,220.565c-2.674-4.59-2.65-12.318-2.867-18.969c-0.396-12.207-1.795-15.781-6.809-20.844
					c-4.168-4.203-8.57-7.377-15.115-8.566c-7.795-1.412-16.715,0.67-21.754,3.273c-2.115,1.094-6.426,3.086-10.662,5.494
					c-2.816,1.6-10.936,3.811-14.322,3.49c1.791,1.967,7.537,3.594,10.676,4.611c-2.811,2.178-8.617,3.674-8.834,4.371
					c8.188,2.402,17.307,1.512,26.969,0.008c1.438,5.951,3.602,12.549,6.953,20.688c3.371,8.176,8.684,14.33,13.686,18.051
					c2.057-3.338,3.533-6.707,3.533-6.707s3.832,2.199,10.537,3.688c-1.072-3.848-0.734-7.93-0.734-7.93
					S463.973,220.755,468.021,220.565z"/>
				<g>
					<path fill="#7A574A" d="M459.309,245.388c1.355,7.83-0.559,16.762-5.7,24.646c-5.868,9.002-16.97,17.375-32.012,17.375
						c-3.159,0-6.492-0.369-9.987-1.18l-0.417-0.096l0.652-8.998l0.489,0.025c19.605,0.99,27.961-15.264,28.043-15.428l0.895,0.447
						c-0.084,0.168-8.602,16.758-28.5,16l-0.52,7.17c16.511,3.676,31.636-2.236,40.52-15.861c6.837-10.486,7.83-22.848,2.814-31.725
						c-0.28-0.447-0.57-0.904-0.889-1.383c-1.326-2.01-3.926-3.852-6.941-5.318c-0.303,0.535-0.623,1.084-0.963,1.633l-0.572,0.93
						l-0.875-0.65c-0.289-0.215-0.604-0.461-0.93-0.721c-7.532,4.551-15.736,5.125-19.293,5.125c-1.535,0-2.989-0.1-4.203-0.287
						c-0.43-0.066-0.883-0.193-1.351-0.369c-3.919,5-6.562,11.506-8.112,18.205c-1.814,7.832-3.062,14.141-3.911,20.088
						c1.554,0.561,2.733,1.492,3.398,2.711c0.714,1.312,0.81,3.15,0.263,5.041c-0.588,2.041-2.015,3.781-4.018,4.898
						c-0.299,0.168-0.619,0.307-0.939,0.441c-0.08,1.371-0.146,2.764-0.197,4.199c-0.562,15.439,55.641,20.314,58.939,9.643
						c4.098-13.258-0.809-38.053-2.58-44.404C460.914,252.179,460.475,248.858,459.309,245.388z"/>
				</g>
			</g>
			<path fill="#7A574A" d="M431.332,214.503c-3.096-7.518-5.262-13.883-6.781-19.941c-4.533,0.691-9.734,1.352-14.754,1.352
				c-1.002,0-1.967-0.033-2.913-0.086c-0.524,2.152-0.858,4.424-0.96,6.82c-0.873,20.904,9.584,32.596,15.148,33.457
				c4.549,0.705,14.234,0.326,22.519-4.529C440.008,228.546,434.867,223.075,431.332,214.503z M411.82,214.497
				c-1.076,0.029-1.998-1.623-2.053-3.691c-0.059-2.074,0.777-3.768,1.855-3.799c1.078-0.029,2.002,1.625,2.055,3.691
				C413.73,212.767,412.902,214.47,411.82,214.497z"/>
			<g>
				<g>
					<path fill="#777775" d="M404.846,288.597c-0.332,3.014-2.893,5.365-5.994,5.365c-3.325,0-6.029-2.705-6.029-6.029
						c0-2.441,1.46-4.545,3.551-5.492c0.308-0.271,0.658-0.479,1.049-0.576c0.209-0.053,0.41-0.078,0.616-0.078
						c0.294,0,0.538,0.055,0.716,0.094c0.056,0.014,0.086,0.016,0.129,0.023c0.055,0,0.107,0.006,0.16,0.008
						c0.066-0.008,0.143-0.029,0.248-0.084c0.571-0.299,0.529-0.822,0.485-1.035c-0.065-0.316-0.173-0.566-0.886-0.662l-0.988-0.133
						l0.004-0.035c-3.982,0.469-7.084,3.861-7.084,7.971c0,4.428,3.602,8.029,8.029,8.029c4.43,0,8.033-3.602,8.033-8.029
						c0-0.041-0.006-0.078-0.006-0.119C406.24,288.14,405.562,288.405,404.846,288.597z"/>
				</g>
				<path fill="#888886" d="M402.895,292.271c0.498-1.746,2.57-2.176,3.682-1.969c1.176,0.221,2.115,1.16,2.146,2.406
					c0.027,1.174-0.592,1.727-1.068,2.035c0.168,0.678,0.754,1.852,1.09,2.465c0.26,0.475,0.609,0.871,0.756,1.385
					c-0.764,0.324-2.025,0.613-1.686-0.369c-1.012,0.021-0.854-0.824-1.176-1.471c-0.15-0.305-0.5-1.117-0.754-1.248
					c-0.732,0.342-1.182,0.113-1.715-0.057C403.012,295.075,402.514,293.599,402.895,292.271z"/>
				<path fill="#AAABA8" d="M406.211,291.446c2.102,1.643,1.193,4.377-0.211,5.504c0.852,0.873,3.377,5.34,3.475,6.873
					c-0.188,0.137-0.15,0.146-0.297,0.297c-0.68,0.34-1.428,0.545-1.629-0.393c-0.494,0.039-1.111-0.035-1.477-0.174
					c0.35-0.164,0.605-0.609,0.895-0.852c-0.463-0.236-0.924-0.35-1.443-0.355c0.195-1.059-0.521-1.377-0.488-2.32
					c-0.729-0.219-0.881-1.465-0.887-2.225c-1.217,0.225-2.869-0.297-3.381-1.596C399.289,292.46,403.357,289.218,406.211,291.446z"
					/>
				<path fill="#888886" d="M398.354,298.038c-0.387-0.535-0.553-1.248-0.643-1.889c-0.184-1.291,0.201-2.281,1.037-3.244
					c1.738-2.004,5.5-0.898,6.068,1.611c0.193,0.848,0.016,1.387-0.443,2.113c-0.35,0.553-0.914,0.75-1.295,1.246
					c-0.307,0.402-0.107,0.605,0.014,1.088c0.129,0.523,0.193,1.096,0.246,1.629c0.115,1.137-0.031,2.16-0.197,3.268
					c-0.127,0.846-0.492,2.326-1.588,2.365c-1.17,0.043-1.764-1.436-1.627-2.377c0.076-0.521-0.193-0.893-0.09-1.279
					c0.082-0.299,0.518-0.471,0.488-0.793c-0.029-0.307-0.521-0.467-0.74-0.594c0.154-0.25,0.896-0.627,0.836-0.938
					c-0.057-0.297-0.639-0.297-0.881-0.354c0.082-0.33,0.457-0.586,0.381-0.969C399.293,298.839,398.732,298.563,398.354,298.038z"
					/>
				<path fill="#939491" d="M393.172,294.056c0.004-1.744,1.664-3.623,4.057-3.527c2.172,0.086,3.949,1.477,4.049,3.531
					c0.049,0.975-0.633,3.164-2.395,3.625c-0.094,1.527,0.293,2.746,0.527,4.176c0.16,0.967,0.73,3.387,0.148,4.154
					c-0.656,0.863-2.727,0.824-3.32-0.143c-0.52-0.848,1.162-2.795-0.289-3.064c-0.082-0.016,0.701-4.383,0.205-4.932
					C394.977,298.017,393.166,296.384,393.172,294.056z"/>
				<path fill="#888886" d="M394.781,290.103c3.439,0.328,2.893,7.189,0.207,6.633c0.043,1.17-0.656,2.354-1.119,3.363
					c-0.492,1.072-0.973,2.264-1.686,3.207c-0.533,0.707-1.879,1.65-2.512,0.697c-0.473-0.711,0.129-1.34,0.246-1.951
					c0.199-1.041-0.031-0.557-0.758-1.09c0.328-0.08,0.658-0.258,0.887-0.49c-0.254-0.213-0.377-0.512-0.486-0.77
					c0.303-0.047,0.57-0.258,0.783-0.416c-0.211-0.16-0.336-0.488-0.492-0.67c0.408-0.168,0.824-0.295,1.258-0.332
					c0.062-0.312-0.35-1.145-0.291-1.271c0.184-0.396,0.996-0.422,1.363-0.508C390.34,294.188,391.023,289.743,394.781,290.103z"/>
			</g>
			<path fill="#7A574A" d="M400.756,280.589c-0.16-0.77-0.641-1.305-1.732-1.451c0.146-1.115,0.416-1.85,1.523-2.633
				c1.355-0.957,3.07-1.281,5.131-0.939c2.057,0.342,3.629,1.248,4.389,2.641c0.633,1.162,0.619,2.766,0.18,4.285
				c-0.537,1.867-1.842,3.354-3.543,4.303c-2.15,1.199-4.723,1.406-6.812,1.035c-1.008-0.18-2.711-0.836-3.365-1.709
				c-0.627-0.838-0.193-2.951,1.141-3.285c0.85-0.213,1.119,0.387,2.09-0.121C400.631,282.255,400.922,281.38,400.756,280.589z"/>
		</g>
	</g>
	<polygon fill="#C07463" points="368.959,343.685 147.904,360.552 147.904,116.011 368.959,122.509 	"/>
	<polygon fill="#D5A499" points="121.695,355.552 147.904,360.552 147.904,116.011 121.695,122.011 	"/>
	<polygon fill="#DED6C3" points="589.466,371.806 496.193,359.69 496.193,158.063 589.466,150.159 	"/>
	<ellipse fill="#939491" cx="508.233" cy="267.718" rx="5.454" ry="8.168"/>
	<polygon fill="#B5B6B3" points="575.426,245.161 508.234,242.946 508.234,169.39 575.426,165.593 	"/>
	<g>
		<polygon fill="#888886" points="275.486,253.931 205.148,254.931 205.148,226.284 275.486,227.284 		"/>
		<polygon fill="#AAABA8" points="274.505,253.032 206.269,253.964 206.269,227.251 274.505,228.183 		"/>
		<g>
			<path fill="#939491" d="M269.962,249.962c0,0.275-0.225,0.505-0.5,0.511l-12.916,0.289c-0.275,0.006-0.5-0.214-0.5-0.489v-3.857
				c0-0.275,0.225-0.497,0.5-0.492l12.916,0.189c0.275,0.005,0.5,0.232,0.5,0.508V249.962z"/>
		</g>
		<polygon fill="#D8D3C1" points="269.453,250.062 256.556,250.313 256.556,246.372 269.453,246.54 		"/>
		<ellipse fill="#9F9F9D" cx="214.1" cy="240.265" rx="2.899" ry="3.533"/>
		<ellipse fill="#CBCCCA" cx="214.333" cy="240.265" rx="2.666" ry="3.25"/>
	</g>
</g>
</svg>
