<?xml version="1.0" encoding="utf-8"?>
<!-- Generator: Adobe Illustrator 15.0.2, SVG Export Plug-In . SVG Version: 6.00 Build 0)  -->
<!DOCTYPE svg PUBLIC "-//W3C//DTD SVG 1.1//EN" "http://www.w3.org/Graphics/SVG/1.1/DTD/svg11.dtd">
<svg version="1.1" id="Layer_1" xmlns="http://www.w3.org/2000/svg" xmlns:xlink="http://www.w3.org/1999/xlink" x="0px" y="0px"
	 width="720px" height="460px" viewBox="0 0 720 460" enable-background="new 0 0 720 460" xml:space="preserve">
<polygon fill="#D3D4D2" points="592.607,393.773 132.015,393.773 111.515,35.287 608.484,35.287 "/>
<polygon fill="#F2EAD7" points="508.314,397.045 203.359,397.045 191.515,72.105 518.119,72.105 "/>
<rect x="214.769" y="94.109" fill="#DDEAF1" width="286.215" height="28.666"/>
<g>
	<rect x="218.039" y="151.296" fill="#F2EAD7" width="279.676" height="199.817"/>
	<rect x="214.769" y="114.755" fill="#D7B3AD" width="286.215" height="36.541"/>
	<rect x="242.484" y="170.273" fill="#E6DECC" width="21" height="30"/>
	<rect x="284.183" y="170.273" fill="#E6DECC" width="21" height="30"/>
	<rect x="325.885" y="170.273" fill="#E6DECC" width="21" height="30"/>
	<rect x="367.584" y="170.273" fill="#E6DECC" width="21" height="30"/>
	<rect x="409.283" y="170.273" fill="#E6DECC" width="21" height="30"/>
	<rect x="450.984" y="170.273" fill="#E6DECC" width="21" height="30"/>
	<rect x="242.484" y="217.682" fill="#E6DECC" width="21" height="30"/>
	<rect x="284.183" y="217.682" fill="#E6DECC" width="21" height="30"/>
	<rect x="325.885" y="217.682" fill="#E6DECC" width="21" height="30"/>
	<rect x="367.584" y="217.682" fill="#E6DECC" width="21" height="30"/>
	<rect x="409.283" y="217.682" fill="#E6DECC" width="21" height="30"/>
	<rect x="450.984" y="217.682" fill="#E6DECC" width="21" height="30"/>
	<rect x="242.484" y="265.596" fill="#E6DECC" width="21" height="30"/>
	<rect x="284.183" y="265.596" fill="#E6DECC" width="21" height="30"/>
	<rect x="325.885" y="265.596" fill="#E6DECC" width="21" height="30"/>
	<rect x="367.584" y="265.596" fill="#E6DECC" width="21" height="30"/>
	<rect x="409.283" y="265.596" fill="#E6DECC" width="21" height="30"/>
	<rect x="450.984" y="265.596" fill="#E6DECC" width="21" height="30"/>
	<rect x="242.484" y="313.035" fill="#E6DECC" width="21" height="30"/>
	<rect x="284.183" y="313.035" fill="#E6DECC" width="21" height="30"/>
	<rect x="325.885" y="313.035" fill="#E6DECC" width="21" height="30"/>
	<rect x="367.584" y="313.035" fill="#E6DECC" width="21" height="30"/>
	<rect x="409.283" y="313.035" fill="#E6DECC" width="21" height="30"/>
	<rect x="450.984" y="313.035" fill="#E6DECC" width="21" height="30"/>
</g>
<polygon fill="#B5B6B3" points="516.701,355.65 218.039,355.65 255.058,275.887 489.664,275.887 "/>
<polygon fill="#888886" points="495.439,264.096 495.363,267.096 256.666,267.096 256.666,264.096 "/>
<polygon fill="#888886" points="216.011,334.014 212.72,332.713 255.666,262.277 256.984,265.033 "/>
<polygon fill="#888886" points="255.482,206.582 218.685,250.061 218.685,258.781 257.347,211.303 497.059,211.303 497.166,206.582 
	"/>
<g>
	<g>
		<g>
			<path fill="#C08880" d="M422.316,281.953c0-2.938-7.357-5.32-16.432-5.32c-9.078,0-16.434,2.383-16.434,5.32
				c0,0.373,0,1.957,0.33,3.16c0.781,2.832,7.025,5.164,16.104,5.164c9.074,0,14.824-2.58,16.045-5.254
				C422.316,284.178,422.316,282.326,422.316,281.953z"/>
			<ellipse fill="#BF867D" cx="405.885" cy="281.953" rx="15.836" ry="5.127"/>
			<path fill="#B06A5E" d="M405.885,279.191c-7.488,0-13.744,1.686-15.396,3.945c1.652,2.26,7.908,3.943,15.396,3.943
				c7.484,0,13.742-1.684,15.395-3.943C419.627,280.877,413.369,279.191,405.885,279.191z"/>
		</g>
		<polygon fill="#C49087" points="419.783,282.773 391.984,282.773 386.484,252.34 425.283,252.34 		"/>
		<ellipse fill="#C49087" cx="405.884" cy="282.773" rx="13.899" ry="4.5"/>
		<path fill="#CA9B94" d="M425.283,252.34c0-3.469-8.686-6.279-19.398-6.279c-10.717,0-19.4,2.811-19.4,6.279
			c0,0.885,0.348,3.816,0.527,4.496c0.906,3.443,8.449,6.111,18.873,6.111c10.422,0,17.988-2.799,18.871-6.111
			C424.938,256.156,425.283,253.225,425.283,252.34z"/>
		<ellipse fill="#B06A5E" cx="405.884" cy="252.34" rx="17.53" ry="5.674"/>
		<path fill="#93776C" d="M405.885,248.828c-8.541,0-15.645,1.977-17.205,4.594c1.561,2.617,8.664,4.594,17.205,4.594
			c8.537,0,15.643-1.977,17.203-4.594C421.527,250.805,414.422,248.828,405.885,248.828z"/>
	</g>
	<path fill="#A1906D" d="M415.486,215.807c-6.1,11.332-7.576,24.951-9.66,37.48c-0.105,0.633,0.824,0.918,0.979,0.27
		c2.969-12.525,3.568-25.637,9.307-37.387C416.312,215.756,415.709,215.393,415.486,215.807L415.486,215.807z"/>
	<path fill="#A1906D" d="M398.762,198.541c5.918,17.561,4.768,36.705,7.051,54.881c0.08,0.627,1.059,0.654,1.004,0
		c-1.502-18.043-1.023-37.893-7.449-55.049C399.227,198,398.631,198.152,398.762,198.541L398.762,198.541z"/>
	<path fill="#A1906D" d="M400.758,173.835c4.574,12.957,6.625,26.43,7.246,40.127c0.605,13.324-1.012,26.246-2.268,39.459
		c-0.061,0.654,0.994,0.783,1.137,0.154c2.883-12.768,2.961-26.604,2.43-39.613c-0.557-13.629-2.648-27.653-7.949-40.292
		C401.205,173.314,400.623,173.451,400.758,173.835L400.758,173.835z"/>
	<path fill="#99A031" d="M362.256,182.878c13.045-3.418,27.947-6.27,34.902-7.779c-7.318,4.688-16.281,10.869-20.543,18.879
		c8.793-6.965,17.379-12.823,24.441-16.942c2.979,3.586,7.352,10.039,10.865,17.856c-0.645-8.819-3.871-15.559-6.982-19.075
		c7.656,0.229,17.305,3.527,25.938,7.391c-5.006-7.066-17.998-10.332-26.02-11.25c3.266-3.023,8.93-4.529,14.523-5.248
		c-6.525-1.361-13.066,0.217-17.863,3.805c-0.461-2.656-1.855-4.879-5.514-6.025c0.533,1.293,1.752,3.652,2.363,5.805
		c-5.102-2.861-11.111-2.363-15.199-1.359c3.943,0.43,10.199,1.783,13.398,3.023C386.178,173.656,371.119,177.037,362.256,182.878z"
		/>
	<path fill="#99A031" d="M392.977,196.721c-3.381-1.898-6.305-4.74-9.852-7.356c6.76,0.15,12.09,2.86,17.273,6.249
		c5.846-2.562,13.018-6.508,19.26-7.133c-4.154,2.834-9.279,5.952-13.76,9.659c9.27-0.707,16.645-0.652,24.855,1.943
		c-7.488,0.346-18.234,1.416-25.713,1.992c3.859,2.82,6.406,7.418,8.354,11.031c-3.863-0.908-10.279-6.08-12.648-9.01
		c-1.691,8.234-6.732,14.613-12.254,20.277c3-8.256,5.521-15.166,8.074-20.139c-4.186,3.463-12.238,9.217-16.484,14.162
		c0.533-2.545,6.836-11.971,12.068-17.139c-5.693,0.35-17.945,3.367-19.871,4.232C375.826,203.086,385.928,198.264,392.977,196.721z
		"/>
	<path fill="#99A031" d="M396.395,209.107c5.41-0.877,12.879,0.057,16.539,2.822c-0.111-1.99-0.875-6.789-1.346-9.855
		c1.926,3.402,3.139,6.418,4.035,10.078c3.08-2.729,5.227-5.395,7.375-7.977c-1.297,3.91-3.098,5.797-4.477,9.613
		c3.357-2.857,7.289-2.254,10.982-2.184c-2.438,0.502-6.154,2.699-9.248,3.984c4.037,0.336,9.578,3.039,12.564,5.908
		c-4.047-1.201-9.625-3.473-13.461-3.592c4.557,2.539,7.178,9.994,8.641,13.988c-3.59-4.195-6.998-10.029-10.807-13.156
		c-0.508,5.447-2.271,13.297-3.795,16.664c0.068-5.824-0.16-12.869,1.057-18.496c-3.775,4.309-5.943,9.256-10.172,13.289
		c1.818-2.463,6.639-12.117,7.35-13.914c-5.76,1.953-11.4,1.773-17.619,2.428c4.803-2.129,12.941-2.131,16.902-5.285
		C409.234,212.568,397.6,208.602,396.395,209.107z"/>
</g>
<path fill="#FBF7EE" d="M205.966,84.607l9.057,312.438H355.43V84.607H205.966z M336.35,323.807H230.712l-4.666-219.1H336.35V323.807
	z"/>
<path fill="#FBF7EE" d="M355.43,84.607v312.438h140.406l9.057-312.438H355.43z M374.51,104.707h110.303l-5.668,219.1H374.51V104.707
	z"/>
<rect x="353.93" y="84.607" fill="#D8D3C1" width="3" height="312.575"/>
<polygon fill="#888886" points="258.808,280.732 258.267,282.773 254.523,282.773 254.523,210.303 258.808,207.303 "/>
<g>
	<g>
		<path fill="#A1856E" d="M399.174,282.795c3.049-0.549,6.465-1.025,8.244,2.006c1.143,1.949,0.525,4.156,1.676,6.043
			c1.199,1.965,3.018,3.471,3.83,5.682c0.516,1.398,1.363,4.365,0.443,5.699c-0.77,1.117-4.629,2.471-5.949,2.875
			c-2.008,0.613-4.105,0.258-6.256,0.494c-2.34,0.254-4.916,1.078-7.242,1.686c-3.723,0.973-6.33,2.248-10.008,1.016
			c-3.236-1.086-5.781-3.664-3.932-7.201c1.518-2.902,4.258-4.416,7.195-5.049c1.494-0.322,3.178-0.443,4.555-1.156
			c2.561-1.322,1.947-1.805,1.373-3.98C391.697,285.58,394.029,283.721,399.174,282.795z"/>
		<path fill="#A1856E" d="M410.287,307.566c-1.846,5.842,8.121,6.666,11.668,6.713c4.807,0.062,10.865-1.244,14.584-2.951
			c1.912-0.877,3.949-3.08,3.967-5.049c0.004-0.318-0.055-3.818-0.158-4.51c-0.195-1.301,0.236-2.658,0.305-3.967
			c0.154-2.982-1.002-6.055-3.443-7.391c-2.258-1.236-6.682-1.633-8.922-0.305c-1.963,1.166-3.789,1.512-3.596,3.564
			c0.463,4.902,0.486,7.824-4.908,8.852C416.703,303.111,411.508,303.701,410.287,307.566z"/>
		<path fill="#7A574A" d="M427.967,293.848c0.604,0.734,5.049,0.238,6.018,0.176c1.734-0.109,4.506-0.615,2.68-2.432
			C434.902,289.84,425.977,291.424,427.967,293.848z"/>
		<path fill="#7A574A" d="M394.771,287.236c1.463,1.287,14.646-0.998,10.18-3.23S393.311,285.949,394.771,287.236z"/>
	</g>
	<path fill="#7A574A" d="M391.336,300.387c-0.035,0-0.07-0.006-0.105-0.016c-1.549-0.451-3.434-1.094-4.27-2.072
		c-0.074-0.086-0.105-0.203-0.084-0.314s0.094-0.209,0.193-0.262c1.092-0.574,2.404-0.035,3.672,0.49
		c-0.264-0.332-0.643-0.654-1.1-0.988c-0.143-0.105-0.191-0.293-0.121-0.455c0.072-0.16,0.244-0.25,0.418-0.215
		c0.678,0.139,1.4,0.389,2.164,0.654c0.131,0.045,0.26,0.09,0.389,0.135c-0.162-0.545-0.303-1.111-0.234-1.715
		c0.014-0.123,0.086-0.23,0.195-0.289c0.529-0.285,1.311-0.25,2.193-0.074c-0.109-0.16-0.223-0.332-0.338-0.516
		c-0.062-0.096-0.076-0.213-0.039-0.32c0.035-0.107,0.117-0.193,0.225-0.232c0.365-0.135,0.936-0.15,1.611-0.141
		c-0.346-0.301-0.693-0.588-1.02-0.861c-0.385-0.318-0.748-0.619-1.059-0.898c-0.113-0.1-0.154-0.258-0.105-0.398
		c0.047-0.143,0.176-0.242,0.326-0.254c0.736-0.057,1.309-0.424,1.809-0.906c-0.08-0.029-0.162-0.059-0.244-0.088
		c-0.48-0.172-0.977-0.35-1.355-0.691c-0.438-0.391-0.562-0.742-0.672-1.053c-0.072-0.205-0.141-0.398-0.305-0.633
		c-0.107,0.484-0.146,1.547-0.176,2.361c-0.051,1.428-0.105,2.906-0.418,3.74c-0.07,0.195-0.285,0.293-0.482,0.221
		c-0.193-0.072-0.291-0.289-0.219-0.482c0.27-0.723,0.322-2.201,0.369-3.506c0.078-2.109,0.135-3.049,0.701-3.223
		c0.273-0.084,0.547,0.055,0.809,0.416c0.244,0.336,0.342,0.611,0.428,0.855c0.1,0.279,0.17,0.482,0.465,0.744
		c0.271,0.244,0.697,0.396,1.107,0.543c0.18,0.064,0.361,0.129,0.537,0.205c0.125-0.148,0.248-0.299,0.371-0.449
		c0.115-0.143,0.23-0.283,0.344-0.418c0.898-1.062,2.143-1.631,3.33-1.498c1.012,0.105,1.861,0.703,2.391,1.686
		c0.463,0.859,0.699,1.908,0.928,2.924c0.398,1.773,0.775,3.449,2.238,4.316c0.514,0.307,1.559,0.42,2.664,0.541
		c2.158,0.236,4.844,0.529,5.236,2.578c0.039,0.203-0.096,0.4-0.299,0.439c-0.201,0.037-0.4-0.096-0.438-0.299
		c-0.289-1.504-2.568-1.754-4.58-1.973c-1.242-0.137-2.312-0.254-2.967-0.643c-1.74-1.031-2.17-2.945-2.588-4.797
		c-0.227-1.01-0.441-1.963-0.855-2.732c-0.414-0.768-1.039-1.215-1.809-1.295c-0.924-0.102-1.953,0.379-2.68,1.236
		c-0.111,0.131-0.223,0.268-0.336,0.408c-0.09,0.111-0.186,0.227-0.281,0.344c0.861,0.551,2.971,2.004,3.195,3.131
		c0.057,0.293-0.004,0.561-0.18,0.775c-0.326,0.4-1.086,0.465-2.25,0.453c0.508,0.562,0.926,1.148,1.16,1.744
		c0.049,0.123,0.029,0.262-0.053,0.365c-0.08,0.105-0.213,0.16-0.342,0.143c-0.531-0.064-1.281-0.289-2.074-0.527
		c-0.172-0.053-0.352-0.105-0.537-0.16c0.205,0.525,0.312,1.127,0.271,1.957c-0.008,0.18-0.143,0.326-0.322,0.352
		c-0.818,0.115-1.693-0.031-2.578-0.279c0.039,0.26,0.055,0.525,0.025,0.799c-0.02,0.17-0.152,0.307-0.322,0.33
		c-0.436,0.064-0.904-0.016-1.387-0.158c-0.025,0.229-0.088,0.471-0.201,0.723C391.615,300.303,391.48,300.387,391.336,300.387z
		 M388.008,298.232c0.865,0.615,2.266,1.07,3.092,1.318c0.029-0.125,0.043-0.248,0.039-0.367c-0.223-0.086-0.447-0.18-0.668-0.271
		C389.609,298.557,388.723,298.197,388.008,298.232z M391.801,298.629c0.373,0.129,0.73,0.223,1.049,0.238
		c-0.01-0.211-0.049-0.428-0.102-0.646c-0.299-0.098-0.596-0.201-0.891-0.303c-0.184-0.064-0.365-0.127-0.543-0.188
		C391.523,297.994,391.699,298.295,391.801,298.629z M393.363,297.631c0.824,0.254,1.633,0.439,2.359,0.406
		c-0.004-0.801-0.186-1.324-0.494-1.863c-0.879-0.225-1.734-0.375-2.238-0.244c-0.004,0.467,0.141,0.938,0.291,1.434
		C393.309,297.451,393.336,297.541,393.363,297.631z M395.713,295.523c0.406,0.111,0.82,0.236,1.23,0.359
		c0.428,0.129,0.842,0.252,1.205,0.348c-0.305-0.469-0.725-0.938-1.189-1.393c-0.602-0.027-1.246-0.053-1.711-0.02
		c0.033,0.049,0.066,0.098,0.098,0.146C395.477,295.158,395.6,295.342,395.713,295.523z M397.273,294.102
		c0.879,0.035,2.236,0.078,2.434-0.152c0.016-0.02,0.043-0.055,0.023-0.154c-0.15-0.76-2.059-2.17-2.959-2.715
		c-0.463,0.48-1.004,0.918-1.676,1.148c0.15,0.127,0.307,0.258,0.469,0.391C396.111,293.074,396.713,293.572,397.273,294.102z"/>
	<path fill="#7A574A" d="M440.109,315.148c-0.051,0-0.102-0.01-0.15-0.031c-0.666-0.289-1.574-0.275-2.453-0.266
		c-1.637,0.021-3.484,0.045-3.773-2.049l-0.057-0.398c-0.34-2.443-0.691-4.969-0.691-7.381c0-0.66,0.129-1.516,0.277-2.504
		c0.42-2.783,0.941-6.244-1.174-7.15c-0.666-0.287-0.83-0.184-1.512,0.246l-0.359,0.225c-0.523,0.314-1.092,0.566-1.65,0.807
		c1.139,1.32,1.896,2.447,2.252,3.354c0.053,0.135,0.023,0.289-0.078,0.395c-0.1,0.105-0.252,0.146-0.389,0.098
		c-0.695-0.23-1.402-0.41-2.08-0.533c1.744,1.988,2.035,2.545,1.961,2.895c-0.176,0.826-1.26,0.912-2.611,0.764
		c0.006,0.027,0.012,0.055,0.018,0.08c0.174,0.781,0.338,1.518,0.564,2.164c0.061,0.172-0.01,0.361-0.168,0.451
		c-0.16,0.09-0.359,0.053-0.475-0.088c-0.855-1.035-2.006-1.484-3.225-1.754c0.01,0.012,0.02,0.023,0.029,0.035
		c0.598,0.754,1.277,1.605,0.801,2.52c-0.088,0.172-0.291,0.246-0.469,0.176c-0.725-0.287-1.439-0.646-2.135-1.012
		c0.092,0.393,0.15,0.791,0.152,1.188c0.002,0.207-0.164,0.375-0.369,0.377c-0.008,0-0.016,0-0.023,0
		c-0.727,0-1.455-0.449-2.158-0.883c-0.072-0.043-0.143-0.088-0.211-0.129c0.008,0.338-0.051,0.643-0.215,0.879
		c-0.131,0.189-0.387,0.418-0.865,0.436c-0.857,0.045-1.453-0.598-2.064-1.205c-0.555-0.551-1.078-1.072-1.666-1.078
		c-0.207-0.002-0.373-0.17-0.371-0.377s0.17-0.373,0.375-0.373l0,0c1.199,0.004,2.475,0.039,3.775,0.41
		c-0.064-0.211-0.131-0.406-0.186-0.568c-0.1-0.295-0.186-0.555-0.23-0.742c-0.031-0.131,0.012-0.27,0.111-0.361
		c0.1-0.094,0.24-0.123,0.369-0.082c0.779,0.25,1.541,0.602,2.285,0.98c-0.014-0.037-0.029-0.076-0.043-0.113
		c-0.117-0.303-0.23-0.6-0.33-0.887c-0.043-0.129-0.014-0.27,0.076-0.371c0.092-0.102,0.23-0.146,0.363-0.115
		c0.479,0.109,0.979,0.189,1.486,0.268c-0.084-0.266-0.117-0.543-0.068-0.832c0.023-0.145,0.127-0.26,0.266-0.299
		c0.459-0.135,1.314,0.008,2.668,0.246c0.254,0.045,0.588,0.104,0.953,0.162c-0.283-1.139-0.646-2.232-1.312-3.059
		c-0.088-0.107-0.107-0.254-0.055-0.381s0.172-0.215,0.309-0.229c0.283-0.027,0.568-0.029,0.857-0.033
		c-0.311-0.377-0.582-0.775-0.801-1.33c-0.061-0.156-0.01-0.336,0.125-0.436c0.473-0.355,1.004-0.631,1.547-0.879
		c-0.084-0.084-0.166-0.164-0.246-0.242c-0.27-0.262-0.549-0.533-0.779-0.91c-0.121-0.197-0.184-0.404-0.246-0.605
		c-0.074-0.244-0.139-0.455-0.291-0.609c-0.336-0.344-0.92-0.648-1.072-0.545c-0.094,0.057-0.094,0.164-0.006,0.574
		c0.055,0.256,0.117,0.545,0.066,0.832c-0.113,0.643-0.445,1.379-0.797,2.16c-0.514,1.139-1.096,2.428-0.848,3.266
		c0.059,0.197-0.055,0.406-0.252,0.465c-0.195,0.062-0.408-0.055-0.467-0.252c-0.328-1.104,0.287-2.469,0.883-3.787
		c0.332-0.736,0.645-1.432,0.742-1.982c0.025-0.141-0.02-0.346-0.062-0.545c-0.086-0.408-0.219-1.025,0.35-1.371
		c0.693-0.422,1.676,0.332,1.998,0.658c0.281,0.289,0.385,0.623,0.475,0.918c0.049,0.164,0.096,0.316,0.166,0.432
		c0.182,0.297,0.404,0.514,0.662,0.764c0.139,0.135,0.281,0.273,0.424,0.43c0.01,0.01,0.02,0.021,0.029,0.033
		c0.018-0.008,0.035-0.016,0.051-0.023c0.592-0.252,1.203-0.512,1.736-0.834l0.348-0.217c0.734-0.463,1.178-0.742,2.207-0.301
		c2.648,1.133,2.055,5.074,1.621,7.951c-0.139,0.92-0.27,1.787-0.27,2.393c0,2.359,0.348,4.859,0.686,7.277l0.055,0.4
		c0.189,1.369,1.271,1.426,3.021,1.4c0.961-0.016,1.949-0.025,2.764,0.328c0.189,0.084,0.275,0.305,0.193,0.494
		C440.393,315.064,440.254,315.148,440.109,315.148z M416.824,305.826c0.178,0.16,0.348,0.33,0.512,0.494
		c0.512,0.508,0.994,0.988,1.479,0.988c0.01,0,0.02,0,0.029-0.002c0.205-0.008,0.258-0.082,0.277-0.111
		c0.117-0.17,0.102-0.508,0.027-0.893c-0.078-0.033-0.156-0.064-0.23-0.088C418.211,305.992,417.518,305.881,416.824,305.826z
		 M419.805,305.789c0.252,0.135,0.504,0.291,0.752,0.443c0.469,0.289,0.951,0.586,1.381,0.711c-0.049-0.41-0.154-0.826-0.289-1.24
		c-0.719-0.383-1.453-0.76-2.195-1.057C419.576,305.01,419.707,305.402,419.805,305.789z M422.264,305.18
		c0.033,0.018,0.064,0.035,0.098,0.053c0.723,0.385,1.467,0.781,2.211,1.105c-0.023-0.365-0.336-0.789-0.795-1.363
		c-0.18-0.227-0.367-0.461-0.531-0.707c-0.156-0.025-0.312-0.049-0.469-0.074c-0.316-0.049-0.633-0.098-0.941-0.154
		c0.031,0.08,0.061,0.158,0.092,0.238C422.039,304.568,422.156,304.871,422.264,305.18z M423.703,303.584
		c1.17,0.203,2.385,0.5,3.42,1.225c-0.074-0.307-0.145-0.623-0.217-0.947c-0.025-0.117-0.053-0.234-0.078-0.352
		c-0.416-0.062-0.844-0.139-1.27-0.215c-0.76-0.133-1.602-0.283-2.066-0.287C423.518,303.197,423.596,303.389,423.703,303.584z
		 M427.443,302.834c1.008,0.129,1.988,0.176,2.055-0.135c-0.037-0.076-0.35-0.621-2.068-2.559l-0.297-0.336
		c-0.281-0.025-0.555-0.037-0.814-0.037C426.873,300.678,427.186,301.75,427.443,302.834z M427.5,299.088
		c0.859,0.1,1.662,0.283,2.258,0.445c-0.418-0.734-1.066-1.607-1.916-2.576c-0.494,0.219-0.965,0.445-1.387,0.725
		c0.25,0.521,0.568,0.875,0.986,1.342L427.5,299.088z"/>
	<path fill="#7A574A" d="M413.484,299.773c0.273,2.58-4.311,3.557-6.342,4.125c-2.664,0.748-5.285,0.842-8.006,1
		c-2.611,0.152-3.992,1.309-6.277,2.254c-2.68,1.105-5.898,0.9-8.633,0.277c-1.609-0.367-2.641-0.887-3.967-1.768
		c-0.291,1.623,3.922,3.209,5.1,3.459c2.221,0.473,4.592,0.049,6.75-0.348c2.412-0.441,4.514-1.49,6.875-2.152
		c2.133-0.598,4.137-0.783,6.369-0.973c2.051-0.176,3.914-0.73,5.758-1.723c0.717-0.385,4.291-3.463,2.248-4.152H413.484z"/>
	<path fill="#7A574A" d="M440.494,305.396c0.385,3.084-4.344,6.252-9.344,7.252c-3.842,0.77-8.869,2.311-13.635,1.154
		c-1.346-0.328-2.531-0.57-3.879-1.252c-0.836-0.422-2.111-1.277-3.268-2.213c0.615,2.395,4.646,3.617,5.865,4.061
		c2.656,0.967,6.098,1.051,8.916,0.666c3.959-0.541,6.096-1.104,9.25-2.207c2.176-0.762,4.039-1.693,5.541-3.527
		c0.576-0.701,1.031-1.859,0.793-2.682C440.645,306.344,440.494,305.396,440.494,305.396z"/>
</g>
<g>
	<g>
		<path fill="#7A574A" d="M534.145,424.58c-2.209,0.167-7.293,0.402-9.018-0.865c-3.717-2.735,2.82-4.986,6.107-5.727
			C539.664,416.086,544,423.839,534.145,424.58z"/>
		<path fill="#7A574A" d="M490.049,412.976c-2.203,0.227-7.279,0.616-9.037-0.604c-3.795-2.623,2.674-5.062,5.938-5.9
			C495.324,404.326,499.879,411.947,490.049,412.976z"/>
		<g>
			<g>
				<path fill="#7A574A" d="M546.492,345.871c-2.787,0.863-6.057,1.527-9.688,2c0.588,0.852,1.043,1.859,1.312,3.021
					c0.5,2.167,0.244,7.936-2.014,10.775c-0.867,1.091-1.973,1.667-3.197,1.667c-0.602,0-1.23-0.138-1.873-0.411
					c-0.408-0.172-0.812-0.418-1.236-0.748c-1.744-1.357-1.76-3.377-1.576-4.986c0.035-0.314,0.111-0.666,0.193-1.04
					c0.146-0.665,0.451-2.05,0.078-2.286c-0.029-0.02-0.07-0.037-0.119-0.053c-0.059-0.019-0.127-0.027-0.209-0.027
					c-0.273,0-0.625,0.102-0.998,0.211c-0.471,0.137-1.004,0.291-1.566,0.291c-0.529,0-1.012-0.139-1.436-0.412
					c-0.969-0.627-1.205-1.422-1.234-1.979c-0.053-0.988,0.475-2.033,1.633-3.219c-0.506,0.006-1,0.02-1.514,0.02
					c-14.797,0-34.283-2.752-42.23-8.73c-0.195,19.443,0.15,39.686,4.865,64.332l8.697,0.328
					c5.896-20.039,11.143-28.966,19.188-38.637c8.551,11.964,12.434,27.07,17.256,49.717l7.934,0.18
					c8.438-23.965,15.959-49.961,16.041-74.422C553.172,343.057,550.576,344.605,546.492,345.871z"/>
			</g>
		</g>
		<path fill="#7A574A" d="M529.029,353.02c-0.102-0.064-0.219-0.119-0.352-0.161c-1.26-0.401-2.742,0.968-3.969,0.175
			c-2.172-1.406,0.742-3.919,1.906-4.859c1.693-1.369,3.033-2.361,5.318-2.152c2.84,0.262,4.596,2.447,5.209,5.097
			c0.711,3.071-0.348,13.161-5.719,10.886c-0.363-0.154-0.701-0.375-1.012-0.617c-1.316-1.024-1.371-2.557-1.199-4.084
			C529.346,356.145,530.275,353.807,529.029,353.02z"/>
		<g>
			<path fill="#7A574A" d="M540.256,203.974c-4.543-4.209-9.291-7.338-16.191-8.289c-12.18-1.682-36.486,7.239-34.104,17.098
				c4.549-4.068,14.48-1.581,18.721,5.818c3.539,6.176,6.607,19.5,12.547,21.111c7.381,2.001,9.949,16.328,9.949,16.328
				s12.271-3.834,16.65-19.342C552.213,221.19,545.725,209.043,540.256,203.974z"/>
			<g>
				<path fill="#7A574A" d="M530.193,256.217c-0.025-0.137-2.533-13.726-9.227-15.539c-4.598-1.248-7.34-8.008-9.992-14.545
					c-1.084-2.674-2.109-5.199-3.162-7.035c-2.873-5.016-8.16-7.262-12.125-7.262c-2.006,0-3.699,0.56-4.928,1.596
					c-2.781,4.847-4.453,10.648-4.453,17.232c0.014,21.905,11.471,33.673,17.328,34.331c5.447,0.61,16.91-1.582,26.639-8.329
					L530.193,256.217z M493.219,240.698c-1.125,0.078-2.164-1.609-2.311-3.768c-0.15-2.172,0.645-3.98,1.775-4.061
					c1.123-0.079,2.164,1.613,2.312,3.772C495.145,238.807,494.352,240.62,493.219,240.698z"/>
			</g>
		</g>
	</g>
	<g>
		<g>
			<path fill="#7A574A" d="M531.416,257.094c-8.666,6.209-19.193,8.999-25.857,8.999c-0.734,0-1.418-0.034-2.035-0.104
				c-1.303-0.146-2.812-0.767-4.393-1.83c-13.707,16.863-20.922,49.566-20.922,69.867c0,8.777,25.584,14.094,47.465,13.635
				c0.105-0.088,0.201-0.174,0.312-0.264c1.74-1.407,3.143-2.402,5.354-2.402c0.162,0,0.336,0.012,0.508,0.023l-2.746-1.248
				l0.021-0.344c2.436-38.363-5.381-46.582-5.459-46.66l0.703-0.711c0.336,0.333,8.172,8.574,5.775,47.09l7.83,3.559
				c0.023-0.003,0.049-0.006,0.074-0.01c11.391-34.189,10.676-60.026-2.18-78.979l0.828-0.561
				c12.98,19.135,13.781,45.108,2.455,79.365c9.98-1.632,17.143-5.019,17.146-10.51C556.311,314.352,552.17,270.215,531.416,257.094
				z"/>
		</g>
	</g>
</g>
</svg>
