<?xml version="1.0" encoding="utf-8"?>
<!-- Generator: Adobe Illustrator 15.0.2, SVG Export Plug-In . SVG Version: 6.00 Build 0)  -->
<!DOCTYPE svg PUBLIC "-//W3C//DTD SVG 1.1//EN" "http://www.w3.org/Graphics/SVG/1.1/DTD/svg11.dtd">
<svg version="1.1" id="Layer_1" xmlns="http://www.w3.org/2000/svg" xmlns:xlink="http://www.w3.org/1999/xlink" x="0px" y="0px"
	 width="720px" height="460px" viewBox="0 0 720 460" enable-background="new 0 0 720 460" xml:space="preserve">
<path fill="#D3D696" d="M289.882,227.14c132.874-9.605,253.975,0.785,333.688,45.097c53.021,29.478,48.424,68.548,5.23,91.884
	c-48.045,25.961-145.549,47.372-283.566,47.372c-133.379,0-234.924-30.909-272.536-61.071
	c-27.039-21.686-17.824-58.077,30.807-80.975C156.437,244.526,209.154,232.973,289.882,227.14z"/>
<g>
	<g>
		<ellipse fill="#BEC366" cx="484.104" cy="233.361" rx="88.051" ry="70.598"/>
	</g>
</g>
<g>
	<g>
		<polygon fill="#E9DCBE" points="112.664,266.29 197.167,326.469 197.167,163.501 108.587,131.38 		"/>
		<polygon fill="#AC2400" points="322.77,65.636 182.216,159.738 184.14,164.35 197.167,163.501 439.979,151.907 450.137,151.614 
			453.42,149.279 		"/>
		<polygon fill="#F3E6C6" points="448.373,300.11 197.167,326.469 197.167,163.501 322.77,77.636 439.979,151.907 		"/>
	</g>
	<polygon fill="#B63E1F" points="182.216,159.738 102.656,129.827 105.052,133.612 184.14,164.35 	"/>
	<polygon fill="#BD5033" points="182.216,159.738 102.656,129.827 231.289,48.508 322.77,65.636 	"/>
</g>
<g>
	<path fill="#A1856E" d="M480.041,236.924c0.559,0.331,1.045,0.872,0.738,1.552c-0.705,1.568-3.064,0.07-3.99-0.416
		c-1.43-0.756-2.646-1.074-3.334-0.356c-0.93,0.965,1.053,2.335,0.42,3.126c-0.502,0.631-1.447,0.18-2.27-0.269
		c-0.889-0.491-1.703-1.581-2.109-2.366c-0.867-1.664-0.426-3.287,0.844-4.579c1.143-1.163,2.783-1.852,4.42-1.54
		c2.016,0.382,2.854,1.833,3.543,3.559c0.342,0.854,0.684,0.793,1.445,1.137C479.844,236.815,479.945,236.866,480.041,236.924z"/>
	<path fill="#A1856E" d="M391.91,331.134c-1.502,0.252-4.963,0.732-6.223-0.028c-2.713-1.64,1.619-3.587,3.82-4.298
		C395.156,324.979,398.604,330.011,391.91,331.134z"/>
	<path fill="#A1856E" d="M436.852,331.048c1.512,0.154,4.998,0.423,6.207-0.417c2.605-1.801-1.84-3.476-4.078-4.051
		C433.229,325.106,430.1,330.341,436.852,331.048z"/>
	<g>
		<g>
			<path fill="#A1856E" d="M438.789,272.547c-1.576,0.755-3.793,1.411-6.682,1.976c-5.287,1.035-12.336,1.629-19.338,1.629
				c-5.732,0-22.369-0.483-28.381-5.802c-4.451,19.171,1.877,44.417,3.809,54.962l5.449-0.123
				c4.705-15.063,12.504-29.449,19.971-33.85c8.691,6.871,14.59,18.996,20.391,33.742l5.973-0.225c3-16.334,3.365-34.6,0.348-48.588
				C440.016,274.819,439.479,273.604,438.789,272.547z"/>
		</g>
	</g>
	<g>
		<path fill="#A1856E" d="M402.322,201.264c2.564-1.515,4.469-1.229,6.854-1.524c0.391-5.962,1.277-10.245,3.949-13.77
			c2.252-2.967,7.092-5.368,11.475-6.01c3.254-0.476,7.18-0.353,9.826,1.165c3.117,1.786,3.73,6.373,3.904,10.913
			c1.621-7.668-2.027-15.746-7.006-20.263c-4.822-4.373-20.609-9.683-30.609-2.547c-16.215,11.567-7.24,34.896-5.35,38.008
			c0.736,1.214,4.422,4.397,5.604,5.059C399.967,207.24,400.119,202.565,402.322,201.264z"/>
	</g>
	<g>
		<path fill="#A1856E" d="M437.301,197.709l0.027-0.3c0.162-1.766,0.209-3.562,0.141-5.339c-0.164-4.312-0.693-8.429-3.494-10.106
			c-2.301-1.377-6.578-1.494-9.467-1.064c-3.838,0.574-8.666,2.914-10.695,5.591c-2.639,3.479-3.418,7.835-3.777,13.306l-0.049,0.71
			l-0.705,0.087c-0.59,0.074-1.146,0.113-1.682,0.15c-1.072,0.072-2.09,0.145-3.152,0.491c-0.57,0.185-1.123,0.438-1.686,0.771
			c-1.588,0.938-1.967,4.838-0.979,9.955c0.994,1.136,2.105,2.23,3.332,3.176c5.52,4.256,12.768,5.91,16.309,5.885
			c4.371-0.031,13.514-7.499,15.834-22.949C437.27,197.96,437.283,197.838,437.301,197.709z M421.129,196.515
			c-0.047-1.675,0.623-3.053,1.496-3.079c0.875-0.023,1.625,1.313,1.672,2.99c0.051,1.676-0.623,3.052-1.496,3.078
			C421.926,199.527,421.178,198.188,421.129,196.515z M434.492,196.175c0.045,1.709-0.543,3.109-1.307,3.134
			c-0.771,0.022-1.434-1.345-1.484-3.056c-0.047-1.711,0.537-3.114,1.307-3.137C433.775,193.095,434.439,194.464,434.492,196.175z"
			/>
		<g>
			<path fill="#A1856E" d="M470.641,230.042c-12.807-7.149-26.033-11.808-39.184-14.812c-3.35,4.412-7.189,6.771-10.025,6.791
				h-0.088c-3.592,0-11.041-1.622-16.84-6.092c-0.67-0.518-1.34-1.11-2-1.758c-19.047,2.576-28.377,6.068-43.238,16.121l3.166,8
				c15.334-10,27.771-8.75,27.771-8.75s-4.312,21.604-6.977,36.963c1.711,12.341,57.102,9.764,57.471,2.855
				c-1.434-17.586-7.67-39.318-7.67-39.318s15.324,1.316,34.066,8.031L470.641,230.042z"/>
		</g>
	</g>
</g>
<g>
	<g>
		<g>
			<g>
				<g>
					<path fill="#C83B0C" d="M330.342,339.317c1.277,0.215,4.223,0.623,5.295-0.024c2.311-1.396-1.375-3.054-3.25-3.658
						C327.578,334.078,324.643,338.362,330.342,339.317z"/>
					<path fill="#C83B0C" d="M369.135,336.182c1.289,0.132,4.256,0.36,5.283-0.354c2.221-1.533-1.562-2.959-3.473-3.448
						C366.051,331.124,363.387,335.58,369.135,336.182z"/>
				</g>
				<g>
					<g>
						<path fill="#C83B0C" d="M348.385,295.762c-8.844,0-19.049-1.398-23.348-5.095c-2.963,15.645,1.172,35.471,2.68,43.693
							l4.641-0.104c4.004-12.823,13.48-27.024,19.84-30.771c7.396,5.85,10.59,13.906,14.518,27.617l5.084-0.192
							c2.432-13.241,4.348-28.8,1.729-40.963C369.533,293.938,358.82,295.762,348.385,295.762z"/>
					</g>
				</g>
				<g>
					<path fill="#C83B0C" d="M339.051,238.149c0.656,0.436,1.371,0.841,1.893,0.936c0.006-0.041,0.006-1.941,0.049-4.447
						C340.059,235.704,339.402,236.886,339.051,238.149z"/>
					<path fill="#C83B0C" d="M370.488,199.991c0,0-8.887,0.277-13.451-0.238c-5.734-0.646-9.914-1.586-14.848-0.76
						c-4.459,0.746-7.543,2.719-10.471,5.482c-3.521,3.327-7.35,10.069-6.752,18.357c0.334,4.617,1.975,9.662,3.443,13.388
						c0.158-0.44,0.328-0.876,0.523-1.301c2.193-4.765,6.564-8.064,12.459-9.489c0.02-0.216,0.039-0.436,0.062-0.635
						c0.693-6.24,2.133-8.697,2.691-10.051c0.973-2.366,4.129-7.541,8.709-8.602c6.977-1.619,17.32,1.694,17.32,1.694l-6.111-4.368
						L370.488,199.991z"/>
				</g>
			</g>
		</g>
	</g>
	<path fill="#C83B0C" d="M356.387,217.661c-0.809,0-1.705,0.591-2.564,1.256c-0.34,0.264-1.623,1.584-2.406,1.584
		c-0.217,0-0.396-0.102-0.506-0.354c-0.197-0.453-0.254-0.789-0.801-0.896c-0.117-0.022-0.232-0.033-0.346-0.033
		c-0.053,0-0.104,0.002-0.152,0.006c-1.156,0.101-2.041,1.326-2.35,2.363c-0.17,0.574-0.434,1.15-0.559,1.734
		c-0.189,0.881-0.16,1.834-0.01,2.717c0.299,1.759,1.682,2.32,3.197,2.32c0.777,0,1.59-0.147,2.309-0.357
		c3.271-0.958,7.545-5.365,5.875-8.967C357.609,218.033,357.025,217.661,356.387,217.661z"/>
	<g>
		<g>
			<g>
				<path fill="#C83B0C" d="M364.221,226.017c-0.119-0.138-0.23-0.27-0.338-0.389c-0.168-0.188-0.363-0.371-0.564-0.559
					c-0.57-0.536-1.219-1.144-1.438-2.002c-0.4-1.56-0.02-3.445,0.949-4.691c1.033-1.33,2.58-1.639,4.043-0.789
					c-0.723-4.165-2.5-7.72-4.938-10.537c-1.516-0.209-3.119-0.352-4.686-0.352s-2.969,0.141-4.17,0.42
					c-4.279,0.99-7.232,6.115-8.01,8.008c-0.078,0.191-0.174,0.402-0.281,0.643c-0.658,1.456-1.758,3.894-2.34,9.139
					c-0.012,0.091-0.02,0.203-0.029,0.3c0.635-0.127,1.281-0.239,1.947-0.324l0.451-0.058l1.387,6.188l-0.371,0.168
					c-1.492,0.673-2.77,1.494-3.822,2.426c-0.029,1.512-0.053,3.155-0.062,4.959c-0.004,0.578-0.004,0.578-0.016,0.655l-0.141,1.034
					l-1.027-0.187c-0.504-0.091-1.1-0.38-1.684-0.722c6.303,4.05,13.496,5.312,16.961,4.893c3.221-0.393,8.955-5.939,10.68-16.168
					C365.703,227.746,364.889,226.798,364.221,226.017z M358.842,223.363c-1.133,2.495-3.809,4.85-6.363,5.598
					c-0.621,0.182-1.574,0.397-2.588,0.397c-2.316,0-3.842-1.148-4.184-3.152c-0.188-1.1-0.182-2.17,0.018-3.095
					c0.09-0.42,0.23-0.809,0.365-1.185c0.076-0.209,0.152-0.417,0.213-0.624c0.41-1.382,1.594-2.934,3.225-3.075
					c0.078-0.006,0.156-0.01,0.236-0.01c0.178,0,0.357,0.018,0.539,0.052c0.844,0.165,1.18,0.692,1.367,1.106
					c0.271-0.164,0.668-0.48,1.188-0.945c0.15-0.136,0.273-0.243,0.354-0.305c0.982-0.761,2.049-1.465,3.176-1.465
					c0.77,0,1.846,0.339,2.594,1.952C359.648,220.052,359.6,221.694,358.842,223.363z"/>
			</g>
			<g>
				<path fill="#C83B0C" d="M362.85,222.819c0.146,0.576,0.658,1.057,1.154,1.521c0.221,0.208,0.439,0.413,0.625,0.622
					c0.111,0.124,0.229,0.261,0.352,0.404c0.643,0.754,1.445,1.689,2.279,1.809c1.334,0.195,2.459-1.821,2.857-3.069
					c0.277-0.876,0.336-1.886,0.158-2.702c-0.176-0.82-0.498-1.376-1.041-1.802c-0.129-0.101-0.318-0.107-0.615-0.111
					c-0.248-0.003-0.529-0.007-0.812-0.101c-0.418-0.141-0.695-0.375-0.939-0.582c-0.125-0.105-0.254-0.217-0.412-0.315
					c-0.428-0.265-0.844-0.399-1.236-0.399c-0.746,0-1.281,0.487-1.6,0.896C362.844,219.988,362.527,221.563,362.85,222.819z"/>
				<g>
					<path fill="#C83B0C" d="M367.725,228.146l-0.016,0.092c-0.229,1.357-0.525,2.633-0.875,3.828l0.162,0.176l1.643-3.412
						l1.094,1.189c0,0,0.213-1.398,0.328-3.557C369.479,227.313,368.691,228.021,367.725,228.146z"/>
					<path fill="#C83B0C" d="M368.029,218.393c0.031,0.015,0.059,0.036,0.094,0.048c0.135,0.045,0.316,0.048,0.508,0.05
						c0.365,0.005,0.82,0.011,1.219,0.324c0.006,0.005,0.01,0.009,0.016,0.014c-0.393-3.456-1.289-7.127-3.148-10.089
						c-0.217-0.343-0.453-0.646-0.688-0.949c-0.795-0.176-1.688-0.35-2.625-0.51c2.266,2.913,3.805,6.391,4.455,10.136
						L368.029,218.393z"/>
				</g>
			</g>
		</g>
	</g>
	<path fill="#C83B0C" d="M373.027,223.986l-3.412,4.679c6.451,10.733-1.947,12.508-8.611,15.156
		c-0.268-0.216-0.561-0.424-0.865-0.629c-1.424,1.199-2.818,1.898-3.977,2.039c-0.459,0.056-0.971,0.084-1.521,0.084
		c-3.627,0-8.969-1.212-13.93-3.861c-0.586,0.286-1.154,0.622-1.713,0.976c0.414,1.743,1.324,3.486,2.73,5.122l-0.758,0.652
		c-2.67-3.104-3.744-6.602-3.021-9.852c0.725-3.273,3.242-6.071,7.104-7.912l-1.01-4.505c-8.715,1.237-12.533,5.778-14.201,9.403
		c-2.297,4.987-1.834,11.266,1.152,16.154c0.1,0.163-0.109,0.759-0.109,0.759c-3.137,8.144-4.625,21.798-6.895,34.874
		c1.459,10.506,48.998,9.969,50.145-0.369c-1.221-14.971-8.498-30.881-8.498-30.881
		C374.016,252.146,392.578,238.654,373.027,223.986z"/>
</g>
</svg>
