<?xml version="1.0" encoding="utf-8"?>
<!-- Generator: Adobe Illustrator 15.0.2, SVG Export Plug-In . SVG Version: 6.00 Build 0)  -->
<!DOCTYPE svg PUBLIC "-//W3C//DTD SVG 1.1//EN" "http://www.w3.org/Graphics/SVG/1.1/DTD/svg11.dtd">
<svg version="1.1" id="Layer_1" xmlns="http://www.w3.org/2000/svg" xmlns:xlink="http://www.w3.org/1999/xlink" x="0px" y="0px"
	 width="720px" height="460px" viewBox="0 0 720 460" enable-background="new 0 0 720 460" xml:space="preserve">
<path fill="#C4C63A" d="M322.877,251.99c114.461-8.515,218.779,0.696,287.445,39.979c45.674,26.134,41.713,60.772,4.508,81.461
	c-41.387,23.014-125.381,41.996-244.271,41.996c-114.894,0-202.369-27.402-234.767-54.143
	c-23.293-19.225-15.355-51.487,26.537-71.787C207.924,267.405,253.336,257.162,322.877,251.99z"/>
<g>
	<polygon fill="#EFE9DA" points="356.709,252.013 67.489,329.38 141.784,370.853 401.34,271.993 	"/>
	<polygon fill="#B9BD71" points="376.055,260.199 97.605,349.403 101.916,352.58 377.029,260.958 	"/>
	<polygon fill="#B9BD71" points="249.776,330.326 176.895,298.858 182.745,297.734 251.694,328.477 	"/>
	<polygon fill="#B9BD71" points="208.459,347.027 131.727,310.868 138.1,309.643 210.549,345.014 	"/>
	<polygon fill="#B9BD71" points="162.368,364.915 87.919,325.023 94.291,323.8 164.458,362.901 	"/>
	<polygon fill="#B9BD71" points="380.947,280.505 325.758,257.646 330.018,256.827 382.344,279.158 	"/>
	<polygon fill="#B9BD71" points="355.842,291.854 293.958,266.222 298.735,265.305 357.408,290.345 	"/>
	<polygon fill="#B9BD71" points="326.092,303.919 259.106,276.176 264.276,275.184 327.785,302.286 	"/>
	<polygon fill="#B9BD71" points="289.877,316.13 219.436,287.009 225.026,285.937 291.709,314.364 	"/>
</g>
<polygon fill="#E1D7C2" points="345.613,254.981 92.12,322.791 94.475,146.42 351.738,112.294 "/>
<polygon fill="#DA7A5A" points="390.512,73.219 110.208,103.632 94.475,146.42 351.738,112.294 "/>
<polygon fill="#ECE5D3" points="346.146,308.013 652.51,365.122 652.51,119.885 344.053,99.461 "/>
<polygon fill="#E1D7C2" points="508.863,316.722 604.535,332.294 604.535,188.785 508.146,179.56 "/>
<polygon fill="#CD4917" points="519.232,302.79 594.01,314.961 594.01,198.885 518.672,190.893 "/>
<g>
	<polygon fill="#E0D3B5" points="574.047,377.343 607.01,358.268 608.27,317.177 560.996,328.095 	"/>
	<polygon fill="#ECE5D3" points="485.598,325.942 588.684,344.96 589.07,326.806 485.211,309.727 	"/>
	<polygon fill="#F6F2E9" points="505.184,301.159 608.27,317.177 589.07,326.806 485.211,309.727 	"/>
	<polygon fill="#ECE5D3" points="470.961,355.669 574.047,377.343 574.047,354.485 470.188,335.406 	"/>
	<polygon fill="#F6F2E9" points="485.598,325.942 588.684,344.96 574.047,354.485 470.188,335.406 	"/>
</g>
<polygon fill="#DE896D" points="406.783,44.573 643.164,53.885 652.51,119.885 344.053,99.461 "/>
<g>
	<g>
		<g>
			<g>
				<g>
					
						<rect x="222.287" y="243.278" transform="matrix(0.9981 0.0615 -0.0615 0.9981 16.9333 -13.199)" fill="#AAABA8" width="1" height="50.158"/>
					
						<rect x="197.708" y="267.857" transform="matrix(0.0614 0.9981 -0.9981 0.0614 476.9473 29.5019)" fill="#AAABA8" width="50.157" height="1"/>
				</g>
				<g>
					
						<rect x="198.82" y="267.858" transform="matrix(0.3118 0.9502 -0.9502 0.3118 408.3058 -26.9942)" fill="#AAABA8" width="47.934" height="1"/>
					
						<rect x="199.842" y="267.858" transform="matrix(0.442 0.897 -0.897 0.442 365.0405 -50.0978)" fill="#AAABA8" width="45.891" height="1"/>
				</g>
				<g>
					
						<rect x="202.356" y="267.858" transform="matrix(0.7089 0.7053 -0.7053 0.7089 254.1479 -79.0134)" fill="#AAABA8" width="40.864" height="1"/>
					
						<rect x="203.564" y="267.858" transform="matrix(0.8336 0.5524 -0.5524 0.8336 185.3176 -78.4075)" fill="#AAABA8" width="38.447" height="1"/>
				</g>
				<g>
					
						<rect x="205.038" y="267.858" transform="matrix(0.9924 0.1234 -0.1234 0.9924 34.8056 -25.4328)" fill="#AAABA8" width="35.498" height="1"/>
					
						<rect x="222.287" y="250.61" transform="matrix(0.1231 0.9924 -0.9924 0.1231 461.6859 14.2378)" fill="#AAABA8" width="1" height="35.498"/>
				</g>
				<g>
					
						<rect x="222.288" y="249.134" transform="matrix(0.5529 0.8333 -0.8333 0.5529 323.2188 -65.6539)" fill="#AAABA8" width="1" height="38.447"/>
					
						<rect x="222.288" y="247.926" transform="matrix(0.7056 0.7086 -0.7086 0.7056 255.7306 -78.8669)" fill="#AAABA8" width="0.999" height="40.865"/>
				</g>
				<g>
					
						<rect x="222.287" y="245.412" transform="matrix(0.8973 0.4413 -0.4413 0.8973 141.3105 -70.7757)" fill="#AAABA8" width="1" height="45.891"/>
					
						<rect x="222.287" y="244.39" transform="matrix(0.9499 0.3124 -0.3124 0.9499 94.9914 -56.1699)" fill="#AAABA8" width="1" height="47.935"/>
				</g>
			</g>
			<path fill="#888886" d="M223.288,240.608c-0.168,0-0.334,0.011-0.5,0.018c-0.168-0.007-0.332-0.018-0.5-0.018
				c-11.158,0-20.203,12.424-20.203,27.75s9.045,27.75,20.203,27.75c0.168,0,0.332-0.012,0.5-0.018
				c0.166,0.006,0.332,0.018,0.5,0.018c11.156,0,20.201-12.424,20.201-27.75S234.444,240.608,223.288,240.608z M205.637,268.358
				c0-13.16,7.633-23.863,17.15-24.228c9.516,0.364,17.15,11.067,17.15,24.228s-7.635,23.862-17.15,24.227
				C213.27,292.221,205.637,281.519,205.637,268.358z"/>
		</g>
		<g>
			<g>
				<g>
					
						<rect x="282.846" y="231.617" transform="matrix(0.9981 0.0615 -0.0615 0.9981 16.1875 -16.9515)" fill="#AAABA8" width="1" height="45.508"/>
					
						<rect x="260.592" y="253.871" transform="matrix(0.0614 0.9981 -0.9981 0.0614 519.8345 -44.0632)" fill="#AAABA8" width="45.508" height="1"/>
				</g>
				<g>
					
						<rect x="261.601" y="253.87" transform="matrix(0.3118 0.9502 -0.9502 0.3118 436.696 -94.1597)" fill="#AAABA8" width="43.491" height="1"/>
					
						<rect x="262.528" y="253.87" transform="matrix(0.442 0.897 -0.897 0.442 386.2861 -112.2267)" fill="#AAABA8" width="41.637" height="1.001"/>
				</g>
				<g>
					
						<rect x="264.809" y="253.871" transform="matrix(0.7088 0.7054 -0.7054 0.7088 261.9301 -125.8022)" fill="#AAABA8" width="37.077" height="1"/>
					
						<rect x="265.906" y="253.869" transform="matrix(0.8336 0.5524 -0.5524 0.8336 187.6705 -114.1885)" fill="#AAABA8" width="34.881" height="1.001"/>
				</g>
				<g>
					
						<rect x="267.244" y="253.87" transform="matrix(0.9924 0.1234 -0.1234 0.9924 33.5571 -33.0228)" fill="#AAABA8" width="32.207" height="1"/>
					
						<rect x="282.847" y="238.267" transform="matrix(0.1231 0.9924 -0.9924 0.1231 500.9111 -58.129)" fill="#AAABA8" width="1" height="32.207"/>
				</g>
				<g>
					
						<rect x="282.846" y="236.929" transform="matrix(0.5529 0.8333 -0.8333 0.5529 338.639 -122.3686)" fill="#AAABA8" width="1" height="34.882"/>
					
						<rect x="282.847" y="235.832" transform="matrix(0.7047 0.7095 -0.7095 0.7047 264.1698 -125.9217)" fill="#AAABA8" width="1.001" height="37.076"/>
				</g>
				<g>
					
						<rect x="282.847" y="233.552" transform="matrix(0.897 0.4421 -0.4421 0.897 141.664 -99.0638)" fill="#AAABA8" width="1.001" height="41.637"/>
					
						<rect x="282.846" y="232.624" transform="matrix(0.9499 0.3124 -0.3124 0.9499 93.6526 -75.7898)" fill="#AAABA8" width="1" height="43.492"/>
				</g>
			</g>
			<path fill="#888886" d="M283.799,229.193c-0.15,0-0.301,0.01-0.453,0.016c-0.152-0.006-0.301-0.016-0.453-0.016
				c-10.123,0-18.33,11.271-18.33,25.177s8.207,25.178,18.33,25.178c0.152,0,0.301-0.011,0.453-0.016
				c0.152,0.005,0.303,0.016,0.453,0.016c10.125,0,18.33-11.272,18.33-25.178S293.924,229.193,283.799,229.193z M267.786,254.37
				c0-11.939,6.926-21.651,15.561-21.981c8.635,0.33,15.561,10.042,15.561,21.981s-6.926,21.651-15.561,21.981
				C274.711,276.021,267.786,266.31,267.786,254.37z"/>
		</g>
		<path fill="#9F9F9D" d="M223.79,269.858c-0.052,0-0.104-0.003-0.157-0.008c-0.824-0.086-1.423-0.824-1.336-1.648l4.726-45.249
			c0.086-0.824,0.825-1.42,1.647-1.336c0.824,0.086,1.423,0.824,1.336,1.647l-4.726,45.25
			C225.2,269.285,224.548,269.858,223.79,269.858z"/>
		<path fill="#9F9F9D" d="M257.26,262.817c-0.36,0-0.722-0.13-1.01-0.392l-29.895-27.221c-0.612-0.559-0.656-1.507-0.099-2.119
			s1.505-0.657,2.118-0.1l29.895,27.222c0.613,0.558,0.658,1.507,0.1,2.119C258.074,262.651,257.668,262.817,257.26,262.817z"/>
		<path fill="#9F9F9D" d="M257.26,262.817c-0.668,0-1.277-0.449-1.452-1.127c-0.206-0.802,0.276-1.619,1.079-1.826l26.993-6.946
			c0.806-0.207,1.62,0.276,1.827,1.079c0.207,0.801-0.276,1.619-1.078,1.826l-26.994,6.946
			C257.509,262.802,257.383,262.817,257.26,262.817z"/>
		<path fill="#9F9F9D" d="M257.262,262.817c-0.122,0-0.245-0.015-0.368-0.046c-0.804-0.203-1.29-1.019-1.088-1.821l8.75-34.683
			c0.202-0.803,1.021-1.291,1.821-1.087c0.804,0.202,1.291,1.019,1.088,1.821l-8.75,34.682
			C258.543,262.364,257.932,262.817,257.262,262.817z"/>
		<path fill="#9F9F9D" d="M284.256,255.87c-0.488,0-0.967-0.238-1.255-0.676l-18.244-27.734c-0.455-0.692-0.263-1.622,0.429-2.078
			c0.693-0.455,1.622-0.263,2.078,0.429l18.244,27.735c0.455,0.692,0.264,1.622-0.43,2.077
			C284.825,255.79,284.54,255.87,284.256,255.87z"/>
		<path fill="#9F9F9D" d="M266.01,228.635c-1.104,0-2-0.895-2-2v-4.5c0-1.104,0.896-2,2-2c1.105,0,2,0.896,2,2v4.5
			C268.01,227.74,267.116,228.635,266.01,228.635z"/>
	</g>
	<path fill="#939491" d="M215.313,225.135c-1.066,0-1.953-0.842-1.997-1.918c-0.045-1.104,0.813-2.035,1.917-2.08l25.086-1.026
		c1.094-0.048,2.035,0.813,2.08,1.917s-0.812,2.035-1.917,2.08l-25.086,1.025C215.368,225.135,215.34,225.135,215.313,225.135z"/>
	<g>
		<path fill="#888886" d="M276.567,219.322c0-0.928-0.898-1.629-1.996-1.557l-5.565,0.363c-1.098,0.072-2.867,0.354-3.933,0.628
			l-5.875,1.506c-1.066,0.273-1.938,1.031-1.938,1.685s0.865,1.435,1.923,1.737l0.529,0.15c1.058,0.303,2.801,0.352,3.874,0.108
			l11.03-2.492C275.689,221.208,276.567,220.25,276.567,219.322z"/>
	</g>
</g>
<g>
	<g>
		<g>
			<path fill="#C83B0C" d="M387.566,278.287c-4.939,0.534-11.137-0.185-17.492-4.487l-4.025,5.68
				c5.771,5.622,11.982,8.861,18.07,10.171C385.031,286.089,386.184,282.201,387.566,278.287z"/>
		</g>
		<g>
			<g>
				<path fill="#C83B0C" d="M433.291,315.423c-2.264,3.41-9.643,3.961-14.107,3.961c-12.414,0-28.93-3.811-35.078-10.187
					c-0.871-0.904-1.516-1.841-1.932-2.802c-6.643,11.65-11.697,31.461-6.621,47.448l5.926-0.598
					c2.006-15.937,12.879-23.263,24.98-24.952c1.518,14.733,11.812,29.938,27.666,37.797l4.986-4.248
					C427.998,348.899,433.516,331.134,433.291,315.423z"/>
			</g>
		</g>
		<g>
			<path fill="#C83B0C" d="M452.055,301.597c-0.162-0.09-0.336-0.201-0.557-0.225c-0.311-0.033-1.033,1.264-2.451,0.649
				c-0.547-0.237-1.172-2.019-1.432-3.534c-0.301-1.767,0.023-3.297,0.947-4.297c0.775-0.834,2.084-1.262,3.441-1.322
				c6.055-0.266,8.133,8.098,3.479,9.273C453.748,302.581,453.102,302.177,452.055,301.597z"/>
		</g>
		<g>
			<path fill="#C83B0C" d="M378.885,360.127c-1.59,0.32-5.26,0.956-6.625,0.187c-2.945-1.647,1.598-3.871,3.912-4.709
				C382.123,353.464,385.969,358.7,378.885,360.127z"/>
		</g>
		<g>
			<path fill="#C83B0C" d="M441.1,369.917c-1.385,0.839-4.611,2.688-6.16,2.435c-3.334-0.542-0.049-5.366,1.848-6.944
				C441.646,361.361,447.273,366.15,441.1,369.917z"/>
		</g>
		<g>
			<path fill="#C83B0C" d="M431.32,256.974v0.002l-1.58-0.533c-2.205-0.743-3.977-1.542-5.289-2.217
				c-0.584-0.143-1.164-0.27-1.738-0.361c-0.289,0.242-0.602,0.463-0.908,0.689c-0.535,0.812-1.195,1.762-1.928,2.707l-0.668,0.863
				l-0.801-0.74c-0.17-0.157-0.35-0.329-0.537-0.512c-4.295,1.97-8.674,2.448-11.879,2.448c-2.338,0-4.688-0.27-6.445-0.738
				c-0.246-0.065-0.502-0.17-0.758-0.283c-9.822,12.779-15.887,37.192-16.18,45.229c-0.484,13.264,47.703,19.53,50.238,10.569
				c0.197-0.696-2.516-33.419-2.215-38.146c0-0.002,0-0.005,0.002-0.008c-2.219-0.799-3.746-1.029-3.795-1.037l0.068-0.495
				l0.07-0.495c0.004,0.001,0.033,0.006,0.076,0.013c0.006,0.001,0.014,0.003,0.018,0.003c0.049,0.008,0.111,0.02,0.193,0.035
				c0.004,0,0.008,0.001,0.012,0.002c0.541,0.103,1.777,0.372,3.402,0.938c5.02,1.753,13.756,6.369,17.17,17.815l5.855-1.51
				C452.059,275.868,441.977,262.852,431.32,256.974z"/>
		</g>
		<g>
			<path fill="#C83B0C" d="M436.867,249.602c-1.662-3.718-1.014-9.608-0.637-14.697c0.695-9.34-0.078-12.18-3.49-16.447
				c-2.834-3.545-5.93-6.327-10.822-7.766c-5.83-1.713-12.801-0.854-16.855,0.719c-1.701,0.66-5.152,1.829-8.578,3.319
				c-2.275,0.987-8.65,2.013-11.205,1.491c1.205,1.645,5.453,3.357,7.762,4.388c-2.316,1.431-6.869,2.099-7.092,2.611
				c6.049,2.5,13.074,2.565,20.562,2.208c0.609,4.654,1.723,9.861,3.613,16.341c1.902,6.509,5.451,11.635,8.961,14.881
				c1.842-2.378,3.242-4.826,3.242-4.826s2.74,1.988,7.73,3.672c-0.502-3.021,0.09-6.105,0.09-6.105
				S433.766,249.415,436.867,249.602z"/>
			<g>
				<path fill="#C83B0C" d="M409.166,242.049c-1.727-5.912-2.854-10.893-3.521-15.581c-1.859,0.08-3.432,0.117-4.887,0.117
					c-3.252,0-6.057-0.194-8.564-0.604c-0.535,1.53-0.949,3.158-1.209,4.888c-2.373,15.869,4.646,25.637,8.818,26.748
					c3.371,0.899,10.66,1.398,17.312-1.515C414.617,253.47,411.158,248.865,409.166,242.049z M395.273,241.729
					c-0.826,0.014-1.518-1.262-1.543-2.849c-0.027-1.59,0.629-2.882,1.455-2.897c0.828-0.013,1.523,1.264,1.545,2.849
					C396.754,240.419,396.105,241.717,395.273,241.729z"/>
			</g>
		</g>
		<path fill="#C83B0C" d="M365.293,270.711c-0.496,0.087-0.615,0.262-1.418-0.073c-1.674-0.699-2.641-0.562-3.652,1.488
			c-0.994,2.018-0.723,4.062,1.541,5.348c2.953,1.678,7.061-1.093,6.533-4.535C368.248,272.619,367.395,270.345,365.293,270.711z"/>
	</g>
</g>
</svg>
