<?xml version="1.0" encoding="utf-8"?>
<!-- Generator: Adobe Illustrator 15.0.2, SVG Export Plug-In . SVG Version: 6.00 Build 0)  -->
<!DOCTYPE svg PUBLIC "-//W3C//DTD SVG 1.1//EN" "http://www.w3.org/Graphics/SVG/1.1/DTD/svg11.dtd">
<svg version="1.1" id="Layer_1" xmlns="http://www.w3.org/2000/svg" xmlns:xlink="http://www.w3.org/1999/xlink" x="0px" y="0px"
	 width="720px" height="460px" viewBox="0 0 720 460" enable-background="new 0 0 720 460" xml:space="preserve">
<path fill="#C7CB7A" d="M294.63,249.275c132.873-8.289,253.977,0.678,333.688,38.918c53.021,25.438,48.424,59.156,5.23,79.295
	c-48.045,22.403-145.549,40.881-283.566,40.881c-133.379,0-234.924-26.674-272.535-52.704
	c-27.039-18.714-17.825-50.119,30.806-69.88C161.185,264.28,213.901,254.31,294.63,249.275z"/>
<g>
	<g>
		<ellipse fill="#B2B748" cx="315.481" cy="185.827" rx="117.611" ry="79.682"/>
	</g>
	<g>
		<ellipse fill="#BCC160" cx="485.269" cy="156.555" rx="99.611" ry="81.582"/>
	</g>
	<path fill="#AAB036" d="M414.997,68.488c4.338,0.754,8.389-1.424,12.344-2.375c-2.535,8.074-11.387,14.99-18.443,19.656
		c4.705-0.6,9.662-2.25,13.955-3.559c-5.371,9.909-14.268,15.301-22.875,22.367c5.619,0.475,11.402-0.723,16.381-2.816
		c-6.303,11.54-21.344,14.265-27.408,25.057c6.85,0.88,14.037-0.76,20.475-3.141c-1.768,12.607-22.316,19.254-27.586,29.123
		c6.444,1.098,12.125-3.062,18.596-2.447c-1.092,8.341-18.168,15.151-24.018,21.256c5.994,0.561,11.932-1.148,17.809-0.539
		c-5.795,7.484-15.932,11.324-21.401,18.471c5.735,0.57,11.067-0.236,15.935-2.388c0.123,9.038-12.176,16.39-17.721,22.114
		c5.211,0.865,10.576-1.258,15.223-3.07c-1.07,5.662-14.279,16.641-19.486,20.107c4.332-0.092,9.047-2.242,13.236-3.049
		c-3.77,7.137-14.379,11.203-19.783,17.399c4.193,0.497,8.229-0.671,12.387-0.583c-0.797,7.201-9.986,11.037-10.5,19.461
		c36.719,1.968,75.953,2.677,112.639,1.028c12.502-0.562,23.445-2.13,35.154-6.081c7.547-2.545,19.93-3.478,25.98-7.1
		c-6.754-3.894-12.053-10.021-19.389-12.91c2.938,1.555,6.154,2.629,9.301,2.595c-7.525-5.615-15.226-11.071-22.705-16.899
		c5.922,0.113,11.66,2.492,17.596,1.682c-7.297-8.42-20.977-12.432-27.768-21.254c4.477,1.178,8.697,2.79,13.322,2.423
		c-4.035-7.566-16.658-13.259-22.227-21.183c5.357,0.045,10.621,2.408,15.955,2.352c-2.799-7.879-19.533-15.795-24.943-23.893
		c4.672-2.219,9.354,1.701,12.611-1.98c-6.145-6.188-13.273-11.897-17.814-19.588c3.541-0.045,7.137,1.172,10.391,2.486
		c-0.486-7.285-16.145-16.511-21.107-22.393c9.289,0.424,11.02,1.002,6.205-6.408c-3.223-4.961-8.135-8.984-11.535-13.992
		c3.953,0.022,8.133,1.51,12.133,1.453c-4.707-6.094-15.992-9.764-18.613-16.724c3.312,0.686,5.777-0.479,8.105-1.856
		c-4.42-5.135-10.695-9.406-12.596-16.051c1.34,0.302,2.984,0.223,4.236,0.602c-1.652-5.375-8.699-9.613-12.418-14.211
		C434.628,51.631,424.774,59.012,414.997,68.488z"/>
	<path fill="#B2B84A" d="M555.581,207.893c1.766,0.562,3.52,1.479,5.562,2.683c2.748-1.782,4.514-4.283,7.684-5.667
		c4.652-2.03,7.961-3.127,12.773-1.269c1.869,0.723,2.816,1.644,4.244,2.867c1.773,1.521,0.51,1.789,2.871,1.261
		c4.17-0.932,6.387-3.254,10.986-1.941c3.521,1.004,5.18,2.5,6.766,5.994c1.934,4.253,2.295,2.718,6.312,1.824
		c2.859-0.637,5.777,0.211,8.105,2.288c1.246,1.112,3.16,6.379,1.48,10.028c4.496,1.176,10.518-0.576,12.385,6.438
		c0.33,1.241,0.576,4.113,0.16,5.382c-0.594,1.8-2.494,2.305-2.779,3.978c3.895,1.008,7.053,5.342,8.062,9.81
		c1.379,6.104-3.893,7.317-8.062,8.121c-0.199,4.234,2.01,6.916-0.045,11.383c-2.277,4.952-7.537,5.549-11.982,5.691
		c1.828-0.059,3.104,3.079,2.555,4.721c-0.682,2.043-4.164,3.075-5.693,3.719c-4.896,2.06-8.1,5.831-12.621,8.88
		c-11.34,7.644-24.125,12.148-37.258,12.148c-10.381,0-20.512-3.576-29.551-9.438c-3.646-2.365-7.793-7.58-11.66-8.914
		c-1.828-0.631-4.17,0.041-6.203-0.734c-2.016-0.77-4.055-1.936-5.629-3.625c-2.924-3.14-5.197-10.233-0.402-12.122
		c-9.078-2.344-13.967-13.834-5.387-25.26c-1.514-4.462-3.969-8.22-0.623-13.124c2.498-3.658,8.711-6.706,12.393-4.009
		c-4.6-9.107,11.133-18.179,17.234-12.183c-0.115-5.105,5.848-7.961,9.451-8.886C550.339,207.004,552.974,207.062,555.581,207.893z"
		/>
</g>
<path fill="#AAB036" d="M205.048,168.686c-1.844,1.099-3.498,2.428-4.861,3.976c-10.082-11.657-30.447-15.352-40.428,3.034
	c-8.232-14.613-39.332-14.621-48.299,7.951c-14.849-3.521-46.791,7.565-35.167,31.646c-20.133-4.486-34.443,27.468-11.667,33.222
	c-6.673,16.475,8.754,25.066,22.054,28.174c-6.024,15.975,22.458,17.385,32.74,23.082c21.395,11.854,42.82,20.455,67.742,20.455
	c22.997,0,43.248-8.338,61.037-22.113c8.137-6.301,9.105-6.51,18.775-9.729c9.443-3.144,34.049-10.198,17.365-23.772
	c18.16-0.732,31.574-19.455,10.082-29.557c26.875-16.596,1.362-32.158-19.047-31.727c16.285-21.609-25.949-24.644-37.803-21.297
	C238.558,164.367,217.472,161.284,205.048,168.686z"/>
<g>
	<g>
		<g>
			<path fill="#C83B0C" d="M282.431,280.613c3.123,0.484,6.557,0.731,10.268,0.731c19.273,0,46.402-7.273,54.461-18.027
				c4.266,20.179,2.432,53.524,1.865,66.525l-6.459,0.749c-8.033-17.039-17.482-29.292-26.254-37.682
				c-4.314,14.351-13.494,32.674-27.213,48.078l-6.309-0.076C285.521,313.781,285.134,300.846,282.431,280.613z"/>
		</g>
	</g>
	<g>
		<path fill="#C83B0C" d="M298.794,144.705c0.701,0.406,1.396,0.862,2.082,1.388c12.09,9.273,16.457,30.362,16.457,30.362
			l-2.314-1.179l-0.562,6.06l-0.771-0.392c-0.365-4.963-1.508-10.446-3.746-16.307c-3.182-8.334-8.91-14.955-16.033-19.084
			C295.638,145.2,297.296,144.92,298.794,144.705z"/>
	</g>
	<path fill="#C83B0C" d="M370.661,165.548c-0.191-1.57-2.096-2.352-4.712-1.365c-1.804,0.68-3.167,1.172-4.247,0.684
		c-1.457-0.659,0.129-3.056-0.92-3.649c-0.838-0.476-1.762,0.385-2.393,1.304c-0.816,1.184-1.231,2.751-1.256,3.802
		c-0.049,2.041,0.211,3.589,2.686,4.454c2.195,0.767,4.365,0.591,7.184-0.543C369.618,169.177,370.899,167.527,370.661,165.548z"/>
	<path fill="#C83B0C" d="M237.269,283.381c1.086,1.239,2.381,2.4,3.76,0.947c1.223-1.281,0.605-2.802,0.464-4.301
		c-0.177-1.917,0.024-3.408,1.13-3.84c1.49-0.584,2.098,2.227,3.256,1.889c0.926-0.265,0.859-1.513,0.739-2.625
		c-0.134-1.2-0.968-2.6-1.646-3.403c-1.486-1.77-3.451-2.103-5.33-1.093C235.573,273.135,234.155,279.832,237.269,283.381z"/>
	<path fill="#C83B0C" d="M345.591,337.336c1.816,0.051,5.988,0.055,7.352-1.054c2.941-2.381-2.502-3.973-5.219-4.455
		C340.747,330.594,337.495,337.104,345.591,337.336z"/>
	<path fill="#C83B0C" d="M284.644,348.227c1.812,0.049,5.986,0.052,7.348-1.056c2.939-2.38-2.499-3.973-5.219-4.452
		C279.794,341.482,276.542,347.996,284.644,348.227z"/>
	<path fill="#C83B0C" d="M278.544,149.943c-6.303,4.161-8.16,13.722-8.301,17.829c-0.082,2.353-0.877,6.858,1.574,16.647
		c1.83,7.315,7.195,21.661,7.227,21.809c-1.986,0.354-6.609-1.287-6.609-1.287l1.922,10.024l-9.807-4.369l0.871,5.355
		c0,0-13.703-12.473-19.539-25.259c-5.541-12.147-3.549-24.447-0.105-31.432c2.863-5.798,6.4-10.495,12.701-14.118
		c6.967-4.005,13.795-4.931,22.787-7.166c7.166-1.781,20.395-7.171,20.395-7.171l-7.729,8.835l11.652,3.157
		C305.583,142.799,288.147,143.601,278.544,149.943z"/>
	<g>
		<path fill="#C83B0C" d="M280.21,205.972l0.268,1.215l-1.223,0.217c-0.256,0.047-0.545,0.07-0.859,0.07
			c-1.314,0-3.074-0.416-4.412-0.793l0.08,0.412c12.535,3.423,25.297,1.188,30.605-1.555c5.545-2.862,12.422-18.822,4.155-40.477
			c-3.466-9.073-9.558-15.424-16.624-19.139c-4.543,1.043-9.376,2.624-13,5.016c-6.029,3.983-7.648,13.532-7.766,16.876
			c-0.012,0.331-0.035,0.704-0.064,1.126c-0.174,2.588-0.467,6.918,1.604,15.19c1.039,4.145,3.359,11.169,6.898,20.876
			C280.188,205.874,280.188,205.874,280.21,205.972z M305.476,170.512c-0.928,0.504-2.584-0.753-3.707-2.808
			c-1.117-2.058-1.271-4.133-0.35-4.636c0.926-0.501,2.584,0.757,3.703,2.812C306.241,167.936,306.392,170.011,305.476,170.512z
			 M289.194,170.71c1.053-0.57,2.793,0.595,3.891,2.612c1.096,2.013,1.131,4.108,0.082,4.68c-1.057,0.573-2.795-0.597-3.893-2.608
			C288.181,173.379,288.147,171.281,289.194,170.71z"/>
		<g>
			<path fill="#C83B0C" d="M361.007,173.035l-5.974-2.558c-9.399,16.2-26.294,22.25-43.864,27.98
				c-1.641,4.074-3.879,6.853-6.041,7.969c-3.186,1.646-9.514,3.403-17.721,3.403c-1.195,0-2.381-0.039-3.557-0.115
				c-16.27,10.09-33.338,28.548-44.119,58.256l7.666,2.332c12.188-21.966,30.043-26.562,30.043-26.562s1.25,14.169,2.438,35.194
				c24.102,5.215,68.434-7.11,68.434-21.981c-6.053-29.44-17.994-45.57-17.994-45.57S349.235,199.212,361.007,173.035z"/>
		</g>
	</g>
</g>
<g>
	<g>
		<path fill="#A1856E" d="M422.108,245.837c-0.48,0.017-1.051-0.966-1.463-1.165c-0.457-0.219-0.646,0.087-1.053-0.034
			c-0.449-0.134-0.576-0.378-0.371-1.045c0.375-1.226,1.299-2.685,2.756-1.976c0.93,0.453,1.508,0.966,1.627,2.038
			C423.657,244.126,423.153,245.797,422.108,245.837z"/>
		<path fill="#A1856E" d="M366.595,258.803c0.02,0.002,0.039,0.006,0.059,0.008c1.393,0.178,3.082-0.957,2.496-2.628
			c-0.461-1.313-2.75-2.644-2.506-0.864c-0.863,0.018-1.912,0.602-1.896,1.719C364.767,258.164,365.563,258.652,366.595,258.803z"/>
		<path fill="#A1856E" d="M423.286,276.582c-0.484,0.57-1.633,1.85-2.346,1.963c-1.541,0.246-0.532-1.861,0.07-2.828
			C422.554,273.236,425.446,274.032,423.286,276.582z"/>
		<path fill="#A1856E" d="M390.382,288.471c-0.703,0.26-2.332,0.813-3.008,0.561c-1.463-0.541,0.449-1.881,1.447-2.43
			C391.384,285.198,393.515,287.312,390.382,288.471z"/>
		<g>
			<path fill="#A1856E" d="M368.649,254.27c12.283-8.083,13.889-16.43,22.707-20.971c10.143-5.227,24.734-2.498,30.01,7.454
				l-2.467,1.422c-5.043-6.001-11.27-5.181-11.27-5.181s3.705,5.351,6.199,17.487c0,6.13-18.592,12.372-27.012,7.466
				c0.906-8.001-1.811-13.438-1.811-13.438s-6.238,5.244-14.447,8.507L368.649,254.27z"/>
			<g>
				<g>
					<path fill="#A1856E" d="M394.665,264.682c6.781,0,14.947-2.805,18.426-6.534c1.035,6.468,3.182,10.338,8.672,15.214
						l-1.783,2.208c-6.881-1.357-15.18-4.593-18.814-9.512c-6.994,4.305-9.793,10.994-9.668,19.581l-3.412-0.09
						c-3.553-8.25-3.605-16.351-1.379-22.567C388.796,264.092,391.53,264.682,394.665,264.682z"/>
				</g>
			</g>
		</g>
		<g>
			<path fill="#A1856E" d="M374.864,210.688c0.051,1.123,4.617,7.25,8.18,7.411c3.549,0.162,4.613,4.899,9.662,6.998
				c2.955,1.228,8.73-0.533,8.73-7.482c0-6.951-5.211-13.282-10.811-14.521C381.956,201.176,374.702,207.139,374.864,210.688z"/>
			<path fill="#A1856E" d="M394.658,226.426c-0.835,0-1.64-0.151-2.323-0.435c-2.672-1.11-4.326-2.921-5.654-4.377
				c-1.318-1.442-2.27-2.484-3.682-2.548c-3.195-0.146-6.918-4.2-8.418-6.715c-0.836,2.668-1.033,5.727-0.393,8.869
				c1.645,8.088,7.26,12.766,9.479,12.766c1.811,0,8.508-1.709,12.051-7.646C395.364,226.392,395.011,226.426,394.658,226.426z
				 M376.97,224.081c-0.352,0.11-0.805-0.348-1.018-1.019c-0.209-0.674-0.096-1.307,0.256-1.415c0.35-0.11,0.805,0.345,1.016,1.018
				S377.319,223.972,376.97,224.081z"/>
		</g>
	</g>
	<g>
		<path fill="#A1856E" d="M493.839,263.586c-0.559-0.052-1.074-1.278-1.521-1.571c-0.502-0.327-0.766,0-1.217-0.202
			c-0.504-0.224-0.615-0.525-0.275-1.27c0.623-1.364,1.914-2.92,3.499-1.875c1.013,0.668,1.604,1.352,1.581,2.612
			C495.894,261.835,495.058,263.699,493.839,263.586z"/>
		<path fill="#A1856E" d="M427.419,270.225c0.021,0.005,0.043,0.012,0.064,0.018c1.59,0.418,3.725-0.645,3.297-2.673
			c-0.336-1.596-2.793-3.486-2.779-1.386c-1.004-0.109-2.311,0.41-2.459,1.71C425.392,269.205,426.241,269.891,427.419,270.225z"/>
		<path fill="#A1856E" d="M490.544,299.463c-0.65,0.589-2.178,1.899-3.023,1.922c-1.826,0.052-0.332-2.242,0.512-3.272
			C490.2,295.466,493.438,296.829,490.544,299.463z"/>
		<path fill="#A1856E" d="M450.536,308.277c-0.854,0.194-2.828,0.59-3.578,0.194c-1.615-0.851,0.809-2.116,2.051-2.602
			C452.196,304.63,454.349,307.405,450.536,308.277z"/>
		<g>
			<g>
				<path fill="#A1856E" d="M459.118,281.305c7.871,1.028,17.777-0.99,22.383-4.793c0.221,7.667,2.127,12.486,7.762,18.98
					l-2.406,2.294c-7.783-2.62-16.926-7.637-20.402-13.898c-8.771,3.938-13.037,11.279-14.193,21.271l-3.947-0.624
					c-2.873-10.115-1.707-19.53,1.822-26.409C452.39,279.729,455.478,280.829,459.118,281.305z"/>
			</g>
		</g>
		<g>
			<g>
				<path fill="#A1856E" d="M443.071,217.794c-0.578,2.719,0.039,7.06,3.768,12.224c4.543,6.291,9.16,11.141,17.246,15.1
					c4.873,2.388,23.855-0.799,23.875-9.797c-6.965-2.76-13.564-9.212-15.791-13.705c-2.18-4.398-5.043-7.893-10.592-10.406
					C452.755,207.214,444.03,213.296,443.071,217.794z"/>
				<g>
					<path fill="#A1856E" d="M446.054,230.584c3.398,4.706,6.902,8.705,11.934,12.129c-3.111,1.162-5.895,1.43-6.986,1.287
						c-2.574-0.336-8.385-6.621-9.07-16.26c-0.131-1.854-0.022-3.651,0.285-5.354C442.667,224.597,443.743,227.383,446.054,230.584z
						"/>
				</g>
			</g>
		</g>
	</g>
	<g>
		<path fill="#A1856E" d="M460.034,244.365c0.124-0.045,0.252-0.081,0.377-0.126c1.021,0.601,2.096,1.186,3.247,1.748
			c0.681,0.333,1.575,0.573,2.659,0.715c3.412,0.446,9.014-0.115,13.818-1.961c6.162,2.349,11.334,6.74,13.611,12.83l-3.08,1.278
			c-4.945-7.732-12.301-7.724-12.301-7.724s3.49,6.772,4.549,21.241c-0.93,7.117-23.463,11.547-32.494,4.574
			c2.264-9.152-0.064-15.878-0.064-15.878s-8.039,5.143-18.064,7.689l-1.801-3.481C445.978,257.751,449.106,248.302,460.034,244.365
			z"/>
	</g>
</g>
<circle fill="#54AC9F" cx="367.463" cy="124.037" r="19.524"/>
</svg>
