<?xml version="1.0" encoding="utf-8"?>
<!-- Generator: Adobe Illustrator 15.0.2, SVG Export Plug-In . SVG Version: 6.00 Build 0)  -->
<!DOCTYPE svg PUBLIC "-//W3C//DTD SVG 1.1//EN" "http://www.w3.org/Graphics/SVG/1.1/DTD/svg11.dtd">
<svg version="1.1" id="Layer_1" xmlns="http://www.w3.org/2000/svg" xmlns:xlink="http://www.w3.org/1999/xlink" x="0px" y="0px"
	 width="720px" height="460px" viewBox="0 0 720 460" enable-background="new 0 0 720 460" xml:space="preserve">
<g>
	<g>
		<polygon fill="#888886" points="536.629,389.539 672.035,389.539 377.355,220.063 301.391,220.063 		"/>
		<g>
			<polygon fill="#9F9F9D" points="630.32,389.539 644.82,389.539 370.203,217.961 368.55,218.089 368.543,220.063 			"/>
			<polygon fill="#9F9F9D" points="560.82,389.539 573.32,389.539 357.518,216.078 353.76,216.756 			"/>
		</g>
	</g>
	<polygon fill="#E7E4D9" points="47.965,365.608 292.297,198.105 336.654,198.105 536.629,365.608 536.629,389.539 47.965,389.539 	
		"/>
	<rect x="47.965" y="365.608" fill="#F0EEE7" width="488.664" height="23.931"/>
	<polygon fill="#C4C5C2" points="130.419,70.461 444.475,70.461 444.475,89.862 348.221,172.067 205.6,172.067 130.419,89.862 	"/>
	<polygon fill="#AAABA8" points="444.475,89.862 348.221,172.067 205.6,172.067 130.419,89.862 	"/>
	<polygon fill="#D2D0C8" points="138.946,303.812 261.377,303.812 287.447,231.816 287.447,143.438 261.377,101.18 138.946,101.18 	
		"/>
	<rect x="138.946" y="101.18" fill="#D9D7D0" width="122.431" height="202.633"/>
	<g>
		<g>
			<g>
				<circle fill="#939491" cx="355.602" cy="152.573" r="13.861"/>
				<circle fill="#E3E1DC" cx="355.602" cy="152.573" r="12.119"/>
				<g>
					<path fill="#939491" d="M355.602,153.043h-6.816c-0.414,0-0.75-0.336-0.75-0.75s0.336-0.75,0.75-0.75h6.066v-6.699
						c0-0.414,0.336-0.75,0.75-0.75s0.75,0.336,0.75,0.75v7.449C356.352,152.708,356.016,153.043,355.602,153.043z"/>
				</g>
				<g>
					<g>
						<g>
							<path fill="#AAABA8" d="M355.602,143.411c-0.275,0-0.5-0.224-0.5-0.5v-1.183c0-0.276,0.225-0.5,0.5-0.5
								c0.277,0,0.5,0.224,0.5,0.5v1.183C356.102,143.188,355.879,143.411,355.602,143.411z"/>
							<path fill="#AAABA8" d="M355.602,163.358c-0.275,0-0.5-0.224-0.5-0.5v-1.183c0-0.276,0.225-0.5,0.5-0.5
								c0.277,0,0.5,0.224,0.5,0.5v1.183C356.102,163.135,355.879,163.358,355.602,163.358z"/>
						</g>
					</g>
					<g>
						<g>
							<path fill="#AAABA8" d="M360.293,144.668c-0.084,0-0.17-0.021-0.249-0.067c-0.239-0.138-0.321-0.443-0.184-0.683l0.591-1.025
								c0.138-0.239,0.443-0.322,0.683-0.184c0.239,0.138,0.321,0.443,0.184,0.683l-0.591,1.025
								C360.635,144.578,360.466,144.668,360.293,144.668z"/>
							<path fill="#AAABA8" d="M350.318,161.943c-0.085,0-0.171-0.021-0.25-0.067c-0.238-0.138-0.32-0.444-0.183-0.683l0.592-1.025
								c0.138-0.24,0.444-0.321,0.683-0.183c0.24,0.138,0.322,0.444,0.184,0.683l-0.592,1.025
								C350.659,161.854,350.491,161.943,350.318,161.943z"/>
						</g>
					</g>
					<g>
						<g>
							<path fill="#AAABA8" d="M363.727,148.102c-0.173,0-0.341-0.09-0.434-0.25c-0.139-0.239-0.056-0.545,0.184-0.683l1.025-0.591
								c0.238-0.138,0.544-0.056,0.683,0.183c0.138,0.239,0.056,0.545-0.183,0.683l-1.025,0.591
								C363.896,148.081,363.811,148.102,363.727,148.102z"/>
							<path fill="#AAABA8" d="M346.452,158.076c-0.173,0-0.341-0.09-0.434-0.25c-0.138-0.239-0.056-0.545,0.183-0.683l1.025-0.592
								c0.238-0.139,0.545-0.057,0.684,0.183c0.139,0.239,0.057,0.545-0.184,0.683l-1.025,0.592
								C346.623,158.055,346.537,158.076,346.452,158.076z"/>
						</g>
					</g>
					<g>
						<g>
							<path fill="#AAABA8" d="M366.166,152.793h-1.182c-0.277,0-0.5-0.224-0.5-0.5s0.223-0.5,0.5-0.5h1.182
								c0.277,0,0.5,0.224,0.5,0.5S366.443,152.793,366.166,152.793z"/>
							<path fill="#AAABA8" d="M346.219,152.793h-1.184c-0.275,0-0.5-0.224-0.5-0.5s0.225-0.5,0.5-0.5h1.184
								c0.277,0,0.5,0.224,0.5,0.5S346.496,152.793,346.219,152.793z"/>
						</g>
					</g>
					<g>
						<g>
							<path fill="#AAABA8" d="M364.751,158.076c-0.085,0-0.171-0.021-0.249-0.067l-1.025-0.592
								c-0.24-0.138-0.322-0.444-0.184-0.683c0.139-0.24,0.444-0.322,0.684-0.183l1.025,0.592c0.238,0.138,0.32,0.444,0.183,0.683
								C365.092,157.986,364.924,158.076,364.751,158.076z"/>
							<path fill="#AAABA8" d="M347.477,148.102c-0.085,0-0.17-0.021-0.25-0.067l-1.025-0.591c-0.238-0.138-0.32-0.444-0.183-0.683
								s0.442-0.321,0.683-0.183l1.025,0.591c0.239,0.138,0.322,0.444,0.184,0.683C347.818,148.012,347.649,148.102,347.477,148.102
								z"/>
						</g>
					</g>
					<g>
						<g>
							<path fill="#AAABA8" d="M360.885,161.943c-0.173,0-0.342-0.09-0.434-0.25l-0.591-1.025c-0.138-0.239-0.056-0.545,0.184-0.683
								s0.546-0.056,0.683,0.184l0.591,1.025c0.138,0.239,0.056,0.545-0.184,0.683C361.055,161.922,360.969,161.943,360.885,161.943
								z"/>
							<path fill="#AAABA8" d="M350.911,144.668c-0.173,0-0.341-0.089-0.434-0.25l-0.592-1.025
								c-0.138-0.239-0.056-0.545,0.183-0.683c0.238-0.138,0.545-0.057,0.684,0.183l0.592,1.025
								c0.139,0.239,0.057,0.545-0.184,0.683C351.082,144.646,350.996,144.668,350.911,144.668z"/>
						</g>
					</g>
				</g>
			</g>
			<path fill="#939491" d="M354.65,135.251c0-0.524,1.9-0.524,1.9,0s0,4.128,0,4.128h-1.9
				C354.65,139.379,354.65,135.775,354.65,135.251z"/>
		</g>
		<path fill="#939491" d="M350.91,134.825c0-0.887,2.031-1.606,4.535-1.606c2.506,0,4.535,0.719,4.535,1.606
			c0,0.118,0,0.569,0,0.688c0,0.887-2.029,1.605-4.535,1.605c-2.504,0-4.535-0.719-4.535-1.605
			C350.91,135.395,350.91,134.943,350.91,134.825z"/>
	</g>
	<g>
		<path fill="#7A574A" d="M325.333,263.261c-0.708,1.382-1.624,2.739-3.218,1.728c-1.411-0.893-1.193-2.424-1.41-3.825
			c-0.276-1.796-0.801-3.108-1.91-3.251c-1.495-0.193-1.406,2.516-2.544,2.472c-0.906-0.032-1.13-1.187-1.276-2.231
			c-0.151-1.13,0.29-2.596,0.725-3.488c0.954-1.956,2.673-2.71,4.623-2.218C324.538,253.508,327.369,259.305,325.333,263.261z"/>
		<path fill="#7A574A" d="M212.464,272.232c0.943,1.234,2.09,2.404,3.475,1.123c1.228-1.131,0.74-2.598,0.701-4.016
			c-0.05-1.816,0.231-3.203,1.298-3.541c1.435-0.459,1.835,2.223,2.945,1.976c0.885-0.194,0.899-1.37,0.855-2.423
			c-0.054-1.141-0.751-2.504-1.339-3.303c-1.29-1.754-3.116-2.188-4.944-1.354C211.497,262.496,209.751,268.707,212.464,272.232z"/>
		<path fill="#7A574A" d="M251.532,334.453c1.688,0.281,5.58,0.822,6.997-0.033c3.051-1.844-1.82-4.033-4.296-4.833
			C247.881,327.531,244.004,333.189,251.532,334.453z"/>
		<path fill="#7A574A" d="M285.928,331.162c1.701,0.175,5.622,0.477,6.98-0.469c2.931-2.025-2.065-3.908-4.587-4.555
			C281.854,324.48,278.335,330.367,285.928,331.162z"/>
		<g>
			<g>
				<path fill="#7A574A" d="M259.709,277.359c14.253,0,31.291-2.898,37.754-7.832c-0.191,15.235-4.54,35.993-8.164,54.932
					l-6.717,0.253c-4.555-15.478-8.716-26.876-14.93-34.345c-6.604,9.24-9.604,19.906-13.328,37.399l-6.128,0.138
					c-6.188-17.573-10.234-36.563-10.432-54.608C243.342,276.878,254.263,277.359,259.709,277.359z"/>
			</g>
		</g>
		<g>
			<path fill="#7A574A" d="M258.199,190.387c2.788-1.648,4.86-1.338,7.454-1.658c0.425-6.486,1.39-11.146,4.296-14.979
				c2.449-3.228,7.714-5.84,12.482-6.538c3.539-0.517,7.812-0.383,10.688,1.267c3.393,1.942,4.06,6.933,4.248,11.871
				c1.765-8.34-2.203-17.127-7.622-22.041c-5.244-4.758-22.418-10.534-33.297-2.771c-17.639,12.584-7.877,37.96-5.82,41.345
				c0.803,1.32,4.811,4.785,6.097,5.504C255.635,196.887,255.802,191.801,258.199,190.387z"/>
		</g>
		<g>
			<path fill="#7A574A" d="M257.691,202.109c1.062,1.204,2.242,2.364,3.544,3.368c6.004,4.628,13.889,6.429,17.742,6.401
				c4.754-0.035,14.7-8.158,17.224-24.966c0.013-0.121,0.027-0.254,0.047-0.394l0.03-0.326c0.117-1.275,0.158-2.564,0.166-3.852
				l-0.075-1.954c-0.128-3.358-0.485-6.898-1.903-9.192c-0.482-0.738-1.083-1.353-1.836-1.804c-2.172-1.301-5.964-1.567-8.982-1.309
				c-0.183,0.019-0.365,0.037-0.548,0.06c-0.202,0.022-0.406,0.043-0.599,0.07c-4.646,0.7-9.58,3.273-11.755,6.14
				c-2.86,3.773-3.706,8.501-4.095,14.439l-0.055,0.826l-0.82,0.102c-0.643,0.079-1.246,0.121-1.83,0.161
				c-1.779,0.123-3.316,0.229-5.238,1.365C256.991,192.261,256.595,196.521,257.691,202.109z M290.156,184.936
				c-0.05-1.861,0.584-3.388,1.422-3.413c0.835-0.023,1.558,1.465,1.615,3.327c0.049,1.859-0.591,3.384-1.421,3.41
				C290.934,188.283,290.212,186.797,290.156,184.936z M278.656,185.221c-0.05-1.822,0.678-3.322,1.627-3.35
				c0.953-0.026,1.768,1.428,1.818,3.252c0.056,1.824-0.678,3.32-1.627,3.349C279.522,188.498,278.709,187.041,278.656,185.221z"/>
			<g>
				<path fill="#7A574A" d="M222.42,260.301l-7.024-2.588c6.195-22.172,23.522-44.513,38.022-51.513
					c1.638-0.79,3.241-1.476,4.813-2.061c0.79,0.79,1.59,1.51,2.394,2.13c6.29,4.85,14.37,6.609,18.266,6.609h0.095
					c2.432-0.018,6.33-2.002,9.952-6.248c12.837,7.783,21.949,21.285,30.766,43.576l-6.083,2.232
					c-8.969-17.504-18.265-24.295-18.265-24.295s-0.664,15.547,3.757,36.289c2.469,11.584-61.913,17.885-63.754,3.996
					c-1.806-13.62,8.951-38.488,8.951-38.488S230.521,241.045,222.42,260.301z"/>
			</g>
		</g>
	</g>
</g>
</svg>
