<?xml version="1.0" encoding="utf-8"?>
<!-- Generator: Adobe Illustrator 15.0.2, SVG Export Plug-In . SVG Version: 6.00 Build 0)  -->
<!DOCTYPE svg PUBLIC "-//W3C//DTD SVG 1.1//EN" "http://www.w3.org/Graphics/SVG/1.1/DTD/svg11.dtd">
<svg version="1.1" id="Layer_1" xmlns="http://www.w3.org/2000/svg" xmlns:xlink="http://www.w3.org/1999/xlink" x="0px" y="0px"
	 width="720px" height="460px" viewBox="0 0 720 460" enable-background="new 0 0 720 460" xml:space="preserve">
<path fill="#9FC4D7" d="M660.639,222.996C652.582,114.154,543.748,28.583,359.5,28.583c-184.416,0-298.859,86.121-300.6,199.813
	c22.201-2.844,56.578-8.484,73.401-8.484c17.512,0,35.681,4.732,61.094,4c22.83-0.658,59.061-7.273,68.094-5.783
	c18.823,3.109,32.814,3.615,50.925,3.615c17.035,0,35.305-6.928,52.164-5.848c20.494,1.312,40.83-0.752,61.057,2.473
	c19.373,3.092,39.191,2.688,57.361-1.07c19.971-4.133,68.496,6.318,79.639,6.318C586.135,223.617,629.123,219.264,660.639,222.996z"
	/>
<path fill="#D2E3EC" d="M63.464,192.141c176.167-6.221,422.415-7.585,591.894-0.537C630.43,98.145,525.619,28.583,359.5,28.583
	C195.265,28.583,86.529,96.889,63.464,192.141z"/>
<path fill="#E7D795" d="M611.314,216.418c-41.672,0.357-88.492-5.271-130.086-5.271c-52.051,0-117.861-3.297-169.867-3.297
	c-47.052,0-207.993,7.709-252.126,11.961c-0.246,3.709-0.376,7.445-0.376,11.215c0,111.912,121.535,200.391,300.641,200.391
	c181.064,0,301.641-86.975,301.641-195.332c0-5.943-0.311-11.822-0.895-17.637C649.006,217.25,633.143,216.23,611.314,216.418z"/>
<path fill="#AECDDD" d="M206.06,101.935c2.082-7.241,9.657-9.045,16.681-4.861c0.325-2.195,2.235-2.729,4.078-1.739
	c3.221-5.898,10.257-9.529,16.3-4.127c-5.118-0.08-8.055-0.737-11.393,3.354c-2.505,3.07-3.231,7.891-7.968,7.269
	c-3.309-0.435-5.661-3.891-9.453-4.125C211.833,97.552,206.06,101.935,206.06,101.935z"/>
<path fill="#AECDDD" d="M367.51,54.928c4.475,2.092,3.428,4.163,8.725,3.957c7.324-0.284,17.797-2.222,19.049,8.096
	c-1.801-1.738-5.195-3.7-8.246-4.696c-3.977-1.298-7.521-0.157-11.348,0.819c-6.543,1.668-4.34,0.165-8.588-3.274
	c-2.727-2.206-6.217-2.38-9.551-2.081C358.488,53.749,364.176,53.37,367.51,54.928z"/>
<path fill="#AECDDD" d="M408.74,94.425c1.508-1.628,4.139-2.227,5.719-0.678c3.41-4.084,10.775-3.617,14.141,0.866
	c-3.141-0.838-5.787-1.872-9.057-0.552c-3.576,1.444-3.506,5.533-7.373,5.489c-4.088-0.047-8.246-5.996-16.254-1.971
	C395.916,97.579,401.76,91.38,408.74,94.425z"/>
<g>
	<path fill="#D8642E" d="M495.059,113.947c6.582,2.831,13.502,3.21,20.34,6.052c6.854,2.85,13.023,5.888,20.869,3.282
		c-4.502,5.464-10.303,9.652-17.568,10.223c-7.523,0.59-15.584-2.726-21.877,2.352c0.559-5.143-0.182-13.057-1.258-16.868
		C494.486,115.176,495.059,113.947,495.059,113.947z"/>
	<path fill="#9F9F9D" d="M493.668,301.998c0,0.551-0.49,1-1.088,1h-1.824c-0.598,0-1.088-0.449-1.088-1V110.84
		c0-0.55,0.49-1,1.088-1h1.824c0.598,0,1.088,0.45,1.088,1V301.998z"/>
	<ellipse fill="#9F9F9D" cx="491.668" cy="109.84" rx="3.25" ry="2.786"/>
</g>
<g>
	<path fill="#9F9F9D" d="M587.055,258.77c0,0.352-0.314,0.641-0.697,0.641h-1.17c-0.385,0-0.697-0.289-0.697-0.641V136.164
		c0-0.353,0.312-0.642,0.697-0.642h1.17c0.383,0,0.697,0.289,0.697,0.642V258.77z"/>
	<ellipse fill="#9F9F9D" cx="585.772" cy="135.522" rx="2.085" ry="1.787"/>
	<path fill="#BABF3B" d="M601.514,138.026c3.465-0.242,7.131-0.702,10.658-1.313c0.236,4.562,0.535,9.049,1.012,13.226
		c-8.051,0.469-16.307,0.225-23.861,2.535c-0.119-2.368-1.422-12.131-0.309-13.814C591,135.659,598.355,138.246,601.514,138.026z"/>
</g>
<g>
	<g>
		<g>
			<g>
				<path fill="#AF9474" d="M395.504,210.801c-0.016,0.154-0.043,0.307-0.078,0.451c-0.059,0.24-0.16,0.379-0.395,0.248
					c-0.191-0.107-0.164-0.492-0.418-0.475c-0.312,0.023-0.533,0.77-0.689,0.984c-0.326,0.447-1.004,1.07-1.629,0.77
					c-1.621-0.779,0.145-4.799,2.195-4.064C395.371,209.029,395.592,209.963,395.504,210.801z"/>
			</g>
			<g>
				<g>
					<path fill="#AF9474" d="M407.676,216.715c-2.434,0-4.162-0.51-5.139-1.514c-0.004-0.004-0.006-0.008-0.01-0.012
						c-1.996,5.955-1.459,12.377,1.365,19.58l2.246-0.324c0.404-6.865,3.545-12.393,9.459-14.502
						c2.018,5.67,6.582,11.463,13.578,14.371l2.139-1.457c-6.508-6.637-5.039-16.271-6.346-22.424
						C421.59,214.012,413.168,216.715,407.676,216.715z"/>
				</g>
			</g>
			<path fill="#AF9474" d="M428.006,208.514c-0.051-0.496-0.035-0.992-0.145-1.479c-0.475-0.025-0.732,0.855-1.195,0.627
				c-0.764-0.377,0.816-2.137,1.188-2.352c1.191-0.689,3.012,0.078,3.264,1.449c0.219,1.191-0.58,2.562-1.83,2.85
				C428.303,209.836,428.078,209.236,428.006,208.514z"/>
			<path fill="#AF9474" d="M405.225,237.459c-0.67,0.182-2.221,0.555-2.824,0.266c-1.305-0.619,0.572-1.699,1.537-2.121
				C406.42,234.52,408.211,236.646,405.225,237.459z"/>
			<path fill="#AF9474" d="M431.764,235.879c-0.566,0.398-1.893,1.279-2.561,1.215c-1.439-0.137-0.045-1.791,0.721-2.52
				C431.885,232.707,434.295,234.096,431.764,235.879z"/>
			<g>
				<path fill="#AF9474" d="M418.818,187.921l0.27,0.416h-1.883c-1.762,0-3.133-0.504-4.041-0.981c0,0-0.473,1.065-0.533,1.202
					l-0.441,0.999l-0.688-0.38c-2.922,2.064-6.094,2.847-7.705,2.847h-0.107c-0.506-0.012-1.072-0.174-1.656-0.475
					c-5.131,5.152-8.111,12.803-8.957,16.043l2.76,0.725c1.355-1.996,4.01-6.668,6.078-9.158c1.252,2.502,0.918,8.029,0.752,13.783
					c-0.162,5.68,17.822,1.723,22.004-3.68c-1.977-9.453-6.777-15.256-6.777-15.256s7.605,0.52,10.744,10.299l2.33,0.66
					C431.441,196.594,425.418,190.443,418.818,187.921z"/>
			</g>
			<g>
				<path fill="#AF9474" d="M420.312,184.236c-1.086-1.395-2.164-3.079-2.951-6.329c-0.955-3.95-1.967-5.816-3.846-7.26
					c-1.561-1.2-3.154-2.051-5.365-2.15c-3.902-0.176-10.004,2.771-10.609,6.332c1.322-1.419,4.855-0.849,6.412,1.368
					c1.301,1.852,1.703,4.045,2.891,6.423c1.689,3.377,3.059,4.53,4.873,5.534c0.529-1.193,0.867-2.369,0.867-2.369
					s1.713,1.568,4.664,1.553c-0.838-1.239-1.621-3.39-1.621-3.39S418.986,184.478,420.312,184.236z"/>
				<g>
					<path fill="#AF9474" d="M405.949,183.066c-0.512-1.024-0.875-1.989-1.225-2.923c-0.482-1.28-0.898-2.385-1.59-3.372
						c-0.834-1.187-2.33-1.718-3.443-1.718c-0.631,0-1.148,0.166-1.418,0.457l-0.527,0.567c-0.467,1.379-0.676,2.918-0.521,4.59
						c0.645,6.931,4.611,10.32,6.486,10.357c1.473,0.029,4.252-0.718,6.818-2.41C408.854,187.561,407.496,186.158,405.949,183.066z
						 M399.705,183.639c-0.354,0.058-0.73-0.446-0.842-1.125c-0.111-0.681,0.09-1.277,0.443-1.336
						c0.354-0.058,0.732,0.447,0.842,1.126C400.26,182.984,400.061,183.582,399.705,183.639z"/>
				</g>
			</g>
		</g>
	</g>
</g>
<g>
	<g>
		<g>
			<g>
				<path fill="#AF9474" d="M539.686,222.961c1.033,0.311,2.182,0.555,3.438,0.729c6.52,0.904,16.035-0.283,19.266-3.543
					c1.619,7.945-0.656,18.432-1.457,22.803l-2.223-0.051c-1.916-6.139-5.096-12.002-8.139-13.795
					c-3.541,2.801-5.945,7.742-8.309,13.752l-2.436-0.092C538.604,236.107,538.332,228.635,539.686,222.961z"/>
			</g>
		</g>
		<path fill="#AF9474" d="M528.299,220.385c-0.094,0.248-0.109,0.545,0.162,0.682c0.625,0.318,0.99-0.76,1.16-1.152
			c0.262-0.604,0.566-1.016,0.969-0.965c0.541,0.07,0.262,1.012,0.664,1.1c0.32,0.072,0.506-0.311,0.652-0.664
			c0.156-0.383,0.137-0.938,0.066-1.291c-0.15-0.748-0.705-1.152-1.439-1.236c-0.658-0.078-1.355,0.121-1.797,0.639
			c-0.541,0.637-0.438,1.312-0.215,2.035c0.109,0.359-0.016,0.426-0.168,0.73C528.332,220.301,528.314,220.342,528.299,220.385z"/>
		<path fill="#AF9474" d="M573.766,220.625c-0.293,0.482-0.66,0.947-1.209,0.541c-0.486-0.361-0.367-0.908-0.408-1.42
			c-0.053-0.656-0.209-1.145-0.605-1.227c-0.535-0.109-0.574,0.873-0.984,0.826c-0.326-0.035-0.377-0.457-0.402-0.838
			c-0.025-0.414,0.172-0.932,0.354-1.244c0.396-0.68,1.037-0.908,1.729-0.678C573.734,217.08,574.605,219.25,573.766,220.625z"/>
		<path fill="#AF9474" d="M559.418,245.322c0.611,0.102,2.023,0.297,2.535-0.012c1.105-0.668-0.658-1.461-1.557-1.752
			C558.096,242.814,556.689,244.865,559.418,245.322z"/>
		<path fill="#AF9474" d="M541.102,245.287c-0.615,0.062-2.037,0.172-2.529-0.17c-1.062-0.734,0.748-1.416,1.662-1.65
			C542.578,242.865,543.854,244.998,541.102,245.287z"/>
	</g>
	<g>
		<g>
			<path fill="#AF9474" d="M554.271,191.809c-1.111-0.488-1.869-0.279-2.848-0.281c-0.449-2.392-1.02-4.082-2.273-5.377
				c-1.055-1.089-3.133-1.824-4.938-1.869c-1.34-0.032-2.922,0.21-3.918,0.954c-1.174,0.876-1.197,2.762-1.043,4.607
				c-1.033-3.023,0.045-6.47,1.84-8.542c1.736-2.006,7.863-4.929,12.258-2.532c7.129,3.884,4.643,13.763,4.031,15.114
				c-0.24,0.527-1.574,1.996-2.02,2.322C555.518,194.111,555.227,192.227,554.271,191.809z"/>
		</g>
		<g>
			<g>
				<g>
					<path fill="#AF9474" d="M539.98,192.23c1.697,6.137,5.764,8.711,7.533,8.508c1.434-0.164,4.285-1.188,6.309-3.182
						c0.449-0.441,0.846-0.939,1.193-1.447c0.148-2.119-0.195-3.678-0.885-3.98c-0.244-0.107-0.48-0.182-0.719-0.229
						c-0.449-0.088-0.863-0.066-1.301-0.043c-0.219,0.01-0.445,0.021-0.688,0.021l-0.291-0.002l-0.053-0.285
						c-0.414-2.195-0.943-3.919-2.182-5.197c-0.953-0.983-3.021-1.693-4.602-1.736c-1.189-0.032-2.916,0.225-3.777,0.895
						c-1.051,0.816-1.064,2.508-0.92,4.261c0.061,0.722,0.168,1.446,0.32,2.153l0.025,0.119
						C539.959,192.137,539.971,192.186,539.98,192.23z M545.9,192.102c-0.355,0.031-0.695-0.492-0.758-1.172
						c-0.062-0.681,0.176-1.258,0.531-1.292c0.354-0.033,0.693,0.492,0.756,1.172C546.492,191.49,546.256,192.066,545.9,192.102z
						 M541.457,190.018c0.312-0.029,0.617,0.51,0.682,1.205c0.064,0.695-0.137,1.279-0.449,1.309
						c-0.311,0.027-0.617-0.51-0.684-1.203C540.945,190.633,541.145,190.046,541.457,190.018z"/>
					<g>
						<path fill="#AF9474" d="M532.609,217.537l-2.281-1.613c3.6-8.197,8.523-13.076,13.701-16.244
							c1.211,0.99,2.4,1.477,3.283,1.477c0.084,0,0.168-0.004,0.246-0.012c1.455-0.168,4.402-1.182,6.551-3.297
							c0.094-0.092,0.186-0.189,0.277-0.289c8.303,1.342,14.662,10.201,17.758,17.949l-2.432,1.207
							c-3.668-6.623-9.066-10.088-9.066-10.088s1.344,5.162,2.43,11.422c-0.697,5.029-16.27,7.119-24.176,4.225
							c0.584-7.166,3.076-13.289,3.076-13.289S536.889,209.793,532.609,217.537z"/>
					</g>
				</g>
			</g>
		</g>
	</g>
</g>
<g>
	<g>
		<g>
			<g>
				<path fill="#7A574A" d="M246.418,228.533c0.01-0.086,0.021-0.172,0.033-0.256c0.386-2.422,2.741-5.131,4.364-4.314
					c0.375-1.662,3.332-0.77,4.421,0.727c2.027,2.799,1.311,8.057-2.276,9.275C248.995,235.307,245.959,232.352,246.418,228.533z"/>
			</g>
			<g>
				<g>
					<g>
						<g>
							<path fill="#7A574A" d="M277.804,227.449c-4.374,1.754-10.385,2.303-18.843,0.881l-4.271,7.443
								c6.659,3.744,14.175,6.029,22.187,6.312C276.768,237.346,277.084,232.385,277.804,227.449z"/>
						</g>
					</g>
					<g>
						<g>
							<path fill="#7A574A" d="M338.375,259.979c-6.391,5.158-17.221,8.229-29.201,8.229c-13.712,0-28.442-4.363-30.935-14.082
								c-1.396,1.246-2.624,2.605-3.644,4.084c-11.578,16.789-14.619,36.881-10.356,61.254l6.59,0.381
								c5.138-19.346,17.302-33.291,35.39-35.877c2.467,17.346,12.127,36.512,30.391,48.861l6.943-2.914
								C328.213,306.242,339.498,278.305,338.375,259.979z"/>
						</g>
					</g>
				</g>
			</g>
			<g>
				<path fill="#7A574A" d="M266.478,327.906c-2.017,0.127-6.654,0.299-8.211-0.877c-3.363-2.527,2.618-4.516,5.618-5.162
					C271.588,320.217,275.464,327.322,266.478,327.906z"/>
			</g>
			<g>
				<path fill="#7A574A" d="M343.084,338.793c-1.848,0.809-6.143,2.553-8.01,1.982c-4.027-1.229,0.912-5.141,3.52-6.771
					C345.268,329.818,351.336,335.176,343.084,338.793z"/>
			</g>
			<g>
				<path fill="#7A574A" d="M326.535,143.54c-3.547-4.087-7.373-7.254-13.281-8.735c-10.418-2.611-32.378,2.834-31.243,11.622
					c4.336-3.101,12.731,0,15.71,6.828c2.491,5.702,3.894,17.568,8.9,19.528c6.223,2.437,7.096,15.125,7.096,15.125
					s11.023-2.167,16.299-15.224C335.293,159.628,330.807,148.463,326.535,143.54z"/>
				<g>
					<path fill="#7A574A" d="M320.666,185.904c-3.219,2.095-5.934,2.802-6.605,2.953c-6.174,3.52-13.924,5.624-20.778,5.624
						c-0.543,0-1.064-0.02-1.571-0.049c-3.294,4.199-6.153,9.502-8.42,15.461c-5.437,14.287-6.74,31.273-4.204,43.51
						c3.355,16.193,44.145,18.346,59.202,5.363c-3.467-26.402-1.926-43.74-1.926-43.74s10.711,4.564,9.539,31.906l6.264,3.23
						C363.684,217.225,342.926,192.027,320.666,185.904z"/>
				</g>
			</g>
			<path fill="#7A574A" d="M312.719,187.977c-0.23-3.353-1.842-12.453-6.463-14.262c-3.932-1.54-5.682-7.702-7.375-13.662
				c-0.688-2.422-1.338-4.71-2.076-6.397c-2.129-4.88-6.988-7.433-10.687-7.433c-1.375,0-2.593,0.352-3.524,1.018l-0.152,0.109
				c-2.768,3.896-4.688,8.681-5.297,14.266c-2.062,19.028,6.772,30.336,11.802,31.463c4.652,1.043,14.746,0.234,23.804-4.646
				L312.719,187.977z M282.199,170.986c-0.987-0.038-1.729-1.603-1.65-3.494c0.073-1.898,0.937-3.396,1.926-3.357
				c0.983,0.038,1.727,1.605,1.651,3.495C284.049,169.523,283.189,171.025,282.199,170.986z"/>
		</g>
	</g>
</g>
<path fill="#AAB036" d="M351.822,257.17c3.877,4.965,2.166,12.562,5.74,19.086c4.109,7.498,15.146,6.736,16.238,13.775
	c0.277,1.793-3.797,2.117-3.535,3.162c0.963,3.848,1.189,9.238-3.424,9.43c-6.877,0.285-3.844,5.197-5.789,6.836
	c-3.9,3.283-7.375-0.938-9.842-5.488c-3.648-6.736-2.068-22.33-3.92-36.764c-0.992-7.738-6.904-12.801-12.279-2.691
	c-2.133,4.01-7.158,28.637-10.938,33.104c-2.117,2.502-4.814-2.387-8.086-0.977c-3.324,1.434-2.691-6.529-5.539-5.062
	c-8.824,4.543,2.404-18.316,8.43-25.525C327.924,255.23,343.588,246.621,351.822,257.17z"/>
<g>
	<path fill="#7A574A" d="M342.852,260.666c-3.076-2.25-2.133-4.855-1.881-6.383c0.135-0.816-0.469-1.91-1.84-1.633
		c0-2.791,3.326-4.105,4.91-4.125c3.025-0.037,7.691,2.309,7.611,6.367C351.555,260.047,346.15,263.078,342.852,260.666z"/>
</g>
</svg>
