<?xml version="1.0" encoding="utf-8"?>
<!-- Generator: Adobe Illustrator 15.0.2, SVG Export Plug-In . SVG Version: 6.00 Build 0)  -->
<!DOCTYPE svg PUBLIC "-//W3C//DTD SVG 1.1//EN" "http://www.w3.org/Graphics/SVG/1.1/DTD/svg11.dtd">
<svg version="1.1" id="Layer_1" xmlns="http://www.w3.org/2000/svg" xmlns:xlink="http://www.w3.org/1999/xlink" x="0px" y="0px"
	 width="720px" height="460px" viewBox="0 0 720 460" enable-background="new 0 0 720 460" xml:space="preserve">
<polygon fill="#E6DBC3" points="195.282,83.629 113.651,49.707 113.651,410.293 195.282,331.293 "/>
<rect x="195.282" y="83.629" fill="#F5EBD1" width="329.436" height="247.664"/>
<polygon fill="#D7A89E" points="606.349,410.293 113.651,410.293 195.282,331.293 524.718,331.293 "/>
<g>
	<g>
		<g>
			<path fill="#C83B0C" d="M421.354,295.273c0.427,0.166,0.854,0.357,1.28,0.602c0.396-0.186,0.776-0.375,1.146-0.566
				L421.354,295.273z"/>
			<path fill="#C83B0C" d="M424.635,260.627c2.277,11.336,2.685,23.232,0.639,33.848c3.139-1.857,5.094-3.912,5.219-6.051
				C430.957,280.498,428.062,269.934,424.635,260.627z"/>
		</g>
		<g>
			<path fill="#C83B0C" d="M417.259,305.414c-0.687-0.582-0.923,0.059-2.102,0.49c-3.923,1.436-1.931-4.201-0.981-6.35
				c0.867-1.957,2.168-3.287,3.742-3.686c1.318-0.33,2.907,0.094,4.305,0.916c3.852,2.268,7.227,16.795-0.578,14.607
				c-3.022-0.85-2.229-3.312-3.765-5.289C417.629,305.781,417.43,305.561,417.259,305.414z"/>
			<g>
				<g>
					<path fill="#C83B0C" d="M429.688,292.301c-1.39,1.549-3.522,2.975-6.157,4.254c2.639,2.5,4.568,9.062,3.547,12.811
						c-0.571,2.096-1.979,3.252-3.963,3.252c-0.537,0-1.123-0.088-1.742-0.262c-2.438-0.686-2.97-2.354-3.396-3.693
						c-0.224-0.701-0.436-1.363-0.886-1.943c-0.159-0.205-0.293-0.361-0.397-0.467c-0.036,0.021-0.072,0.043-0.105,0.062
						c-0.256,0.148-0.604,0.352-1.087,0.529c-0.537,0.197-1.007,0.291-1.438,0.291c-0.778,0-1.423-0.33-1.814-0.93
						c-0.888-1.365-0.219-3.902,0.518-5.836c-8.322,2.191-17.977,3.426-25.771,3.426c-10.863,0-18.432-2.025-22.029-5.787
						c-5.021,20.34-6.531,48.707,0.662,71.361l9.315,1.227c2.62-18.482,10.847-39.531,23.152-47.531
						c4.997,17.66,17.978,30.477,38.673,40.734l6.508-5.545C426.189,338.352,435.301,313.895,429.688,292.301z"/>
				</g>
			</g>
		</g>
		<g>
			<path fill="#C83B0C" d="M368.081,378.799c-2.075,0.418-6.866,1.248-8.647,0.244c-3.846-2.152,2.086-5.053,5.108-6.148
				C372.308,370.102,377.33,376.936,368.081,378.799z"/>
		</g>
		<g>
			<path fill="#C83B0C" d="M445.871,368.793c-1.807,1.096-6.021,3.51-8.041,3.178c-4.351-0.707-0.062-7.004,2.412-9.064
				C446.584,357.625,453.93,363.877,445.871,368.793z"/>
		</g>
		<g>
			<path fill="#C83B0C" d="M412.306,225.951c-0.397-5.945,3.478-13.697,6.575-20.486c5.686-12.459,6.063-16.748,3.549-24.33
				c-2.09-6.299-4.932-11.682-10.914-16.137c-7.127-5.305-17.123-7.66-23.482-7.557c-2.67,0.043-7.994-0.102-13.447,0.203
				c-3.627,0.203-12.887-1.623-16.127-3.633c0.818,2.869,5.776,7.367,8.424,9.955c-3.904,0.787-10.488-0.602-11.053-0.014
				c7.027,6.494,16.633,10.145,27.087,13.449c-1.522,6.695-2.636,14.402-3.327,24.248c-0.689,9.893,1.58,18.723,4.752,24.955
				c3.728-2.33,6.891-4.979,6.891-4.979s2.753,4.117,8.746,8.957c0.84-4.398,3.215-8.33,3.215-8.33S408.145,224.121,412.306,225.951
				z"/>
			<g>
				<g>
					<path fill="#C83B0C" d="M416.146,294.199l8.147,0.117c4.558-23.594-3.134-53.6-16.462-69.162
						c-1.74-0.707-3.295-1.312-4.188-1.656c-0.695,1.303-2.095,4.189-2.684,7.273l-0.314,1.639l-1.297-1.049
						c-3.854-3.111-6.379-5.912-7.736-7.582c-0.883,0.363-1.797,0.672-2.732,0.938c-1.143,0.842-2.523,1.807-4.01,2.736
						l-0.926,0.578l-0.494-0.973c-0.162-0.316-0.332-0.666-0.504-1.033c-3.375,0.58-6.682,0.887-9.756,0.887
						c-2.967,0-5.677-0.283-8.05-0.805c-3.581,6.219-4.878,14.586-5.54,25.459c-1.075,17.695,1.286,28.465,4.13,42.146
						c2.331,11.229,30.498,10.752,49.494,5.523c0.012-0.027,0.024-0.061,0.036-0.086c0.848-1.914,2.094-3.277,3.562-3.941
						l-1.621-0.023l-0.027-0.465c-1.594-26.932-15.325-49.709-15.464-49.936l0.854-0.521
						C400.705,244.49,414.409,267.221,416.146,294.199z"/>
					<g>
						<path fill="#C83B0C" d="M362.844,228.482c-5.371,1.285-14.859,1.346-17.137-13.223l-9.672,0.752
							c-3.019,16.816,9.41,28.129,22.857,31.438C359.447,240.688,360.455,234.004,362.844,228.482z"/>
					</g>
				</g>
			</g>
		</g>
		<path fill="#C83B0C" d="M378.593,201.58c0.642-9.145,1.646-16.645,3.149-23.502c-7.078-2.264-13.209-4.582-18.443-7.539
			c-1.628,1.922-3.123,4.066-4.44,6.459c-4.341,7.902-5.821,14-6.567,19.158c0,0,0.266,5.859,8.755,10.656
			c-4.071,5.17-7.43,5.943-7.43,5.943c0.951,5.277,2.733,7.883,5.634,9.928c4.236,2.988,12.861,4.146,23.267,2.4
			C380.404,220.305,377.856,212.145,378.593,201.58z M363.037,189.59c-0.977,2.105-2.658,3.402-3.762,2.891
			c-1.096-0.508-1.196-2.629-0.221-4.732c0.976-2.111,2.66-3.395,3.76-2.891C363.91,185.365,364.014,187.486,363.037,189.59z"/>
	</g>
	<g>
		<path fill="#C83B0C" d="M345.289,209.439c0.477-2.26,0.631-5.918,0.271-7.957c-0.373-2.123-2.701-1.439-3.044,0
			c-0.411-2.604,0.745-6.498,0.846-7.859c0.229-3.096-2.204-1.818-3.21-0.229c-0.995,1.57-2.564,4.801-2.98,9.949
			c-0.465,5.738,1.555,10.607,4.041,10.82C343.414,214.352,344.846,211.547,345.289,209.439z"/>
	</g>
</g>
<polygon fill="#BCAD8D" points="180.938,345.27 133.216,391.115 133.216,90.428 180.938,107.969 "/>
<polygon fill="#C9BB9C" points="173.477,352.396 140.677,383.947 140.677,105.715 173.477,117.039 "/>
<path fill="#AE9E7D" d="M162.815,235.199c0.922,3.402-2.382,4.703-5.739,5.875c-5.235,1.83-9.616,2.857-15.527,2.699
	c-3.16-0.084-4.994-2.74-3.017-5.377c1.236-1.648,8.466-1.279,11.332-1.992C152.685,235.703,162.003,232.197,162.815,235.199z"/>
</svg>
