<?xml version="1.0" encoding="utf-8"?>
<!-- Generator: Adobe Illustrator 15.0.2, SVG Export Plug-In . SVG Version: 6.00 Build 0)  -->
<!DOCTYPE svg PUBLIC "-//W3C//DTD SVG 1.1//EN" "http://www.w3.org/Graphics/SVG/1.1/DTD/svg11.dtd">
<svg version="1.1" id="Layer_1" xmlns="http://www.w3.org/2000/svg" xmlns:xlink="http://www.w3.org/1999/xlink" x="0px" y="0px"
	 width="720px" height="460px" viewBox="0 0 720 460" enable-background="new 0 0 720 460" xml:space="preserve">
<g>
	<path fill="#D0C7B4" d="M299.598,131.882c114.462-15.139,218.781,1.236,287.447,71.068c45.674,46.455,41.713,108.029,4.506,144.805
		c-41.387,40.912-125.379,74.654-244.27,74.654c-114.896,0-202.371-48.711-234.768-96.246
		c-23.293-34.172-15.355-91.523,26.535-127.609C184.646,159.284,230.058,141.075,299.598,131.882z"/>
</g>
<g>
	<g>
		<path fill="#F6EDD7" d="M189.287,224.474c-0.985-0.471-1.921-2.535-1.023-3.467c0.395-0.41,1.478,0.486,1.723,0.234
			c0.229-0.234,0.632-1.1,0.806-1.268c0.406-0.396-0.352-1.266,0.266-1.717c0.561-0.406,2.224,0.391,2.803,0.529
			c0.962,0.229,2.282,0.389,3.178,0.688c1.193,0.4,1.291,0.801,2.188,1.256c0.551,0.279,2.955,0.787,3.284,1.221
			c1.949,2.557-4.307,3.508-5.955,3.568c2.646,3.338-3.076,4.248-5.227,3.412c-0.25-1.652-2.535-0.383-2.08-2.67
			c-0.354,0.01-0.826-0.123-1.174-0.074c-0.1-0.297-0.23-0.891-0.264-1.156c0.727-0.139,0.769-0.607,1.226-0.807L189.287,224.474z"
			/>
		<path fill="#F6EDD7" d="M179.973,211.774c1.799,0.113,5.696,0.434,6.54,2.443c0.545,1.295-1.66,4.559-2.767,5.27
			c-1.526,0.98-6.263,1.588-6.293-0.977c-1.801,0.355-2.538-1.156-2.167-2.744c0.43-0.021,0.934-0.234,1.318-0.398
			C175.145,212.323,177.098,211.593,179.973,211.774z"/>
		<path fill="#F6EDD7" d="M152.99,229.782c-2.37-0.354-2.61-3.025-0.251-3.512c0.658-0.135,1.121,0.701,1.796,0.711
			c1.171,0.016,2.91-0.914,4.042-0.41c3.354,1.494,3.685,7.27,1.236,9.492c-2.592,2.35-7.234-1.068-9.572-2.1
			c-2.31-1.02-2.342-1.293-0.238-2.92c0.84-0.65,1.117-1.494,2.737-0.762L152.99,229.782z"/>
		<path fill="#F6EDD7" d="M170.315,233.181c1.436-2.693,3.326-1.123,5.383-1.189c2.236-0.074,3.605-2.02,5.827,0.18
			c0.53,0.523,0.47,1.281,0.978,1.82c0.223,0.236,1.225,0.914,1.306,1.045c0.708,1.146,1.558,1.164-0.075,2.756
			C181.142,240.313,167.091,239.233,170.315,233.181z"/>
		<path fill="#F6EDD7" d="M183.212,197.735c1.463-1.414,3.059-2.26,4.443-0.795c-0.219-0.23-0.455-0.691-0.65-0.928
			c3.014-0.172,5.057-0.441,7.436,1.684c-0.762-0.68,2.14-1.457,3.069-0.809c1.16,0.811,1.698,2.92,1.855,4.213
			c1.435-0.098,9.527,0.855,8.069,3.115c0.653,0.492,1.749,0.641,2.534,0.732c0.229,0.027,2.35,4.332,2.412,5.027
			c0.148,1.588-0.791,2.945-1.797,3.977c-0.145,0.148-3.665,2.615-3.375,2.74c-0.317-0.137-1.116-0.047-1.437-0.191
			c0.049,0.393,0.006,0.783-0.146,1.137c-1.979-0.381-3.377-2.09-5.282-2.535c-1.641-0.383-3.131,0.445-4.773,0.373
			c-1.219-0.053-8.314-2.779-6.433-5.102c-0.487,0.602-1.423,1.293-1.794,1.795c0.398-0.826,0.585-1.863,0.688-2.754
			c-1.262-0.311-6.176,0.938-6.329-0.904c-0.345,0.045-0.837-0.041-1.188-0.074c0.583-1.77,1.268-3.754,1.112-5.611
			c-0.774-0.062-1.427-0.605-2.06-0.867C180.419,201.14,181.749,199.151,183.212,197.735z"/>
		<path fill="#F6EDD7" d="M197.74,199.224c-4.081-2.432,0.977-6.006,4.036-6.033c0.562-0.006,1.555,1.793,2.565,2.055
			c1.572,0.408,3.271-1.412,4.544-0.057c3.156,3.357-6.267,13.812-7.706,8.611c-0.822,0.178-2.034-0.299-2.863-0.152
			c-0.043-0.693-0.253-1.67-0.152-2.348c-0.605-0.057-1.254,0-1.85-0.152c-0.221-0.408-0.982-2.545-1.037-2.822
			c0.74-0.117,1.703-0.25,2.462-0.102V199.224z"/>
		<path fill="#F6EDD7" d="M151.193,250.192c1.021,0.092,1.973,0.26,2.869,0.234c1.643-0.047,2.641-0.959,4.262,0.088
			c0.516,0.332,2.922,3.061,2.979,3.688c0.043,0.279-0.122-0.328-0.212-0.447c0.311,0.73,0.295,1.643-0.018,2.428
			c0.721,0.486,0.384,0.627,0.699,1.182c-0.598,0.055-1.356,0.705-1.764,0.793c0.66,0.346,1.599,0.82,1.762,1.707
			c-1.087,0.512-2.32,0.295-3.434,0.078c-0.056,0.91-0.405,1.818-1.032,2.453c-1.456-1.271-1.466-0.99-3.195-1.287
			c-1.685-0.289-2.934,0.361-2.793-1.924c-0.017,0.279-1.771,0.785-2.021,0.855c-1.057-1.719-2.66-8.717,1.599-7.057
			C151.013,252.104,150.961,251.077,151.193,250.192z"/>
	</g>
	<g>
		<polygon fill="#977C72" points="532.014,185.632 467.041,185.632 467.041,137.923 541.227,137.923 		"/>
		<polygon fill="#7A574A" points="532.252,158.718 470.252,158.718 470.752,146.524 534.252,146.524 		"/>
		<ellipse fill="#977C72" cx="503.134" cy="152.913" rx="2.565" ry="2.375"/>
		<polygon fill="#E4DDCD" points="457,147.538 467.041,185.632 467.041,137.923 458.002,107.417 		"/>
		<polygon fill="#7A574A" points="544.67,135.192 528.109,100.921 456.027,100.921 456.027,109.921 463.971,141.192 543.48,141.192 
					"/>
		<polygon fill="#8B6D62" points="528.109,100.921 456.406,100.921 467.35,135.192 544.67,135.192 		"/>
	</g>
	<g>
		<polygon fill="#7A574A" points="457.236,110.899 227.236,110.899 225.236,43.823 459.236,43.823 		"/>
		<polygon fill="#8B6D62" points="457.236,37.591 227.236,37.591 225.236,43.823 459.236,43.823 		"/>
		<polygon fill="#7A574A" points="499.236,360.591 185.236,360.591 170.236,297.591 514.236,297.591 		"/>
		<path fill="#F6EDD7" d="M191.152,205.476c2.242-1.107,2.848-0.273,5.034,0.166c2.3,0.459,2.558,0.586,4.265,2.301
			c2.377,2.387,1.357,2.717-1.885,3.871c-1.678,0.598-2.223,1.117-4.273,1.033c-1.272-0.051-2.993,0.287-4.085-0.027
			c0.185-0.311,0.27-1,0.577-1.348c-0.617-0.02-1.404,0.227-2.087,0.383c0.21-1.023,0.005-2.82,1.413-2.645
			C189.914,208.917,191.112,205.235,191.152,205.476z"/>
		<polygon fill="#8B6D62" points="457.236,109.874 227.236,109.874 170.236,297.591 514.236,297.591 		"/>
		<polygon fill="#F4EDDE" points="446.521,114.618 237.952,114.618 186.26,284.847 498.213,284.847 		"/>
	</g>
	<path fill="#BABF3B" d="M400.912,95.292c-8.096-11.361-107.06-12.238-117.451,0s-19.793,38.244-12.682,55.09
		c7.113,16.844,136.037,9.219,142.812,0C420.369,141.161,409.008,106.653,400.912,95.292z"/>
	<path fill="#C1C54F" d="M440.258,152.261c-32.297-26.402-173.841-20.707-195.945,0c-22.104,20.707-60.028,81.652-40.042,107.807
		c19.986,26.152,254.135,18.859,276.027,0C502.191,241.206,472.555,178.661,440.258,152.261z"/>
	<g>
		<path fill="#F6EDD7" d="M378.357,155.319c0.941,0.105,1.766-0.059,3.016-0.18c4.35-0.422,3.707,1.266,4.344,4.164
			c0.344,1.562,2.264,2.305,0.334,4.197c0.25-0.246,0.529,1.557,0.232,1.996c-0.529,0.783-2.74,0.529-3.492,0.492
			c-2.23-0.115-5.982-0.816-6.799-3.227c-2.439,2.406-3.793-2.168-3.537-3.979C373.021,154.792,375.521,155.003,378.357,155.319z"/>
		<path fill="#C83B0C" d="M388.576,159.021c-0.666,0.984-4.154,2.299-5.811,1.008c-1.502-1.17-0.549-3.18-1.428-3.809
			c-0.49-0.352-1.709,0.193-2.439-0.252c-1.545-0.939,2.375-4.6,5.682-4.598C388.326,151.37,390.039,156.864,388.576,159.021z"/>
		<path fill="#F6EDD7" d="M286.778,162.12c5.854-13.619,23.167-1.184,33.708-5.953c1.758,0.908,3.076,3.643,4.906,4.578
			c2.719,1.389,5.982,1.863,8.887,2.805c-3.682,5.385-13.727,0.605-18.502-0.27c-3.889-0.713-10.1,1.143-13.48,3.373
			c-3.5,2.311-7.562,8.559-10.228,7.074c-1.469-0.818-0.561-7.648-1.479-8.795c-0.6-0.752-3.15-0.982-4.088-1.154L286.778,162.12z"
			/>
		<path fill="#C83B0C" d="M292.293,159.021c0.668,0.984,4.158,2.299,5.812,1.008c1.5-1.17,0.547-3.18,1.43-3.809
			c0.49-0.352,1.679,0.193,2.414-0.252c1.543-0.939-2.351-4.6-5.658-4.598C292.543,151.37,290.833,156.864,292.293,159.021z"/>
		<g>
			<g>
				<path fill="#C83B0C" d="M328.248,134.71c-1.17-2.945-5.297-5.324-9.191-7.357c-5.42-2.83-10.551-7.059-11.543-11.607
					c-11.878,6.801-17.304,18.818-15.349,35.016l7.16-0.693c0.43-18.371,15.378-20.723,15.378-20.723l-2.961,6.451
					C311.742,135.796,318.67,135.067,328.248,134.71z"/>
				<path fill="#C83B0C" d="M366.189,114.425c0.627,2.238,0.271,4.172-0.33,5.639c-2.576,6.27-12.361,10.674-19.75,10.834
					c0.721,1.092,1.344,2.361,1.707,3.699c10.629,0.154,21.719,0.473,21.719,0.473l-1.883-4.619c0,0,13.502,6.725,13.871,19.617
					l6.496,0.564C389.736,131.767,380.625,120.331,366.189,114.425z"/>
			</g>
			<g>
				<path fill="#76A2BE" d="M360.113,107.831c-6.756,8.41-15.84,13.205-21.832,13.205c-6,0-13.678-3.932-19.562-10.016
					c-1.602-1.658-3.035-3.447-4.312-5.334c-2.389,1.42-4.324,3.324-5.525,6.004c-2.846,6.348,5.977,12.342,10.639,14.775
					c4.799,2.506,9.836,5.488,10.053,9.619c0.287,5.537-8.971,11.223-9.676,17.418c3.768-0.795,9.16,2.211,12.443,4.115
					c1.969,1.141,5.014,0.053,5.859-1.051c0-3.305,1.756-6.057,3.076-7.711c2.309-2.891,5.666-7.562,5.867-11.574
					c0.137-2.766-1.482-5.664-3.143-7.473c9.914,1.156,29.816-8.598,17.76-20.51C361.234,108.78,360.682,108.296,360.113,107.831z"
					/>
			</g>
			<g>
				<path fill="#C83B0C" d="M359.463,87.021c-3.66-3.047-12.145-12.732-15.572-19.375c-5.561,5.211-17.816,9.217-22.348,10.568
					c-0.275,0.807-0.582,1.74-0.936,2.809c-1.117,3.393-2.648,8.037-5.029,14.391c-0.738,1.971-1.674,3.93-2.68,5.805
					c6.332,12.203,18.023,18.818,25.383,18.818c6.346,0,16.516-5.83,23.182-15.805C361.447,98.544,361.045,91.597,359.463,87.021z
					 M327.523,98.716c-1.588,0.01-2.83-1.967-2.785-4.416c0.051-2.443,1.377-4.434,2.951-4.443c1.58-0.01,2.828,1.963,2.777,4.416
					C330.42,96.718,329.1,98.708,327.523,98.716z M348.34,98.62c-1.531,0.008-2.727-2.01-2.678-4.508
					c0.055-2.498,1.338-4.529,2.865-4.537c1.527-0.006,2.723,2.014,2.672,4.51C351.148,96.585,349.854,98.608,348.34,98.62z"/>
			</g>
			<path fill="#C83B0C" d="M371.137,72.56c-6.17-14.771-13.482-22.029-25.637-23.928c-18.23-3.799-35.133,7.217-40.83,23.168
				c-4.515,12.645-4.783,22.07-9.878,29.158c4.209-0.109,8.169-1.906,8.169-1.906l0.52,14.338c0,0,7.742-9.211,11.16-18.326
				c2.91-7.764,4.566-13.029,5.699-16.41c-3.664,0.977-8.352,1.332-8.561,1.348l-1.328,0.098l0.936-0.947
				c0.049-0.053,5.061-5.152,7.24-9.039l0.871,0.488c-1.684,3.004-4.885,6.586-6.471,8.279c1.826-0.191,5.18-0.619,7.703-1.377
				c0.012-0.033,0.023-0.068,0.035-0.102c5.537-1.621,17.469-5.645,22.615-10.664c-0.711-1.461-1.73-3.736-2.062-5.398l0.98-0.195
				c0.291,1.459,1.197,3.51,1.822,4.822c0.016-0.018,0.035-0.035,0.049-0.053c2.758,6.352,12.346,17.471,16.143,20.51
				c0.012,0.035,0.023,0.074,0.037,0.109c2.02,1.623,4.801,3.234,6.357,4.09c-0.805-2.176-2.369-6.717-2.758-10.139l0.994-0.113
				c0.502,4.43,3.146,11.07,3.174,11.137l0.494,1.236l-1.186-0.605c-0.172-0.088-3.674-1.883-6.564-3.961
				c2.576,9.514,1.283,25.807,1.283,25.807l6.359-9.066l1.996,4.777C370.5,109.694,377.404,87.563,371.137,72.56z"/>
		</g>
	</g>
	<g>
		<polygon fill="#6185A6" points="303.883,182.948 297.297,183.718 295.497,182.948 277.051,191.565 277.051,195.485 
			286.473,201.892 304.832,190.853 307.092,188.55 306.324,183.667 		"/>
		<polygon fill="#6C94B2" points="297.297,183.718 295.497,182.948 277.051,191.565 277.051,195.485 286.473,201.892 
			304.832,190.853 304.832,186.933 		"/>
		<polygon fill="#F6EDD7" points="304.832,186.933 295.497,182.948 288.211,190.741 		"/>
		<polygon fill="#81B1CA" points="295.497,182.948 277.051,191.565 286.473,197.282 304.832,186.933 303.943,186.556 
			296.208,187.288 295.024,186.784 295.95,183.142 		"/>
		<polygon fill="#DC784F" points="307.877,182.72 306.324,183.667 303.883,182.948 305.609,182.239 		"/>
	</g>
	<path fill="#F6EDD7" d="M251.52,189.915c0.584,0.24,1.086,0.541,1.752,0.715c2.76,0.727,6.316-0.506,8.859,0.92
		c2.002,1.123,1.561,2.592,1.689,4.639c3.631-0.691,1.631,2.346,0.027,3.393c-1.793,1.172-6.658,4.438-8.971,3.363
		c-1.248-0.58-0.283-1.777-1.162-2.209c-1.629-0.803-3.883,1-5.598,0.045c-1.939-1.08-4.777-4.834-4.951-6.781
		c-0.229-2.598,2.922-1.73,4.623-2.211c-0.33-0.645-1.494-1.32-2.131-1.65c0.811,0.42,3.561-0.676,4.639-0.549
		C250.774,189.646,251.161,189.769,251.52,189.915z"/>
	<g>
		<path fill="#D6C9AC" d="M512.953,121.21c2.492,1.256,6.947,1.299,8.346,1.391c-0.502-0.033-3.027,1.527-3.771,1.611
			c-4.029-1.713-4.812,5.09,0.094,5.09c2.123,0,7.096-1.484,8.051-2.035c5.137,0.186,6.387-3.703,7.043-6.705
			c1.52,1.811,0.102,6.434,2.824,6.939c2.721,0.506,3.834-4.172,3.219-7.33c-0.658-3.371-1.377-6.182-3.414-9.207
			c3.627-0.438,5.701-1.617,5.734-5.592c4.307-0.41,0.975-7.629-2.172-4.76c-0.555-2.314-3.305-3.512-5.336-3.424
			c-0.744-3.791-5.65-2.299-4.77,1.576c-3.332,1.574-2.133,5.838-1,7.492c-2.471-0.682-12.373,2.568-10.365,5.213
			c1.236,1.629,3.582,0.156,5.645,0.434c-0.947,1.004-2.215,3.191-2.672,4.77c-0.803,0.131-2.801,0.955-4.361,0.691
			c-1.682-1.734-3.361-1.662-4.162-0.373C510.566,119.112,511.357,120.407,512.953,121.21z"/>
		<ellipse fill="#8B6D62" cx="530.438" cy="101.351" rx="0.694" ry="0.787"/>
		<ellipse fill="#8B6D62" cx="535.453" cy="104.708" rx="0.797" ry="0.904"/>
		<ellipse fill="#C5B89C" cx="530.809" cy="105.749" rx="2.637" ry="2.869"/>
		<ellipse fill="#8B6D62" cx="529.745" cy="104.962" rx="0.694" ry="0.787"/>
	</g>
	<g>
		<polygon fill="#E6E5E1" points="508.18,114.003 499.195,107.163 482.484,110.581 482.484,113.011 489.744,121.974 508.18,116.431 
					"/>
		<polygon fill="#EFEEEB" points="508.18,114.003 489.744,119.546 482.484,110.581 499.195,107.163 		"/>
	</g>
	<g>
		<g>
			
				<ellipse transform="matrix(0.9989 0.0473 -0.0473 0.9989 6.5742 -22.8684)" fill="#DBD0B7" cx="486.653" cy="127.524" rx="4.791" ry="2.376"/>
			
				<rect x="482.056" y="119.323" transform="matrix(0.9989 0.0473 -0.0473 0.9989 6.3806 -22.8822)" fill="#DBD0B7" width="9.583" height="8.206"/>
			<path fill="#DBD0B7" d="M491.826,119.554c-0.062,1.309-2.256,2.271-4.898,2.145c-2.643-0.125-4.734-1.289-4.672-2.598
				c0.062-1.312,2.254-2.271,4.896-2.146C489.797,117.079,491.889,118.243,491.826,119.554z"/>
		</g>
		<path fill="#E7DCC5" d="M490.545,117.255c0.033-0.717-1.459-1.369-3.338-1.459c-1.875-0.088-3.424,0.42-3.457,1.137
			c-0.01,0.201-0.045,0.92-0.055,1.121c-0.033,0.715,1.459,1.369,3.336,1.457c1.879,0.09,3.428-0.42,3.461-1.135
			C490.502,118.173,490.535,117.456,490.545,117.255z"/>
		<path fill="#7A96B2" d="M491.992,116.032c0.045-0.914-2.064-1.756-4.707-1.879c-2.641-0.125-4.82,0.512-4.863,1.426
			c-0.004,0.1-0.023,0.479-0.027,0.578c-0.043,0.912,2.066,1.756,4.707,1.881c2.643,0.123,4.82-0.516,4.863-1.428
			C491.971,116.511,491.988,116.132,491.992,116.032z"/>
		<path fill="#89A2BA" d="M490.434,114.522l-1.344-5.627c0.02-0.424-0.66-0.801-1.516-0.842c-0.855-0.039-1.566,0.271-1.586,0.695
			l-1.871,5.475c-0.111,0.156-0.191,0.322-0.199,0.498c-0.045,0.912,1.414,1.723,3.256,1.809c1.842,0.088,3.369-0.58,3.412-1.492
			C490.594,114.86,490.529,114.688,490.434,114.522z"/>
	</g>
	<g>
		<g>
			<path fill="#D3CBB9" d="M469.693,115.04l-0.389,8.199c-0.062,1.311,2.031,2.475,4.672,2.6c2.645,0.125,4.838-0.836,4.9-2.146
				l0.387-8.199L469.693,115.04z"/>
			<path fill="#E9E2D2" d="M469.693,113.931l-0.389,8.197c-0.062,1.311,2.031,2.475,4.672,2.6c2.645,0.125,4.838-0.836,4.9-2.146
				l0.387-8.197L469.693,113.931z"/>
			<path fill="#D3CBB9" d="M479.264,114.384c-0.062,1.309-2.256,2.271-4.898,2.145c-2.643-0.125-4.734-1.289-4.672-2.598
				c0.062-1.312,2.254-2.271,4.896-2.146C477.234,111.909,479.326,113.071,479.264,114.384z"/>
		</g>
		<path fill="#DBD0B7" d="M479.764,112.187c0.068-1.449-2.24-2.734-5.162-2.873c-2.918-0.137-5.34,0.924-5.408,2.371
			c-0.01,0.209,0.008,0.939,0,1.111c-0.07,1.447,2.242,2.732,5.16,2.871c2.92,0.139,5.342-0.924,5.41-2.371
			C479.773,113.087,479.756,112.358,479.764,112.187z"/>
		<path fill="#E1D8C2" d="M479.764,112.187c-0.068,1.445-2.49,2.508-5.41,2.369c-2.918-0.137-5.23-1.424-5.16-2.871
			c0.068-1.447,2.49-2.508,5.408-2.371C477.523,109.452,479.832,110.737,479.764,112.187z"/>
	</g>
	<g>
		<polygon fill="#C7A53A" points="492.586,101.028 493.836,102.138 493.836,72.985 492.586,73.716 		"/>
		<polygon fill="#CEB154" points="515.631,102.138 493.836,102.138 493.836,72.985 515.631,73.716 		"/>
		<polygon fill="#DCC665" points="515.631,102.138 507.719,102.138 507.719,73.452 515.631,73.716 		"/>
	</g>
</g>
</svg>
