<?xml version="1.0" encoding="utf-8"?>
<!-- Generator: Adobe Illustrator 15.0.2, SVG Export Plug-In . SVG Version: 6.00 Build 0)  -->
<!DOCTYPE svg PUBLIC "-//W3C//DTD SVG 1.1//EN" "http://www.w3.org/Graphics/SVG/1.1/DTD/svg11.dtd">
<svg version="1.1" id="Layer_1" xmlns="http://www.w3.org/2000/svg" xmlns:xlink="http://www.w3.org/1999/xlink" x="0px" y="0px"
	 width="720px" height="460px" viewBox="0 0 720 460" enable-background="new 0 0 720 460" xml:space="preserve">
<ellipse fill="#4E7094" cx="360" cy="230" rx="282.827" ry="208.941"/>
<path fill="#6C94B2" d="M360.001,378.015c-71.845,0-136.734,4.312-183.056,11.247c49.335,30.979,113.234,49.68,183.054,49.68
	c69.822,0,133.721-18.701,183.057-49.68C496.733,382.326,431.845,378.015,360.001,378.015z"/>
<g>
	<g>
		<g>
			<path fill="#76A2BE" d="M317.491,330.31c-0.039,0.048-0.08,0.095-0.125,0.143c-2.143,2.3-3.5-1.773-4.973-2.289
				c-3.211-1.124-0.162,1.161-2.309,1.996c-0.709,0.278-1.266-0.536-1.727-1.292c-0.494-0.82-0.645-2.097-0.607-2.931
				c0.082-1.77,1.209-2.888,2.855-3.343C313.776,321.717,320.147,327.1,317.491,330.31z"/>
			<path fill="#76A2BE" d="M212.948,346.477c0.84,1,1.845,1.938,2.958,0.811c0.987-0.996,0.522-2.207,0.437-3.396
				c-0.111-1.521,0.071-2.694,0.952-3.019c1.187-0.439,1.624,1.794,2.546,1.545c0.735-0.197,0.702-1.184,0.625-2.065
				c-0.088-0.953-0.725-2.07-1.248-2.72c-1.148-1.42-2.696-1.715-4.199-0.945C211.768,338.348,210.539,343.623,212.948,346.477z"/>
			<path fill="#76A2BE" d="M246.782,393.087c-1.418,0.237-4.686,0.69-5.875-0.027c-2.561-1.548,1.529-3.386,3.607-4.058
				C249.846,387.275,253.102,392.026,246.782,393.087z"/>
			<path fill="#76A2BE" d="M289.216,393.005c1.428,0.146,4.72,0.399,5.86-0.394c2.461-1.7-1.734-3.282-3.851-3.824
				C285.795,387.395,282.841,392.338,289.216,393.005z"/>
		</g>
		<g>
			<g>
				<path fill="#76A2BE" d="M291.95,339.794c-8.196,3.937-20.12,6.341-31.783,6.341c-10.265,0-18-1.895-21.952-5.221
					c-1.684,18.282,3.247,36.769,5.062,46.675l5.146-0.116c4.441-14.223,11.807-27.807,18.855-31.962
					c8.207,6.489,13.776,17.938,19.253,31.86l5.64-0.213c2.833-15.422,3.322-32.7,0.329-45.877
					C292.381,340.76,292.194,340.265,291.95,339.794z"/>
			</g>
		</g>
	</g>
	<g>
		<g>
			<path fill="#76A2BE" d="M250.333,276.971c1.821-2.141,3.61-2.473,5.647-3.471c-1.486-5.441-2.013-9.537-0.714-13.506
				c1.099-3.342,4.679-6.975,8.395-8.897c2.758-1.425,6.3-2.522,9.127-1.983c3.334,0.635,5.293,4.54,6.844,8.539
				c-0.911-7.344-6.654-13.431-12.49-15.93c-5.65-2.42-21.375-2.301-28.106,7.148c-10.912,15.316,4.278,33.377,6.925,35.573
				c1.031,0.855,5.301,2.563,6.56,2.79C250.071,283.031,248.768,278.811,250.333,276.971z"/>
		</g>
	</g>
	<g>
		<path fill="#76A2BE" d="M280.461,263.031l-0.066-0.275c-0.111-0.453-0.252-0.902-0.38-1.354l-1.314-3.389
			c-1.399-3.607-3.218-7.37-6.099-7.918c-0.424-0.082-0.887-0.123-1.375-0.123c-2.042,0-4.632,0.734-7.106,2.012
			c-3.608,1.867-6.933,5.367-7.904,8.321c-1.269,3.876-0.626,7.972,0.729,12.931l0.218,0.798l-0.743,0.364
			c-0.508,0.248-0.994,0.455-1.464,0.654c-1.409,0.598-2.626,1.114-3.861,2.566c-1.073,1.26-0.152,4.922,2.29,9.111l0.074,0.127
			c1.149,0.637,2.368,1.211,3.637,1.637c6.236,2.1,13.215,1.345,16.369,0.232c3.892-1.373,9.754-10.854,7.068-25.359
			C280.51,263.266,280.485,263.152,280.461,263.031z M268.07,269.097c-0.772,0.29-1.853-0.674-2.412-2.153
			c-0.556-1.48-0.382-2.918,0.389-3.209c0.774-0.291,1.854,0.672,2.413,2.154C269.02,267.369,268.842,268.805,268.07,269.097z
			 M277.282,265.725c-0.683,0.258-1.695-0.758-2.267-2.27c-0.568-1.514-0.479-2.945,0.199-3.201
			c0.681-0.256,1.694,0.761,2.267,2.273C278.048,264.037,277.955,265.469,277.282,265.725z"/>
		<g>
			<path fill="#76A2BE" d="M265.738,289.822c3.211,0,6.025-0.496,7.728-1.096c0.738-0.26,1.546-0.814,2.354-1.637
				c-5.092-1.954-10.45-2.762-15.997-1.906c-2.271,0.35-4.454,0.884-6.56,1.566c1.205,0.681,2.493,1.293,3.834,1.744
				C259.968,289.461,262.997,289.822,265.738,289.822z"/>
			<path fill="#76A2BE" d="M276.833,287.488c-0.989,1.07-2.026,1.825-3.036,2.182c-2.047,0.722-5.061,1.152-8.06,1.152
				c-3.179,0-6.278-0.477-8.96-1.38c-1.328-0.446-2.718-1.083-4.13-1.89l-0.235-0.135l-0.135-0.234
				c-0.016-0.027-0.028-0.053-0.043-0.08c-20.928,7.383-33.477,30.204-37.377,47.084l5.99,1.904
				c6.061-16.459,17.008-24.198,17.008-24.198s-1.062,10.194-1.34,24.911c3.371,11.27,39.767,10.561,56.85,1.146
				c-3.867-16.205-9.684-30.555-9.684-30.555s9.885,1.267,22.415,17.488l4.656-4.497
				C302.714,307.756,290.823,293.316,276.833,287.488z"/>
		</g>
	</g>
</g>
<g>
	<g>
		<g>
			<g>
				<path fill="#76A2BE" d="M342.44,339.329c-11.344,0-22.184-2.335-30.163-6.446c-0.036,1.402-0.05,2.895-0.051,4.504
					c0.563-0.195,1.151-0.31,1.753-0.31c0.858,0,1.697,0.211,2.49,0.626c2.475,1.294,3.701,4.594,2.854,7.678
					c-0.16,0.582-0.585,2.131-1.913,2.131c-0.615,0-1.082-0.354-1.494-0.664c-0.152-0.115-0.398-0.301-0.514-0.347
					c-0.048,0.038-0.154,0.14-0.303,0.386c-0.225,0.367-0.342,0.728-0.467,1.109c-0.192,0.588-0.41,1.254-1.018,1.822
					c-0.234,0.221-0.51,0.408-0.844,0.575c1.021,10.78,3.637,20.565,9.111,34.91l5.648,0.068c4.115-13.941,9.916-28.748,18.076-38.2
					c10.463,8.368,14.871,22.812,19.086,37.197l5.779-0.67c2.702-13.845,4.662-33.428,1.09-51.855
					C366.382,336.426,355.242,339.329,342.44,339.329z"/>
			</g>
		</g>
		<g>
			<path fill="#76A2BE" d="M312.933,349.089c-0.162,0.151-0.363,0.29-0.617,0.417c-3.789,1.865-4.422-4.424-3.465-7.125
				c1.225-3.454,4.355-5.256,7.156-3.791c2.066,1.08,3.072,3.908,2.354,6.525c-1.035,3.764-2.381-1.599-4.115,1.251
				C313.591,347.441,313.675,348.393,312.933,349.089z"/>
			<g>
				<g>
					<path fill="#76A2BE" d="M314.245,346.366c0.396-0.651,0.773-0.874,1.131-0.874c0.764,0,1.439,1.02,2.035,1.02
						c0.342,0,0.658-0.337,0.949-1.396c0.719-2.617-0.287-5.445-2.354-6.525c-0.667-0.35-1.354-0.513-2.027-0.513
						c-0.6,0-1.187,0.142-1.746,0.384c0.016,3.846,0.146,7.406,0.435,10.838c0.099-0.066,0.187-0.137,0.265-0.21
						C313.675,348.393,313.591,347.441,314.245,346.366z"/>
				</g>
			</g>
		</g>
		<g>
			<path fill="#76A2BE" d="M376.817,335.993c-0.34-0.415-0.535-1.032-0.551-1.519c-0.156-4.692,2.992-12.132,8.574-7.034
				c1.633,1.491,2.864,6.634,1.174,8.263c-2.785,2.683-3.816-2.578-6.006-2.326c-1.482,0.172-0.688,2.222-1.639,2.844
				C377.714,336.648,377.183,336.438,376.817,335.993z"/>
		</g>
		<path fill="#76A2BE" d="M367.403,390.406c1.625,0.043,5.357,0.047,6.576-0.945c2.633-2.129-2.238-3.553-4.67-3.984
			C363.065,384.373,360.157,390.2,367.403,390.406z"/>
		<path fill="#76A2BE" d="M325.929,392.07c-1.619,0.044-5.355,0.044-6.574-0.945c-2.631-2.131,2.236-3.555,4.672-3.985
			C330.269,386.035,333.179,391.863,325.929,392.07z"/>
		<g>
			<g>
				<path fill="#76A2BE" d="M329.114,255.122c2.979-5.955,9.193-9.481,7.168-18.886c9.566,2.415,14.014-3.196,17.012-2.466
					c1.818,0.442,4.42,1.817,6.18,6.062c-1.158-7.842-7.461-14.221-13.773-16.752c-6.113-2.453-22.955-1.936-29.93,8.354
					c-11.311,16.678,0.285,34.538,0.697,45.951c3.9,1.609,11.559,1.373,14.697-5.191
					C332.593,269.209,326.063,261.22,329.114,255.122z"/>
				<g>
					<path fill="#76A2BE" d="M383.376,323.454c-4.854-25.661-13.772-43.795-27.341-50.509c-0.676,0.572-1.363,1.004-2.042,1.262
						c-1.838,0.697-5.266,1.441-9.379,1.441c-3.154,0-6.121-0.425-8.812-1.262c-0.201-0.062-0.504-0.15-0.877-0.258
						c-1.197-0.348-2.23-0.664-3.146-0.963c-2.934,5.434-8.461,6.051-10.76,6.051c-0.201,0-0.4-0.02-0.601-0.027
						c-10.931,11.28-15.35,34.477-11.043,58.471l8.302-1.558c-1.707-22.737,6.38-38.722,11.92-43.481l0.651,0.76
						c-5.268,4.525-12.894,19.567-11.673,41.121c19.312,6.883,46.028,3.878,53.312-4.379c-1.686-15.309-7.938-35.18-7.938-35.18
						s9.566,16.464,13.213,30.781L383.376,323.454z"/>
				</g>
			</g>
			<path fill="#76A2BE" d="M360.581,245.933c-0.027-0.11-0.059-0.228-0.086-0.358l-0.08-0.293c-0.193-0.721-0.422-1.438-0.656-2.152
				l-1.209-2.913c-1.248-3.01-3.146-4.903-5.492-5.474c-0.104-0.025-0.215-0.037-0.338-0.037c-0.734,0-1.768,0.451-2.963,0.973
				c-2.093,0.914-4.959,2.166-8.805,2.166c-1.113,0-2.262-0.105-3.428-0.315c0.852,6.233-1.881,9.917-4.531,13.488
				c-1.117,1.507-2.174,2.931-2.984,4.553c-1.612,3.222-0.193,7.136,1.059,10.589c0.914,2.521,1.633,4.544,1.128,6.1
				c1.681,0.543,3.274,0.979,3.903,1.174c6.732,2.094,14.189,1.111,17.539-0.16C357.772,271.706,363.817,261.404,360.581,245.933z
				 M347.372,252.38c-0.82,0.331-2.004-0.675-2.637-2.247c-0.637-1.574-0.484-3.115,0.334-3.449
				c0.824-0.328,2.004,0.676,2.641,2.248C348.345,250.506,348.19,252.047,347.372,252.38z M357.155,248.54
				c-0.725,0.292-1.834-0.771-2.486-2.378c-0.645-1.604-0.584-3.141,0.137-3.434c0.721-0.291,1.834,0.773,2.484,2.379
				C357.935,246.711,357.87,248.248,357.155,248.54z"/>
		</g>
	</g>
</g>
<g>
	<g>
		<g>
			<path fill="#C83B0C" d="M298.579,370.41c-5.632,0-10.838-0.766-14.821-2.148c-0.673,9.191,3.339,16.678,3.956,31.852l3.477,0.354
				c6.471-9.049,10.096-16.657,12.51-24.025c6.281,6.522,9.904,11.716,11.959,20.576l3.666-0.072
				c1.927-6.539,4.199-25.048,2.684-33.58C318.886,368.188,308.233,370.41,298.579,370.41z"/>
		</g>
	</g>
	<path fill="#C83B0C" d="M337.257,359.809c-0.734,0.449-1.709-0.098-2.174-1.545c-0.318-0.998-0.568-1.745-1.143-2.041
		c-0.776-0.396-1.258,1.087-1.867,0.842c-0.484-0.195-0.428-0.881-0.25-1.461c0.229-0.748,0.756-1.452,1.193-1.82
		c0.854-0.707,1.6-1.121,2.805-0.357c1.068,0.675,1.727,1.658,2.197,3.241C338.452,358.139,338.179,359.241,337.257,359.809z"/>
	<path fill="#C83B0C" d="M266.573,366.353c0.523,0.728,1.162,1.423,1.984,0.71c0.729-0.629,0.475-1.484,0.479-2.302
		c0.003-1.049,0.191-1.844,0.812-2.02c0.836-0.237,1.016,1.315,1.662,1.192c0.514-0.094,0.545-0.773,0.537-1.381
		c-0.01-0.656-0.389-1.457-0.711-1.928c-0.711-1.035-1.758-1.318-2.826-0.871C266.194,360.719,265.075,364.269,266.573,366.353z"/>
	<path fill="#C83B0C" d="M316.458,400.694c0.997,0.117,3.303,0.327,4.197-0.187c1.936-1.1-0.867-2.201-2.307-2.589
		C314.653,396.928,312.013,400.171,316.458,400.694z"/>
	<path fill="#C83B0C" d="M288.19,403.801c0.998,0.115,3.303,0.324,4.199-0.187c1.932-1.099-0.867-2.204-2.309-2.589
		C286.381,400.031,283.745,403.279,288.19,403.801z"/>
	<path fill="#C83B0C" d="M296.616,328.896c-0.097-0.265-0.184-0.51-0.277-0.768c-0.606,0.105-1.194,0.227-1.769,0.36l0.059,0.017
		C295.445,328.737,296.146,328.874,296.616,328.896z"/>
	<g>
		<path fill="#C83B0C" d="M296.856,298.624c-3.429,2.26-4.444,7.458-4.52,9.688c-0.047,1.279-0.479,3.73,0.848,9.053
			c0.994,3.979,3.906,11.779,3.924,11.859c-1.08,0.191-3.594-0.702-3.594-0.702l1.041,5.45l-5.328-2.379l0.469,2.913
			c0,0-7.444-6.786-10.613-13.739c-3.007-6.606-1.92-13.293-0.046-17.088c1.56-3.153,3.483-5.703,6.909-7.671
			c3.79-2.175,7.501-2.677,12.393-3.89c3.895-0.965,11.09-3.891,11.09-3.891l-4.205,4.801l6.334,1.721
			C311.558,294.75,302.077,295.18,296.856,298.624z"/>
		<g>
			<path fill="#C83B0C" d="M312.486,329.021c-0.329,0.3-0.659,0.557-0.989,0.727c-1.777,0.915-5.292,1.895-9.824,1.895
				c-2.312,0-4.556-0.274-6.695-0.786l0.56,2.93l0.359,1.883l-1.75-0.781l-3.639-1.626l0.175,1.087l0.455,2.826l-2.116-1.928
				c-0.123-0.112-1.355-1.248-2.99-3.004c-6.594,4.645-11.139,12.943-17.316,25.902l4.023,1.662
				c7.748-11.244,12.607-13.797,12.607-13.797s-0.945,9.619-2.105,21.011c12.496,4.858,37.352,2.028,38.624-5.956
				c-0.92-11.265-4.575-19.534-4.575-19.534s8.776,4.993,13.709,12.118l4.341-1.877C331.35,340.34,322.897,332.18,312.486,329.021z"
				/>
		</g>
	</g>
	<g>
		<path fill="#C83B0C" d="M313.313,306.853c-1.809-4.737-4.938-8.097-8.584-10.149c-2.54,0.555-5.29,1.414-7.323,2.756
			c-3.164,2.085-4.011,7.123-4.071,8.891c-0.006,0.182-0.021,0.386-0.036,0.616c-0.095,1.386-0.254,3.705,0.855,8.157
			c0.559,2.237,1.814,6.041,3.73,11.307c0.184,0.506,0.184,0.506,0.201,0.584l0.22,1.016l-1.023,0.181
			c-0.119,0.021-0.254,0.026-0.39,0.031c5.955,1.016,11.611-0.077,14.147-1.384C314.054,327.303,317.8,318.63,313.313,306.853z
			 M304.794,313.884c-0.574,0.312-1.52-0.325-2.115-1.419c-0.594-1.098-0.609-2.237-0.043-2.547c0.572-0.31,1.521,0.325,2.117,1.422
			C305.347,312.434,305.366,313.573,304.794,313.884z M311.487,309.815c-0.502,0.273-1.402-0.409-2.012-1.528
			c-0.609-1.117-0.691-2.246-0.189-2.52c0.502-0.271,1.404,0.412,2.014,1.528C311.907,308.416,311.987,309.543,311.487,309.815z"/>
		<path fill="#C83B0C" d="M308.995,296.539c-0.371-0.286-0.748-0.535-1.131-0.756c-0.66,0.094-1.389,0.219-2.139,0.363
			c3.875,2.337,6.821,5.895,8.521,10.35c1.258,3.302,1.87,6.383,2.049,9.17l0.072,0.037l0.309-3.294l1.258,0.642
			C317.935,313.051,315.565,301.584,308.995,296.539z"/>
	</g>
</g>
<g>
	<path fill="#E3E1DC" d="M465.535,179.062c0.245,0.87,1.55,0.505,1.349-0.372c-4.646-20.273-17.191-37.645-36.084-46.783
		c-17.746-8.585-39.678-8.315-57.328,0.318c-0.945,0.462-0.273,2.075,0.719,1.706c18.215-6.777,37.391-8.229,55.424,0.003
		C448.192,142.414,460.118,159.843,465.535,179.062z"/>
	<path fill="#E3E1DC" d="M374.608,121.076c-0.832,0.625-0.072,2.032,0.836,1.43c24.287-16.102,62.574-12.387,85.74,4.368
		c0.62,0.448,1.422-0.589,0.819-1.062c-11.56-9.067-26.239-13.31-40.657-14.908C405.44,109.141,387.705,111.224,374.608,121.076z"/>
	<path fill="#E3E1DC" d="M367.097,119.388c15.396-14.006,35.994-20.256,56.615-18.461c0.946,0.083,0.931-1.378,0-1.469
		c-20.998-2.053-42.209,4.298-57.637,18.908C365.396,119.01,366.411,120.012,367.097,119.388z"/>
	<path fill="#E3E1DC" d="M364.239,116.31c1.551-9.634,5.998-19.345,14.859-24.251c0.565-0.313,0.065-1.159-0.505-0.863
		c-9.33,4.835-14.034,14.765-15.681,24.749C362.771,116.812,364.099,117.182,364.239,116.31z"/>
	<path fill="#E3E1DC" d="M326.638,100.994c9.02,0.533,15.578,7.76,20.355,14.759c0.537,0.786,1.809,0.067,1.289-0.753
		c-4.867-7.663-11.994-15.038-21.645-15.24C325.837,99.743,325.849,100.947,326.638,100.994z"/>
	<path fill="#E3E1DC" d="M292.137,107.959c8.334,0.372,16.695,0.576,24.879,2.338c8.717,1.876,16.293,6.468,23.043,12.157
		c0.795,0.669,1.938-0.432,1.154-1.154c-6.516-6.015-13.841-10.278-22.456-12.468c-8.624-2.19-17.796-1.984-26.621-2.037
		C291.383,106.79,291.391,107.926,292.137,107.959z"/>
	<path fill="#E3E1DC" d="M342.78,131.132c1.01,0.446,1.907-1.001,0.883-1.511c-12.113-6.025-25.564-8.864-39.054-6.885
		c-15.003,2.202-28.595,8.763-41.682,16.138c-0.655,0.369-0.072,1.361,0.588,1.005c11.66-6.289,23.76-11.926,36.815-14.561
		C314.917,122.374,329.335,125.2,342.78,131.132z"/>
	<path fill="#E3E1DC" d="M350.427,137.434c1.225,0.145,1.511-1.975,0.291-2.156c-32.012-4.767-68.304,13.051-76.792,45.92
		c-0.219,0.846,1.056,1.193,1.303,0.359C284.615,149.853,319.263,133.754,350.427,137.434z"/>
	<path fill="#E3E1DC" d="M354.136,142.078c-21.865,9.877-32.135,34.502-32.076,57.357c0.002,0.843,1.283,0.84,1.305,0
		c0.543-22.443,11.107-45.151,31.773-55.644C356.294,143.205,355.281,141.562,354.136,142.078z"/>
	<path fill="#E3E1DC" d="M371.212,140.631c-0.979-0.131-1.156,1.465-0.23,1.695c20.801,5.179,39.938,15.999,48.41,36.739
		c0.34,0.831,1.701,0.487,1.371-0.378C412.964,158.271,392.718,143.498,371.212,140.631z"/>
	<path fill="#E3E1DC" d="M362.024,137.92c-0.85-0.62-1.721,0.683-1.074,1.393c9.818,10.787,13.928,28.242,14.904,42.373
		c0.062,0.921,1.482,0.938,1.445,0c-0.386-9.737-2.592-19.168-6.049-28.263C369.267,148.202,366.718,141.343,362.024,137.92z"/>
	<path fill="#E3E1DC" d="M355.692,91.627c0.067-0.848-1.213-0.82-1.305,0c-1.078,9.605-0.27,19.221,1.365,28.717
		c0.18,1.044,1.727,0.589,1.574-0.434C355.925,110.542,354.933,101.1,355.692,91.627z"/>
	<path fill="#E3E1DC" d="M553.718,189.97c2.846-8.085,9.436-14.495,18.359-15.405c0.866-0.089,0.893-1.438,0-1.375
		c-9.785,0.679-18.041,7.845-20.362,17.229c-6.563-11.681-21.159-13.782-33.638-13.042c-0.641,0.038-0.647,1.027,0,1
		c11.961-0.503,25.529,1.548,32.121,12.322c-21.455-7.43-42.932,0.879-58.125,17.175c-0.623,0.669,0.359,1.659,1.006,1.006
		c14.527-14.677,33.91-22.05,53.71-16.618c-10.503,1.861-20.059,7.525-27.458,15.223c-6.82,7.098-12.238,17.578-9.395,27.569
		c0.234,0.823,1.492,0.478,1.281-0.354c-2.471-9.664,3.208-18.94,9.604-25.726c7.549-8.008,17.799-13.019,28.561-14.832
		c-11.865,11.547-16.092,28.804-12.434,44.908c0.186,0.822,1.432,0.472,1.257-0.348c-3.534-16.592,1.678-32.998,13.716-44.775
		c0.066,0.016,0.131,0.027,0.193,0.031c6.052,4.045,8.004,11.986,9.295,18.74c1.67,8.749,1.876,17.797,1.992,26.678
		c0.011,0.871,1.342,0.871,1.352,0c0.094-9.543-0.056-19.115-1.757-28.53c-1.165-6.447-3.392-13.632-8.681-17.829
		c8.734-2.05,17.053,0.115,24.775,4.795c6.494,3.936,13.756,11.026,14.264,19.064c0.058,0.922,1.459,0.939,1.445,0
		c-0.133-8.592-6.979-15.551-13.501-20.271c-7.101-5.14-16.56-7.911-25.21-6.067c12.139-8.186,30.244-5.365,39.395,6.432
		c0.582,0.751,1.885-0.253,1.318-1.018C587.112,182.865,566.2,179.406,553.718,189.97z"/>
	<path fill="#E3E1DC" d="M588.077,173.705c0.333-0.001,0.667-0.035,1-0.059c0.99-0.069,0.99-1.47,0-1.539
		c-0.333-0.023-0.667-0.058-1-0.059C587.009,172.046,587.009,173.708,588.077,173.705z"/>
	<path fill="#E3E1DC" d="M476.991,222.291c-1.006,1.079-1.615,2.607-1.59,4.086c0.014,0.879,1.295,0.863,1.352,0
		c0.072-1.115,0.645-2.128,1.409-2.914C478.907,222.695,477.72,221.51,476.991,222.291z"/>
	<path fill="#E3E1DC" d="M546.366,256.112c-0.129,0.054-0.252,0.097-0.386,0.134c-0.015-0.033-0.025-0.053-0.048-0.107
		c-0.016-0.036-0.054-0.189-0.062-0.262c-0.127-1.001-1.504-1.039-1.586,0c-0.055,0.676,0.115,1.419,0.742,1.791
		c0.638,0.377,1.328,0.215,1.951-0.106C547.765,257.153,547.2,255.766,546.366,256.112z M545.925,256.255
		C545.858,256.262,545.873,256.238,545.925,256.255L545.925,256.255z"/>
	<path fill="#E3E1DC" d="M605.151,222.877c-0.002-0.047-0.002-0.094-0.002-0.141c0.01-0.698-0.531-1.041-1.072-1.033
		c-0.543-0.008-1.084,0.335-1.072,1.033c-0.001,0.047-0.002,0.094-0.002,0.141c0,0.01,0.004,0.016,0.004,0.024
		c0.002,0.143,0.005,0.285,0.008,0.429c0.021,1.369,2.104,1.369,2.125,0c0.002-0.144,0.004-0.286,0.006-0.429
		C605.146,222.893,605.151,222.887,605.151,222.877z"/>
	<path fill="#E3E1DC" d="M355.44,129.877c0.02-0.167,0.039-0.334,0.059-0.5c0.139-1.188-1.983-1.188-1.844,0
		c0.02,0.166,0.039,0.333,0.059,0.5C353.843,130.987,355.31,130.987,355.44,129.877z"/>
	<path fill="#E3E1DC" d="M203.507,153.445c0.735,0.735,1.873-0.403,1.139-1.138c-0.167-0.167-0.339-0.328-0.509-0.491
		c-0.735-0.712-1.833,0.386-1.121,1.121C203.18,153.106,203.341,153.279,203.507,153.445z"/>
	<path fill="#E3E1DC" d="M169.607,154.847c0.606,0.605,1.545-0.333,0.939-0.939c-0.167-0.167-0.323-0.345-0.483-0.517
		c-0.607-0.648-1.621,0.365-0.973,0.973C169.262,154.523,169.441,154.68,169.607,154.847z"/>
	<path fill="#E3E1DC" d="M438.476,60.377c0.012-0.334,0.023-0.667,0.035-1c0.042-1.204-1.91-1.204-1.867,0
		c0.012,0.333,0.023,0.666,0.035,1C436.72,61.535,438.435,61.535,438.476,60.377z"/>
	<path fill="#E3E1DC" d="M508.077,94.635c0.977-0.025,0.977-1.485,0-1.516c-0.379-0.012-0.649-0.039-0.932-0.312
		c-0.752-0.727-1.919,0.466-1.138,1.138C506.626,94.479,507.27,94.655,508.077,94.635z"/>
	<path fill="#E3E1DC" d="M417.577,225.025c-0.167-0.016-0.334-0.031-0.5-0.047c-1.158-0.108-1.158,1.905,0,1.797
		c0.166-0.016,0.333-0.031,0.5-0.047C418.673,226.626,418.673,225.128,417.577,225.025z"/>
	<path fill="#E3E1DC" d="M535.257,110.028c1.719-0.369,3.418-0.368,4.775,0.893c0.727,0.674,1.817-0.412,1.088-1.088
		c-1.766-1.64-3.992-1.681-6.223-1.108C534.048,108.942,534.409,110.211,535.257,110.028z"/>
	<path fill="#E3E1DC" d="M534.941,118.012c0.878,0.948,1.245,2.209,1.839,3.33c0.566,1.069,2.07,0.132,1.592-0.931
		c-0.588-1.31-1.138-2.626-2.16-3.67C535.397,115.91,534.157,117.164,534.941,118.012z"/>
	<path fill="#E3E1DC" d="M528.483,116.529c-0.995,1.45-2.139,3.013-2.105,4.848c0.016,0.918,1.311,0.881,1.398,0
		c0.154-1.55,1.072-2.881,1.895-4.153C530.155,116.473,528.979,115.807,528.483,116.529z"/>
	<path fill="#E3E1DC" d="M521.229,113.028c1.645-1.426,3.159-2.05,5.349-2.112c1.336-0.038,1.342-2.066,0-2.078
		c-2.619-0.023-5.482,0.55-6.797,3.073C519.286,112.862,520.438,113.714,521.229,113.028z"/>
	<path fill="#E3E1DC" d="M526.372,103.119c1.637,0.249,3.322,0.083,4.805,0.942c0.891,0.517,1.65-0.813,0.801-1.369
		c-1.641-1.074-3.695-1.346-5.605-1.058C525.634,101.746,525.635,103.007,526.372,103.119z"/>
	<path fill="#E3E1DC" d="M271.077,62.014c-1.113,0.002-1.113,1.723,0,1.727c1.847,0.006,3.92-0.058,5.611,0.801
		c0.896,0.455,1.58-0.758,0.777-1.329C275.639,61.913,273.221,62.01,271.077,62.014z"/>
	<path fill="#E3E1DC" d="M268.778,68.146c-0.956-0.275-1.298,1.122-0.402,1.462c1.476,0.561,2.999,1.009,4.5,1.5
		c0.933,0.306,1.321-1.149,0.402-1.462C271.783,69.139,270.295,68.583,268.778,68.146z"/>
	<path fill="#E3E1DC" d="M262.841,71.588c0.309-0.736-0.826-1.349-1.325-0.771c-1.699,1.962-1.664,4.843-1.125,7.249
		c0.173,0.772,1.499,0.612,1.396-0.188C261.5,75.634,261.978,73.645,262.841,71.588z"/>
	<path fill="#E3E1DC" d="M256.906,64.759c-1.84,0.604-3.372,1.874-4.7,3.248c-0.471,0.486,0.247,1.199,0.74,0.74
		c1.28-1.192,2.659-2.136,4.3-2.753C258.007,65.709,257.702,64.498,256.906,64.759z"/>
	<path fill="#E3E1DC" d="M255.897,58.528c2.361,0.533,4.344,1.598,6.315,2.973c0.67,0.467,1.524-0.634,0.875-1.135
		c-2.034-1.575-4.308-2.63-6.831-3.142C255.408,57.054,255.043,58.335,255.897,58.528z"/>
	<path fill="#E3E1DC" d="M265.864,60.594c1.02-2.865,2.872-5.805,6.213-5.982c0.939-0.05,0.953-1.479,0-1.469
		c-4.032,0.041-6.856,3.32-7.788,7.018C264.029,61.192,265.515,61.575,265.864,60.594z"/>
	<path fill="#E3E1DC" d="M309.597,98.896c0.154-0.177,0.301-0.368,0.467-0.533c0.627-0.628-0.346-1.601-0.973-0.973
		c-0.166,0.166-0.357,0.312-0.533,0.467C307.843,98.483,308.97,99.61,309.597,98.896z"/>
	<path fill="#E3E1DC" d="M357.772,75.877c0.006,0.228-0.006,0.464,0.053,0.686c0.197,0.745,1.307,0.745,1.504,0
		c0.059-0.222,0.047-0.458,0.053-0.686C359.407,74.839,357.747,74.839,357.772,75.877z"/>
	<path fill="#E3E1DC" d="M207.22,116.021c0.029-0.032,0.175-0.183,0.242-0.257c0.06-0.01,0.324-0.134,0.322-0.134
		c0.736-0.303,0.743-1.206,0-1.507c-0.755-0.305-1.316,0.115-1.852,0.61C205.07,115.531,206.419,116.882,207.22,116.021z"/>
	<path fill="#E3E1DC" d="M490.294,134.664c0.16-0.022,0.32-0.045,0.48-0.068c0.717-0.101,0.717-1.338,0-1.438
		c-0.16-0.022-0.32-0.045-0.48-0.067C488.976,132.904,488.976,134.85,490.294,134.664z"/>
	<path fill="#E3E1DC" d="M536.577,315.154c-0.167-0.012-0.334-0.023-0.5-0.035c-0.978-0.068-0.978,1.584,0,1.516
		c0.166-0.012,0.333-0.023,0.5-0.035C537.507,316.534,537.507,315.22,536.577,315.154z"/>
	<path fill="#E3E1DC" d="M241.51,141.128c-56.58,23.54-104.473,74.079-126.396,131.183c-0.259,0.677,0.886,1.159,1.171,0.494
		c24.217-56.615,69.375-104.861,126.107-129.585C243.576,142.703,242.705,140.63,241.51,141.128z"/>
	<path fill="#E3E1DC" d="M553.616,247.053c-47.555,19.641-79.875,61.887-109.355,102.172c-0.574,0.784,0.715,1.498,1.289,0.752
		c30.43-39.621,62.18-79.93,108.902-100.938C555.569,248.536,554.752,246.584,553.616,247.053z"/>
	<path fill="#E3E1DC" d="M511.842,149.142c-43.782,44.185-68.992,107.075-75.964,168.235c-0.09,0.781,1.265,0.964,1.373,0.186
		c8.613-61.832,34.173-120.447,76.061-166.951C514.203,149.621,512.792,148.184,511.842,149.142z"/>
</g>
</svg>
