<?xml version="1.0" encoding="utf-8"?>
<!-- Generator: Adobe Illustrator 15.0.2, SVG Export Plug-In . SVG Version: 6.00 Build 0)  -->
<!DOCTYPE svg PUBLIC "-//W3C//DTD SVG 1.1//EN" "http://www.w3.org/Graphics/SVG/1.1/DTD/svg11.dtd">
<svg version="1.1" id="Layer_1" xmlns="http://www.w3.org/2000/svg" xmlns:xlink="http://www.w3.org/1999/xlink" x="0px" y="0px"
	 width="720px" height="460px" viewBox="0 0 720 460" enable-background="new 0 0 720 460" xml:space="preserve">
<path fill="#EBDFBA" d="M293.594,109.084c125.84-16.041,240.532,1.311,316.024,75.285c50.215,49.213,45.861,114.441,4.953,153.398
	c-45.5,43.344-137.844,79.088-268.555,79.088c-126.321,0-222.491-51.605-258.11-101.957c-25.608-36.207-16.88-96.959,29.176-135.189
	C167.211,138.107,217.139,118.816,293.594,109.084z"/>
<g>
	<g>
		<path fill="#A1856E" d="M140.543,289.326c1.967,3.238,4.439,6.375,8.135,3.633c3.273-2.422,2.475-6.107,2.754-9.555
			c0.354-4.422,1.398-7.707,4.072-8.248c3.602-0.738,3.869,5.869,6.629,5.561c2.197-0.238,2.539-3.09,2.709-5.652
			c0.168-2.779-1.166-6.268-2.383-8.363c-2.668-4.588-6.984-6.119-11.639-4.578C140.752,265.457,134.887,280.064,140.543,289.326z"
			/>
		<path fill="#A1856E" d="M378.349,289.326c-1.967,3.238-4.439,6.375-8.133,3.633c-3.275-2.422-2.477-6.107-2.756-9.555
			c-0.354-4.422-1.398-7.707-4.072-8.248c-3.602-0.738-3.869,5.869-6.629,5.561c-2.197-0.238-2.539-3.09-2.709-5.652
			c-0.168-2.779,1.166-6.268,2.383-8.363c2.668-4.588,6.984-6.119,11.639-4.578C378.14,265.457,384.005,280.064,378.349,289.326z"/>
		<path fill="#A1856E" d="M217.813,434.258c-3.666,0.285-7.502-0.309-9.717-1.633c-10.266-6.139,4.971-11.59,10.553-11.18
			c4.895,0.359,12.143,4.773,7.361,9.787C224.295,433.029,221.124,434.002,217.813,434.258z"/>
		<path fill="#A1856E" d="M305.64,432.092c3.504,0.354,7.064-0.223,9.008-2.084c7.74-7.414-5.617-12.324-11.631-11.137
			c-4.846,0.955-10.538,5.564-5.75,10.039C299.073,430.598,302.331,431.758,305.64,432.092z"/>
	</g>
	<g>
		<g>
			<path fill="#A1856E" d="M308.004,294.93c-12.042,2.227-28.353,3.504-44.75,3.504c-30.656,0-63.344-4.238-74.334-15.547
				c-4.05,48.24,11.482,102.922,20.139,136.465l14.949-0.336c5.318-36.262,20.795-76.576,34.41-100.164
				c16.818,21.068,28.727,55.686,39.459,97.311l16.389-0.617c7.93-43.176,11.447-87.252,10.122-125.496
				C320.89,291.922,315.429,293.557,308.004,294.93z"/>
		</g>
	</g>
	<g>
		<path fill="#A1856E" d="M372.612,259.326c-6.431-48.707-27.852-113.613-76.094-135.047c-7.17,6.729-13.965,10.74-18.463,10.74
			c-0.271,0-0.537-0.016-0.791-0.045c-7.606-0.867-22.602-5.965-34.24-16.451c-59.762,9.729-85.045,67.451-97.248,140.062
			l20.148,3.822c13.891-50.318,31.924-75.016,31.924-75.016s-13.559,61.295-11.758,87.467c2.117,30.768,140.809,25.988,141.93,9.898
			c2.279-32.754-12.781-104.646-12.781-104.646s25.758,27.842,39.678,81.639L372.612,259.326z"/>
	</g>
	<g>
		<g>
			<path fill="#A1856E" d="M239.346,83.732c6.254-2.742,10.514-1.564,16.021-1.58c2.535-13.463,5.738-22.971,12.789-30.254
				c5.949-6.135,17.629-10.268,27.785-10.518c7.54-0.182,16.442,1.184,22.045,5.365c6.607,4.926,6.738,15.539,5.877,25.922
				c5.811-17.008-0.264-36.4-10.355-48.061c-9.768-11.285-44.243-27.732-68.981-14.25c-40.105,21.859-26.115,77.443-22.67,85.047
				c1.342,2.969,8.854,11.234,11.361,13.066C232.333,96.688,233.973,86.086,239.346,83.732z"/>
			<g>
				<path fill="#A1856E" d="M317.39,47.547c-4.413-3.293-11.754-5.182-20.143-5.182c-0.43,0-0.857,0.004-1.279,0.016
					c-10.369,0.256-21.51,4.455-27.092,10.213c-7.135,7.369-10.166,17.221-12.525,29.744l-0.152,0.812l-0.826,0.002h-0.105
					c-1.299,0-2.527-0.062-3.715-0.125c-1.139-0.059-2.215-0.113-3.311-0.113c-2.244,0-5.008,0.205-8.492,1.734
					c-4.083,1.787-6.199,9.848-5.68,21.283c0.348,0.701,0.707,1.377,1.094,2c1.83,2.941,4.18,5.66,6.711,8.15
					c11.389,11.215,27.434,16.979,35.504,17.9c9.957,1.135,36.042-23.912,42.379-47.875c1.65-6.234,2.676-11.227,3.25-15.342
					C323.65,61.537,323.271,51.932,317.39,47.547z M290.708,78.785c-0.35,3.828-2.262,6.775-4.258,6.592
					c-1.998-0.188-3.332-3.439-2.98-7.264c0.357-3.826,2.264-6.781,4.256-6.598C289.725,71.705,291.059,74.953,290.708,78.785z
					 M313.983,81.027c-0.367,3.902-2.09,6.932-3.836,6.773c-1.762-0.16-2.895-3.457-2.537-7.367
					c0.367-3.906,2.084-6.941,3.838-6.779C313.204,73.818,314.339,77.115,313.983,81.027z"/>
			</g>
		</g>
	</g>
</g>
<g>
	<path fill="#7A574A" d="M534.331,453.92c-3.098,0.52-10.248,1.51-12.85-0.061c-5.604-3.385,3.344-7.406,7.889-8.875
		C541.036,441.207,548.157,451.6,534.331,453.92z"/>
	<path fill="#7A574A" d="M471.366,437.77c-3.125,0.32-10.326,0.875-12.82-0.859c-5.383-3.719,3.793-7.18,8.424-8.367
		C478.847,425.498,485.308,436.309,471.366,437.77z"/>
	<g>
		<g>
			<path fill="#7A574A" d="M516.842,346.17c-23.06,0-50.597-4.291-61.392-12.512c-0.201,27.746,2.99,56.607,9.725,91.799
				l12.334,0.467c8.365-28.424,15.807-41.088,27.217-54.805c12.129,16.969,17.639,38.398,24.479,70.523l11.254,0.252
				c12.046-34.209,22.773-71.342,22.753-106.23C555.688,343.277,535.757,346.17,516.842,346.17z"/>
		</g>
	</g>
	<g>
		<g>
			<path fill="#7A574A" d="M506.315,130.406c10.467,4.537,15.734,18.266,17.016,24.338c0.744,3.477,3.102,9.967,2.027,25.166
				c-0.805,11.354-5.021,34.096-5.029,34.32c3.045,0.01,9.49-3.645,9.49-3.645l-0.227,15.408l13.432-9.068l0.115,8.191
				c0,0,17.1-22.139,22.426-42.68c5.053-19.516-1.129-37.279-8.086-46.766c-5.773-7.871-12.268-13.928-22.582-17.66
				c-11.416-4.131-21.805-3.719-35.764-4.684c-11.121-0.77-32.203-5.314-32.203-5.314l13.805,11.109l-16.496,7.748
				C464.239,126.871,490.376,123.492,506.315,130.406z"/>
			<g>
				<path fill="#7A574A" d="M537.032,222.178l-6.881,4.645l-1.588,1.072l0.029-1.916l0.158-10.773
					c-0.267-0.162-0.531-0.332-0.801-0.484c-12.274,6.945-25.145,8-31.764,8c-5.104,0-10.053-0.604-13.754-1.65
					c-12.32,15.094-16.631,41.076-47.471,32.67l-3.105,4.475c4.039,5.271,6.356,7.404,10.605,10.348
					c3.539,2.451,8.941,4.342,14.867,5.621c28.859-3.246,43.457-17.471,43.636-17.648l0.708,0.707
					c-0.226,0.225-23.037,22.479-67.951,18.016l-5.423,11.461c23.918,11.02,55.297,11.777,80.099,1.904
					c16.547-6.588,28.016-16.982,33.166-30.059l0.931,0.367c-5.254,13.34-16.917,23.928-33.726,30.621
					c-11.725,4.668-24.905,6.982-38.086,6.982c-5.075,0-10.148-0.352-15.14-1.035c-1.929,8.039-3.599,18.311-3.81,30.279
					c-0.383,21.746,113.588,28.543,113.604,2.814c0.023-36.33-7.086-61.367-16.881-86.68
					C545.163,233.402,541.317,226.965,537.032,222.178z"/>
			</g>
			<g>
				<g>
					<path fill="#7A574A" d="M479.013,127.045c-1.277,0-2.502,0.021-3.674,0.055c-1.49,1.482-2.728,2.883-3.236,3.436
						c-15.545,16.959-16.512,49.461-16.512,49.461l3.129-2.357l2.43,8.861l1.783-1.27c-0.688-7.297-0.402-15.539,1.341-24.596
						c2.648-13.748,9.589-25.305,20.094-33.432c0.015-0.012,0.03-0.02,0.046-0.031C482.507,127.082,480.683,127.045,479.013,127.045
						z"/>
				</g>
			</g>
		</g>
		<g>
			<path fill="#7A574A" d="M528.795,212.273c-2.175,1.123-6.089,2.957-8.471,2.957l-1.035-0.006l0.04-1.033
				c0.004-0.1,0.004-0.1,0.239-1.43c2.723-15.387,4.335-26.465,4.793-32.922c0.919-12.996-0.673-19.43-1.624-23.273
				c-0.15-0.604-0.281-1.137-0.385-1.617c-1.066-5.051-6.099-19.145-16.435-23.627c-5.915-2.564-13.315-3.656-19.904-4.064
				c-0.357,0.248-0.71,0.498-1.056,0.752c-9.533,7.377-16.93,18.416-19.703,32.814c-6.611,34.367,7.793,56.291,16.787,59.098
				c8.615,2.686,28.67,3.596,45.795-6.279c0.275-0.158,0.601-0.377,0.947-0.623L528.795,212.273z M476.437,162.904
				c-1.129,3.35-3.262,5.65-4.77,5.146c-1.494-0.504-1.818-3.629-0.691-6.98c1.127-3.35,3.26-5.652,4.768-5.148
				C477.249,156.424,477.562,159.553,476.437,162.904z M497.036,171.066c-1.107,3.277-3.387,5.471-5.109,4.896
				c-1.707-0.576-2.205-3.699-1.104-6.98c1.104-3.289,3.387-5.475,5.1-4.904C497.632,164.65,498.13,167.779,497.036,171.066z"/>
		</g>
	</g>
	<polygon fill="#FFFFFF" points="445.198,283.643 351.382,256.752 374.542,232.789 441.37,258.803 	"/>
	<path fill="#DBA191" d="M374.407,257.244c-1.824-1.5,0.729-2.639,2.137-1.771c-0.947-1.52,1.268-2.145,2.336-1.453
		c1.266,0.82,0.252,3.793,0.252,3.793S375.479,258.123,374.407,257.244z"/>
	<path fill="#DBA191" d="M364.538,256.045c-1.824-1.498,0.729-2.637,2.137-1.768c-0.947-1.521,1.266-2.146,2.336-1.455
		c1.266,0.82,0.252,3.793,0.252,3.793S365.608,256.928,364.538,256.045z"/>
	<g>
		<path fill="#C4C63A" d="M401.091,257.785c5.373,2.389,10.33,4.51,15.174,7.773c2.01,1.355,3.801,2.836,5.701,4.295
			c1.08,0.83,1.598,2.148,2.924,2.635c1.354,0.5,1.582-0.217,2.018-0.75c1.219-1.496,3.02-4.053,3.691-5.391
			c1.408-2.805,1.689-5.762,2.146-8.781c0.137-0.9,0.262-1.244-0.828-1.348c-8.596-0.812-19.506-1.861-28.045-2.936
			c-3.242-0.408-6.533-1.574-10.006-2.299c-1.713-0.357-3.709-0.885-4.9,0.766c-0.9,1.246,0.902,2.088,2.244,2.588
			C394.821,255.693,397.532,256.203,401.091,257.785z"/>
		<path fill="#E59165" d="M395.979,254.896c4.668,1.475,10.764,3.908,15.109,6.09c5.154,2.586,11.322,5.213,14.652,9.758
			c0.949,1.295,1.008,1.287,1.9,0.125c1.293-1.682,2.504-3.156,3.195-5.141c0.842-2.4,1.893-5.637,1.908-8.162
			c-10.838-1.086-21.607-1.688-32.299-3.924c-2.805-0.588-5.842-1.543-8.729-2.375c-1.943-0.561-3.123,0.166-2.951,0.646
			C388.938,252.393,391.347,253.432,395.979,254.896z"/>
		<path fill="#E1CC6C" d="M381.241,246.93c2.219-0.736,5.473-0.109,7.061,1.461c3.094,3.062-2.975,4.424-5.461,3.672
			C380.353,251.311,377.61,248.145,381.241,246.93z"/>
		<path fill="#EBDB8A" d="M392.583,246.283c-0.686-2.16,4.443-0.369,5.055-0.092c1.018,0.461,0.795,0.385,2.006,0.283
			c1.709-0.139,1.895,0.033,2.75,1.061c0.57,0.689,0.109,0.414,0.873,0.861c0.65,0.385,1.709,0.291,1.475,1.365
			c-0.324,1.484-3.785,1.764-4.889,0.936c0.023,0.08,0.07,0.229,0.094,0.316c-2.043,0.852-3.424-0.189-5.205-0.746
			c-1.244-0.387-4.178,0.227-4.561-1.32c-1.092,0.332-1.645-0.441-2.391-0.809c-1.389-0.68-2.869-1.695-0.578-2.562
			C388.944,244.916,391.017,245.48,392.583,246.283z"/>
		<path fill="#EBDB8A" d="M381.526,253.84c-0.01,1.023,0.971,0.791,1.379,1.385c0.439,0.637,0.23,1.492,0.635,2.229
			c0.314,0.572,0.57,1.145,0.902,1.701c0.533,0.904,1.232,0.844,2.023,1.439c0.678,0.512,0.762,1.322,1.664,1.668
			c0.527,0.205,1.494,0.324,2.037,0.469c0.633,0.172,1.455,0.631,1.713-0.252c1.023,0.15,1.268-1.182,0.58-1.633
			c1.801-1.164-1.295-3.615-2.098-4.418c-0.387-0.391-0.598-1.043-0.998-1.373c-0.252-0.207-0.816-0.316-0.965-0.449
			c-0.527-0.467-1.25-1.926-2.104-1.416C385.187,252.504,381.548,251.93,381.526,253.84z"/>
	</g>
	<g>
		<path fill="#7A574A" d="M415.257,247.635c0,0,6.611,2.289,8.77,3.295c3.652,1.703-1.195,6.531,2.312,8.326
			c3.201,1.639,5.023-2.002,6.316-4.375c1.77-3.25,0.631-6.973-2.625-9.096C425.796,243.023,418.528,243.477,415.257,247.635z"/>
	</g>
	<g>
		<path fill="#7A574A" d="M420.954,272.998c0.334-1.734-0.289-3.736,1.734-4.303c3.799-1.061,7.875,4.49,7.654,7.807
			c-0.789,11.857-20.969,9.088-22.113-2.523c0,0,8.299,2.381,11.061,2.381C420.974,276.359,420.757,274.027,420.954,272.998z"/>
	</g>
</g>
<path fill="#7A574A" d="M444.093,287.047l-15.794-0.328l5.423-11.461c0,0,7.354,1.129,14.258,0.562S444.093,287.047,444.093,287.047
	z"/>
</svg>
