<?xml version="1.0" encoding="utf-8"?>
<!-- Generator: Adobe Illustrator 15.0.2, SVG Export Plug-In . SVG Version: 6.00 Build 0)  -->
<!DOCTYPE svg PUBLIC "-//W3C//DTD SVG 1.1//EN" "http://www.w3.org/Graphics/SVG/1.1/DTD/svg11.dtd">
<svg version="1.1" id="Layer_1" xmlns="http://www.w3.org/2000/svg" xmlns:xlink="http://www.w3.org/1999/xlink" x="0px" y="0px"
	 width="720px" height="460px" viewBox="0 0 720 460" enable-background="new 0 0 720 460" xml:space="preserve">
<polygon fill="#D7A89E" points="678.075,433.535 41.925,433.535 144.662,156.583 575.339,156.583 "/>
<g>
	<g>
		<g>
			<g>
				<g>
					<path fill="#C83B0C" d="M452.578,170.09c-1.52-2.9-4.971-5.742-6.99-7.127c-4.709-3.234-10.84-4.568-14.99,0.291
						c-1.393,1.629-5.723,7.725-1.947,9.055c3.922,1.381,6.562-4.467,10.371-2.24c2.557,1.496,2.66,4.797,4.705,6.561
						c1.734,1.496,5.611,1.982,8.027,0.275C454.779,174.77,453.834,172.489,452.578,170.09z"/>
				</g>
				<g>
					<path fill="#C83B0C" d="M385.643,59.247c-5.02-4.141-16.889-17.85-21.283-26.605c-7.353,7.225-24.572,12.809-30.632,14.609
						c-0.392,1.139-0.833,2.482-1.337,4.008c-1.51,4.584-3.58,10.861-6.797,19.439c-0.965,2.576-2.176,5.146-3.486,7.605
						c8.526,16.76,24.518,25.854,34.557,25.854c8.705,0,22.722-8.107,31.737-21.941C388.354,74.551,387.775,65.338,385.643,59.247z
						 M342.1,75.292c-2.15,0.012-3.83-2.662-3.77-5.977c0.07-3.311,1.865-6.006,3.996-6.018c2.137-0.012,3.828,2.656,3.76,5.979
						C346.025,72.588,344.234,75.28,342.1,75.292z M370.283,75.165c-2.072,0.008-3.691-2.723-3.627-6.107
						c0.074-3.381,1.812-6.129,3.881-6.141c2.068-0.008,3.686,2.727,3.615,6.105C374.086,72.407,372.332,75.147,370.283,75.165z"/>
					<path fill="#C83B0C" d="M401.146,39.881c-8.355-20-18.254-29.826-34.711-32.398c-24.68-5.141-47.562,9.773-55.275,31.371
						c-6.115,17.117-6.475,29.877-13.375,39.473c5.699-0.148,11.062-2.58,11.062-2.58l0.705,19.41c0,0,10.479-12.469,15.105-24.811
						c4.057-10.818,6.312-18.051,7.848-22.609c-4.949,1.326-11.322,1.811-11.607,1.832l-1.328,0.098l0.935-0.947
						c0.068-0.068,6.866-6.992,9.829-12.273l0.872,0.488c-2.394,4.268-7.063,9.406-9.058,11.518
						c2.295-0.227,7.109-0.801,10.75-1.863c0.018-0.051,0.035-0.104,0.053-0.152c7.6-2.225,24.1-7.787,30.906-14.713
						c-0.859-1.768-2.328-4.994-2.783-7.277l0.98-0.195c0.407,2.039,1.684,4.91,2.535,6.684c0.015-0.018,0.032-0.035,0.047-0.053
						c3.734,8.598,16.713,23.652,21.854,27.766c0.005,0.012,0.009,0.025,0.014,0.039c2.939,2.371,7.092,4.732,9.1,5.82
						c-1.021-2.719-3.335-9.266-3.887-14.127l0.993-0.113c0.684,6.02,4.27,15.033,4.306,15.123l0.494,1.236l-1.186-0.605
						c-0.24-0.121-5.308-2.721-9.279-5.65c3.736,12.771,1.928,35.588,1.928,35.588l8.609-12.271l2.705,6.469
						C400.287,90.155,409.629,60.192,401.146,39.881z"/>
				</g>
			</g>
		</g>
	</g>
	<g>
		<g>
			<g>
				<g>
					<path fill="#C83B0C" d="M380.359,93.352c-7.643,7.145-16.861,11.805-23.695,11.805c-7.345,0-16.576-4.426-24.146-11.43
						c-41.641,10.195-74.648,46.727-43.615,88.378l7.629-10.802c-6.072-30.113,18.324-35.107,18.324-35.107
						s-6.668,15.531-10.812,38.072c0.708,0.301,1.307,0.658,1.492,1.053c0.185,0.389,0.131,0.836-0.141,1.164
						c-1.236,1.514-0.872,2.092-0.697,2.369c0.241,0.381,0.995,0.791,1.733,0.791l0.052-0.002c0.603-0.016,0.765-0.248,1.109-0.963
						c0.06-0.123,0.117-0.242,0.177-0.354l0.188-0.352l0.379-0.127c0.283-0.094,0.586-0.141,0.9-0.141
						c1.617,0,3.367,1.273,4.162,3.031c1.016,2.244,0.201,4.933-1.809,6.257c-0.186,0.988-0.762,2.453-1.792,3.605
						c-1.264,1.414-2.747,2.795-5.733,2.795c-0.896,0-1.754-0.107-2.576-0.293c-0.025,0.303-0.056,0.6-0.08,0.904
						c2.506,22.586,109.5,21.688,112.682-1.264c-4.955-28.568-14.727-56.339-14.727-56.339s26.703-5.395,31.41,23.316l11.973-1.391
						C445.254,126.719,418.295,101.149,380.359,93.352z"/>
				</g>
			</g>
		</g>
	</g>
	<g>
		<polygon fill="#A15A34" points="621.146,350.123 98.614,350.123 93.591,335.055 626.169,335.055 		"/>
		<polygon fill="#AB6C4A" points="626.169,335.055 93.591,335.055 144.004,188.285 576.536,188.285 		"/>
		<path fill="#9F9F9D" d="M307.176,172.575c2.041-5.656,6.283-15.184,7.715-13.441c3.062,3.73-2.199,14.23-6.088,17.961
			c-3.641,3.494-5.648,14.091-8.209,12.447C298.127,187.957,304.893,178.932,307.176,172.575z"/>
		<path fill="#C83B0C" d="M309.053,189.936c1.088-1.217,1.598-2.855,1.604-3.553c1.936-0.977,2.668-3.383,1.832-5.232
			c-0.766-1.691-2.57-2.773-3.838-2.353c-0.387,0.727-0.678,1.805-2.141,1.846c-1.1,0.029-2.215-0.555-2.658-1.256
			c-0.639-1.014-0.387-2.123,0.77-3.535c0.348-0.422-3.57-1.531-3.795-1.523c-1.311,0.033-2.674,0.428-3.822,1.047
			c-2.834,1.531-3.773,4.986-3.117,8.021c1.127,5.232,4.736,9,10.178,9C306.613,192.396,307.822,191.312,309.053,189.936z"/>
		<polygon fill="#A15A34" points="575.7,415.223 560.929,415.713 557.702,406.434 571.097,342.59 595.372,342.59 		"/>
		<polygon fill="#A15A34" points="145.841,415.223 160.613,415.713 163.839,406.434 150.444,342.59 126.169,342.59 		"/>
	</g>
	<ellipse fill="#F8F0DD" cx="356.729" cy="231.352" rx="43.019" ry="29.143"/>
	<ellipse fill="#ECE5D3" cx="356.73" cy="230.043" rx="29.064" ry="19.689"/>
	<g>
		<path fill="#9F9F9D" d="M294.926,237.381c-5.129-0.354-7.049,12.234-6.143,12.518c0.908,0.283,2.312-7.402,3.441-7.289
			c1.127,0.113-0.807,7.738,0.15,7.918c0.959,0.18,1.715-7.705,3.062-7.551c1.299,0.143-0.633,7.529,0.639,7.693
			c1.398,0.182,1.236-7.574,2.611-7.32c1.389,0.246-0.201,7.486,0.73,7.627c1.596,0.238,4.107-12.82-0.48-13.219
			c0.482-3.211,4.146-21.561,1.096-21.799C297.434,215.752,295.732,237.436,294.926,237.381z"/>
	</g>
	<g>
		<g>
			<path fill="#A3A3A3" d="M391.714,307.675c0.22,0.504-0.048,0.968-0.594,1.03l-69.082,7.848c-0.546,0.062-1.008-0.337-1.025-0.886
				l-0.842-25.924c-0.018-0.549,0.416-1.034,0.965-1.077l59.254-4.645c0.549-0.043,1.177,0.335,1.396,0.839L391.714,307.675z"/>
		</g>
		<polygon fill="#DDC989" points="381.68,303.232 328.846,308.262 326.633,290.053 326.877,278.57 382.543,294.07 		"/>
		<polygon fill="#E7D795" points="382.543,294.07 329.709,299.1 326.877,278.57 374.436,274.951 		"/>
	</g>
	<g>
		<g>
			<path fill="#C2C3C1" d="M255.709,218.998c-9.365,0.395-14.837,4.029-14.642,7.256l6.737,31.01
				c0.18,2.936,4.895,5.127,10.525,4.893c5.637-0.236,10.059-2.809,9.881-5.746l2.945-31.412
				C270.959,221.771,265.271,218.598,255.709,218.998z"/>
			<path fill="#DDDCD6" d="M269.252,225.078c0.141,2.291-4.121,5.643-12.809,6.004c-8.387,0.352-13.333-2.615-13.47-4.904
				c-0.141-2.293,4.942-5.678,12.806-6.006S269.111,222.787,269.252,225.078z"/>
		</g>
		<g>
			<path fill="#DD8970" d="M257.328,245.67c-5.885,0.244-11.882-1.385-13.089-4.617l3.565,16.211
				c0.18,2.936,4.895,5.127,10.525,4.893c5.637-0.236,10.059-2.809,9.881-5.746l1.535-16.422
				C269.471,242.775,263.219,245.422,257.328,245.67z"/>
		</g>
		<path fill="#EAAB8E" d="M269.664,239.422c0.191,3.158-5.328,5.953-12.336,6.248c-7.004,0.291-12.835-2.031-13.028-5.189
			s5.329-5.947,12.335-6.24S269.471,236.262,269.664,239.422z"/>
	</g>
	<g>
		<polygon fill="#ACB185" points="467.04,267.545 432.742,260.295 439.402,266.314 448.691,268.225 450.627,267.545 
			453.518,269.217 463.034,271.176 467.04,267.545 484.864,218.758 		"/>
		<polygon fill="#BEC2A0" points="467.04,267.545 432.742,260.295 434.934,251.953 459.51,207.621 480.118,210.754 484.864,218.758 
					"/>
		<polygon fill="#D6D9BE" points="463.034,257.492 434.934,251.953 459.51,207.621 480.118,210.754 		"/>
		<polygon fill="#BAA387" points="461.629,254.086 438.703,249.814 460.295,209.262 478.163,212.195 		"/>
	</g>
	<g>
		<ellipse fill="#D58F56" cx="358.861" cy="227.795" rx="17.811" ry="12.775"/>
		<path fill="#DFAB81" d="M358.861,234.83c8.881,0,16.225-3.92,17.568-9.041c-1.344-6.1-8.688-10.768-17.568-10.768
			s-16.223,4.668-17.57,10.768C342.639,230.91,349.98,234.83,358.861,234.83z"/>
	</g>
</g>
</svg>
