<?xml version="1.0" encoding="utf-8"?>
<!-- Generator: Adobe Illustrator 15.0.2, SVG Export Plug-In . SVG Version: 6.00 Build 0)  -->
<!DOCTYPE svg PUBLIC "-//W3C//DTD SVG 1.1//EN" "http://www.w3.org/Graphics/SVG/1.1/DTD/svg11.dtd">
<svg version="1.1" id="Layer_1" xmlns="http://www.w3.org/2000/svg" xmlns:xlink="http://www.w3.org/1999/xlink" x="0px" y="0px"
	 width="720px" height="460px" viewBox="0 0 720 460" enable-background="new 0 0 720 460" xml:space="preserve">
<path fill="#C4C63A" d="M322.877,251.99c114.463-8.515,218.781,0.696,287.447,39.979c45.674,26.134,41.713,60.772,4.506,81.461
	c-41.387,23.014-125.379,41.996-244.27,41.996c-114.896,0-202.371-27.402-234.769-54.143
	c-23.293-19.225-15.355-51.487,26.536-71.787C207.925,267.405,253.337,257.162,322.877,251.99z"/>
<g>
	<polygon fill="#EFE9DA" points="356.709,252.013 67.489,329.38 141.783,370.853 401.34,271.993 	"/>
	<polygon fill="#B9BD71" points="376.057,260.199 97.605,349.403 101.916,352.58 377.031,260.958 	"/>
	<polygon fill="#B9BD71" points="249.775,330.326 176.895,298.858 182.745,297.734 251.694,328.477 	"/>
	<polygon fill="#B9BD71" points="208.46,347.027 131.727,310.868 138.1,309.643 210.549,345.014 	"/>
	<polygon fill="#B9BD71" points="162.368,364.915 87.919,325.023 94.291,323.8 164.457,362.901 	"/>
	<polygon fill="#B9BD71" points="380.949,280.505 325.76,257.646 330.02,256.827 382.346,279.158 	"/>
	<polygon fill="#B9BD71" points="355.842,291.854 293.957,266.222 298.734,265.305 357.408,290.345 	"/>
	<polygon fill="#B9BD71" points="326.092,303.919 259.106,276.176 264.276,275.184 327.787,302.286 	"/>
	<polygon fill="#B9BD71" points="289.877,316.13 219.436,287.009 225.025,285.937 291.71,314.364 	"/>
</g>
<polygon fill="#E1D7C2" points="345.615,254.981 92.12,322.791 94.475,146.42 351.74,112.294 "/>
<polygon fill="#DA7A5A" points="390.512,73.219 110.207,103.632 94.475,146.42 351.74,112.294 "/>
<polygon fill="#ECE5D3" points="346.146,308.013 652.512,365.122 652.512,119.885 344.055,99.461 "/>
<polygon fill="#E1D7C2" points="508.865,316.722 604.537,332.294 604.537,188.785 508.146,179.56 "/>
<polygon fill="#CD4917" points="519.232,302.79 594.012,314.961 594.012,198.885 518.672,190.892 "/>
<g>
	<polygon fill="#E0D3B5" points="574.047,377.343 607.012,358.268 608.271,317.177 560.998,328.095 	"/>
	<polygon fill="#ECE5D3" points="485.6,325.942 588.686,344.96 589.07,326.806 485.213,309.727 	"/>
	<polygon fill="#F6F2E9" points="505.186,301.159 608.271,317.177 589.07,326.806 485.213,309.727 	"/>
	<polygon fill="#ECE5D3" points="470.961,355.669 574.047,377.343 574.047,354.485 470.189,335.406 	"/>
	<polygon fill="#F6F2E9" points="485.6,325.942 588.686,344.96 574.047,354.485 470.189,335.406 	"/>
</g>
<polygon fill="#DE896D" points="406.785,44.573 643.164,53.885 652.512,119.885 344.055,99.461 "/>
<g>
	<g>
		<g>
			<g>
				<g>
					
						<rect x="222.287" y="243.279" transform="matrix(0.9981 0.0615 -0.0615 0.9981 16.9334 -13.199)" fill="#AAABA8" width="1" height="50.157"/>
					
						<rect x="197.708" y="267.858" transform="matrix(0.0614 0.9981 -0.9981 0.0614 476.9482 29.5019)" fill="#AAABA8" width="50.157" height="1"/>
				</g>
				<g>
					
						<rect x="198.82" y="267.857" transform="matrix(0.3118 0.9502 -0.9502 0.3118 408.3053 -26.9946)" fill="#AAABA8" width="47.934" height="1"/>
					
						<rect x="199.842" y="267.858" transform="matrix(0.442 0.897 -0.897 0.442 365.0375 -50.0991)" fill="#AAABA8" width="45.89" height="1.001"/>
				</g>
				<g>
					
						<rect x="202.355" y="267.858" transform="matrix(0.7089 0.7053 -0.7053 0.7089 254.1477 -79.0131)" fill="#AAABA8" width="40.864" height="1"/>
					
						<rect x="203.563" y="267.858" transform="matrix(0.8336 0.5524 -0.5524 0.8336 185.3175 -78.4073)" fill="#AAABA8" width="38.447" height="1"/>
				</g>
				<g>
					
						<rect x="205.038" y="267.858" transform="matrix(0.9924 0.1234 -0.1234 0.9924 34.8056 -25.4328)" fill="#AAABA8" width="35.498" height="1"/>
					
						<rect x="222.287" y="250.61" transform="matrix(0.1231 0.9924 -0.9924 0.1231 461.6863 14.2374)" fill="#AAABA8" width="1" height="35.498"/>
				</g>
				<g>
					
						<rect x="222.287" y="249.134" transform="matrix(0.5529 0.8333 -0.8333 0.5529 323.2185 -65.6534)" fill="#AAABA8" width="1" height="38.447"/>
					
						<rect x="222.288" y="247.926" transform="matrix(0.7056 0.7086 -0.7086 0.7056 255.7305 -78.8665)" fill="#AAABA8" width="0.999" height="40.865"/>
				</g>
				<g>
					
						<rect x="222.287" y="245.412" transform="matrix(0.8973 0.4413 -0.4413 0.8973 141.3105 -70.7757)" fill="#AAABA8" width="1" height="45.891"/>
					
						<rect x="222.287" y="244.39" transform="matrix(0.9499 0.3124 -0.3124 0.9499 94.9914 -56.1699)" fill="#AAABA8" width="1" height="47.935"/>
				</g>
			</g>
			<path fill="#888886" d="M223.287,240.608c-0.168,0-0.333,0.011-0.5,0.018c-0.167-0.007-0.332-0.018-0.5-0.018
				c-11.157,0-20.202,12.424-20.202,27.75s9.045,27.75,20.202,27.75c0.168,0,0.333-0.012,0.5-0.018
				c0.167,0.006,0.332,0.018,0.5,0.018c11.157,0,20.202-12.424,20.202-27.75S234.444,240.608,223.287,240.608z M205.637,268.358
				c0-13.16,7.634-23.863,17.15-24.228c9.517,0.364,17.15,11.067,17.15,24.228s-7.634,23.862-17.15,24.227
				C213.271,292.221,205.637,281.519,205.637,268.358z"/>
		</g>
		<g>
			<g>
				<g>
					
						<rect x="282.847" y="231.617" transform="matrix(0.9981 0.0615 -0.0615 0.9981 16.1875 -16.9515)" fill="#AAABA8" width="1" height="45.508"/>
					
						<rect x="260.593" y="253.871" transform="matrix(0.0614 0.9981 -0.9981 0.0614 519.835 -44.0637)" fill="#AAABA8" width="45.508" height="1"/>
				</g>
				<g>
					
						<rect x="261.601" y="253.87" transform="matrix(0.3118 0.9501 -0.9501 0.3118 436.6889 -94.1635)" fill="#AAABA8" width="43.491" height="1"/>
					
						<rect x="262.528" y="253.87" transform="matrix(0.442 0.897 -0.897 0.442 386.2861 -112.2267)" fill="#AAABA8" width="41.637" height="1.001"/>
				</g>
				<g>
					
						<rect x="264.809" y="253.87" transform="matrix(0.7088 0.7054 -0.7054 0.7088 261.9228 -125.8014)" fill="#AAABA8" width="37.076" height="1.001"/>
					
						<rect x="265.906" y="253.869" transform="matrix(0.8336 0.5524 -0.5524 0.8336 187.6706 -114.1888)" fill="#AAABA8" width="34.881" height="1.001"/>
				</g>
				<g>
					
						<rect x="267.244" y="253.87" transform="matrix(0.9924 0.1234 -0.1234 0.9924 33.5582 -33.0238)" fill="#AAABA8" width="32.206" height="1"/>
					
						<rect x="282.847" y="238.267" transform="matrix(0.1231 0.9924 -0.9924 0.1231 500.9111 -58.129)" fill="#AAABA8" width="1" height="32.206"/>
				</g>
				<g>
					
						<rect x="282.847" y="236.929" transform="matrix(0.5529 0.8333 -0.8333 0.5529 338.6392 -122.369)" fill="#AAABA8" width="1" height="34.882"/>
					
						<rect x="282.846" y="235.832" transform="matrix(0.7047 0.7095 -0.7095 0.7047 264.1696 -125.9214)" fill="#AAABA8" width="1.001" height="37.076"/>
				</g>
				<g>
					
						<rect x="282.847" y="233.552" transform="matrix(0.897 0.4421 -0.4421 0.897 141.664 -99.0638)" fill="#AAABA8" width="1.001" height="41.637"/>
					
						<rect x="282.847" y="232.624" transform="matrix(0.9499 0.3124 -0.3124 0.9499 93.6527 -75.79)" fill="#AAABA8" width="1" height="43.492"/>
				</g>
			</g>
			<path fill="#888886" d="M283.8,229.192c-0.151,0-0.301,0.011-0.453,0.017c-0.152-0.006-0.302-0.017-0.453-0.017
				c-10.124,0-18.33,11.272-18.33,25.178s8.206,25.178,18.33,25.178c0.151,0,0.301-0.011,0.453-0.016
				c0.152,0.005,0.302,0.016,0.453,0.016c10.124,0,18.33-11.272,18.33-25.178S293.924,229.192,283.8,229.192z M267.786,254.37
				c0-11.939,6.926-21.65,15.561-21.981c8.635,0.331,15.561,10.042,15.561,21.981s-6.926,21.651-15.561,21.981
				C274.712,276.021,267.786,266.31,267.786,254.37z"/>
		</g>
		<path fill="#9F9F9D" d="M223.79,269.858c-0.052,0-0.105-0.003-0.158-0.008c-0.824-0.086-1.422-0.824-1.336-1.648l4.726-45.249
			c0.086-0.824,0.825-1.42,1.647-1.336c0.824,0.086,1.422,0.823,1.336,1.647l-4.726,45.25
			C225.199,269.285,224.548,269.858,223.79,269.858z"/>
		<path fill="#9F9F9D" d="M257.26,262.817c-0.36,0-0.722-0.13-1.009-0.392l-29.895-27.221c-0.613-0.558-0.657-1.507-0.099-2.119
			c0.557-0.612,1.505-0.657,2.119-0.1l29.895,27.222c0.613,0.558,0.657,1.507,0.099,2.119
			C258.074,262.651,257.668,262.817,257.26,262.817z"/>
		<path fill="#9F9F9D" d="M257.26,262.817c-0.668,0-1.277-0.449-1.452-1.127c-0.207-0.802,0.276-1.619,1.079-1.826l26.994-6.946
			c0.806-0.207,1.62,0.276,1.827,1.079c0.207,0.801-0.276,1.619-1.079,1.826l-26.994,6.946
			C257.509,262.802,257.383,262.817,257.26,262.817z"/>
		<path fill="#9F9F9D" d="M257.262,262.817c-0.122,0-0.245-0.015-0.368-0.046c-0.804-0.203-1.291-1.019-1.088-1.821l8.75-34.682
			c0.203-0.805,1.02-1.292,1.821-1.088c0.804,0.203,1.291,1.019,1.088,1.821l-8.75,34.682
			C258.543,262.364,257.933,262.817,257.262,262.817z"/>
		<path fill="#9F9F9D" d="M284.256,255.87c-0.488,0-0.966-0.238-1.255-0.676l-18.244-27.734c-0.455-0.692-0.263-1.623,0.429-2.078
			s1.622-0.263,2.078,0.43l18.244,27.734c0.455,0.692,0.263,1.622-0.429,2.077C284.825,255.79,284.539,255.87,284.256,255.87z"/>
		<path fill="#9F9F9D" d="M266.011,228.635c-1.104,0-2-0.896-2-2v-4.5c0-1.104,0.896-2,2-2s2,0.896,2,2v4.5
			C268.011,227.739,267.115,228.635,266.011,228.635z"/>
	</g>
	<path fill="#939491" d="M215.313,225.135c-1.067,0-1.953-0.843-1.997-1.918c-0.045-1.104,0.813-2.034,1.917-2.08l25.086-1.026
		c1.093-0.048,2.035,0.812,2.08,1.917c0.045,1.104-0.813,2.034-1.917,2.08l-25.086,1.026
		C215.368,225.135,215.341,225.135,215.313,225.135z"/>
	<g>
		<path fill="#888886" d="M276.566,219.322c0-0.928-0.898-1.629-1.996-1.557l-5.564,0.363c-1.098,0.072-2.867,0.354-3.933,0.628
			l-5.875,1.506c-1.066,0.273-1.938,1.031-1.938,1.685s0.865,1.435,1.923,1.737l0.529,0.151c1.058,0.303,2.801,0.352,3.874,0.108
			l11.029-2.493C275.688,221.208,276.566,220.25,276.566,219.322z"/>
	</g>
</g>
<g>
	<g>
		<g>
			<g>
				<path fill="#7A574A" d="M361.992,271.085l-4.73,4.642c6.957,6.962,16.516,11.437,28.02,11.09
					c14.807-0.447,28.189-22.531,15.35-28.926C386.562,250.884,391.9,285.175,361.992,271.085z"/>
			</g>
			<g>
				<path fill="#7A574A" d="M352.623,268.616c0.025-0.063,0.053-0.123,0.08-0.184c0.791-1.721,3.107-3.244,4.145-2.296
					c0.625-1.159,2.637,0.124,3.133,1.463c0.924,2.504-0.705,6.263-3.627,6.42C353.123,274.191,351.484,271.359,352.623,268.616z"/>
			</g>
			<g>
				<g>
					<path fill="#7A574A" d="M431.322,305.053c-5.361,4.924-15.361,8.081-25.795,8.081c-8.697,0-18.65-2.459-21.049-9.277
						c-0.934,0.986-1.756,2.035-2.418,3.164c-7.971,13.585-9.178,29.231-4.52,47.764l5.098-0.08
						c2.865-15.189,11.447-26.616,25.232-29.63c2.879,13.222,11.402,27.438,26.166,35.919l5.184-2.638
						C426.152,341.101,433.096,319.117,431.322,305.053z"/>
				</g>
			</g>
			<g>
				<path fill="#7A574A" d="M439.613,302.783c-1.371-0.715-2.451-2.075-1.59-2.905c-0.857-1.186-0.309-3.577,1.398-4.296
					c2.857-1.197,6.695,1.033,6.863,4.163C446.5,303.721,442.414,304.241,439.613,302.783z"/>
			</g>
			<g>
				<path fill="#7A574A" d="M379.742,361.16c-1.545,0.212-5.107,0.606-6.373-0.212c-2.732-1.757,1.762-3.626,4.035-4.293
					C383.246,354.95,386.631,360.204,379.742,361.16z"/>
			</g>
			<g>
				<path fill="#7A574A" d="M439.359,365.221c-1.377,0.728-4.586,2.312-6.057,1.978c-3.172-0.718,0.412-4.01,2.328-5.412
					C440.535,358.187,445.512,361.968,439.359,365.221z"/>
			</g>
			<g>
				<path fill="#7A574A" d="M415.59,215.771c-2.961-2.948-6.088-5.172-10.721-5.979c-8.172-1.424-24.777,4.012-23.408,10.715
					c3.164-2.633,9.807-0.719,12.486,4.373c2.24,4.25,3.992,13.311,7.957,14.537c4.932,1.525,6.318,11.249,6.318,11.249
					s8.369-2.292,11.693-12.646C423.244,227.666,419.158,219.319,415.59,215.771z"/>
				<g>
					<path fill="#7A574A" d="M413.633,248.879c-2.344,1.791-4.4,2.521-4.988,2.705c-6.053,4.059-12.959,5.539-17.15,5.581
						c-2.232,3.38-4.086,7.537-5.465,12.151c-3.379,11.312-3.424,24.467-0.779,33.749c3.498,12.282,35.035,11.639,45.898,0.788
						c-4.16-20.14-4.975-36.051-4.975-36.051s11.029,3.436,15.232,26.135l5.008,2.136
						C450.916,271.894,431.684,252.718,413.633,248.879z"/>
				</g>
			</g>
			<path fill="#7A574A" d="M407.234,250.808c-0.365-2.531-2.084-9.34-5.627-10.436c-3.221-0.997-4.938-5.697-6.598-10.244
				c-0.664-1.818-1.291-3.537-1.947-4.783c-1.814-3.447-5.402-5.018-7.969-5.018c-1.213,0-2.248,0.328-2.992,0.948l-0.562,0.468
				c-1.727,3.047-2.822,6.645-2.969,10.736c-0.516,14.772,6.93,22.982,10.865,23.566c3.605,0.535,11.211-0.625,17.863-4.787
				L407.234,250.808z M382.992,239.411c-0.762,0.027-1.422-1.136-1.469-2.596c-0.049-1.467,0.531-2.67,1.295-2.695
				c0.76-0.027,1.42,1.139,1.469,2.599C384.336,238.181,383.758,239.386,382.992,239.411z"/>
		</g>
	</g>
</g>
</svg>
