<?xml version="1.0" encoding="utf-8"?>
<!-- Generator: Adobe Illustrator 15.0.2, SVG Export Plug-In . SVG Version: 6.00 Build 0)  -->
<!DOCTYPE svg PUBLIC "-//W3C//DTD SVG 1.1//EN" "http://www.w3.org/Graphics/SVG/1.1/DTD/svg11.dtd">
<svg version="1.1" id="Layer_1" xmlns="http://www.w3.org/2000/svg" xmlns:xlink="http://www.w3.org/1999/xlink" x="0px" y="0px"
	 width="720px" height="460px" viewBox="0 0 720 460" enable-background="new 0 0 720 460" xml:space="preserve">
<polygon fill="#E6DBC3" points="195.282,83.629 113.651,49.707 113.651,410.293 195.282,331.293 "/>
<rect x="195.282" y="83.629" fill="#F5EBD1" width="329.436" height="247.664"/>
<polygon fill="#D7A89E" points="606.349,410.293 113.651,410.293 195.282,331.293 524.718,331.293 "/>
<polygon fill="#BCAD8D" points="180.937,345.27 133.216,391.115 133.216,90.428 180.937,107.969 "/>
<polygon fill="#C9BB9C" points="173.476,352.396 140.677,383.947 140.677,105.715 173.476,117.039 "/>
<path fill="#AE9E7D" d="M162.815,235.199c0.922,3.402-2.383,4.703-5.74,5.875c-5.234,1.83-9.615,2.857-15.527,2.699
	c-3.16-0.084-4.994-2.74-3.016-5.377c1.236-1.648,8.465-1.279,11.332-1.992C152.685,235.703,162.003,232.197,162.815,235.199z"/>
<g>
	<g>
		<path fill="#7A574A" d="M363.38,213.405c0,0-23.639,13.979-26.714-12.192l-11.069,0.861c-5.35,29.797,31.675,44.532,49.804,33.483
			"/>
		<path fill="#7A574A" d="M405.571,289.931c-1.73,0.438-3.168,1.868-4.158,3.963c3.149-0.93,6.064-1.993,8.609-3.161
			c-1.1-0.57-2.27-0.931-3.359-0.931C406.286,289.802,405.921,289.844,405.571,289.931z"/>
		<g>
			<path fill="#7A574A" d="M408.872,289.167c0.713,0.223,1.434,0.54,2.133,0.95c0.042,0.025,0.083,0.062,0.125,0.09
				c0.65-0.32,1.271-0.646,1.862-0.98L408.872,289.167z"/>
			<path fill="#7A574A" d="M415.034,249.637c1.658,13.135,1.229,26.942-1.186,39.089c3.67-2.228,5.963-4.72,6.115-7.315
				C420.513,272.042,418.072,260.01,415.034,249.637z"/>
		</g>
		<g>
			<path fill="#7A574A" d="M404.816,300.857c-0.786-0.667-1.057,0.066-2.405,0.56c-4.491,1.643-2.211-4.809-1.123-7.268
				c0.991-2.239,2.48-3.762,4.283-4.219c1.509-0.378,3.327,0.107,4.926,1.049c4.409,2.596,8.272,19.225-0.661,16.719
				c-3.459-0.971-2.55-3.79-4.309-6.053C405.24,301.276,405.013,301.024,404.816,300.857z"/>
			<g>
				<g>
					<path fill="#7A574A" d="M401.159,301.682c0.342,0,0.756-0.083,1.252-0.265c0.963-0.353,1.376-0.827,1.82-0.827
						c0.178,0,0.359,0.076,0.585,0.268c0.196,0.167,0.424,0.419,0.711,0.788c1.759,2.263,0.85,5.082,4.309,6.053
						c0.622,0.175,1.183,0.257,1.686,0.257c6.415,0,3.373-13.313-0.493-16.586c-2.947,1.416-6.396,2.678-10.142,3.746
						C399.911,297.604,398.758,301.682,401.159,301.682z"/>
				</g>
				<g>
					<path fill="#7A574A" d="M419.577,285.064c-1.507,2.113-4.17,4.08-7.598,5.833c2.949,2.878,5.085,10.228,3.937,14.442
						c-0.636,2.331-2.196,3.615-4.395,3.615c-0.604,0-1.261-0.1-1.956-0.294c-2.717-0.763-3.287-2.552-3.79-4.132
						c-0.26-0.814-0.505-1.586-1.038-2.27c-0.225-0.291-0.41-0.5-0.547-0.621c-0.067,0.036-0.148,0.084-0.215,0.123
						c-0.287,0.168-0.682,0.396-1.221,0.594c-0.599,0.22-1.121,0.326-1.596,0.326c-0.842,0-1.536-0.355-1.956-1
						c-0.943-1.449-0.247-4.208,0.485-6.232c-8.003,2.158-17.199,3.434-25.615,3.434c-11.37,0-19.314-2.279-23.125-6.516
						c-5.736,22.854-7.458,52.781,0.77,78.691l10.663,1.406c3-21.156,10.416-45.25,24.5-54.406
						c5.72,20.215,22.578,34.884,46.266,46.624l7.449-6.346C420.365,334.774,424.953,309.326,419.577,285.064z"/>
				</g>
			</g>
		</g>
		<g>
			<path fill="#7A574A" d="M355.527,380.853c-2.375,0.479-7.858,1.429-9.898,0.279c-4.4-2.463,2.389-5.784,5.848-7.037
				C360.365,370.897,366.113,378.72,355.527,380.853z"/>
		</g>
		<g>
			<path fill="#7A574A" d="M443.566,370.399c-2.068,1.254-6.893,4.017-9.204,3.639c-4.979-0.811-0.071-8.019,2.762-10.376
				C444.383,357.617,452.79,364.772,443.566,370.399z"/>
		</g>
		<g>
			<path fill="#7A574A" d="M401.701,205.794c-0.393-5.865,2.795-15.717,5.15-22.692c2.518-7.458,3.908-13.376,3.422-20.173
				c-0.465-6.531-3.449-12.879-9.353-17.274c-7.031-5.233-16.895-7.56-23.169-7.455c-2.634,0.042-21.531,1.946-26.026,13.74
				c7.746-4.864,15.312-2.703,20.979,5.956c-1.502,6.604-2.6,14.207-3.281,23.923c-0.681,9.759,2.278,21.031,5.408,27.18
				c3.678-2.298,6.799-4.911,6.799-4.911s1.995,1.504,7.909,6.279c0.828-4.342,3.172-8.22,3.172-8.22
				S397.596,203.989,401.701,205.794z"/>
			<g>
				<path fill="#7A574A" d="M403.475,288.09l9.454,0.136c5.838-29.851-0.265-69.624-20.139-84.108
					c-0.73,1.469-1.781,3.878-2.269,6.437l-0.312,1.639l-1.298-1.048c-4.064-3.281-6.285-5.023-7.264-5.782
					c-1.1,0.882-3.523,2.757-6.287,4.483l-0.926,0.579l-0.494-0.974c-0.529-1.039-1.049-2.228-1.547-3.511
					c-3.212,0.534-6.357,0.814-9.289,0.814c-1.904,0-3.691-0.128-5.363-0.35c-7.161,7.815-9.701,19.528-11.652,32.816
					c-2.429,16.545,1.431,37.73,3.46,48.242c2.423,12.554,30.637,12.352,50.606,6.789c0.078-0.185,0.152-0.358,0.219-0.509
					c1.049-2.372,2.639-3.99,4.503-4.635l-2.345-0.033l-0.027-0.464c-1.826-30.867-13.613-54.989-13.732-55.229l0.896-0.443
					C389.788,233.18,401.546,257.245,403.475,288.09z"/>
			</g>
		</g>
	</g>
	<g>
		<path fill="#7A574A" d="M336.188,194.552c0.545-2.587,0.723-6.774,0.312-9.109c-0.428-2.43-3.092-1.646-3.484,0
			c-0.471-2.979,0.853-7.437,0.968-8.995c0.263-3.543-2.522-2.081-3.675-0.262c-1.139,1.797-2.935,5.495-3.411,11.388
			c-0.531,6.568,1.779,12.143,4.625,12.386C334.043,200.173,335.681,196.963,336.188,194.552z"/>
	</g>
</g>
<g>
	<path fill="#7A574A" d="M368.425,181.748c0.648-9.232,1.67-16.764,3.21-23.655c-3.402-5.04-7.509-7.702-11.897-7.702
		c-2.433,0-4.949,0.807-7.48,2.396l-0.469,0.294c-1.01,1.369-1.953,2.839-2.821,4.415c-4.283,7.796-5.742,13.812-6.479,18.9
		c0,0,0.263,5.783,8.638,10.516c-4.016,5.101-7.33,5.863-7.33,5.863c0.938,5.207,2.697,7.779,5.559,9.797
		c4.142,2.922,12.538,4.068,22.679,2.411C369.646,198.441,367.884,189.518,368.425,181.748z M354.031,169.069
		c-0.965,2.076-2.623,3.354-3.712,2.852c-1.081-0.502-1.181-2.594-0.219-4.668c0.963-2.084,2.624-3.352,3.71-2.853
		C354.891,164.901,354.994,166.995,354.031,169.069z"/>
</g>
</svg>
