<?xml version="1.0" encoding="utf-8"?>
<!-- Generator: Adobe Illustrator 15.0.2, SVG Export Plug-In . SVG Version: 6.00 Build 0)  -->
<!DOCTYPE svg PUBLIC "-//W3C//DTD SVG 1.1//EN" "http://www.w3.org/Graphics/SVG/1.1/DTD/svg11.dtd">
<svg version="1.1" id="Layer_1" xmlns="http://www.w3.org/2000/svg" xmlns:xlink="http://www.w3.org/1999/xlink" x="0px" y="0px"
	 width="720px" height="460px" viewBox="0 0 720 460" enable-background="new 0 0 720 460" xml:space="preserve">
<path fill="#6185A6" d="M299.598,131.276c114.462-15.138,218.78,1.237,287.446,71.068c45.674,46.455,41.713,108.029,4.508,144.807
	c-41.387,40.91-125.381,74.652-244.271,74.652c-114.896,0-202.371-48.711-234.767-96.244
	c-23.293-34.174-15.355-91.525,26.535-127.609C184.647,158.678,230.059,140.469,299.598,131.276z"/>
<g>
	<polygon fill="#6F4435" points="474.999,111.505 245,111.505 243,44.429 476.999,44.429 	"/>
	<polygon fill="#825C4F" points="474.999,38.197 245,38.197 243,44.429 476.999,44.429 	"/>
	<polygon fill="#6F4435" points="517.001,361.197 203,361.197 188,298.197 532.001,298.197 	"/>
	<polygon fill="#825C4F" points="474.999,110.479 245,110.479 188,298.197 532.001,298.197 	"/>
	<polygon fill="#6C94B2" points="464.286,115.223 255.715,115.223 204.024,285.453 515.976,285.453 	"/>
</g>
<path fill="#9AC1D5" d="M418.676,80.054c-8.096-14.129-107.061-15.22-117.451,0c-10.39,15.218-19.792,47.558-12.681,68.504
	c7.113,20.945,136.036,11.464,142.813,0C438.134,137.093,426.771,94.182,418.676,80.054z"/>
<path fill="#9AC1D5" d="M458.021,150.888c-32.297-26.82-173.84-21.036-195.944,0c-22.104,21.036-60.027,82.946-40.041,109.515
	s254.135,19.16,276.028,0C519.954,241.242,490.317,177.708,458.021,150.888z"/>
<g>
	<path fill="#7A574A" d="M401.508,155.048c-0.604,0.891-3.76,2.08-5.258,0.912c-1.359-1.059-0.496-2.877-1.293-3.447
		c-0.443-0.317-1.545,0.176-2.207-0.228c-1.396-0.849,2.15-4.162,5.141-4.16C401.281,148.126,402.83,153.097,401.508,155.048z"/>
	<path fill="#7A574A" d="M314.389,155.048c0.604,0.891,3.762,2.08,5.26,0.912c1.357-1.059,0.494-2.877,1.293-3.447
		c0.443-0.317,1.52,0.176,2.184-0.228c1.396-0.849-2.127-4.162-5.119-4.16C314.615,148.126,313.066,153.097,314.389,155.048z"/>
	<g>
		<g>
			<path fill="#7A574A" d="M372.859,112.069c-5.643,5.583-12.256,8.705-16.859,8.705c-5.386,0-12.25-3.483-17.564-8.888
				c-17.791,4.417-26.422,16.968-24.164,35.69l6.479-0.628c0.389-16.622,13.916-18.75,13.916-18.75l-2.68,5.836
				c0,0,11.004-1.157,24.014-1.157c10.936,0,28.279,0.5,28.279,0.5l-1.705-4.18c0,0,12.217,6.084,12.551,17.75l5.879,0.51
				C402.867,126.967,390.623,116.157,372.859,112.069z"/>
		</g>
		<g>
			<path fill="#7A574A" d="M375.084,89.957c-3.308-2.762-10.895-11.423-14.035-17.429c-4.924,4.559-15.217,8.021-20.121,9.483
				c-0.246,0.72-0.52,1.551-0.832,2.5c-1.011,3.068-2.396,7.271-4.551,13.018c-0.677,1.807-1.535,3.603-2.46,5.32
				c5.742,10.976,16.275,16.925,22.915,16.925c5.711,0,14.848-5.217,20.881-14.156C376.873,100.463,376.518,94.126,375.084,89.957z
				 M346.275,99.951c-1.248,0.009-2.223-1.543-2.187-3.465c0.04-1.919,1.081-3.482,2.317-3.489c1.24-0.007,2.219,1.54,2.181,3.466
				C348.55,98.384,347.513,99.947,346.275,99.951z M365.109,99.979c-1.244,0.006-2.215-1.633-2.176-3.664
				c0.043-2.028,1.088-3.678,2.328-3.684c1.24-0.004,2.213,1.635,2.17,3.663C367.391,98.325,366.34,99.969,365.109,99.979z"/>
		</g>
		<path fill="#7A574A" d="M385.729,76.817c-5.584-13.368-12.199-19.935-23.197-21.652c-16.496-3.438-31.789,6.53-36.943,20.964
			c-4.086,11.44-4.328,19.969-8.939,26.382c3.809-0.099,7.393-1.725,7.393-1.725l0.471,12.973c0,0,7.004-8.333,10.098-16.583
			c2.617-6.981,4.113-11.732,5.137-14.794c-3.312,0.878-7.532,1.199-7.723,1.213l-1.327,0.099l0.935-0.948
			c0.045-0.046,4.573-4.657,6.543-8.169l0.872,0.489c-1.496,2.668-4.312,5.838-5.774,7.407c1.684-0.18,4.637-0.566,6.863-1.239
			l0.001,0.004c0.005-0.013,0.009-0.028,0.015-0.042c4.998-1.463,15.75-5.087,20.428-9.613c-0.645-1.324-1.576-3.398-1.877-4.911
			l0.98-0.195c0.26,1.306,1.072,3.148,1.637,4.334c0.002-0.003,0.006-0.007,0.01-0.01c2.494,5.747,11.17,15.808,14.605,18.558
			c0.002,0.005,0.004,0.012,0.006,0.017c1.781,1.442,4.25,2.884,5.691,3.679c-0.741-2.013-2.109-6.025-2.454-9.064l0.993-0.113
			c0.455,4.004,2.844,10.005,2.868,10.065l0.495,1.236l-1.187-0.605c-0.155-0.079-3.288-1.687-5.897-3.553
			c2.307,8.619,1.143,23.276,1.143,23.276l5.754-8.203l1.807,4.323C385.152,110.417,391.398,90.392,385.729,76.817z"/>
	</g>
</g>
</svg>
