<?xml version="1.0" encoding="utf-8"?>
<!-- Generator: Adobe Illustrator 15.0.2, SVG Export Plug-In . SVG Version: 6.00 Build 0)  -->
<!DOCTYPE svg PUBLIC "-//W3C//DTD SVG 1.1//EN" "http://www.w3.org/Graphics/SVG/1.1/DTD/svg11.dtd">
<svg version="1.1" id="Layer_1" xmlns="http://www.w3.org/2000/svg" xmlns:xlink="http://www.w3.org/1999/xlink" x="0px" y="0px"
	 width="720px" height="460px" viewBox="0 0 720 460" enable-background="new 0 0 720 460" xml:space="preserve">
<g>
	<g>
		<path fill="#E0D3B5" d="M369.327,280.303c0,1.65-1.35,3-3,3H246.181c-1.65,0-3-1.35-3-3V59.33c0-1.65,0.998-3.909,2.217-5.021
			l4.544-4.142c1.22-1.112,3.567-2.021,5.217-2.021h102.191c1.65,0,3.998,0.91,5.217,2.021l4.543,4.142
			c1.219,1.111,2.217,3.371,2.217,5.021V280.303z"/>
	</g>
	<g>
		<path fill="#BAD0DE" d="M363.589,270.969c0,1.65-1.35,3-3,3h-108.67c-1.65,0-3-1.35-3-3V67.92c0-1.65,1.35-3,3-3h108.67
			c1.65,0,3,1.35,3,3V270.969z"/>
	</g>
	<g>
		<path fill="#DEEBF1" d="M358.745,262.854c0,1.65-1.35,3-3,3h-98.982c-1.65,0-3-1.35-3-3V86.945c0-1.65,1.35-3,3-3h98.982
			c1.65,0,3,1.35,3,3V262.854z"/>
	</g>
	<rect x="248.919" y="147.137" fill="#BAD0DE" width="111.113" height="7.967"/>
	<rect x="248.919" y="115.352" fill="#BAD0DE" width="111.113" height="7.967"/>
	<rect x="248.919" y="180.82" fill="#BAD0DE" width="111.113" height="9.135"/>
	<rect x="248.919" y="215.326" fill="#BAD0DE" width="111.113" height="12.195"/>
	<polygon fill="#E0D3B5" points="326.161,296.465 243.749,267.965 243.749,117.857 247.661,116.746 330.411,139.354 
		326.161,140.965 	"/>
	<rect x="326.161" y="139.354" fill="#E0D3B5" width="4.25" height="157.111"/>
	<path fill="#F3E6C6" d="M326.161,296.465l-82.98-29.611V116.746c0,0,2.193,6.859,8.029,8.76c10,3.256,37.355,11.766,53.701,16.348
		c8.195,2.299,21.25-0.889,21.25-0.889V296.465z"/>
	<g>
		<path fill="#F3E6C6" d="M369.327,113.336c0,3.3-2.7,6-6,6H249.181c-3.3,0-6-2.7-6-6V60.152c0-3.3,2.7-6,6-6h114.146
			c3.3,0,6,2.7,6,6V113.336z"/>
	</g>
	<path fill="#C9BB9C" d="M360.032,96.076c-0.829,0-1.5-0.672-1.5-1.5V76.625c0-0.828,0.671-1.5,1.5-1.5c0.828,0,1.5,0.672,1.5,1.5
		v17.951C361.532,95.404,360.86,96.076,360.032,96.076z"/>
</g>
<polygon fill="#D7A89E" points="571.755,411.854 148.245,411.854 249.245,269.418 489.245,269.418 "/>
<g>
	<g>
		<g>
			<g>
				<g>
					<path fill="#C83B0C" d="M506.626,261.473c-0.381-6.502-3.613-10.9-8.944-13.826c-1.338,8.367-3.622,17.35-6.862,26.986
						l-0.177,0.525l-9.527-4.332l0.022-0.344c0.745-11.74,0.527-20.645-0.131-27.369c-4.889-0.559-10.303-0.779-16.1-0.787
						c-19.936-0.023-33.84,3.707-34.062,23.346c-0.225,19.857,2.027,40.465,6.852,65.682l8.697,0.328
						c5.896-20.039,11.143-28.965,19.188-38.637c8.551,11.965,12.434,27.07,17.256,49.717l7.934,0.18
						C500.024,316.66,508.181,287.934,506.626,261.473z"/>
				</g>
			</g>
			<path fill="#C83B0C" d="M486.157,351.637c-2.209,0.168-7.293,0.402-9.018-0.865c-3.717-2.734,2.82-4.986,6.107-5.727
				C491.679,343.143,496.013,350.896,486.157,351.637z"/>
			<path fill="#C83B0C" d="M442.062,340.033c-2.203,0.227-7.279,0.615-9.037-0.605c-3.795-2.623,2.674-5.062,5.938-5.9
				C447.337,331.383,451.892,339.004,442.062,340.033z"/>
			<g>
				<path fill="#C83B0C" d="M438.484,209.939c-7.194,1.055-18.253,1.475-34.956-0.295l-4.322,8.535
					c11.983,4.6,23.037,7.621,33.193,9.08C434.093,221.225,436.144,215.332,438.484,209.939z"/>
			</g>
			<path fill="#C83B0C" d="M512.253,169.154c-3.248-5.578-3.219-14.961-3.48-23.037c-0.484-14.82-2.18-19.162-8.271-25.309
				c-5.057-5.102-10.404-8.959-18.352-10.4c-9.465-1.715-20.295,0.812-26.416,3.975c-2.568,1.326-7.803,3.744-12.945,6.67
				c-3.422,1.943-13.281,4.629-17.393,4.236c2.174,2.391,9.15,4.367,12.963,5.602c-3.41,2.645-10.463,4.463-10.729,5.311
				c9.943,2.912,21.018,1.834,32.75,0.008c1.744,7.227,4.373,15.236,8.445,25.119c4.09,9.93,11.881,19.039,17.957,23.557
				c2.496-4.053,4.289-8.145,4.289-8.145s3.311,1.033,11.453,2.84c-1.301-4.668-0.889-9.629-0.889-9.629
				S507.337,169.383,512.253,169.154z"/>
			<path fill="#C83B0C" d="M467.901,161.709c-3.791-9.199-6.432-16.973-8.273-24.373c-5.537,0.848-11.916,1.668-18.074,1.668
				c-1.197,0-2.356-0.035-3.488-0.096c-0.666,2.672-1.092,5.5-1.219,8.486c-1.061,25.385,11.639,39.58,18.396,40.627
				c5.507,0.855,17.216,0.4,27.255-5.447C477.194,177.605,471.335,170.043,467.901,161.709z M444.364,160.859
				c-1.309,0.037-2.428-1.971-2.494-4.482c-0.07-2.518,0.945-4.574,2.256-4.613c1.307-0.035,2.43,1.975,2.492,4.482
				C446.685,158.76,445.679,160.826,444.364,160.859z"/>
		</g>
		<g>
			<path fill="#C83B0C" d="M482.636,183.672c-8.861,5.043-18.307,5.686-22.473,5.686c-1.854,0-3.608-0.121-5.072-0.348
				c-0.578-0.09-1.191-0.271-1.824-0.523c-15.828,15.814-25.045,51.135-25.045,72.596c0.001,10.289,36.065,15.832,59.792,12.881
				l-6.898-3.137l0.022-0.344c2.436-38.363-5.382-46.582-5.461-46.66l0.704-0.711c0.335,0.334,8.172,8.574,5.776,47.09l7.717,3.508
				c0.07-0.01,0.139-0.021,0.209-0.033c11.367-34.15,10.646-59.965-2.202-78.904l0.827-0.561
				c12.972,19.121,13.781,45.072,2.48,79.293c9.995-1.66,17.118-5.029,17.121-10.438
				C508.325,241.137,504.077,196.158,482.636,183.672z"/>
		</g>
	</g>
	<g>
		<ellipse fill="#A5B5C7" cx="392.077" cy="246.672" rx="8.838" ry="2.611"/>
		<path fill="#BAC6D4" d="M397.553,213.723c-1.104-1.828-2.161-2.768-5.165-3.633c-0.146-0.041-0.314-0.086-0.496-0.135
			c-1.08-0.287-2.646-0.705-3.441-1.584c0.02,0.25,0.025,0.516,0.037,0.773c0.832,0.51,1.561,1.312,2.021,2.316
			c0.689,1.506,0.363,3.619-0.853,5.514c-1.242,1.934-3.032,3.09-4.791,3.09c-0.165,0-0.329-0.01-0.495-0.031
			c-0.351-0.043-0.651-0.127-0.924-0.229c-0.787,1.742-1.348,3.723-1.348,6.029c0,10.508,0,21.48,0,21.48v0.002
			c0,1.627,4.469,2.947,9.979,2.947c5.512,0,9.979-1.32,9.979-2.947v-0.002c0,0,0-10.846,0-21.266
			C402.056,220.795,399.183,216.822,397.553,213.723z"/>
		<path fill="#D5DEE6" d="M392.077,222.287c-4.791,0-8.676,1.148-8.676,2.564v21.256c0,1.416,3.885,2.562,8.676,2.562
			c4.793,0,8.678-1.146,8.678-2.562v-21.256C400.755,223.436,396.87,222.287,392.077,222.287z"/>
		<path fill="#BE5438" d="M392.085,230.906c-5.518,0-9.99-1.322-9.99-2.951v16.461c0,1.629,4.473,2.949,9.99,2.949
			s9.988-1.32,9.988-2.949v-16.461C402.073,229.584,397.603,230.906,392.085,230.906z"/>
		<path fill="#C97159" d="M392.085,233.191c-5.518,0-9.99-1.322-9.99-2.949v7.523c0,1.629,4.473,2.949,9.99,2.949
			s9.988-1.32,9.988-2.949v-7.523C402.073,231.869,397.603,233.191,392.085,233.191z"/>
		<ellipse fill="#E1E8EE" cx="392.078" cy="224.852" rx="8.677" ry="2.564"/>
	</g>
	<g>
		<path fill="#C83B0C" d="M392.665,209.129c-1.25-0.359-3.943-0.879-3.701-2.219c0.402-2.209,6.557-1.422,8.482-0.281
			c1.875,1.107,2.623,2.809,2.621,5.102c-0.002,0.646-0.172,1.688-0.861,2.891C397.587,211.629,396.626,210.27,392.665,209.129z"/>
		<g>
			<g>
				<path fill="#BAC6D4" d="M392.235,204.506c1.521,0,3.27,0.301,4.566,0.75c0.477-3.586,1.275-5.898,1.275-5.898l-11.861,0.166
					c0,0,1.323,2.586,1.97,6.609C388.581,205.361,389.61,204.506,392.235,204.506z"/>
				<path fill="#CBD4DF" d="M398.247,198.861c0-1.371-2.162-2.48-6.17-2.48c-4.125,0-6.166,1.109-6.166,2.48
					c0,1.369,2.088,2.48,6.166,2.48C396.085,201.342,398.247,200.23,398.247,198.861z"/>
				<path fill="#A3B4C6" d="M397.179,198.861c0-1.074-1.824-1.945-5.102-1.945c-3.127,0-5.1,0.871-5.1,1.945s1.902,1.945,5.1,1.945
					C395.329,200.807,397.179,199.936,397.179,198.861z"/>
				<g>
					<path fill="#C83B0C" d="M384.642,210.537c1.662-1.988,4.037-0.666,4.959,1.342c1.213,2.646-1.902,7.562-5.105,7.162
						C380.507,218.543,383.062,212.432,384.642,210.537z"/>
				</g>
			</g>
		</g>
	</g>
</g>
<g>
	<polygon fill="#A15A34" points="542.827,314.893 178.228,314.893 174.579,303.947 546.476,303.947 	"/>
	<polygon fill="#AB6C4A" points="546.476,303.947 174.579,303.947 223.245,252.863 510.429,252.863 	"/>
	<polygon fill="#A15A34" points="509.819,401.389 499.091,401.744 496.749,395.004 506.476,309.42 524.108,309.42 	"/>
	<polygon fill="#A15A34" points="214.706,401.389 225.435,401.744 227.778,395.004 218.05,309.42 200.419,309.42 	"/>
</g>
<path fill="#FFFFFF" d="M457.37,159.396c0.791,1.473,3.449,5.486,0.307,5.693C453.927,165.338,456.897,160.959,457.37,159.396z"/>
<path fill="#FFFFFF" d="M462.78,177.873c0.791,1.473,3.449,5.486,0.307,5.693C459.337,183.814,462.308,179.436,462.78,177.873z"/>
<path fill="#FFFFFF" d="M461.097,197.764c0.791,1.471,3.449,5.484,0.307,5.693C457.653,203.705,460.624,199.326,461.097,197.764z"/>
<path fill="#FFFFFF" d="M451.519,141.043c0.791,1.473,3.449,5.486,0.307,5.693C448.075,146.984,451.046,142.605,451.519,141.043z"/>
<g>
	<g>
		<path fill="#C2C3C1" d="M459.228,258.736c-8.604-0.121-12.869,2.229-12.793,4.49l4.305,21.932
			c0.066,2.061,4.322,3.793,9.496,3.869c5.178,0.074,9.318-1.535,9.25-3.596l3.719-21.844
			C473.128,261.324,468.013,258.863,459.228,258.736z"/>
		<path fill="#DDDCD6" d="M473.308,263.566c0.059,1.953-4.604,4.598-13.857,4.475c-8.932-0.113-13.064-2.834-13.119-4.787
			c-0.057-1.961,4.471-4.635,12.844-4.525C467.548,258.836,473.249,261.609,473.308,263.566z"/>
		<path fill="#C2C3C1" d="M471.915,263.57c0.057,1.668-4.119,3.918-12.416,3.799c-8.012-0.119-11.723-2.449-11.775-4.119
			c-0.055-1.674,4-3.951,11.51-3.844C466.741,259.516,471.858,261.896,471.915,263.57z"/>
	</g>
	<path fill="#AAABA8" d="M468.481,285.244c0.049,1.549-3.555,2.754-8.059,2.689c-4.5-0.066-8.189-1.373-8.242-2.926
		c-0.051-1.551,3.553-2.75,8.057-2.686C464.737,282.387,468.427,283.693,468.481,285.244z"/>
</g>
</svg>
