<?xml version="1.0" encoding="utf-8"?>
<!-- Generator: Adobe Illustrator 15.0.2, SVG Export Plug-In . SVG Version: 6.00 Build 0)  -->
<!DOCTYPE svg PUBLIC "-//W3C//DTD SVG 1.1//EN" "http://www.w3.org/Graphics/SVG/1.1/DTD/svg11.dtd">
<svg version="1.1" id="Layer_1" xmlns="http://www.w3.org/2000/svg" xmlns:xlink="http://www.w3.org/1999/xlink" x="0px" y="0px"
	 width="720px" height="460px" viewBox="0 0 720 460" enable-background="new 0 0 720 460" xml:space="preserve">
<path fill="#BBC05E" d="M291.51,262.862c129.791-8.515,248.078,0.697,325.939,39.98c51.789,26.134,47.297,60.771,5.111,81.461
	C575.63,407.317,480.389,426.3,345.577,426.3c-130.281,0-229.468-27.402-266.205-54.143c-26.412-19.225-17.411-51.488,30.09-71.787
	C161.165,278.278,212.658,268.034,291.51,262.862z"/>
<path fill="#E9DCBE" d="M345.858,275.081c98.295-6.627,187.878,0.543,246.846,31.119c39.222,20.34,35.821,47.301,3.871,63.404
	c-35.541,17.912-107.673,32.688-209.769,32.688c-98.667,0-173.786-21.328-201.608-42.141
	c-20.002-14.965-13.187-40.076,22.789-55.877C247.144,287.079,286.141,279.106,345.858,275.081z"/>
<g>
	<g>
		<g>
			<g>
				<path fill="#A1856E" d="M435.729,105.851c0.807,0.059,1.684,0.553,2.268,0.948c0.18-0.908,0.282-1.784,0.297-2.621
					c-0.914,0.636-1.801,1.173-2.672,1.668C435.656,105.848,435.691,105.848,435.729,105.851z"/>
			</g>
			<g>
				<path fill="#A1856E" d="M431.783,107.999c0.07-0.133,0.137-0.269,0.217-0.39c-0.303,0.123-0.613,0.257-0.907,0.364
					C431.336,107.938,431.566,107.95,431.783,107.999z"/>
			</g>
		</g>
		<g>
			<path fill="#A1856E" d="M446.409,94.477c0.078-0.367,0.092-0.717-0.002-1.036c-0.352-1.194-1.929-2.333-4.689-3.383
				c-3.04-1.158-6.112-1.721-9.39-1.721c-3.608,0-7.461,0.684-11.777,2.089c-1.021,0.333-2.193,0.502-3.484,0.502
				c-2.393,0-5.008-0.568-7.486-1.557c-0.081,1.515,0.104,3.106,0.514,4.653c1.588,5.989,5.592,11.188,8.068,13.135
				c3.053,2.403,13.549,2.286,23.729-7.164c0.07-0.069,0.146-0.148,0.23-0.227l0.186-0.191c1.092-1.139,2.121-2.36,3.061-3.632
				C445.728,95.457,446.077,94.967,446.409,94.477z"/>
		</g>
		<g>
			<path fill="#FFFFFF" d="M427.734,96.269c0.848-1.225,2.053-1.86,2.691-1.418c0.643,0.443,0.473,1.795-0.375,3.022
				c-0.844,1.227-2.053,1.857-2.691,1.417C426.721,98.848,426.887,97.495,427.734,96.269z"/>
		</g>
		<g>
			<path fill="#FFFFFF" d="M439.282,100.348c-0.868,1.246-2.024,1.942-2.585,1.558c-0.564-0.39-0.32-1.717,0.543-2.971
				c0.867-1.252,2.024-1.949,2.585-1.562C440.388,97.761,440.144,99.094,439.282,100.348z"/>
		</g>
	</g>
	<g>
		<g>
			<path fill="#A1856E" d="M434.773,110.829c0.077,1.38-0.305,2.635-1.197,2.755c-0.711,0.102-1.045-0.767-1.301-1.56
				c-0.271-0.858-0.131-2.061,0.086-2.817c0.476-1.653,1.711-2.477,3.295-2.359c0.969,0.071,2.33,1.183,2.33,1.183L434.773,110.829z
				"/>
			<g>
				<path fill="#6F4435" d="M506.276,48.587c-0.755-0.808-2.021-0.852-2.827-0.098l-67.691,63.146
					c-0.117,1.655-0.871,2.782-2.039,2.938c-0.088,0.013-0.172,0.019-0.254,0.019c-0.27,0-0.494-0.068-0.701-0.163l-9.354,8.725
					c-0.807,0.753-0.852,2.02-0.098,2.827c0.395,0.422,0.928,0.635,1.463,0.635c0.488,0,0.979-0.177,1.363-0.538l80.039-74.665
					C506.986,50.661,507.029,49.395,506.276,48.587z"/>
			</g>
		</g>
	</g>
	<g>
		<g>
			<g>
				<path fill="#A1856E" d="M403.559,84.515c4.529,4.175,12.148,6.438,16.684,4.961c8.432-2.747,15.326-2.83,21.831-0.353
					c5.324,2.026,6.664,4.479,4.266,7.729c6.789-2.201,7.426-13.547,5.852-19.684c-1.811-7.058-8.934-15.589-19.69-17.482
					c-4.752-0.835-12.719,0.364-19.018,1.864c-5.076,1.208-11.684-0.736-16.16-3.968C392.867,74.146,400.115,81.343,403.559,84.515z
					"/>
				<path fill="#6F4435" d="M413.25,60.578c2.244-0.534,4.469-0.978,6.596-1.323l10.814-11.706c0.75-0.811,0.699-2.077-0.112-2.826
					c-0.812-0.75-2.077-0.699-2.826,0.112l-14.558,15.758C413.191,60.586,413.223,60.584,413.25,60.578z"/>
			</g>
		</g>
	</g>
	<g>
		<path fill="#A1856E" d="M364.131,109.519c0.258,1.199,1.068,2.493,2.557,2.418c1.637-0.083,2.664-0.772,2.998-2.07
			c0.482-1.863,0.109-3.044,0.006-3.663l2.625-2.941c-0.332-0.605-1.102-1.086-2.689-1.109
			C366.189,102.104,363.385,106.081,364.131,109.519z"/>
		<g>
			<g>
				<path fill="#A1856E" d="M423.332,109.469c-2.484,0-4.539-0.542-5.789-1.524c-2.936-2.31-6.884-7.884-8.416-13.665
					c-0.486-1.835-0.648-3.655-0.51-5.339c-2.131-0.959-4.13-2.209-5.736-3.691c-1.369-1.261-3.746-3.456-5.547-7.046
					c-16.527-2.654-30.69,8.023-31.059,23.432l0.921,0.062c0.755-0.349,1.556-0.543,2.366-0.543l0.079,0
					c1.31,0.019,2.302,0.323,2.966,0.903l0.523,0.035c7.865-18.111,21.627-10.055,21.627-10.055s-12.068-3.724-20.604,13.302
					c-1.07,5.929,1.578,19.281,17.666,26.719c14.729,6.808,24.27,1.609,28.336-3.307c2.646-9.241,3.379-13.49,5.924-17.019
					c0.656-0.91,2.301-2.588,3.854-3.369C427,109.287,424.668,109.469,423.332,109.469z"/>
				<path fill="#6F4435" d="M422.597,123.716c-0.429,1.568-0.909,3.325-1.479,5.311l-0.058,0.2l-0.133,0.161
					c-0.49,0.593-1.254,1.41-2.289,2.274l7.441,0.684l-0.723-17.339C424.392,117.158,423.657,119.841,422.597,123.716z"/>
			</g>
			<g>
				<g>
					<path fill="#A1856E" d="M405.171,136.322c-2.571,0-5.255-0.41-8.021-1.203c4.648,3.539,4.119,7.177,1.18,9.624
						c-0.973,0.81-0.772,3.337,0.127,4.434c1.188,1.448,3.024,1.85,3.953,1.785c8.711-0.606,13.246-10.569,15.049-18.389
						C414.781,134.477,410.75,136.322,405.171,136.322z"/>
					<g>
						<path fill="#A1856E" d="M397.684,149.811c-0.797-0.971-1.152-2.655-0.904-4.043c-0.969,0.479-1.546,1.776-0.951,3.979
							c0.354,1.304,1.268,4.275,2.572,4.933c1.996,1.015,2.693-0.881,2.873-2.805C400.1,151.661,398.699,151.05,397.684,149.811z"/>
					</g>
				</g>
				<g>
					<g>
						<path fill="#A1856E" d="M391.401,132.966c-12.737-5.888-17.646-15.739-18.369-23.095c-5.599,10.863,6.175,21.847-4.433,26.454
							c-0.906,0.393-0.856,2.21-0.554,3.4c0.388,1.524,1.562,2.553,2.253,2.897c9.152,4.555,23.102-1.979,25.691-7.86
							C394.482,134.274,392.953,133.683,391.401,132.966z"/>
						<g>
							<path fill="#6F4435" d="M371.435,124.265c-0.929-4.515-1.981-9.632,0.708-14.852l0.801-1.551
								c0.004-0.966,0.078-1.876,0.227-2.7l0.025-0.142l0.064-0.129c0.247-0.493,0.498-0.962,0.752-1.422l-0.404-0.057l-2.84,3.088
								c0.142,0.733,0.316,1.955-0.113,3.615c-0.255,0.993-1.104,2.678-3.916,2.82c-0.059,0.003-0.116,0.004-0.174,0.004
								c-0.163,0-0.32-0.021-0.479-0.046l-1.158,13.831l7.078,0.651C371.867,126.424,371.666,125.392,371.435,124.265z"/>
						</g>
					</g>
					<g>
						<path fill="#A1856E" d="M369.854,143.518c-0.798-0.397-2.279-1.59-2.777-3.545c-0.096-0.381-0.172-0.853-0.205-1.347
							c-1.662-0.034-3.176,1.223-2.734,4.072c0.211,1.335,0.812,4.384,2.229,5.138c2.73,1.46,3.784-1.863,4.068-4.075
							C370.242,143.677,370.039,143.61,369.854,143.518z"/>
					</g>
				</g>
			</g>
		</g>
	</g>
</g>
<g>
	<g>
		<g>
			<g>
				<path fill="#6F4435" d="M588.841,321.51L552.326,45.182c-0.289-2.18-2.309-3.729-4.49-3.441l-290.817-7.967
					c-2.16-0.419-4.27,1.004-4.689,3.164l-35.58,183.054c1.692,0.271,4.963,1.104,8.15,2.375c3.065,1.222,5.353,2.023,6.938,2.5
					l24.75-127.473L268.16,293.53c0.05-0.001,0.1-0.002,0.15-0.004c0.114-0.002,0.227-0.005,0.335-0.005
					c0.359,0,1.452,0,1.889,0.973c0.698,1.524-0.891,2.616-1.573,3.087c-0.165,0.111-0.358,0.195-0.545,0.285l4.646,78.748
					c0.129,2.196,1.182,3.265,4.229,3.758c3.047,0.494,5.327,0.51,7.69-0.454s3.888-2.032,3.758-4.229L269.562,50.725l267.684,4.396
					l-44.93,231.216c-0.418,2.159,1.959,4.077,3.164,4.689c1.205,0.611,3.186,0.998,4.896,0.951
					c1.712-0.047,4.271-1.004,4.689-3.164l39.496-203.247l31.405,237.645c0.289,2.181,2.486,3.283,4.49,3.44
					c2.004,0.158,3.627-0.137,5.512-0.916C587.856,324.956,589.13,323.69,588.841,321.51z"/>
			</g>
		</g>
	</g>
</g>
<g>
	<g>
		<g>
			<g>
				<g>
					<g>
						<g>
							<path fill="#6F4435" d="M432.438,154.261c0.317,0,0.633,0.008,0.949,0.017L369.768,46.765
								c-0.562-0.95-1.788-1.265-2.74-0.703c-0.951,0.562-1.266,1.789-0.703,2.74l62.545,105.695
								C430.013,154.353,431.193,154.261,432.438,154.261z"/>
						</g>
						<g>
							<g>
								<path fill="#A1856E" d="M424.615,190.444c2.971-1.606,12.08-5.379,14.061-9.575c-4.275,0.264-7.799-0.265-10.438-1.32
									c1.719-3.145,7-6.751,12.671-8.712c4.326-1.496,8.689-1.922,12.281-3.353c6.859-2.731,8.469-7.389,8.469-7.389
									s-8.469,0.17-14.312-1.947c-5.885-2.133-20.356-6.159-28.847,2.058c-13.766,13.321-4.902,33.03-0.271,35.052
									c4.504,1.966,10.727,2.25,14.629,0.264C428.502,193.804,426.08,191.824,424.615,190.444z"/>
								<g>
									<path fill="#A1856E" d="M457.354,181.769c-0.1-1.703-0.312-3.418-0.629-5.098c-0.631-3.326-1.477-6.493-3.342-8.195
										c-1.902,0.736-3.949,1.207-6.117,1.698c-1.975,0.448-4.016,0.911-6.03,1.608c-4.826,1.668-9.384,4.587-11.457,7.249
										c1.941,0.595,4.253,0.905,6.766,0.905c0.672,0,1.368-0.021,2.07-0.065l1.687-0.104l-0.721,1.529
										c-1.78,3.771-8.198,6.918-12.446,9c-0.266,0.13-0.52,0.255-0.76,0.374c1.43,1.184,3.56,2.625,6.85,3.922l2.066,0.813
										l-1.979,1.008c-1.884,0.959-4.307,1.466-7.005,1.466c-0.988,0-1.977-0.092-2.957-0.224c0.74,1.305,1.52,2.352,2.277,3.038
										c1.109,0.939,2.326,1.82,3.627,2.544c5.855,3.259,12.985,3.795,16.351,3.265c4.152-0.655,11.781-9.065,11.777-24.093
										c-0.006-0.106-0.012-0.225-0.012-0.351L457.354,181.769z M443.835,185.84c-0.826,0.147-1.73-1.018-2.018-2.604
										c-0.283-1.586,0.158-2.993,0.982-3.142c0.832-0.148,1.734,1.016,2.02,2.604
										C445.106,184.285,444.663,185.689,443.835,185.84z M453.685,184.168c-0.729,0.131-1.557-1.072-1.85-2.694
										c-0.289-1.621,0.066-3.038,0.793-3.169c0.729-0.13,1.559,1.076,1.852,2.697
										C454.767,182.619,454.409,184.036,453.685,184.168z"/>
								</g>
							</g>
						</g>
						<g>
							<g>
								<path fill="#A1856E" d="M469.74,208.163c-0.854-0.812-2.707-0.544-3.914,0.367c-1.014,0.765-0.977,2.893,0.605,4.934
									c1.582,2.042,3.145,1.6,4.422,0.805C472.133,213.475,472.051,210.358,469.74,208.163z"/>
								<g>
									<path fill="#A1856E" d="M459.267,221.593c0,0,6.744,2.24,9.541-5.665c-1.171-0.032-2.237-0.651-3.166-1.851
										c-0.911-1.177-1.427-2.467-1.487-3.648c-3.396,1.932-7.292-1.881-11.294-8.528c-2.131,3.011-4.527,4.869-6.535,5.425
										c-0.193,0.054-0.383,0.095-0.568,0.125c-3.416,0.538-10.757,0.084-16.974-3.372c-0.27-0.151-0.541-0.313-0.811-0.483
										c-13.291,5.387-18.539,17.829-22.721,24.426c0.487,1.579,0.092,3.788-0.736,5.076l1.531,3.029
										c6.44,0.433,13.395-7.968,13.395-7.968s1.125,15.317,4.258,29.01c-1.576-11.359,3.186-21.637,6.826-29.485
										c1.285-2.773,2.5-5.393,3.248-7.646l0.021-0.062c-1.156-0.529-1.947-1.136-2.336-1.819
										c-0.748-1.321-0.502-2.291-0.164-2.872c1.08-1.853,4.489-2.053,5.904-2.053c0.131,0,0.256,0.001,0.373,0.005
										c3.583,0.093,5.694,2.523,5.665,4.819c-0.016,1.204-0.684,2.41-2.088,2.973l0.014,0.068
										c2.73,13.908,11.195,21.834,17.79,24.504c3.656-1.798,7.269-5.119,10.486-9.438
										C462.458,228.057,459.267,221.593,459.267,221.593z"/>
								</g>
								<g>
									<path fill="#6F4435" d="M488.955,248.185l-19.158-32.376c-0.303,0.075-0.602,0.126-0.895,0.126
										c-1.209,0-2.307-0.625-3.261-1.857c-1.114-1.438-1.648-3.047-1.466-4.416c0.101-0.758,0.422-1.371,0.916-1.805
										l-8.336-14.086c-0.522,1.724-1.138,3.321-1.839,4.748l30.596,51.704c0.374,0.63,1.04,0.981,1.724,0.981
										c0.346,0,0.696-0.09,1.016-0.279C489.203,250.362,489.518,249.135,488.955,248.185z"/>
								</g>
							</g>
						</g>
					</g>
				</g>
			</g>
		</g>
		<g>
			<path fill="#A1856E" d="M482.732,216.667c-1.424-0.355-4.65-1.289-5.391-2.695c-1.588-3.025,3.082-3.391,5.324-3.259
				C488.42,211.048,489.062,218.25,482.732,216.667z"/>
			<path fill="#A1856E" d="M484.406,217.894c-0.59,0-1.234-0.086-1.916-0.257c-1.008-0.251-1.883-0.528-2.65-0.825
				c-4.107,14.607-12.547,26.039-20.847,29.878c-7.013-2.646-15.955-10.852-18.812-25.399c-0.271,0.041-0.557,0.069-0.866,0.069
				c-0.533,0-1.113-0.067-1.723-0.199c-1.101-0.237-2.047-0.509-2.869-0.808c-3.332,10.025-14.93,25.529-8.389,43.23
				c4.17,11.281,17.853,15.653,30.7,13.743c11.478-1.706,20.044-7.139,23.29-13.796c5.748-11.792,6.302-30.014,5.406-45.821
				C485.334,217.818,484.904,217.894,484.406,217.894z"/>
		</g>
	</g>
</g>
<g>
	<path fill="#A1856E" d="M426.334,263.583c0.166,0.447,0.361,0.873,0.555,1.299c11.65,11.076,57.77-13.173,47.559-23.331
		c-1.576-1.567-3.004-3.107-4.322-4.604c-3.449,4.569-7.303,7.973-11.132,9.743c-7.013-2.646-15.955-10.852-18.812-25.399
		c-0.271,0.041-0.557,0.069-0.866,0.069c-0.533,0-1.113-0.067-1.723-0.199c-0.35-0.075-0.678-0.154-0.996-0.237
		c-0.141-0.035-0.277-0.072-0.414-0.109c-0.135-0.037-0.266-0.076-0.396-0.114c-0.371-0.109-0.721-0.223-1.047-0.341
		c-0.004-0.002-0.01-0.004-0.016-0.006C431.391,230.378,419.793,245.882,426.334,263.583z"/>
	<path fill="#A1856E" d="M435.064,219.413c0.393,0.144,0.814,0.276,1.26,0.402c0.02,0.006,0.039,0.012,0.059,0.018
		c0.45,0.125,0.924,0.242,1.42,0.35c0.035,0.007,0.066,0.01,0.102,0.017c0.238,0.05,0.471,0.09,0.688,0.116
		c0.251,0.028,0.491,0.044,0.722,0.044c0.271,0,0.518-0.025,0.749-0.063l0.092-0.014c3.66-0.685,2.303-5.919-2.608-6.047
		c-0.111-0.003-0.227-0.004-0.348-0.004c-2.338,0-6.473,0.604-4.869,3.431c0.414,0.729,1.518,1.304,2.678,1.73L435.064,219.413z"/>
	<polygon fill="#6F4435" points="495.178,238.174 489.756,261.112 419.008,268.948 416.387,266.529 418.785,243.134 
		492.152,236.561 	"/>
</g>
<g>
	<path fill="#A1856E" d="M396.801,229.794c0.344-1.284,1.117-2.827,2.504-3.646c1.434-0.846,3.461-0.436,4.762,1.621
		c0.83,1.312,0.283,4.279-0.732,5.207l2.023,4.003c-0.785,0.412-3.172,0.744-4.77,0.115
		C398.283,236.186,395.963,232.935,396.801,229.794z"/>
	<g>
		<path fill="#6F4435" d="M421.262,257.033L312.823,46.867c-0.507-0.982-1.713-1.367-2.694-0.86s-1.367,1.713-0.86,2.694
			l90.862,176.101c0.229-0.039,0.459-0.066,0.693-0.066c1.592,0,3.082,0.91,4.087,2.499c0.97,1.533,0.581,4.343-0.396,5.862
			l1.734,3.431l0.445,0.88l-0.047,0.024l11.059,21.436c0.355,0.688,1.055,1.083,1.779,1.083c0.309,0,0.623-0.071,0.916-0.223
			C421.383,259.221,421.769,258.015,421.262,257.033z"/>
	</g>
</g>
<g>
	<path fill="#6F4435" d="M373.17,105.163l0.025-0.142l0.064-0.129c0.492-0.983,1-1.888,1.514-2.743l-3.619,3.918l-0.387,0.433
		c0.142,0.733,0.316,1.955-0.113,3.615c-0.255,0.993-1.104,2.678-3.916,2.82c-0.059,0.003-0.116,0.004-0.174,0.004
		c-0.514,0-0.99-0.134-1.426-0.361l-0.669,0.724c-0.749,0.811-0.699,2.077,0.112,2.827c0.385,0.355,0.871,0.531,1.356,0.531
		c0.538,0,1.075-0.216,1.47-0.642l3.682-3.986c0,0,0.512-1.78,0.748-2.385c0.235-0.604,0.719-1.344,1.098-1.786
		C372.939,106.894,373.021,105.987,373.17,105.163z"/>
	<path fill="#6F4435" d="M387.658,91.252c-1.115,0-2.184,0.143-3.207,0.422l-1.646,1.783c1.719-1.102,3.387-1.794,4.9-2.205
		C387.689,91.252,387.674,91.252,387.658,91.252z"/>
</g>
<g>
	<g>
		<path fill="#7A574A" d="M226.027,269.849c-0.43-1.053-1.539-2.442-2.146-0.934c-0.539,1.334,0.381,2.297,0.935,3.387
			c0.706,1.396,1,2.581,0.294,3.237c-0.948,0.886-2.248-1.055-3.024-0.453c-0.615,0.476-0.195,1.398,0.228,2.202
			c0.462,0.869,1.507,1.673,2.261,2.08c1.652,0.891,3.233,0.556,4.352-0.768C231.343,275.739,230.01,270.495,226.027,269.849z"/>
		<g>
			<path fill="#7A574A" d="M261.123,297.451l-0.896-4.995c-15.43-3.011-20.438-12.533-29.164-18.234
				c0.238,1.826-0.242,3.685-1.374,5.024c-0.895,1.06-2.035,1.619-3.297,1.619c-0.761,0-1.532-0.208-2.293-0.616
				c-0.87-0.471-2.091-1.405-2.671-2.495c-0.347-0.66-1.098-2.119-0.252-3.149c-1.214,0.5-2.316,0.757-3.21,0.757
				c-0.205,0-0.405-0.011-0.595-0.032c-2.969-0.341-8.571-2.381-13.924-6.49c-6.671,3.955-13.183,9.389-17.124,19.226
				c-3.762,9.387-6.091,20.589-6.378,33.616c1.658,11.962,45.211,12.212,57.12,3.291c-1.389-17.046-5.548-35.158-5.548-35.158
				S242.202,297.451,261.123,297.451z M229.077,282.539c-2.293,8.418-7.748,14.99-15.36,18.505
				c-3.697,1.708-7.72,2.568-11.591,2.568c-3.403,0-6.689-0.664-9.535-2.003l0.426-0.905c5.822,2.738,13.594,2.521,20.281-0.567
				c7.18-3.316,12.372-9.46,14.667-17.337l-5.858-1.076c-1.187,2.938-4.232,5.42-8.246,6.693c-5.42,1.717-11.317,0.945-15.393-2.018
				l0.588-0.809c3.822,2.778,9.378,3.496,14.502,1.872c3.896-1.235,6.794-3.653,7.753-6.468l0.139-0.409l7.77,1.429L229.077,282.539
				z"/>
			<path fill="#7A574A" d="M224.895,272.469c0.645,1.323,0.892,2.441,0.215,3.07c-0.182,0.169-0.376,0.235-0.577,0.235
				c-0.704,0-1.49-0.807-2.097-0.807c-0.125,0-0.243,0.035-0.351,0.118c-0.615,0.476-0.195,1.398,0.228,2.202
				c0.462,0.869,1.507,1.673,2.261,2.08c0.623,0.336,1.236,0.497,1.818,0.497c0.961,0,1.837-0.44,2.534-1.265
				c1.184-1.401,1.463-3.372,0.978-5.097c-1.214-0.716-2.502-1.359-3.906-1.897C225.627,271.915,225.26,272.2,224.895,272.469z"/>
			<path fill="#7A574A" d="M223.896,274.477c0.165,0.092,0.423,0.236,0.569,0.283c0.11-0.194,0.038-0.75-0.409-1.712
				c-0.524,0.348-1.04,0.662-1.542,0.929C223.034,274.001,223.492,274.249,223.896,274.477z"/>
		</g>
		<path fill="#7A574A" d="M266.852,287.155l0.237,5.007c-0.543,0.487-0.666,0.829-0.35,1.739c0.427,1.227,2.483,0.114,2.886,1.009
			c0.326,0.712-0.479,1.329-1.227,1.843c-0.812,0.553-2.112,0.777-2.968,0.787c-1.877,0.018-3.121-1.018-3.493-2.709
			C261.132,291.171,263.519,287.278,266.852,287.155z"/>
	</g>
	<g>
		<g>
			<path fill="#7A574A" d="M207.9,332.214c-10.072,0-21.717-1.719-26.625-6.265c-1.804,17.282,3.723,37.908,8.843,48.546
				l5.282-0.118c4.455-14.048,8.769-24.332,15.754-32.857c5.596,8.946,7.989,16.952,10.498,29.515l5.789-0.218
				c5.056-13.899,8.979-30.639,8.731-43.904c-0.001-0.058-0.007-0.11-0.009-0.168C230.41,330.097,219.654,332.214,207.9,332.214z"/>
		</g>
	</g>
	<path fill="#7A574A" d="M192.526,380.807c1.256,0.731,4.489,1.458,5.602,0.558c2.183-1.766,0.128-4.142-1.786-5.262
		C191.939,373.522,187.541,377.899,192.526,380.807z"/>
	<path fill="#7A574A" d="M223.864,377.196c1.253,0.732,4.488,1.459,5.6,0.559c2.184-1.767,0.13-4.141-1.784-5.263
		C223.276,369.913,218.876,374.289,223.864,377.196z"/>
	<path fill="#7A574A" d="M238.125,236.431c-0.9-0.436-1.908-0.897-2.988-1.35c2.51,5.291,3.136,11.234,1.742,17.301
		c-1.018,4.422-2.541,8.117-4.301,11.187l0.216,0.388l2.723-3.342l0.897,1.604c0,0,5.753-14.132,2.302-24.362
		C238.542,237.353,238.339,236.885,238.125,236.431z"/>
	<g>
		<path fill="#7A574A" d="M224.054,231.308c-5.353-0.04-10.218,4.853-11.923,7.216c-0.978,1.35-3.221,3.689-5.646,10.416
			c-1.811,5.028-4.316,15.587-4.355,15.687c-1.31-0.576-3.383-3.366-3.383-3.366l-2.826,6.657l-4.045-6.441l-1.603,3.493
			c0,0-3.138-12.748-1.525-22.576c1.535-9.334,7.562-15.785,12.346-18.537c3.974-2.281,7.91-3.649,13.047-3.294
			c5.682,0.394,10.064,2.544,16.239,4.78c4.917,1.779,14.831,3.829,14.831,3.829l-8.036,2.148l5.61,6.457
			C242.786,237.776,232.209,231.365,224.054,231.308z"/>
	</g>
	<g>
		<path fill="#7A574A" d="M233.781,234.535c-3.107-1.201-6.623-2.205-9.734-2.228h-0.058c-5.036,0-9.682,4.909-11.047,6.802
			c-0.137,0.189-0.298,0.397-0.48,0.633c-1.118,1.445-2.99,3.863-5.035,9.536c-1.023,2.842-2.428,7.884-4.176,14.986
			c-0.161,0.652-0.161,0.652-0.191,0.729l-0.382,0.964l-0.95-0.417c-0.885-0.389-1.934-1.454-2.712-2.354l-0.045,0.106
			c6.018,6.879,14.33,10.562,18.513,11.042c1.509,0.174,3.725-0.524,6.128-2.133c-0.012-0.02-0.022-0.04-0.034-0.061
			c-0.521-0.881-1.236-2.087-0.625-3.6c0.451-1.123,1.206-1.291,1.616-1.291c1.058,0,1.787,1.047,2.148,1.723
			c0.175,0.047,0.344,0.108,0.513,0.171c3.5-3.618,6.878-9.187,8.674-16.987C237.426,245.539,236.394,239.475,233.781,234.535z
			 M223.382,250.807c-0.15,1.615-0.957,2.862-1.799,2.784c-0.849-0.079-1.41-1.454-1.262-3.072c0.153-1.616,0.96-2.864,1.801-2.786
			C222.967,247.812,223.533,249.185,223.382,250.807z M233.404,251.177c-0.153,1.652-0.885,2.933-1.622,2.865
			c-0.744-0.069-1.222-1.463-1.071-3.115c0.153-1.651,0.883-2.935,1.624-2.866C233.077,248.131,233.556,249.525,233.404,251.177z"/>
	</g>
</g>
</svg>
