<?xml version="1.0" encoding="utf-8"?>
<!-- Generator: Adobe Illustrator 15.0.2, SVG Export Plug-In . SVG Version: 6.00 Build 0)  -->
<!DOCTYPE svg PUBLIC "-//W3C//DTD SVG 1.1//EN" "http://www.w3.org/Graphics/SVG/1.1/DTD/svg11.dtd">
<svg version="1.1" id="Layer_1" xmlns="http://www.w3.org/2000/svg" xmlns:xlink="http://www.w3.org/1999/xlink" x="0px" y="0px"
	 width="720px" height="460px" viewBox="0 0 720 460" enable-background="new 0 0 720 460" xml:space="preserve">
<g>
	<polygon fill="#F3EEDF" points="619.768,243.124 367.152,441.208 114.535,312.112 390.271,166.171 	"/>
	<polygon fill="#D4E4ED" points="390.051,18.792 79.722,77.901 114.535,312.112 390.271,191.067 	"/>
	<polygon fill="#C5DBE7" points="390.051,18.792 640.277,48.478 619.768,243.124 390.271,191.067 	"/>
</g>
<g>
	<polygon fill="#F7F6F5" points="538.012,222.802 324.58,158.999 391.518,129.845 616.713,174.095 	"/>
	<g>
		<path fill="#E6E4E0" d="M531.911,206.605c-2.839,1.683-7.762,2.332-10.939,1.443l-160.047-44.766
			c-3.178-0.889-3.322-2.737-0.319-4.107l39.799-18.161c3.003-1.37,8.105-1.956,11.34-1.302l167.895,33.924
			c3.234,0.654,3.559,2.565,0.72,4.248L531.911,206.605z"/>
	</g>
	<polygon fill="#D7D5CD" points="538.012,222.802 540.838,292.04 609.02,237.776 616.713,174.095 	"/>
	<polygon fill="#EAE9E5" points="538.012,222.802 540.838,292.04 326.719,216.886 324.58,158.999 	"/>
</g>
<g>
	<path fill="#C83B0C" d="M375.615,210.397c-0.492,1.184-1.158,2.361-2.537,1.633c-1.221-0.643-1.139-1.918-1.41-3.059
		c-0.344-1.461-0.863-2.506-1.785-2.551c-1.244-0.062-0.992,2.162-1.934,2.203c-0.748,0.031-1.008-0.904-1.195-1.754
		c-0.199-0.922,0.068-2.158,0.369-2.92c0.656-1.674,2.023-2.406,3.66-2.129C374.322,202.419,377.033,207.007,375.615,210.397z"/>
	<path fill="#C83B0C" d="M287.937,220.116c0.857,0.955,1.877,1.844,2.934,0.697c0.936-1.012,0.438-2.188,0.314-3.352
		c-0.158-1.492-0.02-2.652,0.838-3c1.15-0.471,1.656,1.709,2.553,1.434c0.717-0.217,0.65-1.188,0.545-2.051
		c-0.117-0.934-0.781-2.012-1.316-2.631c-1.178-1.359-2.709-1.598-4.158-0.791C286.505,212.163,285.472,217.392,287.937,220.116z"/>
	<path fill="#C83B0C" d="M318.803,267.985c1.395,0.232,4.609,0.678,5.779-0.027c2.52-1.523-1.504-3.332-3.549-3.992
		C315.785,262.269,312.586,266.942,318.803,267.985z"/>
	<path fill="#C83B0C" d="M347.209,265.267c1.404,0.145,4.643,0.393,5.764-0.387c2.422-1.672-1.705-3.229-3.787-3.762
		C343.844,259.749,340.939,264.61,347.209,265.267z"/>
	<g>
		<g>
			<path fill="#C83B0C" d="M328.432,222.306c-8.438,0-17.312-1.537-21.008-5.555c0.062,15.119,3.432,31.076,8.623,45.826
				l5.062-0.113c3.076-14.447,5.553-23.256,11.006-30.889c5.133,6.168,8.57,15.582,12.33,28.365l5.547-0.209
				c2.932-15.32,6.439-32.086,6.73-44.592C351.531,220.048,338.389,222.306,328.432,222.306z"/>
		</g>
	</g>
	<g>
		<path fill="#C83B0C" d="M351.264,126.142c0.332,0.439,0.648,0.908,0.938,1.416c5.123,8.99,2.299,23.336,2.299,23.336l-1.137-1.346
			l-1.951,3.643l-0.377-0.447c1.08-3.203,1.809-6.936,1.953-11.191c0.205-6.057-1.635-11.707-5.006-16.166
			C349.158,125.62,350.271,125.88,351.264,126.142z"/>
	</g>
	<g>
		<path fill="#C83B0C" d="M365.68,201.194l5.662-1.639c-3.709-19.785-13.449-32.586-24.529-38.334
			c-2.676,3.477-5.658,5.363-7.822,5.533c-0.301,0.023-0.625,0.035-0.963,0.035c-3.906,0-10.006-1.531-15.613-4.836
			c-1.104,0.396-2.244,0.812-3.463,1.256c-12.139,4.422-25.901,26.104-29.551,44.762l5.953,1.67
			c5.41-16.383,16.038-26.424,16.038-26.424s-4.744,16.633-4.744,29.133c0,13.867,51.328,10.357,51.328-1.848
			c0-18.852-4.678-32.105-4.678-32.105S361.643,186.339,365.68,201.194z"/>
	</g>
	<path fill="#C83B0C" d="M337.213,124.085c-5.041,0.941-8.723,6.436-9.891,8.969c-0.674,1.451-2.355,4.061-3.404,10.832
		c-0.781,5.061-1.203,15.451-1.223,15.553c-1.336-0.303-3.799-2.547-3.799-2.547l-1.438,6.777l-4.984-5.318l-0.869,3.58
		c0,0-5.285-11.416-5.568-20.955c-0.266-9.061,4.219-16.232,8.219-19.695c3.316-2.873,6.77-4.881,11.664-5.486
		c5.42-0.67,9.932,0.547,16.148,1.52c4.953,0.773,14.652,0.887,14.652,0.887l-7.164,3.492l6.459,5.045
		C356.016,126.737,344.895,122.646,337.213,124.085z"/>
	<path fill="#C83B0C" d="M346.984,125.388c-1.984-0.355-4.107-0.609-6.145-0.609c-1.26,0-2.418,0.098-3.443,0.289
		c-4.75,0.889-8.229,6.369-9.168,8.408c-0.094,0.203-0.207,0.428-0.336,0.684c-0.787,1.561-2.104,4.174-2.986,9.879
		c-0.439,2.848-0.838,7.836-1.18,14.83c-0.033,0.676-0.033,0.676-0.051,0.758l-0.193,1.016l-1.01-0.229
		c-0.891-0.201-2.051-0.988-2.943-1.686l-0.014,0.062c6.914,5.346,15.383,7.281,19.398,6.969c4.223-0.334,12.73-8.508,13.264-24.236
		C352.396,135.044,350.324,129.552,346.984,125.388z M336.055,146.714c-0.812,0.08-1.592-1.109-1.748-2.658
		c-0.154-1.549,0.377-2.869,1.184-2.951c0.809-0.08,1.592,1.107,1.746,2.66C337.393,145.313,336.859,146.632,336.055,146.714z
		 M347.262,145.019c-0.711,0.07-1.416-1.152-1.578-2.734c-0.156-1.58,0.293-2.92,1.004-2.994c0.711-0.068,1.418,1.154,1.576,2.738
		C348.424,143.608,347.969,144.948,347.262,145.019z"/>
</g>
<g>
	<g>
		<path fill="#A1856E" d="M482.58,328.257c-1.793,0.562-5.951,1.676-7.662,0.301c-3.686-2.963,1.238-6.91,3.797-8.391
			C485.283,316.368,490.584,325.737,482.58,328.257z"/>
		<path fill="#A1856E" d="M428.84,317.173c-1.816,0.457-6.016,1.334-7.637-0.148c-3.49-3.178,1.625-6.854,4.256-8.188
			C432.205,305.407,436.939,315.114,428.84,317.173z"/>
	</g>
	<g>
		<path fill="#A1856E" d="M494.213,229.745c-0.205,0.385-0.432,0.768-0.709,1.145c-1.039,1.416-2.607,2.742-4.58,3.971
			c0.252,0.352,0.492,0.713,0.711,1.09c1.91,3.279,2.146,6.674,0.648,9.316c-0.18,0.314-0.371,0.609-0.572,0.873
			c-1.039,1.359-2.244,1.645-3.072,1.645c-2.744,0-5.342-2.982-6.42-4.986c-0.217-0.404-0.393-0.773-0.553-1.109
			c-0.621-1.311-0.75-1.582-2.109-1.609c-0.348,0-0.877,0.193-1.389,0.381c-0.684,0.25-1.457,0.533-2.232,0.533
			c-0.217,0-0.424-0.025-0.621-0.068c-9.863,2.52-21.605,3.92-31.908,3.92c-7.131,0-19.775-0.705-24.412-5.422
			c-1.248,19.404,2.395,42.697,8.207,66.639l9.277,0.789c4.818-16.086,12.271-32.041,21.758-41.959
			c5.928,18.912,13.57,38.117,22.373,52.996l8.303,0.443c-0.299-42.387,6.588-49.521,8.727-77.359
			C495.955,236.868,495.482,233.116,494.213,229.745z"/>
	</g>
	<g>
		<path fill="#A1856E" d="M385.074,234.052c1.91-2.258,3.709-3.859,5.234-2.252c0.721,0.76,0.658,2.232,1.844,2.307
			c1.062,0.07,1.506-1.074,1.668-2.027c1.191-7.076-6.957-8.879-11.512-6.525c-4.301,2.223-8.18,8.867-5.516,11.918
			C378.912,239.896,381.852,237.864,385.074,234.052z"/>
	</g>
	<path fill="#A1856E" d="M493.783,224.702c-0.568-1.807-1.041-3.549-1.469-5.26c-0.873,4.213-2.238,8.438-4.18,12.627l-0.18,0.391
		l-1.904-0.555c0.818,0.621,1.59,1.344,2.275,2.174C492.648,231.388,494.893,228.228,493.783,224.702z"/>
	<g>
		<g>
			<path fill="#A1856E" d="M459.729,148.819l-0.301-0.191c-4.109-2.254-8.238-3.355-12.951-3.957
				c-6.67,8.834-15.188,14.172-19.674,15.604c-0.746,0.236-1.611,0.357-2.572,0.357c-2.789,0-6.557-1.031-10.631-3.385
				c-15.455,13.881-29.418,37.973-29.662,65.553l8.361,1.66c4.576-28.041,20.777-40.994,20.777-40.994s3.744,24.854,3.17,51.828
				c-0.215,10.145,32.719,10.553,55.807,4.934c-0.035-0.033-0.072-0.059-0.105-0.094c-2.104-2.283,1.496-6.896,2.574-8.008
				c1.234-1.27,2.691-2.059,4.266-2.344l-0.727-0.211l0.066-0.434c4.041-26.062-3.367-37.721-17.371-50.094l0.662-0.75
				c14.184,12.533,21.727,24.348,17.764,50.562l8.227,2.402C502.596,197.835,481.188,162.323,459.729,148.819z"/>
		</g>
	</g>
	<g>
		<path fill="#A1856E" d="M454.594,104.302c-4.635-12.416-11.389-15.332-18.709-17.82c-6.076-2.061-10.898-2.658-18.818-1.004
			c-7.809,1.633-15.328,5.35-21.029,10.951c-6.426,6.318-10.039,16.986-7.703,28.754c3.848,19.4,15.758,24.156,15.758,24.156
			c-3.227-3.74-6.088-8.33-8.625-14.016c-3.146-7.045-3.902-18.652-0.869-27.445c2.518,1.973,9.453,2.205,13.377,1.404
			c7.344-1.496,16.168-1.133,20.959,2.873c8.627,7.207,5.398,23.764,16.535,30.639c6.998,4.324,20.041-2.299,20.041-2.299
			s-4.42-4.717-5.613-9.711C458.277,124.007,459.463,117.372,454.594,104.302z"/>
		<g>
			<path fill="#A1856E" d="M394.547,108.04c-0.373,0.223-0.744,0.445-1.105,0.672c-2.027,6.508-2.172,13.879,0.328,21.412
				C392.189,123.388,392.229,114.888,394.547,108.04z"/>
			<path fill="#A1856E" d="M444.943,143.646c-6.361-3.928-8.238-10.695-10.055-17.24c-1.48-5.336-2.879-10.377-6.596-13.482
				c-2.662-2.227-7.07-3.451-12.41-3.451c-2.502,0-5.168,0.273-7.709,0.791c-1.426,0.291-3.219,0.451-5.053,0.451
				c-1.674,0-5.424-0.146-7.955-1.334c-2.338,7.908-1.865,18.645,1.213,25.537c2.459,5.508,5.229,10.012,8.469,13.77l0.977,1.131
				c8.066,8.256,16.686,10.773,20.676,9.504c4.742-1.514,12.912-6.965,19.203-15.291
				C445.447,143.903,445.182,143.792,444.943,143.646z M401.371,135.288c-0.996,0.293-2.35-1.268-3.002-3.5
				c-0.658-2.227-0.375-4.273,0.625-4.57c1.002-0.293,2.354,1.273,3.004,3.502C402.654,132.948,402.371,134.993,401.371,135.288z
				 M415.264,131.917c-1.135,0.332-2.584-1.162-3.225-3.344c-0.645-2.186-0.24-4.225,0.9-4.566c1.135-0.332,2.582,1.166,3.229,3.346
				C416.807,129.536,416.406,131.577,415.264,131.917z"/>
		</g>
	</g>
</g>
<g>
	<g>
		<path fill="#AF9474" d="M437.891,306.72c0-9.549-19.189-17.289-42.861-17.289s-42.863,7.74-42.863,17.289
			c0,0.586,0.074,1.162,0.217,1.736l7.82,73.086c0,7.762,15.592,14.051,34.826,14.051c19.232,0,34.826-6.289,34.826-14.051
			l7.818-73.086C437.816,307.882,437.891,307.306,437.891,306.72z"/>
		<ellipse fill="#B9A286" cx="395.028" cy="306.72" rx="42.862" ry="17.291"/>
		<ellipse fill="#7A574A" cx="395.028" cy="306.72" rx="40.544" ry="15.984"/>
		<g>
			<defs>
				<ellipse id="SVGID_1_" cx="395.028" cy="306.72" rx="40.544" ry="15.984"/>
			</defs>
			<clipPath id="SVGID_2_">
				<use xlink:href="#SVGID_1_"  overflow="visible"/>
			</clipPath>
			<g clip-path="url(#SVGID_2_)">
				<g>
					<path fill="#C9887A" d="M355.275,312.786c-0.969-1.881,1.723-4.316,4.277-6.1c2.943-2.062,6.342-3.508,7.27-1.711
						c1.178,2.287-0.996,4.461-3.518,6.271C360.252,313.442,356.133,314.45,355.275,312.786z"/>
					<path fill="#99A031" d="M373.039,299.874c2.668-0.799,9.615,2.008,11.346,3.055c3.91,2.363,7.307,5.537,5.283,10.857
						c-1.963,5.166-8.145,9.365-13.143,10.451c-3.658,0.795-7.688-0.318-10.629-2.5c-1.959-1.455-6.777-4.834-7.801-7.148
						c-0.762-1.723,0.02-3.404,1.074-4.689C359.48,309.521,370.961,300.493,373.039,299.874z"/>
					<path fill="#971B00" d="M396.379,300.147c4.854,1.41,10.209,2.643,14.865,5.115c3.07,1.633,9.553,3.465,10.643,7.625
						c1.127,4.309-4.111,9.35-6.316,12.172c-5.406,6.93-18.1,1.658-24.617-1.602c-4.053-2.029-3.721-5.389-5.488-9.223
						c-0.859-1.869-2.115-2.961-1.754-5.184c0.229-1.42,1.791-3.906,2.508-5.221C388.537,299.577,392.207,298.933,396.379,300.147z"
						/>
					<path fill="#AAABA8" d="M394.865,306.61c-0.084-2.32,1.924-4.812,3.133-6.613c1.645-2.449,2.32-2.791,5.182-2.77
						c5.172,0.049,10.359,1.271,15.107,3.258c3.992,1.664,8.414,2.932,12.125,4.814c8.062,4.094-3.402,11.033-7.346,12.641
						C416.592,320.577,395.254,317.278,394.865,306.61z"/>
					<path fill="#888886" d="M389.229,325.646c-3.789-3.979,5.891-8.611,8.58-10.412c4.973-3.336,7.617-4.936,13.115-2.781
						c1.834,0.717,4.186,1.258,5.578,2.893c1.762,2.068,0.49,3.385-1.709,5.283c-2.672,2.301-5.457,4.061-7.949,6.705
						c-3.303,3.504-3.998,4.041-8.221,2.625C395.451,328.892,391.732,328.276,389.229,325.646z"/>
					<path fill="#4E7094" d="M377.52,297.647c3.688-2.342,5.57-2.785,9.652-0.967c3.496,1.559,6.932,3.887,10.328,5.695
						c3.029,1.611,6.441,2.512,9.254,4.283c1.371,3.637-6.074,9.021-8.352,11.441c-1.404,1.49-3.219,4.195-5.008,5.121
						c-2.201,1.143-4.004,0.254-6.336-0.67c-5.57-2.201-11.127-4.256-16.387-7.16c-1.529-0.846-6.416-2.547-7.328-4.049
						C361.156,307.737,375.152,299.153,377.52,297.647z"/>
					<path fill="#5FB8AC" d="M376.473,321.386c0.576-2.537,4.404-5.607,6.01-7.428c1.479-1.674,2.854-3.543,4.738-4.576
						c8.031-4.398,19.615,2.695,25.443,8.803c2.814,2.947,0.883,3.857-1.918,5.545c-3.027,1.818-6.25,3.418-9.352,5.014
						c-5.979,3.076-8.775,5.26-14.838,1.912C383.482,328.958,375.199,326.987,376.473,321.386z"/>
					<path fill="#C22D00" d="M364.836,318.909c-5.141-2.215,0.852-7.277,3.18-10.465c3.916-5.363,6.189-9.5,12.818-7.98
						c5,1.148,9.055,4.785,13.699,6.629c3.043,1.211,7.213,0.521,5.148,4.875c-1.695,3.576-4.797,6.699-6.539,10.074
						c-1.676,3.24-2.658,5.703-6.451,4.883c-3.152-0.682-6.078-2.633-9.172-3.645C373.27,321.89,368.971,320.692,364.836,318.909z"
						/>
					<path fill="#5FB8AC" d="M381.252,299.21c3.432-2.391,4.934-3.213,9.234-2.93c4.328,0.279,8.094,1.436,12.164,2.824
						c6.758,2.303,13.793,3.408,20.449,5.623c1.102,0.365,3.434,0.93,3.768,2.168c0.455,1.686-2.277,3.887-3.283,4.867
						c-3.729,3.633-6.904,7.816-10.662,11.395c-6.465,6.162-15.986,1.332-23.602-0.496c-3.877-0.93-7.682-2.168-11.385-3.641
						c-2.883-1.15-7.221-2.436-8.615-5.553c-1.457-3.252,1.533-5.16,3.693-7.039C375.771,304.024,378.238,301.315,381.252,299.21z"
						/>
				</g>
			</g>
		</g>
	</g>
	<path fill="#B9A286" d="M436.576,286.778c-0.682-0.053-1.406,0.158-2.777,1.965c-1.68,2.215-5.166,4.969-9.49,6.961
		c-3.223,1.482-12.076,2.967-13.592,7.611c-0.754,2.309-0.576,11.668-0.576,18.662c0,0,27.078-7.271,27.574-12.246
		c0.439-4.406,0.775-8.719,0.777-11.332c0.002-2.361,0.668-9.26-0.645-10.76C437.627,287.388,437.248,286.831,436.576,286.778z"/>
	<path fill="#AF9474" d="M411.701,305.065c0-4.398,10.385-7.191,13.607-8.674c4.324-1.992,7.811-4.746,9.49-6.961
		c5.242-6.906,3.695,5.645,3.693,8.969c-0.006,5.562-1.516,18.83-2.342,24.305c-0.707,4.684-13.412,9.662-17.873,10.043
		c-2.492,0.213-4.912-1.498-6.117-3.588C410.348,326.021,411.701,309.466,411.701,305.065z"/>
</g>
<g>
	<g>
		<g>
			<polygon fill="#FAFAFA" points="295.792,294.657 214.46,334.657 207.095,222.667 295.792,189.991 			"/>
			<polygon fill="#C8C9C7" points="143.097,299.657 214.46,334.657 207.095,222.667 130.998,200.808 			"/>
		</g>
		<polygon fill="#E1E2E1" points="299.126,181.856 215.9,167.368 127.664,193.112 128.716,201.001 206.841,223.442 298.853,189.544 
					"/>
		<polygon fill="#BEBFBC" points="206.4,215.728 127.664,193.112 128.716,201.001 206.841,223.442 		"/>
		<polygon fill="#F8F8F7" points="206.4,215.728 127.664,193.112 215.9,167.368 299.126,181.856 		"/>
		<polygon fill="#F1F1F1" points="134.644,193.036 216.005,169.429 291.757,182.419 206.326,213.626 		"/>
	</g>
	<path fill="#DADAD9" d="M287.125,250.315c0.176,23.221-13.449,46.096-30.432,51.094c-16.979,5.002-30.887-9.762-31.062-32.984
		c-0.172-23.215,13.453-46.094,30.432-51.096C273.044,212.329,286.953,227.097,287.125,250.315z"/>
	<path fill="#FAFAFA" d="M288.111,250.792c0.166,21.998-12.74,43.666-28.826,48.4c-16.084,4.738-29.258-9.248-29.426-31.244
		c-0.162-21.992,12.744-43.664,28.828-48.402C274.773,214.81,287.947,228.8,288.111,250.792z"/>
	<path fill="#BABBB9" d="M277.218,253.765c0.102,14.373-7.977,28.527-18.047,31.621c-10.068,3.096-18.314-6.041-18.418-20.412
		c-0.102-14.365,7.977-28.525,18.045-31.619C268.867,230.257,277.115,239.397,277.218,253.765z"/>
	<path fill="#9F9F9D" d="M272.376,254.454c0.09,12.609-7,25.029-15.834,27.744c-8.836,2.717-16.072-5.301-16.162-17.91
		c-0.09-12.605,7-25.029,15.834-27.744C265.048,233.825,272.285,241.845,272.376,254.454z"/>
</g>
<path fill="#A1856E" d="M488.061,235.386c-0.221-0.305-0.447-0.531-0.602-0.787c-1.945-2.305-4.664-3.941-7.365-3.939
	c-1.691,0-3.375,0.643-4.855,2.164c-1.117,1.15-3.975,5.094-2.557,6.633c0.209,0.227,0.453,0.334,0.688,0.443
	c0.936,0.445,1.648-0.006,2.928-0.494c1.277-0.49,1.889-0.355,2.637-0.111c1.145,0.375,1.32,1.459,2.166,3.029
	c0.992,1.846,3.354,4.461,5.539,4.461c0.809,0,1.596-0.361,2.277-1.252c0.17-0.223,0.336-0.475,0.496-0.758
	C491.033,241.915,490.143,238.261,488.061,235.386z"/>
</svg>
