<?xml version="1.0" encoding="utf-8"?>
<!-- Generator: Adobe Illustrator 15.0.2, SVG Export Plug-In . SVG Version: 6.00 Build 0)  -->
<!DOCTYPE svg PUBLIC "-//W3C//DTD SVG 1.1//EN" "http://www.w3.org/Graphics/SVG/1.1/DTD/svg11.dtd">
<svg version="1.1" id="Layer_1" xmlns="http://www.w3.org/2000/svg" xmlns:xlink="http://www.w3.org/1999/xlink" x="0px" y="0px"
	 width="720px" height="460px" viewBox="0 0 720 460" enable-background="new 0 0 720 460" xml:space="preserve">
<polygon fill="#E0CE9C" points="678.075,423.973 41.925,423.973 144.661,193.102 575.339,193.102 "/>
<g>
	<g>
		<path fill="#C83B0C" d="M530.847,282.836c-2.047,0.344-6.77,0.998-8.488-0.039c-3.701-2.236,2.209-4.893,5.211-5.863
			C535.276,274.439,539.979,281.305,530.847,282.836z"/>
		<path fill="#C83B0C" d="M489.253,272.168c-2.064,0.213-6.822,0.578-8.47-0.566c-3.556-2.459,2.507-4.744,5.565-5.529
			C494.194,264.062,498.464,271.203,489.253,272.168z"/>
		<path fill="#C83B0C" d="M546.091,206.227l-0.16,0.447l-4.005-1.215c1.025,0.426,1.882,1.078,2.536,1.924
			c4.25-1.75,6.865-4.17,6.867-7.336c0.003-4.412-0.17-8.551-0.47-12.502C549.929,193.713,548.337,199.973,546.091,206.227z"/>
		<g>
			<path fill="#C83B0C" d="M536.927,211.918c-0.236-0.562-0.713-0.924-1.59-0.91c-1.146,0.018-2.385,1.297-1.963-0.621
				c0.543-2.475,5.346-4.893,7.633-4.213c6.131,1.822,4.545,11.965-0.986,13.633c-2.682,0.809-3.547-0.908-3.314-3.291
				C536.831,215.248,537.435,213.125,536.927,211.918z"/>
			<g>
				<g>
					<path fill="#C83B0C" d="M545.03,208.262c0.578,1.076,0.906,2.355,0.91,3.803c0.006,3.477-1.926,7.582-5.631,8.699
						c-0.539,0.164-1.047,0.246-1.508,0.246c-0.906,0-1.676-0.318-2.223-0.924c-0.725-0.799-1.025-2.066-0.867-3.668
						c0.035-0.361,0.104-0.766,0.174-1.195c0.162-0.967,0.383-2.291,0.119-2.918c-0.055-0.133-0.125-0.297-0.65-0.297h-0.002
						c-0.201,0.002-0.492,0.107-0.75,0.199c-0.336,0.121-0.652,0.234-0.996,0.234c-0.41,0-0.768-0.166-1.012-0.469
						c-0.174-0.217-0.246-0.467-0.277-0.727c-5.276,0.643-10.264,0.752-13.023,0.752c-15.144,0-33.211-2.809-40.557-8.189
						c-0.098,18.203,2.012,37.154,6.426,60.227l8.148,0.309c5.525-18.777,10.441-27.143,17.979-36.203
						c8.012,11.209,11.65,25.365,16.17,46.586l7.434,0.166c7.892-22.41,14.907-46.713,15.012-69.594
						C548.647,206.482,546.966,207.457,545.03,208.262z"/>
				</g>
			</g>
		</g>
		<g>
			<g>
				<path fill="#C83B0C" d="M493.417,72.386c-0.576,0.592-1.134,1.234-1.662,1.939c-9.316,12.455-7.775,34.385-7.775,34.385
					l1.945-1.797l2.23,5.797l0.646-0.596c-1.012-4.98-1.406-10.686-0.826-17.061c0.824-9.072,4.619-17.16,10.48-23.186
					C496.657,72,494.946,72.183,493.417,72.386z"/>
			</g>
		</g>
		<g>
			<path fill="#C83B0C" d="M514.763,71.935c7.346,2.346,11.814,11.227,13.086,15.225c0.732,2.289,2.758,6.496,3.059,16.793
				c0.223,7.693-1.082,23.275-1.072,23.428c2.049-0.199,6.139-3.092,6.139-3.092l0.885,10.381l8.424-7.004l0.631,5.502
				c0,0,10.012-16.045,12.211-30.223c2.086-13.469-3.27-25.002-8.588-30.914c-4.414-4.906-9.189-8.545-16.381-10.359
				c-7.957-2.012-14.918-1.033-24.375-0.744c-7.533,0.232-22.021-1.406-22.021-1.406l10.035,6.545l-10.576,6.322
				C486.218,72.388,503.573,68.357,514.763,71.935z"/>
		</g>
		<g>
			<path fill="#C83B0C" d="M528.683,126.408c0.793-10.518,1.133-18.059,1.006-22.422c-0.25-8.699-1.736-12.873-2.621-15.369
				c-0.148-0.404-0.275-0.766-0.375-1.088c-1.043-3.254-5.273-12.189-12.297-14.434c-4.227-1.352-9.41-1.566-14.162-1.336
				c-5.916,5.605-10.148,13.529-11.045,23.402c-2.133,23.564,9.033,37.344,15.273,38.627c5.977,1.225,19.135-0.107,30.508-6.936
				l-0.039-0.428c-1.209,0.742-2.824,1.637-4.115,1.996c-0.309,0.09-0.6,0.146-0.863,0.172l-1.264,0.125l-0.07-1.268
				C528.61,127.349,528.61,127.349,528.683,126.408z M493.054,94.943c0.531-2.33,1.812-4.023,2.861-3.785
				c1.045,0.236,1.467,2.32,0.936,4.65c-0.533,2.33-1.814,4.021-2.861,3.783C492.95,99.353,492.521,97.273,493.054,94.943z
				 M511.259,99.91c-0.525,2.281-1.91,3.91-3.107,3.641c-1.188-0.273-1.732-2.34-1.213-4.623c0.521-2.285,1.908-3.912,3.102-3.641
				C511.226,95.556,511.772,97.626,511.259,99.91z"/>
			<g>
				<path fill="#C83B0C" d="M529.856,127.599c0.193-0.02,0.41-0.066,0.642-0.131c-0.278-0.217-0.562-0.428-0.845-0.641
					c-0.027,0.355-0.037,0.488-0.036,0.568l0.013,0.225L529.856,127.599z"/>
				<path fill="#C83B0C" d="M545.31,205.441c10.578-29.901,5.311-60.165-12.658-76.165c-10.559,5.449-20.492,5.918-23.473,5.918
					c-1.883,0-3.537-0.143-4.919-0.426c-2.303-0.475-5.087-2.398-7.7-5.621c-12.983,15.266-19.991,52.875-20.275,69.042
					c-0.17,9.658,33.814,14.854,56.102,12.053c0.004-0.023,0.008-0.047,0.012-0.07c0.594-2.705,4.812-5.113,7.72-5.113
					c0.22,0,0.431,0.014,0.632,0.043l-3.781-1.148l0.062-0.428c5.229-35.518-15.879-51.729-16.094-51.889l0.598-0.801
					c0.219,0.162,21.634,16.572,16.547,52.411L545.31,205.441z"/>
			</g>
		</g>
	</g>
</g>
<g>
	<g>
		<g>
			<g>
				<g>
					<path fill="#A1856E" d="M363.312,197.982c-0.41-3.971-3.709-6.566-7.084-8.211c-4.473-2.18-11.525-3.219-15.014,0.865
						c-2.061,2.413-2.143,4.934-2.055,6.571c0.129,2.371,1.918,5.275,4.18,6.293c1.676,0.754,4.405-0.758,3.434-2.662
						c-0.076-0.148-0.178-0.291-0.297-0.426c-0.672-0.775-1.477-1.418-1.52-2.43c-0.1-2.383,2.465-2.242,3.939-1.297
						c1.354,0.867,1.969,2.107,1.902,3.215c3.615,1.021,7.229,3.168,10.844,3.797C362.856,202.119,363.532,200.133,363.312,197.982z
						"/>
				</g>
				<g>
					<path fill="#A1856E" d="M306.442,74.861c0.002-17.729-13.93-38.832-29.932-36.318c-25.152-9.902-50.616,11.465-52.71,28.879
						c-1.279,10.633-0.494,22.912,3.334,29.863c-0.786-6.596-0.451-13.678,6.91-14.152c4.511-14.721,30.979-17.027,46.12-18.299
						c5.996-0.502,14.006,7.49,13.475,18.299c7.5,0,6.402,15.098,6.402,15.098S306.44,89.132,306.442,74.861z"/>
					<g>
						<path fill="#A1856E" d="M296.433,85.361c-0.77-0.826-1.684-1.229-2.793-1.229h-1.05l0.052-1.049
							c0.252-5.141-1.525-10.109-4.879-13.633c-2.203-2.312-4.773-3.639-7.055-3.639c-0.154,0-0.309,0.006-0.459,0.018
							c-14.297,1.201-40.908,3.434-45.248,17.596l-0.202,0.66l-0.689,0.045c-2.008,0.129-3.478,0.785-4.492,2.006
							c-2.198,2.643-1.903,7.561-1.489,11.031l0.413,3.471c8.029,17.537,24.43,27.082,34.583,27.082
							c10.376,0,28.508-11.809,35.972-31.209C299.114,93.681,298.838,87.947,296.433,85.361z M250.163,98.642
							c-1.777,0.012-3.166-2.199-3.115-4.936c0.057-2.734,1.541-4.963,3.303-4.973c1.766-0.01,3.16,2.195,3.107,4.939
							C253.405,96.41,251.927,98.634,250.163,98.642z M276.007,98.539c-1.713,0.006-3.053-2.25-2.998-5.045
							c0.061-2.795,1.498-5.064,3.207-5.074c1.709-0.006,3.045,2.252,2.986,5.045C279.146,96.259,277.7,98.525,276.007,98.539z"/>
					</g>
				</g>
			</g>
		</g>
		<g>
			<g>
				<g>
					<g>
						<path fill="#A1856E" d="M284.737,118.558c-7.133,6.197-15.389,10.162-21.613,10.162c-6.717,0-15.053-3.793-22.149-9.896
							c-43.975,9.506-79.963,47.66-47.455,91.29l7.825-11.082c-6.228-30.893,18.798-36.016,18.798-36.016
							s-6.794,15.824-11.049,38.821c0.3,0.158,0.537,0.35,0.648,0.588c0.183,0.387,0.125,0.836-0.148,1.168
							c-1.005,1.229-1.403,2.914-0.927,3.92c0.278,0.588,0.847,0.873,1.738,0.873c0.19,0,0.395-0.014,0.607-0.041
							c1.48-0.193,1.552-0.287,1.516-1.98l-0.016-0.738l0.7-0.232c0.252-0.084,0.523-0.127,0.808-0.127
							c1.676,0,3.742,1.549,4.605,3.455c1.036,2.295,0.2,5.045-1.855,6.395c-0.188,1.01-0.778,2.516-1.834,3.697
							c-1.349,1.508-2.811,2.859-5.863,2.859c-0.919,0-1.798-0.109-2.641-0.303c-0.027,0.32-0.06,0.635-0.085,0.955
							c2.57,23.17,112.331,22.248,115.597-1.297c-5.084-29.307-15.107-57.797-15.107-57.797s27.393-5.535,32.223,23.918
							l12.281-1.424C353.972,152.578,325.019,125.9,284.737,118.558z"/>
					</g>
				</g>
			</g>
			<g>
				<path fill="#EAE1C8" d="M217.902,200.383c-4.505-0.57-9.126,2.734-8.656,6.975c0.473,4.266,5.736,9.533,10.242,10.107
					c4.504,0.572,5.055-4.145,5.592-8.377C225.618,204.855,222.406,200.957,217.902,200.383z M219.814,214.9
					c-2.998-0.383-6.555-4.186-7.18-7.145c-0.586-2.775,2.093-4.918,5.09-4.535c2.997,0.381,4.986,2.703,4.627,5.52
					C221.993,211.555,222.811,215.281,219.814,214.9z"/>
			</g>
			<path fill="#A1856E" d="M214.191,218.146c1.115-1.248,1.639-2.93,1.645-3.645c1.986-1.002,2.737-3.469,1.879-5.369
				c-0.785-1.732-2.888-3.223-4.187-2.791c0.044,2.043-0.253,2.715-2.386,2.994c-4.361,0.566-4.431-3.801-2.322-6.377
				c0.355-0.432-2.838-0.832-3.069-0.824c-1.343,0.033-2.741,0.438-3.921,1.074c-2.907,1.57-3.869,5.115-3.199,8.229
				c1.157,5.369,4.861,9.234,10.442,9.234C211.689,220.672,212.928,219.559,214.191,218.146z"/>
			<g>
				<path fill="#D8D3C1" d="M249.153,206.049c-1.402,11.014-10.071,18.975-19.364,17.791s-15.691-11.062-14.289-22.076
					c0.521-4.096,8.188-4.176,17.481-2.992C242.273,199.955,249.591,202.623,249.153,206.049z"/>
				
					<ellipse transform="matrix(0.992 0.1263 -0.1263 0.992 27.5308 -27.7292)" fill="#EAE1C8" cx="232.415" cy="203.221" rx="16.963" ry="8.539"/>
				
					<ellipse transform="matrix(0.992 0.1263 -0.1263 0.992 27.535 -27.7328)" fill="#C7C4BA" cx="232.414" cy="203.22" rx="14.262" ry="6.638"/>
			</g>
		</g>
	</g>
	<g>
		<polygon fill="#A15A34" points="589.228,339.883 123.531,339.883 119.113,326.631 593.646,326.631 		"/>
		<polygon fill="#AB6C4A" points="593.646,326.631 119.113,326.631 154.242,227.553 557.517,227.553 		"/>
		<polygon fill="#A15A34" points="549.261,413.135 536.271,413.566 533.435,405.404 545.212,333.258 566.562,333.258 		"/>
		<polygon fill="#A15A34" points="167.702,413.135 180.694,413.566 183.531,405.404 171.752,333.258 150.402,333.258 		"/>
	</g>
	<g>
		<g>
			<polygon fill="#F4EFE2" points="352.493,253.369 338.41,256.238 336.548,253.979 334.237,253.369 335.159,235.559 
				338.41,229.764 347.798,229.764 351.591,235.775 			"/>
			<path fill="#D6C9AC" d="M335.368,252.588c0.182-1.324-0.02-2.887,0.066-4.26c0.082-1.361-0.174-3.072,0.455-4.348
				c1.549-3.146,5.76-3.932,9.035-3.738c1.793,0.107,3.01,0.586,4.453,1.543c0.84,0.557,1.35,0.645,1.549,1.691
				c0.199,1.02,0.09,2.152,0.09,3.205c-0.002,0.982,0.25,1.811,0.346,2.779c0.066,0.648,0.443,1.537,0.348,2.17
				c-0.148,0.984-2.744,1.281-3.67,1.457c-2.416,0.469-4.885,0.844-7.285,1.322c-1.115,0.223-1.994,1.049-2.889-0.082
				c-0.665-0.844-0.828-2.225-2.238-1.74H335.368z"/>
		</g>
		<path fill="#811200" d="M343.364,232.932c-0.002,0-0.005,0-0.008,0c-0.138-0.004-0.246-0.119-0.242-0.258
			c0.119-3.613,0.904-6.152,1.734-8.844c0.447-1.447,0.91-2.943,1.266-4.637c0.836-3.988,0.945-7.535,1.033-10.385
			c0.035-1.148,0.064-2.141,0.137-3.02c0.012-0.139,0.137-0.238,0.27-0.229c0.139,0.01,0.24,0.131,0.229,0.27
			c-0.07,0.865-0.102,1.852-0.136,2.994c-0.088,2.869-0.197,6.441-1.043,10.473c-0.36,1.715-0.826,3.223-1.277,4.682
			c-0.82,2.656-1.596,5.166-1.712,8.711C343.61,232.826,343.499,232.932,343.364,232.932z"/>
		<g>
			<path fill="#811200" d="M351.702,208.719c0,0.275-0.225,0.5-0.5,0.5h-7.338c-0.275,0-0.5-0.225-0.5-0.5v-7.172
				c0-0.275,0.225-0.5,0.5-0.5h7.338c0.275,0,0.5,0.225,0.5,0.5V208.719z"/>
		</g>
		<path fill="#A1856E" d="M350.106,201.498c-0.623,0.635-2.299,0.805-3.012,1.797c-0.609,0.848-0.578,1.768,0.096,2.588
			c1.768,2.154,5.941,1.908,9.418,1.074c1.994-0.48,3.795-1.656,5.033-3.26c0-5.07-6.111-5.445-10.844-3.797
			C350.763,200.498,350.538,201.057,350.106,201.498z"/>
	</g>
</g>
<g>
	<polygon fill="#D6C9AC" points="215.725,269.373 199.411,247.842 180.121,253.203 181.867,268.178 194.736,290.938 
		213.979,282.762 	"/>
	<polygon fill="#EAE1CD" points="215.725,269.373 194.391,276.438 180.121,253.203 199.411,247.842 	"/>
</g>
<g>
	<g>
		<path fill="#888886" d="M433.567,277.023c-12.836-1.748-24.236,4.131-25.463,13.131c-0.215,1.572-0.682,3.494-0.928,5.299
			c-1.227,9.002,8.186,17.719,21.02,19.467c12.838,1.75,24.238-4.131,25.465-13.131c0.215-1.574,0.682-3.492,0.928-5.299
			C455.815,287.49,446.405,278.773,433.567,277.023z"/>
		
			<ellipse transform="matrix(0.9908 0.1351 -0.1351 0.9908 43.5662 -55.5676)" fill="#AAABA8" cx="431.347" cy="293.322" rx="23.457" ry="16.452"/>
	</g>
	<path fill="#EAE1CD" d="M437.677,250.715c-11.314-1.541-21.361,3.641-22.443,11.574c-0.188,1.385-3.727,25.047-3.943,26.637
		c-1.08,7.934,7.215,15.615,18.527,17.156c11.314,1.543,21.361-3.641,22.443-11.574c0.188-1.385,3.725-25.045,3.943-26.637
		C457.283,259.939,448.989,252.258,437.677,250.715z"/>
	
		<ellipse transform="matrix(0.9908 0.135 -0.135 0.9908 39.7737 -56.3943)" fill="#F0E9DB" cx="435.719" cy="265.08" rx="20.675" ry="14.498"/>
	<path fill="#AAABA8" d="M420.478,251.605c1.283,0.5,2.93-0.975,3.676-3.293c0.746-2.32,0.457-3.338-0.827-3.838
		c-0.456-0.178-3.261-1.318-3.757-1.512c-1.283-0.5-3.123,0.342-3.869,2.66s-0.264,3.971,1.02,4.471
		C417.177,250.271,419.979,251.412,420.478,251.605z"/>
	<path fill="#AAABA8" d="M458.224,254.881c1.021-7.504-6.822-14.768-17.521-16.225c-10.699-1.459-20.201,3.443-21.225,10.943
		c-0.361,2.664-1.59,8.023-1.986,10.924c-1.021,7.5,6.822,14.766,17.521,16.225c10.699,1.457,20.203-3.443,21.225-10.945
		C456.601,263.139,457.829,257.779,458.224,254.881z"/>
	
		<ellipse transform="matrix(0.9908 0.135 -0.135 0.9908 38.0609 -56.9243)" fill="#BABBB9" cx="438.852" cy="252.24" rx="19.362" ry="13.577"/>
	
		<ellipse transform="matrix(0.9908 0.135 -0.135 0.9908 38.0672 -56.9323)" fill="#AAABA8" cx="438.851" cy="252.24" rx="17.912" ry="12.56"/>
	
		<ellipse transform="matrix(0.9908 0.135 -0.135 0.9908 37.7469 -57.4622)" fill="#C4C5C3" cx="442.662" cy="249.655" rx="11.367" ry="7.971"/>
	<path fill="#AAABA8" d="M460.042,266.82c1.621,0.822,3.584,1.994,3.277,3.951c-0.361,2.299-2.832,11.186-3.898,14
		c-0.43,1.135-5.076,0.68-4.223-1.891c0.902-2.709,1.721-6.182,2.678-8.758c1.332-3.578-1.334-3.076-3.607-4.07
		c-0.764-1.781,0.086-4.021,1.355-4.59C457.466,265.986,458.804,266.195,460.042,266.82z"/>
</g>
</svg>
