<?xml version="1.0" encoding="utf-8"?>
<!-- Generator: Adobe Illustrator 15.0.2, SVG Export Plug-In . SVG Version: 6.00 Build 0)  -->
<!DOCTYPE svg PUBLIC "-//W3C//DTD SVG 1.1//EN" "http://www.w3.org/Graphics/SVG/1.1/DTD/svg11.dtd">
<svg version="1.1" id="Layer_1" xmlns="http://www.w3.org/2000/svg" xmlns:xlink="http://www.w3.org/1999/xlink" x="0px" y="0px"
	 width="720px" height="460px" viewBox="0 0 720 460" enable-background="new 0 0 720 460" xml:space="preserve">
<polygon fill="#E38656" points="331.762,432.494 92.797,432.494 222.314,325.635 400.303,325.635 "/>
<g>
	<path fill="#C9BDA4" d="M297.095,113.799l-2.383,1.745v154.159c0.017,0.002,0.028,0.002,0.047,0.002
		c0.251,0,0.546-0.027,0.832-0.055c0.312-0.029,0.635-0.059,0.943-0.059c0.889,0,1.505,0.293,1.832,0.871
		c0.242,0.426,0.845,1.941-1.532,3.572c-0.674,0.465-1.417,0.789-2.121,1.006v79.256l2.383,2.811l80.096-5.135V119.265
		L297.095,113.799z"/>
</g>
<g>
	<path fill="#AE9E7D" d="M296.833,274.035c-0.674,0.465-1.417,0.789-2.121,1.006v79.256l2.383,2.811v-83.266
		C297.01,273.906,296.928,273.971,296.833,274.035z"/>
	<path fill="#AE9E7D" d="M294.759,269.705c0.251,0,0.546-0.027,0.832-0.055c0.312-0.029,0.635-0.059,0.943-0.059
		c0.203,0,0.387,0.02,0.562,0.049V113.799l-2.383,1.745v154.159C294.729,269.705,294.741,269.705,294.759,269.705z"/>
</g>
<polygon fill="#BCC077" points="627.203,432.494 331.762,432.494 401.393,325.736 592.172,325.533 "/>
<polygon fill="#E3D7BC" points="613.381,390.084 359.908,390.293 385.25,351.371 600.602,351.168 "/>
<g>
	<g>
		<g>
			<path fill="#A1856E" d="M511.746,304.133c-5.629,1.879-12.193,2.871-19.194,2.871c-9.332,0-18.954-1.793-26.397-4.918
				c-5.889-2.475-10.105-5.639-12.314-9.154c-9.074,17.758-8.105,49.645-7.574,61.822l6.117,0.473
				c7.816-16.578,17.01-28.5,25.545-36.662c6.053,15.314,11.967,28.301,25.316,43.289l6.137-0.074
				C506.861,336.74,508.998,322.311,511.746,304.133z"/>
		</g>
	</g>
	<path fill="#A1856E" d="M449.438,361.789c-1.768,0.049-5.826,0.055-7.152-1.025c-2.861-2.314,2.434-3.863,5.078-4.334
		C454.152,355.23,457.316,361.564,449.438,361.789z"/>
	<path fill="#A1856E" d="M507.578,368.895c-1.764,0.049-5.824,0.051-7.148-1.027c-2.861-2.314,2.432-3.863,5.076-4.332
		C512.297,362.334,515.459,368.67,507.578,368.895z"/>
	<path fill="#A1856E" d="M435.326,289.922c-1.668-1.016-2.928-3.797-1.473-5.096c1.285-1.148,2.744-0.5,4.197-0.318
		c1.857,0.229,3.314,0.08,3.77-0.982l-0.471-4.062c0,0,2.789,0.131,4.719,2.062c1.451,1.451,1.621,4.131,0.58,5.93
		C444.404,291.344,439.061,292.195,435.326,289.922z"/>
	<g>
		<path fill="#A1856E" d="M414.678,274.818c0.08,1.537,1.205,4.424,3.881,4.908c2.941,0.535,4.936-0.553,4.936-3.021
			c0-2.76-4.564-4.502-4.564-4.502l-0.424-2.572C415.895,270.479,414.58,272.879,414.678,274.818z"/>
		<g>
			<path fill="#DD8970" d="M439.838,292.166c-1.798,0-3.537-0.48-5.032-1.391c-1.374-0.836-2.433-2.51-2.575-4.068
				c-0.096-1.057,0.244-1.99,0.956-2.627c0.692-0.619,1.499-0.92,2.464-0.92c0.584,0,1.141,0.107,1.68,0.211
				c0.281,0.055,0.562,0.109,0.843,0.145c0.458,0.057,0.868,0.084,1.22,0.084c0.445,0,0.963-0.053,1.271-0.238l-3.943-37.801
				l-4.465-0.012l-14.639,1.18l2.93,25.119c1.557,0.818,3.947,2.459,3.947,4.857c0,2.02-1.094,3.42-2.922,3.932l1.912,16.398
				l15.238,4.988l3.727-1.533l-0.885-8.492C441.004,292.098,440.431,292.166,439.838,292.166z"/>
		</g>
	</g>
	<g>
		<path fill="#A1856E" d="M493.76,211.791c-3.277-2.008-5.746-1.678-8.814-2.107c-0.383-7.703-1.441-13.25-4.814-17.854
			c-2.852-3.875-9.049-7.074-14.695-7.992c-4.189-0.678-9.256-0.6-12.701,1.304c-4.064,2.243-4.949,8.151-5.264,14.008
			c-1.938-9.932,2.936-20.284,9.457-26.011c6.311-5.547,26.797-12.081,39.559-2.666c20.693,15.262,8.637,45.189,6.133,49.167
			c-0.975,1.553-5.799,5.588-7.338,6.416C496.678,219.555,496.576,213.516,493.76,211.791z"/>
		<g>
			<path fill="#A1856E" d="M448.732,206.957c2.678,19.99,14.33,29.816,19.969,29.947c4.572,0.104,13.961-1.883,21.172-7.264
				c1.602-1.195,3.059-2.588,4.365-4.033c1.381-6.584,0.971-11.627-1.059-12.867c-0.723-0.443-1.43-0.779-2.162-1.029
				c-1.365-0.471-2.676-0.584-4.059-0.699c-0.689-0.059-1.408-0.121-2.168-0.229l-0.908-0.127l-0.049-0.918
				c-0.352-7.068-1.271-12.707-4.604-17.25c-2.566-3.497-8.75-6.615-13.693-7.434c-3.719-0.615-9.244-0.55-12.238,1.181
				c-3.65,2.107-4.42,7.411-4.719,12.973c-0.123,2.291-0.1,4.611,0.074,6.895l0.029,0.387
				C448.705,206.658,448.719,206.814,448.732,206.957z M467.365,209.102c-1.127-0.051-1.967-1.84-1.871-4.004
				c0.096-2.162,1.088-3.873,2.219-3.824c1.127,0.051,1.963,1.844,1.869,4.006C469.488,207.438,468.49,209.15,467.365,209.102z
				 M454.32,200.65c0.99,0.043,1.717,1.867,1.621,4.072c-0.102,2.209-0.984,3.961-1.98,3.918c-0.984-0.047-1.713-1.869-1.619-4.074
				C452.443,202.359,453.328,200.605,454.32,200.65z"/>
			<g>
				<path fill="#A1856E" d="M501.699,244.713c-3.346-5.916-7.941-10.383-13.311-12.855c-6.971,4.402-15.174,6.051-19.34,6.051
					c-0.127,0-0.25-0.002-0.37-0.004c-1.358-0.031-3.101-0.6-5-1.725c-9.02,9.494-13.542,26.871-32.978,34.68l1.137,6.582
					c21.1-1.742,28.355-15.873,28.355-15.873s0.491,7.254-2.198,16.23c12.697-3.818,20.849-12.014,24.795-24.859l0.956,0.293
					c-4.951,16.117-16.326,25.102-34.768,27.461l0.119,6.891c21.211,0.793,42.975-9.58,50.741-24.248l0.884,0.467
					c-7.418,14.01-27.258,24.184-47.443,24.795c-0.023,0.041-0.047,0.082-0.072,0.123c2.541,14.244,38.703,22.592,60.9,13.48
					C514.107,279.047,509.59,258.666,501.699,244.713z"/>
			</g>
		</g>
	</g>
</g>
<polygon fill="#8E7565" points="353.006,94.575 342.99,94.575 342.99,400.92 353.006,400.92 359.908,390.293 359.908,114.17 
	377.109,117.693 377.109,351.27 385.25,351.27 389.182,345.215 389.182,105.495 "/>
<g>
	<g>
		<g>
			<path fill="#7A574A" d="M262.496,291.391c-6.776,7.531-26.415,11.539-44.941,11.539c-7.043,0-13.502-0.596-18.887-1.727
				c-0.007,0.037-0.017,0.072-0.022,0.109c-3.188,19.695,3.799,45.037,13.912,60.502l5.811-0.689
				c1.765-17.6,6.212-35.32,14.61-44.436c8.401,6.275,16.563,20.111,22.634,38.32l6.119-0.449
				c4.061-22.492,6.085-44.027,0.891-62.779C262.585,291.646,262.538,291.521,262.496,291.391z"/>
		</g>
	</g>
	<g>
		<path fill="#7A574A" d="M238.509,182.962c0.521,0.558,1.022,1.161,1.498,1.822c8.373,11.685,6.537,31.919,6.537,31.919
			l-1.765-1.697l-2.17,5.314l-0.589-0.564c1.03-4.58,1.5-9.842,1.087-15.746c-0.589-8.396-3.945-15.943-9.244-21.623
			C235.524,182.542,237.099,182.744,238.509,182.962z"/>
	</g>
	<path fill="#7A574A" d="M163.418,305.898c0.974,1.213,2.147,2.357,3.506,1.043c1.202-1.16,0.681-2.617,0.608-4.035
		c-0.09-1.814,0.159-3.211,1.219-3.574c1.427-0.492,1.888,2.182,2.993,1.91c0.883-0.213,0.87-1.393,0.802-2.445
		c-0.08-1.137-0.81-2.488-1.416-3.273c-1.33-1.727-3.17-2.119-4.981-1.244C162.228,296.172,160.624,302.43,163.418,305.898z"/>
	<path fill="#7A574A" d="M215.318,369.689c1.551,0.607,5.343,0.859,6.443-0.357c2.159-2.387-0.586-4.715-2.952-5.646
		C213.366,361.541,209.157,367.277,215.318,369.689z"/>
	<path fill="#7A574A" d="M258.567,362.275c1.55,0.607,5.343,0.859,6.442-0.355c2.16-2.387-0.585-4.715-2.951-5.646
		C256.615,354.129,252.406,359.863,258.567,362.275z"/>
	<g>
		<path fill="#7A574A" d="M218.794,182.141c-6.832,2.029-11.13,10.15-12.38,13.82c-0.72,2.102-2.671,5.951-3.141,15.459
			c-0.354,7.107,0.558,21.527,0.548,21.668c-1.892-0.223-5.615-2.973-5.615-2.973l-1.014,9.576l-7.653-6.633l-0.682,5.074
			c0,0-8.953-15.014-10.717-28.156c-1.673-12.484,3.496-23.041,8.519-28.404c4.173-4.448,8.653-7.721,15.335-9.264
			c7.386-1.705,13.802-0.67,22.534-0.225c6.957,0.357,20.377-0.883,20.377-0.883l-9.399,5.857l9.653,6.041
			C245.16,183.099,229.2,179.047,218.794,182.141z"/>
	</g>
	<g>
		<path fill="#7A574A" d="M204.944,233.178l-0.093,1.17l-1.162-0.141c-0.243-0.027-0.511-0.088-0.795-0.174
			c-1.188-0.359-2.663-1.215-3.765-1.924l-0.043,0.395c10.379,6.523,22.512,8.004,28.057,6.984
			c5.788-1.066,16.371-13.59,14.843-35.402c-0.644-9.141-4.402-16.542-9.763-21.834c-4.387-0.303-9.183-0.199-13.109,0.968
			c-6.534,1.943-10.613,10.12-11.635,13.106c-0.103,0.295-0.226,0.627-0.369,0.998c-0.865,2.289-2.315,6.117-2.714,14.152
			c-0.198,4.027-0.028,11.004,0.507,20.736C204.951,233.082,204.951,233.082,204.944,233.178z M237.468,208.088
			c-0.976,0.201-2.126-1.387-2.575-3.549c-0.447-2.164-0.018-4.08,0.954-4.281c0.971-0.199,2.124,1.391,2.571,3.555
			C238.866,205.973,238.434,207.889,237.468,208.088z M222.715,203.807c1.107-0.227,2.36,1.301,2.798,3.424
			c0.438,2.117-0.105,4.02-1.208,4.246c-1.11,0.229-2.359-1.303-2.8-3.42C221.071,205.939,221.614,204.035,222.715,203.807z"/>
		<g>
			<path fill="#7A574A" d="M287.554,265.168c-19.023-4.457-28.624-26.816-51.36-31.865c-2.925,4.227-6.251,6.686-8.87,7.168
				c-1.117,0.207-2.434,0.311-3.912,0.311c-4.562,0-10.977-1.031-17.478-3.674c-15.983,8.186-28.199,26.701-39.581,54.363
				l7.132,2.504c12.362-20.219,24.336-30.23,24.336-30.23s-1.797,16.02-1.516,35.885c22.509,5.875,67.065,0.217,67.657-13.799
				c-1.995-16.602-10.641-29.578-10.641-29.578s20.339,16.031,32.814,16.268L287.554,265.168z"/>
		</g>
	</g>
	<g>
		<path fill="#7A574A" d="M293.411,261.635v8.453c0.623,1.373,3.525-0.121,4.085,0.867c0.448,0.791-0.362,1.662-1.229,2.258
			c-1.117,0.77-2.596,1.16-3.587,1.184c-1.926,0.047-3.385-0.199-4.201-2.533c-0.724-2.07-0.558-4.119,0.513-6.777
			C289.987,262.619,291.542,261.41,293.411,261.635z"/>
	</g>
</g>
<polygon fill="#AF9474" points="359.908,375.334 359.908,390.293 385.25,351.27 377.109,351.27 "/>
<path fill="#8E7565" d="M308.381,230.416c-0.17,0-0.83,0-1,0c-2.395,0-4.334,2.559-4.334,5.713s1.939,5.713,4.334,5.713
	c0.17,0,0.83,0,1,0c2.393,0,4.332-2.559,4.332-5.713S310.773,230.416,308.381,230.416z"/>
<rect x="342.99" y="94.575" fill="#A1856E" width="10.016" height="306.345"/>
<rect x="377.109" y="117.693" fill="#A1856E" width="8.141" height="233.577"/>
<g>
	<polygon fill="#849EB7" points="331.762,27.505 331.762,432.494 353.729,399.807 353.729,94.793 389.182,105.495 389.182,345.215 
		401.289,325.635 401.393,74.014 	"/>
	<rect x="323.713" y="27.505" fill="#97ADC2" width="8.049" height="404.989"/>
</g>
</svg>
