<?xml version="1.0" encoding="utf-8"?>
<!-- Generator: Adobe Illustrator 15.0.2, SVG Export Plug-In . SVG Version: 6.00 Build 0)  -->
<!DOCTYPE svg PUBLIC "-//W3C//DTD SVG 1.1//EN" "http://www.w3.org/Graphics/SVG/1.1/DTD/svg11.dtd">
<svg version="1.1" id="Layer_1" xmlns="http://www.w3.org/2000/svg" xmlns:xlink="http://www.w3.org/1999/xlink" x="0px" y="0px"
	 width="720px" height="460px" viewBox="0 0 720 460" enable-background="new 0 0 720 460" xml:space="preserve">
<g>
	<g>
		<polygon fill="#C9887A" points="438.319,118.51 137.826,257.66 329.952,456.676 606.925,184.754 		"/>
		<polygon fill="#F5EBD1" points="438.319,118.51 137.826,257.66 113.075,44.82 448.958,3.324 		"/>
		<g>
			<polygon fill="#E0D3B5" points="492.615,90.787 488.633,156.366 238.367,319.207 162.535,244.072 152.201,148.57 425.86,76.609 
							"/>
			<polygon fill="#E9E0CA" points="492.615,90.787 488.633,156.366 238.367,319.207 238.421,208.375 			"/>
			<g>
				<polygon fill="#BCAD8D" points="501.115,84.456 431.165,69.599 143.7,145.239 145.7,156.058 227.7,220.417 500.115,92.274 				
					"/>
				<polygon fill="#D6C9AC" points="501.115,84.456 227.7,205.599 143.7,145.239 431.165,69.599 				"/>
			</g>
			<polygon fill="#AAABA8" points="344.368,145.239 283.034,115.448 371.7,90.266 426.368,109.599 			"/>
			<g>
				<path fill="#9F9F9D" d="M346.806,138.966c-1.017,0.421-2.657,0.372-3.646-0.109l-46.327-22.501
					c-0.989-0.481-0.931-1.114,0.129-1.407l74.358-20.556c1.061-0.293,2.776-0.232,3.813,0.134l40.725,14.403
					c1.037,0.367,1.055,1.011,0.038,1.432L346.806,138.966z"/>
			</g>
			<path fill="#939491" d="M415.858,108.932l-40.727-14.403c-1.037-0.366-2.752-0.427-3.812-0.134l-0.268,0.073l0.525,34.243
				l44.318-18.348C416.911,109.942,416.896,109.298,415.858,108.932z"/>
		</g>
	</g>
	<g>
		<g>
			<path fill="#888886" d="M361.12,85.526c0,0-1.434-2.217-10.334,1.022c-2.115,0.771-4.715,1.943-5.91,2.556
				c-0.998,0.512-1.902,1.009-2.387,1.372c-0.508,0.383-1.383,1.328-1.415,1.836c-0.015,0.229,0.597,0.164,1.419,0.32
				c0.514,0.099,1.352,0.278,1.801,0.548c0.254,0.151,2.246,1.076,2.26,1.352c0,0.004,0.879,15.504,0.879,15.504l6.891,18.927
				c0,0,1.922,3.07,11.715-0.493c9.111-3.316,9.301-7.156,9.301-7.156l-7.143-19.627l-9.037-11.743L361.12,85.526z"/>
			<path fill="#777775" d="M343.177,92.784c0.408,0.1,0.836,0.229,1.117,0.396c0.254,0.151,2.246,1.076,2.26,1.352
				c0,0.004,0.879,15.504,0.879,15.504l6.891,18.927c0,0,1.328,2.218,6.458,0.982c-2.081-5.72-7.827-21.144-7.827-21.144
				s-1.283-13.146-2.055-15.111c-0.291-0.739-1.355-1.455-1.355-1.455C346.894,92.976,345.271,93.043,343.177,92.784z"/>
			<g>
				<path fill="#888886" d="M360.163,93.686c0,0,1.535-0.559,4.129-1.503c2.287-0.833,6.26-0.17,7.801,4.062
					c0.924,2.54,1.414,3.755,2.406,6.615c0.641,1.842-3.184,3.036-3.902,1.172c-1.039-2.692-1.705-4.685-2.197-6.035
					c-0.691-1.904-1.475-2.433-3.41-1.816c-1.445,0.46-3.471,1.263-3.471,1.263c-0.586,0.213-1.564-0.664-1.838-1.406
					C359.403,95.278,359.533,93.915,360.163,93.686z"/>
				<path fill="#777775" d="M359.681,96.037c0.269,0.743,1.219,1.631,1.838,1.405c0,0,2.025-0.803,3.471-1.263
					c1.936-0.616,2.719-0.088,3.41,1.816c0.492,1.351,1.158,3.343,2.197,6.035c0.338,0.88,1.367,1.077,2.293,0.849
					c0,0,0.678-0.226,0.957-0.428c-0.861,0.135-1.291-0.49-1.516-1.108c-0.75-2.062-2.053-5.638-2.6-7.143
					c-0.822-2.255-2.896-2.769-5.674-1.757C362.458,95.026,359.681,96.037,359.681,96.037z"/>
			</g>
			<path fill="#666665" d="M359.199,85.727c0.325,0.896-2.827,2.865-7.042,4.399c-0.461,0.167-0.924,0.326-1.391,0.477
				c-1.16,0.372-2.342,0.693-3.541,0.91c-0.465,0.084-0.934,0.152-1.402,0.188c-0.504,0.037-0.973-0.048-1.465-0.169
				c-0.391-0.097-0.752-0.154-1.168-0.151c-0.116,0-0.398,0.049-0.484-0.051c-0.115-0.134,0.041-0.32,0.137-0.399
				c0.355-0.298,1.055-0.683,1.455-0.906c0.447-0.251,2.025-1.072,3.041-1.584c1.18-0.595,2.398-1.104,3.639-1.556
				C355.192,85.35,358.874,84.832,359.199,85.727z"/>
		</g>
		<path fill="#C83B0C" d="M366.731,104.898c3.277,1.327,5.8-2.264,5.793-5.198c-0.006-1.412-0.607-2.75-1.777-3.58
			c-2.08-1.475-5.986-1.453-7.35,1.033C361.985,99.725,364.204,103.875,366.731,104.898z"/>
		<g>
			<path fill="#C83B0C" d="M495.756,178.337c-1.02,1.327-2.258,2.587-3.748,1.203c-1.32-1.222-0.793-2.803-0.748-4.331
				c0.057-1.957-0.242-3.452-1.391-3.819c-1.547-0.497-1.984,2.392-3.18,2.123c-0.955-0.211-0.967-1.479-0.918-2.613
				c0.061-1.229,0.814-2.697,1.451-3.558c1.395-1.888,3.363-2.352,5.332-1.449C496.818,167.842,498.688,174.541,495.756,178.337z"/>
			<path fill="#C83B0C" d="M446.235,242.828c-1.842,0.103-6.076,0.223-7.494-0.859c-3.051-2.336,2.426-4.108,5.174-4.674
				C450.964,235.84,454.452,242.361,446.235,242.828z"/>
			<path fill="#C83B0C" d="M410.312,237.777c-1.844-0.014-6.08-0.152-7.424-1.324c-2.902-2.516,2.674-3.945,5.453-4.342
				C415.464,231.098,418.542,237.82,410.312,237.777z"/>
		</g>
		<g>
			<g>
				<path fill="#C83B0C" d="M441.734,183.343c-14.872,0-32.767-2.941-40.614-7.976c-1.797,23.478-1.354,41.955,6.369,54.83
					l7.168,1.062c2.457-12.924,8.557-22.117,16.205-34.682c1.492,15.799,5.689,26.363,12.357,38.666l6.549,0.87
					c3.338-23.177,12.959-38.558,15.447-57.101C459.243,182.83,447.562,183.343,441.734,183.343z"/>
			</g>
		</g>
		<g>
			<path fill="#C83B0C" d="M423.688,54.992c-0.562,0.445-1.113,0.936-1.648,1.484c-9.406,9.688-10.521,28.741-10.521,28.741
				l1.875-1.33l1.277,5.241l0.623-0.443c-0.316-4.399-0.023-9.354,1.188-14.781c1.717-7.719,5.887-14.261,11.602-18.796
				C426.521,55.02,425.028,54.987,423.688,54.992z"/>
		</g>
		<g>
			<path fill="#C83B0C" d="M442.116,56.979c6.066,2.838,8.926,10.982,9.574,14.566c0.377,2.051,1.652,5.9,0.764,14.799
				c-0.662,6.652-3.52,19.922-3.529,20.055c1.787,0.055,5.631-1.979,5.631-1.979l-0.393,9.036l8.033-5.092l-0.072,4.807
				c0,0,10.408-12.702,13.881-24.664c3.294-11.365-0.033-21.894-3.955-27.575c-3.256-4.716-6.963-8.38-12.953-10.744
				c-6.627-2.616-12.73-2.549-20.906-3.352c-6.51-0.638-18.803-3.662-18.803-3.662l7.912,6.752l-9.811,4.269
				C417.489,54.194,432.882,52.652,442.116,56.979z"/>
		</g>
		<g>
			<path fill="#C83B0C" d="M448.042,105.434c1.854-8.969,2.984-15.425,3.361-19.194c0.752-7.52-0.062-11.279-0.547-13.526
				c-0.082-0.366-0.15-0.69-0.201-0.979c-0.537-2.918-3.184-11.082-8.982-13.797c-3.488-1.633-7.93-2.396-12.047-2.727
				c-5.717,4.168-10.242,10.52-12.113,18.922c-4.459,20.053,3.621,33.16,8.852,34.959c5.01,1.72,16.488,2.037,27.041-2.576
				l0.014-0.374c-1.123,0.504-2.613,1.096-3.766,1.264c-0.275,0.041-0.531,0.058-0.762,0.05l-1.102-0.033l0.08-1.099
				C447.874,106.234,447.874,106.234,448.042,105.434z M420.864,74.373c0.717-1.945,2.01-3.262,2.885-2.941
				c0.875,0.322,1.006,2.162,0.289,4.11c-0.721,1.946-2.01,3.261-2.887,2.939C420.284,78.16,420.146,76.321,420.864,74.373z
				 M435.987,80.676c-0.705,1.905-2.08,3.156-3.082,2.789c-0.99-0.366-1.23-2.208-0.529-4.114c0.703-1.91,2.08-3.155,3.076-2.791
				C436.444,76.925,436.685,78.769,435.987,80.676z"/>
			<g>
				<path fill="#C83B0C" d="M461.271,115.79l-0.188,0.231l0.005-0.359c-1.363-0.935-2.779-1.841-4.25-2.717l-2.139,1.355
					l-1.618,1.025l0.083-1.914l0.107-2.468c-1.229-0.651-2.482-1.289-3.783-1.9c-4.562,1.438-9.51,2.213-14.32,2.213
					c-3.596,0-6.838-0.434-9.129-1.22c-2.979-1.024-6.559-5.112-8.76-11.558c-12.924-3.045-25.478-4.226-43.836-3.336l0.248,8.58
					c27.342,5.214,34.102,15.066,34.102,15.066s-6.918,29.28-9.713,50.486c-1.668,12.658,67.777,19.528,69.789,4.559
					c1.975-14.678-5.107-36.877-5.107-36.877s13.596,7.72,22.286,28.495l7.578-2.775
					C487.754,145.112,479.037,128.045,461.271,115.79z"/>
			</g>
		</g>
	</g>
	<g>
		<g>
			<g>
				<path fill="#888886" d="M330.69,84.605c-2.24,0-4.055,0.513-4.055,1.145v12.287c0,0.632,1.814,1.145,4.055,1.145
					s4.057-0.513,4.057-1.145V85.75C334.747,85.118,332.931,84.605,330.69,84.605z"/>
			</g>
			<path fill="#777775" d="M330.081,84.622c-1.947,0.084-3.445,0.555-3.445,1.128v12.287c0,0.573,1.498,1.044,3.445,1.128V84.622z"
				/>
			<ellipse fill="#9F9F9D" cx="330.691" cy="85.75" rx="4.056" ry="1.146"/>
		</g>
		<g>
			<g>
				<path fill="#888886" d="M353.099,65.615c-1.299,0-2.354,0.297-2.354,0.663v3.564c0,0.365,1.055,0.663,2.354,0.663
					s2.351-0.298,2.351-0.663v-3.564C355.449,65.912,354.397,65.615,353.099,65.615z"/>
			</g>
			<path fill="#777775" d="M352.745,65.625c-1.13,0.049-2,0.321-2,0.653v3.564c0,0.331,0.87,0.604,2,0.652V65.625z"/>
			<ellipse fill="#9F9F9D" cx="353.097" cy="66.278" rx="2.352" ry="0.664"/>
		</g>
		<path fill="#888886" d="M332.19,85.774l-3-0.049c0.047-2.787,0.031-7.413,0.016-12.311c-0.008-2.446-0.016-4.919-0.016-7.178
			c0-4.651,2.34-8.609,6.418-10.859c4.402-2.429,10-2.396,13.932,0.082c3.54,2.23,5.336,6.104,5.056,10.906l-2.995-0.175
			c0.217-3.715-1.049-6.548-3.66-8.194c-2.987-1.882-7.463-1.88-10.883,0.008c-1.817,1.003-4.867,3.405-4.867,8.232
			c0,2.256,0.008,4.725,0.016,7.169C332.222,78.318,332.237,82.959,332.19,85.774z"/>
		<path fill="#9EC3D6" d="M356.747,88.063c0,0-1.338,0.73-3.193,1.466c-1.648,0.653-4.104,1.428-4.104,1.428l1.296-21.114h4.704
			L356.747,88.063z"/>
	</g>
</g>
</svg>
