<?xml version="1.0" encoding="utf-8"?>
<!-- Generator: Adobe Illustrator 15.0.2, SVG Export Plug-In . SVG Version: 6.00 Build 0)  -->
<!DOCTYPE svg PUBLIC "-//W3C//DTD SVG 1.1//EN" "http://www.w3.org/Graphics/SVG/1.1/DTD/svg11.dtd">
<svg version="1.1" id="Layer_1" xmlns="http://www.w3.org/2000/svg" xmlns:xlink="http://www.w3.org/1999/xlink" x="0px" y="0px"
	 width="720px" height="460px" viewBox="0 0 720 460" enable-background="new 0 0 720 460" xml:space="preserve">
<polygon fill="#CE9487" points="447.641,127.646 147.148,266.797 323.451,449.422 597.604,187.929 "/>
<polygon fill="#F5EBD1" points="447.641,127.646 147.148,266.797 122.396,33.208 458.281,10.578 "/>
<g>
	<g>
		<g>
			<polygon fill="#BCAD8D" points="299.959,212.386 293.199,209.748 285.363,210.623 285.502,290.119 292.369,296.025 
				299.891,290.143 			"/>
		</g>
	</g>
	<g>
		<g>
			<polygon fill="#BCAD8D" points="231.553,166.335 226.516,164.37 219.535,165.592 224.223,230.981 229.34,235.383 
				236.086,231.569 			"/>
		</g>
	</g>
	<g>
		<g>
			<polygon fill="#BCAD8D" points="412.432,155.514 407.676,153.658 402.16,154.273 399.961,206.825 404.793,210.981 
				410.086,207.154 			"/>
		</g>
	</g>
	<g>
		<g>
			<polygon fill="#BCAD8D" points="419.195,150.432 206.604,155.688 208.135,163.973 284.17,229.371 418.43,156.42 			"/>
			<polygon fill="#CCBEA1" points="419.195,150.432 284.17,218.021 206.604,155.688 342.041,119.702 			"/>
		</g>
	</g>
</g>
<g>
	<path fill="#7A574A" d="M360.617,174.512c1.947,1.188,7.613-0.477,8.184,0.921c0.428,1.045-1.164,2.457,0.164,3.295
		c1.895,1.194,3.98-3.283,4.24-4.594c1.287-6.501-10.289-7.314-12.725-2.511C359.678,173.206,359.881,174.062,360.617,174.512z"/>
	<path fill="#7A574A" d="M494.791,221.133c-0.832,0.45-2.283,0.352-3.518,0.123c-1.439-0.266-2.266-1.219-3.646-0.086
		c-0.951,0.779-0.334,2.356-1.814,2.812c-2.432,0.746-2.752-3.462-2.67-4.973c0.324-6.061,9.666-4.8,11.83-0.648
		C495.779,219.908,495.527,220.736,494.791,221.133z"/>
	<path fill="#7A574A" d="M443.543,284.248c-1.709,0.05-5.639,0.056-6.928-0.984c-2.771-2.241,2.352-3.748,4.914-4.203
		C448.102,277.887,451.174,284.02,443.543,284.248z"/>
	<path fill="#7A574A" d="M409.914,276.311c-1.709-0.059-5.635-0.293-6.852-1.413c-2.627-2.405,2.578-3.592,5.164-3.89
		C414.859,270.245,417.545,276.556,409.914,276.311z"/>
	<g>
		<g>
			<path fill="#7A574A" d="M438.39,227.793c-13.753,0-31.24-2.944-36.562-8.401c-0.191-0.197-0.344-0.4-0.502-0.603
				c-0.973,14.725,1.635,33.888,6.16,50.422l6.621,1.164c3.506-12.102,7.121-22.708,14.289-30.924
				c3.523,12.964,7.082,23.433,11.734,37.719l7.607,1.044c1.295-24.287,10.442-37.451,13.043-55.491
				C456.396,227.281,443.734,227.793,438.39,227.793z"/>
		</g>
	</g>
	<g>
		<path fill="#7A574A" d="M425.635,108.07c-0.553,0.371-1.098,0.785-1.631,1.252c-9.4,8.279-11.812,25.819-11.812,25.819
			l1.832-1.094l0.801,4.938l0.607-0.365c0.025-4.091,0.656-8.652,2.168-13.583c2.148-7.014,6.477-12.762,12.092-16.544
			C428.252,108.3,426.875,108.161,425.635,108.07z"/>
	</g>
	<g>
		<path fill="#7A574A" d="M442.535,111.24c5.402,3.063,7.457,10.803,7.799,14.164c0.201,1.925,1.1,5.577-0.365,13.743
			c-1.094,6.103-4.697,18.168-4.717,18.29c1.65,0.181,5.352-1.421,5.352-1.421l-1.018,8.328l7.797-4.128l-0.412,4.441
			c0,0,10.543-10.993,14.619-21.805c3.869-10.272,1.555-20.25-1.66-25.79c-2.67-4.595-5.834-8.252-11.201-10.873
			c-5.939-2.899-11.588-3.279-19.09-4.613c-5.977-1.062-17.127-4.748-17.127-4.748l6.83,6.817l-9.383,3.237
			C419.959,106.882,434.307,106.571,442.535,111.24z"/>
	</g>
	<g>
		<path fill="#7A574A" d="M449.408,157.557c-1.178,0.42-2.752,0.894-3.876,0.894c-0.138,0-0.267-0.007-0.39-0.02l-1.045-0.114
			l0.166-1.038c0.013-0.077,0.013-0.077,0.211-0.76c2.951-10.173,4.082-15.158,4.51-17.548c1.24-6.916,0.758-10.447,0.469-12.557
			c-0.045-0.338-0.086-0.638-0.115-0.908c-0.276-2.732-2.127-10.463-7.297-13.395c-3.107-1.763-7.168-2.794-10.949-3.395
			c-5.581,3.441-10.219,8.982-12.555,16.608c-5.576,18.222,0.949,30.93,5.656,32.972c4.506,1.952,15.088,3.075,25.176-0.419
			L449.408,157.557z"/>
		<g>
			<path fill="#7A574A" d="M456.577,166.51l-0.867,0.904l0.144-1.548c-0.893-0.786-1.816-1.534-2.771-2.243l-3.029,1.604
				l-1.692,0.896l0.232-1.902l0.399-3.258c-0.768-0.431-1.547-0.847-2.354-1.227c-3.541,0.916-7.318,1.399-11.094,1.399
				c-4.576,0-8.969-0.719-11.75-1.924c-1.022-0.444-2.094-1.308-3.116-2.539c-18.461,3.107-29.528,16.004-44.825,12.404
				l-1.314,7.269c11.564,6.482,32.701-1.836,32.701-1.836s-5.574,20.467-6.098,41.129c-0.299,11.839,62.611,16.49,60.131,2.701
				c-2.559-14.23-4.211-29.598-4.211-29.598s8.23,13.747,24.029,28.427l5.748-4.403C476.607,198.959,469.844,178.686,456.577,166.51
				z"/>
		</g>
	</g>
	<g>
		<path fill="#7A574A" d="M421.621,125.79c0.803-1.749,2.092-2.872,2.881-2.513c0.785,0.362,0.771,2.073-0.031,3.822
			c-0.807,1.748-2.094,2.87-2.881,2.51C420.811,129.249,420.814,127.539,421.621,125.79z"/>
	</g>
	<g>
		<path fill="#7A574A" d="M435.148,132.712c-0.789,1.711-2.15,2.768-3.049,2.356c-0.893-0.411-0.98-2.131-0.193-3.843
			c0.789-1.715,2.152-2.768,3.047-2.359C435.844,129.276,435.932,130.999,435.148,132.712z"/>
	</g>
</g>
<g>
	<g>
		<polygon fill="#B5B6B3" points="245.479,128.828 243.842,127.574 240.566,53.91 337.018,41.629 		"/>
		<polygon fill="#C7C4BA" points="338.656,108.359 245.479,128.828 242.203,53.91 338.656,41.629 		"/>
		<path fill="#F9F7F0" d="M346.98,105.289l-93.34,19.649c0,0-5.117-11.872-6.961-27.019c-1.924-15.826-2.838-44.009-2.838-44.009
			l96.451-12.281c0,0-1.359,18.02,0.547,36.231C342.682,95.463,346.98,105.289,346.98,105.289z"/>
		<polygon fill="#B5B6B3" points="340.703,36.896 242.066,58.823 240.02,57.332 239.543,43.959 338.656,35.405 		"/>
		<polygon fill="#C7C4BA" points="340.703,46.738 242.066,58.823 241.59,45.45 340.703,36.896 		"/>
		<polygon fill="#DDDBD5" points="304.994,61.28 282.27,64.145 282.068,59.617 304.994,56.776 		"/>
		<g>
			<path fill="#DCDAD4" d="M266.648,113.472c-3.201-12.556-5.037-27.161-5.037-40.069h1c0,12.829,1.824,27.343,5.006,39.822
				L266.648,113.472z"/>
			<path fill="#DCDAD4" d="M282.35,109.868c-3.107-12.183-4.889-26.356-4.889-38.885h1c0,12.449,1.771,26.532,4.857,38.638
				L282.35,109.868z"/>
			<path fill="#DCDAD4" d="M297.564,107.25c-3.108-12.191-4.891-26.377-4.891-38.92h1c0,12.464,1.771,26.56,4.859,38.673
				L297.564,107.25z"/>
			<path fill="#DCDAD4" d="M312.9,104.116c-3.27-12.82-4.928-25.514-4.928-37.73h1c0,12.133,1.647,24.744,4.896,37.483
				L312.9,104.116z"/>
			<path fill="#DCDAD4" d="M328.518,101.359c-3.03-11.883-4.768-25.709-4.768-37.932h1c0,12.143,1.727,25.879,4.736,37.685
				L328.518,101.359z"/>
		</g>
		
			<rect x="293.26" y="40.584" transform="matrix(0.1524 0.9883 -0.9883 0.1524 327.395 -223.0987)" fill="#DCDAD4" width="1" height="77.463"/>
		
			<rect x="294.567" y="52.472" transform="matrix(0.1748 0.9846 -0.9846 0.1748 333.1123 -215.4)" fill="#DCDAD4" width="1" height="77.133"/>
		
			<rect x="296.739" y="63.134" transform="matrix(0.1993 0.9799 -0.9799 0.1993 337.94 -209.6136)" fill="#DCDAD4" width="1" height="77.71"/>
	</g>
	<path fill="#C9887A" d="M285.496,95.506c-2.467,0-5.827-0.458-8.08-2.597c-1.73-1.643-2.514-4.013-2.328-7.044
		c0.172-2.824,1.461-5.018,3.726-6.346c0.102-0.059,0.204-0.117,0.309-0.172c0.661-0.8,1.513-1.419,2.819-1.911
		c2.02-0.76,3.752-1.096,5.794-1.123c3.243-0.063,5.865,0.903,8.102,5.662c1.571,3.345,1.702,6.234,0.388,8.586
		c-1.697,3.038-5.475,4.48-8.445,4.817C287.213,95.442,286.416,95.506,285.496,95.506z M278.41,80.38
		c-1.729,1.264-2.677,3.116-2.823,5.515c-0.176,2.877,0.556,5.115,2.175,6.652c2.939,2.792,7.945,2.563,9.961,2.334
		c2.848-0.323,6.461-1.691,8.065-4.563c1.231-2.204,1.095-4.939-0.403-8.13c-2.13-4.532-4.503-5.41-7.643-5.375
		c-1.98,0.026-3.662,0.352-5.625,1.09c-0.663,0.25-1.199,0.532-1.649,0.859c3.324-1.158,7.505-0.745,10.108,0.511
		c1.998,0.963,4.42,2.973,5.23,5.724c0.568,1.93,0.254,3.893-0.934,5.833c-2.549,4.168-8.441,4.295-11.559,3.393
		c-4.744-1.372-7.219-4.084-6.969-7.64c0.044-0.627,0.156-1.227,0.33-1.795l-0.302-0.146c0.331-0.686,0.614-1.312,0.872-1.884
		C277.656,81.85,278.012,81.063,278.41,80.38z M277.87,83.342c-0.583,0.958-0.94,2.063-1.025,3.276
		c-0.297,4.224,3.431,6.206,6.608,7.125c2.974,0.859,8.589,0.758,10.993-3.173c1.11-1.815,1.407-3.642,0.88-5.431
		c-0.764-2.595-3.066-4.499-4.967-5.415c-2.832-1.365-7.598-1.697-10.914,0.018c-0.538,0.671-0.95,1.487-1.414,2.498
		c1.601-1.975,4.211-3.175,7.322-3.175c4.039,0,7.205,2.489,8.064,6.342c0.463,2.076,0.244,3.754-0.647,4.988
		c-0.917,1.269-2.509,2.024-4.732,2.246c-4.548,0.456-8.911-2.652-10.14-5.835C277.423,85.572,277.42,84.394,277.87,83.342z
		 M279.711,81.318l0.223,0.3c-1.756,1.298-2.312,3.077-1.568,5.008c1.137,2.95,5.375,5.94,9.623,5.518
		c2.074-0.208,3.547-0.894,4.377-2.042c0.805-1.113,0.994-2.656,0.564-4.586c-0.98-4.392-4.693-5.951-7.576-5.951
		C283.134,79.565,281.185,80.207,279.711,81.318z"/>
	<path fill="#D8642E" d="M285.598,88.298c0,0-0.227,0.23-0.539,0.282c-0.461,0.076-0.777-0.026-0.777-0.026l0.131-0.465
		c0,0-2.303-0.258-2.936-2.695c-0.363-1.397-0.115-2.917,2.004-3.458c1.986-0.507,3,1.274,3.156,2.739
		c0.232,2.173-1.656,3.286-1.656,3.286L285.598,88.298z"/>
	<path fill="#5FB8AC" d="M270.26,77.48c-0.801-0.913-0.469-1.893,0.867-2.392c0.863-0.322,2.254,0.188,2.254,0.188
		s-0.779-1.562,0.512-2.12c1.111-0.479,2.062,0.262,2.48,1.3c0.492,1.224,0.861,4.187,0.861,4.187s-1.777,0.718-3.146,0.673
		C272.689,79.269,271.191,78.545,270.26,77.48z"/>
	<path fill="#5FB8AC" d="M296.875,80.154c0.064-1.213,0.988-1.682,2.293-1.105c0.842,0.373,1.48,1.709,1.48,1.709
		s0.533-1.662,1.848-1.159c1.129,0.434,1.291,1.627,0.863,2.663c-0.502,1.219-2.309,3.597-2.309,3.597s-1.773-0.729-2.721-1.716
		C297.363,83.131,296.799,81.567,296.875,80.154z"/>
	<path fill="#C9BB9C" d="M290.145,90.87c-0.116,0-0.22-0.08-0.245-0.198c-0.056-0.261-0.194-0.456-0.355-0.681
		c-0.188-0.264-0.397-0.558-0.468-0.983c-0.491,0.051-0.789-0.008-0.98-0.185c-0.236-0.221-0.209-0.543-0.185-0.828
		c0.024-0.288,0.048-0.561-0.149-0.757c-0.213-0.213-1.215,0.195-1.814,0.439c-0.627,0.256-1.184,0.477-1.545,0.463
		c-0.139-0.005-0.246-0.122-0.24-0.26c0.005-0.138,0.094-0.236,0.26-0.24c0.256,0.015,0.811-0.211,1.337-0.426
		c0.981-0.4,1.906-0.778,2.356-0.33c0.361,0.361,0.322,0.819,0.294,1.153c-0.015,0.179-0.03,0.364,0.028,0.419
		c0.033,0.032,0.19,0.123,0.826,0.022l0.285-0.045l0.004,0.289c0.005,0.426,0.188,0.682,0.398,0.978
		c0.177,0.249,0.359,0.505,0.438,0.867c0.029,0.135-0.057,0.268-0.192,0.297C290.179,90.868,290.161,90.87,290.145,90.87z"/>
	<path fill="#C7C4BA" d="M242.25,44.6l-0.093-0.996c1.686-0.157,41.312-3.844,44.287-3.999c1.807-0.094,2.3-1.38,2.821-2.743
		c0.472-1.23,1.006-2.625,2.666-2.625c1.662,0,2.564,1.351,3.361,2.542c0.791,1.183,1.478,2.189,2.729,2.137
		c1.383-0.076,1.722-0.106,3.029-0.223c2.586-0.23,9.451-0.843,37.568-2.94l0.074,0.997c-28.109,2.097-34.971,2.709-37.553,2.939
		c-1.324,0.118-1.666,0.148-3.064,0.225c-1.828,0.101-2.775-1.324-3.615-2.579c-0.752-1.126-1.402-2.098-2.529-2.098
		c-0.928,0-1.247,0.717-1.732,1.983c-0.555,1.451-1.247,3.256-3.703,3.384C283.541,40.758,242.662,44.562,242.25,44.6z"/>
</g>
<g>
	<g>
		<path fill="#81B1CA" d="M249.555,129.677c-4.676,0-8.465,1.345-8.465,3.003v24.301c0,1.659,3.789,3.003,8.465,3.003
			c4.674,0,8.463-1.345,8.463-3.003v-24.301C258.018,131.022,254.229,129.677,249.555,129.677z"/>
		<ellipse fill="#91BBD1" cx="249.554" cy="132.681" rx="8.464" ry="3.003"/>
		<ellipse fill="#81B1CA" cx="249.554" cy="132.681" rx="7.554" ry="2.527"/>
		<path fill="#76A2BE" d="M249.691,143.158c-4.373,0-7.92,1.157-7.92,2.583v11.013c0,1.426,3.547,2.583,7.92,2.583
			s7.918-1.157,7.918-2.583v-11.013C257.609,144.315,254.064,143.158,249.691,143.158z"/>
		<ellipse fill="#7EA8C2" cx="249.69" cy="145.741" rx="7.919" ry="2.584"/>
	</g>
	<path fill="#76A2BE" d="M251.646,146.524c-0.123-1.287-0.242-2.389-0.312-3.037c-0.207-1.86-0.404-3.345-0.617-4.634
		c0.008-1.086,0.029-2.729,0.045-3.646c-0.633,0.042-1.402,0.093-2.035-0.015c0.051,0.225,0.23,0.984,0.279,1.212
		c-0.008,0.606-0.014,1.245-0.018,1.911c-0.178-0.887-0.512-2.28-0.732-3.146c-0.357,0-0.938-0.001-1.473-0.126
		c0.617,1.99,1.188,4.185,1.443,6.188c0.205,1.612,0.385,3.241,0.553,4.809C249.881,146.919,250.717,146.901,251.646,146.524z"/>
	<g>
		<path fill="#AAB036" d="M247.58,132.948c-0.76-2.114-2.641-4.555-2.641-4.555c-0.002,1.874,0.963,3.927,1.543,5.692
			c0.102,0.308,0.201,0.637,0.301,0.958c0.502,0.125,1.064,0.126,1.473,0.126C247.994,134.144,247.84,133.667,247.58,132.948z"/>
		<path fill="#AAB036" d="M250.762,135.208c0.018-1.007,0.029-1.268,0.062-1.964c0.146-3-0.191-5.98-0.008-9.067
			c0.115-1.932,0.203-4.038,0.914-5.86c0.482-1.231,1.529-2.229,1.949-3.418c-3.234,0.826-3.77,5.694-3.902,8.422
			c-0.15,3.128-0.463,6.122-0.652,9.218c0,0.003,0,0.007,0,0.009c-0.021-0.062-0.041-0.122-0.062-0.184
			c-1.148-3.397-2.525-6.417-4.787-9.173c-1.639-1.995-4.844-6.609-7.869-6.15c0.127,1.201,1.404,1.511,2.279,2.303
			c3.637,3.293,7.926,8.621,9.385,13.361c0.283,0.919,0.414,1.415,0.656,2.489C249.359,135.301,250.129,135.249,250.762,135.208z"/>
		<g>
			<path fill="#D35623" d="M227.176,115.111c0.594-1.719,4.324-2.278,5.441-1.275c-0.68-1.105-0.213-2.554,0.941-3.234
				c1.439-0.847,3.465-0.489,4.055,0.635c1.236-1.033,3.918-1.504,5.424-0.762c2.121,1.047,0.719,2.339-0.646,3.038
				c3.15,0.398,1.867,4.628-0.906,4.351c1.361,1.951-3.229,4.492-4.58,1.919c0.369,2.942-7.486,4.639-5.439,0.809
				c-1.229,1.782-4.508,2.133-4.756,0.513c-0.209-1.379,1.105-2.763,2.494-3.287C228.191,117.948,226.578,116.843,227.176,115.111z"
				/>
			<path fill="#D35623" d="M245.322,110.021c0.799-0.714,2.953-0.227,3.693,0.303c-0.314-2.095,6.111-2.139,6.049,1.128
				c2.043-0.752,5.439,0.582,2.51,2.539c0.871,0.579,1.609,0.87,2.023,1.874c0.531,1.289-0.123,2.983-1.451,1.969
				c1.109,0.835-0.471,1.799-1.285,1.797c-1.131-0.003-2.129-0.855-2.523-1.916c-0.111,0.825-1.826,1.25-3.127,0.787
				c-1.312-0.467-2.051-1.567-0.85-2.504c-1.369,0.377-3.113,0.751-4.242-0.476c-1.35-1.468,0.434-2.569,1.867-2.569
				C247.016,112.843,244.012,111.19,245.322,110.021z"/>
			<path fill="#D35623" d="M242.918,122.431c0.043-2.453,6.275-2.64,5.459,0.583c1.178-0.245,2.318-0.147,3.066,0.749
				c0.678,0.811,0.521,1.797-0.355,2.301c1.379,0.409,1.51,1.912,0.779,2.838c-0.174,0.219-0.547,0.448-0.879,0.499
				c0.246,0.247,0.428,0.698,0.52,1.023c0.574,2.034-1.852,3.72-3.469,2.506c0.223,2.595-4.896,3.829-5.123,0.969
				c-1.008,1.896-6.684,0.991-5.104-1.901c-3.207,0.683-3.875-4.774-0.596-4.543c-2.758-0.194-0.289-5.069,2.098-3.17
				C238.256,121.957,242.984,120.586,242.918,122.431z"/>
			<path fill="#EBDB8A" d="M232.875,117.068c0.268,0.942,1.934,0.527,2.537,0.287c0.91-0.36,1.996-0.914,2.492-1.805
				c0.141-0.251,0.412-0.602,0.326-0.874c-0.1-0.306-0.553-0.476-0.84-0.535c-0.99-0.206-2.258,0.085-3.059,0.716
				C233.721,115.339,232.623,116.18,232.875,117.068z"/>
			<path fill="#EBDB8A" d="M253.285,112.252c0.689,0.278,1.838,0.862,1.691,1.795c-0.139,0.889-1.65,0.685-2.211,0.438
				c-0.297-0.13-0.617-0.385-0.85-0.595c-0.24-0.219-0.939-1.28-0.863-1.613C251.244,111.452,252.857,112.081,253.285,112.252z"/>
			<path fill="#EBDB8A" d="M241.629,129.184c0.91,0.871,2.389,1.058,3.537,0.636c0.949-0.35,2.143-1.071,1.85-2.246
				c-0.395-1.593-2.648-1.448-3.898-1.399C241.686,126.231,240.375,127.984,241.629,129.184z"/>
		</g>
	</g>
</g>
<path fill="#5FB8AC" d="M300.248,168.597c-3.172,2.791-8.391,5.492-14.828,5.36c-7.41-0.152-15.137-3.646-18.207-10.46
	c-5.002-11.103,0.408-25.022,14.498-25.443c7.109-0.213,13.947,5.106,17.016,10.76c2.264,4.167,3.598,11.922,2.691,17.039
	c3.154-0.146,4.838,0.688,3.41,3.588C303.607,171.924,301.482,171.177,300.248,168.597z"/>
<path fill="#839DB6" d="M306.906,130.655c-3.068,0.56-8.176-0.125-10.077,3.175c-0.854,1.482-0.233,2.538,1.087,3.429
	c2.121,1.433,12.213,3.645,13.7,0.279c2.304-5.213-8.613-1.54-9.948-0.896c-4.132,1.996-7.629,7.76-1.654,10.036
	c2.086,0.794,12.643,2.414,12.471-2.086c-0.193-5.037-9.348-4.185-11.877-1.622c-4.43,4.487,2.008,8.468,6.217,8.595
	c4.484,0.136,4.043-5.395,0.105-4.273c-3.535,1.007-8.303,5.879-4.572,9.393c1.959,1.843,11.172,1.429,12.357-1.345
	c0.457-1.071-0.342-1.544-1.385-1.831c-2.273-0.625-3.775,2.182-4.027,3.928c-0.787,5.43,7.668,3.79,9.602,1.065
	c-0.438-0.119-0.877-0.237-1.314-0.356c-0.091,4.279,2.884,1.892,3.904,3.742c1.764,3.193,6.158-0.292,7.25-2.152
	c-0.399-0.052-0.799-0.104-1.197-0.157c2.174,5.791,10.875-1.281,14.541-1.434c0.643-0.027,0.635-0.947,0-0.992
	c-2.662-0.19-12.002,5.457-13.278,2.079c-0.193-0.512-0.89-0.679-1.196-0.157c-0.967,1.64-4.551,4.879-5.613,0.372
	c-0.114-0.486-0.773-0.647-1.113-0.293c-0.629-0.336-1.258-0.672-1.886-1.007c0.026-0.763-0.931-0.88-1.315-0.356
	c-1.389,1.667-3.115,2.282-5.182,1.844c1.891-4.17,1.713-5.605-0.531-4.305c-1.662,0.627-3.477,0.884-5.234,1.007
	c-4.71,0.331-5.119-4.534-1.65-6.905c2.732-1.868,4.16,0.792,0.998,0.697c-1.662-0.05-3.312-0.814-4.557-1.872
	c-3.723-3.166,1.949-5.611,4.369-5.862c1.754-0.182,7.012,1.987,3.5,3.309c-1.391,0.523-2.949,0.559-4.414,0.564
	c-3.531,0.013-9.725-2.042-5.779-6.507c1.426-1.613,3.811-2.534,5.768-3.218c0.62-0.2,1.248-0.365,1.886-0.495
	c-1.087,0.253,5.884-0.489,3.327,1.175c-2.266,1.476-6.834,0.591-9.229,0.072c-3.717-0.806-4.193-3.742,0.476-5.094
	c1.835-0.531,3.829-0.278,5.688-0.769C307.629,131.297,307.409,130.563,306.906,130.655L306.906,130.655z"/>
<path fill="#D66E4B" d="M312.891,159.292c-1.908-3.754-0.629-13.188,1.871-19.549c3.23-8.212,11.094-12.459,19.992-12.653
	c16.416-0.357,27.262,12.612,20.479,27.969c-3.424,7.749-13.221,10.854-20.873,11.249c-5.641,0.291-14.088-0.749-19.121-4.351
	c-1.463,3.465-3.225,4.846-5.607,1.823C307.59,161.191,309.484,159.292,312.891,159.292z"/>
</svg>
