<?xml version="1.0" encoding="utf-8"?>
<!-- Generator: Adobe Illustrator 15.0.2, SVG Export Plug-In . SVG Version: 6.00 Build 0)  -->
<!DOCTYPE svg PUBLIC "-//W3C//DTD SVG 1.1//EN" "http://www.w3.org/Graphics/SVG/1.1/DTD/svg11.dtd">
<svg version="1.1" id="Layer_1" xmlns="http://www.w3.org/2000/svg" xmlns:xlink="http://www.w3.org/1999/xlink" x="0px" y="0px"
	 width="720px" height="460px" viewBox="0 0 720 460" enable-background="new 0 0 720 460" xml:space="preserve">
<g>
	<g>
		<polygon fill="#CCC9C0" points="648,263 512,449 72,341 268,239 		"/>
		<polygon fill="#E9DCBE" points="626,25 270,81 268,239 648,263 		"/>
		<polygon fill="#C9BB9C" points="484.096,85.345 377.473,100.458 379.48,185.793 489.65,183.016 		"/>
		<polygon fill="#E6EFF4" points="476.471,93.81 385.99,105.789 387.693,178.166 480.922,174.166 		"/>
		<polygon fill="#EDE3CB" points="90,11 270,81 268,239 72,341 		"/>
	</g>
	<g>
		<g>
			<path fill="#B5B6B3" d="M274.856,254.312c1.033,6.812,2.466,7.74,9.391,8.613c8.238,1.037,21.599,3.865,26.261-4.611
				c2.326-4.232,7.451-25.207,6.498-28.109c-2.57-7.826-42.039-6.625-45.214-1.391C269.781,232.129,273.952,248.344,274.856,254.312
				z"/>
			<path fill="#FAF4E6" d="M310.447,219.08c-1.713-3.355,0.34-6.127-5.441-5.572c-0.662-2.926-4.056-4.014-6.611-3.111
				c-1.979-8.09-13.562,3.424-16.41,3.271c2.842,3.947-2.057,3.742-3.951,6.416c-1.926,2.717-0.688,5.529-3.562,7.912
				c5.562,2.705,10.68,3.994,16.951,4.086c7.359,0.109,10.509-3.531,13.572,4.924c3.381-0.717,5.072-2.811,4.504-6.344
				c0.135,0.848,4.32-2.98,4.5-4.361C314.361,223.523,311.582,221.307,310.447,219.08z"/>
		</g>
		<polygon fill="#B4A68A" points="285.784,269.129 283,270.857 236.389,265.779 235.969,194.41 221.319,198.596 222.993,302.199 
			182.807,325.221 124.625,314.84 124.625,201.961 252.573,186.842 284.946,187.92 		"/>
		<polygon fill="#BEB197" points="289.969,187.502 170.885,211.59 119.125,204.711 119.125,199.211 230.125,181.416 
			289.969,183.502 		"/>
	</g>
	<path fill="#939491" d="M199.075,93.31c1.18-0.224,5.951,2.192,5.779,3.005c-0.172,0.814-15.463,10.579-16.676,10.612
		s-6.283-2.077-6.32-3.146C181.82,102.712,197.897,93.533,199.075,93.31z"/>
	<path fill="#A6AC60" d="M206.672,104.542c3.26-1.538,10.826-2.146,14.977-1.353c5.582,1.069,8.723,2.113,10.398,3.697
		c-2.957,6.369-4.828,6.383-12.23,5.896C208.768,112.062,206.383,104.679,206.672,104.542z"/>
	<path fill="#BDD6E3" d="M211.297,102.039c-0.182,0.87-11.736,7.671-13.449,7.49c-1.713-0.178-7.248-2.34-7.385-3.242
		c-0.137-0.904,14.092-7.922,15.731-8.066C207.836,98.078,211.479,101.168,211.297,102.039z"/>
	<path fill="#C7A53A" d="M174.721,90.268c1.178-0.223,5.951,2.192,5.779,3.006c-0.172,0.812-11.951,8.697-13.164,8.73
		s-6.283-2.075-6.32-3.144C160.979,97.789,173.543,90.491,174.721,90.268z"/>
	<path fill="#D48D7A" d="M190.456,97.117c-0.182,0.869-11.736,7.67-13.449,7.491s-7.248-2.341-7.385-3.243
		c-0.137-0.903,14.092-7.921,15.732-8.066C186.995,93.156,190.637,96.246,190.456,97.117z"/>
	<path fill="#B4A68A" d="M241.708,106.871c2.457,6.059-2.586,11.268,6.453,12.76c6.672,1.1,10.828-2.555,12.691-8.742
		c-3.445-4.277-13.699-5.859-18.707-4.018H241.708z"/>
	<polygon fill="#BEB197" points="268.489,121.328 148.997,96.062 131.606,100.549 131.606,106.719 258.952,128.061 268.489,125.816 
			"/>
	<polygon fill="#BEB197" points="517.887,76.549 346,102.5 346,94 517.227,66.5 	"/>
	<polygon fill="#FAF4E6" points="375.57,210.918 349.57,212.67 352.57,96.476 374.07,92.971 	"/>
	<polygon fill="#FAF4E6" points="525.4,210.639 495.326,212.664 487.23,70.159 512.1,66.108 	"/>
	<path fill="#D18470" d="M522.389,301.287c-1.096-2.365-6.27-0.895-8.342-1.773c2.625-2.133,6.795,0.711,9.586-0.799
		c-4.076-0.734-8.512-0.691-12.684-0.998c0,0-0.037,0.048-0.092,0.117l0.092-0.117l-197.777-18.658
		c-2.578-0.184-5.154-0.367-7.732-0.551c-1.352-0.096-8.814-1.508-9.667-0.494c1.643,0.523,3.607,0.568,5.337,0.709
		c1.123,0.09,5.176,0.494,1.955,1.279c-2.894,0.705-6.654-0.863-9.748-0.682c1.332,2.18,6.855-0.01,8.576,1.908
		c-1.632,0.592-4.011-0.045-5.742-0.189c-1.125-0.096-4.5-0.977-5.502-0.523c-1.773,0.805,3.43,1.83,4.271,1.949
		c1.817,0.26,3.482,0.285,5.219,0.918c-3.562,2.26-10.336-1.191-14.57-0.365c2.428,2.494,7.857,0.686,10.387,2.779
		c-1.701,1.268-5.014,1.145-7.061,0.705c-1.907-0.412-5.584-2.111-7.414-0.701c1.652,1.035,4.434,1.471,6.359,1.932
		c1.639,0.393,3.984,0.141,5.404,1.016c-2.955,0.959-6.619,0.996-9.662,0.436c-2.156-0.396-5.092-1.24-7.18-0.176
		c1.809,1.35,4.367,1.057,6.512,1.539c1.225,0.275,3.029,0.148,4.018,0.879c-2.811,1.004-6.381,0.939-9.227,0.221
		c-2.137-0.541-4.248-0.891-6.391-0.189c1.154,1.951,7.525,0.875,9.632,1.205c1.433,0.225,2.632,0.678,3.536,1.725
		c-5.74,0.789-11.211-1.281-16.85-0.818c1.07,3.066,11.15-1.234,11.914,2.928c-3.006,0.768-5.748,0.607-8.732-0.102
		c-1.646-0.391-5.523-1.541-6.924-0.391c3.416,2.539,9.918-0.912,12.847,2.775c-5.378,1.031-10.144-1.965-15.437-0.99
		c0.619,1.502,5.625,1.699,7.236,2.08c1.578,0.375,3.605,1.008,4.863,1.896c-3.006,0.252-5.303,0.234-8.125-0.885
		c-1.898-0.752-4.361-1.295-6.471-0.836c-4.094,0.893,3.162,2.064,4.4,2.287c1.945,0.35,6.029,0.43,7.377,1.939
		c-2.824,1.512-8.006-0.938-11.045-1.244c-1.447-0.146-6.852-1.266-7.385,0.547c3.314,2.141,8.613,0.457,11.926,2.764
		c-4.912,0.383-9.193-1.66-14.031-0.814c0.008,0.107,0.01,0.369,0,0.473c1.52,0.5,10.766,1.965,10.852,3.348
		c-5.193,1.395-10.609-4.076-15.742-1.865c1.551,1.178,4.072,1.895,5.924,2.461c1.48,0.453,4.02,0.445,5.113,1.363
		c-1.074,1.191-5.85-0.6-7.404-0.922c-2.314-0.482-4.615-0.773-7.023-0.635c1.102,1.357,5.365,1.809,7.242,2.484
		c1.609,0.58,3.48,0.732,4.867,1.488c-2.742,1.471-6.029-0.176-8.785-0.871c-1.367-0.346-6.277-1.686-6.838,0.225
		c3.658,2.139,10.551,0.062,13.535,3.121c-3.537,0.23-6.773-0.471-10.209-1.16c-2.572-0.518-5.352-1.25-7.891-0.357
		c-0.062,2.74,6.139,2.139,7.779,2.477c1.58,0.324,3.953,0.951,5.195,1.855c-3.9,0.158-6.466-0.154-10.012-1.68
		c-1.992-0.855-4.727-1.131-6.617-0.176c3.997,2.449,9.322,1.857,13.426,4.139c-3.863,0.289-7.629-0.332-11.383-1.148
		c-2.096-0.457-6.748-1.59-8.068,0.801c2.305,1.602,5.963,1.627,8.645,2.141c1.604,0.307,4.041,0.4,5.035,1.904
		c-3.428,0.705-7.338-0.84-10.666-1.547c-1.682-0.355-6.611-2.219-7.592-0.182c3.029,2.695,9.227,1.592,12.277,4.016
		c-2.828,0.186-5.723-0.217-8.434-0.834c-1.092-0.25-5.695-1.709-6.455-0.502c-0.174,0.273-0.127,0.502,0.068,0.693
		c0.836,0.82,4.402,0.955,5.164,1.029c2.348,0.232,4.523,0.584,6.752,1.242c0.701,0.207,3.91,1.355,4.594,0.92l214.699,47.668
		c0.852-1.082,4.418,0.916,5.361,1.23c2.342,0.777,4.844,0.846,7.234,1.504c1.127,0.311,5.434,2.051,4.65-0.432
		c-1.043-3.309-9.207-1.297-11.191-3.988c3.834-1.438,8.701,2.281,12.574,2.447c4.293,0.182,0.678-1.992-1.209-2.713
		c-1.865-0.715-8.32-1.227-8.713-3.232c5.229-0.506,10.645,2.176,15.855,2.145c0.334-3.342-10.277-4.193-11.889-6.123
		c2.648-0.141,5.215,0.006,7.711,0.631c2.244,0.561,4.762,1.906,7.043,1.066c0.117-3.891-10.992-2.393-12.086-5.006
		c2.26-0.135,4.85-0.08,7.049,0.348c1.705,0.334,3.361,1.49,5.129,1.084c-0.004-1.383-9.744-4.873-9.531-5.18
		c2.076-2.967,11.287,0.955,14.764-0.266c-0.695-2.467-8.545-2.404-10.773-3.375c0.092-0.176,0.15-0.361,0.225-0.568
		c4.547-0.662,9.498,0.393,14.09-0.311c-3.436-2.359-8.455-1.973-12.342-3.547c1.678-1.059,4.146-0.375,6.121-0.172
		c2.586,0.268,5.006,0.641,7.707,0.686c-1.535-2.949-10.217-1.572-10.717-4.84c4.254-0.209,9.463,2.252,13.418,0.807
		c-0.504-2.178-7.928-2.082-9.717-3.713c0.986-1.07,3.535,0.254,4.883,0.436c2.168,0.295,5.111,0.678,7.186-0.275
		c-1.482-0.77-3.137-1.695-4.754-2.1c-2.191-0.547-4.117-0.113-5.945-1.656c3.492-2.695,10.143,2.535,14.088,0.668
		c-2.414-2.791-7.514-1.531-10.109-3.879c2.857-0.385,8.686,2.398,10.994,0.453c-1.658-0.727-9.182-1.09-9.215-2.895
		c3.965-0.176,9.156,1.293,12.971-0.072c-0.117-2.293-8.025-2.666-9.881-3.088c0.018-0.119,0.014-0.475,0.004-0.6
		c2.297-0.5,9.037,2.066,10.387-0.043c-1.979-2.104-5.023-2.248-7.518-3.568c0.973-2.744,7.221,0.859,9.258-0.393
		c2.59-1.592-6.328-2.199-7.055-2.939c1.385-1.258,4.008-0.123,5.518,0.266c0.176,0.045,6.012,0.977,5.094-0.199
		c-0.758-0.971-8.623-1.904-7.494-3.939c0.535-0.967,3.711,0.076,4.467,0.225c2.193,0.43,3.938,0.293,6.062-0.08
		c0.141-3.367-6.777-1-7.006-3.914c2.305-0.184,7.984,1.871,9.492,0.189c-2.576-2.529-5.746-1.229-8.826-2.248
		c0.115-2.742,9.191,0.41,10.98-0.461c-1.807-3.068-7.176-1.248-9.502-3.258c1.77-0.729,10.025,1.426,10.164-0.848
		c-1.564-0.469-2.955-0.846-4.596-0.922c-1.27-0.059-5.154-0.273-2-1.104c3.297-0.867,7.627,1.195,11.021-0.045
		c-1.072-2.324-9.096,0.211-9.219-2.354c2.564-0.072,9.059,1.049,11.047-0.691c-2.35-2.049-7.807-0.387-9.959-2.615
		c3.803-0.916,7.361,0.674,11.232,0.135c-1.709-3.104-7.195-0.264-8.568-3.232C514.852,300.766,520.193,302.955,522.389,301.287z
		 M312.711,279.352l-0.09,0.058C312.652,279.389,312.682,279.37,312.711,279.352z"/>
	<g>
		<polygon fill="#44658B" points="195.672,189.766 190.122,190.645 188.512,174.775 194.206,174.557 		"/>
		<polygon fill="#44658B" points="212.01,176.576 168.227,182.826 165.598,143.525 208.768,144.24 		"/>
		<polygon fill="#577A9D" points="208.768,174.201 171.645,178.74 169.51,147.443 206.018,147.443 		"/>
		<polygon fill="#44658B" points="209.934,188.711 200.516,187.496 178.221,191.445 178.221,192.445 188.256,194.752 
			209.934,189.711 		"/>
	</g>
	<polygon fill="#9F9F9D" points="246.774,257.082 266.92,257.658 266.92,267.291 251.438,272.043 231.428,269.844 231.116,259.381 	
		"/>
	<g>
		<path fill="#AE9E7D" d="M217.402,191.638l-0.911-0.41c0.059-0.138,0.637-1.302,3.617-2.068c-0.303-0.066-0.621-0.133-0.887-0.188
			c-1.937-0.397-2.725-0.584-2.77-1.209c-0.025-0.337,0.2-0.594,0.668-0.764c1.473-0.534,4.402,0.059,7.24,0.633
			c1.588,0.321,3.089,0.625,3.932,0.626l-0.001,1c-0.942-0.001-2.419-0.3-4.13-0.646c-1.92-0.389-4.208-0.855-5.689-0.821
			c0.325,0.072,0.666,0.143,0.952,0.202c1.794,0.368,2.614,0.537,2.617,1.183c0.003,0.576-0.715,0.732-1.144,0.825
			C217.956,190.638,217.407,191.628,217.402,191.638z"/>
		<polygon fill="#44658B" points="227.124,193.117 217.458,190.234 189.54,197.219 189.54,198.174 199.1,201.303 227.124,194.072 		
			"/>
		<path fill="#44658B" d="M236.213,188.674c0,1.363-2.5,1.348-5.582,1.348c-3.084,0-5.584,0.016-5.584-1.348
			c0-1.365,2.5-2.471,5.584-2.471C233.713,186.203,236.213,187.309,236.213,188.674z"/>
	</g>
	<path fill="#84A0BA" d="M553.146,276.721c-1.762-1.244-5.793-0.504-7.629-2.301c3.076-0.908,0.137-6.123,0.607-6.238
		c2.021-0.494,7.947-0.744,9.438-2.111c1.117-1.025,4.445-1.461,5.941-1.875c6.307-1.748,13.314,0.979,18.869-3.41
		c3.812,2.486,9.525,0.822,12.748,3.842c-3.041,1.061-7.291,2.076-7.816,5.809c5.402,1.223,10.711,13.918,10.467,19.643
		c-10.549-2.352-25.189-2.654-38.041-1.746C558.27,281.863,555.514,278.393,553.146,276.721z"/>
	<polygon fill="#BEB197" points="216.713,257.432 185.695,272.254 185.854,248.719 216.713,236.918 	"/>
	<polygon fill="#BEB197" points="216.713,286.201 185.695,302.021 185.854,278.486 216.713,263.688 	"/>
	<path fill="#888886" d="M206.649,266.861c0.195,5.732,5.426,6.646,6.16,11.764c0.689,4.785-4.028,7.818-8.936,9.518
		c-7.074-5.111-11.052-14.463-9.691-23.113c1.227-7.807,7.021-17.283-6.492-17.012c0.027-0.324,0.213-1.158,0.961-1.771
		c3.229-2.641,8.58-4.559,12.553-4.441c1.95,0.057,3.045,0.418,4.943,3.605C209.18,250.498,206.454,261.092,206.649,266.861z"/>
	<path fill="#C7A53A" d="M324.52,254.666c4.053,2.715,4.018,6.986,4.064,11.424c7.641-0.645,14.229-0.033,21.824,0.688
		c7.785,0.74,6.705-3.439,7.537-10.037c-3.268-0.572-6.354-1.252-9.801-1.037c2.496-1.146,5.629-2.729,7.324-4.551
		c-5.236-2.686-12.908-6.551-18.35-4.35c-3.994,1.617-9.266,5.926-12.6,8.363V254.666z"/>
	<path fill="#89912B" d="M152.322,332.855c0.382,2.621,6.202,6.213,7.704,2.898c2.719,2.992,11.188,3.203,14.982,2.725
		c1.359-0.172,3.414-1.111,4.768-0.818c0.885,0.193,1.375,1.166,2.232,1.506c2.367,0.938,4.65,0.166,4.463-2.188
		c-0.024-0.285-0.834-1.604-0.951-2.312c-0.16-0.969,0.195-2.039,0.006-3c-0.402-2.051-1.744-3.588-3.201-5.055
		c-1.703-1.717-10.91-7.721-12.516-3.764c0.359,0.865,1.053,1.67,1.873,2.082c-3.674-1.846-8.236,5.998-11.326,6.404
		C158.52,328.922,151.553,327.564,152.322,332.855z"/>
	<path fill="#FAF4E6" d="M160.594,191.965c-0.744,0.293-1.953,0.973-2.445,1.182c2.641,0.611,5.078,0.596,6.746,2.203
		c-5.145,3.535-6.846,1.438-12.098,1.75c-3.701,0.223-9.115,4.795-10.328-1.436c5.385,0.305,4.375-4.221,7.756-5.463
		C153.947,188.834,156.565,193.555,160.594,191.965z"/>
	<path fill="#B5B6B3" d="M534.795,238.588c7.859,1.668,20.904,12.99,25.213,19.717c-3.475,1.674-6.176,3.467-9.912,4.133
		c-4.264,0.76-8.15,0.406-10.393,1.764c-3.891,2.354-5.539,3.807-8.24,7.604c-2.869,4.033-6.787,3.381-11.299,3.199
		c-1.215-5.254-2.855-8.473-8.041-10.111c-7.1-2.24-11.043-4.107-12.152-7.684C503.619,244.498,523.182,236.125,534.795,238.588z"/>
	<path fill="#FAF4E6" d="M322.791,263.525c0.729-0.178,1.438-0.434,1.637-0.797c0.48-0.871-0.584-1.551-0.529-2.254
		c0.074-0.982,3.264-1.475,2.5-2.695c-0.547-0.875-2.385-0.539-3.246-0.771c-1.674-0.453-1.664-2.035-1.748-3.547
		c-0.188,1.23-2.062,2.271-3.135,2.625c-1.5,0.492-3.166,0.064-4.709,0.146c0.168,0.746,1.109,1.275,1.516,1.959
		c0.311,0.521,0.85,1.338,1.012,1.922c0.41,1.506-1.578,1.955-1.713,3.154c1.941,0.781,4.783,0.869,6.777,0.562
		C321.498,263.777,322.152,263.682,322.791,263.525z"/>
	<path fill="#A1A755" d="M386.17,250.652c-2.83,7.287-16.316,10.156-24.02,6.881c-6.086-2.592-7.604-12.555-4.205-18.533
		c3.021-5.316,8.211-6.906,13.658-6.818C382.203,232.354,390.689,239,386.17,250.652z"/>
	<path fill="#FAF4E6" d="M190.292,347.58c8.828,0.504,18.244-0.576,27.131-0.889c1.182-4.949-0.709-15.529-0.709-15.529
		s-21.25-1.059-24.012,1.234C191.604,333.309,192.588,347.711,190.292,347.58z"/>
	<path fill="#FAF4E6" d="M550.416,282.67c-8.506-2.223-18.441-3.682-27.441-5.455c-3.814,2.533-9.574,7.922-9.574,7.922
		s22.555,6.264,26.523,5.574C541.504,290.438,548.203,282.092,550.416,282.67z"/>
	<path fill="#7A94AF" d="M300.188,333.334c4.003-2.707,9.419-1.516,13.832-3.902c5.926,6.447,15.928,9.455,21.664,15.938
		c3.447,3.895,5.164,7.453,9.17,10.764c3.379,2.793,3.379,2.52,7.221,4.357c-1.727-6.057-0.561-6.84-4.721-11.658
		c-3.352-3.883-6.783-7.537-5.717-13.383c0.818-4.488,3.852-9.715,7.701-11.631c3.273-1.629,12.521,1.586,16.764,2.295
		c-1.027,4.717-8.455,7.178-8.445,11.885c0.004,3.059,7.08,7.766,9.197,9.986c7.133,7.484,10.287,17.146,17.266,24.551
		c-2.238,2.434-8.838,4.957-19.482,7.871c-3.152,0.863-17.365,2.139-20.596,2.107c-2.354-0.021-9.076-5.088-11.219-7.16
		c-11.73-11.35-15.541-34.611-31.968-38.688L300.188,333.334z"/>
	<g>
		<path fill="#AE9E7D" d="M355.477,300.34c0.277-0.74,15.867-4.961,19.883-5.84c1.547-0.338,3.453-0.773,4.779-1.697
			c1.359-0.947,11.117-8.104,14.287-10.684c-2.295-1.232-18.166-8.498-19.291-8.111c-1.389,0.477-11.996,6.969-12.918,7.248
			c-1.127,0.342-23.973,5.479-25.004,6.154C337.479,288.123,354.547,299.566,355.477,300.34z"/>
		<path fill="#D6C9AC" d="M360.062,279.352c7.711-6.41,12.672-8.062,17.289-6.256c1.814,1.445,12.264,5.732,15.088,8.158
			c-3.986,1.291-10.809,6.455-15.83,11.252c-4.207-0.826-13.238,1.025-20.795,5.137c-5.309-2.605-14.156-8.922-17.771-11.02
			C342.275,278.525,355.289,276.846,360.062,279.352z"/>
		<path fill="#FAF4E6" d="M360.062,277.352c7.711-6.41,12.672-8.062,17.289-6.256c1.814,1.445,12.264,5.732,15.088,8.158
			c-6.82,0.84-12.252,4.164-15.83,11.252c-5.264-2.227-14.551-3.076-21.32,4.174c-5.309-2.605-13.631-7.959-17.246-10.057
			C342.275,276.525,355.289,274.846,360.062,277.352z"/>
	</g>
	<path fill="#89912B" d="M391.941,368.832c2.398-0.568,41.631-8.201,42.684-9.252c1.051-1.053,1.303-4.979,0.703-6.994
		s-7.479-15.934-9.559-16.402c-2.078-0.469-40.867,6.457-42.869,6.994c-2.002,0.539-0.705,4-0.736,5.889
		S389.541,369.4,391.941,368.832z"/>
	<g>
		<path fill="#76A2BE" d="M227.096,355.713c-0.396,0.357-0.789,0.709-1.137,1.021l1.278,0.098
			C227.322,356.291,227.749,355.85,227.096,355.713z"/>
		<path fill="#E9DCBE" d="M229.846,353.234c-0.109,0.1-1.459,1.316-2.75,2.479c0.652,0.137,0.226,0.578,0.142,1.119l4.149,0.314
			c0.105-0.023,0.223-0.049,0.348-0.078C232.063,355.627,230.768,354.682,229.846,353.234z"/>
		<path fill="#76A2BE" d="M249.018,347.936c-4.529,1.078-13.688,3.541-19.145,5.273c0,0-0.023,0.02-0.027,0.025
			c0.922,1.447,2.217,2.393,1.889,3.834c3.479-0.801,14.4-3.834,19.734-5.467C251.266,349.633,250.444,348.729,249.018,347.936z"/>
		<path fill="#6185A6" d="M251.047,347.48c-0.469,0.092-1.176,0.252-2.029,0.455c1.426,0.793,2.248,1.697,2.451,3.666
			c0.705-0.215,1.322-0.41,1.803-0.568C253.971,349.717,253.348,347.48,251.047,347.48z"/>
	</g>
	<g>
		<path fill="#D35623" d="M244.278,359.648c0.424-0.4,0.842-0.793,1.215-1.143l-1.15-0.086
			C244.172,359.014,243.708,359.506,244.278,359.648z"/>
		<path fill="#E9DCBE" d="M241.344,362.418c0.117-0.113,1.557-1.473,2.934-2.77c-0.57-0.143-0.105-0.635,0.064-1.229l-3.729-0.281
			c-0.099,0.027-0.21,0.057-0.329,0.092C239.737,359.82,240.754,360.84,241.344,362.418z"/>
		<path fill="#D35623" d="M222.947,368.549c4.315-1.26,13.093-4.113,18.368-6.104l0.029-0.027c-0.59-1.578-1.607-2.598-1.061-4.188
			c-3.309,0.936-13.793,4.445-18.936,6.324C221.19,366.717,221.786,367.697,222.947,368.549z"/>
		<path fill="#CD4917" d="M221.022,369.08c0.438-0.107,1.113-0.295,1.925-0.531c-1.161-0.852-1.757-1.832-1.599-3.994
			c-0.682,0.248-1.279,0.471-1.744,0.652C218.741,366.666,218.922,369.115,221.022,369.08z"/>
	</g>
	<polygon fill="#B4A68A" points="603.52,152.82 537.52,158.666 532,122.666 595.779,112.062 	"/>
	<polygon fill="#BEB197" points="597.471,147.443 543.113,152.258 537.842,128.061 590.369,119.326 	"/>
	<path fill="#79B5A8" d="M254.098,356.748c2.621-1.135,8.02-0.088,9.572,0.109c4.146,0.527,2.662-1.596,3.703-4.613
		c0.191-0.555-0.975-7.725-1.416-7.846c1.648,0.455,8.166,0.914,9.855,1.223c0.216,4.002,1.27,7.469,1.416,11.467
		c0.123,3.35-1.391,6.758-3.398,9.43c-1.723,2.291-3.646,1.637-6.439,1.158c-2.994-0.514-5.977-1.145-8.627-2.768
		c-1.463-0.896-5.873-4.002-6.094-5.801C252.522,357.908,253.116,357.174,254.098,356.748z"/>
	<path fill="#79B5A8" d="M554.938,307.898c1.352-2.639,9.359-1.166,11.598-1.154c3.432,0.014,8.176-0.951,11.689-0.262
		c4.293,0.846,4.594,2.578,7.553,6.457c-6.646,0.377-13.057-1.162-19.748,0.188c1.082,4.209,9.852,5.229,4.73,11.045
		c-4.375,4.969-7.828-0.355-9.926-3.879C559.629,318.268,553.875,309.977,554.938,307.898z"/>
	<path fill="#B68D26" d="M469.217,318.057c15.166-3.861,30.029-9.938,44.566-15.479c-0.166,0.527-0.33,1.613-0.484,2.283
		c5.908,4.395,19.875,2.992,27.145,4.248c-4.34,8.039-23.996,14.23-33.109,18.732c-5.547,2.74-10.869,4.502-16.586,6.65
		c7.371,1.982,19.812,5.613,17.152,15.801c-1.035,3.963-5.311,8.037-8.852,10.018c-5.922,3.311-8.16-0.043-15.029,0.031
		c12.088-1.391,14.908-13.67,3.18-17.848c-3.984-1.42-23.84-1.004-19.934-8.164c-1.48-0.764-1.855-1.998-3.969-2.102
		c1.074-8.307-6.477-9.701-2.766-18.604c3.586-8.598,15.779-19.217,23.848-10.012c-2.805,2.531-6.746,3.482-9.689,5.875
		C473.668,310.32,468.66,318.199,469.217,318.057z"/>
	<path fill="#D7BD4E" d="M271.52,309.334c8.902-4.537,9.619,5.059,17.334,6.701c5.471,1.164,12.662,0.023,18.332-0.066
		c-4.643,1.277-9.234,3.945-13.669,4.695c-3.975,0.674-10.682-1.912-12.762,1.887c-8.81,1.139-8.267-9.266-15.73-8.551
		c3.441,0,6.885-0.021,10.328,0.035c-4.043-0.488-5.639-4.047-9.164-4.701H271.52z"/>
	<path fill="#89912B" d="M304.852,365.34c-0.748-6.359-12.898-5.715-11.08,1.053C295.157,371.549,305.609,371.777,304.852,365.34z"
		/>
	<path fill="#DC8466" d="M346.197,268.99c-0.748-6.359-12.898-5.715-11.08,1.053C336.502,275.199,346.955,275.428,346.197,268.99z"
		/>
	<polygon fill="#BEB197" points="216.713,230.18 185.695,242 183.854,218.465 216.713,211.664 	"/>
	<path fill="#7A94AF" d="M286.217,274.016c2.076-1.785,0.148-4.256,1.957-5.881c2.416-2.166,8.084-1.719,11.346-2.805
		c4.32-1.436,8.634-4.316,12.517-5.912c2.174,5.336-1.068,5.146,4.152,8.061c3.195,1.785,10.008,0.699,9.215,5.738
		c-3.633,2.277-19.113-0.75-15.816-6.547c-1.746-1.832-8.982,1.193-12.068,1.996c-2.217,0.578-4.027,0.43-5.98,2.018
		c-2.029,1.65-0.924,3.973-2.641,5.502c-5.079,4.51-22.314,3.01-25.93-2.693C270.036,269.555,279.487,279.797,286.217,274.016z"/>
	<path fill="#B5B6B3" d="M450.289,398.064c5.521-6.758,16.27-10.115,24.021-12.018c0.217-1.748-0.291-5.893-0.973-7.678
		c-9.582-0.65-16.631-8.406-25.045-10.904c-8.865-2.633-18.865,2.213-28.648,3.9c1.52,8.404,5.33,9.34,12.236,14.66
		C433.588,387.34,448.43,400.342,450.289,398.064z"/>
	<path fill="#A6AC60" d="M258.329,101.984c2.248,1.469,1.377,3.578,2.295,5.502c0.664,1.392,2.914,2.168,2.988,3.992
		c0.188,4.539-4.977,5.322-7.014,2.225c-1.529-2.325-0.168-5.299-2.002-7.59c-0.945-1.182-4.562,0.906-2.508-2.952
		C253.145,101.17,256.631,100.879,258.329,101.984z"/>
	<g>
		<g>
			<g>
				<path fill="#C83B0C" d="M448.846,262.717c-2.615,0.404-5.492,0.613-8.602,0.613c-16.15,0-38.877-6.094-45.629-15.105
					c-5.965,15.086-9.318,43.85-8.844,54.744l5.414,0.627c6.729-14.275,21.133-26.285,29.133-29.619
					c7.666,8,15.332,22.666,19.053,38.068l5.947,0.598C448.65,295.643,450.65,275.311,448.846,262.717z"/>
			</g>
		</g>
		<g>
			<path fill="#C83B0C" d="M451.152,145.369c0.49,0.471,0.967,0.979,1.422,1.539c8.027,9.926,7.449,27.961,7.449,27.961
				l-1.654-1.414l-1.646,4.826l-0.551-0.473c0.676-4.113,0.82-8.805,0.148-14.018c-0.959-7.412-4.324-13.928-9.316-18.689
				C448.482,145.152,449.889,145.252,451.152,145.369z"/>
		</g>
		<path fill="#C83B0C" d="M354.029,188.6c-0.271,1.088,1.168,1.215,2.562,1.26c1.615,0.053,4.062,0.279,4.781,0.963
			c0.973,0.922-0.941,2.381-0.275,3.141c0.531,0.607,1.498,0.182,2.252-0.371c0.971-0.713,1.732-1.838,2.041-2.662
			c0.602-1.604,0.787-3.123-0.93-4.488c-0.969-0.77-1.768-1.074-3.021-1.137c-1.139-0.059-1.693,0.205-2.43,0.846
			c-0.662,0.574-0.93,1.221-1.084,1.705C356.127,187.721,354.164,188.061,354.029,188.6z"/>
		<path fill="#C83B0C" d="M479.402,264.041c-0.91,1.039-1.994,2.012-3.148,0.795c-1.025-1.074-0.508-2.348-0.391-3.604
			c0.148-1.609-0.02-2.855-0.945-3.217c-1.248-0.49-1.758,1.865-2.729,1.582c-0.775-0.223-0.719-1.268-0.619-2.199
			c0.113-1.008,0.811-2.178,1.379-2.854c1.244-1.48,2.891-1.76,4.465-0.914C480.822,255.457,482.012,261.068,479.402,264.041z"/>
		<path fill="#C83B0C" d="M388.648,309.246c-1.521,0.043-5.016,0.043-6.158-0.883c-2.463-1.996,2.096-3.33,4.373-3.732
			C392.709,303.596,395.434,309.053,388.648,309.246z"/>
		<path fill="#C83B0C" d="M441.369,318.346c1.477,0.361,4.893,1.105,6.205,0.439c2.828-1.426-1.342-3.695-3.484-4.572
			C438.596,311.963,434.777,316.719,441.369,318.346z"/>
		<g>
			<path fill="#C83B0C" d="M433.631,145.666c-5.953,2.152-9.338,9.576-10.26,12.893c-0.529,1.9-2.061,5.416-1.984,13.871
				c0.059,6.316,1.613,19.053,1.609,19.182c-1.688-0.104-5.129-2.346-5.129-2.346l-0.404,8.541l-7.129-5.482l-0.342,4.533
				c0,0-8.715-12.848-10.961-24.408c-2.131-10.98,1.904-20.607,6.082-25.619c3.467-4.162,7.27-7.295,13.111-9.01
				c6.463-1.896,12.203-1.311,19.967-1.367c6.188-0.045,18.021-1.84,18.021-1.84l-8.031,5.68l8.871,4.855
				C457.053,145.148,442.695,142.383,433.631,145.666z"/>
			<g>
				<path fill="#C83B0C" d="M428.576,196.582c-3.156-1.117-6.484-2.08-9.916-2.934l-0.197,4.205l-0.092,1.914l-1.518-1.168
					l-5.662-4.354l-0.201,2.686l-0.217,2.859l-1.607-2.373c-0.158-0.23-1.859-2.756-3.914-6.492
					c-12.889-2.125-26.42-3.213-38.432-4.492v6.697c18.418,2.094,34.625,10.59,34.625,10.59s-2.725,14.508-7.797,39.174
					c0,12.459,37.145,22.785,57.336,18.416c0.996-17.615-3-33.334-3-33.334s12.723,6.705,22.934,25.107l6.422-1.955
					C465.627,218.857,445.059,202.414,428.576,196.582z"/>
			</g>
		</g>
		<path fill="#C83B0C" d="M423.998,191.629l-0.021,1.041l-1.039-0.062c-0.217-0.012-0.457-0.051-0.713-0.111
			c-1.07-0.258-2.424-0.941-3.438-1.512l-0.018,0.354c9.539,5.244,20.373,5.928,25.236,4.736
			c5.076-1.244,13.809-12.895,11.322-32.154c-1.041-8.07-4.76-14.438-9.785-18.852c-3.906-0.041-8.152,0.299-11.574,1.537
			c-5.691,2.061-8.885,9.52-9.635,12.221c-0.074,0.27-0.168,0.568-0.275,0.906c-0.648,2.074-1.736,5.543-1.672,12.688
			c0.033,3.58,0.545,9.754,1.525,18.355C423.998,191.545,423.998,191.545,423.998,191.629z M451.529,167.703
			c-0.854,0.227-1.955-1.121-2.465-3.016c-0.508-1.895-0.227-3.615,0.623-3.844c0.85-0.227,1.957,1.121,2.465,3.016
			S452.379,167.473,451.529,167.703z M438.232,164.67c0.969-0.26,2.158,1.033,2.656,2.889s0.113,3.57-0.852,3.83
			c-0.973,0.26-2.158-1.035-2.658-2.889C436.883,166.645,437.266,164.93,438.232,164.67z"/>
	</g>
</g>
</svg>
