<?xml version="1.0" encoding="utf-8"?>
<!-- Generator: Adobe Illustrator 15.0.2, SVG Export Plug-In . SVG Version: 6.00 Build 0)  -->
<!DOCTYPE svg PUBLIC "-//W3C//DTD SVG 1.1//EN" "http://www.w3.org/Graphics/SVG/1.1/DTD/svg11.dtd">
<svg version="1.1" id="Layer_1" xmlns="http://www.w3.org/2000/svg" xmlns:xlink="http://www.w3.org/1999/xlink" x="0px" y="0px"
	 width="720px" height="460px" viewBox="0 0 720 460" enable-background="new 0 0 720 460" xml:space="preserve">
<polygon fill="#888886" points="183.372,389.539 47.965,389.539 342.646,220.063 418.61,220.063 "/>
<g>
	<polygon fill="#9F9F9D" points="89.681,389.539 75.18,389.539 351.089,217.156 354.3,218.224 	"/>
	<polygon fill="#9F9F9D" points="159.181,389.539 146.681,389.539 362.483,216.078 366.241,216.756 	"/>
</g>
<g>
	<g>
		<rect x="374.181" y="181.188" fill="#D7BD4E" width="3.166" height="2.167"/>
		<path fill="#A74807" d="M383.847,191.771c0,0,0.607,6.068-3.832,13c-5.723,8.934-26.184,32.883-26.184,32.883v-48.158l3.162-2.809
			l26.854-3.416V191.771z"/>
		<path fill="#D7BD4E" d="M383.847,191.381c0,0-0.111,2.909-2.25,4.482c-8.201,6.033-27.766,21.064-27.766,21.064v-27.432
			l3.162-2.809l26.854-3.416V191.381z"/>
		<path fill="#E5D482" d="M357.454,188.766l-38.178,0.157c0,0,56.611-4.021,56.611-6.484c0-0.88-1.707-1.25-1.707-1.25h5.166
			c0,0,4.5,0.592,4.5,2.083C383.847,185.056,357.454,188.766,357.454,188.766z"/>
		<path fill="#C05803" d="M356.522,235.521h-39.15c0,0-2.691-3.625-2.691-7.875c0-6.438,0-25.75,0-25.75h39.15c0,0,0,20.75,0,24.125
			S356.522,235.521,356.522,235.521z"/>
		<path fill="#E1CC6C" d="M353.831,216.928h-39.15c0,0,0-16.523,0-22.031c0-2.875,2.068-5.974,4.596-5.974
			c2.529,0,38.178-0.157,38.178-0.157c-3.623,0-3.623,4.406-3.623,5.631C353.831,200.029,353.831,216.928,353.831,216.928z"/>
	</g>
	<g>
		<path fill="#9F9F9D" d="M332.282,209.83c0,2.2-1.8,4-4,4h-6.629c-2.2,0-4-1.8-4-4v-12.016c0-2.2,1.8-4,4-4h6.629c2.2,0,4,1.8,4,4
			V209.83z"/>
	</g>
	<g>
		<path fill="#9F9F9D" d="M350.157,209.83c0,2.2-1.8,4-4,4h-6.629c-2.2,0-4-1.8-4-4v-12.016c0-2.2,1.8-4,4-4h6.629c2.2,0,4,1.8,4,4
			V209.83z"/>
	</g>
	<g>
		<path fill="#C7C4BA" d="M324.819,222.958c0,0.55-0.45,1-1,1h-3.543c-0.55,0-1-0.45-1-1v-1.895c0-0.55,0.45-1,1-1h3.543
			c0.55,0,1,0.45,1,1V222.958z"/>
	</g>
	<g>
		<path fill="#C7C4BA" d="M349.157,222.958c0,0.55-0.45,1-1,1h-3.543c-0.55,0-1-0.45-1-1v-1.895c0-0.55,0.45-1,1-1h3.543
			c0.55,0,1,0.45,1,1V222.958z"/>
	</g>
</g>
<polygon fill="#E7E4D9" points="672.035,365.608 427.704,198.105 383.347,198.105 183.372,365.608 183.372,389.539 672.035,389.539 
	"/>
<rect x="183.372" y="365.608" fill="#F0EEE7" width="488.663" height="23.931"/>
<polygon fill="#C4C5C2" points="589.581,70.461 275.526,70.461 275.526,89.862 371.78,172.067 514.402,172.067 589.581,89.862 "/>
<polygon fill="#AAABA8" points="275.526,89.862 371.78,172.067 514.402,172.067 589.581,89.862 "/>
<polygon fill="#D2D0C8" points="581.054,303.812 458.624,303.812 432.554,231.816 432.554,143.438 458.624,101.18 581.054,101.18 
	"/>
<rect x="458.624" y="101.18" fill="#D9D7D0" width="122.43" height="202.633"/>
<g>
	<g>
		<g>
			<circle fill="#939491" cx="404.399" cy="152.573" r="13.861"/>
			<circle fill="#E3E1DC" cx="404.399" cy="152.573" r="12.119"/>
			<g>
				<path fill="#939491" d="M411.216,153.043h-6.816c-0.414,0-0.75-0.336-0.75-0.75v-7.449c0-0.414,0.336-0.75,0.75-0.75
					s0.75,0.336,0.75,0.75v6.699h6.066c0.414,0,0.75,0.336,0.75,0.75S411.63,153.043,411.216,153.043z"/>
			</g>
			<g>
				<g>
					<g>
						<path fill="#AAABA8" d="M404.399,143.411c-0.277,0-0.5-0.224-0.5-0.5v-1.183c0-0.276,0.223-0.5,0.5-0.5
							c0.275,0,0.5,0.224,0.5,0.5v1.183C404.899,143.188,404.675,143.411,404.399,143.411z"/>
						<path fill="#AAABA8" d="M404.399,163.358c-0.277,0-0.5-0.224-0.5-0.5v-1.183c0-0.276,0.223-0.5,0.5-0.5
							c0.275,0,0.5,0.224,0.5,0.5v1.183C404.899,163.135,404.675,163.358,404.399,163.358z"/>
					</g>
				</g>
				<g>
					<g>
						<path fill="#AAABA8" d="M399.708,144.668c-0.173,0-0.342-0.09-0.434-0.25l-0.591-1.025c-0.138-0.239-0.056-0.545,0.184-0.683
							c0.239-0.139,0.546-0.056,0.683,0.184l0.591,1.025c0.138,0.239,0.056,0.545-0.184,0.683
							C399.878,144.646,399.792,144.668,399.708,144.668z"/>
						<path fill="#AAABA8" d="M409.683,161.943c-0.173,0-0.341-0.089-0.434-0.25l-0.592-1.025c-0.139-0.239-0.057-0.545,0.184-0.683
							c0.237-0.139,0.545-0.057,0.683,0.183l0.592,1.025c0.138,0.239,0.056,0.545-0.183,0.683
							C409.854,161.922,409.768,161.943,409.683,161.943z"/>
					</g>
				</g>
				<g>
					<g>
						<path fill="#AAABA8" d="M396.274,148.102c-0.085,0-0.17-0.021-0.25-0.067l-1.025-0.591c-0.238-0.138-0.32-0.444-0.183-0.683
							c0.138-0.24,0.442-0.321,0.683-0.183l1.025,0.591c0.239,0.138,0.322,0.444,0.184,0.683
							C396.616,148.012,396.447,148.102,396.274,148.102z"/>
						<path fill="#AAABA8" d="M413.549,158.076c-0.085,0-0.171-0.021-0.249-0.067l-1.025-0.592c-0.24-0.138-0.322-0.444-0.184-0.683
							s0.444-0.321,0.684-0.183l1.025,0.592c0.238,0.138,0.32,0.444,0.183,0.683C413.89,157.986,413.722,158.076,413.549,158.076z"
							/>
					</g>
				</g>
				<g>
					<g>
						<path fill="#AAABA8" d="M395.017,152.793h-1.182c-0.277,0-0.5-0.224-0.5-0.5s0.223-0.5,0.5-0.5h1.182
							c0.277,0,0.5,0.224,0.5,0.5S395.294,152.793,395.017,152.793z"/>
						<path fill="#AAABA8" d="M414.966,152.793h-1.184c-0.277,0-0.5-0.224-0.5-0.5s0.223-0.5,0.5-0.5h1.184
							c0.275,0,0.5,0.224,0.5,0.5S415.241,152.793,414.966,152.793z"/>
					</g>
				</g>
				<g>
					<g>
						<path fill="#AAABA8" d="M395.25,158.076c-0.173,0-0.341-0.09-0.434-0.25c-0.138-0.239-0.056-0.545,0.183-0.683l1.025-0.592
							c0.238-0.138,0.545-0.056,0.684,0.183s0.057,0.545-0.184,0.683l-1.025,0.592C395.421,158.055,395.335,158.076,395.25,158.076z
							"/>
						<path fill="#AAABA8" d="M412.524,148.102c-0.173,0-0.341-0.09-0.434-0.25c-0.139-0.239-0.056-0.545,0.184-0.683l1.025-0.591
							c0.238-0.138,0.544-0.057,0.683,0.183c0.138,0.239,0.056,0.545-0.183,0.683l-1.025,0.591
							C412.694,148.081,412.608,148.102,412.524,148.102z"/>
					</g>
				</g>
				<g>
					<g>
						<path fill="#AAABA8" d="M399.116,161.943c-0.084,0-0.17-0.021-0.249-0.067c-0.239-0.138-0.321-0.443-0.184-0.683l0.591-1.025
							c0.137-0.239,0.443-0.323,0.683-0.184c0.239,0.138,0.321,0.443,0.184,0.683l-0.591,1.025
							C399.458,161.854,399.289,161.943,399.116,161.943z"/>
						<path fill="#AAABA8" d="M409.09,144.668c-0.085,0-0.171-0.021-0.249-0.067c-0.24-0.138-0.322-0.444-0.184-0.683l0.592-1.025
							c0.138-0.24,0.443-0.322,0.684-0.183c0.238,0.138,0.32,0.444,0.183,0.683l-0.592,1.025
							C409.431,144.579,409.263,144.668,409.09,144.668z"/>
					</g>
				</g>
			</g>
		</g>
		<path fill="#939491" d="M405.351,135.251c0-0.524-1.9-0.524-1.9,0s0,4.128,0,4.128h1.9
			C405.351,139.379,405.351,135.775,405.351,135.251z"/>
	</g>
	<path fill="#939491" d="M409.091,134.825c0-0.887-2.031-1.606-4.535-1.606c-2.506,0-4.535,0.719-4.535,1.606
		c0,0.118,0,0.569,0,0.688c0,0.887,2.029,1.605,4.535,1.605c2.504,0,4.535-0.719,4.535-1.605
		C409.091,135.395,409.091,134.943,409.091,134.825z"/>
</g>
<g>
	<path fill="#7A574A" d="M397.757,263.251c0.708,1.382,1.624,2.739,3.218,1.728c1.411-0.893,1.193-2.424,1.41-3.825
		c0.276-1.796,0.801-3.108,1.91-3.251c1.495-0.193,1.406,2.516,2.544,2.472c0.906-0.032,1.13-1.187,1.276-2.231
		c0.151-1.13-0.29-2.596-0.725-3.488c-0.954-1.956-2.673-2.71-4.623-2.218C398.552,253.498,395.721,259.295,397.757,263.251z"/>
	<path fill="#7A574A" d="M510.626,272.223c-0.943,1.234-2.09,2.404-3.475,1.123c-1.228-1.131-0.74-2.598-0.701-4.016
		c0.05-1.816-0.231-3.203-1.298-3.541c-1.435-0.459-1.835,2.223-2.945,1.976c-0.885-0.194-0.899-1.37-0.855-2.423
		c0.054-1.141,0.751-2.504,1.339-3.303c1.29-1.754,3.116-2.188,4.944-1.354C511.593,262.486,513.339,268.697,510.626,272.223z"/>
	<path fill="#7A574A" d="M471.558,334.443c-1.688,0.281-5.58,0.822-6.997-0.033c-3.051-1.844,1.82-4.033,4.296-4.833
		C475.209,327.521,479.086,333.18,471.558,334.443z"/>
	<path fill="#7A574A" d="M437.162,331.152c-1.701,0.175-5.622,0.477-6.98-0.469c-2.931-2.025,2.065-3.908,4.587-4.555
		C441.236,324.471,444.755,330.357,437.162,331.152z"/>
	<g>
		<g>
			<path fill="#7A574A" d="M463.381,277.35c-14.253,0-31.291-2.898-37.754-7.832c0.191,15.235,4.54,35.993,8.164,54.932l6.717,0.253
				c4.555-15.478,8.716-26.876,14.93-34.345c6.604,9.24,9.604,19.906,13.328,37.399l6.128,0.138
				c6.188-17.573,10.234-36.563,10.432-54.608C479.748,276.868,468.827,277.35,463.381,277.35z"/>
		</g>
	</g>
	<g>
		<path fill="#7A574A" d="M464.891,190.377c-2.788-1.648-4.86-1.338-7.454-1.658c-0.425-6.486-1.39-11.146-4.296-14.979
			c-2.449-3.228-7.714-5.84-12.482-6.538c-3.539-0.517-7.812-0.383-10.688,1.267c-3.393,1.942-4.06,6.933-4.248,11.871
			c-1.765-8.34,2.203-17.127,7.622-22.041c5.244-4.758,22.418-10.534,33.297-2.771c17.639,12.584,7.877,37.96,5.82,41.345
			c-0.803,1.32-4.811,4.785-6.097,5.504C467.455,196.877,467.288,191.791,464.891,190.377z"/>
	</g>
	<g>
		<path fill="#7A574A" d="M464.382,191.237c-1.922-1.136-3.459-1.242-5.238-1.365c-0.584-0.04-1.188-0.082-1.83-0.161l-0.82-0.102
			l-0.055-0.826c-0.389-5.938-1.234-10.666-4.095-14.439c-2.175-2.867-7.108-5.44-11.755-6.14c-0.192-0.027-0.396-0.048-0.599-0.07
			c-0.183-0.023-0.365-0.042-0.548-0.06c-3.019-0.258-6.811,0.008-8.982,1.309c-0.753,0.451-1.354,1.065-1.836,1.804
			c-1.418,2.293-1.775,5.834-1.903,9.192l-0.075,1.954c0.008,1.287,0.049,2.576,0.166,3.852l0.03,0.326
			c0.02,0.14,0.034,0.272,0.047,0.394c2.523,16.808,12.47,24.931,17.224,24.966c3.854,0.027,11.738-1.773,17.742-6.401
			c1.302-1.004,2.482-2.164,3.544-3.368C466.495,196.511,466.099,192.251,464.382,191.237z M431.317,188.25
			c-0.83-0.026-1.47-1.551-1.421-3.41c0.058-1.861,0.78-3.35,1.615-3.327c0.838,0.025,1.472,1.551,1.422,3.413
			C432.878,186.787,432.156,188.273,431.317,188.25z M442.615,188.462c-0.949-0.028-1.683-1.524-1.627-3.349
			c0.051-1.824,0.865-3.278,1.818-3.252c0.949,0.027,1.677,1.527,1.627,3.35C444.381,187.031,443.567,188.488,442.615,188.462z"/>
		<g>
			<path fill="#7A574A" d="M500.67,260.291l7.024-2.588c-6.195-22.172-23.522-44.513-38.022-51.513
				c-1.638-0.79-3.241-1.476-4.813-2.061c-0.79,0.79-1.59,1.51-2.394,2.13c-6.29,4.85-14.37,6.609-18.266,6.609h-0.095
				c-2.432-0.018-6.33-2.002-9.952-6.248c-12.837,7.783-21.949,21.285-30.766,43.576l6.083,2.232
				c8.969-17.504,18.265-24.295,18.265-24.295s0.664,15.547-3.757,36.289c-2.469,11.584,61.913,17.885,63.754,3.996
				c1.806-13.62-8.951-38.488-8.951-38.488S492.569,241.035,500.67,260.291z"/>
		</g>
	</g>
</g>
</svg>
