<?xml version="1.0" encoding="utf-8"?>
<!-- Generator: Adobe Illustrator 15.0.2, SVG Export Plug-In . SVG Version: 6.00 Build 0)  -->
<!DOCTYPE svg PUBLIC "-//W3C//DTD SVG 1.1//EN" "http://www.w3.org/Graphics/SVG/1.1/DTD/svg11.dtd">
<svg version="1.1" id="Layer_1" xmlns="http://www.w3.org/2000/svg" xmlns:xlink="http://www.w3.org/1999/xlink" x="0px" y="0px"
	 width="720px" height="460px" viewBox="0 0 720 460" enable-background="new 0 0 720 460" xml:space="preserve">
<path fill="#EBDFBA" d="M298.056,129.822c117.383-13.537,224.366,1.105,294.784,63.559c46.84,41.549,42.779,96.615,4.623,129.506
	c-42.443,36.588-128.582,66.766-250.506,66.766c-117.829,0-207.537-43.564-240.762-86.076
	c-23.887-30.562-15.748-81.854,27.214-114.127C180.17,154.328,226.742,138.042,298.056,129.822z"/>
<path fill="#D59180" d="M532.49,389.652c-62.76,48.936-378.879-17.896-388.504-34.031c-28.172-47.225,38.276-95.494,31.592-123.91
	c9.26-5.244,106.763-13.127,211.613-1.475c84.057,9.342,159.738,43.957,185.996,42.979
	C586.93,285.596,576.135,355.621,532.49,389.652z"/>
<path fill="#939491" d="M240.925,235.061c34.896-44.577,82.543-49.969,100.043-52.672c13.584-2.102,29.244,0.125,42.951,1.131
	c14.242,1.045,29.232,2.777,42.938,7.1c19.91,6.282,34.957,16.196,50.521,29.606c16.031,13.811,26.707,41.197,31.02,58.041
	c6.709,26.215,12.158,95.176-7.369,124.158c-9.699,14.395-156.238,6.527-214.42-0.209c-35.422-4.102-80.576-9.232-92.23-16.211
	c-12.949-7.752,0.488-56.385,8-79.291C212.595,275.553,227.861,251.748,240.925,235.061z"/>
<g>
	<path fill="#AAABA8" d="M270.042,218.518c13.771,20.531,56.446,31.281,63.555,33.883c4.354,7.303,13.959,16.434,33.652,18.926
		c19.047,2.41,31.975-3.969,39.176-9.551c21.68,1.354,69.023-19.629,80.016-30.293c10.701-10.383,22.756-32.07,23.348-53.053
		c0.369-13.008-1.426-25.811-5.701-38.703c14.703-24.973,21.469-63.566,12.084-68.744c-10.949-6.043-55.16,23.441-60.492,25.229
		c-12.477-9.971-34.342-16.051-66.52-17.654c-37.555-1.871-57.143,4.598-69.486,9.295c-15.039-15.137-50.155-40.887-56.422-38.166
		c-8.961,3.889-6.24,59.791,2.736,74.09c-4.723,8.172-12.096,23.924-12.096,44.869C253.892,185.402,259.783,203.227,270.042,218.518
		z"/>
	<path fill="#888886" d="M323.852,144.212c-13.414-5.809-44.983,6.994-44.305,13.498c0.432,4.146,9.035,13.404,24.629,15.691
		c9.521,1.395,24.326,3.188,27.723,4.217c2.68,0.811,4.902,5.973,8.324,5.42C343.646,182.488,329.979,146.867,323.852,144.212z"/>
	<path fill="#888886" d="M414.59,183.128c-2.266-1.293,6.611-32.771,18.385-35.852c16.625-4.352,40.861,8.406,41.854,11.619
		c1.086,3.516-17.492,15.457-27.705,18.451c-9.426,2.764-26.486,1.939-26.461,1.906C420.662,179.253,416.859,184.421,414.59,183.128
		z"/>
	<g>
		<g>
			<g>
				<path fill="#939491" d="M321,147.039c-4.684-2.279-38.028,6.207-32.815,13.791c5.496,7.992,45.124,14.092,45.833,10.93
					C334.988,167.445,326.135,149.539,321,147.039z"/>
				<path fill="#DFCA70" d="M292.585,159.064c0.395,3.833,2.203,7.191,4.876,9.645c2.889,1.122,5.619,1.655,9.95,2.521
					c1.308,0.261,4.73,0.666,6.549,0.781c6.799-2.379,11.343-8.989,10.598-16.234c-0.319-3.111-1.57-5.909-3.46-8.164
					c-3.56-1.233-7.743-1.713-13.286-0.7c-6.196,1.132-10.593,2.998-14.053,4.596C292.754,153.822,292.312,156.4,292.585,159.064z"
					/>
				<path fill="#7A574A" d="M296.9,159.568c0.578,5.627,5.772,9.701,11.598,9.102c5.824-0.598,10.08-5.645,9.502-11.271
					c-0.578-5.623-5.77-9.699-11.596-9.1C300.576,148.898,296.322,153.943,296.9,159.568z"/>
			</g>
		</g>
	</g>
	<g>
		<g>
			<g>
				<g>
					<path fill="#939491" d="M427.424,161.162c1.854-3.703,6.902-7.672,10.783-8.273c6.797-1.049,25.568,4.107,26.812,6.32
						c1.746,3.104-0.125,4.09-2.67,5.467c-7.66,4.148-15.162,7.949-23.809,9.266c-3.035,0.461-11.812,2.781-14.344,0.148
						C421.773,171.566,426.146,163.716,427.424,161.162z"/>
					<path fill="#DFCA70" d="M427.322,162.457c0.652,6.339,5.123,11.396,10.992,13.271c2.353-0.145,4.937-0.395,7.437-1.145
						c5.579-1.674,9.166-4.083,11.555-5.549c1.847-2.86,2.767-6.306,2.397-9.906c-0.201-1.96-0.701-3.834-1.628-5.457
						c-4.241-1.505-12.86-4.647-21.908-3.088c-4.833,0.833-7.833,6.167-8.71,7.756C427.111,159.646,427.178,161.052,427.322,162.457
						z"/>
					
						<ellipse transform="matrix(-0.9948 0.1021 -0.1021 -0.9948 899.1809 276.6391)" fill="#7A574A" cx="442.51" cy="161.334" rx="10.74" ry="10.37"/>
				</g>
			</g>
		</g>
	</g>
	<path fill="#888886" d="M474.18,112.189c8.506-13.143,37.4-39.627,40.508-33.279c3.451,7.047-3.988,40.699-15.918,57.785
		C494.857,128.488,482.957,117.988,474.18,112.189z"/>
	<path fill="#888886" d="M298.8,98.896c-7.41-14.711-29.348-41.363-32.312-41.08c-4.121,0.396-4.74,38.102,5.025,62.414
		C278.208,111.945,293.015,100,298.8,98.896z"/>
	<path fill="#666665" d="M388.982,199.066c3.955,4.785,1.857,4.793-2.791,7.479c-5.861,3.389-11.045,11.502-17.424,8.137
		c-3.535-1.865-7.604-7.084-10.457-9.992c-3.707-3.777-4.705-3.713-0.195-7.615C369.287,187.404,379.346,187.406,388.982,199.066z"
		/>
	<g>
		<path fill="#B1CADA" d="M373.035,232.432c-3.209-2.465-6.475,1.975-10.137,4.607c-2.453,1.764-8.781,2.262-14.506,6.703
			c-17.949,13.926-57.182,45.068-57.182,45.068c-6.189,4.656-8.162,8.67-5.221,13.973c2.158,3.893,10.705,4.873,15.885,0.014
			c1.768-1.658,39.84-34.896,56.443-48.73c6.115-5.094,6.684-10.566,9.537-12.971C373.23,236.568,376.244,234.896,373.035,232.432z"
			/>
		<g>
			<polygon fill="#D8D3C1" points="362.814,246.721 351.416,243.137 292.39,289.395 292.39,290.395 305.641,297.205 
				362.814,247.721 			"/>
			<polygon fill="#FDF6E2" points="362.814,246.721 305.641,296.205 292.39,289.395 351.416,243.137 			"/>
		</g>
		<g>
			<path fill="#C7C4BA" d="M355.896,250.512c-0.025,0-0.051-0.004-0.078-0.012l-7.805-2.564c-0.131-0.043-0.203-0.186-0.16-0.316
				s0.186-0.203,0.316-0.158l7.805,2.564c0.131,0.043,0.203,0.184,0.16,0.314C356.1,250.445,356.002,250.512,355.896,250.512z"/>
			<path fill="#C7C4BA" d="M308.668,290.117c-0.033,0-0.066-0.006-0.1-0.02l-8.276-3.557c-0.127-0.055-0.186-0.201-0.131-0.328
				c0.055-0.129,0.201-0.188,0.328-0.131l8.276,3.557c0.127,0.055,0.186,0.201,0.131,0.328
				C308.855,290.061,308.764,290.117,308.668,290.117z"/>
			<path fill="#C7C4BA" d="M314.955,284.348c-0.033,0-0.066-0.006-0.1-0.02l-7.748-3.303c-0.127-0.055-0.186-0.201-0.133-0.328
				c0.055-0.127,0.201-0.184,0.328-0.133l7.75,3.305c0.127,0.053,0.186,0.199,0.131,0.326
				C315.145,284.291,315.051,284.348,314.955,284.348z"/>
			<path fill="#C7C4BA" d="M321.516,278.855c-0.035,0-0.068-0.006-0.102-0.021l-7.496-3.328c-0.125-0.055-0.184-0.203-0.127-0.33
				c0.057-0.125,0.203-0.184,0.33-0.127l7.496,3.328c0.125,0.057,0.182,0.205,0.127,0.33
				C321.701,278.801,321.611,278.855,321.516,278.855z"/>
			<path fill="#C7C4BA" d="M328.711,273.141c-0.031,0-0.062-0.006-0.094-0.018l-7.875-3.129c-0.129-0.051-0.191-0.195-0.141-0.324
				s0.197-0.191,0.324-0.141l7.877,3.129c0.129,0.051,0.191,0.197,0.141,0.326C328.904,273.082,328.809,273.141,328.711,273.141z"/>
			<path fill="#C7C4BA" d="M335.607,267.357c-0.029,0-0.057-0.004-0.084-0.014l-7.959-2.861c-0.131-0.047-0.197-0.191-0.15-0.32
				c0.047-0.131,0.189-0.195,0.318-0.15l7.959,2.861c0.131,0.047,0.197,0.189,0.15,0.32
				C335.807,267.295,335.709,267.357,335.607,267.357z"/>
			<path fill="#C7C4BA" d="M342.338,261.775c-0.027,0-0.055-0.006-0.082-0.016l-7.877-2.795c-0.129-0.045-0.197-0.188-0.152-0.318
				c0.047-0.131,0.191-0.195,0.32-0.152l7.875,2.795c0.131,0.047,0.199,0.189,0.152,0.32
				C342.539,261.711,342.441,261.775,342.338,261.775z"/>
			<path fill="#C7C4BA" d="M348.305,256.258c-0.031,0-0.062-0.006-0.092-0.018l-7.027-2.793c-0.129-0.051-0.191-0.197-0.141-0.326
				c0.051-0.127,0.197-0.188,0.324-0.139l7.027,2.793c0.129,0.051,0.191,0.197,0.141,0.326
				C348.498,256.199,348.404,256.258,348.305,256.258z"/>
		</g>
		<path fill="#B5B6B3" d="M368.529,234.795c0,0-67.311,54.9-67.969,55.559c-0.658,0.658,0.782,1.125,1.34,0.67
			c0.557-0.455,67.713-55.375,67.713-55.375L368.529,234.795z"/>
		<ellipse fill="#B5B6B3" cx="301.762" cy="290.305" rx="1.915" ry="1.359"/>
		<path fill="#777775" d="M368.529,234.795c0,0-46.105,37.723-46.6,38.127s0.234,1.604,0.742,1.186
			c0.51-0.416,46.941-38.459,46.941-38.459L368.529,234.795z"/>
		<path fill="#D2E0EA" d="M289.316,294.145c-0.842,1.662-1.361,3.254-0.342,5.271c0.947,1.881,1.98,3.17,3.391,4.215
			c-2.016,0.293-5.094-1.924-5.359-3.934C286.554,296.293,289.316,294.145,289.316,294.145z"/>
	</g>
	<path fill="#939491" d="M373.107,227.635c0,7.713,5.248,13.361,12.967,13.938c9.781,0.73,17.395,7.176,15.766,12.137
		c-2.014,2.195-5.984-8-16.252-8.973c-7-0.664-9.588-3.139-12.514-6.064c-5.082-5.082-11.953-2.947-19.52,0.859
		c-10.518,5.289-14.52,9.055-14.309,6.299c0.17-2.225,9.914-7.803,15.281-10.969c5.336-3.148,10.295-4.129,14.984-3.613
		c-0.066-2.711-0.066-11.938,2.941-11.936C375.057,219.314,373.107,222.99,373.107,227.635z"/>
	<g>
		<path fill="#C7C4BA" d="M282.494,257.088c16.189-12.396,35.381-19.439,55.09-23.947c0.648-0.148,0.363-1.086-0.27-0.98
			c-19.824,3.344-39.581,11.748-55.465,24.094C281.375,256.623,282.015,257.453,282.494,257.088L282.494,257.088z"/>
		<path fill="#C7C4BA" d="M274.048,249.67c18.781-10.145,39.004-16.227,59.932-20.057c0.787-0.143,0.451-1.33-0.328-1.193
			c-20.914,3.662-41.526,9.936-59.963,20.637C273.292,249.287,273.646,249.889,274.048,249.67L274.048,249.67z"/>
		<path fill="#C7C4BA" d="M263.429,243.535c22.449-8.787,45.452-15.006,69.661-15.809c0.676-0.021,0.68-1.057,0-1.051
			c-24.264,0.213-47.549,7.033-69.854,16.162C262.814,243.01,262.992,243.705,263.429,243.535L263.429,243.535z"/>
	</g>
	<g>
		<path fill="#C7C4BA" d="M449.502,272.289c-13.137-15.248-30.865-27.34-49.635-34.535c-0.537-0.205-0.916,0.693-0.393,0.93
			c18.432,8.311,35.854,19.002,49.277,34.357C449.203,273.559,449.947,272.805,449.502,272.289L449.502,272.289z"/>
		<path fill="#C7C4BA" d="M461.371,269.596c-17.404-15.398-38.092-26.521-59.652-34.936c-0.746-0.293-1.061,0.902-0.33,1.193
			c21.449,8.545,41.709,19.393,59.479,34.246C461.215,270.389,461.717,269.902,461.371,269.596L461.371,269.596z"/>
		<path fill="#C7C4BA" d="M470.486,262.906c-20.049-13.354-41.525-24.654-65.264-29.648c-0.66-0.139-0.941,0.857-0.279,1.014
			c23.564,5.562,44.914,16.211,65.178,29.26C470.516,263.785,470.871,263.164,470.486,262.906L470.486,262.906z"/>
	</g>
</g>
</svg>
