<?xml version="1.0" encoding="utf-8"?>
<!-- Generator: Adobe Illustrator 15.0.2, SVG Export Plug-In . SVG Version: 6.00 Build 0)  -->
<!DOCTYPE svg PUBLIC "-//W3C//DTD SVG 1.1//EN" "http://www.w3.org/Graphics/SVG/1.1/DTD/svg11.dtd">
<svg version="1.1" id="Layer_1" xmlns="http://www.w3.org/2000/svg" xmlns:xlink="http://www.w3.org/1999/xlink" x="0px" y="0px"
	 width="720px" height="460px" viewBox="0 0 720 460" enable-background="new 0 0 720 460" xml:space="preserve">
<g>
	<path fill="#D6C9AC" d="M532.791,174.734c-14.001-11.416-18.371-44.263-21.882-70.656c-1.422-10.679-2.648-19.9-4.308-26.486
		l0.97-0.245c1.674,6.642,2.904,15.89,4.328,26.598c3.488,26.219,7.83,58.849,21.523,70.014L532.791,174.734z"/>
	<path fill="#69C4BA" d="M507.188,77.428c-19.707-1.307-45.51-10.634-50.371-32.364c-5.588-24.975,27.785-38.356,42.398-21.984
		c13.094-19.346,44.691-10.187,44.508,14.539C543.53,63.402,506.446,78.372,507.188,77.428z"/>
</g>
<path fill="#D2D367" d="M284.196,245.233c143.651-10.53,274.573,0.861,360.749,49.44c57.324,32.316,52.354,75.151,5.658,100.734
	c-51.941,28.461-157.354,51.935-306.564,51.935c-144.199,0-253.979-33.886-294.639-66.954
	c-29.233-23.774-19.272-63.671,33.303-88.774C139.926,264.296,196.919,251.629,284.196,245.233z"/>
<path fill="#69C4BA" d="M303.253,307.433c15.016,0.914,29.857-11.785,32.451-18.672c4.404-11.685-2.861-22.557-18.104-26.146
	c-16.463-3.878-24.266,6.354-26.205,17.997c-1.242,7.462-0.755,21.534,8.954,26.206c-1.091,0.188-1.951,0.812-3.171,0.881
	c0.214,0.68,3.393,3.346,5.06,3.709C303.905,310.507,303.253,307.433,303.253,307.433z"/>
<g>
	<g>
		<g>
			<g>
				<g>
					<g>
						<polygon fill="#A1906D" points="536.606,246.735 541.962,246.735 543.132,212.606 537.774,212.606 						"/>
						<polygon fill="#AE9E7D" points="536.606,246.735 534.757,243.211 535.729,212.286 537.774,212.606 						"/>
					</g>
					<g>
						<polygon fill="#A1906D" points="580.63,246.735 585.987,246.735 587.157,212.606 581.8,212.606 						"/>
						<polygon fill="#AE9E7D" points="580.63,246.735 578.78,243.211 579.755,212.286 581.8,212.606 						"/>
					</g>
				</g>
			</g>
		</g>
		<g>
			<path fill="#AE9E7D" d="M531.124,192.031l-0.822,19.577l1.062,1.426c2.68-11.602,5.242-21.367,6.332-25.438
				C536.254,188.344,533.995,189.708,531.124,192.031z"/>
			<path fill="#AE9E7D" d="M532.147,214.086l0.055,0.073l62.803-37.261l-1.9-2.551h-61.236l-0.688,16.355
				c5.004-3.92,8.029-4.875,8.029-4.875S535.774,198.288,532.147,214.086z"/>
		</g>
	</g>
	<g>
		<g>
			<g>
				<g>
					<path fill="#A1856E" d="M532.753,221.292c2.537,1.157,5.398,2.191,8.553,3.078c16.391,4.61,41.195,4.914,50.619-2.305
						c1.355,20.933-8.166,47.005-11.758,57.926l-5.674-0.91c-2.754-16.407-8.838-32.551-16.004-38.219
						c-10.062,5.932-17.963,17.75-26.135,32.319l-6.207-1.092C525.356,254.6,527.29,235.356,532.753,221.292z"/>
				</g>
			</g>
			<g>
				<path fill="#A1856E" d="M503.837,215.983c0.627,1.312,1.447,2.609,2.969,1.705c1.348-0.798,1.186-2.238,1.424-3.546
					c0.309-1.676,0.836-2.892,1.879-2.995c1.406-0.14,1.25,2.396,2.316,2.385c0.852-0.005,1.092-1.081,1.256-2.055
					c0.174-1.056-0.201-2.441-0.584-3.289c-0.84-1.858-2.43-2.611-4.271-2.203C504.847,206.866,502.036,212.22,503.837,215.983z"/>
			</g>
			<g>
				<path fill="#A1856E" d="M616.581,226.845c-0.918,1.13-2.023,2.195-3.287,0.956c-1.119-1.092-0.623-2.453-0.549-3.78
					c0.096-1.701-0.129-3.008-1.119-3.354c-1.332-0.469-1.779,2.033-2.814,1.771c-0.824-0.206-0.807-1.309-0.736-2.294
					c0.082-1.066,0.773-2.325,1.344-3.06c1.256-1.607,2.98-1.965,4.672-1.134C617.749,217.746,619.218,223.613,616.581,226.845z"/>
			</g>
		</g>
		<g>
			<g>
				<g>
					<path fill="#A1856E" d="M576.763,146.134c-2.678-1.64-4.691-1.371-7.199-1.721c-0.312-6.292-1.176-10.821-3.932-14.58
						c-2.326-3.166-7.389-5.777-11.998-6.526c-3.422-0.555-7.562-0.491-10.375,1.064c-3.318,1.832-4.041,6.656-4.299,11.438
						c-1.582-8.109,2.396-16.563,7.723-21.242c5.154-4.529,21.885-9.865,32.307-2.176c16.9,12.464,7.053,36.904,5.01,40.154
						c-0.799,1.268-4.736,4.562-5.994,5.239C579.147,152.473,579.063,147.542,576.763,146.134z"/>
				</g>
			</g>
			<g>
				<g>
					<g>
						<g>
							<path fill="#A1856E" d="M539.991,142.187c2.188,16.325,11.703,24.35,16.309,24.456c3.732,0.084,11.4-1.538,17.289-5.932
								c1.309-0.977,2.498-2.112,3.564-3.294c1.129-5.377,0.793-9.495-0.865-10.509c-0.588-0.361-1.166-0.637-1.764-0.841
								c-1.115-0.384-2.186-0.476-3.314-0.57c-0.564-0.048-1.15-0.099-1.771-0.187l-0.742-0.104l-0.039-0.75
								c-0.287-5.772-1.037-10.378-3.76-14.088c-2.096-2.854-7.146-5.401-11.184-6.07c-3.035-0.501-7.547-0.448-9.994,0.965
								c-2.98,1.721-3.609,6.053-3.854,10.594c-0.1,1.872-0.08,3.766,0.061,5.631l0.023,0.316
								C539.968,141.941,539.979,142.069,539.991,142.187z M555.206,143.938c-0.92-0.042-1.607-1.504-1.525-3.27
								c0.078-1.766,0.889-3.162,1.811-3.124c0.92,0.042,1.604,1.506,1.527,3.271C556.94,142.579,556.128,143.977,555.206,143.938z
								 M544.554,137.035c0.811,0.036,1.402,1.526,1.324,3.327c-0.082,1.804-0.803,3.234-1.617,3.198
								c-0.803-0.038-1.398-1.525-1.322-3.326C543.021,138.431,543.743,136.999,544.554,137.035z"/>
						</g>
						<g>
							<g>
								<path fill="#A1856E" d="M515.575,207.285l-5.959-3.817c12.107-19.741,23.744-34.468,38.129-40.765
									c2.752,2.96,5.631,4.63,7.893,4.941c0.217,0.029,0.432,0.047,0.637,0.051c3.789,0.087,11.697-1.478,17.945-6.14
									c0.271-0.203,0.543-0.419,0.814-0.644c20.805,6.357,33.988,31.304,39.191,52.248l-6.652,2.234
									c-7.068-18.264-19.689-29.041-19.689-29.041s5.965,14.155,6.545,30.579c-3.557,12.645-44.203,12.521-63.447,2.323
									c4.02-18.162,8.229-33.427,8.229-33.427S529.267,188.946,515.575,207.285z"/>
								<path fill="#A1906D" d="M533.2,190.43l-0.757,18.001c2.269-9.539,4.311-17.314,5.253-20.834
									C536.621,188.153,535.095,189.049,533.2,190.43z"/>
							</g>
						</g>
					</g>
				</g>
			</g>
		</g>
	</g>
	<g>
		<g>
			<g>
				<g>
					<g>
						<polygon fill="#A1906D" points="471.753,246.735 466.396,246.735 465.228,212.606 470.585,212.606 						"/>
						<polygon fill="#AE9E7D" points="471.753,246.735 473.603,243.211 472.63,212.286 470.585,212.606 						"/>
					</g>
					<g>
						<polygon fill="#A1906D" points="427.728,246.735 422.372,246.735 421.202,212.606 426.56,212.606 						"/>
						<polygon fill="#AE9E7D" points="427.728,246.735 429.579,243.211 428.604,212.286 426.56,212.606 						"/>
					</g>
				</g>
			</g>
		</g>
		<g>
			<polygon fill="#AE9E7D" points="413.353,176.898 476.155,214.159 478.058,211.608 476.489,174.347 415.255,174.347 			"/>
			<polygon fill="#A1906D" points="414.921,214.159 476.155,214.159 474.589,176.898 413.353,176.898 			"/>
		</g>
	</g>
	<g>
		<g>
			<g>
				<polygon fill="#AE9E7D" points="412.739,329.524 405.901,329.524 404.409,276.394 411.247,276.394 				"/>
				<polygon fill="#A1906D" points="412.739,329.524 415.101,326.789 413.858,276.146 411.247,276.394 				"/>
			</g>
			<g>
				<polygon fill="#AE9E7D" points="469.247,329.524 462.409,329.524 460.917,276.394 467.755,276.394 				"/>
				<polygon fill="#A1906D" points="469.247,329.524 471.61,326.789 470.366,276.146 467.755,276.394 				"/>
			</g>
		</g>
		<g>
			<polygon fill="#AE9E7D" points="476.813,273.931 395.646,273.931 408.532,255.165 480.099,255.165 			"/>
			<polygon fill="#A1906D" points="476.72,280.017 396.405,280.017 395.646,273.931 476.813,273.931 477.726,268.714 
				478.817,268.714 			"/>
		</g>
	</g>
	<g>
		<g>
			<g>
				<polygon fill="#AE9E7D" points="556.437,329.524 563.274,329.524 564.767,276.394 557.929,276.394 				"/>
				<polygon fill="#A1906D" points="556.437,329.524 554.075,326.789 555.317,276.146 557.929,276.394 				"/>
			</g>
			<g>
				<polygon fill="#AE9E7D" points="612.636,329.524 619.474,329.524 620.968,276.394 614.128,276.394 				"/>
				<polygon fill="#A1906D" points="612.636,329.524 610.274,326.789 611.517,276.146 614.128,276.394 				"/>
			</g>
		</g>
		<g>
			<polygon fill="#AE9E7D" points="628.985,273.931 549.312,273.931 542.503,255.165 617.374,255.165 			"/>
			<polygon fill="#A1906D" points="628.224,280.017 549.312,280.017 545.517,268.714 542.503,255.165 549.312,273.931 
				628.985,273.931 			"/>
		</g>
	</g>
	<g>
		<g>
			<polygon fill="#AE9E7D" points="389.878,314.206 375.706,314.206 372.614,253.342 386.786,253.342 			"/>
			<polygon fill="#A1906D" points="389.878,314.206 392.772,307.538 390.196,252.552 386.786,253.342 			"/>
		</g>
		<g>
			<polygon fill="#AE9E7D" points="365.995,368.292 348.46,368.292 342.722,282.739 360.255,282.739 			"/>
			<polygon fill="#A1906D" points="365.995,368.292 370.052,359.567 364.948,281.765 360.255,282.739 			"/>
		</g>
		<g>
			<polygon fill="#BCAD8D" points="659.505,289.137 310.985,289.137 355.323,221.749 604.239,221.749 			"/>
			<polygon fill="#A1906D" points="658.04,298.103 312.446,298.103 310.985,288.912 659.505,288.912 			"/>
		</g>
	</g>
	<g>
		<g>
			<path fill="#D56E4F" d="M390.505,214.421c-5.846,0-10.584,0.938-10.584,2.387l2.725,23.459c0,1.318,3.52,2.389,7.859,2.389
				c4.342,0,7.861-1.07,7.861-2.389l2.723-23.459C401.089,215.358,396.351,214.421,390.505,214.421z"/>
			<ellipse fill="#DA8166" cx="390.505" cy="216.808" rx="9.787" ry="1.861"/>
		</g>
		<g>
			<path fill="#D36847" d="M390.505,229.836c-4.535,0-8.324-0.903-9.316-2.123l1.457,12.554c0,1.318,3.52,2.389,7.859,2.389
				c4.342,0,7.861-1.07,7.861-2.389l1.457-12.555C398.831,228.933,395.042,229.836,390.505,229.836z"/>
		</g>
		<ellipse fill="#D99A8A" cx="390.506" cy="227.214" rx="9.382" ry="2.466"/>
	</g>
	<g>
		<ellipse fill="#F8F0DD" cx="438.109" cy="236.479" rx="20.524" ry="9.41"/>
		<ellipse fill="#F8F0DD" cx="438.109" cy="233.519" rx="25.571" ry="9.41"/>
		<ellipse fill="#ECE5D3" cx="438.109" cy="233.519" rx="17.808" ry="6.554"/>
		<path fill="#AAB036" d="M426.622,230.699c0.775-0.199,0.844-0.571,1.656-0.339c0.398,0.114,1.227,0.319,1.449,0.859
			c0.65,1.585-2.078,2.145-2.809,2.192c-0.814,0.054-2.857-0.013-2.891-1.609C423.989,229.916,425.876,230.89,426.622,230.699z"/>
		<path fill="#E1CC6C" d="M451.571,234.819c0.02,0.041,0.035,0.085,0.041,0.131c0.104,0.658-0.678,1.467-1.018,1.766
			c-0.889,0.779-2.104,1.024-3.129,1.313c-3.066,0.866-6.229,1.163-9.357,1.163c-3.154,0-6.342-0.3-9.432-1.185
			c-1.459-0.418-5.918-1.257-4.33-4.45c0.381-0.768,1.188-1.203,1.727-1.628c0.418-0.327,0.428-0.469,0.918-0.616
			c0.436-0.131,0.631,0.114,1.084-0.15c0.68-0.398,1.264-1.151,1.928-1.61c1.41-0.974,3.66-1.295,5.191-1.196
			c0.549,0.036,1.195-0.155,1.732-0.006c0.375,0.104,0.686,0.523,1.006,0.626c0.531,0.171,0.762-0.039,1.268-0.277
			c0.801-0.378,0.689-0.398,1.477-0.103c0.342,0.129,0.225,0.279,0.666,0.28c0.355,0.001,0.695-0.5,1.08-0.378
			c0.359,0.113,0.449,0.646,0.756,0.816c0.328,0.184,0.727,0.129,1.078,0.148c1.271,0.068,3.148,0.583,4.098,1.727
			c0.529,0.638,0.701,0.878,1.357,1.322c0.73,0.494,0.607,0.921,1.125,1.618C451.005,234.359,451.429,234.531,451.571,234.819z"/>
	</g>
	<g>
		<path fill="#9F9F9D" d="M402.087,232.165c-1.564,2.5-3.975,7.015-2.938,7.022c2.215,0.019,4.717-5.176,5.061-7.788
			c0.322-2.442,3.736-6.439,2.434-6.906C405.388,224.044,403.843,229.36,402.087,232.165z"/>
		<path fill="#9F9F9D" d="M406.39,234.617c-2.227-0.263-3.594,5.534-3.209,5.683s1.32-3.385,1.809-3.311
			c0.488,0.072-0.678,3.569-0.266,3.672c0.412,0.104,1.072-3.537,1.654-3.441c0.561,0.093-0.592,3.479-0.043,3.578
			c0.604,0.111,0.857-3.485,1.449-3.344c0.598,0.144-0.402,3.468-0.002,3.55c0.688,0.142,2.336-5.861,0.346-6.134
			c0.346-1.479,2.717-9.912,1.395-10.082C408.394,224.643,406.739,234.659,406.39,234.617z"/>
	</g>
	<g>
		<path fill="#9F9F9D" d="M475.784,265.327c2.047-2.372,5.227-6.675,3.926-6.728c-2.779-0.115-6.098,4.847-6.617,7.382
			c-0.488,2.371-4.91,6.123-3.289,6.636C471.362,273.11,473.485,267.987,475.784,265.327z"/>
		<path fill="#9F9F9D" d="M470.466,262.744c2.785,0.354,4.701-5.246,4.223-5.407c-0.477-0.162-1.773,3.247-2.383,3.153
			c-0.611-0.093,0.973-3.456,0.459-3.574s-1.467,3.407-2.195,3.288c-0.699-0.115,0.863-3.371,0.178-3.492
			c-0.754-0.135-1.195,3.365-1.932,3.201c-0.746-0.166,0.621-3.367,0.123-3.466c-0.859-0.168-3.131,5.62-0.645,5.974
			c-0.484,1.429-3.75,9.559-2.094,9.783C467.612,272.395,470.028,262.689,470.466,262.744z"/>
	</g>
	<g>
		<ellipse fill="#F8F0DD" cx="567.388" cy="235.223" rx="20.525" ry="9.409"/>
		<ellipse fill="#F8F0DD" cx="567.388" cy="232.263" rx="25.572" ry="9.41"/>
		<ellipse fill="#ECE5D3" cx="567.388" cy="232.263" rx="17.809" ry="6.553"/>
		<path fill="#AAB036" d="M576.151,231.012c0.775-0.198,0.844-0.571,1.656-0.339c0.398,0.114,1.229,0.319,1.449,0.86
			c0.65,1.584-2.078,2.144-2.809,2.192c-0.814,0.053-2.857-0.014-2.891-1.61C573.519,230.229,575.405,231.202,576.151,231.012z"/>
		<path fill="#E1CC6C" d="M555.579,233.563c-0.018,0.041-0.029,0.084-0.035,0.131c-0.086,0.657,0.568,1.468,0.854,1.766
			c0.742,0.779,1.76,1.023,2.619,1.313c2.566,0.866,5.213,1.163,7.832,1.163c2.641,0,5.311-0.301,7.896-1.186
			c1.223-0.417,4.955-1.256,3.625-4.45c-0.318-0.767-0.994-1.203-1.445-1.627c-0.35-0.327-0.357-0.469-0.768-0.616
			c-0.365-0.132-0.529,0.114-0.908-0.151c-0.568-0.397-1.059-1.15-1.615-1.609c-1.18-0.974-3.062-1.296-4.344-1.196
			c-0.461,0.035-1-0.155-1.451-0.006c-0.314,0.104-0.574,0.522-0.842,0.625c-0.445,0.172-0.639-0.038-1.061-0.276
			c-0.672-0.378-0.578-0.397-1.236-0.103c-0.287,0.129-0.188,0.278-0.559,0.279c-0.297,0.001-0.582-0.5-0.904-0.377
			c-0.301,0.113-0.375,0.646-0.633,0.816c-0.275,0.184-0.607,0.129-0.902,0.147c-1.064,0.069-2.635,0.584-3.43,1.727
			c-0.443,0.639-0.588,0.879-1.137,1.323c-0.611,0.494-0.51,0.92-0.941,1.619C556.054,233.104,555.698,233.275,555.579,233.563z"/>
		<path fill="#C05803" d="M572.897,231.039c-0.473,0.005-0.953-0.281-1.391,0.111c-0.078-0.296-0.383-0.493-0.58-0.631
			c-0.244-0.169-0.334-0.065-0.562,0.04c-0.312,0.145-0.395,0.008-0.629-0.239c-0.205-0.218-0.291-0.139-0.52,0.022
			c-0.109,0.076-0.219,0.189-0.348,0.158c-0.074-0.019-0.098-0.137-0.16-0.156c-0.234-0.07-0.283,0.205-0.488,0.251
			c-0.229,0.05-0.344-0.238-0.574-0.126c-0.09,0.045-0.113,0.183-0.221,0.226c-0.109,0.044-0.271-0.036-0.379-0.067
			c-0.119-0.031-0.25-0.111-0.373-0.088c-0.053,0.011-0.066,0.109-0.111,0.123c-0.213,0.061-0.342-0.126-0.543-0.148
			c-0.178-0.018-0.174,0.11-0.322,0.147c-0.209,0.051-0.365-0.27-0.557-0.256c-0.111,0.009-0.17,0.205-0.32,0.192
			c-0.16-0.014-0.236-0.186-0.365-0.277c-0.1-0.07-0.225-0.084-0.326-0.16c-0.055-0.041-0.451-0.494-0.17-0.556
			c-0.238,0.052-0.26-0.271-0.275-0.511c-0.016-0.201,0.062-0.168-0.002-0.334c-0.045-0.116-0.24-0.082-0.219-0.288
			c0.023-0.23,0.385-0.189,0.473-0.3c0.133-0.166,0.012-0.07,0.068-0.234c0.088-0.258-0.133-0.271,0.176-0.473
			c0.146-0.096,0.328-0.077,0.479-0.155c0.387-0.199,0.652-0.339,1.113-0.335c0.314,0.003,0.553-0.15,0.885-0.184
			c0.191-0.021,0.369-0.129,0.553-0.146c0.197-0.019,0.482,0.233,0.662,0.154c0.125-0.057,0.131-0.261,0.271-0.34
			c0.215-0.123,0.693,0.126,0.941,0.131c0.639,0.011,1.217,0.014,1.818,0.291c0.273,0.125,0.502,0.135,0.791,0.102
			c0.385-0.045,0.463,0.198,0.801,0.297c0.182,0.055,0.266-0.103,0.428-0.115c0.402-0.026,0.504,0.6,0.881,0.586
			c0.16-0.006,0.271-0.081,0.385,0.087c0.062,0.092,0.037,0.243,0.109,0.334c0.09,0.114,0.262,0.122,0.365,0.241
			c0.037,0.043-0.006,0.117,0.023,0.155c0.053,0.067,0.152,0.075,0.197,0.152c0.035,0.061,0,0.142,0.025,0.188
			c0.012,0.021,0.115,0.139,0.117,0.152c0.047,0.278-0.062,0.188-0.18,0.402c0.24,0.197,0.219,0.789-0.115,0.625
			c0.266,0.408-0.258,0.384-0.418,0.396c-0.068,0.652-0.965,0.514-1.32,0.551C572.96,231.037,572.929,231.038,572.897,231.039z"/>
	</g>
	<g>
		<ellipse fill="#F8F0DD" cx="432.12" cy="268.442" rx="25.059" ry="11.488"/>
		<ellipse fill="#F8F0DD" cx="432.12" cy="264.83" rx="31.221" ry="11.487"/>
		<ellipse fill="#ECE5D3" cx="432.12" cy="264.83" rx="21.742" ry="8"/>
		<path fill="#AAB036" d="M442.819,263.302c0.947-0.242,1.029-0.697,2.023-0.413c0.484,0.139,1.498,0.389,1.77,1.05
			c0.793,1.934-2.539,2.617-3.43,2.676c-0.994,0.066-3.488-0.016-3.529-1.965C439.606,262.345,441.909,263.534,442.819,263.302z"/>
		<path fill="#E1CC6C" d="M417.704,266.417c-0.021,0.051-0.035,0.104-0.043,0.16c-0.105,0.803,0.693,1.791,1.041,2.156
			c0.906,0.951,2.148,1.249,3.197,1.603c3.135,1.058,6.365,1.42,9.562,1.42c3.225,0,6.484-0.366,9.641-1.446
			c1.492-0.51,6.049-1.534,4.426-5.434c-0.389-0.937-1.213-1.469-1.764-1.986c-0.428-0.398-0.438-0.572-0.939-0.754
			c-0.443-0.159-0.645,0.14-1.107-0.184c-0.693-0.485-1.293-1.404-1.971-1.965c-1.441-1.189-3.74-1.581-5.305-1.461
			c-0.562,0.044-1.221-0.188-1.771-0.008c-0.383,0.127-0.701,0.64-1.027,0.765c-0.543,0.209-0.779-0.048-1.295-0.338
			c-0.82-0.462-0.707-0.485-1.51-0.126c-0.35,0.158-0.229,0.341-0.682,0.343c-0.361,0.001-0.711-0.61-1.105-0.462
			c-0.365,0.139-0.457,0.789-0.771,0.996c-0.336,0.225-0.74,0.158-1.102,0.182c-1.299,0.085-3.217,0.714-4.188,2.107
			c-0.541,0.78-0.717,1.074-1.387,1.615c-0.748,0.604-0.623,1.124-1.15,1.977C418.282,265.856,417.849,266.065,417.704,266.417z"/>
		<path fill="#C05803" d="M438.847,263.335c-0.576,0.006-1.162-0.344-1.697,0.137c-0.096-0.362-0.467-0.603-0.707-0.77
			c-0.299-0.207-0.408-0.082-0.689,0.048c-0.381,0.177-0.48,0.01-0.766-0.292c-0.25-0.266-0.355-0.169-0.637,0.026
			c-0.133,0.095-0.266,0.231-0.424,0.193c-0.09-0.021-0.117-0.167-0.195-0.19c-0.285-0.086-0.346,0.25-0.596,0.306
			c-0.277,0.063-0.418-0.29-0.701-0.152c-0.109,0.054-0.137,0.224-0.268,0.275c-0.135,0.054-0.332-0.046-0.465-0.083
			c-0.145-0.038-0.305-0.135-0.455-0.107c-0.062,0.014-0.08,0.134-0.137,0.15c-0.258,0.074-0.416-0.153-0.662-0.181
			c-0.217-0.021-0.213,0.135-0.395,0.181c-0.254,0.061-0.443-0.329-0.678-0.312c-0.137,0.01-0.207,0.25-0.391,0.234
			c-0.195-0.017-0.289-0.228-0.445-0.338c-0.123-0.086-0.275-0.103-0.398-0.197c-0.068-0.049-0.551-0.604-0.209-0.679
			c-0.289,0.063-0.316-0.329-0.336-0.622c-0.018-0.246,0.076-0.206-0.004-0.407c-0.055-0.144-0.291-0.101-0.266-0.353
			c0.029-0.282,0.469-0.232,0.576-0.365c0.164-0.204,0.016-0.087,0.086-0.287c0.105-0.315-0.162-0.33,0.213-0.576
			c0.18-0.117,0.4-0.096,0.584-0.19c0.473-0.243,0.797-0.413,1.359-0.409c0.383,0.004,0.676-0.183,1.08-0.225
			c0.234-0.023,0.451-0.155,0.676-0.178c0.24-0.023,0.588,0.285,0.807,0.188c0.154-0.068,0.162-0.318,0.334-0.415
			c0.262-0.15,0.846,0.153,1.148,0.159c0.779,0.014,1.484,0.019,2.219,0.356c0.334,0.153,0.613,0.166,0.967,0.124
			c0.471-0.056,0.566,0.242,0.977,0.363c0.223,0.066,0.326-0.127,0.523-0.141c0.49-0.033,0.615,0.732,1.076,0.715
			c0.193-0.008,0.33-0.1,0.469,0.105c0.076,0.112,0.045,0.298,0.133,0.408c0.111,0.14,0.32,0.148,0.447,0.295
			c0.043,0.051-0.008,0.144,0.029,0.188c0.062,0.082,0.184,0.093,0.238,0.188c0.043,0.073,0.002,0.171,0.031,0.228
			c0.014,0.026,0.143,0.169,0.145,0.186c0.057,0.342-0.078,0.23-0.219,0.492c0.293,0.24,0.266,0.963-0.143,0.763
			c0.326,0.499-0.314,0.469-0.51,0.484c-0.082,0.796-1.178,0.626-1.613,0.671C438.923,263.333,438.884,263.335,438.847,263.335z"/>
	</g>
	<g>
		<path fill="#9F9F9D" d="M533.56,234.614c-0.562,2.786-1.186,7.676-0.18,7.322c2.152-0.756,2.602-6.287,1.945-8.749
			c-0.615-2.304,1.172-7.078-0.266-7.042C533.675,226.181,534.196,231.486,533.56,234.614z"/>
		<path fill="#9F9F9D" d="M538.655,235.313c-2.254,0.541-1.381,6.217-0.951,6.216c0.428-0.001-0.006-3.497,0.496-3.601
			c0.5-0.104,0.697,3.438,1.135,3.386c0.436-0.052-0.305-3.546,0.297-3.662c0.576-0.113,0.744,3.325,1.314,3.224
			c0.627-0.111-0.492-3.426,0.133-3.503c0.633-0.081,0.926,3.249,1.346,3.184c0.719-0.113,0.035-6.071-1.992-5.622
			c-0.227-1.447-1.131-9.838-2.475-9.527C536.812,225.669,539.009,235.229,538.655,235.313z"/>
	</g>
	<g>
		<g>
			<path fill="#92ABC2" d="M520.097,217.859c-5.496,0-9.951,0.882-9.951,2.244l2.561,22.058c0,1.239,3.309,2.245,7.391,2.245
				c4.08,0,7.389-1.006,7.389-2.245l2.562-22.058C530.048,218.741,525.591,217.859,520.097,217.859z"/>
			<ellipse fill="#ADC7D8" cx="520.096" cy="220.104" rx="9.202" ry="1.75"/>
		</g>
		<g>
			<path fill="#95B2C8" d="M520.097,232.353c-4.264,0-7.828-0.85-8.762-1.995l1.371,11.804c0,1.239,3.309,2.245,7.391,2.245
				c4.08,0,7.389-1.006,7.389-2.245l1.371-11.805C527.925,231.503,524.362,232.353,520.097,232.353z"/>
		</g>
		<ellipse fill="#9EC3D6" cx="520.096" cy="229.888" rx="8.821" ry="2.318"/>
	</g>
	<g>
		<g>
			<path fill="#859491" d="M365.153,226.95c-6.586,0-11.922,1.058-11.922,2.689l3.068,26.425c0,1.485,3.963,2.69,8.854,2.69
				c4.889,0,8.854-1.205,8.854-2.69l3.068-26.425C377.075,228.008,371.735,226.95,365.153,226.95z"/>
			<ellipse fill="#93A09E" cx="365.152" cy="229.64" rx="11.024" ry="2.097"/>
		</g>
		<g>
			<path fill="#788986" d="M365.153,239.776c-5.109,0-10.213-0.949-11.088-2.604l2.234,18.893c0,1.485,3.963,2.69,8.854,2.69
				c4.889,0,8.854-1.205,8.854-2.69l2.193-18.893C375.815,238.573,370.263,239.776,365.153,239.776z"/>
		</g>
		<path fill="#9FABA9" d="M376.157,236.885c0,1.597-4.924,2.892-11.004,2.892c-6.078,0-11.004-1.295-11.004-2.892
			s4.926-2.888,11.004-2.888C371.233,233.997,376.157,235.288,376.157,236.885z"/>
	</g>
	<g>
		<g>
			<path fill="#D56E4F" d="M503.741,229.659c-5.816,0-10.531,1.401-10.531,3.565l2.711,25.325c0,1.971,3.502,3.567,7.82,3.567
				c4.32,0,7.822-1.597,7.822-3.567l2.711-25.325C514.274,231.061,509.558,229.659,503.741,229.659z"/>
			<ellipse fill="#DA8166" cx="503.741" cy="233.226" rx="9.738" ry="2.781"/>
		</g>
		<g>
			<path fill="#D36847" d="M503.741,246.667c-4.512,0-9.021-1.259-9.795-3.453l1.975,15.336c0,1.971,3.502,3.567,7.82,3.567
				c4.32,0,7.822-1.597,7.822-3.567l1.938-15.336C513.161,245.072,508.257,246.667,503.741,246.667z"/>
		</g>
		<ellipse fill="#D99A8A" cx="503.742" cy="242.833" rx="9.722" ry="3.834"/>
	</g>
	<g>
		<ellipse fill="#F8F0DD" cx="556.069" cy="270.564" rx="25.666" ry="11.767"/>
		<ellipse fill="#F8F0DD" cx="556.069" cy="266.864" rx="31.977" ry="11.767"/>
		<ellipse fill="#ECE5D3" cx="556.069" cy="266.864" rx="22.27" ry="8.194"/>
		<path fill="#AAB036" d="M541.704,263.338c0.971-0.249,1.055-0.715,2.072-0.425c0.496,0.143,1.533,0.4,1.812,1.076
			c0.812,1.98-2.6,2.682-3.512,2.741c-1.02,0.067-3.574-0.017-3.615-2.013C538.413,262.358,540.772,263.575,541.704,263.338z"/>
		<path fill="#E1CC6C" d="M572.903,268.489c0.025,0.052,0.043,0.107,0.053,0.164c0.129,0.823-0.85,1.836-1.275,2.209
			c-1.109,0.973-2.629,1.28-3.912,1.642c-3.834,1.083-7.787,1.455-11.699,1.455c-3.945,0-7.932-0.376-11.797-1.482
			c-1.824-0.522-7.398-1.571-5.412-5.565c0.477-0.959,1.482-1.504,2.158-2.035c0.521-0.408,0.533-0.586,1.148-0.771
			c0.543-0.163,0.787,0.144,1.354-0.188c0.85-0.498,1.582-1.439,2.412-2.013c1.764-1.218,4.578-1.62,6.492-1.496
			c0.686,0.045,1.494-0.194,2.166-0.008c0.469,0.13,0.855,0.654,1.258,0.783c0.664,0.214,0.953-0.048,1.584-0.347
			c1.002-0.473,0.863-0.497,1.846-0.128c0.428,0.16,0.281,0.349,0.834,0.35c0.443,0.001,0.869-0.626,1.352-0.472
			c0.449,0.142,0.562,0.807,0.943,1.021c0.412,0.229,0.908,0.161,1.35,0.185c1.59,0.087,3.936,0.73,5.125,2.159
			c0.662,0.798,0.877,1.099,1.695,1.653c0.914,0.619,0.762,1.152,1.406,2.025C572.196,267.915,572.724,268.13,572.903,268.489z"/>
	</g>
</g>
<g>
	<g>
		<g>
			<polygon fill="#AE9E7D" points="654.878,332.882 575.204,332.882 568.396,314.116 643.265,314.116 			"/>
			<g>
				<g>
					<polygon fill="#A1906D" points="582.329,388.477 589.167,388.477 590.659,301.094 583.821,301.094 					"/>
					<polygon fill="#AE9E7D" points="582.329,388.477 579.968,383.978 581.21,300.687 583.821,301.094 					"/>
				</g>
				<g>
					<polygon fill="#A1906D" points="638.528,388.477 645.366,388.477 646.858,301.094 640.021,301.094 					"/>
					<polygon fill="#AE9E7D" points="638.528,388.477 636.165,383.978 637.409,300.687 640.021,301.094 					"/>
				</g>
			</g>
			<polygon fill="#A1906D" points="654.116,338.968 575.204,338.968 571.409,327.667 568.396,314.116 575.204,332.882 
				654.878,332.882 			"/>
		</g>
	</g>
	<g>
		<polygon fill="#AE9E7D" points="656.878,255.511 576.708,303.076 574.28,299.819 576.28,252.254 654.45,252.254 		"/>
		<polygon fill="#A1906D" points="654.878,303.076 576.708,303.076 578.708,255.511 656.878,255.511 		"/>
	</g>
</g>
<g>
	<g>
		<g>
			<polygon fill="#AE9E7D" points="367.901,336.017 447.575,336.017 454.384,317.251 379.513,317.251 			"/>
			<g>
				<g>
					<polygon fill="#A1906D" points="440.45,391.61 433.612,391.61 432.12,302.661 438.958,302.661 					"/>
					<polygon fill="#AE9E7D" points="440.45,391.61 442.812,387.03 441.569,302.246 438.958,302.661 					"/>
				</g>
				<g>
					<polygon fill="#A1906D" points="384.251,391.61 377.413,391.61 375.919,302.494 382.759,302.494 					"/>
					<polygon fill="#AE9E7D" points="384.251,391.61 386.612,387.202 385.37,305.589 382.759,305.989 					"/>
				</g>
			</g>
			<polygon fill="#A1906D" points="368.663,342.103 447.575,342.103 451.37,330.801 454.384,317.251 447.575,336.017 
				367.901,336.017 			"/>
		</g>
	</g>
	<g>
		<polygon fill="#AE9E7D" points="365.901,258.646 446.009,307.042 448.437,303.784 446.497,255.389 368.327,255.389 		"/>
		<polygon fill="#A1906D" points="367.839,307.042 446.009,307.042 444.071,258.646 365.901,258.646 		"/>
	</g>
</g>
<path fill="#D77457" d="M344.845,376.792c-0.879-18.393-22.953-34.943-34.088-37.277c-18.894-3.96-34.731,6.188-37.99,25.174
	c-3.521,20.508,13.63,28.783,32.078,29.749c11.824,0.619,33.691-1.659,39.486-14.038c0.459,1.304,1.566,2.277,1.859,3.754
	c1.027-0.342,4.697-4.53,5.008-6.604C349.536,375.627,344.845,376.792,344.845,376.792z"/>
<path fill="#81B1CA" d="M489.429,352.991c5.643,13.906,27.088,20.671,36.281,19.459c15.598-2.057,25.035-14.138,22.414-29.619
	c-2.832-16.721-18.256-18.452-32.701-14.213c-9.262,2.718-25.461,10.376-26.574,21.46c-0.705-0.878-1.818-1.328-2.443-2.385
	c-0.697,0.54-2.389,4.752-2.066,6.431C486.136,355.154,489.429,352.991,489.429,352.991z"/>
<g>
	<g>
		<g>
			<path fill="#7A574A" d="M256.229,256.323c-1.081,1.646-2.423,3.235-4.295,1.74c-1.659-1.316-1.177-3.219-1.258-5.017
				c-0.104-2.305-0.588-4.032-1.968-4.362c-1.859-0.447-2.117,2.981-3.546,2.771c-1.14-0.163-1.265-1.651-1.307-2.988
				c-0.037-1.446,0.719-3.237,1.39-4.305c1.47-2.337,3.741-3.054,6.134-2.167C256.555,243.91,259.337,251.609,256.229,256.323z"/>
			<path fill="#7A574A" d="M108.237,253.47c1.022,1.684,2.31,3.316,4.231,1.89c1.703-1.26,1.288-3.177,1.433-4.972
				c0.185-2.298,0.728-4.009,2.118-4.29c1.873-0.384,2.013,3.054,3.448,2.894c1.143-0.124,1.321-1.607,1.409-2.941
				c0.088-1.444-0.606-3.26-1.239-4.35c-1.389-2.387-3.634-3.184-6.054-2.381C108.346,241.052,105.295,248.651,108.237,253.47z"/>
			<path fill="#7A574A" d="M158.479,340.369c-2.142,0.358-7.081,1.044-8.879-0.041c-3.872-2.34,2.31-5.118,5.451-6.134
				C163.113,331.585,168.034,338.767,158.479,340.369z"/>
			<path fill="#7A574A" d="M222.62,340.245c2.158,0.222,7.134,0.604,8.857-0.595c3.72-2.569-2.621-4.961-5.82-5.781
				C217.449,331.766,212.984,339.236,222.62,340.245z"/>
		</g>
		<g>
			<g>
				<g>
					<g>
						<g>
							<g>
								<path fill="#7A574A" d="M244.528,241.422l7.978-1.988c-3.436-35.111-21.769-51.995-40.138-58.896
									c-4.237,3.463-8.403,5.173-11.495,5.173c-0.295,0-0.588-0.017-0.864-0.047c-5.098-0.583-15.415-4.136-22.937-11.541
									c-0.328-0.322-0.651-0.663-0.973-1.013c-29.073,4.696-51.348,35.725-62.185,62.854l8.51,4.223
									c12.845-23.192,31.755-35.322,31.755-35.322s-4.289,21.928-8.091,43.849c2.441,17.613,73.299,19.18,83.836,6.729
									c-2.045-25.098-10.896-50.737-10.896-50.737S236.601,210.439,244.528,241.422z"/>
								<g>
									<g>
										<path fill="#7A574A" d="M193.027,264.567c-11.732,0-22.905-1.314-31.461-3.703c-6.462-1.804-11.111-4.162-13.807-6.951
											c-5.024,27.602,2.673,63.148,5.423,78.146l7.777-0.176c6.714-21.499,17.845-42.029,28.501-48.311
											c12.403,9.807,20.822,27.112,29.101,48.156l8.524-0.321c4.044-22.017,4.025-52.483,0.021-72.538
											C219.629,263.015,205.324,264.567,193.027,264.567z"/>
									</g>
								</g>
							</g>
						</g>
					</g>
				</g>
			</g>
		</g>
		<g>
			<path fill="#7A574A" d="M230.328,128.527c0.372,0.759,0.707,1.559,0.998,2.411c5.083,15.063-3.389,35.873-3.389,35.873
				l-1.319-2.365l-4.011,4.922l-0.438-0.786c2.567-4.514,4.766-9.929,6.231-16.307c2.088-9.071,0.973-18.135-2.802-25.853
				C227.304,127.12,228.906,127.842,230.328,128.527z"/>
		</g>
		<path fill="#7A574A" d="M209.739,121.296c-7.882-0.059-15.047,7.146-17.556,10.624c-1.439,1.989-4.744,5.434-8.312,15.337
			c-2.666,7.403-6.355,22.951-6.413,23.097c-1.928-0.847-4.98-4.956-4.98-4.956l-4.161,9.801l-5.955-9.483l-2.36,5.144
			c0,0-4.621-18.771-2.246-33.241c2.261-13.745,11.134-23.245,18.179-27.294c5.85-3.36,11.645-5.374,19.208-4.851
			c8.367,0.58,14.818,3.745,23.911,7.035c7.241,2.623,21.837,5.641,21.837,5.641l-11.831,3.164l8.26,9.507
			C237.318,130.82,221.746,121.381,209.739,121.296z"/>
		<path fill="#7A574A" d="M178.617,170.809l-0.474,1.208l-1.186-0.522c-0.249-0.108-0.514-0.256-0.786-0.439
			c-1.139-0.763-2.422-2.146-3.36-3.252l-0.173,0.405c8.873,10.25,21.229,15.731,27.425,16.443c6.467,0.741,21.7-9.09,27.124-32.656
			c2.271-9.875,0.683-18.919-3.279-26.245c-4.542-1.736-9.646-3.175-14.181-3.209c-7.538-0.055-14.489,7.278-16.537,10.107
			c-0.2,0.28-0.438,0.59-0.711,0.938c-1.652,2.142-4.424,5.724-7.437,14.094c-1.51,4.197-3.582,11.629-6.158,22.098
			C178.656,170.712,178.656,170.712,178.617,170.809z M221.117,154.77c-1.096-0.103-1.799-2.153-1.577-4.586
			c0.227-2.432,1.298-4.321,2.391-4.22c1.093,0.104,1.798,2.157,1.573,4.588C223.28,152.984,222.202,154.869,221.117,154.77z
			 M206.895,145.479c1.245,0.118,2.076,2.139,1.854,4.526c-0.221,2.38-1.409,4.215-2.648,4.102
			c-1.249-0.117-2.075-2.143-1.858-4.523C204.468,147.203,205.658,145.365,206.895,145.479z"/>
	</g>
	<g>
		<polygon fill="#FCF0CF" points="235.218,283.275 228.302,292.132 235.218,300.988 226.362,294.073 217.505,300.988 
			224.421,292.132 217.505,283.275 226.362,290.191 		"/>
		<polygon fill="#FCF0CF" points="232.292,292.132 227.012,292.782 226.362,298.062 225.712,292.782 220.431,292.132 
			225.711,291.483 226.361,286.201 227.011,291.482 		"/>
	</g>
	<g>
		<polygon fill="#FCF0CF" points="169.337,308.083 165.038,313.587 169.337,319.094 163.831,314.795 158.326,319.095 
			162.625,313.588 158.325,308.082 163.832,312.382 		"/>
		<polygon fill="#FCF0CF" points="167.517,313.588 164.235,313.991 163.832,317.275 163.427,313.992 160.144,313.587 
			163.426,313.185 163.831,309.9 164.236,313.185 		"/>
	</g>
	<g>
		<polygon fill="#FCF0CF" points="152.164,259.563 153.536,270.715 164.688,272.088 153.536,273.46 152.164,284.612 150.792,273.46 
			139.639,272.088 150.792,270.715 		"/>
		<polygon fill="#FCF0CF" points="156.357,267.894 153.083,272.087 156.357,276.28 152.164,273.007 147.969,276.28 151.245,272.088 
			147.969,267.894 152.164,271.168 		"/>
	</g>
	<g>
		<polygon fill="#FCF0CF" points="127.4,280.303 108.191,269.372 109.675,266.765 		"/>
		<polygon fill="#FCF0CF" points="95.005,306.181 94.978,303.181 117.795,305.969 		"/>
		<polygon fill="#FCF0CF" points="105.681,344.368 104.498,341.612 126.187,335.56 		"/>
		<polygon fill="#FCF0CF" points="247.532,272.978 267.16,262.933 268.527,265.603 		"/>
		<polygon fill="#FCF0CF" points="253.96,302.46 282.149,301.563 282.245,304.562 		"/>
		<polygon fill="#FCF0CF" points="274.764,343.427 249.884,332.791 275.629,340.555 		"/>
		<polygon fill="#FCF0CF" points="245.026,376.458 233.246,356.943 247.368,374.583 		"/>
		<polygon fill="#FCF0CF" points="138.826,374.767 136.453,372.931 151.679,358.151 		"/>
		<polygon fill="#FCF0CF" points="193.697,385.181 190.697,385.181 193.697,364.517 		"/>
	</g>
</g>
</svg>
