<?xml version="1.0" encoding="utf-8"?>
<!-- Generator: Adobe Illustrator 15.0.2, SVG Export Plug-In . SVG Version: 6.00 Build 0)  -->
<!DOCTYPE svg PUBLIC "-//W3C//DTD SVG 1.1//EN" "http://www.w3.org/Graphics/SVG/1.1/DTD/svg11.dtd">
<svg version="1.1" id="Layer_1" xmlns="http://www.w3.org/2000/svg" xmlns:xlink="http://www.w3.org/1999/xlink" x="0px" y="0px"
	 width="720px" height="460px" viewBox="0 0 720 460" enable-background="new 0 0 720 460" xml:space="preserve">
<path fill="#C7CB7A" d="M304.764,177.567c132.873-10.633,253.977,0.869,333.688,49.896c53.021,32.617,48.424,75.85,5.23,101.67
	c-48.045,28.728-145.549,52.417-283.566,52.417c-133.379,0-234.924-34.203-272.536-67.575c-27.039-23.996-17.824-64.262,30.807-89.6
	C171.318,196.804,224.035,184.017,304.764,177.567z"/>
<path fill="#A1906D" d="M633.318,256.284c-76.406-42.55-192.488-52.529-319.852-43.303c-77.381,5.598-127.913,16.694-178.649,40.625
	c-39.115,18.451-51.615,46.02-39.316,66.719c42.701,31.223,139.693,61.226,264.614,61.226c138.018,0,235.521-23.689,283.566-52.417
	c12.035-7.194,21.07-15.742,26.701-25.033C671.053,287.937,659.531,270.885,633.318,256.284z"/>
<path fill="#B2B84A" d="M332.727,233.104c-8.709-2.354-2.508-10.588,3.598-9.418c0.443-5.35,13.277-10.147,14.072-3.168
	c3.205-0.586,11.715-2.24,9.262,3.285c3.057-0.081,7.869,2.902,8.684,6.101c1.943,7.616-5.225,5.782-9.898,7.511
	c-6.623,2.447-10.807,3.723-17.541,2.645C337.822,239.566,327.971,238.708,332.727,233.104z"/>
<path fill="#B2B84A" d="M452.727,232.571c-6.676-0.158,0.113-13.422,4.934-10.034c2.525-1.63,1.436-1.783,4.453-0.651
	c2.854-3.651,16.938-0.247,16.084,1.496c1.547-3.156,5.764-0.536,5.67,2.48c2.994-0.686,4.914,1.495,3.623,4.367
	c2.01-0.369,4.984-0.407,6.316,1.527c2.975,4.32-2.23,5.701-5.963,5.646c7.598,5.411-9.426,13.638-11.402,5.256
	C478.881,252.997,444.873,242.491,452.727,232.571z"/>
<g>
	<path fill="#B3B94C" d="M332.9,187.92c-0.031,7.985-3.848,10.586-12.684,13.776c14.729,13.057-18.211,27.685-28.825,24.34
		c4.369,9.375-24.396,22.494-31.123,10.754c-2.779,4.884-8.604,5.508-13.977,6.369c-7.307,1.17-9.229-1.35-14.779-2.497
		c-9.533-1.97-43.584,8.39-32.779-13.009c-8.289-0.459-18.041-1.159-23.133-8.933c-4.135-6.313,0.896-10.96-0.551-16.002
		c-2.043-7.124-11.424-6.185-5.965-17.104c1.598-3.195,12.297-9.644,11.443-13.012c-0.912-3.59-10.145-2.888-12.197-6.755
		c-6.338-11.945,10.246-22.333,18.414-25.405c-6.77-16.281,17.305-22.487,27.225-16.64c-5.684-13.636,21.998-18.934,28.842-5.173
		c11.154-12.934,37.748-12.406,44.137,5.859c12.072-0.658,26.358,7.461,24.45,21.645c5.537,0.586,11.688,2.83,14.701,7.675
		c4.537,7.294,3.035,16.936-0.549,21.651C328.957,178.743,332.924,181.595,332.9,187.92z"/>
</g>
<path fill="#AAB036" d="M163.314,148.378c-1.461,1.099-2.771,2.428-3.85,3.977c-7.988-11.658-24.121-15.353-32.027,3.033
	c-6.521-14.613-31.16-14.621-38.262,7.951c-11.766-3.521-37.068,7.565-27.861,31.646c-15.949-4.486-27.285,27.468-9.242,33.222
	c-5.287,16.475,6.936,25.066,17.471,28.174c-4.771,15.975,17.791,17.385,25.938,23.082c16.947,11.854,33.922,20.455,53.666,20.455
	c18.217,0,34.26-8.338,48.354-22.113c6.445-6.301,7.213-6.51,14.873-9.729c7.48-3.144,26.973-10.198,13.756-23.772
	c14.387-0.732,25.014-19.455,7.988-29.557c21.291-16.596,1.08-32.158-15.09-31.727c12.902-21.609-20.557-24.644-29.947-21.297
	C189.861,144.06,173.158,140.977,163.314,148.378z"/>
<g>
	<path fill="#BCC160" d="M617.041,193.976c-0.715,2.139-2.635,4.838-2.643,7.324c-0.002,0.846,2.693,6.488,2.846,9.039
		c0.551,9.215-5.359,13.413-13.84,16.028c-9.078,2.8-23.096,6.212-30.947,12.071c-21.527,16.068-27.492,14.828-45.736-4.143
		c-4.619-4.803-15.531-4.168-16.426-11.626c-9.111,0.905-15.672-4.929-11.947-13.952c-8.275-2.771-7.623-11.049-5.85-17.973
		c0.564-2.203,3.629-6.406,3.793-7.449c0.117-5.787-0.584-11.078,0.811-14.715c1.498-3.914,9.012-9.729,17.346-10.062
		c2.332-12.334,18.332-18.869,26.879-14.076c4.121-4.793,9.662-4.82,14.191-4.793c5.119,0.033,11.154,1.869,13.969,4.433
		c7.293-1.229,15.061-0.71,19.627,7.437c7.768-1.607,16.518,7.32,15.465,14.826c2.598,0.417,7.334,1.702,8.869,3.842
		c2.721,3.793,0.213,5.534,0.947,8.105c1.367,4.782,3.211,9.024,2.904,14.475C617.277,193.143,617.184,193.548,617.041,193.976z"/>
</g>
<path fill="#B2B84A" d="M585.479,188.759c1.908,0.594,3.803,1.564,6.01,2.836c2.969-1.885,4.879-4.529,8.303-5.992
	c5.027-2.146,8.604-3.306,13.803-1.341c2.02,0.765,3.043,1.737,4.586,3.032c1.916,1.607,0.551,1.891,3.102,1.332
	c4.506-0.984,6.902-3.439,11.871-2.053c3.805,1.062,5.596,2.644,7.312,6.338c2.088,4.496,2.479,2.873,6.818,1.929
	c3.09-0.673,6.244,0.224,8.76,2.419c1.348,1.176,3.414,6.744,1.598,10.604c4.859,1.242,11.365-0.609,13.383,6.807
	c0.357,1.312,0.625,4.348,0.172,5.689c-0.639,1.902-2.691,2.438-3,4.205c4.207,1.066,7.619,5.648,8.711,10.373
	c1.49,6.452-4.205,7.736-8.713,8.586c-0.215,4.477,2.172,7.312-0.047,12.034c-2.461,5.236-8.145,5.867-12.947,6.018
	c1.975-0.062,3.354,3.256,2.76,4.991c-0.736,2.16-4.5,3.252-6.152,3.932c-5.291,2.178-8.752,6.166-13.637,9.389
	c-12.254,8.082-26.068,12.845-40.26,12.845c-11.217,0-22.162-3.781-31.93-9.978c-3.941-2.502-8.422-8.016-12.6-9.426
	c-1.977-0.666-4.506,0.043-6.703-0.776c-2.178-0.813-4.381-2.046-6.082-3.833c-3.158-3.318-5.615-10.819-0.436-12.816
	c-9.809-2.478-15.09-14.627-5.82-26.707c-1.635-4.717-4.287-8.69-0.672-13.875c2.697-3.868,9.412-7.09,13.391-4.239
	c-4.971-9.629,12.029-19.22,18.623-12.88c-0.127-5.398,6.318-8.418,10.211-9.396C579.814,187.819,582.662,187.88,585.479,188.759z"
	/>
<g>
	<g>
		<g>
			<path fill="#8E7565" d="M460.703,247.733c-0.977-0.072-2.461,0.062-3.195,0.836c-1.545,1.63,0.014,1.322,0.014,2.657
				c0,1.38-0.938,3.653,1.582,3.878c-1.123,2.012-1.561,5.689,2.139,4.025c-0.734,4.55,9.986,1.051,10.852-1.422
				c-0.016-0.19-0.029-0.182-0.041,0.027c1.729,1.229,4.215-2.304,2.004-3.697c2.309-0.768-0.49-5.262-2.982-3.838
				c-0.002-0.002,0.736,0.275,0.691,0.241c-0.387-0.278-0.346-2.091-1.512-2.802c-1.236-0.756-2.734-0.34-4.041-0.654
				c-1.154-0.277-2.617-1.555-3.873-1.279C461.896,245.803,459.695,247.659,460.703,247.733z"/>
			<g>
				<path fill="#7A574A" d="M475.342,255.478c2.055-1.426,3.008-4.602,2.016-7.521c-1.371-4.037-4.994-8.959-9.588-8.62
					c-2.711,0.201-4.295,1.673-5.24,2.715c-0.588,0.65-0.992,1.46-1.258,2.29c-0.137,0.432-0.236,0.873-0.295,1.32
					c-0.031,0.236,0.025,0.938-0.172,1.104c0.512-0.435,1.096-0.788,1.723-0.222c0.59-0.709,2.398-0.309,2.445,0.711
					c0.139-0.383,0.703-0.389,1.043-0.227c1.416,0.672,1.635,2.494,1.736,3.843c0.16,2.142-0.115,3.063,1.971,4.364
					C471.941,256.617,473.908,256.473,475.342,255.478z"/>
			</g>
			<g>
				<g>
					<path fill="#7A574A" d="M393.623,263.681c-18.125,0-36.698-2.988-44.211-9.512c-0.456,9.514-1.887,23.297,1.168,31.78
						c2.795,7.756,14.709,15.381,22.955,13.51c8.768-1.99,14.303-15.524,23.398-15.076c6.107,0.304,7.168,6.401,10.416,10.087
						c4.818,5.47,13.598,6.969,20.943,5.447c6.6-1.366,10.422-8.593,12.32-14.33c3.03-9.161,2.57-21.863,1.061-32.559
						C433.605,260.307,412.791,263.681,393.623,263.681z"/>
				</g>
			</g>
			<path fill="#B3B94C" d="M320.576,246.16c-4.639-0.369-12.008,1.875-12.547,7.367c0.852-1.661,3.217-3.382,4.965-3.643
				c-0.842,1.924-2.92,2.47-2.43,5.148c1.062-1.477,2.635-3.779,4.424-4.404c-0.068,1.675-1.934,2.76-1.908,4.455
				c3.361-2.302,6.393-3.506,10.766-2.043c3.66,1.227,7.381,3.154,9.443,6.488c0.131-1.818-2.623-4.361-3.99-5.388
				c2.717,0.799,4.447,2.979,6.66,4.339C334.771,252.154,326.707,246.648,320.576,246.16z"/>
			<g>
				<g>
					<path fill="#7A574A" d="M334.33,253.45c3.16-2.425-0.619-11.272-6.471-12.233c-7.967-1.308-18.75,15.287-6.812,18.5
						c4.953,1.332,7.465-7.792,11.246-8.53C333.031,251.903,333.912,252.552,334.33,253.45z"/>
				</g>
			</g>
			<g>
				<g>
					<path fill="#7A574A" d="M468.225,236.786c-4.779-28.582-18.729-68.969-56.956-77.592c-5.711,3.824-11.742,6.111-16.613,6.111
						c-0.302,0-0.595-0.01-0.884-0.027c-4.396-0.273-9.447-2.389-14.204-5.777c-36.304,8.914-62.146,46.447-56.897,78.216
						l7.537,0.552c6.941-31.895,27.598-40.902,27.598-40.902s-8.482,22.08-10.826,50.844c2.203,19.863,94.301,19.074,97.1-1.111
						c-4.359-25.124-11.951-49.548-11.951-49.548s17.367,19.198,27.025,43.242L468.225,236.786z"/>
				</g>
				<path fill="#7A574A" d="M421.768,117.958c-0.943-0.836-2.24-1.866-3.725-3.046c-5.152-4.093-12.037-9.562-14.94-15.218
					c-5.01,6.026-18.718,11.351-25.815,13.086c-1.615,8.066-4.088,12.749-8.846,20.597c-1.172,1.933-2.447,3.913-3.738,5.851
					c6.489,15.469,20.227,24.499,29.131,25.053c7.553,0.471,20.097-5.728,28.758-17.124
					C423.196,137.56,423.568,124.477,421.768,117.958z M387.037,129.245c-0.234,2.903-1.953,5.169-3.828,5.062
					c-1.889-0.105-3.217-2.545-2.982-5.451c0.242-2.901,1.965-5.169,3.838-5.063C385.939,123.898,387.277,126.333,387.037,129.245z
					 M411.686,130.554c-0.242,2.969-1.932,5.276-3.73,5.18c-1.82-0.106-3.092-2.591-2.85-5.557c0.248-2.965,1.926-5.281,3.74-5.179
					C410.662,125.104,411.932,127.591,411.686,130.554z"/>
				<path fill="#7A574A" d="M436.387,110.291c-6.242-18.012-14.395-27.176-28.699-30.332c-21.383-5.861-42.283,5.982-50.23,24.519
					c-6.303,14.69-7.314,25.872-13.895,33.918c5.01,0.182,9.85-1.662,9.85-1.662l-0.439,17.078c0,0,8.604-11.041,14.613-20.953
					c4.537-7.484,7.01-12.123,8.605-19.729c-4.467,0.961-10.367,1.043-10.625,1.046l-1.33,0.016l0.99-0.888
					c0.064-0.058,6.402-5.757,9.287-10.227l0.84,0.543c-2.289,3.546-6.542,7.707-8.471,9.518c2.117-0.081,6.341-0.333,9.525-1.077
					c0.008-0.036,0.015-0.068,0.021-0.104c7.066-1.6,23.209-7.753,26.873-14.288c2.807,7.752,15.061,15.848,19.348,19.739
					c0,0.002,0.001,0.005,0.002,0.007l0.061-0.065c2.354,2.208,5.286,3.411,6.732,3.909c-0.713-2.304-2.482-8.406-2.711-12.84
					l1-0.051c0.271,5.316,2.925,13.415,2.951,13.496l0.285,0.867l-0.883-0.227c-0.17-0.043-3.823-1.001-7.062-3.573
					c2.599,12.071-0.386,39.918-0.386,39.918l8.227-10.302l2.021,5.826C432.889,154.372,442.725,128.582,436.387,110.291z"/>
			</g>
		</g>
	</g>
</g>
<g>
	<path fill="#AAABA8" d="M414.342,346.437c-1.174-1.25-2.549-2-6.18-1.055c-7.053,1.836-18.051,4.068-23.875,5.299
		c-2.248,0.475-5.119,2.256-3.605,6.131c0.672,1.719,2.611,3.375,7.236,2.5c3.893-0.736,18.961-5.004,23.631-6.25
		c2.721-0.727,3.994-2.125,3.994-3.875c0.021-0.01,0.051-0.021,0.074-0.03c-0.137-0.949-0.498-1.858-1.104-2.754
		C414.449,346.415,414.387,346.428,414.342,346.437z"/>
	<path fill="#B5B6B3" d="M439.543,322.437l-14,3.25l7.174,15.95c0,0-15.764,4.267-18.203,4.766c0.605,0.896,0.967,1.805,1.104,2.754
		c3.82-1.608,18.051-5.095,18.051-5.095l1.125,2.625l7.312-1.746L439.543,322.437z"/>
</g>
<g>
	<path fill="#8E7565" d="M323.318,290.188c2.445-3.235-0.703-6.901-4.309-6.636c0.158-3.475-0.809-3.594-3.545-4.327
		c-3.393-0.91-4.219-2.277-7.348-4.119c-0.504-0.297-0.99-0.978-1.617-1.182c-0.92-0.301-1.551,0.416-2.256,0.32
		c-1.668-0.23-2.039-2.516-3.624-0.482c-1.422,1.827-2.391,1.561-4.625,1.314c-1.412-0.154-4.273-0.549-2.879,1.809
		c-0.32-0.362-0.91-0.521-1.287-0.769c-0.281,0.64-0.83,2.618-1.529,2.839c-0.854,0.27-1.49-1.664-2.129,0.088
		c-1.324-1.224-2.402-0.417-3.881-0.273c-2.641,0.254-5.305,0.002-7.947,0.248c-1.51,0.141-6.424,0.738-6.518,2.927
		c-0.053,1.278,1.195,0.986,1.809,1.616c0.775,0.797,0.045,0.606,0.492,1.543c0.359,0.752,0.607,1.148,1.641,1.182
		c-0.201,1.875,0.988,2.22,2.666,2.176c0.139,2.082,0.256,3.666,2.834,3.037c0.018,2.436,2.141,3.535,4.533,2.783
		c0.732,1.244,2.234,3.712,3.779,1.992c-0.289,0.322,5.33,3.253,5.82,3.48c1.867,0.864,4.717,0.881,6.701,0.541
		c-0.285,1.617,2.436,2.581,3.479,1.49c1.008,1.487,2.34,0.877,3.701,0.976c1.541,0.111,4.59,2.465,5.541,0.358
		c1.016,0.172,3.678,1.977,3.654,0.009c4.488-0.175,5.189,0.232,7.551-3.88c0.896-1.562,2.107-3.379,1.889-5.28
		C325.861,293.489,323.893,289.427,323.318,290.188z"/>
	<path fill="#8E7565" d="M319.191,286.09c-0.535-0.704-1.127-1.356-1.725-1.972L319.191,286.09z"/>
	<path fill="#8E7565" d="M319.191,286.09c0.439,0.578,0.84,1.191,1.168,1.853c0.582,0.521,1.17,1.03,1.773,1.509L319.191,286.09z"/>
</g>
<path fill="#B3B94C" d="M302.225,283.534c-0.793-1.311-2.745-2.113-3.899-3.192c-2.533-2.37-4.598-5.287-6.908-7.868
	c-1.902-2.124-4.332-3.574-6.441-5.348c1.953,1.91,3.693,4.389,5.471,6.451c-2.904-1.691-4.648-2.645-7.025-3.774
	c-2.258-1.073-4.812-2.337-7.131-3.132c2.834,1.733,7.309,4.352,11.125,7.086c-6.039-1.938-12.133-4.812-18.576-5
	c3.297,1.447,11.467,3.785,17.029,6.91c-7.531-1.633-11.088-1.377-16.207-1.396c2.316-0.061,7.693,1.15,10.287,2.133
	c-2.588,0.203-5.627-0.516-8.117,0.195c6.1,1.561,12.684,1.35,18.84,2.792c2.486,0.583,4.877,1.501,7.205,2.538
	c1.535,0.684,3.375,2.061,5.022,2.242"/>
<path fill="#B3B94C" d="M494.402,316.555c-1.611,0.706-3.631,2.309-4.531,3.768c4.105,0.551,8.416-1.484,12.025,0.116
	c-0.262-0.116-1.789,0.606-2.131,0.692c-0.824,0.209-1.662,0.367-2.504,0.489c-1.547,0.224-3.051,0.088-4.611,0.04
	c0.193,0.307,0.139,0.659,0.271,1c0.314,0.814,1.057,1.637,1.121,2.547c-1.531-0.796-2.92-2.228-4.701-2.477
	c-0.783-0.109-1.564,0.195-2.291,0.43c-1.139,0.367-2.865,1.633-4.047,1.415c0.525-1.417,1.727-2.663,3.348-2.924
	c-1.371-1.438-4.439-1.646-5.482-3.542c1.02,0.205,2.02,0.537,3.002,0.918c0.742,0.287,1.543,0.496,2.258,0.836
	c0.197,0.094,0.705,0.578,0.939,0.529c0.414-0.088,0.814-1.201,0.994-1.49c0.354-0.574,1.492-1.803,2.043-2.072
	c0.5-0.246,1.527-0.142,2.088-0.182C492.928,316.595,493.664,316.559,494.402,316.555z"/>
<path fill="#B3B94C" d="M294.935,250.702c0.605,3.127-0.104,7.9,1.547,10.542c-1.592-3.623-7.074-7.866-10.129-10.273
	c0.969,3.304,4.812,8.735,7.506,11.198c-3.277-3.678-10.893-7.531-15.521-8.516c0.906,1.794,5.598,3.729,7.621,4.967
	c3.068,1.875,6.162,3.939,9.232,5.664c-4.84-2.915-9.809-5.838-15.473-6.039c4.678,2.416,9.547,4.422,14.326,6.623
	c3.396,1.563,7.403,4.68,10.973,5.297C304.205,263.54,296.257,257.527,294.935,250.702z"/>
<path fill="#B3B94C" d="M267.738,264.485c-5.443-1.588-17.086-2.989-23.678-2.215c3.459,0.42,7.521,1.402,10.547,2.592
	c-4.061,0.318-10.736,0.192-14.029,1.072c4.455,1.045,11.725,1.256,16.688,1.742c-5.518,1.385-12.463,0.412-17.545,4.209
	c8.586-1.957,18.973-4.57,27.805-4.283c-2.494-0.306-6.236-0.211-7.955-0.998c2.104-0.004,4.141-0.242,6.621-0.002
	c-2.082-1.151-3.557-1.207-5.256-1.378L267.738,264.485z"/>
<g>
	<path fill="#AAABA8" d="M275.843,294.87c-0.992-0.182-11.289-2.067-16.91-3.006c-0.939,0.024-1.998-0.571-2.641,0.072
		c-1.156,1.732-1.637,3.797-1.072,5.426c2.449,0.436,15.24,3.124,18.336,3.496C276.884,299.904,277.207,297.469,275.843,294.87z"/>
	<path fill="#9F9F9D" d="M256.292,291.937c0.643-0.644,1.701-0.048,2.641-0.072c-1.592-0.267-2.811-0.457-3.334-0.51
		c-1.73-0.182-3.74,0.291-3.848,2.882c-0.102,2.496,1.637,2.812,3.373,3.109c0.027,0.005,0.064,0.012,0.096,0.017
		C254.656,295.733,255.136,293.669,256.292,291.937z"/>
	<path fill="#B5B6B3" d="M297.529,294.337c-3.752-1.797-15.611-3.214-17.488-3.388c-3.555-0.329-4.131,2.341-4.111,3.937
		c0,0-0.035-0.006-0.086-0.016c1.363,2.599,1.041,5.034-2.287,5.988c0.178,0.021,0.33,0.037,0.439,0.041
		c-1.041,2.035,0.445,4.877,2.547,5.359c2.285,0.527,13.264,2.23,18.195,2.635c2.965,0.242,9.979-1.914,10.182-4.265
		C305.121,302.281,301.465,296.225,297.529,294.337z"/>
</g>
<path fill="#8E7565" d="M249.187,275.548c0.553,0.539,1.379,0.994,1.961,1.508c2.111-3.398,8.812-5.332,7.754,0.612
	c0.275-0.167,0.992-0.967,1.186-1.226c3.35,2.414,1.703,8.238-0.994,10.729c-1.221,1.128-4.645,0.741-6.367,1.849
	c-1.338-5.436-3.732-0.761-5.906-2.555c-1.43-1.178-6.734-3.969-0.332-4.721C246.33,279.399,247.156,276.915,249.187,275.548z"/>
<path fill="#B2B84A" d="M267.658,323.862c-1.619-0.314-2.791-0.445-2.791-0.492c-0.164-4.551-5.58-3.248-8.549-4.047
	c-3.66-0.984-6.859-3.894-9.648,0.938c-3.207-3.105-10.93-3.688-11.963,1.613c-3.508-1.119-7.486-0.096-5.504,4.513
	c-4.896-1.892-13.332,0.744-9.432,6.776c1.58,2.445,3.078,0.455,2.393,3.969c-0.494,2.533-4.184,1.979-2.992,5
	c1.598,4.05,14.955,4.295,18.318,3.59c-6.828,2.865,3.166,9.115,6.24,9.92c7.523,1.97,6.74-5.229,12.385-4.524
	c3.369,0.421,6.365,3.712,9.877,3.241c2.943-0.396,7.32-4.598,9.639-6.621c3.559-3.107,10.602-16.254,0.459-14.898
	C280.066,327.013,272.142,324.731,267.658,323.862z"/>
<path fill="#B2B84A" d="M515.541,309.473c3.021-3.486,13.377-3.336,15.854-0.101c3.727-2.477,5.828-4.566,10.898-1.436
	c6.83,4.217,3.355,4.936,2.564,8.413c5.215,1.528,8.445,0.259,11.533,5.099c2.271,3.562,2.988,6.127-1.574,8.502
	c-5.6,2.914-5.75-0.684-6.123,5.6c-0.32,5.365-2.141,8.813-7.926,10.287c-8.115,2.066-12.518-6.457-19.611-6.537
	c-4.227-0.049-25.027,3.402-14.805-5.35c-2.502-2.709-7.934-1.727-9.57-6c-1.461-3.816,2.254-6.649,6.357-7.098
	c-1.477,0.16-0.311-6.267,2.654-11.38C507.16,307.113,512.043,304.255,515.541,309.473z"/>
<path fill="#B2B84A" d="M305.543,335.796c-0.76-2.529-2.57-2.086-5-3.484c3.11-0.507,5.614-0.102,6.823,2.049
	c0.953-1.299,3.053-2.521,4.85-2.361c-0.371,0.668-0.412,1.582-0.982,2.424c2.311,0.264,5.477,0.397,7.959,2.514
	c-2.596,0.419-4.977,0.074-7.523,0c1.621,1.916,1.043,4.594-1.361,4.95c-0.449-1.28-1.566-1.743-1.588-3.399
	c-3.383,1.72-6.6,1.285-9.86,2.401c0.865-1.482,3.952-2.61,5.434-2.827c-2.277-0.463-4.403-0.346-7.297-1.123
	C299.542,335.739,305.543,335.796,305.543,335.796z"/>
<path fill="#B2B84A" d="M488.793,284.377c3.125,1.948,22.434,3.956,16.688-3.466c4.193-0.693,8.494-0.723,9.836-5.447
	c0.811-2.85-0.553-8.126-4.475-7.629c2.432-4.594-6.523-5.947-8.412-4.934c-0.982-1.875-2.285-2.451-3.736-1.042
	c-1.715-1.114-5.516-5.106-5.973-1.085c-0.539-0.704-1.801-1.166-2.305-1.787c-0.223,0.665-0.859,1.283-1.086,1.898
	c-2.367-1.717-4.795-1.079-5.49,1.964c0.324,0.215,0.945,0.302,1.301,0.472c-4.271-2.888-11.141-4.835-10.896-0.387
	c0.135,2.447,0.799,4.034,3.973,5.926c-4.582,0.232-10.123-0.97-9.811,5.465c0.254,5.245,5.889,6.558,9.887,8.111
	C478.293,282.437,483.922,293.063,488.793,284.377z"/>
<path fill="#8E7565" d="M455.844,288.226c-0.381,1.516-2.352,2.598-6.977,1.137c-0.008-0.018-0.014-0.034-0.02-0.051
	C447.062,284.332,457.252,282.606,455.844,288.226z"/>
<path fill="#8E7565" d="M343.41,293.222c0.061,0.154,0.102,0.336,0.117,0.549c0.113,1.473-3.781,2.505-4.855,2.909
	c-3.752,1.409-11.113,2.815-14.566,0.302c-2.342-1.705-2.566-7.033,1.186-5.078c1.287-2.751,6.699-5.021,8.061-1.34
	c1.531-0.446,3.398-0.524,4.873,0.125c0.732,0.322,0.102,1.564,0.799,1.863C339.924,292.937,342.777,291.606,343.41,293.222z"/>
<path fill="#8E7565" d="M458.959,276.604c-2.898,2.225,2.072,3.459,2.949,0.731c-0.99-0.634-2.166-0.767-3.281-0.399
	L458.959,276.604z"/>
<path fill="#8E7565" d="M463.684,292.212c1.422,0.543,2.539,0.65,3.365,0.5C473.08,291.612,462.129,285.244,463.684,292.212z"/>
<path fill="#8E7565" d="M315.023,269.694c0.559-0.253,1.018-0.799,1.227-1.773c0.193-0.898-3.826-1.07-4.367-0.41
	C310.568,269.118,313.635,270.321,315.023,269.694z"/>
<path fill="#8E7565" d="M321.293,274.271c-2.744,0.396-2.348,3.5,0.666,2.672c3.146-0.862,0.732-3.377-1.332-2.338L321.293,274.271z
	"/>
<path fill="#8E7565" d="M247.765,308.582c0.824-0.202,1.539-0.798,1.816-2.005C244.064,302.479,242.75,309.81,247.765,308.582z"/>
<path fill="#8E7565" d="M379.621,307.245c1.811,0.33,3.656,0.898,5.189,0.646c1.734-0.285,2.916-1.455,4.92-1.473
	c1.928-0.016,3.625,1.383,5.08,1.536c2.141,0.228,2.748-1.976,4.965-2.517c4.438-1.084,7.711,3.451,11.848,3.088
	c2.963-0.26,6.74-4.375,8.238,0.645c1.809-3.277,8.738-3.674,6.443,1.032c2.023,0.155,6.598,0.945,2.535,3.269
	c5.098,1.53-9.752,6.701-11.195,7.587c-2.887,1.769-4.957,2.817-8.48,2.694c-0.844-0.029-11.332-3.004-10.164-3.791
	c-1.146,0.773-2.916,1.354-4.463,0.98c-1.529-0.369-2.16-2.168-3.426-2.572c-1.359-0.434-3.771,1.288-5.605,1.029
	c-1.535-0.216-4.553-1.318-4.963-2.5c-0.02,1.762-7.814,3.693-8.037,1.574c-3.35-0.514-9.57,4.696-12.252-0.25
	c-2.08,0.199-4.639,1.341-6.676,0.234c-2.074-1.125-2.191-3.279-4.539-4.162c-2.285-0.859-3.699-1.221-5.268-3.421
	c-6.977-9.792,10.258-9.079,9.555-5.216c2.637-0.646,5.084-1.172,6.996,1.277c0.334,0.428-0.705,0.959-0.068,1.505
	c0.877,0.755,2.008,0.488,3.076,0.443c2.637-0.11,4.566-0.94,7.191-0.211c-0.119-0.704,0.316-1.163,0.367-1.718
	c1.195,0.355,2.492,0.665,3.607,1.198C375.912,306.817,377.748,306.903,379.621,307.245z"/>
</svg>
