<?xml version="1.0" encoding="utf-8"?>
<!-- Generator: Adobe Illustrator 15.0.2, SVG Export Plug-In . SVG Version: 6.00 Build 0)  -->
<!DOCTYPE svg PUBLIC "-//W3C//DTD SVG 1.1//EN" "http://www.w3.org/Graphics/SVG/1.1/DTD/svg11.dtd">
<svg version="1.1" id="Layer_1" xmlns="http://www.w3.org/2000/svg" xmlns:xlink="http://www.w3.org/1999/xlink" x="0px" y="0px"
	 width="720px" height="460px" viewBox="0 0 720 460" enable-background="new 0 0 720 460" xml:space="preserve">
<polygon fill="#C4C63A" points="707.232,399.73 12.767,399.73 41.18,351.301 671.342,351.301 "/>
<g>
	<polygon fill="#AAABA8" points="112.258,85.604 596.039,85.604 589.039,124.27 121.258,124.27 	"/>
	<polygon fill="#C7C4BA" points="112.258,85.604 596.039,85.604 570.98,60.27 136.393,60.27 	"/>
	<g>
		<polygon fill="#AAABA8" points="685.18,303.764 616.18,206.688 97.18,206.688 27.18,303.764 41.18,351.301 671.18,351.301 		"/>
		<polygon fill="#C7C4BA" points="685.18,303.764 27.18,303.764 97.18,206.688 616.18,206.688 		"/>
	</g>
	<g>
		<polygon fill="#AAABA8" points="627.584,168.42 589.039,124.27 121.258,124.27 85.91,168.42 97.18,206.688 616.312,206.688 		"/>
		<polygon fill="#C7C4BA" points="627.584,168.42 85.91,168.42 121.258,124.27 589.039,124.27 		"/>
	</g>
</g>
<g>
	<path fill="#E3DAC6" d="M311.56,142.441c0,0-18.008-24.223-21.143-28.492c-1.289-1.756-2.728-3.109-4.354-4.08
		c-0.62-0.371-38.674-25.67-41.125-26.545c-2.992-1.068-6.579-1.035-10.952,0.023c-7.183,1.736-85.415,20.65-92.343,22.324
		c-7.184,1.736-11.395,5.145-14.361,11.834c-3.086,6.965-15.01,36.305-15.01,36.305c-0.52,1.281-0.543,3.268-0.053,4.414
		l38.098,89.057c0.123,0.287,0.306,0.545,0.529,0.766c0.672,0.662,34,33.439,34.234,33.672c0.705,0.695,1.806,1.041,2.805,0.799
		l99.87-24.145c1.333-0.322,2.653-1.729,2.934-3.125l21.75-108.4C312.718,145.451,312.321,143.467,311.56,142.441z"/>
	
		<rect x="250.736" y="212.506" transform="matrix(0.8386 0.5448 -0.5448 0.8386 160.5218 -115.7541)" fill="#EBE3D0" width="49.724" height="1"/>
	
		<rect x="150.401" y="149.96" transform="matrix(0.086 0.9963 -0.9963 0.086 342.6533 -72.5961)" fill="#EBE3D0" width="120.986" height="1"/>
	
		<rect x="175.522" y="144.97" transform="matrix(0.0918 0.9958 -0.9958 0.0918 360.0985 -103.8874)" fill="#EBE3D0" width="122.961" height="1"/>
	<polygon fill="#D5CCB8" points="251.834,199.461 212.197,207.268 207.696,166.492 248.559,158.85 	"/>
	<polygon fill="#D4D2CB" points="296.701,232.195 254.055,202.834 140.038,226.549 149.453,248.98 186.051,286.131 291.168,259.438 
			"/>
	<polygon fill="#D1CFC6" points="254.055,202.834 140.038,226.549 149.453,248.98 249.848,224.078 	"/>
	<polygon fill="#D1CFC6" points="254.055,202.834 296.701,232.195 291.168,259.438 249.848,224.078 	"/>
	
		<rect x="117.306" y="157.633" transform="matrix(0.0918 0.9958 -0.9958 0.0918 318.3251 -32.7571)" fill="#EBE3D0" width="119.628" height="1"/>
	
		<rect x="91.267" y="163.49" transform="matrix(0.0916 0.9958 -0.9958 0.0916 300.2133 -1.1203)" fill="#EBE3D0" width="118.908" height="1"/>
	<path fill="#EBE3D0" d="M149.306,246.17l-37.693-88.111c-0.587-1.373-0.567-3.629,0.047-5.139
		c0.118-0.291,11.836-29.119,14.862-35.945c3.021-6.811,7.474-10.482,14.887-12.273l91.361-22.088
		c8.26-2.002,14.003-0.35,18.072,5.189c2.92,3.977,19.756,26.625,19.926,26.854c0.882,1.188,1.324,3.359,1.005,4.945l-18.705,93.135
		l-1.961-0.395l18.705-93.135c0.209-1.041-0.094-2.611-0.649-3.357c-0.169-0.229-17.009-22.881-19.933-26.863
		c-3.579-4.871-8.509-6.238-15.99-4.43l-91.361,22.088c-6.832,1.652-10.751,4.879-13.529,11.141
		c-3.012,6.797-14.719,35.598-14.837,35.889c-0.415,1.021-0.444,2.703-0.061,3.598l37.693,88.111L149.306,246.17z"/>
	<g>
		<path fill="#E7D8AA" d="M218.72,187.855c0.206-1.279,1.056-3.316,2.325-4.594c1.173-1.629,0.064-5.145-3.471-4.836
			c-0.756,0.064-1.594,0.514-1.336,2.35C215.441,181.979,215.27,184.506,218.72,187.855z"/>
		<path fill="#D7BD4E" d="M249.02,216.387c0.895,1.699,3.011,1.355,3.314,0.93c-0.041-0.154-0.209-0.334-0.547-0.523
			c0.544,0.084,0.82-0.084,0.945-0.357c-2.299-1.131-3.515-2.238-0.646-3.896c0.745-0.432,2.185-0.422,2.529-1.41
			c0.309-0.885-0.153-1.666-1.103-1.742c-1.188-0.094-1.066,0.838-1.77,1.461C249.967,212.42,247.636,213.756,249.02,216.387z"/>
		<path fill="#D7BD4E" d="M244.608,211.992c-0.37,1.693,0.584,3.707,2.335,2.781c-0.479-0.135-0.817-0.283-0.999-0.527
			c0.367,0.166,1.227-0.023,1.283-0.18c-2.662-0.848-0.756-3.262,0.754-4.23c1.6-1.027,3.65-2.611,0.98-2.723
			C247.188,207.037,244.92,210.562,244.608,211.992z"/>
		<path fill="#AAB036" d="M217.942,173.756c2.338-3.352,7.133-4.818,11.992-3.654c7.852,1.885,16.893,4.494,24.729,12.75
			c13.714,14.439,11.167,27.055,11.343,32.373c0.113,3.369-0.748,8.062-2.422,13.102c-0.882,2.648-5.881-1.332-5.258-2.676
			c2.898-6.254,4.766-9.254,3.047-11.086c-3.896-4.154-14.818-5.467-23.494-10.434c-5.094-2.918-9.383-7.5-8.793-13.17
			c0.414-3.994-2.182-5.529-5.003-5.518c-1.683,0.008-4.354-0.422-6.124-2.732C216.617,180.959,215.776,176.865,217.942,173.756z"/>
		<path fill="#919F9C" d="M222.218,178.547c0.258,0.896-0.199,1.812-1.019,2.045c-0.82,0.234-1.69-0.301-1.947-1.201
			c-0.258-0.893,0.199-1.812,1.019-2.047S221.962,177.646,222.218,178.547z"/>
		<path fill="#4E6460" d="M221.676,178.701c0.164,0.568-0.126,1.15-0.646,1.299c-0.52,0.148-1.072-0.191-1.234-0.764
			c-0.164-0.566,0.126-1.148,0.646-1.297C220.961,177.791,221.514,178.131,221.676,178.701z"/>
		<path fill="#4E6460" d="M238.004,177.906c-2.979,0.678-5.803,4.689-3.939,9.27c2.27,5.574,7.592,10.1,12.551,13.295
			c5.053,3.254,10.641,5.254,16.197,7.428c3.627,1.422,7.742,3.521,11.594,3.951c1.035-1.617-5.182-11.629-8.918-16.818
			c-3.812-5.293-7.412-10.775-14.849-15.217C245.68,176.852,240.799,177.27,238.004,177.906z"/>
	</g>
	
		<rect x="141.858" y="193.213" transform="matrix(0.0951 0.9955 -0.9955 0.0951 383.1402 -34.0521)" fill="#F1EBDD" width="136.884" height="1"/>
	
		<rect x="115.564" y="199.725" transform="matrix(0.0951 0.9955 -0.9955 0.0951 365.8285 -1.9846)" fill="#F1EBDD" width="136.884" height="1"/>
	
		<rect x="182.462" y="182.484" transform="matrix(0.0791 0.9969 -0.9969 0.0791 413.1153 -81.2344)" fill="#F1EBDD" width="136.128" height="1"/>
	
		<rect x="263.244" y="156.452" transform="matrix(0.8794 0.4762 -0.4762 0.8794 109.4046 -117.8998)" fill="#EBE3D0" width="48.249" height="1"/>
	
		<rect x="206.154" y="177.57" transform="matrix(0.0791 0.9969 -0.9969 0.0791 430.0336 -109.3768)" fill="#F1EBDD" width="136.128" height="1"/>
	
		<rect x="114.853" y="148.417" transform="matrix(0.7624 0.6471 -0.6471 0.7624 128.7721 -52.8781)" fill="#EBE3D0" width="43.079" height="1"/>
	
		<rect x="115.324" y="196.017" transform="matrix(0.7107 0.7035 -0.7035 0.7107 178.3952 -40.7578)" fill="#EBE3D0" width="46.855" height="1"/>
	
		<rect x="134.09" y="236.537" transform="matrix(0.7306 0.6828 -0.6828 0.7306 203.9173 -42.775)" fill="#EBE3D0" width="44.155" height="1"/>
	
		<rect x="257.102" y="117.914" transform="matrix(0.8234 0.5674 -0.5674 0.8234 117.1815 -139.7433)" fill="#EBE3D0" width="52.052" height="1.001"/>
	<path fill="#F9F6F0" d="M187.23,283.756c-1.559,0-3.05-0.941-3.624-2.287l-39.99-93.475c-0.617-1.443-0.596-3.818,0.05-5.406
		c0.125-0.307,12.558-30.893,15.767-38.133c3.239-7.303,7.802-11.066,15.752-12.988c7.271-1.756,89.387-21.609,96.926-23.432
		c2.44-0.59,4.599-0.877,6.602-0.877c5.274,0,9.365,2.08,12.509,6.359c3.098,4.221,20.96,28.248,21.141,28.49
		c0.926,1.248,1.391,3.531,1.055,5.197l-22.421,111.529l-0.62,0.148L188.121,283.65C187.833,283.721,187.533,283.756,187.23,283.756
		z M278.713,109.158c-1.842,0-3.848,0.268-6.132,0.82c-7.539,1.822-89.654,21.676-96.926,23.432
		c-7.269,1.758-11.439,5.193-14.394,11.855c-3.197,7.211-15.617,37.768-15.743,38.076c-0.445,1.096-0.475,2.902-0.063,3.865
		l39.99,93.477c0.315,0.738,1.354,1.225,2.204,1.023l101.636-24.617l22.17-110.279c0.225-1.117-0.102-2.805-0.699-3.609
		c-0.18-0.242-18.046-24.275-21.147-28.5C286.832,110.92,283.369,109.158,278.713,109.158z"/>
	<polygon fill="#DCDAD4" points="296.701,232.195 295.928,231.664 295.79,232.41 175.319,260.812 142.543,229.018 141.333,226.279 
		140.038,226.549 149.453,248.98 186.051,286.131 291.168,259.438 	"/>
</g>
<polygon fill="#F5F1E7" points="268.597,221.652 226.183,232.553 212.197,207.268 251.834,199.461 "/>
<g>
	<g>
		<g>
			<g>
				<path fill="#C83B0C" d="M455.764,275c-1.229-2.424-2.76-4.766-4.531-7c-0.093,0.1-0.174,0.201-0.27,0.301
					c-8.275,8.584-30.646,13.076-48.467,13.076c-5.708,0-17.727-0.52-23.229-4.611c-2.926,22.555,3.434,46.965-13.977,67.244
					l7.449,6.346c23.688-11.74,40.213-26.066,45.932-46.281c18.461,9.92,25.814,29.359,28.811,53.17l8.855,0.893
					C465.318,329.855,466.824,296.812,455.764,275z"/>
			</g>
		</g>
		<g>
			<polygon fill="#6882A1" points="484.584,255.736 455.877,251.539 449.77,244.508 492.172,224.113 490.988,235.865 			"/>
			<g>
				<path fill="#C83B0C" d="M468.236,217.865c-8.494,0.43-15.344-1.598-20.728-4.508c1.422,6.184,2.54,11.518,3.429,16.396
					c5.701,0.387,11.752-0.055,18.051-1.516L468.236,217.865z"/>
			</g>
			<polygon fill="#C3CEDA" points="483.885,249.523 449.77,244.508 468.539,222.207 492.172,224.113 			"/>
			<polygon fill="#A1B2C5" points="482.057,246.359 454.16,242.932 469.635,224.635 488.607,226.215 			"/>
			<polygon fill="#7C93AE" points="486.631,232.297 472.045,230.984 469.635,224.635 488.607,226.215 			"/>
			<polygon fill="#B0BECE" points="482.057,246.359 461.6,243.846 472.045,230.984 486.631,232.297 			"/>
		</g>
		<path fill="#C83B0C" d="M459.135,245.102c0.189-0.99,1.008-1.85,2.562-1.734c0.752,0.055,1.252-2.16-0.172-3.168
			c-1.738-1.229-5.135-1.463-7.779-1.023c-2.641,0.439-4.658,1.602-5.633,3.389c-0.812,1.494-0.793,3.553-0.232,5.502
			c0.691,2.396,2.365,4.305,4.549,5.523c2.762,1.539,6.062,1.805,8.744,1.326c1.293-0.23,3.48-1.072,4.32-2.191
			c0.805-1.076,0.486-2.316-0.861-2.764c-1.066-0.354-3.393-0.438-4.447-1.367C458.805,247.379,458.926,246.199,459.135,245.102z"/>
		<g>
			<path fill="#C83B0C" d="M451.359,367.525c2.375,0.479,7.859,1.428,9.898,0.279c4.4-2.463-2.389-5.785-5.848-7.037
				C446.521,357.57,440.773,365.393,451.359,367.525z"/>
		</g>
		<g>
			<path fill="#C83B0C" d="M362.32,356.072c2.068,1.254,6.893,4.016,9.205,3.639c4.979-0.811,0.07-8.02-2.762-10.377
				C361.504,343.289,353.098,350.445,362.32,356.072z"/>
		</g>
		<g>
			<g>
				<path fill="#C83B0C" d="M451.943,254.463c-2.504-1.396-4.288-3.568-5.023-6.119c-0.68-2.359-0.564-4.641,0.316-6.258
					c0.811-1.486,2.252-2.625,4.152-3.322c-1.092-7.721-2.701-15.895-5.059-26.074c-2.02-8.717-6.133-16.982-11.899-23.234
					c-0.097,0.02-0.196,0.047-0.291,0.061c-1.544,0.24-3.396,0.367-5.353,0.367c-4.563,0-15.129-0.742-24.783-6.643
					c-0.473,0.381-0.928,0.736-1.342,1.043l-0.875,0.65l-0.572-0.928c-0.248-0.404-0.488-0.805-0.723-1.203
					c-2.119,1.479-4.126,3.295-5.911,5.449c-7.21,8.701-11.018,17.117-14.383,29.178c-2.275,8.152-7.843,38.596-2.583,55.611
					c4.234,13.699,76.371,7.441,75.648-12.375c-0.07-1.953-0.16-3.848-0.27-5.709C452.639,254.801,452.278,254.65,451.943,254.463z
					 M446.101,252.727c-5.042,1.168-9.892,1.709-14.505,1.709c-24.379,0-42.213-15.084-47.667-32.076l0.952-0.305
					c6.322,19.693,29.68,36.76,60.577,29.793l-0.686-9.461c-25.599,1.051-36.477-20.238-36.585-20.453l0.895-0.447
					c0.106,0.213,10.875,21.158,36.129,19.879l0.488-0.025l0.818,11.289L446.101,252.727z"/>
			</g>
			<g>
				<path fill="#C83B0C" d="M373.727,168.584c3.432-5.893,3.402-15.812,3.68-24.35c0.51-15.666,2.303-20.256,8.74-26.752
					c5.348-5.395,11-9.469,19.4-10.994c10.006-1.812,21.453,0.859,27.922,4.201c2.715,1.402,8.248,3.961,13.684,7.053
					c3.615,2.051,14.037,4.891,18.383,4.477c-2.297,2.525-9.672,4.615-13.701,5.922c3.605,2.793,11.061,4.715,11.34,5.609
					c-10.51,3.082-22.215,1.939-34.615,0.01c-1.846,7.639-4.625,16.105-8.928,26.553c-4.324,10.494-11.143,18.393-17.564,23.168
					c-2.639-4.283-4.535-8.609-4.535-8.609s-4.916,2.822-13.523,4.734c1.377-4.938,0.941-10.176,0.941-10.176
					S378.924,168.826,373.727,168.584z"/>
				<path fill="#C83B0C" d="M397.129,176.395c-0.021-0.047-0.049-0.104-0.068-0.148c-0.014,0.008-0.031,0.016-0.045,0.021
					C397.053,176.311,397.092,176.352,397.129,176.395z"/>
			</g>
		</g>
		<path fill="#C83B0C" d="M453.431,145.584c-0.134-3.178-0.589-6.186-1.302-9.027c-1.191,0.064-2.41,0.102-3.67,0.102
			c-6.518,0-13.281-0.873-19.148-1.77c-1.949,7.834-4.742,16.064-8.755,25.805c-4.538,11.014-11.155,18.02-15.733,21.873
			c10.689,6.377,23.279,6.875,29.164,5.961C441.129,187.422,454.553,172.416,453.431,145.584z M445.736,160.232
			c-1.391-0.037-2.453-2.221-2.385-4.877c0.066-2.65,1.254-4.775,2.637-4.738c1.385,0.041,2.457,2.215,2.383,4.877
			C448.301,158.148,447.119,160.27,445.736,160.232z"/>
	</g>
	<g>
		<path fill="#C83B0C" d="M471.066,217.359c4.432-3.064,10.355,0.09,11.336,5.102c-2.17-0.193-5.045-0.443-7.686-0.5
			c0.055,2.014,1.73,3.219,0.766,4.932c-1.125,2-2.75,0.875-4.125-0.875C469.438,223.574,468.127,219.391,471.066,217.359z"/>
	</g>
</g>
<path fill="#F5F1E7" d="M211.322,208.459L206.6,165.68l42.867-8.018l3.436,42.607L211.322,208.459z M208.792,167.305l4.28,38.771
	l37.695-7.424l-3.115-38.615L208.792,167.305z"/>
</svg>
