<?xml version="1.0" encoding="utf-8"?>
<!-- Generator: Adobe Illustrator 15.0.2, SVG Export Plug-In . SVG Version: 6.00 Build 0)  -->
<!DOCTYPE svg PUBLIC "-//W3C//DTD SVG 1.1//EN" "http://www.w3.org/Graphics/SVG/1.1/DTD/svg11.dtd">
<svg version="1.1" id="Layer_1" xmlns="http://www.w3.org/2000/svg" xmlns:xlink="http://www.w3.org/1999/xlink" x="0px" y="0px"
	 width="720px" height="460px" viewBox="0 0 720 460" enable-background="new 0 0 720 460" xml:space="preserve">
<g>
	<polygon fill="#B7BC54" points="347.963,139.604 227.398,267.185 148.607,267.185 335.223,126.714 	"/>
	<polygon fill="#A5B9CC" points="508.715,267.185 380.174,130.745 356.123,130.745 227.398,267.185 	"/>
	<polygon fill="#E8DAB4" points="227.398,267.185 347.963,139.604 350.205,141.144 252.773,267.185 	"/>
	<g>
		<path fill="#9F9F9D" d="M335.223,126.714l12.74,12.891l2.242,1.539c0-3.875,3.691-8.82,18.229-8.82
			c13.723,0,18.23,4.945,18.23,8.82l2.242-1.539l12.74-12.891H335.223z"/>
		<rect x="322.49" y="125.714" fill="#9F9F9D" width="89.477" height="2"/>
		<polygon fill="#C0C1BE" points="405.156,122.534 329.301,122.534 322.49,125.714 411.967,125.714 		"/>
	</g>
	<polygon fill="#B7BC54" points="389.031,139.604 509.596,267.185 588.387,267.185 401.771,126.714 	"/>
	<polygon fill="#E8DAB4" points="509.471,267.185 388.906,139.604 386.664,141.144 484.096,267.185 	"/>
</g>
<g>
	<polygon fill="#888886" points="27.838,310.562 0.105,328.372 719.895,328.372 694.527,310.562 	"/>
</g>
<polygon fill="#ADADAC" points="695.895,299.704 139.562,278.372 25.105,299.704 27.838,310.562 694.527,310.562 "/>
<polygon fill="#C0C1BE" points="695.895,299.704 25.105,299.704 81.319,262.704 643.895,262.704 "/>
<g>
	<rect x="104.092" y="178.021" fill="#9EAAA8" width="6" height="84.465"/>
	<rect x="128.742" y="178.021" fill="#9EAAA8" width="6" height="84.465"/>
	<rect x="153.393" y="178.021" fill="#9EAAA8" width="6" height="84.465"/>
	<rect x="178.044" y="178.021" fill="#9EAAA8" width="6" height="84.465"/>
	<rect x="202.695" y="178.021" fill="#9EAAA8" width="6" height="84.465"/>
	<rect x="227.346" y="178.021" fill="#9EAAA8" width="6" height="84.465"/>
	<rect x="251.996" y="178.021" fill="#9EAAA8" width="6" height="84.465"/>
	<rect x="276.647" y="178.021" fill="#9EAAA8" width="6" height="84.465"/>
	<rect x="301.298" y="178.021" fill="#9EAAA8" width="6" height="84.465"/>
	<rect x="325.948" y="178.021" fill="#9EAAA8" width="6.001" height="84.465"/>
	<rect x="350.6" y="178.021" fill="#9EAAA8" width="6" height="84.465"/>
	<rect x="375.25" y="178.021" fill="#9EAAA8" width="6" height="84.465"/>
	<rect x="399.9" y="178.021" fill="#9EAAA8" width="6" height="84.465"/>
	<rect x="424.552" y="178.021" fill="#9EAAA8" width="6" height="84.465"/>
	<rect x="449.202" y="178.021" fill="#9EAAA8" width="6" height="84.465"/>
	<rect x="473.854" y="178.021" fill="#9EAAA8" width="6" height="84.465"/>
	<rect x="498.504" y="178.021" fill="#9EAAA8" width="6" height="84.465"/>
	<rect x="523.154" y="178.021" fill="#9EAAA8" width="6" height="84.465"/>
	<rect x="547.806" y="178.021" fill="#9EAAA8" width="6" height="84.465"/>
	<rect x="572.456" y="178.021" fill="#9EAAA8" width="6" height="84.465"/>
	<rect x="597.106" y="178.021" fill="#9EAAA8" width="6" height="84.465"/>
	<rect x="621.758" y="178.021" fill="#9EAAA8" width="6" height="84.465"/>
</g>
<rect x="91.228" y="173.204" fill="#888886" width="550.335" height="10.07"/>
<g>
	<g>
		<g>
			<g>
				<path fill="#C83B0C" d="M475.922,226.583c-3.891,2.658-11.744,3.004-15.527,3.004c-11.35,0-25.441-2.721-31.699-7.928
					c-1.391,1.557-2.605,3.205-3.576,4.932c-8.027,14.293-8.98,30.6-3.77,49.797l5.305-0.186
					c2.684-15.863,11.391-27.922,25.678-31.326c3.256,13.701,11.037,25.311,26.566,33.848l5.17-4.037
					C472.176,259.581,478.523,242.546,475.922,226.583z"/>
			</g>
		</g>
		<g>
			<g>
				<path fill="#C83B0C" d="M473.869,181.604c0.291,6.105-1.207,12.328-4.559,17.469c-4.715,7.23-12.309,11.062-21.49,11.062
					c-2.742,0-5.621-0.342-8.611-1.035l-0.418-0.096l0.57-7.871l0.49,0.025c5.77,0.293,10.086-0.967,12.816-3.744
					c3.387-3.445,3.115-8.076,3.111-8.123l0.998-0.068c0.014,0.209,0.303,5.131-3.396,8.893c-2.859,2.91-7.262,4.279-13.092,4.062
					l-0.438,6.043c12.393,2.746,22.807-0.777,28.621-9.695c6.195-9.502,5.883-22.842-0.699-31.85
					c-1.199-1.475-3.16-2.828-5.404-3.936c-0.262,0.463-0.541,0.939-0.834,1.416l-0.574,0.928l-0.875-0.65
					c-0.227-0.168-0.473-0.359-0.729-0.562c-6.486,3.889-13.525,4.381-16.584,4.381c-1.33,0-2.588-0.086-3.641-0.25
					c-0.391-0.061-0.803-0.178-1.23-0.342c-3.322,4.287-5.568,9.838-6.891,15.551c-1.885,8.131-3.057,14.355-3.773,20.426
					c0.254-0.246,0.537-0.461,0.877-0.6c0.82-0.338,1.498-0.496,2.129-0.496c0.295,0,0.541,0.033,0.738,0.061
					c0.15,0.021,0.268,0.037,0.379,0.037c0.137,0,0.342-0.023,0.725-0.197c0.064-0.152,0.041-0.611-0.357-0.904l-1.312-0.965
					l1.453-0.734c0.656-0.33,1.352-0.498,2.07-0.498c1.852,0,3.568,1.164,4.242,2.26c1.113,1.807,1.135,3.859,0.061,5.781
					c-1.361,2.438-4.188,4.141-6.873,4.141c-1.318,0-2.516-0.422-3.465-1.217c-0.48-0.402-0.875-0.959-1.164-1.586
					c-0.17,2.152-0.295,4.342-0.379,6.654c-0.484,13.283,47.873,17.479,50.713,8.295c3.525-11.406-0.697-32.74-2.221-38.205
					C474.451,184.024,474.141,182.761,473.869,181.604z"/>
			</g>
			<path fill="#EFE5C6" d="M434.838,215.271c-2.162-0.119-2.074-5.932-4.301-7.066c1.434,4.018-0.076,8.092-1.893,10.035
				c1.488,2.328,1.535,6.627-0.443,8.678c1.316,0.125,2.072,2.678,1.676,3.848c-0.957,2.859-4.48,1.945-5.844,1.066
				c-2.873-1.852-2.488-5.148-1.373-5.934c1.248-1.596,0.566-2.92-0.412-4.51c-1.223,0.922-4.879,0.848-6.191-0.234
				c-1.381,1.514-0.92,4.926-0.049,6.818c1.059,2.436-0.652,6.176-5.361,5.584c-3.301-0.418-4.846-5.555-1.336-7.096
				c-1.893-2.938-2.061-7.969,0.176-9.789c-1.961-3.523-1.154-8.381-0.342-10.303c-1.729,1.117-2.875,2.996-3.812,4.869
				c-0.699,1.396-1.557,1.982-3.168,1.297c-1.203-0.51-1.406-2.756-1.061-4.021c1.309-4.818,5.98-10.398,10.945-12.229
				c5.32-1.959,11.904-1.32,16.873,2.223C436.395,203.837,442.254,215.665,434.838,215.271z"/>
			<path fill="#F6F1DF" d="M412.279,201.735c-0.727,1.1-1.082,2.781-1.256,4.102c-0.352,2.666,0.209,5.164,1.553,7.467
				c2.541,4.35,7.928,8.508,12.424,4.523c1.59-1.404,2.486-2.48,3.1-4.559c0.699-2.367,0.512-4.367-0.289-6.695
				c-1.053-3.055-3.027-6.348-5.947-7.932C418.471,196.812,414.305,198.657,412.279,201.735z"/>
			<path fill="#EFE5C6" d="M432.02,184.077c-0.965-1.539-3.273-1.666-4.555-0.445c-0.889-0.844-3.398-3.373-7.289-3.16
				c-2.961,0.158-5.617,1.682-7.258,3.156c-1.828-2.084-4.281-0.684-5.09,0.928c-0.885,1.762-0.621,4.889,1.994,5.008
				c-0.756,5.049,4.434,11.396,11.18,11.477c7.863,0.094,9.68-8.832,9.408-11.627C432.137,188.999,433.613,186.618,432.02,184.077z"
				/>
			<path fill="#F6F1DF" d="M428.43,184.755c0.613-0.141,0.656-0.602,1.396-0.297c0.496,0.203,1.016,0.752,1.285,1.178
				c0.648,1.025,0.199,2.25-1.141,2.24c0.168-1.33-0.85-2.18-1.484-3.072L428.43,184.755z"/>
			<path fill="#F6F1DF" d="M409.316,185.237c-0.508,1.145,0.049,1.996,0.986,2.641c-0.387-0.264,1.49-2.6,1.338-3.092
				C411.318,183.757,409.607,184.587,409.316,185.237z"/>
			<path fill="#8E7565" d="M424.873,189.997c1.346,0.518,1.619-1.307,0.609-1.877C424.016,187.298,423.422,189.446,424.873,189.997z
				"/>
			<path fill="#8E7565" d="M415.523,189.769c1.318,0.537,1.504-1.713,0.457-2.074C414.77,187.272,414.451,189.335,415.523,189.769z"
				/>
			<path fill="#E9DCB9" d="M415.902,193.976c-0.621,0.957-0.57,2.385-0.078,3.383c1.135,2.309,3.932,2.525,6.205,2.205
				c1.152-0.156,2.289-0.812,2.871-1.818c0.254-0.438,0.561-0.842,0.604-1.316c0.043-0.494-0.113-1.059-0.266-1.484
				C423.939,191.317,417.939,190.851,415.902,193.976z"/>
			<path fill="#8E7565" d="M418.896,194.276c0.299,0.555,1.365,1.451,2.084,1.26c0.6-0.156,1.473-1.537,1.258-2.145
				C421.854,192.28,417.916,192.468,418.896,194.276z"/>
		</g>
		<g>
			<path fill="#C83B0C" d="M432.568,203.321c0.734-0.346,0.791-1.826-0.248-2.59c2.201-1.111,4.398,0.4,5.01,1.393
				c3.088,5.014-4.834,10.727-8.783,7.416c-1.572-1.318-1.969-4.789-0.051-5.578C430.895,202.976,430.807,204.153,432.568,203.321z"
				/>
			<g>
				<path fill="#C83B0C" d="M432.568,203.321c-0.529,0.25-0.893,0.318-1.207,0.318c-0.375,0-0.68-0.098-1.117-0.098
					c-0.41,0-0.938,0.086-1.748,0.42c-1.918,0.789-1.521,4.26,0.051,5.578c0.814,0.684,1.799,0.982,2.822,0.982
					c3.928,0,8.412-4.42,5.961-8.398c-0.459-0.744-1.812-1.783-3.391-1.783c-0.523,0-1.07,0.113-1.619,0.391
					C433.359,201.495,433.303,202.976,432.568,203.321z"/>
			</g>
		</g>
		<g>
			<path fill="#C83B0C" d="M423.766,282.978c-1.604,0.254-5.305,0.732-6.639-0.096c-2.877-1.773,1.766-3.805,4.117-4.545
				C427.289,276.446,430.916,281.849,423.766,282.978z"/>
		</g>
		<g>
			<path fill="#C83B0C" d="M485.715,282.849c-1.42,0.781-4.729,2.494-6.268,2.176c-3.312-0.686,0.18-5.375,2.145-6.871
				C486.625,274.312,492.053,279.343,485.715,282.849z"/>
		</g>
		<path fill="#C83B0C" d="M479.68,153.647c-2.301-3.953-2.279-10.602-2.465-16.324c-0.344-10.502-1.547-13.578-5.861-17.934
			c-3.584-3.615-7.373-6.348-13.004-7.369c-6.707-1.215-14.381,0.576-18.717,2.816c-1.82,0.939-5.529,2.654-9.174,4.727
			c-2.424,1.377-9.41,3.279-12.322,3.002c1.539,1.693,6.482,3.094,9.184,3.969c-2.416,1.873-7.414,3.162-7.602,3.762
			c7.047,2.064,14.893,1.301,23.205,0.006c1.236,5.121,3.1,10.797,5.984,17.799c2.898,7.037,7.469,12.33,11.775,15.531
			c1.768-2.871,3.039-5.77,3.039-5.77s3.295,1.891,9.064,3.172c-0.922-3.309-0.629-6.822-0.629-6.822
			S476.197,153.808,479.68,153.647z"/>
		<path fill="#C83B0C" d="M447.984,148.481c-2.648-6.428-4.506-11.875-5.812-17.053c-3.871,0.588-8.301,1.146-12.586,1.146
			c-0.875,0-1.717-0.029-2.543-0.076c-0.432,1.811-0.709,3.719-0.793,5.729c-0.752,17.988,8.246,28.047,13.035,28.787
			c3.891,0.605,12.146,0.285,19.246-3.822C455.438,160.569,451.02,155.853,447.984,148.481z M431.576,148.706
			c-0.928,0.025-1.721-1.396-1.768-3.176c-0.049-1.783,0.67-3.242,1.6-3.27c0.926-0.023,1.721,1.4,1.766,3.178
			C433.221,147.218,432.508,148.683,431.576,148.706z"/>
	</g>
</g>
</svg>
