<?xml version="1.0" encoding="utf-8"?>
<!-- Generator: Adobe Illustrator 15.0.2, SVG Export Plug-In . SVG Version: 6.00 Build 0)  -->
<!DOCTYPE svg PUBLIC "-//W3C//DTD SVG 1.1//EN" "http://www.w3.org/Graphics/SVG/1.1/DTD/svg11.dtd">
<svg version="1.1" id="Layer_1" xmlns="http://www.w3.org/2000/svg" xmlns:xlink="http://www.w3.org/1999/xlink" x="0px" y="0px"
	 width="720px" height="460px" viewBox="0 0 720 460" enable-background="new 0 0 720 460" xml:space="preserve">
<g>
	<g>
		<polygon fill="#C9887A" points="438.319,118.51 137.825,257.66 329.952,456.676 606.925,184.754 		"/>
		<polygon fill="#F5EBD1" points="438.319,118.51 137.825,257.66 113.075,44.82 448.958,3.324 		"/>
		<g>
			<polygon fill="#E0D3B5" points="492.615,90.787 488.633,156.366 238.366,319.207 162.534,244.072 152.2,148.57 425.86,76.609 			
				"/>
			<polygon fill="#E9E0CA" points="492.615,90.787 488.633,156.366 238.366,319.207 238.421,208.375 			"/>
			<g>
				<polygon fill="#BCAD8D" points="501.115,84.456 431.165,69.599 143.7,145.239 145.7,156.058 227.7,220.417 500.115,92.274 				
					"/>
				<polygon fill="#D6C9AC" points="501.115,84.456 227.7,205.599 143.7,145.239 431.165,69.599 				"/>
			</g>
			<polygon fill="#AAABA8" points="344.368,145.239 283.034,115.448 371.7,90.266 426.368,109.599 			"/>
			<g>
				<path fill="#9F9F9D" d="M346.806,138.966c-1.017,0.421-2.657,0.372-3.646-0.109l-46.326-22.501
					c-0.989-0.481-0.931-1.114,0.129-1.407l74.357-20.556c1.061-0.293,2.776-0.232,3.813,0.134l40.725,14.403
					c1.037,0.367,1.055,1.011,0.038,1.432L346.806,138.966z"/>
			</g>
			<path fill="#939491" d="M415.858,108.932l-40.727-14.403c-1.037-0.366-2.752-0.427-3.812-0.134l-0.268,0.073l0.525,34.243
				l44.318-18.348C416.911,109.942,416.896,109.298,415.858,108.932z"/>
		</g>
	</g>
	<g>
		<g>
			<path fill="#888886" d="M360.968,85.526c0,0-1.434-2.217-10.335,1.022c-2.115,0.771-4.714,1.943-5.91,2.556
				c-0.998,0.512-1.902,1.009-2.386,1.372c-0.509,0.383-1.383,1.328-1.415,1.836c-0.015,0.229,0.597,0.164,1.419,0.32
				c0.514,0.099,1.352,0.278,1.801,0.548c0.253,0.151,2.245,1.076,2.259,1.352c0.001,0.004,0.88,15.504,0.88,15.504l6.89,18.927
				c0,0,1.923,3.07,11.715-0.493c9.112-3.316,9.302-7.156,9.302-7.156l-7.144-19.627l-9.036-11.743L360.968,85.526z"/>
			<path fill="#777775" d="M343.023,92.784c0.408,0.1,0.837,0.229,1.118,0.396c0.253,0.151,2.245,1.076,2.259,1.352
				c0.001,0.004,0.88,15.504,0.88,15.504l6.89,18.927c0,0,1.328,2.218,6.459,0.982c-2.081-5.72-7.828-21.144-7.828-21.144
				s-1.282-13.146-2.054-15.111c-0.291-0.739-1.355-1.455-1.355-1.455C346.74,92.976,345.117,93.043,343.023,92.784z"/>
			<g>
				<path fill="#888886" d="M360.011,93.686c0,0,1.534-0.559,4.129-1.503c2.287-0.833,6.26-0.17,7.801,4.062
					c0.923,2.54,1.413,3.755,2.406,6.615c0.641,1.842-3.184,3.036-3.902,1.172c-1.039-2.692-1.705-4.685-2.197-6.035
					c-0.692-1.904-1.476-2.433-3.411-1.816c-1.445,0.46-3.47,1.263-3.47,1.263c-0.586,0.213-1.565-0.664-1.839-1.406
					C359.25,95.278,359.381,93.915,360.011,93.686z"/>
				<path fill="#777775" d="M359.528,96.037c0.269,0.743,1.219,1.631,1.838,1.405c0,0,2.024-0.803,3.47-1.263
					c1.936-0.616,2.719-0.088,3.411,1.816c0.492,1.351,1.158,3.343,2.197,6.035c0.338,0.88,1.366,1.077,2.293,0.849
					c0,0,0.678-0.226,0.956-0.428c-0.86,0.135-1.29-0.49-1.516-1.108c-0.75-2.062-2.052-5.638-2.6-7.143
					c-0.821-2.255-2.896-2.769-5.673-1.757C362.306,95.026,359.528,96.037,359.528,96.037z"/>
			</g>
			<path fill="#666665" d="M359.047,85.727c0.325,0.896-2.827,2.865-7.042,4.399c-0.461,0.167-0.924,0.326-1.391,0.477
				c-1.16,0.372-2.342,0.693-3.541,0.91c-0.465,0.084-0.934,0.152-1.403,0.188c-0.503,0.037-0.973-0.048-1.464-0.169
				c-0.392-0.097-0.752-0.154-1.168-0.151c-0.116,0-0.398,0.049-0.484-0.051c-0.116-0.134,0.041-0.32,0.137-0.399
				c0.354-0.298,1.054-0.683,1.454-0.906c0.448-0.251,2.025-1.072,3.042-1.584c1.179-0.595,2.398-1.104,3.639-1.556
				C355.04,85.35,358.722,84.832,359.047,85.727z"/>
		</g>
		<path fill="#7A574A" d="M366.579,104.898c3.276,1.327,5.8-2.264,5.792-5.198c-0.006-1.412-0.607-2.75-1.777-3.58
			c-2.079-1.475-5.986-1.453-7.35,1.033C361.833,99.725,364.051,103.875,366.579,104.898z"/>
		<g>
			<path fill="#7A574A" d="M506.137,155.192c-1.096,1.426-2.427,2.778-4.028,1.293c-1.418-1.313-0.852-3.011-0.803-4.653
				c0.062-2.103-0.261-3.709-1.494-4.103c-1.661-0.535-2.131,2.568-3.417,2.28c-1.024-0.227-1.038-1.59-0.984-2.808
				c0.063-1.32,0.875-2.897,1.558-3.821c1.5-2.028,3.614-2.526,5.729-1.558C507.276,143.917,509.284,151.114,506.137,155.192z"/>
			<path fill="#7A574A" d="M452.936,224.475c-1.977,0.11-6.527,0.24-8.051-0.923c-3.277-2.51,2.607-4.413,5.56-5.021
				C458.017,216.968,461.763,223.973,452.936,224.475z"/>
			<path fill="#7A574A" d="M414.344,219.049c-1.98-0.014-6.532-0.163-7.977-1.422c-3.116-2.703,2.873-4.239,5.858-4.665
				C419.879,211.873,423.186,219.095,414.344,219.049z"/>
		</g>
		<g>
			<g>
				<path fill="#7A574A" d="M446.172,158.496c-14.834,0-33.032-3.315-40.435-8.951c-2.09,26.033-1.2,42.363,5.573,61.359l7.7,1.143
					c2.64-13.885,10.103-27.898,16.378-37.258c1.604,16.973,7.145,28.322,14.307,41.539l7.037,0.934
					c3.711-25.772,10.931-42.572,12.711-63.455C463.548,157.94,451.942,158.496,446.172,158.496z"/>
			</g>
		</g>
		<g>
			<path fill="#7A574A" d="M458.898,65.425c-2.141-2.546-4.253-2.951-6.655-4.146c1.797-6.427,2.448-11.268,0.939-15.971
				c-1.273-3.962-5.483-8.284-9.866-10.584c-3.25-1.706-7.434-3.031-10.783-2.413c-3.947,0.727-6.293,5.333-8.158,10.052
				c1.132-8.681,7.969-15.841,14.891-18.754c6.699-2.822,25.303-2.569,33.195,8.656c12.801,18.196-5.297,39.451-8.442,42.03
				c-1.228,1.006-6.289,2.996-7.78,3.254C459.168,72.596,460.739,67.611,458.898,65.425z"/>
		</g>
		<g>
			<path fill="#7A574A" d="M458.134,66.068c-1.48-1.76-2.934-2.387-4.617-3.113c-0.553-0.238-1.123-0.484-1.719-0.78l-0.74-0.368
				l0.223-0.797c1.646-5.888,2.438-10.759,0.95-15.396c-0.399-1.244-1.15-2.568-2.136-3.863c-1.869-2.41-4.528-4.681-7.027-6.003
				c-2.885-1.523-7.436-2.984-10.37-2.386c-1.251,0.257-2.316,0.938-3.253,1.897c-1.729,1.849-3.041,4.694-4.139,7.471l-0.429,1.083
				c-0.55,1.505-1.046,3.035-1.437,4.582l-0.081,0.325c-0.029,0.143-0.06,0.275-0.089,0.397
				c-3.278,17.139,3.588,28.396,8.181,30.048c3.726,1.339,11.976,2.281,19.366-0.157c1.62-0.536,3.174-1.266,4.625-2.08
				C458.397,71.895,459.455,67.639,458.134,66.068z M429.801,49.261c-0.689,1.785-1.895,2.979-2.698,2.669
				c-0.796-0.308-0.896-2.002-0.216-3.786c0.69-1.782,1.898-2.979,2.698-2.672C430.388,45.781,430.482,47.475,429.801,49.261z
				 M440.842,53.454c-0.671,1.746-1.954,2.879-2.868,2.53c-0.91-0.352-1.11-2.051-0.437-3.798c0.672-1.75,1.955-2.881,2.87-2.531
				C441.316,50.006,441.511,51.706,440.842,53.454z"/>
			<g>
				<path fill="#7A574A" d="M451.987,79.649c-0.287,0.107-0.574,0.216-0.856,0.31c-3.094,1.021-6.663,1.56-10.322,1.56
					c-3.61,0-7.235-0.527-9.696-1.411c-1.387-0.499-3.037-1.845-4.579-3.962c-20.271,1.497-40.44,11.777-53.243,17.442l1.266,9.217
					c20.818-5.75,38.92-4.613,38.92-4.613s-7.123,22.485-10.126,45.268c-1.792,13.599,66.49,20.979,68.652,4.897
					c2.122-15.769-1.313-37.617-1.313-37.617s14.606,8.293,23.942,30.612l8.142-2.982
					C496.345,115.189,480.519,89.572,451.987,79.649z"/>
			</g>
		</g>
	</g>
	<g>
		<g>
			<g>
				<path fill="#888886" d="M330.69,84.605c-2.24,0-4.055,0.513-4.055,1.145v12.287c0,0.632,1.814,1.145,4.055,1.145
					s4.057-0.513,4.057-1.145V85.75C334.747,85.118,332.931,84.605,330.69,84.605z"/>
			</g>
			<path fill="#777775" d="M330.081,84.622c-1.947,0.084-3.445,0.555-3.445,1.128v12.287c0,0.573,1.498,1.044,3.445,1.128V84.622z"
				/>
			<ellipse fill="#9F9F9D" cx="330.691" cy="85.75" rx="4.056" ry="1.146"/>
		</g>
		<g>
			<g>
				<path fill="#888886" d="M353.099,65.615c-1.299,0-2.354,0.297-2.354,0.663v3.564c0,0.365,1.055,0.663,2.354,0.663
					s2.352-0.298,2.352-0.663v-3.564C355.45,65.912,354.397,65.615,353.099,65.615z"/>
			</g>
			<path fill="#777775" d="M352.745,65.625c-1.129,0.049-2,0.321-2,0.653v3.564c0,0.331,0.871,0.604,2,0.652V65.625z"/>
			<ellipse fill="#9F9F9D" cx="353.098" cy="66.278" rx="2.353" ry="0.664"/>
		</g>
		<path fill="#888886" d="M332.19,85.774l-3-0.049c0.047-2.787,0.031-7.413,0.016-12.311c-0.008-2.446-0.016-4.919-0.016-7.178
			c0-4.651,2.34-8.609,6.418-10.859c4.402-2.429,10-2.396,13.932,0.082c3.54,2.23,5.336,6.104,5.056,10.906l-2.995-0.175
			c0.217-3.715-1.049-6.548-3.66-8.194c-2.987-1.882-7.463-1.88-10.883,0.008c-1.817,1.003-4.867,3.405-4.867,8.232
			c0,2.256,0.008,4.725,0.016,7.169C332.222,78.318,332.237,82.959,332.19,85.774z"/>
		<path fill="#9EC3D6" d="M356.747,88.063c0,0-1.338,0.73-3.193,1.466c-1.648,0.653-4.104,1.428-4.104,1.428l1.295-21.114h4.705
			L356.747,88.063z"/>
	</g>
</g>
</svg>
