<?xml version="1.0" encoding="utf-8"?>
<!-- Generator: Adobe Illustrator 15.0.2, SVG Export Plug-In . SVG Version: 6.00 Build 0)  -->
<!DOCTYPE svg PUBLIC "-//W3C//DTD SVG 1.1//EN" "http://www.w3.org/Graphics/SVG/1.1/DTD/svg11.dtd">
<svg version="1.1" id="Layer_1" xmlns="http://www.w3.org/2000/svg" xmlns:xlink="http://www.w3.org/1999/xlink" x="0px" y="0px"
	 width="720px" height="460px" viewBox="0 0 720 460" enable-background="new 0 0 720 460" xml:space="preserve">
<path fill="#D3D696" d="M289.882,225.389c132.874-9.605,253.975,0.785,333.688,45.098c53.021,29.477,48.424,68.547,5.23,91.883
	c-48.045,25.961-145.549,47.373-283.566,47.373c-133.379,0-234.924-30.91-272.536-61.072
	c-27.039-21.686-17.824-58.076,30.807-80.975C156.437,242.775,209.154,231.223,289.882,225.389z"/>
<g>
	<g>
		<ellipse fill="#BEC366" cx="178.662" cy="207.723" rx="99.296" ry="73.416"/>
	</g>
	<g>
		<ellipse fill="#BCC160" cx="360" cy="166.35" rx="99.612" ry="81.582"/>
	</g>
	<path fill="#AAB036" d="M299.43,67.116c4.337,0.754,8.388-1.424,12.343-2.375c-2.535,8.074-11.387,14.99-18.442,19.656
		c4.704-0.6,9.661-2.25,13.956-3.559c-5.373,9.909-14.268,15.301-22.876,22.367c5.62,0.475,11.402-0.723,16.382-2.816
		c-6.304,11.54-21.344,14.265-27.408,25.057c6.849,0.88,14.036-0.76,20.475-3.141c-1.769,12.607-22.316,19.254-27.587,29.123
		c6.445,1.098,12.126-3.062,18.597-2.447c-1.092,8.341-18.169,15.151-24.018,21.256c5.993,0.561,11.931-1.148,17.809-0.539
		c-5.796,7.484-15.932,11.324-21.401,18.471c5.734,0.57,11.066-0.236,15.934-2.388c0.124,9.038-12.176,16.389-17.721,22.114
		c5.211,0.865,10.577-1.258,15.224-3.07c-1.07,5.662-14.28,16.641-19.487,20.107c4.332-0.092,9.048-2.242,13.236-3.049
		c-3.77,7.137-14.378,11.203-19.783,17.4c4.194,0.496,8.229-0.672,12.387-0.584c-0.796,7.201-9.985,11.037-10.5,19.461
		c36.719,1.969,75.955,2.678,112.64,1.029c12.502-0.562,23.445-2.131,35.154-6.082c7.545-2.545,19.928-3.477,25.979-7.1
		c-6.754-3.893-12.053-10.021-19.389-12.91c2.938,1.555,6.156,2.629,9.301,2.596c-7.523-5.615-15.225-11.072-22.703-16.9
		c5.92,0.113,11.658,2.492,17.594,1.682c-7.297-8.42-20.977-12.432-27.768-21.254c4.477,1.178,8.697,2.791,13.323,2.424
		c-4.036-7.566-16.657-13.259-22.228-21.183c5.357,0.045,10.623,2.408,15.955,2.352c-2.799-7.879-19.531-15.795-24.941-23.893
		c4.672-2.219,9.354,1.701,12.609-1.98c-6.145-6.188-13.271-11.897-17.812-19.588c3.539-0.045,7.137,1.172,10.391,2.486
		c-0.486-7.285-16.145-16.511-21.109-22.393c9.289,0.424,11.021,1.002,6.205-6.408c-3.223-4.961-8.135-8.984-11.535-13.992
		c3.953,0.022,8.133,1.51,12.135,1.453c-4.709-6.094-15.994-9.764-18.613-16.724c3.311,0.686,5.775-0.479,8.105-1.856
		c-4.422-5.135-10.697-9.406-12.596-16.051c1.338,0.302,2.982,0.223,4.236,0.602c-1.654-5.375-8.701-9.613-12.418-14.211
		C319.062,50.258,309.207,57.639,299.43,67.116z"/>
</g>
<path fill="#B2B748" d="M300.379,268.158c-8.027,3.604-16.868,2.307-24.591,7.584c-9.857,6.736-23.48,5.396-28.176,2.352
	c-6.653-4.314-16.5-5.891-21.591-7.607c-4.794-1.615-13.108-3.119-16.752-6.271c-4.952-4.285-6.236-10.596,0.437-13.84
	c-13.195-2.1-6.449-15.029-4.412-18.48c-2.037-3.309-3.182-6.309-1.976-11.061c1.466-5.775,8.442-8.131,8.762-7.549
	c-5.864-10.695,11.534-16.762,17.188-12.893c1.717-7.607,13.774-13.248,17.191-3.607c5.398-6.848,18.359-12.872,19.961,0.768
	c3.033-12.461,16.719-15.979,21.025-2.535c8.945-6.637,16.834,2.777,14.03,10.494c16.084-2.168,21.164,15.166,8.404,24.398
	c5.373,2.562,10.174,10.631,8.945,17.588c-1.293,7.311-7.723,4.732-11.217,9.498c-2.908,3.967,0.336,7.068-5.504,10.301
	C301.535,267.613,300.958,267.898,300.379,268.158z"/>
<g>
	<path fill="#EFBFA9" d="M391.266,190.674c0,1.857-1.576,3.361-4.535,3.361c-2.961,0-5.361-1.504-5.361-3.361
		c0-1.857,2.4-3.362,5.361-3.362C389.689,187.312,391.266,188.817,391.266,190.674z"/>
	<path fill="#A1856E" d="M404.345,193.691c0.323-0.922,0.304-1.939-0.534-2.572c-1.49-1.127-3.676,0.119-4.254,1.539
		c-0.105,0.264-1.701,2.717,0,3.119c1.48,0.348,2.902,0.541,3.93-0.613C403.826,194.781,404.15,194.254,404.345,193.691z"/>
	<g>
		<path fill="#A1856E" d="M396.588,192.865c-1.002,0.184-1.443-0.59-0.711-1.402c0.611-0.673,1.607-0.984,2.49-1.018
			c0.336-0.013,0.893-0.026,1.119,0.284C400.045,191.49,397.119,192.768,396.588,192.865z"/>
		<g>
			<path fill="#9F9F9D" d="M394.659,192.9c-0.14-0.312-0.165-0.656-0.097-1c-2.001,0.012-3.496,0.025-3.496,0.025
				c-0.857-0.918-2.125-1.407-4.896-1.407c-2.65,0-4.73,1.167-4.73,2.125c0,1.039,2.209,2.623,4.98,2.623
				c3.094,0,4.465-1.377,4.846-1.746c0,0,1.734,0,3.912,0C394.959,193.359,394.773,193.158,394.659,192.9z"/>
			<path fill="#9F9F9D" d="M398.109,193.344l-0.427,0.186c0.121,0,0.362,0,0.362,0L398.109,193.344z"/>
		</g>
	</g>
	<path fill="#A1856E" d="M420.293,263.832c-1.297,0.035-4.27,0.039-5.239-0.752c-2.097-1.695,1.782-2.83,3.718-3.176
		C423.744,259.027,426.062,263.668,420.293,263.832z"/>
	<path fill="#A1856E" d="M462.879,269.037c-1.291,0.033-4.266,0.035-5.236-0.754c-2.096-1.695,1.781-2.83,3.719-3.172
		C466.336,264.229,468.652,268.871,462.879,269.037z"/>
	<g>
		<g>
			<path fill="#A1856E" d="M451.873,223.969c-11.66,0-24.332-3.781-28.505-10.271c-6.485,13.062-5.785,36.129-5.399,44.98
				l4.48,0.346c5.725-12.143,12.459-20.875,18.711-26.855c8.887,10.783,13.234,18.117,18.545,31.711l4.496-0.055
				c1.953-19.658,3.576-30.004,2.326-42.146C462.266,223.178,457.242,223.969,451.873,223.969z"/>
		</g>
	</g>
	<g>
		<path fill="#A1856E" d="M481.666,218.662c-0.609,1.295-2.537,2.428-3.598,1.471c-1.342-1.213,0.357-4.359-1.117-5.287
			c-0.873-0.545-2.447,1.732-2.693,1.506c-1.354-1.24-0.555-3.605,0.455-4.857c0.943-1.172,2.882-1.504,4.273-0.887
			C481.992,211.939,483.029,215.766,481.666,218.662z"/>
	</g>
	<g>
		<path fill="#A1856E" d="M479.277,209.135c-1.025-16.613-9.883-30.415-19.406-36.778c-1.619-1.081-3.521-2.015-5.542-2.786
			c-0.3,0.252-0.602,0.494-0.903,0.719c-5.084,3.793-11.779,5.521-15.85,5.521c-0.096,0-0.189-0.001-0.279-0.003
			c-2.183-0.05-4.973-1.568-7.609-4.396c-5.865,5.183-9.747,13.705-24.482,18.236l0.832,4.82
			c15.455-1.277,21.025-5.557,21.025-5.557s-3.377,10.834-4.01,21.399c1.861,10.432,28.35,16.547,44.609,9.873
			c0-9.189-0.43-18.01-1.734-25.797c3.281,3.488,6.042,8.426,7.67,15.457L479.277,209.135z"/>
	</g>
	<g>
		<path fill="#A1856E" d="M452.426,155.057c-2.01-4.961-12.949-10.612-13.631-18.983c-6.307,1.615-10.619,0.941-13.143,2.336
			c-2.977,1.643-3.654,4.456-3.885,8.746c-1.418-7.275,2.15-14.857,6.928-19.053c4.621-4.063,22.316-9.055,31.031-1.375
			c13.25,11.675,7.594,27.648,15.17,37.171c-4.072,6.833-14.684,6.833-18.107,2.966
			C453.338,162.968,454.391,159.911,452.426,155.057z"/>
		<g>
			<path fill="#A1856E" d="M452.791,160.155c-0.285-1.458-0.581-2.965-1.293-4.723c-0.694-1.714-2.77-3.706-4.969-5.813
				c-3.607-3.46-7.662-7.348-8.578-12.314c-2.659,0.598-4.953,0.815-6.839,0.995c-2.153,0.205-3.855,0.366-4.976,0.986
				c-2.551,1.408-3.152,3.871-3.371,7.924l-0.193,3.589c0.018,0.484,0.025,0.97,0.062,1.451l0.023,0.284
				c0.014,0.122,0.025,0.237,0.033,0.342c1.963,14.643,10.498,21.84,14.629,21.935c3.348,0.077,10.225-1.378,15.508-5.32
				c1.006-0.75,1.916-1.617,2.764-2.514C453.678,164.583,453.234,162.426,452.791,160.155z M426.521,154.106
				c-0.719-0.033-1.254-1.369-1.186-2.983c0.074-1.616,0.723-2.901,1.449-2.869s1.258,1.367,1.188,2.983
				C427.898,152.856,427.252,154.138,426.521,154.106z M436.34,154.446c-0.824-0.038-1.439-1.349-1.37-2.933
				c0.071-1.585,0.798-2.838,1.626-2.803c0.826,0.037,1.438,1.351,1.369,2.934C437.896,153.226,437.166,154.481,436.34,154.446z"/>
		</g>
	</g>
</g>
<g>
	<path fill="#EFBFA9" d="M457.008,212.213c0,2.143-1.818,3.879-5.234,3.879s-6.186-1.736-6.186-3.879
		c0-2.145,2.77-3.879,6.186-3.879S457.008,210.068,457.008,212.213z"/>
	<path fill="#A1856E" d="M472.107,215.686c0.373-1.064,0.352-2.238-0.617-2.969c-1.719-1.301-4.242,0.139-4.906,1.775
		c-0.125,0.305-1.963,3.135,0,3.6c1.707,0.402,3.348,0.623,4.531-0.707C471.51,216.941,471.881,216.334,472.107,215.686z"/>
	<g>
		<path fill="#A1856E" d="M463.156,214.73c-1.154,0.215-1.664-0.68-0.818-1.615c0.703-0.779,1.854-1.137,2.871-1.176
			c0.389-0.016,1.031-0.031,1.293,0.326C467.145,213.145,463.77,214.617,463.156,214.73z"/>
		<g>
			<path fill="#9F9F9D" d="M461.062,214.719c-0.151-0.34-0.178-0.715-0.098-1.092c-2.391,0.012-4.186,0.029-4.186,0.029
				c-0.992-1.059-2.455-1.623-5.652-1.623c-3.057,0-5.457,1.346-5.457,2.453c0,1.199,2.549,3.027,5.746,3.027
				c3.568,0,5.15-1.59,5.592-2.016c0,0,2.137,0,4.77,0C461.463,215.318,461.213,215.057,461.062,214.719z"/>
		</g>
	</g>
	<path fill="#A1856E" d="M489.324,288.736c-1.496,0.041-4.926,0.045-6.045-0.867c-2.42-1.957,2.057-3.266,4.291-3.664
		C493.309,283.191,495.982,288.545,489.324,288.736z"/>
	<path fill="#A1856E" d="M538.463,294.742c-1.49,0.039-4.924,0.041-6.043-0.869c-2.418-1.957,2.055-3.266,4.291-3.662
		C542.449,289.195,545.123,294.551,538.463,294.742z"/>
	<g>
		<g>
			<path fill="#A1856E" d="M541.959,240.176c-4.756,1.578-10.293,2.412-16.197,2.412c-13.457,0-28.088-4.365-32.811-11.855
				c-7.566,15.045-6.756,41.807-6.309,52.057l5.17,0.4c6.605-14.012,14.377-24.088,21.59-30.988
				c5.117,12.943,10.115,23.92,21.396,36.588l5.188-0.064C537.864,267.643,539.648,255.459,541.959,240.176z"/>
		</g>
	</g>
	<g>
		<path fill="#A1856E" d="M560.139,236.617c-0.703,1.494-2.928,2.803-4.15,1.697c-1.549-1.4,0.412-5.029-1.289-6.1
			c-1.006-0.631-2.824,1.998-3.107,1.736c-1.561-1.432-0.641-4.158,0.523-5.605c1.09-1.35,3.326-1.732,4.932-1.021
			C560.518,228.859,561.713,233.275,560.139,236.617z"/>
	</g>
	<g>
		<path fill="#A1856E" d="M530.148,164.794c-2.77-1.696-4.855-1.418-7.449-1.781c-0.322-6.511-1.219-11.197-4.068-15.089
			c-2.41-3.275-7.648-5.978-12.42-6.754c-3.541-0.573-7.824-0.508-10.734,1.102c-3.436,1.896-4.184,6.89-4.449,11.839
			c-1.639-8.394,2.48-17.143,7.992-21.983c5.334-4.688,22.648-10.21,33.434-2.253c17.49,12.899,7.301,38.192,5.184,41.556
			c-0.824,1.311-4.9,4.721-6.201,5.421C532.615,171.356,532.529,166.252,530.148,164.794z"/>
		<g>
			<path fill="#A1856E" d="M529.658,165.597c-0.609-0.374-1.207-0.659-1.826-0.87c-1.154-0.397-2.262-0.493-3.43-0.591
				c-0.584-0.049-1.191-0.103-1.832-0.192l-0.77-0.108l-0.041-0.775c-0.297-5.974-1.074-10.741-3.889-14.581
				c-2.17-2.954-7.396-5.59-11.574-6.282c-3.143-0.519-7.814-0.465-10.344,0.999c-3.086,1.781-3.736,6.264-3.988,10.964
				c-0.104,1.937-0.084,3.898,0.062,5.828l0.025,0.327c0.018,0.141,0.029,0.274,0.041,0.395c2.262,16.896,12.111,25.2,16.877,25.31
				c3.863,0.087,11.799-1.592,17.893-6.14c1.354-1.01,2.586-2.186,3.689-3.408C531.721,170.907,531.373,166.646,529.658,165.597z
				 M496.512,162.131c-0.83-0.039-1.447-1.579-1.369-3.441c0.088-1.865,0.834-3.347,1.674-3.311
				c0.836,0.037,1.451,1.578,1.369,3.443C498.102,160.688,497.354,162.168,496.512,162.131z M507.84,162.522
				c-0.951-0.043-1.661-1.556-1.58-3.384c0.082-1.828,0.92-3.273,1.877-3.232c0.951,0.042,1.658,1.558,1.578,3.385
				C509.635,161.116,508.793,162.563,507.84,162.522z"/>
			<g>
				<path fill="#A1856E" d="M557.383,225.625c-1.184-19.168-11.402-35.093-22.391-42.436c-1.912-1.277-4.168-2.374-6.561-3.275
					c-0.322,0.269-0.646,0.525-0.97,0.767c-6.235,4.653-14.3,6.342-18.198,6.342c-0.107,0-0.213-0.001-0.315-0.004
					c-1.974-0.045-4.892-1.397-7.821-4.195c-7.469,8.075-11.381,22.53-27.639,29.061l0.961,5.561
					c17.832-1.473,23.965-13.414,23.965-13.414s0.822,11.812-5.904,22.949c2.146,12.039,32.711,19.092,51.471,11.393
					c0-10.602-0.496-20.779-2.002-29.766c3.787,4.025,6.973,9.721,8.85,17.834L557.383,225.625z"/>
			</g>
		</g>
	</g>
</g>
<g>
	<g>
		<g>
			<g>
				<path fill="#C83B0C" d="M599.475,324.812c1.67,0.279,5.518,0.814,6.92-0.031c3.018-1.824-1.8-3.988-4.248-4.779
					C595.863,317.969,592.029,323.564,599.475,324.812z"/>
				<path fill="#C83B0C" d="M549.49,324.717c-1.682,0.172-5.559,0.471-6.9-0.465c-2.9-2.002,2.041-3.865,4.535-4.504
					C553.52,318.107,557,323.93,549.49,324.717z"/>
			</g>
			<g>
				<g>
					<path fill="#C83B0C" d="M576.346,269.008c-11.602,0-24.985-1.846-30.109-6.764c-0.211,0.506-0.424,1.008-0.611,1.547
						c-5.201,15.045-2.951,35.873,0.387,54.039l6.643,0.25c6.451-16.398,13.012-29.885,22.676-37.527
						c8.307,4.895,16.979,20.895,22.211,37.648l6.061,0.135c2.006-10.938,9.344-36.414,5.346-56.82
						C603.662,266.66,589.793,269.008,576.346,269.008z"/>
				</g>
			</g>
			<path fill="#C83B0C" d="M628.49,252.619c-0.732-0.615-0.736-2.193-0.377-3.037c0.69-1.619,1.943-3.586,3.775-3.445
				c4.029,0.309,6.387,6.988,3.676,9.91c-0.723,0.781-2.26,1.07-3.023,0.059c-0.918-1.215,0.639-3.746-0.941-4.787
				c-1.057-0.693-0.717,1.078-1.809,1.449C629.215,252.961,628.791,252.873,628.49,252.619z"/>
			<g>
				<path fill="#C83B0C" d="M553.844,154.571c-0.418,0.507-0.818,1.052-1.193,1.646c-6.586,10.492-3.939,27.801-3.939,27.801
					l1.428-1.553l2.146,4.458l0.475-0.516c-1.127-3.887-1.811-8.389-1.764-13.489c0.064-7.253,2.555-13.92,6.814-19.084
					C556.393,154.053,555.047,154.31,553.844,154.571z"/>
			</g>
			<path fill="#C83B0C" d="M570.76,152.826c5.984,1.386,10.107,8.146,11.377,11.237c0.73,1.769,2.611,4.979,3.518,13.133
				c0.678,6.093,0.65,18.546,0.668,18.667c1.613-0.293,4.674-2.852,4.674-2.852l1.375,8.182l6.234-6.105l0.855,4.326
				c0,0,6.908-13.387,7.734-24.784c0.781-10.827-4.219-19.636-8.824-23.984c-3.822-3.608-7.85-6.186-13.678-7.161
				c-6.445-1.08-11.908,0.148-19.396,0.992c-5.965,0.674-17.574,0.312-17.574,0.312l8.393,4.545l-7.984,5.706
				C548.131,155.04,561.646,150.712,570.76,152.826z"/>
			<g>
				<path fill="#C83B0C" d="M588.021,197.826c-6.846,4.037-14.517,5.869-19.595,5.869c-0.707,0-1.363-0.035-1.952-0.107
					c-1.741-0.211-3.896-1.389-6.041-3.471c-17.194,8.393-23.987,28.828-40.367,32.143l2.203,6.568
					c14.168,1.734,29.693-16.982,29.693-16.982s-5.25,16.764-6.846,36.322c1.5,13.508,63.109,12.971,65.012-0.754
					c-2.963-17.084-6.92-36.312-6.92-36.312s14.352,7.568,24.363,25.643l6.631-3.291
					C626.904,225.18,611.566,203.318,588.021,197.826z"/>
			</g>
			<path fill="#C83B0C" d="M590.309,194.773c-0.914,0.668-2.137,1.482-3.139,1.854c-0.24,0.09-0.467,0.154-0.676,0.191l-0.994,0.18
				l-0.139-1c-0.012-0.08-0.012-0.08-0.016-0.832c-0.051-8.4-0.273-14.409-0.656-17.863c-0.764-6.891-2.215-10.108-3.078-12.031
				c-0.143-0.312-0.268-0.591-0.369-0.839c-1.039-2.516-4.977-9.334-10.699-10.661c-3.441-0.797-7.572-0.633-11.328-0.141
				c-4.334,4.833-7.178,11.397-7.25,19.294c-0.166,18.844,9.596,29.057,14.631,29.67c4.824,0.584,15.184-1.326,23.768-7.484
				L590.309,194.773z M558.092,172.94c-0.273,1.883-1.18,3.311-2.029,3.189c-0.84-0.122-1.316-1.746-1.043-3.63
				c0.271-1.884,1.18-3.312,2.025-3.191C557.891,169.431,558.359,171.056,558.092,172.94z M569.793,175.262
				c-0.268,1.844-1.262,3.229-2.229,3.091c-0.959-0.139-1.527-1.745-1.264-3.589c0.264-1.85,1.262-3.231,2.227-3.094
				C569.486,171.808,570.053,173.416,569.793,175.262z"/>
		</g>
	</g>
	<path fill="#EFBFA9" d="M501.295,232.473c0,2.557-2.17,4.627-6.244,4.627s-7.377-2.07-7.377-4.627s3.303-4.627,7.377-4.627
		S501.295,229.916,501.295,232.473z"/>
	<path fill="#C83B0C" d="M519.309,236.617c0.443-1.271,0.416-2.672-0.736-3.543c-2.053-1.551-5.062,0.166-5.855,2.119
		c-0.146,0.363-2.342,3.74,0,4.291c2.037,0.482,3.996,0.746,5.406-0.842C518.594,238.115,519.037,237.391,519.309,236.617z"/>
	<g>
		<path fill="#C83B0C" d="M508.629,235.477c-1.377,0.256-1.984-0.811-0.975-1.926c0.838-0.93,2.209-1.357,3.426-1.404
			c0.461-0.018,1.229-0.035,1.541,0.391C513.387,233.586,509.359,235.342,508.629,235.477z"/>
		<g>
			<path fill="#9F9F9D" d="M511.521,235.316c-0.957,0.541-1.967,0.926-2.461,1.076c0.655,0,1.316,0,1.97,0
				C511.188,235.988,511.365,235.615,511.521,235.316z"/>
			<path fill="#9F9F9D" d="M506.31,235.385c-0.169-0.381-0.198-0.801-0.099-1.227c-2.949,0.016-5.189,0.037-5.189,0.037
				c-1.182-1.262-2.928-1.936-6.742-1.936c-3.646,0-6.51,1.604-6.51,2.926c0,1.432,3.043,3.609,6.855,3.609
				c4.258,0,6.143-1.895,6.67-2.402c0,0,2.828,0,6.195,0C506.955,236.225,506.529,235.881,506.31,235.385z"/>
		</g>
	</g>
</g>
<path fill="#69C4BA" d="M438.609,374.668c15.016,0.914,29.859-11.785,32.453-18.672c4.402-11.684-2.863-22.557-18.105-26.145
	c-16.463-3.879-24.266,6.354-26.203,17.996c-1.242,7.463-0.756,21.535,8.953,26.207c-1.09,0.188-1.951,0.812-3.17,0.881
	c0.213,0.68,3.392,3.346,5.059,3.709C439.264,377.742,438.609,374.668,438.609,374.668z"/>
<path fill="#81B1CA" d="M533.82,343.543c5.643,13.906,27.088,20.672,36.281,19.459c15.6-2.057,25.037-14.137,22.414-29.617
	c-2.832-16.723-18.254-18.453-32.701-14.215c-9.262,2.719-25.461,10.377-26.572,21.461c-0.707-0.879-1.82-1.328-2.445-2.385
	c-0.697,0.541-2.387,4.752-2.066,6.43C530.527,345.707,533.82,343.543,533.82,343.543z"/>
<path fill="#D77457" d="M534.84,364.023c-0.877-18.393-22.953-34.943-34.088-37.277c-18.893-3.961-34.729,6.188-37.988,25.174
	c-3.52,20.508,13.631,28.783,32.076,29.75c11.826,0.619,33.691-1.66,39.488-14.039c0.459,1.305,1.564,2.277,1.857,3.754
	c1.027-0.342,4.697-4.529,5.008-6.604C539.533,362.857,534.84,364.023,534.84,364.023z"/>
</svg>
