<?xml version="1.0" encoding="utf-8"?>
<!-- Generator: Adobe Illustrator 15.0.2, SVG Export Plug-In . SVG Version: 6.00 Build 0)  -->
<!DOCTYPE svg PUBLIC "-//W3C//DTD SVG 1.1//EN" "http://www.w3.org/Graphics/SVG/1.1/DTD/svg11.dtd">
<svg version="1.1" id="Layer_1" xmlns="http://www.w3.org/2000/svg" xmlns:xlink="http://www.w3.org/1999/xlink" x="0px" y="0px"
	 width="720px" height="460px" viewBox="0 0 720 460" enable-background="new 0 0 720 460" xml:space="preserve">
<g>
	<g>
		<polygon fill="#F5EBD1" points="393.983,73.825 393.983,308.622 121.082,308.622 120.326,73.052 		"/>
		<polygon fill="#B2B748" points="450.878,397.86 636.237,397.86 535.903,306.253 393.983,306.253 		"/>
		<g>
			<polygon fill="#D7A89E" points="121.082,308.622 83.762,397.86 450.878,397.86 393.983,308.622 			"/>
			<polygon fill="#D1C5AA" points="607.216,371.364 435.239,371.364 403.749,324.415 555.796,324.415 			"/>
		</g>
		<path fill="#8E7565" d="M452.466,224.657c0.148,0,0.723,0,0.871,0c2.084,0,3.771,2.227,3.771,4.973s-1.688,4.973-3.771,4.973
			c-0.148,0-0.723,0-0.871,0c-2.084,0-3.771-2.227-3.771-4.973S450.382,224.657,452.466,224.657z"/>
	</g>
	<g>
		<polygon fill="#8E7565" points="435.239,106.249 443.956,106.249 443.956,372.903 435.239,372.903 429.229,363.653 
			429.229,123.306 414.257,126.372 414.257,329.687 407.171,329.687 403.749,324.415 403.749,115.753 		"/>
		<polygon fill="#AE9E7D" points="429.229,350.632 429.229,363.653 407.171,329.687 414.257,329.687 		"/>
		<g>
			<polygon fill="#9EB8CC" points="393.983,308.622 393.983,73.853 450.878,42.14 450.878,397.86 435.239,372.903 435.239,106.249 
				403.749,115.753 403.749,324.415 			"/>
			<rect x="450.878" y="42.14" fill="#97ADC2" width="7.004" height="355.721"/>
		</g>
		<rect x="407.171" y="126.372" fill="#A1856E" width="7.086" height="203.314"/>
		<polygon fill="#D1C5AA" points="401.171,329.687 330.048,314.841 330.048,134.04 401.171,124.704 		"/>
		<polygon fill="#B4A68A" points="401.171,329.687 407.171,327.841 407.171,126.372 401.171,124.704 		"/>
	</g>
</g>
<g>
	<g>
		<g>
			<path fill="#A1856E" d="M211.669,301.61c-7.612,0-16.834-0.574-20.918-2.109c1.566,14.258,5.877,30.654,3.535,49.688l5.086-0.281
				c9.953-14.689,16.881-27.27,20.021-37.807c6.957,5.91,13.293,18.375,17.572,34.523l5.34-0.055
				c4.355-17.691,7.166-34.775,4.931-50.256C239.326,301.253,216.855,301.61,211.669,301.61z"/>
		</g>
	</g>
	<g>
		<polygon fill="#C7A53A" points="141.451,333.915 186.093,351.272 200.98,345.624 203.572,306.032 154.664,292.294 
			139.058,297.015 		"/>
		<polygon fill="#E1CC6C" points="186.238,311.698 203.572,306.032 154.664,292.294 139.058,297.015 		"/>
	</g>
	<g>
		<g>
			<path fill="#A1856E" d="M168.291,296.532c2.336,2.199,5.123,0.75,6.375-0.316c0,0-1.5-0.438-2.688-0.938
				c-0.721-1.438-0.41-2.932,0.67-3.857c1.369-1.172,3.393-0.514,3.393-0.514c0.373-1.223,0.041-2.002-0.441-2.717
				c-1.062-1.574-3.314-1.961-4.936-1.301C167.154,288.321,165.228,293.653,168.291,296.532z"/>
			<g>
				<path fill="#BF9930" d="M179.855,293.649c-0.219-0.258-1.648-1.201-2.689-1.533c-0.68-0.217-1.553-0.459-2.293-0.459
					c-0.6,0-1.219,0.219-1.573,0.523c-0.675,0.578-0.878,1.445-0.567,2.324c1.045,0.408,2.2,0.746,2.213,0.75
					c0,0,1.565,0.318,1.809,1.002c0.197,0.555,0.082,1.914,0.059,2.83c-0.021,0.803-0.042,1.633-0.018,2.467
					c0.03,1.084,0.92,1.943,1.998,1.943c0.02,0,0.039,0,0.059-0.002c1.104-0.031,1.973-0.951,1.941-2.057
					c-0.021-0.744-0.001-1.512,0.018-2.25C180.872,296.794,180.919,294.899,179.855,293.649z"/>
				<path fill="#BF9930" d="M165.883,291.603c0.161-0.867,0.479-1.691,0.905-2.443c-2.09-0.324-2.541-0.006-2.973,0.309
					c-1.606,1.178-1.551,3.629-1.496,6c0.009,0.4,0.018,0.77,0.012,1.072c-0.022,1.105,0.854,2.018,1.959,2.041
					c1.097-0.01,2.018-0.854,2.04-1.959c0.007-0.326-0.001-0.721-0.011-1.145C165.787,294.323,165.625,292.989,165.883,291.603z"/>
			</g>
		</g>
	</g>
	<g>
		<path fill="#A1856E" d="M264.423,293.487c-0.779,1.105-1.736,2.164-2.988,1.098c-1.107-0.943-0.734-2.236-0.748-3.473
			c-0.021-1.58-0.314-2.781-1.254-3.039c-1.268-0.35-1.521,1.998-2.496,1.824c-0.779-0.137-0.832-1.164-0.83-2.082
			c0.008-0.992,0.568-2.207,1.051-2.92c1.062-1.574,2.639-2.016,4.26-1.354C264.927,284.974,266.662,290.321,264.423,293.487z"/>
	</g>
	<g>
		<path fill="#A1856E" d="M195.666,355.171c1.408,0.236,6.559,0.055,7.34-0.99c1.531-2.049-2.93-3.5-5.078-3.867
			C192.98,349.472,190.07,354.228,195.666,355.171z"/>
	</g>
	<g>
		<path fill="#A1856E" d="M238.664,351.618c1.41,0.238,6.561,0.057,7.342-0.988c1.529-2.049-2.932-3.5-5.08-3.867
			C235.978,345.921,233.068,350.677,238.664,351.618z"/>
	</g>
	<g>
		<path fill="#A1856E" d="M255.607,283.12l6.346-1.738c-2.775-14.57-12.69-34.754-31.889-41.627
			c-2.805,3.127-5.812,4.799-8.145,4.852c-0.094,0.004-0.189,0.004-0.287,0.004c-4.195,0-11.098-1.781-16.34-5.693
			c-0.053-0.039-0.105-0.086-0.16-0.125c-16.826,4.816-29.895,21.438-35.537,44.328l6.059,2.564
			c9.225-19.129,18.893-22.475,18.893-22.475s-4.803,22.91-5.08,34.068c-0.119,4.729,58.248,5.848,59.527-6.297
			c-0.828-14.529-8.631-31.275-8.631-31.275S250.292,267.495,255.607,283.12z"/>
	</g>
	<g>
		<path fill="#A1856E" d="M208.091,224.032c1.299-4.928,2.615-11.023,5.164-14.502c2.156-2.932,6.842-5.35,11.111-6.045
			c3.166-0.512,6.998-0.453,9.604,0.986c3.072,1.697,3.74,6.162,3.979,10.592c1.465-7.51-2.219-15.336-7.15-19.668
			c-4.771-4.191-20.26-9.133-29.908-2.014c-15.648,11.539-10.359,30.41-14.025,42.387c4.582,2.66,12.232,2.775,14.936-0.361
			C204.505,232.269,206.792,228.958,208.091,224.032z"/>
		<g>
			<path fill="#A1856E" d="M236.951,215.118c-0.215-4.004-0.795-8.297-3.463-9.771c-1.367-0.756-3.289-1.154-5.555-1.154
				c-1.109,0-2.256,0.094-3.406,0.279c-4.154,0.676-8.555,3.053-10.465,5.648c-2.105,2.875-3.375,7.828-4.494,12.197
				c-0.172,0.67-0.34,1.33-0.51,1.969c-1.326,5.031-3.653,8.389-6.036,11.223c0.878,0.93,1.824,1.828,2.868,2.607
				c5.451,4.068,12.551,5.57,16.006,5.492c4.266-0.098,13.074-7.527,15.1-22.641c0.01-0.109,0.02-0.229,0.037-0.355l0.021-0.291
				c0.047-0.604,0.061-1.211,0.078-1.816L236.951,215.118z M222.908,222.589c-0.852,0.035-1.605-1.26-1.676-2.893
				c-0.072-1.633,0.561-2.99,1.412-3.029c0.855-0.035,1.605,1.258,1.678,2.895C224.396,221.196,223.759,222.548,222.908,222.589z
				 M233.041,222.237c-0.752,0.033-1.42-1.289-1.496-2.961c-0.072-1.668,0.477-3.047,1.227-3.08s1.42,1.293,1.496,2.963
				C234.337,220.825,233.787,222.204,233.041,222.237z"/>
		</g>
	</g>
</g>
<g>
	<g>
		<g>
			<path fill="#7A574A" d="M342.228,299.999c-11.311,0-21.621-2.529-27.035-6.461c-3.561,17.186-1.734,35.611,0.791,48.56
				l5.293,0.614c3.865-13.179,10.486-23.224,20.07-30.89c9.133,7.666,13.826,20.677,17.1,36.464l6.184-0.062
				c3.664-18.037,4.492-33.068,4.492-48.534c0-2.039-0.012-3.875-0.07-5.553C362.005,297.923,352.548,299.999,342.228,299.999z"/>
		</g>
	</g>
	<path fill="#7A574A" d="M276.597,220.196c0.572-1.165,2.758-1.323,4.76,0.21c1.256,0.957,1.297,2.393,2.266,2.459
		c1.307,0.092,0.803-1.922,1.793-1.942c0.787-0.017,1.119,0.962,1.215,1.876c0.127,1.168,0.012,2.691-0.383,3.459
		c-0.758,1.492-1.742,2.275-3.865,1.933c-1.881-0.302-2.844-1.306-4.436-3.223C276.472,223.188,275.962,221.5,276.597,220.196z"/>
	<path fill="#7A574A" d="M391.19,301.716c-0.875,1.03-1.92,2-3.072,0.825c-1.016-1.033-0.529-2.287-0.436-3.519
		c0.119-1.574-0.064-2.793-0.977-3.133c-1.227-0.46-1.688,1.854-2.643,1.591c-0.762-0.203-0.727-1.229-0.643-2.141
		c0.096-0.988,0.762-2.145,1.307-2.812c1.193-1.47,2.801-1.77,4.354-0.967C392.444,293.296,393.696,298.766,391.19,301.716z"/>
	<path fill="#7A574A" d="M318.798,348.238c-1.49,0.044-4.91,0.048-6.027-0.863c-2.41-1.948,2.053-3.255,4.279-3.65
		C322.771,342.714,325.435,348.051,318.798,348.238z"/>
	<path fill="#7A574A" d="M361.692,353.779c-1.486,0.039-4.906,0.041-6.021-0.867c-2.412-1.953,2.049-3.257,4.277-3.648
		C365.669,348.248,368.335,353.591,361.692,353.779z"/>
	<g>
		<path fill="#7A574A" d="M382.716,291.129l6.252-2.012c-6.986-25.524-17.762-44.913-37.74-49.868
			c-5.717,3.104-11.625,4.269-15.373,4.269c-0.648,0-1.248-0.034-1.781-0.104c-2.02-0.26-4.688-2.072-7.074-5.279
			c-14.359,0.037-28.191-1.049-39.093-10.763l-4,3.52c15.863,17.384,33.708,22.025,33.708,22.025s-1.316,17.219-3.805,38.066
			c7.617,8.636,38.443,11.879,55.885,1.654c-0.572-16.566-5.662-28.035-5.662-28.035S373.397,272.166,382.716,291.129z"/>
	</g>
	<g>
		<path fill="#7A574A" d="M361.005,199.311c-3.166-3.031-6.506-5.202-11.357-6.055c-5.367-0.938-11.682-0.504-17.262,1.725
			c-4.646,1.855-6.961,4.133-9.523,8.697c-5.061,9.002-3.459,23.145-3.459,23.145l1.201-1.283l1.76,3.729l0.4-0.426
			c-0.916-3.25-1.457-7.005-1.387-11.258c0.084-5.258,3.75-12.294,7.061-16.856c3.16-0.374,6.621-0.468,9.537,0.233
			c4.98,1.189,8.375,6.852,9.414,9.438c0.6,1.477,2.145,4.163,2.852,10.964c0.525,5.083,0.43,15.467,0.441,15.568
			c1.35-0.234,3.914-2.352,3.914-2.352l3.688,7.773l2.643-5.994l6.756,5.779c0,0-0.227-13.285,0.529-22.78
			C368.931,210.336,364.815,202.963,361.005,199.311z"/>
		<path fill="#7A574A" d="M350.854,237.917l-1.033,0.18l-0.131-1.041c-0.01-0.076-0.01-0.076-0.008-0.685
			c0.01-7.005-0.137-12.02-0.436-14.904c-0.598-5.733-1.777-8.403-2.484-9.998c-0.115-0.259-0.215-0.487-0.301-0.696
			c-0.834-2.079-4.027-7.719-8.721-8.84c-1.363-0.327-2.965-0.492-4.766-0.492c-1.229,0-2.568,0.076-3.982,0.23
			c-3.279,4.625-6.539,11.236-6.615,15.93c-0.064,3.875,0.391,7.565,1.35,10.971l0.205,0.681c2.506,8.261,7.271,12.783,10.268,13.17
			c4.016,0.52,12.662-1.013,19.855-6.095l-0.01-0.066C353.101,236.94,351.813,237.75,350.854,237.917z M327.292,217.646
			c-0.238,1.572-1.006,2.753-1.709,2.648c-0.701-0.106-1.086-1.464-0.85-3.029c0.236-1.57,1.004-2.756,1.709-2.649
			C327.147,214.721,327.528,216.08,327.292,217.646z M337.034,219.655c-0.238,1.536-1.072,2.681-1.881,2.564
			c-0.799-0.124-1.26-1.464-1.031-3c0.234-1.541,1.07-2.685,1.875-2.567C336.796,216.774,337.261,218.117,337.034,219.655z"/>
	</g>
</g>
</svg>
