<?xml version="1.0" encoding="utf-8"?>
<!-- Generator: Adobe Illustrator 15.0.2, SVG Export Plug-In . SVG Version: 6.00 Build 0)  -->
<!DOCTYPE svg PUBLIC "-//W3C//DTD SVG 1.1//EN" "http://www.w3.org/Graphics/SVG/1.1/DTD/svg11.dtd">
<svg version="1.1" id="Layer_1" xmlns="http://www.w3.org/2000/svg" xmlns:xlink="http://www.w3.org/1999/xlink" x="0px" y="0px"
	 width="720px" height="460px" viewBox="0 0 720 460" enable-background="new 0 0 720 460" xml:space="preserve">
<g>
	<g>
		<path fill="#E0D3B5" d="M369.327,280.303c0,1.65-1.35,3-3,3H246.181c-1.65,0-3-1.35-3-3V59.33c0-1.65,0.998-3.909,2.217-5.021
			l4.544-4.142c1.22-1.112,3.567-2.021,5.217-2.021h102.191c1.65,0,3.998,0.91,5.217,2.021l4.543,4.142
			c1.219,1.111,2.217,3.371,2.217,5.021V280.303z"/>
	</g>
	<g>
		<path fill="#BAD0DE" d="M363.589,270.969c0,1.65-1.35,3-3,3h-108.67c-1.65,0-3-1.35-3-3V67.92c0-1.65,1.35-3,3-3h108.67
			c1.65,0,3,1.35,3,3V270.969z"/>
	</g>
	<g>
		<path fill="#DEEBF1" d="M358.745,262.854c0,1.65-1.35,3-3,3h-98.982c-1.65,0-3-1.35-3-3V86.945c0-1.65,1.35-3,3-3h98.982
			c1.65,0,3,1.35,3,3V262.854z"/>
	</g>
	<rect x="248.919" y="147.137" fill="#BAD0DE" width="111.113" height="7.967"/>
	<rect x="248.919" y="115.352" fill="#BAD0DE" width="111.113" height="7.967"/>
	<rect x="248.919" y="180.82" fill="#BAD0DE" width="111.113" height="9.135"/>
	<rect x="248.919" y="215.326" fill="#BAD0DE" width="111.113" height="12.195"/>
	<polygon fill="#E0D3B5" points="326.161,296.465 243.749,267.965 243.749,117.857 247.661,116.746 330.411,139.354 
		326.161,140.965 	"/>
	<rect x="326.161" y="139.354" fill="#E0D3B5" width="4.25" height="157.111"/>
	<path fill="#F3E6C6" d="M326.161,296.465l-82.98-29.611V116.746c0,0,2.193,6.859,8.029,8.76c10,3.256,37.355,11.766,53.701,16.348
		c8.195,2.299,21.25-0.889,21.25-0.889V296.465z"/>
	<g>
		<path fill="#F3E6C6" d="M369.327,113.336c0,3.3-2.7,6-6,6H249.181c-3.3,0-6-2.7-6-6V60.152c0-3.3,2.7-6,6-6h114.146
			c3.3,0,6,2.7,6,6V113.336z"/>
	</g>
	<path fill="#C9BB9C" d="M360.032,96.076c-0.829,0-1.5-0.672-1.5-1.5V76.625c0-0.828,0.671-1.5,1.5-1.5c0.828,0,1.5,0.672,1.5,1.5
		v17.951C361.532,95.404,360.86,96.076,360.032,96.076z"/>
</g>
<polygon fill="#D7A89E" points="571.755,411.854 148.245,411.854 249.245,269.418 489.245,269.418 "/>
<g>
	<g>
		<path fill="#7A574A" d="M454.239,194.466c0,0-9.009,8.354-50.986,3.908l-4.665,9.212c36.564,14.031,65.143,14.531,86.338,1.42"/>
		<g>
			<g>
				<g>
					<path fill="#7A574A" d="M432.734,258.84c0.24-21.195,15.246-25.221,36.762-25.195c6.743,0.009,5.562,11.85,6.631,16.861
						c1.025,4.803,2.426,9.061,3.918,13.68c1.986,6.146,7.33,10.48,14.317,9.25c6.98-1.229,11.538-8.385,12.693-14.599
						c0.501-2.698,0.873-6.516,2.572-8.753c3.305-4.354,4.688,0.768,4.892,4.224c1.679,28.558-7.124,59.562-17.111,87.925
						l-8.562-0.194c-5.204-24.44-9.395-40.744-18.623-53.655c-8.682,10.437-14.344,20.07-20.707,41.697l-9.387-0.354
						C434.923,302.512,432.492,280.271,432.734,258.84z"/>
				</g>
			</g>
			<g>
				<path fill="#7A574A" d="M492.43,351.616c-2.384,0.181-7.871,0.435-9.732-0.934c-4.011-2.952,3.044-5.382,6.592-6.181
					C498.389,342.449,503.065,350.817,492.43,351.616z"/>
			</g>
			<g>
				<path fill="#7A574A" d="M444.84,339.092c-2.377,0.245-7.855,0.666-9.753-0.652c-4.097-2.83,2.886-5.463,6.408-6.367
					C450.533,329.758,455.449,337.982,444.84,339.092z"/>
			</g>
			<path fill="#FFFFFF" d="M475.332,166.799c0.003,0,0.004,0,0.007,0c34.765,0.01,41.017,61.588,40.998,89.229
				c-0.006,8.814-17.536,12.613-36.801,12.613c-23.522,0-49.633-5.657-49.634-14.754
				C429.902,223.35,447.193,166.803,475.332,166.799 M475.339,165.799L475.339,165.799h-0.007
				c-12.838,0.002-24.979,11.613-34.184,32.693c-7.439,17.037-12.246,38.781-12.246,55.395
				c0.001,10.866,29.609,15.754,50.634,15.754c10.359,0,19.319-1.053,25.911-3.044c9.823-2.967,11.888-7.385,11.89-10.569
				c0.005-7.334-0.521-32.998-7.501-55.275C502.57,177.562,490.964,165.803,475.339,165.799L475.339,165.799z"/>
		</g>
		<g>
			<path fill="#7A574A" d="M485.465,168.773l-0.003,0.217l-0.403,0.295c-8.259,6.043-18.403,8.747-24.794,8.747
				c-0.695,0-1.346-0.033-1.932-0.099c-0.856-0.096-1.808-0.412-2.808-0.927c-16.221,17.702-25.623,54.36-25.623,76.88
				c0.001,11.116,39.002,17.098,64.607,13.893l-7.48-3.4l0.021-0.344c2.618-41.241-5.821-50.305-5.906-50.391l0.705-0.709
				c0.362,0.359,8.812,9.241,6.221,50.818l8.299,3.771c0.115-0.018,0.227-0.036,0.341-0.054
				c12.265-36.858,11.483-64.724-2.389-85.172l0.828-0.561c13.995,20.63,14.864,48.63,2.666,85.56
				c10.81-1.789,18.518-5.426,18.521-11.271C516.354,231.318,511.356,179.499,485.465,168.773z"/>
		</g>
		<g>
			<path fill="#7A574A" d="M493.046,119.283c-4.292-3.977-8.777-6.933-15.298-7.832c-11.508-1.589-34.477,6.841-32.224,16.155
				c4.297-3.844,13.682-1.492,17.687,5.499c3.346,5.834,6.244,18.424,11.856,19.946c6.976,1.89,9.4,15.427,9.4,15.427
				s11.595-3.621,15.734-18.274C504.342,135.553,498.213,124.074,493.046,119.283z"/>
			<g>
				<path fill="#7A574A" d="M483.483,168.654c-0.023-0.129-2.386-12.934-8.678-14.637c-4.369-1.186-6.966-7.585-9.478-13.773
					c-1.024-2.525-1.992-4.91-2.984-6.642c-2.705-4.721-7.68-6.834-11.409-6.834c-1.935,0-3.565,0.544-4.722,1.567
					c-2.589,4.555-4.142,9.996-4.142,16.166c0.013,20.698,10.838,31.816,16.373,32.438c5.138,0.576,15.938-1.485,25.12-7.835
					L483.483,168.654z M448.603,153.983c-1.064,0.073-2.045-1.521-2.185-3.56c-0.14-2.052,0.609-3.76,1.678-3.837
					c1.062-0.075,2.046,1.524,2.185,3.564C450.421,152.195,449.672,153.91,448.603,153.983z"/>
			</g>
		</g>
	</g>
	<g>
		<ellipse fill="#A5B5C7" cx="390.895" cy="238.334" rx="9.538" ry="2.818"/>
		<path fill="#CBD4DF" d="M397.553,186.735c0-1.479-2.333-2.677-6.658-2.677c-4.452,0-6.654,1.198-6.654,2.677
			c0,1.479,2.253,2.677,6.654,2.677C395.22,189.412,397.553,188.215,397.553,186.735z"/>
		<path fill="#A3B4C6" d="M396.4,186.735c0-1.158-1.969-2.099-5.506-2.099c-3.375,0-5.504,0.94-5.504,2.099
			c0,1.159,2.053,2.1,5.504,2.1C394.404,188.835,396.4,187.895,396.4,186.735z"/>
		<path fill="#BAC6D4" d="M396.461,202.096c-1.079-1.582-2.308-2.482-5.208-3.317c-0.159-0.046-0.341-0.094-0.536-0.146
			c-1.188-0.315-2.929-0.78-3.746-1.768c0.031,0.381,0.057,0.768,0.073,1.164c0.801,0.545,1.498,1.35,1.952,2.338
			c0.733,1.602,0.382,3.854-0.916,5.875c-1.326,2.064-3.233,3.299-5.104,3.299c-0.174,0-0.349-0.012-0.523-0.033
			c-0.321-0.04-0.599-0.113-0.857-0.201c-0.856,1.889-1.471,4.037-1.471,6.539c0,11.341,0,23.182,0,23.182v0.002
			c0,1.756,4.823,3.182,10.77,3.182c5.948,0,10.77-1.426,10.77-3.182v-0.002c0,0,0-11.703,0-22.949
			C401.664,210.018,398.121,205.533,396.461,202.096z"/>
		<path fill="#D5DEE6" d="M390.895,212.018c-5.171,0-9.363,1.24-9.363,2.769v22.938c0,1.528,4.192,2.766,9.363,2.766
			c5.173,0,9.365-1.237,9.365-2.766v-22.938C400.26,213.258,396.067,212.018,390.895,212.018z"/>
		<path fill="#BE5438" d="M390.902,221.319c-5.954,0-10.781-1.427-10.781-3.185v17.765c0,1.759,4.827,3.185,10.781,3.185
			c5.955,0,10.78-1.426,10.78-3.185v-17.765C401.683,219.893,396.857,221.319,390.902,221.319z"/>
		<path fill="#C97159" d="M390.902,223.787c-5.954,0-10.781-1.428-10.781-3.185v8.12c0,1.758,4.827,3.184,10.781,3.184
			c5.955,0,10.78-1.426,10.78-3.184v-8.12C401.683,222.359,396.857,223.787,390.902,223.787z"/>
		<path fill="#E1E8EE" d="M400.26,214.786c0-1.528-4.192-2.769-9.365-2.769c-5.171,0-9.363,1.24-9.363,2.769
			c0,1.524,4.192,2.765,9.363,2.765C396.067,217.551,400.26,216.311,400.26,214.786z"/>
	</g>
	<g>
		<path fill="#7A574A" d="M391.529,197.817c-1.35-0.388-4.256-0.948-3.995-2.395c0.435-2.384,7.076-1.534,9.155-0.304
			c2.023,1.195,2.83,3.031,2.828,5.506c-0.002,0.697-0.186,1.821-0.93,3.119C396.841,200.515,395.804,199.047,391.529,197.817z"/>
		<g>
			<path fill="#7A574A" d="M382.734,199.338c1.794-2.147,4.357-0.719,5.353,1.446c1.309,2.857-2.054,8.162-5.51,7.731
				C378.272,207.977,381.029,201.382,382.734,199.338z"/>
			<g>
				<path fill="#BAC6D4" d="M391.064,192.908c1.642,0,3.527,0.324,4.92,0.809c0.513-3.914,1.386-6.445,1.386-6.445l-12.802,0.179
					c0,0,1.457,2.851,2.146,7.271C387.093,193.887,388.156,192.908,391.064,192.908z"/>
			</g>
		</g>
	</g>
</g>
<g>
	<polygon fill="#A15A34" points="542.827,314.893 178.228,314.893 174.579,303.947 546.476,303.947 	"/>
	<polygon fill="#AB6C4A" points="546.476,303.947 174.579,303.947 223.245,252.863 510.429,252.863 	"/>
	<polygon fill="#A15A34" points="509.819,401.389 499.091,401.744 496.749,395.004 506.476,309.42 524.108,309.42 	"/>
	<polygon fill="#A15A34" points="214.706,401.389 225.435,401.744 227.778,395.004 218.05,309.42 200.419,309.42 	"/>
</g>
<g>
	<path fill="#FFFFFF" d="M473.37,162.271c0.791,1.473,3.449,5.486,0.307,5.693C469.927,168.213,472.897,163.834,473.37,162.271z"/>
	<path fill="#FFFFFF" d="M475.78,186.123c0.791,1.473,3.449,5.486,0.307,5.693C472.337,192.064,475.308,187.686,475.78,186.123z"/>
	<path fill="#FFFFFF" d="M469.597,211.514c0.791,1.471,3.449,5.484,0.307,5.693C466.153,217.455,469.124,213.076,469.597,211.514z"
		/>
	<path fill="#FFFFFF" d="M465.894,146.793c0.791,1.473,3.449,5.486,0.307,5.693C462.45,152.734,465.421,148.355,465.894,146.793z"/>
</g>
<g>
	<g>
		<path fill="#C2C3C1" d="M459.228,258.736c-8.604-0.121-12.869,2.229-12.793,4.49l4.305,21.932
			c0.066,2.061,4.322,3.793,9.496,3.869c5.178,0.074,9.318-1.535,9.25-3.596l3.719-21.844
			C473.128,261.324,468.013,258.863,459.228,258.736z"/>
		<path fill="#DDDCD6" d="M473.308,263.566c0.059,1.953-4.604,4.598-13.857,4.475c-8.932-0.113-13.064-2.834-13.119-4.787
			c-0.057-1.961,4.471-4.635,12.844-4.525C467.548,258.836,473.249,261.609,473.308,263.566z"/>
		<path fill="#C2C3C1" d="M471.915,263.57c0.057,1.668-4.119,3.918-12.416,3.799c-8.012-0.119-11.723-2.449-11.775-4.119
			c-0.055-1.674,4-3.951,11.51-3.844C466.741,259.516,471.858,261.896,471.915,263.57z"/>
	</g>
	<path fill="#AAABA8" d="M468.481,285.244c0.049,1.549-3.555,2.754-8.059,2.689c-4.5-0.066-8.189-1.373-8.242-2.926
		c-0.051-1.551,3.553-2.75,8.057-2.686C464.737,282.387,468.427,283.693,468.481,285.244z"/>
</g>
</svg>
