<?xml version="1.0" encoding="utf-8"?>
<!-- Generator: Adobe Illustrator 15.0.2, SVG Export Plug-In . SVG Version: 6.00 Build 0)  -->
<!DOCTYPE svg PUBLIC "-//W3C//DTD SVG 1.1//EN" "http://www.w3.org/Graphics/SVG/1.1/DTD/svg11.dtd">
<svg version="1.1" id="Layer_1" xmlns="http://www.w3.org/2000/svg" xmlns:xlink="http://www.w3.org/1999/xlink" x="0px" y="0px"
	 width="720px" height="460px" viewBox="0 0 720 460" enable-background="new 0 0 720 460" xml:space="preserve">
<path fill="#C8DDE8" d="M276.17,35.99c132.334-20.889,252.945,1.708,332.333,98.071c52.807,64.103,48.229,149.072,5.21,199.819
	c-47.849,56.457-144.958,103.019-282.414,103.019c-132.843,0-233.975-67.217-271.433-132.812
	c-26.93-47.158-17.755-126.298,30.68-176.094C143.264,73.801,195.768,48.676,276.17,35.99z"/>
<polygon fill="#8E7565" points="182.271,341.596 166.558,321.403 127.251,326.694 127.251,331.23 139.044,353.993 182.271,347.945 
	"/>
<polygon fill="#AF9474" points="182.271,341.596 139.044,347.644 127.251,326.694 166.558,321.403 "/>
<path fill="#8E7565" d="M164.903,324.382c-0.272,0-0.494-0.221-0.498-0.493l-2.417-222.351c-0.004-0.275,0.217-0.5,0.493-0.503
	c0.27-0.003,0.501,0.217,0.504,0.493l2.417,222.35c0.004,0.275-0.217,0.502-0.493,0.505
	C164.907,324.382,164.905,324.382,164.903,324.382z"/>
<path fill="#8E7565" d="M132.42,329.353c-0.271,0-0.494-0.218-0.499-0.49l-3.324-221.868c-0.004-0.275,0.215-0.501,0.491-0.505
	c0.261-0.007,0.501,0.216,0.506,0.491l3.324,221.867c0.004,0.275-0.215,0.502-0.49,0.506
	C132.426,329.353,132.423,329.353,132.42,329.353z"/>
<path fill="#8E7565" d="M48.026,118.453c-0.506,0-0.938-0.384-0.991-0.897c-0.054-0.547,0.346-1.037,0.894-1.091
	c67.421-6.733,132.525-18.732,193.43-30.444c0.546-0.104,1.063,0.25,1.167,0.79c0.104,0.541-0.25,1.063-0.79,1.167
	c-60.949,11.721-126.105,23.729-193.609,30.471C48.093,118.451,48.06,118.453,48.026,118.453z"/>
<path fill="#8E7565" d="M617.797,319.679c-0.021,0-0.045-0.001-0.067-0.002c-96.366-6.479-104.562-8.069-150.051-16.894
	c-9.466-1.836-20.193-3.917-33.702-6.436c-0.541-0.101-0.898-0.621-0.797-1.162c0.1-0.541,0.622-0.898,1.162-0.798
	c13.516,2.521,24.247,4.603,33.716,6.438c46.429,9.007,53.564,10.391,149.805,16.861c0.55,0.038,0.965,0.513,0.928,1.062
	C618.755,319.276,618.316,319.679,617.797,319.679z"/>
<path fill="#8E7565" d="M651.883,335.231c-48.471,0-207.151-15.4-208.749-15.557c-0.548-0.055-0.948-0.541-0.895-1.089
	c0.053-0.548,0.533-0.947,1.089-0.896c1.596,0.156,160.181,15.548,208.555,15.548c0.551,0,0.997,0.446,0.997,0.996
	S652.434,335.231,651.883,335.231z"/>
<path fill="#8E380A" d="M280.876,306.589c-1.291,33.688-8.42,128.989-6.951,133.973c2.225,7.536,26.144,16.689,44.755,18.447
	c26.501,2.502,69.564,0.879,77.761-12.005c8.227-12.929,7.066-111.223,7.478-143.097
	C362.707,303.368,321.568,300.69,280.876,306.589z"/>
<polygon fill="#8E7565" points="526.895,321.397 419.518,295.368 180.402,297.859 180.402,309.235 220.483,352.579 526.133,336.107 
	"/>
<polygon fill="#AF9474" points="526.895,321.397 220.483,337.868 180.402,297.859 434.158,286.143 "/>
<g>
	<path fill="#8E380A" d="M489.944,39.876c-10.436-6.515-21.448-8.151-28.696-2.948c-5.442,3.907-30.647,19.97-38.688,23.526
		c-1.236-3.67-1.587-21.762-1.814-30.816c-0.134-5.334-19.11-7.152-20.812-2.151c-3.91,11.488-4.492,29.64-1.514,42.461
		c-9.271,4.192-28.981,16.232-38.714,18.565c-8.634,2.07-26.221-11.804-30.258-21.192c0.102-8.605,5.341-26.957,9.323-38.187
		c3.295-9.289-17.338-16.496-22.784-12.101c-7.511,6.06-7.172,25.875-17.42,18.296c-3.881-2.87-18.788-29.213-22.219-32.997
		c-8.795-9.693-48.919,13.36-48.108,22.464c0.185,2.067,22.309,36.583,18.097,36.843c-14.748,0.909-25.855,0.508-45.003-3.041
		c-11.55-2.142-23.586,22.071-17.369,26.483c11.131,7.898,65.658,14.361,76.69,15.452c7.227,0.713,12.55,10.249,14.471,17.607
		c5.699,21.845,7.721,47.099,9.089,69.461c1.773,28.986-1.61,83.211-3.519,121.649c-0.274,5.653,38.919,10.852,71.75,9.074
		c32.937-1.783,51.307-6.847,51.452-13.564c0.465-25.688-0.01-54.105-0.01-72.258c0-39.612-2.026-83.378-1.166-88.658
		c0.993-6.1,8.587-9.677,13.729-13.42c9.763-7.104,20.215-13.362,29.601-20.836c17.973-14.313,36.647-27.575,49.262-40.789
		C502.811,60.951,498.53,45.236,489.944,39.876z"/>
</g>
<path fill="#AF9474" d="M311.45,197.65c12.727,1.186,26.563,1.31,39.315-0.118c11.479-1.285,20.569-1.87,30.973-4.242
	c9.671-2.207,14.944-5.146,21.577-8.985c4.452,4.538-17.52,11.073-21.162,12.019c-9.557,2.476-18.688,3.391-29.03,3.897
	c-11.301,0.554-27.696,2.977-39.065,1.676c-11.111-1.272-31.941-4.599-31.167-9.992c0.253-1.761,7.299,1.889,10.849,2.961
	C299.534,196.617,305.451,197.092,311.45,197.65z"/>
<path fill="#AF9474" d="M377.04,197.994c-12.561,2.381-26.328,4.005-39.155,3.594c-10.747-0.345-21.565-0.511-32.212-1.199
	c-8.262-0.534-14.383-3.812-21.352-7.009c-4.001,4.94,18.488,9.371,22.206,9.968c9.745,1.562,18.923,1.611,29.268,1.14
	c11.302-0.517,27.854,0.348,39.048-2.02c10.944-2.316,32.506-9.351,30.084-12.891c-1.018-1.49-7.086,2.568-10.52,3.972
	C388.804,195.84,382.959,196.872,377.04,197.994z"/>
<path fill="#AF9474" d="M45.154,229.701c-0.759,0-1.409-0.574-1.486-1.347c-0.082-0.821,0.518-1.554,1.339-1.635
	c62.95-6.286,165.645-21.663,239.497-34.112c0.811-0.138,1.585,0.411,1.723,1.225c0.137,0.814-0.412,1.586-1.226,1.724
	C211.1,208.013,108.324,223.4,45.304,229.693C45.253,229.699,45.202,229.701,45.154,229.701z"/>
<path fill="#8E7565" d="M48.026,130.327c-0.506,0-0.938-0.383-0.991-0.897c-0.054-0.547,0.346-1.036,0.894-1.091
	c83.402-8.327,186.498-27.553,216.108-33.248c0.546-0.103,1.063,0.25,1.167,0.791c0.104,0.541-0.25,1.062-0.79,1.167
	c-29.631,5.699-132.801,24.939-216.287,33.274C48.093,130.326,48.06,130.327,48.026,130.327z"/>
<path fill="#AF9474" d="M674.847,203.77c-0.014,0-0.025,0-0.039,0c-66.022-1.69-198.219-6.268-274.897-12.707
	c-0.822-0.068-1.434-0.792-1.364-1.614c0.069-0.823,0.797-1.435,1.614-1.364c76.611,6.433,208.733,11.008,274.724,12.696
	c0.826,0.021,1.477,0.707,1.456,1.533C676.319,203.126,675.654,203.77,674.847,203.77z"/>
<path fill="#8E7565" d="M178.049,339.675c-0.273,0-0.497-0.219-0.499-0.492l-2.419-226.961c-0.002-0.275,0.218-0.5,0.494-0.503
	c0.002,0,0.004,0,0.005,0c0.273,0,0.496,0.219,0.498,0.493l2.419,226.961c0.002,0.275-0.218,0.5-0.493,0.503
	C178.052,339.675,178.05,339.675,178.049,339.675z"/>
<path fill="#8E7565" d="M140.975,344.915c-0.272,0-0.495-0.219-0.499-0.492l-2.417-225.9c-0.004-0.275,0.218-0.5,0.492-0.503
	c0.002,0,0.004,0,0.006,0c0.272,0,0.495,0.219,0.499,0.493l2.417,225.9c0.004,0.274-0.218,0.5-0.492,0.503
	C140.979,344.915,140.977,344.915,140.975,344.915z"/>
<polygon fill="#8E7565" points="125.725,350.455 116.363,329.354 77.057,334.646 77.057,339.182 82.499,362.852 125.725,356.804 "/>
<polygon fill="#AF9474" points="125.725,350.454 82.499,356.502 77.057,334.646 116.363,329.354 "/>
<path fill="#8E7565" d="M114.708,332.332c-0.273,0-0.496-0.22-0.498-0.492l-2.419-222.351c-0.002-0.275,0.218-0.501,0.493-0.504
	c0.002,0,0.004,0,0.004,0c0.274,0,0.498,0.22,0.5,0.494l2.419,222.349c0.002,0.275-0.218,0.501-0.494,0.504
	C114.711,332.332,114.71,332.332,114.708,332.332z"/>
<path fill="#8E7565" d="M82.226,337.303c-0.273,0-0.495-0.218-0.499-0.49l-3.326-221.867c-0.004-0.274,0.216-0.502,0.491-0.506
	c0.289,0.001,0.501,0.216,0.505,0.491l3.326,221.866c0.004,0.276-0.216,0.502-0.491,0.506
	C82.23,337.303,82.228,337.303,82.226,337.303z"/>
<path fill="#8E7565" d="M121.503,348.533c-0.273,0-0.497-0.219-0.499-0.492l-2.419-226.961c-0.001-0.275,0.218-0.501,0.494-0.504
	c0.002,0,0.004,0,0.005,0c0.273,0,0.496,0.22,0.498,0.493l2.419,226.961c0.002,0.275-0.218,0.501-0.493,0.503
	C121.506,348.533,121.504,348.533,121.503,348.533z"/>
<path fill="#8E7565" d="M84.429,353.773c-0.272,0-0.495-0.219-0.499-0.493l-2.417-227.772c-0.004-0.275,0.218-0.5,0.492-0.503
	c0.002,0,0.004,0,0.006,0c0.272,0,0.495,0.22,0.499,0.493l2.417,227.771c0.004,0.276-0.218,0.501-0.492,0.504
	C84.433,353.773,84.431,353.773,84.429,353.773z"/>
<g>
	<polygon fill="#8E7565" points="573.036,328.445 519.035,307.323 494.793,303.528 494.793,306.487 548.886,329.651 
		573.036,331.405 	"/>
	<polygon fill="#AF9474" points="573.036,328.445 548.886,326.691 494.793,303.528 519.035,307.323 	"/>
	<polygon fill="#8E7565" points="610.302,331.275 563.675,312.011 540.33,309.918 540.33,312.878 587.346,332.354 610.302,334.234 	
		"/>
	<polygon fill="#AF9474" points="610.302,331.275 587.346,329.395 540.33,309.918 563.675,312.011 	"/>
	<polygon fill="#8E7565" points="646.898,332.892 600.181,314.418 579.592,312.899 579.592,315.86 623.818,334.632 646.898,335.852 
			"/>
	<polygon fill="#AF9474" points="646.898,332.892 623.818,331.673 579.592,312.899 600.181,314.418 	"/>
</g>
<g>
	<g>
		<g>
			<path fill="#7A574A" d="M271.448,261.713c-5.586,1.539-12.696,2.411-19.909,2.411c-10.439,0-22.452-1.844-27.407-6.721
				c-3.055,14.576-1.506,30.927,2.672,47.909l4.701,0.049c3.771-14.216,9.347-25.189,15.471-30.395
				c2.766,9.276,8.865,20.354,17.627,33.285l4.477,0.247C266.851,290.373,270.452,274.959,271.448,261.713z"/>
		</g>
	</g>
	<path fill="#7A574A" d="M291.404,267.094c-0.686,0.973-1.528,1.905-2.63,0.966c-0.974-0.83-0.646-1.97-0.66-3.059
		c-0.019-1.391-0.275-2.447-1.103-2.673c-1.116-0.309-1.339,1.758-2.197,1.604c-0.686-0.12-0.733-1.022-0.732-1.832
		c0.008-0.872,0.5-1.942,0.926-2.57c0.935-1.386,2.322-1.774,3.749-1.189C291.848,259.598,293.376,264.306,291.404,267.094z"/>
	<path fill="#7A574A" d="M207.774,259.352c0.686,0.974,1.529,1.905,2.631,0.966c0.974-0.829,0.646-1.969,0.658-3.058
		c0.02-1.391,0.275-2.448,1.104-2.675c1.116-0.309,1.339,1.76,2.2,1.605c0.684-0.121,0.731-1.023,0.73-1.832
		c-0.006-0.872-0.5-1.942-0.927-2.572c-0.934-1.385-2.322-1.772-3.749-1.189C207.331,251.854,205.804,256.563,207.774,259.352z"/>
	<path fill="#7A574A" d="M266.986,313.765c-1.239,0.211-5.774,0.049-6.462-0.87c-1.348-1.803,2.579-3.082,4.472-3.403
		C269.351,308.749,271.914,312.937,266.986,313.765z"/>
	<path fill="#7A574A" d="M230.011,310.64c-1.24,0.209-5.774,0.048-6.462-0.871c-1.348-1.804,2.58-3.082,4.473-3.403
		C232.376,305.622,234.938,309.809,230.011,310.64z"/>
	<g>
		<g>
			<path fill="#C8DDE8" d="M250.841,172.861c3.791,0,7.652,0.908,10.672,3.367c12.065,9.821,3.914,27.557,2.286,29.89
				c-0.635,0.91-3.668,3.207-4.62,3.665c1.031-3.891,1.144-7.543-0.507-8.665c-1.925-1.308-3.423-1.181-5.268-1.53
				c-0.008-4.664-0.487-8.047-2.393-10.928c-1.61-2.422-5.262-4.536-8.648-5.253c-1.126-0.239-2.363-0.39-3.577-0.39
				c-1.496,0-2.958,0.229-4.138,0.81c-2.521,1.238-3.225,4.782-3.585,8.313c-0.885-6.057,2.361-12.173,6.469-15.445
				C239.892,174.812,245.289,172.861,250.841,172.861 M250.841,171.865c-5.814,0-11.41,2.038-13.932,4.051
				c-4.111,3.277-7.82,9.609-6.833,16.368l1.162,7.955l0.815-7.998c0.32-3.139,0.93-6.487,3.032-7.52
				c0.943-0.463,2.222-0.708,3.699-0.708c1.066,0,2.232,0.127,3.371,0.369c3.247,0.688,6.622,2.719,8.024,4.829
				c1.838,2.777,2.22,6.158,2.227,10.379l0.001,0.824l0.811,0.153c0.465,0.088,0.899,0.146,1.321,0.203
				c1.284,0.171,2.299,0.308,3.572,1.172c0.892,0.606,1.269,3.187,0.103,7.585l-0.554,2.09l1.949-0.936
				c0.995-0.479,4.21-2.854,5.006-3.992c0.994-1.425,3.422-6.572,4.163-12.586c0.97-7.875-1.326-14.324-6.637-18.648
				C259.257,173.106,255.35,171.865,250.841,171.865L250.841,171.865z"/>
		</g>
		<g>
			<g>
				<path fill="#7A574A" d="M258.671,201.118c-1.925-1.308-3.423-1.181-5.268-1.53c-0.008-4.664-0.487-8.047-2.393-10.928
					c-1.61-2.422-5.262-4.536-8.648-5.253c-2.513-0.532-5.576-0.632-7.715,0.42c-2.521,1.238-3.225,4.782-3.585,8.313
					c-0.885-6.057,2.361-12.173,6.469-15.445c3.972-3.171,16.541-6.526,23.982-0.467c12.065,9.821,3.914,27.557,2.286,29.89
					c-0.635,0.91-3.668,3.207-4.62,3.665C260.21,205.893,260.323,202.24,258.671,201.118z"/>
				<path fill="#7A574A" d="M258.215,209.527c1.166-4.398,0.789-6.979-0.103-7.585c-1.273-0.864-2.288-1.001-3.572-1.172
					c-0.421-0.057-0.855-0.115-1.321-0.203l-0.811-0.153l-0.001-0.824c-0.007-4.221-0.389-7.602-2.227-10.379
					c-1.402-2.11-4.777-4.141-8.024-4.829c-1.139-0.242-2.305-0.369-3.371-0.369c-1.478,0-2.756,0.245-3.699,0.708
					c-2.102,1.033-2.712,4.381-3.032,7.52l-0.461,4.529c0.002,0.041,0.004,0.086,0.006,0.125
					c1.041,12.157,7.799,18.433,11.203,18.674c2.758,0.196,8.491-0.734,13.003-3.776c0.836-0.562,1.598-1.22,2.314-1.903
					L258.215,209.527z M236.02,195.753c-0.123,1.332-0.707,2.365-1.308,2.311c-0.596-0.057-0.983-1.18-0.862-2.509
					c0.125-1.331,0.709-2.366,1.308-2.311C235.757,193.301,236.142,194.424,236.02,195.753z M244.249,196.482
					c-0.119,1.305-0.773,2.31-1.453,2.247c-0.678-0.065-1.135-1.17-1.013-2.474c0.121-1.303,0.77-2.308,1.451-2.249
					C243.914,194.073,244.366,195.179,244.249,196.482z"/>
			</g>
			<g>
				<path fill="#7A574A" d="M288.184,255.62c-8.469-27.899-15.058-40.539-29.968-44.452c-0.616,0.545-1.237,1.035-1.854,1.452
					c-4.069,2.742-9.364,3.971-12.806,3.971c-0.295,0-0.571-0.009-0.823-0.027c-1.935-0.137-4.372-1.672-6.565-4.413
					c-15.607,6.278-23.411,24.23-25.777,36.653l5.743,1.532c4.677-13.758,12.383-20.615,12.383-20.615s-4.952,10.341-5.68,23.133
					c1.124,10.692,33.403,12.879,50.337,7.305c-0.74-15.205-1.684-25.458-1.684-25.458s5.048,5.178,11.364,23.177L288.184,255.62z"
					/>
			</g>
		</g>
	</g>
</g>
</svg>
