<?xml version="1.0" encoding="utf-8"?>
<!-- Generator: Adobe Illustrator 15.0.2, SVG Export Plug-In . SVG Version: 6.00 Build 0)  -->
<!DOCTYPE svg PUBLIC "-//W3C//DTD SVG 1.1//EN" "http://www.w3.org/Graphics/SVG/1.1/DTD/svg11.dtd">
<svg version="1.1" id="Layer_1" xmlns="http://www.w3.org/2000/svg" xmlns:xlink="http://www.w3.org/1999/xlink" x="0px" y="0px"
	 width="720px" height="460px" viewBox="0 0 720 460" enable-background="new 0 0 720 460" xml:space="preserve">
<g>
	<g>
		<g>
			<polygon fill="#CFCDC4" points="664.367,210.938 547.979,407.679 55.633,286.147 267.098,176.099 			"/>
		</g>
		<path fill="#E19882" d="M613.297,228.153c-1.654-3.566-9.457-1.348-12.58-2.672c3.959-3.217,10.244,1.072,14.457-1.207
			c-6.152-1.105-12.842-1.041-19.133-1.506L297.745,194.63l-0.206,0.131c0.122-0.077,0.206-0.131,0.206-0.131
			c-3.887-0.277-7.773-0.555-11.66-0.83c-2.041-0.146-13.297-2.275-14.582-0.748c2.475,0.791,5.439,0.857,8.049,1.07
			c1.695,0.137,7.805,0.746,2.949,1.93c-4.365,1.064-10.035-1.301-14.703-1.029c2.01,3.289,10.338-0.014,12.938,2.879
			c-2.465,0.893-6.055-0.066-8.662-0.285c-1.699-0.145-6.787-1.475-8.297-0.789c-2.676,1.215,5.172,2.758,6.441,2.939
			c2.742,0.391,5.252,0.432,7.869,1.385c-5.371,3.408-15.588-1.797-21.977-0.551c3.664,3.762,11.855,1.035,15.668,4.191
			c-2.566,1.912-7.562,1.727-10.648,1.062c-2.877-0.619-8.422-3.182-11.182-1.055c2.492,1.559,6.686,2.217,9.59,2.912
			c2.473,0.592,6.01,0.211,8.15,1.531c-4.457,1.445-9.98,1.502-14.571,0.656c-3.252-0.598-7.681-1.871-10.829-0.266
			c2.727,2.035,6.588,1.596,9.82,2.322c1.846,0.414,4.57,0.225,6.062,1.326c-4.24,1.514-9.627,1.418-13.918,0.332
			c-3.225-0.814-6.406-1.344-9.639-0.287c1.74,2.945,11.35,1.322,14.527,1.82c2.158,0.338,3.969,1.02,5.334,2.6
			c-8.658,1.189-16.91-1.932-25.414-1.234c1.615,4.625,16.818-1.859,17.97,4.418c-4.536,1.156-8.671,0.914-13.171-0.154
			c-2.484-0.59-8.332-2.324-10.443-0.59c5.152,3.828,14.961-1.375,19.379,4.186c-8.115,1.555-15.301-2.965-23.285-1.494
			c0.934,2.268,8.482,2.562,10.916,3.139c2.377,0.564,5.438,1.52,7.332,2.859c-4.533,0.383-7.996,0.354-12.252-1.334
			c-2.865-1.133-6.578-1.951-9.76-1.26c-6.176,1.344,4.768,3.113,6.635,3.449c2.934,0.527,9.094,0.646,11.127,2.926
			c-4.258,2.279-12.074-1.416-16.656-1.879c-2.186-0.219-10.336-1.906-11.141,0.824c5.002,3.232,12.99,0.691,17.987,4.172
			c-7.407,0.576-13.866-2.508-21.163-1.229c0.014,0.162,0.018,0.555,0.002,0.711c2.291,0.754,16.238,2.965,16.365,5.049
			c-7.832,2.104-16-6.146-23.742-2.812c2.34,1.777,6.143,2.859,8.934,3.713c2.234,0.684,6.062,0.67,7.713,2.057
			c-1.619,1.795-8.822-0.904-11.168-1.393c-3.492-0.727-6.959-1.164-10.59-0.957c1.66,2.047,8.088,2.729,10.92,3.748
			c2.428,0.875,5.25,1.104,7.342,2.242c-4.135,2.221-9.094-0.262-13.25-1.311c-2.062-0.521-9.469-2.543-10.314,0.336
			c5.518,3.229,15.912,0.096,20.416,4.709c-5.336,0.348-10.217-0.711-15.398-1.752c-3.881-0.779-8.07-1.883-11.9-0.537
			c-0.094,4.133,9.258,3.225,11.734,3.734c2.379,0.488,5.961,1.436,7.834,2.801c-5.883,0.236-9.752-0.234-15.1-2.535
			c-3.004-1.291-7.129-1.707-9.982-0.266c6.031,3.695,14.061,2.803,20.25,6.242c-5.826,0.436-11.506-0.5-17.166-1.732
			c-3.162-0.688-10.18-2.396-12.17,1.209c3.476,2.416,8.992,2.455,13.037,3.229c2.42,0.463,6.096,0.605,7.596,2.873
			c-5.17,1.062-11.07-1.268-16.09-2.334c-2.533-0.537-9.971-3.346-11.447-0.273c4.568,4.064,13.916,2.398,18.516,6.057
			c-4.268,0.279-8.631-0.326-12.72-1.26c-1.647-0.375-8.591-2.576-9.735-0.756c-0.262,0.412-0.191,0.758,0.104,1.047
			c1.262,1.236,6.641,1.439,7.789,1.553c3.541,0.348,6.822,0.879,10.184,1.871c1.057,0.312,5.895,2.047,6.928,1.389l323.818,71.895
			c0,0,0.004-0.005,0,0c1.285-1.633,6.664,1.383,8.086,1.854c3.533,1.174,7.307,1.275,10.912,2.27
			c1.699,0.469,8.195,3.096,7.016-0.648c-1.574-4.992-13.889-1.959-16.881-6.018c5.783-2.166,13.123,3.443,18.967,3.691
			c6.475,0.275,1.021-3.004-1.826-4.092c-2.812-1.076-12.549-1.85-13.139-4.875c7.885-0.764,16.053,3.283,23.912,3.232
			c0.506-5.037-15.502-6.322-17.93-9.234c3.994-0.211,7.865,0.01,11.629,0.951c3.385,0.846,7.184,2.875,10.625,1.609
			c0.174-5.867-16.582-3.607-18.23-7.551c3.408-0.201,7.314-0.119,10.631,0.527c2.572,0.5,5.068,2.246,7.734,1.633
			c-0.004-2.086-14.697-7.348-14.373-7.811c3.131-4.475,17.021,1.439,22.266-0.4c-1.049-3.723-12.889-3.629-16.248-5.092
			c0.139-0.264,0.225-0.545,0.338-0.857c6.857-0.996,14.326,0.592,21.25-0.467c-5.182-3.559-12.75-2.979-18.615-5.35
			c2.535-1.596,6.256-0.564,9.234-0.26c3.898,0.4,7.549,0.967,11.623,1.033c-2.314-4.445-15.408-2.371-16.164-7.299
			c6.418-0.314,14.271,3.396,20.24,1.219c-0.76-3.287-11.959-3.143-14.658-5.602c1.49-1.617,5.332,0.383,7.367,0.658
			c3.27,0.443,7.709,1.021,10.838-0.416c-2.238-1.16-4.734-2.559-7.172-3.168c-3.307-0.826-6.207-0.172-8.967-2.498
			c5.268-4.064,15.299,3.824,21.248,1.006c-3.641-4.207-11.332-2.307-15.248-5.85c4.311-0.582,13.102,3.619,16.582,0.684
			c-2.502-1.096-13.848-1.645-13.896-4.367c5.979-0.264,13.807,1.951,19.562-0.107c-0.18-3.457-12.105-4.02-14.904-4.656
			c0.027-0.178,0.02-0.715,0.008-0.904c3.463-0.754,13.629,3.115,15.664-0.066c-2.982-3.172-7.576-3.391-11.34-5.381
			c1.467-4.141,10.891,1.295,13.965-0.594c3.908-2.398-9.545-3.314-10.641-4.432c2.088-1.898,6.045-0.186,8.32,0.398
			c0.268,0.068,9.068,1.475,7.688-0.299c-1.145-1.465-13.008-2.871-11.307-5.941c0.811-1.459,5.6,0.115,6.738,0.34
			c3.307,0.648,5.939,0.439,9.143-0.123c0.215-5.076-10.221-1.508-10.564-5.902c3.475-0.277,12.043,2.822,14.314,0.285
			c-3.885-3.814-8.666-1.854-13.312-3.391c0.176-4.135,13.865,0.619,16.562-0.693c-2.723-4.629-10.82-1.883-14.332-4.916
			c2.668-1.096,15.123,2.15,15.332-1.277c-2.361-0.705-4.457-1.275-6.932-1.389c-1.918-0.09-7.773-0.414-3.016-1.666
			c4.971-1.309,11.5,1.803,16.623-0.066c-1.619-3.506-13.721,0.316-13.906-3.553c3.869-0.107,13.664,1.582,16.664-1.041
			c-3.547-3.09-11.775-0.582-15.023-3.943c5.736-1.383,11.104,1.014,16.939,0.201c-2.578-4.68-10.852-0.396-12.922-4.875
			C601.928,227.368,609.984,230.671,613.297,228.153z"/>
		<g>
			<polygon fill="#EBDB8A" points="388.355,228.286 381.883,232.169 370.834,231.157 370.252,218.405 360.947,217.573 
				361.35,225.491 354.496,229.742 353.629,229.579 352.982,215.562 359.451,212.54 387.926,214.913 			"/>
			<polygon fill="#E4ECF2" points="404.967,230.228 398.494,234.11 385.119,232.384 384.475,218.362 390.943,215.345 
				404.531,216.854 			"/>
			<polygon fill="#888886" points="397.998,232.776 386.201,231.446 385.785,220.481 397.832,221.728 			"/>
			<polygon fill="#E4ECF2" points="422.723,230.347 416,235.569 402.627,233.843 401.98,219.823 408.451,216.804 422.039,218.313 
							"/>
			<polygon fill="#E4ECF2" points="313.799,267.536 331.445,252.993 330.668,226.04 324.076,224.294 304.299,235.931 
				305.268,266.181 			"/>
			<polygon fill="#6185A6" points="342.031,242.646 341.633,231.06 339.234,231.06 308.873,253.833 308.971,278.144 
				323.252,279.403 354.018,255.431 354.816,244.243 			"/>
			<g>
				<polygon fill="#E4ECF2" points="415.668,246.687 380.408,242.704 361.334,258.483 361.553,260.681 398.756,267.772 
					415.887,248.884 				"/>
				<polygon fill="#E4ECF2" points="371.42,277.378 369.732,279.065 366.611,278.216 364.416,259.765 369.332,259.159 				"/>
				<polygon fill="#E4ECF2" points="400.234,282.114 398.324,284.356 394.785,283.583 392.367,263.813 397.746,263.173 				"/>
				<polygon fill="#E4ECF2" points="415.809,267.507 414.039,269.521 410.926,269.073 409.385,249.526 414.451,248.323 				"/>
			</g>
			<g>
				<polygon fill="#CD4917" points="381.309,279.888 366.934,279.024 358.594,288.226 358.594,289.347 374.121,291.069 
					381.309,281.007 				"/>
				<polygon fill="#CD4917" points="372.146,278.763 369.908,268.69 356.396,268.401 355.695,269.243 357.883,278.669 
					371.449,279.603 				"/>
				<polygon fill="#CD4917" points="374.518,299.563 373.979,300.079 373.008,299.853 368.41,275.774 369.92,275.485 				"/>
				<polygon fill="#CD4917" points="382.605,294.204 382.119,294.663 381.098,294.491 378.482,280.782 379.988,280.493 				"/>
				<polygon fill="#CD4917" points="370.295,291.823 369.818,292.269 368.785,292.114 366.926,282.364 368.434,282.075 				"/>
				<polygon fill="#CD4917" points="364.326,297.194 363.664,297.685 362.818,297.483 357.885,274.632 359.393,274.343 				"/>
			</g>
			<g>
				<polygon fill="#CD4917" points="433.832,262.503 420.949,260.212 413.877,269.948 414.307,271.524 428.68,274.099 
					433.977,264.079 				"/>
				<polygon fill="#CD4917" points="431.398,245.466 426.676,253.628 426.676,261.786 428.105,261.786 432.83,253.628 
					432.83,245.466 				"/>
				<polygon fill="#CD4917" points="433.457,277.487 433.146,277.753 432.174,277.552 430.842,251.089 432.127,251.024 				"/>
				<polygon fill="#CD4917" points="430.164,284.073 429.83,284.421 428.879,284.138 427.545,257.673 428.834,257.608 				"/>
				<polygon fill="#CD4917" points="417.293,282.552 416.912,282.856 416.008,282.616 415.379,270.194 416.666,270.128 				"/>
				<polygon fill="#CD4917" points="423.436,274.624 423.123,274.88 422.15,274.69 421.523,262.269 422.811,262.202 				"/>
			</g>
			<g>
				<polygon fill="#CD4917" points="427.736,227.138 415.877,226.427 409,234.015 409,234.938 421.805,236.362 427.736,228.062 				
					"/>
				<path fill="#CD4917" d="M426.951,222.007l-1.846-8.307c-0.031-0.143-3.615-0.078-3.871-0.084
					c-0.998-0.02-1.662-0.115-2.369,0.688c-0.555,0.631-0.645,1.18-1.721,2.256c-1.344,1.346-2.355,1.246-2.838,1.619
					c0.201,0.389,0.623,3.732,0.879,3.75l11.189,0.77L426.951,222.007z"/>
				<polygon fill="#CD4917" points="428.363,236.442 427.926,236.786 427.117,236.683 423.324,216.825 424.568,216.585 				"/>
				<polygon fill="#CD4917" points="422.965,243.224 422.584,243.599 421.719,243.46 419.561,232.155 420.805,231.915 				"/>
				<polygon fill="#CD4917" points="412.812,241.263 412.482,241.663 411.566,241.499 410.031,233.46 411.275,233.222 				"/>
				<polygon fill="#CD4917" points="419.824,233.79 418.58,234.026 415.197,218.776 416.441,218.538 				"/>
			</g>
			<g>
				<g>
					<g>
						<g>
							<path fill="#C83B0C" d="M552.932,235.462c-1.918-2.094-5.424,0.76-12.354,0.434c-1.566-0.074-3.072,1.215-3.586,1.711
								c0,0,3.08,1.195,4.902,4.055c1.893,2.977,1.508,5.566,1.508,5.566c4.188-0.6,7.725-4.146,8.832-6.035
								C553.469,239.091,553.68,236.276,552.932,235.462z"/>
						</g>
					</g>
				</g>
				<g>
					<path fill="#C83B0C" d="M413.402,216.403c1.33,0.582,2.525,0.219,3.639-1.059c1.145-1.314,1.91-2.555,2.91-2.404
						c0.764,0.076,5.129,0.096,5.676,0.119c0.072-0.322,0.109-0.426,0.148-0.779c0.295-2.65-0.441-5.303-3.619-6.082
						c-3.502-0.859-5.996,0.387-8.016,2.99C412.531,211.261,411.049,215.374,413.402,216.403z"/>
				</g>
				<g>
					<g>
						<path fill="#C83B0C" d="M431.902,103.238c-1.67,1.092-3.223,2.189-4.598,3.213c-0.266,0.943-0.479,1.928-0.619,2.967
							c-2.203,16.631,10.803,36.459,10.803,36.459l0.887-2.719l5.152,4.285l0.342-1.047c-3.508-4.104-6.842-9.23-9.662-15.547
							C430.154,121.775,429.389,112.169,431.902,103.238z"/>
					</g>
					<g>
						<g>
							<path fill="#C83B0C" d="M447.082,95.042c8.148-1.66,17.033,4.344,20.34,7.434c1.893,1.77,6.018,4.662,11.725,14.193
								c4.266,7.125,12.707,25.816,12.799,25.959c1.57-1.827,3.764-6.749,3.764-6.749l5.225,6.564l4.238-11.033l3.49,4.85
								c0,0,0.973-20.379-4.43-34.881c-5.137-13.777-16.254-21.807-24.375-24.566c-6.738-2.295-13.148-3.201-20.875-1.123
								c-8.547,2.303-14.584,6.893-23.33,12.146c-6.969,4.188-21.471,10.283-21.471,10.283l12.898,0.869l-6.621,11.524
								C420.459,110.514,434.666,97.572,447.082,95.042z"/>
							<path fill="#C83B0C" d="M490.039,141.457c-5.471-12.029-9.465-20.172-11.877-24.197c-4.836-8.08-8.443-11.236-10.6-13.121
								c-0.348-0.307-0.658-0.576-0.926-0.826c-2.742-2.562-9.752-7.408-16.65-7.408c-0.922,0-1.822,0.088-2.678,0.262
								c-4.645,0.945-9.592,3.432-13.918,6.123c-2.697,8.451-2.541,18.232,1.863,28.094c10.406,23.301,28.18,30.385,34.729,28.301
								c5.086-1.619,13.736-7.316,20.615-16.037C490.539,142.558,490.535,142.545,490.039,141.457z M443.008,133.074
								c-1.109,0.324-2.604-1.408-3.332-3.881c-0.727-2.475-0.412-4.744,0.697-5.072c1.109-0.326,2.604,1.412,3.332,3.885
								C444.434,130.48,444.121,132.746,443.008,133.074z M455.391,119.736c1.264-0.371,2.867,1.291,3.582,3.711
								c0.711,2.422,0.266,4.686-1.002,5.061c-1.262,0.369-2.865-1.289-3.58-3.71C453.68,122.373,454.127,120.109,455.391,119.736z"
								/>
						</g>
					</g>
				</g>
				<g>
					<path fill="#C83B0C" d="M427.184,213.155c-1.186,1.309-1.354,3.115-0.668,4.625c0.652,1.439,2.451,1.793,3.576,1.141
						c0.625-0.359,1.186-0.688,1.914-0.799c0.891-0.137,1.768,0.039,2.619,0.311c1.023,0.326,2.064,0.555,3.152,0.494
						c0.877-0.047,1.615-0.266,2.082-0.83c0.441-0.533,0.506-1.564,0.48-2.23c-0.066-1.482-0.928-2.73-2.154-3.518
						C433.967,209.646,430.189,209.825,427.184,213.155z"/>
				</g>
				<g>
					<path fill="#C83B0C" d="M440.1,212.556l2.754,8.021c35.475-7.883,63.158-29.986,61.588-49.948
						c-0.467-5.944-7.818-11.916-14.307-8.135c-8.037,4.682-9.248,16.42-17.605,27.523
						C469.855,193.567,459.008,205.431,440.1,212.556z"/>
					<path fill="#C83B0C" d="M520.818,161.798c-7.693-11.143-13.797-14.594-18.936-16.729c-2.818-1.17-8.447-1.224-10.9-1.188
						c-6.92,8.549-15.51,14.189-20.672,15.834c-0.826,0.262-1.783,0.395-2.846,0.395c-2.438,0-5.555-0.715-8.979-2.295
						c-8.836,12.291-18.064,32.777-34.771,45.966l4.562,5.848c21.209-12.371,34.021-29.603,34.021-29.603s4.412,3.908,6.834,12.269
						c1.57-1.673,2.416-2.777,2.531-2.931c2.701-3.59,4.662-7.295,6.342-10.766c0.201-0.035,0.91,0.17,1.045,0.305
						c-1.758,3.672-3.633,7.275-6.521,11.113c-0.6,0.797-1.637,2.029-3.062,3.519c1.158,4.594,1.688,10.41,0.678,17.533
						c18.025-8.877,30.906-21.373,33.75-33.744c0.223-0.146,0.867,0.09,1.064,0.246c-1.811,7.889-7.555,15.992-16.738,23.404
						c-5.301,4.277-11.49,8.115-18.279,11.4c-0.027,0.168-0.049,0.33-0.078,0.5c-2.758,15.898,47.443,16.176,71.684,0.342
						C540.227,189.619,528.516,172.941,520.818,161.798z"/>
				</g>
				<path fill="#C83B0C" d="M540.945,242.421c-1.998-3.43-5.096-4.162-5.096-4.162s-8.189,5.527-15.572,6.896
					c11.148-6.115,21.045-17.838,21.459-30.453c-0.008-0.02-1.23,0.721-1.24,0.701c-9.844,6.23-28.725,11.006-43.66,11.006
					c-12.428,0-22.299-2.311-26.176-6.922c-1.469-1.744-2.131-3.719-1.975-5.881c-11.693,7.373-25.605,20.432-19.482,31.787
					c4.078,7.564,13.889,8.51,16.926,8.619c-0.332-2.895,0.242-5.709,1.732-8.836c2.738-5.762,8.49-10.445,10.188-11.744
					l0.658,0.859c-1.65,1.262-7.232,5.807-9.869,11.35c-2.084,4.383-2.264,8.113-0.512,12.43c1.605,3.373,5.176,7.961,13.02,10.129
					c20.436,5.65,42.85-7.076,60.938-20.652C542.283,247.548,542.383,244.886,540.945,242.421z"/>
			</g>
		</g>
	</g>
	<g>
		<g>
			<path fill="#A1856E" d="M340.361,161.575c-0.758,1.154-1.697,2.267-3.01,1.22c-1.162-0.924-0.824-2.256-0.881-3.516
				c-0.072-1.615-0.412-2.825-1.379-3.057c-1.303-0.314-1.482,2.089-2.484,1.941c-0.799-0.114-0.887-1.156-0.916-2.093
				c-0.025-1.014,0.504-2.269,0.975-3.017c1.029-1.637,2.621-2.14,4.299-1.518C340.59,152.877,342.539,158.271,340.361,161.575z"/>
			<path fill="#A1856E" d="M233.012,157.235c0.717,1.18,1.619,2.324,2.965,1.324c1.193-0.882,0.902-2.226,1.004-3.483
				c0.129-1.61,0.51-2.809,1.484-3.006c1.312-0.268,1.41,2.14,2.416,2.028c0.801-0.087,0.926-1.126,0.988-2.061
				c0.061-1.012-0.426-2.284-0.869-3.048c-0.973-1.672-2.545-2.23-4.242-1.668C233.088,148.535,230.952,153.859,233.012,157.235z"/>
			<path fill="#A1856E" d="M268.217,217.831c-1.502,0.252-4.963,0.732-6.223-0.028c-2.713-1.64,1.619-3.586,3.82-4.298
				C271.463,211.677,274.911,216.708,268.217,217.831z"/>
			<path fill="#A1856E" d="M313.158,217.744c1.512,0.156,4.998,0.424,6.207-0.416c2.605-1.801-1.838-3.476-4.078-4.051
				C309.535,211.804,306.406,217.038,313.158,217.744z"/>
		</g>
		<g>
			<g>
				<path fill="#A1856E" d="M295.342,164.66c-8.564,0-17.371-1.253-24.162-3.438c-4.588-1.476-8.01-3.285-10.191-5.348
					c-0.018,0.065-0.043,0.119-0.061,0.185c-3.975,19.496,1.611,45.225,3.576,55.951l5.449-0.123
					c4.705-15.063,12.504-29.449,19.971-33.849c8.691,6.871,14.589,18.997,20.39,33.742l5.973-0.225
					c2.75-14.968,2.799-36.412,0.234-50.607C311.67,163.351,304.273,164.66,295.342,164.66z"/>
			</g>
		</g>
	</g>
</g>
<g>
	<g>
		<path fill="#A1856E" d="M280.844,86.527c2.727-1.196,4.584-0.684,6.986-0.689c1.105-5.871,2.502-10.016,5.577-13.193
			c2.595-2.674,7.688-4.476,12.116-4.585c3.287-0.08,7.17,0.515,9.613,2.34c2.881,2.148,2.938,6.776,2.562,11.303
			c2.533-7.417-0.115-15.874-4.516-20.958c-4.26-4.922-19.292-12.093-30.08-6.213c-17.489,9.532-11.389,33.769-9.887,37.087
			c0.586,1.294,3.861,4.898,4.955,5.696C277.786,92.176,278.5,87.553,280.844,86.527z"/>
		<g>
			<path fill="#A1856E" d="M314.539,71.2c-1.828-1.365-4.904-2.148-8.439-2.148c-0.186,0-0.369,0.002-0.551,0.007
				c-4.316,0.106-9.121,1.907-11.421,4.28c-3.014,3.114-4.305,7.322-5.314,12.683l-0.191,0.815h-0.83
				c-0.582,0-1.125-0.027-1.65-0.055c-0.49-0.025-0.953-0.049-1.416-0.049c-0.92,0-2.054,0.084-3.479,0.709
				c-1.654,0.724-2.471,4.569-2.076,9.796l0.003,0.045c0.816,1.175,1.731,2.325,2.772,3.35c4.967,4.889,11.963,7.403,15.482,7.805
				c4.341,0.495,14.318-5.818,18.48-20.876c0.025-0.109,0.053-0.228,0.088-0.354l0.062-0.294c0.148-0.688,0.266-1.388,0.379-2.088
				l0.266-3.207C317.043,77.519,317.051,73.074,314.539,71.2z M303.24,84.369c-0.152,1.67-0.986,2.955-1.855,2.875
				c-0.871-0.083-1.453-1.5-1.3-3.168c0.156-1.668,0.988-2.956,1.857-2.876C302.812,81.281,303.395,82.699,303.24,84.369z
				 M313.391,85.347c-0.16,1.702-0.912,3.023-1.672,2.955c-0.77-0.071-1.264-1.508-1.107-3.213c0.16-1.704,0.908-3.026,1.674-2.956
				S313.545,83.642,313.391,85.347z"/>
			<path fill="#A1856E" d="M330.453,151.886l6.094-2.817c-8.832-20.114-17.867-35.454-30.572-43.228c0,0,0,0.001-0.002,0.002
				c-1.418,1.159-2.82,2.033-4.141,2.63c-0.088,0.041-0.178,0.084-0.266,0.122c-0.238,0.102-0.469,0.19-0.7,0.274
				c-0.155,0.057-0.31,0.109-0.464,0.158c-0.186,0.059-0.369,0.115-0.549,0.161c-0.205,0.053-0.402,0.093-0.6,0.13
				c-0.131,0.024-0.266,0.056-0.393,0.073c-0.324,0.046-0.641,0.074-0.938,0.074c-0.001,0-0.002,0-0.003,0h-0.001
				c-0.207,0-0.412-0.011-0.605-0.033c-3.572-0.408-10.801-2.898-16.07-8.086c-0.117-0.114-0.23-0.239-0.346-0.359
				c-0.113-0.117-0.227-0.229-0.338-0.35c-20.37,3.291-35.977,25.032-43.57,44.041l5.963,2.959c9-16.251,22.25-24.751,22.25-24.751
				s-3.301,12.665-5.965,28.024c1.711,12.341,45.06,17.065,58.632,8.117c-1.434-17.585-6.859-30.355-6.859-30.355
				S319.953,132.886,330.453,151.886z"/>
		</g>
	</g>
</g>
</svg>
