<?xml version="1.0" encoding="utf-8"?>
<!-- Generator: Adobe Illustrator 15.0.2, SVG Export Plug-In . SVG Version: 6.00 Build 0)  -->
<!DOCTYPE svg PUBLIC "-//W3C//DTD SVG 1.1//EN" "http://www.w3.org/Graphics/SVG/1.1/DTD/svg11.dtd">
<svg version="1.1" id="Layer_1" xmlns="http://www.w3.org/2000/svg" xmlns:xlink="http://www.w3.org/1999/xlink" x="0px" y="0px"
	 width="720px" height="460px" viewBox="0 0 720 460" enable-background="new 0 0 720 460" xml:space="preserve">
<g>
	<g>
		<path fill="#6C94B2" d="M359.5,54.22c-182.207,0-300.641,110.519-300.641,243.881c0,57.326,121.535,107.678,300.641,107.678
			c181.066,0,301.641-43.75,301.641-107.678C661.141,169.811,551.076,54.22,359.5,54.22z"/>
		<path fill="#7CA0BA" d="M105.698,162.648c1.2-0.454,2.379-0.983,3.516-1.588c6.018,4.958,11.351,4.958,18.297,1.921
			c4.198,4.603,10.792,7.937,22.428,4.603c14.89,8.946,21.332,5,27.568,1.242c2.684,3.758,9,7.04,14.319,7.758
			c8.524,1.151,17.841,0.333,22.883-3c8.533,4.333,18.617,1,24.823-1.667c4.266,4,17.84,2,24.822-2
			c7.37,3.333,14.843,3.581,24.047,0.667c7.369-2.333,8.921-7.436,9.696-11.103c5.43,1.667,14.167,1.021,19.78-3
			c4.654-3.333,8.145-9.333,2.348-13.938c18.979,2.938,31.408-15.934,10.18-18.432c7.635-9.276,2.42-24.528-14.773-24.227
			c9.229-17.635-17.146-20.635-28.093-17.273c-0.688-5.694-5.366-10.061-15.607-11.846c-7.793-1.358-16.109-1.516-22.832,1.874
			c-0.47-1.062-1.115-1.957-1.872-2.737C186.592,88.042,138.228,120.846,105.698,162.648z"/>
		<path fill="#E7D795" d="M611.314,266.471c-41.672,0.23-88.492-3.416-130.086-3.416c-52.051,0-117.861-2.137-169.867-2.137
			c-46.497,0-204.214,4.879-250.52,7.652c-1.305,9.693-1.983,19.547-1.983,29.531c0,57.326,121.535,107.678,300.641,107.678
			c181.066,0,301.641-43.75,301.641-107.678c0-10.23-0.707-20.381-2.092-30.398C647.889,266.965,632.373,266.354,611.314,266.471z"
			/>
		<path fill="#81B1CA" d="M656.99,255.438c-65.654-3.545-177.986-4.736-310.414-4.736c-103.653,0-221.128,3.117-284.054,7.381
			c-1.033,5.594-1.854,11.246-2.451,16.955c22.209-1.852,56.346-5.473,73.092-5.473c17.512,0,35.681,3.066,61.094,2.592
			c22.83-0.426,59.061-4.713,68.094-3.746c18.823,2.014,32.814,2.342,50.926,2.342c17.035,0,35.305-4.49,52.164-3.789
			c20.494,0.852,40.828-0.488,61.057,1.602c19.371,2.004,39.191,1.742,57.361-0.693c19.971-2.678,68.496,4.094,79.639,4.094
			c23.006,0,64.705-2.707,96.02-0.551C658.867,266.049,658.029,260.721,656.99,255.438z"/>
	</g>
</g>
<path fill="#F1E7BF" d="M65.366,320.83c27.377,47.273,139.208,84.949,294.134,84.949c159.484,0,272.02-33.945,296.586-85.723
	c-23.248-0.943-55.5-2.49-59.393-2.479c-49.227,0.146-118.48-1.805-151.332-1.805c-52.051,0-103.832,3.609-155.838,3.609
	C270.461,319.383,119.475,320.74,65.366,320.83z"/>
<path fill="#81B1CA" d="M448.26,166.018c2.082-7.241,9.658-9.045,16.682-4.861c0.324-2.195,2.234-2.729,4.078-1.739
	c3.221-5.898,10.258-9.529,16.301-4.126c-5.119-0.081-8.055-0.738-11.393,3.353c-2.506,3.07-3.232,7.89-7.969,7.269
	c-3.309-0.435-5.662-3.891-9.453-4.125C454.035,161.635,448.26,166.018,448.26,166.018z"/>
<path fill="#81B1CA" d="M267.573,124.647c5.602,2.618,4.291,5.21,10.923,4.953c9.168-0.355,22.279-2.782,23.845,10.135
	c-2.254-2.175-6.504-4.631-10.323-5.878c-4.978-1.626-9.414-0.196-14.206,1.026c-8.189,2.088-5.432,0.206-10.75-4.099
	c-3.413-2.762-7.781-2.98-11.956-2.605C256.282,123.17,263.4,122.696,267.573,124.647z"/>
<path fill="#81B1CA" d="M408.74,114.062c1.508-1.628,4.139-2.227,5.721-0.677c3.408-4.084,10.773-3.618,14.141,0.865
	c-3.143-0.838-5.789-1.872-9.059-0.552c-3.576,1.444-3.506,5.533-7.373,5.489c-4.088-0.047-8.246-5.997-16.254-1.971
	C395.916,117.216,401.762,111.017,408.74,114.062z"/>
<g>
	<g>
		<g>
			<g>
				<path fill="#7A574A" d="M437.156,295.107c0.256-2.311,0.504-4.441,0.693-6.426c-4.52,2.855-9.811,4.762-15.6,5.678
					c-1.602,1.975-4.336,3.387-6.918,3.387c-1.055,0-2.014-0.236-2.844-0.697c-0.084-0.045-0.164-0.092-0.234-0.135
					c-0.41-0.244-1.553-0.93-1.795-2.061c-11.012-0.752-21.875-4.631-27.613-9.992c-4.586,19.758-5.303,37.055-2.904,51.605
					l5.867,0.291c3.656-12.797,13.035-31.453,24.438-32.457c4.764,14.01,10.699,28.025,24.725,39.531l5.682-1.443
					C436.734,320.988,435.605,309.055,437.156,295.107z"/>
			</g>
		</g>
		<g>
			<g>
				<path fill="#7A574A" d="M424.113,287.873l-0.258,0.225l-2.436-1.27c0.154,0.119,0.301,0.234,0.43,0.348
					c1.693,1.486,2.219,3.391,1.477,5.361c-0.092,0.244-0.209,0.482-0.336,0.719c5.385-0.947,10.629-2.854,15.281-6.008
					c-0.09-6.877-0.648-14.316-1.74-21.498C435.551,273.963,431.414,281.496,424.113,287.873z"/>
				<path fill="#7A574A" d="M412.766,296.055c-3.027-1.805-0.332-3.236,1.758-4.369c0.98-0.531,2.92-1.021,2.951-2.24
					c0.025-1.018-2.051-1.373-1.713-2.457c0.258-0.828,1.383-0.746,2.385-0.619c1.08,0.148,2.328,0.928,3.043,1.559
					c4.871,4.275-3.631,10.793-8.221,8.244C412.898,296.133,412.83,296.094,412.766,296.055z"/>
			</g>
		</g>
	</g>
	<path fill="#7A574A" d="M382.049,343.213c-1.633,0.152-5.395,0.404-6.688-0.516c-2.793-1.969,2.018-3.727,4.438-4.32
		C386.016,336.85,389.332,342.527,382.049,343.213z"/>
	<path fill="#7A574A" d="M439.812,349.436c-1.629,0.152-5.391,0.398-6.684-0.516c-2.793-1.973,2.016-3.729,4.439-4.324
		C443.783,343.068,447.1,348.746,439.812,349.436z"/>
	<g>
		<path fill="#7A574A" d="M405.924,211.648c-1.859-5.566-10.316-4.688-10.521-13.16c-2.055,2.232-4.65,2.43-6.209,2.697
			c0.641-5.627,2.176-7.938,7.062-11.409c4.729-3.361,19.264-6.389,27.359,0.984c13.125,11.958,6.426,28.186,12.756,41.475
			c-6.248,3.975-21.619,3.123-26.242-3.23C406.66,224.242,407.684,216.92,405.924,211.648z"/>
		<g>
			<path fill="#7A574A" d="M409.32,229.596c-2.283-3.137-2.736-7.168-3.176-11.064c-0.268-2.381-0.521-4.627-1.168-6.564
				c-0.668-2.002-2.365-3.043-4.328-4.25c-2.49-1.531-5.271-3.24-6.041-7.238c-1.703,1.135-3.486,1.414-4.768,1.615
				c-0.004,0-0.006,0.002-0.01,0.002c-0.834,2.906-1.434,6.461-1.611,10.324c-0.416,9.09,2.764,18.697,6.174,20.578
				c1.957,1.08,10.557,0.252,16.725-1.537C410.436,230.902,409.824,230.287,409.32,229.596z M393.102,216.771
				c-0.771-0.018-1.352-1.266-1.287-2.787c0.068-1.529,0.752-2.754,1.529-2.74c0.777,0.016,1.355,1.262,1.289,2.787
				C394.566,215.559,393.881,216.783,393.102,216.771z"/>
		</g>
		<g>
			<path fill="#7A574A" d="M425.748,235.646c-4.49,0-9.902-0.957-13.633-3.445c-4.248,1.328-9.801,2.186-13.691,2.27
				c-8.895,9.068-15.129,31.283-15.318,49.273c4.979,4.947,15.691,9.312,27.391,10.115c0.379-1.328,2.023-2.227,3.502-3.025
				l0.049-0.027c0.26-0.141,0.551-0.268,0.859-0.402c0.436-0.189,1.412-0.615,1.553-0.92c-0.1-0.105-0.32-0.268-0.461-0.371
				c-0.553-0.408-1.582-1.166-1.191-2.422c0.199-0.641,0.766-1.402,2.328-1.402c0.391,0,0.795,0.045,1.148,0.09
				c0.203,0.027,0.41,0.078,0.615,0.137l-1.535-0.801l0.408-0.479c9.846-11.518,4.686-26.297,4.633-26.445l0.939-0.34
				c0.055,0.152,5.275,15.061-4.41,26.953l4.777,2.49c15.111-13.4,15.998-32.006,2.527-51.262
				C426.074,235.637,425.914,235.646,425.748,235.646z"/>
		</g>
	</g>
</g>
</svg>
