<?xml version="1.0" encoding="utf-8"?>
<!-- Generator: Adobe Illustrator 15.0.2, SVG Export Plug-In . SVG Version: 6.00 Build 0)  -->
<!DOCTYPE svg PUBLIC "-//W3C//DTD SVG 1.1//EN" "http://www.w3.org/Graphics/SVG/1.1/DTD/svg11.dtd">
<svg version="1.1" id="Layer_1" xmlns="http://www.w3.org/2000/svg" xmlns:xlink="http://www.w3.org/1999/xlink" x="0px" y="0px"
	 width="720px" height="460px" viewBox="0 0 720 460" enable-background="new 0 0 720 460" xml:space="preserve">
<path fill="#D3D696" d="M289.882,372.518c132.873-4.033,253.977,0.33,333.688,18.932c53.021,12.375,48.424,28.777,5.23,38.574
	c-48.045,10.898-145.549,19.887-283.566,19.887c-133.379,0-234.924-12.977-272.535-25.639
	c-27.039-9.104-17.824-24.381,30.806-33.994C156.437,379.816,209.153,374.965,289.882,372.518z"/>
<rect x="330.8" y="359.988" fill="#84C3BA" width="51.166" height="19.5"/>
<polygon fill="#C7A53A" points="436.716,382.74 418.466,383.74 377.466,382.74 377.466,356.988 418.466,355.988 436.716,356.988 "/>
<polygon fill="#BC6D5C" points="342.093,386.543 301.501,388.838 276.374,387.74 276.374,353.254 300.329,352.969 342.093,355.156 
	"/>
<g>
	<g>
		<path fill="#AF9474" d="M234.638,373.439c-35.357,0-64.123-28.766-64.123-64.121c0-35.357,28.766-64.123,64.123-64.123
			s64.121,28.766,64.121,64.123C298.759,344.674,269.995,373.439,234.638,373.439z M234.638,249.195
			c-33.151,0-60.123,26.971-60.123,60.123c0,33.15,26.972,60.121,60.123,60.121s60.121-26.971,60.121-60.121
			C294.759,276.166,267.789,249.195,234.638,249.195z"/>
		<rect x="233.638" y="247.195" fill="#AF9474" width="2" height="124.244"/>
		
			<rect x="172.514" y="308.318" transform="matrix(0.342 0.9397 -0.9397 0.342 445.0497 -16.9616)" fill="#AF9474" width="124.245" height="1.999"/>
		
			<rect x="172.515" y="308.317" transform="matrix(0.6428 0.7661 -0.7661 0.6428 320.7715 -69.2493)" fill="#AF9474" width="124.244" height="2"/>
		
			<rect x="172.515" y="308.317" transform="matrix(0.866 0.5 -0.5 0.866 186.1035 -75.8794)" fill="#AF9474" width="124.245" height="2"/>
		
			<rect x="172.514" y="308.318" transform="matrix(0.9848 0.1737 -0.1737 0.9848 57.2805 -36.0468)" fill="#AF9474" width="124.245" height="1.999"/>
		
			<rect x="233.637" y="247.196" transform="matrix(0.1739 0.9848 -0.9848 0.1739 498.4397 24.4671)" fill="#AF9474" width="1.999" height="124.245"/>
		
			<rect x="233.637" y="247.195" transform="matrix(0.4999 0.8661 -0.8661 0.4999 385.2283 -48.5287)" fill="#AF9474" width="2" height="124.245"/>
		
			<rect x="233.638" y="247.197" transform="matrix(0.7662 0.6426 -0.6426 0.7662 253.6414 -78.4594)" fill="#AF9474" width="2" height="124.243"/>
		
			<rect x="233.637" y="247.197" transform="matrix(0.9397 0.3419 -0.3419 0.9397 119.896 -61.5816)" fill="#AF9474" width="1.999" height="124.243"/>
	</g>
	<polygon fill="#939491" points="191.851,386.008 188.247,384.271 225.319,307.318 244.581,307.318 281.653,384.271 278.05,386.008 
		242.068,311.318 227.832,311.318 	"/>
	<polygon fill="#888886" points="246.147,299.307 223.63,299.307 216.63,319.33 253.147,319.33 	"/>
	<g>
		<path fill="#C83B0C" d="M221.38,253.232c0,2.035-1.664,3.699-3.699,3.699h-8.582c-2.033,0-3.699-1.664-3.699-3.699v-4.582
			c0-2.033,1.666-3.699,3.699-3.699h8.582c2.035,0,3.699,1.666,3.699,3.699V253.232z"/>
		<path fill="#C7C4BA" d="M221.38,250.941h-15.98v-2.291c0-2.033,1.666-3.699,3.699-3.699h8.582c2.035,0,3.699,1.666,3.699,3.699
			V250.941z"/>
	</g>
	<g>
		<path fill="#54AC9F" d="M202.696,264.02c0,2.035-1.664,3.701-3.699,3.701h-8.582c-2.035,0-3.699-1.666-3.699-3.701v-4.582
			c0-2.033,1.664-3.699,3.699-3.699h8.582c2.035,0,3.699,1.666,3.699,3.699V264.02z"/>
		<path fill="#C7C4BA" d="M202.696,261.729h-15.98v-2.291c0-2.033,1.664-3.699,3.699-3.699h8.582c2.035,0,3.699,1.666,3.699,3.699
			V261.729z"/>
	</g>
	<g>
		<path fill="#C83B0C" d="M188.829,280.547c0,2.035-1.666,3.699-3.701,3.699h-8.58c-2.035,0-3.699-1.664-3.699-3.699v-4.582
			c0-2.033,1.664-3.699,3.699-3.699h8.58c2.035,0,3.701,1.666,3.701,3.699V280.547z"/>
		<path fill="#C7C4BA" d="M188.829,278.256h-15.98v-2.291c0-2.033,1.664-3.699,3.699-3.699h8.58c2.035,0,3.701,1.666,3.701,3.699
			V278.256z"/>
	</g>
	<g>
		<path fill="#54AC9F" d="M181.448,300.82c0,2.035-1.664,3.699-3.699,3.699h-8.582c-2.033,0-3.699-1.664-3.699-3.699v-4.582
			c0-2.033,1.666-3.699,3.699-3.699h8.582c2.035,0,3.699,1.666,3.699,3.699V300.82z"/>
		<path fill="#C7C4BA" d="M181.448,298.529h-15.98v-2.291c0-2.033,1.666-3.699,3.699-3.699h8.582c2.035,0,3.699,1.666,3.699,3.699
			V298.529z"/>
	</g>
	<g>
		<path fill="#C83B0C" d="M181.448,322.396c0,2.033-1.664,3.699-3.699,3.699h-8.582c-2.033,0-3.699-1.666-3.699-3.699v-4.582
			c0-2.035,1.666-3.699,3.699-3.699h8.582c2.035,0,3.699,1.664,3.699,3.699V322.396z"/>
		<path fill="#C7C4BA" d="M181.448,320.105h-15.98v-2.291c0-2.035,1.666-3.699,3.699-3.699h8.582c2.035,0,3.699,1.664,3.699,3.699
			V320.105z"/>
	</g>
	<g>
		<path fill="#54AC9F" d="M188.827,342.67c0,2.033-1.664,3.699-3.699,3.699h-8.58c-2.035,0-3.701-1.666-3.701-3.699v-4.582
			c0-2.035,1.666-3.699,3.701-3.699h8.58c2.035,0,3.699,1.664,3.699,3.699V342.67z"/>
		<path fill="#C7C4BA" d="M188.827,340.379h-15.98v-2.291c0-2.035,1.666-3.699,3.701-3.699h8.58c2.035,0,3.699,1.664,3.699,3.699
			V340.379z"/>
	</g>
	<g>
		<path fill="#C83B0C" d="M202.696,359.197c0,2.033-1.666,3.699-3.699,3.699h-8.582c-2.035,0-3.699-1.666-3.699-3.699v-4.582
			c0-2.035,1.664-3.699,3.699-3.699h8.582c2.033,0,3.699,1.664,3.699,3.699V359.197z"/>
		<path fill="#C7C4BA" d="M202.696,356.906h-15.98v-2.291c0-2.035,1.664-3.699,3.699-3.699h8.582c2.033,0,3.699,1.664,3.699,3.699
			V356.906z"/>
	</g>
	<g>
		<path fill="#54AC9F" d="M221.38,369.984c0,2.033-1.666,3.699-3.699,3.699h-8.582c-2.035,0-3.699-1.666-3.699-3.699v-4.582
			c0-2.033,1.664-3.699,3.699-3.699h8.582c2.033,0,3.699,1.666,3.699,3.699V369.984z"/>
		<path fill="#C7C4BA" d="M221.38,367.693h-15.98v-2.291c0-2.033,1.664-3.699,3.699-3.699h8.582c2.033,0,3.699,1.666,3.699,3.699
			V367.693z"/>
	</g>
	<g>
		<path fill="#C83B0C" d="M242.628,373.73c0,2.035-1.666,3.699-3.699,3.699h-8.582c-2.035,0-3.699-1.664-3.699-3.699v-4.582
			c0-2.033,1.664-3.699,3.699-3.699h8.582c2.033,0,3.699,1.666,3.699,3.699V373.73z"/>
		<path fill="#C7C4BA" d="M242.628,371.439h-15.98v-2.291c0-2.033,1.664-3.699,3.699-3.699h8.582c2.033,0,3.699,1.666,3.699,3.699
			V371.439z"/>
	</g>
	<g>
		<path fill="#54AC9F" d="M263.874,369.984c0,2.033-1.664,3.699-3.699,3.699h-8.582c-2.035,0-3.699-1.666-3.699-3.699v-4.582
			c0-2.033,1.664-3.699,3.699-3.699h8.582c2.035,0,3.699,1.666,3.699,3.699V369.984z"/>
		<path fill="#C7C4BA" d="M263.874,367.693h-15.98v-2.291c0-2.033,1.664-3.699,3.699-3.699h8.582c2.035,0,3.699,1.666,3.699,3.699
			V367.693z"/>
	</g>
	<g>
		<path fill="#C83B0C" d="M282.558,359.197c0,2.033-1.664,3.699-3.699,3.699h-8.58c-2.035,0-3.701-1.666-3.701-3.699v-4.582
			c0-2.035,1.666-3.699,3.701-3.699h8.58c2.035,0,3.699,1.664,3.699,3.699V359.197z"/>
		<path fill="#C7C4BA" d="M282.558,356.906h-15.98v-2.291c0-2.035,1.666-3.699,3.701-3.699h8.58c2.035,0,3.699,1.664,3.699,3.699
			V356.906z"/>
	</g>
	<g>
		<path fill="#54AC9F" d="M296.427,342.67c0,2.035-1.666,3.699-3.699,3.699h-8.582c-2.035,0-3.699-1.664-3.699-3.699v-4.582
			c0-2.033,1.664-3.699,3.699-3.699h8.582c2.033,0,3.699,1.666,3.699,3.699V342.67z"/>
		<path fill="#C7C4BA" d="M296.427,340.379h-15.98v-2.291c0-2.033,1.664-3.699,3.699-3.699h8.582c2.033,0,3.699,1.666,3.699,3.699
			V340.379z"/>
	</g>
	<g>
		<path fill="#C83B0C" d="M303.806,322.396c0,2.033-1.664,3.699-3.699,3.699h-8.582c-2.033,0-3.699-1.666-3.699-3.699v-4.582
			c0-2.033,1.666-3.699,3.699-3.699h8.582c2.035,0,3.699,1.666,3.699,3.699V322.396z"/>
		<path fill="#C7C4BA" d="M303.806,320.105h-15.98v-2.291c0-2.033,1.666-3.699,3.699-3.699h8.582c2.035,0,3.699,1.666,3.699,3.699
			V320.105z"/>
	</g>
	<g>
		<path fill="#54AC9F" d="M303.806,300.822c0,2.033-1.664,3.699-3.699,3.699h-8.582c-2.033,0-3.699-1.666-3.699-3.699v-4.582
			c0-2.035,1.666-3.699,3.699-3.699h8.582c2.035,0,3.699,1.664,3.699,3.699V300.822z"/>
		<path fill="#C7C4BA" d="M303.806,298.531h-15.98v-2.291c0-2.035,1.666-3.699,3.699-3.699h8.582c2.035,0,3.699,1.664,3.699,3.699
			V298.531z"/>
	</g>
	<g>
		<path fill="#C83B0C" d="M296.427,280.549c0,2.033-1.664,3.699-3.699,3.699h-8.582c-2.035,0-3.699-1.666-3.699-3.699v-4.584
			c0-2.033,1.664-3.699,3.699-3.699h8.582c2.035,0,3.699,1.666,3.699,3.699V280.549z"/>
		<path fill="#C7C4BA" d="M296.427,278.258h-15.98v-2.293c0-2.033,1.664-3.699,3.699-3.699h8.582c2.035,0,3.699,1.666,3.699,3.699
			V278.258z"/>
	</g>
	<g>
		<path fill="#54AC9F" d="M282.56,264.021c0,2.033-1.666,3.699-3.701,3.699h-8.58c-2.035,0-3.699-1.666-3.699-3.699v-4.582
			c0-2.035,1.664-3.699,3.699-3.699h8.58c2.035,0,3.701,1.664,3.701,3.699V264.021z"/>
		<path fill="#C7C4BA" d="M282.56,261.73h-15.98v-2.291c0-2.035,1.664-3.699,3.699-3.699h8.58c2.035,0,3.701,1.664,3.701,3.699
			V261.73z"/>
	</g>
	<g>
		<path fill="#C83B0C" d="M263.874,253.234c0,2.033-1.664,3.699-3.699,3.699h-8.582c-2.033,0-3.699-1.666-3.699-3.699v-4.582
			c0-2.035,1.666-3.699,3.699-3.699h8.582c2.035,0,3.699,1.664,3.699,3.699V253.234z"/>
		<path fill="#C7C4BA" d="M263.874,250.943h-15.98v-2.291c0-2.035,1.666-3.699,3.699-3.699h8.582c2.035,0,3.699,1.664,3.699,3.699
			V250.943z"/>
	</g>
	<g>
		<path fill="#54AC9F" d="M242.628,249.486c0,2.035-1.666,3.699-3.699,3.699h-8.582c-2.035,0-3.699-1.664-3.699-3.699v-4.582
			c0-2.033,1.664-3.699,3.699-3.699h8.582c2.033,0,3.699,1.666,3.699,3.699V249.486z"/>
		<path fill="#C7C4BA" d="M242.628,247.195h-15.98v-2.291c0-2.033,1.664-3.699,3.699-3.699h8.582c2.033,0,3.699,1.666,3.699,3.699
			V247.195z"/>
	</g>
</g>
<g>
	<path fill="#D3623D" d="M551.821,359.82c-0.238-0.916-1.428-4.088-1.645-4.922c-1.158-4.453-18.713-3.736-39.207,1.6
		c-20.496,5.334-36.17,13.27-35.012,17.721c0.238,0.916,1.426,4.088,1.645,4.922c1.158,4.453,18.713,3.736,39.207-1.6
		C537.304,372.207,552.979,364.271,551.821,359.82z"/>
	
		<ellipse transform="matrix(0.9677 -0.2519 0.2519 0.9677 -75.2922 141.0097)" fill="#DF8561" cx="513.067" cy="364.559" rx="38.346" ry="8.33"/>
	
		<ellipse transform="matrix(0.9677 -0.2519 0.2519 0.9677 -75.2988 141.0269)" fill="#D3623D" cx="513.068" cy="364.56" rx="9.144" ry="1.985"/>
</g>
<g>
	<ellipse fill="#6C94B2" cx="445.216" cy="383.74" rx="17.5" ry="1.711"/>
	<path fill="#76A2BE" d="M479.466,348.494c0-2.83-15.334-5.121-34.25-5.121s-34.25,2.291-34.25,5.121c0,1.205,0,3.17,0,4.375
		c0,2.828,15.334,5.119,34.25,5.119s34.25-2.291,34.25-5.119C479.466,351.664,479.466,349.699,479.466,348.494z"/>
	<path fill="#6C94B2" d="M445.216,347.748c-18.916,0-34.25,2.291-34.25,5.121c0,0.545,0.568,1.07,1.623,1.561
		c3.219,1.504,20.68,4.258,21.303,4.479c1.865,0.656,6.234,1.121,11.324,1.121c5.25,0,9.732-0.492,11.492-1.186
		c0.516-0.203,17.797-2.891,21.061-4.377c1.102-0.504,1.697-1.041,1.697-1.598C479.466,350.039,464.132,347.748,445.216,347.748z"/>
	<path fill="#76A2BE" d="M445.216,353.48c-6.938,0-12.561,0.553-12.561,1.23l3.811,13.898c0,0,3.918,0,8.75,0s8.75,0,8.75,0
		l3.811-13.898C457.776,354.033,452.153,353.48,445.216,353.48z"/>
	<path fill="#81B1CA" d="M445.216,383.738c6.938,0,12.561-0.551,12.561-1.23l-3.811-13.898c0,0-2.25-0.441-8.75-0.441
		c-6,0-8.75,0.441-8.75,0.441l-3.811,13.898C432.655,383.188,438.278,383.738,445.216,383.738z"/>
</g>
<g>
	<path fill="#AE9E7D" d="M324.466,404.275c-125.117,0-192.334-2.555-212.637-9.006v-19.99
		c28.127-10.857,106.205-11.898,212.637-11.898V404.275z"/>
	<path fill="#AE9E7D" d="M381.966,404.262v-40.854c87.834,0,173.75,1.312,202.768,11.975v19.887
		C564.8,403.721,483.8,404.262,381.966,404.262z"/>
</g>
<path fill="#AE9E7D" d="M392.022,367.861h-10c0-13.357-13.123-24.225-29.256-24.225c-16.131,0-29.254,10.867-29.254,24.225h-10
	c0-18.871,17.609-34.225,39.254-34.225C374.413,333.637,392.022,348.99,392.022,367.861z"/>
<path fill="#6C94B2" d="M340.966,246.205c-0.188-19.514-11.043-48.018-21.541-75.586c-10.412-27.34-20.246-53.162-20.24-70.525h2
	c-0.006,16.994,9.765,42.65,20.109,69.814c10.561,27.731,21.48,56.407,21.672,76.278L340.966,246.205z"/>
<g>
	<path fill="#AF9474" d="M350.761,57.208c1.465,13.867-3.549,26.635-8.828,35.217c-6.324,10.281-14.248,17.168-34.332,21.355
		c-24.459,5.1-43.211-2.729-54.346-16.688c-7.756-9.725-11.82-23.5-11.82-35.494c0-8.926,1.227-18.4,5.775-26.266
		c4.178-7.221,9.689-13.049,16.732-17.24c9.242-5.5,18.779-9,36.242-7.75c17.25,1.234,27.311,8.324,34.154,13.977
		C341.935,30.593,349.185,42.261,350.761,57.208z"/>
	<path fill="#AF9474" d="M232.317,42.371c2.867-0.527,5.715-3.148,4.631-5.436c-1.049-2.215-5.449-2.25-6.281,0.316
		c-0.486-2.863-1.707-5.195-4.982-3.83c-2.938,1.223-2.301,4.809-0.451,6.133c-2.17-1.715-4.748,0.176-4.686,2.396
		c0.084,2.996,3.412,3.965,6.012,2.893c0.068,2.74,0.125,7.961,3.744,14.164c2.791,4.781,10.162,9.27,15.293,10.279
		c10.652,2.092,9.553-9.834,0.641-11.963c-3.625-0.867-6.391-1.361-9.053-4.52C233.376,48.287,231.999,43.806,232.317,42.371z"/>
	<ellipse fill="#EADDB4" cx="296.184" cy="59.388" rx="44.583" ry="42.291"/>
	<path fill="#AF9474" d="M336.813,137.433c4.127-0.959,8.658-0.168,9.818,1.82c1.449,2.486,0.102,3.646-3.1,4.295
		c2.467,5.332-6.854,7.537-8.654,4.293c-10.693,6.586-11.693-5.914-5.379-7.461c-0.334-10.5-4.166-19.332-8.666-24.666
		c-2.916-3.455-10.184-4.459-7.646-10.475c3.449-8.184,11.947-2.41,15.09,1.91C334.194,115.287,336.333,126.089,336.813,137.433z"/>
	<path fill="#AF9474" d="M269.679,138.759c2.33-0.139,6.463,2.59,6.182,5.125c-0.307,2.764-5.344,5.082-9.459,2.5
		c-1.391,2.48-5.459,3.189-8.057,2.375c-2.66-0.832-3.74-4.439-0.709-5.793c-7.957-2.207,0.543-8.041,5.291-5.562
		c0.436-8.6,0.863-15.775,4.135-21.748c2.633-4.809,6.854-8.049,11.281-9.395c4.428-1.344,8.621,2.977,4.654,5.498
		C274.345,117.259,270.179,127.425,269.679,138.759z"/>
	<ellipse fill="#AF9474" cx="276.729" cy="39.763" rx="3.794" ry="3.275"/>
	<ellipse fill="#AF9474" cx="316.896" cy="39.763" rx="3.764" ry="3.275"/>
	<ellipse fill="#8E7565" cx="296.474" cy="61.189" rx="7.275" ry="5.012"/>
	<ellipse fill="#D6A69C" cx="269.694" cy="71.052" rx="5.752" ry="5.25"/>
	<ellipse fill="#D6A69C" cx="324.184" cy="71.052" rx="5.751" ry="5.25"/>
	<path fill="#D6A69C" d="M296.185,88.882c-12.581,0-23.871-6.283-29.463-16.398l3.501-1.936
		c4.888,8.842,14.836,14.334,25.962,14.334c11.08,0,21.318-5.717,26.086-14.562l3.521,1.898
		C320.337,82.341,308.716,88.882,296.185,88.882z"/>
	<path fill="#AF9474" d="M363.942,63.019c3.885-7.756,3.721-12.943,1.617-20.051c1.613-0.248,4.684-2.375,4.625-4.625
		c-0.092-3.439-4.875-4.25-6.25-1.375c0.242-1.699-1.883-3.701-4.582-3.539c-4.098,0.246-3.793,3.789-2.293,5.539
		c-1.625-0.625-4.703,0.217-4.723,2.799c-0.014,1.66,3.848,3.41,5.973,2.701c1.625,3.543,0.75,10-3.699,13.885
		c-3.426,2.99-10.09,0.555-12.932,4.74c-2.906,4.277,1.367,9.045,5.436,9.092C353.581,72.259,361.067,68.759,363.942,63.019z"/>
</g>
<g>
	<g>
		<g>
			<g>
				<path fill="#7A574A" d="M483.905,348.072c2.055-1.426,3.008-4.602,2.016-7.521c-1.371-4.037-4.994-8.959-9.588-8.619
					c-2.711,0.201-4.295,1.672-5.24,2.715c-1.365,1.51-2.053,4.352-1.309,6.342c2,5.344,5.92-5.631,6.531,2.479
					c0.16,2.141-0.115,3.062,1.971,4.363C480.505,349.213,482.472,349.068,483.905,348.072z"/>
				<path fill="#7A574A" d="M432.45,438.818c2.455,0.412,8.115,1.195,10.176-0.047c4.438-2.68-2.646-5.867-6.248-7.029
					C427.14,428.752,421.499,436.982,432.45,438.818z"/>
				<path fill="#7A574A" d="M377.888,438.678c-2.475,0.252-8.176,0.693-10.152-0.684c-4.264-2.943,3.004-5.684,6.672-6.625
					C383.813,428.957,388.931,437.521,377.888,438.678z"/>
			</g>
			<g>
				<g>
					<path fill="#7A574A" d="M402.187,356.275c-18.104,0-36.656-2.98-44.186-9.488c-0.855,26.303,4.851,52.105,14.129,81.762
						l9.768,0.369c2.762-21.643,8.559-43.951,22.775-55.191c12.213,7.197,20.246,31.342,24.934,55.367l8.914,0.201
						c2.961-16.146,14.904-52.398,11.58-83.555C441.94,352.938,421.251,356.275,402.187,356.275z"/>
				</g>
			</g>
			<g>
				<g>
					<path fill="#7A574A" d="M344.235,252.232c0.879-2.396,1.545-6.064,0.434-7.682c-1.059-1.539-2.209-1.215-3.643-1.914
						c-0.973-0.475-1.395-1.566-2.225-2.189c-1.963-1.477-6.402-0.609-8.303,1.578c-2.473,2.844-2.99,5.705-2.348,8.195
						c0.443,1.721,1.453,3.373,2.766,4.623c2.074,1.977,5.488,2.479,8.207,1.918C341.927,256.184,343.397,254.518,344.235,252.232z"
						/>
				</g>
			</g>
			<g>
				<g>
					<path fill="#7A574A" d="M476.788,329.381c-7.83-31.9-24.477-67.768-57.869-76.992c-5.436,3.463-11.088,5.512-15.699,5.512
						c-0.303,0-0.596-0.01-0.884-0.027c-4.753-0.295-10.271-2.748-15.356-6.633c-32.184,5.023-40.916,24.645-45.887,7.494h-10.945
						c-6.334,36.746,36.221,31.227,36.221,31.227s-8.482,22.08-10.826,50.844c2.203,19.863,94.301,19.074,97.1-1.111
						c-4.359-25.123-11.951-49.547-11.951-49.547s17.367,19.197,27.025,43.242L476.788,329.381z"/>
				</g>
				<path fill="#7A574A" d="M430.331,206.721c-0.943-0.836-2.24-1.867-3.725-3.045c-5.152-4.094-12.037-9.562-14.941-15.219
					c-5.008,6.028-18.715,11.352-25.813,13.086c-1.608,8.047-4.282,14.244-8.788,24.318c-1.002,2.24-2.224,4.459-3.529,6.572
					c6.592,15.092,20.078,23.896,28.863,24.441c7.527,0.469,20.013-5.684,28.67-17.004
					C431.72,229.078,432.218,213.588,430.331,206.721z M395.601,216.279c-0.234,2.902-1.953,5.168-3.828,5.061
					c-1.889-0.105-3.217-2.545-2.982-5.451c0.242-2.9,1.965-5.17,3.838-5.062C394.503,210.932,395.841,213.367,395.601,216.279z
					 M420.249,217.588c-0.242,2.967-1.932,5.275-3.73,5.18c-1.82-0.107-3.092-2.592-2.85-5.557c0.248-2.965,1.926-5.281,3.74-5.18
					C419.226,212.137,420.495,214.625,420.249,217.588z"/>
				<path fill="#7A574A" d="M444.95,202.887c-6.242-18.012-14.395-27.176-28.699-30.333c-21.383-5.861-42.283,5.982-50.23,24.518
					c-6.303,14.691-7.314,25.873-13.895,33.918c5.01,0.182,9.85-1.662,9.85-1.662l-0.439,17.078c0,0,9.879-10.373,14.613-20.953
					c4.35-9.719,6.994-15.814,8.607-23.561c-4.467,0.961-10.369,1.043-10.627,1.045l-1.33,0.016l0.991-0.887
					c0.063-0.059,6.402-5.758,9.286-10.227l0.84,0.543c-2.288,3.545-6.541,7.707-8.471,9.518c2.117-0.082,6.342-0.334,9.526-1.078
					c0.007-0.035,0.015-0.068,0.021-0.104c7.066-1.6,23.209-7.754,26.873-14.29c2.732,7.545,14.389,15.403,18.965,19.407
					l0.066-0.072c2.383,2.238,5.553,3.625,7.098,4.213c-0.721-2.336-2.471-8.391-2.696-12.797l0.999-0.051
					c0.272,5.316,2.926,13.416,2.952,13.496l0.302,0.918l-0.924-0.283c-0.176-0.055-3.847-1.197-7.054-3.623
					c2.628,12.314-0.37,43.807-0.37,43.807l8.227-10.303l2.021,5.826C441.452,246.967,451.288,221.178,444.95,202.887z"/>
			</g>
		</g>
	</g>
</g>
</svg>
