<?xml version="1.0" encoding="utf-8"?>
<!-- Generator: Adobe Illustrator 15.0.2, SVG Export Plug-In . SVG Version: 6.00 Build 0)  -->
<!DOCTYPE svg PUBLIC "-//W3C//DTD SVG 1.1//EN" "http://www.w3.org/Graphics/SVG/1.1/DTD/svg11.dtd">
<svg version="1.1" id="Layer_1" xmlns="http://www.w3.org/2000/svg" xmlns:xlink="http://www.w3.org/1999/xlink" x="0px" y="0px"
	 width="720px" height="460px" viewBox="0 0 720 460" enable-background="new 0 0 720 460" xml:space="preserve">
<path fill="#9FC4D7" d="M660.639,222.996C652.582,114.154,543.748,28.583,359.5,28.583c-184.417,0-298.859,86.121-300.6,199.813
	c22.201-2.844,56.578-8.484,73.401-8.484c17.512,0,35.681,4.732,61.094,4c22.83-0.658,59.061-7.273,68.094-5.783
	c18.823,3.109,32.814,3.615,50.925,3.615c17.035,0,35.305-6.928,52.164-5.848c20.494,1.312,40.83-0.752,61.057,2.473
	c19.373,3.092,39.191,2.688,57.361-1.07c19.971-4.133,68.496,6.318,79.639,6.318C586.135,223.617,629.123,219.264,660.639,222.996z"
	/>
<path fill="#D2E3EC" d="M63.464,192.141c176.167-6.221,422.415-7.585,591.894-0.537C630.43,98.145,525.619,28.583,359.5,28.583
	C195.265,28.583,86.529,96.889,63.464,192.141z"/>
<path fill="#E7D795" d="M611.312,216.418c-41.67,0.357-88.49-5.271-130.084-5.271c-52.051,0-117.861-3.297-169.867-3.297
	c-47.052,0-207.993,7.709-252.126,11.961c-0.246,3.709-0.376,7.445-0.376,11.215c0,111.912,121.535,200.391,300.641,200.391
	c181.064,0,301.641-86.975,301.641-195.332c0-5.943-0.311-11.822-0.895-17.637C649.006,217.25,633.143,216.23,611.312,216.418z"/>
<g>
	<g>
		<g>
			<g>
				<path fill="#C83B0C" d="M327.328,273.199c-4.32,4.166-16.035,4.668-21.387,4.668c-14.678,0-32.776-3.514-38.97-10.23
					c-0.233-0.252-0.445-0.51-0.644-0.768c-6.774,14.52-10.01,39.279-3.802,57.861l8.295,0.436
					c2.095-18.91,13.242-31.836,27.542-34.049c0.841,15.605,10.184,30.148,29.096,39.174l6.586-3.492
					C320.711,311.732,327.467,291.385,327.328,273.199z"/>
			</g>
		</g>
		<g>
			<path fill="#C83B0C" d="M267.846,237.486c-2.932,2.246-6.579,4.18-11.126,5.398l1.965,8.008c2.486-0.211,4.866-0.598,7.145-1.123
				C266.324,245.766,266.967,241.648,267.846,237.486z"/>
		</g>
		<g>
			<path fill="#C83B0C" d="M331.979,266.217c0.102-0.459,0.188-1.818,0.104-2.275c-0.25-1.352-1.418-2.582-3.043-2.25
				c0.459-1.75,1.752-4.068,3.176-4.83c1.189-0.635,2.822-0.609,4.363-0.152c3.234,0.953,4.539,4.189,4.977,7.227
				c0.342,2.355-1.742,5.484-4.207,6.129c-1.824,0.477-5.023-0.516-5.48-2.555C331.771,267.082,331.885,266.643,331.979,266.217z"/>
			<g>
				<path fill="#AAB036" d="M367.828,298.078c-1.09-7.037-12.127-6.275-16.236-13.775c-3.576-6.523-1.863-14.119-5.74-19.086
					c-1.104-1.414-2.346-2.473-3.682-3.238c0.15,0.572,0.281,1.17,0.375,1.814c0.42,2.889-2.029,6.477-4.945,7.24
					c-0.023,0.006-0.053,0.008-0.078,0.014c1.152,2.121,1.969,5.057,2.33,7.867c1.852,14.436,1.74,26.367,5.389,33.104
					c2.465,4.551,5.939,8.771,9.84,5.488c1.947-1.637-1.086-6.551,5.789-6.836c4.615-0.189,4.389-5.58,3.426-9.43
					C364.033,300.195,368.107,299.871,367.828,298.078z"/>
			</g>
		</g>
		<g>
			<path fill="#C83B0C" d="M265.916,332.58c-1.919-0.08-6.318-0.383-7.673-1.65c-2.926-2.727,2.927-4.004,5.827-4.318
				C271.515,325.824,274.468,332.93,265.916,332.58z"/>
		</g>
		<g>
			<path fill="#C83B0C" d="M334.551,337.098c-1.85,0.502-6.129,1.547-7.809,0.75c-3.615-1.713,1.709-6.123,4.383-7.297
				C337.984,327.543,342.816,334.842,334.551,337.098z"/>
		</g>
		<g>
			<path fill="#C83B0C" d="M332.178,194.059c-1.898-5.059-0.557-12.809,0.361-19.518c1.68-12.311,0.885-16.136-3.281-22.067
				c-3.463-4.926-7.338-8.861-13.701-11.169c-7.578-2.746-16.88-2.177-22.378-0.424c-2.307,0.736-6.972,2.002-11.632,3.695
				c-3.098,1.124-11.619,1.958-14.962,1.058c1.462,2.279,6.947,4.892,9.922,6.446c-3.187,1.706-9.271,2.218-9.606,2.879
				c7.806,3.805,17.104,4.465,27.052,4.605c0.427,6.215,1.476,13.2,3.451,21.937c1.986,8.776,6.266,15.854,10.65,20.438
				c2.633-2.996,4.689-6.125,4.689-6.125s3.465,2.857,9.939,5.494c-0.422-4.041,0.615-8.076,0.615-8.076
				S328.088,193.559,332.178,194.059z"/>
			<g>
				<path fill="#C83B0C" d="M309.262,200.508c-0.586,0.299-1.172,0.58-1.76,0.834c0.184,0.201,0.367,0.404,0.551,0.596
					C308.473,201.461,308.877,200.98,309.262,200.508z"/>
				<path fill="#C83B0C" d="M313.873,199.275c0,0-1.17-0.318-1.574-0.588c-0.232,0.16-0.475,0.312-0.711,0.471
					c-0.777,1.033-1.729,2.24-2.783,3.439l-0.721,0.82l-0.754-0.789c-0.254-0.264-0.529-0.566-0.812-0.885
					c-4.947,1.939-9.84,2.416-13.418,2.416c-2.828,0-5.737-0.307-8.246-0.842c-5.019,4.959-8.915,11.928-12.002,20.244
					c-4.663,12.559-6.169,25.451-7.197,38.141c-1.276,15.732,58.267,20.014,62.109,9.096c0.848-2.408-0.098-7.805-0.098-7.805
					l0.406-1.555c0.33-1.264,1.014-2.723,1.896-3.863c0.217-4.482,0.059-9.152-0.27-13.557
					c-3.121-12.621-11.629-19.553-11.738-19.641l0.623-0.781c0.143,0.113,14.139,11.486,13.205,31.717l7.307,0.582
					C344.547,232.102,329.691,204.703,313.873,199.275z"/>
				<path fill="#AAB036" d="M330.891,267.727c-0.137-0.615-0.01-1.18,0.092-1.635l0.02-0.088c0.084-0.389,0.146-1.6,0.096-1.881
					c-0.133-0.715-0.666-1.486-1.529-1.486c-0.105,0-0.215,0.012-0.328,0.035l-1.574,0.322l-0.668,0.285
					c-5.457,2.434-10.031,5.965-14.092,10.822c-6.023,7.209-17.251,30.07-8.428,25.525c2.848-1.467,2.213,6.496,5.539,5.062
					c3.271-1.41,5.969,3.479,8.086,0.977c3.779-4.467,8.805-29.094,10.936-33.104c0.865-1.625,1.705-2.76,2.512-3.492
					C331.24,268.67,331.002,268.225,330.891,267.727z"/>
			</g>
		</g>
		<path fill="#C83B0C" d="M296.427,181.721c-1.828-8.087-2.917-14.846-3.406-21.172c-6.719-0.121-12.637-0.535-17.946-1.736
			c-0.896,2.072-1.62,4.298-2.131,6.688c-4.441,20.821,4.058,34.33,9.495,36.144c4.443,1.482,14.233,2.756,23.375-0.711
			C302.736,197.287,298.51,190.925,296.427,181.721z M279.983,175.946c-0.299,2.085-1.419,3.651-2.51,3.495
			c-1.087-0.155-1.728-1.97-1.431-4.054c0.294-2.09,1.421-3.647,2.509-3.495C279.638,172.046,280.284,173.865,279.983,175.946z"/>
		<g>
			<path fill="#C83B0C" d="M253.011,242.533c-1.375-0.395-2.905-0.174-4.009,0.889c-0.418,0.4-0.295,0.693-0.805,1.053
				c-0.386,0.27-1.049,0.289-1.489,0.445c-1.104,0.396-2.05,0.963-2.402,2.176c-0.899,3.102,0.93,5.014,3.815,5.873
				c2.261,0.672,6.281,0.572,7.804-1.648c1.315-1.916,0.886-5.389-0.452-7.137C254.861,243.387,253.975,242.809,253.011,242.533z"/>
		</g>
	</g>
</g>
<path fill="#AECDDD" d="M206.06,101.935c2.082-7.241,9.657-9.045,16.681-4.861c0.324-2.195,2.235-2.729,4.078-1.739
	c3.221-5.898,10.257-9.529,16.3-4.127c-5.118-0.08-8.055-0.737-11.393,3.354c-2.505,3.07-3.231,7.891-7.968,7.269
	c-3.309-0.435-5.661-3.891-9.453-4.125C211.833,97.552,206.06,101.935,206.06,101.935z"/>
<path fill="#AECDDD" d="M367.51,54.928c4.475,2.092,3.426,4.163,8.725,3.957c7.324-0.284,17.797-2.222,19.049,8.096
	c-1.801-1.738-5.195-3.7-8.246-4.696c-3.977-1.298-7.521-0.157-11.348,0.819c-6.543,1.668-4.34,0.165-8.588-3.274
	c-2.727-2.206-6.217-2.38-9.551-2.081C358.488,53.749,364.176,53.37,367.51,54.928z"/>
<path fill="#AECDDD" d="M408.74,94.425c1.508-1.628,4.139-2.227,5.719-0.678c3.41-4.084,10.775-3.617,14.141,0.866
	c-3.141-0.838-5.787-1.872-9.057-0.552c-3.576,1.444-3.506,5.533-7.373,5.489c-4.088-0.047-8.246-5.996-16.254-1.971
	C395.916,97.579,401.76,91.38,408.74,94.425z"/>
<g>
	<path fill="#D8642E" d="M495.059,113.947c6.582,2.831,13.502,3.21,20.34,6.052c6.854,2.85,13.023,5.888,20.869,3.282
		c-4.502,5.464-10.303,9.652-17.568,10.223c-7.523,0.59-15.584-2.726-21.877,2.352c0.559-5.143-0.182-13.057-1.26-16.868
		C494.486,115.176,495.059,113.947,495.059,113.947z"/>
	<path fill="#9F9F9D" d="M493.668,301.998c0,0.551-0.49,1-1.088,1h-1.824c-0.598,0-1.088-0.449-1.088-1V110.84
		c0-0.55,0.49-1,1.088-1h1.824c0.598,0,1.088,0.45,1.088,1V301.998z"/>
	<ellipse fill="#9F9F9D" cx="491.668" cy="109.84" rx="3.25" ry="2.786"/>
</g>
<g>
	<path fill="#9F9F9D" d="M587.055,258.77c0,0.352-0.314,0.641-0.697,0.641h-1.17c-0.385,0-0.697-0.289-0.697-0.641V136.164
		c0-0.353,0.312-0.642,0.697-0.642h1.17c0.383,0,0.697,0.289,0.697,0.642V258.77z"/>
	<ellipse fill="#9F9F9D" cx="585.772" cy="135.522" rx="2.085" ry="1.787"/>
	<path fill="#BABF3B" d="M601.514,138.026c3.465-0.242,7.131-0.702,10.658-1.313c0.236,4.562,0.535,9.049,1.012,13.226
		c-8.051,0.469-16.307,0.225-23.861,2.535c-0.119-2.368-1.422-12.131-0.309-13.814C591,135.659,598.355,138.246,601.514,138.026z"/>
</g>
<g>
	<g>
		<g>
			<g>
				<path fill="#AF9474" d="M395.504,210.801c-0.016,0.154-0.043,0.307-0.078,0.451c-0.059,0.24-0.16,0.379-0.395,0.248
					c-0.191-0.107-0.164-0.492-0.418-0.475c-0.312,0.023-0.533,0.77-0.689,0.984c-0.326,0.447-1.004,1.07-1.629,0.77
					c-1.621-0.779,0.145-4.799,2.195-4.064C395.371,209.029,395.592,209.963,395.504,210.801z"/>
			</g>
			<g>
				<g>
					<path fill="#AF9474" d="M407.676,216.715c-2.434,0-4.162-0.51-5.139-1.514c-0.004-0.004-0.006-0.008-0.01-0.012
						c-1.996,5.955-1.459,12.377,1.365,19.58l2.246-0.324c0.404-6.865,3.545-12.393,9.459-14.502
						c2.018,5.67,6.582,11.463,13.578,14.371l2.139-1.457c-6.508-6.637-5.039-16.271-6.346-22.424
						C421.59,214.012,413.168,216.715,407.676,216.715z"/>
				</g>
			</g>
			<path fill="#AF9474" d="M428.006,208.514c-0.051-0.496-0.035-0.992-0.145-1.479c-0.475-0.025-0.732,0.855-1.195,0.627
				c-0.764-0.377,0.816-2.137,1.188-2.352c1.191-0.689,3.012,0.078,3.264,1.449c0.219,1.191-0.58,2.562-1.83,2.85
				C428.303,209.836,428.078,209.236,428.006,208.514z"/>
			<path fill="#AF9474" d="M405.225,237.459c-0.67,0.182-2.221,0.555-2.824,0.266c-1.305-0.619,0.572-1.699,1.537-2.121
				C406.42,234.52,408.211,236.646,405.225,237.459z"/>
			<path fill="#AF9474" d="M431.764,235.879c-0.566,0.398-1.893,1.279-2.561,1.215c-1.439-0.137-0.045-1.791,0.721-2.52
				C431.885,232.707,434.295,234.096,431.764,235.879z"/>
			<g>
				<path fill="#AF9474" d="M418.818,187.921l0.27,0.416h-1.883c-1.762,0-3.133-0.504-4.041-0.981c0,0-0.473,1.065-0.533,1.202
					l-0.441,0.999l-0.688-0.38c-2.922,2.064-6.094,2.847-7.705,2.847h-0.107c-0.506-0.012-1.072-0.174-1.656-0.475
					c-5.131,5.152-8.111,12.803-8.957,16.043l2.76,0.725c1.355-1.996,4.01-6.668,6.078-9.158c1.252,2.502,0.918,8.029,0.752,13.783
					c-0.162,5.68,17.822,1.723,22.004-3.68c-1.977-9.453-6.777-15.256-6.777-15.256s7.605,0.52,10.744,10.299l2.33,0.66
					C431.441,196.594,425.418,190.443,418.818,187.921z"/>
			</g>
			<g>
				<path fill="#AF9474" d="M420.312,184.236c-1.086-1.395-2.164-3.079-2.951-6.329c-0.955-3.95-1.967-5.816-3.846-7.26
					c-1.561-1.2-3.154-2.051-5.365-2.15c-3.902-0.176-10.006,2.771-10.609,6.332c1.322-1.419,4.854-0.849,6.412,1.368
					c1.301,1.852,1.703,4.045,2.891,6.423c1.689,3.377,3.059,4.53,4.873,5.534c0.529-1.193,0.867-2.369,0.867-2.369
					s1.713,1.568,4.664,1.553c-0.838-1.239-1.621-3.39-1.621-3.39S418.986,184.478,420.312,184.236z"/>
				<g>
					<path fill="#AF9474" d="M405.949,183.066c-0.512-1.024-0.875-1.989-1.225-2.923c-0.482-1.28-0.898-2.385-1.59-3.372
						c-0.834-1.187-2.33-1.718-3.443-1.718c-0.631,0-1.148,0.166-1.418,0.457l-0.527,0.567c-0.467,1.379-0.676,2.918-0.521,4.59
						c0.645,6.931,4.611,10.32,6.486,10.357c1.473,0.029,4.252-0.718,6.818-2.41C408.854,187.561,407.496,186.158,405.949,183.066z
						 M399.705,183.639c-0.354,0.058-0.73-0.446-0.842-1.125c-0.111-0.681,0.09-1.277,0.443-1.336
						c0.354-0.058,0.732,0.447,0.842,1.126C400.26,182.984,400.061,183.582,399.705,183.639z"/>
				</g>
			</g>
		</g>
	</g>
</g>
<g>
	<g>
		<g>
			<g>
				<path fill="#AF9474" d="M539.686,222.961c1.033,0.311,2.182,0.555,3.438,0.729c6.52,0.904,16.035-0.283,19.266-3.543
					c1.619,7.945-0.656,18.432-1.457,22.803l-2.223-0.051c-1.916-6.139-5.096-12.002-8.139-13.795
					c-3.541,2.801-5.945,7.742-8.309,13.752l-2.436-0.092C538.604,236.107,538.332,228.635,539.686,222.961z"/>
			</g>
		</g>
		<path fill="#AF9474" d="M528.299,220.385c-0.094,0.248-0.109,0.545,0.162,0.682c0.625,0.318,0.99-0.76,1.16-1.152
			c0.262-0.604,0.566-1.016,0.969-0.965c0.541,0.07,0.262,1.012,0.664,1.1c0.32,0.072,0.506-0.311,0.652-0.664
			c0.156-0.383,0.137-0.938,0.066-1.291c-0.15-0.748-0.705-1.152-1.439-1.236c-0.658-0.078-1.355,0.121-1.797,0.639
			c-0.541,0.637-0.438,1.312-0.215,2.035c0.109,0.359-0.016,0.426-0.168,0.73C528.332,220.301,528.314,220.342,528.299,220.385z"/>
		<path fill="#AF9474" d="M573.766,220.625c-0.293,0.482-0.66,0.947-1.209,0.541c-0.486-0.361-0.367-0.908-0.408-1.42
			c-0.053-0.656-0.209-1.145-0.605-1.227c-0.535-0.109-0.574,0.873-0.984,0.826c-0.326-0.035-0.377-0.457-0.402-0.838
			c-0.025-0.414,0.172-0.932,0.354-1.244c0.396-0.68,1.037-0.908,1.729-0.678C573.734,217.08,574.605,219.25,573.766,220.625z"/>
		<path fill="#AF9474" d="M559.418,245.322c0.611,0.102,2.023,0.297,2.535-0.012c1.105-0.668-0.658-1.461-1.557-1.752
			C558.096,242.814,556.689,244.865,559.418,245.322z"/>
		<path fill="#AF9474" d="M541.102,245.287c-0.615,0.062-2.037,0.172-2.529-0.17c-1.062-0.734,0.748-1.416,1.662-1.65
			C542.578,242.865,543.854,244.998,541.102,245.287z"/>
	</g>
	<g>
		<g>
			<path fill="#AF9474" d="M554.271,191.809c-1.111-0.488-1.869-0.279-2.848-0.281c-0.449-2.392-1.02-4.082-2.273-5.377
				c-1.055-1.089-3.133-1.824-4.938-1.869c-1.34-0.032-2.922,0.21-3.918,0.954c-1.174,0.876-1.197,2.762-1.043,4.607
				c-1.033-3.023,0.045-6.47,1.84-8.542c1.736-2.006,7.863-4.929,12.258-2.532c7.129,3.884,4.643,13.763,4.031,15.114
				c-0.24,0.527-1.574,1.996-2.02,2.322C555.518,194.111,555.227,192.227,554.271,191.809z"/>
		</g>
		<g>
			<g>
				<g>
					<path fill="#AF9474" d="M539.98,192.23c1.697,6.137,5.764,8.711,7.533,8.508c1.434-0.164,4.285-1.188,6.309-3.182
						c0.449-0.441,0.846-0.939,1.193-1.447c0.148-2.119-0.195-3.678-0.885-3.98c-0.244-0.107-0.48-0.182-0.719-0.229
						c-0.449-0.088-0.863-0.066-1.301-0.043c-0.219,0.01-0.445,0.021-0.688,0.021l-0.291-0.002l-0.053-0.285
						c-0.414-2.195-0.943-3.919-2.182-5.197c-0.953-0.983-3.021-1.693-4.602-1.736c-1.189-0.032-2.916,0.225-3.777,0.895
						c-1.051,0.816-1.064,2.508-0.92,4.261c0.061,0.722,0.168,1.446,0.32,2.153l0.025,0.119
						C539.959,192.137,539.971,192.186,539.98,192.23z M545.9,192.102c-0.355,0.031-0.695-0.492-0.758-1.172
						c-0.062-0.681,0.176-1.258,0.531-1.292c0.354-0.033,0.693,0.492,0.756,1.172C546.492,191.49,546.256,192.066,545.9,192.102z
						 M541.457,190.018c0.312-0.029,0.617,0.51,0.682,1.205c0.064,0.695-0.137,1.279-0.449,1.309
						c-0.311,0.027-0.617-0.51-0.684-1.203C540.945,190.633,541.145,190.046,541.457,190.018z"/>
					<g>
						<path fill="#AF9474" d="M532.609,217.537l-2.281-1.613c3.6-8.197,8.523-13.076,13.701-16.244
							c1.211,0.99,2.4,1.477,3.283,1.477c0.084,0,0.166-0.004,0.246-0.012c1.455-0.168,4.402-1.182,6.551-3.297
							c0.094-0.092,0.186-0.189,0.277-0.289c8.303,1.342,14.662,10.201,17.758,17.949l-2.432,1.207
							c-3.668-6.623-9.066-10.088-9.066-10.088s1.344,5.162,2.43,11.422c-0.697,5.029-16.27,7.119-24.176,4.225
							c0.584-7.166,3.076-13.289,3.076-13.289S536.889,209.793,532.609,217.537z"/>
					</g>
				</g>
			</g>
		</g>
	</g>
</g>
</svg>
