<?xml version="1.0" encoding="utf-8"?>
<!-- Generator: Adobe Illustrator 15.0.2, SVG Export Plug-In . SVG Version: 6.00 Build 0)  -->
<!DOCTYPE svg PUBLIC "-//W3C//DTD SVG 1.1//EN" "http://www.w3.org/Graphics/SVG/1.1/DTD/svg11.dtd">
<svg version="1.1" id="Layer_1" xmlns="http://www.w3.org/2000/svg" xmlns:xlink="http://www.w3.org/1999/xlink" x="0px" y="0px"
	 width="720px" height="460px" viewBox="0 0 720 460" enable-background="new 0 0 720 460" xml:space="preserve">
<polygon fill="#888886" points="183.371,389.539 47.965,389.539 342.646,220.063 418.61,220.063 "/>
<g>
	<polygon fill="#9F9F9D" points="89.68,389.539 75.18,389.539 351.089,217.156 354.3,218.224 	"/>
	<polygon fill="#9F9F9D" points="159.18,389.539 146.68,389.539 362.483,216.078 366.241,216.756 	"/>
</g>
<g>
	<g>
		<rect x="374.181" y="181.188" fill="#D7BD4E" width="3.166" height="2.167"/>
		<path fill="#A74807" d="M383.847,191.771c0,0,0.607,6.068-3.832,13c-5.723,8.934-26.184,32.883-26.184,32.883v-48.158l3.162-2.808
			l26.854-3.417V191.771z"/>
		<path fill="#D7BD4E" d="M383.847,191.381c0,0-0.111,2.909-2.25,4.482c-8.201,6.033-27.766,21.064-27.766,21.064v-27.432
			l3.162-2.808l26.854-3.417V191.381z"/>
		<path fill="#E5D482" d="M357.454,188.766l-38.178,0.157c0,0,56.611-4.021,56.611-6.484c0-0.88-1.707-1.25-1.707-1.25h5.166
			c0,0,4.5,0.592,4.5,2.083C383.847,185.056,357.454,188.766,357.454,188.766z"/>
		<path fill="#C05803" d="M356.522,235.521h-39.15c0,0-2.691-3.625-2.691-7.875c0-6.438,0-25.75,0-25.75h39.15c0,0,0,20.75,0,24.125
			S356.522,235.521,356.522,235.521z"/>
		<path fill="#E1CC6C" d="M353.831,216.928h-39.15c0,0,0-16.523,0-22.031c0-2.875,2.068-5.974,4.596-5.974
			c2.529,0,38.178-0.157,38.178-0.157c-3.623,0-3.623,4.406-3.623,5.631C353.831,200.029,353.831,216.928,353.831,216.928z"/>
	</g>
	<g>
		<path fill="#9F9F9D" d="M332.282,209.83c0,2.2-1.8,4-4,4h-6.629c-2.2,0-4-1.8-4-4v-12.016c0-2.2,1.8-4,4-4h6.629c2.2,0,4,1.8,4,4
			V209.83z"/>
	</g>
	<g>
		<path fill="#9F9F9D" d="M350.157,209.83c0,2.2-1.8,4-4,4h-6.629c-2.2,0-4-1.8-4-4v-12.016c0-2.2,1.8-4,4-4h6.629c2.2,0,4,1.8,4,4
			V209.83z"/>
	</g>
	<g>
		<path fill="#C7C4BA" d="M324.819,222.958c0,0.55-0.45,1-1,1h-3.543c-0.55,0-1-0.45-1-1v-1.895c0-0.55,0.45-1,1-1h3.543
			c0.55,0,1,0.45,1,1V222.958z"/>
	</g>
	<g>
		<path fill="#C7C4BA" d="M349.157,222.958c0,0.55-0.45,1-1,1h-3.543c-0.55,0-1-0.45-1-1v-1.895c0-0.55,0.45-1,1-1h3.543
			c0.55,0,1,0.45,1,1V222.958z"/>
	</g>
</g>
<polygon fill="#E7E4D9" points="672.035,365.608 427.704,198.105 383.347,198.105 183.371,365.608 183.371,389.539 672.035,389.539 
	"/>
<rect x="183.371" y="365.608" fill="#F0EEE7" width="488.664" height="23.931"/>
<polygon fill="#C4C5C2" points="589.581,70.461 275.526,70.461 275.526,89.862 371.78,172.067 514.402,172.067 589.581,89.862 "/>
<polygon fill="#AAABA8" points="275.526,89.862 371.78,172.067 514.402,172.067 589.581,89.862 "/>
<polygon fill="#D2D0C8" points="581.054,303.812 458.624,303.812 432.554,231.816 432.554,143.438 458.624,101.18 581.054,101.18 
	"/>
<rect x="458.624" y="101.18" fill="#D9D7D0" width="122.43" height="202.633"/>
<g>
	<path fill="#C83B0C" d="M397.396,262.092c0.708,1.382,1.625,2.74,3.219,1.728c1.41-0.892,1.193-2.423,1.41-3.825
		c0.275-1.797,0.801-3.109,1.91-3.251c1.494-0.194,1.406,2.515,2.543,2.472c0.906-0.031,1.131-1.188,1.277-2.23
		c0.15-1.131-0.291-2.598-0.725-3.49c-0.955-1.955-2.674-2.709-4.623-2.217C398.19,252.34,395.36,258.136,397.396,262.092z"/>
	<path fill="#C83B0C" d="M510.266,271.064c-0.943,1.232-2.09,2.403-3.475,1.122c-1.229-1.131-0.74-2.599-0.701-4.017
		c0.049-1.814-0.232-3.202-1.299-3.54c-1.434-0.459-1.834,2.222-2.945,1.976c-0.885-0.194-0.898-1.371-0.855-2.424
		c0.055-1.139,0.752-2.502,1.34-3.303c1.289-1.753,3.115-2.187,4.943-1.354C511.232,261.326,512.979,267.537,510.266,271.064z"/>
	<path fill="#C83B0C" d="M471.196,333.283c-1.688,0.283-5.58,0.822-6.996-0.032c-3.051-1.844,1.82-4.033,4.295-4.833
		C474.849,326.361,478.726,332.021,471.196,333.283z"/>
	<path fill="#C83B0C" d="M436.802,329.993c-1.701,0.175-5.623,0.476-6.98-0.468c-2.932-2.025,2.064-3.91,4.586-4.557
		C440.876,323.312,444.394,329.198,436.802,329.993z"/>
	<g>
		<g>
			<path fill="#C83B0C" d="M463.021,276.191c-14.253,0-31.291-2.9-37.754-7.833c0.191,15.235,4.54,35.993,8.164,54.931l6.717,0.254
				c4.555-15.478,8.715-26.877,14.93-34.346c6.604,9.24,9.604,19.908,13.328,37.4l6.127,0.138
				c6.189-17.573,10.234-36.563,10.432-54.608C479.388,275.709,468.466,276.191,463.021,276.191z"/>
		</g>
	</g>
	<g>
		<path fill="#C83B0C" d="M428.921,161.323c-0.414,0.523-0.805,1.083-1.17,1.692c-6.418,10.758-3.346,28.194-3.346,28.194
			l1.408-1.602l2.273,4.457l0.467-0.533c-1.229-3.903-2.021-8.439-2.092-13.596c-0.102-7.335,2.262-14.131,6.451-19.45
			C431.483,160.741,430.128,161.031,428.921,161.323z"/>
	</g>
	<path fill="#C83B0C" d="M445.979,159.171c6.082,1.264,10.406,8.003,11.76,11.098c0.779,1.771,2.752,4.973,3.857,13.195
		c0.824,6.146,1.084,18.735,1.104,18.856c1.627-0.332,4.66-2.99,4.66-2.99l1.578,8.24l6.162-6.316l0.965,4.354
		c0,0,6.676-13.691,7.248-25.232c0.541-10.963-4.715-19.754-9.471-24.044c-3.947-3.559-8.078-6.073-13.99-6.925
		c-6.543-0.943-12.037,0.424-19.586,1.449c-6.016,0.817-17.758,0.719-17.758,0.719l8.586,4.401l-7.941,5.952
		C423.153,161.929,436.718,157.243,445.979,159.171z"/>
	<g>
		<path fill="#C83B0C" d="M461.698,201.639c-0.246-8.491-0.607-14.561-1.074-18.044c-0.932-6.948-2.471-10.167-3.389-12.091
			c-0.152-0.312-0.283-0.591-0.393-0.84c-1.107-2.519-5.244-9.322-11.061-10.531c-3.498-0.727-7.668-0.467-11.455,0.117
			c-4.27,4.986-6.994,11.688-6.885,19.672c0.266,19.054,10.367,29.155,15.473,29.659c4.889,0.48,15.318-1.69,23.855-8.112
			l-0.066-0.341c-0.906,0.696-2.125,1.549-3.129,1.947c-0.24,0.096-0.469,0.166-0.678,0.208l-1.002,0.206l-0.162-1.01
			C461.718,202.397,461.718,202.397,461.698,201.639z M430.521,179.421c0.23-1.91,1.113-3.375,1.973-3.273
			c0.859,0.104,1.371,1.737,1.141,3.648c-0.232,1.911-1.115,3.373-1.975,3.271C430.806,182.963,430.288,181.333,430.521,179.421z
			 M445.519,181.873c-0.229,1.871-1.201,3.293-2.184,3.176c-0.975-0.118-1.584-1.729-1.359-3.6c0.227-1.875,1.201-3.293,2.18-3.178
			C445.128,178.389,445.739,180.002,445.519,181.873z"/>
		<g>
			<path fill="#C83B0C" d="M500.309,259.132l7.025-2.589c-6.195-22.171-24.886-47.02-39.962-51.194
				c-1.125-0.312-2.194-0.607-3.238-0.894c-6.965,4.253-14.686,6.189-19.801,6.189c-0.541,0-1.051-0.023-1.517-0.068
				c-2.319-0.229-5.399-2.124-8.263-5.58c-13.244,7.707-22.537,21.309-31.527,44.041l6.082,2.232
				c8.969-17.503,18.266-24.295,18.266-24.295s0.664,15.548-3.758,36.291c-2.469,11.582,61.914,17.884,63.754,3.994
				c1.807-13.619-8.951-38.487-8.951-38.487S492.208,239.875,500.309,259.132z"/>
		</g>
	</g>
</g>
<g>
	<g>
		<g>
			<circle fill="#939491" cx="404.399" cy="152.573" r="13.861"/>
			<circle fill="#E3E1DC" cx="404.399" cy="152.573" r="12.119"/>
			<g>
				<path fill="#939491" d="M411.216,153.043h-6.816c-0.414,0-0.75-0.336-0.75-0.75v-7.449c0-0.414,0.336-0.75,0.75-0.75
					s0.75,0.336,0.75,0.75v6.699h6.066c0.414,0,0.75,0.336,0.75,0.75S411.63,153.043,411.216,153.043z"/>
			</g>
			<g>
				<g>
					<g>
						<path fill="#AAABA8" d="M404.399,143.411c-0.277,0-0.5-0.224-0.5-0.5v-1.183c0-0.276,0.223-0.5,0.5-0.5
							c0.275,0,0.5,0.224,0.5,0.5v1.183C404.899,143.188,404.675,143.411,404.399,143.411z"/>
						<path fill="#AAABA8" d="M404.399,163.358c-0.277,0-0.5-0.224-0.5-0.5v-1.183c0-0.276,0.223-0.5,0.5-0.5
							c0.275,0,0.5,0.224,0.5,0.5v1.183C404.899,163.135,404.675,163.358,404.399,163.358z"/>
					</g>
				</g>
				<g>
					<g>
						<path fill="#AAABA8" d="M399.708,144.668c-0.173,0-0.342-0.09-0.434-0.25l-0.591-1.025c-0.138-0.239-0.056-0.545,0.184-0.683
							c0.239-0.139,0.546-0.056,0.683,0.184l0.591,1.025c0.138,0.239,0.056,0.545-0.184,0.683
							C399.878,144.646,399.792,144.668,399.708,144.668z"/>
						<path fill="#AAABA8" d="M409.683,161.943c-0.173,0-0.341-0.089-0.434-0.25l-0.592-1.025c-0.139-0.239-0.057-0.545,0.184-0.683
							c0.237-0.139,0.545-0.057,0.683,0.183l0.592,1.025c0.138,0.239,0.056,0.545-0.183,0.683
							C409.854,161.922,409.768,161.943,409.683,161.943z"/>
					</g>
				</g>
				<g>
					<g>
						<path fill="#AAABA8" d="M396.274,148.102c-0.085,0-0.171-0.021-0.25-0.067l-1.025-0.591c-0.238-0.138-0.32-0.444-0.183-0.683
							c0.138-0.24,0.442-0.321,0.683-0.183l1.025,0.591c0.239,0.138,0.322,0.444,0.184,0.683
							C396.616,148.012,396.447,148.102,396.274,148.102z"/>
						<path fill="#AAABA8" d="M413.549,158.076c-0.085,0-0.171-0.021-0.249-0.067l-1.025-0.592c-0.24-0.138-0.322-0.444-0.184-0.683
							s0.444-0.321,0.684-0.183l1.025,0.592c0.238,0.138,0.32,0.444,0.183,0.683C413.89,157.986,413.722,158.076,413.549,158.076z"
							/>
					</g>
				</g>
				<g>
					<g>
						<path fill="#AAABA8" d="M395.017,152.793h-1.182c-0.277,0-0.5-0.224-0.5-0.5s0.223-0.5,0.5-0.5h1.182
							c0.277,0,0.5,0.224,0.5,0.5S395.294,152.793,395.017,152.793z"/>
						<path fill="#AAABA8" d="M414.966,152.793h-1.184c-0.277,0-0.5-0.224-0.5-0.5s0.223-0.5,0.5-0.5h1.184
							c0.275,0,0.5,0.224,0.5,0.5S415.241,152.793,414.966,152.793z"/>
					</g>
				</g>
				<g>
					<g>
						<path fill="#AAABA8" d="M395.25,158.076c-0.173,0-0.341-0.09-0.434-0.25c-0.138-0.239-0.056-0.545,0.183-0.683l1.025-0.592
							c0.238-0.138,0.545-0.056,0.684,0.183s0.057,0.545-0.184,0.683l-1.025,0.592C395.421,158.055,395.335,158.076,395.25,158.076z
							"/>
						<path fill="#AAABA8" d="M412.524,148.102c-0.173,0-0.341-0.09-0.434-0.25c-0.139-0.239-0.056-0.545,0.184-0.683l1.025-0.591
							c0.238-0.138,0.544-0.057,0.683,0.183c0.138,0.239,0.056,0.545-0.183,0.683l-1.025,0.591
							C412.694,148.081,412.608,148.102,412.524,148.102z"/>
					</g>
				</g>
				<g>
					<g>
						<path fill="#AAABA8" d="M399.116,161.943c-0.084,0-0.17-0.021-0.249-0.067c-0.239-0.138-0.321-0.443-0.184-0.683l0.591-1.025
							c0.137-0.239,0.443-0.323,0.683-0.184c0.239,0.138,0.321,0.443,0.184,0.683l-0.591,1.025
							C399.458,161.854,399.289,161.943,399.116,161.943z"/>
						<path fill="#AAABA8" d="M409.09,144.668c-0.085,0-0.171-0.021-0.249-0.067c-0.24-0.138-0.322-0.444-0.184-0.683l0.592-1.025
							c0.138-0.24,0.443-0.322,0.684-0.183c0.238,0.138,0.32,0.444,0.183,0.683l-0.592,1.025
							C409.431,144.579,409.263,144.668,409.09,144.668z"/>
					</g>
				</g>
			</g>
		</g>
		<path fill="#939491" d="M405.351,135.251c0-0.524-1.9-0.524-1.9,0s0,4.128,0,4.128h1.9
			C405.351,139.379,405.351,135.775,405.351,135.251z"/>
	</g>
	<path fill="#939491" d="M409.091,134.825c0-0.887-2.031-1.606-4.535-1.606c-2.506,0-4.535,0.719-4.535,1.606
		c0,0.118,0,0.569,0,0.688c0,0.887,2.029,1.605,4.535,1.605c2.504,0,4.535-0.719,4.535-1.605
		C409.091,135.395,409.091,134.943,409.091,134.825z"/>
</g>
</svg>
