<?xml version="1.0" encoding="utf-8"?>
<!-- Generator: Adobe Illustrator 15.0.2, SVG Export Plug-In . SVG Version: 6.00 Build 0)  -->
<!DOCTYPE svg PUBLIC "-//W3C//DTD SVG 1.1//EN" "http://www.w3.org/Graphics/SVG/1.1/DTD/svg11.dtd">
<svg version="1.1" id="Layer_1" xmlns="http://www.w3.org/2000/svg" xmlns:xlink="http://www.w3.org/1999/xlink" x="0px" y="0px"
	 width="720px" height="460px" viewBox="0 0 720 460" enable-background="new 0 0 720 460" xml:space="preserve">
<path fill="#9F9F9D" d="M293.905,280.844c125.252-6.672,239.402,0.545,314.537,31.324c49.98,20.475,45.648,47.615,4.932,63.822
	c-45.285,18.033-137.195,26.791-267.291,26.791c-125.727,0-221.445-15.355-256.896-36.307
	c-25.488-15.062-16.802-40.34,29.039-56.244C168.118,292.922,217.81,284.896,293.905,280.844z"/>
<g>
	<rect x="387.073" y="161.579" fill="#C9BB9C" width="213.523" height="179.604"/>
	<rect x="142.493" y="161.579" fill="#C9BB9C" width="34.754" height="179.604"/>
	<rect x="420.646" y="161.579" fill="#9F9F9D" width="143.92" height="179.604"/>
	<rect x="441.491" y="199.805" fill="#C0C1BF" width="109.816" height="136.348"/>
	<rect x="420.646" y="161.579" fill="#939491" width="143.92" height="26.375"/>
	<polygon fill="#BCAD8D" points="173.507,161.579 173.507,341.184 174.97,341.184 235.39,311.352 235.39,199.805 357.747,199.805 
		357.747,311.352 388.169,341.184 389.63,341.184 389.63,161.579 	"/>
	<polygon fill="#AE9E7D" points="389.63,161.579 173.507,161.579 235.39,199.805 357.747,199.805 	"/>
	<g>
		<g>
			<rect x="126.903" y="161.579" fill="#E0D3B5" width="65.934" height="5.032"/>
			<g>
				<polygon fill="#E0D3B5" points="155.989,336.152 128.993,336.152 130.075,166.611 154.907,166.611 				"/>
				<polygon fill="#E0D3B5" points="190.747,336.152 163.753,336.152 164.835,166.611 189.665,166.611 				"/>
				<rect x="126.903" y="336.152" fill="#E0D3B5" width="31.176" height="5.031"/>
				<rect x="161.663" y="336.152" fill="#E0D3B5" width="31.174" height="5.031"/>
			</g>
		</g>
		<g>
			<rect x="370.3" y="161.579" fill="#E0D3B5" width="65.934" height="5.032"/>
			<g>
				<polygon fill="#E0D3B5" points="399.386,336.152 372.39,336.152 373.472,166.611 398.302,166.611 				"/>
				<polygon fill="#E0D3B5" points="434.144,336.152 407.149,336.152 408.231,166.611 433.062,166.611 				"/>
				<rect x="370.3" y="336.152" fill="#E0D3B5" width="31.174" height="5.031"/>
				<rect x="405.06" y="336.152" fill="#E0D3B5" width="31.174" height="5.031"/>
			</g>
		</g>
	</g>
	<g>
		<g>
			<rect x="555.778" y="161.579" fill="#E0D3B5" width="65.934" height="5.032"/>
			<g>
				<polygon fill="#E0D3B5" points="584.864,336.152 557.868,336.152 558.95,166.611 583.782,166.611 				"/>
				<polygon fill="#E0D3B5" points="619.622,336.152 592.628,336.152 593.71,166.611 618.54,166.611 				"/>
				<rect x="555.778" y="336.152" fill="#E0D3B5" width="31.176" height="5.031"/>
				<rect x="590.538" y="336.152" fill="#E0D3B5" width="31.174" height="5.031"/>
			</g>
		</g>
	</g>
	<rect x="128.993" y="57.218" fill="#C9BB9C" width="492.719" height="104.361"/>
	<rect x="114.464" y="130.628" fill="#E0D3B5" width="517.262" height="30.951"/>
	<polygon fill="#B5B6B3" points="370.3,101.229 256.444,146.104 259.038,150.427 476.079,150.427 478.673,146.104 	"/>
	<g>
		<rect x="256.444" y="67.595" fill="#FAF5E9" width="222.229" height="78.509"/>
		<g>
			<rect x="395.835" y="93.235" fill="#D8D3C1" width="82.838" height="1"/>
			<rect x="391.511" y="80.084" fill="#D8D3C1" width="87.162" height="1"/>
			<rect x="402.753" y="106.386" fill="#D8D3C1" width="75.92" height="1"/>
			<rect x="402.753" y="119.538" fill="#D8D3C1" width="75.92" height="1"/>
			<rect x="389.782" y="132.689" fill="#D8D3C1" width="88.891" height="1"/>
		</g>
		<g>
			<rect x="256.444" y="93.235" fill="#D8D3C1" width="74.24" height="1"/>
			<rect x="256.444" y="80.084" fill="#D8D3C1" width="83.996" height="1"/>
			<rect x="256.444" y="106.386" fill="#D8D3C1" width="76.834" height="1"/>
			<rect x="256.444" y="119.538" fill="#D8D3C1" width="76.834" height="1"/>
			<rect x="256.444" y="132.689" fill="#D8D3C1" width="78.562" height="1"/>
		</g>
		<g>
			<path fill-rule="evenodd" clip-rule="evenodd" fill="#888886" d="M374.765,78.385c4.117-0.303,8.145,1.399,10.574,3.629
				c1.352,1.241,2.848,3.267,3.629,5.366c1.297,3.48,0.977,8.578-0.631,11.677c-1.439,2.775-3.912,5.239-6.943,6.627
				c-3.975,1.821-10.021,1.349-13.57-0.947c-0.436-0.281-0.764-0.842-1.264-1.262c-1.088-0.916-2.105-1.617-2.998-2.999
				c-2.059-3.184-3.076-9.105-1.262-13.571c0.125-0.309,0.561-0.681,0.787-1.105c1.023-1.898,2.168-3.414,4.262-4.892
				C369.546,79.359,371.478,78.627,374.765,78.385z M376.187,86.749c0.84-0.139,2.252-1.145,2.209-2.841
				c-0.051-1.889-1.436-2.831-3.314-2.525C371.144,82.024,372.78,87.311,376.187,86.749z M365.454,87.222
				c-1.207,4.977,6.561,4.921,5.367,0C370.036,85.065,366.22,85.027,365.454,87.222z M380.288,87.695
				c-0.287,1.82,0.723,2.676,0.947,2.84c1.4,1.018,3.824,0.518,4.418-1.104c0.762-2.075-0.66-4.421-3.312-3.788
				C381.024,85.958,380.417,86.882,380.288,87.695z M375.87,94.165c1.797-0.236,1.822-3.824-0.789-2.998
				C373.052,91.809,374.292,94.373,375.87,94.165z M365.454,95.901c-1.07,4.065,4.602,4.942,5.367,1.894
				c0.652-2.611-1.484-3.928-3.156-3.629C366.446,94.382,365.593,95.376,365.454,95.901z M380.288,97.637
				c0.727,3.512,6.773,1.908,5.365-1.894c-0.369-0.999-1.531-1.71-2.84-1.578C380.858,94.362,379.901,95.759,380.288,97.637z
				 M375.554,103.949c3.965,0.043,3.418-6.514-0.789-5.365C371.589,99.452,372.72,103.918,375.554,103.949z"/>
			<path fill-rule="evenodd" clip-rule="evenodd" fill="#888886" d="M346.36,84.065c3.584-0.57,6.984,0.417,9.152,2.052
				c2.877,2.168,5.244,7.007,4.262,11.835c-0.354,1.737-1.988,4.532-3.156,5.681c-4.748,4.666-13.402,3.961-17.359-1.104
				c-1.881-2.409-3.242-7.746-1.578-11.678C339.011,87.712,342.329,84.708,346.36,84.065z M346.204,89.116
				c0.738,2.948,6.139,0.951,4.102-2.052c-0.195-0.287-1.119-0.946-2.209-0.789C346.595,86.491,345.847,87.696,346.204,89.116z
				 M343.837,90.062c-2.688-2.045-5.189,2.674-2.369,3.945C344.798,94.702,345.528,91.353,343.837,90.062z M356.618,91.167
				c-0.504-2.163-3.971-1.867-4.418,0c-0.363,1.517,0.479,2.14,1.262,2.84c0.631,0,1.262,0,1.893,0
				C356.456,93.229,356.874,92.267,356.618,91.167z M347.149,95.743c0.168,0.608,0.711,0.896,1.895,0.789
				C351.604,94.246,346.396,93.009,347.149,95.743z M344.624,99.53c0.775-3.22-4.061-4-4.418-1.104
				c-0.238,1.926,0.943,2.723,3.156,2.525C343.952,100.312,344.485,100.107,344.624,99.53z M355.829,97.005
				c-3.441-2.654-5.65,5.104-0.475,3.945C356.905,100.032,357.065,97.959,355.829,97.005z M350.622,101.582
				c-0.582-2.505-4.98-1.816-4.418,1.262c0.215,1.188,1.234,1.776,3.154,1.579C350.419,103.652,350.886,102.72,350.622,101.582z"/>
			<path fill-rule="evenodd" clip-rule="evenodd" fill="#888886" d="M360.405,102.529c2.191-0.494,2.717,0.92,4.104,2.051
				c3.516,2.871,9.76,5.081,16.096,3.156c0.879-0.268,1.73-0.571,2.525-0.947c0.688-0.326,1.512-1.031,2.367-0.947
				c-0.035,5.954-0.016,13.23,0,19.726c0.006,3.065-2.027,5.997-4.275,5.997c-8.73,0-34.127,0-37.062,0
				c-3.281,0-4.584-1.88-4.584-6.205c0-4.376,0-15.708,0-19.675c1.359,0.563,2.574,1.578,3.945,2.052
				c6.336,2.192,13.547-0.7,16.412-4.734C360.021,102.775,360.179,102.617,360.405,102.529z"/>
			<polygon fill-rule="evenodd" clip-rule="evenodd" fill="#888886" points="358.827,123.201 370.978,116.731 358.827,110.892 			
				"/>
			<polygon fill-rule="evenodd" clip-rule="evenodd" fill="#888886" points="397.017,105.527 397.017,128.724 387.073,123.517 
				387.073,110.577 			"/>
		</g>
	</g>
</g>
<g>
	<g>
		<g>
			<g>
				<g>
					<g>
						<path fill="#FFFFFF" d="M552.443,321.131c0.242,0.13,0.334,0.435,0.204,0.677l-2.361,4.408
							c-0.13,0.242-0.435,0.334-0.677,0.204l-16.748-8.971c-0.242-0.13-0.334-0.435-0.204-0.677l2.359-4.408
							c0.13-0.242,0.435-0.334,0.677-0.204L552.443,321.131z"/>
					</g>
					<g>
						<path fill="#FFFFFF" d="M553.295,312.721c0.274,0.02,0.483,0.26,0.464,0.534l-0.354,4.986c-0.02,0.274-0.26,0.483-0.534,0.464
							l-18.951-1.34c-0.274-0.02-0.483-0.26-0.464-0.534l0.354-4.988c0.02-0.274,0.26-0.483,0.534-0.464L553.295,312.721z"/>
					</g>
				</g>
				<path fill="#7A574A" d="M538.05,315.846c-0.889,0.217-1.707-0.613-2.088-1.467c-0.607-1.355-1.105-3.256,0.031-4.311
					c0.865-0.803,2.566-1.098,3.709-0.99c1.383,0.131,3.121,1.209,4.158,2.135c0,0-1.273-0.111-2.828-0.145
					c-2.32-0.049-2.152,1.719-2.01,3.461C539.085,315.301,538.411,315.758,538.05,315.846z"/>
				<path fill="#7A574A" d="M510.964,375.027c1.408,0.236,4.654,0.686,5.836-0.027c2.545-1.537-1.518-3.363-3.582-4.031
					C507.919,369.254,504.685,373.975,510.964,375.027z"/>
				<path fill="#7A574A" d="M470.81,374.945c-1.418,0.146-4.688,0.398-5.82-0.391c-2.445-1.688,1.723-3.26,3.824-3.799
					C474.208,369.373,477.144,374.283,470.81,374.945z"/>
			</g>
			<g>
				<g>
					<path fill="#7A574A" d="M490.423,328.121c-9.893,0-21.25-1.488-26.022-5.422c-1.998,14.824-0.27,31.5,2.476,46.439l5.602,0.211
						c5.441-13.83,9.973-25.203,18.125-31.648c7.004,4.127,14.318,17.621,18.73,31.75l5.111,0.115
						c1.688-9.203,7.85-30.605,4.535-47.791C514.304,326.131,502.184,328.121,490.423,328.121z"/>
				</g>
			</g>
			<g>
				<path fill="#7A574A" d="M501.521,267.984c-5.835,3.477-12.403,5.055-16.741,5.055c-0.604,0-1.162-0.031-1.666-0.092
					c-1.56-0.189-3.508-1.295-5.426-3.234c-13.498,6.287-17.953,20.871-31.576,23.629v7.262
					c11.947,1.463,25.059-14.736,25.059-14.736s-6.705,16.461-8.049,32.955c1.264,11.391,55.223,10.938,56.828-0.637
					c-2.5-14.408-6.16-32.213-6.16-32.213s12.428,7.973,20.869,23.215l5.594-2.775C534.118,291.057,521.255,272.699,501.521,267.984
					z"/>
			</g>
			<g>
				<path fill="#7A574A" d="M486.747,229.98c5.047,1.17,8.525,6.871,9.596,9.477c0.615,1.492,2.201,4.199,2.965,11.076
					c0.572,5.139,0.551,15.641,0.564,15.742c1.361-0.246,3.941-2.404,3.941-2.404l1.16,6.9l5.258-5.148l0.721,3.648
					c0,0,5.826-11.291,6.523-20.902c0.658-9.131-3.559-16.561-7.441-20.227c-3.225-3.043-6.621-5.217-11.535-6.041
					c-5.436-0.91-10.043,0.127-16.359,0.838c-5.029,0.568-14.82,0.264-14.82,0.264l7.078,3.832l-6.734,4.812
					C467.663,231.848,479.062,228.197,486.747,229.98z"/>
				<g>
					<path fill="#7A574A" d="M503.103,265.682c-0.932,0.664-2.141,1.414-3.053,1.578l-1.029,0.186l-0.141-1.035
						c-0.01-0.078-0.01-0.078-0.014-0.695c-0.042-7.084-0.229-12.154-0.553-15.072c-0.643-5.789-1.857-8.484-2.584-10.094
						c-0.119-0.266-0.225-0.5-0.312-0.711c-0.861-2.098-4.137-7.781-8.896-8.883c-1.329-0.309-2.882-0.465-4.616-0.465
						c-1.691,0-3.42,0.148-5.061,0.371c-3.557,4.057-5.889,9.516-5.947,16.07c-0.141,15.893,8.092,24.506,12.338,25.023
						c4.039,0.488,12.673-1.1,19.88-6.201L503.103,265.682z M476.063,246.943c-0.23,1.59-0.994,2.793-1.711,2.691
						c-0.709-0.104-1.109-1.473-0.879-3.062c0.229-1.588,0.992-2.793,1.707-2.691C475.894,243.984,476.29,245.355,476.063,246.943z
						 M485.933,248.902c-0.227,1.555-1.064,2.723-1.881,2.605c-0.809-0.117-1.287-1.471-1.064-3.025
						c0.223-1.561,1.062-2.725,1.877-2.609C485.673,245.988,486.151,247.346,485.933,248.902z"/>
					<path fill="#7A574A" d="M469.897,246.922c0.055-5.982,1.963-11.424,5.49-15.838c-1.102,0.182-2.146,0.385-3.078,0.59
						c-0.291,0.365-0.57,0.748-0.834,1.166c-5.555,8.85-3.324,23.445-3.324,23.445l1.205-1.309l1.811,3.76l0.269-0.293
						C470.46,255.125,469.858,251.287,469.897,246.922z"/>
				</g>
			</g>
		</g>
	</g>
	<path fill="#EBDB8A" d="M450.255,279.785c0.443-1.293,1.666-2.539,2.537-1.18c0.648-0.51,1.432-0.551,2.18-0.652
		c0.062,0.318,0.236,0.621,0.264,0.988c0.893-1.281,3.787-2.65,4.238-0.33c0.676-0.631,1.527-0.848,2.432-0.645
		c-0.057,0.336,0.088,0.775,0.02,1.143c1.201-1.176,3.162-0.891,2.807,1.043c1.168-0.275,2.467-0.014,2.049,1.301
		c1.258-0.244,2.244,0.252,1.486,1.439c0.287,0.012,0.613,0.012,0.902,0.08c-0.152,1.045,0.113,2.02-0.197,2.908
		c-0.043,0.123-1.51,2.32-1.768,2.498c-1.93,1.326-5.992,1.74-8.275,2.057c-2.697,0.373-6.363,1.336-8.943,0.074
		c-2.178-1.062-6.668-6.035-2.146-7.166C447.753,281.83,448.366,279.689,450.255,279.785z"/>
	<polygon fill="#FAF5E9" points="468.438,310.057 452.136,310.057 447.411,307.828 444.952,286.117 451.989,284.887 
		470.896,284.887 	"/>
	<path fill="#7A574A" d="M449.448,303.139c2.127-0.434,2.801-1.631,2.527-3.494c-0.201-1.377-1.529-2.395-2.795-2.129
		c-1.482,0.312-2.791,0.043-2.986-0.869c-0.264-1.229,1.992-1.344,1.877-2.285c-0.088-0.752-1.064-0.857-1.943-0.906
		c-0.949-0.047-2.137,0.422-2.85,0.846c-1.559,0.93-1.873,2.357-1.52,3.996C442.796,303.104,446.624,303.717,449.448,303.139z"/>
</g>
</svg>
