<?xml version="1.0" encoding="utf-8"?>
<!-- Generator: Adobe Illustrator 15.0.2, SVG Export Plug-In . SVG Version: 6.00 Build 0)  -->
<!DOCTYPE svg PUBLIC "-//W3C//DTD SVG 1.1//EN" "http://www.w3.org/Graphics/SVG/1.1/DTD/svg11.dtd">
<svg version="1.1" id="Layer_1" xmlns="http://www.w3.org/2000/svg" xmlns:xlink="http://www.w3.org/1999/xlink" x="0px" y="0px"
	 width="720px" height="460px" viewBox="0 0 720 460" enable-background="new 0 0 720 460" xml:space="preserve">
<rect x="151.228" y="36.509" fill="#E2DED1" width="417.543" height="386.982"/>
<g>
	<rect x="185.478" y="77.275" fill="#D5D3CB" width="349.043" height="273.938"/>
	<polygon fill="#C7C4BA" points="534.521,351.213 514.521,337.671 514.521,101.535 534.521,77.275 	"/>
	<polygon fill="#E8E5DA" points="205.478,337.671 185.478,351.213 185.478,77.275 205.478,101.535 	"/>
	<rect x="205.478" y="101.535" fill="#F8F4EC" width="309.043" height="236.136"/>
	<g>
		<polygon fill="#C7C4BA" points="536.41,351.427 514.521,336.607 205.478,336.607 183.589,351.427 183.589,361.277 536.41,361.277 
					"/>
		<polygon fill="#E0DFD9" points="514.521,336.607 205.478,336.607 183.589,351.427 536.41,351.427 		"/>
	</g>
	<rect x="227.46" y="122.16" fill="#C8DDE8" width="265.079" height="194.886"/>
</g>
<g>
	<g>
		<path fill="#3F9583" d="M356.561,213.998c-0.422-3.397-1.648-6.431-2.811-9.612c-3.439-9.414-8.809-15.775-18.789-18.198
			c-8.865-2.151-17.848-2.283-26.773-3.301c-3.508-0.399-6.965-0.865-10.651-0.656c-0.08,2.479,2.414,5.632,3.4,7.961
			c1.444,3.416,2.559,6.901,3.245,10.539c1.068,5.676,2.289,9.614,7.393,12.718c3.27,1.988,6.326,2.818,10.09,3.257
			c6.043,0.704,13.131,0.366,18.404,3.919c3.914,2.636,6.422,6.354,8.25,10.568c1.846,4.254,3.82,6.16,7.182,1.492
			C358.74,228.187,357.211,219.229,356.561,213.998z"/>
		<path fill="#3F9583" d="M364.115,215.127c-0.998,3.594-0.934,9.04-2.838,11.954c-2.576-2.527,0.131-9.565,1.002-12.3
			c1.008-3.16,2.494-9.423,5.525-11.32c0.482,1.381-0.781,3.397-1.293,4.711C365.619,210.457,364.773,212.762,364.115,215.127z"/>
		<path fill="#3F9583" d="M362.037,196.528c4.057-4.886,12.707-6.781,12.707-6.781s2.193,6.895,1.57,10.115
			c-1.084,5.626-3.314,9.524-9.664,11.097C356.947,213.362,358.877,200.336,362.037,196.528z"/>
		<path fill="#3F9583" d="M394.25,203.095c3.607-0.845,7.453-0.306,10.877,1.079c1.646,0.667,8.742,2.694,8.742,2.694
			s-4.209,5.404-5.223,6.575c-3.658,4.228-11.975,4.67-16.895,2.967c-2.746-0.95-6.09-3.238-6.074-6.544
			C385.697,205.748,390.912,203.876,394.25,203.095z"/>
		<path fill="#3F9583" d="M395.271,185.271c-3.609,1.511-10.217,6.434-7.799,11.021c2.568,4.868,12.09,2.277,15.842,0.658
			c5.645-2.437,9-5.823,11.729-10.729c-0.377,0.675-8.199-1.419-8.934-1.547C402.48,184.037,398.744,183.816,395.271,185.271z"/>
		<path fill="#EDB69D" d="M418.723,191.468c-1.34-4.258,5.061-8.736,8.727-9.343c-0.355,1.032-0.166,2.339-0.365,3.37
			c2.602-1.811,7.865-2.557,10.551-0.683c0.195,4.011,5.689,4.009,4.748,8.169c-0.227,0.047-0.455,0.092-0.684,0.135
			c2.141,1.766,0.896,3.701-1.277,4.273c4.895,6.047-3.918,4.854-7.02,4.035c3.883,6.176-6.271,7.309-9.045,1.649
			c-4.68,3.801-9.391-8.026-8.738-11.546c1.305-0.145,2.371,0.322,2.709,0.73L418.723,191.468z"/>
		<path fill="#EDB69D" d="M400.805,163.376c1.383-6.829,13.969-3.146,13.965,3.145c4.85,1.18,4.398,9.53-0.732,9.527
			c4.781,3.416-7.68,8.534-11.078,3.636c0.307,0.446-5.979,0.256-7.301-1.075c-1.676-1.686-2.104-4.493-2.098-6.756
			C393.572,168.095,395.732,161.229,400.805,163.376z"/>
		<path fill="#3F9583" d="M399.818,217.595c13.033,2.138,33.307,12.647,38.309,26.903c-10.469,5.422-35.42,4.86-44.141-4.506
			c-3.127-3.358-3.381-8.1-6.486-11.3c-4.201-4.329-8.549-0.625-12.807,1.493c-1.82,0.905-5.494,2.261-7.443,0.95
			c-2.398-1.611-0.58-5.74,1.066-7.312C370.867,221.386,387.443,215.565,399.818,217.595z"/>
		<path fill="#3F9583" d="M390.662,172.861c2.58-0.807,5.154,0.209,7.58,0.022c-0.477-2.269-3.037-4.134-2.59-6.492
			c2.738,0.835,2.336,4.838,4.492,6.5c2.279-2.078,6.1-2.248,7.982-4.568c-0.686,1.639-4.408,4.209-4.43,5.479
			c-0.025,1.683,4.955,2.163,6.484,2.864c-1.691,0.518-3.48,0.363-5.127,0.777c0.555,1.146,2.127,1.975,2.18,3.468
			c-2.654,0.086-5.277-1.111-6.76-3.239c-1.475,1.119-2.117,3.016-3.838,3.919c-0.119-1.743,1.205-3.46,2.236-4.85
			C399.223,176.271,391.299,173.124,390.662,172.861z"/>
		<path fill="#3F9583" d="M419.209,188.112c-0.541,2.107-0.148,4.796-0.293,7.092c-1.254-0.644-1.572-2.715-3.141-3.155
			c0.967,1.601,2.045,3.392,2.84,5.42c-1.393-0.159-2.682-0.171-3.189,0.968c1.256,0.084,2.561,0.025,3.814,0.105
			c0.443,2.061,0.965,4.184,0.689,6.345c0.455-1.472,1.33-2.763,1.947-4.097c1.496,0.962,1.863,3.472,3.537,4.154
			c-0.254-2.057-1.633-4.176-2.176-6.071c1.041-0.011,2.104-0.431,3.152-0.428c-0.533-0.001-4.379-1.54-4.883-2.095
			C420.004,194.691,420.582,190.317,419.209,188.112z"/>
		<path fill="#3F9583" d="M389.436,209.839c-15.916,10.894-23.738,19.965-25.299,24.301c4.264,0.353,11.006-11.622,26.525-22.927
			c16.865-12.283,30.467-13.423,30.254-14.236C418.051,196.47,403.086,200.499,389.436,209.839z"/>
		<path fill="#3F9583" d="M376.426,194.437c-8.768,12.913-15.184,27.265-15.52,31.295c3.738-1.76,7.65-15.332,16.551-28.797
			c11.367-17.196,18.303-18.264,23.906-22.678C396.537,173.991,383.518,183.993,376.426,194.437z"/>
		<path fill="#3F9583" d="M372.254,206.868c2.033-0.036,5.506-5.047,11.402-7.646c5.213-2.299,11.867-4.785,11.867-4.785
			c-2.994-0.004-6.938,1.088-11.328,2.604C379.562,198.64,374.785,202.525,372.254,206.868z"/>
	</g>
	<path fill="#FAF8F2" d="M335.928,227.609c1.918-3.967,14.816-4.89,25.377-4.89c10.988,0,21.51,1.26,23.51,5.236
		c1.545,3.071-10.258,6.306-10.258,11.343c0,10.301,24.205,7.899,24.205,32.811c0,30.667-17.945,65.528-22.705,69.036
		c-3.988,2.941-11.039,2.987-15.836,2.815c-3.895-0.14-11.127-0.511-13.867-4.133c-2.443-3.231-21.424-32.888-21.424-72.221
		c0-17.707,21.539-23.306,22.111-28.309C347.553,234.818,334.012,231.576,335.928,227.609z"/>
	<path fill="#FFFFFF" d="M387.42,291.46c0.299-10.044,0.697-16.67-1.232-24.601c-2.16-8.887-7.168-11.191-13.303-16.874
		c9.557,4.13,14.834,5.683,18.092,16.112C393.088,272.853,391.205,283.368,387.42,291.46z"/>
	<path fill="#F2F0EB" d="M358.518,237.809c0.002-2.214-3.166-7.054-5.717-10.585c-0.949-1.314-0.73-3.577,0.309-4.295
		c-8.156,0.447-15.746,1.711-17.182,4.681c-1.916,3.967,11.625,7.209,11.113,11.689c-0.572,5.003-24.514,10.602-24.514,29.209
		c0,43.819,21.383,68.089,23.826,71.32c2.74,3.622,9.973,3.993,13.867,4.133c-8.721-15.769-15.256-42.021-14.844-67.287
		C345.75,253.942,358.514,242.313,358.518,237.809z"/>
	<path fill="#89912B" d="M350.406,289.567c0.074-0.164,0.029-0.394,0.135-0.585c1.432-1.041,3.504-1.896,4.518-3.528
		c1.934-3.119-1.467-4.452-3.812-2.753C349.141,284.225,347.895,287.829,350.406,289.567z"/>
	<path fill="#89912B" d="M358,289.247c1.58,1.509,3.59,0.129,5.473,0.146c-1.17-0.011-1.34-5.316-2.518-6.017
		C357.904,281.565,356.18,287.509,358,289.247z"/>
	<path fill="#89912B" d="M346.1,276.942c1.145,1.689,1.768,2.622,3.898,2.999C358.174,281.388,350.445,272.29,346.1,276.942z"/>
	<path fill="#89912B" d="M345.75,288.092c-1.633-1.375-3.812-0.269-5.068-2.345c-1.301-2.149,0.74-5.013,3.102-4.186
		C346.023,282.348,347.293,286.283,345.75,288.092z"/>
	<path fill="#89912B" d="M331.744,289.118c1.385-2.062,4.178-1.416,5.699-3.412c1.75-2.297,0.107-5.494-2.621-4.137
		C332.572,282.69,330.854,286.781,331.744,289.118z"/>
	<path fill="#89912B" d="M329.736,268.031c-0.029,1.698-1.521,3.927-0.555,5.66c0.793,1.42,4.689,2.67,5.234,0.442
		C334.885,272.222,330.479,269.562,329.736,268.031z"/>
	<path fill="#89912B" d="M363.609,285.484c-3.631,0-7.625-1.41-9.732-3.137c-0.965-0.791-1.602-1.918-2.215-3.009
		c-0.648-1.147-1.26-2.231-2.172-2.788c-1.016-0.617-3.115-0.59-4.492,0.065c-0.518,0.246-1.156,0.688-1.254,1.394l-0.99-0.135
		c0.125-0.91,0.752-1.657,1.814-2.162c1.695-0.805,4.137-0.812,5.441-0.016c1.137,0.692,1.842,1.942,2.523,3.15
		c0.568,1.011,1.158,2.055,1.977,2.727c3.285,2.69,10.395,4.034,13.701,1.709l0.576,0.818
		C367.396,285.079,365.555,285.484,363.609,285.484z"/>
	<path fill="#89912B" d="M344.098,301.802l-0.695-0.719c2.404-2.33,3.842-6.401,3.848-10.892c0.002-2.021-1.564-7.641-4.148-9.324
		c-0.789-0.514-1.574-0.584-2.398-0.218l-0.406-0.914c1.127-0.5,2.285-0.398,3.35,0.294c2.814,1.833,4.605,7.704,4.604,10.164
		C348.244,294.947,346.693,299.287,344.098,301.802z"/>
	<path fill="#89912B" d="M358.887,298.287c-3.996-4.195-7.812-5.362-11.338-3.468l-0.473-0.881c3.916-2.104,8.252-0.84,12.535,3.659
		L358.887,298.287z"/>
	<path fill="#D9ABA1" d="M368,279.817c-0.539-0.709-0.916-2.156-2.123-2.127c-2.096,0.051-0.037,1.903-0.4,2.852
		c-0.121,0.318-0.828,0.464-1.068,0.676c-0.473,0.419-0.656,0.814-0.783,1.35c-0.383,1.596,0.674,1.67,1.855,2.021
		c0.051,1.139-0.475,1.801-0.609,2.798c-0.191,1.425,1.248,1.103,2.26,0.228c0.379,1.564,2.498,1.345,3.213,0.176
		c0.406-0.666,0.352-1.073,0.934-1.445c0.814-0.519,1.43-0.244,2.131-1.131c0.398-0.503,0.66-0.979,0.592-1.646
		c-0.035-0.338-0.322-0.684-0.348-0.909c-0.035-0.327,0.117-0.617,0.104-0.966c-0.072-1.777-0.592-3.015-2.734-2.387
		c-0.494-1.51-2.938-0.525-3.396,0.512H368z"/>
	<path fill="#D9ABA1" d="M344.771,298.151c-1.543,0.382-1.627,0.968-3.396,1.916c-1.039,0.557-1.689,1.686-1.297,2.254
		c-0.982,1.358,1.424,2.765,2.625,2.756c-0.766,1.929,5.848,2.969,5.822,0.753c1.314,0.534,4.076-0.106,3.324-2.007
		c-0.26-0.657-1.566-1.096-1.729-1.656c-0.281-0.969,1.715-1.113,0.656-2.137c-0.779-0.752-1.668,0.408-2.408,0.171
		c-0.809-0.259-0.885-1.831-2-1.921C344.771,298.151,344.771,298.151,344.771,298.151z"/>
	<path fill="#D9ABA1" d="M364.75,297.72c1.553,0.396,1.229,0.272,1.527,1.723c0.287,1.384,0.754,1.285-0.902,1.777
		c-1.715,0.508-4.377,1.507-6.125,0.504c-1.607-0.923-1.611-4.335-0.057-5.371C360.873,295.233,363.15,297.312,364.75,297.72z"/>
	<path fill="#D9ABA1" d="M337.721,280.522c-0.129,0.057-3.225-1.668-3.443-1.855c-0.729-0.622-0.803-1.334-0.777-2.225
		c0.025-0.922-0.064-1.313-0.125-2.25c-0.043-0.656,0.197-1.605,0.621-2.129c0.258-0.317,0.65-0.412,0.879-0.652
		c0.324-0.344,0.367-0.483,0.617-0.851c0.404-0.593,0.639-1.28,1.135-1.837c0.838-0.936,3.377-1.919,4.145-0.443
		c1.135-1.168,2.246-2.226,3.58-0.873c1.119,1.137,1.389,2.763,1.352,4.298c0.504-0.219,1.029-0.35,1.58-0.394
		c1.234,1.432-0.432,3.57-1.27,4.938c1.732-0.461,3.975-0.567,4.98,1.188c-0.928,0.548-2.814,0.164-3.562,0.734
		c-1.334,1.021-0.375,2.363-1.793,3.277c0.07-0.046-2.48-1.712-3.271-1.548c-1.059,0.22-1.334,1.414-2.057,2.019
		c-0.74,0.619-1.512,2.127-2.746,1.911C335.645,283.494,336.209,281.184,337.721,280.522z"/>
	<path fill="#89912B" d="M381.986,314.034c-0.305,1.323,4.609,3.336,0.883,4.764C378.543,320.456,381.717,315.208,381.986,314.034z"
		/>
	<path fill="#89912B" d="M375.787,321.48c0.029,2.091,2.479,3.34,4.461,3.218c1.385-0.086,3.328-1.391,2.115-2.793
		C381.336,320.716,377.316,321.942,375.787,321.48z"/>
	<path fill="#D9ABA1" d="M382.75,319.442c-0.045-1.156,0.645-2.128,1.504-2.736c-0.041,0.47,0.23,1.321,0.027,1.959
		c0.787-0.508,1.59-0.596,2.242,0.028c-0.238,0.197-0.488,0.582-0.748,0.812c1.459,1.256-1.262,6.783-2.732,6.893
		c-0.352-0.778-0.418-1.67-0.143-2.479c-0.861,0.729-2.004,1.016-3.113,0.48c-0.1-0.896,0.348-1.596,1.193-2.025
		c-5.625-1.081,1.523-7.449,2.02-2.932H382.75z"/>
	<path fill="#89912B" d="M358.936,292.288c-0.26,0.303-0.582,0.525-0.93,0.715c-0.99,0.543-2.172,0.822-2.574,1.943
		c-0.611,1.697,1.045,1.702,2.205,1.316C360.398,295.346,358.287,293.044,358.936,292.288z"/>
	<path fill="#89912B" d="M380.566,259.686c1.047,0.577,6.787,3.781,6.324,1.037C386.365,257.616,381.887,260.412,380.566,259.686z"
		/>
	<path fill="#89912B" d="M382.932,264.887c-1.471,0.658-2.1,1.03-3.912,1.112c1.322,0.773,3.775,1.998,5.477,1.949
		C388.613,267.831,388.062,262.589,382.932,264.887z"/>
	<path fill="#89912B" d="M385.854,265.746c-1.238-1.615-0.725-3.668,0.385-4.778c0.9-0.899,2.439-1.419,4.064-0.172l-0.607,0.793
		c-1.359-1.04-2.375-0.286-2.75,0.086c-0.82,0.822-1.158,2.342-0.299,3.464L385.854,265.746z"/>
	<path fill="#D9ABA1" d="M389.482,257.046c-1.115-0.023-1.805,1.312-1.986,2.271c-0.248,1.324,0.389,1.83,1.359,2.531
		c-0.951,1.062,1.371,2.787,2.373,2.74c0.248,0.633,0.949,0.999,1.646,0.854c0.992-0.209,0.623-1.005,1.371-1.378
		c0.775-0.386,1.77,0.479,2.006-0.872c0.137-0.779-0.699-1.462-1.111-1.975c1.258-0.736,0.336-2.249-0.639-2.653
		c-0.559-0.231-0.932,0.192-1.412-0.34c-0.238-0.265-0.094-0.64-0.26-0.896c-0.375-0.581-0.357-0.106-0.732-0.408
		c-0.266-0.211-0.773-0.709-1.074-0.89C388.998,254.815,389.445,257.045,389.482,257.046z"/>
</g>
<g>
	<polygon fill="#9F9F9D" points="299.683,266.534 281.197,254.422 282.841,251.912 	"/>
	<polygon fill="#9F9F9D" points="323.664,243.679 310.773,225.726 313.211,223.976 	"/>
	<polygon fill="#9F9F9D" points="265.732,290.333 265.894,287.337 288.492,291.549 	"/>
	<polygon fill="#9F9F9D" points="273.998,329.114 272.988,326.289 295.013,321.606 	"/>
	<polygon fill="#9F9F9D" points="420.039,266.744 440.256,257.947 441.453,260.698 	"/>
	<polygon fill="#9F9F9D" points="424.607,296.57 452.797,297.441 452.705,300.439 	"/>
	<polygon fill="#9F9F9D" points="442.807,338.76 418.643,326.588 443.85,335.947 	"/>
	<polygon fill="#9F9F9D" points="411.061,369.864 400.523,349.651 413.514,368.14 	"/>
	<polygon fill="#9F9F9D" points="305.174,361.528 302.92,359.547 319.043,345.75 	"/>
	<polygon fill="#9F9F9D" points="359.285,375.357 356.291,375.17 360.578,354.733 	"/>
</g>
<g>
	<polygon fill="#FFFFFF" points="328.857,246.696 330.229,257.849 341.381,259.221 330.229,260.594 328.857,271.745 
		327.484,260.594 316.332,259.221 327.484,257.849 	"/>
	<polygon fill="#FFFFFF" points="333.051,255.027 329.775,259.221 333.051,263.414 328.857,260.141 324.662,263.414 
		327.938,259.222 324.662,255.027 328.857,258.302 	"/>
</g>
</svg>
