<?xml version="1.0" encoding="utf-8"?>
<!-- Generator: Adobe Illustrator 15.0.2, SVG Export Plug-In . SVG Version: 6.00 Build 0)  -->
<!DOCTYPE svg PUBLIC "-//W3C//DTD SVG 1.1//EN" "http://www.w3.org/Graphics/SVG/1.1/DTD/svg11.dtd">
<svg version="1.1" id="Layer_1" xmlns="http://www.w3.org/2000/svg" xmlns:xlink="http://www.w3.org/1999/xlink" x="0px" y="0px"
	 width="720px" height="460px" viewBox="0 0 720 460" enable-background="new 0 0 720 460" xml:space="preserve">
<polygon fill="#E0CE9C" points="681.481,407.237 45.33,407.237 148.067,176.366 578.745,176.366 "/>
<g>
	<g>
		<g>
			<g>
				<g>
					<path fill="#7A574A" d="M446.718,181.247c-0.41-3.971-3.709-6.566-7.084-8.211c-4.473-2.18-11.525-3.219-15.014,0.865
						c-2.061,2.412-2.143,4.934-2.055,6.57c0.129,2.371,1.918,5.275,4.18,6.293c1.676,0.754,4.406-0.758,3.434-2.662
						c-0.076-0.148-0.178-0.291-0.297-0.426c-0.672-0.775-1.477-1.418-1.52-2.43c-0.1-2.383,2.465-2.242,3.939-1.297
						c1.354,0.867,1.969,2.107,1.902,3.215c3.615,1.021,7.229,3.168,10.844,3.797C446.263,185.384,446.938,183.397,446.718,181.247z
						"/>
					<path fill="#C83B0C" d="M380.632,319.919c2.863,0.48,9.467,1.395,11.869-0.057c5.178-3.125-3.088-6.842-7.287-8.197
						C374.437,308.177,367.858,317.776,380.632,319.919z"/>
					<path fill="#C83B0C" d="M316.985,319.753c-2.885,0.295-9.537,0.811-11.842-0.795c-4.973-3.434,3.504-6.631,7.781-7.729
						C323.897,308.415,329.866,318.405,316.985,319.753z"/>
				</g>
				<g>
					<path fill="#7A574A" d="M389.849,58.126c0.002-17.729-13.93-38.832-29.932-36.318c-25.152-9.902-50.617,11.465-52.711,28.879
						c-1.279,10.633-0.494,22.912,3.334,29.863c-0.785-6.596-0.451-13.678,6.91-14.152c4.512-14.721,30.98-17.027,46.121-18.299
						c5.996-0.502,14.006,7.49,13.475,18.299c7.5,0,6.402,15.098,6.402,15.098S389.847,72.397,389.849,58.126z"/>
					<g>
						<path fill="#7A574A" d="M379.839,68.626c-0.77-0.826-1.684-1.229-2.793-1.229h-1.05l0.052-1.049
							c0.252-5.141-1.525-10.109-4.879-13.633c-2.203-2.312-4.773-3.639-7.055-3.639c-0.154,0-0.309,0.006-0.459,0.018
							c-14.297,1.201-40.908,3.434-45.248,17.596l-0.203,0.66l-0.689,0.045c-2.008,0.129-3.477,0.785-4.492,2.006
							c-2.197,2.643-1.902,7.561-1.488,11.031l0.413,3.471c8.028,17.537,24.43,27.082,34.583,27.082
							c10.376,0,28.508-11.809,35.972-31.209C382.521,76.946,382.244,71.212,379.839,68.626z M333.569,81.907
							c-1.777,0.012-3.166-2.199-3.115-4.936c0.057-2.734,1.541-4.963,3.303-4.973c1.766-0.01,3.16,2.195,3.107,4.939
							C336.812,79.675,335.333,81.899,333.569,81.907z M359.413,81.804c-1.713,0.006-3.053-2.25-2.998-5.045
							c0.061-2.795,1.498-5.064,3.207-5.074c1.709-0.006,3.045,2.252,2.986,5.045C362.552,79.524,361.106,81.79,359.413,81.804z"/>
					</g>
				</g>
			</g>
		</g>
		<g>
			<g>
				<g>
					<g>
						<path fill="#7A574A" d="M292.479,203.937c2.615,0,3.854-1.113,5.117-2.525c1.115-1.248,1.639-2.93,1.645-3.645
							c1.986-1.002,2.738-3.469,1.879-5.369c-0.691-1.527-2.407-2.866-3.694-2.866c-0.173,0-0.338,0.024-0.491,0.075
							c0.043,2.043-0.254,2.715-2.387,2.994c-0.26,0.034-0.506,0.05-0.736,0.05c-1.164,0-1.943-0.415-2.406-1.055
							c-0.592,3.862-1.096,7.886-1.477,12.038C290.729,203.825,291.577,203.937,292.479,203.937z"/>
					</g>
					<g>
						<path fill="#7A574A" d="M368.144,101.823c-7.133,6.197-15.389,10.162-21.613,10.162c-6.717,0-15.053-3.793-22.15-9.896
							c-43.975,9.506-79.962,47.66-47.455,91.289l7.826-11.082c-6.229-30.893,18.797-36.016,18.797-36.016
							s-6.793,15.824-11.048,38.82c0.3,0.158,0.536,0.351,0.648,0.588c0.183,0.387,0.125,0.836-0.148,1.168
							c-1.005,1.229-1.403,2.914-0.927,3.92c0.278,0.588,0.847,0.874,1.738,0.874c0.189,0,0.395-0.014,0.607-0.041
							c1.48-0.194,1.552-0.287,1.516-1.981l-0.016-0.738l0.7-0.232c0.252-0.084,0.523-0.126,0.807-0.126
							c1.677,0,3.743,1.549,4.606,3.454c1.036,2.295,0.2,5.045-1.856,6.395c-0.187,1.011-0.776,2.516-1.833,3.698
							c-1.349,1.507-2.812,2.858-5.863,2.858c-0.919,0-1.798-0.109-2.641-0.302c-0.027,0.319-0.06,0.634-0.086,0.954
							c2.57,23.17,112.332,22.248,115.598-1.297c-5.084-29.307-15.107-57.797-15.107-57.797s27.393-5.535,32.223,23.918
							l12.281-1.424C437.378,135.843,408.425,109.165,368.144,101.823z"/>
					</g>
					<g>
						<path fill="#EAE1C8" d="M301.308,183.647c-4.504-0.57-9.125,2.734-8.656,6.975c0.473,4.266,5.736,9.533,10.242,10.107
							c4.504,0.572,5.055-4.145,5.592-8.377C309.024,188.12,305.812,184.222,301.308,183.647z M303.22,198.165
							c-2.998-0.383-6.555-4.186-7.18-7.145c-0.586-2.775,2.094-4.918,5.09-4.535c2.998,0.381,4.986,2.703,4.627,5.52
							C305.399,194.819,306.216,198.546,303.22,198.165z"/>
					</g>
					<path fill="#7A574A" d="M297.597,201.411c1.115-1.248,1.639-2.93,1.645-3.645c1.986-1.002,2.738-3.469,1.879-5.369
						c-0.785-1.732-2.887-3.223-4.186-2.791c0.043,2.043-0.254,2.715-2.387,2.994c-4.361,0.566-4.43-3.801-2.322-6.377
						c0.355-0.432-2.838-0.832-3.068-0.824c-1.344,0.033-2.742,0.438-3.922,1.074c-2.906,1.57-3.869,5.115-3.199,8.229
						c1.158,5.369,4.861,9.234,10.443,9.234C295.095,203.937,296.333,202.823,297.597,201.411z"/>
				</g>
			</g>
			<g>
				<path fill="#D8D3C1" d="M332.56,189.313c-1.402,11.014-10.072,18.975-19.365,17.791s-15.691-11.062-14.289-22.076
					c0.521-4.096,8.188-4.176,17.482-2.992C325.679,183.22,332.997,185.888,332.56,189.313z"/>
				
					<ellipse transform="matrix(0.992 0.1263 -0.1263 0.992 26.0842 -38.3973)" fill="#EAE1C8" cx="315.82" cy="186.485" rx="16.963" ry="8.539"/>
				
					<ellipse transform="matrix(0.992 0.1263 -0.1263 0.992 26.088 -38.4024)" fill="#C7C4BA" cx="315.819" cy="186.484" rx="14.263" ry="6.638"/>
			</g>
		</g>
	</g>
	<g>
		<polygon fill="#A15A34" points="592.634,323.147 126.937,323.147 122.519,309.896 597.052,309.896 		"/>
		<polygon fill="#AB6C4A" points="597.052,309.896 122.519,309.896 157.647,210.817 560.923,210.817 		"/>
		<polygon fill="#A15A34" points="552.667,396.399 539.677,396.831 536.841,388.669 548.618,316.522 569.968,316.522 		"/>
		<polygon fill="#A15A34" points="171.108,396.399 184.101,396.831 186.937,388.669 175.157,316.522 153.808,316.522 		"/>
	</g>
	<g>
		<g>
			<polygon fill="#F4EFE2" points="435.899,236.634 421.817,239.503 419.954,237.243 417.644,236.634 418.565,218.823 
				421.817,213.028 431.204,213.028 434.997,219.04 			"/>
			<path fill="#D6C9AC" d="M418.774,235.853c0.182-1.324-0.02-2.887,0.066-4.26c0.082-1.361-0.174-3.072,0.455-4.348
				c1.549-3.146,5.76-3.932,9.035-3.738c1.793,0.107,3.01,0.586,4.453,1.543c0.84,0.557,1.35,0.645,1.549,1.691
				c0.199,1.02,0.09,2.152,0.09,3.205c-0.002,0.982,0.25,1.811,0.346,2.779c0.066,0.648,0.443,1.537,0.348,2.17
				c-0.148,0.984-2.744,1.281-3.67,1.457c-2.416,0.469-4.885,0.844-7.285,1.322c-1.115,0.223-1.994,1.049-2.889-0.082
				c-0.664-0.844-0.828-2.225-2.238-1.74H418.774z"/>
		</g>
		<path fill="#811200" d="M426.771,216.196c-0.002,0-0.005,0-0.008,0c-0.138-0.004-0.246-0.119-0.242-0.258
			c0.119-3.613,0.904-6.152,1.734-8.844c0.447-1.447,0.91-2.943,1.266-4.637c0.836-3.988,0.945-7.535,1.033-10.385
			c0.035-1.148,0.064-2.141,0.137-3.02c0.012-0.139,0.137-0.238,0.27-0.229c0.139,0.01,0.24,0.131,0.229,0.27
			c-0.07,0.865-0.101,1.852-0.136,2.994c-0.088,2.869-0.197,6.441-1.043,10.473c-0.36,1.715-0.826,3.223-1.276,4.682
			c-0.821,2.656-1.597,5.166-1.713,8.711C427.017,216.091,426.905,216.196,426.771,216.196z"/>
		<g>
			<path fill="#811200" d="M435.108,191.983c0,0.275-0.225,0.5-0.5,0.5h-7.338c-0.275,0-0.5-0.225-0.5-0.5v-7.172
				c0-0.275,0.225-0.5,0.5-0.5h7.338c0.275,0,0.5,0.225,0.5,0.5V191.983z"/>
		</g>
		<path fill="#7A574A" d="M433.513,184.763c-0.623,0.635-2.299,0.805-3.012,1.797c-0.609,0.848-0.578,1.768,0.096,2.588
			c1.768,2.154,5.941,1.908,9.418,1.074c1.994-0.48,3.795-1.656,5.033-3.26c0-5.07-6.111-5.445-10.844-3.797
			C434.169,183.763,433.944,184.321,433.513,184.763z"/>
	</g>
</g>
<g>
	<polygon fill="#D6C9AC" points="259.13,252.638 242.817,231.106 223.526,236.468 225.272,251.442 238.142,274.202 257.384,266.026 
			"/>
	<polygon fill="#EAE1CD" points="259.13,252.638 237.796,259.702 223.526,236.468 242.817,231.106 	"/>
</g>
<g>
	<g>
		<path fill="#888886" d="M496.974,260.288c-12.836-1.748-24.236,4.131-25.463,13.131c-0.215,1.572-0.682,3.494-0.928,5.299
			c-1.227,9.002,8.186,17.719,21.02,19.467c12.838,1.75,24.238-4.131,25.465-13.131c0.215-1.574,0.682-3.492,0.928-5.299
			C519.222,270.755,509.812,262.038,496.974,260.288z"/>
		
			<ellipse transform="matrix(0.9908 0.1351 -0.1351 0.9908 41.8869 -64.2842)" fill="#AAABA8" cx="494.753" cy="276.587" rx="23.457" ry="16.452"/>
	</g>
	<path fill="#EAE1CD" d="M501.083,233.979c-11.314-1.541-21.361,3.641-22.443,11.574c-0.188,1.385-3.727,25.047-3.943,26.637
		c-1.08,7.934,7.215,15.615,18.527,17.156c11.314,1.543,21.361-3.641,22.443-11.574c0.188-1.385,3.725-25.045,3.943-26.637
		C520.69,243.204,512.396,235.522,501.083,233.979z"/>
	
		<ellipse transform="matrix(0.9908 0.135 -0.135 0.9908 38.0948 -65.1072)" fill="#F0E9DB" cx="499.125" cy="248.345" rx="20.675" ry="14.498"/>
	<path fill="#AAABA8" d="M483.884,234.87c1.283,0.5,2.93-0.975,3.676-3.293c0.746-2.32,0.457-3.338-0.826-3.838
		c-0.457-0.178-3.262-1.318-3.758-1.512c-1.283-0.5-3.123,0.342-3.869,2.66s-0.264,3.971,1.02,4.471
		C480.583,233.536,483.386,234.677,483.884,234.87z"/>
	<path fill="#AAABA8" d="M521.63,238.146c1.021-7.504-6.822-14.768-17.521-16.225c-10.699-1.459-20.201,3.443-21.225,10.943
		c-0.361,2.664-1.59,8.023-1.986,10.924c-1.021,7.5,6.822,14.766,17.521,16.225c10.699,1.457,20.203-3.443,21.225-10.945
		C520.007,246.403,521.235,241.044,521.63,238.146z"/>
	
		<ellipse transform="matrix(0.9908 0.135 -0.135 0.9908 36.3824 -65.6355)" fill="#BABBB9" cx="502.258" cy="235.505" rx="19.362" ry="13.577"/>
	
		<ellipse transform="matrix(0.9908 0.135 -0.135 0.9908 36.3885 -65.6448)" fill="#AAABA8" cx="502.257" cy="235.505" rx="17.912" ry="12.56"/>
	
		<ellipse transform="matrix(0.9908 0.135 -0.135 0.9908 36.0683 -66.1734)" fill="#C4C5C3" cx="506.068" cy="232.92" rx="11.367" ry="7.971"/>
	<path fill="#AAABA8" d="M523.448,250.085c1.621,0.822,3.584,1.994,3.277,3.951c-0.361,2.299-2.832,11.186-3.898,14
		c-0.43,1.135-5.076,0.68-4.223-1.891c0.902-2.709,1.721-6.182,2.678-8.758c1.332-3.578-1.334-3.076-3.607-4.07
		c-0.764-1.781,0.086-4.021,1.355-4.59C520.872,249.251,522.21,249.46,523.448,250.085z"/>
</g>
</svg>
