<?xml version="1.0" encoding="utf-8"?>
<!-- Generator: Adobe Illustrator 15.0.2, SVG Export Plug-In . SVG Version: 6.00 Build 0)  -->
<!DOCTYPE svg PUBLIC "-//W3C//DTD SVG 1.1//EN" "http://www.w3.org/Graphics/SVG/1.1/DTD/svg11.dtd">
<svg version="1.1" id="Layer_1" xmlns="http://www.w3.org/2000/svg" xmlns:xlink="http://www.w3.org/1999/xlink" x="0px" y="0px"
	 width="720px" height="460px" viewBox="0 0 720 460" enable-background="new 0 0 720 460" xml:space="preserve">
<g>
	<g>
		<path fill="#FBF7DE" d="M492.66,26.555l-28.557,87.892l56.766-78.131C511.758,32.762,502.344,29.504,492.66,26.555z"/>
		<path fill="#FBF7DE" d="M552.334,50.344l-88.23,64.104l126.57-41.125C578.9,64.994,566.076,57.305,552.334,50.344z"/>
		<path fill="#FBF7DE" d="M669.984,181.342c-5.404-23.898-17.176-46.449-34.174-66.895H464.104L669.984,181.342z"/>
		<path fill="#FBF7DE" d="M464.104,114.447L618.285,326.66c21.127-19.967,36.918-42.498,46.051-66.734L464.104,114.447z"/>
		<path fill="#FBF7DE" d="M464.104,114.447v289.102c30.57-7.01,58.971-17.006,84.361-29.461L464.104,114.447z"/>
		<path fill="#FBF7DE" d="M359.822,415.111c2.209,0,4.408-0.023,6.607-0.053l97.674-300.611L254.271,403.258
			C287.256,410.924,322.785,415.111,359.822,415.111z"/>
		<path fill="#FBF7DE" d="M51.53,248.5c11.479,40.422,41.298,76.656,83.637,104.934l328.937-238.986L51.53,248.5z"/>
		<path fill="#FBF7DE" d="M464.104,114.447L210.359,32.001c-53.49,18.896-97.572,47.623-126.525,82.446H464.104z"/>
		<path fill="#FBF7DE" d="M319.104,9.1l145,105.348L386.877,8.154c-8.92-0.496-17.939-0.764-27.055-0.764
			C346.021,7.39,332.434,7.976,319.104,9.1z"/>
		<path fill="#FBF7DE" d="M431.035,12.675l33.068,101.772V18.954C453.336,16.485,442.307,14.377,431.035,12.675z"/>
	</g>
	<g>
		<circle fill="#EBDB8A" cx="464.104" cy="114.447" r="46.523"/>
	</g>
</g>
<g>
	<ellipse fill="#EBE9E0" cx="360" cy="361.754" rx="313.354" ry="90.855"/>
	<g>
		<polygon fill="#C4C5C2" points="261.164,129.282 296.178,129.282 296.178,223.879 325.734,223.879 325.734,174.708 
			404.773,174.708 404.773,242.354 420.545,242.354 420.545,212.576 433.826,212.576 433.826,207.652 442.912,207.652 
			442.912,212.576 452.162,212.576 452.162,207.652 458.746,207.652 458.746,212.576 467.961,212.576 467.961,207.652 
			474.691,207.652 474.691,212.576 504.826,212.576 504.826,220.354 571.201,220.354 571.201,250.354 582.541,250.354 
			582.541,180.044 632.535,180.044 632.535,218.131 673.354,218.131 673.354,356.504 46.646,356.504 46.646,134.656 
			116.543,134.656 116.543,175.353 122.811,175.353 122.811,148.656 174.981,148.656 174.981,186.353 183.556,186.353 
			183.556,135.399 191.273,135.399 191.673,130.632 200.49,130.632 200.889,135.399 208.396,135.399 209.399,130.632 
			220.029,130.632 220.667,135.399 228.145,135.399 228.533,130.632 234.723,130.632 235.121,135.399 253.865,135.399 
			253.865,148.33 261.164,148.33 		"/>
	</g>
</g>
<g>
	<g>
		<g>
			<path fill="#C83B0C" d="M304.996,331.439c-1.037,1.578-2.322,3.1-4.117,1.668c-1.59-1.262-1.128-3.086-1.206-4.809
				c-0.1-2.209-0.562-3.863-1.886-4.18c-1.782-0.43-2.028,2.855-3.397,2.656c-1.093-0.156-1.213-1.584-1.253-2.865
				c-0.035-1.385,0.688-3.102,1.332-4.125c1.408-2.238,3.585-2.926,5.878-2.076C305.309,319.543,307.975,326.922,304.996,331.439z"
				/>
			<path fill="#C83B0C" d="M177.637,333.572c0.98,1.615,2.214,3.18,4.056,1.812c1.632-1.207,1.234-3.045,1.373-4.766
				c0.177-2.201,0.697-3.842,2.03-4.111c1.795-0.367,1.928,2.926,3.305,2.773c1.094-0.119,1.266-1.539,1.35-2.818
				c0.084-1.385-0.581-3.125-1.188-4.168c-1.33-2.289-3.482-3.051-5.801-2.283C177.741,321.674,174.817,328.955,177.637,333.572z"/>
			<path fill="#C83B0C" d="M214.832,410.691c-2.053,0.344-6.785,1-8.509-0.039c-3.711-2.242,2.214-4.906,5.224-5.879
				C219.273,402.273,223.988,409.154,214.832,410.691z"/>
			<path fill="#C83B0C" d="M276.301,410.572c2.068,0.213,6.836,0.578,8.488-0.57c3.564-2.463-2.512-4.754-5.579-5.541
				C271.346,402.445,267.066,409.605,276.301,410.572z"/>
		</g>
		<g>
			<g>
				<path fill="#C83B0C" d="M281.688,332.512c-5.724,6.666-22.879,9.691-39.029,9.691c-16.289,0-33.014-2.984-38.699-9.529
					c-1.461,19.227,3.417,57.07,5.796,70.053l7.453-0.166c6.435-20.605,17.102-40.279,27.314-46.299
					c11.887,9.398,19.954,25.982,27.888,46.15l8.169-0.309c4.104-22.34,3.295-47.928,1.434-67.412
					C281.941,333.936,281.824,333.215,281.688,332.512z"/>
			</g>
		</g>
		<g>
			<path fill="#C83B0C" d="M253.821,201.383c5.277,4.941,9.125,11.535,10.853,19.154c1.389,6.117,1.744,11.707,1.406,16.672
				l0.706,0.496l1.414-5.918l2.123,1.492c0,0-1.173-18.654-9.953-30.008C258.736,202.135,256.513,201.492,253.821,201.383z"/>
		</g>
		<g>
			<path fill="#C83B0C" d="M208.088,265.773c-0.001,0.283-0.004,0.438-0.004,0.438l1.197-1.525
				C208.877,265.043,208.479,265.406,208.088,265.773z"/>
			<path fill="#C83B0C" d="M293.463,316.824l7.645-1.904c-2.706-27.662-16.505-52.078-40.498-59.896
				c-2.085,3.322-4.475,5.461-6.598,6.201c-3.186,1.107-7.724,1.77-12.141,1.77c-4.926,0-12.254-0.803-19.188-4.621
				c-0.213-0.117-0.41-0.254-0.618-0.379l-2.346,8.018l-0.503,1.721l-1.2-1.332l-4.538-5.039c-0.24,0.17-0.48,0.338-0.717,0.512
				l-3.892,4.955l-1.844,2.348l0.047-2.432c-14.025,13.936-19.854,35.193-23.995,50.613l8.156,3.088
				c8.625-25.404,19.486-34.35,19.486-34.35s-8.945,31.262-7.764,42.168c1.835,16.939,74.729,17.244,79.479,0.924
				c3.035-10.424-8.572-45.113-8.572-45.113S285.866,287.133,293.463,316.824z"/>
		</g>
		<g>
			<path fill="#C83B0C" d="M220.217,198.383c6.349-3.895,12.429-7.217,18.146-9.94c-7.682-2.64-17.004-5.709-18.987-5.764
				c-3.363-0.093-7.494,2.251-10.761,4.753c-2.65,2.028-5.739,4.601-6.905,6.722c-0.683,1.242-0.969,9.412-1.085,17.365
				C206.218,207.35,212.751,202.965,220.217,198.383z"/>
		</g>
		<path fill="#CADEE9" d="M248.689,206.314c1.082,0.938,4.434,3.342,1.98,4.467C247.742,212.123,248.785,207.711,248.689,206.314z"
			/>
		<g>
			<path fill="#C83B0C" d="M281.324,185.882c-8.641-11.208-33.579-3.215-60.584,13.354c-35.13,21.555-47.428,37.361-42.396,46.943
				c3.489,6.646,24.123-5.344,23.953-6.975c-0.715-6.869,14.327-22.852,32.143-33.086c11.978-6.883,23.176-7.416,27.797-2.586
				C272.32,200.723,285.916,191.838,281.324,185.882z"/>
			<g>
				<path fill="#C83B0C" d="M224.938,218.037c0.256-1.443,0.834-3.549,1.772-5.799c-12.484,8.793-21.653,19.164-23.204,24.904
					c0.062,0.188,0.115,0.379,0.181,0.562c4.699,12.996,4.396,28.506,4.396,28.506l5.174-6.588l5.502,6.107l3.099-10.592
					c0,0,4.345,2.277,6.362,2.205c-0.012-0.148-3.297-15.105-4.076-22.605C223.104,224.703,224.523,220.354,224.938,218.037z"/>
			</g>
		</g>
	</g>
	<path fill="#CADEE9" d="M228.298,223.195c0.79,1.471,3.448,5.484,0.306,5.693C224.854,229.137,227.824,224.758,228.298,223.195z"/>
	<path fill="#CADEE9" d="M230.246,269.719c0.762,1.42,3.324,5.289,0.295,5.488C226.926,275.447,229.789,271.225,230.246,269.719z"/>
	<path fill="#CADEE9" d="M238.289,292.469c0.763,1.42,3.325,5.289,0.295,5.488C234.969,298.197,237.832,293.975,238.289,292.469z"/>
	<path fill="#CADEE9" d="M223.083,316.973c0.763,1.42,3.325,5.289,0.296,5.49C219.763,322.703,222.626,318.48,223.083,316.973z"/>
	<path fill="#CADEE9" d="M226.619,346.973c0.762,1.42,3.324,5.289,0.295,5.49C223.299,352.703,226.162,348.48,226.619,346.973z"/>
</g>
<g>
	<path fill="#C83B0C" d="M252.209,201.393c-5.17,0.184-11.259,2.139-17.271,5.594c-2.276,1.307-4.485,2.695-6.608,4.133
		c-1.372,2.84-2.139,5.586-2.407,7.094c-0.058,0.322-0.134,0.684-0.221,1.092c-0.541,2.545-1.447,6.807-0.563,15.33
		c0.443,4.266,1.751,11.561,3.889,21.68c0.183,0.867,0.183,0.867,0.19,0.951l0.082,1.041l-1.043,0.037l-0.129,0.002
		c-1.617,0-4.177-1.088-5.643-1.781l-0.135,0.461c0.27,0.162,0.542,0.32,0.817,0.473c11.381,6.268,24.874,4.744,30.518,2.781
		c5.892-2.051,14.951-16.877,9.826-39.479C261.636,212.547,257.572,205.951,252.209,201.393z M246.186,231.4
		c-1.127,0.418-2.684-0.986-3.486-3.133c-0.796-2.148-0.533-4.23,0.582-4.646c1.123-0.416,2.682,0.982,3.483,3.135
		C247.564,228.902,247.303,230.982,246.186,231.4z M259.424,225.723c-0.988,0.367-2.449-1.111-3.27-3.303
		c-0.816-2.193-0.678-4.27,0.307-4.639c0.987-0.365,2.451,1.113,3.268,3.307C260.549,223.281,260.402,225.357,259.424,225.723z"/>
</g>
</svg>
