<?xml version="1.0" encoding="utf-8"?>
<!-- Generator: Adobe Illustrator 15.0.2, SVG Export Plug-In . SVG Version: 6.00 Build 0)  -->
<!DOCTYPE svg PUBLIC "-//W3C//DTD SVG 1.1//EN" "http://www.w3.org/Graphics/SVG/1.1/DTD/svg11.dtd">
<svg version="1.1" id="Layer_1" xmlns="http://www.w3.org/2000/svg" xmlns:xlink="http://www.w3.org/1999/xlink" x="0px" y="0px"
	 width="720px" height="460px" viewBox="0 0 720 460" enable-background="new 0 0 720 460" xml:space="preserve">
<g>
	<polygon fill="#888886" points="111.001,296.969 53,379.787 667,378.787 608,285.787 	"/>
</g>
<polygon fill="#ADADAC" points="643.1,321.324 110.712,274.732 79.099,322.912 81.099,338.912 641.1,337.324 "/>
<g>
	<polygon fill="#C0C1BE" points="110.712,274.732 79.099,322.912 643.1,321.324 614.002,274.73 	"/>
</g>
<polygon fill="#BABF3B" points="599.592,252.334 124.712,252.334 110.712,274.73 614.002,274.73 "/>
<g>
	<g>
		<polygon fill="#E0DFD9" points="124.712,252.369 106.712,153.103 190.016,108.328 278.826,153.103 281.826,200.488 
			297.557,200.488 295.557,132.048 400.494,132.048 399.494,141.431 414.91,141.431 417.91,113.929 512.758,80.212 611.592,116.614 
			599.592,252.697 		"/>
	</g>
	<polygon fill="#E0DFD9" points="265,156.316 239,156.316 236,116.316 263,116.316 	"/>
	<polygon fill="#E0DFD9" points="473,120.212 447,120.212 450,80.212 477,80.212 	"/>
</g>
<g>
	<g>
		<g>
			<g>
				<path fill="#FDFBF7" d="M383.484,208.787c-0.594-0.562-1.256-1.395-1.223-2.281c0.021-0.568,0.314-1.053,0.826-1.367
					c0.508-0.311,1.042-0.467,1.586-0.467c0.514,0,0.988,0.139,1.422,0.373l4.141-5.955l-10.902-6.092l-14.104,21.203l10.166,6.24
					l7.936-11.42C383.383,208.945,383.438,208.859,383.484,208.787z"/>
			</g>
			<path fill="#D8D3C1" d="M366.688,214.387c-0.17,0-0.334-0.086-0.428-0.24c-0.144-0.236-0.068-0.545,0.168-0.688l11.34-6.857
				l1.453-12.359c0.032-0.275,0.279-0.473,0.555-0.438c0.274,0.031,0.471,0.279,0.438,0.555l-1.481,12.602
				c-0.018,0.154-0.105,0.291-0.238,0.369l-11.549,6.984C366.865,214.363,366.775,214.387,366.688,214.387z"/>
		</g>
		<g>
			<path fill="#C83B0C" d="M384.828,208.605c-0.854-0.613-2.213-2.004-1.219-2.613c3.486-2.129,6.564,6.994,1.918,8.221
				c-1.289,0.34-3.117,0.164-4.021-0.361C381.506,213.852,384.395,209.098,384.828,208.605z"/>
		</g>
		<g>
			<g>
				<path fill="#C83B0C" d="M454.068,241.191c-2.641,3.666-11.979,5.01-19.867,5.01c-8.466,0-18.133-1.52-22.125-5.531
					c-7.756,10.605-10.299,23.578-8.377,39.494l4.379,0.484c4.104-12.703,12.697-21.561,24.836-22.646
					c1.031,11.641,6.789,24.748,18.518,33.617l4.729-1.695C447.281,274.492,456.691,256.693,454.068,241.191z"/>
			</g>
		</g>
		<g>
			<g>
				<path fill="#C83B0C" d="M411.149,209.875c0.282-1.799,0.661-3.494,1.116-5.098c-3.172,5.982-7.869,11.934-22.102,6.668
					l-3.725,4.344c6.141,5.174,14.116,8.258,23.301,7.613C409.854,219.805,410.244,215.66,411.149,209.875z"/>
			</g>
		</g>
		<g>
			<path fill="#C83B0C" d="M461.049,233.193c-0.16-0.662-0.488-2.008-1.377-2.1c-0.658-0.068-0.834,0.881-1.508,0.705
				c-1.994-0.521,0.766-4.201,1.621-4.65c4.326-2.271,8.43,4.164,6.143,7.777c-0.883,1.396-3.184,1.553-4.143,0.123
				C461.359,234.416,461.188,233.773,461.049,233.193z"/>
		</g>
		<g>
			<path fill="#C83B0C" d="M404.895,285.865c-1.348,0.016-4.443-0.035-5.439-0.873c-2.15-1.801,1.904-2.914,3.926-3.238
				C408.57,280.926,410.9,285.795,404.895,285.865z"/>
		</g>
		<g>
			<path fill="#C83B0C" d="M455.535,295.822c-1.26,0.473-4.184,1.482-5.406,1.035c-2.639-0.959,0.791-3.391,2.584-4.385
				C457.305,289.92,461.158,293.701,455.535,295.822z"/>
		</g>
		<g>
			<path fill="#C83B0C" d="M437.348,189.186c-0.045,0.046-0.082,0.097-0.127,0.143c-0.122,0.126-0.252,0.242-0.377,0.364
				c-0.148,0.326-0.301,0.656-0.465,0.989l-0.481,0.98l-0.754-0.457c-5.122,4.049-11.71,5.539-16.196,5.539
				c-0.334,0-0.647-0.008-0.934-0.025c-0.297-0.018-0.613-0.072-0.941-0.156c-2.306,3.311-4.049,7.807-4.936,13.467
				c-2.045,13.068-1.451,17.771-0.93,26.654c0.646,11.01,40.92,10.668,42.541,2.859c2.578-12.418-7.422-35.631-7.422-35.631
				s9.742,2.141,15.043,21.361l4.467,1.465C467.867,206.117,453.728,191.049,437.348,189.186z"/>
			<path fill="#C83B0C" d="M450.387,180.498c-2.211-3.083-2.717-8.577-3.322-13.289c-1.109-8.649-2.346-11.096-6.252-14.353
				c-3.246-2.704-6.59-4.663-11.322-5.062c-5.637-0.476-11.834,1.609-15.238,3.799c-1.43,0.92-4.359,2.628-7.205,4.626
				c-1.895,1.33-7.516,3.45-9.943,3.45c1.404,1.278,5.6,2.044,7.898,2.556c-1.848,1.737-5.875,3.194-5.982,3.706
				c5.982,1.15,14.057-0.255,20.82-1.979c2.633,4.079,3.312,8.817,5.662,14.014c3.334,7.383,6.172,9.971,9.98,12.276
				c1.234-2.51,2.057-5.005,2.057-5.005s2.871,1.303,7.736,1.907c-1.021-2.661-1.057-5.587-1.057-5.587
				S447.523,180.905,450.387,180.498z"/>
		</g>
		<path fill="#C83B0C" d="M424.59,178.377c-0.988-2.186-1.676-4.259-2.342-6.265c-0.83-2.5-1.617-4.873-2.875-7.013
			c-5.334,1.323-10.021,2.065-13.975,2.217c-0.318,1.787-0.464,3.667-0.359,5.652c0.795,14.915,9.02,22.518,13.033,22.752
			c3.373,0.199,10.529-0.773,16.164-5.077C430.487,188.248,427.754,185.382,424.59,178.377z M410.105,179.553
			c-0.764,0.094-1.529-1.018-1.709-2.484c-0.182-1.469,0.297-2.731,1.062-2.827c0.764-0.094,1.533,1.02,1.711,2.485
			C411.348,178.194,410.873,179.459,410.105,179.553z"/>
	</g>
</g>
</svg>
