<?xml version="1.0" encoding="utf-8"?>
<!-- Generator: Adobe Illustrator 15.0.2, SVG Export Plug-In . SVG Version: 6.00 Build 0)  -->
<!DOCTYPE svg PUBLIC "-//W3C//DTD SVG 1.1//EN" "http://www.w3.org/Graphics/SVG/1.1/DTD/svg11.dtd">
<svg version="1.1" id="Layer_1" xmlns="http://www.w3.org/2000/svg" xmlns:xlink="http://www.w3.org/1999/xlink" x="0px" y="0px"
	 width="720px" height="460px" viewBox="0 0 720 460" enable-background="new 0 0 720 460" xml:space="preserve">
<g>
	<polygon fill="#C6B99E" points="109.612,306.707 78,354.888 642,353.3 608,303.001 	"/>
</g>
<g>
	<polygon fill="#E0DFD9" points="109.612,306.707 108,107.112 608,105.112 608,303.001 	"/>
</g>
<g>
	<polygon fill="#AE9E7D" points="413.488,321.856 409.773,321.856 408.922,321.085 408.922,288.678 413.488,288.678 	"/>
	<polygon fill="#AE9E7D" points="560.59,321.856 557.707,321.856 556.023,321.085 556.023,288.678 560.59,288.678 	"/>
	<polygon fill="#C4B79B" points="571.492,294.455 564.492,283.759 399.277,283.759 399.277,285.759 400.277,296.455 
		571.492,296.455 	"/>
	<polygon fill="#AE9E7D" points="563.492,246.653 398.277,246.653 399.277,285.759 399.777,284.259 564.492,283.759 
		564.492,247.653 	"/>
</g>
<g>
	<circle fill="#B8B8B6" cx="516.25" cy="160.716" r="29.75"/>
	<circle fill="#E3E1DC" cx="516.25" cy="160.716" r="26.01"/>
	<g>
		<path fill="#939491" d="M527.586,168.323c-0.24,0-0.482-0.058-0.709-0.18l-11.725-6.315l-8.176-14.707
			c-0.402-0.724-0.141-1.637,0.582-2.039c0.727-0.403,1.639-0.142,2.041,0.582l7.748,13.939l10.951,5.898
			c0.73,0.394,1.002,1.303,0.609,2.032C528.639,168.037,528.121,168.323,527.586,168.323z"/>
	</g>
	<g>
		<g>
			<g>
				<path fill="#AAABA8" d="M516.25,141.479c-0.828,0-1.5-0.672-1.5-1.5v-2.539c0-0.829,0.672-1.5,1.5-1.5s1.5,0.671,1.5,1.5v2.539
					C517.75,140.807,517.078,141.479,516.25,141.479z"/>
				<path fill="#AAABA8" d="M516.25,184.29c-0.828,0-1.5-0.672-1.5-1.5v-2.539c0-0.827,0.672-1.5,1.5-1.5s1.5,0.673,1.5,1.5v2.539
					C517.75,183.618,517.078,184.29,516.25,184.29z"/>
			</g>
		</g>
		<g>
			<g>
				<path fill="#AAABA8" d="M506.184,144.177c-0.52,0-1.023-0.27-1.301-0.751l-1.27-2.199c-0.414-0.718-0.168-1.635,0.549-2.049
					c0.719-0.414,1.635-0.168,2.049,0.549l1.27,2.2c0.414,0.718,0.168,1.635-0.549,2.049
					C506.695,144.112,506.438,144.177,506.184,144.177z"/>
				<path fill="#AAABA8" d="M527.59,181.252c-0.52,0-1.023-0.269-1.301-0.75l-1.27-2.2c-0.414-0.717-0.168-1.635,0.549-2.049
					c0.719-0.413,1.635-0.168,2.049,0.55l1.27,2.199c0.414,0.718,0.168,1.635-0.549,2.05
					C528.102,181.188,527.844,181.252,527.59,181.252z"/>
			</g>
		</g>
		<g>
			<g>
				<path fill="#AAABA8" d="M498.811,151.548c-0.254,0-0.512-0.065-0.748-0.201l-2.199-1.271c-0.719-0.414-0.965-1.331-0.551-2.049
					c0.416-0.718,1.334-0.964,2.049-0.55l2.201,1.27c0.717,0.414,0.963,1.332,0.549,2.049
					C499.834,151.277,499.33,151.548,498.811,151.548z"/>
				<path fill="#AAABA8" d="M535.887,172.952c-0.254,0-0.512-0.063-0.748-0.201l-2.201-1.27c-0.717-0.414-0.963-1.332-0.549-2.049
					s1.332-0.964,2.049-0.549l2.201,1.27c0.717,0.414,0.963,1.331,0.549,2.049C536.91,172.684,536.404,172.952,535.887,172.952z"/>
			</g>
		</g>
		<g>
			<g>
				<path fill="#AAABA8" d="M496.115,161.614h-2.541c-0.828,0-1.5-0.672-1.5-1.5s0.672-1.5,1.5-1.5h2.541c0.828,0,1.5,0.672,1.5,1.5
					S496.943,161.614,496.115,161.614z"/>
				<path fill="#AAABA8" d="M538.926,161.614h-2.539c-0.83,0-1.5-0.672-1.5-1.5s0.67-1.5,1.5-1.5h2.539c0.828,0,1.5,0.672,1.5,1.5
					S539.754,161.614,538.926,161.614z"/>
			</g>
		</g>
		<g>
			<g>
				<path fill="#AAABA8" d="M496.613,172.952c-0.518,0-1.021-0.269-1.301-0.75c-0.414-0.718-0.168-1.635,0.551-2.049l2.199-1.27
					c0.719-0.415,1.635-0.168,2.049,0.549s0.168,1.635-0.549,2.049l-2.199,1.27C497.127,172.889,496.869,172.952,496.613,172.952z"
					/>
				<path fill="#AAABA8" d="M533.689,151.548c-0.52,0-1.023-0.271-1.301-0.752c-0.414-0.717-0.168-1.635,0.549-2.049l2.201-1.27
					c0.717-0.413,1.635-0.168,2.049,0.55s0.168,1.635-0.551,2.049l-2.199,1.271C534.201,151.482,533.943,151.548,533.689,151.548z"
					/>
			</g>
		</g>
		<g>
			<g>
				<path fill="#AAABA8" d="M504.91,181.252c-0.254,0-0.512-0.064-0.748-0.2c-0.717-0.415-0.963-1.332-0.549-2.05l1.27-2.199
					c0.414-0.718,1.332-0.963,2.049-0.55c0.717,0.414,0.963,1.332,0.549,2.049l-1.27,2.2
					C505.934,180.983,505.43,181.252,504.91,181.252z"/>
				<path fill="#AAABA8" d="M526.316,144.177c-0.254,0-0.512-0.064-0.748-0.201c-0.717-0.414-0.963-1.331-0.549-2.049l1.27-2.2
					c0.414-0.717,1.332-0.963,2.049-0.549s0.963,1.331,0.549,2.049l-1.27,2.199C527.34,143.907,526.836,144.177,526.316,144.177z"/>
			</g>
		</g>
	</g>
</g>
<path fill="#C7A53A" d="M562.314,328.159c0.129,0.006,0.25,0.021,0.359,0.043c0.861,0.182,1.695,0.578,2.58,0.762
	c0.949,0.199,1.895,0.361,2.842,0.511c0.727,0.115,1.443,0.372,2.17,0.435c1.098,0.096,2.197,0.092,3.299,0.076
	c0.961-0.013,1.559-0.15,2.432-0.473c1.967-0.723,4.213-1.359,6.299-1.568c2.244-0.225,4.512-0.638,6.557,0.419
	c2.736,1.415,1.559,2.954-0.844,3.905c-1.701,0.673-3.887,0.795-5.719,0.969c-0.865,0.084-2.07,0.129-2.922,0.434
	c-0.869,0.312-1.133,0.771-1.922,1.285c-3.264,2.123-7.791-0.518-11.268-0.85c-1.807-0.172-3.613-0.439-5.371-0.893
	c-1.488-0.383-3.934-0.996-4.783-2.434c0.66-0.483,1.943-0.155,2.732-0.555c0.486-0.246,0.746-0.658,0.826-1.125
	c0.084-0.498,0.078-0.559,0.592-0.68C560.758,328.284,561.645,328.123,562.314,328.159z"/>
<path fill="#D7BD4E" d="M518.492,244.609c-0.5,1.008,0.018,0.682-0.824,1.5c1.055,8.181-6.859,5.271-10.986,2.466
	c0.33,3.788-1.447,9.457-5.598,10.223c-6.609-5.989-14.945-7.308-22.512-11.663c-5.502-3.166-1.77-3.374-2.354-8.137
	c-0.467-3.8-6.15-6.603-7.562-10.375c2.555-2.188,4.195-5.195,6.824-7.047c-2.463,1.734,3.086,7.979,4.365,8.84
	c3.504,2.354,8.252,2.36,12.271,2.928C502.146,234.76,509.072,241.494,518.492,244.609z"/>
<g>
	<g>
		<g>
			<path fill="#4E7094" d="M196.542,270.069c-0.109-0.385-0.361-0.705-0.709-0.901l-3.024-1.698
				c-0.413,0.655-0.961,1.271-1.626,1.797c-0.188,0.148-0.382,0.281-0.581,0.404l2.454,1.378l-3.307,5.884l-11.51-6.465l3.305-5.883
				l4.332,2.432c0.128-0.055,0.252-0.104,0.36-0.146c0.768-0.296,1.432-0.552,1.773-1.493c0.08-0.218-0.099-0.558-0.4-0.827
				l-3.306-1.856l-0.822-0.452l0.007-0.005l-1.786-1.003c-0.227-0.128-0.475-0.192-0.732-0.192c-0.543,0-1.043,0.294-1.309,0.766
				l-4.773,8.498c-0.195,0.35-0.244,0.755-0.137,1.141c0.109,0.386,0.361,0.706,0.709,0.902l14.129,7.936
				c0.225,0.126,0.479,0.192,0.734,0.192c0.141,0,0.277-0.02,0.404-0.057c0.381-0.105,0.711-0.365,0.904-0.709l4.773-8.5
				C196.6,270.86,196.649,270.455,196.542,270.069z"/>
		</g>
		<g>
			<path fill="#6185A6" d="M191.175,319.396c-0.269,0.479-0.881,0.651-1.361,0.383l-48.131-27.037
				c-0.479-0.269-0.652-0.882-0.383-1.361l18.784-33.519c0.269-0.479,0.881-0.651,1.361-0.383l48.133,27.037
				c0.48,0.269,0.652,0.882,0.383,1.361L191.175,319.396z"/>
		</g>
		
			<rect x="195.046" y="280.322" transform="matrix(-0.5077 0.8615 -0.8615 -0.5077 541.5088 254.0093)" fill="#577A9D" width="6.271" height="2.795"/>
		
			<rect x="166.246" y="264.187" transform="matrix(-0.5074 0.8617 -0.8617 -0.5074 484.182 254.384)" fill="#577A9D" width="6.27" height="2.794"/>
	</g>
	<g>
		<g>
			<g>
				<path fill="#7A574A" d="M305.43,282.541c-11.521,2.63-33.861-9.913-38.145-24.198c-5.645,7.453-18.167,12.24-28.194,12.24
					c-4.223,0-7.69-0.841-10.187-2.419c-0.515-0.137-1.01-0.298-1.462-0.51c-6.375,13.36-6.907,39.464,1.525,55.694l5.333-0.333
					c-0.615-18.82,1.474-32.055,18.638-42.001c8.838,8.918,44.332,15.475,55.146,4.592L305.43,282.541z"/>
			</g>
		</g>
		<g>
			<path fill="#7A574A" d="M188.949,265.719c-0.951,2.618-3.854,1.683-3.541,3.438c0.16,0.893,3.209,0.862,5.154-0.676
				c1.553-1.228,2.324-2.926,2.07-4.316c-0.283-1.543-1.91-2.929-3.752-2.945c-1.711-0.015-2.338,0.187-3.473,0.94
				c0.766,0.422,1.576,0.857,2.338,1.271C188.558,263.871,189.275,264.821,188.949,265.719z"/>
		</g>
		<g>
			<path fill="#7A574A" d="M302.074,230.51c1.721,0.556,2.76,1.804,3.268,2.984c0,0-0.863,0.17-2.275,0.56
				c-1.557,0.43-2.734,0.835-3.565,2.259c-0.56,0.961-0.39,2.303,0.399,3.341c-1-0.144-2.868-0.819-3.524-1.407
				c-1.442-1.291-1.671-2.946-0.775-4.493C297.532,230.402,299.491,229.681,302.074,230.51z"/>
		</g>
		<g>
			<path fill="#7A574A" d="M232.54,328.86c-1.523,0.059-5.018,0.099-6.17-0.817c-2.484-1.969,2.061-3.351,4.334-3.778
				C236.538,323.169,239.321,328.595,232.54,328.86z"/>
		</g>
		<g>
			<path fill="#7A574A" d="M311.139,280.366c0.984,1.157,3.176,3.883,3.166,5.352c-0.014,3.171-3.906,0.453-5.646-1.072
				C304.191,280.737,306.738,275.194,311.139,280.366z"/>
		</g>
		<g>
			<path fill="#7A574A" d="M252.967,203.319c-5.188-3.31-7.787-5.993-9.795-12.506c-2.439-7.913-5.604-14.259-9.605-16.962
				c-3.324-2.243-6.672-3.685-11.182-3.7c-4.982-0.016-9.748,1.338-15.141,4.563c-4.547,2.718-6.707,7.595-6.707,7.595
				c-0.254,0.435-0.486,0.894-0.697,1.389c-3.658,8.71,0.473,21.411,0.473,21.411l0.883-1.346l2.166,3.092l0.297-0.449
				c-1.33-2.786-2.4-6.089-2.996-9.935c-0.791-5.093,0.01-10.552,3.033-14.231c2.508-3.051,5.924-3.537,8.594-3.363
				c4.676,0.306,7.105,2.467,9.117,5.786c2.051,3.385,3.357,8.358,4.33,13.246c1.502,7.547,7.107,11.517,7.6,12.163
				c1.18-0.419,2.916-3.421,2.916-3.421s4.867,3.76,10.871,3.358c-1.859-2.416-3.725-6.69-3.725-6.69
				S250.301,203.977,252.967,203.319z"/>
			<g>
				<path fill="#7A574A" d="M293.795,233.574l4.752-4.741c-18.325-16.524-36.88-23.044-52.556-22.509
					c0.583,1.077,1.257,2.21,1.924,3.076l1.141,1.483l-1.867,0.124c-0.326,0.022-0.649,0.032-0.969,0.032
					c-4.39,0-8.037-1.939-9.668-2.973c-0.704,1.075-1.838,2.576-2.882,2.947l-0.675,0.26l-0.442-0.58
					c-0.052-0.06-0.257-0.245-0.438-0.409c-0.021-0.019-0.046-0.042-0.067-0.062c-4.599,3.987-9.821,6.156-13.388,6.949
					c-11.557,11.937-12.027,30.65-27.975,42.189l4.102,4.955c17.432-11.117,26.318-25.25,26.318-25.25s9.438,3.293,5.344,25.122
					c5.85,11,36.566,3.909,42.023-9.907c-2.08-17.635-11.023-28.78-11.023-28.78S276.137,222.12,293.795,233.574z"/>
			</g>
		</g>
	</g>
	<g>
		<path fill="#577A9D" d="M411.711,209.555c-0.197,0.347-0.531,0.617-0.945,0.728l-108.377,28.769
			c-0.824,0.213-1.664-0.277-1.88-1.1c-0.213-0.821,0.274-1.66,1.097-1.877l108.377-28.769c0.822-0.213,1.662,0.275,1.879,1.098
			C411.967,208.808,411.902,209.218,411.711,209.555z"/>
		<path fill="#577A9D" d="M309.508,237.111c-0.26,0.461-0.699,0.816-1.248,0.959l-5.521,1.338c-1.084,0.286-2.196-0.36-2.48-1.447
			c-0.286-1.086,0.362-2.197,1.449-2.482l5.518-1.336c1.088-0.286,2.197,0.363,2.482,1.45
			C309.846,236.129,309.76,236.668,309.508,237.111z"/>
		<path fill="#6185A6" d="M416.109,206.724c0.299,1.146-0.393,2.331-1.541,2.634l-58.281,15.316
			c-1.143,0.299-2.332-0.387-2.631-1.535c0,0-2.736-6.093-4.842-14.103c-1.691-6.431-2.191-12.647-2.191-12.647
			c-0.301-1.145,0.389-2.327,1.535-2.632c0,0,15.451-6.558,30.855-10.643c12.691-3.367,27.43-4.677,27.43-4.677
			c1.146-0.301,2.33,0.39,2.633,1.537c0,0,2.393,5.935,4.039,12.19C415.033,199.477,416.109,206.724,416.109,206.724z"/>
		<path fill="#6185A6" d="M354.494,209.221c-0.279,0.486-0.746,0.865-1.328,1.018l-4.125,1.085c-1.154,0.304-2.33-0.385-2.633-1.534
			c-0.303-1.151,0.385-2.33,1.535-2.634l4.127-1.083c1.152-0.304,2.33,0.385,2.637,1.535
			C354.852,208.176,354.76,208.751,354.494,209.221z"/>
		<path fill="#577A9D" d="M410.422,183.832c0,0-8.588,2.255-11.451,3.004c-1.99,0.521-5.971,1.57-7.959,2.09
			c-10.982,2.878-43.916,11.525-43.916,11.525l-0.277-1.044c0,0,8.619-1.868,11.332-2.972c1.91-0.779,3.637-2.065,7.551-3.343
			c4.672-1.529,8.367-2.132,10.895-2.401c3.84-0.407,10.396-1.827,14.131-2.807c1.971-0.518,6.332-2.233,8.301-2.752
			c2.889-0.757,11.121-2.344,11.121-2.344L410.422,183.832z"/>
		<g>
			<path fill="#4E7094" d="M416.891,202.608c2.518,1.435,3.395,4.636,1.961,7.152c-1.436,2.518-4.637,3.396-7.152,1.96
				c-2.52-1.432-3.398-4.633-1.963-7.151C411.17,202.052,414.373,201.176,416.891,202.608z"/>
		</g>
		<g>
			<circle fill="#6C94B2" cx="414.294" cy="207.166" r="2.194"/>
		</g>
		<path fill="#C7A53A" d="M425.51,183.242c5.678,0.766,15.592-11.39,13.834-14.664c-3.371-6.289-9.014,10.442-14.148,10.01
			c-5.387-0.451-11.713,2.753-15.35,4.273c-0.252,0.648,0.082,0.774,0.385,1.199C410.23,184.061,416.799,182.069,425.51,183.242z"/>
		<path fill="#D8D3C1" d="M366.447,199.039c2.305,1.785,3.424,4.581,6.336,5.623c-0.412-2.498-1.631-2.758,0.924-4.246
			c1.768-1.031,4.314-0.572,6.289-1.178c-1.596-3.436,2.102-2.886,4.135-3.636c-1.787-3.147-10.465-4.241-13.818-3.513
			c-4.611,1.003-7.176,1.953-10.896,3.937C359.416,196.026,364.016,197.149,366.447,199.039z"/>
	</g>
</g>
<g>
	<path fill="#7A574A" d="M232.838,207.826c-0.598,0.604-5.6-9.774-6.305-12.292c-1.41-5.024-2.008-8.836-2.842-10.186
		c-1.432-2.318-5.605-6.867-10.02-7.155c-2.65-0.172-6.609,0.272-8.949,2.865c-0.049,0.078-0.09,0.162-0.139,0.241
		c2.082-1.928,4.592-2.453,6.771-2.453c0.319,0,0.632,0.011,0.935,0.03c4.676,0.306,7.105,2.467,9.117,5.786
		c2.051,3.385,3.357,8.358,4.33,13.246c1.11,5.579,4.458,9.196,6.33,10.969c0.287-0.264,0.573-0.53,0.852-0.809L232.838,207.826z"/>
	<path fill="#7A574A" d="M224.756,198.105c-0.761-3.825-2.025-9.327-4.205-12.924c-1.804-2.977-3.91-5.019-8.327-5.307
		c-0.282-0.018-0.572-0.028-0.87-0.028c-2.917,0-5.234,1.02-6.887,3.028c-1.587,1.932-2.59,4.576-2.943,7.55
		c-0.181,1.861-0.148,3.813,0.167,5.851c2.178,14.016,10.674,20.414,14.488,20.252c3.317-0.139,9.765-2.371,15.134-6.984
		C229.343,207.671,225.914,203.921,224.756,198.105z M205.127,198.155c-0.641,0.014-1.189-1.136-1.219-2.567
		c-0.027-1.433,0.471-2.604,1.115-2.619c0.643-0.012,1.191,1.138,1.221,2.571C206.272,196.973,205.772,198.143,205.127,198.155z
		 M213.942,198.402c-0.73,0.016-1.35-1.108-1.377-2.512c-0.029-1.405,0.543-2.552,1.275-2.568c0.73-0.015,1.348,1.11,1.377,2.513
		C215.245,197.238,214.674,198.389,213.942,198.402z"/>
</g>
</svg>
