<?xml version="1.0" encoding="utf-8"?>
<!-- Generator: Adobe Illustrator 15.0.2, SVG Export Plug-In . SVG Version: 6.00 Build 0)  -->
<!DOCTYPE svg PUBLIC "-//W3C//DTD SVG 1.1//EN" "http://www.w3.org/Graphics/SVG/1.1/DTD/svg11.dtd">
<svg version="1.1" id="Layer_1" xmlns="http://www.w3.org/2000/svg" xmlns:xlink="http://www.w3.org/1999/xlink" x="0px" y="0px"
	 width="720px" height="460px" viewBox="0 0 720 460" enable-background="new 0 0 720 460" xml:space="preserve">
<ellipse fill="#9BB2C7" cx="360" cy="264.806" rx="340.874" ry="93.768"/>
<g>
	<path fill="#A8BCCE" d="M505.627,163.193c6.394-5.437,6.946,3.821,5.859,7.522c1.427,0.061,5.589,2.851,6.302,2.535
		c2.531-1.121-0.088-4.369,1.801-6.355c4.767-5.014,8.812,0.345,7.419,5.245c1.396,0.248,2.444,1.521,3.839,1.769
		c-0.293,1.346,0.174,3.107-0.34,4.466c2.197-2.498,3.875-7.333,7.51-3.979c-0.828-4.392,1.193-8.084,6.217-7.803
		c8.914,0.499,2.711,4.727,1.486,8.515c-0.248,0.187-0.262,0.175-0.045-0.035c5.189-3.509,3.902,5.014,4.428,7.678
		c3.061-1.92,2.461-7.014,6.965-6.002c-0.44-1.198-0.91-1.929-0.701-3.436c0.291-2.117,5.531-4.055,7.479-2.024
		c2.129,2.219-1.434,4.776-1.934,7.114c6.676-0.865,4.768,4.328,4.592,8.847c2.361,0.615,4.826,0.012,7.086-0.542
		c-0.541-3.427-2.616-6.827,2.564-7.527c5.5-0.742,7.225,4.721,3.017,7.695c0.738,3.457,3.944,4.444,7.267,4.028
		c0.025-3.277,0.852-7.415,4.83-6.518c0.186,0.253,0.176,0.263-0.033,0.028c-2.594-3.147,2.912-7.611,6.137-6.271
		c3.268,1.358,2.648,7.251,0.012,8.438c2.023,2.31,1.877,5.425,1.5,8.473c0.76,0.735,2.293,1.413,3.262,1.52
		c4.538-6.177,11.421-4.821,7.13,3.069c4.987,2.064,4.79-2.488,5.987-5.896c3.658,1.093,8.135,5.325,3.363,8.538
		c1.204,0.502,3.33,0.59,4.619,0.46c1.422-2.562,0.808-5.358,0.936-8.156c5.246-0.657,11.349,4.532,5.094,8.202
		c1.877,1.049,3.736,2.866,3.912,5.102c4.307-0.248-0.193-5.24,2.09-6.498c1.799-0.991,5.074-2.531,6.812-1.084
		c-0.095-1-0.091-2.594,0.526-3.412c1.441-1.91,8.087-1.111,9.545,1.838c1.543,3.12-2.643,5.109-4.493,6.968
		c1.255,2.501,2.673,5.213,1.106,7.694c0.99-2.846,3.22-4.654,6.377-4.086c-3.33-5.746,5.933-9.25,7.541-2.816
		c0.585,2.336-1.307,4.471-1.113,6.98c0.21,2.729,1.943,4.385,1.574,7.496c-0.477,4.03,5.259,7.906,0.052,14.866
		c-2.224,2.972-11.308,4.638-15.46,3.897c-2.943-0.523-5.727,1.254-9.473,3.991c-3.744,2.737-8.146-0.606-11.504-3.991
		c-3.051-3.072-20.055-5.553-24.039-7.377c-9.539-4.367-12.076-8.388-21.688-11.889c-17.447-6.355-35.489-10.395-53.576-14.417
		c-7.19-1.599-12.234-5.536-19.178-7.517c-7.707-2.197-15.913-2.623-23.847-3.428c-9.851-0.998-27.513-1.949-27.364-13.333
		c0.111-8.521,5.301-5.941,7.331-11.335c1.722-4.573-3.022-13.038,6.669-11.329c7.787,1.373,2.52,7.051,3.15,11.296
		c0.66,4.434,5.389,6.668,10.764,5.918c-0.672-2.229-5.35-6.81-4.613-9.254c1.164-3.861,7.189-3.229,10.064-1.462
		c4.88,3,0.535,8.812,3.17,11.865c4.736,5.49,4.364-3.905,7.705-3.807c2.828,0.083,3.24,0.429,3.871-3.376
		C505.632,167.604,502.636,165.736,505.627,163.193z"/>
	<path fill="#A8BCCE" d="M207.108,161.316c0.2,2.411,0.802,4.44,0.688,6.974c-5.812-0.48-2.167,5.645-2.623,9.143
		c-2.506-1.116-1.229-21.416-9.083-14.749c-1.587,1.346,0.031,3.685-0.4,4.556c0.1-0.203,0.907,1.512,0.724,2.084
		c-0.36,1.127-2.592,0.429-2.713,0.951c-0.943,4.065,0.161,5.85,0.193,9.972c-7.098,2.396-2.16-9.577-10.359-8.571
		c2.193-9.15-12.397-7.401-4.905,1.387c-6.043,0.061-3.241,5.148-2.069,8.494c-9.573,4.043-3.451-9.308-10.25-6.166
		c-1.218-7.366-10.982-0.531-4.342,1.553c0.107-0.166,0.147,1.728,0.064,1.591c-0.794,0.243-1.377,0.6-2.151,0.894
		c1.061,4.67-2.655,7.257-6.95,6.684c1.589-9.449-9.293-7.957-7.875-2.689c1.446,0.83,1.316,1.616,2.318,2.854
		c-6.854,5.717-5.789-4.575-7.973-7.315c-4.711-5.915-12.853,0.844-3.51,5.055c-1.474,2.316-2.686,7.846-5.001,7.891
		c-6.007,0.117-2.785-7.726-4.584-10.614c-1.135-1.824-2.901-5.557-5.438-3.257c-4.868,4.416-0.955,5.443,0.267,7.664
		c-3.08,2.509-1.083,6.77-2.815,8.518c-3.025,3.052-6.149-0.398-7.145-3.2c4.976-1.932-0.196-8.52-4.003-7.763
		c-6.185,1.231-1.957,5.279,0.252,7.676c-3.193-0.04-3.556,2.836-2.624,5.536c2.389,0.557,1.64,0.943,2.951,2.83
		c-5.604,2.988-8.894-5.061-12.266-7.158c5.664-6.199-8.623-9.01-4.211,0.067c-5.531,2.153-1.882,6.382-3.746,9.31
		c-0.636-0.266-1.042-0.486-1.723-0.691c-1.018-2.709-0.226-6.227-2.238-8.201c-2.38-2.337-6.965-2.396-7.158,1.491
		c-0.119,2.415,5.17,4.19,5.157,6.356c-0.018,2.812-4.689,4.674-6.467,6.08c-0.425-2.385-3.142-4.844-5.665-3.338
		c-1.6,0.955-1.833,6.928-1.768,8.54c4.144,1.378-5.759,7.674-3.277,10.431c2.688,2.986,12.224,18.573,19.955,16.644
		c11.012-2.748,7.148,3.776,15.975-0.724c5.443-2.775,17.721-7.592,23.163-10.922c5.403-3.303,21.952-8.439,27.956-10.316
		c20.966-6.553,41.565-13.553,62.967-18.567c8.869-2.078,18.337-2.187,27.349-3.891c4.2-0.794,8.605-1.003,12.651-2.665
		c5.857-2.407,3.726-0.258,3.299-6.632c-0.591-8.806,2.12-17.696-9.862-16.765c1.256-6.419-3.543-17.681-9.338-7.734
		c1.761,2.553,1.742,5.308-1.998,5.266c-0.173,2.38,0.363,3.921,2.481,5.233c-1.316,2.255-3.804,3.658-6.481,3.915
		c-0.25-4.43-1.684-15.046-8.598-8.411c-1.859,1.783-0.842,6.603-0.893,8.817c-2.532-2.898-4.373-6.556-8.662-6.983
		c-0.065-1.945-0.048-5.794-1.632-7.305C211.964,160.417,206.836,158.023,207.108,161.316z"/>
</g>
<g>
	<path fill="#85A1BA" d="M233.542,179.164c-6.393-5.437-6.946,3.821-5.859,7.522c-1.426,0.061-5.588,2.851-6.302,2.536
		c-2.532-1.121,0.089-4.369-1.801-6.355c-4.767-5.014-8.812,0.344-7.419,5.245c-1.395,0.248-2.443,1.521-3.839,1.769
		c0.293,1.345-0.174,3.108,0.34,4.465c-2.196-2.498-3.874-7.333-7.511-3.979c0.829-4.392-1.192-8.083-6.215-7.803
		c-8.914,0.499-2.713,4.727-1.487,8.514c0.248,0.188,0.262,0.176,0.044-0.034c-5.188-3.509-3.9,5.015-4.426,7.679
		c-3.062-1.92-2.462-7.016-6.967-6.003c0.441-1.198,0.911-1.929,0.703-3.435c-0.292-2.117-5.532-4.055-7.479-2.024
		c-2.13,2.22,1.435,4.777,1.934,7.115c-6.676-0.865-4.767,4.327-4.592,8.846c-2.36,0.615-4.825,0.012-7.086-0.541
		c0.542-3.428,2.616-6.828-2.565-7.527c-5.499-0.742-7.224,4.721-3.016,7.695c-0.738,3.457-3.944,4.443-7.267,4.028
		c-0.026-3.277-0.851-7.415-4.831-6.518c-0.185,0.253-0.174,0.263,0.034,0.028c2.595-3.148-2.912-7.611-6.136-6.271
		c-3.269,1.358-2.648,7.251-0.012,8.438c-2.023,2.31-1.877,5.426-1.501,8.473c-0.76,0.735-2.292,1.412-3.261,1.52
		c-4.539-6.177-11.422-4.82-7.131,3.07c-4.986,2.063-4.79-2.49-5.987-5.896c-3.658,1.094-8.135,5.325-3.362,8.538
		c-1.205,0.502-3.331,0.591-4.62,0.46c-1.422-2.562-0.808-5.357-0.937-8.156c-5.245-0.658-11.348,4.533-5.092,8.202
		c-1.877,1.048-3.737,2.866-3.913,5.101c-4.306-0.248,0.193-5.239-2.09-6.498c-1.798-0.99-5.073-2.529-6.812-1.083
		c0.096-1.001,0.09-2.595-0.527-3.412c-1.44-1.909-8.086-1.11-9.544,1.837c-1.543,3.121,2.643,5.109,4.493,6.969
		c-1.254,2.502-2.672,5.213-1.105,7.693c-0.991-2.846-3.221-4.653-6.378-4.084c3.33-5.747-5.933-9.252-7.541-2.817
		c-0.585,2.336,1.306,4.47,1.113,6.979c-0.21,2.73-1.943,4.387-1.574,7.498c0.477,4.029,4.294,10.092,7.666,11.323
		c3.485,1.273,8.27,3.384,12.422,2.644c2.942-0.523,1.047,6.049,4.792,8.787s8.147-0.606,11.506-3.99
		c3.05-3.072,20.054-5.555,24.038-7.379c9.539-4.365,12.076-8.387,21.688-11.889c27.927-10.172,59.625-9.083,88.945-13.697
		c3.866-0.607,10.491,1.869,13.195-2.1c2.13-3.126-0.71-19.571-1.361-22.719c-0.286-1.379,0.001-4.977-0.989-6.182
		c-1.611-1.959-4.083-0.107-5.381-1.433c-2.574-2.629-0.754-7.785-3.602-9.717c-2.14-1.451-7.719,0.323-8.752,2.661
		c-1.139,2.575,3.179,6.467,0.912,8.161C233.808,196.862,234.582,180.05,233.542,179.164z"/>
	<path fill="#85A1BA" d="M500.909,179.288c-0.199,2.411-0.801,4.44-0.688,6.974c5.812-0.48,2.166,5.644,2.623,9.142
		c2.506-1.115,1.229-21.416,9.084-14.749c1.586,1.345-0.032,3.685,0.399,4.556c-0.099-0.202-0.907,1.513-0.724,2.084
		c0.359,1.127,2.592,0.429,2.713,0.952c0.943,4.065-0.16,5.849-0.193,9.971c7.098,2.396,2.158-9.577,10.359-8.571
		c-2.193-9.15,12.396-7.401,4.906,1.387c6.041,0.061,3.24,5.148,2.068,8.494c9.573,4.043,3.451-9.309,10.25-6.166
		c1.219-7.367,10.982-0.531,4.342,1.553c-0.107-0.166-0.148,1.727-0.065,1.592c0.794,0.242,1.378,0.6,2.152,0.893
		c-1.061,4.67,2.655,7.258,6.95,6.684c-1.588-9.448,9.293-7.957,7.875-2.689c-1.445,0.83-1.316,1.616-2.318,2.854
		c6.854,5.718,5.789-4.574,7.971-7.314c4.713-5.915,12.854,0.844,3.512,5.055c1.475,2.316,2.686,7.846,5,7.892
		c6.008,0.116,2.786-7.726,4.584-10.614c1.135-1.824,2.902-5.557,5.439-3.257c4.867,4.415,0.953,5.442-0.268,7.663
		c3.08,2.51,1.082,6.771,2.814,8.518c3.027,3.053,6.15-0.396,7.145-3.199c-4.976-1.933,0.197-8.521,4.004-7.764
		c6.185,1.23,1.957,5.279-0.252,7.676c3.193-0.04,3.555,2.838,2.624,5.537c-2.39,0.555-1.64,0.943-2.95,2.828
		c5.604,2.99,8.893-5.061,12.265-7.157c-5.665-6.2,8.623-9.011,4.211,0.067c5.531,2.154,1.882,6.381,3.747,9.31
		c0.635-0.267,1.041-0.487,1.722-0.692c1.019-2.709,0.226-6.225,2.237-8.199c2.381-2.338,6.967-2.396,7.159,1.49
		c0.119,2.414-5.171,4.189-5.157,6.357c0.018,2.811,4.689,4.674,6.467,6.078c0.424-2.383,3.141-4.844,5.664-3.336
		c1.6,0.955,1.834,6.927,1.769,8.539c-4.144,1.379,3.13,6.725,3.277,10.43c0.405,10.176-12.224,18.574-19.956,16.645
		c-11.012-2.748-7.147,3.777-15.975-0.725c-5.442-2.775-17.721-7.592-23.163-10.92c-5.401-3.305-21.952-8.441-27.956-10.317
		c-13.414-4.192-26.703-10.251-40.574-12.792c-5.276-0.967-9.775,0.348-14.938-0.089c-6.149-0.52-12.177-3.853-18.138-5.366
		c-4.873-1.238-9.973-3.197-15.041-3.998c-4.999-0.791-10.075,0.141-14.727-2.268c3.106-9.876,9.602-20.304,21.582-19.787
		c-1.703-3.761-0.955-9.511,4.333-9.094c4.228,0.333,8.351,5.517,3.935,9.002c2.42,5.41,3.261,0.132,5.043-0.632
		c-0.285,0.123,5.855-5.063,5.79-3.294c0.065-1.763-0.015-6.005,1.454-7.405C496.054,178.389,501.183,175.994,500.909,179.288z"/>
</g>
<g>
	<path fill="#6C94B2" d="M476.179,199.218c6.393-5.436,6.945,3.822,5.859,7.522c1.426,0.062,5.588,2.851,6.301,2.536
		c2.532-1.121-0.088-4.369,1.801-6.355c4.768-5.014,8.812,0.344,7.42,5.244c1.395,0.248,2.443,1.521,3.838,1.768
		c-0.292,1.346,0.174,3.107-0.339,4.467c2.196-2.498,3.874-7.334,7.51-3.979c-0.829-4.392,1.192-8.083,6.216-7.803
		c8.914,0.499,2.713,4.728,1.486,8.515c-0.248,0.188-0.262,0.176-0.043-0.035c5.188-3.509,3.9,5.014,4.426,7.678
		c3.061-1.92,2.461-7.014,6.966-6.002c-0.44-1.197,0.142-2.17-0.702-3.436c1.623-1.389,5.531-4.055,7.479-2.023
		c2.13,2.22-1.434,4.777-1.934,7.113c6.676-0.864,4.768,4.328,4.592,8.848c2.361,0.615,4.826,0.012,7.086-0.543
		c-0.541-3.426-2.615-6.826,2.566-7.525c5.498-0.742,7.223,4.721,3.016,7.695c0.738,3.456,3.943,4.443,7.266,4.027
		c0.026-3.277,0.852-7.414,4.831-6.518c0.186,0.254,0.175,0.264-0.033,0.028c-2.595-3.147,2.912-7.61,6.136-6.271
		c3.268,1.358,2.647,7.251,0.012,8.438c2.023,2.309,1.877,5.425,1.5,8.473c0.76,0.734,2.293,1.412,3.262,1.519
		c4.539-6.177,11.422-4.82,7.131,3.07c4.986,2.063,4.789-2.489,5.986-5.896c3.659,1.093,8.135,5.325,3.363,8.538
		c1.205,0.502,3.33,0.59,4.619,0.46c1.422-2.562,0.809-5.357,0.937-8.156c5.245-0.657,11.349,4.532,5.093,8.202
		c1.877,1.049,3.736,2.866,3.912,5.102c4.307-0.248,4.348-5.187,3.783-8.479c2.033-0.294,3.381-0.549,5.119,0.897
		c-0.096-1,0.594-2.389,0.527-3.412c2.337-0.506,8.086-1.111,9.543,1.838c1.543,3.12-2.643,5.109-4.492,6.968
		c1.254,2.501,2.672,5.214,1.105,7.694c0.99-2.846,3.221-4.654,6.377-4.086c-3.33-5.746,5.934-9.25,7.541-2.816
		c0.586,2.336-1.305,4.471-1.113,6.98c0.211,2.729,1.943,4.385,1.575,7.497c-0.478,4.029-4.294,10.092-7.667,11.323
		c-3.484,1.273-2.338-0.479-6.49-1.218c-2.943-0.524-0.387,3.235-4.133,5.974c-3.744,2.738-13.186-0.359-16.543-3.744
		c-3.051-3.072-11.254-12.91-15.238-14.734c-9.539-4.366-11.217-7.865-20.828-11.365c-24.176-8.807-51.688-12.49-77.238-17.46
		c-4.334-0.843-11.932-1.085-14.673-5.39c-2.804-4.403-1.073-10.749,0.954-10.69c2.846,0.082,3.258,0.438,3.891-3.376
		C476.183,203.63,473.188,201.762,476.179,199.218z"/>
	<path fill="#6C94B2" d="M232.125,202.443c0.2,2.411,0.802,4.44,0.688,6.974c-5.812-0.48-2.167,5.645-2.623,9.143
		c-2.507-1.115-1.229-21.416-9.084-14.749c-1.586,1.345,0.032,3.685-0.4,4.556c0.1-0.202,0.908,1.513,0.725,2.084
		c-0.36,1.128-2.592,0.43-2.713,0.952c-0.943,4.065,0.16,5.849,0.192,9.972c-7.097,2.396-2.158-9.576-10.359-8.571
		c2.194-9.149-12.396-7.401-4.905,1.388c-6.042,0.061-3.24,5.147-2.068,8.493c-9.573,4.044-3.451-9.308-10.25-6.166
		c-1.219-7.366-10.983-0.531-4.343,1.554c0.108-0.166,0.148,1.727,0.065,1.591c-0.794,0.243-1.377,0.6-2.152,0.894
		c1.062,4.67-2.654,7.257-6.949,6.684c1.588-9.449-9.293-7.957-7.876-2.689c1.446,0.83,1.316,1.615,2.319,2.854
		c-6.854,5.717-5.789-4.574-7.972-7.314c-4.713-5.916-12.854,0.844-3.512,5.055c-1.474,2.316-2.685,7.846-5,7.891
		c-6.008,0.117-2.786-7.726-4.584-10.613c-1.135-1.824-2.901-5.558-5.438-3.258c-4.868,4.416-0.954,5.443,0.267,7.664
		c-3.079,2.51-1.083,6.771-2.814,8.518c-3.026,3.053-6.15-0.397-7.145-3.199c4.977-1.934-0.196-8.521-4.004-7.764
		c-6.184,1.23-1.956,5.279,0.253,7.676c-3.193-0.04-3.556,2.837-2.624,5.536c0,0-1.539,1.53-0.228,3.417
		c-5.604,2.988-5.716-5.648-9.087-7.746c5.665-6.199-8.624-9.01-4.211,0.068c-5.532,2.154-1.882,6.381-3.747,9.309
		c-0.635-0.266-1.041-0.486-1.722-0.691c-1.019-2.709-0.227-6.226-2.237-8.199c-2.381-2.338-6.967-2.397-7.159,1.49
		c-0.12,2.414,1.044,5.999,4.059,7.507c-2.355,0.659-3.591,3.524-5.368,4.929c-0.425-2.384-3.142-4.844-5.665-3.336
		c-1.6,0.954-2.628,4.342-0.932,6.51c-2.178,1.079-0.93,11.198,1.552,13.955c2.688,2.986,14.579,10.406,22.311,8.477
		c11.012-2.748,14.491-12.805,23.317-17.307c5.443-2.775,10.275-4.104,15.719-7.432c5.401-3.305,12.395-6.037,18.398-7.914
		c16.46-5.145,33.556-10.184,50.928-10.357c6.408-0.062,16.222,2.021,20.036-4.751c2.878-5.114,0.346-16.36-6.59-15.843
		c-0.065-1.761,0.017-6.008-1.453-7.41C236.981,201.545,231.853,199.149,232.125,202.443z"/>
</g>
<g>
	<rect x="319.147" y="179.494" fill="#6185A6" width="82.08" height="57.679"/>
	<path fill="#EBDB8A" d="M342.442,236.202c-19.705,16.039-65.569,5.629-65.569,5.629V143.55h82.805
		C359.678,143.55,369.525,214.159,342.442,236.202z"/>
	<path fill="#EBDB8A" d="M377.933,236.202c19.706,16.039,65.57,5.629,65.57,5.629V143.55h-82.805
		C360.698,143.55,350.851,214.159,377.933,236.202z"/>
	<path fill="#D56E4F" d="M359.999,118.724c-64.964,0-117.629,32.407-117.629,45.965c0,2.315,1.538,7.863,4.409,9.986
		c0.058-0.008,0.123,8.66,0.182,8.652v55.3l47.238-4.572c0-31.576,0-66.946,0-67.705c0-7.735,27.427-19.178,64.491-19.178
		s67.109,11.443,67.109,19.178c0,0.758,0,36.128,0,67.705l47.238,4.572v-55.347c0.057,0.024,0.127-8.63,0.182-8.605
		c2.871-2.124,4.41-7.671,4.41-9.986C477.63,151.131,424.964,118.724,359.999,118.724z"/>
	<ellipse fill="#D56E4F" cx="360" cy="143.55" rx="34.269" ry="13.5"/>
	<path fill="#EBDB8A" d="M470.308,131.868c-6.455,0.296-13.146,1.168-19.015-1.861c-4.95-2.555-11.092-10.373-17.065-12.453
		c-7.506-2.614-14.434,1.013-21.807,1.424c-8.297,0.463-12.266-16.472-23.475-19.814c-7.791-2.322-14.031-2.732-18.685-1.2
		c0.128-0.738,0.407-1.493,1.028-2.254c1.959-2.4,4.732-1.125,7.275-2.149c-0.555-5.232-10.057-6.112-18.566-5.626
		c-8.51-0.486-18.01,0.394-18.565,5.626c2.542,1.024,5.317-0.251,7.274,2.149c0.622,0.762,0.902,1.516,1.029,2.254
		c-4.652-1.533-10.893-1.123-18.684,1.2c-11.209,3.342-15.18,20.277-23.475,19.814c-7.375-0.411-14.302-4.038-21.807-1.424
		c-5.974,2.08-12.115,9.897-17.065,12.453c-5.869,3.029-12.56,2.157-19.015,1.861c-13.321-0.61-29.202,3.331-29.202,17.232
		c0,4.415,2.667,11.573,11.091,10.512c-4.824-5.236,4.953-8.012,8.472-4.046c3.606,4.063-1.505,13.405,1.756,17.073
		c8.012,9.01,21.979-1.447,28.981-7.6c7.417-6.513,17.532-21.49,31.971-21.49c16.912,0,26.492-12.471,37.006-13.5
		c6.014-0.588,12.383-1.582,16.664-5.697c1.105,2.268,2.752,2.776,5.236,2.776c1.855,0,3.207-1.065,4.209-2.776
		c3.342,3.769,8.482,5.122,14.357,5.697c10.43,1.021,20.072,13.337,36.703,13.337c14.554,0,24.797,15.088,32.272,21.653
		c7.005,6.152,20.97,16.61,28.981,7.6c3.262-3.668-1.85-11.526,1.757-15.589c3.519-3.966,13.296-2.674,8.472,2.562
		c8.707,1.061,11.09-6.097,11.09-10.512C499.509,136.097,483.63,131.257,470.308,131.868z"/>
	<path fill="#D56E4F" d="M294.199,217.784c-102.019,5.986-176.815,25.545-176.815,48.75c0,2.211,0,11.574,0,15.576
		c0,2.912,5.915-4.15,9.095-1.797c22.851-16.904,86.7-30.219,167.721-34.975V217.784z"/>
	<g>
		<path fill="#D56E4F" d="M425.8,217.784v27.555c81.021,4.756,144.871,18.07,167.721,34.975c3.453-2.555,9.095,4.887,9.095,1.797
			c0-4.906,0-13.584,0-15.576C602.615,243.329,527.819,223.771,425.8,217.784z"/>
	</g>
	<ellipse fill="#BBCBD9" cx="360" cy="282.11" rx="242.616" ry="50.637"/>
	<path fill="#D56E4F" d="M359.999,318.398c-133.991,0-242.615-22.671-242.615-50.638c0,4.776,0,10.799,0,15.576
		c0,27.966,108.624,50.637,242.615,50.637c133.993,0,242.616-22.671,242.616-50.637c0-4.777,0-10.8,0-15.576
		C602.615,295.728,493.992,318.398,359.999,318.398z"/>
</g>
<g>
	<path fill="#C83B0C" d="M203.957,291.165c-0.803,1.563-1.838,3.099-3.641,1.955c-1.596-1.01-1.351-2.742-1.595-4.328
		c-0.313-2.031-0.907-3.517-2.161-3.678c-1.691-0.219-1.591,2.846-2.878,2.797c-1.025-0.036-1.277-1.344-1.443-2.523
		c-0.171-1.279,0.328-2.938,0.819-3.947c1.079-2.213,3.024-3.065,5.229-2.508C203.057,280.134,206.26,286.69,203.957,291.165z"/>
	<path fill="#C83B0C" d="M76.282,301.313c1.066,1.396,2.363,2.72,3.93,1.271c1.389-1.278,0.837-2.938,0.794-4.542
		c-0.057-2.055,0.261-3.623,1.467-4.006c1.623-0.52,2.076,2.514,3.332,2.234c1.001-0.22,1.018-1.551,0.968-2.74
		c-0.061-1.29-0.85-2.832-1.515-3.736c-1.458-1.984-3.524-2.475-5.593-1.531C75.188,290.3,73.214,297.325,76.282,301.313z"/>
	<path fill="#C83B0C" d="M120.475,371.696c1.908,0.318,6.312,0.93,7.914-0.037c3.452-2.086-2.058-4.562-4.858-5.468
		C116.345,363.866,111.959,370.267,120.475,371.696z"/>
	<path fill="#C83B0C" d="M159.382,367.974c1.925,0.197,6.359,0.537,7.896-0.53c3.315-2.291-2.336-4.422-5.188-5.153
		C154.773,360.415,150.794,367.073,159.382,367.974z"/>
	<g>
		<g>
			<path fill="#C83B0C" d="M129.723,306.982c-6.172,0-18.583-0.547-24.824-4.62c0.2,20.458,4.785,41.997,11.803,61.926l6.932-0.156
				c4.214-19.787,7.606-31.853,15.076-42.305c7.029,8.447,11.736,21.342,16.889,38.85l7.597-0.286
				c4.112-21.492,9.052-45.056,9.238-62.305C165.225,303.688,145.892,306.982,129.723,306.982z"/>
		</g>
	</g>
	<g>
		<path fill="#C83B0C" d="M168.296,177.177c0.468,0.592,0.911,1.226,1.324,1.914c7.259,12.17,3.785,31.895,3.785,31.895
			l-1.594-1.812l-2.571,5.041l-0.529-0.604c1.39-4.414,2.288-9.545,2.367-15.379c0.114-8.296-2.559-15.985-7.298-22.001
			C165.398,176.52,166.93,176.847,168.296,177.177z"/>
	</g>
	<path fill="#C83B0C" d="M148.999,174.744c-6.879,1.429-11.77,9.053-13.301,12.554c-0.882,2.004-3.113,5.625-4.363,14.926
		c-0.934,6.951-1.228,21.191-1.25,21.33c-1.839-0.377-5.271-3.383-5.271-3.383l-1.786,9.32l-6.968-7.144l-1.093,4.925
		c0,0-7.551-15.486-8.199-28.543c-0.611-12.4,5.335-22.344,10.715-27.197c4.465-4.025,9.138-6.869,15.825-7.833
		c7.4-1.067,13.615,0.479,22.155,1.639c6.803,0.925,20.087,0.813,20.087,0.813l-9.713,4.979l8.981,6.733
		C174.818,177.864,159.477,172.563,148.999,174.744z"/>
	<g>
		<path fill="#C83B0C" d="M131.18,223.733l-0.185,1.141l-1.133-0.232c-0.236-0.048-0.493-0.127-0.766-0.235
			c-1.136-0.451-2.514-1.415-3.539-2.202l-0.075,0.385c9.657,7.265,21.453,9.72,26.984,9.176c5.774-0.568,17.2-11.996,17.502-33.549
			c0.124-9.032-2.959-16.613-7.789-22.252c-4.283-0.661-8.999-0.955-12.957-0.133c-6.578,1.368-11.258,9.064-12.511,11.913
			c-0.124,0.281-0.271,0.596-0.444,0.95c-1.039,2.176-2.78,5.818-3.833,13.676c-0.528,3.941-0.937,10.808-1.215,20.412
			C131.196,223.64,131.196,223.64,131.18,223.733z M165.198,201.774c-0.972,0.115-1.971-1.539-2.233-3.699
			c-0.26-2.162,0.318-4.01,1.29-4.127c0.973-0.115,1.972,1.541,2.232,3.701C166.749,199.812,166.163,201.656,165.198,201.774z
			 M151.064,196.349c1.104-0.13,2.209,1.477,2.463,3.596c0.257,2.117-0.435,3.938-1.536,4.072c-1.11,0.133-2.211-1.477-2.47-3.592
			C149.271,198.308,149.964,196.483,151.064,196.349z"/>
		<g>
			<path fill="#C83B0C" d="M190.707,278.924l6.881-2.525c-10.195-25.776-20.729-41.181-35.767-49.888
				c-3.21,3.871-6.658,5.993-9.257,6.25c-0.522,0.051-1.096,0.077-1.703,0.077c-5.741,0-14.394-2.167-22.223-6.918
				c-1.236,0.339-2.501,0.688-3.839,1.059c-17.053,4.723-38.194,32.831-45.202,57.911l7.945,2.928
				c9.164-21.783,24.761-34.342,24.761-34.342s-12.167,28.129-10.125,43.536c2.083,15.711,74.909,8.583,72.117-4.521
				c-5.001-23.463-4.249-41.049-4.249-41.049S180.562,259.124,190.707,278.924z"/>
		</g>
	</g>
</g>
</svg>
