<?xml version="1.0" encoding="utf-8"?>
<!-- Generator: Adobe Illustrator 15.0.2, SVG Export Plug-In . SVG Version: 6.00 Build 0)  -->
<!DOCTYPE svg PUBLIC "-//W3C//DTD SVG 1.1//EN" "http://www.w3.org/Graphics/SVG/1.1/DTD/svg11.dtd">
<svg version="1.1" id="Layer_1" xmlns="http://www.w3.org/2000/svg" xmlns:xlink="http://www.w3.org/1999/xlink" x="0px" y="0px"
	 width="720px" height="460px" viewBox="0 0 720 460" enable-background="new 0 0 720 460" xml:space="preserve">
<ellipse fill="#EBE9E0" cx="360" cy="342.665" rx="254.812" ry="73.883"/>
<g>
	<polygon fill="#D9D7D0" points="500.812,287.583 107.775,346.277 107.775,43.452 500.15,68.648 	"/>
	<polygon fill="#B84526" points="489.366,290.479 151.062,342.665 151.062,83.036 489.366,99.776 	"/>
	<polygon fill="#971B00" points="141.736,339.786 151.062,342.665 151.062,83.036 141.736,88.181 	"/>
	<polygon fill="#6CB3A6" points="392.59,293.521 166.266,324.589 166.266,97.69 392.59,107.038 	"/>
	<g>
		<path fill="#60A798" d="M392.59,293.521l-226.324,31.068c0.896-0.123,0-40.305,0-42.71c0-14.573,0-29.146,0-43.72
			c0-8.334,0.006-16.67,0-25.005c-0.006-7.321-0.841-10.067,7.105-10.581c9.328-0.605,4.796-2.15,8.512-9.599
			c2.638-5.279,10.107-6.956,15.395-7.426c8.254-0.736,16.157,2.299,20.771,9.361c2.425,3.713,1.919,5.426,5.911,6.918
			c0.854,0.318,9.75-0.136,9.859,0.766c-0.035-2.984-1.744-15.595,0.105-17.61c2.817-3.072,13.432,0.392,17.073,0.908
			c8.198,1.163,16.032,0.754,24.412,0.332c0.397-7.945-0.763-14.533,8.38-16.777c-10.966-11.048-13.534-31.291,6.139-34.038
			c23.875-3.335,17.586,18.883,14.005,33.499c8.347-2.183,11.653-1.092,13.356,6.789c1.271,5.885,3.025,12.244,3.197,18.129
			c2.828,0.134,5.398-0.228,8.133-0.761c0.623-4.392-1.894-7.416-1.273-11.914c2.305-0.883,4.812-1.228,7.389-1.044
			c-8.619-9.007-10.632-31.578,7.109-32.554c17.326-0.952,8.889,24.367,5.211,32.551c6.627-1.013,3.553,5.186,4.656,9.104
			c1.5,5.328,2.387,5.207,7.428,6.252c9.531,1.978,33.379,0.506,33.379,12.833c0,9.398,0.072,42.322,0.072,53.07
			C392.59,272.082,392.59,282.802,392.59,293.521z"/>
	</g>
	<polygon fill="#A63B24" points="384.986,288.198 166.266,314.995 166.266,269.955 370.807,252.261 384.609,254.858 	"/>
	<polygon fill="#971B00" points="166.266,97.69 166.266,102.801 382.328,111.907 382.328,284.399 166.266,312.919 166.266,324.589 
		392.59,293.521 392.59,107.038 	"/>
	<polygon fill="#6CB3A6" points="405.43,288.198 480.767,280.762 480.767,110.078 405.43,107.727 	"/>
	<path fill="#60A798" d="M405.43,288.198c0.004,0,75.337-7.437,75.337-7.437c0-12.885,0-25.77,0-38.655c0-11.469,0-59.865,0-59.865
		s-19.058-2.739-27.636-4.216c-8.895-1.53-14.598,0.944-23.23,2.863c-7.166,1.591-11.488,2.352-14.822,9.25
		c-1.633,3.378-1.541,8.233-4.307,10.965c-1.418,1.401-4.344,0.865-5.285,2.257c-1.088,1.613-0.059,7.271-0.057,9.257
		c0.006,12.546,0,25.092,0,37.638C405.43,252.364,406.004,288.142,405.43,288.198z"/>
	<polygon fill="#75B8AB" points="405.43,197.358 480.767,161.441 480.767,135.786 405.43,172.273 	"/>
	<polygon fill="#75B8AB" points="405.43,213.322 480.767,175.124 480.767,166.572 405.43,203.06 	"/>
	<polygon fill="#971B00" points="405.43,107.727 405.43,109.736 477.347,112.225 477.347,277.081 405.43,286.493 405.43,291.313 
		480.767,280.762 480.767,110.078 	"/>
	<path fill="#971B00" d="M416.113,209.095c0.01,2.509-1.48,2.979-8.357,3.426c-6.541,0.424-8.373-0.689-8.383-3.198
		c-0.008-2.51,2.674-3.813,8.361-3.526C414.346,206.13,416.107,206.585,416.113,209.095z"/>
	<g>
		<path fill="#C5B89D" d="M189.951,273.534c0,0.549-2.673,0.703-2.673,0s0-50.431,0-50.431h2.673
			C189.951,223.104,189.951,272.985,189.951,273.534z"/>
		<ellipse fill="#5FB8AC" cx="187.914" cy="213.036" rx="11.713" ry="12.127"/>
		<ellipse fill="#90D3CC" cx="189.18" cy="213.036" rx="11.713" ry="12.127"/>
		<g>
			<path fill="#A7AD4E" d="M183.379,223.562c1.71,1.014,3.688,1.602,5.802,1.602c0.227,0,0.45-0.022,0.677-0.035
				c3.45-3.697,2.156-9.357,0.284-12.092C190.122,214.283,188.527,222.506,183.379,223.562z"/>
			<path fill="#A7AD4E" d="M192.951,207.226c-1.705,2.024-2.818,5.805-2.81,5.811c2.177-2.369,6.56-6.057,9.633-5.125
				c-0.539-1.199-1.274-2.273-2.145-3.219C197.327,204.692,194.653,205.206,192.951,207.226z"/>
			<path fill="#A7AD4E" d="M190.142,213.036c4.313,0.439,8.112,3.488,8.411,7.25c1.466-2.021,2.34-4.527,2.34-7.25
				c0-0.309-0.035-0.605-0.057-0.908C198.448,209.692,193.427,211.26,190.142,213.036z"/>
			<path fill="#A7AD4E" d="M177.524,213.894c0.122,1.792,0.634,3.464,1.421,4.956c5.114,0.628,10.069-3.399,11.196-5.813
				C186.337,215.169,181.939,214.981,177.524,213.894z"/>
			<path fill="#A7AD4E" d="M190.142,213.036c-3.105-0.831-6.569-6.365-7.907-9.743c-1.61,1.229-2.89,2.883-3.722,4.791
				C182.782,212.404,190.107,213.173,190.142,213.036z"/>
			<path fill="#A7AD4E" d="M190.142,213.036c-0.19-4.427,2.01-8.926,5.131-10.343c-1.777-1.124-3.858-1.784-6.092-1.784
				c-0.153,0-0.303,0.018-0.455,0.023C188.11,203.866,187.914,208.491,190.142,213.036z"/>
		</g>
	</g>
	<g>
		<path fill="#D1C5AA" d="M273.977,250.53c0,14.264-20.542,29.24-45.886,29.24s-45.888-14.977-45.888-29.24
			c0-5.619,20.544-10.03,45.888-10.03S273.977,245.479,273.977,250.53z"/>
		<ellipse fill="#BCAD8D" cx="228.09" cy="250.53" rx="40.338" ry="7.896"/>
		<path fill="#99A031" d="M216.21,255.312c3.068-2.168,9.346-3.416,9.164,2.092c1.506-0.811,3.268-1.312,4.787-2.126
			c0.654,1.854,0.339,4.626,0.234,6.665c-1.886,0.224-4.115-1.229-5.586-2.199c-1.83,2.559-8.881,1.727-9.21-1.984
			c-1.747,0.098-3.727,0.69-5.324,1.344c-0.271,0.113,0.126-4.212,1.357-4.854C213.12,253.476,214.83,254.714,216.21,255.312z"/>
		<path fill="#99A031" d="M194.562,251.827c3.07-2.168,9.349-3.414,9.166,2.092c1.504-0.81,3.267-1.311,4.786-2.126
			c0.653,1.855,0.338,4.625,0.235,6.664c-1.886,0.226-4.118-1.228-5.589-2.198c-1.828,2.561-8.88,1.727-9.207-1.984
			c-1.748,0.098-3.727,0.691-5.325,1.344c-0.271,0.113,0.125-4.211,1.358-4.853C191.472,249.99,193.185,251.229,194.562,251.827z"/>
		<path fill="#4AA191" d="M247.798,247.757c2.073-0.008,3.987-0.455,5.933-0.525c0.042,1.054-0.336,1.996-0.987,2.823
			c1.546-0.431,3.559-0.629,4.175,1.117c0.836,2.364-1.92,2.677-2.241,4.22c0.79,0.395,1.639,1.051,2.198,1.699
			c-2.101,0.55-4.488,0.688-6.756,0.582c-0.131-1.001,0.225-1.789,0.994-2.468c-2.409-0.138-4.441-3.242-1.066-4.09
			c-0.75-0.791-1.757-1.722-2.249-2.79V247.757z"/>
		<path fill="#C22D00" d="M228.632,250.869c-0.298-0.602-0.277-1.565-0.544-2.127c1.892-0.093,6.203,0.682,5.312-2.554
			c-0.226-0.128-0.473-0.197-0.703-0.334c0.921-0.146,1.771-0.474,2.653-0.624c-1.498-1.091-2.952-2.065-4.702-2.684
			c0.13,0.61-0.19,1.416-0.023,2.063c-3.083-1.639-4.994,1.049-3.465,3.744c-0.093-0.165-2.398,0.374-2.659,0.428
			C225.573,249.777,227.213,250.337,228.632,250.869z"/>
		<path fill="#E1CC6C" d="M204.94,252.878c0.856,0.251,1.795,0.468,2.704,0.626c-1.284,1.065-3.465,2.366-5.108,2.753
			c0.021-0.549-0.451-1.482-0.313-2.195c-0.103,0.531-6.423-3.252-1.243-4.121c-2.811-1.414,0.677-3.098,2.297-3.193
			c-0.14,0.553,0.166,1.395-0.017,1.988C206.175,247.673,207.394,251.396,204.94,252.878z"/>
		<path fill="#44658B" d="M220.166,244.683c-0.755,0.75-1.799,1.525-2.498,2.439c4.796,0.98,1.988,3.758-1.436,4.113
			c0.81,0.559,1.857,1.211,2.219,2.163c-2.596,0.133-5.548-0.136-7.83-1.089c0.825-0.252,1.789-0.779,2.436-1.074
			c-1.724-0.041-2.891-1.557-2.771-3.145c1.492-0.675,3.035-1.049,4.7-0.947c-0.677-0.789-1.331-1.594-1.754-2.502
			C214.719,243.923,219.282,245.562,220.166,244.683z"/>
		<path fill="#E1CC6C" d="M240.633,250.651c-0.273-0.121-0.45-0.201-0.702-0.35c0.99,0.053,1.747-0.132,2.653-0.325
			c-1.397-1.126-3.244-2.398-4.981-2.753c0.131,0.648-0.197,1.535-0.094,2.195c-1.783-0.432-7.28,0.606-3.52,2.781
			c-0.233,0.218-0.438,0.369-0.651,0.588c0.578,1.171,1.654,1.916,2.936,2.252c-0.061-0.355-0.003-0.812-0.044-1.193
			C236.852,253.841,242.496,251.466,240.633,250.651z"/>
		<path fill="#E1CC6C" d="M211.626,255.431c-0.273-0.12-0.449-0.201-0.702-0.348c0.991,0.051,1.746-0.134,2.654-0.328
			c-1.399-1.125-3.244-2.398-4.981-2.752c0.131,0.65-0.197,1.535-0.097,2.196c-1.781-0.433-7.279,0.606-3.517,2.78
			c-0.234,0.218-0.439,0.371-0.651,0.588c0.578,1.171,1.652,1.916,2.936,2.252c-0.059-0.354-0.004-0.812-0.046-1.193
			C207.846,258.62,213.488,256.245,211.626,255.431z"/>
		<path fill="#E1CC6C" d="M261.776,254.559c-0.271-0.12-0.448-0.2-0.701-0.349c0.99,0.053,1.746-0.133,2.652-0.326
			c-1.396-1.127-3.243-2.398-4.979-2.753c0.129,0.649-0.197,1.536-0.096,2.196c-1.782-0.432-7.28,0.605-3.519,2.781
			c-0.232,0.217-0.438,0.369-0.651,0.588c0.578,1.17,1.654,1.914,2.936,2.251c-0.06-0.354-0.001-0.812-0.044-1.193
			C257.996,257.749,263.641,255.373,261.776,254.559z"/>
		<path fill="#4AA191" d="M216.746,250.466c1.706-4.052,5.269-1.45,7.401,0.298c0.594-1.128,1.708-1.944,2.843-2.22
			c1.253,1.518,3.338,3.32,2.867,5.612c-1.356,0.178-2.696-0.201-3.896-0.78c0.074,2.231-2.415,3.084-4.249,3.321
			c-2.59,0.337-3.464-0.594-4.96-2.454c-1.008,0.198-1.954,0.805-2.676,1.52c-0.32-1.859-0.056-3.832-0.284-5.711
			C214.021,249.987,216.938,250.011,216.746,250.466z"/>
		<path fill="#6C94B2" d="M242.81,245.151c0.03,0.962,0.157,1.87,0.396,2.792c2.282-2.617,7.702-0.552,5.096,3.103
			c1.04,0.15,2.101-0.034,3.072-0.171c-1.376,1.681-3.53,3.048-4.524,5.036c-0.783-0.669-1.228-1.713-1.47-2.781
			c-1.762,0.688-6.889,1.764-6.163-1.979c0.521-0.105,1.076-0.521,1.562-0.556c-1.101-0.149-2.204-0.511-3.195-0.995
			C238.438,248.771,242.855,246.742,242.81,245.151z"/>
		<path fill="#D35623" d="M194.347,245.515c1.126,0.512,1.405,1.901,1.723,3.074c1.321-2.732,7.777-1.02,5.941,2.823
			c1.475-0.501,3.065-0.846,4.475-1.06c-0.235,2.332-3.166,3.788-3.144,6.203c-2.35-2.829-0.453-2.776-4.49-2.254
			c-2.338,0.303-4.67-0.303-4.313-3.074c-0.008,0.074-3.483,0.406-3.825,0.455C191.722,249.563,193.258,247.644,194.347,245.515z"/>
		<path fill="#C7A53A" d="M234.776,255.117c0.771-3.341,6.726-3.917,6.942-0.023c1.243-0.323,2.682-1.05,3.885-1.642
			c0.154,2.308,0.135,4.744,0.018,7.057c-1.151-0.471-2.17-1.441-3.09-2.275c-2.001,2.18-7.49,3.744-8.027-0.511
			c-1.118,1.038-2.221,2.509-3.632,2.999c-0.021-2.76,1.547-5.117,0.715-8.01C232.065,252.894,234.932,254.445,234.776,255.117z"/>
		<path fill="#69C4BA" d="M202.542,249.926c0.322-0.761,1.041-1.154,1.487-1.843c2.046,0.939,7.324,2.012,7.954-1.075
			c1.621,0.222,2.972,1.146,4.483,1.259c-1.095-2.061-1.691-4.442-3.443-6.096c-1.262,0.89-1.902,2.314-2.996,3.279
			c-2.113-3.279-6.126-2.871-6.331,1.062c-0.871-0.692-1.917-1.445-2.893-1.65C200.984,245.9,202.855,249.184,202.542,249.926z"/>
		<path fill="#D8642E" d="M259.993,255.112c-0.466-0.771-0.579-1.679-0.774-2.469c2.02,0.132,5.062-1.9,3.192-4.047
			c1.029,0.022,2.062-0.27,2.913-0.84c-2.157-0.991-4.416-3.279-6.669-3.656c-0.119,0.952-0.043,1.95,0.207,2.754
			c-1.142,0.375-3.652-0.161-4.176,1.25c-0.456,1.223,1.478,2.547,2.064,3.281c-0.966,0.207-1.992,0.38-2.906,0.641
			C255.687,253.335,258.119,253.728,259.993,255.112z"/>
		<path fill="#6185A6" d="M225.294,258.561c2.024-2.327,3.096-2.591,3.096-2.591c3.358,0.749,5.669-0.672,4.595-2.783
			c1.703-0.265,4.264,0.355,5.591,0.355c-2.706-0.912-4.444-3.611-6.753-5.161c-0.301,1.171,0.208,2.235-0.667,3.08
			c-3.973-2.228-6.894-0.975-4.911,2.844c-1.013-0.423-2.02-0.196-3.075-0.468C223.297,254.493,225.519,258.303,225.294,258.561z"/>
		<path fill="#D6C9AC" d="M206.771,247.806c0.508,0.947,1.364,1.76,1.813,2.752c2.603-1.224,8.012-1.41,5.258,3.139
			c0.746-0.492,2.351-1.119,3.472-1.336c-0.802,1.947-1.477,4.211-2.015,6.172c-1.257-0.624-1.396-2.174-2.426-3.057
			c-1.737,2.172-8.585,0.804-5.53-1.672c-1.632-0.71-3.901-0.227-5.552,0.107C201.668,252.501,205.803,246.005,206.771,247.806z"/>
		<path fill="#AAB036" d="M238.649,253.12c-0.177-0.492,0.014-1.405-0.206-1.906c2.11-0.076,7.265-3.244,2.91-4.02
			c0.886-0.578,1.922-0.933,2.725-1.351c-2.102-0.804-4.098-1.616-5.898-2.896c-0.174,1.297,0.308,2.4,0.46,3.642
			c-5.219-1.99-5.651,0.118-2.815,3.75c-0.217-0.277-3.41,1.711-3.658,1.927C234.384,252.117,236.433,253.11,238.649,253.12z"/>
		<path fill="#CD4917" d="M220.104,244.601c1.77,2.668,2.495-0.889,4.545-1.097c3.344-0.336,2.424,2.764,3.195,4.81
			c1.049-0.594,2.516-0.912,3.605-1.073c-1.076,1.695-2.514,3.228-2.566,5.349c-0.953-0.262-1.717-0.987-2.013-1.933
			c-1.864,0.714-3.426,0.675-5.147-0.309c-0.852-0.487-0.536-1.404-1.896-1.735c-1.015-0.248-2.349,0.234-3.318,0.469
			C217.178,247.65,218.928,245.771,220.104,244.601z"/>
		<path fill="#334F72" d="M244.909,259.671c-0.625-3.154,2.215-1.781,4.026-2.461c1.34-0.504,3.774-2.694,1.287-3.549
			c1.058-0.281,2.159-0.581,3.054-1.137c-2.104-0.82-3.86-3.371-6.066-3.461c0.104,1.206-0.089,2.361-0.322,3.502
			c-1.601-0.733-5.378-1.367-5.593,1.111c0.885,0.426,1.698,1.132,2.189,1.975c-0.135-0.232-2.897,1.33-3.12,1.52
			C241.698,257.884,243.475,259.317,244.909,259.671z"/>
		<path fill="#4AA191" d="M230.725,245.224c2.578-1.705,2.485,0.232,4.539,1.123c1.421,0.615,5.24,0.618,5.173-1.394
			c1.546-0.175,2.943,0.49,4.485,0.185c-1.316-1.381-1.107-3.742-2.743-4.738c-0.723,0.796-1.472,1.457-2.35,1.977
			c-1.327-1.651-8.388-4.82-7.094-0.119c-1.002-0.899-2.362-1.512-3.601-1.982C229.312,240.735,230.872,245.126,230.725,245.224z"/>
		<path fill="#F4EAAC" d="M214.746,243.246c0.181,1.226,0.543,0.678,0.66,1.912c1.146-0.448,4.314-1.772,5.3-0.19
			c1.021,1.639-1.354,4.105-2.48,4.709c1.645,0.492,3.57,1.248,4.856,2.062c-2.505,1.24-6.162,1.037-9.111,2.179
			c0.191-0.849,0.646-1.899,1.074-2.689c-3.225,0.097-6.959-3.054-2.356-4.318c-1.331-0.505-3.965-1.199-4.686-2.497
			C208.693,244.126,214.665,242.696,214.746,243.246z"/>
		<path fill="#AC2400" d="M250.302,241.239c-0.06,0.887,0.144,1.892,0.107,2.781c4.571-1.275,5.737,3.897,1.743,4.006
			c1.34,0.633,2.765,1.498,3.877,2.229c-2.166,0.588-4.523,1.445-6.467,2.594c0.036-1.041-0.192-2.128-0.676-3.058
			c-1.387-0.084-3.238,0.44-3.947-0.897c-0.66-1.246,0.113-2.439,1.327-2.837c-0.87-0.487-1.655-1.031-2.354-1.786
			C244.738,243.529,250.256,241.931,250.302,241.239z"/>
		<path fill="#44658B" d="M216.424,243.245c1.632,1.717,6.126,3.896,6.958,0.285c1.364,0.35,3.059,0.65,4.447,1.059
			c-0.079-1.758,0.887-3.252,0.568-5.049c-1.228,0.278-2.609,1.102-3.878,1.344c-1.07-4.041-6.995-4.156-7.785,0.097
			c-2.414-3.015-2.859,1.653-2.942,3.231C214.046,244.172,216.438,243.261,216.424,243.245z"/>
		<path fill="#BABF3B" d="M200.846,243.801c3.214-1.321,7.398,2.637,4.51,3.954c1.459-0.014,2.735,0.404,4.21,0.271
			c-1.819,1.766-3.948,3.225-5.536,5.107c-0.026-1.094-0.258-2.109-0.682-3.073c-2.119,1.336-7.499-0.876-5.721-3.694
			c-5.697,0.484-1.055-3.512,1.221-5.091C199.03,241.53,200.596,243.903,200.846,243.801z"/>
		<path fill="#EBDB8A" d="M240.814,241.575c0.269,0.775,0.928,1.021,1.355,1.539c2.822-2.24,10.642-0.628,5.89,3.5
			c1.571,0.275,3.134,0.424,4.491,1.137c-1.913,1.275-3.828,2.441-5.734,3.67c-0.554-0.873-0.78-1.806-0.862-2.928
			c-1.812-0.033-7.138,0.766-5.355-3.066c-1.703,0.191-3.496,0.909-5.319,0.93C236.057,246.349,239.814,242.142,240.814,241.575z"/>
		<path fill="#AC2400" d="M206.002,245.515c2.001,1.717,8.975,2.138,6.894-0.624c1.563,0.036,3.157,0.064,4.702-0.03
			c-0.312-1.627-2.293-2.419-2.879-4.008c-1.062,0.918-1.677,0.443-2.877,1.318c-1.817-2.195-7.553-2.801-7.132,0.82
			c-0.487-0.38-2.037-0.193-2.479-0.444c-0.499,1.448,0.564,2.964,0.955,4.415C204.561,246.708,205.728,246.049,206.002,245.515z"/>
		<path fill="#4E6460" d="M228.97,253.134c0.071-0.654,0.568-0.987,0.665-1.635c1.533-0.05,9.414,1.66,5.456-2.841
			c1.286-0.39,2.718-0.702,4.146-0.683c-2.065-1.115-7.206-7.371-6.565-1.685c-2.836,0.143-10.528,0.026-5.103,3.4
			c-1.165,0.194-2.433-0.029-3.591-0.135C224.656,250.013,229.04,252.52,228.97,253.134z"/>
		<path fill="#69C4BA" d="M225.514,245.287c0.632-0.53,3.33,0.069,4.043-0.339c1.392,1.769,3.722,3.886,5.688,1.426
			c1.344,0.936,2.123,2.374,3.419,3.163c-0.034-2.333,0.52-4.725-0.288-6.995c-1.529,0.217-1.335,0.834-2.747,1.193
			c-0.388-3.881-3.464-3.909-5.661-1.102c-0.461-1.012-2.919-2.637-3.693-3.264C225.96,240.376,226.129,244.769,225.514,245.287z"/>
		<path fill="#D1C5AA" d="M268.412,250.388c0.003,0.048,0.017,0.096,0.017,0.143c0,4.361-18.059,7.896-40.338,7.896
			c-22.278,0-40.339-3.535-40.339-7.896c0-0.084,0.021-0.17,0.034-0.254c-1.852,0.851-3.701,1.449-5.55,0.995
			c0.691,14.036,20.95,28.499,45.854,28.499c25.344,0,45.886-14.977,45.886-29.24c0-0.322-0.085-0.645-0.25-0.966
			C271.935,249.673,270.083,249.912,268.412,250.388z"/>
		<path fill="#4AA191" d="M210.922,253.337c0.503-0.679,1.188-1.835,1.188-1.835s1.607,0.713,2.337,0.679
			c1.113-0.053,3.792-1.066,2.279-2.59c0.939-0.054,1.899-0.104,2.84-0.119c-0.226-0.416-0.833-0.811-1.188-1.159
			c-0.471-0.467-0.765-1.009-1.171-1.516c-0.347-0.435-0.779-0.809-1.141-1.233c-0.221,0.661-0.458,1.57-0.555,2.29
			c-0.931-0.446-2.609-0.813-3.666-0.421c-0.936,0.346-2.11,2.354-0.75,2.867c-0.966-0.226-2.06-0.088-3.033-0.182
			c-0.617-0.06-1.377-0.32-1.899,0.086C207.756,251.222,209.383,252.242,210.922,253.337z"/>
		<path fill="#6185A6" d="M244.817,256.126c-2.025-2.328-3.098-2.592-3.098-2.592c-3.358,0.749-5.67-0.672-4.594-2.783
			c-1.703-0.265-4.264,0.355-5.591,0.355c2.707-0.912,4.446-3.61,6.752-5.16c0.302,1.17-0.207,2.234,0.669,3.079
			c3.972-2.226,6.894-0.974,4.908,2.845c1.014-0.424,2.021-0.197,3.076-0.47C246.812,252.059,244.592,255.866,244.817,256.126z"/>
		<path fill="#AC2400" d="M218.817,245.946c0.183,1.016,0.784,2.229,0.749,3.117c4.571-1.274,5.317,2.067,2.993,3.05
			c1.339,0.633,2.765,1.499,3.876,2.229c-2.165,0.589-4.522,1.446-6.466,2.595c0.036-1.041-0.192-2.129-0.677-3.058
			c-1.386-0.083-3.237,0.44-3.946-0.897c-0.66-1.246,0.113-2.439,1.326-2.837c-0.87-0.488-1.654-1.032-2.353-1.786
			C215.146,247.617,218.771,246.637,218.817,245.946z"/>
	</g>
	<g>
		<path fill="#C5B89D" d="M278.057,264.583c0,0.7-3.41,0.897-3.41,0c0-0.896,0-30.543,0-30.543h3.41
			C278.057,234.04,278.057,263.884,278.057,264.583z"/>
		<ellipse fill="#C83B0C" cx="275.457" cy="221.194" rx="14.945" ry="15.473"/>
		<ellipse fill="#D0562E" cx="277.072" cy="221.194" rx="14.945" ry="15.473"/>
		<path fill="#7ECCC4" d="M269.668,234.624c2.186,1.294,4.707,2.043,7.404,2.043c0.291,0,0.575-0.027,0.863-0.045
			c4.404-4.718,2.751-11.939,0.365-15.428C278.274,222.785,276.238,233.276,269.668,234.624z"/>
		<path fill="#7ECCC4" d="M281.885,213.778c-2.177,2.583-3.596,7.408-3.584,7.416c2.776-3.023,8.371-7.73,12.289-6.541
			c-0.688-1.528-1.626-2.9-2.735-4.106C287.47,210.547,284.056,211.203,281.885,213.778z"/>
		<path fill="#7ECCC4" d="M278.301,221.194c5.503,0.561,10.35,4.449,10.73,9.25c1.87-2.58,2.985-5.775,2.985-9.25
			c0-0.395-0.045-0.773-0.072-1.16C288.899,216.926,282.491,218.927,278.301,221.194z"/>
		<path fill="#7ECCC4" d="M262.199,222.288c0.155,2.286,0.81,4.419,1.814,6.323c6.524,0.801,12.848-4.338,14.287-7.417
			C273.445,223.915,267.832,223.677,262.199,222.288z"/>
		<path fill="#7ECCC4" d="M278.301,221.194c-3.965-1.062-8.384-8.123-10.092-12.434c-2.054,1.569-3.688,3.68-4.749,6.113
			C268.908,220.387,278.257,221.368,278.301,221.194z"/>
		<path fill="#7ECCC4" d="M278.301,221.194c-0.244-5.649,2.562-11.39,6.546-13.198c-2.268-1.436-4.923-2.277-7.774-2.277
			c-0.195,0-0.385,0.022-0.578,0.03C275.709,209.493,275.457,215.394,278.301,221.194z"/>
	</g>
	<g>
		<path fill="#C5B89D" d="M340.242,258.325c0,0.549-2.674,0.703-2.674,0s0-23.938,0-23.938h2.674
			C340.242,234.388,340.242,257.777,340.242,258.325z"/>
		<ellipse fill="#5FB8AC" cx="338.203" cy="224.32" rx="11.713" ry="12.127"/>
		<ellipse fill="#90D3CC" cx="339.469" cy="224.32" rx="11.713" ry="12.127"/>
		<g>
			<path fill="#A7AD4E" d="M333.668,234.847c1.711,1.014,3.688,1.601,5.803,1.601c0.227,0,0.449-0.022,0.678-0.035
				c3.449-3.696,2.154-9.357,0.283-12.092C340.412,225.567,338.818,233.79,333.668,234.847z"/>
			<path fill="#A7AD4E" d="M343.24,218.509c-1.705,2.025-2.816,5.807-2.809,5.812c2.176-2.368,6.561-6.058,9.633-5.126
				c-0.539-1.197-1.275-2.272-2.145-3.218C347.617,215.977,344.943,216.491,343.24,218.509z"/>
			<path fill="#A7AD4E" d="M340.432,224.32c4.314,0.44,8.113,3.487,8.412,7.251c1.464-2.021,2.339-4.527,2.339-7.251
				c0-0.308-0.034-0.606-0.058-0.908C348.738,220.977,343.717,222.544,340.432,224.32z"/>
			<path fill="#A7AD4E" d="M327.814,225.179c0.121,1.791,0.635,3.463,1.42,4.955c5.115,0.629,10.07-3.4,11.197-5.813
				C336.627,226.453,332.229,226.267,327.814,225.179z"/>
			<path fill="#A7AD4E" d="M340.432,224.32c-3.105-0.831-6.568-6.364-7.908-9.743c-1.609,1.23-2.889,2.883-3.721,4.791
				C333.072,223.688,340.398,224.457,340.432,224.32z"/>
			<path fill="#A7AD4E" d="M340.432,224.32c-0.189-4.427,2.01-8.926,5.131-10.343c-1.777-1.125-3.859-1.783-6.092-1.783
				c-0.154,0-0.303,0.018-0.455,0.022C338.4,215.151,338.205,219.775,340.432,224.32z"/>
		</g>
	</g>
	<g>
		<path fill="#C5B89D" d="M307.092,263.61c0,0.7-3.41,0.896-3.41,0s0-58.104,0-58.104h3.41
			C307.092,205.506,307.092,262.911,307.092,263.61z"/>
		<ellipse fill="#4E7094" cx="304.492" cy="192.659" rx="14.946" ry="15.475"/>
		<path fill="#E5D381" d="M295.538,203.228c-6.044-6.043-6.211-15.673-0.373-21.509c5.835-5.837,15.468-5.67,21.511,0.374
			c6.041,6.042,6.209,15.672,0.371,21.509C311.213,209.438,301.58,209.271,295.538,203.228z"/>
		<g>
			<path fill="#6784A3" d="M301.814,177.828c-2.476,0.634-4.803,1.896-6.723,3.816c-0.208,0.206-0.391,0.429-0.584,0.646
				c0.227,6.493,6.541,10.458,10.725,11.243C304.119,192.382,298.098,183.464,301.814,177.828z"/>
			<path fill="#6784A3" d="M307.959,201.364c-0.289-3.389-2.713-7.834-2.727-7.831c0.176,4.129-0.457,11.461-4.094,13.404
				c1.58,0.6,3.225,0.907,4.873,0.977C306.283,207.64,308.246,204.743,307.959,201.364z"/>
			<path fill="#6784A3" d="M305.232,193.533c-4.318,3.519-10.535,4.201-14.225,1.054c0.506,3.167,1.985,6.238,4.459,8.712
				c0.281,0.279,0.584,0.518,0.879,0.772C300.727,204.116,303.865,198.13,305.232,193.533z"/>
			<path fill="#6784A3" d="M315.914,181.292c-1.738-1.516-3.721-2.569-5.791-3.209c-5.215,4.074-6.059,12.234-4.891,15.451
				C306.75,188.139,310.916,184.314,315.914,181.292z"/>
			<path fill="#6784A3" d="M305.232,193.533c3.575-2.066,11.748-0.186,16.033,1.667c0.346-2.58,0.008-5.244-0.971-7.733
				C312.492,187.421,305.141,193.377,305.232,193.533z"/>
			<path fill="#6784A3" d="M305.232,193.533c4.193,3.849,6.284,9.933,4.734,14.056c2.636-0.593,5.127-1.883,7.154-3.914
				c0.139-0.139,0.26-0.29,0.393-0.434C315.404,200.019,311.385,195.638,305.232,193.533z"/>
		</g>
	</g>
	<g>
		<path fill="#C5B89D" d="M367.646,256.931c0,0.521-2.541,0.669-2.541,0c0-0.668,0-38.932,0-38.932h2.541
			C367.646,217.999,367.646,256.409,367.646,256.931z"/>
		<ellipse fill="#D8642E" cx="365.709" cy="208.425" rx="11.139" ry="11.532"/>
		<ellipse fill="#E38656" cx="366.91" cy="208.426" rx="11.139" ry="11.532"/>
		<g>
			<path fill="#C4C856" d="M372.43,198.417c-1.629-0.965-3.51-1.523-5.518-1.523c-0.219,0-0.43,0.021-0.645,0.034
				c-3.281,3.517-2.051,8.896-0.271,11.498C366.014,207.239,367.531,199.421,372.43,198.417z"/>
			<path fill="#C4C856" d="M363.324,213.951c1.623-1.925,2.68-5.521,2.672-5.525c-2.068,2.253-6.236,5.759-9.16,4.874
				c0.514,1.139,1.213,2.162,2.039,3.061C359.162,216.36,361.705,215.87,363.324,213.951z"/>
			<path fill="#C4C856" d="M365.996,208.426c-4.103-0.417-7.715-3.316-7.996-6.894c-1.396,1.922-2.229,4.305-2.229,6.893
				c0,0.293,0.035,0.577,0.059,0.865C358.098,211.606,362.873,210.116,365.996,208.426z"/>
			<path fill="#C4C856" d="M377.996,207.609c-0.117-1.703-0.602-3.293-1.352-4.712c-4.861-0.598-9.576,3.232-10.648,5.528
				C369.615,206.397,373.797,206.576,377.996,207.609z"/>
			<path fill="#C4C856" d="M365.996,208.426c2.953,0.79,6.248,6.053,7.52,9.265c1.533-1.17,2.748-2.742,3.539-4.556
				C372.994,209.026,366.031,208.296,365.996,208.426z"/>
			<path fill="#C4C856" d="M365.996,208.426c0.182,4.21-1.908,8.488-4.879,9.835c1.69,1.07,3.67,1.697,5.795,1.696
				c0.146,0.001,0.287-0.016,0.432-0.021C367.928,217.146,368.115,212.748,365.996,208.426z"/>
		</g>
	</g>
	<path fill="#6185A6" d="M202.59,250.033c1.775-2.04,2.716-2.272,2.716-2.272c2.943,0.657,4.97-0.588,4.026-2.439
		c1.493-0.232,3.739,0.312,4.902,0.312c-2.373-0.8-3.896-3.166-5.92-4.525c-0.265,1.027,0.183,1.959-0.585,2.7
		c-3.483-1.952-6.045-0.854-4.307,2.493c-0.887-0.371-1.77-0.172-2.696-0.411C200.841,246.468,202.787,249.807,202.59,250.033z"/>
	<path fill="#C7A53A" d="M223.24,247.714c-0.466,2.971-5.636,3.845-6.07,0.453c-1.065,0.36-2.278,1.086-3.293,1.678
		c-0.279-2.008-0.415-4.14-0.455-6.17c1.035,0.34,1.987,1.125,2.844,1.797c1.612-2.03,6.316-3.741,7.05-0.054
		c0.913-0.978,1.787-2.331,2.989-2.849c0.193,2.41-1.033,4.571-0.125,7.049C225.749,249.489,223.146,248.311,223.24,247.714z"/>
	<path fill="#334F72" d="M222.726,245.917c-0.548-2.766,1.942-1.562,3.53-2.158c1.175-0.441,3.311-2.362,1.129-3.11
		c0.929-0.248,1.894-0.511,2.678-0.997c-1.846-0.72-3.384-2.955-5.32-3.034c0.092,1.058-0.078,2.069-0.283,3.069
		c-1.402-0.643-3.13-0.715-3.629,0.114c-0.909,1.509,0.217,1.853,0.646,2.591c-0.118-0.203-2.54,1.167-2.735,1.332
		C219.911,244.351,221.468,245.606,222.726,245.917z"/>
	<path fill="#E1CC6C" d="M215.978,243.458c-0.239-0.105-0.395-0.177-0.615-0.306c0.868,0.046,1.53-0.116,2.326-0.286
		c-1.226-0.986-2.843-2.103-4.367-2.414c0.115,0.57-0.173,1.347-0.084,1.926c-1.562-0.379-6.383,0.531-3.084,2.438
		c-0.205,0.191-1.673,0.629-1.859,0.818c0.507,1.027,2.737,1.377,3.861,1.672c-0.052-0.312-0.003-0.712-0.039-1.046
		C214.725,245.933,217.61,244.172,215.978,243.458z"/>
	<path fill="#BABF3B" d="M220.83,244.172c-2.976,0.657-6.105-2.226-4.006-3.64c-1.263-0.209-2.303-0.762-3.597-0.867
		c1.837-1.253,3.896-2.193,5.55-3.579c-0.141,0.948-0.257,2.469-0.036,3.366c2.03-0.836,5.656,1.523,3.696,3.691
		c1.625,0.143,3.087,0.281,3.092,0.775c0.009,1.022-2.571,2.499-4.058,3.188C221.353,246.859,221.062,244.12,220.83,244.172z"/>
	<g>
		<path fill="#D1C5AA" d="M334.662,245.108c0,8.587-12.367,17.604-27.625,17.604c-15.259,0-27.627-9.017-27.627-17.604
			c0-3.384,12.368-6.039,27.627-6.039C322.295,239.069,334.662,242.066,334.662,245.108z"/>
		<ellipse fill="#BCAD8D" cx="307.037" cy="245.108" rx="24.286" ry="4.754"/>
		<path fill="#D35623" d="M299.885,247.985c1.848-1.305,5.627-2.056,5.518,1.26c0.904-0.487,1.965-0.789,2.881-1.28
			c0.395,1.116,0.205,2.786,0.141,4.014c-1.135,0.136-2.479-0.74-3.363-1.323c-1.102,1.54-5.346,1.038-5.544-1.197
			c-1.052,0.06-2.243,0.416-3.206,0.811c-0.164,0.068,0.076-2.535,0.818-2.922C298.024,246.88,299.055,247.626,299.885,247.985z"/>
		<path fill="#F4EAAC" d="M286.851,245.889c1.849-1.305,5.627-2.057,5.52,1.259c0.905-0.486,1.968-0.789,2.882-1.28
			c0.393,1.118,0.203,2.785,0.14,4.013c-1.135,0.136-2.479-0.74-3.363-1.323c-1.101,1.54-5.347,1.039-5.544-1.195
			c-1.052,0.059-2.242,0.417-3.204,0.81c-0.163,0.068,0.074-2.535,0.816-2.922C284.992,244.782,286.02,245.528,286.851,245.889z"/>
		<path fill="#D8642E" d="M318.9,243.438c1.25-0.005,2.402-0.274,3.572-0.316c0.025,0.635-0.201,1.202-0.594,1.7
			c0.93-0.258,2.143-0.379,2.513,0.673c0.502,1.423-1.157,1.611-1.351,2.54c0.476,0.237,0.986,0.633,1.324,1.023
			c-1.265,0.33-2.701,0.413-4.066,0.35c-0.078-0.602,0.134-1.078,0.598-1.486c-1.449-0.082-2.674-1.951-0.641-2.461
			c-0.455-0.477-1.059-1.037-1.355-1.68V243.438z"/>
		<path fill="#C22D00" d="M307.361,245.312c-0.179-0.362-0.166-0.941-0.328-1.28c1.141-0.056,3.738,0.409,3.199-1.537
			c-0.137-0.077-0.285-0.12-0.423-0.201c0.556-0.089,1.065-0.285,1.599-0.376c-0.902-0.656-1.777-1.244-2.832-1.615
			c0.078,0.367-0.115,0.852-0.016,1.242c-1.855-0.987-3.006,0.632-2.086,2.254c-0.055-0.1-1.443,0.225-1.6,0.258
			C305.521,244.654,306.51,244.991,307.361,245.312z"/>
		<path fill="#E1CC6C" d="M293.1,246.521c0.516,0.15,1.079,0.281,1.627,0.376c-0.771,0.641-2.085,1.425-3.075,1.657
			c0.014-0.33-0.271-0.893-0.188-1.321c-0.061,0.32-3.865-1.957-0.747-2.481c-1.693-0.851,0.406-1.865,1.381-1.922
			c-0.083,0.333,0.101,0.84-0.009,1.196C293.844,243.388,294.576,245.628,293.1,246.521z"/>
		<path fill="#44658B" d="M302.266,241.587c-0.456,0.451-1.083,0.918-1.504,1.47c2.887,0.589,1.197,2.263-0.865,2.476
			c0.489,0.336,1.119,0.729,1.336,1.303c-1.562,0.08-3.34-0.082-4.713-0.657c0.497-0.15,1.078-0.468,1.466-0.646
			c-1.037-0.025-1.74-0.938-1.668-1.895c0.899-0.405,1.826-0.63,2.83-0.569c-0.407-0.474-0.802-0.958-1.058-1.507
			C298.988,241.13,301.732,242.116,302.266,241.587z"/>
		<path fill="#E1CC6C" d="M314.586,245.181c-0.164-0.072-0.27-0.121-0.422-0.21c0.598,0.031,1.051-0.08,1.598-0.196
			c-0.842-0.678-1.953-1.444-2.998-1.658c0.076,0.392-0.117,0.925-0.057,1.322c-1.074-0.26-4.385,0.365-2.119,1.674
			c-0.141,0.131-0.264,0.224-0.393,0.355c0.348,0.705,0.998,1.152,1.766,1.355c-0.033-0.214,0-0.49-0.023-0.719
			C312.309,247.101,315.709,245.671,314.586,245.181z"/>
		<path fill="#E1CC6C" d="M297.124,248.058c-0.164-0.072-0.27-0.121-0.421-0.209c0.597,0.031,1.05-0.081,1.597-0.197
			c-0.842-0.678-1.954-1.443-2.999-1.657c0.078,0.392-0.119,0.924-0.059,1.322c-1.072-0.261-4.382,0.365-2.116,1.675
			c-0.142,0.13-0.265,0.223-0.394,0.353c0.348,0.706,0.995,1.154,1.768,1.355c-0.035-0.214-0.003-0.487-0.027-0.718
			C294.848,249.978,298.247,248.548,297.124,248.058z"/>
		<path fill="#EBDB8A" d="M327.318,247.532c-0.166-0.072-0.273-0.121-0.425-0.21c0.597,0.032,1.052-0.079,1.597-0.196
			c-0.84-0.678-1.953-1.443-2.996-1.656c0.076,0.391-0.119,0.924-0.059,1.32c-1.074-0.259-4.383,0.367-2.117,1.675
			c-0.141,0.132-0.264,0.223-0.395,0.354c0.35,0.705,0.998,1.154,1.768,1.355c-0.033-0.213,0-0.489-0.027-0.719
			C325.041,249.452,328.439,248.022,327.318,247.532z"/>
		<path fill="#D35623" d="M300.208,245.067c1.026-2.438,3.171-0.871,4.454,0.181c0.357-0.679,1.027-1.171,1.711-1.337
			c0.756,0.914,2.01,1.998,1.727,3.379c-0.814,0.107-1.622-0.12-2.346-0.47c0.045,1.344-1.455,1.857-2.557,2
			c-1.561,0.202-2.088-0.357-2.986-1.478c-0.608,0.119-1.176,0.484-1.611,0.914c-0.193-1.119-0.032-2.307-0.171-3.438
			C298.567,244.78,300.322,244.795,300.208,245.067z"/>
		<path fill="#EBDB8A" d="M315.896,241.868c0.02,0.58,0.096,1.127,0.24,1.682c1.375-1.576,4.637-0.332,3.066,1.867
			c0.627,0.091,1.266-0.02,1.852-0.102c-0.829,1.012-2.125,1.834-2.725,3.031c-0.471-0.402-0.738-1.031-0.885-1.674
			c-1.059,0.414-4.146,1.062-3.711-1.191c0.314-0.063,0.648-0.314,0.939-0.334c-0.66-0.09-1.326-0.309-1.92-0.6
			C313.264,244.048,315.926,242.827,315.896,241.868z"/>
		<path fill="#D35623" d="M286.723,242.089c0.677,0.307,0.846,1.144,1.036,1.85c0.795-1.645,4.681-0.613,3.576,1.699
			c0.89-0.301,1.846-0.508,2.695-0.637c-0.143,1.402-1.907,2.279-1.895,3.734c-1.414-1.703-0.271-1.672-2.703-1.357
			c-1.405,0.183-2.812-0.182-2.595-1.851c-0.007,0.044-2.099,0.245-2.304,0.274C285.141,244.526,286.066,243.369,286.723,242.089z"
			/>
		<path fill="#AC2400" d="M310.016,247.337c0.463-2.012,4.049-2.359,4.18-0.015c0.748-0.194,1.613-0.632,2.338-0.987
			c0.092,1.388,0.082,2.855,0.012,4.248c-0.694-0.285-1.307-0.868-1.861-1.369c-1.203,1.311-4.51,2.254-4.832-0.309
			c-0.674,0.625-1.34,1.51-2.188,1.806c-0.014-1.661,0.934-3.081,0.432-4.822C308.383,245.998,310.107,246.932,310.016,247.337z"/>
		<path fill="#E1CC6C" d="M291.655,244.743c0.194-0.457,0.627-0.694,0.896-1.108c1.23,0.565,4.408,1.21,4.788-0.647
			c0.976,0.133,1.789,0.689,2.699,0.758c-0.66-1.241-1.02-2.675-2.072-3.67c-0.762,0.535-1.146,1.393-1.805,1.975
			c-1.271-1.975-3.688-1.729-3.812,0.639c-0.523-0.417-1.154-0.87-1.741-0.994C290.718,242.32,291.844,244.297,291.655,244.743z"/>
		<path fill="#D8642E" d="M326.242,247.865c-0.277-0.463-0.349-1.01-0.465-1.485c1.215,0.08,3.047-1.145,1.92-2.437
			c0.621,0.013,1.242-0.163,1.756-0.505c-1.299-0.597-2.658-1.975-4.018-2.201c-0.07,0.572-0.023,1.174,0.127,1.656
			c-0.688,0.227-2.199-0.096-2.514,0.754c-0.275,0.736,0.889,1.533,1.242,1.976c-0.58,0.124-1.201,0.228-1.75,0.386
			C323.652,246.796,325.115,247.032,326.242,247.865z"/>
		<path fill="#E1CC6C" d="M305.352,249.942c1.221-1.4,1.863-1.56,1.863-1.56c2.023,0.45,3.416-0.405,2.768-1.676
			c1.025-0.159,2.566,0.214,3.365,0.214c-1.629-0.549-2.676-2.174-4.062-3.107c-0.184,0.705,0.123,1.345-0.402,1.854
			c-2.393-1.34-4.152-0.586-2.959,1.713c-0.609-0.255-1.215-0.117-1.85-0.283C304.15,247.495,305.486,249.786,305.352,249.942z"/>
		<path fill="#AC2400" d="M294.201,243.468c0.306,0.569,0.822,1.059,1.092,1.656c1.566-0.736,4.823-0.85,3.165,1.889
			c0.452-0.296,1.415-0.673,2.09-0.803c-0.482,1.172-0.889,2.535-1.212,3.715c-0.757-0.375-0.841-1.309-1.461-1.84
			c-1.045,1.308-5.167,0.483-3.328-1.008c-0.982-0.426-2.35-0.135-3.344,0.065C291.128,246.293,293.618,242.383,294.201,243.468z"/>
		<path fill="#D8642E" d="M313.393,246.667c-0.105-0.297,0.01-0.846-0.123-1.146c1.27-0.047,4.372-1.954,1.752-2.422
			c0.533-0.347,1.156-0.561,1.639-0.813c-1.264-0.483-2.465-0.972-3.549-1.743c-0.105,0.781,0.184,1.445,0.275,2.193
			c-3.141-1.199-3.402,0.07-1.693,2.257c-0.131-0.167-2.053,1.03-2.205,1.16C310.822,246.063,312.06,246.661,313.393,246.667z"/>
		<path fill="#E1CC6C" d="M302.229,241.538c1.064,1.605,1.502-0.536,2.736-0.66c2.011-0.203,1.457,1.664,1.922,2.895
			c0.631-0.357,1.516-0.55,2.172-0.646c-0.646,1.021-1.514,1.943-1.545,3.221c-0.574-0.158-1.033-0.594-1.213-1.164
			c-1.121,0.431-2.062,0.408-3.098-0.185c-0.512-0.294-0.324-0.846-1.141-1.045c-0.611-0.149-1.413,0.14-1.999,0.282
			C300.467,243.374,301.52,242.241,302.229,241.538z"/>
		<path fill="#D8642E" d="M317.162,250.61c-0.377-1.898,1.334-1.072,2.424-1.481c0.807-0.303,2.273-1.622,0.775-2.136
			c0.639-0.171,1.299-0.35,1.838-0.686c-1.268-0.494-2.322-2.028-3.652-2.083c0.062,0.727-0.055,1.421-0.195,2.108
			c-0.963-0.442-3.236-0.823-3.365,0.668c0.531,0.257,1.021,0.683,1.318,1.189c-0.082-0.141-1.744,0.801-1.879,0.915
			C315.229,249.534,316.299,250.397,317.162,250.61z"/>
		<path fill="#AC2400" d="M308.623,241.913c1.551-1.027,1.494,0.139,2.732,0.676c0.854,0.371,3.154,0.373,3.113-0.839
			c0.932-0.105,1.771,0.296,2.701,0.111c-0.793-0.831-0.666-2.253-1.653-2.853c-0.433,0.479-0.884,0.877-1.414,1.189
			c-0.8-0.995-5.048-2.902-4.269-0.072c-0.606-0.541-1.422-0.909-2.17-1.192C307.773,239.21,308.711,241.854,308.623,241.913z"/>
		<path fill="#F4EAAC" d="M299.002,240.722c0.11,0.739,0.329,0.408,0.399,1.152c0.689-0.271,2.597-1.068,3.19-0.115
			c0.613,0.986-0.816,2.472-1.496,2.836c0.992,0.296,2.152,0.751,2.926,1.24c-1.508,0.748-3.711,0.625-5.486,1.312
			c0.116-0.511,0.39-1.144,0.647-1.619c-1.941,0.058-4.19-1.838-1.417-2.6c-0.803-0.305-2.389-0.723-2.823-1.504
			C295.358,241.251,298.954,240.392,299.002,240.722z"/>
		<path fill="#AC2400" d="M320.408,239.514c-0.035,0.535,0.086,1.139,0.066,1.675c2.751-0.769,3.453,2.346,1.047,2.41
			c0.809,0.383,1.666,0.904,2.336,1.343c-1.305,0.354-2.725,0.87-3.895,1.562c0.021-0.627-0.115-1.282-0.408-1.841
			c-0.832-0.051-1.947,0.264-2.373-0.541c-0.398-0.75,0.066-1.469,0.797-1.707c-0.523-0.295-0.996-0.622-1.416-1.076
			C317.058,240.892,320.381,239.93,320.408,239.514z"/>
		<path fill="#E1CC6C" d="M300.013,240.722c0.983,1.033,3.688,2.346,4.188,0.172c0.82,0.21,1.842,0.392,2.68,0.637
			c-0.049-1.058,0.533-1.957,0.34-3.039c-0.738,0.168-1.57,0.662-2.334,0.809c-0.645-2.432-4.211-2.502-4.687,0.059
			c-1.454-1.815-1.72,0.995-1.771,1.945C298.583,241.28,300.021,240.731,300.013,240.722z"/>
		<path fill="#E1CC6C" d="M290.634,241.056c1.935-0.795,4.454,1.588,2.716,2.381c0.877-0.009,1.646,0.244,2.535,0.162
			c-1.096,1.064-2.378,1.943-3.333,3.076c-0.018-0.658-0.157-1.27-0.411-1.85c-1.275,0.805-4.516-0.527-3.444-2.225
			c-3.43,0.291-0.634-2.113,0.734-3.064C289.543,239.688,290.483,241.118,290.634,241.056z"/>
		<path fill="#EBDB8A" d="M314.697,239.716c0.162,0.467,0.559,0.615,0.814,0.928c1.699-1.35,6.408-0.379,3.547,2.105
			c0.945,0.167,1.887,0.256,2.703,0.686c-1.15,0.768-2.305,1.469-3.451,2.209c-0.335-0.525-0.469-1.088-0.52-1.762
			c-1.09-0.021-4.297,0.46-3.225-1.848c-1.025,0.115-2.105,0.549-3.203,0.561C311.834,242.59,314.096,240.058,314.697,239.716z"/>
		<path fill="#AC2400" d="M293.74,242.089c1.202,1.032,5.401,1.286,4.149-0.377c0.939,0.023,1.899,0.039,2.83-0.018
			c-0.188-0.979-1.381-1.457-1.731-2.413c-0.641,0.552-1.012,0.267-1.735,0.794c-1.094-1.321-4.545-1.686-4.292,0.493
			c-0.295-0.228-1.227-0.116-1.492-0.267c-0.301,0.871,0.339,1.783,0.575,2.658C292.87,242.808,293.574,242.409,293.74,242.089z"/>
		<path fill="#AC2400" d="M307.566,246.675c0.043-0.395,0.342-0.594,0.4-0.984c0.922-0.029,5.666,0.999,3.285-1.709
			c0.773-0.236,1.635-0.424,2.496-0.41c-1.242-0.673-4.34-4.439-3.953-1.016c-1.709,0.086-6.34,0.016-3.072,2.047
			c-0.701,0.117-1.465-0.018-2.163-0.081C304.969,244.796,307.607,246.306,307.566,246.675z"/>
		<path fill="#E1CC6C" d="M305.486,241.951c0.379-0.319,2.004,0.041,2.432-0.204c0.838,1.064,2.242,2.34,3.426,0.857
			c0.809,0.564,1.279,1.43,2.059,1.904c-0.021-1.404,0.312-2.844-0.176-4.211c-0.92,0.131-0.803,0.502-1.652,0.719
			c-0.234-2.337-2.086-2.354-3.408-0.663c-0.277-0.609-1.756-1.587-2.225-1.964C305.754,238.994,305.855,241.639,305.486,241.951z"
			/>
		<path fill="#D1C5AA" d="M331.31,245.021c0.003,0.028,0.013,0.058,0.013,0.087c0,2.625-10.875,4.754-24.285,4.754
			c-13.412,0-24.286-2.129-24.286-4.754c0-0.052,0.012-0.103,0.021-0.154c-1.115,0.512-2.228,0.873-3.342,0.6
			c0.418,8.45,12.614,17.158,27.607,17.158c15.258,0,27.625-9.017,27.625-17.604c0-0.195-0.053-0.389-0.15-0.582
			C333.432,244.591,332.316,244.735,331.31,245.021z"/>
		<path fill="#E1CC6C" d="M296.7,246.797c0.303-0.408,0.717-1.104,0.717-1.104s0.967,0.43,1.405,0.409
			c0.672-0.032,2.283-0.643,1.373-1.561c0.566-0.032,1.145-0.062,1.709-0.071c-0.135-0.25-0.502-0.487-0.713-0.697
			c-0.285-0.281-0.46-0.607-0.705-0.912c-0.21-0.263-0.47-0.487-0.688-0.742c-0.132,0.396-0.275,0.945-0.334,1.378
			c-0.561-0.268-1.572-0.49-2.207-0.254c-0.563,0.21-1.271,1.417-0.45,1.727c-0.582-0.136-1.239-0.054-1.827-0.109
			c-0.371-0.035-0.827-0.192-1.144,0.052C294.795,245.524,295.774,246.14,296.7,246.797z"/>
		<path fill="#AC2400" d="M317.105,248.476c-1.219-1.4-1.863-1.56-1.863-1.56c-2.021,0.45-3.412-0.405-2.767-1.675
			c-1.026-0.16-2.565,0.213-3.366,0.213c1.629-0.549,2.676-2.174,4.066-3.106c0.18,0.705-0.125,1.345,0.402,1.854
			c2.391-1.34,4.149-0.587,2.955,1.712c0.611-0.255,1.217-0.119,1.852-0.282C318.307,246.028,316.971,248.321,317.105,248.476z"/>
		<path fill="#AC2400" d="M301.453,242.348c0.111,0.612,0.473,1.341,0.451,1.877c2.754-0.767,3.203,1.245,1.803,1.836
			c0.805,0.382,1.664,0.903,2.332,1.342c-1.303,0.354-2.721,0.87-3.893,1.562c0.023-0.628-0.115-1.282-0.406-1.842
			c-0.836-0.05-1.949,0.265-2.377-0.54c-0.396-0.75,0.068-1.469,0.801-1.707c-0.524-0.295-0.997-0.621-1.418-1.076
			C299.244,243.354,301.426,242.763,301.453,242.348z"/>
	</g>
	<path fill="#6185A6" d="M195.6,278.151c-1.033-1.248-5.188-1.373-4.555,0.544C191.892,281.255,196.446,279.172,195.6,278.151z"/>
	<path fill="#BABF3B" d="M206.667,281.814c-0.566-0.84-2.986-0.661-3.976-0.46c-1.899,0.387-2.401,2.206-0.244,2.493
		C203.636,284.005,207.57,283.157,206.667,281.814z"/>
	<path fill="#D35623" d="M181.457,286.771c-0.689-0.531-1.926,0.115-2.545,0.456C178.772,288.971,182.776,287.788,181.457,286.771z"
		/>
	<path fill="#7ECCC4" d="M227.046,283.521c-0.033-0.381-0.953-0.371-1.577-0.475c-0.694-0.116-1.408-0.111-1.795,0.198
		c-0.998,0.796-0.479,1.517,0.509,1.766C224.883,285.187,227.086,284,227.046,283.521z"/>
	<path fill="#4AA191" d="M252.308,275.087c-0.387-0.339-1.085-0.557-1.768-0.574c-0.77-0.019-1.95,0.18-1.791,0.822
		c0.117,0.473,1.335,0.723,1.832,0.711C250.829,276.04,252.604,275.347,252.308,275.087z"/>
	<path fill="#EBDB8A" d="M269.184,278.198c-0.703,0.164-1.153,0.6-0.761,1.282c0.534,0.132,3.074,0.546,3.35-0.233
		C272.154,278.167,269.839,278.045,269.184,278.198z"/>
	<path fill="#3F9583" d="M502.967,116.912c-0.041,3.115-0.062,5.05-0.053,5.05c-6.835-0.299-5.996-5.808-9.735-8.892
		c-3.408-2.813-9.811-1.638-13.439,1.155c-4.379,3.37-5.439,9.565-12.403,7.853c-6.209-1.525-4.92-7.826-9.818-9.859
		c-6.158-2.555-7.83,4.128-11.516,6.554c-6.352,4.179-8.051-2.447-13.154-5.16c-6.168-3.279-9.756,0.641-13.543,5.048
		c-4.539,5.285-6.951,4.346-12.27-0.49c-4.129-3.754-6.877-7.062-13.373-4.826c-6.535,2.25-6.742,9.521-14.264,5.966
		c-3.9-1.843-5.945-7.194-10.346-8.133c-6.825-1.456-9.729,4.496-14.143,7.482c-9.186,6.211-14.582-11.773-25.113-3.461
		c-4.617,3.646-3.299,10.425-10.944,7.577c-4.38-1.631-6.586-5.462-11.403-6.423c-4.592-0.916-10.374-0.296-14.063,2.377
		c-3.312,2.401-3.172,4.376-7.03,5.032c-2.394,0.407-5.255-0.815-7.424-1.71c-4.617-1.904-8.104-4.939-13.1-5.669
		c-5.57-0.814-9.643,1.162-14.91,3.232c-10.066,3.958-8.884,0.531-16.464-3.691c-6.144-3.422-10.085-1.641-15.408,1.71
		c-5.259,3.312-7.481,2.198-13.664-0.283c-5.928-2.378-9.538-4.944-15.363-1.059c-4.907,3.271-6.237,7.048-13.13,3.921
		c-5.06-2.296-7.921-6.358-14.266-5.016c-4.292,0.908-6.979,6.198-11.39,6.169c-15.782-0.103-9.501-35.733-9.501-46.064
		L500.15,86.648C500.15,90.497,503.127,104.865,502.967,116.912z"/>
	<polygon fill="#86C0B5" points="500.15,86.648 141.736,75.301 134.787,71.199 	"/>
	<path fill="#76A2BE" d="M349.613,260.778c1.67-1.121,7.482-2.383,6.957,1.375c1.332,0.111,2.729,0.165,3.725-0.643
		c-0.006,0.645,0.299,0.576-0.096,1.354c0.145,0.106,0.525-0.078,0.604,0.082c-0.27,0.277-0.311,0.616-0.83,0.914
		c0.43,0.627,0.018,0.512,0.171,1.152c0.144,0.025,0.284,0.055,0.427,0.087c-0.336,0.249-0.293,0.414-0.896,0.468
		c-0.027,0.25,0.053,0.656-0.078,0.877c-0.418,0.219-0.59,0.002-0.848,0.07c-0.205,0.301-0.418,0.527-0.731,0.663
		c-0.12-1.354-1.806-2.044-2.86-2.811c-1.254,1.493-6.322,1.515-5.836-1.665c-1.416-0.651-2.963,0.234-3.895,1.301
		c0.27-1.078-0.396-2.422,0.039-3.378c0.217-0.477,1.893-0.994,2.4-1.657C347.984,259.274,349.111,261.116,349.613,260.778z"/>
</g>
<g>
	<g>
		<g>
			<path fill="#C83B0C" d="M555.34,287.164c-9.656,0-20.31-2.222-23.432-7.046c-1.515,8.531,0.758,27.041,2.684,33.582l3.668,0.07
				c2.053-8.859,5.678-14.053,11.957-20.574c2.416,7.367,6.039,14.976,12.51,24.025l3.479-0.354
				c0.615-15.176,4.629-22.662,3.955-31.854C566.178,286.399,560.971,287.164,555.34,287.164z"/>
		</g>
	</g>
	<path fill="#C83B0C" d="M516.662,276.563c0.732,0.447,1.707-0.1,2.174-1.546c0.318-0.998,0.568-1.745,1.141-2.04
		c0.775-0.398,1.26,1.086,1.869,0.842c0.482-0.196,0.428-0.881,0.25-1.461c-0.229-0.748-0.756-1.453-1.193-1.82
		c-0.854-0.709-1.602-1.121-2.807-0.359c-1.068,0.676-1.727,1.659-2.195,3.242C515.467,274.892,515.738,275.995,516.662,276.563z"/>
	<path fill="#C83B0C" d="M587.346,283.106c-0.523,0.729-1.162,1.424-1.986,0.711c-0.729-0.631-0.473-1.486-0.477-2.303
		c-0.004-1.049-0.191-1.844-0.814-2.02c-0.836-0.238-1.016,1.314-1.66,1.193c-0.514-0.094-0.545-0.773-0.539-1.381
		c0.012-0.658,0.389-1.459,0.711-1.929c0.711-1.035,1.76-1.319,2.828-0.872C587.725,277.473,588.842,281.022,587.346,283.106z"/>
	<path fill="#C83B0C" d="M537.461,317.448c-1,0.117-3.303,0.326-4.199-0.186c-1.934-1.1,0.869-2.202,2.309-2.59
		C539.266,313.682,541.906,316.925,537.461,317.448z"/>
	<path fill="#C83B0C" d="M565.729,320.555c-0.998,0.116-3.303,0.325-4.199-0.187c-1.932-1.1,0.867-2.204,2.309-2.589
		C567.535,316.786,570.174,320.033,565.729,320.555z"/>
	<g>
		<g>
			<path fill="#C83B0C" d="M549.156,215.208c4.006,0.898,6.797,5.4,7.658,7.461c0.496,1.179,1.768,3.318,2.414,8.765
				c0.479,4.072,0.52,12.399,0.531,12.481c1.078-0.205,3.113-1.932,3.113-1.932l0.957,5.467l4.139-4.113l0.594,2.891
				c0,0,4.559-8.982,5.059-16.607c0.471-7.244-2.914-13.111-6.012-15.996c-2.574-2.396-5.277-4.1-9.178-4.727
				c-4.314-0.691-7.963,0.154-12.967,0.754c-3.984,0.477-11.75,0.289-11.75,0.289l5.633,3l-5.312,3.853
				C534.035,216.793,543.053,213.837,549.156,215.208z"/>
			<g>
				<path fill="#C83B0C" d="M568.178,249.198l-0.018,0.035l-0.012-0.058c-0.912-0.66-1.871-1.235-2.869-1.755l-0.744,0.738
					l-1.359,1.352l-0.331-1.889l-0.245-1.401c-0.572-0.212-1.154-0.413-1.76-0.59c-4.6,2.698-9.705,3.935-13.103,3.935
					c-0.449,0-0.87-0.022-1.249-0.065c-1.523-0.175-3.51-1.417-5.367-3.625c-10.268,3.227-18.594,11.333-22.541,22.649l4.338,1.878
					c4.936-7.124,13.711-12.118,13.711-12.118s-3.656,8.27-4.574,19.534c1.271,7.985,26.127,10.815,38.621,5.956
					c-1.158-11.391-2.105-21.011-2.105-21.011s4.859,2.552,12.609,13.798l4.023-1.664
					C579.115,262.13,574.615,253.882,568.178,249.198z"/>
			</g>
		</g>
	</g>
	<g>
		<path fill="#C83B0C" d="M559.947,244.897l-1.018,0.192l-0.158-1.022c-0.012-0.081-0.012-0.081-0.02-0.637
			c-0.074-5.598-0.248-9.596-0.518-11.879c-0.539-4.559-1.51-6.67-2.09-7.933c-0.097-0.21-0.182-0.396-0.254-0.565
			c-0.68-1.629-3.256-6.04-6.954-6.869c-1-0.225-2.163-0.339-3.458-0.339c-1.461,0-2.957,0.146-4.365,0.355
			c-2.684,3.211-4.42,7.461-4.434,12.532c-0.021,12.603,6.553,19.387,9.922,19.773c2.838,0.323,8.521-0.661,13.734-3.727
			C560.203,244.826,560.069,244.874,559.947,244.897z M540.777,228.716c-0.172,1.262-0.773,2.219-1.34,2.142
			c-0.564-0.077-0.889-1.159-0.717-2.423c0.174-1.259,0.775-2.218,1.342-2.142C540.629,226.37,540.951,227.454,540.777,228.716z
			 M548.613,230.214c-0.17,1.234-0.828,2.165-1.475,2.076c-0.645-0.088-1.031-1.16-0.863-2.393c0.17-1.237,0.83-2.166,1.477-2.08
			C548.391,227.906,548.779,228.978,548.613,230.214z"/>
		<path fill="#C83B0C" d="M539.695,216.435c-0.773,0.142-1.494,0.296-2.146,0.447c-0.164,0.222-0.334,0.434-0.484,0.678
			c-4.357,7.045-2.51,18.607-2.51,18.607l0.949-1.046l1.455,2.971l0.055-0.06c-0.82-2.67-1.34-5.768-1.334-9.301
			C535.691,224.136,537.094,219.917,539.695,216.435z"/>
	</g>
</g>
<g>
	<g>
		<g>
			<path fill="#8E7565" d="M409.436,213.16c0.322,0.457,0.889,0.824,1.373,0.976c4.678,1.458,13.033,0.352,9.453-6.676
				c-1.047-2.055-5.879-4.719-7.986-3.47c-3.471,2.058,1.535,4.552,0.676,6.686c-0.584,1.444-2.426,0.075-3.314,0.859
				C409.023,212.077,409.09,212.671,409.436,213.16z"/>
		</g>
		<path fill="#8E7565" d="M446.734,311.653c-1.695,0.045-5.592,0.049-6.861-0.986c-2.748-2.221,2.334-3.707,4.871-4.156
			C451.258,305.358,454.293,311.438,446.734,311.653z"/>
		<path fill="#8E7565" d="M509.438,313.39c-1.689,0.046-5.586,0.046-6.859-0.986c-2.744-2.223,2.334-3.709,4.875-4.158
			C513.967,307.093,517.002,313.173,509.438,313.39z"/>
		<g>
			<path fill="#8E7565" d="M477.149,168.222c-4.999-4.824-12.339-6.133-13.612-16.089c-8.572,5.699-14.896,1.724-17.592,3.484
				c-1.637,1.067-3.717,3.323-3.975,8.111c-1.584-8.117,2.398-16.582,7.73-21.266c5.16-4.537,21.91-9.878,32.347-2.18
				c16.921,12.478,11.717,34.077,15.278,45.447c-3.278,2.938-10.896,5.367-16.265,0C478.62,183.289,482.269,173.161,477.149,168.222
				z"/>
			<g>
				<path fill="#8E7565" d="M479.106,179.759c0.031-3.841,0.068-8.194-2.65-10.817c-1.365-1.317-2.9-2.352-4.525-3.447
					c-3.851-2.596-7.825-5.273-9.137-11.727c-4.015,2.301-7.44,2.589-9.747,2.589c-1.084,0-2.078-0.072-2.957-0.136
					c-0.69-0.05-1.344-0.098-1.9-0.098c-0.824,0-1.348,0.102-1.698,0.331c-1.479,0.965-3.29,3.02-3.522,7.327l-0.152,2.83
					c0.01,0.938,0.051,1.874,0.121,2.803l0.023,0.316c0.018,0.137,0.029,0.265,0.039,0.382c2.191,16.345,11.719,24.38,16.33,24.483
					c3.736,0.087,11.414-1.537,17.31-5.936c0.555-0.414,1.99-1.408,3.467-2.537C479.077,184.781,479.083,182.547,479.106,179.759z
					 M447.277,171.489c-0.807-0.038-1.402-1.529-1.326-3.33c0.082-1.806,0.807-3.24,1.617-3.203
					c0.812,0.037,1.406,1.527,1.328,3.331C448.814,170.092,448.092,171.524,447.277,171.489z M458.236,171.867
					c-0.922-0.042-1.609-1.505-1.531-3.274c0.08-1.768,0.893-3.167,1.816-3.128c0.922,0.043,1.605,1.506,1.527,3.276
					C459.973,170.507,459.156,171.908,458.236,171.867z"/>
			</g>
		</g>
	</g>
	<g>
		<g>
			<path fill="#8E7565" d="M508.16,248.332c-0.213-6.21-0.978-13.295-2.027-19.889c0.182,7.307-0.504,14.798-1.841,21.868
				C505.641,249.696,506.943,249.046,508.16,248.332z"/>
			<g>
				<path fill="#8E7565" d="M494.297,194.575c-1.303-1.336-3.557-3.354-5.812-4.679c-2.801-0.054-5.352-1.03-7.449-2.84
					c-0.132-0.03-0.252-0.068-0.386-0.096c-0.765,0.584-1.64,1.227-2.635,1.94c-0.331,0.237-0.601,0.43-0.778,0.562
					c-5.653,4.217-13.097,6.138-17.62,6.138c-0.105,0-0.209-0.002-0.311-0.004c-1.724-0.039-3.791-0.912-5.895-2.541
					c-9.773,7.513-17.07,18.24-28.951,16.777l-4.174,6.344c11.52,6.065,30.049-4.121,30.049-4.121s-2.912,16.393-9.281,36.703
					c6.697,7.593,31.215,10.141,51.185,5.551c3.445-22.89-3.368-39.632-8.557-44.865l0.71-0.704
					c5.364,5.41,12.442,22.705,8.767,46.212l8.545,2.322C508.352,232.052,505.893,206.458,494.297,194.575z"/>
			</g>
		</g>
		<g>
			<path fill="#8E7565" d="M491.712,227.489c-0.119-0.085-0.227-0.166-0.348-0.252c-15.752-11.229-40.661-4.313-46.235,12.618
				c-1.098,3.337-1.953,6.762-2.643,10.224c5.278,4.191,16.488,6.523,28.807,6.523c6.925,0,14.188-0.742,20.937-2.293
				C493.788,243.944,493.259,234.835,491.712,227.489z"/>
		</g>
	</g>
	<g>
		<path fill="#8E7565" d="M497.037,268.837c0.156,0.172,0.354,0.332,0.607,0.484c3.785,2.256,4.967-4.232,4.197-7.121
			c-0.986-3.693-4.094-5.828-7.128-4.537c-2.238,0.951-3.52,3.808-2.99,6.591c0.764,3.999,2.609-1.466,4.176,1.643
			C496.49,267.069,496.323,268.052,497.037,268.837z"/>
		<g>
			<g>
				<path fill="#8E7565" d="M507.512,256.362c-0.001-2.338-0.105-4.434-0.316-6.354c-1.003,0.535-2.059,1.041-3.154,1.523
					c-0.443,2.211-0.936,4.385-1.5,6.485l-0.13,0.484l-1.875-0.509c1.03,0.982,1.84,2.334,2.271,3.95
					c0.569,2.137,0.222,5.669-1.201,7.521c-0.666,0.867-1.527,1.325-2.491,1.325c-0.639,0-1.305-0.204-1.983-0.608
					c-0.332-0.199-0.604-0.418-0.834-0.671c-0.576-0.634-0.746-1.339-0.896-1.96c-0.098-0.41-0.191-0.798-0.396-1.203
					c-0.171-0.34-0.292-0.441-0.29-0.455c-0.127,0.017-0.434,0.212-0.618,0.33c-0.416,0.264-0.888,0.564-1.458,0.564
					c-1.451,0-1.787-1.766-1.898-2.346c-0.62-3.257,0.92-6.566,3.581-7.698c0.234-0.1,0.472-0.177,0.71-0.244l-3.002-0.815
					l0.046-0.287c-6.382,1.438-13.456,2.207-20.783,2.207c-12.865,0-23.582-2.415-29.023-6.416
					c-3.562,19.04-1.527,39.184,1.26,53.47l6.029,0.698c4.398-15.007,13.539-26.835,24.456-35.565
					c8.354,12.376,16.867,23.794,30.55,36.612l5.893-0.071C507.867,283.992,507.512,273.976,507.512,256.362z"/>
			</g>
		</g>
	</g>
</g>
</svg>
