<?xml version="1.0" encoding="utf-8"?>
<!-- Generator: Adobe Illustrator 15.0.2, SVG Export Plug-In . SVG Version: 6.00 Build 0)  -->
<!DOCTYPE svg PUBLIC "-//W3C//DTD SVG 1.1//EN" "http://www.w3.org/Graphics/SVG/1.1/DTD/svg11.dtd">
<svg version="1.1" id="Layer_1" xmlns="http://www.w3.org/2000/svg" xmlns:xlink="http://www.w3.org/1999/xlink" x="0px" y="0px"
	 width="720px" height="460px" viewBox="0 0 720 460" enable-background="new 0 0 720 460" xml:space="preserve">
<g>
	<polygon fill="#ECEBE8" points="611.354,127.397 115.591,127.397 78.394,61.137 360.093,40.92 641.791,61.137 	"/>
	<polygon fill="#D8D3C1" points="611.354,150.392 115.591,150.392 78.394,61.137 641.791,61.137 	"/>
	<path fill="#C7C4BA" d="M626.232,224.859c-1.657,0-3-1.344-3-3V71.346c0-1.657,1.343-3,3-3s3,1.343,3,3v150.513
		C629.232,223.516,627.89,224.859,626.232,224.859z"/>
	<g>
		<g>
			<path fill="#AF9474" d="M501.701,181.39c-3.15,2.904-6.721,4.518-9.248,4.518c-2.996,0-6.746-1.835-9.754-4.704
				c-10.334,4.157-15.158,15.229-10.193,26.964l2.543-2.109c-1.625-10.027,3.637-10.436,3.637-10.436s-0.098,3.045-1.6,11.49h31.426
				c-0.65-6.375-0.969-10.354-0.969-10.354s5.32,2.209,5.029,10.936l3.781,1.162C519.227,196.793,512.031,185.712,501.701,181.39z"
				/>
		</g>
		<g>
			<path fill="#AF9474" d="M509.227,160.67c-1.553-6.384-6.883-11.248-13.09-12.218c-9.307-1.939-17.936,3.686-20.844,11.83
				c-2.307,6.456-0.277,12.325,2.816,16.398c0.348-1.827,1.658-11.202,4.191-13.004c2.531-1.801,8.107-4.573,13.158-6.399
				c2.176,3.029,9.654,7.31,10.479,9.651c1.186,3.371,0,10.584,0,10.584S511.256,169.012,509.227,160.67z"/>
			<g>
				<path fill="#AF9474" d="M504.994,167.26c-0.339-0.962-2.814-2.879-4.803-4.42c-1.9-1.473-3.858-2.989-5.064-4.376
					c-4.594,1.722-9.758,4.256-12.247,6.027c-1.212,0.862-2.382,4.44-3.481,10.626c3.21,6.347,9.26,9.791,13.055,9.791
					c3.551,0,9.451-3.576,12.766-9.598C505.488,172.802,505.671,169.184,504.994,167.26z M486.959,174.024
					c-0.811,0.005-1.443-1.004-1.422-2.254c0.027-1.248,0.703-2.265,1.508-2.269c0.807-0.005,1.443,1.001,1.418,2.253
					C488.439,173.004,487.766,174.02,486.959,174.024z M497.588,173.975c-0.781,0.004-1.393-1.025-1.367-2.301
					c0.027-1.276,0.684-2.312,1.463-2.316c0.779-0.002,1.391,1.027,1.363,2.302C499.021,172.936,498.361,173.969,497.588,173.975z"
					/>
			</g>
		</g>
	</g>
	<g>
		<g>
			<path fill="#AF9474" d="M330.919,184.74c-3.15,2.904-6.721,4.518-9.248,4.518c-2.996,0-6.746-1.836-9.754-4.705
				c-10.334,4.157-15.158,15.229-10.193,26.964l2.543-2.109c-1.625-10.027,3.637-10.436,3.637-10.436s-0.098,3.045-1.6,11.49h31.426
				c-0.65-6.375-0.969-10.354-0.969-10.354s5.32,2.209,5.029,10.936l3.781,1.162C348.444,200.143,341.249,189.062,330.919,184.74z"
				/>
		</g>
		<g>
			<path fill="#AF9474" d="M338.72,165.938c0.05-6.594-5.832-13.112-12.025-14.17c-6.932-1.186-16.146,1.975-19.273,7.057
				c-3.139,5.099-2.885,13.273,0.209,17.347c-0.238-2.08-0.238-6.531,1.045-9.442c1.297-2.94,4.238-5.191,9.73-5.362
				c4.738-0.147,13.24,1.908,15.32,8.152c1.319,3.957,0.662,9.233,0.662,9.233S338.659,173.752,338.72,165.938z"/>
			<g>
				<path fill="#AF9474" d="M333.396,178.628c0.006-0.05,0.615-5.095-0.618-8.794c-1.828-5.484-9.31-7.476-13.893-7.476
					c-0.153,0-0.304,0.003-0.448,0.007c-4.537,0.142-7.514,1.745-8.846,4.767c-1.16,2.628-1.214,6.777-0.968,8.925l0.354,3.097
					c3.287,5.909,9.037,9.104,12.693,9.104c3.123,0,8.062-2.771,11.463-7.535L333.396,178.628z M313.349,177.445
					c-0.812,0.005-1.445-1.004-1.422-2.254c0.025-1.248,0.703-2.265,1.508-2.269c0.805-0.005,1.441,1,1.418,2.254
					C314.829,176.425,314.153,177.441,313.349,177.445z M323.978,177.396c-0.783,0.004-1.393-1.025-1.369-2.301
					c0.027-1.276,0.686-2.313,1.465-2.316c0.779-0.002,1.389,1.027,1.363,2.302C325.411,176.357,324.749,177.39,323.978,177.396z"/>
			</g>
		</g>
	</g>
	<path fill="#C7C4BA" d="M122.546,245.686c-1.657,0-3-1.344-3-3v-99.58c0-1.656,1.343-3,3-3s3,1.344,3,3v99.58
		C125.546,244.342,124.203,245.686,122.546,245.686z"/>
	<path fill="#C7C4BA" d="M96.774,224.859c-1.657,0-3-1.344-3-3V71.346c0-1.657,1.343-3,3-3s3,1.343,3,3v150.513
		C99.774,223.516,98.432,224.859,96.774,224.859z"/>
	<path fill="#C7C4BA" d="M600.545,245.686c-1.657,0-3-1.344-3-3v-99.58c0-1.656,1.343-3,3-3s3,1.344,3,3v99.58
		C603.545,244.342,602.202,245.686,600.545,245.686z"/>
	<path fill="#DFDACC" d="M291.511,255.643c129.79-8.516,248.077,0.695,325.938,39.98c51.789,26.133,47.297,60.771,5.111,81.461
		c-46.93,23.014-142.172,41.996-276.983,41.996c-130.281,0-229.469-27.402-266.205-54.143c-26.412-19.225-17.41-51.488,30.09-71.787
		C161.165,271.059,212.657,260.814,291.511,255.643z"/>
	<g>
		<path fill="#738581" d="M461.209,192.674c10.24,0,22.945-1.679,32.748,0.939c21.445,5.734-13.092,10.6-19.768,10.6
			c-5.23,0-41.217,2.887-36.652-6.725C439.863,192.588,456.729,192.674,461.209,192.674z"/>
		<path fill="#D1B45B" d="M548.842,200.025c8.838,1.275,27.316-2.553,27.316,6.01c0,9.889-15.777,3.1-22.615,3.584
			c-2.627,0.186-26.043,4.045-23.445-7.135C531.316,197.24,545.66,199.564,548.842,200.025z"/>
		<path fill="#BF9930" d="M546.211,207.215c7.504,0,16.816-1.68,23.998,0.939c15.717,5.732-9.594,10.6-14.486,10.6
			c-3.832,0-30.205,2.887-26.859-6.727C530.568,207.129,542.928,207.215,546.211,207.215z"/>
		<path fill="#5A6F6B" d="M464.801,200.025c12.059,1.275,37.273-2.553,37.273,6.01c0,9.889-21.531,3.1-30.861,3.584
			c-3.584,0.186-35.535,4.045-31.99-7.135C440.887,197.24,460.457,199.564,464.801,200.025z"/>
		<path fill="#6A7D79" d="M461.209,207.215c10.24,0,22.945-1.68,32.748,0.939c21.445,5.732-13.092,10.6-19.768,10.6
			c-5.23,0-41.217,2.887-36.652-6.727C439.863,207.129,456.729,207.215,461.209,207.215z"/>
		<path fill="#6FAFA2" d="M514.465,188.838c8.838,1.276,27.316-2.551,27.316,6.011c0,9.889-15.779,3.098-22.617,3.584
			c-2.627,0.186-26.043,4.043-23.443-7.137C496.939,186.055,511.281,188.379,514.465,188.838z"/>
		<path fill="#78BDB3" d="M511.832,196.027c7.506,0,16.816-1.678,24,0.939c15.717,5.732-9.594,10.602-14.486,10.602
			c-3.834,0-30.207,2.887-26.861-6.729C496.189,195.943,508.549,196.027,511.832,196.027z"/>
		<path fill="#C9A84F" d="M390.876,205.291c5.869,0.01,24.614-5.125,23.233,8.488c-8.524,3.424-16.847,3.322-25.384,5.189
			c-4.516,0.988-18.154,8.365-17.311-5.336C372.091,202.633,385.696,205.283,390.876,205.291z"/>
		<path fill="#D8795C" d="M420.176,184.98c8.838,1.276,27.316-2.551,27.316,6.011c0,9.888-15.779,3.099-22.617,3.583
			c-2.627,0.186-26.042,4.045-23.444-7.134C402.649,182.197,416.992,184.521,420.176,184.98z"/>
		<path fill="#D2603A" d="M417.543,192.17c7.506,0,16.816-1.679,24,0.939c15.717,5.732-9.594,10.6-14.486,10.6
			c-3.834,0-30.206,2.887-26.86-6.727C401.901,192.086,414.26,192.17,417.543,192.17z"/>
		<path fill="#D8795C" d="M420.176,200.025c8.838,1.275,27.316-2.553,27.316,6.01c0,9.889-15.779,3.1-22.617,3.584
			c-2.627,0.186-26.042,4.045-23.444-7.135C402.649,197.24,416.992,199.564,420.176,200.025z"/>
		<path fill="#D3B863" d="M417.543,207.215c7.506,0,16.816-1.68,24,0.939c15.717,5.732-9.594,10.6-14.486,10.6
			c-3.834,0-30.206,2.887-26.86-6.727C401.901,207.129,414.26,207.215,417.543,207.215z"/>
		<path fill="#75B8AB" d="M514.465,203.641c8.838,1.275,27.316-2.553,27.316,6.01c0,9.891-15.779,3.1-22.617,3.584
			c-2.627,0.186-26.043,4.045-23.443-7.135C496.939,200.857,511.281,203.182,514.465,203.641z"/>
		<path fill="#6FAFA2" d="M511.832,209.389c7.506,0,16.816-1.68,24,0.939c15.717,5.732-9.594,10.6-14.486,10.6
			c-3.834,0-30.207,2.887-26.861-6.727C496.189,209.303,508.549,209.389,511.832,209.389z"/>
		<path fill="#D8714A" d="M591.121,220.438c-8.836-1.311-27.32,2.445-27.305-6.117c0.018-9.889,15.783-3.039,22.623-3.494
			c2.627-0.176,26.049-3.945,23.43,7.223C608.641,223.289,594.303,220.91,591.121,220.438z"/>
		<path fill="#D4643F" d="M593.766,213.256c-7.504-0.027-16.818,1.615-23.996-1.029c-15.707-5.795,9.613-10.564,14.506-10.545
			c3.832,0.016,30.211-2.77,26.848,6.83C609.408,213.404,597.049,213.271,593.766,213.256z"/>
		<path fill="#C15B40" d="M591.148,205.635c-8.836-1.311-27.32,2.445-27.305-6.115c0.018-9.89,15.783-3.039,22.623-3.496
			c2.627-0.176,26.051-3.943,23.43,7.225C608.668,208.488,594.33,206.107,591.148,205.635z"/>
		<path fill="#AD4B36" d="M593.791,199.898c-7.504-0.029-16.818,1.613-23.996-1.033c-15.707-5.795,9.613-10.562,14.506-10.544
			c3.832,0.016,30.211-2.769,26.848,6.832C609.434,200.045,597.074,199.912,593.791,199.898z"/>
	</g>
	<polygon fill="#A5AB4A" points="365.399,300.609 379.788,320.609 379.788,213.572 365.399,219.572 	"/>
	<rect x="379.788" y="213.572" fill="#BBBF75" width="250.556" height="107.037"/>
	<path fill="#6A7D79" d="M347.542,202.705c-4.338-3.877-38.666-4.996-40.998-1.26c-1.576,2.523-1.963,10.447-1.26,13.334
		c0.949,3.889,4.336,4.854,7.975,5.332c7.477,0.982,15.066,0.666,22.551,0.316c4.107-0.189,11.994,3.459,13.857-1.523
		C351.19,214.826,350.983,205.781,347.542,202.705z"/>
	<polygon fill="#A5AB4A" points="338.78,320.609 355.085,300.609 355.085,217.572 338.78,213.572 	"/>
	<path fill="#9BA14B" d="M165.255,193.359c-0.029-1.248,0.24-2.619,0.805-3.487c0.945-1.453,2.434-1.21,3.928-1.287
		c0.58-2.147,0.404-3.885,2.705-5.096c1.566-0.825,4.291-1.405,5.6,0.034c-0.121-2.258,1.844-4.005,3.928-4.496
		c1.445-0.342,4.457-0.355,5.121,1.225c-0.072-1.65,5.211-3.479,7.074-1.263c2.926-2.076,7.586-0.671,8.189,1.955
		c1.641-2.764,7.344-3.039,8.539,0.962c1.836-2.011,7.844-0.304,7.561,3.111c3.012-1.765,9.869-0.021,7.391,4.863
		c3.088-1.274,7.174,2.953,5.201,6.193c3.574-0.303,7.566,2.818,4.787,7.533c3.928,2.578,3.77,7.66-0.975,9.463
		c2.047,5.521-0.846,10.156-7.404,9.875c0.832,4.613-9.523,5.744-12.262,3.201c-5.338,4.525-14.869,4.553-20.799,1.361
		c-2.309-1.24-2.945-3.418-6.014-3.572c-1.887-0.098-4.549,1.916-6.68,2.068c-3.709,0.266-6.705-1.443-10.064-2.393
		c-5.516-1.559-10.48-5.139-11.945-10.918c-0.637-2.518-0.564-5.168-0.023-7.695c0.299-1.391,0.971-2.393,1.445-3.66
		c0.561-1.5,0.189-3.082,1.305-4.41c0.82-0.979,1.771-1.355,2.963-1.59C165.397,194.812,165.272,194.107,165.255,193.359z"/>
	<path fill="#D97651" d="M109.62,204.42c-0.453-4.811,4.787-9.25,9.199-8.221c0.209-5.266,8.346-8.351,11.193-5.053
		c2.186-5.065,8.658-4.257,12.209-0.984c5.309-4.267,13.012-1.881,14.768,2.156c4.316-0.861,7.807,0.385,7.967,4.91
		c4.611-1.957,9.871-0.312,9.48,5.365c5.461-0.471,8.84,7.006,6.395,10.635c12.869,10.514-28.902,17.998-35.52,18.293
		c-12.447,0.551-26.1-0.107-36.732-7.473C102.21,219.637,99.001,203.258,109.62,204.42z"/>
	<path fill="#AAB054" d="M245.778,198.055c-0.453-4.811,4.787-9.25,9.199-8.219c0.209-5.268,8.346-8.353,11.193-5.054
		c2.186-5.066,8.658-4.258,12.209-0.985c5.309-4.266,13.012-1.88,14.768,2.157c4.316-0.861,7.807,0.384,7.967,4.909
		c4.611-1.956,9.871-0.312,9.48,5.366c5.461-0.473,8.84,7.006,6.395,10.635c12.869,10.514-28.902,17.998-35.52,18.293
		c-12.447,0.551-26.1-0.107-36.732-7.473C238.368,213.271,235.159,196.893,245.778,198.055z"/>
	<path fill="#73B2A4" d="M276.546,196.969c5.652-1.391,9.639-0.58,13.646,2.432c2.977-3.506,5.818-5.877,10.598-5.779
		c4.723,0.096,9.805,2.607,9.42,9.264c5-4.029,12.805,2.182,12.773,8.654c-0.041,8.682-14.936,12.139-21.215,13.014
		c-10.521,1.467-21.15,0.213-29.309-7.055C264.921,210.781,268.876,198.855,276.546,196.969z"/>
	<path fill="#E1CC6C" d="M216.618,192.062c2.865,0.938,7.119,0.262,10.592-4.179c0.74,8.091,5.021,2.865,7.732-0.345
		c0.436,1.104,0.143,2.537-0.35,3.872c3.572,0.754,6.652-1.745,9.361-3.75c0.354,0.982-0.471,2.464-0.848,3.239
		c2.236,0.196,4.113-0.606,6.014-1.75c0.252,1.013-0.516,2.688-1.037,3.237c3.855,0.223,6.291-0.965,9.648-2.667
		c0.443,1.267-0.564,3.091-1.125,3.654c2.674,1.771,6.166,0.283,8.562-1.691c0.146,2.217,0.018,3.928-0.852,5.004
		c-1.1,1.361-1.84,2.547-3.262,3.316c-4.75,2.572-11.279,2.812-16.533,3.059c-6.004,0.283-10.672,0.309-16.615-0.617
		C220.046,201.219,218.597,199.205,216.618,192.062z"/>
	<path fill="#6A7D79" d="M217.153,200.598c7.072-2.244,15.303-1.574,23.363-1.613c7.5-0.035,25.145,0.518,28.359,2.871
		c3.215,2.352,6.133,20.891,0.189,22.508c-15.252,4.146-48.189,2.291-51.338-1.215C213.062,217.957,213.257,201.836,217.153,200.598
		z"/>
	<rect x="85.747" y="213.572" fill="#BBBF75" width="253.033" height="107.037"/>
	<g>
		<g>
			<g>
				<path fill="#7A574A" d="M466.23,335.584c-6.936,3.006-16.688,4.775-26.586,4.775c-9.211,0-19.361-1.668-23.669-6.107
					c-0.722,12.08,8.05,35.877,10.54,44.326l4.932,0.096c3.01-12.531,7.904-21.789,12.967-28.281
					c5.707,9.814,15.721,22.098,28.604,32.023l4.68-0.477c-6.756-18.916-7.564-28.045-10.229-42.469
					C467.207,338.051,466.773,336.766,466.23,335.584z"/>
			</g>
		</g>
		<path fill="#7A574A" d="M425.356,258.326c0.743-6.465,3.455-12.098,7.821-16.4c-1.214,0.062-2.371,0.158-3.41,0.271
			c-0.424,0.414-0.836,0.863-1.225,1.361c-6.885,8.764-6.156,24.5-6.156,24.5l1.426-1.254l1.498,4.191l0.366-0.322
			C425.021,267.061,424.829,262.93,425.356,258.326z"/>
		<path fill="#7A574A" d="M379.192,283.754c-0.285,1.123,0.809,2.156,2.854,2.176c1.41,0.01,2.471,0.033,3.078,0.652
			c0.82,0.834-0.893,2.051-0.334,2.734c0.445,0.545,1.303,0.199,1.977-0.262c0.869-0.592,1.564-1.551,1.859-2.262
			c0.57-1.379,0.803-2.504-0.658-3.748c-1.297-1.102-2.824-1.555-5.045-1.525C380.858,281.551,379.55,282.34,379.192,283.754z"/>
		<path fill="#7A574A" d="M498.52,329.312c-0.545,1.076-1.252,2.133-2.494,1.355c-1.1-0.688-0.936-1.879-1.109-2.965
			c-0.221-1.393-0.635-2.41-1.496-2.518c-1.162-0.143-1.082,1.959-1.965,1.93c-0.703-0.02-0.883-0.916-1-1.727
			c-0.121-0.875,0.215-2.018,0.549-2.709c0.732-1.523,2.064-2.117,3.58-1.742C497.861,321.744,500.082,326.232,498.52,329.312z"/>
		<path fill="#7A574A" d="M430.373,383.623c-1.344,0.156-4.443,0.439-5.65-0.25c-2.602-1.48,1.168-2.963,3.105-3.484
			C432.801,378.555,436.354,382.918,430.373,383.623z"/>
		<path fill="#7A574A" d="M477.592,387.213c-1.344,0.156-4.443,0.438-5.65-0.25c-2.598-1.479,1.168-2.967,3.105-3.484
			C480.023,382.143,483.574,386.512,477.592,387.213z"/>
		<g>
			<g>
				<path fill="#7A574A" d="M458.588,281.615c-0.877,0.512-2.049,1.123-2.982,1.363c-0.223,0.055-0.432,0.094-0.621,0.105
					l-0.906,0.068l-0.031-0.908c-0.002-0.074-0.002-0.074,0.064-0.746c0.75-7.521,1.121-12.92,1.104-16.045
					c-0.031-6.238-1.025-9.254-1.617-11.055c-0.098-0.295-0.184-0.555-0.25-0.787c-0.689-2.348-3.57-8.822-8.566-10.549
					c-3-1.039-6.713-1.283-10.123-1.199c-4.332,3.916-7.496,9.52-8.309,16.578c-1.93,16.846,5.838,26.908,10.287,27.932
					c4.258,0.979,13.707,0.25,21.971-4.451L458.588,281.615z M431.83,259.033c-0.424,1.662-1.369,2.852-2.117,2.662
					c-0.74-0.189-1.012-1.684-0.592-3.346c0.422-1.658,1.369-2.85,2.115-2.662C431.982,255.877,432.25,257.375,431.83,259.033z
					 M442.078,262.219c-0.412,1.625-1.432,2.77-2.285,2.553c-0.846-0.215-1.203-1.705-0.791-3.33
					c0.412-1.629,1.436-2.77,2.285-2.557C442.131,259.1,442.488,260.592,442.078,262.219z"/>
				<g>
					<path fill="#7A574A" d="M452.567,285.689c-3.921,1.322-8.086,2.062-11.935,2.062c-1.611,0-3.07-0.139-4.221-0.404
						c-1.677-0.387-3.682-1.836-5.539-4.229c-12.303,0.643-23.35,3.713-39.272,0.955l-1.217,6.645
						c11.65,5.916,27.491,7.713,27.491,7.713s-3.893,10.332-2.844,32.291c2.699,10.541,36.352,11.234,52.486,3.168
						c-2.973-15.117-4.656-25.385-4.656-25.385s13.488,0.02,26.107,13.375l5.01-3.043
						C481.086,299.941,465.83,289.967,452.567,285.689z"/>
				</g>
			</g>
			<path fill="#7A574A" d="M469.979,242.896c-3.08-3.59-6.439-6.275-11.561-7.701c-5.664-1.574-10.67-0.992-17.449-0.945
				c-5.402,0.037-15.754-1.385-15.754-1.385l7.08,4.861l-7.686,4.35c0,0,5.411-0.834,6.977-0.975s3.875-0.254,4.293-0.254
				c3.693,0,6.799,0.428,9.229,1.27c6.499,2.246,9.172,11.123,9.199,11.217c0.064,0.221,0.146,0.469,0.243,0.758
				c0.609,1.859,1.631,4.969,1.664,11.357c0.018,3.162-0.355,8.594-1.107,16.146c-0.023,0.236-0.039,0.383-0.048,0.475
				c0.089-0.014,0.189-0.033,0.298-0.061c0.66-0.17,1.604-0.604,2.729-1.258l1.398-0.812l0.161,2.543l0.183,5.074l6.156-4.875
				l0.355,3.953c0,0,7.449-11.324,9.266-21.443C477.328,255.576,473.686,247.223,469.979,242.896z"/>
		</g>
	</g>
	<g>
		<g>
			<g>
				<g>
					<path fill="#AF9474" d="M500.994,289.85c-0.045,0.434-0.121,0.861-0.219,1.264c-0.164,0.674-0.445,1.064-1.107,0.695
						c-0.537-0.299-0.457-1.377-1.168-1.326c-0.875,0.062-1.494,2.156-1.936,2.758c-0.914,1.25-2.809,2.998-4.559,2.156
						c-4.545-2.188,0.404-13.447,6.148-11.393C500.621,284.885,501.238,287.504,500.994,289.85z"/>
				</g>
				<g>
					<g>
						<path fill="#AF9474" d="M539.424,303.402c-5.912,0-13.727-0.789-17.378-4.547c-0.042-0.043-0.077-0.088-0.118-0.133
							c-7.027,17.645-5.889,36.713,2.568,58.281l6.293-0.906c1.133-19.236,9.934-34.725,26.502-40.635
							c5.654,15.891,18.443,32.119,38.043,40.266l5.99-4.082c-18.752-19.121-13.863-47.131-18.114-64.275
							C579.236,297.211,555.404,303.402,539.424,303.402z"/>
					</g>
				</g>
				<path fill="#AF9474" d="M592.055,282.971c-0.141-1.389-0.094-2.777-0.402-4.143c-1.328-0.072-2.051,2.396-3.35,1.758
					c-2.141-1.055,2.285-5.982,3.326-6.586c3.342-1.934,8.439,0.217,9.145,4.061c0.613,3.336-1.623,7.178-5.127,7.984
					C592.891,286.678,592.262,285,592.055,282.971z"/>
				<path fill="#AF9474" d="M528.23,364.537c-1.879,0.51-6.221,1.559-7.916,0.75c-3.656-1.74,1.605-4.762,4.311-5.949
					C531.576,356.305,536.596,362.266,528.23,364.537z"/>
				<path fill="#AF9474" d="M602.586,360.113c-1.588,1.117-5.307,3.586-7.178,3.404c-4.033-0.385-0.123-5.021,2.023-7.061
					C602.924,351.229,609.676,355.115,602.586,360.113z"/>
				<g>
					<path fill="#AF9474" d="M563.578,224.785l0.214,0.316l-1.872,0.01h-0.122c-4.985,0-8.72-1.523-11.015-2.822
						c-0.562-0.033-1.119-0.045-1.676-0.055c-0.145,0.42-0.307,0.883-0.489,1.379c0.026,0.289,0.043,0.486,0.048,0.553l0.04,0.498
						l-0.374,0.332c-0.119,0.104-0.243,0.201-0.363,0.305c-0.198,0.492-0.41,0.994-0.635,1.502l-0.441,0.998l-0.957-0.529
						c-0.086-0.047-0.168-0.096-0.252-0.145c-7.301,5.412-16.164,8.314-21.457,8.314c-0.089,0-0.176-0.002-0.262-0.004
						c-0.969-0.02-2.088-0.312-3.289-0.871c-15.225,14.416-24.038,36.93-26.484,46.295l7.736,2.029
						c3.795-5.594,11.229-18.682,17.023-25.662c3.508,7.014,2.627,20.656,2.166,36.777c-0.455,15.914,59.052,7.012,61.594-8.467
						c-5.541-26.488-18.988-42.742-18.988-42.742s21.303,1.455,30.1,28.855l6.527,1.846
						C601.746,248.896,583.102,231.139,563.578,224.785z"/>
				</g>
				<g>
					<path fill="#AF9474" d="M570.5,215.422c-3.041-3.908-6.062-8.625-8.264-17.732c-2.68-11.065-5.514-16.294-10.777-20.341
						c-4.373-3.361-8.836-5.746-15.031-6.024c-10.936-0.493-28.031,7.763-29.725,17.739c3.701-3.976,13.6-2.377,17.961,3.833
						c3.645,5.188,4.773,11.334,8.104,17.994c4.732,9.463,8.566,12.691,13.652,15.506c1.482-3.342,2.428-6.637,2.428-6.637
						s4.801,4.393,13.068,4.352c-2.346-3.473-4.545-9.498-4.545-9.498S566.785,216.102,570.5,215.422z"/>
					<g>
						<path fill="#AF9474" d="M531.873,211.338c-1.393-2.785-2.393-5.445-3.361-8.02c-1.334-3.547-2.594-6.896-4.666-9.848
							c-2.707-3.854-7.535-5.58-11.117-5.58c-1.493,0-2.805,0.281-3.848,0.803c-2.424,4.755-3.646,10.414-3.064,16.726
							c1.803,19.418,12.92,28.914,18.168,29.018c4.449,0.09,13.142-2.295,20.76-7.852
							C539.894,223.701,536.258,220.107,531.873,211.338z M512.766,213.752c-0.992,0.16-2.049-1.25-2.359-3.154
							c-0.311-1.908,0.25-3.58,1.242-3.742s2.051,1.252,2.359,3.154C514.316,211.914,513.762,213.59,512.766,213.752z"/>
					</g>
				</g>
			</g>
		</g>
	</g>
	<g>
		<g>
			<g>
				<g>
					<g>
						<path fill="#AF9474" d="M121.84,246.109c-4.763,4.006-12.138,5.75-24.954,1.604l-5.125,6.506
							c8.207,6.35,18.434,10.191,29.959,9.889C121.22,257.846,121.231,251.537,121.84,246.109z"/>
					</g>
				</g>
				<g>
					<path fill="#AF9474" d="M84.878,246.141c0.021-0.08,0.045-0.16,0.07-0.238c0.709-2.26,3.338-4.516,4.773-3.506
						c0.592-1.535,3.291-0.266,4.117,1.316c1.545,2.957,0.119,7.875-3.477,8.535C86.386,252.973,83.905,249.723,84.878,246.141z"/>
				</g>
				<g>
					<g>
						<path fill="#AF9474" d="M144.845,295.91c-7.647,0-13.295-1.814-16.326-5.168c-6.971,17.643-5.811,36.705,2.643,58.26
							l6.307-0.91c1.139-19.285,9.961-34.812,26.572-40.738c5.67,15.932,18.492,32.201,38.143,40.369l6.006-4.092
							c-19.045-19.42-13.771-47.982-18.336-65.105C181.321,288.799,159.515,295.91,144.845,295.91z"/>
					</g>
				</g>
				<g>
					<path fill="#AF9474" d="M199.849,274.678c-1.814-0.668-3.369-2.184-2.434-3.348c-1.25-1.334-0.949-4.387,1.053-5.549
						c3.35-1.938,8.463,0.217,9.17,4.07C208.536,274.746,203.55,276.041,199.849,274.678z"/>
				</g>
				<g>
					<path fill="#AF9474" d="M134.903,356.555c-1.883,0.51-6.236,1.564-7.936,0.752c-3.666-1.744,1.609-4.775,4.32-5.963
						C138.259,348.301,143.29,354.277,134.903,356.555z"/>
				</g>
				<g>
					<path fill="#AF9474" d="M209.452,352.119c-1.592,1.119-5.318,3.596-7.195,3.414c-4.043-0.387-0.123-5.035,2.027-7.08
						C209.792,343.211,216.562,347.109,209.452,352.119z"/>
				</g>
				<g>
					<path fill="#AF9474" d="M158.464,211.916c-2.986,3.123-5.845,4.529-6.537,4.84c-6.99,6.121-16.229,9.67-22.311,10.264
						c-2.887,4.463-5.143,9.666-6.191,15.201c-2.49,13.139-0.459,34.381,4.293,45.467c6.289,14.67,50.062,4.838,61.809-10.338
						c-8.357-24.305-11.895-43.9-11.895-43.9s14.217,2.508,23.035,29.979l6.545,1.852
						C208.969,234.318,181.581,213.49,158.464,211.916z"/>
				</g>
				<g>
					<path fill="#AF9474" d="M155.192,168.877c-4.383-3.369-8.857-5.761-15.07-6.04c-10.963-0.494-31.836,9.428-28.91,17.992
						c3.711-3.986,12.742-2.591,17.115,3.638c3.654,5.2,7.473,16.792,12.885,17.736c6.725,1.172,10.182,13.695,10.182,13.695
						s10.592-4.414,13.215-18.559C167.233,183.198,160.47,172.935,155.192,168.877z"/>
					<g>
						<path fill="#AF9474" d="M150.429,216.164c-0.914-3.312-4.383-12.104-9.389-12.977c-4.24-0.738-7.244-6.545-10.15-12.162
							c-1.182-2.285-2.299-4.444-3.381-5.984c-2.326-3.313-6.391-5.455-10.354-5.455c-2.205,0-4.057,0.684-5.212,1.925l-0.085,0.092
							c-1.996,4.478-2.957,9.678-2.428,15.42c1.809,19.469,12.955,28.988,18.217,29.092c4.873,0.098,14.826-2.77,22.903-9.51
							L150.429,216.164z M116.397,205.375c-0.994,0.162-2.053-1.252-2.363-3.16c-0.311-1.914,0.248-3.59,1.246-3.754
							c0.992-0.162,2.055,1.256,2.363,3.164C117.954,203.533,117.397,205.213,116.397,205.375z"/>
					</g>
				</g>
			</g>
		</g>
	</g>
	<g>
		<g>
			<g>
				<path fill="#A1856E" d="M301.692,310.096c0.321-3.467,0.428-6.549,0.308-9.348c-12.159,6.785-29.228,10.67-47.104,10.67
					c-16.281,0-29.973-3.287-37-8.717c-5.132,25.744-3.062,53.045,0.709,72.375l8.113,0.939
					c5.916-20.193,18.062-36.584,32.75-48.332c8.949,21.318,19.682,35.844,41.262,49.738l7.926-1.096
					C299.757,349.002,299.757,330.936,301.692,310.096z"/>
			</g>
		</g>
		<path fill="#A1856E" d="M190.403,292.889c1.889,0.625,4.404-1.596,4.873-5.432c0.295-2.406-1.23-3.986-0.266-5.121
			c1.299-1.529,2.965,1.184,4.047,0.123c0.867-0.846,0.148-2.26-0.746-3.34c-1.145-1.396-2.938-2.9-4.201-3.295
			c-2.445-0.768-4.361-0.527-6.258,2.16c-1.688,2.381-2.295,4.17-1.902,7.965C186.317,289.473,188.296,292.189,190.403,292.889z"/>
		<path fill="#A1856E" d="M364.421,279.387c-0.809,4.982-9.549-0.348-12.23,1.277c-1.719,1.045,0.621,3.795-0.6,4.691
			c-0.969,0.723-2.166-0.295-3.186-1.262c-1.092-1.053-1.852-2.951-2.137-4.244c-0.633-2.83,0.535-5.045,2.977-6.15
			C353.772,271.65,365.229,274.402,364.421,279.387z"/>
		<path fill="#A1856E" d="M222.917,384.488c-2.281,0.062-7.525,0.068-9.234-1.324c-3.695-2.99,3.141-4.988,6.555-5.594
			C229.003,376.021,233.087,384.199,222.917,384.488z"/>
		<path fill="#A1856E" d="M307.286,386.826c-2.275,0.061-7.518,0.062-9.229-1.326c-3.693-2.992,3.139-4.99,6.557-5.596
			C313.378,378.354,317.462,386.533,307.286,386.826z"/>
		<g>
			<g>
				<path fill="#A1856E" d="M267.433,199.361c-3.609-2.207-6.322-1.848-9.701-2.32c-0.418-8.473-1.584-14.576-5.297-19.641
					c-3.133-4.262-9.953-7.781-16.164-8.791c-4.609-0.748-10.184-0.662-13.977,1.434c-4.469,2.468-5.441,8.967-5.787,15.41
					c-2.133-10.923,3.227-22.312,10.402-28.615c6.943-6.104,29.48-13.291,43.521-2.933c22.768,16.79,9.502,49.714,6.75,54.093
					c-1.076,1.709-6.383,6.145-8.076,7.059C270.642,207.9,270.528,201.256,267.433,199.361z"/>
			</g>
			<g>
				<path fill="#A1856E" d="M266.792,200.406c-0.795-0.486-1.572-0.859-2.377-1.133c-1.5-0.52-2.943-0.645-4.465-0.77
					c-0.76-0.064-1.551-0.133-2.387-0.252l-1-0.143l-0.051-1.006c-0.389-7.777-1.398-13.981-5.064-18.979
					c-2.824-3.848-9.629-7.277-15.066-8.179c-4.09-0.675-10.168-0.605-13.465,1.302c-4.016,2.315-4.861,8.153-5.191,14.271
					c-0.137,2.521-0.109,5.073,0.082,7.586l0.033,0.424c0.023,0.186,0.037,0.357,0.051,0.514
					c2.949,21.994,15.768,32.805,21.973,32.945c5.027,0.115,15.357-2.07,23.291-7.988c1.764-1.316,3.365-2.848,4.803-4.438
					C269.478,207.318,269.024,201.77,266.792,200.406z M223.647,195.895c-1.086-0.051-1.889-2.057-1.783-4.48
					c0.109-2.43,1.084-4.36,2.176-4.31c1.092,0.049,1.891,2.054,1.785,4.48C225.714,194.014,224.741,195.941,223.647,195.895z
					 M238.392,196.402c-1.238-0.057-2.164-2.025-2.059-4.404c0.105-2.379,1.199-4.261,2.441-4.209
					c1.24,0.058,2.162,2.027,2.057,4.407C240.729,194.574,239.632,196.459,238.392,196.402z"/>
				<g>
					<path fill="#A1856E" d="M343.153,276.266l8.234-5.787c-27.537-35.096-58.982-50.137-83.941-53.92
						c-1.217,1.23-2.455,2.318-3.693,3.242c-8.057,6.01-18.469,8.191-23.501,8.191c-0.14,0-0.278-0.002-0.411-0.004
						c-3.119-0.072-8.074-2.697-12.639-8.221c-17.256,6.5-31.472,21.762-37.533,54.135l9.881,1.562
						c6.08-20.346,19.676-28.225,19.676-28.225s-5.607,22.625-2.953,52.623c11.672,13.23,59.568,15.092,86.293-0.574
						c-0.873-25.385-5.674-42.959-5.674-42.959S320.003,254.822,343.153,276.266z"/>
				</g>
			</g>
		</g>
	</g>
</g>
</svg>
