<?xml version="1.0" encoding="utf-8"?>
<!-- Generator: Adobe Illustrator 15.0.2, SVG Export Plug-In . SVG Version: 6.00 Build 0)  -->
<!DOCTYPE svg PUBLIC "-//W3C//DTD SVG 1.1//EN" "http://www.w3.org/Graphics/SVG/1.1/DTD/svg11.dtd">
<svg version="1.1" id="Layer_1" xmlns="http://www.w3.org/2000/svg" xmlns:xlink="http://www.w3.org/1999/xlink" x="0px" y="0px"
	 width="720px" height="460px" viewBox="0 0 720 460" enable-background="new 0 0 720 460" xml:space="preserve">
<g>
	<path fill="#D6C9AC" d="M532.791,174.734c-14.001-11.416-18.371-44.263-21.883-70.656c-1.42-10.679-2.646-19.9-4.307-26.486
		l0.97-0.245c1.673,6.642,2.903,15.89,4.329,26.598c3.487,26.219,7.828,58.849,21.522,70.014L532.791,174.734z"/>
	<path fill="#69C4BA" d="M507.189,77.428c-19.707-1.307-45.512-10.634-50.373-32.364c-5.586-24.975,27.787-38.356,42.398-21.984
		c13.094-19.346,44.693-10.187,44.508,14.539C543.531,63.402,506.447,78.372,507.189,77.428z"/>
</g>
<path fill="#D2D367" d="M284.195,245.233c143.65-10.53,274.574,0.861,360.75,49.44c57.322,32.316,52.352,75.151,5.656,100.734
	c-51.941,28.461-157.354,51.935-306.564,51.935c-144.197,0-253.978-33.886-294.638-66.954
	c-29.234-23.774-19.272-63.671,33.303-88.774C139.926,264.296,196.92,251.629,284.195,245.233z"/>
<path fill="#69C4BA" d="M303.252,307.433c15.016,0.914,29.859-11.785,32.453-18.672c4.402-11.685-2.863-22.557-18.105-26.146
	c-16.463-3.878-24.266,6.354-26.203,17.997c-1.242,7.462-0.756,21.534,8.953,26.206c-1.09,0.188-1.951,0.812-3.17,0.881
	c0.213,0.68,3.393,3.346,5.059,3.709C303.906,310.507,303.252,307.433,303.252,307.433z"/>
<g>
	<g>
		<g>
			<g>
				<g>
					<g>
						<polygon fill="#A1906D" points="536.605,246.735 541.963,246.735 543.131,212.606 537.773,212.606 						"/>
						<polygon fill="#AE9E7D" points="536.605,246.735 534.756,243.211 535.729,212.286 537.773,212.606 						"/>
					</g>
					<g>
						<polygon fill="#A1906D" points="580.631,246.735 585.986,246.735 587.156,212.606 581.799,212.606 						"/>
						<polygon fill="#AE9E7D" points="580.631,246.735 578.779,243.211 579.754,212.286 581.799,212.606 						"/>
					</g>
				</g>
			</g>
		</g>
		<g>
			<path fill="#AE9E7D" d="M531.125,192.031l-0.824,19.577l1.064,1.426c2.68-11.602,5.24-21.366,6.331-25.438
				C536.254,188.344,533.996,189.708,531.125,192.031z"/>
			<path fill="#AE9E7D" d="M532.148,214.086l0.055,0.073l62.803-37.261l-1.902-2.551h-61.234l-0.688,16.356
				c5.005-3.92,8.03-4.875,8.03-4.875S535.775,198.288,532.148,214.086z"/>
		</g>
	</g>
	<g>
		<g>
			<g>
				<g>
					<path fill="#A1856E" d="M532.752,221.292c2.539,1.157,5.398,2.191,8.555,3.078c16.391,4.61,41.193,4.914,50.619-2.305
						c1.355,20.933-8.168,47.005-11.758,57.926l-5.674-0.91c-2.754-16.407-8.838-32.551-16.004-38.219
						c-10.064,5.932-17.963,17.75-26.137,32.319l-6.207-1.092C525.355,254.6,527.289,235.356,532.752,221.292z"/>
				</g>
			</g>
			<g>
				<path fill="#A1856E" d="M503.838,215.983c0.625,1.312,1.447,2.609,2.969,1.705c1.346-0.798,1.184-2.238,1.424-3.546
					c0.307-1.676,0.836-2.892,1.877-2.995c1.406-0.14,1.25,2.396,2.316,2.385c0.852-0.005,1.094-1.081,1.258-2.055
					c0.172-1.056-0.201-2.441-0.586-3.289c-0.84-1.858-2.43-2.611-4.271-2.203C504.846,206.866,502.037,212.22,503.838,215.983z"/>
			</g>
			<g>
				<path fill="#A1856E" d="M616.58,226.845c-0.918,1.13-2.023,2.195-3.287,0.956c-1.119-1.092-0.623-2.453-0.547-3.78
					c0.096-1.701-0.131-3.008-1.121-3.354c-1.332-0.469-1.779,2.033-2.812,1.771c-0.824-0.206-0.807-1.309-0.736-2.294
					c0.082-1.066,0.771-2.325,1.344-3.06c1.256-1.607,2.979-1.965,4.67-1.134C617.75,217.746,619.219,223.613,616.58,226.845z"/>
			</g>
		</g>
		<g>
			<g>
				<g>
					<path fill="#A1856E" d="M576.762,146.134c-2.676-1.64-4.689-1.371-7.197-1.721c-0.312-6.292-1.178-10.821-3.934-14.58
						c-2.326-3.166-7.387-5.777-11.998-6.526c-3.422-0.555-7.561-0.491-10.375,1.064c-3.316,1.832-4.039,6.656-4.297,11.438
						c-1.582-8.109,2.396-16.563,7.723-21.242c5.154-4.529,21.883-9.865,32.307-2.176c16.9,12.464,7.053,36.904,5.008,40.154
						c-0.797,1.268-4.736,4.562-5.992,5.239C579.146,152.473,579.062,147.542,576.762,146.134z"/>
				</g>
			</g>
			<g>
				<g>
					<g>
						<g>
							<path fill="#A1856E" d="M539.99,142.187c2.188,16.325,11.703,24.35,16.309,24.456c3.734,0.084,11.4-1.538,17.289-5.932
								c1.309-0.977,2.498-2.112,3.566-3.294c1.127-5.377,0.793-9.495-0.865-10.509c-0.59-0.361-1.168-0.637-1.764-0.841
								c-1.115-0.384-2.188-0.476-3.316-0.57c-0.564-0.048-1.15-0.099-1.77-0.187l-0.744-0.104l-0.039-0.75
								c-0.287-5.772-1.037-10.378-3.758-14.088c-2.096-2.854-7.146-5.401-11.184-6.07c-3.037-0.501-7.549-0.448-9.996,0.965
								c-2.98,1.721-3.607,6.053-3.854,10.594c-0.1,1.872-0.08,3.766,0.061,5.631l0.025,0.316
								C539.969,141.941,539.98,142.069,539.99,142.187z M555.206,143.938c-0.919-0.042-1.606-1.504-1.526-3.27
								c0.078-1.766,0.891-3.162,1.812-3.124c0.918,0.042,1.602,1.506,1.525,3.271C556.939,142.579,556.127,143.977,555.206,143.938
								z M544.553,137.035c0.811,0.036,1.402,1.526,1.324,3.327c-0.08,1.804-0.803,3.234-1.615,3.198
								c-0.805-0.038-1.4-1.525-1.324-3.326C543.021,138.431,543.744,136.999,544.553,137.035z"/>
						</g>
						<g>
							<g>
								<path fill="#A1856E" d="M515.574,207.285l-5.959-3.816c12.107-19.742,23.746-34.469,38.129-40.766
									c2.753,2.96,5.631,4.63,7.893,4.941c0.217,0.029,0.434,0.047,0.639,0.051c3.789,0.087,11.695-1.478,17.945-6.14
									c0.271-0.203,0.541-0.419,0.812-0.644c20.805,6.357,33.988,31.304,39.193,52.248l-6.652,2.234
									c-7.07-18.263-19.689-29.041-19.689-29.041s5.963,14.155,6.543,30.579c-3.557,12.645-44.201,12.521-63.445,2.323
									c4.02-18.162,8.229-33.427,8.229-33.427S529.266,188.946,515.574,207.285z"/>
								<path fill="#A1906D" d="M533.2,190.43l-0.757,18.001c2.268-9.539,4.311-17.314,5.253-20.834
									C536.621,188.153,535.096,189.049,533.2,190.43z"/>
							</g>
						</g>
					</g>
				</g>
			</g>
		</g>
	</g>
	<g>
		<g>
			<g>
				<g>
					<g>
						<polygon fill="#A1906D" points="471.752,246.735 466.396,246.735 465.227,212.606 470.584,212.606 						"/>
						<polygon fill="#AE9E7D" points="471.752,246.735 473.602,243.211 472.629,212.286 470.584,212.606 						"/>
					</g>
					<g>
						<polygon fill="#A1906D" points="427.729,246.735 422.371,246.735 421.201,212.606 426.559,212.606 						"/>
						<polygon fill="#AE9E7D" points="427.729,246.735 429.578,243.211 428.604,212.286 426.559,212.606 						"/>
					</g>
				</g>
			</g>
		</g>
		<g>
			<polygon fill="#AE9E7D" points="413.354,176.898 476.156,214.159 478.057,211.608 476.49,174.347 415.254,174.347 			"/>
			<polygon fill="#A1906D" points="414.92,214.159 476.156,214.159 474.59,176.898 413.354,176.898 			"/>
		</g>
	</g>
	<g>
		<g>
			<g>
				<polygon fill="#AE9E7D" points="412.738,329.524 405.9,329.524 404.408,276.394 411.246,276.394 				"/>
				<polygon fill="#A1906D" points="412.738,329.524 415.1,326.789 413.857,276.146 411.246,276.394 				"/>
			</g>
			<g>
				<polygon fill="#AE9E7D" points="469.247,329.524 462.41,329.524 460.916,276.394 467.756,276.394 				"/>
				<polygon fill="#A1906D" points="469.247,329.524 471.609,326.789 470.367,276.146 467.756,276.394 				"/>
			</g>
		</g>
		<g>
			<polygon fill="#AE9E7D" points="476.812,273.931 395.645,273.931 408.531,255.165 480.1,255.165 			"/>
			<polygon fill="#A1906D" points="476.721,280.017 396.404,280.017 395.645,273.931 476.812,273.931 477.727,268.714 
				478.816,268.714 			"/>
		</g>
	</g>
	<g>
		<g>
			<g>
				<polygon fill="#AE9E7D" points="556.438,329.524 563.275,329.524 564.768,276.394 557.93,276.394 				"/>
				<polygon fill="#A1906D" points="556.438,329.524 554.076,326.789 555.318,276.146 557.93,276.394 				"/>
			</g>
			<g>
				<polygon fill="#AE9E7D" points="612.637,329.524 619.475,329.524 620.967,276.394 614.129,276.394 				"/>
				<polygon fill="#A1906D" points="612.637,329.524 610.273,326.789 611.518,276.146 614.129,276.394 				"/>
			</g>
		</g>
		<g>
			<polygon fill="#AE9E7D" points="628.986,273.931 549.312,273.931 542.504,255.165 617.373,255.165 			"/>
			<polygon fill="#A1906D" points="628.225,280.017 549.312,280.017 545.518,268.714 542.504,255.165 549.312,273.931 
				628.986,273.931 			"/>
		</g>
	</g>
	<g>
		<g>
			<polygon fill="#AE9E7D" points="389.877,314.206 375.706,314.206 372.613,253.342 386.785,253.342 			"/>
			<polygon fill="#A1906D" points="389.877,314.206 392.773,307.538 390.197,252.552 386.785,253.342 			"/>
		</g>
		<g>
			<polygon fill="#AE9E7D" points="365.994,368.292 348.461,368.292 342.721,282.739 360.256,282.739 			"/>
			<polygon fill="#A1906D" points="365.994,368.292 370.051,359.567 364.949,281.765 360.256,282.739 			"/>
		</g>
		<g>
			<polygon fill="#BCAD8D" points="659.504,289.137 310.984,289.137 355.324,221.749 604.24,221.749 			"/>
			<polygon fill="#A1906D" points="658.041,298.103 312.447,298.103 310.984,288.912 659.504,288.912 			"/>
		</g>
	</g>
	<g>
		<g>
			<path fill="#D56E4F" d="M390.506,214.421c-5.846,0-10.584,0.938-10.584,2.387l2.725,23.459c0,1.318,3.518,2.389,7.859,2.389
				c4.34,0,7.859-1.07,7.859-2.389l2.725-23.459C401.09,215.358,396.35,214.421,390.506,214.421z"/>
			<ellipse fill="#DA8166" cx="390.505" cy="216.808" rx="9.786" ry="1.861"/>
		</g>
		<g>
			<path fill="#D36847" d="M390.506,229.836c-4.535,0-8.324-0.903-9.318-2.123l1.459,12.554c0,1.318,3.518,2.389,7.859,2.389
				c4.34,0,7.859-1.07,7.859-2.389l1.459-12.555C398.831,228.933,395.043,229.836,390.506,229.836z"/>
		</g>
		<ellipse fill="#D99A8A" cx="390.505" cy="227.214" rx="9.382" ry="2.466"/>
	</g>
	<g>
		<ellipse fill="#F8F0DD" cx="438.109" cy="236.479" rx="20.525" ry="9.41"/>
		<ellipse fill="#F8F0DD" cx="438.109" cy="233.519" rx="25.572" ry="9.41"/>
		<ellipse fill="#ECE5D3" cx="438.109" cy="233.519" rx="17.809" ry="6.554"/>
		<path fill="#AAB036" d="M426.621,230.699c0.777-0.199,0.844-0.571,1.658-0.339c0.396,0.114,1.227,0.319,1.449,0.859
			c0.648,1.585-2.08,2.145-2.809,2.192c-0.814,0.054-2.857-0.013-2.891-1.609C423.99,229.916,425.877,230.89,426.621,230.699z"/>
		<path fill="#E1CC6C" d="M451.57,234.819c0.021,0.041,0.035,0.085,0.043,0.131c0.104,0.658-0.68,1.467-1.02,1.766
			c-0.888,0.779-2.104,1.024-3.129,1.313c-3.066,0.866-6.227,1.163-9.355,1.163c-3.154,0-6.344-0.3-9.434-1.185
			c-1.459-0.418-5.918-1.257-4.328-4.45c0.381-0.768,1.186-1.203,1.727-1.628c0.416-0.327,0.426-0.469,0.918-0.616
			c0.434-0.131,0.629,0.114,1.082-0.15c0.68-0.398,1.266-1.151,1.93-1.61c1.41-0.974,3.66-1.295,5.191-1.196
			c0.549,0.036,1.193-0.155,1.732-0.006c0.373,0.104,0.684,0.523,1.006,0.626c0.529,0.171,0.762-0.039,1.266-0.277
			c0.801-0.378,0.691-0.398,1.477-0.103c0.342,0.129,0.225,0.279,0.668,0.28c0.354,0.001,0.693-0.5,1.08-0.378
			c0.359,0.113,0.448,0.646,0.754,0.816c0.33,0.184,0.727,0.129,1.08,0.148c1.27,0.068,3.146,0.583,4.098,1.727
			c0.529,0.638,0.701,0.878,1.355,1.322c0.732,0.494,0.609,0.921,1.125,1.618C451.006,234.359,451.428,234.531,451.57,234.819z"/>
	</g>
	<g>
		<path fill="#9F9F9D" d="M402.086,232.165c-1.562,2.5-3.975,7.015-2.938,7.022c2.215,0.019,4.719-5.176,5.062-7.788
			c0.322-2.442,3.736-6.439,2.432-6.906C405.389,224.044,403.842,229.36,402.086,232.165z"/>
		<path fill="#9F9F9D" d="M406.391,234.617c-2.227-0.263-3.596,5.534-3.211,5.683s1.322-3.385,1.811-3.311
			c0.488,0.072-0.68,3.569-0.268,3.672c0.412,0.104,1.074-3.537,1.656-3.441c0.561,0.093-0.594,3.479-0.045,3.578
			c0.605,0.111,0.859-3.485,1.449-3.344c0.598,0.144-0.4,3.468,0,3.55c0.688,0.142,2.334-5.861,0.346-6.134
			c0.346-1.479,2.717-9.912,1.395-10.082C408.395,224.643,406.74,234.659,406.391,234.617z"/>
	</g>
	<g>
		<path fill="#9F9F9D" d="M475.785,265.327c2.045-2.372,5.227-6.675,3.924-6.728c-2.777-0.115-6.096,4.847-6.617,7.382
			c-0.488,2.371-4.908,6.123-3.289,6.636C471.361,273.11,473.484,267.987,475.785,265.327z"/>
		<path fill="#9F9F9D" d="M470.465,262.744c2.785,0.354,4.701-5.246,4.225-5.407c-0.479-0.162-1.775,3.247-2.385,3.153
			c-0.609-0.093,0.975-3.456,0.461-3.574s-1.469,3.407-2.195,3.288c-0.701-0.115,0.863-3.371,0.177-3.492
			c-0.755-0.135-1.196,3.365-1.933,3.201c-0.746-0.166,0.623-3.367,0.123-3.466c-0.859-0.168-3.131,5.62-0.645,5.974
			c-0.484,1.429-3.748,9.559-2.092,9.783C467.611,272.395,470.029,262.689,470.465,262.744z"/>
	</g>
	<g>
		<ellipse fill="#F8F0DD" cx="567.388" cy="235.223" rx="20.524" ry="9.409"/>
		<ellipse fill="#F8F0DD" cx="567.388" cy="232.263" rx="25.571" ry="9.41"/>
		<ellipse fill="#ECE5D3" cx="567.388" cy="232.263" rx="17.808" ry="6.553"/>
		<path fill="#AAB036" d="M576.15,231.012c0.777-0.198,0.844-0.571,1.658-0.339c0.396,0.114,1.227,0.319,1.449,0.86
			c0.648,1.584-2.08,2.144-2.809,2.192c-0.814,0.053-2.857-0.014-2.891-1.61C573.52,230.229,575.406,231.202,576.15,231.012z"/>
		<path fill="#E1CC6C" d="M555.58,233.563c-0.018,0.041-0.029,0.084-0.035,0.131c-0.088,0.657,0.568,1.468,0.852,1.766
			c0.744,0.779,1.762,1.023,2.619,1.313c2.568,0.866,5.215,1.163,7.834,1.163c2.641,0,5.311-0.301,7.896-1.186
			c1.221-0.417,4.953-1.256,3.625-4.45c-0.318-0.767-0.994-1.203-1.445-1.627c-0.35-0.327-0.357-0.469-0.77-0.616
			c-0.363-0.132-0.527,0.114-0.906-0.151c-0.568-0.397-1.061-1.15-1.615-1.609c-1.18-0.974-3.062-1.296-4.346-1.196
			c-0.459,0.035-1-0.155-1.451-0.006c-0.312,0.104-0.572,0.522-0.842,0.625c-0.443,0.172-0.637-0.038-1.061-0.276
			c-0.67-0.378-0.578-0.397-1.236-0.103c-0.285,0.129-0.188,0.278-0.559,0.279c-0.295,0.001-0.58-0.5-0.904-0.377
			c-0.299,0.113-0.375,0.646-0.631,0.816c-0.275,0.184-0.608,0.129-0.904,0.147c-1.062,0.069-2.633,0.584-3.43,1.727
			c-0.443,0.639-0.586,0.879-1.135,1.323c-0.613,0.494-0.51,0.92-0.941,1.619C556.053,233.104,555.699,233.275,555.58,233.563z"/>
		<path fill="#C05803" d="M572.896,231.039c-0.471,0.005-0.951-0.281-1.389,0.111c-0.08-0.296-0.383-0.493-0.58-0.631
			c-0.244-0.169-0.334-0.065-0.564,0.04c-0.312,0.145-0.393,0.008-0.627-0.239c-0.205-0.218-0.291-0.139-0.521,0.022
			c-0.109,0.076-0.218,0.189-0.348,0.158c-0.074-0.019-0.096-0.137-0.16-0.156c-0.232-0.07-0.283,0.205-0.486,0.251
			c-0.229,0.05-0.344-0.238-0.574-0.126c-0.09,0.045-0.113,0.183-0.221,0.226c-0.111,0.044-0.271-0.036-0.381-0.067
			c-0.119-0.031-0.248-0.111-0.371-0.088c-0.053,0.011-0.066,0.109-0.113,0.123c-0.211,0.061-0.34-0.126-0.541-0.148
			c-0.178-0.018-0.176,0.11-0.324,0.147c-0.207,0.051-0.364-0.27-0.555-0.256c-0.113,0.009-0.17,0.205-0.32,0.192
			c-0.16-0.014-0.236-0.186-0.365-0.277c-0.1-0.07-0.225-0.084-0.326-0.16c-0.055-0.041-0.451-0.494-0.172-0.556
			c-0.236,0.052-0.258-0.271-0.275-0.511c-0.014-0.201,0.062-0.168-0.002-0.334c-0.045-0.116-0.238-0.082-0.217-0.288
			c0.023-0.23,0.383-0.189,0.471-0.3c0.135-0.166,0.014-0.07,0.07-0.234c0.088-0.258-0.133-0.271,0.176-0.473
			c0.146-0.096,0.326-0.077,0.477-0.155c0.387-0.199,0.652-0.339,1.113-0.335c0.314,0.003,0.555-0.15,0.887-0.184
			c0.191-0.021,0.369-0.129,0.553-0.146c0.197-0.019,0.48,0.233,0.66,0.154c0.127-0.057,0.133-0.261,0.273-0.34
			c0.215-0.123,0.693,0.126,0.941,0.131c0.637,0.011,1.215,0.014,1.816,0.291c0.273,0.125,0.504,0.135,0.791,0.102
			c0.387-0.045,0.465,0.198,0.801,0.297c0.184,0.055,0.268-0.103,0.43-0.115c0.4-0.026,0.504,0.6,0.881,0.586
			c0.158-0.006,0.271-0.081,0.385,0.087c0.062,0.092,0.035,0.243,0.107,0.334c0.092,0.114,0.264,0.122,0.367,0.241
			c0.035,0.043-0.008,0.117,0.023,0.155c0.051,0.067,0.15,0.075,0.195,0.152c0.035,0.061,0.002,0.142,0.025,0.188
			c0.012,0.021,0.117,0.139,0.119,0.152c0.045,0.278-0.064,0.188-0.18,0.402c0.24,0.197,0.219,0.789-0.117,0.625
			c0.268,0.408-0.256,0.384-0.418,0.396c-0.066,0.652-0.965,0.514-1.32,0.551C572.959,231.037,572.928,231.038,572.896,231.039z"/>
	</g>
	<g>
		<ellipse fill="#F8F0DD" cx="432.12" cy="268.442" rx="25.058" ry="11.488"/>
		<ellipse fill="#F8F0DD" cx="432.12" cy="264.83" rx="31.22" ry="11.487"/>
		<ellipse fill="#ECE5D3" cx="432.12" cy="264.83" rx="21.741" ry="8"/>
		<path fill="#AAB036" d="M442.818,263.302c0.949-0.242,1.031-0.697,2.023-0.413c0.486,0.139,1.5,0.389,1.77,1.05
			c0.793,1.934-2.539,2.617-3.43,2.676c-0.994,0.066-3.488-0.016-3.527-1.965C439.605,262.345,441.908,263.534,442.818,263.302z"/>
		<path fill="#E1CC6C" d="M417.703,266.417c-0.021,0.051-0.035,0.104-0.043,0.16c-0.105,0.803,0.695,1.791,1.041,2.156
			c0.908,0.951,2.15,1.249,3.197,1.603c3.135,1.058,6.367,1.42,9.564,1.42c3.223,0,6.482-0.366,9.641-1.446
			c1.49-0.51,6.049-1.534,4.426-5.434c-0.389-0.937-1.215-1.469-1.766-1.986c-0.426-0.398-0.436-0.572-0.938-0.754
			c-0.445-0.159-0.645,0.14-1.107-0.184c-0.693-0.485-1.295-1.404-1.973-1.965c-1.439-1.189-3.738-1.581-5.305-1.461
			c-0.561,0.044-1.221-0.188-1.771-0.008c-0.383,0.127-0.699,0.64-1.027,0.765c-0.543,0.209-0.779-0.048-1.295-0.338
			c-0.818-0.462-0.705-0.485-1.51-0.126c-0.35,0.158-0.229,0.341-0.682,0.343c-0.361,0.001-0.709-0.61-1.104-0.462
			c-0.367,0.139-0.459,0.789-0.771,0.996c-0.336,0.225-0.742,0.158-1.104,0.182c-1.299,0.085-3.215,0.714-4.188,2.107
			c-0.541,0.78-0.717,1.074-1.387,1.615c-0.746,0.604-0.621,1.124-1.148,1.977C418.281,265.856,417.85,266.065,417.703,266.417z"/>
		<path fill="#C05803" d="M438.846,263.335c-0.576,0.006-1.162-0.344-1.695,0.137c-0.098-0.362-0.469-0.603-0.709-0.77
			c-0.299-0.207-0.408-0.082-0.688,0.048c-0.383,0.177-0.48,0.01-0.768-0.292c-0.25-0.266-0.355-0.169-0.635,0.026
			c-0.133,0.095-0.266,0.231-0.424,0.193c-0.092-0.021-0.119-0.167-0.197-0.19c-0.283-0.086-0.346,0.25-0.594,0.306
			c-0.279,0.063-0.42-0.29-0.701-0.152c-0.109,0.054-0.139,0.224-0.27,0.275c-0.135,0.054-0.332-0.046-0.463-0.083
			c-0.146-0.038-0.305-0.135-0.456-0.107c-0.063,0.014-0.081,0.134-0.136,0.15c-0.26,0.074-0.416-0.153-0.662-0.181
			c-0.217-0.021-0.213,0.135-0.395,0.181c-0.254,0.061-0.445-0.329-0.678-0.312c-0.139,0.01-0.209,0.25-0.393,0.234
			c-0.195-0.017-0.287-0.228-0.445-0.338c-0.121-0.086-0.273-0.103-0.398-0.197c-0.066-0.049-0.551-0.604-0.209-0.679
			c-0.289,0.063-0.314-0.329-0.336-0.622c-0.018-0.246,0.076-0.206-0.002-0.407c-0.055-0.144-0.293-0.101-0.266-0.353
			c0.027-0.282,0.469-0.232,0.576-0.365c0.162-0.204,0.016-0.087,0.084-0.287c0.107-0.315-0.162-0.33,0.215-0.576
			c0.178-0.117,0.398-0.096,0.582-0.19c0.473-0.243,0.797-0.413,1.359-0.409c0.385,0.004,0.676-0.183,1.082-0.225
			c0.234-0.023,0.451-0.155,0.674-0.178c0.242-0.023,0.588,0.285,0.809,0.188c0.152-0.068,0.16-0.318,0.332-0.415
			c0.262-0.15,0.846,0.153,1.148,0.159c0.779,0.014,1.484,0.019,2.221,0.356c0.332,0.153,0.613,0.166,0.965,0.124
			c0.471-0.056,0.566,0.242,0.979,0.363c0.223,0.066,0.324-0.127,0.523-0.141c0.488-0.033,0.615,0.732,1.074,0.715
			c0.195-0.008,0.332-0.1,0.471,0.105c0.075,0.112,0.043,0.298,0.131,0.408c0.111,0.14,0.322,0.148,0.447,0.295
			c0.045,0.051-0.008,0.144,0.029,0.188c0.062,0.082,0.186,0.093,0.24,0.188c0.043,0.073,0,0.171,0.031,0.228
			c0.014,0.026,0.141,0.169,0.143,0.186c0.057,0.342-0.076,0.23-0.219,0.492c0.293,0.24,0.268,0.963-0.143,0.763
			c0.326,0.499-0.312,0.469-0.51,0.484c-0.082,0.796-1.178,0.626-1.611,0.671C438.922,263.333,438.885,263.335,438.846,263.335z"/>
	</g>
	<g>
		<path fill="#9F9F9D" d="M533.561,234.614c-0.564,2.786-1.186,7.676-0.18,7.322c2.15-0.756,2.602-6.287,1.943-8.749
			c-0.613-2.304,1.173-7.078-0.264-7.042C533.676,226.181,534.195,231.486,533.561,234.614z"/>
		<path fill="#9F9F9D" d="M538.654,235.313c-2.254,0.541-1.379,6.217-0.951,6.216c0.43-0.001-0.004-3.497,0.496-3.601
			c0.5-0.104,0.697,3.438,1.135,3.386s-0.303-3.546,0.297-3.662c0.578-0.113,0.746,3.325,1.314,3.224
			c0.627-0.111-0.492-3.426,0.135-3.503c0.631-0.081,0.926,3.249,1.346,3.184c0.719-0.113,0.035-6.071-1.994-5.622
			c-0.227-1.447-1.131-9.838-2.475-9.527C536.811,225.669,539.01,235.229,538.654,235.313z"/>
	</g>
	<g>
		<g>
			<path fill="#92ABC2" d="M520.096,217.859c-5.496,0-9.951,0.882-9.951,2.244l2.562,22.058c0,1.239,3.31,2.245,7.39,2.245
				c4.082,0,7.391-1.006,7.391-2.245l2.561-22.058C530.047,218.741,525.592,217.859,520.096,217.859z"/>
			<ellipse fill="#ADC7D8" cx="520.096" cy="220.104" rx="9.201" ry="1.75"/>
		</g>
		<g>
			<path fill="#95B2C8" d="M520.096,232.353c-4.264,0-7.826-0.85-8.76-1.995l1.37,11.804c0,1.239,3.31,2.245,7.39,2.245
				c4.082,0,7.391-1.006,7.391-2.245l1.371-11.805C527.924,231.503,524.361,232.353,520.096,232.353z"/>
		</g>
		<path fill="#9EC3D6" d="M528.918,229.888c0,1.279-3.947,2.318-8.822,2.318c-4.873,0-8.82-1.039-8.82-2.318
			c0-1.28,3.947-2.315,8.82-2.315C524.971,227.572,528.918,228.607,528.918,229.888z"/>
	</g>
	<g>
		<g>
			<path fill="#859491" d="M365.152,226.95c-6.584,0-11.922,1.058-11.922,2.689l3.068,26.425c0,1.485,3.965,2.69,8.854,2.69
				c4.891,0,8.854-1.205,8.854-2.69l3.068-26.425C377.074,228.008,371.736,226.95,365.152,226.95z"/>
			<ellipse fill="#93A09E" cx="365.152" cy="229.64" rx="11.023" ry="2.097"/>
		</g>
		<g>
			<path fill="#788986" d="M365.152,239.776c-5.107,0-10.213-0.949-11.088-2.604l2.234,18.893c0,1.485,3.965,2.69,8.854,2.69
				c4.891,0,8.854-1.205,8.854-2.69l2.193-18.893C375.814,238.573,370.264,239.776,365.152,239.776z"/>
		</g>
		<path fill="#9FABA9" d="M376.156,236.885c0,1.597-4.924,2.892-11.004,2.892c-6.078,0-11.004-1.295-11.004-2.892
			s4.926-2.888,11.004-2.888C371.232,233.997,376.156,235.288,376.156,236.885z"/>
	</g>
	<g>
		<g>
			<path fill="#D56E4F" d="M503.742,229.659c-5.818,0-10.533,1.401-10.533,3.565l2.711,25.325c0,1.971,3.502,3.567,7.822,3.567
				c4.318,0,7.82-1.597,7.82-3.567l2.711-25.325C514.273,231.061,509.557,229.659,503.742,229.659z"/>
			<ellipse fill="#DA8166" cx="503.741" cy="233.226" rx="9.739" ry="2.781"/>
		</g>
		<g>
			<path fill="#D36847" d="M503.742,246.667c-4.514,0-9.023-1.259-9.797-3.453l1.975,15.336c0,1.971,3.502,3.567,7.822,3.567
				c4.318,0,7.82-1.597,7.82-3.567l1.938-15.336C513.16,245.072,508.256,246.667,503.742,246.667z"/>
		</g>
		<ellipse fill="#D99A8A" cx="503.741" cy="242.833" rx="9.722" ry="3.834"/>
	</g>
	<g>
		<ellipse fill="#F8F0DD" cx="556.07" cy="270.564" rx="25.666" ry="11.767"/>
		<ellipse fill="#F8F0DD" cx="556.069" cy="266.864" rx="31.978" ry="11.767"/>
		<ellipse fill="#ECE5D3" cx="556.069" cy="266.864" rx="22.269" ry="8.194"/>
		<path fill="#AAB036" d="M541.705,263.338c0.971-0.249,1.055-0.715,2.072-0.425c0.496,0.143,1.533,0.4,1.811,1.076
			c0.812,1.98-2.6,2.682-3.512,2.741c-1.018,0.067-3.572-0.017-3.613-2.013C538.414,262.358,540.771,263.575,541.705,263.338z"/>
		<path fill="#E1CC6C" d="M572.902,268.489c0.025,0.052,0.045,0.107,0.053,0.164c0.129,0.823-0.848,1.836-1.273,2.209
			c-1.109,0.973-2.631,1.28-3.912,1.642c-3.836,1.083-7.787,1.455-11.701,1.455c-3.943,0-7.932-0.376-11.795-1.482
			c-1.824-0.522-7.4-1.571-5.414-5.565c0.477-0.959,1.484-1.504,2.16-2.035c0.521-0.408,0.533-0.586,1.146-0.771
			c0.545-0.163,0.789,0.144,1.355-0.188c0.85-0.498,1.582-1.439,2.412-2.013c1.764-1.218,4.576-1.62,6.492-1.496
			c0.686,0.045,1.492-0.194,2.166-0.008c0.467,0.13,0.855,0.654,1.258,0.783c0.662,0.214,0.951-0.048,1.584-0.347
			c1-0.473,0.863-0.497,1.846-0.128c0.427,0.16,0.281,0.349,0.834,0.35c0.443,0.001,0.869-0.626,1.352-0.472
			c0.449,0.142,0.561,0.807,0.943,1.021c0.412,0.229,0.908,0.161,1.35,0.185c1.588,0.087,3.936,0.73,5.123,2.159
			c0.662,0.798,0.877,1.099,1.697,1.653c0.914,0.619,0.76,1.152,1.406,2.025C572.195,267.915,572.725,268.13,572.902,268.489z"/>
	</g>
</g>
<g>
	<g>
		<g>
			<polygon fill="#AE9E7D" points="654.877,332.882 575.203,332.882 568.395,314.116 643.266,314.116 			"/>
			<g>
				<g>
					<polygon fill="#A1906D" points="582.328,388.477 589.166,388.477 590.658,301.094 583.82,301.094 					"/>
					<polygon fill="#AE9E7D" points="582.328,388.477 579.967,383.978 581.209,300.687 583.82,301.094 					"/>
				</g>
				<g>
					<polygon fill="#A1906D" points="638.527,388.477 645.365,388.477 646.859,301.094 640.02,301.094 					"/>
					<polygon fill="#AE9E7D" points="638.527,388.477 636.166,383.978 637.408,300.687 640.02,301.094 					"/>
				</g>
			</g>
			<polygon fill="#A1906D" points="654.115,338.968 575.203,338.968 571.408,327.667 568.395,314.116 575.203,332.882 
				654.877,332.882 			"/>
		</g>
	</g>
	<g>
		<polygon fill="#AE9E7D" points="656.877,255.511 576.707,303.076 574.281,299.819 576.281,252.254 654.451,252.254 		"/>
		<polygon fill="#A1906D" points="654.877,303.076 576.707,303.076 578.707,255.511 656.877,255.511 		"/>
	</g>
</g>
<g>
	<g>
		<g>
			<polygon fill="#AE9E7D" points="367.9,336.017 447.574,336.017 454.383,317.251 379.514,317.251 			"/>
			<g>
				<g>
					<polygon fill="#A1906D" points="440.449,391.61 433.611,391.61 432.119,302.661 438.957,302.661 					"/>
					<polygon fill="#AE9E7D" points="440.449,391.61 442.811,387.03 441.568,302.246 438.957,302.661 					"/>
				</g>
				<g>
					<polygon fill="#A1906D" points="384.25,391.61 377.412,391.61 375.92,302.494 382.758,302.494 					"/>
					<polygon fill="#AE9E7D" points="384.25,391.61 386.613,387.202 385.369,305.589 382.758,305.989 					"/>
				</g>
			</g>
			<polygon fill="#A1906D" points="368.662,342.103 447.574,342.103 451.369,330.801 454.383,317.251 447.574,336.017 
				367.9,336.017 			"/>
		</g>
	</g>
	<g>
		<polygon fill="#AE9E7D" points="365.9,258.646 446.01,307.042 448.436,303.784 446.497,255.389 368.328,255.389 		"/>
		<polygon fill="#A1906D" points="367.84,307.042 446.01,307.042 444.07,258.646 365.9,258.646 		"/>
	</g>
</g>
<path fill="#D77457" d="M344.844,376.792c-0.877-18.393-22.953-34.943-34.088-37.277c-18.893-3.96-34.73,6.188-37.988,25.174
	c-3.521,20.508,13.629,28.783,32.076,29.749c11.826,0.619,33.691-1.659,39.487-14.038c0.459,1.304,1.565,2.277,1.858,3.754
	c1.027-0.342,4.697-4.53,5.008-6.604C349.537,375.627,344.844,376.792,344.844,376.792z"/>
<path fill="#81B1CA" d="M489.428,352.991c5.643,13.906,27.088,20.671,36.281,19.459c15.6-2.057,25.037-14.138,22.414-29.619
	c-2.832-16.721-18.254-18.452-32.701-14.213c-9.262,2.718-25.461,10.376-26.572,21.46c-0.707-0.878-1.82-1.328-2.445-2.385
	c-0.697,0.54-2.387,4.752-2.066,6.431C486.135,355.154,489.428,352.991,489.428,352.991z"/>
<g>
	<g>
		<g>
			<path fill="#C83B0C" d="M256.229,256.323c-1.081,1.646-2.423,3.235-4.295,1.74c-1.659-1.316-1.177-3.219-1.258-5.017
				c-0.104-2.305-0.588-4.032-1.968-4.362c-1.859-0.447-2.117,2.981-3.546,2.771c-1.14-0.163-1.265-1.651-1.307-2.988
				c-0.037-1.446,0.719-3.237,1.39-4.305c1.47-2.337,3.741-3.054,6.134-2.167C256.555,243.91,259.337,251.609,256.229,256.323z"/>
			<path fill="#C83B0C" d="M108.237,253.47c1.022,1.684,2.31,3.316,4.231,1.89c1.703-1.26,1.288-3.177,1.433-4.972
				c0.185-2.298,0.728-4.009,2.118-4.29c1.873-0.384,2.013,3.054,3.448,2.894c1.143-0.124,1.321-1.607,1.409-2.941
				c0.088-1.444-0.606-3.26-1.239-4.35c-1.389-2.387-3.634-3.184-6.054-2.381C108.346,241.052,105.295,248.651,108.237,253.47z"/>
			<path fill="#C83B0C" d="M158.479,340.369c-2.141,0.358-7.08,1.044-8.879-0.041c-3.871-2.34,2.311-5.118,5.451-6.134
				C163.113,331.585,168.033,338.767,158.479,340.369z"/>
			<path fill="#C83B0C" d="M222.619,340.245c2.158,0.222,7.135,0.604,8.857-0.595c3.721-2.569-2.621-4.961-5.82-5.781
				C217.449,331.766,212.984,339.236,222.619,340.245z"/>
		</g>
		<g>
			<g>
				<g>
					<g>
						<g>
							<g>
								<path fill="#C83B0C" d="M244.527,241.422l7.979-1.988c-3.436-35.111-21.77-51.996-40.139-58.896
									c-4.236,3.463-8.402,5.173-11.495,5.173c-0.294,0-0.587-0.017-0.864-0.047c-5.098-0.583-15.414-4.136-22.936-11.541
									c-0.328-0.322-0.652-0.663-0.973-1.013c-29.074,4.696-51.348,35.725-62.186,62.854l8.51,4.223
									c12.846-23.192,31.756-35.322,31.756-35.322s-4.289,21.928-8.092,43.849c2.441,17.613,73.299,19.18,83.836,6.729
									c-2.045-25.098-10.895-50.737-10.895-50.737S236.602,210.439,244.527,241.422z"/>
								<g>
									<g>
										<path fill="#C83B0C" d="M193.027,264.567c-11.732,0-22.905-1.314-31.461-3.703c-6.462-1.804-11.111-4.162-13.807-6.951
											c-5.024,27.602,2.672,63.148,5.422,78.146l7.777-0.176c6.715-21.499,17.846-42.029,28.502-48.311
											c12.402,9.807,20.822,27.112,29.1,48.156l8.525-0.321c4.043-22.017,4.025-52.483,0.02-72.538
											C219.629,263.015,205.324,264.567,193.027,264.567z"/>
									</g>
								</g>
							</g>
						</g>
					</g>
				</g>
			</g>
		</g>
		<g>
			<path fill="#C83B0C" d="M230.328,128.527c0.371,0.759,0.707,1.559,0.998,2.411c5.082,15.063-3.389,35.873-3.389,35.873
				l-1.32-2.365l-4.01,4.922l-0.439-0.786c2.568-4.514,4.766-9.929,6.232-16.307c2.088-9.071,0.972-18.135-2.803-25.853
				C227.305,127.12,228.906,127.842,230.328,128.527z"/>
		</g>
		<path fill="#C83B0C" d="M209.738,121.296c-7.881-0.059-15.047,7.146-17.555,10.624c-1.439,1.989-4.744,5.434-8.312,15.337
			c-2.666,7.403-6.355,22.951-6.414,23.097c-1.928-0.847-4.98-4.956-4.98-4.956l-4.16,9.801l-5.955-9.483L160,170.859
			c0,0-4.621-18.771-2.246-33.241c2.262-13.745,11.135-23.245,18.18-27.294c5.85-3.36,11.645-5.374,19.207-4.851
			c8.367,0.58,14.818,3.745,23.912,7.035c7.24,2.623,21.836,5.641,21.836,5.641l-11.83,3.164l8.26,9.507
			C237.318,130.82,221.746,121.381,209.738,121.296z"/>
		<path fill="#C83B0C" d="M178.617,170.809l-0.475,1.208l-1.186-0.522c-0.248-0.108-0.514-0.256-0.785-0.439
			c-1.139-0.763-2.422-2.146-3.361-3.252l-0.172,0.405c8.873,10.25,21.229,15.731,27.424,16.443
			c6.467,0.741,21.701-9.09,27.125-32.656c2.27-9.875,0.682-18.919-3.279-26.245c-4.543-1.736-9.646-3.175-14.182-3.209
			c-7.537-0.055-14.488,7.278-16.537,10.107c-0.199,0.28-0.438,0.59-0.711,0.938c-1.652,2.142-4.424,5.724-7.436,14.094
			c-1.51,4.197-3.582,11.629-6.158,22.098C178.656,170.712,178.656,170.712,178.617,170.809z M221.117,154.77
			c-1.096-0.103-1.799-2.153-1.578-4.586c0.227-2.432,1.299-4.321,2.391-4.22c1.094,0.104,1.799,2.157,1.574,4.588
			C223.279,152.984,222.201,154.869,221.117,154.77z M206.895,145.479c1.246,0.118,2.076,2.139,1.854,4.526
			c-0.221,2.38-1.408,4.215-2.648,4.102c-1.248-0.117-2.074-2.143-1.857-4.523C204.469,147.203,205.658,145.365,206.895,145.479z"/>
	</g>
	<g>
		<polygon fill="#FCF0CF" points="235.219,283.275 228.303,292.132 235.219,300.988 226.361,294.073 217.506,300.988 
			224.422,292.132 217.506,283.275 226.361,290.191 		"/>
		<polygon fill="#FCF0CF" points="232.293,292.132 227.012,292.782 226.361,298.062 225.713,292.782 220.432,292.132 
			225.711,291.483 226.361,286.201 227.012,291.482 		"/>
	</g>
	<g>
		<polygon fill="#FCF0CF" points="169.338,308.083 165.037,313.587 169.338,319.094 163.83,314.795 158.326,319.095 
			162.625,313.588 158.324,308.082 163.831,312.382 		"/>
		<polygon fill="#FCF0CF" points="167.518,313.588 164.234,313.991 163.831,317.275 163.428,313.992 160.145,313.587 
			163.426,313.185 163.83,309.9 164.236,313.185 		"/>
	</g>
	<g>
		<polygon fill="#FCF0CF" points="152.164,259.563 153.535,270.715 164.688,272.088 153.535,273.46 152.164,284.612 150.791,273.46 
			139.639,272.088 150.791,270.715 		"/>
		<polygon fill="#FCF0CF" points="156.357,267.894 153.082,272.087 156.357,276.28 152.164,273.007 147.969,276.28 151.244,272.088 
			147.969,267.894 152.164,271.168 		"/>
	</g>
	<g>
		<polygon fill="#FCF0CF" points="127.4,280.303 108.191,269.372 109.676,266.765 		"/>
		<polygon fill="#FCF0CF" points="95.005,306.181 94.978,303.181 117.795,305.969 		"/>
		<polygon fill="#FCF0CF" points="105.682,344.368 104.497,341.612 126.188,335.56 		"/>
		<polygon fill="#FCF0CF" points="247.531,272.978 267.16,262.933 268.527,265.603 		"/>
		<polygon fill="#FCF0CF" points="253.961,302.46 282.148,301.563 282.244,304.562 		"/>
		<polygon fill="#FCF0CF" points="274.764,343.427 249.885,332.791 275.629,340.555 		"/>
		<polygon fill="#FCF0CF" points="245.025,376.458 233.246,356.943 247.367,374.583 		"/>
		<polygon fill="#FCF0CF" points="138.826,374.767 136.453,372.931 151.68,358.151 		"/>
		<polygon fill="#FCF0CF" points="193.697,385.181 190.697,385.181 193.697,364.517 		"/>
	</g>
</g>
</svg>
