<?xml version="1.0" encoding="utf-8"?>
<!-- Generator: Adobe Illustrator 15.0.2, SVG Export Plug-In . SVG Version: 6.00 Build 0)  -->
<!DOCTYPE svg PUBLIC "-//W3C//DTD SVG 1.1//EN" "http://www.w3.org/Graphics/SVG/1.1/DTD/svg11.dtd">
<svg version="1.1" id="Layer_1" xmlns="http://www.w3.org/2000/svg" xmlns:xlink="http://www.w3.org/1999/xlink" x="0px" y="0px"
	 width="720px" height="460px" viewBox="0 0 720 460" enable-background="new 0 0 720 460" xml:space="preserve">
<path fill="#C8DDE8" d="M276.169,35.99c132.333-20.889,252.945,1.708,332.333,98.071c52.807,64.102,48.229,149.071,5.211,199.818
	c-47.85,56.458-144.959,103.019-282.415,103.019c-132.842,0-233.975-67.216-271.432-132.812
	c-26.93-47.158-17.754-126.297,30.68-176.094C143.263,73.801,195.768,48.675,276.169,35.99z"/>
<polygon fill="#8E7565" points="182.27,341.596 166.557,321.402 127.25,326.694 127.25,331.229 139.043,353.992 182.27,347.945 "/>
<polygon fill="#AF9474" points="182.27,341.596 139.043,347.644 127.25,326.694 166.557,321.402 "/>
<path fill="#8E7565" d="M164.902,324.381c-0.272,0-0.494-0.221-0.498-0.493l-2.417-222.35c-0.004-0.275,0.217-0.501,0.493-0.504
	c0.27-0.003,0.501,0.218,0.504,0.493l2.417,222.349c0.004,0.276-0.217,0.503-0.493,0.505
	C164.906,324.381,164.904,324.381,164.902,324.381z"/>
<path fill="#8E7565" d="M132.42,329.352c-0.271,0-0.494-0.218-0.499-0.49l-3.324-221.867c-0.004-0.275,0.215-0.502,0.491-0.506
	c0.261-0.007,0.501,0.216,0.506,0.491l3.324,221.866c0.004,0.276-0.215,0.502-0.49,0.506
	C132.426,329.352,132.423,329.352,132.42,329.352z"/>
<path fill="#8E7565" d="M48.026,118.452c-0.506,0-0.938-0.383-0.991-0.897c-0.054-0.547,0.346-1.036,0.894-1.091
	c67.422-6.733,132.525-18.731,193.431-30.444c0.546-0.104,1.062,0.25,1.167,0.79c0.104,0.541-0.25,1.063-0.79,1.167
	c-60.949,11.722-126.105,23.729-193.609,30.471C48.092,118.451,48.059,118.452,48.026,118.452z"/>
<path fill="#8E7565" d="M617.796,319.678c-0.021,0-0.044,0-0.066-0.002c-96.366-6.479-104.563-8.069-150.052-16.892
	c-9.465-1.838-20.193-3.918-33.702-6.437c-0.541-0.102-0.897-0.621-0.797-1.162s0.623-0.899,1.162-0.798
	c13.517,2.521,24.248,4.603,33.717,6.438c46.429,9.008,53.563,10.392,149.805,16.861c0.549,0.038,0.965,0.514,0.928,1.062
	C618.755,319.275,618.316,319.678,617.796,319.678z"/>
<path fill="#8E7565" d="M651.883,335.231c-48.471,0-207.152-15.401-208.749-15.558c-0.548-0.054-0.949-0.541-0.895-1.088
	c0.053-0.549,0.533-0.947,1.088-0.895c1.596,0.155,160.181,15.547,208.556,15.547c0.551,0,0.996,0.446,0.996,0.997
	C652.879,334.784,652.434,335.231,651.883,335.231z"/>
<path fill="#8E380A" d="M280.876,306.589c-1.291,33.688-8.42,128.988-6.951,133.972c2.225,7.536,26.144,16.689,44.754,18.447
	c26.502,2.503,69.564,0.88,77.761-12.005c8.228-12.928,7.067-111.223,7.478-143.096
	C362.706,303.368,321.568,300.689,280.876,306.589z"/>
<polygon fill="#8E7565" points="526.894,321.396 419.518,295.368 180.401,297.859 180.401,309.236 220.482,352.579 526.133,336.107 
	"/>
<polygon fill="#AF9474" points="526.894,321.396 220.482,337.869 180.401,297.859 434.158,286.143 "/>
<g>
	<path fill="#8E380A" d="M489.944,39.876c-10.437-6.515-21.449-8.151-28.697-2.948c-5.441,3.907-30.647,19.971-38.688,23.526
		c-1.235-3.67-1.586-21.762-1.813-30.816c-0.135-5.334-19.11-7.152-20.812-2.151c-3.91,11.488-4.492,29.64-1.515,42.462
		c-9.271,4.192-28.981,16.232-38.713,18.564c-8.634,2.07-26.221-11.804-30.258-21.192c0.102-8.604,5.341-26.957,9.323-38.187
		c3.295-9.289-17.339-16.497-22.784-12.101c-7.511,6.06-7.173,25.875-17.42,18.295c-3.881-2.87-18.788-29.213-22.22-32.996
		c-8.795-9.693-48.919,13.359-48.108,22.464c0.185,2.068,22.309,36.583,18.097,36.843c-14.748,0.909-25.855,0.508-45.003-3.041
		c-11.55-2.142-23.586,22.071-17.369,26.483c11.131,7.899,65.658,14.361,76.69,15.453c7.227,0.713,12.55,10.249,14.471,17.606
		c5.699,21.846,7.721,47.099,9.089,69.461c1.773,28.987-1.609,83.211-3.519,121.65c-0.274,5.653,38.919,10.851,71.75,9.073
		c32.937-1.782,51.306-6.845,51.452-13.563c0.465-25.688-0.01-54.105-0.01-72.259c0-39.612-2.026-83.377-1.166-88.657
		c0.992-6.1,8.586-9.677,13.729-13.419c9.763-7.105,20.215-13.362,29.6-20.837c17.973-14.313,36.648-27.574,49.263-40.789
		C502.81,60.951,498.529,45.236,489.944,39.876z"/>
</g>
<path fill="#AF9474" d="M311.449,197.65c12.728,1.186,26.563,1.31,39.316-0.118c11.479-1.286,20.569-1.87,30.973-4.242
	c9.671-2.206,14.943-5.146,21.577-8.985c4.452,4.539-17.52,11.073-21.163,12.018c-9.557,2.476-18.687,3.391-29.029,3.898
	c-11.301,0.553-27.697,2.977-39.065,1.676c-11.112-1.272-31.942-4.599-31.167-9.992c0.253-1.762,7.299,1.888,10.849,2.96
	C299.534,196.616,305.45,197.092,311.449,197.65z"/>
<path fill="#AF9474" d="M377.039,197.994c-12.56,2.381-26.328,4.005-39.154,3.593c-10.748-0.344-21.565-0.51-32.212-1.198
	c-8.263-0.534-14.384-3.813-21.352-7.009c-4.001,4.939,18.489,9.371,22.207,9.967c9.745,1.562,18.922,1.611,29.267,1.141
	c11.303-0.517,27.854,0.348,39.048-2.021c10.944-2.315,32.506-9.351,30.085-12.891c-1.018-1.489-7.087,2.569-10.521,3.973
	C388.803,195.84,382.958,196.871,377.039,197.994z"/>
<path fill="#AF9474" d="M45.153,229.7c-0.759,0-1.409-0.574-1.486-1.346c-0.082-0.821,0.518-1.555,1.339-1.636
	c62.95-6.285,165.645-21.662,239.497-34.112c0.811-0.138,1.585,0.411,1.723,1.226s-0.412,1.585-1.226,1.724
	c-73.901,12.457-176.677,27.845-239.697,34.138C45.252,229.698,45.202,229.7,45.153,229.7z"/>
<path fill="#8E7565" d="M48.026,130.327c-0.506,0-0.938-0.383-0.991-0.897c-0.054-0.547,0.346-1.037,0.894-1.091
	c83.402-8.327,186.498-27.553,216.108-33.248c0.546-0.103,1.063,0.25,1.167,0.791c0.104,0.541-0.25,1.062-0.791,1.167
	c-29.631,5.698-132.801,24.938-216.287,33.273C48.092,130.325,48.059,130.327,48.026,130.327z"/>
<path fill="#AF9474" d="M674.846,203.769c-0.013,0-0.025,0-0.039,0c-66.021-1.688-198.218-6.267-274.896-12.706
	c-0.822-0.069-1.434-0.792-1.364-1.614c0.068-0.824,0.797-1.434,1.614-1.365c76.611,6.433,208.732,11.008,274.724,12.697
	c0.825,0.021,1.477,0.708,1.456,1.533C676.319,203.125,675.653,203.769,674.846,203.769z"/>
<path fill="#8E7565" d="M178.048,339.675c-0.273,0-0.497-0.22-0.499-0.492l-2.419-226.962c-0.002-0.275,0.218-0.5,0.493-0.503
	c0.002,0,0.004,0,0.005,0c0.273,0,0.496,0.219,0.498,0.493l2.419,226.961c0.002,0.276-0.218,0.5-0.493,0.504
	C178.051,339.675,178.049,339.675,178.048,339.675z"/>
<path fill="#8E7565" d="M140.974,344.914c-0.272,0-0.495-0.218-0.499-0.492l-2.417-225.899c-0.004-0.275,0.218-0.5,0.492-0.503
	c0.002,0,0.004,0,0.006,0c0.272,0,0.495,0.22,0.499,0.493l2.417,225.9c0.004,0.274-0.218,0.5-0.492,0.502
	C140.978,344.914,140.976,344.914,140.974,344.914z"/>
<polygon fill="#8E7565" points="125.725,350.454 116.362,329.354 77.056,334.646 77.056,339.181 82.498,362.853 125.725,356.803 "/>
<polygon fill="#AF9474" points="125.725,350.454 82.498,356.501 77.056,334.646 116.362,329.354 "/>
<path fill="#8E7565" d="M114.708,332.331c-0.273,0-0.496-0.22-0.498-0.492l-2.419-222.35c-0.002-0.275,0.218-0.501,0.493-0.504
	c0.002,0,0.004,0,0.005,0c0.273,0,0.497,0.22,0.499,0.494l2.419,222.349c0.002,0.276-0.218,0.502-0.494,0.504
	C114.711,332.331,114.71,332.331,114.708,332.331z"/>
<path fill="#8E7565" d="M82.226,337.303c-0.272,0-0.495-0.219-0.499-0.491l-3.326-221.866c-0.004-0.274,0.216-0.501,0.491-0.505
	c0.289,0.001,0.501,0.215,0.505,0.491l3.326,221.865c0.004,0.276-0.216,0.503-0.491,0.507
	C82.229,337.303,82.228,337.303,82.226,337.303z"/>
<path fill="#8E7565" d="M121.503,348.533c-0.273,0-0.497-0.219-0.499-0.493l-2.419-226.961c-0.002-0.275,0.218-0.5,0.493-0.503
	c0.002,0,0.004,0,0.005,0c0.273,0,0.496,0.219,0.498,0.493l2.419,226.962c0.002,0.274-0.218,0.501-0.493,0.503
	C121.506,348.533,121.504,348.533,121.503,348.533z"/>
<path fill="#8E7565" d="M84.429,353.772c-0.272,0-0.495-0.218-0.498-0.492l-2.417-227.772c-0.004-0.275,0.218-0.501,0.492-0.504
	c0.002,0,0.004,0,0.006,0c0.272,0,0.495,0.22,0.499,0.494l2.417,227.771c0.004,0.276-0.218,0.502-0.492,0.504
	C84.433,353.772,84.431,353.772,84.429,353.772z"/>
<g>
	<polygon fill="#8E7565" points="573.036,328.444 519.034,307.322 494.793,303.527 494.793,306.487 548.886,329.651 
		573.036,331.405 	"/>
	<polygon fill="#AF9474" points="573.036,328.444 548.886,326.69 494.793,303.527 519.034,307.322 	"/>
	<polygon fill="#8E7565" points="610.301,331.274 563.674,312.01 540.329,309.917 540.329,312.878 587.346,332.353 610.301,334.235 
			"/>
	<polygon fill="#AF9474" points="610.301,331.274 587.346,329.395 540.329,309.917 563.674,312.01 	"/>
	<polygon fill="#8E7565" points="646.898,332.892 600.18,314.417 579.592,312.899 579.592,315.859 623.818,334.632 646.898,335.851 
			"/>
	<polygon fill="#AF9474" points="646.898,332.892 623.818,331.672 579.592,312.899 600.18,314.417 	"/>
</g>
<g>
	<g>
		<g>
			<g>
				<path fill="#C83B0C" d="M271.907,263.715c-5.419,1.481-12.46,2.322-19.725,2.322c-10.615,0-22.827-1.793-27.791-6.538
					c-2.948,14.035-0.462,29.781,3.563,46.134l4.523,0.049c3.628-13.681,8.994-24.241,14.888-29.249
					c2.661,8.928,8.531,19.588,16.962,32.03l4.307,0.238C266.492,291.275,270.935,276.453,271.907,263.715z"/>
			</g>
		</g>
		<path fill="#C83B0C" d="M292.653,267.674c-0.66,0.936-1.472,1.833-2.532,0.93c-0.936-0.8-0.621-1.896-0.634-2.942
			c-0.018-1.339-0.265-2.357-1.061-2.573c-1.074-0.298-1.289,1.693-2.116,1.544c-0.66-0.115-0.705-0.985-0.703-1.762
			c0.006-0.841,0.481-1.87,0.892-2.476c0.899-1.334,2.234-1.707,3.606-1.145C293.08,260.46,294.551,264.991,292.653,267.674z"/>
		<path fill="#C83B0C" d="M209.642,261.406c0.66,0.937,1.471,1.834,2.532,0.929c0.936-0.798,0.621-1.894,0.632-2.943
			c0.02-1.337,0.265-2.354,1.062-2.573c1.073-0.295,1.289,1.693,2.116,1.546c0.658-0.117,0.703-0.985,0.703-1.764
			c-0.006-0.839-0.48-1.868-0.891-2.476c-0.899-1.331-2.234-1.705-3.609-1.145C209.213,254.191,207.744,258.723,209.642,261.406z"/>
		<path fill="#C83B0C" d="M266.621,313.768c-1.193,0.202-5.557,0.048-6.219-0.838c-1.296-1.733,2.481-2.966,4.303-3.275
			C268.896,308.94,271.362,312.969,266.621,313.768z"/>
		<path fill="#C83B0C" d="M231.04,310.76c-1.193,0.203-5.557,0.047-6.219-0.839c-1.296-1.734,2.484-2.964,4.304-3.273
			C233.315,305.933,235.781,309.962,231.04,310.76z"/>
		<g>
			<path fill="#C83B0C" d="M263.736,212.362c-0.947,0.681-2.182,1.453-3.112,1.623l-1.021,0.185l-0.145-1.025
				c-0.011-0.081-0.011-0.081-0.016-0.727c-0.055-7.184-0.251-12.321-0.585-15.274c-0.661-5.872-1.899-8.606-2.638-10.241
				c-0.123-0.269-0.23-0.507-0.319-0.723c-0.878-2.129-4.216-7.896-9.053-9.008c-1.339-0.309-2.9-0.465-4.642-0.465
				c-1.725,0-3.49,0.154-5.164,0.382c-3.611,4.125-5.975,9.674-6.024,16.334c-0.117,16.124,8.25,24.852,12.56,25.369
				c4.1,0.489,12.868-1.138,20.174-6.334L263.736,212.362z M236.26,193.428c-0.231,1.614-1.004,2.835-1.732,2.732
				c-0.72-0.103-1.127-1.492-0.897-3.104c0.229-1.612,1.004-2.836,1.728-2.735C236.083,190.425,236.487,191.815,236.26,193.428z
				 M246.275,195.398c-0.228,1.58-1.076,2.765-1.903,2.648c-0.823-0.117-1.31-1.493-1.086-3.071
				c0.224-1.583,1.076-2.764,1.901-2.649C246.009,192.445,246.498,193.82,246.275,195.398z"/>
			<path fill="#C83B0C" d="M230.021,193.416c0.045-6.083,1.981-11.616,5.57-16.104c-1.127,0.186-2.195,0.395-3.148,0.606
				c-0.3,0.378-0.59,0.775-0.86,1.208c-5.623,8.987-3.338,23.794-3.338,23.794l1.222-1.331l1.843,3.812l0.286-0.312
				C230.604,201.728,229.989,197.84,230.021,193.416z"/>
			<g>
				<path fill="#C83B0C" d="M284.422,258.806l5.132-2.174c-7.597-25.026-16.032-37.241-28.71-41.195
					c-5.595,3.043-11.653,4.435-15.73,4.435c-0.598,0-1.154-0.029-1.654-0.09c-1.649-0.197-3.726-1.41-5.752-3.533
					c-15.572,6.062-23.233,22.846-25.549,35.006l4.529,1.476c4.5-13.239,12.912-19.837,12.912-19.837s-5.761,9.95-6.462,22.26
					c1.083,10.289,34.137,12.395,50.432,7.03c-0.712-14.633-2.775-26.34-2.775-26.34S278.346,241.483,284.422,258.806z"/>
			</g>
		</g>
	</g>
	<g>
		<path fill="#C83B0C" d="M247.072,176.2c5.123,1.178,8.659,6.957,9.749,9.6c0.627,1.513,2.242,4.256,3.027,11.232
			c0.59,5.214,0.584,15.869,0.598,15.973c1.382-0.253,3.996-2.449,3.996-2.449l1.189,7.001l5.325-5.233l0.735,3.702
			c0,0,5.897-11.462,6.586-21.218c0.654-9.265-3.638-16.795-7.581-20.511c-3.277-3.081-6.725-5.282-11.715-6.108
			c-5.514-0.914-10.189,0.144-16.595,0.876c-5.103,0.583-15.038,0.292-15.038,0.292l7.188,3.876l-6.826,4.892
			C227.711,178.125,239.271,174.404,247.072,176.2z"/>
	</g>
</g>
</svg>
