<?xml version="1.0" encoding="utf-8"?>
<!-- Generator: Adobe Illustrator 15.0.2, SVG Export Plug-In . SVG Version: 6.00 Build 0)  -->
<!DOCTYPE svg PUBLIC "-//W3C//DTD SVG 1.1//EN" "http://www.w3.org/Graphics/SVG/1.1/DTD/svg11.dtd">
<svg version="1.1" id="Layer_1" xmlns="http://www.w3.org/2000/svg" xmlns:xlink="http://www.w3.org/1999/xlink" x="0px" y="0px"
	 width="720px" height="460px" viewBox="0 0 720 460" enable-background="new 0 0 720 460" xml:space="preserve">
<polygon fill="#C7C4BA" points="666.676,364.908 53.324,364.908 111.976,271.419 611.713,271.419 "/>
<polygon fill="#F5F0E4" points="611.713,271.419 111.976,271.419 114.976,110.928 601.713,110.928 "/>
<polygon fill="#D2CFC7" points="622.768,95.092 93.921,95.092 91.921,110.928 624.768,110.928 "/>
<polygon fill="#B5B6B3" points="91.921,110.928 114.382,123.657 114.681,115.928 602.168,115.928 602.752,123.657 624.768,110.928 
	"/>
<g>
	<g>
		<polygon fill="#B1B1B0" points="270.498,167.28 386.299,167.28 387.299,271.419 266.498,271.419 		"/>
		<polygon fill="#E3E1DC" points="378.764,167.28 436.23,167.28 439.23,271.419 378.764,271.419 		"/>
		<polygon fill="#D9D7D1" points="378.764,167.28 386.299,167.28 387.299,271.419 378.764,271.419 		"/>
		<polygon fill="#E3E1DC" points="221.279,167.28 278.746,167.28 275.746,271.419 215.279,271.419 		"/>
		<polygon fill="#D9D7D1" points="270.498,167.28 278.746,167.28 275.746,271.419 266.498,271.419 		"/>
	</g>
	<polygon fill="#B5B6B3" points="221.031,171.576 221.117,170.104 436.312,170.104 436.354,171.576 441.5,167.28 216.279,167.28 	
		"/>
	<polygon fill="#C7C4BA" points="217.279,160.323 440.5,160.323 441.5,167.28 216.279,167.28 	"/>
</g>
<g>
	<g>
		<g>
			<path fill="#C83B0C" d="M351.362,288.709c-6.833,0-14.365-1.241-17.675-4.538c-1.096,8.979,1.045,25.991,2.873,32.201l3.662,0.07
				c2.049-8.845,5.668-14.029,11.938-20.541c2.41,7.355,6.029,14.951,12.488,23.986l3.473-0.354
				c0.676-16.672,5.475-24.045,3.604-34.627C366.521,287.294,358.998,288.709,351.362,288.709z"/>
		</g>
	</g>
	<path fill="#C83B0C" d="M317.684,281.476c0.77,0.379,1.689-0.256,2.018-1.736c0.225-1.021,0.404-1.787,0.947-2.135
		c0.732-0.466,1.35,0.965,1.934,0.664c0.463-0.238,0.344-0.914,0.113-1.475c-0.295-0.723-0.885-1.374-1.355-1.699
		c-0.912-0.625-1.693-0.967-2.82-0.098c-1,0.771-1.564,1.809-1.885,3.426C316.34,279.927,316.713,280.997,317.684,281.476z"/>
	<path fill="#C83B0C" d="M388.553,281.446c-0.453,0.771-1.023,1.521-1.908,0.889c-0.783-0.559-0.609-1.432-0.688-2.244
		c-0.102-1.041-0.361-1.814-0.996-1.932c-0.854-0.16-0.889,1.4-1.541,1.34c-0.52-0.047-0.613-0.719-0.662-1.324
		c-0.051-0.654,0.252-1.484,0.529-1.982c0.609-1.094,1.625-1.473,2.729-1.127C388.408,275.81,389.848,279.235,388.553,281.446z"/>
	<path fill="#C83B0C" d="M339.424,320.114c-0.996,0.117-3.297,0.326-4.191-0.186c-1.932-1.098,0.867-2.198,2.305-2.586
		C341.227,316.354,343.861,319.592,339.424,320.114z"/>
	<path fill="#C83B0C" d="M367.645,323.216c-0.996,0.115-3.297,0.324-4.191-0.187c-1.928-1.097,0.865-2.2,2.305-2.585
		C369.449,319.452,372.084,322.694,367.645,323.216z"/>
	<g>
		<path fill="#C83B0C" d="M366.364,249.512l-0.017,0.042l-0.021-0.066c-0.963-0.57-1.969-1.051-3.007-1.476l-0.673,0.806
			l-1.229,1.47l-0.504-1.849l-0.373-1.371c-0.582-0.157-1.172-0.303-1.782-0.421c-5.19,3.76-10.882,5.174-13.741,5.174l-0.188-0.002
			c-1.529-0.033-3.621-1.084-5.672-3.108c-9.906,4.156-17.433,12.984-20.311,24.599l4.484,1.466
			c4.248-7.539,12.51-13.314,12.51-13.314s-2.869,8.559-2.742,19.842c2.002,7.82,26.973,8.334,38.943,2.35
			c-2.205-11.217-4.035-20.691-4.035-20.691s5.066,2.088,13.809,12.549l3.848-2.025
			C378.432,261.354,373.196,253.571,366.364,249.512z"/>
	</g>
	<g>
		<path fill="#C83B0C" d="M344.312,217.481c4.066,0.523,7.256,4.739,8.303,6.708c0.602,1.126,2.064,3.136,3.209,8.489
			c0.854,4.004,1.662,12.278,1.684,12.357c1.053-0.303,2.914-2.206,2.914-2.206l1.457,5.346l3.736-4.472l0.855,2.818
			c0,0,3.701-9.351,3.492-16.977c-0.199-7.244-4.107-12.764-7.453-15.346c-2.781-2.144-5.625-3.588-9.561-3.85
			c-4.354-0.288-7.902,0.891-12.82,1.947c-3.916,0.844-11.652,1.375-11.652,1.375l5.877,2.461l-4.926,4.32
			C329.428,220.454,338.117,216.683,344.312,217.481z"/>
		<path fill="#C83B0C" d="M332.166,232.17c-0.414-4.56,0.573-8.878,2.826-12.577c-0.739,0.209-1.443,0.422-2.066,0.629
			c-0.142,0.234-0.291,0.459-0.416,0.715c-3.68,7.406-0.773,18.729-0.773,18.729l0.846-1.127l1.721,2.818l0.049-0.062
			C333.287,238.715,332.486,235.683,332.166,232.17z"/>
	</g>
	<path fill="#C83B0C" d="M357.783,245.997l-0.988,0.285l-0.256-0.996c-0.021-0.082-0.021-0.082-0.082-0.648
		c-0.592-5.556-1.133-9.509-1.611-11.75c-0.957-4.478-2.117-6.487-2.809-7.688c-0.116-0.2-0.219-0.378-0.305-0.54
		c-0.828-1.557-3.799-5.703-7.549-6.186c-0.528-0.068-1.104-0.104-1.709-0.104c-1.985,0.001-4.123,0.369-6.068,0.846
		c-2.369,3.439-3.701,7.823-3.244,12.863c1.141,12.531,8.305,18.666,11.689,18.739c2.85,0.06,8.406-1.444,13.303-4.97
		C358.028,245.905,357.902,245.964,357.783,245.997z M336.098,233.937c-0.568-0.025-0.99-1.071-0.936-2.342
		c0.057-1.268,0.564-2.277,1.135-2.254c0.57,0.025,0.99,1.073,0.936,2.342C337.178,232.954,336.67,233.962,336.098,233.937z
		 M343.885,234.649c-0.648-0.028-1.133-1.059-1.078-2.3c0.055-1.245,0.625-2.229,1.275-2.203c0.645,0.028,1.129,1.058,1.078,2.302
		C345.105,233.692,344.537,234.677,343.885,234.649z"/>
</g>
<g>
	<g>
		<path fill="#9F9F9D" d="M166.167,312.065c-0.069,0-0.139-0.004-0.209-0.014l-23.679-3.289c-0.82-0.115-1.394-0.872-1.279-1.693
			c0.114-0.82,0.872-1.395,1.692-1.279l23.679,3.289c0.82,0.115,1.394,0.872,1.279,1.693
			C167.546,311.522,166.903,312.065,166.167,312.065z"/>
		<g>
			<path fill="#9F9F9D" d="M133.472,317.688c-0.387,0-0.773-0.148-1.067-0.445c-0.582-0.589-0.577-1.539,0.013-2.121l9.349-9.243
				l48.195-8.375c0.816-0.142,1.593,0.405,1.734,1.222s-0.404,1.592-1.221,1.734l-47.269,8.214l-8.68,8.582
				C134.233,317.544,133.853,317.688,133.472,317.688z"/>
			<path fill="#9F9F9D" d="M188.846,307.632c-0.094,0-0.189-0.01-0.284-0.027c-0.813-0.156-1.347-0.943-1.19-1.756l3.109-16.188
				c0.156-0.813,0.944-1.345,1.756-1.19c0.814,0.156,1.347,0.942,1.19,1.756l-3.109,16.188
				C190.18,307.132,189.551,307.632,188.846,307.632z"/>
			<g>
				<path fill="#939491" d="M188.375,302.269c-0.43-0.039-2.02-0.18-2.447-0.217c-2.027-0.181-3.875,1.964-4.125,4.791
					c-0.252,2.825,1.189,5.262,3.217,5.441c0.43,0.039,2.018,0.18,2.447,0.217c2.029,0.181,3.877-1.964,4.129-4.79
					C191.846,304.885,190.404,302.448,188.375,302.269z"/>
				
					<ellipse transform="matrix(0.9961 0.0883 -0.0883 0.9961 27.8848 -15.3972)" fill="#A8A8A6" cx="187.923" cy="307.385" rx="3.687" ry="5.136"/>
			</g>
			<path fill="#9F9F9D" d="M157.351,323.934c-0.312,0-0.625-0.097-0.895-0.296c-0.664-0.494-0.803-1.434-0.309-2.099l9.152-12.326
				l50.157-10.435c0.809-0.17,1.605,0.353,1.775,1.164c0.168,0.811-0.353,1.605-1.164,1.773l-49.04,10.202l-8.473,11.41
				C158.261,323.724,157.809,323.934,157.351,323.934z"/>
			<path fill="#9F9F9D" d="M213.955,311.321c-0.089,0-0.18-0.009-0.27-0.025c-0.816-0.148-1.355-0.93-1.207-1.744l3.619-19.877
				c0.148-0.816,0.935-1.354,1.744-1.207c0.816,0.148,1.355,0.929,1.207,1.744l-3.619,19.877
				C215.297,310.813,214.666,311.321,213.955,311.321z"/>
		</g>
		<path fill="#9F9F9D" d="M233.379,251.371l-1.624-2.522c2.161-1.391,5.287-3.539,7.724-5.234l-26.41-0.743l-9.418,7.139
			l-1.812-2.391l9.84-7.458c0.271-0.205,0.623-0.314,0.947-0.304l31.469,0.886c0.645,0.018,1.206,0.447,1.393,1.064
			c0.188,0.618-0.041,1.287-0.568,1.659C244.844,243.52,237.446,248.752,233.379,251.371z"/>
		<polygon fill="#9C9D9A" points="168.856,244.839 237.037,247.511 222.076,290.954 175.411,296.37 148.458,292.196 
			135.231,248.911 		"/>
		<polygon fill="#A7A7A5" points="237.037,247.511 222.076,290.954 175.411,296.37 170.642,244.908 		"/>
		<g>
			<path fill="#939491" d="M135.524,310.056c-0.525-0.048-2.471-0.221-2.998-0.267c-2.484-0.221-4.746,2.407-5.053,5.868
				s1.457,6.445,3.941,6.666c0.525,0.047,2.473,0.219,2.998,0.266c2.486,0.221,4.75-2.406,5.057-5.868
				C139.776,313.26,138.011,310.274,135.524,310.056z"/>
			
				<ellipse transform="matrix(0.9961 0.0883 -0.0883 0.9961 28.4659 -10.6848)" fill="#A8A8A6" cx="134.971" cy="316.322" rx="4.517" ry="6.292"/>
		</g>
		<g>
			<path fill="#939491" d="M161.966,314.495c-0.582-0.052-2.736-0.242-3.32-0.295c-2.75-0.243-5.254,2.664-5.594,6.496
				s1.615,7.137,4.363,7.38c0.582,0.052,2.736,0.243,3.32,0.295c2.75,0.243,5.256-2.665,5.596-6.495
				C166.671,318.043,164.716,314.739,161.966,314.495z"/>
			
				<ellipse transform="matrix(0.9961 0.0885 -0.0885 0.9961 29.0775 -13.0173)" fill="#A8A8A6" cx="161.352" cy="321.434" rx="4.999" ry="6.965"/>
		</g>
		<g>
			<path fill="#939491" d="M215.812,304.011c-0.477-0.043-2.238-0.199-2.715-0.241c-2.248-0.2-4.297,2.179-4.574,5.312
				c-0.277,3.133,1.32,5.834,3.568,6.034c0.477,0.042,2.238,0.198,2.715,0.24c2.248,0.199,4.297-2.178,4.576-5.312
				C219.66,306.911,218.062,304.21,215.812,304.011z"/>
			
				<ellipse transform="matrix(0.9961 0.0883 -0.0883 0.9961 28.1741 -17.7954)" fill="#A8A8A6" cx="215.311" cy="309.684" rx="4.088" ry="5.695"/>
		</g>
	</g>
	<g>
		<g>
			<g>
				<path fill="#A1856E" d="M309.523,259.13c0-2.338-0.11-4.419-0.319-6.34c-9.062,4.828-21.993,7.579-35.839,7.579
					c-12.844,0-23.542-2.411-28.976-6.405c-3.556,19.008-1.524,39.117,1.259,53.379l6.02,0.697
					c4.389-14.982,11.918-26.402,22.816-35.118c9.691,10.874,18.438,23.366,32.098,36.163l5.883-0.07
					C309.881,286.714,309.523,276.712,309.523,259.13z"/>
			</g>
		</g>
		<path fill="#A1856E" d="M217.676,242.744c0.49,1.392,2.938,1.858,5.4,0.391c1.363-0.812,2.963-2.589,3.287-4.15
			c0.875-0.354,1.941-0.386,2.918-0.331c0.232-2.613-1.512-4.289-4.023-4.178c-2.164,0.093-3.49,0.549-5.535,2.505
			C217.82,238.796,217.127,241.19,217.676,242.744z"/>
		<path fill="#A1856E" d="M248.848,314.328c-1.693,0.046-5.582,0.05-6.852-0.983c-2.742-2.218,2.33-3.701,4.863-4.15
			C253.363,308.045,256.393,314.114,248.848,314.328z"/>
		<path fill="#A1856E" d="M311.447,316.062c-1.688,0.047-5.578,0.047-6.848-0.984c-2.74-2.219,2.33-3.702,4.865-4.15
			C315.969,309.775,318.998,315.846,311.447,316.062z"/>
		<g>
			<g>
				<path fill="#A1856E" d="M279.213,171.134c-4.992-4.815-12.318-6.123-13.59-16.062c-8.559,5.689-14.873,1.721-17.564,3.479
					c-1.633,1.065-3.711,3.317-3.967,8.098c-1.582-8.104,2.395-16.555,7.719-21.231c5.15-4.529,21.873-9.862,32.291-2.176
					c16.895,12.457,11.699,34.021,15.254,45.372c-3.273,2.934-10.877,5.358-16.236,0
					C280.682,186.176,284.324,176.064,279.213,171.134z"/>
			</g>
		</g>
	</g>
	<g>
		<path fill="#A1856E" d="M231.74,239.769c0.014,2.028,1.119,4.474,3.332,3.732c2.02-0.676,1.801-2.645,4.43-3.057
			c1.486-0.233,4.238,0.773,5.426-0.459c1.508-1.566,0.031-3.432-1.582-4.258c-3.023-1.551-9.924-1.17-11.365,2.525
			C231.814,238.675,231.734,239.206,231.74,239.769z"/>
	</g>
</g>
<g>
	<polygon fill="#9C9D9A" points="452.758,253.82 413.092,253.82 405.092,229.341 459.758,229.341 	"/>
	<circle fill="#9C9D9A" cx="413.758" cy="269.991" r="4.5"/>
	<circle fill="#9C9D9A" cx="447.359" cy="269.991" r="4.5"/>
	<path fill="#9C9D9A" d="M458.758,230.341c-0.085,0-0.172-0.011-0.258-0.033c-0.533-0.143-0.852-0.69-0.709-1.225l2.334-8.762
		c0.117-0.438,0.514-0.742,0.967-0.742h9.332c0.553,0,1,0.447,1,1c0,0.552-0.447,1-1,1h-8.564l-2.136,8.02
		C459.604,230.046,459.2,230.341,458.758,230.341z"/>
	<path fill="#9C9D9A" d="M449.424,263.658h-33.602c-0.552,0-1-0.448-1-1s0.448-1,1-1h32.845l3.129-11.108
		c0.15-0.531,0.705-0.842,1.233-0.691c0.531,0.148,0.842,0.701,0.691,1.232l-3.334,11.838
		C450.266,263.36,449.872,263.658,449.424,263.658z"/>
	<path fill="#9C9D9A" d="M413.758,270.991c-0.09,0-0.182-0.012-0.271-0.037c-0.531-0.15-0.842-0.703-0.691-1.234l2.065-7.332
		c0.149-0.532,0.706-0.843,1.233-0.691c0.531,0.148,0.842,0.701,0.691,1.232l-2.065,7.334
		C414.596,270.703,414.194,270.991,413.758,270.991z"/>
	<path fill="#9C9D9A" d="M447.359,270.991c-0.09,0-0.182-0.012-0.271-0.037c-0.531-0.15-0.842-0.703-0.691-1.234l2.065-7.332
		c0.149-0.532,0.706-0.843,1.233-0.691c0.531,0.148,0.842,0.701,0.691,1.232l-2.065,7.334
		C448.197,270.703,447.796,270.991,447.359,270.991z"/>
</g>
<g>
	<polygon fill="#9C9D9A" points="515.174,253.82 475.508,253.82 467.508,229.341 522.174,229.341 	"/>
	<circle fill="#9C9D9A" cx="476.174" cy="269.991" r="4.5"/>
	<circle fill="#9C9D9A" cx="509.775" cy="269.991" r="4.5"/>
	<path fill="#9C9D9A" d="M521.175,230.341c-0.085,0-0.171-0.011-0.258-0.033c-0.534-0.143-0.851-0.69-0.709-1.225l2.334-8.762
		c0.116-0.438,0.513-0.742,0.966-0.742h9.332c0.553,0,1,0.447,1,1c0,0.552-0.447,1-1,1h-8.562l-2.137,8.02
		C522.021,230.046,521.617,230.341,521.175,230.341z"/>
	<path fill="#9C9D9A" d="M511.84,263.658h-33.602c-0.552,0-1-0.448-1-1s0.448-1,1-1h32.845l3.129-11.108
		c0.149-0.531,0.706-0.842,1.233-0.691c0.531,0.148,0.842,0.701,0.691,1.232l-3.334,11.838
		C512.682,263.36,512.288,263.658,511.84,263.658z"/>
	<path fill="#9C9D9A" d="M476.175,270.991c-0.09,0-0.181-0.012-0.271-0.037c-0.532-0.15-0.841-0.702-0.691-1.234l2.064-7.332
		c0.149-0.532,0.702-0.843,1.233-0.691c0.531,0.148,0.842,0.701,0.691,1.232l-2.064,7.334
		C477.013,270.703,476.611,270.991,476.175,270.991z"/>
	<path fill="#9C9D9A" d="M509.776,270.991c-0.09,0-0.181-0.012-0.271-0.037c-0.532-0.15-0.841-0.702-0.691-1.234l2.064-7.332
		c0.149-0.532,0.702-0.843,1.233-0.691c0.531,0.148,0.842,0.701,0.691,1.232l-2.064,7.334
		C510.614,270.703,510.213,270.991,509.776,270.991z"/>
</g>
<g>
	<polygon fill="#9C9D9A" points="577.59,253.82 537.924,253.82 529.924,229.341 584.59,229.341 	"/>
	<circle fill="#9C9D9A" cx="538.59" cy="269.991" r="4.5"/>
	<circle fill="#9C9D9A" cx="572.191" cy="269.991" r="4.5"/>
	<path fill="#9C9D9A" d="M583.591,230.341c-0.085,0-0.171-0.011-0.258-0.033c-0.534-0.143-0.851-0.69-0.709-1.225l2.334-8.762
		c0.116-0.438,0.513-0.742,0.966-0.742h9.334c0.552,0,1,0.447,1,1c0,0.552-0.448,1-1,1h-8.564l-2.137,8.02
		C584.438,230.046,584.033,230.341,583.591,230.341z"/>
	<path fill="#9C9D9A" d="M574.258,263.658h-33.602c-0.553,0-1-0.448-1-1s0.447-1,1-1H573.5l3.129-11.108
		c0.15-0.531,0.707-0.842,1.233-0.691c0.532,0.148,0.841,0.701,0.691,1.232l-3.334,11.838
		C575.099,263.36,574.705,263.658,574.258,263.658z"/>
	<path fill="#9C9D9A" d="M538.591,270.991c-0.09,0-0.181-0.012-0.271-0.037c-0.532-0.15-0.841-0.703-0.691-1.234l2.065-7.332
		c0.15-0.532,0.705-0.843,1.233-0.691c0.532,0.148,0.841,0.701,0.691,1.232l-2.065,7.334
		C539.429,270.703,539.027,270.991,538.591,270.991z"/>
	<path fill="#9C9D9A" d="M572.192,270.991c-0.09,0-0.181-0.012-0.271-0.037c-0.532-0.15-0.841-0.703-0.691-1.234l2.065-7.332
		c0.15-0.532,0.705-0.843,1.233-0.691c0.532,0.148,0.841,0.701,0.691,1.232l-2.065,7.334
		C573.03,270.703,572.629,270.991,572.192,270.991z"/>
</g>
<g>
	<path fill="#A1856E" d="M304.139,213.618c-3.084-8.829-6.236-16.504-13.641-20.846c-2.785-0.061-5.324-1.035-7.411-2.839
		c-0.129-0.028-0.245-0.066-0.375-0.094c-0.765,0.584-1.639,1.227-2.634,1.938c-0.332,0.238-0.6,0.43-0.777,0.562
		c-5.645,4.211-13.074,6.129-17.59,6.129c-0.107,0-0.211-0.001-0.311-0.004c-1.605-0.036-3.508-0.81-5.46-2.228
		c-11.599,9.682-20.31,26.727-29.556,36.262l5.125,3.84c7.791-4.006,20.291-18.409,20.291-18.409s-0.791,4.636-2.734,12.573
		c15.234-7.415,19.252-14.533,22.531-20.354c0.414-0.735,0.816-1.449,1.229-2.142c0.707-1.189,1.369-2.547,2.071-3.984
		c0.897-1.838,1.825-3.739,2.927-5.439l0.839,0.544c-1.068,1.649-1.982,3.522-2.867,5.334c-0.711,1.456-1.382,2.832-2.11,4.058
		c-0.408,0.686-0.807,1.393-1.217,2.121c-3.643,6.465-8.17,14.5-27.3,22.75l3.077,8.346c27.807-5.078,43.652-15.6,47.102-31.277
		l0.977,0.215c-3.562,16.188-19.816,26.994-48.313,32.121l-0.413,0.074l-1.033-2.802c-0.971,3.504-2.092,7.335-3.389,11.472
		c8.66,9.816,47.166,11.197,66.996-0.426C309.732,238.325,306.98,221.759,304.139,213.618z"/>
</g>
<g>
	<path fill="#A1856E" d="M281.164,182.651c0.032-3.834,0.068-8.18-2.645-10.798c-1.363-1.314-2.896-2.348-4.518-3.44
		c-3.846-2.592-7.812-5.265-9.123-11.707c-4.008,2.297-7.427,2.584-9.729,2.584c-1.082,0-2.076-0.072-2.952-0.136
		c-0.69-0.05-1.343-0.097-1.897-0.097c-0.823-0.001-1.346,0.102-1.695,0.329c-2.117,1.383-3.332,3.911-3.516,7.314l-0.153,2.852
		c0.011,0.927,0.05,1.854,0.12,2.772l0.023,0.315c0.018,0.137,0.029,0.265,0.039,0.381c2.188,16.318,11.699,24.34,16.303,24.444
		c3.73,0.086,11.395-1.536,17.281-5.928c0.554-0.412,1.986-1.404,3.459-2.531C281.137,187.665,281.141,185.436,281.164,182.651z
		 M249.389,174.396c-0.805-0.038-1.4-1.526-1.322-3.325c0.082-1.803,0.805-3.234,1.613-3.197c0.811,0.036,1.404,1.523,1.326,3.324
		C250.924,173,250.201,174.431,249.389,174.396z M260.33,174.772c-0.92-0.043-1.605-1.503-1.529-3.269
		c0.08-1.765,0.891-3.161,1.814-3.123c0.92,0.043,1.604,1.504,1.525,3.271C262.064,173.415,261.25,174.813,260.33,174.772z"/>
</g>
</svg>
