<?xml version="1.0" encoding="utf-8"?>
<!-- Generator: Adobe Illustrator 15.0.2, SVG Export Plug-In . SVG Version: 6.00 Build 0)  -->
<!DOCTYPE svg PUBLIC "-//W3C//DTD SVG 1.1//EN" "http://www.w3.org/Graphics/SVG/1.1/DTD/svg11.dtd">
<svg version="1.1" id="Layer_1" xmlns="http://www.w3.org/2000/svg" xmlns:xlink="http://www.w3.org/1999/xlink" x="0px" y="0px"
	 width="720px" height="460px" viewBox="0 0 720 460" enable-background="new 0 0 720 460" xml:space="preserve">
<g>
	<g>
		<ellipse fill="#81B1CA" cx="360" cy="284.994" rx="307.075" ry="109.79"/>
		<path fill="#E7D795" d="M360,175.204c-169.593,0-307.075,49.155-307.075,109.79c0,14.806,8.217,28.924,23.077,41.812
			c0.06,0.008,0.12,0.018,0.18,0.025c7.859,1.1,15.987,0.24,23.934-0.518c5.689-0.543,11.748-1.016,17.402,0.131
			c10.502,2.127,20.361,6.508,30.863,8.521c18.514,3.552,37.871-1.663,56.522-1.71c15.498-0.041,30.048,6.266,45.327,6.913
			c9.181,0.39,19.252-1.093,28.334-2.411c8.218-1.195,14.916,0.182,23.062,1.98c18.602,4.107,38.648,9.095,57.529,3.754
			c7.469-2.111,13.83-5.482,21.648-6.398c10.832-1.267,22.262-2.045,33.117-0.514c23.266,3.278,43.969,6.312,67.068,1.449
			c7.682-1.617,15.619-3.596,23.496-4.389c16.023-1.609,31.363,3.01,47.176,3.882c15.533,0.856,30.299-5.638,45.193-8.552
			c5.207-1.018,10.469-0.908,15.838-1.152c8.127-0.371,15.096-2.844,23.029-1.236c2.678,0.542,5.318,0.653,7.947,0.512
			c15.07-12.966,23.404-27.184,23.404-42.1C667.074,224.358,529.594,175.204,360,175.204z"/>
		<g>
			<g>
				<path fill="#7A574A" d="M279.045,225.089c0.121-4.28,4.954-7.539,8.682-3.589l-4.832,8.062l-0.491,0.818l0.763,0.572
					c1.629,1.223,3.225,2.369,4.809,3.48c-0.668,1.158-1.527,1.93-2.546,2.023C279.381,237.007,278.926,229.302,279.045,225.089z"/>
			</g>
			<g>
				<path fill="#7A574A" d="M304.129,227.896c-13.341-4.684-17.798-13.881-14.916-26.285c11.867,7.505,31.617,10.875,46.046,10.875
					c6.943,0,19.258-0.789,23.721-6.076c1.049-1.246,1.572-2.643,1.578-4.166c8.947,6.646,15.078,15.027,9.23,25.872
					c-4.486,8.321-16.482,7.974-16.482,7.974s-1.004,9.721-13.209,13.096c-18.881,5.221-39.588-6.537-56.296-19.078l4.9-8.174
					C288.702,221.933,297.311,226.63,304.129,227.896z"/>
			</g>
			<g>
				<path fill="#7A574A" d="M258.531,186.732c-1.394-1.338-3.386-1.502-4.687-0.635c-1.395,0.93-1.852,3.009-1.061,4.246
					c-2.207,1.486-5.711-1.117-6.734-3.725c-1.382-3.523,0.398-7.834,4.818-8.198c3.213-0.262,7.17,0.598,8.352,3.402
					C260.387,184.597,259.524,187.688,258.531,186.732z"/>
				<g>
					<path fill="#7A574A" d="M253.715,189.866c-0.016-0.031-0.021-0.063-0.041-0.093c-0.451-0.709-0.187-2.167,0.756-2.796
						c0.354-0.235,0.793-0.359,1.27-0.359c0.734,0,1.479,0.31,2.055,0.842c1.201,1.212,1.896,2.881,2.617,2.908
						c1.615,0.059,2.033-1.616,2.691-1.675c2.361-0.216,9.439,7.417,11.642,11.714c1.934,3.773,1.962,8.354,0.079,9.934
						c-1.854,1.555-7.594,0.061-11.176-2.916c-4.157-3.453-10.054-10.479-10.412-12.094c-0.39-1.756,2.496-0.961,2.93-2.333
						C256.486,191.862,255.141,191.303,253.715,189.866z"/>
				</g>
			</g>
			<g>
				<path fill="#7A574A" d="M405.408,191.495c-0.367,1.61-1.766,2.961-3.576,2.088c-1.598-0.771-1.557-2.415-1.955-3.869
					c-0.514-1.864-1.23-3.187-2.418-3.201c-1.602-0.024-1.18,2.829-2.385,2.923c-0.963,0.077-1.344-1.117-1.623-2.201
					c-0.299-1.174-0.012-2.779,0.34-3.777c0.768-2.183,2.492-3.189,4.611-2.909C402.988,181.155,406.496,186.704,405.408,191.495z"
					/>
			</g>
			<g>
				<g>
					<path fill="#7A574A" d="M362.674,84.168c-7.527-1.533-15.734,4.014-18.789,6.867c-1.748,1.635-5.561,4.307-10.83,13.113
						c-3.941,6.582-11.74,23.848-11.824,23.979c-1.451-1.686-3.477-6.232-3.477-6.232l-4.828,6.063l-3.916-10.192l-3.223,4.48
						c0,0-0.898-18.826,4.092-32.223c4.744-12.728,15.018-20.145,22.518-22.695c6.225-2.12,12.148-2.958,19.285-1.037
						c7.895,2.126,13.471,6.366,21.553,11.222c6.436,3.868,19.834,9.498,19.834,9.498l-11.916,0.803l6.117,10.645
						C387.27,98.459,374.146,86.506,362.674,84.168z"/>
					<g>
						<g>
							<path fill="#7A574A" d="M322.475,128.145c6.354,8.057,14.346,13.321,19.043,14.817c6.051,1.923,22.471-4.621,32.084-26.147
								c4.068-9.109,4.213-18.145,1.719-25.951c-3.994-2.486-8.564-4.783-12.855-5.659c-0.789-0.16-1.621-0.242-2.473-0.242
								c-6.373,0-12.85,4.477-15.385,6.845c-0.244,0.229-0.531,0.479-0.854,0.763c-1.992,1.742-5.324,4.658-9.793,12.121
								c-2.227,3.721-5.916,11.24-10.971,22.355C322.533,128.051,322.527,128.062,322.475,128.145z M365.793,114.619
								c0.672-2.285,2.053-3.889,3.08-3.587c1.023,0.302,1.314,2.4,0.645,4.685c-0.674,2.283-2.055,3.885-3.078,3.586
								C365.41,118.998,365.121,116.904,365.793,114.619z M355.922,111.654c-0.658,2.238-2.143,3.77-3.307,3.43
								c-1.172-0.347-1.582-2.439-0.926-4.676c0.662-2.236,2.143-3.771,3.311-3.429C356.166,107.324,356.58,109.415,355.922,111.654
								z"/>
							<path fill="#7A574A" d="M381.516,97.448c-0.127-0.959-0.324-1.87-0.57-2.741c-1.271-0.945-2.705-1.958-4.248-2.969
								c2.322,8.252,1.615,17.125-2.129,25.508c-2.605,5.836-5.686,10.571-8.926,14.361l0.314,0.969l4.76-3.959l0.82,2.512
								C371.537,131.129,383.551,112.812,381.516,97.448z"/>
							<g>
								<path fill="#7A574A" d="M356,140.042c-4.654,2.956-9.014,4.238-12.156,4.238c-0.98,0-1.865-0.123-2.629-0.366
									c-3.651-1.163-9.163-4.487-14.416-9.528c-20.582,0.944-48.285,11.361-73.192,40.403l6.362,4.898
									c19.199-16.287,37.57-14.281,37.57-14.281s-6.858,13.318-8.078,35.12c20.755,13.416,72.46,15.366,69.958,0.672
									c-4.754-27.915-0.814-37.864-0.814-37.864s18.424-2.349,34.33,17.988l6.531-2.951
									C388.125,160.027,372.193,146.971,356,140.042z"/>
							</g>
						</g>
					</g>
				</g>
			</g>
		</g>
		<g>
			<g>
				<g>
					<path fill="#AF9474" d="M562.049,219.022c-0.102-3.572-4.133-6.291-7.242-2.994c0,0,3.931,2.447,3.523,6.151
						c-0.289,2.631-2.41,3.712-3.732,4.64c0.559,0.966,1.275,1.611,2.125,1.688C561.77,228.966,562.15,222.538,562.049,219.022z"/>
				</g>
				<g>
					<path fill="#AF9474" d="M541.117,221.364c11.135-3.908,14.854-11.582,12.449-21.932c-9.904,6.264-26.385,9.074-38.424,9.074
						c-5.793,0-16.068-0.66-19.791-5.07c-0.877-1.039-1.312-2.205-1.316-3.479c-7.469,5.548-12.584,12.54-7.703,21.59
						c3.744,6.943,13.752,6.654,13.752,6.654s0.838,8.111,11.023,10.926c14.375,3.975,30.019-3.846,43.24-13.196
						c1.268-0.896,2.562-1.334,3.098-3.839c0.627-2.928-3.453-5.703-3.453-5.703S546.809,220.31,541.117,221.364z"/>
				</g>
				<g>
					<g>
						<path fill="#AF9474" d="M474.275,201.216c0.348-0.166,0.672-0.365,0.939-0.535c0.557-0.355,1.076-0.768,1.625-1.131
							c0.652-0.435,1.354,0.012,1.617,0.748c0.217,0.598-0.465,1.293-0.1,1.803c0.869,1.214,2.633-0.873,3.084-1.485
							c1.166-1.575,1.223-4.208-1.326-5.95c-2.357-1.611-4.828-0.458-6.854,1.061c-0.568,0.426-1.156,0.994-1.461,1.654
							c-0.477,1.029-0.674,2.678,0.035,3.641C472.443,201.847,473.428,201.623,474.275,201.216z"/>
					</g>
				</g>
				<g>
					<path fill="#AF9474" d="M572.598,200.826c-0.875,1.062-2.424,1.546-3.445,0.217c-0.904-1.174-0.258-2.384-0.01-3.619
						c0.316-1.579,0.279-2.836-0.602-3.292c-1.186-0.617-1.939,1.668-2.873,1.284c-0.748-0.302-0.584-1.334-0.385-2.248
						c0.219-0.986,1.031-2.075,1.668-2.687c1.391-1.34,3.055-1.446,4.527-0.441C574.672,192.21,575.207,197.661,572.598,200.826z"/>
				</g>
				<g>
					<path fill="#AF9474" d="M566.367,189.17l5.26-1.533c-8.762-32.639-35.666-44.709-53.117-44.35
						c-0.295,0.006-0.592,0.023-0.889,0.035c-2.82,2.059-5.465,3.451-7.434,4.079c-0.641,0.205-1.387,0.308-2.207,0.308
						c-1.633,0-3.658-0.416-5.887-1.318c-14.938,5.189-13.266,29.418-23.723,46.331l5.018,2.824
						c9.975-15.262,12.807-25.929,12.807-25.929s2.756,6.18-1.211,29.472c-2.088,12.26,41.057,10.635,58.373-0.561
						c-1.018-18.192-6.738-29.305-6.738-29.305S558.266,171.866,566.367,189.17z"/>
				</g>
				<g>
					<g>
						<g>
							<path fill="#AF9474" d="M526.045,115.344c-3.35,2.606-7.182,3.439-10.414,3.473c-2.576-6.444-5.094-10.852-9.312-13.783
								c-5.371-3.728-15.66-1.79-22.969-2.982c-2.412,3.617-4.855,11.084-2.676,18.748c1.609,5.665,4,10.133,5.521,12.317
								c-1.514,0.392-6.889,0-9.863-1.622c1.217-5.539,0.107-15.324,1.277-23.084c2.361-15.675,14.432-26.861,31.502-26.861
								s26.91,17.733,39.475,26.244c0,8.461-10.951,20.207-19.377,21.934C529.359,123.866,528.098,119.605,526.045,115.344z"/>
							<g>
								<path fill="#AF9474" d="M484.027,127.075c8.117,16.225,20.898,21.182,25.734,19.643c3.92-1.246,11.328-5.68,15.893-12.361
									c1.021-1.498,1.859-3.123,2.555-4.75c0.105-4.598-0.666-8.479-2.561-12.742c-3.566,2.371-7.355,2.926-10.008,2.954
									l-0.684,0.005l-0.254-0.635c-2.365-5.91-4.791-10.44-8.955-13.332c-3.205-2.224-8.602-2.275-13.822-2.323
									c-2.736-0.025-5.561-0.052-8.078-0.396c-1.945,3.241-4.309,10.016-2.213,17.389
									C482.324,122.95,483.164,125.157,484.027,127.075z M500.504,123.458c-0.973,0.285-2.211-0.994-2.76-2.86
									c-0.549-1.869-0.203-3.614,0.77-3.901c0.975-0.285,2.209,0.995,2.762,2.859C501.822,121.422,501.48,123.168,500.504,123.458
									z M486.4,123.986c-0.559-1.907-0.316-3.657,0.539-3.91c0.854-0.251,2.006,1.088,2.566,2.994
									c0.561,1.907,0.322,3.655-0.537,3.907C488.115,127.227,486.963,125.891,486.4,123.986z"/>
							</g>
						</g>
					</g>
				</g>
			</g>
		</g>
		<g>
			<path fill="#D0B35A" d="M331.059,280.827c-0.072-1.174,0.074-2.391,0.477-3.65c2.086-6.539,13.52-15.52,18.26-20.264
				c6.83-6.836,16.205-11.834,24.988-15.318c8.436-3.347,16.098-9.254,24.883-12.717c9.654-3.805,19.115-5.309,29.09-5.791
				c9.893-0.479,16.498,0.076,25.943,3.531c10.109,3.699,20.434,8.176,29.115,14.814c11.441,8.752,39.703,22.242,34.381,40.891
				c-1.932,6.773-7.342,10.115-13.344,13.217c-11.631,6.014-20.041,10.009-32.91,10.381c-15.326,0.441-30.48,2.863-45.92,2.863
				c-20.945,0-42.473-1.062-62.812-6.465C354.527,300.015,331.791,292.587,331.059,280.827z"/>
		</g>
		<g>
			<path fill="#D0B35A" d="M233.497,189.093l-39.176,1.438l-5.71,23.663h-46.083l-5.709-23.663H97.669l-12.544,89.512
				c0.279,1.625,23.468,13.179,25.35,13.649c1.674,0.418,29.578,0.697,37.111,0.315c0.26-5.11,0.833-11.739,1.984-21.333
				c1.139-9.49,7.123-15.877,17.611-15.877c11,0,17.084,6.418,18.109,15.629c0.975,8.787,0.743,21.829,0.743,21.829
				s34.962,1.085,36.328,0.423l25.771-12.48L233.497,189.093z"/>
			<g>
				<rect x="98.671" y="185.606" fill="#D0B35A" width="8.168" height="6.604"/>
				<rect x="112.657" y="185.606" fill="#D0B35A" width="8.168" height="6.604"/>
				<rect x="126.395" y="185.606" fill="#D0B35A" width="8.168" height="6.604"/>
			</g>
			<g>
				<g>
					<rect x="147.516" y="208.093" fill="#D0B35A" width="8.168" height="6.605"/>
					<rect x="161.502" y="208.093" fill="#D0B35A" width="8.168" height="6.605"/>
					<rect x="175.24" y="208.093" fill="#D0B35A" width="8.166" height="6.605"/>
				</g>
			</g>
			<g>
				<rect x="195.583" y="185.606" fill="#D0B35A" width="8.165" height="6.604"/>
				<rect x="209.57" y="185.606" fill="#D0B35A" width="8.165" height="6.604"/>
				<rect x="223.306" y="185.606" fill="#D0B35A" width="8.165" height="6.604"/>
			</g>
		</g>
		<g>
			<path fill="#C4C63A" d="M425.176,211.46c0,0-5.256-0.299-5.152-9.266c0.088-8.026,5.359-8.848,5.359-8.848l17.361-2.032
				c0,0,3.762,0.851,3.762,11.165c0,9.881-4.014,11.144-4.014,11.144L425.176,211.46z"/>
			<path fill="#ABB138" d="M442.234,212.36c-1.814-0.021-3.234-4.467-3.176-9.932c0.057-5.461,1.588-9.876,3.402-9.855
				c1.814,0.021,3.238,4.468,3.178,9.932C445.576,207.968,444.053,212.38,442.234,212.36z"/>
			<path fill="#AAB036" d="M450.133,202.47c0,8.146-4.139,11.576-7.441,11.537c-0.531-0.007-1.156-0.111-1.283-0.533
				c0,0,0.615-0.051,1.043-0.08c2.154-0.141,6.393-3.369,6.393-10.777c0-6.939-4.156-10.593-6.26-10.775
				c-0.512-0.047-1.436-0.118-1.436-0.118c0.246-0.675,1.062-0.786,1.494-0.78C445.945,190.979,450.133,194.931,450.133,202.47z"/>
		</g>
		<g>
			<path fill="#8C9A98" d="M563.705,272.632c-0.785,0.043-2.156,0.118-2.924,0.158c-1.547-5.472-2.135-9.928-5.654-10.506
				c-3.812-0.627-27.75,2.125-27.25,15c0.463,11.932,28.982,14.629,32.625,12.125c2-1.375,2.387-8.077,1.264-11.295
				c0,0,0.785-0.008,2.531-0.11C564.297,276.187,564.021,273.896,563.705,272.632z"/>
			<path fill="#8C9A98" d="M588.975,271.679c-10.09,0.836-19.092,1.044-24.385,1.332c0.314,0.869,0.514,2.647,0.434,4.307
				c5.051-0.295,17.082-0.696,24.504-1.294C589.498,274.499,589.461,273.142,588.975,271.679z"/>
			<path fill="#8C9A98" d="M604.439,265.347c-2.438-3.564-12.363-4.64-10.799,5.205c-1.834,0.182-1.883,0.258-4,0.434
				c0.486,1.463,0.684,4.181,0.713,5.705c2.195-0.178,2.32-0.121,3.629-0.279c1.625,7.25,9.863,7.561,11.52,4.498
				C608.002,276.284,607.146,269.302,604.439,265.347z M601.254,278.916c-2.133,0.257-3.4-2.735-4.01-6.31
				c-0.68-4.008,0.154-5.883,2.049-5.883c1.703,0,3.555,2.051,4.178,5.457C604.123,275.745,603.385,278.661,601.254,278.916z"/>
		</g>
	</g>
</g>
</svg>
