<?xml version="1.0" encoding="utf-8"?>
<!-- Generator: Adobe Illustrator 15.0.2, SVG Export Plug-In . SVG Version: 6.00 Build 0)  -->
<!DOCTYPE svg PUBLIC "-//W3C//DTD SVG 1.1//EN" "http://www.w3.org/Graphics/SVG/1.1/DTD/svg11.dtd">
<svg version="1.1" id="Layer_1" xmlns="http://www.w3.org/2000/svg" xmlns:xlink="http://www.w3.org/1999/xlink" x="0px" y="0px"
	 width="720px" height="460px" viewBox="0 0 720 460" enable-background="new 0 0 720 460" xml:space="preserve">
<g>
	<g>
		<polygon fill="#4AA191" points="611.907,268.621 492.952,409.963 108.093,336.848 279.529,247.629 		"/>
		<polygon fill="#E2DED1" points="599.664,60.449 281.279,84.479 279.529,247.629 611.907,268.621 		"/>
		<polygon fill="#F3F2EC" points="124.204,50.038 281.279,84.479 279.529,247.629 108.093,336.848 		"/>
	</g>
	<g>
		<polygon fill="#AAABA8" points="553.978,330.281 550.356,332.877 544.38,331.385 543.927,264.309 553.978,265.041 		"/>
		<polygon fill="#AAABA8" points="592.645,285.514 589.023,288.109 583.047,286.617 582.594,230.541 592.645,231.273 		"/>
		<polygon fill="#AAABA8" points="354.696,298.049 351.298,300.484 345.687,299.086 345.261,234.891 354.696,235.578 		"/>
		<polygon fill="#EFEDE6" points="601.363,218.279 391.427,204.367 334.009,233.941 334.009,260.49 561.184,285.484 602.363,249.83 
					"/>
		<polygon fill="#F3F2EC" points="601.363,218.279 391.427,204.367 334.009,233.941 559.531,253.248 		"/>
	</g>
	<g>
		<g>
			<g>
				<path fill="#7A574A" d="M481.935,227.123c-5.428,1.701-12.887,2.68-20.608,2.68c-11.199,0-24.226-2.053-28.119-7.598
					c-0.112,0.154-0.233,0.307-0.341,0.463c-6.066,8.789-7.326,18.812-2.691,31.602l4.4,0.047
					c1.699-11.479,8.413-15.297,16.087-16.545c-2.582,3.516-0.432,13.971,4.066,19.494l5.791-0.148
					c0-17.83,23.456-15.73,21.442-29.852C481.956,227.219,481.94,227.17,481.935,227.123z"/>
			</g>
		</g>
		<path fill="#7A574A" d="M445.414,143.455c-1.195,0.192-2.316,0.415-3.316,0.638c-0.281,0.357-0.555,0.731-0.811,1.138
			c-5.468,8.741-3.243,23.146-3.243,23.146l1.187-1.296l1.793,3.708l0.395-0.431c-0.943-3.232-1.516-6.979-1.486-11.224
			C439.977,153.195,441.981,147.73,445.414,143.455z"/>
		<path fill="#7A574A" d="M503.048,225.682c0.307,1.072,0.494,2.232-0.84,2.486c-1.176,0.225-1.814-0.684-2.617-1.312
			c-1.023-0.801-1.945-1.234-2.598-0.764c-0.877,0.633,0.498,2.008-0.117,2.545c-0.49,0.43-1.178-0.066-1.766-0.541
			c-0.633-0.518-1.123-1.504-1.332-2.184c-0.463-1.494,0.068-2.734,1.33-3.434C497.839,220.963,502.169,222.609,503.048,225.682z"/>
		<path fill="#7A574A" d="M417.134,221.545c-0.176,1.102-0.221,2.277,1.135,2.365c1.193,0.082,1.717-0.898,2.438-1.621
			c0.92-0.92,1.783-1.459,2.486-1.072c0.949,0.521-0.25,2.055,0.426,2.512c0.539,0.369,1.158-0.209,1.686-0.75
			c0.566-0.592,0.934-1.631,1.059-2.33c0.279-1.539-0.398-2.705-1.736-3.248C421.731,216.227,417.632,218.389,417.134,221.545z"/>
		<path fill="#7A574A" d="M460.715,260.35c0.27,1.062,0.148,5.059-0.945,5.766c-2.145,1.393-4.162-0.943-4.158-3.527
			C455.615,258.211,459.641,256.125,460.715,260.35z"/>
		<path fill="#7A574A" d="M435.226,257.422c0.279,1.049,0.195,5.006-0.893,5.721c-2.127,1.404-4.188-0.496-4.186-3.438
			C430.151,255.334,434.112,253.254,435.226,257.422z"/>
		<g>
			<path fill="#7A574A" d="M456.355,142.382c4.982,1.146,8.425,6.768,9.485,9.339c0.609,1.473,2.18,4.141,2.943,10.927
				c0.572,5.071,0.568,15.437,0.582,15.536c1.344-0.245,3.887-2.381,3.887-2.381l1.156,6.81l5.18-5.091l0.717,3.602
				c0,0,5.734-11.152,6.406-20.64c0.637-9.013-3.537-16.338-7.375-19.952c-3.188-2.997-6.543-5.139-11.395-5.942
				c-5.364-0.889-9.913,0.14-16.144,0.852c-4.965,0.568-14.628,0.285-14.628,0.285l6.993,3.77l-6.64,4.759
				C437.524,144.254,448.768,140.635,456.355,142.382z"/>
		</g>
		<g>
			<path fill="#7A574A" d="M472.546,177.613c-0.919,0.657-2.104,1.391-3,1.554l-1.029,0.188l-0.142-1.036
				c-0.011-0.077-0.011-0.077-0.015-0.688c-0.055-6.99-0.246-11.994-0.57-14.872c-0.643-5.703-1.844-8.361-2.562-9.949
				c-0.12-0.264-0.225-0.497-0.312-0.707c-0.854-2.067-4.095-7.667-8.786-8.746c-1.299-0.299-2.816-0.451-4.506-0.451
				s-3.418,0.152-5.056,0.377c-3.495,4.01-5.782,9.394-5.829,15.854c-0.113,15.685,8.025,24.174,12.217,24.677
				c3.982,0.477,12.495-1.102,19.599-6.142L472.546,177.613z M445.838,159.142c-0.225,1.568-0.977,2.758-1.684,2.656
				c-0.701-0.1-1.096-1.451-0.873-3.018c0.223-1.569,0.977-2.76,1.68-2.661C445.668,156.221,446.061,157.572,445.838,159.142z
				 M455.58,161.059c-0.219,1.535-1.045,2.688-1.85,2.573c-0.801-0.112-1.275-1.449-1.057-2.985c0.219-1.539,1.047-2.688,1.85-2.576
				C455.322,158.185,455.795,159.523,455.58,161.059z"/>
			<g>
				<path fill="#7A574A" d="M492.688,222.738l4.992-2.113c-7.38-24.316-15.573-36.198-27.88-40.06
					c-5.45,2.972-11.354,4.33-15.346,4.33c-0.584,0-1.129-0.03-1.617-0.088c-1.611-0.193-3.641-1.38-5.621-3.456
					c-15.128,5.905-22.571,22.219-24.823,34.042l4.406,1.434c4.379-12.877,12.56-19.295,12.56-19.295s-5.604,9.68-6.286,21.652
					c1.053,10.01,33.207,12.059,49.057,6.838c-0.691-14.234-2.697-25.621-2.697-25.621S486.776,205.889,492.688,222.738z"/>
			</g>
		</g>
	</g>
	<polygon fill="#C7C4BA" points="306.864,259.893 164.428,347.549 108.093,336.848 114.578,227.662 306.864,197.387 	"/>
	<polygon fill="#D8D3C1" points="164.428,347.549 108.093,336.848 114.227,227.662 170.144,234.434 	"/>
	<polygon fill="#AAABA8" points="283.008,163.479 281.279,190.875 114.578,221.4 117.502,169.344 	"/>
	<polygon fill="#C7C4BA" points="298.863,161.089 151.863,173.311 157.526,51.207 301.864,82.925 	"/>
	<polygon fill="#D8D3C1" points="151.863,173.311 117.502,169.344 124.204,50.038 157.526,51.207 	"/>
	<polygon fill="#AAABA8" points="310.864,193.59 281.279,190.875 114.578,221.4 114.227,227.662 172.308,237.482 310.864,196.881 	
		"/>
	<polygon fill="#B5B6B3" points="310.864,193.59 281.279,190.875 114.578,221.4 172.308,230.482 	"/>
	<g>
		<g>
			<path fill="#FFFFFF" d="M243.101,324.934c1.472,0.748,5.188,1.359,6.39,0.264c2.357-2.148-0.129-4.707-2.374-5.85
				C241.953,316.711,237.256,321.967,243.101,324.934z"/>
		</g>
		<g>
			<path fill="#FFFFFF" d="M279.4,318.766c1.47,0.748,5.187,1.357,6.388,0.264c2.358-2.148-0.128-4.705-2.372-5.852
				C278.252,310.545,273.553,315.799,279.4,318.766z"/>
		</g>
		<g>
			<g>
				<path fill="#FFFFFF" d="M269.751,291.543c2.628,5.846,4.61,12.252,6.733,20.381l6.551-0.629
					c2.368-7.922,4.376-16.604,5.671-25.17C283.681,288.689,276.824,290.473,269.751,291.543z"/>
			</g>
			<g>
				<path fill="#FFFFFF" d="M253.729,292.768c-5.873,0-10.966-0.512-15.123-1.467c1.079,9.139,1.913,17.986,2.346,26.635
					l5.982-0.484c5.103-10.311,8.589-17.803,11.275-24.789C256.678,292.73,255.177,292.768,253.729,292.768z"/>
			</g>
		</g>
		<path fill="#FFFFFF" d="M235.032,259.871c1.751-0.264,2.637-1.943,2.544-3.943c-0.091-1.967-1.314-2.988-3.13-3.361l0.355-2.271
			c-1.091-0.244-2.446-0.025-3.353,0.322c-1.993,0.764-2.818,2.752-2.729,4.715C228.852,258.211,231.218,260.453,235.032,259.871z"
			/>
		<path fill="#FFFFFF" d="M288.904,239.17c2.536,1.029,4.7,3.016,3.596,6.312c-0.879,2.625-5.3,2.965-6.354-0.42
			c-0.789-2.539,1.394-3.453,3.043-4.15L288.904,239.17z"/>
		<g>
			<g>
				<path fill="#FFFFFF" d="M240.071,188.234c2.14-2.266,4.143-2.529,6.453-3.516c-1.33-6.11-1.675-10.674-0.01-14.992
					c1.411-3.634,5.584-7.45,9.809-9.363c3.136-1.417,7.118-2.428,10.218-1.667c3.655,0.896,5.599,5.334,7.084,9.85
					c-0.586-8.183-6.589-15.254-12.906-18.356c-6.112-3.007-23.528-3.784-31.524,6.285c-12.967,16.324,2.802,37.196,5.603,39.778
					c1.093,1.01,5.723,3.146,7.102,3.469C239.429,194.926,238.232,190.179,240.071,188.234z"/>
			</g>
			<g>
				<path fill="#FFFFFF" d="M274.65,198.818c-1.024-0.342-2.1-0.664-3.209-0.963c-1.87,3.098-4.105,5.084-6.162,5.689
					c-1.842,0.543-4.431,0.855-7.103,0.855c-2.911,0-7.296-0.363-11.654-2.088c-1.457-0.578-2.952-1.361-4.445-2.326l-0.138-0.088
					c-25.753,11.93-27.448,39.031-16.302,55.664l2.742-3.396c0.342-0.674,0.806-1.256,1.384-1.715l0.622-0.771
					c-3.467-5.943-5.266-23.705,5.258-26.57c3.043,7.602,2.603,17.836,0.429,28.951c1.541,0.729,2.421,2.045,2.503,3.822
					c0.123,2.652-1.24,4.652-3.393,4.979c-0.39,0.059-0.771,0.08-1.146,0.088c-1.863,7.205-4.228,14.576-6.666,21.68
					c2.673,13.455,52.079,10.857,64.994-0.049c0.386-11.75-0.978-23.727-2.814-34.062c-0.046,0-0.089,0.01-0.135,0.01
					c-1.997,0-3.615-1.215-4.224-3.168c-0.889-2.863,1.119-4.221,2.754-4.992c-2.712-12.578-5.648-21.203-5.648-21.203
					s14.609,6.293,8.93,19.871l0.614,0.721c0.529,0.453,0.956,0.953,1.272,1.494l1.234,1.449
					C311.171,223.998,289.01,203.611,274.65,198.818z"/>
			</g>
			<path fill="#FFFFFF" d="M274.289,174.923c-0.02-0.114-0.042-0.24-0.062-0.375l-0.056-0.311c-0.347-1.822-0.819-3.643-1.4-5.412
				c-1.412-4.289-3.138-8.277-6.439-9.154c-2.711-0.721-7.049,0.398-9.828,1.665c-3.697,1.688-7.877,5.438-9.146,8.716
				c-1.647,4.259-1.172,8.869,0.049,14.476l0.155,0.728l-0.685,0.292c-0.573,0.244-1.12,0.447-1.648,0.639
				c-1.059,0.381-2.062,0.747-3.029,1.404c-0.52,0.35-1.001,0.766-1.474,1.263c-1.324,1.402-0.58,5.436,1.895,10.293
				c1.328,0.859,2.764,1.639,4.271,2.236c6.781,2.684,14.549,2.252,18.104,1.203C269.383,201.293,276.424,191.135,274.289,174.923z
				 M260.161,180.543c-0.873,0.277-2.014-0.851-2.547-2.524c-0.528-1.67-0.253-3.252,0.615-3.53
				c0.876-0.275,2.016,0.853,2.548,2.525C261.311,178.687,261.03,180.264,260.161,180.543z M270.553,177.345
				c-0.771,0.246-1.831-0.937-2.378-2.646c-0.541-1.705-0.361-3.286,0.406-3.531c0.769-0.242,1.832,0.943,2.377,2.649
				C271.499,175.521,271.312,177.1,270.553,177.345z"/>
		</g>
	</g>
	<g>
		<polygon fill="#B96654" points="205.093,129.21 197.102,128.839 198.633,95.875 206.577,97.245 		"/>
		<polygon fill="#B96654" points="213.262,118.578 188.948,116.447 189.428,106.125 213.695,109.253 		"/>
	</g>
</g>
</svg>
