<?xml version="1.0" encoding="utf-8"?>
<!-- Generator: Adobe Illustrator 15.0.2, SVG Export Plug-In . SVG Version: 6.00 Build 0)  -->
<!DOCTYPE svg PUBLIC "-//W3C//DTD SVG 1.1//EN" "http://www.w3.org/Graphics/SVG/1.1/DTD/svg11.dtd">
<svg version="1.1" id="Layer_1" xmlns="http://www.w3.org/2000/svg" xmlns:xlink="http://www.w3.org/1999/xlink" x="0px" y="0px"
	 width="720px" height="460px" viewBox="0 0 720 460" enable-background="new 0 0 720 460" xml:space="preserve">
<g>
	<g>
		<polygon fill="#D0988C" points="417.24,113.588 641.043,217.817 277.598,452.296 78.956,212.349 		"/>
	</g>
</g>
<g>
	<g>
		<path fill="#A1856E" d="M508.783,254.558c-1.793,0.562-5.951,1.676-7.662,0.301c-3.684-2.963,1.238-6.91,3.797-8.391
			C511.488,242.669,516.787,252.038,508.783,254.558z"/>
		<path fill="#A1856E" d="M455.043,243.474c-1.814,0.457-6.016,1.334-7.635-0.148c-3.492-3.178,1.623-6.854,4.256-8.188
			C458.408,231.708,463.143,241.415,455.043,243.474z"/>
	</g>
	<g>
		<g>
			<path fill="#A1856E" d="M521.373,172.407c-1.527,1.164-3.506,2.051-5.732,2.73c0.053,0.4,0.088,0.811,0.1,1.232
				c0.051,1.863-0.822,5.658-2.537,7.645c-2.139,2.482-5.236,3.906-8.496,3.906c-1.516,0-3.045-0.307-4.545-0.914l-1.703-0.688
				l1.502-1.057c1.707-1.203,3.736-2.723,4.023-3.074l0.094-0.127l0.127-0.094c0.336-0.242,0.914-0.705,1.088-0.922
				c0.789-0.99,1.152-2.139,0.949-2.998c-0.107-0.453-0.383-0.842-0.803-1.166c-0.193,0.016-0.385,0.031-0.578,0.045
				c-0.434,0.285-0.885,0.609-1.361,0.961c-0.559,0.414-1.137,0.842-1.717,1.213l-0.588,0.375l-0.555-0.422
				c-0.584-0.443-0.979-1.105-1.18-1.92c-0.346,0.004-0.695,0.008-1.033,0.008c-19.76,0-46.152-5.672-52.432-13.809
				c-1.318-1.709-1.75-3.477-1.285-5.252c0.436-1.66,0.85-3.316,1.248-4.965c-1.09,1.76-1.793,3.537-2.035,5.264
				c-2.895,20.719,0.914,46.942,7.48,73.983l9.277,0.789c4.82-16.086,12.273-32.041,21.758-41.959
				c5.928,18.912,13.572,38.117,22.373,52.996l8.303,0.443C512.836,204.976,518.846,196.173,521.373,172.407z"/>
		</g>
		<g>
			<path fill="#A1856E" d="M508.137,84.397c-4.08-3.402-9.008-6.344-14.639-7.982c-7.439,3.971-14.641,5.549-18.678,5.549
				c-0.117,0-0.232-0.002-0.346-0.004c-1.982-0.045-4.5-1.07-7.129-3.051c-19.885,8.4-42.768,29.998-50.176,59.748l7.746,3.562
				c10.982-26.203,29.758-35.025,29.758-35.025s-2.15,25.043-8.996,51.141c-2.592,9.889,29.834,18.006,53.646,17.799
				c-0.084-1.908,0.723-4.148,2.137-5.82c1.426-1.691,3.373-2.658,5.514-2.77l0.088-0.213c9.186-22.412,8.17-38.344-3.512-54.988
				l0.818-0.574c11.834,16.861,12.939,32.977,3.783,55.535l7.438,4.254C538.141,142.604,528.387,101.286,508.137,84.397z"/>
		</g>
		<path fill="#E4E1D5" d="M514.105,165.34c-0.963-7.371-68.014-22.014-79.385-22.527c-10.297-0.467-38.574,17.076-36.678,23.477
			c0.783,2.645,5.006,23.471,6.039,26.961c1.861,6.281,62.584,25.5,72.268,24.574c10.355-0.986,27.543-17.471,29.256-21.893
			C507.803,190.252,514.912,171.528,514.105,165.34z"/>
		<path fill="#C7C4BA" d="M509.646,165.483c1.139,8.734-20.615,23.348-31.496,24.387c-10.172,0.971-73.705-16.908-75.66-23.504
			c-1.75-5.91,24.355-22.105,33.863-21.678C446.852,145.165,508.758,158.682,509.646,165.483z"/>
		<g>
			<path fill="#C9887A" d="M413.219,162.624c-0.969-1.881,1.725-4.316,4.277-6.102c2.943-2.062,6.344-3.508,7.27-1.711
				c1.178,2.287-0.996,4.461-3.518,6.271C418.197,163.278,414.078,164.286,413.219,162.624z"/>
			<path fill="#99A031" d="M423.336,155.032c2.668-0.799,9.615,2.008,11.346,3.055c3.91,2.365,7.307,5.539,5.283,10.859
				c-1.963,5.164-8.145,9.365-13.143,10.449c-3.658,0.797-7.688-0.318-10.629-2.5c-1.959-1.455-6.777-4.834-7.801-7.148
				c-0.762-1.721,0.02-3.404,1.074-4.689C409.777,164.678,421.258,155.653,423.336,155.032z"/>
			<path fill="#971B00" d="M442.006,150.879c4.854,1.41,10.209,2.643,14.865,5.115c3.07,1.633,9.555,3.465,10.643,7.625
				c1.129,4.309-4.111,9.35-6.314,12.172c-5.408,6.93-18.1,1.658-24.619-1.602c-4.053-2.029-3.721-5.389-5.488-9.223
				c-0.859-1.869-2.115-2.961-1.754-5.184c0.229-1.42,1.791-3.906,2.508-5.221C434.164,150.309,437.834,149.665,442.006,150.879z"/>
			<path fill="#AAABA8" d="M458.209,166.116c-0.084-2.318,1.924-4.811,3.133-6.613c1.645-2.449,2.32-2.791,5.182-2.768
				c5.172,0.047,10.359,1.27,15.107,3.256c3.992,1.664,8.414,2.932,12.125,4.816c8.062,4.094-3.402,11.031-7.346,12.639
				C479.936,180.083,458.598,176.786,458.209,166.116z"/>
			<path fill="#888886" d="M478.646,181.569c-3.789-3.979,5.891-8.611,8.58-10.412c4.973-3.336,7.617-4.936,13.115-2.781
				c1.834,0.717,4.188,1.258,5.578,2.893c1.762,2.068,0.492,3.385-1.709,5.283c-2.672,2.301-5.457,4.061-7.947,6.705
				c-3.303,3.504-4,4.041-8.223,2.625C484.871,184.815,481.15,184.2,478.646,181.569z"/>
			<path fill="#4E7094" d="M425.271,159.756c3.688-2.344,5.57-2.785,9.652-0.969c3.496,1.559,6.932,3.887,10.328,5.695
				c3.029,1.613,6.441,2.514,9.254,4.283c1.371,3.637-6.074,9.023-8.352,11.441c-1.404,1.492-3.219,4.197-5.008,5.121
				c-2.201,1.143-4.004,0.254-6.336-0.668c-5.57-2.201-11.127-4.258-16.387-7.162c-1.529-0.846-6.416-2.545-7.328-4.049
				C408.908,169.844,422.904,161.26,425.271,159.756z"/>
			<path fill="#5FB8AC" d="M460.303,183.495c0.576-2.537,4.404-5.607,6.01-7.428c1.479-1.674,2.854-3.543,4.738-4.576
				c8.031-4.398,19.615,2.695,25.443,8.803c2.814,2.947,0.883,3.857-1.918,5.545c-3.027,1.818-6.25,3.418-9.352,5.014
				c-5.979,3.077-8.775,5.26-14.838,1.913C467.312,191.067,459.029,189.096,460.303,183.495z"/>
			<path fill="#C22D00" d="M441.492,183.016c-5.143-2.215,0.852-7.277,3.178-10.465c3.916-5.363,6.189-9.5,12.82-7.98
				c4.998,1.148,9.053,4.785,13.697,6.629c3.043,1.211,7.215,0.521,5.148,4.875c-1.695,3.576-4.797,6.699-6.539,10.074
				c-1.674,3.24-2.658,5.704-6.451,4.883c-3.15-0.682-6.078-2.633-9.17-3.645C449.924,185.997,445.625,184.799,441.492,183.016z"/>
			<path fill="#666665" d="M429.004,161.319c3.432-2.393,4.934-3.213,9.234-2.932c4.328,0.281,8.094,1.438,12.164,2.824
				c6.758,2.305,13.793,3.408,20.449,5.623c1.102,0.365,3.434,0.932,3.768,2.17c0.455,1.686-2.277,3.885-3.283,4.865
				c-3.729,3.635-6.904,7.816-10.662,11.395c-6.465,6.165-15.986,1.332-23.602-0.494c-3.877-0.93-7.682-2.168-11.385-3.643
				c-2.883-1.15-7.221-2.434-8.615-5.551c-1.457-3.252,1.533-5.162,3.693-7.041C423.523,166.133,425.99,163.422,429.004,161.319z"/>
			<path fill="#E4E1D5" d="M478.15,189.87c-10.172,0.971-73.705-16.908-75.66-23.504c-0.545-1.838,1.605-4.67,5.109-7.686
				c-0.879-0.623-1.84-1.158-2.801-1.732c-4.506,3.641-7.406,7.145-6.756,9.342c0.783,2.645,5.006,23.471,6.039,26.961
				c1.861,6.281,62.584,25.5,72.268,24.574c10.355-0.986,27.543-17.471,29.256-21.893c0.373-0.963,0.895-2.326,1.486-3.912
				c-4.908-1.422-2.357-8.418-6.482-12.59C495.078,182.795,482.381,189.465,478.15,189.87z"/>
			<path fill="#C7C4BA" d="M495.924,192.294c-1.002-1.444,0.881-4.526,3.762-6.877c1.492-1.219,4.789-4.447,6.631-4.258
				c3.121,0.328-0.527,5.479-2.869,7.902C500.617,191.995,496.721,193.45,495.924,192.294z"/>
		</g>
	</g>
	<g>
		<path fill="#A1856E" d="M415.418,149.909c1.424-0.779,4.201-2.926,5.844-0.465c0.525,0.785,0.125,2.012,1.26,2.316
			c1.018,0.273,1.715-0.6,2.092-1.367c1.699-3.471-1.418-7.225-4.453-8.371c-3.143-1.188-6.127-0.16-7.949,2.623
			c-0.842,1.287-2.779,5.664-2.965,9.133C411.953,151.79,414.875,150.206,415.418,149.909z"/>
	</g>
	<g>
		<g>
			<path fill="#A1856E" d="M512.445,183.362c-2.406,2.793-6.863,4.756-11.91,2.719c0,0,3.801-2.676,4.258-3.303
				c0,0,0.939-0.684,1.281-1.109c1.543-1.938,2.008-4.762-0.891-6.105c-1.223,0.627-2.598,1.838-3.939,2.693
				c-1.605-1.217-1.066-4.877,0.98-7.299c2.291-2.719,5.77-3.059,8.785-1.529c2.51,1.275,3.654,4.162,3.73,6.969
				C514.787,178.112,513.928,181.643,512.445,183.362z"/>
		</g>
		<g>
			<g>
				<path fill="#A1856E" d="M501.244,178.256c0.574-0.365,1.152-0.797,1.725-1.219c-0.838,0.039-1.664,0.062-2.479,0.08
					C500.643,177.588,500.887,177.985,501.244,178.256z"/>
			</g>
		</g>
	</g>
	<g>
		<path fill="#A1856E" d="M523.348,160.711c-1.871,4.074-4.258,8.035-7.238,11.805l-0.266,0.338l-1.023-0.586
			c0.262,0.59,0.488,1.207,0.637,1.877c5.191-1.594,8.359-4.203,8.092-8.043C523.42,164.237,523.365,162.454,523.348,160.711z"/>
	</g>
	<g>
		<path fill="#A1856E" d="M518.947,38.057c-0.348-13.248-5.789-18.199-11.902-22.932c-5.078-3.924-9.443-6.057-17.471-7.066
			c-7.916-0.994-16.234,0.078-23.447,3.523c-8.131,3.887-15.014,12.801-16.629,24.689c-2.666,19.6,6.41,27.746,6.41,27.746
			c-1.836-4.588-3.205-9.975-3.756-16.176c-0.688-7.686,3.168-18.57,8.893-25.9c1.74,2.684,8.223,5.158,12.193,5.676
			c7.434,0.971,15.66,4.184,18.891,9.527c5.814,9.621-2.619,24.229,5.678,34.352c5.215,6.361,19.701,4.338,19.701,4.338
			s-2.646-5.898-2.152-11.008C516.025,57.891,519.305,52,518.947,38.057z"/>
		<g>
			<path fill="#A1856E" d="M497.033,72.129c-4.738-5.781-4.314-12.793-3.904-19.572c0.334-5.527,0.65-10.748-1.855-14.895
				c-3.236-5.354-11.807-8.223-18.164-9.053c-3.527-0.461-9.324-2.453-12.018-5.068c-4.67,6.418-7.797,15.01-8.002,21.754
				c0.025,0.453,0.051,0.906,0.092,1.365c2.049,22.914,15.125,34.156,21.314,34.299c4.975,0.111,14.461-2.385,23.109-8.203
				C497.408,72.555,497.213,72.348,497.033,72.129z M460.621,45.95c-0.104,2.32-1.037,4.162-2.078,4.115
				c-1.037-0.047-1.811-1.963-1.703-4.285c0.102-2.318,1.037-4.162,2.078-4.119C459.961,41.709,460.729,43.629,460.621,45.95z
				 M472.777,51.393c-1.182-0.055-2.066-1.939-1.963-4.211c0.102-2.277,1.146-4.072,2.334-4.025
				c1.182,0.055,2.064,1.941,1.967,4.213C475.01,49.643,473.969,51.444,472.777,51.393z"/>
			<path fill="#A1856E" d="M459.68,22.356c-2.963,4.039-5.115,8.852-6.084,14.27c1.539-5.16,4.145-10.406,7.348-14.547
				C460.52,22.168,460.096,22.258,459.68,22.356z"/>
		</g>
	</g>
</g>
<g>
	<polygon fill="#A15A34" points="286.374,408.208 276.505,413.507 269.014,405.339 269.014,301.046 286.374,301.046 	"/>
	<polygon fill="#A15A34" points="139.136,244.03 130.456,248.69 123.868,241.507 123.868,149.786 139.136,149.786 	"/>
	<polygon fill="#A15A34" points="386.346,352.347 376.477,357.644 368.984,349.476 368.984,248.825 386.346,248.825 	"/>
	<g>
		<polygon fill="#A15A34" points="398.797,252.177 222.644,125.292 109.771,152.893 109.771,163.825 265.058,327.618 
			398.797,264.323 		"/>
		<polygon fill="#AB6C4A" points="265.058,311.827 109.771,152.893 222.644,125.292 398.797,252.177 		"/>
	</g>
</g>
<g>
	<path fill="#C83B0C" d="M366.742,107.407c-0.492,1.184-1.158,2.361-2.537,1.633c-1.221-0.643-1.139-1.918-1.41-3.059
		c-0.344-1.461-0.863-2.506-1.785-2.551c-1.244-0.062-0.992,2.162-1.934,2.203c-0.748,0.031-1.008-0.904-1.195-1.754
		c-0.199-0.922,0.068-2.158,0.369-2.92c0.656-1.674,2.023-2.406,3.66-2.129C365.449,99.428,368.16,104.016,366.742,107.407z"/>
	<path fill="#C83B0C" d="M279.065,117.125c0.856,0.955,1.877,1.844,2.934,0.697c0.936-1.012,0.438-2.188,0.314-3.352
		c-0.159-1.492-0.02-2.652,0.837-3c1.151-0.471,1.656,1.709,2.553,1.434c0.718-0.217,0.651-1.188,0.546-2.051
		c-0.117-0.934-0.781-2.012-1.316-2.631c-1.178-1.359-2.709-1.598-4.159-0.791C277.633,109.172,276.601,114.401,279.065,117.125z"/>
	<path fill="#C83B0C" d="M309.93,164.995c1.395,0.232,4.609,0.678,5.779-0.027c2.52-1.523-1.504-3.332-3.549-3.992
		C306.912,159.278,303.713,163.952,309.93,164.995z"/>
	<path fill="#C83B0C" d="M338.336,162.276c1.404,0.145,4.643,0.393,5.764-0.387c2.422-1.672-1.705-3.229-3.787-3.762
		C334.971,156.758,332.066,161.62,338.336,162.276z"/>
	<g>
		<g>
			<path fill="#C83B0C" d="M319.561,119.315c-8.439,0-17.312-1.537-21.007-5.555c0.06,15.119,3.429,31.076,8.621,45.826l5.062-0.113
				c3.076-14.447,5.553-23.256,11.006-30.889c5.133,6.168,8.57,15.582,12.33,28.365l5.547-0.209
				c2.932-15.32,6.441-32.088,6.732-44.594C342.66,117.057,329.516,119.315,319.561,119.315z"/>
		</g>
	</g>
	<g>
		<g>
			<path fill="#C83B0C" d="M328.34,21.094c-5.041,0.941-8.723,6.436-9.891,8.969c-0.674,1.451-2.355,4.061-3.404,10.832
				c-0.781,5.061-1.203,15.451-1.223,15.553c-1.336-0.303-3.799-2.547-3.799-2.547l-1.438,6.777l-4.984-5.318l-0.869,3.58
				c0,0-5.285-11.416-5.567-20.955c-0.267-9.061,4.218-16.232,8.218-19.695c3.316-2.873,6.77-4.881,11.664-5.486
				c5.42-0.67,9.932,0.547,16.148,1.52c4.953,0.773,14.652,0.887,14.652,0.887l-7.164,3.492l6.459,5.045
				C347.143,23.747,336.021,19.655,328.34,21.094z"/>
		</g>
		<path fill="#C83B0C" d="M356.807,98.204l5.662-1.639c-3.709-19.785-13.449-32.586-24.529-38.334
			c-2.676,3.477-5.658,5.363-7.82,5.533c-0.301,0.023-0.625,0.035-0.963,0.035c-3.906,0-10.006-1.531-15.613-4.836
			c-1.104,0.396-2.244,0.812-3.465,1.256c-0.135,0.049-0.271,0.113-0.408,0.166l-0.105,0.5l-0.398,1.875l-1.311-1.398l-0.094-0.102
			c-11.52,6.109-23.814,26.24-27.233,43.721l5.953,1.67c5.409-16.383,16.036-26.424,16.036-26.424s-4.744,16.633-4.744,29.133
			c0,13.867,51.328,10.357,51.328-1.848c0-18.852-4.678-32.105-4.678-32.105S352.77,83.348,356.807,98.204z"/>
		<path fill="#C83B0C" d="M343.328,24.567c-0.289-0.508-0.605-0.977-0.938-1.416c-0.91-0.24-1.93-0.477-3-0.695
			c3.406,4.559,5.117,10.102,4.914,16.111c-0.146,4.322-0.906,8.096-2.012,11.338l0.246,0.295l1.951-3.643l1.137,1.346
			C345.627,47.903,348.451,33.557,343.328,24.567z"/>
	</g>
	<path fill="#C83B0C" d="M338.113,22.397c-1.986-0.355-4.107-0.609-6.146-0.609c-1.258,0-2.416,0.098-3.443,0.289
		c-4.748,0.889-8.227,6.369-9.166,8.408c-0.096,0.203-0.209,0.428-0.336,0.684c-0.787,1.561-2.104,4.174-2.988,9.879
		c-0.441,2.861-0.84,7.863-1.182,14.863c-0.031,0.637-0.031,0.637-0.045,0.717l-0.188,1.025l-1.018-0.23
		c-0.893-0.201-2.051-0.988-2.945-1.686l-0.014,0.062c6.916,5.346,15.385,7.281,19.398,6.969c4.223-0.334,12.73-8.508,13.264-24.236
		C343.523,32.053,341.451,26.561,338.113,22.397z M327.959,43.471c-0.812,0.08-1.592-1.109-1.748-2.658
		c-0.154-1.549,0.379-2.869,1.184-2.951c0.811-0.08,1.592,1.107,1.746,2.66C329.297,42.071,328.764,43.389,327.959,43.471z
		 M337.633,42.028c-0.711,0.07-1.416-1.152-1.578-2.734c-0.156-1.58,0.293-2.92,1.004-2.994c0.711-0.068,1.418,1.154,1.576,2.738
		C338.795,40.618,338.34,41.958,337.633,42.028z"/>
</g>
<polygon fill="#A1856E" points="510.844,159.95 508.152,167.303 515.59,171.557 520.607,163.948 "/>
</svg>
