<?xml version="1.0" encoding="utf-8"?>
<!-- Generator: Adobe Illustrator 15.0.2, SVG Export Plug-In . SVG Version: 6.00 Build 0)  -->
<!DOCTYPE svg PUBLIC "-//W3C//DTD SVG 1.1//EN" "http://www.w3.org/Graphics/SVG/1.1/DTD/svg11.dtd">
<svg version="1.1" id="Layer_1" xmlns="http://www.w3.org/2000/svg" xmlns:xlink="http://www.w3.org/1999/xlink" x="0px" y="0px"
	 width="720px" height="460px" viewBox="0 0 720 460" enable-background="new 0 0 720 460" xml:space="preserve">
<g>
	<polygon fill="#C6B99E" points="109.612,306.707 78,354.888 642,353.3 608,303.001 	"/>
</g>
<g>
	<polygon fill="#E0DFD9" points="109.612,306.707 108,107.112 608,105.112 608,303.001 	"/>
</g>
<g>
	<polygon fill="#AE9E7D" points="413.488,321.856 409.771,321.856 408.922,321.085 408.922,288.678 413.488,288.678 	"/>
	<polygon fill="#AE9E7D" points="560.588,321.856 557.707,321.856 556.023,321.085 556.023,288.678 560.588,288.678 	"/>
	<polygon fill="#C4B79B" points="571.492,294.455 564.492,283.759 399.277,283.759 399.277,285.759 400.277,296.455 
		571.492,296.455 	"/>
	<polygon fill="#AE9E7D" points="563.492,246.652 398.277,246.652 399.277,285.759 399.777,284.259 564.492,283.759 
		564.492,247.652 	"/>
</g>
<g>
	<circle fill="#B8B8B6" cx="516.25" cy="160.716" r="29.75"/>
	<circle fill="#E3E1DC" cx="516.25" cy="160.716" r="26.01"/>
	<g>
		<path fill="#939491" d="M527.586,168.323c-0.24,0-0.482-0.058-0.709-0.18l-11.725-6.315l-8.177-14.707
			c-0.401-0.724-0.141-1.637,0.582-2.039c0.726-0.403,1.638-0.142,2.041,0.582l7.748,13.939l10.951,5.898
			c0.729,0.394,1.002,1.303,0.609,2.032C528.637,168.037,528.121,168.323,527.586,168.323z"/>
	</g>
	<g>
		<g>
			<g>
				<path fill="#AAABA8" d="M516.25,141.479c-0.828,0-1.5-0.672-1.5-1.5v-2.539c0-0.829,0.672-1.5,1.5-1.5s1.5,0.671,1.5,1.5v2.539
					C517.75,140.807,517.078,141.479,516.25,141.479z"/>
				<path fill="#AAABA8" d="M516.25,184.29c-0.828,0-1.5-0.672-1.5-1.5v-2.539c0-0.827,0.672-1.5,1.5-1.5s1.5,0.673,1.5,1.5v2.539
					C517.75,183.618,517.078,184.29,516.25,184.29z"/>
			</g>
		</g>
		<g>
			<g>
				<path fill="#AAABA8" d="M506.184,144.177c-0.52,0-1.022-0.27-1.301-0.751l-1.27-2.199c-0.414-0.718-0.168-1.635,0.549-2.049
					c0.719-0.414,1.635-0.168,2.049,0.549l1.271,2.2c0.413,0.718,0.168,1.635-0.55,2.049
					C506.695,144.112,506.438,144.177,506.184,144.177z"/>
				<path fill="#AAABA8" d="M527.59,181.252c-0.52,0-1.022-0.269-1.301-0.75l-1.271-2.2c-0.413-0.717-0.168-1.635,0.55-2.049
					c0.719-0.413,1.635-0.168,2.049,0.55l1.27,2.199c0.414,0.718,0.168,1.635-0.549,2.05
					C528.102,181.188,527.844,181.252,527.59,181.252z"/>
			</g>
		</g>
		<g>
			<g>
				<path fill="#AAABA8" d="M498.811,151.548c-0.254,0-0.512-0.065-0.747-0.201l-2.199-1.271c-0.72-0.414-0.965-1.331-0.551-2.049
					c0.413-0.718,1.334-0.964,2.049-0.55l2.201,1.27c0.717,0.414,0.963,1.332,0.549,2.049
					C499.834,151.277,499.33,151.548,498.811,151.548z"/>
				<path fill="#AAABA8" d="M535.887,172.952c-0.256,0-0.514-0.063-0.75-0.201l-2.198-1.27c-0.718-0.414-0.964-1.332-0.55-2.049
					c0.414-0.717,1.332-0.964,2.05-0.549l2.198,1.27c0.72,0.414,0.965,1.331,0.552,2.049
					C536.908,172.684,536.404,172.952,535.887,172.952z"/>
			</g>
		</g>
		<g>
			<g>
				<path fill="#AAABA8" d="M496.113,161.614h-2.539c-0.828,0-1.5-0.672-1.5-1.5c0-0.828,0.672-1.5,1.5-1.5h2.539
					c0.83,0,1.5,0.672,1.5,1.5C497.613,160.942,496.943,161.614,496.113,161.614z"/>
				<path fill="#AAABA8" d="M538.926,161.614h-2.541c-0.828,0-1.5-0.672-1.5-1.5c0-0.828,0.672-1.5,1.5-1.5h2.541
					c0.828,0,1.5,0.672,1.5,1.5C540.426,160.942,539.754,161.614,538.926,161.614z"/>
			</g>
		</g>
		<g>
			<g>
				<path fill="#AAABA8" d="M496.613,172.952c-0.519,0-1.023-0.269-1.301-0.75c-0.414-0.718-0.169-1.635,0.549-2.049l2.201-1.27
					c0.719-0.415,1.635-0.168,2.049,0.549c0.414,0.717,0.168,1.635-0.549,2.049l-2.201,1.27
					C497.125,172.889,496.867,172.952,496.613,172.952z"/>
				<path fill="#AAABA8" d="M533.689,151.548c-0.521,0-1.023-0.271-1.302-0.752c-0.414-0.717-0.168-1.635,0.55-2.049l2.2-1.27
					c0.718-0.413,1.636-0.168,2.05,0.55c0.413,0.718,0.168,1.635-0.552,2.049l-2.198,1.271
					C534.201,151.482,533.943,151.548,533.689,151.548z"/>
			</g>
		</g>
		<g>
			<g>
				<path fill="#AAABA8" d="M504.91,181.252c-0.254,0-0.512-0.064-0.748-0.2c-0.717-0.415-0.963-1.332-0.549-2.05l1.27-2.199
					c0.414-0.718,1.33-0.963,2.049-0.55c0.718,0.414,0.963,1.332,0.55,2.049l-1.271,2.2
					C505.934,180.983,505.43,181.252,504.91,181.252z"/>
				<path fill="#AAABA8" d="M526.316,144.177c-0.255,0-0.513-0.064-0.748-0.201c-0.718-0.414-0.963-1.331-0.55-2.049l1.271-2.2
					c0.414-0.717,1.332-0.963,2.049-0.549c0.717,0.414,0.963,1.331,0.549,2.049l-1.27,2.199
					C527.34,143.907,526.836,144.177,526.316,144.177z"/>
			</g>
		</g>
	</g>
</g>
<path fill="#C7A53A" d="M562.314,328.159c0.129,0.006,0.248,0.021,0.356,0.043c0.863,0.182,1.697,0.578,2.582,0.762
	c0.947,0.199,1.896,0.361,2.84,0.511c0.729,0.115,1.443,0.372,2.172,0.436c1.097,0.096,2.197,0.092,3.298,0.076
	c0.963-0.014,1.559-0.15,2.432-0.474c1.967-0.723,4.213-1.358,6.301-1.567c2.242-0.226,4.51-0.639,6.555,0.419
	c2.738,1.415,1.56,2.954-0.844,3.904c-1.701,0.674-3.887,0.796-5.719,0.97c-0.865,0.084-2.068,0.129-2.922,0.434
	c-0.869,0.312-1.131,0.771-1.922,1.285c-3.263,2.123-7.789-0.518-11.269-0.85c-1.805-0.173-3.612-0.439-5.371-0.894
	c-1.485-0.383-3.932-0.996-4.78-2.434c0.657-0.483,1.942-0.155,2.731-0.556c0.484-0.246,0.746-0.657,0.824-1.125
	c0.084-0.498,0.078-0.559,0.594-0.68C560.756,328.284,561.643,328.123,562.314,328.159z"/>
<g>
	<g>
		<g>
			<g>
				<path fill="#C83B0C" d="M308.897,275.454c-11.226,3.828-27.89-6.947-33.125-20.755c-2.776,4.175-8.155,8.428-15.427,12.087
					c-8.687,4.371-18.521,7.086-25.664,7.086c-3.306,0-5.965-0.595-7.897-1.722c-0.089,0.201-0.169,0.402-0.24,0.604
					c-4.919,13.961,0.357,36.457,10.432,51.723l4.84-2.506c-2.572-18.652,7.082-32.737,17.872-40.594
					c9.718,7.948,42.546,8.798,52.169-3.151L308.897,275.454z"/>
			</g>
		</g>
		<g>
			<path fill="#C83B0C" d="M191.272,270.744c-0.674,2.704-3.658,2.074-3.164,3.785c0.252,0.873,3.281,0.525,5.055-1.205
				c1.418-1.383,2.008-3.151,1.61-4.51c-0.441-1.504-2.204-2.715-4.037-2.539c-1.704,0.164-2.307,0.429-3.356,1.298
				c0.805,0.338,1.656,0.688,2.457,1.021C190.69,268.948,191.503,269.818,191.272,270.744z"/>
			<g>
				<path fill="#4E7094" d="M199.302,274.385c-0.148-0.371-0.432-0.664-0.799-0.822l-3.252-1.404
					c-0.34,0.669-0.804,1.312-1.39,1.883c-0.193,0.189-0.4,0.359-0.613,0.521l2.688,1.16l-2.676,6.197l-12.121-5.234l2.674-6.194
					l4.447,1.92c0.154-0.091,0.304-0.171,0.432-0.236c0.734-0.375,1.367-0.698,1.609-1.67c0.043-0.174-0.084-0.401-0.291-0.604
					l-6.387-2.758c-0.241-0.104-0.492-0.142-0.749-0.115c-0.54,0.057-1.008,0.4-1.222,0.897l-3.863,8.949
					c-0.158,0.369-0.165,0.774-0.018,1.147c0.148,0.373,0.433,0.664,0.8,0.824l14.877,6.422c0.236,0.102,0.496,0.142,0.751,0.114
					c0.14-0.015,0.273-0.048,0.396-0.098c0.368-0.146,0.668-0.437,0.824-0.8l3.863-8.949
					C199.443,275.165,199.45,274.757,199.302,274.385z"/>
			</g>
			<g>
				<g>
					<path fill="#6185A6" d="M199.1,324.001c-0.218,0.506-0.809,0.74-1.313,0.522l-50.684-21.879
						c-0.505-0.218-0.74-0.81-0.522-1.314l15.191-35.291c0.218-0.506,0.809-0.74,1.313-0.521l50.686,21.879
						c0.505,0.217,0.74,0.81,0.522,1.314L199.1,324.001z"/>
				</g>
				
					<rect x="199.018" y="284.412" transform="matrix(0.415 -0.9098 0.9098 0.415 -141.7782 351.1094)" fill="#577A9D" width="6.271" height="2.794"/>
				
					<rect x="168.694" y="271.335" transform="matrix(0.4153 -0.9097 0.9097 0.4153 -147.6313 315.7816)" fill="#577A9D" width="6.27" height="2.795"/>
			</g>
		</g>
		<g>
			<path fill="#C83B0C" d="M300.632,224.599c1.696,0.632,2.679,1.927,3.13,3.129c0,0-0.87,0.132-2.298,0.457
				c-1.573,0.358-2.768,0.71-3.662,2.094c-0.604,0.934-0.496,2.282,0.248,3.355c-0.995-0.188-2.829-0.948-3.458-1.565
				c-1.383-1.354-1.535-3.019-0.572-4.522C296.103,224.284,298.091,223.653,300.632,224.599z"/>
		</g>
		<g>
			<path fill="#C83B0C" d="M241.224,329.109c-1.508,0.217-4.979,0.619-6.221-0.171c-2.676-1.699,1.701-3.548,3.916-4.21
				C244.607,323.032,247.94,328.14,241.224,329.109z"/>
		</g>
		<g>
			<path fill="#C83B0C" d="M314.35,272.695c1.099,1.05,3.562,3.533,3.706,4.994c0.316,3.156-3.838,0.855-5.729-0.479
				C307.478,273.79,309.434,268.012,314.35,272.695z"/>
		</g>
	</g>
	<g>
		<path fill="#577A9D" d="M411.107,208.634c-0.211,0.338-0.56,0.592-0.979,0.684l-109.567,23.827
			c-0.832,0.176-1.648-0.353-1.828-1.184c-0.176-0.829,0.35-1.646,1.182-1.824l109.567-23.828c0.832-0.177,1.647,0.351,1.828,1.183
			C411.398,207.899,411.312,208.306,411.107,208.634z"/>
		<path fill="#577A9D" d="M307.761,231.529c-0.281,0.449-0.735,0.783-1.289,0.9l-5.576,1.088c-1.098,0.236-2.178-0.461-2.412-1.559
			c-0.236-1.1,0.461-2.179,1.56-2.414l5.573-1.085c1.098-0.236,2.178,0.463,2.413,1.561
			C308.144,230.562,308.034,231.1,307.761,231.529z"/>
		<path fill="#C7A53A" d="M425.633,180.226c5.506-1.585,17.09,8.991,15.828,12.486c-2.416,6.714-10.441-9.013-15.459-7.835
			c-5.264,1.233-11.988-1.014-15.811-1.984c-0.342-0.605-0.031-0.779,0.207-1.243C410.398,181.649,417.186,182.659,425.633,180.226z
			"/>
		<path fill="#6185A6" d="M415.629,206.007c0.248,1.157-0.496,2.309-1.658,2.561l-58.915,12.659
			c-1.156,0.248-2.311-0.494-2.559-1.652c0,0-2.457-6.213-4.198-14.308c-1.398-6.502-1.614-12.734-1.614-12.734
			c-0.248-1.157,0.494-2.308,1.652-2.56c0,0,15.731-5.852,31.304-9.234c12.834-2.788,27.617-3.429,27.617-3.429
			c1.156-0.246,2.309,0.496,2.557,1.656c0,0,2.125,6.037,3.484,12.36C414.885,198.716,415.629,206.007,415.629,206.007z"/>
		<path fill="#6185A6" d="M353.964,205.707c-0.299,0.474-0.781,0.831-1.371,0.956l-4.17,0.897c-1.166,0.251-2.311-0.49-2.561-1.652
			c-0.25-1.163,0.489-2.311,1.653-2.562l4.173-0.896c1.164-0.25,2.309,0.491,2.562,1.653
			C354.369,204.679,354.253,205.25,353.964,205.707z"/>
		<path fill="#577A9D" d="M410.984,182.879c0,0-8.683,1.863-11.576,2.482c-2.01,0.431-6.033,1.296-8.043,1.727
			c-11.102,2.378-44.394,9.523-44.394,9.523l-0.229-1.055c0,0,8.695-1.478,11.453-2.455c1.945-0.692,3.728-1.898,7.694-2.999
			c4.736-1.313,8.455-1.749,10.992-1.903c3.855-0.233,10.469-1.354,14.246-2.163c1.99-0.429,6.426-1.945,8.414-2.373
			c2.92-0.626,11.215-1.839,11.215-1.839L410.984,182.879z"/>
		<g>
			<path fill="#4E7094" d="M416.596,201.931c2.449,1.546,3.182,4.785,1.637,7.233c-1.549,2.45-4.787,3.181-7.233,1.633
				c-2.453-1.545-3.185-4.781-1.636-7.233C410.908,201.115,414.146,200.384,416.596,201.931z"/>
		</g>
		<g>
			<path fill="#6C94B2" d="M414.969,204.51c1.021,0.646,1.328,2.001,0.684,3.024c-0.649,1.026-2,1.331-3.028,0.686
				c-1.022-0.646-1.328-2.003-0.683-3.028C412.588,204.168,413.943,203.864,414.969,204.51z"/>
		</g>
		<path fill="#D8D3C1" d="M366.369,196.076c2.219,1.89,3.211,4.732,6.074,5.906c-0.299-2.514-1.504-2.829,1.115-4.2
			c1.812-0.949,4.336-0.375,6.336-0.892c-1.439-3.504,2.229-2.788,4.295-3.445c-1.644-3.226-10.265-4.71-13.646-4.134
			c-4.652,0.791-7.254,1.625-11.061,3.438C359.482,192.749,364.023,194.08,366.369,196.076z"/>
	</g>
</g>
<path fill="#D7BD4E" d="M518.492,244.609c-0.5,1.008,0.018,0.681-0.826,1.5c1.057,8.181-6.859,5.271-10.986,2.466
	c0.33,3.788-1.446,9.457-5.598,10.223c-6.609-5.989-14.945-7.31-22.512-11.663c-5.502-3.167-1.769-3.373-2.354-8.138
	c-0.465-3.799-6.147-6.603-7.561-10.374c2.555-2.188,4.192-5.195,6.824-7.047c-2.466,1.734,3.084,7.979,4.364,8.839
	c3.502,2.354,8.25,2.36,12.271,2.928C502.145,234.76,509.07,241.494,518.492,244.609z"/>
<g>
	<path fill="#C83B0C" d="M207.003,179.441c5.574-1.088,11.609,3.062,13.85,5.191c1.283,1.22,4.084,3.22,7.926,9.762
		c2.873,4.89,7.554,15.415,7.613,15.509c1.256-0.855,2.87-4.173,2.87-4.173l4.251,6.392l2.959-7.511l2.354,3.331
		c0,0,0.781-13.914-2.825-23.847c-3.429-9.438-10.979-14.988-16.508-16.921c-4.59-1.603-8.965-2.259-14.254-0.882
		c-5.848,1.521-9.998,4.622-16.002,8.162c-4.784,2.822-14.723,6.9-14.723,6.9l8.805,0.668l-4.59,7.833
		C188.729,189.856,198.509,181.098,207.003,179.441z"/>
	<path fill="#C83B0C" d="M239.356,207.679c-0.636,1.102-1.539,2.463-2.401,3.051l-0.855,0.584l-0.553-0.876
		c-0.045-0.07-0.045-0.07-0.337-0.715c-3.214-7.068-5.667-12.055-7.293-14.821c-3.238-5.515-5.668-7.678-7.12-8.97
		c-0.239-0.213-0.45-0.401-0.632-0.574c-1.854-1.762-6.593-5.095-11.265-5.095c-0.586,0-1.159,0.055-1.704,0.161
		c-3.229,0.629-6.68,2.354-9.683,4.209c-1.785,5.683-1.687,12.239,1.21,18.876c6.976,15.975,19.076,20.914,23.56,19.528
		c4.275-1.321,12.254-6.812,17.182-15.198L239.356,207.679z M203.391,204.668c-0.754,0.216-1.77-0.977-2.25-2.671
		c-0.482-1.692-0.257-3.239,0.504-3.458c0.761-0.217,1.771,0.978,2.256,2.67C204.38,202.903,204.154,204.45,203.391,204.668z
		 M213.942,202.201c-0.864,0.246-1.949-0.896-2.422-2.554c-0.475-1.661-0.154-3.202,0.71-3.452c0.864-0.245,1.95,0.898,2.426,2.556
		C215.128,200.409,214.812,201.955,213.942,202.201z"/>
	<g>
		<path fill="#C83B0C" d="M292.229,227.964l4.233-5.21c-16.623-12.106-32.681-17.284-46.562-17.423
			c-0.015,1.542-0.066,2.522-0.075,2.668l-0.161,2.861l-1.654-2.341l-1.286-1.819l-2.28,5.788l-0.702,1.782l-1.061-1.595
			l-2.608-3.922c-5.32,8.789-13.503,14.006-17.496,15.238c-0.571,0.178-1.229,0.268-1.951,0.268c-1.841,0-4.238-0.602-6.853-1.919
			c-8.103,12.83-7.791,29.803-21.408,42.004l4.596,4.502c16.178-12.873,20.308-23.863,20.308-23.863s9.729,2.293,7.931,24.43
			c6.963,10.331,47.412-4.411,51.4-18.721c-3.904-17.321-21.357-26.974-21.357-26.974S273.476,218.412,292.229,227.964z"/>
	</g>
</g>
<g>
	<path fill="#C83B0C" d="M196.415,185.324c-1.124,0.731-2.158,1.458-3.075,2.135c-0.144,0.54-0.265,1.099-0.349,1.686
		c-1.6,11.346,7.17,24.963,7.17,24.963l0.62-1.854l3.495,2.955l0.208-0.617c-2.42-2.855-4.698-6.398-6.583-10.722
		C195.238,197.77,194.814,191.256,196.415,185.324z"/>
</g>
</svg>
