<?xml version="1.0" encoding="utf-8"?>
<!-- Generator: Adobe Illustrator 15.0.2, SVG Export Plug-In . SVG Version: 6.00 Build 0)  -->
<!DOCTYPE svg PUBLIC "-//W3C//DTD SVG 1.1//EN" "http://www.w3.org/Graphics/SVG/1.1/DTD/svg11.dtd">
<svg version="1.1" id="Layer_1" xmlns="http://www.w3.org/2000/svg" xmlns:xlink="http://www.w3.org/1999/xlink" x="0px" y="0px"
	 width="720px" height="460px" viewBox="0 0 720 460" enable-background="new 0 0 720 460" xml:space="preserve">
<g>
	<g>
		<ellipse fill="#81B1CA" cx="360.001" cy="284.994" rx="307.076" ry="109.79"/>
		<path fill="#E7D795" d="M360.001,175.204c-169.594,0-307.076,49.155-307.076,109.79c0,14.806,8.217,28.924,23.077,41.812
			c0.06,0.008,0.12,0.018,0.18,0.025c7.859,1.1,15.987,0.24,23.934-0.518c5.69-0.543,11.749-1.016,17.403,0.131
			c10.502,2.127,20.361,6.508,30.862,8.521c18.515,3.552,37.872-1.663,56.522-1.71c15.498-0.041,30.049,6.266,45.328,6.913
			c9.18,0.39,19.252-1.093,28.334-2.411c8.217-1.195,14.916,0.182,23.062,1.98c18.602,4.107,38.648,9.095,57.527,3.754
			c7.469-2.111,13.832-5.482,21.65-6.398c10.832-1.267,22.262-2.045,33.116-0.514c23.265,3.278,43.968,6.312,67.067,1.449
			c7.682-1.617,15.621-3.596,23.498-4.389c16.021-1.609,31.361,3.01,47.176,3.882c15.533,0.856,30.297-5.638,45.193-8.552
			c5.207-1.018,10.467-0.908,15.838-1.152c8.127-0.371,15.096-2.844,23.029-1.236c2.676,0.542,5.318,0.653,7.945,0.512
			c15.07-12.966,23.406-27.184,23.406-42.1C667.075,224.358,529.593,175.204,360.001,175.204z"/>
		<g>
			<g>
				<path fill="#C83B0C" d="M279.046,225.089c0.121-4.28,4.953-7.539,8.682-3.589l-4.832,8.062l-0.492,0.818l0.764,0.572
					c1.629,1.223,3.225,2.369,4.809,3.48c-0.668,1.158-1.527,1.93-2.547,2.023C279.381,237.007,278.927,229.302,279.046,225.089z"/>
			</g>
			<g>
				<path fill="#C83B0C" d="M304.13,227.896c-13.342-4.684-17.799-13.881-14.917-26.285c11.866,7.505,31.618,10.875,46.048,10.875
					c6.943,0,19.256-0.789,23.721-6.076c1.049-1.245,1.572-2.643,1.578-4.166c8.946,6.646,15.078,15.027,9.23,25.872
					c-4.486,8.321-16.482,7.974-16.482,7.974s-1.004,9.721-13.211,13.096c-18.879,5.221-39.586-6.536-56.295-19.078l4.9-8.174
					C288.702,221.933,297.312,226.63,304.13,227.896z"/>
			</g>
			<g>
				<path fill="#C83B0C" d="M258.53,186.732c-1.393-1.338-3.385-1.502-4.686-0.635c-1.395,0.93-1.852,3.009-1.061,4.245
					c-2.207,1.487-5.711-1.116-6.734-3.724c-1.383-3.523,0.398-7.834,4.818-8.198c3.213-0.262,7.17,0.598,8.352,3.402
					C260.388,184.597,259.524,187.688,258.53,186.732z"/>
				<g>
					<path fill="#C83B0C" d="M253.715,189.866c-0.015-0.031-0.021-0.063-0.041-0.093c-0.45-0.709-0.187-2.167,0.757-2.796
						c0.354-0.235,0.793-0.359,1.27-0.359c0.734,0,1.479,0.31,2.055,0.842c1.201,1.212,1.896,2.88,2.617,2.908
						c1.615,0.059,2.033-1.615,2.691-1.674c2.36-0.216,9.439,7.417,11.641,11.714c1.934,3.774,1.963,8.354,0.08,9.934
						c-1.854,1.555-7.594,0.061-11.176-2.916c-4.158-3.453-10.055-10.479-10.412-12.094c-0.391-1.756,2.496-0.961,2.93-2.333
						C256.485,191.862,255.142,191.303,253.715,189.866z"/>
				</g>
			</g>
			<g>
				<path fill="#C83B0C" d="M405.407,191.495c-0.365,1.61-1.766,2.961-3.574,2.088c-1.6-0.771-1.559-2.415-1.957-3.869
					c-0.512-1.864-1.229-3.187-2.416-3.201c-1.602-0.024-1.18,2.829-2.385,2.923c-0.965,0.077-1.344-1.117-1.623-2.201
					c-0.299-1.174-0.012-2.779,0.34-3.777c0.768-2.183,2.492-3.189,4.609-2.909C402.989,181.155,406.495,186.704,405.407,191.495z"
					/>
			</g>
			<g>
				<g>
					<path fill="#C83B0C" d="M362.674,84.168c-7.526-1.533-15.733,4.014-18.788,6.867c-1.75,1.635-5.561,4.307-10.832,13.113
						c-3.939,6.582-11.738,23.848-11.822,23.979c-1.451-1.686-3.477-6.232-3.477-6.232l-4.828,6.063l-3.916-10.192l-3.225,4.48
						c0,0-0.896-18.826,4.094-32.223c4.744-12.728,15.018-20.145,22.518-22.695c6.225-2.12,12.146-2.958,19.285-1.037
						c7.895,2.126,13.471,6.366,21.551,11.222c6.438,3.868,19.836,9.498,19.836,9.498l-11.916,0.803l6.117,10.645
						C387.271,98.459,374.147,86.506,362.674,84.168z"/>
					<g>
						<g>
							<path fill="#C83B0C" d="M322.476,128.145c6.354,8.057,14.346,13.321,19.043,14.817c6.051,1.923,22.469-4.621,32.084-26.147
								c4.068-9.109,4.213-18.145,1.719-25.951c-3.994-2.486-8.565-4.783-12.856-5.659c-0.788-0.16-1.62-0.242-2.472-0.242
								c-6.375,0-12.85,4.477-15.385,6.845c-0.246,0.229-0.531,0.479-0.854,0.763c-1.992,1.742-5.324,4.658-9.793,12.121
								c-2.227,3.721-5.918,11.24-10.971,22.355C322.534,128.051,322.528,128.062,322.476,128.145z M365.794,114.619
								c0.671-2.285,2.053-3.889,3.078-3.587c1.025,0.302,1.316,2.4,0.646,4.685c-0.674,2.283-2.056,3.885-3.078,3.586
								C365.411,118.998,365.122,116.904,365.794,114.619z M355.922,111.654c-0.657,2.238-2.142,3.77-3.306,3.43
								c-1.172-0.347-1.582-2.439-0.926-4.676c0.662-2.236,2.143-3.771,3.309-3.429
								C356.167,107.324,356.581,109.415,355.922,111.654z"/>
							<path fill="#C83B0C" d="M381.517,97.448c-0.129-0.959-0.326-1.87-0.57-2.741c-1.272-0.945-2.705-1.958-4.248-2.969
								c2.322,8.252,1.615,17.125-2.129,25.508c-2.606,5.836-5.686,10.571-8.926,14.361l0.314,0.969l4.76-3.959l0.82,2.512
								C371.538,131.129,383.552,112.812,381.517,97.448z"/>
							<g>
								<path fill="#C83B0C" d="M355.999,140.042c-4.653,2.956-9.012,4.238-12.154,4.238c-0.982,0-1.866-0.123-2.631-0.366
									c-3.65-1.163-9.162-4.487-14.415-9.528c-20.581,0.944-48.285,11.361-73.192,40.403l6.363,4.898
									c19.199-16.287,37.57-14.281,37.57-14.281s-6.859,13.318-8.078,35.12c20.754,13.417,72.46,15.366,69.959,0.672
									c-4.754-27.915-0.814-37.864-0.814-37.864s18.424-2.349,34.33,17.988l6.531-2.951
									C388.124,160.027,372.194,146.971,355.999,140.042z"/>
							</g>
						</g>
					</g>
				</g>
			</g>
		</g>
		<g>
			<g>
				<g>
					<path fill="#AF9474" d="M562.05,219.022c-0.102-3.572-4.133-6.291-7.244-2.993c0,0,3.932,2.446,3.524,6.15
						c-0.29,2.631-2.411,3.712-3.731,4.64c0.557,0.966,1.273,1.611,2.125,1.688C561.769,228.967,562.149,222.538,562.05,219.022z"/>
				</g>
				<g>
					<path fill="#AF9474" d="M541.118,221.364c11.133-3.908,14.854-11.582,12.447-21.932c-9.902,6.264-26.383,9.074-38.422,9.074
						c-5.793,0-16.068-0.66-19.791-5.07c-0.877-1.039-1.312-2.205-1.318-3.479c-7.467,5.548-12.582,12.54-7.701,21.591
						c3.742,6.942,13.752,6.653,13.752,6.653s0.837,8.111,11.021,10.926c14.375,3.975,30.02-3.846,43.242-13.196
						c1.268-0.896,2.561-1.334,3.097-3.838c0.626-2.929-3.454-5.704-3.454-5.704S546.81,220.31,541.118,221.364z"/>
				</g>
				<g>
					<g>
						<path fill="#AF9474" d="M474.274,201.217c0.35-0.167,0.674-0.366,0.94-0.536c0.558-0.355,1.077-0.767,1.625-1.131
							c0.653-0.435,1.354,0.012,1.618,0.748c0.215,0.598-0.465,1.293-0.1,1.803c0.869,1.214,2.633-0.873,3.084-1.485
							c1.164-1.575,1.223-4.208-1.326-5.95c-2.357-1.611-4.828-0.458-6.854,1.061c-0.568,0.426-1.156,0.994-1.463,1.654
							c-0.475,1.029-0.672,2.678,0.037,3.641C472.444,201.847,473.429,201.623,474.274,201.217z"/>
					</g>
				</g>
				<g>
					<path fill="#AF9474" d="M572.599,200.826c-0.875,1.062-2.424,1.546-3.445,0.217c-0.904-1.174-0.258-2.384-0.01-3.619
						c0.316-1.579,0.278-2.836-0.602-3.292c-1.186-0.617-1.939,1.668-2.875,1.284c-0.746-0.302-0.582-1.334-0.385-2.248
						c0.221-0.986,1.033-2.075,1.67-2.687c1.391-1.34,3.053-1.446,4.527-0.442C574.671,192.21,575.208,197.661,572.599,200.826z"/>
				</g>
				<g>
					<path fill="#AF9474" d="M566.368,189.17l5.26-1.533c-8.762-32.639-35.666-44.709-53.117-44.35
						c-0.296,0.006-0.592,0.023-0.889,0.035c-2.82,2.059-5.465,3.451-7.434,4.079c-0.642,0.205-1.387,0.308-2.207,0.308
						c-1.633,0-3.658-0.416-5.889-1.318c-14.938,5.189-13.264,29.418-23.721,46.331l5.016,2.824
						c9.975-15.262,12.809-25.929,12.809-25.929s2.754,6.18-1.211,29.472c-2.088,12.26,41.055,10.635,58.371-0.561
						c-1.017-18.192-6.738-29.305-6.738-29.305S558.265,171.866,566.368,189.17z"/>
				</g>
				<g>
					<g>
						<g>
							<path fill="#AF9474" d="M526.046,115.344c-3.35,2.606-7.184,3.439-10.415,3.473c-2.575-6.444-5.093-10.852-9.313-13.783
								c-5.369-3.728-15.658-1.79-22.967-2.982c-2.412,3.617-4.855,11.084-2.678,18.748c1.611,5.665,4,10.133,5.523,12.317
								c-1.514,0.392-6.891,0-9.863-1.622c1.217-5.539,0.107-15.324,1.277-23.084c2.361-15.675,14.43-26.861,31.502-26.861
								c17.068,0,26.91,17.733,39.475,26.244c0,8.461-10.951,20.207-19.379,21.934C529.36,123.866,528.097,119.605,526.046,115.344z
								"/>
							<g>
								<path fill="#AF9474" d="M484.026,127.075c8.119,16.225,20.9,21.182,25.734,19.643c3.922-1.246,11.329-5.68,15.893-12.361
									c1.023-1.498,1.861-3.123,2.555-4.75c0.107-4.598-0.664-8.479-2.559-12.742c-3.566,2.371-7.355,2.926-10.008,2.954
									l-0.684,0.005l-0.256-0.635c-2.364-5.91-4.791-10.44-8.955-13.332c-3.203-2.224-8.6-2.275-13.82-2.323
									c-2.736-0.025-5.561-0.052-8.078-0.396c-1.947,3.241-4.311,10.016-2.213,17.389
									C482.325,122.95,483.165,125.157,484.026,127.075z M500.505,123.458c-0.973,0.285-2.211-0.994-2.76-2.86
									c-0.551-1.869-0.205-3.614,0.77-3.901c0.973-0.285,2.209,0.995,2.76,2.859C501.823,121.422,501.481,123.168,500.505,123.458
									z M486.401,123.986c-0.561-1.907-0.318-3.657,0.539-3.91c0.854-0.251,2.006,1.088,2.565,2.994
									c0.562,1.907,0.321,3.655-0.538,3.907C488.116,127.227,486.963,125.891,486.401,123.986z"/>
							</g>
						</g>
					</g>
				</g>
			</g>
		</g>
		<g>
			<path fill="#D0B35A" d="M331.06,280.827c-0.072-1.174,0.074-2.391,0.477-3.65c2.086-6.539,13.52-15.52,18.26-20.264
				c6.828-6.836,16.205-11.834,24.988-15.318c8.436-3.347,16.097-9.254,24.883-12.717c9.654-3.805,19.115-5.309,29.089-5.791
				c9.894-0.479,16.499,0.076,25.944,3.531c10.109,3.699,20.434,8.177,29.115,14.814c11.44,8.752,39.703,22.242,34.381,40.891
				c-1.932,6.773-7.344,10.115-13.344,13.217c-11.633,6.014-20.043,10.009-32.91,10.381c-15.326,0.441-30.48,2.863-45.92,2.863
				c-20.945,0-42.473-1.062-62.812-6.465C354.528,300.015,331.792,292.587,331.06,280.827z"/>
		</g>
		<g>
			<path fill="#D0B35A" d="M233.497,189.093l-39.176,1.438l-5.711,23.663h-46.082l-5.709-23.663h-39.15l-12.544,89.512
				c0.279,1.625,23.467,13.179,25.35,13.649c1.674,0.418,29.578,0.697,37.111,0.315c0.26-5.11,0.832-11.739,1.984-21.333
				c1.139-9.49,7.123-15.877,17.611-15.877c11,0,17.084,6.418,18.109,15.629c0.975,8.787,0.742,21.829,0.742,21.829
				s34.963,1.085,36.328,0.423l25.771-12.48L233.497,189.093z"/>
			<g>
				<rect x="98.671" y="185.606" fill="#D0B35A" width="8.167" height="6.604"/>
				<rect x="112.657" y="185.606" fill="#D0B35A" width="8.168" height="6.604"/>
				<rect x="126.396" y="185.606" fill="#D0B35A" width="8.168" height="6.604"/>
			</g>
			<g>
				<g>
					<rect x="147.517" y="208.094" fill="#D0B35A" width="8.168" height="6.604"/>
					<rect x="161.503" y="208.094" fill="#D0B35A" width="8.168" height="6.604"/>
					<rect x="175.239" y="208.094" fill="#D0B35A" width="8.166" height="6.604"/>
				</g>
			</g>
			<g>
				<rect x="195.583" y="185.606" fill="#D0B35A" width="8.166" height="6.604"/>
				<rect x="209.569" y="185.606" fill="#D0B35A" width="8.166" height="6.604"/>
				<rect x="223.306" y="185.606" fill="#D0B35A" width="8.166" height="6.604"/>
			</g>
		</g>
		<g>
			<path fill="#C4C63A" d="M425.177,211.46c0,0-5.258-0.299-5.152-9.266c0.088-8.026,5.359-8.848,5.359-8.848l17.361-2.032
				c0,0,3.761,0.851,3.761,11.165c0,9.881-4.015,11.144-4.015,11.144L425.177,211.46z"/>
			<path fill="#ABB138" d="M442.235,212.36c-1.816-0.021-3.234-4.467-3.176-9.932c0.057-5.461,1.588-9.876,3.402-9.855
				c1.814,0.021,3.238,4.468,3.176,9.932C445.575,207.968,444.052,212.38,442.235,212.36z"/>
			<path fill="#AAB036" d="M450.134,202.47c0,8.146-4.139,11.576-7.441,11.537c-0.533-0.007-1.158-0.111-1.285-0.533
				c0,0,0.617-0.051,1.045-0.08c2.154-0.141,6.393-3.369,6.393-10.776c0-6.94-4.158-10.594-6.26-10.776
				c-0.514-0.046-1.436-0.118-1.436-0.118c0.246-0.675,1.062-0.787,1.494-0.781C445.946,190.979,450.134,194.931,450.134,202.47z"/>
		</g>
		<g>
			<path fill="#8C9A98" d="M563.706,272.632c-0.785,0.043-2.158,0.118-2.924,0.158c-1.547-5.472-2.135-9.928-5.654-10.506
				c-3.812-0.627-27.75,2.125-27.25,15c0.462,11.932,28.982,14.629,32.625,12.125c2-1.375,2.387-8.077,1.264-11.295
				c0,0,0.785-0.008,2.53-0.11C564.297,276.187,564.022,273.896,563.706,272.632z"/>
			<path fill="#8C9A98" d="M588.974,271.679c-10.088,0.836-19.09,1.044-24.384,1.332c0.315,0.869,0.515,2.647,0.435,4.307
				c5.051-0.295,17.082-0.696,24.502-1.294C589.499,274.499,589.46,273.142,588.974,271.679z"/>
			<path fill="#8C9A98" d="M604.44,265.347c-2.438-3.564-12.363-4.64-10.799,5.205c-1.834,0.182-1.883,0.258-4,0.434
				c0.486,1.463,0.684,4.181,0.713,5.705c2.195-0.178,2.32-0.121,3.629-0.279c1.623,7.25,9.863,7.561,11.52,4.498
				C608.003,276.284,607.147,269.302,604.44,265.347z M601.253,278.916c-2.131,0.257-3.4-2.735-4.008-6.31
				c-0.68-4.008,0.154-5.883,2.047-5.883c1.705,0,3.557,2.051,4.18,5.457C604.124,275.745,603.386,278.661,601.253,278.916z"/>
		</g>
	</g>
</g>
</svg>
