<?xml version="1.0" encoding="utf-8"?>
<!-- Generator: Adobe Illustrator 15.0.2, SVG Export Plug-In . SVG Version: 6.00 Build 0)  -->
<!DOCTYPE svg PUBLIC "-//W3C//DTD SVG 1.1//EN" "http://www.w3.org/Graphics/SVG/1.1/DTD/svg11.dtd">
<svg version="1.1" id="Layer_1" xmlns="http://www.w3.org/2000/svg" xmlns:xlink="http://www.w3.org/1999/xlink" x="0px" y="0px"
	 width="720px" height="460px" viewBox="0 0 720 460" enable-background="new 0 0 720 460" xml:space="preserve">
<g>
	<path fill="#CED19C" d="M307.405,245.927c94.479-8.973,180.585,0.733,237.261,42.128c37.702,27.538,34.433,64.039,3.721,85.839
		c-34.16,24.253-103.489,24.718-201.624,24.718c-94.838,0-167.039-9.338-193.781-37.517c-19.225-20.259-12.674-54.255,21.904-75.646
		C212.522,262.17,250.005,251.376,307.405,245.927z"/>
	<g>
		<polygon fill="#E0D3B5" points="134.593,348.47 87.66,398.281 632.34,398.611 591.388,349.028 		"/>
	</g>
	<g>
		<path fill="#8E7565" d="M280.097,325.271c0,0-18.002-16.742-20.883-49.971c-3.369-38.873-2.461-73.561-2.461-73.561l-19.732-0.48
			c0,0,0.758,37.197-2.34,74.041c-2.504,29.773-19.225,49.971-19.225,49.971s13.623-1.064,24.398-3.849
			c2.885,4.253,8.018,7.188,8.018,7.188s4.871-2.789,7.787-6.867C267.577,324.29,280.097,325.271,280.097,325.271z"/>
		<ellipse fill="#BCC160" cx="245.726" cy="157.712" rx="117.611" ry="96.323"/>
	</g>
	<g>
		<path fill="#8E7565" d="M481.939,320.092c0,0-15.247-14.18-17.687-42.323c-2.854-32.924-2.084-62.303-2.084-62.303l-16.713-0.406
			c0,0,0.641,31.504-1.98,62.709c-2.121,25.218-16.283,42.323-16.283,42.323s11.539-0.902,20.664-3.26
			c2.443,3.603,6.791,6.088,6.791,6.088s4.125-2.361,6.596-5.816C471.335,319.261,481.939,320.092,481.939,320.092z"/>
		<ellipse fill="#C9CC7E" cx="452.83" cy="178.176" rx="99.612" ry="81.581"/>
	</g>
	<path fill="#89912B" d="M320.157,90.11c4.338,0.754,8.389-1.424,12.344-2.375c-2.535,8.074-11.387,14.99-18.441,19.656
		c4.703-0.599,9.66-2.25,13.955-3.559c-5.373,9.91-14.268,15.301-22.877,22.368c5.621,0.474,11.402-0.723,16.383-2.817
		c-6.305,11.541-21.344,14.265-27.408,25.057c6.848,0.881,14.035-0.759,20.475-3.141c-1.77,12.608-22.316,19.255-27.588,29.124
		c6.445,1.097,12.127-3.063,18.598-2.448c-1.092,8.341-18.17,15.151-24.018,21.256c5.992,0.561,11.93-1.147,17.809-0.539
		c-5.797,7.484-15.932,11.324-21.402,18.47c5.734,0.571,11.066-0.236,15.934-2.387c0.125,9.037-12.176,16.389-17.721,22.114
		c5.211,0.865,10.576-1.259,15.225-3.069c-1.07,5.661-14.281,16.641-19.488,20.107c4.332-0.094,9.049-2.243,13.236-3.05
		c-3.77,7.137-14.377,11.204-19.783,17.399c4.195,0.497,8.229-0.671,12.387-0.582c-0.795,7.201-9.984,11.036-10.5,19.46
		c36.719,1.968,75.955,2.678,112.641,1.028c12.502-0.562,23.445-2.13,35.153-6.081c7.546-2.545,19.929-3.478,25.979-7.1
		c-6.754-3.894-12.053-10.021-19.389-12.91c2.938,1.556,6.156,2.629,9.301,2.595c-7.523-5.615-15.225-11.071-22.703-16.898
		c5.92,0.111,11.658,2.49,17.594,1.681c-7.297-8.421-20.977-12.432-27.768-21.253c4.477,1.177,8.697,2.789,13.324,2.422
		c-4.037-7.566-16.658-13.258-22.229-21.183c5.357,0.046,10.623,2.407,15.955,2.353c-2.799-7.88-19.531-15.795-24.941-23.894
		c4.671-2.218,9.354,1.702,12.609-1.98c-6.145-6.188-13.271-11.896-17.813-19.587c3.54-0.046,7.138,1.171,10.392,2.486
		c-0.486-7.286-16.145-16.511-21.109-22.392c9.289,0.424,11.021,1.001,6.205-6.409c-3.223-4.961-8.135-8.984-11.535-13.991
		c3.953,0.022,8.133,1.509,12.135,1.452c-4.709-6.093-15.994-9.763-18.613-16.723c3.311,0.686,6.775,0.521,9.105-0.857
		c-4.422-5.134-11.697-10.406-13.596-17.05c1.338,0.302,2.982,0.223,4.236,0.602c-1.654-5.376-8.701-9.614-12.418-14.212
		C339.79,73.251,329.935,80.633,320.157,90.11z"/>
	<g>
		<ellipse fill="#B2B748" cx="402.039" cy="229.457" rx="79.901" ry="62.248"/>
	</g>
	<g>
		<g>
			<polygon fill="#AAB036" points="134.593,348.47 132.87,276.214 592.388,275.436 591.388,349.028 			"/>
		</g>
		<g>
			<polygon fill="#BABF5C" points="143.28,266.723 132.87,276.378 592.388,275.436 582.702,266.958 			"/>
		</g>
	</g>
</g>
<g>
	<g>
		<g>
			<path fill="#C83B0C" d="M421.251,294.445c-4.433,2.276-10.916,3.997-18.85,1.42l-2.143,6.143
				c6.486,3.472,13.033,4.794,19.067,4.478C419.753,302.679,420.372,298.83,421.251,294.445z"/>
		</g>
		<g>
			<g>
				<path fill="#C83B0C" d="M465.261,327.758c-3.809,2.149-10.572,2.439-13.922,2.439c-11.226,0-25.336-2.848-30.584-8.292
					c-0.588-0.608-1.053-1.239-1.402-1.89c-7.193,9.853-14.058,28.923-8.801,45.477l5.539-0.559
					c1.875-14.894,13.822-19.96,25.131-21.538c3.576,12.644,9.254,26.198,24.068,33.542l4.66-3.97
					C459.13,360.366,465.728,342.875,465.261,327.758z"/>
			</g>
		</g>
		<g>
			<path fill="#C83B0C" d="M484.85,312.687c-0.1-0.141-0.395-0.374-0.52-0.21c-0.723,0.953-1.818,0.816-2.66,0.203
				c-0.451-0.328-1.434-1.812-1.375-3.238c0.066-1.672,0.428-2.742,1.291-3.676c0.725-0.78,1.947-1.18,3.217-1.235
				c5.658-0.248,9.043,10.106,2.863,9.822C485.994,314.275,485.384,313.434,484.85,312.687z"/>
		</g>
		<g>
			<path fill="#C83B0C" d="M413.667,371.364c-1.486,0.3-4.916,0.893-6.191,0.175c-2.754-1.54,1.492-3.618,3.656-4.401
				C416.692,365.138,420.286,370.03,413.667,371.364z"/>
		</g>
		<g>
			<path fill="#C83B0C" d="M471.808,380.514c-1.293,0.783-4.309,2.512-5.756,2.275c-3.115-0.507-0.045-5.016,1.727-6.49
				C472.319,372.518,477.578,376.993,471.808,380.514z"/>
		</g>
		<g>
			<path fill="#C83B0C" d="M440.052,254.334c-1.813-6.214-2.994-11.438-3.691-16.349c-1.967,0.085-3.624,0.125-5.16,0.125
				c-3.396,0-6.324-0.203-8.945-0.631c-0.568,1.615-1.009,3.333-1.283,5.162c-2.486,16.614,4.863,26.84,9.232,28.004
				c3.537,0.942,11.193,1.467,18.171-1.606C445.762,266.291,442.138,261.474,440.052,254.334z M425.228,252.547
				c-0.864-0.023-1.531-1.389-1.484-3.049c0.043-1.665,0.785-2.986,1.652-2.965c0.865,0.023,1.535,1.39,1.486,3.048
				C426.835,251.242,426.098,252.57,425.228,252.547z"/>
		</g>
		<g>
			<path fill="#C83B0C" d="M469.009,262.255c-1.74-3.893-1.061-10.061-0.664-15.389c0.725-9.777-0.086-12.751-3.656-17.219
				c-2.967-3.712-6.209-6.623-11.332-8.131c-6.104-1.794-13.4-0.895-17.646,0.753c-1.781,0.692-5.393,1.915-8.98,3.476
				c-2.385,1.035-9.055,2.106-11.73,1.56c1.262,1.724,5.707,3.515,8.127,4.595c-2.428,1.498-7.193,2.196-7.426,2.734
				c6.332,2.617,13.686,2.686,21.527,2.311c0.639,4.875,1.805,10.325,3.783,17.109c1.992,6.814,5.705,12.181,9.383,15.579
				c1.926-2.488,3.395-5.053,3.395-5.053s2.867,2.082,8.094,3.846c-0.529-3.163,0.092-6.393,0.092-6.393
				S465.763,262.059,469.009,262.255z"/>
			<g>
				<path fill="#C83B0C" d="M453.606,267.635c0,0-0.344,0.056-0.57,0.025c-0.529,0.793-1.158,1.688-1.853,2.585l-0.668,0.862
					l-0.802-0.741c-0.183-0.169-0.379-0.356-0.582-0.556c-4.5,2.07-9.09,2.572-12.449,2.572c-2.092,0-4.189-0.207-5.903-0.574
					c-3.339,4.065-5.565,9.479-6.856,15.053c-2.865,12.365-3.975,20.009-4.338,30.007c-0.453,12.396,44.668,16.31,47.314,7.741
					c3.285-10.624-0.633-30.477-2.061-35.619c-2.08-0.751-3.512-0.967-3.558-0.974l0.069-0.495l0.068-0.495
					c0.006,0.001,0.029,0.005,0.066,0.011c0.004,0,0.011,0.002,0.015,0.002c0.038,0.006,0.089,0.016,0.151,0.027
					c0.011,0.002,0.023,0.004,0.034,0.006c0.064,0.013,0.14,0.027,0.227,0.045c0.017,0.004,0.036,0.007,0.054,0.012
					c0.088,0.018,0.188,0.039,0.295,0.064c0.021,0.004,0.044,0.009,0.066,0.014c0.116,0.027,0.243,0.059,0.379,0.092
					c0.02,0.005,0.039,0.01,0.059,0.015c0.153,0.039,0.316,0.082,0.49,0.13c0.008,0.002,0.014,0.004,0.02,0.005
					c0.372,0.104,0.79,0.229,1.245,0.38c4.626,1.541,13.139,5.797,16.423,16.766l5.414-1.395
					C484.285,284.229,466.716,267.776,453.606,267.635z"/>
			</g>
		</g>
		<g>
			<path fill="#C83B0C" d="M399.743,293.962c-1.023-1.381-2.275-0.653-4.064-0.659c-1.942-0.006-3.38-1.534-4.948,0.893
				c-1.814,2.803,1.383,6.493,4.09,7.144c3.533,0.849,6.933-3.219,5.368-6.601C400.045,294.426,399.896,294.17,399.743,293.962z"/>
		</g>
	</g>
</g>
</svg>
