<?xml version="1.0" encoding="utf-8"?>
<!-- Generator: Adobe Illustrator 15.0.2, SVG Export Plug-In . SVG Version: 6.00 Build 0)  -->
<!DOCTYPE svg PUBLIC "-//W3C//DTD SVG 1.1//EN" "http://www.w3.org/Graphics/SVG/1.1/DTD/svg11.dtd">
<svg version="1.1" id="Layer_1" xmlns="http://www.w3.org/2000/svg" xmlns:xlink="http://www.w3.org/1999/xlink" x="0px" y="0px"
	 width="720px" height="460px" viewBox="0 0 720 460" enable-background="new 0 0 720 460" xml:space="preserve">
<path fill="#796C52" d="M701.232,234.768c0,134.9-150.871,215.828-333.668,215.828c-206.514,0-348.797-80.928-348.797-215.828
	c0-134.901,144.236-225.363,348.797-225.363C575.209,9.405,701.232,114.83,701.232,234.768z"/>
<g>
	<path fill="#796C52" d="M231.453,167.082v-12.76c0-22.346,19.105-45.867,52.418-64.533c33.467-18.752,65.033-27.28,107.037-27.28
		c42.137,0,73.688,8.416,107.004,26.965c33.33,18.56,52.449,42.196,52.449,64.849h-12.756l0.004,12.76H231.453z"/>
	<path fill="#C9BB9C" d="M244.213,370.934l127.99-101.199h35.822l129.584,101.199c0,0-67.455,4.785-146.699,4.785
		C303.207,375.719,244.213,370.934,244.213,370.934z"/>
	<polygon fill="#BCAD8D" points="343.162,292.377 372.203,269.734 408.025,269.734 437.49,292.744 	"/>
	<path fill="#A79776" d="M537.609,154.321l-0.01-0.003c-0.004-35.395-60.162-80.85-146.691-80.85
		c-86.541,0-146.695,46.255-146.695,80.854l116.875,66.682h50.238L537.609,154.321z"/>
	<path fill="#8D7E60" d="M437.49,203.775c-0.002-12.781-16.131-27.715-47.375-27.715c-31.248,0-46.658,15.221-46.658,27.715
		l36.686,24.633h18.141L437.49,203.775z"/>
	<path fill="#8D7E60" d="M408.025,218.33c0-4.035-8.02-9.342-17.91-9.342c-9.895,0-17.912,5.117-17.912,9.342v51.404h35.822V218.33
		L408.025,218.33z"/>
	<path fill="#796C52" d="M408.025,218.33c0-4.057-7.949-9.268-17.865-9.268c-9.918,0-17.957,5.303-17.957,9.268l14.539,7.641h5.758
		L408.025,218.33z"/>
	<polygon fill="#A1906D" points="380.902,263.082 372.203,269.734 408.025,269.734 399.326,263.082 	"/>
	<polygon fill="#BCAD8D" points="244.213,370.934 372.203,269.734 372.203,218.33 244.213,154.322 	"/>
	<polygon fill="#A79776" points="343.457,203.775 343.162,292.377 372.203,269.734 372.203,218.33 	"/>
	<polygon fill="#AE9E7D" points="537.609,370.934 408.025,269.734 408.025,218.33 537.609,154.321 	"/>
	<polygon fill="#A1906D" points="437.49,203.775 408.025,218.33 408.025,269.734 437.49,292.744 	"/>
	<path fill="#514837" d="M399.326,224.043c0-2.074-4.125-4.15-9.211-4.15c-5.088,0-9.213,2.633-9.213,4.803v38.387h18.424V224.043z"
		/>
	<polygon fill="#8D7E60" points="488.568,331.766 446.701,299.938 446.701,209.158 488.568,193.209 	"/>
	<polygon fill="#8D7E60" points="622.861,184.303 537.609,271.787 537.609,154.322 586.615,123.795 622.861,123.795 	"/>
	<polygon fill="#8D7E60" points="603.457,138.535 562.953,138.535 586.615,123.795 633.412,123.795 	"/>
	<polygon fill="#837559" points="622.861,184.303 603.457,190.113 603.457,138.535 633.412,123.795 633.412,184.303 	"/>
	<polygon fill="#978766" points="622.861,184.303 608.746,188.483 608.746,142.317 627.746,133.483 627.746,184.303 	"/>
	<polygon fill="#A1906D" points="488.568,198.582 460.154,208.988 446.701,209.158 488.568,193.209 	"/>
	<g>
		<polygon fill="#AE9E7D" points="488.568,332.666 446.701,299.938 446.701,290.945 488.568,317.529 		"/>
		<polygon fill="#C9BB9C" points="488.568,305.566 460.154,290.945 446.701,290.945 488.568,317.529 		"/>
		<polygon fill="#AE9E7D" points="488.568,305.566 460.154,290.945 460.154,281.215 488.568,294.793 		"/>
		<polygon fill="#C9BB9C" points="488.568,287.207 472.811,281.215 460.154,281.215 488.568,294.793 		"/>
		<polygon fill="#AE9E7D" points="488.568,287.207 472.811,281.215 472.811,271.889 488.568,276.898 		"/>
		<polygon fill="#C9BB9C" points="488.568,273.002 484.67,271.889 472.811,271.889 488.568,276.898 		"/>
		<polygon fill="#AE9E7D" points="488.568,273.002 484.67,271.889 484.67,264.734 488.51,265.24 		"/>
		<polygon fill="#C9BB9C" points="488.568,264.59 484.67,264.734 488.51,265.24 		"/>
	</g>
	<path fill="#A1906D" d="M99.182,357.297c0,0,103.602,11.418,145.031,13.637l-12.76-42.375l-95.557-3.465L99.182,357.297z"/>
	<g>
		<path fill="#AE9E7D" d="M231.453,333.109l-34.27-2.213l-39.979,23.947c0,0,26.186,1.678,74.248,4.484V333.109z"/>
	</g>
	<polygon fill="#796C52" points="231.453,370.734 244.213,370.934 244.213,154.322 231.453,154.322 	"/>
	<g>
		<polygon fill="#796C52" points="86.422,355.721 99.182,357.297 99.182,129.23 86.02,130.028 		"/>
		<polygon fill="#8D7E60" points="99.182,129.23 231.453,122.237 231.453,135.133 99.182,141.353 		"/>
		<polygon fill="#978766" points="99.182,357.297 175.627,327.09 173.994,137.835 99.182,129.23 		"/>
	</g>
	<path fill="#EAE1C8" d="M153.92,144.391l13.928-8.811l-0.268-0.423l-13.912,8.801l-20.896-5.492l-1.047-8.575l-0.496,0.061
		l1.053,8.626l-14.324,15.127l-10.828-1.49l-0.068,0.495l9.477,1.304l2.383,15.313l-11.986,10.182l0.322,0.381l12.016-10.205
		l25.844,2.046l2.686,3.874l0.412-0.285l-2.684-3.871L153.92,144.391z M145.168,170.929l-0.619-0.893l7.801-24.651l0.92-0.583
		L145.168,170.929z M119.279,154.392l2,12.933l-0.934,0.794l-2-13.855L119.279,154.392z M149.852,146.374l-16.699-4.781
		l-0.127-1.042l18.49,4.771L149.852,146.374z M147.676,147.75l-1.238,0.782l-12.914-3.902l-0.111-0.918l14.287,3.953L147.676,147.75
		z M127.783,155.562l1.201,5.218l-0.832,0.707l-1.164-6.034L127.783,155.562z M129.35,161.125l8.609,0.287l0.541,0.781l-9.867-0.459
		L129.35,161.125z M133.84,151.351l0.125,1.014l-3.371,3.08l-0.801-0.111l3.984-4.006L133.84,151.351z M137.377,159.695l1.012-5.477
		l0.818-0.518l-1.252,6.829L137.377,159.695z M136.975,154.521l-2.365-0.991l-0.082-0.675l3.092,1.258L136.975,154.521z
		 M134.104,156.432l-0.174,0.148l-0.088-0.184L134.104,156.432z M133.977,155.91l0.379-0.348l0.049,0.407L133.977,155.91z
		 M134.643,156.629l0.07,0.101h-0.188L134.643,156.629z M133.936,157.23h1.123l0.039,0.056h-1.227L133.936,157.23z M135.045,156.332
		l0.576-0.364l-0.178,0.937L135.045,156.332z M134.893,155.838l-0.055-0.447l0.527,0.147L134.893,155.838z M134.279,154.952
		l-0.945,0.869l-0.656-0.09l1.516-1.492L134.279,154.952z M133.25,156.314l0.287,0.6l-0.291,0.247l-0.6-0.929L133.25,156.314z
		 M133.281,157.786h2.164l0.385,0.558l-3.043-0.137L133.281,157.786z M135.842,157.48l0.357-1.878l0.455-0.287l-0.471,2.659
		L135.842,157.48z M135.936,155.178l-1.164-0.324l-0.092-0.753l1.779,0.745L135.936,155.178z M134.117,153.612l-2.064,2.033
		l-0.814-0.112l2.801-2.558L134.117,153.612z M131.992,156.141l0.869,1.346l-0.646,0.55l-1.086-2.014L131.992,156.141z
		 M132.229,158.681l3.961,0.178l0.441,0.636l-5.285-0.066L132.229,158.681z M136.588,158.557l0.637-3.604l0.588-0.372l-0.836,4.534
		L136.588,158.557z M138.137,153.785l-3.678-1.497l-0.092-0.743l4.627,1.699L138.137,153.785z M130.516,155.938l1.309,2.43
		l-1.029,0.876l-1.164-3.427L130.516,155.938z M130.766,159.923L136.98,160l0.623,0.898l-7.686-0.255L130.766,159.923z
		 M138.357,161.109l1.424-7.772l1.191-0.754l-2.098,9.273L138.357,161.109z M139.525,152.906l-5.227-1.918l-0.1-0.822l6.553,1.965
		L139.525,152.906z M133.773,150.793l-0.125-0.045l-4.475,4.501l-0.631-0.087l5.174-4.829L133.773,150.793z M129.076,155.74
		l1.309,3.851l-0.971,0.824l-1.102-4.78L129.076,155.74z M128.074,162.208l10.785,0.502l0.486,0.7l-12.023-0.562L128.074,162.208z
		 M139.262,162.414l2.309-10.21l1.092-0.69l-2.93,11.577L139.262,162.414z M141.312,151.777l-7.18-2.153l-0.115-0.949l8.434,2.381
		L141.312,151.777z M133.641,149.72l-5.736,5.354l-0.703-0.097l6.291-6.452l0.004,0.001L133.641,149.72z M133.342,147.963
		l-6.756,6.93l-1.086-0.149l7.822-7.637l0.107,0.882L133.342,147.963z M126.465,155.381l1.25,6.477l-0.879,0.748l-1.559-7.389
		L126.465,155.381z M126.764,163.323l12.939,0.605l0.516,0.744l-14.029-0.861L126.764,163.323z M140.109,163.635l3.168-12.51
		l1.029-0.651l-3.689,13.892L140.109,163.635z M143.02,150.696l-9.068-2.56l-0.133-1.094l10.291,2.964L143.02,150.696z
		 M133.246,146.483l-8.375,8.174l-0.715-0.099l8.953-9.188L133.246,146.483z M124.75,155.145l1.652,7.829l-0.689,0.584l-1.764-8.524
		L124.75,155.145z M125.641,164.277l14.941,0.918l0.592,0.854l-0.008,0.029l-16.299-1.146L125.641,164.277z M140.99,164.905
		l3.939-14.825l1.119-0.709l-4.693,16.061L140.99,164.905z M144.674,149.65l-10.922-3.147l-0.162-1.33l12.289,3.715L144.674,149.65z
		 M123.541,154.474l-0.83-0.114l10.223-10.442l0.1,0.816L123.541,154.474z M123.422,154.962l1.857,8.965l-0.877,0.744l-1.906-9.836
		L123.422,154.962z M124.322,165.395l17.211,1.21l0.008-0.027l0.391,0.564l-18.43-1.049L124.322,165.395z M141.723,165.96
		l4.965-16.994l0.787-0.497l-5.143,18.372L141.723,165.96z M132.855,143.282l-10.762,10.993l-0.682-0.094l11.328-11.841
		L132.855,143.282z M121.973,154.763l1.992,10.28l-0.926,0.788l-1.844-11.175L121.973,154.763z M122.949,166.562l19.346,1.102
		l0.633,0.913l-20.748-1.361L122.949,166.562z M142.703,167.375l5.4-19.304l1.363-0.862l-6.133,21.077L142.703,167.375z
		 M148.307,147.352l0.008-0.034l-14.969-4.143l-0.127-1.044l16.068,4.6L148.307,147.352z M132.662,141.699l-11.861,12.398
		l-0.787-0.108l12.535-13.216L132.662,141.699z M120.676,154.584l1.918,11.624l-0.867,0.737l-1.932-12.481L120.676,154.584z
		 M121.633,167.68l21.658,1.421l0.482,0.695l-22.977-1.407L121.633,167.68z M143.701,168.815l6.402-22.01l1.59-1.005l-7.506,23.716
		L143.701,168.815z M153.092,144.324l-0.996,0.63l-19.135-4.938l-0.125-1.016L153.092,144.324z M132.359,139.223l0.111,0.906
		l-13.066,13.775l-0.838-0.115L132.359,139.223z M117.055,154.086l0.775,0.106l2.064,14.308l-0.527,0.448L117.055,154.086z
		 M119.812,169.227l0.436-0.37l23.889,1.463l0.611,0.882L119.812,169.227z"/>
	<polygon fill="#796C52" points="537.609,370.934 550.369,369.34 550.369,137.983 537.609,147.237 	"/>
	<g>
		<polygon fill="#796C52" points="345.871,290.734 327.936,303.756 327.936,214.414 345.871,220.242 		"/>
		<g>
			<rect x="341.043" y="220.242" fill="#A1906D" width="4.828" height="70.492"/>
			<polygon fill="#A1906D" points="341.043,290.734 345.871,290.734 327.936,304.736 327.936,290.734 			"/>
			<polygon fill="#A1906D" points="327.936,215.93 327.936,214.414 345.871,220.242 341.043,220.242 			"/>
		</g>
	</g>
	<g>
		<polygon fill="#796C52" points="420.178,278.545 433.217,287.998 433.217,217.549 420.178,222.219 		"/>
		<g>
			<rect x="420.178" y="222.219" fill="#A1906D" width="3.934" height="56.504"/>
			<polygon fill="#A1906D" points="424.111,278.723 420.178,278.723 433.217,287.998 433.217,278.723 			"/>
			<polygon fill="#A1906D" points="433.217,218.783 433.217,217.549 420.178,222.219 424.111,222.219 			"/>
		</g>
	</g>
	<g>
		<polygon fill="#796C52" points="297.264,329.002 255.793,359.057 255.793,191.02 297.152,204.258 		"/>
		<rect x="288.035" y="204.258" fill="#A1906D" width="9.117" height="124.744"/>
		<polygon fill="#A1906D" points="287.926,329.002 297.264,329.002 255.793,361.777 255.793,329.002 		"/>
		<polygon fill="#A1906D" points="255.793,194.539 255.793,191.02 297.264,204.258 287.926,204.258 		"/>
	</g>
	<path fill="#D3B965" d="M191.441,239.412l-0.873-0.27l-3.518,0.73l0.246,11.404h-0.285l-0.236-11.109l-0.871-0.295l-3.531,0.758
		l0.225,10.646h-0.277l-0.215-10.393l-0.871-0.254l-3.529,0.717l0.203,9.93h-0.281l-0.191-9.557l-0.873-0.279l-3.529,0.742
		l0.182,9.094h-0.334l-0.158-8.523l-1.209-0.314l-1.582,0.367c-0.021-1.217-0.041-2.412-0.061-3.58
		c-0.117-7.432,3.098-13.822,8.195-16.281c3.605-1.74,7.512-1.121,10.996,1.742c0.791,0.65,1.961,0.533,2.611-0.256
		c0.648-0.791,0.533-1.959-0.256-2.611c-4.6-3.775-10.055-4.584-14.963-2.215c-2.314,1.115-4.314,2.848-5.924,5.014
		c-4.793-3.395-10.291-3.988-15.271-1.584c-7.027,3.391-11.467,11.896-11.312,21.668c0.57,36.062,2.537,95.146,2.557,95.738
		c0.033,1.004,0.855,1.793,1.852,1.793c0.021,0,0.043,0,0.062,0c1.021-0.035,1.826-0.893,1.793-1.916
		c-0.008-0.207-0.254-7.611-0.596-18.686l18.742,0.561c0.066,2.051,0.105,3.232,0.109,3.309c0.029,0.857,0.637,1.555,1.434,1.74
		l0.197,13.807l0.871,0.658l3.564-1.822l-1.582-84.898h0.338l1.666,83.588l0.871,0.658l3.543-1.76l-1.666-82.486h0.279l1.658,81.023
		l0.869,0.656l3.543-1.756l-1.656-79.924h0.279l1.648,78.457l0.871,0.658l3.539-1.758l-1.645-77.357h0.287l1.637,75.891l0.869,0.656
		l3.531-1.748L191.441,239.412z M156.869,226.375c3.846-1.854,7.984-1.342,11.738,1.426c-1.625,3.322-2.512,7.27-2.443,11.484
		c0.064,4.174,0.152,8.689,0.254,13.393c-0.037,0.145-0.062,0.297-0.062,0.453c0,0.184,0.033,0.355,0.084,0.523
		c0.045,2.098,0.094,4.229,0.145,6.381h-18.637c-0.117-5.408-0.217-10.604-0.293-15.391
		C147.523,236.311,151.141,229.139,156.869,226.375z M149.502,317.918c-0.461-15.121-1.053-35.625-1.473-54.174h18.643
		c0.518,21.199,1.213,43.656,1.566,54.736L149.502,317.918z"/>
	<polygon fill="#AE9E7D" points="255.793,334.762 255.793,360.711 256.762,361.012 288.848,335.652 	"/>
	<g>
		<path fill="#D6C9AC" d="M295.266,234.543c0.045,0.004,0.09,0.006,0.133,0.006c0.936,0,1.725-0.723,1.793-1.67
			c0.072-0.992-0.674-1.854-1.664-1.926l-1.666-0.119v-25.668c0-0.994-0.807-1.799-1.801-1.799c-0.992,0-1.799,0.805-1.799,1.799
			v25.406l-2.58-0.186V203.57c0-0.992-0.807-1.799-1.801-1.799s-1.799,0.807-1.799,1.799v26.557l-4.176-0.303v-29.443
			c0-0.994-0.807-1.799-1.801-1.799s-1.799,0.805-1.799,1.799v29.184l-4.975-0.359v-31.217c0-0.992-0.807-1.799-1.799-1.799
			c-0.994,0-1.801,0.807-1.801,1.799v30.955l-4.975-0.359v-33.785c0-0.994-0.805-1.801-1.799-1.801s-1.799,0.807-1.799,1.801v33.525
			l-0.809-0.059c-1.021-0.084-1.854,0.674-1.924,1.666c-0.072,0.99,0.674,1.852,1.664,1.924l1.068,0.078v86.791l-1.805,0.992
			c-0.871,0.479-1.189,1.572-0.711,2.443c0.328,0.596,0.943,0.934,1.58,0.934c0.293,0,0.59-0.072,0.865-0.223l0.07-0.039v30.461
			c0,0.994,0.805,1.799,1.799,1.799s1.799-0.805,1.799-1.799v-32.439l4.975-2.734v27.996c0,0.994,0.807,1.801,1.801,1.801
			c0.992,0,1.799-0.807,1.799-1.801v-29.975l4.975-2.736v27.129c0,0.994,0.805,1.799,1.799,1.799s1.801-0.805,1.801-1.799v-29.107
			l4.176-2.297v25.822c0,0.992,0.805,1.799,1.799,1.799s1.801-0.807,1.801-1.799V307.15l2.58-1.42v24.436
			c0,0.994,0.807,1.799,1.799,1.799c0.994,0,1.801-0.805,1.801-1.799v-26.414l2.402-1.32c0.871-0.48,1.189-1.574,0.711-2.445
			c-0.479-0.869-1.572-1.188-2.445-0.709l-0.668,0.367v-65.203L295.266,234.543z M262.758,316.746v-84.553l4.975,0.359v81.459
			L262.758,316.746z M271.332,312.031v-79.219l4.975,0.359v76.125L271.332,312.031z M279.906,307.318v-73.885l4.176,0.301v71.287
			L279.906,307.318z M290.262,301.623l-2.58,1.42v-69.047l2.58,0.186V301.623z"/>
		<path fill="#D6C9AC" d="M344.475,238.836c0.02,0.002,0.041,0.002,0.062,0.002c0.469,0,0.863-0.363,0.896-0.84
			c0.033-0.494-0.342-0.924-0.838-0.957l-0.533-0.037v-16.398c0-0.498-0.404-0.9-0.9-0.9c-0.498,0-0.9,0.402-0.9,0.9v16.277
			l-0.742-0.051v-17.066c0-0.496-0.402-0.9-0.9-0.9c-0.496,0-0.9,0.404-0.9,0.9v16.945l-1.4-0.096v-17.732
			c0-0.496-0.402-0.898-0.898-0.898c-0.498,0-0.9,0.402-0.9,0.898v17.611l-1.729-0.117v-18.754c0-0.496-0.402-0.898-0.9-0.898
			s-0.9,0.402-0.9,0.898v18.631l-1.729-0.117v-19.395c0-0.496-0.402-0.9-0.898-0.9c-0.498,0-0.9,0.404-0.9,0.9v19.273l-0.166-0.012
			c-0.494-0.037-0.926,0.342-0.959,0.836c-0.033,0.496,0.342,0.926,0.838,0.959l0.287,0.02v45.914l-0.689,0.414
			c-0.426,0.254-0.564,0.807-0.309,1.234c0.168,0.281,0.467,0.438,0.771,0.438c0.076,0,0.152-0.012,0.227-0.031v15.18
			c0,0.498,0.402,0.9,0.9,0.9c0.496,0,0.898-0.402,0.898-0.9v-16.213l1.729-1.037v15.066c0,0.498,0.402,0.9,0.9,0.9
			s0.9-0.402,0.9-0.9v-16.145l1.729-1.035v14.24c0,0.498,0.402,0.9,0.9,0.9c0.496,0,0.898-0.402,0.898-0.9v-15.318l1.4-0.838v13.217
			c0,0.498,0.404,0.9,0.9,0.9c0.498,0,0.9-0.402,0.9-0.9v-14.297l0.742-0.443v12.223c0,0.496,0.402,0.898,0.9,0.898
			c0.496,0,0.9-0.402,0.9-0.898v-13.301l0.936-0.562c0.426-0.254,0.564-0.807,0.309-1.234c-0.256-0.426-0.807-0.564-1.234-0.309
			l-0.01,0.006v-36.178L344.475,238.836z M331.262,282.654v-44.713l1.729,0.117v43.561L331.262,282.654z M334.791,280.541V238.18
			l1.729,0.117v41.209L334.791,280.541z M338.318,278.428V238.42l1.4,0.094v39.074L338.318,278.428z M342.262,276.066l-0.742,0.443
			v-37.873l0.742,0.049V276.066z"/>
		<path fill="#D6C9AC" d="M433.195,272.533l-0.564-0.338V235.75l0.264-0.018c0.371-0.025,0.652-0.346,0.627-0.719
			c-0.025-0.371-0.346-0.65-0.719-0.627l-0.172,0.012v-15.316c0-0.371-0.303-0.674-0.676-0.674s-0.674,0.303-0.674,0.674v15.406
			l-1.447,0.1V220.58c0-0.373-0.303-0.676-0.676-0.676s-0.674,0.303-0.674,0.676v14.1l-1.447,0.098v-13.201
			c0-0.373-0.301-0.674-0.674-0.674s-0.676,0.301-0.676,0.674v13.293l-1.186,0.08v-12.672c0-0.373-0.303-0.676-0.676-0.676
			c-0.371,0-0.674,0.303-0.674,0.676v12.762l-0.666,0.047v-12.145c0-0.373-0.303-0.674-0.676-0.674s-0.674,0.301-0.674,0.674v12.236
			l-0.459,0.031c-0.373,0.023-0.654,0.346-0.627,0.719c0.023,0.355,0.32,0.629,0.672,0.629c0.016,0,0.029-0.002,0.047-0.002
			l0.367-0.025v28.779l-0.066-0.039c-0.322-0.193-0.736-0.088-0.926,0.232c-0.191,0.318-0.088,0.734,0.23,0.926l0.762,0.455v11.359
			c0,0.373,0.301,0.676,0.674,0.676s0.676-0.303,0.676-0.676v-10.551l0.666,0.398v12.15c0,0.373,0.303,0.674,0.674,0.674
			c0.373,0,0.676-0.301,0.676-0.674V268.9l1.186,0.709v12.162c0,0.373,0.303,0.674,0.676,0.674s0.674-0.301,0.674-0.674v-11.354
			l1.447,0.867v12.816c0,0.371,0.301,0.674,0.674,0.674s0.676-0.303,0.676-0.674v-12.008l1.447,0.865v12.871
			c0,0.373,0.301,0.676,0.674,0.676s0.676-0.303,0.676-0.676v-12.104c0.072,0.025,0.143,0.061,0.217,0.061
			c0.229,0,0.453-0.117,0.58-0.328C433.619,273.141,433.516,272.725,433.195,272.533z M422.486,266.117v-29.68l0.666-0.045v30.123
			L422.486,266.117z M424.502,267.324v-31.023l1.186-0.08v31.814L424.502,267.324z M427.037,268.844v-32.715l1.447-0.098v33.68
			L427.037,268.844z M429.834,270.52v-34.58l1.447-0.098v35.545L429.834,270.52z"/>
	</g>
	<polygon fill="#AE9E7D" points="571.09,199.072 571.09,208.281 560.197,210.85 560.197,220.445 550.369,222.219 550.371,272.621 
		558.412,273.561 558.412,258.344 570.637,257.855 570.637,243.617 583.824,242.881 584.307,228.23 598.025,226.729 
		598.025,213.732 611,211.262 611,198.873 622.861,196.156 622.861,184.303 	"/>
	<polygon fill="#C9BB9C" points="550.371,273.561 550.371,272.621 558.412,273.561 	"/>
</g>
</svg>
