<?xml version="1.0" encoding="utf-8"?>
<!-- Generator: Adobe Illustrator 15.0.2, SVG Export Plug-In . SVG Version: 6.00 Build 0)  -->
<!DOCTYPE svg PUBLIC "-//W3C//DTD SVG 1.1//EN" "http://www.w3.org/Graphics/SVG/1.1/DTD/svg11.dtd">
<svg version="1.1" id="Layer_1" xmlns="http://www.w3.org/2000/svg" xmlns:xlink="http://www.w3.org/1999/xlink" x="0px" y="0px"
	 width="720px" height="460px" viewBox="0 0 720 460" enable-background="new 0 0 720 460" xml:space="preserve">
<polygon fill="#9AC1D5" points="647.071,283.16 533.668,215.41 187.715,213.103 81.782,283.16 88.845,332.598 640.009,332.598 "/>
<polygon fill="#8EB9CF" points="524.061,227.598 189.893,227.598 88.845,332.598 640.009,332.598 "/>
<polygon fill="#8EB9CF" points="140.526,281.375 83.125,283.703 72.923,214.656 140.526,213.568 "/>
<polygon fill="#8EB9CF" points="536.199,171.402 181.243,171.402 183.293,215.41 533.668,215.41 "/>
<polygon fill="#81B1CA" points="161.453,183.924 164.185,210.33 183.205,194.092 181.243,171.402 "/>
<polygon fill="#8EB9CF" points="165.274,208.154 150.335,208.154 148.854,200.316 134.419,200.955 132.375,191.915 118.033,191.461 
	116.945,185.398 161.453,183.924 "/>
<polygon fill="#C0D8E4" points="149.247,201.092 147.678,193.254 133.243,193.893 131.199,184.853 116.945,185.398 72.923,214.656 
	87.567,215.412 89.076,225.068 103.709,226.039 105.181,235.748 121.215,236.919 164.097,201.092 "/>
<polygon fill="#ACCCDC" points="149.247,201.092 105.181,235.748 103.709,226.039 147.678,193.254 "/>
<polygon fill="#ACCCDC" points="165.274,208.154 122.131,246.467 121.215,236.919 164.097,201.092 "/>
<polygon fill="#ACCCDC" points="133.243,193.893 89.076,225.068 87.567,215.412 131.199,184.853 "/>
<path fill="#C5DBE7" d="M122.519,281.768c6.316,0.492,11.668-0.072,18.007-0.393c7.529-0.38,14.261,1.996,21.972,2.609
	c10.429,0.832,19.63-3.971,29.783-3.808c5.306,0.086,6.613,2.997,10.982,3.806c5.341,0.989,11.489-2.207,16.909-2.217
	c10.575-0.021,22.025,3.544,32.648,3.021c11.453-0.562,22.788-4.75,33.664-5.548c4.43-0.325,6.276,3.05,10.242,3.766
	c4.433,0.8,4.696-0.985,8.575-1.452c4.629-0.559,9.086,1.877,13.222,1.604c3.827-0.252,5.22-2.516,9.532-3.189
	c3.994-0.625,10.092,1.727,14.08,1.838c4.053,0.115,7.628,0.186,11.659,0.57c5.917,0.562,9.727-2.644,15.694-3.177
	c4.681-0.419,8.389,2.591,12.712,2.425c7.17-0.272,12.25-5.887,20.284-4.168c5.654,1.209,7.159,2.904,12.847,2.562
	c7.019-0.422,13.628-2.168,20.874-1.566c9.067,0.753,19.351,3.355,28.436,3.764c5.9,0.268,11.008-2.883,16.988-2.976
	c5.228-0.082,8.764,1.643,13.763,2.544c6.802,1.227,11.459-1.861,18.029-2.564c6.579-0.705,12.636,1.908,19.227,1.584
	c8.866-0.436,17.735-5.248,26.779-3.959c3.594,0.514,7.012,2.734,10.475,3.764c6.194,1.843,13.948,0.875,20.298,0.748
	c4.102-0.082,10.73-2.914,14.896-1.944c5.27,1.228,8.494,5.644,14.318,4.764c1-0.151,3.254-2.937,5.28-3.388
	c2.686-0.596,5.222,0.51,7.675,0.803c13.722,1.643,14.651,1.6,14.702,1.576v-0.006c0.296-2.07-11.915-12.572-14.411-12.67
	c1.287-7.842-20.432-13.006-25.232-17.912c-1.108-1.133-3.861-6.242-4.883-6.947c-2.286-1.577-5.653-3.207-7.688-4.434
	c-5.182-3.126-3.454-8.092-12.419-8.729c1.657-6.877-10.599-8.371-13.556-13.602c-4.469-7.9-4.095-3.584-8.729-7.742
	c-4.466-4.008-4.341-6.086-10.655-7.356c0.336-1.485-1.607-4.067-2.609-5.237c-3.879-4.533-5.814-4.83-10.908-6.537
	c-4.92-1.645-11.287-1.164-16.42,0.125c-2.212,0.559-5.031,2.836-7.058,3.036c-1.257,0.123-3.598-2.196-5.516-2.274
	c-2.242-0.09-4.568,1.15-7.062,1.016c-2.592-0.139-4.279-1.903-7.062-1.78c-2.874,0.128-5.141,3.096-7.848,3.036
	c-1.741-0.039-5.042-2.557-7.062-3.016c-3.572-0.81-8.714-1.26-12.556-1.587c-2.394-0.204-4.604,1.513-7.06,1.405
	c-2.366-0.105-2.992-2.254-5.499-2.172c-3.171,0.104-5.562,3.064-8.706,3.012c-2.332-0.039-3.072-2.847-4.841-3.113
	c-4.57-0.687-10.488-0.1-15.394-0.046c-6.229,0.068-10.691,1.525-16.762,2.856c-6.846,1.501-10.478-1.133-16.883-1.178
	c-3.374-0.025-6.935,2.008-10.391,2.387c-2.438,0.268-5.555-0.166-7.85-0.172c-3.838-0.011-5.678,0.457-9.57-0.395
	c-8.373-1.834-15.378-0.619-23.385-0.825c-6.556-0.169-12.792-0.19-19.618-0.193c-3.701-0.001-6.911,1.866-10.985,1.41
	c-4.042-0.452-5.643-2.142-9.986-1.582c-2.504,0.323-5.06,2.825-7.47,2.754c-2.403-0.069-3.408-1.651-4.708-1.819
	c-4.053-0.522-5.412,0.104-10.022,0.647c-6.558,0.772-12.858-2.095-19.484-1.257c-2.327,0.295-3.914,2.467-6.363,2.428
	c-2.209-0.035-4.133-2.305-6.389-2.443c-5.051-0.312-8.497,3.172-13.341,3.152c-2.951-0.011-5.598-2.43-8.452-2.701
	c-3.55-0.336-8.141,1.833-11.966,1.822c-2.057-0.008-2.398-2.178-5.4-1.82c-4.109,0.488-4.337,3.886-8.792,2.305
	c-3.032-1.074-9.225-2.699-13.963-3.097c-6.702-0.562-1.272,6.724-7.691,4.243c-1.274,2.141-2.854,6.119-4.67,7.785
	c-2.017,1.848-5.244,1.407-6.685,2.889c-4.417,4.539-3.932,7.082-10.164,10.195c-2.162,1.08-5.183,1.502-6.91,3.162
	c-2.672,2.569-1.425,4.82-3.099,7.275c-3.821,5.609-9.204,3.069-13.57,6.832c-2.593,2.234-0.718,4.375-2.281,6.486
	c-2.28,3.081-5.656,3.859-8.534,6.106c-5.168,4.034-6.746,9.397-11.552,12.926c-1.658,1.218-4.133,1.612-5.647,2.966
	c-2.33,2.08-1.805,4.476-3.7,6.475c-2.274,2.398-5.817,2.562-8.281,4.638c-2.863,2.41-4.57,6.556-7.55,9.267
	c0,0,12.157,1.008,18.902,1.41C107.322,284.965,115.087,281.189,122.519,281.768z"/>
<path fill="#BAD4E2" d="M524.061,227.598H189.893l-51.888,53.918c0.827-0.049,1.664-0.098,2.522-0.141
	c7.529-0.38,14.261,1.996,21.972,2.609c10.429,0.832,19.63-3.971,29.783-3.808c5.306,0.086,6.613,2.997,10.982,3.806
	c5.341,0.989,11.489-2.207,16.909-2.217c10.575-0.021,22.025,3.544,32.648,3.021c11.453-0.562,22.788-4.75,33.664-5.548
	c4.43-0.325,6.276,3.05,10.242,3.766c4.433,0.8,4.696-0.985,8.575-1.452c4.629-0.559,9.086,1.877,13.222,1.604
	c3.827-0.252,5.22-2.516,9.532-3.189c3.994-0.625,10.092,1.727,14.08,1.838c4.053,0.115,7.628,0.186,11.659,0.57
	c5.917,0.562,9.727-2.644,15.694-3.177c4.681-0.419,8.389,2.591,12.712,2.425c7.17-0.272,12.25-5.887,20.284-4.168
	c5.654,1.209,7.159,2.904,12.847,2.562c7.019-0.422,13.628-2.168,20.874-1.566c9.067,0.753,19.351,3.355,28.436,3.764
	c5.9,0.268,11.008-2.883,16.988-2.976c5.228-0.082,8.764,1.643,13.763,2.544c6.802,1.227,11.459-1.861,18.029-2.564
	c6.579-0.705,12.636,1.908,19.227,1.584c8.866-0.436,17.735-5.248,26.779-3.959c3.594,0.514,7.012,2.734,10.475,3.764
	c4.196,1.248,9.106,1.206,13.812,1.012L524.061,227.598z"/>
<g>
	<g>
		<g>
			<g>
				<path fill="#76A2BE" d="M386.768,241.127c-0.027-8.133-13.643-19.662-28.742-19.644c-17.811,0.021-28.945,4.642-29.64,16.464
					c-1.177,20.043,4.02,39.842,11.029,59.747l6.01-0.136c3.652-17.154,5.614-25.654,12.09-34.717
					c6.093,7.326,10.175,18.504,14.642,33.683l6.586-0.248C382.397,277.176,386.818,256.17,386.768,241.127z"/>
			</g>
		</g>
		<path fill="#76A2BE" d="M342.688,304.115c1.654,0.277,5.471,0.807,6.861-0.031c2.992-1.809-1.785-3.955-4.213-4.74
			C339.105,297.328,335.304,302.877,342.688,304.115z"/>
		<path fill="#76A2BE" d="M375.438,302.85c1.668,0.172,5.514,0.469,6.845-0.459c2.874-1.986-2.024-3.834-4.498-4.467
			C371.441,296.298,367.99,302.07,375.438,302.85z"/>
	</g>
	<path fill="#A0C4D7" d="M386.768,241.127c-0.027-8.133-13.643-19.662-28.742-19.644c-17.811,0.021-28.945,4.642-29.64,16.464
		c-0.835,14.221,1.547,28.32,5.501,42.422c2.91,0.555,5.934,1.371,8.248,1.436c2.385,0.068,4.606,0.128,6.852,0.238
		c2.076-7.789,4.373-13.385,8.528-19.201c3.561,4.281,6.434,9.89,9.099,16.832c0.911-0.213,1.859-0.385,2.875-0.476
		c4.449-0.397,8.02,2.296,12.076,2.422C384.34,266.98,386.806,252.385,386.768,241.127z"/>
	<g>
		<g>
			<path fill="#6C94B2" d="M411.889,222.561c0.471,0.754,1.023,1.56,1.693,1.56c0.109,0,0.223-0.021,0.338-0.067
				c1.037-0.414-0.12-2.807,1.297-3.229c0.135-0.039,0.267-0.059,0.398-0.059c0.904,0,1.768,0.904,2.608,2.215
				c0.751,1.17,1.165,2.629,2.784,2.867c0.141,0.021,0.271,0.031,0.395,0.031c1.479,0,1.725-1.456,1.804-2.859
				c0.231-4.014-3.862-7.785-7.795-7.785c-0.335,0-0.669,0.027-0.999,0.084c-1.943,0.334-3.185,1.693-3.262,3.826
				C411.116,220.117,411.303,221.607,411.889,222.561z"/>
			<path fill="#6C94B2" d="M358.035,201.259c-17.301,0-32.912,2.371-45.109,5.522c-3.336,3.672-6.666,7.635-9.996,11.846
				l5.373,5.002c14.623-14.349,26.32-18.083,26.32-18.083s-4.269,7.849-4.269,17.411c5.222,3.254,15.675,4.676,26.425,4.676
				c13.45,0,27.366-2.225,32.105-5.868c-3.609-12.379-4.202-17.981-4.202-17.981s8.718,2.07,23.72,14.193l4.564-4.42
				c-2.043-2.598-3.949-4.988-5.779-7.229C393.711,202.564,377.885,201.259,358.035,201.259z"/>
			<path fill="#6C94B2" d="M302.01,221.344c-0.051,0-0.104,0.002-0.156,0.003c-4.263,0.13-8.194,5.086-7.077,9.304
				c0.324,1.234,0.792,2.481,1.958,2.481c0.226,0,0.478-0.047,0.76-0.149c1.539-0.559,1.654-2.07,2.156-3.367
				c0.618-1.595,1.361-2.717,2.386-2.717c0.042,0,0.085,0.002,0.128,0.006c1.473,0.128,0.818,2.705,1.917,2.902
				c0.06,0.012,0.116,0.017,0.173,0.017c0.762,0,1.184-0.98,1.519-1.884c0.384-1.051,0.269-2.549,0.04-3.495
				C305.323,222.426,303.9,221.344,302.01,221.344z"/>
			<path fill="#6C94B2" d="M423.638,212.755c-4.628-2.42-9.522-4.362-14.758-5.929c1.552,1.912,3.168,3.945,4.873,6.112l0.558,0.709
				l-0.648,0.628l-0.285,0.275c0.274-0.092,0.562-0.166,0.865-0.218c0.381-0.065,0.773-0.099,1.17-0.099
				c2.283,0,4.695,1.111,6.453,2.973c1.627,1.724,2.458,3.809,2.34,5.869c-0.053,0.94-0.215,3.803-2.803,3.803
				c-0.174,0-0.355-0.014-0.541-0.041c-1.77-0.262-2.492-1.566-3.072-2.615c-0.131-0.237-0.262-0.477-0.407-0.703
				c-1.016-1.583-1.573-1.754-1.767-1.754l0,0c-0.02,0-0.039,0.002-0.059,0.002c-0.015,0-0.029-0.002-0.041-0.006
				c-0.078,0.121-0.088,0.605-0.094,0.865c-0.015,0.764-0.037,1.918-1.127,2.353c-0.232,0.094-0.472,0.141-0.713,0.141
				c-1.276,0-2.068-1.271-2.545-2.036c-0.716-1.164-0.925-2.868-0.887-3.976c0.023-0.634,0.135-1.219,0.326-1.748l-1.379,1.335
				l-0.637,0.615l-0.688-0.556c-11.148-9.009-18.826-12.411-21.866-13.524c0.407,2.427,1.456,7.74,3.938,16.254l0.191,0.656
				l-0.542,0.417c-5.429,4.174-20.764,6.075-32.715,6.075c-12.206,0-22.031-1.76-26.954-4.828l-0.471-0.293v-0.555
				c0-6.667,1.987-12.46,3.289-15.541c-4.058,1.807-13.095,6.58-23.64,16.928l-0.684,0.669l-0.699-0.651l-1.131-1.054
				c0.117,0.284,0.218,0.583,0.295,0.902c0.26,1.077,0.396,2.789-0.074,4.077c-0.33,0.886-0.941,2.536-2.457,2.536
				c-0.113,0-0.231-0.011-0.35-0.032c-1.159-0.208-1.412-1.335-1.58-2.081c-0.057-0.253-0.164-0.726-0.229-0.808l-0.06-0.004
				c-0.152,0-0.708,0.149-1.454,2.078c-0.097,0.25-0.177,0.51-0.258,0.768c-0.359,1.144-0.806,2.568-2.487,3.178
				c-0.383,0.139-0.754,0.21-1.104,0.21c-2.078,0-2.671-2.262-2.924-3.226c-0.594-2.241-0.012-4.764,1.596-6.919
				c1.646-2.208,4.045-3.568,6.417-3.64c0.063-0.002,0.125-0.004,0.188-0.004c0.553,0,1.066,0.085,1.545,0.231l-1.307-1.216
				l-0.675-0.629l0.571-0.724c3.092-3.908,6.09-7.485,9.014-10.758c-8.961,2.437-15.929,5.271-20.138,7.824
				c-16.822,10.204-12.172,33.524,2.056,40.181c16.595,7.764,26.391,0.58,37.464-5.264c9.223-4.868,50.324-5.881,57.832,1.625
				c11.254,11.255,36.369,11.205,46.48-8.793C440.466,231.723,434.405,218.385,423.638,212.755z"/>
		</g>
		<g>
			<path fill="#6185A6" d="M356.779,227.633c13.45,0,27.366-2.225,32.105-5.868c-1.008-3.456-1.773-6.364-2.363-8.788
				c-8.004-1.911-17.221-2.615-28.294-2.615c-9.937,0-19.049,1.35-26.62,3.277c-0.703,2.701-1.253,5.896-1.253,9.318
				C335.576,226.211,346.029,227.633,356.779,227.633z"/>
			<path fill="#6185A6" d="M402.553,219.412c-4.543-2.768-9.458-4.757-14.935-6.16c0.569,2.307,1.298,5.045,2.227,8.232l0.191,0.656
				l-0.542,0.417c-5.429,4.174-20.764,6.075-32.715,6.075c-12.206,0-22.031-1.76-26.954-4.828l-0.471-0.293v-0.555
				c0-3.297,0.487-6.379,1.136-9.027c-7.963,2.13-14.109,4.882-17.543,7.308c-11.365,8.032-8.224,26.392,1.389,31.632
				c11.215,6.111,17.833,0.456,25.315-4.145c6.231-3.832,34.002-4.629,39.074,1.28c7.604,8.86,24.573,8.821,31.405-6.923
				C413.922,234.344,409.827,223.844,402.553,219.412z"/>
		</g>
		<path fill="#6185A6" d="M359.602,260.18c-2.262-0.025-4.014-2.434-6.229-2.343c-1.621,0.066-2.548,1.263-4.335,1.339
			c-2.149,0.092-4.095-1.303-6.112-1.879c-2.602-0.744-3.727-0.27-6.145-0.072c-2.459,0.201-2.437-0.314-4.938-1.307
			c-2.922-1.158-3.91,0.244-6.657,0.314c-2.878,0.075-6.603-1.3-9.807-1.648c-2.475-0.27-1.257-0.015-3.174-1.309
			c-1.647-1.11-1.51-1.376-3.365-1.697c-1.677-0.291-1.655,0.441-3.571-0.492c-1.547-0.755-3.486-1.874-4.944-2.688
			c-1.095-0.612-2.196-2.147-3.318-2.559c-1.255-0.458-2.191,0.436-3.458-0.123c-0.365-0.16-0.461-1.662-1.029-2
			c-0.615-0.365-1.469,0.078-1.978-0.223c-1.027-0.607-1.705-1.051-2.679-1.889c-1.326-1.139-1.452-2.02-2.297-3.023
			c-0.971-1.154-0.582-2.459-2.819-2.01c-0.165-3.053-0.702-5.039-1.693-7.854c-4.693,11.98,3.222,23.976,13.003,30.457
			c13.811,9.154,35.955,12.75,64.469,12.75c31.224,0,57.763-6.566,67.016-13.814c7.755-6.073,11.838-14.822,12.331-22.955
			c-0.579,1.306-7.653,6.957-6.439,8.686c-2.502-3.565-3.541,2.094-5.302,3.172c-2.202,1.348-4.327-0.066-6.212,3.305
			c-3.365-2.672-3.582,0.344-6.547,1.586c-1.165,0.488-2.396-0.002-3.531,0.393c-1.175,0.408-2.373,2.146-3.562,2.326
			c-2.065,0.316-3.845-1.782-6.146-1.092c-1.949,0.584-2.062,2.441-3.679,3.054c-1.68,0.636-3.654-0.902-5.229-0.712
			c-2.005,0.245-2.557,2.139-3.997,2.674c-2.017,0.75-3.081-0.677-5.042-1.102c-2.747-0.595-3.665,0.619-5.999,1.175
			c-2.638,0.628-5.881,0.262-8.498,0.558c-1.5,0.17-2.416-0.295-4.005-0.263c-1.58,0.032-2.529,1.167-3.825,1.257
			C359.773,260.178,359.688,260.182,359.602,260.18z"/>
	</g>
	<g>
		<path fill="#C83B0C" d="M423.206,223.02c-0.085,1.52-0.367,3.102-2.198,2.828c-1.619-0.238-2.033-1.697-2.784-2.867
			c-0.964-1.502-1.955-2.469-3.007-2.156c-1.417,0.422-0.26,2.814-1.297,3.229c-0.824,0.332-1.484-0.615-2.031-1.492
			c-0.586-0.953-0.772-2.443-0.738-3.416c0.077-2.133,1.318-3.492,3.262-3.826C418.615,214.594,423.457,218.664,423.206,223.02z"/>
		<path fill="#C83B0C" d="M294.776,230.65c0.387,1.473,0.98,2.967,2.718,2.332c1.539-0.559,1.654-2.07,2.156-3.367
			c0.643-1.66,1.422-2.809,2.514-2.711c1.473,0.128,0.818,2.705,1.917,2.902c0.873,0.16,1.332-0.898,1.691-1.867
			c0.384-1.051,0.269-2.549,0.04-3.495c-0.502-2.075-1.99-3.159-3.959-3.098C297.591,221.477,293.659,226.433,294.776,230.65z"/>
		<g>
			<path fill="#6C94B2" d="M403.262,214.023c1.62,1.183,3.334,2.494,5.141,3.953l4.564-4.42c-0.477-0.605-0.931-1.178-1.395-1.764
				C408.711,212.147,405.938,212.959,403.262,214.023z"/>
			<path fill="#6C94B2" d="M331.688,223.684c5.541,2.737,15.186,3.949,25.092,3.949c13.45,0,27.366-2.225,32.105-5.868
				c-0.014-0.046-0.025-0.089-0.039-0.134c-0.963,0.551-1.906,1.08-2.825,1.564C377.783,227.542,344.137,228.809,331.688,223.684z"
				/>
			<path fill="#6C94B2" d="M427.716,215.432c-5.19-3.183-10.192-4.125-14.96-3.754c0.334,0.424,0.656,0.827,0.997,1.261l0.558,0.709
				l-0.648,0.628l-0.285,0.275c0.274-0.092,0.562-0.166,0.865-0.218c0.381-0.065,0.773-0.099,1.17-0.099
				c2.283,0,4.695,1.111,6.453,2.973c1.627,1.724,2.458,3.809,2.34,5.869c-0.053,0.94-0.215,3.803-2.803,3.803
				c-0.174,0-0.355-0.014-0.541-0.041c-1.77-0.262-2.492-1.566-3.072-2.615c-0.131-0.237-0.262-0.477-0.407-0.703
				c-1.016-1.583-1.573-1.754-1.767-1.754l0,0c-0.02,0-0.039,0.002-0.059,0.002c-0.015,0-0.029-0.002-0.041-0.006
				c-0.078,0.121-0.088,0.605-0.094,0.865c-0.015,0.764-0.037,1.918-1.127,2.353c-0.232,0.094-0.472,0.141-0.713,0.141
				c-1.276,0-2.068-1.271-2.545-2.036c-0.716-1.164-0.925-2.868-0.887-3.976c0.023-0.634,0.135-1.219,0.326-1.748l-1.379,1.335
				l-0.637,0.615l-0.688-0.556c-1.981-1.602-3.848-3.018-5.604-4.283c-4.443,1.896-8.604,4.427-12.432,6.645
				c0.037,0.124,0.07,0.243,0.106,0.368l0.191,0.656l-0.542,0.417c-5.429,4.174-20.764,6.075-32.715,6.075
				c-12.206,0-22.031-1.76-26.954-4.828l-0.471-0.293v-0.555c0-0.158,0.007-0.313,0.009-0.471c-0.443-0.292-0.85-0.594-1.174-0.917
				c-2.41-2.41-5.584-4.42-9.158-5.892c-3.084,2.324-6.466,5.17-10.027,8.666l-0.684,0.669l-0.699-0.651l-1.131-1.054
				c0.117,0.284,0.218,0.583,0.295,0.902c0.26,1.077,0.396,2.789-0.074,4.077c-0.33,0.886-0.941,2.536-2.457,2.536
				c-0.113,0-0.231-0.011-0.35-0.032c-1.159-0.208-1.412-1.335-1.58-2.081c-0.057-0.253-0.164-0.726-0.229-0.808l-0.06-0.004
				c-0.152,0-0.708,0.149-1.454,2.078c-0.097,0.25-0.177,0.51-0.258,0.768c-0.359,1.144-0.806,2.568-2.487,3.178
				c-0.383,0.139-0.754,0.21-1.104,0.21c-2.078,0-2.671-2.262-2.924-3.226c-0.594-2.241-0.012-4.764,1.596-6.919
				c1.646-2.208,4.045-3.568,6.417-3.64c0.063-0.002,0.125-0.004,0.188-0.004c0.553,0,1.066,0.085,1.545,0.231l-1.307-1.216
				l-0.675-0.629l0.571-0.724c1.379-1.743,2.732-3.397,4.076-5.013c-10.338-0.248-20.735,4.132-25.143,15.635
				c-3.691,9.631,1.37,21.728,14.451,30.547c15.778,10.641,34.782,9.808,63.297,9.808c31.224,0,58.452-6.809,67.706-14.056
				C442.387,242.51,441.107,223.645,427.716,215.432z"/>
			<path fill="#6C94B2" d="M317.928,215.252c-3.277-1.221-6.844-1.99-10.453-2.207c-1.516,1.811-3.029,3.666-4.545,5.582
				l5.373,5.002C311.708,220.288,314.951,217.528,317.928,215.252z"/>
		</g>
		<g>
			<path fill="#C83B0C" d="M383.166,139.398c0.405,0.513,0.789,1.062,1.146,1.659c6.293,10.551,3.282,27.65,3.282,27.65
				l-1.382-1.571l-2.229,4.371l-0.458-0.523c1.204-3.827,1.982-8.275,2.052-13.333c0.099-7.193-2.218-13.858-6.327-19.075
				C380.652,138.829,381.98,139.113,383.166,139.398z"/>
		</g>
		<path fill="#C83B0C" d="M366.436,137.289c-5.964,1.239-10.205,7.848-11.531,10.884c-0.765,1.737-2.699,4.877-3.783,12.94
			c-0.809,6.027-1.064,18.373-1.083,18.492c-1.595-0.326-4.57-2.933-4.57-2.933l-1.548,8.082l-6.043-6.194l-0.946,4.27
			c0,0-6.546-13.427-7.108-24.745c-0.53-10.751,4.625-19.373,9.289-23.58c3.871-3.49,7.922-5.955,13.721-6.792
			c6.415-0.924,11.803,0.416,19.207,1.421c5.898,0.802,17.415,0.706,17.415,0.706l-8.422,4.316l7.789,5.837
			C388.821,139.993,375.52,135.398,366.436,137.289z"/>
		<g>
			<path fill="#C83B0C" d="M350.987,179.76l-0.16,0.989l-0.982-0.202c-0.205-0.041-0.429-0.109-0.663-0.204
				c-0.985-0.391-2.181-1.227-3.068-1.909l-0.066,0.334c8.372,6.298,18.6,8.427,23.396,7.956
				c5.006-0.494,14.912-10.401,15.173-29.087c0.108-7.829-2.565-14.402-6.752-19.292c-3.715-0.573-7.803-0.828-11.234-0.115
				c-5.703,1.186-9.761,7.857-10.847,10.328c-0.106,0.244-0.235,0.517-0.384,0.823c-0.902,1.887-2.411,5.044-3.323,11.858
				c-0.458,3.416-0.812,9.369-1.054,17.697C351.001,179.68,351.001,179.68,350.987,179.76z M380.48,160.723
				c-0.843,0.1-1.71-1.334-1.938-3.208c-0.226-1.874,0.276-3.476,1.119-3.578c0.842-0.099,1.709,1.337,1.936,3.21
				C381.824,159.022,381.316,160.621,380.48,160.723z M368.226,156.02c0.958-0.113,1.915,1.279,2.137,3.117
				c0.222,1.835-0.378,3.415-1.332,3.531c-0.964,0.115-1.917-1.28-2.142-3.115C366.672,157.717,367.271,156.136,368.226,156.02z"/>
			<g>
				<path fill="#C83B0C" d="M412.967,213.557c-13.359-16.982-21.31-26.042-35.264-31.373c-2.826,3.43-5.872,5.31-8.163,5.536
					c-0.457,0.045-0.958,0.068-1.487,0.068c-5.053,0-12.695-1.923-19.564-6.152c-0.995,0.287-2,0.593-3.032,0.939
					c-14.543,4.882-28.522,18.344-42.526,36.053l5.373,5.002c14.623-14.349,26.32-18.083,26.32-18.083s-4.269,7.849-4.269,17.411
					c11.756,7.326,50.003,5.364,58.53-1.192c-3.609-12.379-4.202-17.981-4.202-17.981s8.718,2.07,23.72,14.193L412.967,213.557z"/>
			</g>
		</g>
	</g>
</g>
</svg>
