<?xml version="1.0" encoding="utf-8"?>
<!-- Generator: Adobe Illustrator 15.0.2, SVG Export Plug-In . SVG Version: 6.00 Build 0)  -->
<!DOCTYPE svg PUBLIC "-//W3C//DTD SVG 1.1//EN" "http://www.w3.org/Graphics/SVG/1.1/DTD/svg11.dtd">
<svg version="1.1" id="Layer_1" xmlns="http://www.w3.org/2000/svg" xmlns:xlink="http://www.w3.org/1999/xlink" x="0px" y="0px"
	 width="720px" height="460px" viewBox="0 0 720 460" enable-background="new 0 0 720 460" xml:space="preserve">
<g>
	<g>
		<polygon fill="#D0988C" points="417.24,113.588 641.043,217.817 277.598,452.296 78.956,212.349 		"/>
	</g>
</g>
<g>
	<g>
		<path fill="#7A574A" d="M488.783,254.558c-1.793,0.562-5.951,1.676-7.662,0.301c-3.684-2.963,1.238-6.91,3.797-8.391
			C491.488,242.669,496.787,252.038,488.783,254.558z"/>
		<path fill="#7A574A" d="M435.043,243.474c-1.814,0.457-6.016,1.334-7.635-0.148c-3.492-3.178,1.623-6.854,4.256-8.188
			C438.408,231.708,443.143,241.415,435.043,243.474z"/>
	</g>
	<g>
		<g>
			<path fill="#7A574A" d="M501.373,172.407c-1.527,1.164-3.506,2.051-5.732,2.73c0.053,0.4,0.088,0.811,0.1,1.232
				c0.051,1.863-0.822,5.658-2.537,7.645c-2.139,2.482-5.236,3.906-8.496,3.906c-1.516,0-3.045-0.307-4.545-0.914l-1.703-0.688
				l1.502-1.057c1.707-1.203,3.736-2.723,4.023-3.074l0.094-0.127l0.127-0.094c0.336-0.242,0.914-0.705,1.088-0.922
				c0.789-0.99,1.152-2.139,0.949-2.998c-0.107-0.453-0.383-0.842-0.803-1.166c-0.193,0.016-0.385,0.031-0.578,0.045
				c-0.434,0.285-0.885,0.609-1.361,0.961c-0.559,0.414-1.137,0.842-1.717,1.213l-0.588,0.375l-0.555-0.422
				c-0.584-0.443-0.979-1.105-1.18-1.92c-0.346,0.004-0.695,0.008-1.033,0.008c-19.76,0-46.152-5.672-52.432-13.809
				c-1.318-1.709-1.75-3.477-1.285-5.252c0.436-1.66,0.85-3.316,1.248-4.965c-1.09,1.76-1.793,3.537-2.035,5.264
				c-2.895,20.719,0.914,46.942,7.48,73.983l9.277,0.789c4.82-16.086,12.273-32.041,21.758-41.959
				c5.928,18.912,13.572,38.117,22.373,52.996l8.303,0.443C492.836,204.976,498.846,196.173,501.373,172.407z"/>
		</g>
		<g>
			<path fill="#7A574A" d="M488.137,84.397c-4.08-3.402-9.008-6.344-14.639-7.982c-7.439,3.971-14.641,5.549-18.678,5.549
				c-0.117,0-0.232-0.002-0.346-0.004c-1.982-0.045-4.5-1.07-7.129-3.051c-19.885,8.4-42.768,29.998-50.176,59.748l7.746,3.562
				c10.982-26.203,29.758-35.025,29.758-35.025s-2.15,25.043-8.996,51.141c-2.592,9.889,29.834,18.006,53.646,17.799
				c-0.084-1.908,0.723-4.148,2.137-5.82c1.426-1.691,3.373-2.658,5.514-2.77l0.088-0.213c9.186-22.412,8.17-38.344-3.512-54.988
				l0.818-0.574c11.834,16.861,12.939,32.977,3.783,55.535l7.438,4.254C518.141,142.604,508.387,101.286,488.137,84.397z"/>
		</g>
		<path fill="#E4E1D5" d="M494.105,165.34c-0.963-7.371-68.014-22.014-79.385-22.527c-10.297-0.467-38.574,17.076-36.678,23.477
			c0.783,2.645,5.006,23.471,6.039,26.961c1.861,6.281,62.584,25.5,72.268,24.574c10.355-0.986,27.543-17.471,29.256-21.893
			C487.803,190.252,494.912,171.528,494.105,165.34z"/>
		<path fill="#C7C4BA" d="M489.646,165.483c1.139,8.734-20.615,23.348-31.496,24.387c-10.172,0.971-73.705-16.908-75.66-23.504
			c-1.75-5.91,24.355-22.105,33.863-21.678C426.852,145.165,488.758,158.682,489.646,165.483z"/>
		<g>
			<path fill="#C9887A" d="M393.219,162.624c-0.969-1.881,1.725-4.316,4.277-6.102c2.943-2.062,6.344-3.508,7.27-1.711
				c1.178,2.287-0.996,4.461-3.518,6.271C398.197,163.278,394.078,164.286,393.219,162.624z"/>
			<path fill="#99A031" d="M403.336,155.032c2.668-0.799,9.615,2.008,11.346,3.055c3.91,2.365,7.307,5.539,5.283,10.859
				c-1.963,5.164-8.145,9.365-13.143,10.449c-3.658,0.797-7.688-0.318-10.629-2.5c-1.959-1.455-6.777-4.834-7.801-7.148
				c-0.762-1.721,0.02-3.404,1.074-4.689C389.777,164.678,401.258,155.653,403.336,155.032z"/>
			<path fill="#971B00" d="M422.006,150.879c4.854,1.41,10.209,2.643,14.865,5.115c3.07,1.633,9.555,3.465,10.643,7.625
				c1.129,4.309-4.111,9.35-6.314,12.172c-5.408,6.93-18.1,1.658-24.619-1.602c-4.053-2.029-3.721-5.389-5.488-9.223
				c-0.859-1.869-2.115-2.961-1.754-5.184c0.229-1.42,1.791-3.906,2.508-5.221C414.164,150.309,417.834,149.665,422.006,150.879z"/>
			<path fill="#AAABA8" d="M438.209,166.116c-0.084-2.318,1.924-4.811,3.133-6.613c1.645-2.449,2.32-2.791,5.182-2.768
				c5.172,0.047,10.359,1.27,15.107,3.256c3.992,1.664,8.414,2.932,12.125,4.816c8.062,4.094-3.402,11.031-7.346,12.639
				C459.936,180.083,438.598,176.786,438.209,166.116z"/>
			<path fill="#888886" d="M458.646,181.569c-3.789-3.979,5.891-8.611,8.58-10.412c4.973-3.336,7.617-4.936,13.115-2.781
				c1.834,0.717,4.188,1.258,5.578,2.893c1.762,2.068,0.492,3.385-1.709,5.283c-2.672,2.301-5.457,4.061-7.947,6.705
				c-3.303,3.504-4,4.041-8.223,2.625C464.871,184.815,461.15,184.2,458.646,181.569z"/>
			<path fill="#4E7094" d="M405.271,159.756c3.688-2.344,5.57-2.785,9.652-0.969c3.496,1.559,6.932,3.887,10.328,5.695
				c3.029,1.613,6.441,2.514,9.254,4.283c1.371,3.637-6.074,9.023-8.352,11.441c-1.404,1.492-3.219,4.197-5.008,5.121
				c-2.201,1.143-4.004,0.254-6.336-0.668c-5.57-2.201-11.127-4.258-16.387-7.162c-1.529-0.846-6.416-2.545-7.328-4.049
				C388.908,169.844,402.904,161.26,405.271,159.756z"/>
			<path fill="#5FB8AC" d="M440.303,183.495c0.576-2.537,4.404-5.607,6.01-7.428c1.479-1.674,2.854-3.543,4.738-4.576
				c8.031-4.398,19.615,2.695,25.443,8.803c2.814,2.947,0.883,3.857-1.918,5.545c-3.027,1.818-6.25,3.418-9.352,5.014
				c-5.979,3.077-8.775,5.26-14.838,1.913C447.312,191.067,439.029,189.096,440.303,183.495z"/>
			<path fill="#C22D00" d="M421.492,183.016c-5.143-2.215,0.852-7.277,3.178-10.465c3.916-5.363,6.189-9.5,12.82-7.98
				c4.998,1.148,9.053,4.785,13.697,6.629c3.043,1.211,7.215,0.521,5.148,4.875c-1.695,3.576-4.797,6.699-6.539,10.074
				c-1.674,3.24-2.658,5.704-6.451,4.883c-3.15-0.682-6.078-2.633-9.17-3.645C429.924,185.997,425.625,184.799,421.492,183.016z"/>
			<path fill="#666665" d="M409.004,161.319c3.432-2.393,4.934-3.213,9.234-2.932c4.328,0.281,8.094,1.438,12.164,2.824
				c6.758,2.305,13.793,3.408,20.449,5.623c1.102,0.365,3.434,0.932,3.768,2.17c0.455,1.686-2.277,3.885-3.283,4.865
				c-3.729,3.635-6.904,7.816-10.662,11.395c-6.465,6.165-15.986,1.332-23.602-0.494c-3.877-0.93-7.682-2.168-11.385-3.643
				c-2.883-1.15-7.221-2.434-8.615-5.551c-1.457-3.252,1.533-5.162,3.693-7.041C403.523,166.133,405.99,163.422,409.004,161.319z"/>
			<path fill="#E4E1D5" d="M458.15,189.87c-10.172,0.971-73.705-16.908-75.66-23.504c-0.545-1.838,1.605-4.67,5.109-7.686
				c-0.879-0.623-1.84-1.158-2.801-1.732c-4.506,3.641-7.406,7.145-6.756,9.342c0.783,2.645,5.006,23.471,6.039,26.961
				c1.861,6.281,62.584,25.5,72.268,24.574c10.355-0.986,27.543-17.471,29.256-21.893c0.373-0.963,0.895-2.326,1.486-3.912
				c-4.908-1.422-2.357-8.418-6.482-12.59C475.078,182.795,462.381,189.465,458.15,189.87z"/>
			<path fill="#C7C4BA" d="M475.924,192.294c-1.002-1.444,0.881-4.526,3.762-6.877c1.492-1.219,4.789-4.447,6.631-4.258
				c3.121,0.328-0.527,5.479-2.869,7.902C480.617,191.995,476.721,193.45,475.924,192.294z"/>
		</g>
	</g>
	<g>
		<path fill="#7A574A" d="M395.418,149.909c1.424-0.779,4.201-2.926,5.844-0.465c0.525,0.785,0.125,2.012,1.26,2.316
			c1.018,0.273,1.715-0.6,2.092-1.367c1.699-3.471-1.418-7.225-4.453-8.371c-3.143-1.188-6.127-0.16-7.949,2.623
			c-0.842,1.287-2.779,5.664-2.965,9.133C391.953,151.79,394.875,150.206,395.418,149.909z"/>
	</g>
	<g>
		<g>
			<path fill="#7A574A" d="M492.445,183.362c-2.406,2.793-6.863,4.756-11.91,2.719c0,0,3.801-2.676,4.258-3.303
				c0,0,0.939-0.684,1.281-1.109c1.543-1.938,2.008-4.762-0.891-6.105c-1.223,0.627-2.598,1.838-3.939,2.693
				c-1.605-1.217-1.066-4.877,0.98-7.299c2.291-2.719,5.77-3.059,8.785-1.529c2.51,1.275,3.654,4.162,3.73,6.969
				C494.787,178.112,493.928,181.643,492.445,183.362z"/>
		</g>
		<g>
			<g>
				<path fill="#A1856E" d="M481.244,178.256c0.574-0.365,1.152-0.797,1.725-1.219c-0.838,0.039-1.664,0.062-2.479,0.08
					C480.643,177.588,480.887,177.985,481.244,178.256z"/>
			</g>
		</g>
	</g>
	<g>
		<path fill="#7A574A" d="M503.348,160.711c-1.871,4.074-4.258,8.035-7.238,11.805l-0.266,0.338l-1.023-0.586
			c0.262,0.59,0.488,1.207,0.637,1.877c5.191-1.594,8.359-4.203,8.092-8.043C503.42,164.237,503.365,162.454,503.348,160.711z"/>
	</g>
	<g>
		<path fill="#7A574A" d="M498.947,38.057c-0.348-13.248-5.789-18.199-11.902-22.932c-5.078-3.924-9.443-6.057-17.471-7.066
			c-7.916-0.994-16.234,0.078-23.447,3.523c-8.131,3.887-15.014,12.801-16.629,24.689c-2.666,19.6,6.41,27.746,6.41,27.746
			c-1.836-4.588-3.205-9.975-3.756-16.176c-0.688-7.686,3.168-18.57,8.893-25.9c1.74,2.684,8.223,5.158,12.193,5.676
			c7.434,0.971,15.66,4.184,18.891,9.527c5.814,9.621-2.619,24.229,5.678,34.352c5.215,6.361,19.701,4.338,19.701,4.338
			s-2.646-5.898-2.152-11.008C496.025,57.891,499.305,52,498.947,38.057z"/>
		<g>
			<path fill="#7A574A" d="M477.033,72.129c-4.738-5.781-4.314-12.793-3.904-19.572c0.334-5.527,0.65-10.748-1.855-14.895
				c-3.236-5.354-11.807-8.223-18.164-9.053c-3.527-0.461-9.324-2.453-12.018-5.068c-4.67,6.418-7.797,15.01-8.002,21.754
				c0.025,0.453,0.051,0.906,0.092,1.365c2.049,22.914,15.125,34.156,21.314,34.299c4.975,0.111,14.461-2.385,23.109-8.203
				C477.408,72.555,477.213,72.348,477.033,72.129z M440.621,45.95c-0.104,2.32-1.037,4.162-2.078,4.115
				c-1.037-0.047-1.811-1.963-1.703-4.285c0.102-2.318,1.037-4.162,2.078-4.119C439.961,41.709,440.729,43.629,440.621,45.95z
				 M452.777,51.393c-1.182-0.055-2.066-1.939-1.963-4.211c0.102-2.277,1.146-4.072,2.334-4.025
				c1.182,0.055,2.064,1.941,1.967,4.213C455.01,49.643,453.969,51.444,452.777,51.393z"/>
			<path fill="#7A574A" d="M439.68,22.356c-2.963,4.039-5.115,8.852-6.084,14.27c1.539-5.16,4.145-10.406,7.348-14.547
				C440.52,22.168,440.096,22.258,439.68,22.356z"/>
		</g>
	</g>
</g>
<g>
	<polygon fill="#A15A34" points="286.374,408.208 276.504,413.507 269.014,405.339 269.014,301.046 286.374,301.046 	"/>
	<polygon fill="#A15A34" points="139.135,244.03 130.456,248.69 123.868,241.507 123.868,149.786 139.135,149.786 	"/>
	<polygon fill="#A15A34" points="386.346,352.347 376.477,357.644 368.984,349.476 368.984,248.825 386.346,248.825 	"/>
	<g>
		<polygon fill="#A15A34" points="398.797,252.177 222.643,125.292 109.772,152.893 109.772,163.825 265.057,327.618 
			398.797,264.323 		"/>
		<polygon fill="#AB6C4A" points="265.057,311.827 109.772,152.893 222.643,125.292 398.797,252.177 		"/>
	</g>
</g>
<polygon fill="#7A574A" points="490.844,159.95 488.152,167.303 495.59,171.557 500.607,163.948 "/>
</svg>
