<?xml version="1.0" encoding="utf-8"?>
<!-- Generator: Adobe Illustrator 15.0.2, SVG Export Plug-In . SVG Version: 6.00 Build 0)  -->
<!DOCTYPE svg PUBLIC "-//W3C//DTD SVG 1.1//EN" "http://www.w3.org/Graphics/SVG/1.1/DTD/svg11.dtd">
<svg version="1.1" id="Layer_1" xmlns="http://www.w3.org/2000/svg" xmlns:xlink="http://www.w3.org/1999/xlink" x="0px" y="0px"
	 width="720px" height="460px" viewBox="0 0 720 460" enable-background="new 0 0 720 460" xml:space="preserve">
<g>
	<polygon fill="#FDF6E3" points="590.869,242.481 367.645,417.519 144.419,303.443 388.074,174.481 	"/>
	<polygon fill="#DAE8F0" points="387.879,42.481 108.355,96.481 144.419,303.443 388.074,196.481 	"/>
	<polygon fill="#C5DBE7" points="387.879,42.481 611.645,70.481 590.869,242.481 388.074,196.481 	"/>
</g>
<g>
	<polygon fill="#F7F6F5" points="524.662,228.519 325.662,169.031 388.074,141.85 598.041,183.105 	"/>
	<g>
		<path fill="#E6E4E0" d="M519.323,213.211c-2.839,1.683-7.762,2.332-10.939,1.443l-148.443-41.52
			c-3.178-0.889-3.322-2.737-0.319-4.107l36.369-16.597c3.003-1.37,8.105-1.956,11.34-1.302l155.748,31.47
			c3.234,0.654,3.559,2.565,0.72,4.248L519.323,213.211z"/>
	</g>
	<polygon fill="#D7D5CD" points="524.662,228.519 527.297,293.075 590.869,242.481 598.041,183.105 	"/>
	<polygon fill="#EAE9E5" points="524.662,228.519 527.297,293.075 327.656,223.004 325.662,169.031 	"/>
</g>
<g>
	<g>
		<path fill="#D7D5CD" d="M298.163,182.206c0,9.941-13.5,27.816-53.5,34.316c-42.627,6.927-53.499-4.742-53.499-14.684
			s23.952-22.395,53.499-27.816C274.209,168.602,298.163,172.266,298.163,182.206z"/>
		<path fill="#F7F6F5" d="M298.163,182.206c0,9.941-23.953,22.395-53.5,27.816s-53.499,1.758-53.499-8.184
			s23.952-22.395,53.499-27.816C274.209,168.602,298.163,172.266,298.163,182.206z"/>
		<path fill="#ECEBE8" d="M283.663,186.233c0,6.875-16.564,15.488-37,19.238c-20.434,3.748-37,1.215-37-5.66
			s16.566-15.488,37-19.237C267.098,176.825,283.663,179.358,283.663,186.233z"/>
	</g>
	<g>
		<g>
			<g>
				<path fill="#888886" d="M233.663,169.416c-2.24,0-4.055,0.513-4.055,1.146v8.279c0,0.632,1.814,1.145,4.055,1.145
					s4.057-0.513,4.057-1.145v-8.279C237.719,169.929,235.903,169.416,233.663,169.416z"/>
			</g>
			<path fill="#777775" d="M233.053,169.434c-1.947,0.084-3.445,0.555-3.445,1.128v8.279c0,0.573,1.498,1.043,3.445,1.128V169.434z"
				/>
			<ellipse fill="#9F9F9D" cx="233.664" cy="170.562" rx="4.056" ry="1.145"/>
		</g>
		<g>
			<g>
				<path fill="#888886" d="M247.016,176.413c-1.299,0-2.354,0.297-2.354,0.663v2.564c0,0.365,1.055,0.663,2.354,0.663
					s2.352-0.298,2.352-0.663v-2.564C249.368,176.71,248.315,176.413,247.016,176.413z"/>
			</g>
			<path fill="#777775" d="M246.663,176.423c-1.129,0.049-2,0.321-2,0.653v2.564c0,0.331,0.871,0.604,2,0.652V176.423z"/>
			<ellipse fill="#9F9F9D" cx="247.015" cy="177.076" rx="2.353" ry="0.664"/>
		</g>
		<path fill="#939491" d="M247.442,163.165c-2.445-0.062-17.834,5.499-17.834,7.396c0,1.109,3.928,1.796,5.889,0.955
			c1.961-0.842,11.559-6.009,12.719-6.581S249.889,163.228,247.442,163.165z"/>
		<path fill="#939491" d="M248.725,175.612c-2.477-0.626-10.439-2.65-12.33-3.06c-1.539,0.409-1.662,3.602-0.539,4.41
			c0,0,10.008,2.52,12.359,1.878C249.463,178.5,251.202,176.239,248.725,175.612z"/>
	</g>
</g>
<g>
	<g>
		<g>
			<g>
				<path fill="#6C94B2" d="M340.711,289.048c0-6.775-11.4-12.268-25.463-12.268c-14.064,0-25.464,5.492-25.464,12.268
					c0,0.614,0.098,1.217,0.277,1.807l6.377,31.193c0,5.006,8.419,9.062,18.81,9.062c10.387,0,18.809-4.056,18.809-9.062
					l6.377-31.193C340.615,290.265,340.711,289.662,340.711,289.048z"/>
			</g>
			<ellipse fill="#76A2BE" cx="315.247" cy="289.048" rx="25.464" ry="12.268"/>
			<ellipse fill="#4E7094" cx="315.247" cy="288.276" rx="23.641" ry="11.047"/>
			<path fill="#577A9D" d="M315.248,299.323c9.074,0,16.951-2.391,20.914-5.897c-3.326-3.874-11.434-6.612-20.914-6.612
				c-9.482,0-17.589,2.738-20.916,6.612C298.295,296.933,306.172,299.323,315.248,299.323z"/>
		</g>
		<path fill="#888886" d="M340.434,291.854c-0.002,0-0.004,0-0.008,0c-0.551-0.004-0.996-0.454-0.992-1.006
			c0.098-13.982-8.254-25.099-19.859-26.432c-12.402-1.426-23.435,6.66-25.115,18.412c-0.078,0.547-0.59,0.923-1.131,0.848
			c-0.547-0.078-0.927-0.584-0.849-1.131c1.833-12.831,13.831-21.666,27.323-20.117c12.639,1.453,21.736,13.411,21.631,28.434
			C341.43,291.412,340.982,291.854,340.434,291.854z"/>
	</g>
	<path fill="#E1CC6C" d="M419.738,276.224l7.697,16.902c1.898-5.157,2.355-11.65,2.15-17.041
		c-0.227-5.982-1.582-12.506,3.602-13.627c7.178-1.554,5.758,6.004,3.666,10.915c-0.023,0.052,5.873-2.991,6.127-4.313
		c0.748-3.887-0.75-8.797-6.861-12.088C423.941,250.411,419.738,276.224,419.738,276.224z"/>
	<g>
		<g>
			<path fill="#7A574A" d="M397.85,334.411c-1.75,0.292-5.785,0.852-7.254-0.035c-3.164-1.911,1.887-4.182,4.453-5.011
				C401.637,327.233,405.656,333.101,397.85,334.411z"/>
			<path fill="#7A574A" d="M357.002,330.999c-1.764,0.181-5.83,0.493-7.238-0.486c-3.039-2.1,2.141-4.053,4.756-4.724
				C361.227,324.07,364.875,330.175,357.002,330.999z"/>
		</g>
		<g>
			<g>
				<path fill="#7A574A" d="M373.805,274.938c-9.721,0-21.094-1.213-26.646-4.473c0.398,15.407,2.852,35.311,6.348,53.582
					l6.965,0.263c4.723-16.049,11.111-27.868,17.555-35.612c3.01,14.158,8.855,25.979,16.93,38.779l6.354,0.143
					c0.762-17.501,7.506-40.047,7.627-60.037C402.748,272.602,387.84,274.938,373.805,274.938z"/>
			</g>
		</g>
		<g>
			<path fill="#7A574A" d="M423.33,252.556l6.953-3.451c-8.855-22.166-30.889-45.702-46.895-48.328
				c-1.963-0.321-3.799-0.624-5.533-0.895c-5.832,6.396-12.838,9.949-16.439,10.751c-0.412,0.092-0.865,0.138-1.348,0.138
				c-3.096,0-7.475-1.868-11.738-5.79c-12.107,9.471-19.887,24.331-26.412,47.998l6.518,1.624
				c7.299-19.043,16.125-27.078,16.125-27.078s2.416,15.953,0.168,37.829c-1.256,12.216,65.816,11.545,66.168-2.979
				c0.346-14.241-13.512-38.681-13.512-38.681S412.836,233.606,423.33,252.556z"/>
		</g>
		<g>
			<path fill="#7A574A" d="M386.916,168.762c-2.742-9.993-7.803-12.735-13.33-15.183c-4.59-2.031-8.303-2.831-14.588-2.095
				c-6.197,0.726-12.311,3.098-17.141,7.064c-5.447,4.472-9.002,12.528-8.006,21.857c1.645,15.38,10.061,19.867,10.061,19.867
				c-2.25-3.14-4.299-6.974-5.879-11.579c-1.961-5.706-1.072-14.689,1.906-21.329c1.822,1.713,7.207,2.377,10.318,2.027
				c5.828-0.656,12.674,0.244,16.127,3.697c6.215,6.215,2.549,18.886,10.742,25.019c5.15,3.854,15.77-0.395,15.77-0.395
				s-3.113-3.983-3.695-7.956C388.412,184.368,389.799,179.282,386.916,168.762z"/>
			<g>
				<path fill="#A1856E" d="M338.979,167.935c-1.492,3.62-2.227,7.674-1.949,11.967c0.203-4.204,1.201-8.671,2.857-12.413
					C339.582,167.636,339.277,167.783,338.979,167.935z"/>
				<path fill="#7A574A" d="M376.527,198.909c-4.748-3.555-5.748-9-6.713-14.267c-0.775-4.225-1.506-8.216-4.137-10.846
					c-2.291-2.29-6.617-3.604-11.869-3.604c-1.146,0-2.303,0.064-3.438,0.192c-0.57,0.064-1.207,0.097-1.891,0.097
					c-2.092,0-5.787-0.357-8.098-1.599c-2.547,6.389-3.152,14.397-1.402,19.486c0.703,2.052,1.529,4.006,2.459,5.857
					c0.07,0.131,0.137,0.265,0.205,0.393c0.115,0.223,0.244,0.432,0.361,0.65c6.277,11.187,15.264,15.26,19.193,14.387
					c3.764-0.838,10.41-4.451,15.861-10.391C376.877,199.153,376.697,199.036,376.527,198.909z M343.301,189.188
					c-0.795,0.157-1.74-1.152-2.096-2.936c-0.354-1.78,0.01-3.354,0.809-3.517c0.801-0.159,1.74,1.154,2.098,2.937
					C344.465,187.455,344.104,189.026,343.301,189.188z M354.359,187.529c-0.91,0.18-1.932-1.085-2.279-2.829
					c-0.352-1.748,0.107-3.308,1.018-3.492c0.908-0.181,1.932,1.086,2.283,2.829C355.727,185.783,355.273,187.346,354.359,187.529z"
					/>
			</g>
		</g>
	</g>
	<path fill="#4AA191" d="M326.174,239.337c-0.627,3.536,6.219,5.025,7.256,4.141c0.604,0.985,0.109,2.436-0.996,3.99
		c-1.221,1.715-2.125,3.238-2.941,5.197c-1.201,2.875-2.254,4.601-1.508,7.582c0.326,1.309,0.852,3.248-0.486,4.203
		c-1.893,1.35-1.752-0.803-2.975-1.43c-1.818-0.931-1.246,1.542-1.373,2.773c-0.121,1.143-0.625,2.49-1.438,3.404
		c-2.936,3.314-5.602,0.498-6.479-2.766c-1.738-6.463,3.779-10.324,5.961-15.644c1.52-3.704,2.65-10.679,3.57-11.136
		C325.686,239.194,326.174,239.337,326.174,239.337z"/>
	<path fill="#4AA191" d="M417.166,243.025c2.191-0.29,7.861-2.542,8.424-3.706c0.635-0.104,1.111-0.012,2.064,0.523
		c0.672,0.377,0.598,2.578,0.949,3.256c0.545,1.043,1.189,2.076,1.643,3.154c0.572,1.361,0.467,2.778,0.941,4.113
		c0.607,1.709,1.752,1.477,3.037,2.496c2.082,1.649,3.057,4.846,2.811,7.402c-0.244,2.518-1.561,8.146-5.404,6.95
		c-4.021-1.251-0.523-9.413-3.938-8.376c-1.676,0.51-2.498,3.139-3.773,2.251c-1.102-0.767-0.125-3.3-0.375-4.981
		c-0.227-1.52-1.139-2.799-1.857-4.145c-1.518-2.838-5.098-7.084-4.881-7.78C417.021,243.486,417.166,243.025,417.166,243.025z"/>
</g>
<polygon fill="#939491" points="269.536,145.755 266.536,92.486 264.536,91.486 189.164,109.232 195.831,166.527 197.831,167.527 
	"/>
<polygon fill="#B5B6B3" points="269.536,145.755 197.831,167.527 191.164,110.232 266.536,92.486 "/>
</svg>
