<?xml version="1.0" encoding="utf-8"?>
<!-- Generator: Adobe Illustrator 15.0.2, SVG Export Plug-In . SVG Version: 6.00 Build 0)  -->
<!DOCTYPE svg PUBLIC "-//W3C//DTD SVG 1.1//EN" "http://www.w3.org/Graphics/SVG/1.1/DTD/svg11.dtd">
<svg version="1.1" id="Layer_1" xmlns="http://www.w3.org/2000/svg" xmlns:xlink="http://www.w3.org/1999/xlink" x="0px" y="0px"
	 width="720px" height="460px" viewBox="0 0 720 460" enable-background="new 0 0 720 460" xml:space="preserve">
<g>
	<g>
		<polygon fill="#C7C4BA" points="383.915,121.596 607.718,225.824 282.688,456.959 90.046,209.012 		"/>
		<polygon fill="#E6A58F" points="386.288,133.91 607.718,225.824 629.954,52.23 381.032,3.042 		"/>
		<g>
			<polygon fill="#E0D3B5" points="347.903,70.227 351.886,145.807 521.005,247.049 579.241,210.074 589.575,109.571 
				397.062,61.209 			"/>
			<polygon fill="#E9E0CA" points="347.903,70.227 351.886,145.807 521.005,247.049 524.526,132.78 			"/>
			<g>
				<polygon fill="#C0B294" points="339.403,63.896 391.757,54.199 598.075,106.24 596.075,116.059 531.673,148.258 340.403,71.714 
									"/>
				<polygon fill="#D6C9AC" points="339.403,63.896 531.673,135.439 598.075,106.24 391.757,54.199 				"/>
			</g>
			<g>
				<polygon fill="#AAABA8" points="470.741,108.401 515.31,88.96 443.993,69.52 401.38,82.967 				"/>
				<g>
					<path fill="#9F9F9D" d="M467.523,102.986c1.039,0.359,2.719,0.304,3.731-0.125l31.053-13.123
						c1.013-0.428,0.976-1.022-0.083-1.321l-57.496-16.211c-1.059-0.299-2.771-0.239-3.808,0.132l-28.547,10.245
						c-1.036,0.371-1.032,0.97,0.007,1.329L467.523,102.986z"/>
				</g>
				<path fill="#939491" d="M412.233,82.811l29.051-10.358c0.854-0.302,2.266-0.352,3.139-0.11l2.52,0.548v22.361l-34.74-11.262
					C411.366,83.643,411.38,83.113,412.233,82.811z"/>
			</g>
		</g>
	</g>
</g>
<g>
	<g>
		<g>
			<path fill="#7A574A" d="M322.369,193.293c0.789,1.445,1.797,2.859,3.457,1.744c1.471-0.984,1.199-2.6,1.391-4.092
				c0.16-1.252,0.404-2.773,1.623-3.414c1.311-0.69,2.719,0.347,4.082,0.265c0.52-1.274,0.035-2.694-0.578-3.872
				c-1.062-2.046-2.904-2.799-4.957-2.224C322.949,182.939,320.105,189.156,322.369,193.293z"/>
			<g>
				<path fill="#9E6856" d="M337.871,191.436c-1.33-1.292-4.38-2.407-7.62-3.095c-0.138-0.022-0.278-0.048-0.403-0.048
					c-0.21,0-0.383,0.039-0.542,0.123c-0.749,0.394-0.952,1.528-1.097,2.657c-0.037,0.291-0.055,0.586-0.073,0.881
					c-0.079,1.275-0.179,2.861-1.751,3.914c-0.564,0.379-1.135,0.57-1.695,0.57c-1.742,0-2.725-1.801-3.197-2.664
					c-0.73-1.336-1.024-2.897-0.887-4.516c-1.549,2.483-2.768,6.686-2.51,9.559c2.477,2.504,11.16,6.268,16.607,5.291
					C337.111,199.836,338.096,195.775,337.871,191.436z"/>
			</g>
		</g>
		<path fill="#7A574A" d="M405.428,263.939c-1.779,0.346-5.889,1.027-7.414,0.162c-3.285-1.869,1.814-4.324,4.416-5.242
			C409.104,256.502,413.369,262.389,405.428,263.939z"/>
		<path fill="#7A574A" d="M366.719,260.287c-1.799,0.232-5.945,0.662-7.41-0.301c-3.162-2.062,2.078-4.199,4.732-4.955
			C370.846,253.094,374.74,259.232,366.719,260.287z"/>
	</g>
	<g>
		<g>
			<path fill="#7A574A" d="M413.885,198.609c-5.075,4.826-18.156,5.371-23.66,5.371c-13.264,0-32.261-2.992-37.435-9.354
				c-0.011,0.172-0.024,0.348-0.024,0.518c-0.002,19.854,2.895,38.102,10.191,58.135l7.123,0.08
				c1.121-14.645,7.479-27.504,13.852-35.592c3.459,14.385,9.754,26.305,18.35,39.166l6.498-0.027
				C407.695,235.457,413.521,217.182,413.885,198.609z"/>
		</g>
	</g>
	<g>
		<path fill="#8BA3BB" d="M443.168,199c4.305,0,30.107,7.1,31.283,9.871c1.369,3.225-6.838,17.719-9.59,20.854
			c-1.576,1.795-30.492,21.508-34.029,21.441c-2.971-0.057-20.945-10.441-22.154-12.043c-1.42-1.877-8.387-16.557-7.547-19.291
			C401.973,217.1,438.703,199,443.168,199z"/>
		<path fill="#7E99B4" d="M401.465,222.73c1.404,5.221,6.078,14.895,7.213,16.393c1.209,1.602,19.184,11.986,22.154,12.043
			c3.537,0.066,32.453-19.646,34.029-21.441c2.051-2.334,7.121-10.965,9.012-16.553c-12.645,8.057-37.482,22.363-43.352,23.85
			C426.154,238.127,406.863,228.953,401.465,222.73z"/>
		<path fill="#6C88A6" d="M403.402,220.586c0.861-3.432,36.709-20.475,39.35-20.477c3.768-0.002,28.994,7.156,29.727,9.977
			s-37.125,23.713-41.682,24.402C426.238,235.178,402.541,224.018,403.402,220.586z"/>
	</g>
	<g>
		<path fill="#7A574A" d="M442.592,192.449c-1.385-0.072-2.695-0.666-4.102-0.508c-1.068,0.119-3.303,1.275-2.061,2.676
			c0.355,0.402,0.732,0.355,1.014,0.947c0.525,1.105-0.24,1.846-1.344,1.943c-1.459,0.129-2.695-0.955-3.43-2.121
			c-1.119-1.781-0.264-4.627,0.848-6.221c1.32-1.894,3.242-2.402,5.203-1.568c1.281,0.545,4.654,3.169,3.961,4.856
			C442.652,192.451,442.623,192.451,442.592,192.449z"/>
		<g>
			<path fill="#577A9D" d="M431.158,193.758c-0.889,0.311-1.766,0.668-2.605,1.123c-4.812,2.607-8.055,7.166-8.897,12.508
				c-0.086,0.545,0.286,1.057,0.832,1.143c0.541,0.09,1.058-0.285,1.144-0.832c0.744-4.721,3.615-8.752,7.875-11.061
				c0.707-0.383,1.443-0.688,2.189-0.955C431.371,195.084,431.203,194.43,431.158,193.758z"/>
			<path fill="#577A9D" d="M443.889,194.195c-1.061-0.475-2.17-0.812-3.299-1.055c-0.561-0.119-1.096-0.227-1.611-0.227
				c-0.125,0-0.25,0.006-0.377,0.02c-0.659,0.074-1.49,0.613-1.537,0.846c0,0,0.012,0.061,0.115,0.176
				c0.039,0.045,0.084,0.074,0.201,0.145c0.209,0.129,0.5,0.314,0.76,0.688c1.698,0.129,3.369,0.533,4.931,1.232
				c10.751,4.816,14.261,19.701,13.32,28.732c-0.058,0.549,0.342,1.041,0.892,1.098c0.035,0.004,0.07,0.006,0.104,0.006
				c0.506,0,0.94-0.383,0.994-0.896C459.553,213.719,454.871,199.115,443.889,194.195z"/>
		</g>
	</g>
	<g>
		<path fill="#7A574A" d="M410.846,101.938c-0.273-10.423-4.555-14.321-9.365-18.044c-3.994-3.089-7.43-4.765-13.746-5.56
			c-6.229-0.783-12.773,0.062-18.449,2.773c-6.396,3.057-11.812,10.071-13.084,19.425c-2.098,15.422,5.043,21.832,5.043,21.832
			c-1.443-3.609-2.52-7.847-2.955-12.728c-0.539-6.047,2.492-14.61,6.998-20.378c1.369,2.111,6.469,4.058,9.594,4.465
			c5.85,0.763,12.322,3.292,14.863,7.497c4.576,7.568-2.059,19.063,4.469,27.028c4.104,5.006,15.502,3.414,15.502,3.414
			s-2.084-4.641-1.693-8.662C408.549,117.544,411.127,112.91,410.846,101.938z"/>
		<path fill="#7A574A" d="M431.33,187.369l7.373-2.934c-6.664-21.691-23.11-45.532-38.319-51.993
			c-1.428-0.275-2.825-0.699-4.071-1.332c-0.805-0.201-1.593-0.397-2.357-0.587c-6.895,4.465-14.078,6.175-17.826,6.175
			c-0.096,0-0.188-0.001-0.28-0.003c-2.685-0.062-6.596-2.367-10.085-6.839c-1.054,0.489-2.119,1.043-3.219,1.709
			c-14.018,8.492-25.576,23.206-34.562,47.744l6.504,2.201c9.029-18.789,25.236-28.522,25.236-28.522s-8.611,20.077-7.275,38.446
			c0.912,12.52,63.76,17.088,62.49,2.291c-1.471-17.133-5.623-37.93-5.623-37.93S422.227,167.185,431.33,187.369z"/>
		<g>
			<path fill="#7A574A" d="M364.213,89.583c-2.331,3.179-4.025,6.965-4.787,11.228c1.211-4.06,3.262-8.187,5.783-11.445
				C364.875,89.437,364.541,89.507,364.213,89.583z"/>
			<path fill="#7A574A" d="M393.439,128.882c-3.781-4.614-3.445-10.173-3.121-15.549c0.262-4.315,0.508-8.391-1.43-11.596
				c-2.508-4.149-9.183-6.376-14.137-7.022c-2.729-0.356-7.164-1.871-9.396-3.879c-4.029,5.63-6.553,13.315-6.071,18.711
				c0.185,2.066,0.505,4.066,0.933,6.004c3.208,13.418,11.447,20.046,15.653,20.144c3.88,0.087,11.248-1.842,18.006-6.335
				C393.727,129.206,393.577,129.05,393.439,128.882z M364.953,108.147c-0.082,1.827-0.814,3.275-1.635,3.239
				c-0.816-0.037-1.424-1.544-1.34-3.372c0.08-1.825,0.814-3.275,1.635-3.241C364.434,104.811,365.037,106.321,364.953,108.147z
				 M374.518,112.43c-0.93-0.042-1.625-1.525-1.543-3.313c0.078-1.792,0.9-3.205,1.836-3.166c0.93,0.042,1.625,1.526,1.547,3.314
				C376.275,111.054,375.455,112.471,374.518,112.43z"/>
		</g>
	</g>
</g>
<g>
	<polygon fill="#A15A34" points="352.046,258.758 212.968,153.714 120.045,177.437 120.045,186.437 131.65,199.887 131.65,251.389 
		137.074,257.303 144.219,253.465 144.219,214.451 242.946,328.865 246.202,327.07 246.202,392.85 252.37,399.574 260.495,395.211 
		260.495,319.197 327.505,282.279 327.505,334.859 333.671,341.584 341.796,337.223 341.796,274.404 352.046,268.758 	"/>
	<polygon fill="#AB6C4A" points="242.946,315.865 120.045,177.437 212.968,153.714 352.046,258.758 	"/>
</g>
<g>
	<path fill="#8C4D37" d="M230.263,198.84c0,14.455-14.094,26.174-31.479,26.174c-17.384,0-31.478-11.719-31.478-26.174
		c0-6.293,14.094-13.6,31.478-13.6C216.169,185.24,230.263,192.547,230.263,198.84z"/>
	<ellipse fill="#B68D7F" cx="198.785" cy="198.84" rx="31.478" ry="17.271"/>
	<ellipse fill="#9E6856" cx="198.785" cy="198.84" rx="29.08" ry="15.955"/>
</g>
<g>
	<defs>
		<ellipse id="SVGID_1_" cx="198.785" cy="198.84" rx="29.08" ry="15.955"/>
	</defs>
	<clipPath id="SVGID_2_">
		<use xlink:href="#SVGID_1_"  overflow="visible"/>
	</clipPath>
	<g clip-path="url(#SVGID_2_)">
		<path fill="#BABE73" d="M220.378,198.432c-1.123,4.367-6.006,6.885-10.906,5.623c-4.9-1.26-7.965-5.82-6.842-10.186
			c1.121-4.369,6.9-8.702,10.906-5.625C219.532,187.739,221.501,194.064,220.378,198.432z"/>
		<path fill="#C1C56C" d="M225.851,202.469c0,5.02-4.566,9.088-10.199,9.088s-10.199-4.068-10.199-9.088
			c0-5.018,5.029-11.293,10.199-9.086C221.976,191.176,225.851,197.451,225.851,202.469z"/>
		<path fill="#C1C56C" d="M189.332,193.209c2.135,3.434,0.74,8.158-3.113,10.553c-3.854,2.396-8.707,1.555-10.842-1.877
			c-2.133-3.434-1.361-9.865,3.113-10.555C181.879,187.131,187.197,189.776,189.332,193.209z"/>
		<path fill="#B5BA69" d="M205.401,200.5c-0.807,5.445-6.416,9.125-12.526,8.219c-6.113-0.904-10.414-6.053-9.607-11.5
			c0.807-5.443,7.271-11.444,12.528-8.219C203.013,187.623,206.208,195.055,205.401,200.5z"/>
		<path fill="#C3C872" d="M200.005,204.475c4.172,3.592,4.285,10.299,0.252,14.982c-4.031,4.682-10.683,5.566-14.853,1.973
			c-4.172-3.592-5.787-12.264-0.254-14.982C187.844,199.611,195.835,200.883,200.005,204.475z"/>
		<path fill="#B7BC6D" d="M222.411,211.727c0,5.506-5.01,9.967-11.188,9.967c-6.18,0-11.188-4.461-11.188-9.967
			c0-5.504,5.516-12.387,11.188-9.967C218.161,199.34,222.411,206.223,222.411,211.727z"/>
		<path fill="#ADB35A" d="M203.411,205.062c-4.484,0.479-8.554-3.213-9.091-8.244c-0.535-5.031,2.663-9.499,7.147-9.977
			c4.482-0.479,10.566,3.416,9.088,8.245C213.13,200.525,207.894,204.586,203.411,205.062z"/>
		<path fill="#AFB55E" d="M181.592,213.283c-4.484,0.477-8.553-3.213-9.09-8.246c-0.535-5.031,2.662-9.498,7.146-9.977
			c4.482-0.479,10.566,3.416,9.088,8.246C191.311,208.744,186.074,212.805,181.592,213.283z"/>
	</g>
</g>
</svg>
