<?xml version="1.0" encoding="utf-8"?>
<!-- Generator: Adobe Illustrator 15.0.2, SVG Export Plug-In . SVG Version: 6.00 Build 0)  -->
<!DOCTYPE svg PUBLIC "-//W3C//DTD SVG 1.1//EN" "http://www.w3.org/Graphics/SVG/1.1/DTD/svg11.dtd">
<svg version="1.1" id="Layer_1" xmlns="http://www.w3.org/2000/svg" xmlns:xlink="http://www.w3.org/1999/xlink" x="0px" y="0px"
	 width="720px" height="460px" viewBox="0 0 720 460" enable-background="new 0 0 720 460" xml:space="preserve">
<g>
	<g>
		<polygon fill="#C7C4BA" points="383.915,121.596 607.718,225.824 282.688,456.959 90.046,209.012 		"/>
		<polygon fill="#E6A58F" points="386.288,133.91 607.718,225.824 629.954,52.23 381.032,3.042 		"/>
		<g>
			<polygon fill="#E0D3B5" points="347.903,70.227 351.886,145.807 521.005,247.049 579.241,210.074 589.575,109.571 
				397.062,61.209 			"/>
			<polygon fill="#E9E0CA" points="347.903,70.227 351.886,145.807 521.005,247.049 524.526,132.78 			"/>
			<g>
				<polygon fill="#C0B294" points="339.403,63.896 391.757,54.199 598.075,106.24 596.075,116.059 531.673,148.258 340.403,71.714 
									"/>
				<polygon fill="#D6C9AC" points="339.403,63.896 531.673,135.439 598.075,106.24 391.757,54.199 				"/>
			</g>
			<g>
				<polygon fill="#AAABA8" points="470.741,108.401 515.31,88.96 443.993,69.52 401.38,82.967 				"/>
				<g>
					<path fill="#9F9F9D" d="M467.523,102.986c1.039,0.359,2.719,0.304,3.731-0.125l31.053-13.123
						c1.013-0.428,0.976-1.022-0.083-1.321l-57.496-16.211c-1.059-0.299-2.771-0.239-3.808,0.132l-28.547,10.245
						c-1.036,0.371-1.032,0.97,0.007,1.329L467.523,102.986z"/>
				</g>
				<path fill="#939491" d="M412.233,82.811l29.051-10.358c0.854-0.302,2.266-0.352,3.139-0.11l2.52,0.548v22.361l-34.74-11.262
					C411.366,83.643,411.38,83.113,412.233,82.811z"/>
			</g>
		</g>
	</g>
</g>
<g>
	<g>
		<g>
			<path fill="#A1856E" d="M351.702,189.959c0.789,1.445,1.797,2.859,3.457,1.744c1.471-0.983,1.199-2.6,1.391-4.091
				c0.16-1.252,0.404-2.774,1.623-3.415c1.311-0.69,2.719,0.347,4.082,0.265c0.52-1.275,0.035-2.694-0.578-3.872
				c-1.062-2.046-2.904-2.799-4.957-2.224C352.282,179.605,349.438,185.823,351.702,189.959z"/>
			<g>
				<path fill="#9E6856" d="M367.204,188.102c-1.33-1.292-4.38-2.407-7.62-3.095c-0.138-0.022-0.278-0.048-0.403-0.048
					c-0.21,0-0.383,0.039-0.542,0.124c-0.749,0.394-0.952,1.528-1.097,2.657c-0.037,0.29-0.055,0.585-0.073,0.879
					c-0.079,1.275-0.179,2.864-1.751,3.915c-0.564,0.379-1.135,0.57-1.695,0.57c-1.742,0-2.725-1.799-3.197-2.665
					c-0.73-1.335-1.024-2.896-0.887-4.515c-1.549,2.482-2.768,6.685-2.51,9.558c2.477,2.504,11.16,6.268,16.607,5.293
					C366.444,196.502,367.429,192.443,367.204,188.102z"/>
			</g>
		</g>
		<path fill="#A1856E" d="M434.761,260.605c-1.779,0.348-5.889,1.027-7.414,0.162c-3.285-1.867,1.814-4.324,4.416-5.242
			C438.437,253.17,442.702,259.055,434.761,260.605z"/>
		<path fill="#A1856E" d="M396.052,256.953c-1.799,0.234-5.945,0.664-7.41-0.299c-3.162-2.064,2.078-4.201,4.732-4.957
			C400.179,249.76,404.073,255.898,396.052,256.953z"/>
	</g>
	<g>
		<g>
			<path fill="#A1856E" d="M443.218,195.275c-5.075,4.828-18.156,5.373-23.66,5.373c-13.264,0-32.261-2.994-37.435-9.355
				c-0.011,0.174-0.024,0.348-0.024,0.518c-0.002,19.855,2.895,38.102,10.191,58.135l7.123,0.08
				c1.121-14.643,7.479-27.504,13.852-35.592c3.459,14.387,9.754,26.305,18.35,39.166l6.498-0.025
				C437.028,232.123,442.854,213.848,443.218,195.275z"/>
		</g>
	</g>
	<g>
		<path fill="#8BA3BB" d="M472.501,195.668c4.305,0,30.107,7.098,31.283,9.869c1.369,3.225-6.838,17.719-9.59,20.854
			c-1.576,1.795-30.492,21.508-34.029,21.441c-2.971-0.055-20.945-10.439-22.154-12.041c-1.42-1.877-8.387-16.559-7.547-19.293
			C431.306,213.766,468.036,195.668,472.501,195.668z"/>
		<path fill="#7E99B4" d="M430.798,219.396c1.404,5.223,6.078,14.895,7.213,16.395c1.209,1.602,19.184,11.986,22.154,12.041
			c3.537,0.066,32.453-19.646,34.029-21.441c2.051-2.334,7.121-10.965,9.012-16.553c-12.645,8.057-37.482,22.363-43.352,23.85
			C455.487,234.793,436.196,225.619,430.798,219.396z"/>
		<path fill="#6C88A6" d="M432.735,217.252c0.861-3.432,36.709-20.475,39.35-20.477c3.768,0,28.994,7.156,29.727,9.977
			s-37.125,23.715-41.682,24.402C455.571,231.844,431.874,220.684,432.735,217.252z"/>
	</g>
	<g>
		<path fill="#A1856E" d="M471.925,189.115c-1.385-0.073-2.695-0.667-4.102-0.508c-1.068,0.12-3.303,1.276-2.061,2.676
			c0.355,0.404,0.732,0.355,1.014,0.947c0.525,1.105-0.24,1.846-1.344,1.943c-1.459,0.131-2.695-0.955-3.43-2.121
			c-1.119-1.78-0.264-4.627,0.848-6.221c1.32-1.893,3.242-2.401,5.203-1.568c1.281,0.545,4.654,3.169,3.961,4.855
			C471.985,189.118,471.956,189.117,471.925,189.115z"/>
		<g>
			<path fill="#577A9D" d="M460.491,190.424c-0.889,0.311-1.766,0.667-2.605,1.123c-4.812,2.607-8.055,7.166-8.897,12.508
				c-0.086,0.545,0.286,1.059,0.832,1.145c0.541,0.088,1.058-0.287,1.144-0.832c0.744-4.723,3.615-8.754,7.875-11.062
				c0.707-0.383,1.443-0.688,2.189-0.955C460.704,191.75,460.536,191.096,460.491,190.424z"/>
			<path fill="#577A9D" d="M473.222,190.861c-1.061-0.475-2.17-0.812-3.299-1.055c-0.561-0.118-1.096-0.226-1.611-0.226
				c-0.125,0-0.25,0.006-0.377,0.021c-0.659,0.074-1.49,0.613-1.537,0.845c0,0,0.012,0.06,0.115,0.177
				c0.039,0.043,0.084,0.072,0.201,0.145c0.209,0.128,0.5,0.315,0.76,0.686c1.698,0.129,3.369,0.535,4.931,1.234
				c10.751,4.816,14.261,19.701,13.32,28.73c-0.058,0.551,0.342,1.041,0.892,1.1c0.035,0.002,0.07,0.004,0.104,0.004
				c0.506,0,0.94-0.381,0.994-0.896C488.886,210.385,484.204,195.781,473.222,190.861z"/>
		</g>
	</g>
	<g>
		<path fill="#A1856E" d="M440.179,98.604c-0.273-10.423-4.555-14.321-9.365-18.044c-3.994-3.089-7.43-4.765-13.746-5.56
			c-6.229-0.783-12.773,0.062-18.449,2.773c-6.396,3.057-11.812,10.071-13.084,19.425c-2.098,15.422,5.043,21.832,5.043,21.832
			c-1.443-3.609-2.52-7.847-2.955-12.728c-0.539-6.047,2.492-14.61,6.998-20.378c1.369,2.111,6.469,4.058,9.594,4.465
			c5.85,0.763,12.322,3.292,14.863,7.497c4.576,7.568-2.059,19.063,4.469,27.028c4.104,5.006,15.502,3.414,15.502,3.414
			s-2.084-4.641-1.693-8.662C437.882,114.211,440.46,109.576,440.179,98.604z"/>
		<path fill="#A1856E" d="M460.663,184.035l7.373-2.933c-6.664-21.691-23.11-45.532-38.319-51.994
			c-1.428-0.275-2.825-0.699-4.071-1.332c-0.805-0.201-1.593-0.397-2.357-0.587c-6.895,4.465-14.078,6.175-17.826,6.175
			c-0.096,0-0.188-0.001-0.28-0.003c-2.685-0.062-6.596-2.367-10.085-6.839c-1.054,0.489-2.119,1.043-3.219,1.709
			c-14.018,8.492-25.576,23.206-34.562,47.744l6.504,2.201c9.029-18.789,25.236-28.522,25.236-28.522s-8.611,20.077-7.275,38.446
			c0.912,12.52,63.76,17.088,62.49,2.292c-1.471-17.134-5.623-37.931-5.623-37.931S451.56,163.852,460.663,184.035z"/>
		<g>
			<path fill="#A1856E" d="M393.546,86.25c-2.331,3.179-4.025,6.965-4.787,11.228c1.211-4.06,3.262-8.187,5.783-11.445
				C394.208,86.103,393.874,86.173,393.546,86.25z"/>
			<path fill="#A1856E" d="M422.772,125.549c-3.781-4.614-3.445-10.173-3.121-15.549c0.262-4.315,0.508-8.391-1.43-11.596
				c-2.508-4.149-9.183-6.376-14.137-7.022c-2.729-0.356-7.164-1.871-9.396-3.879c-4.029,5.63-6.553,13.315-6.071,18.711
				c0.185,2.066,0.505,4.066,0.933,6.004c3.208,13.418,11.447,20.046,15.653,20.144c3.88,0.087,11.248-1.842,18.006-6.335
				C423.06,125.873,422.91,125.716,422.772,125.549z M394.286,104.814c-0.082,1.827-0.814,3.275-1.635,3.239
				c-0.816-0.037-1.424-1.544-1.34-3.372c0.08-1.825,0.814-3.275,1.635-3.241C393.767,101.478,394.37,102.987,394.286,104.814z
				 M403.851,109.097c-0.93-0.042-1.625-1.525-1.543-3.313c0.078-1.792,0.9-3.205,1.836-3.166c0.93,0.042,1.625,1.526,1.547,3.314
				C405.608,107.721,404.788,109.137,403.851,109.097z"/>
		</g>
	</g>
</g>
<g>
	<path fill="#C83B0C" d="M313.327,152.373c-0.457,1.096-1.072,2.187-2.348,1.512c-1.131-0.594-1.055-1.775-1.307-2.83
		c-0.318-1.352-0.799-2.32-1.652-2.362c-1.15-0.058-0.918,2.002-1.789,2.038c-0.693,0.03-0.934-0.836-1.107-1.623
		c-0.184-0.853,0.062-1.997,0.342-2.703c0.607-1.548,1.873-2.227,3.389-1.97C312.13,144.989,314.64,149.235,313.327,152.373z"/>
	<path fill="#C83B0C" d="M232.749,161.406c0.793,0.883,1.738,1.705,2.717,0.645c0.865-0.936,0.404-2.025,0.291-3.103
		c-0.148-1.381-0.018-2.455,0.773-2.777c1.066-0.437,1.533,1.582,2.363,1.327c0.664-0.202,0.604-1.099,0.506-1.898
		c-0.109-0.865-0.723-1.862-1.219-2.436c-1.09-1.258-2.508-1.478-3.85-0.732C231.423,154.043,230.468,158.883,232.749,161.406z"/>
	<path fill="#C83B0C" d="M261.321,206.098c1.289,0.215,4.266,0.627,5.35-0.025c2.33-1.41-1.393-3.084-3.285-3.695
		C258.528,200.805,255.565,205.131,261.321,206.098z"/>
	<path fill="#C83B0C" d="M287.614,203.582c1.301,0.133,4.299,0.363,5.336-0.359c2.242-1.547-1.578-2.988-3.506-3.482
		C284.501,198.475,281.812,202.975,287.614,203.582z"/>
	<g>
		<g>
			<path fill="#C83B0C" d="M270.233,163.888c-7.787,0-15.975-1.416-19.445-5.109c0.07,13.963,3.188,28.695,7.982,42.313l4.686-0.105
				c2.846-13.374,5.141-21.528,10.188-28.592c4.75,5.71,7.932,14.424,11.414,26.256l5.135-0.193
				c2.706-14.142,5.943-29.614,6.229-41.179C291.554,161.805,279.428,163.888,270.233,163.888z"/>
		</g>
	</g>
	<g>
		<path fill="#C83B0C" d="M304.712,144.271l5.242-1.516c-3.427-18.277-12.413-30.116-22.643-35.452
			c-2.496,3.244-5.279,5.005-7.297,5.164c-0.281,0.022-0.582,0.033-0.897,0.033c-3.638,0-9.325-1.431-14.543-4.518
			c-0.993,0.357-2.021,0.73-3.116,1.13c-11.236,4.094-23.977,24.162-27.354,41.433l5.51,1.547
			c5.008-15.166,14.844-24.461,14.844-24.461s-4.391,15.396-4.391,26.969c0,12.835,47.512,9.585,47.512-1.71
			c0-17.451-4.328-29.719-4.328-29.719S300.976,130.521,304.712,144.271z"/>
	</g>
	<g>
		<path fill="#C83B0C" d="M278.362,72.893c-4.666,0.873-8.074,5.958-9.156,8.303c-0.623,1.342-2.18,3.759-3.15,10.026
			c-0.725,4.685-1.115,14.303-1.133,14.396c-1.236-0.28-3.516-2.357-3.516-2.357l-1.332,6.274l-4.611-4.921l-0.805,3.313
			c0,0-4.895-10.567-5.154-19.396c-0.248-8.387,3.904-15.026,7.605-18.232c3.072-2.66,6.268-4.518,10.799-5.079
			c5.016-0.621,9.193,0.508,14.947,1.407c4.584,0.716,13.562,0.821,13.562,0.821l-6.631,3.233l5.979,4.67
			C295.767,75.35,285.474,71.562,278.362,72.893z"/>
		<path fill="#C83B0C" d="M292.237,76.109c-0.205-0.359-0.434-0.68-0.662-1c-0.805-0.215-1.709-0.431-2.66-0.634
			c2.984,4.164,4.482,9.177,4.3,14.594c-0.138,4.027-0.848,7.542-1.884,10.559l0.176,0.208l1.805-3.372l1.053,1.247
			C294.364,97.711,296.978,84.43,292.237,76.109z"/>
	</g>
	<path fill="#C83B0C" d="M287.472,74.187c-1.854-0.335-3.844-0.577-5.752-0.577c-1.16,0-2.229,0.09-3.173,0.267
		c-4.368,0.817-7.567,5.863-8.433,7.741c-0.088,0.189-0.193,0.399-0.313,0.637c-0.726,1.442-1.941,3.855-2.757,9.122
		c-0.408,2.64-0.775,7.261-1.093,13.735c-0.03,0.612-0.03,0.612-0.046,0.693l-0.191,1.019l-1.012-0.229
		c-0.537-0.122-1.172-0.473-1.781-0.876c6.211,4.419,13.48,6.027,17.016,5.752c3.908-0.307,11.783-7.874,12.279-22.434
		C292.415,83.082,290.524,78.03,287.472,74.187z M278.671,93.435c-0.752,0.075-1.473-1.028-1.619-2.461
		c-0.141-1.434,0.352-2.657,1.098-2.732c0.748-0.073,1.473,1.026,1.615,2.462C279.909,92.138,279.417,93.359,278.671,93.435z
		 M287.626,92.099c-0.658,0.064-1.311-1.067-1.461-2.53c-0.145-1.464,0.271-2.705,0.93-2.771c0.658-0.064,1.311,1.068,1.457,2.532
		C288.7,90.793,288.28,92.032,287.626,92.099z"/>
</g>
<g>
	<polygon fill="#A15A34" points="352.046,258.758 212.968,153.714 120.045,177.437 120.045,186.437 131.65,199.887 131.65,251.389 
		137.074,257.303 144.219,253.465 144.219,214.451 242.946,328.865 246.202,327.07 246.202,392.85 252.37,399.574 260.495,395.211 
		260.495,319.197 327.505,282.279 327.505,334.859 333.671,341.584 341.796,337.223 341.796,274.404 352.046,268.758 	"/>
	<polygon fill="#AB6C4A" points="242.946,315.865 120.045,177.437 212.968,153.714 352.046,258.758 	"/>
</g>
<g>
	<path fill="#8C4D37" d="M230.263,198.84c0,14.455-14.094,26.174-31.479,26.174c-17.384,0-31.478-11.719-31.478-26.174
		c0-6.293,14.094-13.6,31.478-13.6C216.169,185.24,230.263,192.547,230.263,198.84z"/>
	<ellipse fill="#B68D7F" cx="198.785" cy="198.84" rx="31.478" ry="17.271"/>
	<ellipse fill="#9E6856" cx="198.785" cy="198.84" rx="29.08" ry="15.955"/>
</g>
<g>
	<defs>
		<ellipse id="SVGID_1_" cx="198.785" cy="198.84" rx="29.08" ry="15.955"/>
	</defs>
	<clipPath id="SVGID_2_">
		<use xlink:href="#SVGID_1_"  overflow="visible"/>
	</clipPath>
	<g clip-path="url(#SVGID_2_)">
		<path fill="#BABE73" d="M220.378,198.432c-1.123,4.367-6.006,6.885-10.906,5.623c-4.9-1.26-7.965-5.82-6.842-10.186
			c1.121-4.369,6.9-8.702,10.906-5.626C219.532,187.739,221.501,194.064,220.378,198.432z"/>
		<path fill="#C1C56C" d="M225.851,202.469c0,5.02-4.566,9.088-10.199,9.088s-10.199-4.068-10.199-9.088
			c0-5.018,5.029-11.293,10.199-9.086C221.976,191.176,225.851,197.451,225.851,202.469z"/>
		<path fill="#C1C56C" d="M189.332,193.209c2.135,3.434,0.74,8.158-3.113,10.553c-3.854,2.396-8.707,1.555-10.842-1.877
			c-2.133-3.434-1.361-9.865,3.113-10.555C181.879,187.131,187.197,189.776,189.332,193.209z"/>
		<path fill="#B5BA69" d="M205.401,200.5c-0.807,5.445-6.416,9.125-12.526,8.219c-6.113-0.904-10.414-6.053-9.607-11.5
			c0.807-5.443,7.271-11.444,12.528-8.219C203.013,187.622,206.208,195.055,205.401,200.5z"/>
		<path fill="#C3C872" d="M200.005,204.475c4.172,3.592,4.285,10.299,0.252,14.982c-4.031,4.682-10.683,5.566-14.853,1.973
			c-4.172-3.592-5.787-12.264-0.254-14.982C187.844,199.611,195.835,200.883,200.005,204.475z"/>
		<path fill="#B7BC6D" d="M222.411,211.727c0,5.506-5.01,9.967-11.188,9.967c-6.18,0-11.188-4.461-11.188-9.967
			c0-5.504,5.516-12.387,11.188-9.967C218.161,199.34,222.411,206.223,222.411,211.727z"/>
		<path fill="#ADB35A" d="M203.411,205.062c-4.484,0.479-8.554-3.213-9.091-8.244c-0.535-5.031,2.663-9.499,7.147-9.977
			c4.482-0.479,10.566,3.416,9.088,8.245C213.13,200.525,207.894,204.586,203.411,205.062z"/>
		<path fill="#AFB55E" d="M181.592,213.283c-4.484,0.477-8.553-3.213-9.09-8.246c-0.535-5.031,2.662-9.498,7.146-9.977
			c4.482-0.479,10.566,3.416,9.088,8.246C191.311,208.744,186.074,212.805,181.592,213.283z"/>
	</g>
</g>
</svg>
