<?xml version="1.0" encoding="utf-8"?>
<!-- Generator: Adobe Illustrator 15.0.2, SVG Export Plug-In . SVG Version: 6.00 Build 0)  -->
<!DOCTYPE svg PUBLIC "-//W3C//DTD SVG 1.1//EN" "http://www.w3.org/Graphics/SVG/1.1/DTD/svg11.dtd">
<svg version="1.1" id="Layer_1" xmlns="http://www.w3.org/2000/svg" xmlns:xlink="http://www.w3.org/1999/xlink" x="0px" y="0px"
	 width="720px" height="460px" viewBox="0 0 720 460" enable-background="new 0 0 720 460" xml:space="preserve">
<polygon fill="#D3D4D2" points="592.607,394.268 132.015,394.268 111.515,35.781 608.484,35.781 "/>
<polygon fill="#F2EAD7" points="508.314,397.539 203.359,397.539 191.515,72.6 518.119,72.6 "/>
<rect x="214.769" y="94.604" fill="#DDEAF1" width="286.215" height="28.666"/>
<g>
	<rect x="218.039" y="151.791" fill="#F2EAD7" width="279.676" height="199.816"/>
	<rect x="214.769" y="115.25" fill="#D7B3AD" width="286.215" height="36.541"/>
	<rect x="242.484" y="170.768" fill="#E6DECC" width="21" height="30"/>
	<rect x="284.183" y="170.768" fill="#E6DECC" width="21" height="30"/>
	<rect x="325.885" y="170.768" fill="#E6DECC" width="21" height="30"/>
	<rect x="367.584" y="170.768" fill="#E6DECC" width="21" height="30"/>
	<rect x="409.283" y="170.768" fill="#E6DECC" width="21" height="30"/>
	<rect x="450.984" y="170.768" fill="#E6DECC" width="21" height="30"/>
	<rect x="242.484" y="218.176" fill="#E6DECC" width="21" height="30"/>
	<rect x="284.183" y="218.176" fill="#E6DECC" width="21" height="30"/>
	<rect x="325.885" y="218.176" fill="#E6DECC" width="21" height="30"/>
	<rect x="367.584" y="218.176" fill="#E6DECC" width="21" height="30"/>
	<rect x="409.283" y="218.176" fill="#E6DECC" width="21" height="30"/>
	<rect x="450.984" y="218.176" fill="#E6DECC" width="21" height="30"/>
	<rect x="242.484" y="266.09" fill="#E6DECC" width="21" height="30"/>
	<rect x="284.183" y="266.09" fill="#E6DECC" width="21" height="30"/>
	<rect x="325.885" y="266.09" fill="#E6DECC" width="21" height="30"/>
	<rect x="367.584" y="266.09" fill="#E6DECC" width="21" height="30"/>
	<rect x="409.283" y="266.09" fill="#E6DECC" width="21" height="30"/>
	<rect x="450.984" y="266.09" fill="#E6DECC" width="21" height="30"/>
	<rect x="242.484" y="313.529" fill="#E6DECC" width="21" height="30"/>
	<rect x="284.183" y="313.529" fill="#E6DECC" width="21" height="30"/>
	<rect x="325.885" y="313.529" fill="#E6DECC" width="21" height="30"/>
	<rect x="367.584" y="313.529" fill="#E6DECC" width="21" height="30"/>
	<rect x="409.283" y="313.529" fill="#E6DECC" width="21" height="30"/>
	<rect x="450.984" y="313.529" fill="#E6DECC" width="21" height="30"/>
</g>
<polygon fill="#B5B6B3" points="516.701,356.145 218.039,356.145 255.058,276.381 489.664,276.381 "/>
<polygon fill="#888886" points="495.439,264.59 495.363,267.59 256.666,267.59 256.666,264.59 "/>
<polygon fill="#888886" points="216.011,334.508 212.72,333.207 255.666,262.771 256.984,265.527 "/>
<polygon fill="#888886" points="255.482,207.076 218.685,250.555 218.685,259.275 257.347,211.797 497.059,211.797 497.166,207.076 
	"/>
<g>
	<g>
		<g>
			<path fill="#C08880" d="M422.316,282.447c0-2.938-7.357-5.32-16.432-5.32c-9.078,0-16.434,2.383-16.434,5.32
				c0,0.373,0,1.957,0.33,3.16c0.781,2.832,7.025,5.164,16.104,5.164c9.074,0,14.824-2.58,16.045-5.254
				C422.316,284.672,422.316,282.82,422.316,282.447z"/>
			<ellipse fill="#BF867D" cx="405.885" cy="282.447" rx="15.836" ry="5.127"/>
			<path fill="#B06A5E" d="M405.885,279.686c-7.488,0-13.744,1.686-15.396,3.945c1.652,2.26,7.908,3.943,15.396,3.943
				c7.484,0,13.742-1.684,15.395-3.943C419.627,281.371,413.369,279.686,405.885,279.686z"/>
		</g>
		<polygon fill="#C49087" points="419.783,283.268 391.984,283.268 386.484,252.834 425.283,252.834 		"/>
		<ellipse fill="#C49087" cx="405.884" cy="283.268" rx="13.899" ry="4.5"/>
		<path fill="#CA9B94" d="M425.283,252.834c0-3.469-8.686-6.279-19.398-6.279c-10.717,0-19.4,2.811-19.4,6.279
			c0,0.885,0.348,3.816,0.527,4.496c0.906,3.443,8.449,6.111,18.873,6.111c10.422,0,17.988-2.799,18.871-6.111
			C424.938,256.65,425.283,253.719,425.283,252.834z"/>
		<ellipse fill="#B06A5E" cx="405.884" cy="252.834" rx="17.53" ry="5.674"/>
		<path fill="#93776C" d="M405.885,249.322c-8.541,0-15.645,1.977-17.205,4.594c1.561,2.617,8.664,4.594,17.205,4.594
			c8.537,0,15.643-1.977,17.203-4.594C421.527,251.299,414.422,249.322,405.885,249.322z"/>
	</g>
	<path fill="#A1906D" d="M415.486,216.301c-6.1,11.332-7.576,24.951-9.66,37.48c-0.105,0.633,0.824,0.918,0.979,0.27
		c2.969-12.525,3.568-25.637,9.307-37.387C416.312,216.25,415.709,215.887,415.486,216.301L415.486,216.301z"/>
	<path fill="#A1906D" d="M398.762,199.035c5.918,17.561,4.768,36.705,7.051,54.881c0.08,0.627,1.059,0.654,1.004,0
		c-1.502-18.043-1.023-37.893-7.449-55.049C399.227,198.494,398.631,198.646,398.762,199.035L398.762,199.035z"/>
	<path fill="#A1906D" d="M400.758,174.33c4.574,12.957,6.625,26.43,7.246,40.127c0.605,13.324-1.012,26.246-2.268,39.459
		c-0.061,0.654,0.994,0.783,1.137,0.154c2.883-12.768,2.961-26.604,2.43-39.613c-0.557-13.629-2.648-27.652-7.949-40.291
		C401.205,173.809,400.623,173.945,400.758,174.33L400.758,174.33z"/>
	<path fill="#99A031" d="M362.256,183.373c13.045-3.418,27.947-6.27,34.902-7.779c-7.318,4.688-16.281,10.869-20.543,18.879
		c8.793-6.965,17.379-12.822,24.441-16.941c2.979,3.586,7.352,10.039,10.865,17.855c-0.645-8.818-3.871-15.559-6.982-19.074
		c7.656,0.229,17.305,3.527,25.938,7.391c-5.006-7.066-17.998-10.332-26.02-11.25c3.266-3.023,8.93-4.529,14.523-5.248
		c-6.525-1.361-13.066,0.217-17.863,3.805c-0.461-2.656-1.855-4.879-5.514-6.025c0.533,1.293,1.752,3.652,2.363,5.805
		c-5.102-2.861-11.111-2.363-15.199-1.359c3.943,0.43,10.199,1.783,13.398,3.023C386.178,174.15,371.119,177.531,362.256,183.373z"
		/>
	<path fill="#99A031" d="M392.977,197.215c-3.381-1.898-6.305-4.74-9.852-7.355c6.76,0.15,12.09,2.859,17.273,6.248
		c5.846-2.562,13.018-6.508,19.26-7.133c-4.154,2.834-9.279,5.951-13.76,9.658c9.27-0.707,16.645-0.652,24.855,1.943
		c-7.488,0.346-18.234,1.416-25.713,1.992c3.859,2.82,6.406,7.418,8.354,11.031c-3.863-0.908-10.279-6.08-12.648-9.01
		c-1.691,8.234-6.732,14.613-12.254,20.277c3-8.256,5.521-15.166,8.074-20.139c-4.186,3.463-12.238,9.217-16.484,14.162
		c0.533-2.545,6.836-11.971,12.068-17.139c-5.693,0.35-17.945,3.367-19.871,4.232C375.826,203.58,385.928,198.758,392.977,197.215z"
		/>
	<path fill="#99A031" d="M396.395,209.602c5.41-0.877,12.879,0.057,16.539,2.822c-0.111-1.99-0.875-6.789-1.346-9.855
		c1.926,3.402,3.139,6.418,4.035,10.078c3.08-2.729,5.227-5.395,7.375-7.977c-1.297,3.91-3.098,5.797-4.477,9.613
		c3.357-2.857,7.289-2.254,10.982-2.184c-2.438,0.502-6.154,2.699-9.248,3.984c4.037,0.336,9.578,3.039,12.564,5.908
		c-4.047-1.201-9.625-3.473-13.461-3.592c4.557,2.539,7.178,9.994,8.641,13.988c-3.59-4.195-6.998-10.029-10.807-13.156
		c-0.508,5.447-2.271,13.297-3.795,16.664c0.068-5.824-0.16-12.869,1.057-18.496c-3.775,4.309-5.943,9.256-10.172,13.289
		c1.818-2.463,6.639-12.117,7.35-13.914c-5.76,1.953-11.4,1.773-17.619,2.428c4.803-2.129,12.941-2.131,16.902-5.285
		C409.234,213.062,397.6,209.096,396.395,209.602z"/>
</g>
<path fill="#FBF7EE" d="M205.966,85.102l9.057,312.438H355.43V85.102H205.966z M336.35,324.301H230.712l-4.666-219.1H336.35V324.301
	z"/>
<path fill="#FBF7EE" d="M355.43,85.102v312.438h140.406l9.057-312.438H355.43z M374.51,105.201h110.303l-5.668,219.1H374.51V105.201
	z"/>
<g>
	<g>
		<path fill="#C83B0C" d="M535.117,424.084c-2.209,0.168-7.293,0.402-9.018-0.865c-3.717-2.734,2.82-4.986,6.107-5.727
			C540.639,415.59,544.973,423.344,535.117,424.084z"/>
		<path fill="#C83B0C" d="M491.021,412.48c-2.203,0.227-7.279,0.615-9.037-0.605c-3.795-2.623,2.674-5.062,5.938-5.9
			C496.297,403.83,500.852,411.451,491.021,412.48z"/>
	</g>
	<path fill="#C83B0C" d="M561.213,241.602c-3.248-5.578-3.219-14.961-3.48-23.037c-0.484-14.82-2.18-19.162-8.271-25.309
		c-5.057-5.102-10.404-8.959-18.352-10.4c-9.465-1.715-20.295,0.812-26.416,3.975c-2.568,1.326-7.803,3.744-12.945,6.67
		c-3.422,1.943-13.281,4.629-17.393,4.236c2.174,2.391,9.15,4.367,12.963,5.602c-3.41,2.645-10.463,4.463-10.729,5.311
		c9.943,2.912,21.018,1.834,32.75,0.008c1.744,7.227,4.373,15.236,8.445,25.119c4.09,9.93,11.881,19.039,17.957,23.557
		c2.496-4.053,4.289-8.145,4.289-8.145s3.311,1.033,11.453,2.84c-1.301-4.668-0.889-9.629-0.889-9.629
		S556.297,241.83,561.213,241.602z"/>
	<path fill="#C83B0C" d="M516.861,234.156c-3.791-9.199-6.432-16.973-8.273-24.373c-5.537,0.848-11.916,1.668-18.074,1.668
		c-1.197,0-2.357-0.035-3.488-0.096c-0.666,2.672-1.092,5.5-1.219,8.486c-1.061,25.385,11.639,39.58,18.396,40.627
		c5.506,0.855,17.215,0.398,27.254-5.447C526.154,250.053,520.295,242.49,516.861,234.156z M493.658,233.473
		c-1.309,0.037-2.428-1.971-2.494-4.482c-0.07-2.518,0.945-4.574,2.256-4.613c1.307-0.035,2.43,1.975,2.492,4.482
		C495.979,231.373,494.973,233.439,493.658,233.473z"/>
	<g>
		<path fill="#C83B0C" d="M530.002,352.523c-0.102-0.064-0.219-0.119-0.352-0.16c-1.26-0.402-2.742,0.967-3.969,0.174
			c-2.172-1.406,0.742-3.918,1.906-4.859c1.693-1.369,3.035-2.361,5.318-2.152c2.84,0.262,4.596,2.447,5.209,5.098
			c0.711,3.07-0.348,13.16-5.719,10.885c-0.363-0.154-0.701-0.375-1.012-0.617c-1.316-1.023-1.371-2.557-1.197-4.084
			C530.318,355.648,531.248,353.311,530.002,352.523z"/>
		<g>
			<g>
				<path fill="#C83B0C" d="M547.201,345.377c-2.734,0.826-5.93,1.467-9.465,1.936c0.611,0.863,1.078,1.895,1.354,3.084
					c0.502,2.168,0.246,7.936-2.012,10.775c-0.867,1.092-1.973,1.668-3.199,1.668c-0.6,0-1.23-0.139-1.873-0.412
					c-0.406-0.172-0.811-0.418-1.234-0.748c-1.746-1.357-1.76-3.379-1.578-4.984c0.037-0.314,0.113-0.67,0.195-1.043
					c0.146-0.666,0.449-2.049,0.078-2.285c-0.031-0.02-0.072-0.037-0.119-0.053c-0.061-0.018-0.129-0.027-0.211-0.027
					c-0.271,0-0.625,0.102-0.998,0.211c-0.471,0.137-1.004,0.291-1.566,0.291c-0.527,0-1.01-0.139-1.434-0.412
					c-0.969-0.627-1.207-1.422-1.236-1.979c-0.053-0.99,0.477-2.039,1.645-3.23c-0.787,0.014-1.57,0.031-2.377,0.031
					c-15.215,0-35.275-2.768-43.369-8.787c-0.115,19.461,2.137,39.719,6.855,64.389l8.697,0.328
					c5.896-20.039,11.143-28.965,19.188-38.637c8.551,11.965,12.434,27.07,17.256,49.717l7.934,0.18
					c8.445-23.982,15.971-50.002,16.043-74.479C554.109,342.525,551.438,344.098,547.201,345.377z"/>
			</g>
		</g>
	</g>
</g>
<rect x="353.93" y="85.102" fill="#D8D3C1" width="3" height="312.574"/>
<polygon fill="#888886" points="258.808,281.227 258.267,283.268 254.523,283.268 254.523,210.797 258.808,207.797 "/>
<g>
	<g>
		<path fill="#A1856E" d="M399.174,283.289c3.049-0.549,6.465-1.025,8.244,2.006c1.143,1.949,0.525,4.156,1.676,6.043
			c1.199,1.965,3.018,3.471,3.83,5.682c0.516,1.398,1.363,4.365,0.443,5.699c-0.77,1.117-4.629,2.471-5.949,2.875
			c-2.008,0.613-4.105,0.258-6.256,0.494c-2.34,0.254-4.916,1.078-7.242,1.686c-3.723,0.973-6.33,2.248-10.008,1.016
			c-3.236-1.086-5.781-3.664-3.932-7.201c1.518-2.902,4.258-4.416,7.195-5.049c1.494-0.322,3.178-0.443,4.555-1.156
			c2.561-1.322,1.947-1.805,1.373-3.98C391.697,286.074,394.029,284.215,399.174,283.289z"/>
		<path fill="#A1856E" d="M410.287,308.061c-1.846,5.842,8.121,6.666,11.668,6.713c4.807,0.062,10.865-1.244,14.584-2.951
			c1.912-0.877,3.949-3.08,3.967-5.049c0.004-0.318-0.055-3.818-0.158-4.51c-0.195-1.301,0.236-2.658,0.305-3.967
			c0.154-2.982-1.002-6.055-3.443-7.391c-2.258-1.236-6.682-1.633-8.922-0.305c-1.963,1.166-3.789,1.512-3.596,3.564
			c0.463,4.902,0.486,7.824-4.908,8.852C416.703,303.605,411.508,304.195,410.287,308.061z"/>
		<path fill="#7A574A" d="M427.967,294.342c0.604,0.734,5.049,0.238,6.018,0.176c1.734-0.109,4.506-0.615,2.68-2.432
			C434.902,290.334,425.977,291.918,427.967,294.342z"/>
		<path fill="#7A574A" d="M394.771,287.73c1.463,1.287,14.646-0.998,10.18-3.23S393.311,286.443,394.771,287.73z"/>
	</g>
	<path fill="#7A574A" d="M391.336,300.881c-0.035,0-0.07-0.006-0.105-0.016c-1.549-0.451-3.434-1.094-4.27-2.072
		c-0.074-0.086-0.105-0.203-0.084-0.314s0.094-0.209,0.193-0.262c1.092-0.574,2.404-0.035,3.672,0.49
		c-0.264-0.332-0.643-0.654-1.1-0.988c-0.143-0.105-0.191-0.293-0.121-0.455c0.072-0.16,0.244-0.25,0.418-0.215
		c0.678,0.139,1.4,0.389,2.164,0.654c0.131,0.045,0.26,0.09,0.389,0.135c-0.162-0.545-0.303-1.111-0.234-1.715
		c0.014-0.123,0.086-0.23,0.195-0.289c0.529-0.285,1.311-0.25,2.193-0.074c-0.109-0.16-0.223-0.332-0.338-0.516
		c-0.062-0.096-0.076-0.213-0.039-0.32c0.035-0.107,0.117-0.193,0.225-0.232c0.365-0.135,0.936-0.15,1.611-0.141
		c-0.346-0.301-0.693-0.588-1.02-0.861c-0.385-0.318-0.748-0.619-1.059-0.898c-0.113-0.1-0.154-0.258-0.105-0.398
		c0.047-0.143,0.176-0.242,0.326-0.254c0.736-0.057,1.309-0.424,1.809-0.906c-0.08-0.029-0.162-0.059-0.244-0.088
		c-0.48-0.172-0.977-0.35-1.355-0.691c-0.438-0.391-0.562-0.742-0.672-1.053c-0.072-0.205-0.141-0.398-0.305-0.633
		c-0.107,0.484-0.146,1.547-0.176,2.361c-0.051,1.428-0.105,2.906-0.418,3.74c-0.07,0.195-0.285,0.293-0.482,0.221
		c-0.193-0.072-0.291-0.289-0.219-0.482c0.27-0.723,0.322-2.201,0.369-3.506c0.078-2.109,0.135-3.049,0.701-3.223
		c0.273-0.084,0.547,0.055,0.809,0.416c0.244,0.336,0.342,0.611,0.428,0.855c0.1,0.279,0.17,0.482,0.465,0.744
		c0.271,0.244,0.697,0.396,1.107,0.543c0.18,0.064,0.361,0.129,0.537,0.205c0.125-0.148,0.248-0.299,0.371-0.449
		c0.115-0.143,0.23-0.283,0.344-0.418c0.898-1.062,2.143-1.631,3.33-1.498c1.012,0.105,1.861,0.703,2.391,1.686
		c0.463,0.859,0.699,1.908,0.928,2.924c0.398,1.773,0.775,3.449,2.238,4.316c0.514,0.307,1.559,0.42,2.664,0.541
		c2.158,0.236,4.844,0.529,5.236,2.578c0.039,0.203-0.096,0.4-0.299,0.439c-0.201,0.037-0.4-0.096-0.438-0.299
		c-0.289-1.504-2.568-1.754-4.58-1.973c-1.242-0.137-2.312-0.254-2.967-0.643c-1.74-1.031-2.17-2.945-2.588-4.797
		c-0.227-1.01-0.441-1.963-0.855-2.732c-0.414-0.768-1.039-1.215-1.809-1.295c-0.924-0.102-1.953,0.379-2.68,1.236
		c-0.111,0.131-0.223,0.268-0.336,0.408c-0.09,0.111-0.186,0.227-0.281,0.344c0.861,0.551,2.971,2.004,3.195,3.131
		c0.057,0.293-0.004,0.561-0.18,0.775c-0.326,0.4-1.086,0.465-2.25,0.453c0.508,0.562,0.926,1.148,1.16,1.744
		c0.049,0.123,0.029,0.262-0.053,0.365c-0.08,0.105-0.213,0.16-0.342,0.143c-0.531-0.064-1.281-0.289-2.074-0.527
		c-0.172-0.053-0.352-0.105-0.537-0.16c0.205,0.525,0.312,1.127,0.271,1.957c-0.008,0.18-0.143,0.326-0.322,0.352
		c-0.818,0.115-1.693-0.031-2.578-0.279c0.039,0.26,0.055,0.525,0.025,0.799c-0.02,0.17-0.152,0.307-0.322,0.33
		c-0.436,0.064-0.904-0.016-1.387-0.158c-0.025,0.229-0.088,0.471-0.201,0.723C391.615,300.797,391.48,300.881,391.336,300.881z
		 M388.008,298.727c0.865,0.615,2.266,1.07,3.092,1.318c0.029-0.125,0.043-0.248,0.039-0.367c-0.223-0.086-0.447-0.18-0.668-0.271
		C389.609,299.051,388.723,298.691,388.008,298.727z M391.801,299.123c0.373,0.129,0.73,0.223,1.049,0.238
		c-0.01-0.211-0.049-0.428-0.102-0.646c-0.299-0.098-0.596-0.201-0.891-0.303c-0.184-0.064-0.365-0.127-0.543-0.188
		C391.523,298.488,391.699,298.789,391.801,299.123z M393.363,298.125c0.824,0.254,1.633,0.439,2.359,0.406
		c-0.004-0.801-0.186-1.324-0.494-1.863c-0.879-0.225-1.734-0.375-2.238-0.244c-0.004,0.467,0.141,0.938,0.291,1.434
		C393.309,297.945,393.336,298.035,393.363,298.125z M395.713,296.018c0.406,0.111,0.82,0.236,1.23,0.359
		c0.428,0.129,0.842,0.252,1.205,0.348c-0.305-0.469-0.725-0.938-1.189-1.393c-0.602-0.027-1.246-0.053-1.711-0.02
		c0.033,0.049,0.066,0.098,0.098,0.146C395.477,295.652,395.6,295.836,395.713,296.018z M397.273,294.596
		c0.879,0.035,2.236,0.078,2.434-0.152c0.016-0.02,0.043-0.055,0.023-0.154c-0.15-0.76-2.059-2.17-2.959-2.715
		c-0.463,0.48-1.004,0.918-1.676,1.148c0.15,0.127,0.307,0.258,0.469,0.391C396.111,293.568,396.713,294.066,397.273,294.596z"/>
	<path fill="#7A574A" d="M440.109,315.643c-0.051,0-0.102-0.01-0.15-0.031c-0.666-0.289-1.574-0.275-2.453-0.266
		c-1.637,0.021-3.484,0.045-3.773-2.049l-0.057-0.398c-0.34-2.443-0.691-4.969-0.691-7.381c0-0.66,0.129-1.516,0.277-2.504
		c0.42-2.783,0.941-6.244-1.174-7.15c-0.666-0.287-0.83-0.184-1.512,0.246l-0.359,0.225c-0.523,0.314-1.092,0.566-1.65,0.807
		c1.139,1.32,1.896,2.447,2.252,3.354c0.053,0.135,0.023,0.289-0.078,0.395c-0.1,0.105-0.252,0.146-0.389,0.098
		c-0.695-0.23-1.402-0.41-2.08-0.533c1.744,1.988,2.035,2.545,1.961,2.895c-0.176,0.826-1.26,0.912-2.611,0.764
		c0.006,0.027,0.012,0.055,0.018,0.08c0.174,0.781,0.338,1.518,0.564,2.164c0.061,0.172-0.01,0.361-0.168,0.451
		c-0.16,0.09-0.359,0.053-0.475-0.088c-0.855-1.035-2.006-1.484-3.225-1.754c0.01,0.012,0.02,0.023,0.029,0.035
		c0.598,0.754,1.277,1.605,0.801,2.52c-0.088,0.172-0.291,0.246-0.469,0.176c-0.725-0.287-1.439-0.646-2.135-1.012
		c0.092,0.393,0.15,0.791,0.152,1.188c0.002,0.207-0.164,0.375-0.369,0.377c-0.008,0-0.016,0-0.023,0
		c-0.727,0-1.455-0.449-2.158-0.883c-0.072-0.043-0.143-0.088-0.211-0.129c0.008,0.338-0.051,0.643-0.215,0.879
		c-0.131,0.189-0.387,0.418-0.865,0.436c-0.857,0.045-1.453-0.598-2.064-1.205c-0.555-0.551-1.078-1.072-1.666-1.078
		c-0.207-0.002-0.373-0.17-0.371-0.377s0.17-0.373,0.375-0.373c0,0,0,0,0.002,0c1.197,0.004,2.473,0.039,3.773,0.41
		c-0.064-0.211-0.131-0.406-0.186-0.568c-0.1-0.295-0.186-0.555-0.23-0.742c-0.031-0.131,0.012-0.27,0.111-0.361
		c0.1-0.094,0.24-0.123,0.369-0.082c0.779,0.25,1.541,0.602,2.285,0.98c-0.014-0.037-0.029-0.076-0.043-0.113
		c-0.117-0.303-0.23-0.6-0.33-0.887c-0.043-0.129-0.014-0.27,0.076-0.371c0.092-0.102,0.23-0.146,0.363-0.115
		c0.479,0.109,0.979,0.189,1.486,0.268c-0.084-0.266-0.117-0.543-0.068-0.832c0.023-0.145,0.127-0.26,0.266-0.299
		c0.459-0.135,1.314,0.008,2.668,0.246c0.254,0.045,0.588,0.104,0.953,0.162c-0.283-1.139-0.646-2.232-1.312-3.059
		c-0.088-0.107-0.107-0.254-0.055-0.381s0.172-0.215,0.309-0.229c0.283-0.027,0.568-0.029,0.857-0.033
		c-0.311-0.377-0.582-0.775-0.801-1.33c-0.061-0.156-0.01-0.336,0.125-0.436c0.473-0.355,1.004-0.631,1.547-0.879
		c-0.084-0.084-0.166-0.164-0.246-0.242c-0.27-0.262-0.549-0.533-0.779-0.91c-0.121-0.197-0.184-0.404-0.246-0.605
		c-0.074-0.244-0.139-0.455-0.291-0.609c-0.336-0.344-0.92-0.648-1.072-0.545c-0.094,0.057-0.094,0.164-0.006,0.574
		c0.055,0.256,0.117,0.545,0.066,0.832c-0.113,0.643-0.445,1.379-0.797,2.16c-0.514,1.139-1.096,2.428-0.848,3.266
		c0.059,0.197-0.055,0.406-0.252,0.465c-0.195,0.062-0.408-0.055-0.467-0.252c-0.328-1.104,0.287-2.469,0.883-3.787
		c0.332-0.736,0.645-1.432,0.742-1.982c0.025-0.141-0.02-0.346-0.062-0.545c-0.086-0.408-0.219-1.025,0.35-1.371
		c0.693-0.422,1.676,0.332,1.998,0.658c0.281,0.289,0.385,0.623,0.475,0.918c0.049,0.164,0.096,0.316,0.166,0.432
		c0.182,0.297,0.404,0.514,0.662,0.764c0.139,0.135,0.281,0.273,0.424,0.43c0.01,0.01,0.02,0.021,0.029,0.033
		c0.018-0.008,0.035-0.016,0.051-0.023c0.592-0.252,1.203-0.512,1.736-0.834l0.348-0.217c0.734-0.463,1.178-0.742,2.207-0.301
		c2.648,1.133,2.055,5.074,1.621,7.951c-0.139,0.92-0.27,1.787-0.27,2.393c0,2.359,0.348,4.859,0.686,7.277l0.055,0.4
		c0.189,1.369,1.271,1.426,3.021,1.4c0.961-0.016,1.949-0.025,2.764,0.328c0.189,0.084,0.275,0.305,0.193,0.494
		C440.393,315.559,440.254,315.643,440.109,315.643z M416.824,306.32c0.178,0.16,0.348,0.33,0.512,0.494
		c0.512,0.508,0.994,0.988,1.479,0.988c0.01,0,0.02,0,0.029-0.002c0.205-0.008,0.258-0.082,0.277-0.111
		c0.117-0.17,0.102-0.508,0.027-0.893c-0.078-0.033-0.156-0.064-0.23-0.088C418.211,306.486,417.518,306.375,416.824,306.32z
		 M419.805,306.283c0.252,0.135,0.504,0.291,0.752,0.443c0.469,0.289,0.951,0.586,1.381,0.711c-0.049-0.41-0.154-0.826-0.289-1.24
		c-0.719-0.383-1.453-0.76-2.195-1.057C419.576,305.504,419.707,305.896,419.805,306.283z M422.264,305.674
		c0.033,0.018,0.064,0.035,0.098,0.053c0.723,0.385,1.467,0.781,2.211,1.105c-0.023-0.365-0.336-0.789-0.795-1.363
		c-0.18-0.227-0.367-0.461-0.531-0.707c-0.156-0.025-0.312-0.049-0.469-0.074c-0.316-0.049-0.633-0.098-0.941-0.154
		c0.031,0.08,0.061,0.158,0.092,0.238C422.039,305.062,422.156,305.365,422.264,305.674z M423.703,304.078
		c1.17,0.203,2.385,0.5,3.42,1.225c-0.074-0.307-0.145-0.623-0.217-0.947c-0.025-0.117-0.053-0.234-0.078-0.352
		c-0.416-0.062-0.844-0.139-1.27-0.215c-0.76-0.133-1.602-0.283-2.066-0.287C423.518,303.691,423.596,303.883,423.703,304.078z
		 M427.443,303.328c1.008,0.129,1.988,0.176,2.055-0.135c-0.037-0.076-0.35-0.621-2.068-2.559l-0.297-0.336
		c-0.281-0.025-0.555-0.037-0.814-0.037C426.873,301.172,427.186,302.244,427.443,303.328z M427.5,299.582
		c0.859,0.1,1.662,0.283,2.258,0.445c-0.418-0.734-1.066-1.607-1.916-2.576c-0.494,0.219-0.965,0.445-1.387,0.725
		c0.25,0.521,0.568,0.875,0.986,1.342L427.5,299.582z"/>
	<path fill="#7A574A" d="M413.484,300.268c0.273,2.58-4.311,3.557-6.342,4.125c-2.664,0.748-5.285,0.842-8.006,1
		c-2.611,0.152-3.992,1.309-6.277,2.254c-2.68,1.105-5.898,0.9-8.633,0.277c-1.609-0.367-2.641-0.887-3.967-1.768
		c-0.291,1.623,3.922,3.209,5.1,3.459c2.221,0.473,4.592,0.049,6.75-0.348c2.412-0.441,4.514-1.49,6.875-2.152
		c2.133-0.598,4.137-0.783,6.369-0.973c2.051-0.176,3.914-0.73,5.758-1.723c0.717-0.385,4.291-3.463,2.248-4.152H413.484z"/>
	<path fill="#7A574A" d="M440.494,305.891c0.385,3.084-4.344,6.252-9.344,7.252c-3.842,0.77-8.869,2.311-13.635,1.154
		c-1.346-0.328-2.531-0.57-3.879-1.252c-0.836-0.422-2.111-1.277-3.268-2.213c0.615,2.395,4.646,3.617,5.865,4.061
		c2.656,0.967,6.098,1.051,8.916,0.666c3.959-0.541,6.096-1.104,9.25-2.207c2.176-0.762,4.039-1.693,5.541-3.527
		c0.576-0.701,1.031-1.859,0.793-2.682C440.645,306.838,440.494,305.891,440.494,305.891z"/>
</g>
<g>
	<path fill="#C83B0C" d="M531.596,256.119c-8.861,5.043-18.305,5.686-22.471,5.686c-1.855,0-3.609-0.121-5.074-0.348
		c-0.578-0.09-1.191-0.271-1.824-0.523c-15.828,15.812-25.045,51.135-25.045,72.596c0.002,8.881,26.869,14.225,49.479,13.625
		c0.102-0.086,0.193-0.168,0.299-0.254c1.74-1.406,3.143-2.402,5.355-2.402c0.162,0,0.334,0.012,0.506,0.023l-2.746-1.248
		l0.023-0.344c2.436-38.363-5.383-46.582-5.461-46.66l0.703-0.711c0.336,0.334,8.172,8.574,5.777,47.09l7.711,3.506
		c0.07-0.01,0.145-0.02,0.215-0.029c11.367-34.152,10.645-59.967-2.203-78.906l0.828-0.561
		c12.971,19.119,13.781,45.068,2.484,79.285c9.988-1.662,17.113-5.023,17.117-10.43
		C557.285,313.584,553.037,268.605,531.596,256.119z"/>
</g>
</svg>
