<?xml version="1.0" encoding="utf-8"?>
<!-- Generator: Adobe Illustrator 15.0.2, SVG Export Plug-In . SVG Version: 6.00 Build 0)  -->
<!DOCTYPE svg PUBLIC "-//W3C//DTD SVG 1.1//EN" "http://www.w3.org/Graphics/SVG/1.1/DTD/svg11.dtd">
<svg version="1.1" id="Layer_1" xmlns="http://www.w3.org/2000/svg" xmlns:xlink="http://www.w3.org/1999/xlink" x="0px" y="0px"
	 width="1600px" height="900px" viewBox="0 0 1600 900" enable-background="new 0 0 1600 900" xml:space="preserve">
<rect fill="#81B1CA" width="1600" height="900"/>
<g>
	<rect fill="#9EC3D6" width="46.887" height="730.338"/>
	<rect x="91.359" fill="#9EC3D6" width="46.889" height="730.338"/>
	<rect x="182.719" fill="#9EC3D6" width="46.887" height="730.338"/>
	<rect x="274.08" fill="#9EC3D6" width="46.886" height="730.338"/>
	<rect x="365.438" fill="#9EC3D6" width="46.888" height="730.338"/>
	<rect x="456.799" fill="#9EC3D6" width="46.887" height="730.338"/>
	<rect x="548.157" fill="#9EC3D6" width="46.888" height="730.338"/>
	<rect x="639.517" fill="#9EC3D6" width="46.888" height="730.338"/>
	<rect x="730.877" fill="#9EC3D6" width="46.888" height="730.338"/>
	<rect x="822.237" fill="#9EC3D6" width="46.887" height="730.338"/>
	<rect x="913.596" fill="#9EC3D6" width="46.89" height="730.338"/>
	<rect x="1004.955" fill="#9EC3D6" width="46.889" height="730.338"/>
	<rect x="1096.314" fill="#9EC3D6" width="46.89" height="730.338"/>
	<rect x="1187.674" fill="#9EC3D6" width="46.889" height="730.338"/>
	<rect x="1279.033" fill="#9EC3D6" width="46.889" height="730.338"/>
	<rect x="1370.393" fill="#9EC3D6" width="46.89" height="730.338"/>
	<rect x="1461.752" fill="#9EC3D6" width="46.889" height="730.338"/>
	<rect x="1553.112" fill="#9EC3D6" width="46.889" height="730.338"/>
</g>
<path fill="#C83B0C" d="M1600,243.84c0,0-142.012-3.953-394.781-72.836C985.227,111.054,800.001,17.104,800.001,17.104
	S661.524,94.767,426.625,160.429C198.044,224.324,0,243.84,0,243.84V0h1600V243.84z"/>
<path fill="#AC2400" d="M1600,153.091c0,0-121.781,5.215-316.898-28.435C1089.402,91.25,798.752,4.274,798.752,4.274
	s-230.379,76.93-420.824,111.815C207.292,147.347,0,153.091,0,153.091V0h1600V153.091z"/>
<rect x="106.041" fill="#560000" width="35.408" height="728.852"/>
<rect x="1433.973" fill="#560000" width="30.011" height="725.726"/>
<g>
	<line fill="none" stroke="#44658B" stroke-width="3" stroke-miterlimit="10" x1="801.696" y1="42.85" x2="801.696" y2="-0.554"/>
</g>
<g>
	<path fill="none" stroke="#7A574A" stroke-width="3" stroke-miterlimit="10" d="M174.93,530.803
		c397.104-71.656,846.482-233.901,1213.367-347.337"/>
	<g>
		
			<line fill="none" stroke="#75280E" stroke-width="4" stroke-miterlimit="10" x1="217.132" y1="347.082" x2="217.132" y2="-2.447"/>
		<line fill="none" stroke="#75280E" stroke-width="4" stroke-miterlimit="10" x1="367.2" y1="347.082" x2="367.2" y2="-2.447"/>
	</g>
</g>
<rect x="54.571" y="523.5" fill="#6C0900" width="138.459" height="11.77"/>
<rect x="1371.893" y="177.581" fill="#6C0900" width="154.776" height="11.77"/>
<rect y="746" fill="#6C0900" width="1600" height="154"/>
<rect y="722" fill="#AC2400" width="1600" height="32"/>
</svg>
