<?xml version="1.0" encoding="utf-8"?>
<!-- Generator: Adobe Illustrator 15.0.2, SVG Export Plug-In . SVG Version: 6.00 Build 0)  -->
<!DOCTYPE svg PUBLIC "-//W3C//DTD SVG 1.1//EN" "http://www.w3.org/Graphics/SVG/1.1/DTD/svg11.dtd">
<svg version="1.1" id="Layer_1" xmlns="http://www.w3.org/2000/svg" xmlns:xlink="http://www.w3.org/1999/xlink" x="0px" y="0px"
	 width="200px" height="254px" viewBox="0 0 200 254" enable-background="new 0 0 200 254" xml:space="preserve">
<symbol  id="mustache" viewBox="-32.081 -14.589 64.184 29.195">
	<g id="Layer_1_2_">
		<path fill-rule="evenodd" clip-rule="evenodd" fill="#811200" d="M24.6,4.3c1.8,0.833,3.6,0.316,5.4-1.55
			c1.933-2.066,2.533-4.767,1.8-8.1c-0.667-2.934-2.6-5.217-5.8-6.85c-2.867-1.5-6.267-2.25-10.2-2.25
			c-3.867-0.033-7.3,0.633-10.3,2c-3.2,1.5-5.15,3.483-5.85,5.95c-0.867-3.933-3.883-6.433-9.05-7.5
			c-3.966-0.833-7.517-0.783-10.65,0.15c-9.133,2.7-13.066,7.5-11.8,14.4c0.233,1.233,1.083,2.283,2.55,3.15
			c1.567,0.9,3.017,1,4.35,0.3c-1.233,0.034-2.267-0.566-3.1-1.8c-0.867-1.3-0.967-2.533-0.3-3.7c1.033-1.767,2.933-2.767,5.7-3
			c2.434-0.2,4.784,0.15,7.05,1.05c2.1,0.833,4.75,2.117,7.95,3.85c2.667,1,5.217,0.633,7.65-1.1c2.8,1.467,5.667,1.767,8.6,0.9
			c2.233-0.7,5.217-2.4,8.95-5.1c1.433-1.033,3.467-1.083,6.1-0.15c2.8,0.967,4.333,2.517,4.6,4.65c0.133,1.033-0.184,2.033-0.95,3
			C26.533,3.5,25.633,4.067,24.6,4.3z"/>
		<path fill-rule="evenodd" clip-rule="evenodd" fill="#560000" d="M9.9,1C8.667-1.767,6.017-3.583,1.95-4.45
			c-3.867-0.8-6.967-0.467-9.3,1c-2.467,1.566-4.033,3.617-4.7,6.15c-0.633,2.433-0.283,4.733,1.05,6.9
			c1.5,2.434,3.8,3.983,6.9,4.65c3.033,0.7,5.967,0.367,8.8-1c2.567-1.233,4.333-3.033,5.3-5.4C10.933,5.517,10.9,3.233,9.9,1z"/>
	</g>
</symbol>
<path fill-rule="evenodd" clip-rule="evenodd" fill="#D35623" d="M0.479,83.277c2.728-1.296,6.362-2.518,10.902-3.665
	c9.08-2.293,18.12-3.094,27.121-2.398c28.874,2.209,52.089,18.977,69.647,50.304c13.46,24.078,15.673,48.16,6.635,72.248
	c-4.527,12.029-10.404,21.648-17.631,28.855c-7.849-3.176-16.58-8.789-26.193-16.84c-19.271-16.121-33.371-36.406-42.299-60.85
	c-7.656-21.029-14.645-38.613-20.966-52.753C4.506,91.12,2.1,86.154,0.479,83.277z"/>
<path fill-rule="evenodd" clip-rule="evenodd" fill="#F5D2AF" d="M21.181,97.65c-2.022,3.639-3.456,7.118-4.299,10.438
	c-0.522,2.254-0.912,5.213-1.167,8.88C10.304,104.916,5.066,93.711,0,83.357c2.808-1.617,6.648-3.07,11.521-4.358
	c9.729-2.655,19.704-3.254,29.926-1.795c-3.69,2.095-7.298,4.874-10.822,8.34C26.756,89.305,23.608,93.34,21.181,97.65z"/>
<path fill-rule="evenodd" clip-rule="evenodd" fill="#DE723A" d="M179.127,196.666c0.049,1.432,0.393,2.676,1.029,3.729
	c0.402,0.691,0.99,1.145,1.762,1.359c0.789,0.246,1.441,0.123,1.959-0.365c-0.129,1.584,0.215,3.045,1.031,4.379
	c1.129,1.885,2.938,2.76,5.422,2.629c3.197-0.193,5.627-1.555,7.285-4.082c1.424-2.219,2.021-4.736,1.795-7.557
	c-0.273-3.383-1.193-6.172-2.762-8.369c-2.008-2.822-4.719-3.812-8.131-2.967c-4.098,1.008-7.037,3.605-8.816,7.793
	C179.285,194.232,179.094,195.383,179.127,196.666z"/>
<path fill-rule="evenodd" clip-rule="evenodd" fill="#DE723A" d="M9.442,202.176c-3.17-0.496-5.463-2.082-6.878-4.76
	c-1.21-2.348-1.567-4.914-1.073-7.705c0.592-3.348,1.774-6.043,3.545-8.084c2.271-2.625,5.066-3.355,8.389-2.189
	c3.991,1.393,6.676,4.262,8.055,8.605c0.317,1.055,0.399,2.219,0.245,3.496c-0.184,1.424-0.644,2.631-1.379,3.621
	c-0.467,0.65-1.096,1.047-1.886,1.189c-0.811,0.17-1.449-0.014-1.918-0.551c-0.021,1.592-0.502,3.016-1.443,4.27
	C13.793,201.84,11.908,202.543,9.442,202.176z"/>
<path fill-rule="evenodd" clip-rule="evenodd" fill="#DE723A" d="M126.281,167.75c8.699,0.967,15.666,2.717,20.9,5.25
	c11.533,5.566,17.299,16.766,17.299,33.6c0,5.434-2.199,11.684-6.6,18.75c-5.066,8.166-10.783,12.768-17.15,13.801
	c-5,0.799-12.016,0.232-21.049-1.701c-10.167-2.199-16.351-3.299-18.55-3.299c-2.967,0-9.467,1.217-19.5,3.65
	c-9.7,2.365-16.551,3.449-20.551,3.25c-6.566-0.367-12.1-2.934-16.6-7.701c-4.033-4.299-6.467-9.4-7.3-15.299
	c-2.333-16.268,2.35-29.035,14.05-38.301c11.066-8.768,26.65-13.15,46.75-13.15C110.014,166.6,119.448,166.982,126.281,167.75z"/>
<path fill-rule="evenodd" clip-rule="evenodd" fill="#D35623" d="M158.48,248.65c-1.4,2.232-3.717,3.582-6.949,4.049
	c-2.6,0.367-5.066,0.168-7.4-0.6c-3.133-1.066-5.834-2.867-8.1-5.4c-2.166-2.365-3.518-4.898-4.051-7.6
	c3.566,0.334,7.35-0.166,11.35-1.5c3.734-1.232,6.234-2.684,7.5-4.35c2.934,1.732,5.217,3.699,6.852,5.9
	C160.08,242.449,160.348,245.617,158.48,248.65z"/>
<path fill-rule="evenodd" clip-rule="evenodd" fill="#D35623" d="M39.781,239.85c-1.8,3-1.75,6.033,0.15,9.102
	c1.4,2.232,3.717,3.582,6.95,4.049c2.6,0.367,5.066,0.166,7.4-0.6c3.2-1.066,5.816-2.666,7.85-4.801c1.967-2.033,3.217-4.365,3.75-7
	c-9.133-0.232-15.867-2.332-20.2-6.299C43.015,235.867,41.048,237.717,39.781,239.85z"/>
<path fill-rule="evenodd" clip-rule="evenodd" fill="#AC2400" d="M75.081,91.85c2.267-1.233,11.217-1.534,26.851-0.9
	c15.399,0.633,24.133,1.517,26.2,2.65c1.4,0.767,2.066,2.183,2,4.25c-0.1,2.033,0.234,3.25,1,3.65c0.4,0.2,4.633,1.433,12.699,3.7
	c7.834,2.2,12.918,4.017,15.25,5.45c5.967,3.633,13.068,12.367,21.301,26.2c9.367,15.734,15.867,31.551,19.5,47.451
	c0.301,1.266-3.367,3.266-11,6c-7.566,2.699-11.867,3.648-12.9,2.85c-0.934-0.734-2.566-4.9-4.9-12.5
	c-2.732-8.768-4.982-14.768-6.75-18c1.234,9.467,1.668,20.766,1.301,33.9c-0.334,13.166-1.266,20.615-2.801,22.35
	c-1.799,2.066-7.633,3.883-17.5,5.449c-11.932,1.867-27.266,2.801-46,2.801c-17,0-32.333-2.117-46-6.35
	c-5.167-1.602-9.5-3.352-13-5.25c-3.1-1.635-4.9-3-5.4-4.102c-1-2.166-1.267-8.5-0.8-19c0.5-11.266,1.667-21.299,3.5-30.1
	c-2.3,3.768-5.017,9.75-8.15,17.951c-2.3,5.898-4.083,8.916-5.35,9.049c-2.1,0.234-6.683-1.15-13.75-4.15
	c-7.033-3-10.483-4.949-10.35-5.85c1.434-10.133,7.15-23.033,17.15-38.699c9.933-15.567,19.216-26.217,27.85-31.951
	c2.134-1.433,6.583-2.933,13.35-4.5c6.966-1.6,10.767-2.583,11.4-2.95c0.867-0.5,1.533-1.95,2-4.35
	C72.248,94.467,73.347,92.783,75.081,91.85z"/>
<g>
	<path fill="#DE723A" d="M17.674,182.557c-0.292,0-0.604-0.021-0.939-0.064c-1.167-0.137-3.015-0.628-5.637-1.5
		c-2.167-0.686-4.304-1.609-6.335-2.739c-1.493-0.783-2.443-1.38-2.969-1.866c-0.405-0.376-0.43-1.008-0.055-1.414
		c0.375-0.406,1.008-0.43,1.413-0.055c0.263,0.244,0.921,0.715,2.562,1.575c1.937,1.077,3.949,1.946,6.002,2.597
		c2.47,0.821,4.235,1.297,5.263,1.417c0.413,0.053,0.717,0.058,0.941,0.041c-0.229-0.111-0.544-0.247-0.979-0.403
		c-1.002-0.348-2.985-1.019-5.938-2.009c-2.512-1.003-4.534-2.007-6.063-3.003c-0.892-0.604-2.945-1.995-2.13-3.478
		c0.727-1.434,2.975-0.571,4.055-0.157c2.324,0.97,4.213,1.709,5.641,2.206c4.48,1.52,6.509,1.82,7.399,1.832
		c-0.289-0.168-0.728-0.385-1.391-0.644c-1.048-0.426-2.741-1.007-5.044-1.731c-3.14-1.162-6.1-2.549-8.844-4.138
		c-0.478-0.276-0.641-0.889-0.364-1.366c0.276-0.478,0.889-0.643,1.366-0.364c2.646,1.531,5.502,2.869,8.49,3.977
		c2.34,0.734,4.036,1.317,5.136,1.765c1.813,0.708,2.726,1.354,3.038,2.157c0.164,0.421,0.145,0.873-0.053,1.275
		c-0.677,1.363-2.699,1.736-10.383-0.871c-1.474-0.514-3.401-1.267-5.734-2.241c-0.178-0.068-0.34-0.127-0.487-0.178
		c0.123,0.09,0.259,0.187,0.413,0.29c1.404,0.915,3.309,1.857,5.646,2.792c2.909,0.975,4.897,1.647,5.914,1.999
		c1.601,0.576,2.402,1.116,2.687,1.812c0.157,0.382,0.146,0.796-0.032,1.165C19.875,182.108,19.004,182.557,17.674,182.557z"/>
</g>
<g>
	<path fill="#DE723A" d="M182.252,188.474c-1.406,0-2.812-0.29-3.248-1.479c-0.126-0.352-0.102-0.729,0.066-1.07
		c0.266-0.537,0.89-1.154,3.633-2.025c3.312-0.975,5.617-1.771,6.873-2.371c2.03-0.979,3.696-2.006,4.946-3.051
		c0.327-0.281,0.576-0.523,0.765-0.73c-0.229,0.104-0.502,0.234-0.821,0.398c-2.994,1.568-5.018,2.538-6.179,2.958
		c-2.857,1.043-5.138,1.699-6.969,2.003c-0.956,0.15-3.839,0.596-4.413-1.331c-0.132-0.429-0.084-0.873,0.141-1.277
		c0.419-0.753,1.427-1.304,3.267-1.786c3.633-0.961,5.852-1.592,6.594-1.874c3.733-1.492,6.538-3.135,8.323-4.877
		c0.396-0.385,1.027-0.379,1.414,0.018c0.386,0.395,0.378,1.028-0.018,1.414c-1.974,1.927-4.999,3.713-8.993,5.309
		c-0.834,0.317-3.057,0.951-6.811,1.944c-0.883,0.231-1.392,0.44-1.68,0.592c0.312,0.033,0.881,0.048,1.858-0.105
		c1.673-0.278,3.898-0.921,6.604-1.908c1.062-0.385,3.061-1.345,5.941-2.854c1.909-0.977,2.88-1.214,3.59-0.879
		c0.365,0.173,0.624,0.499,0.711,0.896c0.288,1.431-1.021,2.749-2.03,3.617c-1.389,1.16-3.192,2.277-5.374,3.328
		c-1.374,0.657-3.713,1.468-7.154,2.48c-0.804,0.256-1.351,0.468-1.721,0.634c0.405,0.042,1.03,0.051,1.976-0.047
		c2.169-0.202,4.423-0.821,6.708-1.84c2.61-1.174,5.134-2.775,7.497-4.759c0.423-0.355,1.056-0.3,1.408,0.123
		c0.355,0.423,0.301,1.054-0.123,1.408c-2.504,2.103-5.184,3.803-7.965,5.053c-2.488,1.109-4.953,1.783-7.331,2.006
		C183.273,188.436,182.763,188.474,182.252,188.474z"/>
</g>
<g>
	<g>
		<path fill="#DE723A" d="M140.653,152.459c-0.806,0-1.759-0.296-2.862-1.101c-1.043-0.743-1.648-1.632-1.788-2.634
			c-0.079-0.567-0.004-1.154,0.223-1.755c-5.189,0.06-10.019,0.121-14.481,0.181c-9.633,0.101-16.666,0.049-20.91-0.151
			c-14.331-0.755-25.75-1.327-33.975-1.701c0.014,2.867-0.536,4.539-1.704,5.224c-0.916,0.537-2.043,0.394-3.354-0.423
			c-0.575-0.34-1.466-1.137-1.245-2.692c-0.46,0.161-0.945,0.301-1.451,0.418c-1.52,0.373-2.644,0.28-3.427-0.289
			c-0.412-0.3-0.919-0.885-0.996-1.964c-0.172-2.365,1.232-3.866,3.852-4.117c0.586-0.052,1.254-0.065,2.022-0.034
			c-0.254-0.413-0.462-0.864-0.625-1.354c-0.338-0.946-0.302-1.77,0.113-2.428c0.441-0.698,1.26-1.112,2.434-1.232
			c1.417-0.146,3.362,0.222,4.561,2.827c0.635,1.326,0.707,2.38,0.499,3.204l9.963,0.214c8.635,0.165,15.473,0.35,20.319,0.55
			c6.754,0.266,14.431,0.417,22.813,0.45c6.553,0.029,11.42-0.022,14.526-0.147c-0.614-1.284-0.162-2.307,0.259-2.89
			c0.664-1.039,1.876-1.712,3.57-1.953c2.671-0.32,3.29,0.939,3.427,1.718c0.06,0.225,0.076,0.461,0.048,0.712
			c0.777-0.227,1.575-0.373,2.389-0.437c2.344-0.204,3.951,0.441,4.755,1.919c0.622,1.127,0.726,2.142,0.303,3.01
			c-0.515,1.06-1.731,1.731-3.719,2.056c-0.646,0.101-1.604,0.161-2.893,0.183c0.36,0.385,0.585,0.782,0.685,1.199
			c0.114,0.479,0.112,1.212-0.542,1.979C142.917,151.647,141.988,152.459,140.653,152.459z M138.755,146.582
			c-0.582,0.73-0.842,1.358-0.771,1.866c0.061,0.437,0.39,0.869,0.977,1.288c1.618,1.179,2.371,0.689,2.943-0.017
			c0.039-0.045,0.148-0.178,0.135-0.237c-0.018-0.071-0.237-0.727-2.696-1.76c-0.442-0.186-0.69-0.66-0.591-1.13
			C138.753,146.589,138.754,146.586,138.755,146.582z M63.131,143.85c0.277,0,0.553,0.115,0.751,0.339
			c0.36,0.409,0.327,1.031-0.076,1.399c-0.632,0.578-1.029,1.178-1.212,1.832c-0.195,0.709,0.049,0.854,0.245,0.97
			c0.719,0.446,1.142,0.5,1.305,0.407c0.089-0.053,0.871-0.626,0.688-4.5c-0.008-0.164,0.025-0.326,0.094-0.472
			c-0.011-0.022-0.02-0.045-0.029-0.068c-0.145-0.381-0.045-0.811,0.253-1.088c0.425-0.396,0.818-1.048,0.081-2.586
			c-0.76-1.655-1.756-1.766-2.544-1.688c-0.636,0.065-0.895,0.226-0.949,0.311c-0.049,0.078-0.056,0.311,0.086,0.709
			c0.359,1.078,0.99,1.843,1.936,2.358c0.421,0.229,0.621,0.725,0.475,1.182c-0.146,0.457-0.591,0.747-1.071,0.689
			c-1.887-0.226-3.381-0.291-4.444-0.198c-1.798,0.173-2.117,0.917-2.04,1.982c0.018,0.253,0.078,0.417,0.178,0.49
			c0.096,0.069,0.509,0.271,1.786-0.039c1.583-0.366,2.871-0.968,3.842-1.792C62.672,143.928,62.902,143.85,63.131,143.85z
			 M137.98,144.949c0.382,0,0.731,0.218,0.898,0.562c0.102,0.208,0.126,0.439,0.077,0.657c0.189-0.231,0.442-0.368,0.796-0.367
			c3.057,0.067,5.118,0.019,6.125-0.139c1.785-0.29,2.163-0.804,2.236-0.954c0.158-0.327-0.094-0.876-0.258-1.174
			c-0.148-0.271-0.592-1.079-2.837-0.888c-1.52,0.119-2.966,0.58-4.309,1.372c-0.916,0.764-1.146,1.062-1.196,1.136l-1.398-0.933
			c0.029,0.165,0.019,0.338-0.038,0.504c-0.028,0.08-0.065,0.155-0.11,0.224c0.001,0,0.002,0,0.002,0
			C137.973,144.949,137.977,144.949,137.98,144.949z M139.828,140.604c-0.155,0-0.346,0.011-0.578,0.039
			c-1.07,0.152-1.811,0.521-2.178,1.096c-0.201,0.28-0.554,0.768,0.727,1.917c0.07,0.063,0.131,0.135,0.179,0.213
			c0.279-0.355,0.742-0.796,1.46-1.394c1.102-1.223,1.028-1.667,1.027-1.671c0,0-0.022-0.099-0.025-0.109l0,0
			C140.432,140.695,140.284,140.604,139.828,140.604z"/>
	</g>
	<g>
		<path fill="#DE723A" d="M141.004,171.829c-0.809,0-1.76-0.287-2.854-1.065c-1.052-0.748-1.656-1.635-1.797-2.636
			c-0.079-0.569-0.005-1.156,0.223-1.759c-5.356,0.06-10.334,0.12-14.932,0.182c-9.932,0.101-17.117,0.048-21.361-0.151
			l-34.874-1.698c0.013,2.865-0.536,4.536-1.704,5.221c-0.914,0.538-2.042,0.395-3.354-0.423c-0.576-0.34-1.467-1.137-1.245-2.692
			c-0.46,0.161-0.944,0.301-1.451,0.418c-1.519,0.373-2.644,0.279-3.426-0.289c-0.412-0.3-0.919-0.884-0.997-1.964
			c-0.172-2.365,1.232-3.866,3.853-4.117c0.587-0.051,1.258-0.063,2.022-0.034c-0.253-0.413-0.462-0.864-0.625-1.354
			c-0.338-0.947-0.303-1.771,0.113-2.429c0.441-0.698,1.26-1.113,2.435-1.232c1.416-0.149,3.361,0.221,4.56,2.827
			c0.635,1.325,0.707,2.379,0.5,3.203l10.412,0.215c8.936,0.165,15.924,0.35,20.771,0.55c6.7,0.264,14.527,0.415,23.263,0.45
			c6.792,0.025,11.81-0.023,14.976-0.148c-0.613-1.285-0.162-2.307,0.259-2.889c0.665-1.04,1.877-1.712,3.57-1.953
			c2.662-0.32,3.292,0.939,3.427,1.718c0.06,0.225,0.076,0.461,0.049,0.711c0.776-0.227,1.573-0.372,2.388-0.436
			c2.346-0.2,3.95,0.44,4.755,1.917c0.623,1.127,0.727,2.143,0.304,3.011c-0.515,1.06-1.731,1.732-3.72,2.057
			c-0.642,0.1-1.596,0.16-2.883,0.181c0.365,0.387,0.595,0.785,0.698,1.204c0.116,0.474,0.124,1.199-0.506,1.963
			C143.299,171.035,142.349,171.829,141.004,171.829z M139.104,165.983c-0.581,0.73-0.84,1.358-0.769,1.866
			c0.061,0.436,0.389,0.867,0.976,1.285c1.631,1.159,2.41,0.669,3.009-0.033c0.026-0.032,0.11-0.143,0.096-0.2
			c-0.018-0.072-0.246-0.738-2.723-1.78c-0.442-0.187-0.69-0.66-0.591-1.13C139.103,165.988,139.104,165.986,139.104,165.983z
			 M61.681,163.25c0.278,0,0.554,0.115,0.751,0.34c0.36,0.409,0.326,1.031-0.077,1.399c-0.622,0.567-1.03,1.184-1.211,1.831
			c-0.196,0.708,0.049,0.853,0.246,0.97c0.721,0.448,1.145,0.501,1.305,0.407c0.089-0.053,0.872-0.626,0.688-4.5
			c-0.008-0.164,0.025-0.326,0.094-0.472c-0.01-0.022-0.02-0.045-0.029-0.068c-0.146-0.38-0.045-0.811,0.252-1.088
			c0.425-0.396,0.818-1.048,0.08-2.586c-0.76-1.654-1.755-1.764-2.543-1.688c-0.636,0.065-0.896,0.226-0.949,0.311
			c-0.04,0.062-0.066,0.282,0.086,0.709c0.36,1.079,0.991,1.844,1.936,2.358c0.421,0.229,0.621,0.725,0.475,1.182
			c-0.146,0.457-0.591,0.752-1.071,0.689c-1.886-0.226-3.38-0.292-4.444-0.198c-1.799,0.173-2.118,0.917-2.04,1.982
			c0.018,0.253,0.078,0.417,0.178,0.49c0.097,0.068,0.51,0.271,1.786-0.039c1.583-0.366,2.871-0.968,3.842-1.792
			C61.222,163.328,61.452,163.25,61.681,163.25z M138.33,164.35c0.382,0,0.731,0.218,0.898,0.562
			c0.102,0.207,0.126,0.438,0.078,0.654c0.189-0.23,0.429-0.359,0.795-0.366c3.064,0.065,5.126,0.019,6.125-0.137
			c1.785-0.29,2.164-0.805,2.236-0.955c0.159-0.327-0.094-0.876-0.258-1.175c-0.148-0.271-0.591-1.077-2.837-0.886
			c-1.522,0.119-2.97,0.58-4.31,1.372c-0.914,0.761-1.145,1.059-1.193,1.133l-1.4-0.927c0.029,0.164,0.018,0.337-0.039,0.501
			c-0.027,0.08-0.064,0.155-0.109,0.224C138.32,164.35,138.325,164.35,138.33,164.35z M140.178,160.005
			c-0.154,0-0.346,0.011-0.578,0.039c-1.069,0.152-1.81,0.521-2.178,1.096c-0.2,0.28-0.553,0.767,0.728,1.918
			c0.069,0.062,0.129,0.134,0.178,0.211c0.28-0.356,0.743-0.798,1.46-1.394c1.104-1.224,1.027-1.669,1.026-1.673
			c0,0-0.021-0.097-0.023-0.107c-0.001,0-0.001,0-0.001,0C140.78,160.095,140.632,160.005,140.178,160.005z"/>
	</g>
	<g>
		<path fill="#DE723A" d="M141.495,192.13c-0.802,0-1.749-0.287-2.844-1.064c-1.054-0.751-1.658-1.639-1.798-2.641
			c-0.079-0.567-0.005-1.154,0.223-1.755c-5.495,0.06-10.623,0.119-15.382,0.18c-10.414,0.068-17.543,0.019-21.803-0.151
			c-4.752-0.229-16.688-0.795-35.816-1.698c0.028,1.69-0.164,2.976-0.583,3.909c-0.476,1.008-1.148,1.383-1.63,1.524
			c-0.815,0.237-1.762,0.022-2.814-0.638c-0.971-0.618-1.4-1.56-1.243-2.689c-0.459,0.162-0.942,0.302-1.45,0.419
			c-1.518,0.373-2.644,0.28-3.426-0.29c-0.412-0.3-0.919-0.885-0.997-1.965c-0.172-2.366,1.232-3.867,3.853-4.115
			c0.575-0.051,1.248-0.063,2.009-0.045c-0.26-0.402-0.479-0.841-0.653-1.315c-0.331-0.99-0.28-1.809,0.142-2.462
			c0.45-0.695,1.272-1.109,2.446-1.229c1.422-0.148,3.362,0.226,4.56,2.827c0.601,1.31,0.667,2.346,0.465,3.153l10.846,0.216
			c9.297,0.199,16.454,0.401,21.271,0.601c6.773,0.265,14.752,0.415,23.712,0.448c7.05,0.028,12.227-0.022,15.425-0.148
			c-0.612-1.283-0.161-2.305,0.26-2.887c0.665-1.038,1.876-1.712,3.568-1.955c2.643-0.255,3.241,0.965,3.377,1.713
			c0.05,0.234,0.058,0.48,0.022,0.74c0.756-0.228,1.54-0.381,2.349-0.458c2.387-0.203,4.021,0.437,4.861,1.896
			c0.634,1.147,0.737,2.162,0.315,3.03c-0.515,1.06-1.732,1.731-3.721,2.056c-0.655,0.102-1.635,0.163-2.96,0.184
			c1.352,1.501,0.538,2.774,0.228,3.158C143.769,191.33,142.834,192.13,141.495,192.13z M139.54,186.365
			c-0.536,0.694-0.773,1.295-0.706,1.783c0.062,0.436,0.39,0.869,0.977,1.287c1.622,1.152,2.376,0.67,2.951-0.023
			c0.083-0.103,0.22-0.272-0.467-0.841c-0.503-0.389-1.229-0.78-2.136-1.143C139.731,187.257,139.479,186.816,139.54,186.365z
			 M60.331,183.551c0.272,0,0.542,0.11,0.739,0.326c0.366,0.401,0.345,1.022-0.049,1.397c-0.606,0.578-0.992,1.182-1.177,1.845
			c-0.182,0.636,0.017,0.822,0.274,0.986c0.759,0.478,1.098,0.432,1.184,0.408c0.16-0.047,0.292-0.266,0.375-0.44
			c0.243-0.541,0.509-1.702,0.356-4.06c-0.011-0.18,0.025-0.356,0.104-0.514c-0.016-0.032-0.031-0.066-0.044-0.101
			c-0.143-0.386-0.036-0.818,0.27-1.093c0.27-0.242,0.902-0.81,0.109-2.54c-0.753-1.639-1.754-1.756-2.538-1.672
			c-0.601,0.061-0.898,0.213-0.97,0.324c-0.055,0.085-0.067,0.317,0.065,0.714c0.373,1.011,1.023,1.77,1.979,2.29
			c0.418,0.228,0.618,0.719,0.477,1.174c-0.14,0.455-0.583,0.741-1.057,0.699c-1.889-0.193-3.389-0.242-4.461-0.149
			c-1.799,0.171-2.117,0.915-2.04,1.98c0.018,0.253,0.078,0.418,0.179,0.491c0.096,0.07,0.509,0.273,1.785-0.038
			c1.575-0.364,2.842-0.963,3.781-1.782C59.863,183.632,60.097,183.551,60.331,183.551z M138.83,184.65
			c0.382,0,0.731,0.218,0.898,0.562c0.091,0.186,0.12,0.39,0.091,0.586c0.187-0.19,0.444-0.297,0.732-0.298
			c3.092,0.067,5.168,0.019,6.175-0.139c1.786-0.291,2.164-0.804,2.237-0.954c0.158-0.326-0.095-0.875-0.259-1.174
			c-0.148-0.256-0.628-1.078-2.939-0.888c-1.534,0.147-2.97,0.626-4.255,1.421c-0.707,0.568-1.026,0.923-1.169,1.12l-1.385-1.001
			c0.039,0.175,0.03,0.361-0.03,0.539c-0.028,0.08-0.065,0.156-0.111,0.226C138.817,184.649,138.823,184.649,138.83,184.65z
			 M140.561,180.319c-0.136,0-0.296,0.008-0.483,0.025c-1.047,0.151-1.787,0.522-2.155,1.096c-0.188,0.262-0.553,0.767,0.727,1.915
			c0.071,0.064,0.132,0.137,0.182,0.216c0.313-0.395,0.774-0.836,1.401-1.343c1.104-1.306,1.021-1.766,1.021-1.771
			C141.257,180.438,141.104,180.319,140.561,180.319z"/>
	</g>
	<g>
		<path fill="#DE723A" d="M141.121,212.595c-0.793,0-1.729-0.275-2.809-1.022c-1.051-0.763-1.645-1.647-1.784-2.644
			c-0.079-0.568-0.007-1.157,0.217-1.76c-5.366,0.058-10.353,0.1-14.957,0.132c-9.926,0.101-17.111,0.048-21.354-0.151
			c-15.208-0.758-26.93-1.314-34.875-1.655c0.014,2.87-0.536,4.543-1.705,5.229c-0.914,0.536-2.042,0.393-3.353-0.425
			c-0.962-0.613-1.393-1.555-1.25-2.692c-0.459,0.163-0.941,0.303-1.445,0.42c-1.518,0.373-2.643,0.28-3.426-0.29
			c-0.412-0.3-0.92-0.885-0.997-1.965c-0.172-2.366,1.232-3.867,3.854-4.115c0.581-0.052,1.26-0.067,2.032-0.044
			c-0.257-0.409-0.469-0.855-0.634-1.339c-0.343-0.983-0.303-1.822,0.121-2.487c0.444-0.697,1.26-1.111,2.424-1.229
			c1.416-0.146,3.361,0.222,4.56,2.827c0.626,1.335,0.704,2.386,0.505,3.203l10.408,0.215c8.998,0.199,15.986,0.401,20.771,0.601
			c6.772,0.265,14.6,0.415,23.262,0.448c6.807,0.029,11.82-0.023,14.975-0.147c-0.613-1.283-0.161-2.305,0.26-2.888
			c0.706-1.083,1.924-1.755,3.591-1.958c2.638-0.311,3.27,0.944,3.406,1.721c0.059,0.223,0.077,0.457,0.052,0.704
			c0.772-0.222,1.568-0.365,2.385-0.429c2.359-0.197,3.951,0.444,4.755,1.919c0.618,1.102,0.725,2.102,0.311,2.962
			c-0.509,1.057-1.729,1.729-3.727,2.055c-0.666,0.104-1.668,0.164-3.03,0.184c0.446,0.454,0.707,0.911,0.803,1.391
			c0.09,0.45,0.069,1.129-0.539,1.806C143.404,211.797,142.47,212.595,141.121,212.595z M139.241,206.801
			c-0.557,0.721-0.803,1.344-0.731,1.851c0.061,0.438,0.384,0.872,0.959,1.29c1.604,1.109,2.364,0.618,2.943-0.08
			c0.079-0.089,0.093-0.123,0.094-0.125l0,0c-0.006,0-0.14-0.661-2.706-1.885C139.4,207.661,139.177,207.232,139.241,206.801z
			 M61.83,204c0.271,0,0.541,0.109,0.738,0.324c0.368,0.401,0.347,1.022-0.046,1.398c-0.634,0.605-1.047,1.23-1.23,1.858
			c-0.184,0.665,0.026,0.865,0.277,1.024c0.692,0.433,1.114,0.483,1.275,0.392c0.09-0.053,0.872-0.626,0.688-4.501
			c-0.008-0.173,0.029-0.344,0.105-0.496c-0.016-0.032-0.031-0.066-0.044-0.102c-0.143-0.385-0.036-0.818,0.27-1.092
			c0.245-0.22,0.896-0.805,0.062-2.581c-0.757-1.648-1.757-1.758-2.54-1.681c-0.587,0.061-0.875,0.207-0.943,0.314
			c-0.054,0.085-0.065,0.336,0.083,0.761c0.354,1.035,0.985,1.786,1.934,2.303c0.418,0.228,0.618,0.719,0.477,1.174
			c-0.141,0.454-0.583,0.741-1.057,0.699c-1.887-0.192-3.388-0.241-4.461-0.149c-1.799,0.171-2.118,0.915-2.04,1.98
			c0.018,0.253,0.078,0.418,0.179,0.491c0.097,0.07,0.511,0.274,1.785-0.038c1.576-0.364,2.859-0.979,3.828-1.831
			C61.36,204.082,61.596,204,61.83,204z M138.48,205.15c0.38,0,0.728,0.216,0.896,0.557c0.093,0.188,0.122,0.396,0.092,0.594
			c0.189-0.223,0.427-0.355,0.783-0.352c3.063,0.066,5.126,0.02,6.125-0.137c1.796-0.292,2.169-0.799,2.24-0.947
			c0.15-0.312-0.098-0.839-0.259-1.126c-0.151-0.277-0.591-1.084-2.841-0.894c-1.525,0.119-2.959,0.567-4.271,1.332
			c-0.874,0.688-1.144,1.038-1.22,1.158l-1.407-0.892c0.024,0.158,0.012,0.322-0.042,0.479c-0.028,0.081-0.065,0.157-0.111,0.227
			C138.468,205.15,138.474,205.15,138.48,205.15z M140.325,200.805c-0.155,0-0.345,0.011-0.576,0.038
			c-1.066,0.129-1.78,0.49-2.182,1.104c-0.196,0.273-0.549,0.761,0.73,1.907c0.07,0.062,0.13,0.134,0.178,0.21
			c0.311-0.414,0.802-0.882,1.521-1.448c1.046-1.168,0.969-1.608,0.968-1.612c0,0-0.022-0.098-0.025-0.108l0,0
			C140.932,200.896,140.783,200.805,140.325,200.805z"/>
	</g>
</g>
<path fill-rule="evenodd" clip-rule="evenodd" fill="#DE723A" d="M157.98,28.35c2.834-4,5.684-7.6,8.551-10.8
	c2.967-3.333,7.049-7.2,12.25-11.6c1.699,6.2,2.732,13.7,3.1,22.5c0.734,17.6-2.199,32.867-8.801,45.8
	c-7.299,14.267-15.916,25.533-25.85,33.8c-11.232,9.4-23.467,14.267-36.7,14.601c-14.399,0.366-26.7-2.484-36.899-8.55
	c-10.867-6.5-21.784-18-32.75-34.5c-9.4-14.1-13.017-31.6-10.85-52.5c1.067-10.434,3.083-19.467,6.05-27.1l5.55,4.6
	c4.133,3.633,7.233,6.966,9.3,10c2.1,3.033,4.017,6.583,5.75,10.65c0.866,2.066,1.533,3.816,2,5.25l3.8-2.05
	c3.233-1.633,6.717-3.117,10.45-4.45c11.866-4.267,23.783-6.217,35.75-5.85c10.733,0.3,21.6,2.917,32.6,7.85
	c5.5,2.5,9.934,4.95,13.299,7.35L157.98,28.35z"/>
<path fill-rule="evenodd" clip-rule="evenodd" fill="#CD4917" d="M52.431,34.25c-1.067,0.733-3.983,2.566-8.75,5.5
	c-3.833,2.333-6.483,4.1-7.95,5.3c-0.733-4.933-0.567-11.066,0.5-18.4c0.933-6.533,2.083-11.233,3.45-14.1
	c2.566,1.967,5,4.867,7.3,8.7C49.448,25.316,51.264,29.65,52.431,34.25z"/>
<path fill-rule="evenodd" clip-rule="evenodd" fill="#CD4917" d="M160.781,35.7c1.633-3.167,3.799-6.417,6.5-9.75
	c2.633-3.267,5.35-6.083,8.15-8.45c0.898,3.233,1.35,7.8,1.35,13.7c0,6.967-0.768,12.767-2.301,17.4
	c-1.299-1.434-3.449-3.517-6.449-6.25C163.764,38.45,161.348,36.233,160.781,35.7z"/>
<path fill-rule="evenodd" clip-rule="evenodd" fill="#D8642E" d="M80.881,63.131c-0.468,0.652-1.866,1.065-4.193,1.24
	c-2.563,0.166-4.692-0.166-6.388-0.995c-1.837-0.915-3.148-2.086-3.934-3.513c-0.905-1.615-0.925-3.255-0.059-4.92
	c0.865-1.665,2.456-2.651,4.77-2.958c2.284-0.271,4.267,0.26,5.946,1.594c1.973,1.571,3.275,3.463,3.907,5.677
	C81.456,61.078,81.439,62.37,80.881,63.131z"/>
<path fill-rule="evenodd" clip-rule="evenodd" fill="#560000" d="M80.881,63.131c-0.468,0.652-1.866,1.065-4.193,1.24
	c-2.563,0.166-4.692-0.166-6.388-0.995c-1.837-0.915-3.148-2.086-3.934-3.513c-0.905-1.615-0.925-3.255-0.059-4.92
	c0.865-1.665,2.456-2.651,4.77-2.958c2.284-0.271,4.267,0.26,5.946,1.594c1.973,1.571,3.275,3.463,3.907,5.677
	C81.456,61.078,81.439,62.37,80.881,63.131z"/>
<path fill-rule="evenodd" clip-rule="evenodd" fill="#6E1F1F" d="M74.278,63.033c-1.369,0.212-2.662-0.096-3.878-0.922
	c-1.215-0.826-1.991-1.924-2.328-3.295c-0.328-1.322-0.129-2.519,0.599-3.59c0.728-1.07,1.776-1.711,3.146-1.922
	c1.379-0.163,2.677,0.169,3.892,0.994c1.216,0.826,1.987,1.901,2.314,3.223c0.337,1.371,0.142,2.592-0.585,3.662
	C76.71,62.254,75.657,62.871,74.278,63.033z"/>
<path fill-rule="evenodd" clip-rule="evenodd" fill="#F5D2AF" fill-opacity="0.498" d="M74.031,56.85
	c0.467,0.2,0.783,0.566,0.95,1.1c0.2,0.434,0.184,0.883-0.05,1.35c-0.101,0.367-0.367,0.684-0.8,0.95
	c-0.467,0.2-0.967,0.25-1.5,0.15c-0.7-0.2-1.184-0.55-1.45-1.05c-0.233-0.467-0.233-0.934,0-1.4c0.133-0.466,0.467-0.816,1-1.05
	C72.814,56.633,73.431,56.617,74.031,56.85z"/>
<path fill-rule="evenodd" clip-rule="evenodd" fill="#D8642E" d="M131.93,63.131c0.469,0.652,1.867,1.065,4.195,1.24
	c2.562,0.166,4.691-0.166,6.387-0.995c1.838-0.915,3.148-2.086,3.934-3.513c0.904-1.615,0.924-3.255,0.059-4.92
	c-0.865-1.665-2.455-2.651-4.77-2.958c-2.285-0.271-4.266,0.26-5.945,1.594c-1.975,1.571-3.277,3.463-3.908,5.677
	C131.355,61.078,131.373,62.37,131.93,63.131z"/>
<path fill-rule="evenodd" clip-rule="evenodd" fill="#560000" d="M131.93,63.131c0.469,0.652,1.867,1.065,4.195,1.24
	c2.562,0.166,4.691-0.166,6.387-0.995c1.838-0.915,3.148-2.086,3.934-3.513c0.904-1.615,0.924-3.255,0.059-4.92
	c-0.865-1.665-2.455-2.651-4.77-2.958c-2.285-0.271-4.266,0.26-5.945,1.594c-1.975,1.571-3.277,3.463-3.908,5.677
	C131.355,61.078,131.373,62.37,131.93,63.131z"/>
<path fill-rule="evenodd" clip-rule="evenodd" fill="#6E1F1F" d="M138.533,63.033c1.369,0.212,2.662-0.096,3.879-0.922
	c1.215-0.826,1.99-1.924,2.328-3.295c0.328-1.322,0.129-2.519-0.6-3.59c-0.727-1.07-1.775-1.711-3.146-1.922
	c-1.379-0.163-2.676,0.169-3.891,0.994c-1.217,0.826-1.988,1.901-2.314,3.223c-0.338,1.371-0.143,2.592,0.584,3.662
	C136.102,62.254,137.154,62.871,138.533,63.033z"/>
<path fill-rule="evenodd" clip-rule="evenodd" fill="#F5D2AF" fill-opacity="0.498" d="M138.781,56.85
	c-0.467,0.2-0.783,0.567-0.951,1.1c-0.199,0.433-0.182,0.883,0.051,1.35c0.1,0.367,0.367,0.683,0.801,0.95
	c0.467,0.2,0.967,0.25,1.5,0.15c0.699-0.2,1.184-0.55,1.449-1.05c0.234-0.467,0.234-0.933,0-1.4c-0.133-0.467-0.467-0.817-1-1.05
	C139.998,56.633,139.381,56.616,138.781,56.85z"/>
<path fill-rule="evenodd" clip-rule="evenodd" fill="#F5D2AF" d="M39.331,78.45c-2.434-4.7-4.15-8.683-5.15-11.95l3.75,0.25
	c3.1,0.367,6.267,0.967,9.5,1.8c10.333,2.733,19.233,7.5,26.7,14.3c7.6,6.966,14.25,15.667,19.949,26.1
	c2.834,5.233,4.917,9.767,6.25,13.6c-3.699,0.134-8.267-0.566-13.699-2.1c-10.834-3.1-20.551-8.867-29.15-17.3
	C50.248,96.05,44.198,87.816,39.331,78.45z"/>
<path fill-rule="evenodd" clip-rule="evenodd" fill="#F5D2AF" d="M175.23,69.7c-0.633,2.4-2.016,5.567-4.15,9.5
	c-4.232,7.9-10.033,15.784-17.398,23.65c-6.434,6.867-13.984,12-22.65,15.4c-4.334,1.7-8.033,2.7-11.1,3
	c0.467-3.667,1.567-7.967,3.299-12.9c3.5-9.833,8.451-17.883,14.85-24.15c5.9-5.733,13.867-9.867,23.9-12.4
	C166.98,70.533,171.398,69.833,175.23,69.7z"/>
<use xlink:href="#mustache"  width="64.184" height="29.195" x="-32.081" y="-14.589" transform="matrix(1 0 0 -1 110.3813 109.6001)" overflow="visible"/>
</svg>
