<?xml version="1.0" encoding="utf-8"?>
<!-- Generator: Adobe Illustrator 15.0.2, SVG Export Plug-In . SVG Version: 6.00 Build 0)  -->
<!DOCTYPE svg PUBLIC "-//W3C//DTD SVG 1.1//EN" "http://www.w3.org/Graphics/SVG/1.1/DTD/svg11.dtd">
<svg version="1.1" id="Layer_1" xmlns="http://www.w3.org/2000/svg" xmlns:xlink="http://www.w3.org/1999/xlink" x="0px" y="0px"
	 width="153px" height="180px" viewBox="0 0 153 180" enable-background="new 0 0 153 180" xml:space="preserve">
<g>
	<path fill="#FCF0CF" d="M133.372,180c2.796,0,5.254-2.072,5.464-4.605l14.149-170.79C153.194,2.072,151.079,0,148.284,0H19.628
		c-2.795,0-5.254,2.072-5.463,4.605l-14.15,170.79C-0.195,177.928,1.918,180,4.717,180H133.372z"/>
	<g>
		<path fill="#D1CCBA" d="M5.799,171.923L19.374,8.078c0.143-1.745,1.826-3.164,3.752-3.164H143.97c1.927,0,3.377,1.419,3.232,3.164
			l-13.574,163.845c-0.145,1.744-1.83,3.164-3.757,3.164H9.028C7.103,175.087,5.653,173.667,5.799,171.923z M146.724,8.078
			c0.127-1.507-1.127-2.733-2.789-2.733H23.092c-1.663,0-3.12,1.226-3.243,2.733L6.274,171.923
			c-0.125,1.506,1.126,2.732,2.789,2.732h120.844c1.664,0,3.119-1.227,3.244-2.732L146.724,8.078z"/>
		<path fill="#D1CCBA" d="M8.122,171.635L21.65,8.366c0.062-0.753,0.79-1.367,1.622-1.367h120.209c0.831,0,1.457,0.614,1.395,1.367
			l-13.527,163.269c-0.062,0.754-0.787,1.366-1.621,1.366H9.52C8.688,173.001,8.059,172.389,8.122,171.635z M144.399,8.366
			c0.043-0.516-0.387-0.936-0.955-0.936H23.237c-0.57,0-1.068,0.42-1.11,0.936L8.6,171.635c-0.045,0.516,0.385,0.936,0.955,0.936
			h120.208c0.568,0,1.066-0.42,1.109-0.936L144.399,8.366z"/>
	</g>
	<polygon fill="#C7C4BA" points="13.372,169.058 126.53,169.058 139.63,10.942 26.472,10.942 	"/>
	<polygon fill="#AAABA8" points="16.733,166.413 123.604,166.413 136.269,13.586 29.396,13.586 	"/>
	<g>
		<g>
			<path fill="#EEE09C" d="M124.087,90c-1.973,23.812-24.878,43.114-51.159,43.114c-31.976,0-45.436-25.946-44.013-43.114
				c1.973-23.812,24.875-43.115,51.157-43.115C106.354,46.885,126.058,66.188,124.087,90z"/>
		</g>
		<g>
			<path fill="#8A4E4B" d="M81.049,105.489c-0.046-0.293-0.703-0.414-1.475-0.267c-0.77,0.146-1.357,0.507-1.311,0.799
				c0.047,0.297,0.705,0.417,1.475,0.271C80.508,106.145,81.093,105.783,81.049,105.489z"/>
			<path fill="#8A4E4B" d="M70.511,105.489c0.094-0.293,0.773-0.414,1.518-0.267c0.746,0.146,1.273,0.507,1.176,0.799
				c-0.09,0.297-0.771,0.417-1.52,0.271C70.944,106.145,70.417,105.783,70.511,105.489z"/>
		</g>
		<path fill="#C29A5B" d="M74.757,117.812c7.495,0,14.348,1.905,20.067,5.212c-4.969-5.345-11.891-8.604-19.787-8.604
			c-7.894,0-15.355,3.259-21.21,8.604C60.097,119.717,67.263,117.812,74.757,117.812z"/>
		<g>
			<g>
				<path fill="#FFFFFF" d="M95.502,88.007c-2.883-1.201-5.203-3.445-7.234-4.804c-2.246,3.857,0.052,9.075,4.738,11.029
					c4.814,2.002,10.926,0.13,13.388-4.06C106.409,90.148,99.164,89.531,95.502,88.007z"/>
				<path fill="#560000" d="M93.256,94.256c1.146,0.477,2.338,0.751,3.521,0.85c0.901-0.449,1.681-1.139,2.189-2.028
					c0.726-1.266,0.747-2.653,0.196-3.797c-1.107-0.374-2.24-0.796-3.383-1.272c-0.736-0.305-1.447-0.623-2.137-0.946
					c-1.349,0.353-2.57,1.208-3.273,2.435c-0.456,0.798-0.631,1.641-0.562,2.443C90.711,92.873,91.868,93.676,93.256,94.256z"/>
				<path fill="#FFFFFF" d="M97.076,89.895c-0.384,0.671-1.279,0.973-1.996,0.675c-0.713-0.298-0.983-1.081-0.596-1.752
					c0.385-0.673,1.274-0.975,1.99-0.676C97.191,88.435,97.461,89.223,97.076,89.895z"/>
				<g>
					<path fill="#713710" d="M103.269,90.524c-3.642,0-9.67-1.107-15.029-7.265l0.904-0.788c7.835,9.002,17.044,6.573,17.139,6.548
						l0.32,1.156C106.567,90.185,105.283,90.524,103.269,90.524z"/>
				</g>
				<path fill="#713710" d="M99.903,95.853c-1.631,0-7.1-0.4-13.038-5.294l0.637-0.771c6.639,5.472,12.741,5.055,12.806,5.055
					l0.078,0.996C100.348,95.842,100.181,95.853,99.903,95.853z"/>
			</g>
			<g>
				<path fill="#FFFFFF" d="M58.954,88.007c-5.674,2.677-11.258,2.139-11.251,2.165c1.391,4.801,7.569,6.062,12.714,4.06
					c5.013-1.954,8.226-6.702,6.573-11.029C64.736,84.562,61.939,86.599,58.954,88.007z"/>
				<path fill="#560000" d="M63.771,89.496c-0.535-1.311-1.729-2.193-3.139-2.497c-1.43,1.144-3.396,1.958-5.594,2.242
					c-0.761,1.152-0.98,2.556-0.459,3.836c0.361,0.89,1.027,1.579,1.854,2.028c1.197-0.099,2.437-0.373,3.662-0.85
					c1.48-0.58,2.774-1.383,3.834-2.316C64.13,91.137,64.095,90.293,63.771,89.496z"/>
				<path fill="#FFFFFF" d="M56.999,89.895c0.272,0.671,1.115,0.973,1.883,0.675c0.763-0.298,1.161-1.081,0.887-1.752
					c-0.274-0.673-1.114-0.975-1.876-0.676C57.125,88.435,56.724,89.223,56.999,89.895z"/>
				<g>
					<path fill="#713710" d="M50.983,90.561c-2.006,0-3.262-0.348-3.4-0.388l0.334-1.153c0.087,0.026,8.941,2.428,18.283-6.587
						l0.833,0.863C60.682,89.426,54.608,90.561,50.983,90.561z"/>
				</g>
				<path fill="#713710" d="M53.334,95.853c-0.277,0-0.442-0.012-0.48-0.015l0.079-0.996c0.06-0.002,6.138,0.399,13.689-5.074
					l0.587,0.81C60.483,95.453,54.962,95.853,53.334,95.853z"/>
			</g>
		</g>
		<g>
			<g>
				<path fill="#713710" d="M55.39,78.788c-3.359,1.827-6.717,3.173-9.842,4.026c2.814,0.089,6.59-0.918,10.369-2.977
					c3.777-2.058,6.728-4.705,8.267-7.165C61.722,74.858,58.751,76.96,55.39,78.788z"/>
			</g>
			<g>
				<path fill="#713710" d="M100.419,78.808c3.146,1.708,6.348,2.933,9.379,3.671c-2.832,0.195-6.494-0.676-10.034-2.6
					c-3.538-1.921-6.176-4.466-7.42-6.874C94.543,75.105,97.273,77.102,100.419,78.808z"/>
			</g>
		</g>
	</g>
</g>
</svg>
