<?xml version="1.0" encoding="utf-8"?>
<!-- Generator: Adobe Illustrator 15.0.2, SVG Export Plug-In . SVG Version: 6.00 Build 0)  -->
<!DOCTYPE svg PUBLIC "-//W3C//DTD SVG 1.1//EN" "http://www.w3.org/Graphics/SVG/1.1/DTD/svg11.dtd">
<svg version="1.1" id="Layer_1" xmlns="http://www.w3.org/2000/svg" xmlns:xlink="http://www.w3.org/1999/xlink" x="0px" y="0px"
	 width="1600px" height="900px" viewBox="0 0 1600 900" enable-background="new 0 0 1600 900" xml:space="preserve">
<g>
	<g>
		<g>
			<rect x="12.439" y="92.5" fill="#701008" width="1566.26" height="721.158"/>
			<g>
				<rect x="12.441" y="293.283" fill="#811200" width="1566.258" height="44.567"/>
				<rect x="12.441" y="244.011" fill="#811200" width="1566.258" height="44.569"/>
				<rect x="12.441" y="194.738" fill="#811200" width="1566.258" height="44.566"/>
				<rect x="12.441" y="145.464" fill="#811200" width="1566.258" height="44.569"/>
				<rect x="12.441" y="96.192" fill="#811200" width="1566.258" height="44.568"/>
				<rect x="12.441" y="342.555" fill="#811200" width="1566.258" height="44.57"/>
				<rect x="12.441" y="391.832" fill="#811200" width="1566.258" height="44.569"/>
				<rect x="12.441" y="441.104" fill="#811200" width="1566.258" height="44.572"/>
				<rect x="12.441" y="490.381" fill="#811200" width="1566.258" height="44.568"/>
				<rect x="12.441" y="539.654" fill="#811200" width="1566.258" height="44.568"/>
				<rect x="12.441" y="588.928" fill="#811200" width="1566.258" height="44.567"/>
				<rect x="12.441" y="638.201" fill="#811200" width="1566.258" height="44.568"/>
				<rect x="12.441" y="687.475" fill="#811200" width="1566.258" height="44.568"/>
				<rect x="12.441" y="736.748" fill="#811200" width="1566.258" height="44.568"/>
			</g>
		</g>
	</g>
</g>
<rect y="782.939" fill="#6C0900" width="1600" height="117.061"/>
<rect fill="#971B00" width="1600" height="146.208"/>
<path fill="#9A4133" d="M1600,830.345l-74.077-47.405V146.208c0,0,25.784-41.708,74.077-71.866V830.345z"/>
<path fill="#9A4133" d="M0,830.345l74.079-47.405V146.208c0,0-24.256-44.087-74.079-71.866V830.345z"/>
<g>
	<g>
		<g>
			<rect x="1391.373" y="535.26" fill="#6C0900" width="171.852" height="28.713"/>
			<polygon fill="#9A4133" points="1487.225,522.521 1352.277,522.521 1391.373,535.26 1563.225,535.26 			"/>
			<polygon fill="#89200F" points="1352.277,545.775 1391.373,563.973 1391.373,535.26 1352.277,522.521 			"/>
		</g>
		<g>
			<rect x="36.776" y="535.26" fill="#6C0900" width="171.851" height="26.893"/>
			<polygon fill="#9A4133" points="112.776,522.521 247.722,522.521 208.626,535.26 36.776,535.26 			"/>
			<polygon fill="#89200F" points="247.722,543.956 208.626,562.152 208.626,535.26 247.722,522.521 			"/>
		</g>
	</g>
	<g>
		<g>
			<rect x="1170.549" y="436.595" fill="#6C0900" width="171.852" height="26.893"/>
			<polygon fill="#9A4133" points="1276.4,425.677 1141.455,425.677 1170.549,436.595 1342.4,436.595 			"/>
			<polygon fill="#89200F" points="1141.455,447.111 1170.549,463.488 1170.549,436.595 1141.455,425.677 			"/>
		</g>
		<g>
			<rect x="257.599" y="436.595" fill="#6C0900" width="171.852" height="27.803"/>
			<polygon fill="#9A4133" points="323.599,425.677 458.545,425.677 429.451,436.595 257.599,436.595 			"/>
			<polygon fill="#89200F" points="458.545,448.021 429.451,464.398 429.451,436.595 458.545,425.677 			"/>
		</g>
	</g>
	<g>
		<g>
			<rect x="475.828" y="472.854" fill="#6C0900" width="171.852" height="26.895"/>
			<polygon fill="#9A4133" points="525.828,461.026 666.774,461.026 647.679,472.854 475.828,472.854 			"/>
			<polygon fill="#89200F" points="666.774,482.461 647.679,499.748 647.679,472.854 666.774,461.026 			"/>
		</g>
		<g>
			<rect x="952.318" y="472.854" fill="#6C0900" width="171.854" height="26.895"/>
			<polygon fill="#9A4133" points="1074.172,461.026 933.225,461.026 952.318,472.854 1124.172,472.854 			"/>
			<polygon fill="#89200F" points="933.225,482.461 952.318,499.748 952.318,472.854 933.225,461.026 			"/>
		</g>
	</g>
	<g>
		<rect x="714.074" y="383.67" fill="#6C0900" width="171.852" height="26.894"/>
		<polygon fill="#9A4133" points="873.926,373.662 725.98,373.662 714.074,383.67 885.926,383.67 		"/>
	</g>
</g>
<g opacity="0.7">
	<g>
		<circle fill="#FCF0CF" cx="1428.041" cy="145.67" r="10.975"/>
		<circle fill="#81B1CA" cx="1307.405" cy="150.084" r="10.972"/>
		<path fill="#DE723A" d="M1277.08,146.527c-0.527,6.038-5.848,10.505-11.886,9.979c-6.037-0.527-10.506-5.847-9.978-11.887
			c0.525-6.038,5.846-10.504,11.883-9.978C1273.141,135.168,1277.605,140.489,1277.08,146.527z"/>
		<path fill="#C7473A" d="M1514.556,127.159c-0.526,6.038-5.85,10.504-11.888,9.977c-6.036-0.525-10.502-5.846-9.977-11.884
			c0.525-6.04,5.846-10.507,11.884-9.98S1515.082,121.12,1514.556,127.159z"/>
		<circle fill="#EBDB8A" cx="1389.05" cy="151.282" r="10.974"/>
		<path fill="#EBDB8A" d="M1231.809,138.571c-0.525,6.039-5.848,10.507-11.883,9.981c-6.041-0.526-10.506-5.85-9.98-11.887
			c0.527-6.037,5.848-10.505,11.886-9.978C1227.869,127.214,1232.336,132.535,1231.809,138.571z"/>
		<path fill="#69C4BA" d="M1190.877,129.641c-0.528,6.039-5.85,10.507-11.887,9.98c-6.035-0.526-10.505-5.847-9.978-11.885
			c0.524-6.038,5.847-10.507,11.884-9.98S1191.402,123.605,1190.877,129.641z"/>
		<path fill="#69C4BA" d="M1476.06,137.844c-0.525,6.039-5.847,10.506-11.888,9.979c-6.037-0.527-10.504-5.848-9.977-11.885
			c0.523-6.037,5.848-10.506,11.883-9.979C1472.119,126.486,1476.586,131.807,1476.06,137.844z"/>
		<path fill="#69C4BA" d="M1359.287,153.695c-0.525,6.038-5.85,10.505-11.887,9.979c-6.037-0.526-10.506-5.847-9.976-11.886
			c0.524-6.037,5.847-10.505,11.883-9.979C1355.346,142.336,1359.813,147.656,1359.287,153.695z"/>
	</g>
	<g>
		<path fill="#FCF0CF" d="M1079.182,146.624c-0.527,6.036-5.846,10.504-11.886,9.979c-6.036-0.526-10.505-5.848-9.979-11.886
			c0.526-6.038,5.849-10.505,11.884-9.979C1075.242,135.263,1079.71,140.586,1079.182,146.624z"/>
		<path fill="#81B1CA" d="M958.545,151.038c-0.525,6.038-5.846,10.504-11.882,9.978c-6.042-0.527-10.507-5.849-9.979-11.886
			c0.527-6.04,5.848-10.506,11.885-9.979C954.607,139.678,959.072,144.999,958.545,151.038z"/>
		<circle fill="#DE723A" cx="906.358" cy="145.573" r="10.974"/>
		<path fill="#C7473A" d="M1154.766,127.159c-0.527,6.038-5.85,10.504-11.887,9.977c-6.038-0.525-10.504-5.846-9.979-11.884
			c0.525-6.04,5.848-10.507,11.883-9.98C1150.824,115.799,1155.291,121.12,1154.766,127.159z"/>
		<path fill="#EBDB8A" d="M1040.192,152.237c-0.526,6.036-5.847,10.504-11.888,9.978c-6.035-0.527-10.502-5.849-9.977-11.886
			c0.525-6.038,5.848-10.505,11.885-9.979C1036.254,140.876,1040.721,146.197,1040.192,152.237z"/>
		<circle fill="#EBDB8A" cx="861.087" cy="137.618" r="10.974"/>
		<path fill="#69C4BA" d="M831.088,129.641c-0.529,6.039-5.852,10.507-11.889,9.98c-6.036-0.526-10.506-5.847-9.979-11.885
			c0.525-6.038,5.846-10.507,11.887-9.98C827.143,118.283,831.611,123.605,831.088,129.641z"/>
		<circle fill="#69C4BA" cx="1105.336" cy="136.891" r="10.973"/>
		<path fill="#69C4BA" d="M999.496,153.695c-0.524,6.038-5.847,10.505-11.887,9.979c-6.037-0.526-10.504-5.847-9.977-11.886
			c0.525-6.037,5.846-10.505,11.885-9.979C995.556,142.336,1000.024,147.656,999.496,153.695z"/>
	</g>
	<g>
		<circle fill="#FCF0CF" cx="708.46" cy="145.67" r="10.974"/>
		<path fill="#81B1CA" d="M598.756,151.038c-0.527,6.038-5.847,10.504-11.887,9.978c-6.037-0.527-10.503-5.849-9.977-11.886
			c0.525-6.04,5.849-10.506,11.885-9.979C594.818,139.678,599.283,144.999,598.756,151.038z"/>
		<path fill="#DE723A" d="M557.5,146.527c-0.527,6.038-5.848,10.505-11.889,9.979c-6.035-0.527-10.505-5.847-9.979-11.887
			c0.527-6.038,5.85-10.504,11.887-9.978C553.558,135.168,558.025,140.489,557.5,146.527z"/>
		<path fill="#C7473A" d="M794.975,127.159c-0.527,6.038-5.848,10.504-11.889,9.977c-6.035-0.525-10.502-5.846-9.979-11.884
			c0.525-6.04,5.85-10.507,11.885-9.98C791.034,115.799,795.502,121.12,794.975,127.159z"/>
		<circle fill="#EBDB8A" cx="669.47" cy="151.282" r="10.973"/>
		<path fill="#EBDB8A" d="M512.227,138.571c-0.525,6.039-5.846,10.507-11.883,9.981c-6.039-0.526-10.505-5.85-9.98-11.887
			c0.528-6.037,5.85-10.505,11.887-9.978C508.289,127.214,512.756,132.535,512.227,138.571z"/>
		<circle fill="#69C4BA" cx="460.362" cy="128.689" r="10.974"/>
		<path fill="#69C4BA" d="M756.479,137.844c-0.527,6.039-5.848,10.506-11.885,9.979c-6.041-0.527-10.508-5.848-9.98-11.885
			s5.848-10.506,11.885-9.979C752.539,126.486,757.004,131.807,756.479,137.844z"/>
		<path fill="#69C4BA" d="M639.703,153.695c-0.523,6.038-5.845,10.505-11.885,9.979c-6.035-0.526-10.504-5.847-9.977-11.886
			c0.525-6.037,5.849-10.505,11.884-9.979C635.766,142.336,640.234,147.656,639.703,153.695z"/>
	</g>
	<g>
		<circle fill="#FCF0CF" cx="348.669" cy="145.67" r="10.974"/>
		<path fill="#81B1CA" d="M238.965,151.038c-0.525,6.038-5.848,10.504-11.885,9.978c-6.037-0.527-10.504-5.849-9.977-11.886
			c0.524-6.04,5.848-10.506,11.883-9.979C235.027,139.678,239.492,144.999,238.965,151.038z"/>
		<circle fill="#DE723A" cx="186.776" cy="145.573" r="10.974"/>
		<path fill="#C7473A" d="M435.184,127.159c-0.527,6.038-5.848,10.504-11.887,9.977c-6.036-0.525-10.504-5.846-9.979-11.884
			c0.526-6.04,5.85-10.507,11.885-9.98C431.24,115.799,435.71,121.12,435.184,127.159z"/>
		<circle fill="#EBDB8A" cx="309.679" cy="151.282" r="10.974"/>
		<circle fill="#EBDB8A" cx="141.506" cy="137.618" r="10.973"/>
		<circle fill="#69C4BA" cx="100.572" cy="128.689" r="10.973"/>
		<path fill="#69C4BA" d="M396.688,137.844c-0.527,6.039-5.846,10.506-11.887,9.979c-6.036-0.527-10.504-5.848-9.978-11.885
			c0.524-6.037,5.848-10.506,11.886-9.979C392.748,126.486,397.215,131.807,396.688,137.844z"/>
		<path fill="#69C4BA" d="M279.916,153.695c-0.525,6.038-5.848,10.505-11.889,9.979c-6.035-0.526-10.504-5.847-9.975-11.886
			c0.523-6.037,5.846-10.505,11.883-9.979C275.974,142.336,280.442,147.656,279.916,153.695z"/>
	</g>
</g>
</svg>
