<?xml version="1.0" encoding="utf-8"?>
<!-- Generator: Adobe Illustrator 15.0.2, SVG Export Plug-In . SVG Version: 6.00 Build 0)  -->
<!DOCTYPE svg PUBLIC "-//W3C//DTD SVG 1.1//EN" "http://www.w3.org/Graphics/SVG/1.1/DTD/svg11.dtd">
<svg version="1.1" id="Layer_1" xmlns="http://www.w3.org/2000/svg" xmlns:xlink="http://www.w3.org/1999/xlink" x="0px" y="0px"
	 width="1600px" height="900px" viewBox="0 0 1600 900" enable-background="new 0 0 1600 900" xml:space="preserve">
<g>
	<rect fill="#AAABA8" width="1600" height="900"/>
</g>
<g>
	<g>
		<g>
			<rect fill="#B5B6B3" width="53.999" height="900"/>
			<rect x="96.625" fill="#B5B6B3" width="54" height="900"/>
			<rect x="193.249" fill="#B5B6B3" width="54.001" height="900"/>
			<rect x="289.875" fill="#B5B6B3" width="54" height="900"/>
			<rect x="386.499" fill="#B5B6B3" width="53.999" height="900"/>
			<rect x="483.123" fill="#B5B6B3" width="54.001" height="900"/>
			<rect x="579.75" fill="#B5B6B3" width="54.001" height="900"/>
			<rect x="676.375" fill="#B5B6B3" width="54" height="900"/>
			<rect x="869.626" fill="#B5B6B3" width="54" height="900"/>
			<rect x="773.001" fill="#B5B6B3" width="53.999" height="900"/>
			<rect x="966.252" fill="#B5B6B3" width="53.998" height="900"/>
			<rect x="1062.877" fill="#B5B6B3" width="53.999" height="900"/>
			<rect x="1159.503" fill="#B5B6B3" width="53.997" height="900"/>
			<rect x="1256.127" fill="#B5B6B3" width="53.999" height="900"/>
			<rect x="1352.751" fill="#B5B6B3" width="53.999" height="900"/>
			<rect x="1449.377" fill="#B5B6B3" width="53.997" height="900"/>
			<rect x="1546.003" fill="#B5B6B3" width="53.997" height="900"/>
		</g>
	</g>
</g>
<g>
	<g>
		<rect y="684" fill="#FCF0CF" width="1599.301" height="216"/>
		<rect x="0.699" y="684" fill="#D1CCBA" width="1599.301" height="16"/>
	</g>
</g>
<g>
	<rect fill="#FCF0CF" width="216" height="898"/>
	<rect x="200" fill="#D1CCBA" width="16" height="700"/>
</g>
</svg>
