<?xml version="1.0" encoding="utf-8"?>
<!-- Generator: Adobe Illustrator 15.0.2, SVG Export Plug-In . SVG Version: 6.00 Build 0)  -->
<!DOCTYPE svg PUBLIC "-//W3C//DTD SVG 1.1//EN" "http://www.w3.org/Graphics/SVG/1.1/DTD/svg11.dtd">
<svg version="1.1" id="Layer_1" xmlns="http://www.w3.org/2000/svg" xmlns:xlink="http://www.w3.org/1999/xlink" x="0px" y="0px"
	 width="138px" height="180px" viewBox="0 0 138 180" enable-background="new 0 0 138 180" xml:space="preserve">
<g>
	<path fill="#FCF0CF" d="M132.949,180c2.778,0,5.051-2.072,5.051-4.604l-1-170.79C137,2.072,134.728,0,131.949,0H6.052
		C3.272,0,1,2.072,1,4.606l-1,170.79C0,177.928,2.272,180,5.052,180H132.949z"/>
	<g>
		<path fill="#D1CCBA" d="M5.463,171.924l1-163.846c0-1.745,1.558-3.165,3.472-3.165h118.13c1.915,0,3.473,1.42,3.473,3.165
			l1,163.846c0,1.744-1.558,3.164-3.473,3.164H8.935C7.021,175.088,5.463,173.668,5.463,171.924z M131.063,8.078
			c0-1.507-1.344-2.734-2.999-2.734H9.935c-1.653,0-2.999,1.227-2.999,2.734l-1,163.846c0,1.507,1.346,2.732,2.999,2.732h120.13
			c1.655,0,2.999-1.226,2.999-2.732L131.063,8.078z"/>
		<path fill="#D1CCBA" d="M7.75,171.635l1-163.27c0-0.753,0.675-1.367,1.502-1.367h117.497c0.827,0,1.5,0.613,1.5,1.367l1,163.27
			c0,0.754-0.673,1.367-1.5,1.367H9.252C8.425,173.002,7.75,172.389,7.75,171.635z M128.776,8.365c0-0.515-0.462-0.935-1.027-0.935
			H10.252c-0.567,0-1.029,0.42-1.029,0.935l-1,163.27c0,0.516,0.462,0.936,1.029,0.936h119.497c0.565,0,1.027-0.42,1.027-0.936
			L128.776,8.365z"/>
	</g>
	<polygon fill="#C7C4BA" points="12.754,169.06 125.245,169.06 124.245,10.942 13.754,10.942 	"/>
	<polygon fill="#AAABA8" points="15.878,166.414 122.121,166.414 121.121,13.586 16.878,13.586 	"/>
	<g>
		<g>
			<path fill="#8A4E4B" d="M74.37,101.379c-0.07-0.294-0.736-0.414-1.49-0.267c-0.751,0.146-1.304,0.505-1.234,0.799
				c0.067,0.295,0.732,0.417,1.487,0.269C73.885,102.033,74.438,101.672,74.37,101.379z"/>
			<path fill="#8A4E4B" d="M63.894,101.379c0.069-0.294,0.733-0.414,1.486-0.267c0.755,0.146,1.309,0.505,1.238,0.799
				c-0.071,0.295-0.735,0.417-1.49,0.269C64.378,102.033,63.825,101.672,63.894,101.379z"/>
		</g>
		<g>
			<ellipse fill="#EEE09C" cx="69.002" cy="90" rx="47.306" ry="43.113"/>
		</g>
		<g>
			<path fill="#713710" d="M95.731,66.253c-3.646-1.158-7.258-1.785-10.598-1.94c2.953-0.796,6.98-0.637,11.087,0.667
				c4.104,1.301,7.37,3.455,9.14,5.751C102.638,68.96,99.378,67.41,95.731,66.253z"/>
			<path fill="#713710" d="M42.531,66.253c3.646-1.158,7.258-1.785,10.598-1.94c-2.952-0.796-6.981-0.637-11.087,0.667
				c-4.102,1.301-7.369,3.455-9.137,5.751C35.625,68.96,38.884,67.41,42.531,66.253z"/>
		</g>
		<g>
			<path fill="#8A4E4B" d="M74.37,93.334c-0.072-0.295-0.736-0.415-1.49-0.269c-0.751,0.148-1.304,0.506-1.234,0.801
				c0.067,0.296,0.732,0.416,1.485,0.27C73.885,93.99,74.438,93.63,74.37,93.334z"/>
			<path fill="#8A4E4B" d="M63.894,93.334c0.069-0.295,0.733-0.415,1.486-0.269c0.755,0.148,1.307,0.506,1.238,0.801
				c-0.071,0.296-0.739,0.416-1.49,0.27C64.376,93.99,63.823,93.63,63.894,93.334z"/>
		</g>
		<g>
			<path fill="#C29A5B" d="M69.131,101.789c-11.687,0-22.503-2.004-31.363-5.405c4.161,11.966,16.63,20.653,31.363,20.653
				c14.731,0,27.202-8.688,31.361-20.651C91.633,99.785,80.818,101.789,69.131,101.789z"/>
			<g>
				<path fill="#FFFFFF" d="M55.869,111.402c3.478,1.678,8.131,2.712,13.262,2.712c5.132,0,9.786-1.034,13.261-2.712H55.869z"/>
				<path fill="#FFFFFF" d="M69.131,104.205c-8.417,0-16.205-0.687-22.587-1.848c2.996,4.088,11.977,8.581,22.587,8.581
					c10.609,0,19.587-4.493,22.585-8.581C85.334,103.521,77.549,104.205,69.131,104.205z"/>
			</g>
		</g>
		<g>
			<g>
				<g>
					<g>
						<g>
							<path fill="#FFFFFF" d="M49.983,76.726c0,0.789-0.705,1.427-1.571,1.427c-0.866,0-1.569-0.639-1.569-1.427
								c0-0.793,0.703-1.433,1.569-1.433C49.278,75.293,49.983,75.933,49.983,76.726z"/>
						</g>
						<g>
							<path fill="#FFFFFF" d="M41.968,82.891c1.777-0.638,4.13-1.029,6.718-1.029c2.305,0,4.421,0.311,6.114,0.829
								c1.65-0.757,2.901-1.784,3.53-2.966c-2.14-2.917-5.774-4.838-9.911-4.838c-4.325,0-8.1,2.104-10.189,5.246
								C38.98,81.248,40.292,82.203,41.968,82.891z"/>
							<path fill="#560000" d="M52.642,75.598c-1.312-0.455-2.732-0.711-4.223-0.711c-0.321,0-0.638,0.015-0.955,0.038
								c-1.928,0.705-3.293,2.423-3.293,4.433c0,1.032,0.361,1.984,0.973,2.765c1.103-0.166,2.293-0.259,3.542-0.259
								c1.744,0,3.382,0.176,4.812,0.487c0.724-0.819,1.159-1.859,1.159-2.992C54.657,77.83,53.866,76.472,52.642,75.598z"/>
							<path fill="#FFFFFF" d="M47.675,76.726c0,0.789,0.699,1.427,1.567,1.427c0.87,0,1.572-0.639,1.572-1.427
								c0-0.793-0.702-1.433-1.572-1.433C48.374,75.293,47.675,75.933,47.675,76.726z"/>
						</g>
					</g>
					<path fill="#713710" d="M38.409,80.634l-0.777-0.778c10.939-10.933,21.451-0.965,21.556-0.863l-0.766,0.789
						C58.024,79.398,48.575,70.475,38.409,80.634z"/>
					<path fill="#713710" d="M41.657,83.55l-0.332-0.837c6.938-2.752,13.382-0.326,13.653-0.221l-0.324,0.84
						C54.591,83.308,48.255,80.931,41.657,83.55z"/>
				</g>
				<g>
					<g>
						<path fill="#B68D26" d="M36.796,80.555c-0.125-0.001-0.244-0.009-0.369-0.009c-3.943,0-7.223,1.522-7.915,3.531
							C30.511,81.967,33.47,80.613,36.796,80.555z"/>
						<path fill="#B68D26" d="M36.332,79.978c-0.122,0.005-0.243,0.009-0.369,0.009c-3.979,0-7.284-1.171-7.984-2.714
							C29.994,78.894,32.98,79.934,36.332,79.978z"/>
					</g>
				</g>
			</g>
			<g>
				<g>
					<path fill="#FFFFFF" d="M90.804,74.887c-4.134,0-7.767,1.917-9.906,4.824c0.628,1.187,1.862,2.224,3.518,2.98
						c1.694-0.518,3.814-0.829,6.12-0.829c2.587,0,4.938,0.391,6.717,1.029c1.676-0.685,2.99-1.64,3.741-2.752
						C98.904,76.994,95.13,74.887,90.804,74.887z"/>
					<path fill="#560000" d="M91.754,74.924c-0.314-0.023-0.632-0.038-0.95-0.038c-1.491,0-2.914,0.256-4.229,0.712
						c-1.224,0.875-2.012,2.231-2.012,3.758c0,1.133,0.436,2.173,1.158,2.992c1.428-0.311,3.068-0.487,4.813-0.487
						c1.247,0,2.438,0.094,3.54,0.259c0.609-0.781,0.972-1.733,0.972-2.765C95.047,77.347,93.683,75.629,91.754,74.924z"/>
					<path fill="#FFFFFF" d="M91.318,76.726c0,0.789-0.701,1.427-1.566,1.427c-0.868,0-1.571-0.639-1.571-1.427
						c0-0.793,0.703-1.433,1.571-1.433C90.617,75.293,91.318,75.933,91.318,76.726z"/>
				</g>
				<path fill="#713710" d="M100.748,80.634c-10.168-10.159-19.621-1.236-20.019-0.852l-0.767-0.789
					c0.106-0.102,10.618-10.072,21.562,0.863L100.748,80.634z"/>
				<path fill="#713710" d="M97.294,83.55c-6.609-2.624-12.93-0.243-12.993-0.218l-0.324-0.84c0.271-0.104,6.715-2.531,13.649,0.221
					L97.294,83.55z"/>
				<g>
					<path fill="#B68D26" d="M101.826,80.555c0.121-0.001,0.24-0.009,0.363-0.009c3.944,0,7.223,1.522,7.916,3.531
						C108.108,81.967,105.146,80.613,101.826,80.555z"/>
					<path fill="#B68D26" d="M101.93,79.978c0.124,0.005,0.242,0.009,0.367,0.009c3.978,0,7.284-1.171,7.985-2.714
						C108.271,78.894,105.28,79.934,101.93,79.978z"/>
				</g>
			</g>
		</g>
		<path fill="none" stroke="#713710" stroke-width="1.0635" stroke-miterlimit="10" d="M69.131,80.386"/>
		<path fill="none" stroke="#713710" stroke-width="1.0635" stroke-miterlimit="10" d="M69.131,79.727"/>
	</g>
</g>
</svg>
