<?xml version="1.0" encoding="utf-8"?>
<!-- Generator: Adobe Illustrator 15.0.2, SVG Export Plug-In . SVG Version: 6.00 Build 0)  -->
<!DOCTYPE svg PUBLIC "-//W3C//DTD SVG 1.1//EN" "http://www.w3.org/Graphics/SVG/1.1/DTD/svg11.dtd">
<svg version="1.1" id="Layer_1" xmlns="http://www.w3.org/2000/svg" xmlns:xlink="http://www.w3.org/1999/xlink" x="0px" y="0px"
	 width="120px" height="120px" viewBox="0 0 120 120" enable-background="new 0 0 120 120" xml:space="preserve">
<g>
	<g>
		<circle fill="#6FAFA2" cx="60" cy="60" r="60"/>
	</g>
	<g>
		<g>
			<rect x="29.554" y="81.22" fill="#AC2400" width="13.16" height="1.062"/>
			
				<rect x="29.556" y="81.219" transform="matrix(0.866 -0.5 0.5 0.866 -36.0341 29.0198)" fill="#AC2400" width="13.156" height="1.062"/>
			
				<rect x="29.556" y="81.218" transform="matrix(0.5001 -0.866 0.866 0.5001 -52.7289 72.1599)" fill="#AC2400" width="13.158" height="1.064"/>
			<rect x="35.602" y="75.172" fill="#AC2400" width="1.065" height="13.159"/>
			
				<rect x="29.556" y="81.218" transform="matrix(-0.5001 -0.866 0.866 -0.5001 -16.5866 153.9252)" fill="#AC2400" width="13.157" height="1.065"/>
			
				<rect x="29.555" y="81.218" transform="matrix(-0.866 -0.5001 0.5001 -0.866 26.5403 170.6114)" fill="#AC2400" width="13.157" height="1.063"/>
			<path fill="#6C0900" d="M36.134,73.179c-4.734,0-8.571,3.839-8.571,8.572c0,4.734,3.837,8.568,8.571,8.568
				c4.736,0,8.572-3.834,8.572-8.568C44.706,77.018,40.87,73.179,36.134,73.179z M36.134,87.847c-3.368,0-6.097-2.729-6.097-6.096
				c0-3.371,2.729-6.099,6.097-6.099c3.364,0,6.094,2.728,6.094,6.099C42.228,85.117,39.498,87.847,36.134,87.847z"/>
			<circle fill="#6C0900" cx="36.134" cy="81.751" r="1.347"/>
		</g>
		<g>
			<rect x="76.026" y="81.216" fill="#AC2400" width="13.159" height="1.066"/>
			
				<rect x="76.027" y="81.218" transform="matrix(0.8661 -0.4999 0.4999 0.8661 -29.8056 52.2497)" fill="#AC2400" width="13.164" height="1.064"/>
			
				<rect x="76.027" y="81.218" transform="matrix(0.5 -0.866 0.866 0.5 -29.493 112.4192)" fill="#AC2400" width="13.159" height="1.063"/>
			<rect x="82.07" y="75.17" fill="#AC2400" width="1.069" height="13.162"/>
			
				<rect x="76.027" y="81.219" transform="matrix(-0.5 -0.866 0.866 -0.5 53.1079 194.1634)" fill="#AC2400" width="13.159" height="1.062"/>
			
				<rect x="76.026" y="81.217" transform="matrix(-0.866 -0.5 0.5 -0.866 113.2736 193.8506)" fill="#AC2400" width="13.164" height="1.065"/>
			<path fill="#6C0900" d="M82.607,73.177c-4.733,0-8.57,3.84-8.57,8.574s3.837,8.568,8.57,8.568c4.734,0,8.571-3.834,8.571-8.568
				S87.342,73.177,82.607,73.177z M82.607,87.848c-3.368,0-6.096-2.729-6.096-6.097c0-3.371,2.728-6.102,6.096-6.102
				c3.365,0,6.098,2.73,6.098,6.102C88.705,85.118,85.973,87.848,82.607,87.848z"/>
			<path fill="#6C0900" d="M83.954,81.751c0,0.742-0.604,1.344-1.347,1.344c-0.744,0-1.351-0.602-1.351-1.344
				c0-0.746,0.606-1.349,1.351-1.349C83.351,80.402,83.954,81.005,83.954,81.751z"/>
		</g>
		<g>
			<g>
				<rect x="22.46" y="43.609" fill="#FCF1D4" width="75.66" height="32.887"/>
			</g>
			<g>
				<rect x="53.847" y="59.689" fill="#9D5A54" width="12.887" height="16.807"/>
			</g>
			<g>
				<rect x="27.932" y="62.801" fill="#A3C1D3" width="13.713" height="7.632"/>
			</g>
			<g>
				<rect x="77.787" y="62.801" fill="#7EB8AC" width="13.713" height="7.632"/>
			</g>
			<g>
				<rect x="33.623" y="51.225" fill="#C22D00" width="13.715" height="7.633"/>
			</g>
			<g>
				<rect x="73.068" y="51.225" fill="#C7A53A" width="13.714" height="7.633"/>
			</g>
			<g>
				<rect x="53.433" y="48.286" fill="#BBBF75" width="13.715" height="7.632"/>
			</g>
			<rect x="22.46" y="43.609" fill="#6C0900" width="75.66" height="0.942"/>
			<path fill="#AC2400" d="M19.687,43.616c0,0,0-7.558,2.588-7.558c13.676,0,59.122,0,75.519,0c2.523,0,2.523,7.558,2.523,7.558
				H19.687z"/>
		</g>
	</g>
</g>
</svg>
