<?xml version="1.0" encoding="utf-8"?>
<!-- Generator: Adobe Illustrator 15.0.2, SVG Export Plug-In . SVG Version: 6.00 Build 0)  -->
<!DOCTYPE svg PUBLIC "-//W3C//DTD SVG 1.1//EN" "http://www.w3.org/Graphics/SVG/1.1/DTD/svg11.dtd">
<svg version="1.1" id="Layer_1" xmlns="http://www.w3.org/2000/svg" xmlns:xlink="http://www.w3.org/1999/xlink" x="0px" y="0px"
	 width="148px" height="180px" viewBox="0 0 148 180" enable-background="new 0 0 148 180" xml:space="preserve">
<g>
	<path fill="#FCF0CF" d="M133.222,180c2.79,0,5.189-2.073,5.328-4.605l9.443-170.79C148.134,2.072,145.966,0,143.177,0H14.778
		c-2.79,0-5.187,2.072-5.326,4.605l-9.445,170.79C-0.133,177.927,2.034,180,4.824,180H133.222z"/>
	<g>
		<path fill="#D1CCBA" d="M5.683,171.923L14.744,8.078c0.097-1.745,1.738-3.165,3.66-3.165h120.603c1.922,0,3.407,1.42,3.313,3.165
			l-9.062,163.845c-0.098,1.745-1.738,3.164-3.66,3.164H8.992C7.072,175.087,5.587,173.668,5.683,171.923z M141.84,8.078
			c0.086-1.507-1.197-2.733-2.857-2.733H18.381c-1.662,0-3.079,1.226-3.163,2.733L6.157,171.923c-0.083,1.507,1.2,2.732,2.86,2.732
			H129.62c1.658,0,3.079-1.226,3.161-2.732L141.84,8.078z"/>
		<path fill="#D1CCBA" d="M7.996,171.635l9.028-163.27c0.041-0.754,0.753-1.367,1.583-1.367h119.968c0.829,0,1.471,0.613,1.43,1.367
			l-9.029,163.27c-0.041,0.755-0.751,1.367-1.579,1.367H9.427C8.597,173.002,7.953,172.39,7.996,171.635z M139.526,8.365
			c0.028-0.516-0.41-0.936-0.977-0.936H18.583c-0.569,0-1.055,0.419-1.084,0.936L8.47,171.635c-0.027,0.516,0.412,0.936,0.98,0.936
			h119.968c0.565,0,1.053-0.42,1.08-0.936L139.526,8.365z"/>
	</g>
	<polygon fill="#C7C4BA" points="13.164,169.058 126.094,169.058 134.838,10.941 21.906,10.941 	"/>
	<polygon fill="#AAABA8" points="16.444,166.414 123.105,166.414 131.556,13.586 24.896,13.586 	"/>
	<g>
		<g>
			<path fill="#EEE09C" d="M121.486,90.181c-1.394,23.901-23.784,43.276-50.01,43.276c-26.228,0-46.357-19.375-44.963-43.276
				c1.395-23.901,23.785-43.275,50.013-43.275C102.753,46.905,122.882,66.28,121.486,90.181z"/>
		</g>
		<g>
			<g>
				<path fill="#FFFFFF" d="M63.332,87.057c-0.269,4.595-4.06,8.316-8.474,8.316c-4.412,0-7.776-3.722-7.508-8.316
					c0.269-4.591,4.067-8.316,8.479-8.316C60.242,78.741,63.599,82.465,63.332,87.057z"/>
				<path fill="#560000" d="M61.076,86.208c-0.156,2.667-2.658,4.833-5.585,4.833s-5.175-2.166-5.019-4.833
					c0.156-2.669,2.655-4.832,5.583-4.832C58.981,81.376,61.231,83.54,61.076,86.208z"/>
				<path fill="#FFFFFF" d="M57.984,84.758c-0.063,1.067-1.063,1.932-2.235,1.932c-1.172,0-2.072-0.865-2.009-1.932
					c0.062-1.066,1.063-1.932,2.235-1.932C57.145,82.826,58.046,83.692,57.984,84.758z"/>
			</g>
			<g>
				<path fill="#FFFFFF" d="M85.065,86.625c-0.27,4.593,3.089,8.317,7.501,8.317c4.417,0,8.207-3.724,8.476-8.317
					c0.267-4.592-3.088-8.317-7.506-8.317C89.123,78.308,85.332,82.032,85.065,86.625z"/>
				<path fill="#560000" d="M87.664,86.208c-0.155,2.667,2.093,4.833,5.021,4.833c2.927,0,5.428-2.166,5.583-4.833
					c0.157-2.669-2.092-4.832-5.019-4.832C90.321,81.376,87.82,83.54,87.664,86.208z"/>
				<path fill="#FFFFFF" d="M90.928,84.758c-0.062,1.067,0.836,1.932,2.006,1.932c1.172,0,2.173-0.865,2.235-1.932
					c0.062-1.066-0.838-1.932-2.01-1.932C91.988,82.826,90.989,83.692,90.928,84.758z"/>
			</g>
		</g>
		<g>
			<path fill="#8A4E4B" d="M78.521,102.828c-0.055-0.295-0.715-0.415-1.479-0.27c-0.766,0.148-1.343,0.509-1.289,0.805
				c0.05,0.295,0.712,0.419,1.479,0.27C77.997,103.485,78.57,103.124,78.521,102.828z"/>
			<path fill="#8A4E4B" d="M68.005,102.828c0.084-0.295,0.761-0.415,1.507-0.27c0.749,0.148,1.284,0.509,1.196,0.805
				c-0.086,0.295-0.761,0.419-1.51,0.27C68.454,103.485,67.917,103.124,68.005,102.828z"/>
		</g>
		<path fill="#C29A5B" d="M79.604,120.272c-0.224,3.812-3.694,6.902-7.761,6.902c-4.062,0-7.174-3.091-6.953-6.902
			c0.222-3.813,3.695-6.902,7.758-6.902C76.714,113.37,79.827,116.459,79.604,120.272z"/>
		<g>
			<path fill="#8B6844" d="M72.531,115.333c-8.021,0-8.554,9.143-0.533,9.143C80.029,124.476,80.562,115.333,72.531,115.333z"/>
			<path fill="#FFFFFF" d="M74.555,124.036c-0.717-0.23-1.545-0.367-2.511-0.367c-0.958,0-1.802,0.137-2.545,0.367
				c0.717,0.233,1.538,0.381,2.502,0.381C72.972,124.417,73.811,124.27,74.555,124.036z"/>
		</g>
		<g>
			<g>
				<path fill="#713710" d="M95.1,67.676c5.281,0,8.233,2.084,10.563,3.955c-1.674-2.881-4.554-5.762-10.523-5.762
					c-4.472,0-7.686,1.999-9.792,4.977C87.987,69.256,90.784,67.676,95.1,67.676z"/>
			</g>
			<g>
				<path fill="#713710" d="M55.529,67.676c-5.284,0-8.479,2.084-11.024,3.955c2.007-2.881,5.223-5.762,11.194-5.762
					c4.47,0,7.451,1.999,9.211,4.977C62.457,69.256,59.843,67.676,55.529,67.676z"/>
			</g>
		</g>
	</g>
</g>
</svg>
