<?xml version="1.0" encoding="utf-8"?>
<!-- Generator: Adobe Illustrator 15.0.2, SVG Export Plug-In . SVG Version: 6.00 Build 0)  -->
<!DOCTYPE svg PUBLIC "-//W3C//DTD SVG 1.1//EN" "http://www.w3.org/Graphics/SVG/1.1/DTD/svg11.dtd">
<svg version="1.1" id="Layer_1" xmlns="http://www.w3.org/2000/svg" xmlns:xlink="http://www.w3.org/1999/xlink" x="0px" y="0px"
	 width="148px" height="180px" viewBox="0 0 148 180" enable-background="new 0 0 148 180" xml:space="preserve">
<g>
	<path fill="#FCF0CF" d="M143.216,180c2.777,0,4.925-2.071,4.777-4.605l-10.12-170.79C137.722,2.072,135.328,0,132.553,0H4.781
		C2.007,0-0.142,2.072,0.007,4.604l10.12,170.79c0.149,2.534,2.543,4.605,5.318,4.605H143.216z"/>
	<g>
		<path fill="#D1CCBA" d="M15.377,171.923L5.67,8.078C5.568,6.333,7.039,4.914,8.951,4.914h120.013c1.913,0,3.554,1.42,3.656,3.165
			l9.709,163.845c0.103,1.744-1.37,3.164-3.282,3.164H19.034C17.122,175.087,15.482,173.667,15.377,171.923z M132.147,8.078
			c-0.09-1.507-1.506-2.733-3.158-2.733H8.977c-1.652,0-2.923,1.226-2.834,2.733l9.708,163.845c0.087,1.507,1.505,2.732,3.157,2.732
			H139.02c1.652,0,2.923-1.226,2.834-2.732L132.147,8.078z"/>
		<path fill="#D1CCBA" d="M17.646,171.635L7.974,8.366C7.929,7.612,8.565,6.999,9.393,6.999h119.381
			c0.825,0,1.533,0.614,1.579,1.367l9.672,163.269c0.045,0.755-0.59,1.365-1.416,1.365H19.226
			C18.4,173,17.692,172.39,17.646,171.635z M129.879,8.366c-0.03-0.516-0.516-0.936-1.08-0.936H9.417c-0.566,0-1,0.419-0.97,0.936
			l9.672,163.269c0.032,0.516,0.516,0.934,1.08,0.934h119.383c0.563,0,1-0.418,0.969-0.934L129.879,8.366z"/>
	</g>
	<polygon fill="#C7C4BA" points="22.493,169.058 134.872,169.058 125.508,10.942 13.125,10.942 	"/>
	<polygon fill="#AAABA8" points="25.458,166.414 131.595,166.414 122.541,13.586 16.405,13.586 	"/>
	<g>
		<g>
			<path fill="#EEE09C" d="M120.995,89.885c1.678,23.776-18.062,43.05-44.089,43.05c-26.028,0-48.487-19.273-50.164-43.05
				c-1.677-23.776,18.062-43.05,44.09-43.05C96.859,46.835,119.318,66.108,120.995,89.885z"/>
		</g>
		<path opacity="0.75" fill="#BE9680" d="M90.992,120.205c0.138,1.968-7.913-3.514-15.103-3.514c-8.206,0-14.458,5.692-14.61,3.514
			c-0.149-2.122,6.379-3.877,14.585-3.877C84.071,116.328,90.85,118.202,90.992,120.205z"/>
		<g>
			<path fill="#8F4E4B" d="M72.86,107.85c-0.149,0.379-0.939,0.435-1.761,0.125c-0.825-0.312-1.371-0.873-1.22-1.253
				c0.148-0.381,0.937-0.438,1.765-0.126C72.467,106.907,73.012,107.469,72.86,107.85z"/>
			<path fill="#8F4E4B" d="M77.667,107.85c0.205,0.379,1,0.435,1.78,0.125c0.779-0.312,1.246-0.873,1.04-1.253
				c-0.201-0.381-1-0.438-1.779-0.126C77.931,106.907,77.464,107.469,77.667,107.85z"/>
		</g>
		<g>
			<g>
				<g>
					<g>
						<path fill="#FFFFFF" d="M55.554,86.04c-2.832-1.061-5.526-2.121-8.064-2.601c-0.975,1.099-1.599,2.433-1.728,3.928
							c-0.164,1.903,0.5,3.756,1.733,5.33c1.873,0.843,4.09,1.533,6.764,1.939c3.623,0.554,7.005,0.578,9.754,0.178
							c0.724-0.606,1.322-1.312,1.764-2.103C63.266,90.384,59.483,87.512,55.554,86.04z"/>
						<path fill="#560000" d="M61.474,90.399c-0.188,2.208-1.754,3.94-3.874,4.608c-1.23,0.058-4.747-0.482-5.796-0.848
							c-1.848-1.211-2.995-3.24-2.812-5.372c0.16-1.867,1.301-3.391,2.928-4.22c1.69,0.722,7.82,3.548,9.523,4.658
							C61.496,89.61,61.508,90.002,61.474,90.399z"/>
						<path fill="#FFFFFF" d="M56.831,89.785c-0.07,0.797-0.838,1.352-1.722,1.238c-0.879-0.116-1.54-0.855-1.472-1.653
							c0.068-0.799,0.84-1.354,1.723-1.24C56.24,88.243,56.897,88.985,56.831,89.785z"/>
					</g>
					<path fill="none" stroke="#713710" stroke-width="1.6389" stroke-miterlimit="10" d="M66.31,92.679"/>
					<path fill="none" stroke="#713710" stroke-width="1.6389" stroke-miterlimit="10" d="M46.032,82.36"/>
					<path fill="none" stroke="#713710" stroke-width="1.2291" stroke-miterlimit="10" d="M64.852,94.719"/>
					<path fill="none" stroke="#713710" stroke-width="1.2291" stroke-miterlimit="10" d="M48.147,92.562"/>
				</g>
				<g>
					<path fill="#713710" d="M66.688,93.845c-0.094,0-0.19-0.038-0.262-0.108c-8.583-8.631-20.581-10.306-20.701-10.323
						c-0.183-0.024-0.318-0.178-0.304-0.344c0.014-0.166,0.176-0.282,0.358-0.256c0.122,0.016,12.364,1.72,21.126,10.532
						c0.127,0.129,0.137,0.527,0.004,0.636C66.852,94.029,66.765,93.845,66.688,93.845z"/>
					<path fill="#713710" d="M58.922,95.402c-6.437,0-11.237-2.464-11.304-2.5c-0.164-0.085-0.228-0.271-0.144-0.414
						c0.082-0.145,0.283-0.19,0.447-0.106c0.089,0.047,8.915,4.568,18.586,1.123c0.166-0.059,0.365,0.019,0.442,0.175
						c0.075,0.156,0.002,0.332-0.165,0.391C64.042,95.048,61.364,95.402,58.922,95.402z"/>
				</g>
			</g>
			<g>
				<g>
					<g>
						<path fill="#FFFFFF" d="M84.432,94.632c2.723,0.414,5.968,0.446,9.374,0.004c2.772-0.358,5.165-1.121,7.16-2.056
							c0.956-1.55,1.329-3.357,0.908-5.213c-0.343-1.514-1.171-2.862-2.324-3.969c-2.703,0.212-4.691,1.276-7.654,2.642
							c-4.041,1.861-7.285,4.34-9.395,6.505C83.014,93.323,83.67,94.025,84.432,94.632z"/>
						<path fill="#560000" d="M86.59,90.399c0.518,2.287,2.442,4.065,4.766,4.674c0.844,0.222,4.814-0.419,5.619-1.053
							c1.556-1.224,2.337-3.18,1.873-5.233c-0.417-1.839-1.739-3.346-3.447-4.182c-1.105,0.533-7.164,3.45-8.944,4.585
							C86.453,89.585,86.498,89.99,86.59,90.399z"/>
						<path fill="#FFFFFF" d="M91.148,89.785c0.181,0.797,1.027,1.352,1.894,1.238c0.866-0.116,1.422-0.855,1.24-1.653
							c-0.18-0.799-1.031-1.354-1.896-1.24C91.52,88.243,90.969,88.985,91.148,89.785z"/>
					</g>
					<path fill="none" stroke="#713710" stroke-width="1.6389" stroke-miterlimit="10" d="M82.077,92.679"/>
					<path fill="none" stroke="#713710" stroke-width="1.6389" stroke-miterlimit="10" d="M100.9,82.36"/>
					<path fill="none" stroke="#713710" stroke-width="1.2291" stroke-miterlimit="10" d="M83.822,94.719"/>
				</g>
				<g>
					<path fill="#713710" d="M81.861,93.845c-0.075,0-0.154,0.165-0.221,0.117c-0.147-0.106-0.177-0.487-0.067-0.616
						c7.522-8.812,19.523-10.516,19.645-10.532c0.174-0.026,0.354,0.09,0.394,0.256c0.037,0.166-0.075,0.32-0.257,0.344
						c-0.117,0.017-11.878,1.691-19.248,10.323C82.047,93.807,81.955,93.845,81.861,93.845z"/>
					<path fill="#713710" d="M89.847,95.402c-2.44,0-5.167-0.354-8.049-1.332c-0.174-0.059-0.273-0.234-0.22-0.391
						c0.055-0.156,0.242-0.233,0.417-0.175c10.154,3.445,18.346-1.076,18.429-1.123c0.149-0.086,0.357-0.038,0.462,0.106
						c0.104,0.144,0.063,0.329-0.087,0.414C100.738,92.938,96.284,95.402,89.847,95.402z"/>
				</g>
			</g>
		</g>
		<path fill="#713710" d="M73.749,86.38c-0.184,0-0.342-0.136-0.354-0.303l-0.711-10.084c-0.013-0.167,0.127-0.303,0.31-0.303
			c0.184,0,0.342,0.136,0.354,0.303l0.711,10.084C74.071,86.244,73.932,86.38,73.749,86.38z"/>
		<g>
			<path fill="#713710" d="M75.589,79.924c0,0,2.002,9.006,17.886-2.35c0,0,4.749-3.859,8.22-1.882c0,0-2.254-0.683-6.226,1.797
				c-2.086,1.304-3.879,3.159-8.311,5.995C76.122,90.549,75.455,82.226,75.589,79.924z"/>
			<path fill="#713710" d="M71.259,79.805c0,0-0.098,9.04-18.324-1.795c0,0-5.55-3.702-8.589-1.625c0,0,2.104-0.75,6.581,1.599
				c2.358,1.238,4.537,3.033,9.552,5.726C72.966,90.415,71.875,82.097,71.259,79.805z"/>
		</g>
	</g>
</g>
</svg>
