<?xml version="1.0" encoding="utf-8"?>
<!-- Generator: Adobe Illustrator 15.0.2, SVG Export Plug-In . SVG Version: 6.00 Build 0)  -->
<!DOCTYPE svg PUBLIC "-//W3C//DTD SVG 1.1//EN" "http://www.w3.org/Graphics/SVG/1.1/DTD/svg11.dtd">
<svg version="1.1" id="Layer_1" xmlns="http://www.w3.org/2000/svg" xmlns:xlink="http://www.w3.org/1999/xlink" x="0px" y="0px"
	 width="56px" height="56px" viewBox="0 0 56 56" enable-background="new 0 0 56 56" xml:space="preserve">
<g>
	<circle fill="#D1CCBA" cx="28" cy="28" r="28"/>
	<g>
		<g>
			<path fill="#939491" d="M36.175,22.264c-0.809-0.871-3.22-5.843-6.569-5.843c-0.601,0-3.305,0-3.972,0
				c-2.844,0-5.526,4.317-6.016,5.565c-0.434-1.015-2.021-3.427-2.021-3.427l-1.655,0.968c0,0,1.791,5.02,2.771,5.616
				c0.818,0.498,3.658-1.996,4.519-3.21c0,0-0.416,2.416-0.416,8.633c0,9.096,2.757,16.328,2.757,16.328h1.809
				c0,0-1.094-9.761,0.552-16.338c1.011,1.392,1.755,3.111,2.227,4.678c0.374,1.252,1.006,7.043,1.006,7.043h1.808
				c0,0,0.687-6.045,0.653-7.297c-0.042-1.588-0.515-5.246-0.97-6.596c0-2.021-0.417-6.451-0.417-6.451
				c0.86,1.214,3.495,3.578,4.53,3.088c1.168-0.55,2.982-5.32,2.982-5.32l-1.5-1.195C38.256,18.507,36.674,21.306,36.175,22.264z"/>
			<path fill="#939491" d="M33.366,43.591c0,0.622-0.509,0.783-1.247,0.783c-0.736,0-1.42-0.161-1.42-0.783
				c0-0.624,0.597-1.128,1.334-1.128C32.768,42.463,33.366,42.967,33.366,43.591z"/>
			<path fill="#939491" d="M27.794,48.208c0,0.622-0.51,0.786-1.247,0.786c-0.737,0-1.421-0.164-1.421-0.786
				s0.597-1.127,1.334-1.127S27.794,47.586,27.794,48.208z"/>
			<g>
				<path fill="#939491" d="M40.467,16.652c-0.201-0.221-0.943-0.581-1.165-0.414c-0.175,0.132-0.233,0.63-0.338,0.79
					c-0.086,0.133-0.161-0.038-0.37,0.127c-0.266,0.209-0.096,0.849,0.014,1.098c0.181,0.416,0.853,0.86,1.402,0.594
					c0.438-0.213,0.766-0.67,0.789-1.16C40.818,17.211,40.648,16.852,40.467,16.652z"/>
			</g>
			<g>
				<path fill="#939491" d="M15.453,16.606c0.18-0.238,0.886-0.663,1.123-0.518c0.188,0.115,0.289,0.605,0.407,0.756
					c0.097,0.125,0.157-0.052,0.38,0.093c0.284,0.185,0.173,0.835,0.088,1.094c-0.143,0.431-0.771,0.935-1.343,0.719
					c-0.456-0.173-0.824-0.599-0.891-1.083C15.151,17.194,15.29,16.821,15.453,16.606z"/>
			</g>
			<g>
				<circle fill="#939491" cx="27.735" cy="10.521" r="4.946"/>
			</g>
		</g>
	</g>
</g>
</svg>
