<?xml version="1.0" encoding="utf-8"?>
<!-- Generator: Adobe Illustrator 15.0.2, SVG Export Plug-In . SVG Version: 6.00 Build 0)  -->
<!DOCTYPE svg PUBLIC "-//W3C//DTD SVG 1.1//EN" "http://www.w3.org/Graphics/SVG/1.1/DTD/svg11.dtd">
<svg version="1.1" id="Layer_1" xmlns="http://www.w3.org/2000/svg" xmlns:xlink="http://www.w3.org/1999/xlink" x="0px" y="0px"
	 width="1514px" height="802px" viewBox="0 0 1514 802" enable-background="new 0 0 1514 802" xml:space="preserve">
<g>
	<path fill="#FCF0CF" d="M1514,32c0-17.6-14.4-32-32-32H32C14.4,0,0,14.4,0,32v738c0,17.6,14.4,32,32,32h1450c17.6,0,32-14.4,32-32
		V32z"/>
</g>
<g>
	<g>
		<g>
			<path fill="#C7C4BA" d="M1128,690c0,2.2,1.8,4,4,4h295c2.2,0,4-1.8,4-4V109c0-2.2-1.8-4-4-4h-295c-2.2,0-4,1.8-4,4V690z"/>
		</g>
		<rect x="1138" y="115" fill="#AAABA8" width="283" height="569"/>
	</g>
	<g>
		<circle fill="#C7C4BA" cx="166" cy="189" r="84"/>
		<g>
			<g>
				<g>
					<path fill="#C7C4BA" d="M1113,269c0,2.2-1.8,4-4,4H697c-2.2,0-4-1.8-4-4V109c0-2.2,1.8-4,4-4h412c2.2,0,4,1.8,4,4V269z"/>
				</g>
			</g>
			<g>
				<g>
					<path fill="#C7C4BA" d="M683,269c0,2.2-1.8,4-4,4H267c-2.2,0-4-1.8-4-4V109c0-2.2,1.8-4,4-4h412c2.2,0,4,1.8,4,4V269z"/>
				</g>
			</g>
		</g>
		<g>
			<g>
				<g>
					<g>
						<path fill="#C7C4BA" d="M1113,690c0,2.2-1.8,4-4,4H502c-2.2,0-4-1.8-4-4V292c0-2.2,1.8-4,4-4h607c2.2,0,4,1.8,4,4V690z"/>
					</g>
				</g>
			</g>
			<g>
				<g>
					<g>
						<g>
							<path fill="#C7C4BA" d="M488,690c0,2.2-1.8,4-4,4H86c-2.2,0-4-1.8-4-4V292c0-2.2,1.8-4,4-4h398c2.2,0,4,1.8,4,4V690z"/>
						</g>
						<path fill="#AAABA8" d="M459,490.992C459,587.095,381.102,665,285,665c-96.093,0-174-77.905-174-174.008
							C111,394.902,188.907,317,285,317C381.102,317,459,394.902,459,490.992z"/>
					</g>
				</g>
			</g>
		</g>
	</g>
</g>
<path fill="#D8D3C1" d="M1479.878,82.715h-1.5c-25.704,0-46.616-20.913-46.616-46.618v-1.5H56.11
	c-12.125,0-21.988,9.865-21.988,21.991v688.819c0,12.128,9.864,21.994,21.988,21.994h1401.78c12.124,0,21.987-9.866,21.987-21.994
	L1479.878,82.715L1479.878,82.715z M1457.891,764.402H56.11c-10.47,0-18.988-8.521-18.988-18.994V56.589
	c0-10.472,8.518-18.991,18.988-18.991H1428.8c0.782,26.167,21.911,47.296,48.077,48.08l0.001,659.731
	C1476.878,755.882,1468.36,764.402,1457.891,764.402z"/>
<path fill="#D8D3C1" d="M1465.314,94.82c-22.739-5.051-40.659-23.015-45.652-45.767c-0.177-0.809-0.887-0.971-1.552-0.971
	c-0.159,0-1361,0.007-1361,0.007c-5.237,0-9.497,4.261-9.497,9.5v686.819c0,5.237,4.26,9.5,9.497,9.5h1399.781
	c5.236,0,9.497-4.263,9.497-9.5c0,0,0.011-647.611,0.011-648.021C1466.396,95.633,1466.123,95,1465.314,94.82z M1456.891,750.908
	H57.11c-3.583,0-6.497-2.916-6.497-6.5V57.589c0-3.584,2.915-6.5,6.497-6.5l1359.953-0.007
	c5.554,22.806,23.525,40.793,46.336,46.361l-0.011,646.965C1463.388,747.992,1460.473,750.908,1456.891,750.908z"/>
</svg>
