<?xml version="1.0" encoding="utf-8"?>
<!-- Generator: Adobe Illustrator 15.0.2, SVG Export Plug-In . SVG Version: 6.00 Build 0)  -->
<!DOCTYPE svg PUBLIC "-//W3C//DTD SVG 1.1//EN" "http://www.w3.org/Graphics/SVG/1.1/DTD/svg11.dtd">
<svg version="1.1" id="Layer_1" xmlns="http://www.w3.org/2000/svg" xmlns:xlink="http://www.w3.org/1999/xlink" x="0px" y="0px"
	 width="72px" height="72px" viewBox="0 0 72 72" enable-background="new 0 0 72 72" xml:space="preserve">
<g>
	<circle fill="#AC2400" cx="36" cy="36" r="36"/>
	<polygon fill="#CD4917" points="58.17,36 41.803,21.067 41.803,29.53 30.197,29.53 30.197,21.067 13.831,36 30.197,50.933 
		30.197,42.47 41.803,42.47 41.803,50.933 	"/>
	<path fill="#DE723A" d="M36,68.4C18.134,68.4,3.6,53.865,3.6,36c0-17.865,14.534-32.4,32.4-32.4c17.865,0,32.4,14.535,32.4,32.4
		C68.4,53.865,53.865,68.4,36,68.4z M36,6.781C19.889,6.781,6.781,19.888,6.781,36c0,16.112,13.108,29.219,29.219,29.219
		c16.111,0,29.219-13.107,29.219-29.219C65.219,19.888,52.111,6.781,36,6.781z"/>
</g>
</svg>
