<?xml version="1.0" encoding="utf-8"?>
<!-- Generator: Adobe Illustrator 15.0.2, SVG Export Plug-In . SVG Version: 6.00 Build 0)  -->
<!DOCTYPE svg PUBLIC "-//W3C//DTD SVG 1.1//EN" "http://www.w3.org/Graphics/SVG/1.1/DTD/svg11.dtd">
<svg version="1.1" id="Layer_1" xmlns="http://www.w3.org/2000/svg" xmlns:xlink="http://www.w3.org/1999/xlink" x="0px" y="0px"
	 width="156px" height="180px" viewBox="0 0 156 180" enable-background="new 0 0 156 180" xml:space="preserve">
<g>
	<path fill="#FCF0CF" d="M151.484,180c2.755,0,4.773-2.072,4.489-4.605L136.739,4.605C136.454,2.072,133.969,0,131.217,0H4.514
		C1.76,0-0.259,2.072,0.027,4.605l19.234,170.789c0.285,2.533,2.77,4.605,5.524,4.605H151.484z"/>
	<g>
		<path fill="#D1CCBA" d="M24.281,171.922L5.829,8.078C5.634,6.333,7.016,4.914,8.913,4.914h119.008c1.896,0,3.6,1.419,3.796,3.165
			l18.454,163.844c0.195,1.746-1.188,3.166-3.083,3.166H28.078C26.18,175.088,24.478,173.668,24.281,171.922z M131.249,8.078
			c-0.17-1.508-1.641-2.734-3.279-2.734H8.96c-1.639,0-2.833,1.227-2.662,2.734l18.45,163.844c0.169,1.508,1.642,2.732,3.28,2.732
			h119.009c1.638,0,2.832-1.225,2.663-2.732L131.249,8.078z"/>
		<path fill="#D1CCBA" d="M26.515,171.633L8.128,8.366C8.043,7.611,8.643,6.998,9.461,6.998h118.382c0.82,0,1.557,0.613,1.641,1.368
			l18.387,163.267c0.085,0.756-0.513,1.369-1.331,1.369H28.155C27.337,173.002,26.6,172.389,26.515,171.633z M129.015,8.366
			c-0.058-0.516-0.562-0.936-1.122-0.936H9.509c-0.56,0-0.97,0.419-0.911,0.936l18.386,163.267c0.059,0.518,0.562,0.938,1.124,0.938
			h118.382c0.56,0,0.97-0.42,0.912-0.938L129.015,8.366z"/>
	</g>
	<polygon fill="#C7C4BA" points="31.184,169.057 142.624,169.057 124.817,10.943 13.375,10.943 	"/>
	<polygon fill="#AAABA8" points="33.98,166.414 139.231,166.414 122.02,13.586 16.77,13.586 	"/>
	<g>
		<g>
			<g>
				<path fill="#DED4BD" d="M41.678,90.084c0,0,4.373-41.218,24.68-41.218c2.418,0,11.866,0,14.202,0
					c18.062,0,33.024,41.05,33.024,41.05l-5.788,2.258c0,0-9.753-16.43-17.464-25.088c0,0,2.868,6.939,5.058,26.387
					c3.204,28.449,3.099,51.074,3.099,51.074h-6.147c0,0-5.772-30.529-13.686-51.104c-2.835,20.312-3.87,51.104-3.87,51.104h-6.14
					c0,0-4.434-22.189-7.685-51.074c-2.19-19.447-0.889-26.387-0.889-26.387C53.049,75.591,47.31,91.053,47.31,91.053L41.678,90.084
					z"/>
				<g>
					<path fill="#9A8B6F" d="M122.199,160.176l-6.116-9.473h-0.031c-0.163-1.438-14.413-2.604-31.824-2.604
						c-17.413,0-31.397,1.166-31.239,2.604H52.96l-3.985,9.473c-0.071,0.082-0.111,0.164-0.103,0.248
						c0.188,1.676,16.791,3.033,37.084,3.033c20.293,0,36.591-1.357,36.401-3.033C122.35,160.34,122.29,160.258,122.199,160.176z"/>
					<path fill="#B5A88D" d="M116.052,150.703c0.161,1.438-13.824,2.604-31.238,2.604c-17.413,0-31.662-1.166-31.825-2.604
						c-0.162-1.438,13.824-2.604,31.239-2.604C101.641,148.1,115.89,149.266,116.052,150.703z"/>
				</g>
				<path fill="#EDDF96" d="M100.283,148.656c0.219,1.945-1.459,2.457-3.963,2.457c-2.505,0-4.89-0.512-5.11-2.457
					c-0.218-1.951,1.635-3.527,4.139-3.527C97.855,145.129,100.063,146.705,100.283,148.656z"/>
				<path fill="#EDDF96" d="M76.664,148.656c0.221,1.945-1.454,2.457-3.96,2.457c-2.502,0-4.888-0.512-5.107-2.457
					c-0.219-1.951,1.632-3.527,4.139-3.527C74.239,145.129,76.447,146.705,76.664,148.656z"/>
				<g>
					<path fill="#EDDF96" d="M116.477,97.064c0.484,2.092,0.729,5.998-0.661,6.207c-2.426,0.365-1.893-4.879-3.543-5.09
						c-0.753-0.098-0.773,1.156-1.979,0.746c-1.224-0.414-2.176-7.643,1.664-7.16C114.627,92.102,116.05,95.23,116.477,97.064z"/>
				</g>
				<g>
					<path fill="#EDDF96" d="M41.058,97.285c0.148,2.104,1.082,5.986,2.524,6.104c2.512,0.201,0.404-4.957,1.971-5.273
						c0.716-0.145,1.118,1.096,2.186,0.611c1.086-0.492-0.144-7.709-3.798-6.982C41.396,92.252,40.929,95.441,41.058,97.285z"/>
				</g>
				<g>
					<path fill="#EEE09C" d="M88.538,31.916c1.016,8.648-5.683,15.658-14.964,15.658c-9.281,0-17.63-7.01-18.647-15.658
						c-1.018-8.646,5.682-15.657,14.962-15.657C79.171,16.259,87.52,23.27,88.538,31.916z"/>
					<path fill="#85524D" d="M72.856,41.486c-3.06,0-5.94-1.118-7.947-3.093c-0.308-0.302-0.318-0.753-0.022-1.007
						c0.295-0.254,0.784-0.212,1.091,0.09c1.735,1.707,4.285,2.641,6.989,2.576c2.549-0.065,4.774-1.041,5.806-2.545
						c0.217-0.316,0.69-0.382,1.056-0.145c0.369,0.237,0.491,0.685,0.274,1.001c-1.285,1.875-3.874,3.041-6.927,3.119
						C73.07,41.485,72.963,41.486,72.856,41.486z"/>
					<g>
						<path fill="#85524D" d="M79.865,29.271c0.156,1.343-0.452,2.433-1.363,2.433c-0.913,0-1.78-1.09-1.938-2.433
							c-0.158-1.344,0.453-2.432,1.365-2.432C78.839,26.839,79.707,27.927,79.865,29.271z"/>
						<path fill="#85524D" d="M66.279,29.271c0.159,1.343-0.451,2.433-1.364,2.433s-1.781-1.09-1.938-2.433
							c-0.159-1.344,0.452-2.432,1.365-2.432C65.255,26.839,66.121,27.927,66.279,29.271z"/>
					</g>
				</g>
			</g>
		</g>
	</g>
</g>
</svg>
