<?xml version="1.0" encoding="utf-8"?>
<!-- Generator: Adobe Illustrator 15.0.2, SVG Export Plug-In . SVG Version: 6.00 Build 0)  -->
<!DOCTYPE svg PUBLIC "-//W3C//DTD SVG 1.1//EN" "http://www.w3.org/Graphics/SVG/1.1/DTD/svg11.dtd">
<svg version="1.1" id="Layer_1" xmlns="http://www.w3.org/2000/svg" xmlns:xlink="http://www.w3.org/1999/xlink" x="0px" y="0px"
	 width="56px" height="56px" viewBox="0 0 56 56" enable-background="new 0 0 56 56" xml:space="preserve">
<g>
	<circle fill="#D1CCBA" cx="28" cy="28" r="28"/>
	<g>
		<path fill="#939491" d="M28.086,44.572c-5.49,0-10.107-2.941-12.047-7.676c-0.337-0.818,0.056-1.754,0.874-2.088
			c0.824-0.334,1.75,0.057,2.087,0.873c1.438,3.512,4.918,5.689,9.085,5.689c4.229,0,7.875-2.281,8.858-5.546
			c0.257-0.845,1.152-1.322,1.996-1.07c0.845,0.256,1.32,1.149,1.066,1.996C38.598,41.43,33.807,44.572,28.086,44.572z"/>
		<ellipse fill="#939491" cx="39.721" cy="23.806" rx="3.027" ry="4.194"/>
		<ellipse fill="#939491" cx="16.278" cy="23.806" rx="3.026" ry="4.194"/>
	</g>
</g>
</svg>
