<?xml version="1.0" encoding="utf-8"?>
<!-- Generator: Adobe Illustrator 15.0.2, SVG Export Plug-In . SVG Version: 6.00 Build 0)  -->
<!DOCTYPE svg PUBLIC "-//W3C//DTD SVG 1.1//EN" "http://www.w3.org/Graphics/SVG/1.1/DTD/svg11.dtd">
<svg version="1.1" id="Layer_1" xmlns="http://www.w3.org/2000/svg" xmlns:xlink="http://www.w3.org/1999/xlink" x="0px" y="0px"
	 width="153px" height="180px" viewBox="0 0 153 180" enable-background="new 0 0 153 180" xml:space="preserve">
<g>
	<path fill="#FCF0CF" d="M148.377,180c2.766,0,4.839-2.072,4.605-4.605L137.329,4.605C137.098,2.072,134.645,0,131.878,0H4.622
		C1.857,0-0.216,2.072,0.018,4.605l15.654,170.79c0.231,2.533,2.683,4.605,5.448,4.605H148.377z"/>
	<g>
		<path fill="#D1CCBA" d="M20.787,171.922L5.771,8.078c-0.16-1.745,1.26-3.165,3.165-3.165h119.531c1.903,0,3.585,1.42,3.745,3.165
			l15.016,163.844c0.161,1.745-1.259,3.165-3.163,3.165H24.534C22.629,175.087,20.948,173.667,20.787,171.922z M131.739,8.078
			c-0.138-1.507-1.589-2.734-3.234-2.734H8.976c-1.646,0-2.873,1.227-2.735,2.734l15.019,163.844
			c0.138,1.507,1.588,2.733,3.235,2.733h119.529c1.646,0,2.871-1.227,2.732-2.733L131.739,8.078z"/>
		<path fill="#D1CCBA" d="M23.037,171.634L8.074,8.365c-0.07-0.753,0.542-1.367,1.368-1.367h118.901
			c0.822,0,1.549,0.614,1.618,1.367l14.965,163.269c0.068,0.755-0.545,1.367-1.368,1.367H24.657
			C23.834,173.001,23.106,172.389,23.037,171.634z M129.489,8.365c-0.048-0.515-0.546-0.935-1.108-0.935H9.481
			c-0.564,0-0.982,0.42-0.936,0.935L23.51,171.634c0.045,0.517,0.544,0.936,1.107,0.936h118.901c0.562,0,0.982-0.419,0.936-0.936
			L129.489,8.365z"/>
	</g>
	<polygon fill="#C7C4BA" points="27.781,169.058 139.711,169.058 125.219,10.942 13.29,10.942 	"/>
	<polygon fill="#AAABA8" points="30.647,166.413 136.359,166.413 122.352,13.586 16.642,13.586 	"/>
	<g>
		<g>
			<path fill="#EEE09C" d="M123.287,89.412c2.447,23.955-16.578,43.586-42.498,43.847c-25.913,0.263-48.904-18.945-51.346-42.899
				c-2.449-23.957,16.575-43.588,42.489-43.85C97.85,46.25,120.842,65.457,123.287,89.412z"/>
		</g>
		<g>
			<path fill="#8F4E4B" d="M82.818,103.794c-0.096-0.297-0.766-0.418-1.496-0.269c-0.742,0.146-1.256,0.508-1.156,0.803
				c0.094,0.299,0.766,0.421,1.502,0.271C82.4,104.451,82.916,104.089,82.818,103.794z"/>
			<path fill="#8F4E4B" d="M72.421,103.794c0.042-0.297,0.688-0.418,1.451-0.269c0.76,0.146,1.345,0.508,1.3,0.803
				c-0.042,0.299-0.692,0.421-1.454,0.271C72.96,104.451,72.378,104.089,72.421,103.794z"/>
		</g>
		<g>
			<path fill="#C29A5B" d="M62.021,116.035c-0.409-4.538,7.175-4.357,16.399-4.357c9.225,0,16.584-0.362,17.012,4.357
				c0.891,9.847-7.219,2.886-16.445,2.886C69.759,118.921,62.858,125.299,62.021,116.035z"/>
			<path fill="#FFFFFF" d="M89.428,112.472c0,0-11.096-0.794-22.046,0c0,0,0.242,3.283,10.826,3.369
				C88.797,115.926,89.428,112.472,89.428,112.472z"/>
			<path fill="#FFFFFF" d="M70.074,120.064c0,0,7.618-3.287,18.032,0c0,0-0.797-3.588-9.314-3.588
				C70.504,116.477,70.074,120.064,70.074,120.064z"/>
		</g>
		<g>
			<g>
				<path fill="#FFFFFF" d="M66.952,84.427c0.409,4.542-3.436,8.225-8.59,8.225c-5.153,0-9.663-3.683-10.073-8.225
					c-0.412-4.548,3.436-8.227,8.588-8.227C62.032,76.2,66.541,79.879,66.952,84.427z"/>
				<path fill="#8F4E4B" d="M58.39,92.958c-5.329,0-10.008-3.828-10.434-8.531c-0.425-4.706,3.563-8.533,8.893-8.533
					c5.328,0,10.008,3.827,10.435,8.533C67.708,89.13,63.718,92.958,58.39,92.958z M56.905,76.506c-4.964,0-8.68,3.553-8.285,7.92
					c0.395,4.366,4.753,7.919,9.715,7.919c4.963,0,8.681-3.553,8.286-7.919C66.226,80.06,61.866,76.506,56.905,76.506z"/>
			</g>
			<path fill="#560000" d="M62.5,85.358c0.221,2.448-1.746,4.431-4.397,4.431c-2.649,0-4.977-1.983-5.198-4.431
				c-0.22-2.446,1.748-4.43,4.397-4.43C59.954,80.928,62.28,82.912,62.5,85.358z"/>
			<path fill="#FFFFFF" d="M59.075,83.486c0.07,0.783-0.561,1.421-1.413,1.421c-0.85,0-1.596-0.638-1.667-1.421
				c-0.07-0.787,0.562-1.423,1.411-1.423C58.258,82.063,59.004,82.699,59.075,83.486z"/>
			<path fill="none" stroke="#2B2523" stroke-width="0.5638" stroke-miterlimit="10" d="M57.094,78.609"/>
			<path fill="none" stroke="#2B2523" stroke-width="0.5638" stroke-miterlimit="10" d="M57.058,78.222"/>
			<g>
				<path fill="#FFFFFF" d="M84.793,84.427c0.412,4.542,4.92,8.225,10.072,8.225c5.158,0,9-3.683,8.588-8.225
					c-0.408-4.548-4.916-8.227-10.074-8.227C88.227,76.2,84.385,79.879,84.793,84.427z"/>
				<path fill="#8F4E4B" d="M94.893,92.958c-5.326,0-10.004-3.828-10.432-8.531c-0.424-4.706,3.564-8.533,8.893-8.533
					s10.008,3.827,10.432,8.533C104.213,89.13,100.223,92.958,94.893,92.958z M93.406,76.506c-4.959,0-8.678,3.553-8.281,7.92
					c0.395,4.366,4.752,7.919,9.713,7.919c4.963,0,8.682-3.553,8.285-7.919C102.729,80.06,98.371,76.506,93.406,76.506z"/>
			</g>
			<path fill="#560000" d="M89.412,85.358c0.221,2.448,2.549,4.431,5.197,4.431s4.615-1.983,4.396-4.431
				c-0.225-2.446-2.547-4.43-5.197-4.43C91.16,80.928,89.189,82.912,89.412,85.358z"/>
			<path fill="#FFFFFF" d="M92.498,83.486c0.072,0.783,0.822,1.421,1.67,1.421c0.85,0,1.48-0.638,1.41-1.421
				c-0.068-0.787-0.818-1.423-1.67-1.423C93.061,82.063,92.43,82.699,92.498,83.486z"/>
		</g>
		<g>
			<path fill="#713710" d="M91.967,69.286c-3.52-0.831-6.859-1.01-9.826-0.64c2.357-1.493,5.93-1.968,9.891-1.031
				c3.961,0.934,7.434,3.074,9.635,5.643C98.779,71.503,95.486,70.117,91.967,69.286z"/>
			<path fill="#713710" d="M57.042,69.286c3.368-0.831,6.677-1.01,9.713-0.641c-2.63-1.493-6.289-1.967-10.08-1.031
				c-3.791,0.935-6.876,3.075-8.615,5.644C50.628,71.503,53.673,70.115,57.042,69.286z"/>
		</g>
	</g>
</g>
</svg>
