<?xml version="1.0" encoding="utf-8"?>
<!-- Generator: Adobe Illustrator 15.0.2, SVG Export Plug-In . SVG Version: 6.00 Build 0)  -->
<!DOCTYPE svg PUBLIC "-//W3C//DTD SVG 1.1//EN" "http://www.w3.org/Graphics/SVG/1.1/DTD/svg11.dtd">
<svg version="1.1" id="Layer_1" xmlns="http://www.w3.org/2000/svg" xmlns:xlink="http://www.w3.org/1999/xlink" x="0px" y="0px"
	 width="156px" height="180px" viewBox="0 0 156 180" enable-background="new 0 0 156 180" xml:space="preserve">
<g>
	<path fill="#FCF0CF" d="M132.168,180c2.774,0,5.262-2.072,5.532-4.605l18.276-170.79C156.245,2.072,154.199,0,151.427,0H23.829
		c-2.772,0-5.261,2.072-5.532,4.605L0.024,175.395C-0.247,177.928,1.8,180,4.572,180H132.168z"/>
	<g>
		<path fill="#D1CCBA" d="M5.845,171.922L23.375,8.078c0.187-1.745,1.894-3.165,3.803-3.165h119.849c1.91,0,3.312,1.42,3.125,3.165
			l-17.529,163.844c-0.188,1.748-1.893,3.166-3.805,3.166H8.972C7.062,175.088,5.659,173.67,5.845,171.922z M149.68,8.078
			c0.161-1.507-1.049-2.733-2.7-2.733H27.131c-1.65,0-3.124,1.226-3.285,2.733L6.319,171.922c-0.163,1.508,1.047,2.732,2.697,2.732
			h119.849c1.65,0,3.124-1.225,3.285-2.732L149.68,8.078z"/>
		<path fill="#D1CCBA" d="M8.158,171.635L25.626,8.366c0.08-0.754,0.817-1.368,1.643-1.368h119.22c0.826,0,1.43,0.614,1.351,1.368
			l-17.469,163.269c-0.081,0.754-0.816,1.367-1.643,1.367H9.51C8.683,173.002,8.079,172.389,8.158,171.635z M147.367,8.366
			c0.054-0.516-0.361-0.936-0.924-0.936H27.224c-0.564,0-1.07,0.42-1.125,0.936L8.633,171.635c-0.059,0.518,0.358,0.936,0.923,0.936
			h119.22c0.562,0,1.067-0.418,1.123-0.936L147.367,8.366z"/>
	</g>
	<polygon fill="#C7C4BA" points="13.428,169.059 125.654,169.059 142.57,10.943 30.344,10.943 	"/>
	<polygon fill="#AAABA8" points="16.828,166.414 122.82,166.414 139.171,13.587 33.178,13.587 	"/>
	<g>
		<g>
			<path fill="#EEE09C" d="M125.564,90c-2.566,23.998-25.943,43.455-52.215,43.455c-26.268,0-45.483-19.457-42.916-43.455
				c2.568-23.998,25.946-43.454,52.215-43.454C108.919,46.546,128.133,66.002,125.564,90z"/>
		</g>
		<g>
			<path fill="#713710" d="M55.265,73.063c3.3-0.233,6.403-0.069,9.133,0.411c-2.111-1.139-5.396-1.735-9.112-1.474
				c-3.715,0.263-7.033,1.324-9.203,2.765C48.844,73.897,51.963,73.295,55.265,73.063z"/>
			<path fill="#713710" d="M104.618,73.093c-3.251-0.234-6.39-0.069-9.226,0.411c2.355-1.138,5.771-1.735,9.428-1.473
				c3.659,0.263,6.755,1.324,8.613,2.764C110.86,73.927,107.868,73.326,104.618,73.093z"/>
		</g>
		<path fill="#C29A5B" d="M85.273,117.945c-0.061,0.561-4.643,1.014-10.243,1.014c-5.597,0-10.086-0.453-10.026-1.014
			c0.058-0.562,4.686-1.379,10.281-1.379C80.886,116.566,85.335,117.383,85.273,117.945z"/>
		<g>
			<g>
				<path fill="#FFFFFF" d="M109.929,88.267c-0.276,2.583-4.991,4.671-10.528,4.671c-5.538,0-9.804-2.088-9.526-4.671
					c0.273-2.579,4.989-4.669,10.526-4.669S110.204,85.688,109.929,88.267z"/>
				<path fill="#560000" d="M105.155,88.116c-0.266,2.492-2.696,4.515-5.427,4.515c-2.729,0-4.725-2.023-4.458-4.515
					c0.268-2.494,2.698-4.519,5.422-4.519C103.425,83.597,105.423,85.622,105.155,88.116z"/>
				<path fill="#FFFFFF" d="M101.779,86.812c-0.077,0.743-0.806,1.352-1.622,1.352c-0.821,0-1.417-0.609-1.338-1.352
					c0.08-0.75,0.806-1.354,1.625-1.354C101.263,85.458,101.859,86.062,101.779,86.812z"/>
			</g>
			<g>
				<path fill="#FFFFFF" d="M46.706,88.23c-0.275,2.561,3.994,4.635,9.533,4.635c5.534,0,10.249-2.075,10.522-4.635
					c0.274-2.559-3.996-4.633-9.529-4.633C51.69,83.597,46.981,85.671,46.706,88.23z"/>
				<path fill="#560000" d="M51.502,88.116c-0.266,2.492,1.733,4.515,4.461,4.515c2.731,0,5.16-2.023,5.427-4.515
					c0.267-2.494-1.73-4.519-4.46-4.519C54.201,83.597,51.771,85.622,51.502,88.116z"/>
				<path fill="#FFFFFF" d="M55.158,86.812c-0.08,0.743,0.517,1.352,1.334,1.352c0.82,0,1.548-0.609,1.627-1.352
					c0.079-0.75-0.518-1.355-1.337-1.355C55.966,85.457,55.237,86.062,55.158,86.812z"/>
			</g>
		</g>
		<g>
			<path fill="#8F4E4B" d="M81.857,104.354c-0.037-0.295-0.693-0.418-1.465-0.27c-0.773,0.148-1.366,0.51-1.329,0.807
				c0.038,0.297,0.692,0.42,1.469,0.27C81.303,105.016,81.896,104.652,81.857,104.354z"/>
			<path fill="#8F4E4B" d="M71.327,104.354c0.102-0.295,0.783-0.418,1.524-0.27c0.74,0.148,1.26,0.51,1.156,0.807
				c-0.102,0.297-0.782,0.42-1.524,0.27C71.745,105.016,71.226,104.652,71.327,104.354z"/>
		</g>
	</g>
</g>
</svg>
