<?xml version="1.0" encoding="utf-8"?>
<!-- Generator: Adobe Illustrator 15.0.2, SVG Export Plug-In . SVG Version: 6.00 Build 0)  -->
<!DOCTYPE svg PUBLIC "-//W3C//DTD SVG 1.1//EN" "http://www.w3.org/Graphics/SVG/1.1/DTD/svg11.dtd">
<svg version="1.1" id="Layer_1" xmlns="http://www.w3.org/2000/svg" xmlns:xlink="http://www.w3.org/1999/xlink" x="0px" y="0px"
	 width="498px" height="594px" viewBox="0 0 498 594" enable-background="new 0 0 498 594" xml:space="preserve">
<g>
	<line fill="none" x1="61.258" y1="97.834" x2="57.195" y2="97.765"/>
	<line fill="none" x1="69.638" y1="97.962" x2="65.4" y2="97.904"/>
	<g>
		<path fill="#C83B0C" d="M0.002,589.134c25.258-0.72,53.759-0.11,73.964,0.873c-1.414-38.979,5.126-70.846,5.126-111.582
			c0-37.282,13.604-93.344,80.215-96.03c54.602-2.207,85.689,37.875,88.691,90.637c2.65,46.578,2.73,74.793,6.967,106.992
			c23.725-3.389,56.303-3.609,79.18-2.762c13.559-5.084,63.553-12.404,79.697-11.771c16.057-10.801,38.947-19.01,62.885-25.805
			c17.598-20.711,20.746-30.763,20.746-30.763c-13.91-53.096-27.57-147.676-27.57-206.426
			C288.004,268.605,152.893,169.345,90.226,73.544l-40.685-0.562c-10.034,19.234-27.265,39.312-49.54,59.328L0.002,589.134z"/>
		<path fill="#D35623" d="M65.8,73.375c0,0,3.839-0.049,3.839-0.048c15.841,68.634,68.75,156.002,147.58,207.49
			c-40.115,2.373-98.071,5.038-137.305,1.021C69.072,206.621,65.097,132.395,65.8,73.375z"/>
		<path fill="#D35623" d="M435.799,296.461l34.105,6.036c-181.9-33.892-317.012-133.152-379.678-228.953
			c0,0-4.062-0.038-4.062-0.036C140.102,156.935,262.627,253.534,435.799,296.461z"/>
		<path fill="#D35623" d="M378.164,290.78l-71.045-5.966C206.666,239.293,121.104,181.03,74.585,73.544l3.805-0.122
			C129.36,152.238,200.328,229.329,378.164,290.78z"/>
		<path fill="#D35623" d="M59.227,73.267l2.031-0.069c-4.666,49.063-22.468,112.407-61.256,168.95v-71.072
			C25.131,141.545,44.312,109.48,59.227,73.267z"/>
		<path fill="#D35623" d="M57.195,73.13l-3.52-0.048c-15.761,24.014-33.768,45.619-53.674,65.212v10.461
			C21.395,125.725,40.48,100.537,57.195,73.13z"/>
		<path fill="#D35623" d="M83.653,283.906c-18.336,0.697-49.864,1.487-83.651,2.413L0.001,589.925
			c26.66-0.189,57.136,1.146,77.705,2.148L83.653,283.906z"/>
		<path fill="#D35623" d="M254.967,580.023c23.725-3.389,56.303-3.609,79.18-2.762l-27.027-292.449
			c-36.975-3.062-82.01-3.996-89.9-3.996L254.967,580.023z"/>
		<path fill="#D35623" d="M435.799,296.461c-16.34-1.783-36.588-3.76-57.635-5.683l35.68,274.71
			c16.057-10.801,38.947-19.01,62.887-25.805L435.799,296.461z"/>
	</g>
	<g>
		<path fill="#5C1812" d="M77.081,75.973c0.917,0.335,2.419-1.901,2.419-1.901s1.758,1.724,2.589,1.553
			c0.832-0.172,0.017-2.312,0.017-2.312s2.822,1.251,3.765,0.583c0.943-0.667-4.059-4.13-6.179-3.577
			C76.36,71.187,76.166,75.637,77.081,75.973z"/>
		<path fill="#5C1812" d="M54.324,72.967c0.048,0.973-0.189,2.293,0.529,2.407c0.718,0.113,2.316-1.435,2.316-1.435
			s1.553,1.954,2.323,1.466c0.768-0.487-1.098-4.216-3.009-4.671c-2.364-0.562-5.79,2.026-5.407,2.645
			C51.458,74,53.293,73.547,54.324,72.967z"/>
		<path fill="#325D93" d="M38.753,40.447c0-11.366,2.617-18.345,5.92-23.683c-3.15-3.644-3.354-9.217-0.418-14.156
			c1.188,3.513,11.107,8.392,23.75,8.727c13.293,0.357,21.141-1.368,27-5.26c1.622,2.985-0.147,9.232-2.422,12.22
			c2.384,5.705,4.819,12.501,5.603,23.542c0.821,11.552-2.105,26.5-4.5,29.272c-1.771-0.652-3.938-2.187-5.193-3.712
			c-6.228,6.104-32.211,7.132-38.887,0.6c-1.375,1.86-6.336,4.802-6.336,4.802S38.753,56.549,38.753,40.447z"/>
		<path fill="#6185A6" d="M47.366,39.42c-6.367-14.714,3.682-30.427,21.172-21.67c17.523-9.343,26.358,7.888,19.955,22.45
			c-7.194,16.354-2.407,23.812,0,27.197c-3.428,6.001-15.645,6.325-21.758,6.386c-5.97,0.061-12.853-1.784-17.129-5.786
			C49.606,67.997,57.051,61.805,47.366,39.42z"/>
		<path fill="#81B1CA" d="M65.64,26.429c-0.049,0.439-0.125,0.878-0.221,1.313c-0.771,3.456-4.129,5.092-7.46,4.621
			c-3.928-0.562-6.566-3.48-6.13-7.458c0.494-4.493,5.867-6.844,9.875-5.618C65.107,20.335,65.99,23.361,65.64,26.429z"/>
		<path fill="#81B1CA" d="M85.725,27.171c-0.327,1.435-1.041,2.363-2.06,3.378c-1.788,1.79-4.782,2.297-7.259,1.703
			c-3.328-0.799-4.718-3.941-4.372-7.107c0.177-1.599,1.12-2.876,2.251-3.975c1.179-1.147,2.879-2.042,4.521-2.061
			c2.749-0.026,5.198,1.265,6.445,4.35C85.651,24.447,86.14,25.362,85.725,27.171z"/>
		<path fill="#5C1812" d="M79.321,29.773c-0.645,0.776-1.648,1.059-2.677,0.866c-1.402-0.259-2.635-1.618-2.473-3.063
			c0.35-3.154,5.094-3.108,5.76-0.263C80.121,28.124,79.851,29.134,79.321,29.773z"/>
		<path fill="#5C1812" d="M64.616,25.046c-0.04,0.253-0.106,0.49-0.195,0.704c-0.487,1.161-1.728,2.194-3.277,1.892
			c-1.524-0.298-2.086-1.236-2.371-2.276c-0.295-1.101,0.27-2.371,1.125-3.021c1.079-0.812,2.785-0.812,3.783,0.138
			C64.233,23.006,64.761,24.125,64.616,25.046z"/>
		<path opacity="0.5" fill="#B6D2E0" enable-background="new    " d="M61.637,24.813c0.119-0.832-1.069-0.987-1.234-0.137
			C60.269,25.383,61.506,25.743,61.637,24.813z"/>
		<path opacity="0.5" fill="#B6D2E0" enable-background="new    " d="M77.067,27.988c0.27-0.899-1.073-0.986-1.233-0.138
			C75.698,28.56,76.798,28.886,77.067,27.988z"/>
		<path fill="#560000" d="M65.472,33.71c0.445,2.685,3.949,5.238,3.949,5.238s3.835-3.568,3.587-5.796
			c-1.498-0.503-3-0.284-4.226-1.521C67.637,33.16,65.472,33.71,65.472,33.71z"/>
		<path fill="#6C0900" d="M65.472,33.71c0.825,0.948,3.949,3.027,3.949,3.027s2.815-2.412,3.587-3.585
			c-1.498-0.503-3-1.548-4.226-2.787C67.637,31.895,65.472,33.71,65.472,33.71z"/>
		<g>
			<path fill="#5C1812" d="M63.117,7.399c1.459-0.319,3.697-0.052,5.031,0.61c0.477-1.34,3.1-6.803,5.942-7.917
				c1.273-0.502,3.458,1.187,5.348,1.663c1.979,0.499,4.702,0.132,5.5,1.237c0.714,0.99,0.793,7.045,0.373,8.812
				c1.812,0.3,5.579,1.438,5.268,3.293c-0.287,1.684-2.958,2.145-5.745,2.477c-3.482,0.414-7.302,0.101-10.733-0.668
				c-3.603-0.804-7.882-2.533-10.214-4.581C61.759,10.456,60.419,7.986,63.117,7.399z"/>
			<path fill="#811200" d="M74.45,11.417c4.555,1.229,8.971,1.052,10.86,0.389c0.125-0.457,0.177-0.888,0.168-1.223
				c-2.639,0.332-5.825,0.11-9.146-0.518c-2.518-0.477-4.774-1.069-7.685-3.234c-0.194,0.449-0.483,0.796-0.501,1.179
				C68.458,8.828,71.047,10.498,74.45,11.417z"/>
		</g>
	</g>
	<g>
		<path fill="#811200" d="M284.893,392.085c0,0-32.98-67.459-127.049-67.459c-95.709,0-129.377,77.783-129.377,77.783l37.763,23.488
			c0,0,25.965-57.908,93.131-58.574c58.881-0.584,91.033,50.697,91.033,50.697L284.893,392.085z"/>
	</g>
	<g>
		<g>
			<path fill="#DE723A" d="M460.545,338.196c1.924-11.402,4.582-22.539,6.635-33.917c-4.221-1.172-7.143-1.848-13.332-3.16
				C456.506,313.409,457.805,325.922,460.545,338.196z"/>
			<path fill="#EBDB8A" d="M330.488,332.279c1.135-15.498,3.359-30.262,6.492-45.477c-9.041-0.742-13.914-1.125-24.119-1.784
				C317.738,301.227,324.102,316.62,330.488,332.279z"/>
			<path fill="#69C4BA" d="M300.473,332.423c0.871-16.13,3.467-32.02,7.152-47.732c-10.406-0.622-15.873-0.897-27.082-1.241
				C285.982,300.392,293.002,316.293,300.473,332.423z"/>
			<path fill="#81B1CA" d="M233.268,333.344c0.531-17.391,3.34-33.71,7.188-50.649c-9.631-0.149-19.266-0.272-28.896-0.366
				C217.639,300.067,224.449,316.776,233.268,333.344z"/>
			<path fill="#FCF0CF" d="M266.305,332.909c1.162-17.013,3.887-33.186,8.512-49.616c-9.52-0.189-19.037-0.354-28.557-0.508
				C251.934,300.02,258.689,316.446,266.305,332.909z"/>
			<path fill="#DE723A" d="M196.311,333.58c1.24-17.602,5.09-34.196,9.254-51.305c-10.146-0.083-20.291-0.126-30.438-0.127
				C180.705,300.373,186.777,317.013,196.311,333.58z"/>
			<path fill="#EBDB8A" d="M443.414,336.392c1.316-12.222,4.9-23.912,7.23-35.938c-6.4-1.308-9.953-1.971-16.479-3.097
				C437.262,310.365,440.238,323.4,443.414,336.392z"/>
			<path fill="#69C4BA" d="M423.627,334.677c2.121-12.7,4.943-25.219,7.26-37.878c-6.363-1.058-7.625-1.265-15.004-2.194
				C418.584,307.948,420.783,321.354,423.627,334.677z"/>
			<path fill="#81B1CA" d="M380.092,332.249c1.771-13.919,4.555-27.178,7.965-40.78c-8.318-0.852-12.607-1.263-21.123-2.048
				C370.723,303.917,375.576,317.97,380.092,332.249z"/>
			<path fill="#FCF0CF" d="M402.334,333.61c2.518-13.438,5.928-26.359,9.75-39.476c-7.561-0.92-11.592-1.366-19.822-2.229
				C395.438,305.854,399.088,319.677,402.334,333.61z"/>
			<path fill="#DE723A" d="M355.9,331.936c1.408-14.569,3.709-28.586,6.705-42.91c-8.506-0.772-12.334-1.109-21.1-1.848
				C344.818,302.585,350.771,317.091,355.9,331.936z"/>
		</g>
	</g>
	<g>
		<g>
			<path fill="#EBDB8A" d="M112.865,335.579c8.062-17.111,14.633-34.583,21.021-52.374c-11.287,0.033-22.571,0.115-33.858,0.231
				C106.56,300.276,110.053,317.808,112.865,335.579z"/>
			<path fill="#69C4BA" d="M74.757,335.497c6.154-17.299,11.993-34.712,18.239-51.976c-11.232,0.144-22.465,0.287-33.698,0.418
				C66.204,300.681,70.903,317.835,74.757,335.497z"/>
			<path fill="#81B1CA" d="M0,325.974c5.599-13.911,11.325-27.768,16.979-41.657c-5.66,0.131-11.319,0.27-16.978,0.414L0,325.974z"
				/>
			<path fill="#FCF0CF" d="M36.682,335.288c5.376-17.099,10.89-34.153,16.155-51.288c-9.804,0.09-19.608,0.048-29.412,0.197
				C28.718,301.024,32.887,318.071,36.682,335.288z"/>
		</g>
	</g>
	<g>
		<path fill="#E1CC6C" d="M70.467,398.526c0.164-0.225,1.595,0.474,1.904,0.699s-0.496,1.447-0.927,2.039l-1.477,2.025
			c-0.615,0.844-0.85,1.578-1.437,2.443c-0.526,0.78-0.854,1.229-1.416,1.94c-0.267,0.365-0.593,0.99-0.901,1.412
			c-0.226,0.311-0.487,0.55-0.62,0.496c-0.105-0.033-0.294-0.129-0.519-0.293c-0.479-0.349-1.1-0.974-1.489-1.387
			c-0.862-0.888-2.638-3.476-3.647-5.46c-0.179-0.347-0.743-1.878-0.845-2.211c-0.087-0.285-0.508-0.94-0.863-1.729l-0.297,0.366
			c-0.233,0.261-1.938,2.422-2.135,2.278c-0.282-0.205-0.542-0.438-0.763-0.729c-0.171-0.297-0.644-0.771-0.482-1.171
			c0.107-0.266,0.905-1.062,1.643-2.077c0.276-0.378,0.521-0.798,0.748-1.2c-0.651-1.16-1.35-2.366-1.44-2.578
			c-0.158-0.375-0.268-0.756-0.677-1.613c-0.487-1.046-1.079-2.599-1.276-2.741c-0.197-0.144-0.756,0.741-1.064,1.164
			c-0.554,0.76-2.348,2.511-2.574,2.82s-0.809,1.521-0.958,1.845s-0.229,0.609-0.557,1.06c-0.144,0.197-0.408,0.265-0.546,0.335
			c-0.139,0.071-1.321-0.316-1.687-0.583c-0.197-0.145,0.201-1.104,0.412-1.511c0.264-0.54,1.311-2.448,1.516-2.729
			c0.205-0.281,1.52-1.436,2.218-2.393c0.513-0.703,1.089-1.316,1.602-2.021c0.349-0.479,0.67-0.979,0.998-1.429
			c0.185-0.253,0.794-0.498,0.907-0.416c0.985,0.719,1.623,2.09,2.211,3.293c0.551,1.136,1.023,2.557,1.71,3.92
			c0.135,0.26,0.269,0.521,0.721,1.318c0.629-0.775,1.312-1.565,1.864-2.322c0.123-0.169,0.479-0.125,0.704,0.039
			c0.337,0.246,1.23,1.327,0.984,1.665c-0.718,0.985-1.544,1.895-2.235,2.938c0.469,0.938,1.148,2.49,1.29,2.793l1.036,2.479
			c0.575,1.28,2.121,3.356,2.229,3.563c0.108,0.208,0.756,0.854,0.954,0.997c0.198,0.143,1.125-1.248,1.31-1.501
			c0.41-0.562,0.93-1.865,1.196-2.231C68.696,400.898,69.565,399.765,70.467,398.526L70.467,398.526z"/>
		<path fill="#DE723A" d="M59.449,378.461c0.758,0.669,1.565,1.753,2.062,2.191c0.731,0.646,1.877,1.61,2.585,2.281
			c0.761,0.718,1.342,1.322,2.229,2.105c0.757,0.668,1.897,1.535,2.864,2.389c0.914,0.807,1.631,1.626,2.049,1.993
			c1.019,0.898,1.558,1.235,2.645,2.057c0.679,0.6,1.664,0.957,2.317,1.533c0.235,0.207,0.453,0.539,0.743,0.842
			c0.291,0.303,0.454,0.539,0.108,0.932c-0.507,0.574-1.248,1.36-1.431,1.199c-0.313-0.276-0.743-0.842-1.057-1.118
			c-0.235-0.208-0.569-0.409-0.902-0.61c-0.307-0.178-0.595-0.432-0.905-0.657c-0.861-0.762-1.957-1.311-2.845-2.095
			c-0.888-0.782-1.576-1.528-2.412-2.268c-0.835-0.737-2.266-1.906-3.571-3.059c-0.992-0.876-3.013-2.799-4.031-3.696
			c-0.731-0.646-1.354-1.521-1.693-1.819c-0.235-0.207-0.5-0.485-0.662-0.724c-0.107-0.143,0.407-0.987,0.799-1.433
			C58.825,377.958,59.005,378.07,59.449,378.461z"/>
		<path fill="#5FB8AC" d="M87.622,381.659c0.363,0.187,1.215,0.488,1.475,0.77c0.261,0.279-0.102,0.761-0.433,1.067
			c-0.51,0.475-0.995,0.925-1.138,0.771c-0.189-0.204-0.632-0.222-1.165-0.486c-1.307-0.64-2.589-1.303-3.769-2.061
			c-0.385-0.262-2.359-1.517-3.263-1.723c-1.544-0.319-2.389-0.707-3.611-0.727c-0.362,0.409-0.719,0.84-0.711,0.987
			c0.019,0.173,0.35,0.529,0.469,0.657c0.261,0.28,1.335,1.896,2.331,2.97c0.237,0.255,1.64,1.66,2.114,2.172
			c0.142,0.152,1.335,1.896,1.595,2.178c0.403,0.434,0.932,0.798,1.026,0.9c0.072,0.075-0.006,0.195-0.109,0.291
			c-0.204,0.189-0.558,0.423-0.836,0.635c-0.254,0.188-0.958,0.557-1.08,0.526c-0.122-0.029-0.479-0.361-0.645-0.541
			c-0.569-0.611-1.217-1.77-1.857-2.458c-0.379-0.407-1.378-1.382-2.042-2.096c-0.877-0.944-2.609-3.423-3.724-4.622
			c-1.256-1.353-2.609-2.757-4.245-4.518c-0.593-0.639-3.488-2.986-3.749-3.268c-0.332-0.356,0.412-1.144,0.514-1.237
			c0.127-0.118,0.206-0.238,0.64-0.643c1.148-1.066,3.105-2.694,3.734-3.042c0.628-0.347,2.178-0.931,3.48-0.809
			c1.817,0.165,2.884,1.312,4.093,2.614c0.688,0.738,0.882,1.462,1.051,2.257c0.084,0.396,0.247,0.674,0.334,0.973
			c0.288,0.873,0.183,1.731-0.043,2.512c-0.119,0.433-0.379,0.933-0.693,1.43c0.825-0.107,1.281,0.137,2.618,0.49
			c1.026,0.234,3.556,1.83,4.062,2.12C85.179,380.411,86.386,381.098,87.622,381.659L87.622,381.659z M74.893,376.657
			c0.673-0.861,0.948-1.641,0.883-2.579c-0.015-0.271-0.13-0.497-0.192-0.82c-0.183-1.065-0.418-1.369-0.797-1.777
			c-1.375-1.48-2.691-1.873-3.366-1.627c-0.45,0.181-1.128,0.524-1.833,0.942c-0.982,0.58-1.753,1.438-2.136,1.794
			c-0.102,0.096,1.318,1.011,2.362,2.133c0.568,0.611,3.316,3.62,3.417,3.574C73.331,378.251,74.297,377.449,74.893,376.657z"/>
		<path fill="#81B1CA" d="M97.637,370.471c1.311,0.782,3.744,2.567,3.963,2.883c0.238,0.343-0.138,0.774-0.547,1.103
			c-0.18,0.168-0.446,0.396-0.617,0.517c-0.143,0.1-0.56,0.05-0.873-0.155c-0.579-0.404-2.248-1.702-2.835-2.057
			c-1.331-0.813-2.971-1.156-4.35-1.979c-1.313-0.79-3.394-2.503-4.359-2.818c-0.158,0.938-0.265,1.817-0.218,1.979
			c0.196,0.585,0.594,1.156,0.946,1.844c0.855,1.654,2.033,3.465,2.89,4.693c0.358,0.514,1.417,1.729,1.656,2.07
			c0.239,0.344,0.235,0.643,0.23,0.816c-0.006,0.174-0.204,0.438-0.661,0.758c-0.429,0.298-0.657,0.458-0.879,0.442
			c-0.311-0.08-0.55-0.423-0.888-0.908c-0.219-0.313-0.86-0.929-1.438-1.757c-0.757-1.086-2.105-3.202-3.171-5.219
			c-1.086-2.045-2.222-3.673-2.719-4.388c-0.219-0.313-1.236-1.347-1.734-2.061c-0.657-0.942-1.336-2.039-2.034-3.039
			c-0.657-0.942-1.507-1.369-2.084-2.197c-0.1-0.144,0.13-0.728,0.49-1.062c0.237-0.208,0.455-0.444,0.597-0.544
			c0.114-0.079,0.289-0.073,0.502-0.012c0.758,0.236,2.085,1.773,2.523,2.401c0.677,0.972,1.22,1.994,1.838,2.88
			c0.278,0.399,1.764,2.165,2.018,2.285c0.166-1.346,0.477-3.091,0.486-3.99c0.011-0.897-0.171-2.682-0.082-3.466
			c0.156-1.298-0.132-2.625-0.229-4.043c0.083-0.186,0.292-0.373,0.549-0.553c0.257-0.179,0.505-0.311,0.754-0.44
			c0.334-0.189,0.574-0.271,0.713-0.071c0.717,1.026,0.689,3.424,0.679,4.747c-0.004,0.726,0.108,2.896,0.064,3.562
			c-0.044,0.662,0.043,2.111-0.269,2.933c1.428,0.423,3.785,2.245,4.843,2.837C94.724,369.275,96.553,369.825,97.637,370.471
			L97.637,370.471z"/>
		<path fill="#BABF3B" d="M104.443,344.89c0.198,0.406,1.575,2.448,1.895,3.105c0.745,1.536,1.428,3.023,2.294,4.811
			c0.41,0.846,0.695,1.753,1.074,2.613c0.335,0.689,0.763,1.333,1.067,2.037c0.408,1.002,0.817,2.004,1.131,3.051
			c0.3,0.938,0.554,1.86,0.698,2.798c0.147,0.779,0.379,2.217,0.146,3.412c-0.233,1.196-0.636,2.359-3.331,3.667
			c-0.501,0.243-1.001,0.408-1.471,0.56c-2.236,0.736-5.385-1.685-6.464-3.908c-0.471-0.972-1.082-2.069-1.629-3.197
			c-0.319-0.657-0.606-1.331-0.833-1.957c-0.512-1.531-1.299-3.396-1.965-5.086c-0.195-0.562-0.422-1.109-0.696-1.675
			c-0.806-1.661-2.001-3.326-2.137-3.607c-0.152-0.312-0.594-1.145-0.498-1.346c0.095-0.201,0.629-0.538,1.224-0.827
			c0.22-0.104,0.499-0.01,0.716,0.04c0.217,0.051,0.416,0.379,0.538,0.631c0.608,1.253,1.454,2.196,2.396,4.141
			c0.273,0.562,1.135,2.739,1.528,3.787c0.527,1.408,0.962,2.861,1.798,4.586c0.592,1.222,1.233,2.382,1.856,3.666
			c0.395,0.814,2.23,2.363,3.04,2.356c0.468,0.007,1.187-0.188,1.75-0.462c1.409-0.685,1.695-1.132,1.849-2.252
			c0.217-1.228-0.172-2.588-0.593-3.854c-0.301-0.938-0.904-2.58-1.282-3.521c-0.18-0.532-0.654-1.27-1.08-2.146
			c-0.472-0.973-1.045-2.475-1.38-3.163c-0.411-0.847-1.29-2.819-1.884-4.041c-0.197-0.407-1.378-1.964-1.697-2.622
			c-0.289-0.595-0.456-0.939,0.108-1.213C103.4,344.893,104.352,344.701,104.443,344.89z"/>
		<path fill="#AAABA8" d="M120.685,340.266c0.58,0.221,1.126,0.45,1.42,1.162c0.031,0.1,0.038,0.354,0.031,0.684
			c-0.007,0.33-0.165,1.108-0.597,1.243c-0.133,0.042-0.777-0.27-0.972-0.426c-0.336-0.262-0.695-0.478-1.264-0.663
			c-0.569-0.188-1.473-0.161-2.204,0.065c-0.598,0.188-1.602,0.828-1.93,1.295c-0.17,0.272-0.081,0.792,0.016,1.454
			c0.056,0.53,0.12,1.786,0.244,2.187c0.332,1.062,0.531,1.585,1.61,2.123c1.08,0.539,1.574,0.604,2.65,0.777
			c1.196,0.211,3.985,1.201,4.581,1.708c0.595,0.507,1.882,2.294,2.235,3.426c0.321,1.028,0.646,2.424,0.695,3.866
			c0.03,1.269-0.007,2.665-0.71,3.688c-0.703,1.021-2.182,1.773-3.212,2.096c-0.532,0.166-1.473,0.423-1.978,0.325
			c-2.129-0.396-3.682-1.515-4.231-3.275c-0.187-0.599-0.361-1.272-0.443-1.54c-0.146-0.465,0.258-0.81,0.526-1.003
			c0.357-0.257,0.623-0.34,0.889-0.423c0.366-0.114,0.735,0.136,0.87,0.567c0.187,0.599,0.243,1.128,0.464,1.604
			c0.382,0.757,0.583,1.168,1.862,1.646c0.372,0.139,0.85-0.083,1.282-0.218c1.163-0.362,1.845-0.867,2.177-1.555
			c0.233-0.655,0.136-1.318,0.115-1.97c-0.024-1.014-0.312-2.054-0.624-3.051c-0.238-0.766-1.097-1.883-1.627-2.411
			c-0.529-0.527-2.502-1.006-3.698-1.217c-1.03-0.263-2.4-0.564-3.075-0.975c-1.209-0.718-2.312-2.27-2.655-3.365
			c-0.228-0.731-0.36-1.857-0.428-2.895c-0.081-0.96-0.13-1.819,0.078-2.322c0.473-1.059,1.929-2.353,3.325-2.787
			C118.534,339.331,119.867,339.863,120.685,340.266z"/>
		<path fill="#E1CC6C" d="M145.393,334.997c0.347-0.036,1.012-0.035,1.262,0.009c0.142,0.021,0.477,0.547,0.501,0.788
			c0.029,0.277-0.03,1.055-0.146,1.275c-0.09,0.148-0.703,0.318-1.292,0.38c-0.623,0.065-1.573,0.024-2.369,0.107
			c-0.208,0.021-0.755,0.147-1.517,0.228c-0.588,0.062-1.147,0.085-1.208,0.161c-0.031,0.038-0.055,0.146-0.033,0.354
			c0.062,0.59,0.326,1.787,0.406,2.55c0.083,0.797,0.066,1.639,0.152,2.47c0.076,0.728,0.256,1.444,0.332,2.172
			c0.015,0.139,0.33,0.141,0.676,0.104c0.208-0.021,1.295-0.346,1.71-0.39c0.346-0.036,0.842,0.019,1.642-0.031
			c0.87-0.056,1.721-0.283,1.933-0.271c0.492,0.019,0.666,1.016,0.717,1.501c0.025,0.242-0.053,0.496-0.112,0.606
			s-0.641,0.241-1.049,0.354c-0.135,0.049-0.755,0.148-1.447,0.222c-0.693,0.071-1.085,0.009-1.361,0.036
			c-0.382,0.04-1.438,0.325-2.233,0.408c-0.208,0.021-0.263,0.168-0.318,0.312c-0.055,0.146-0.073,0.639-0.001,1.331
			c0.072,0.692,0.346,2.311,0.483,3.625c0.079,0.764-0.053,2.178,0.037,3.043c0.072,0.692,0.276,1.303,0.484,1.279
			c0.416-0.043,1.235-0.232,1.478-0.259c0.658-0.068,2.551-0.056,2.827-0.085c0.416-0.043,1.188-0.369,1.568-0.408
			c0.173-0.019,0.494,0.368,0.654,0.562c0.199,0.224,0.347,0.979,0.383,1.324c0.043,0.415-2.241,1.005-2.864,1.069
			c-0.832,0.086-2-0.037-2.381,0.003c-0.658,0.068-2.638,0.555-3.296,0.624c-0.277,0.028-0.586-0.92-0.847-2.083
			c-0.138-0.651-0.249-1.374-0.318-2.032c-0.115-1.107-0.118-2.475-0.146-2.751c-0.093-0.899-0.273-1.616-0.385-2.689
			c-0.126-1.213-0.218-2.43-0.146-3.416c0.029-0.39,0.024-0.773-0.016-1.154c-0.104-1.005-0.379-1.956-0.483-2.961
			c-0.08-0.762-0.101-1.635-0.173-2.328c-0.083-0.796-0.235-1.586-0.322-2.417c-0.086-0.831-0.01-2.45,0.291-2.586
			c0.135-0.049,1.572-0.374,1.953-0.414c0.416-0.043,2.021-0.421,2.75-0.497C143.789,335.061,144.769,335.063,145.393,334.997z"/>
		<path fill="#D35623" d="M158.916,335.321c0.127,0.318,0.484,1.934,0.6,2.6c0.428,2.596,0.928,5.157,1.357,7.718
			c0.084,0.561,0.258,1.508,0.418,1.896c0.16,0.391,0.588,2.043,1.004,3.068c0.16,0.39,0.336,1.267,0.439,1.271
			c0.209,0.008,0.754-1.54,1.096-2.294c0.492-1.062,0.879-2.129,1.336-3.191c0.648-1.511,1.4-3.051,1.945-4.635
			c0.504-1.375,1.008-2.716,1.543-4.09c0.271-0.722,0.719-1.507,1.018-2.089c0.188-0.341,2.072-0.412,2.594-0.393
			c0.695,0.024,1.029,0.456,1.004,1.116c-0.047,1.287-0.057,2.541-0.104,3.829c-0.057,1.531-0.459,4.896-0.469,5.176
			c-0.01,0.277,0.039,4.671,0.023,5.054c-0.02,0.557-0.385,3.854-0.471,6.221c-0.029,0.8,0.041,1.778,0.014,2.476
			c-0.008,0.242-0.16,0.586-0.232,0.652c-0.072,0.067-0.734,0.077-1.188,0.062c-0.557-0.021-0.996-0.42-1.006-1.082
			c-0.061-1.224,0.02-2.439,0.064-3.657c0.057-1.565,0.361-4.169,0.381-4.655c0.016-0.486-0.035-4.774-0.021-5.157
			c0.014-0.384,0.543-5.348,0.551-5.591c0.012-0.278-0.127-0.317-0.266-0.323c-0.174-0.007-1.322,3.75-1.398,3.922
			c-0.424,1.135-0.953,2.266-1.445,3.361c-0.303,0.616-0.568,1.233-0.836,1.852c-0.729,1.854-1.531,3.776-2.475,5.729
			c-0.074,0.138-0.578,0.536-0.723,0.705s-0.301,0.616-0.547,0.677c-0.246,0.062-0.523,0.017-0.906,0.003
			c-1.008-0.036-1.277-1.267-1.559-2.184c-0.367-1.372-1.514-4.376-1.637-4.799c-0.125-0.423-0.287-1.683-0.555-2.912
			c-0.266-1.3-0.564-2.704-0.666-3.719c-0.051-0.489-0.465-2.562-0.688-3.126c-0.096-0.248-0.197-0.286-0.303-0.29
			c-0.244-0.009-0.301,4.415-0.385,5.771c-0.088,1.427-0.232,3.478-0.355,4.9c-0.086,1.391,0.107,3.731,0.045,5.473
			c-0.031,0.87-0.285,3.021-0.299,3.404c-0.004,0.104,0.051,0.524,0.047,0.629c-0.01,0.278-0.398,0.438-0.852,0.422
			c-0.174-0.007-1.113-0.041-1.316-0.257c-0.199-0.217-0.291-0.568-0.277-0.951c0.014-0.349,0.223-2.257,0.26-3.267
			c0.037-1.984-0.1-3.941-0.029-5.925c0.057-1.531,0.32-3.021,0.375-4.553c0.068-1.879,0.066-3.726,0.346-5.598
			c0.133-0.796,0.301-1.592,0.332-2.392c0.01-0.313-0.082-0.665-0.07-0.979c0.01-0.278,0.09-0.52,0.375-0.684
			c0.215-0.166,1.365-0.159,1.748-0.146C157.729,334.406,158.787,335.003,158.916,335.321z"/>
		<path fill="#69C4BA" d="M189.475,338.966c0.566,0.566,1.1,1.694,1.209,2.425c0.111,0.729,0.061,2.881-0.234,4.455
			c-0.271,1.438-0.588,3.113-1.264,4.262c-0.785,1.341-1.793,2.002-2.316,2.149c-0.525,0.15-3.094,0.058-3.848-0.085
			c-0.514-0.097-1.801-0.409-2.006-0.447c-0.115,0.049-0.119,0.261-0.158,0.466c-0.252,1.335-0.291,2.674-0.541,4.009
			c-0.219,1.163-0.604,2.26-0.891,3.41c-0.064,0.343-0.211,1.13-0.381,1.274c-0.168,0.146-1.174,0.026-1.652-0.062
			c-0.377-0.071-0.611-0.327-0.521-0.807c0.143-0.753,0.678-2.282,0.891-3.411c0.303-1.608,0.385-3.364,0.693-5.007
			c0.387-2.055,0.664-4.093,1.102-6.419c0.168-0.89,0.396-1.731,0.633-2.608c0.295-1.008,0.68-2.104,0.879-3.165
			c0.121-0.65,0.148-1.921,0.213-2.264c0.078-0.41,0.131-0.507,0.334-0.646c0.203-0.139,1.209-0.021,1.756,0.083
			C185.73,337.021,188.908,338.399,189.475,338.966z M183.326,340.572c-0.322,1.711-0.924,2.838-1.238,4.515
			c-0.264,1.403-0.635,4.133-0.58,4.214c0.262,0.298,1.193,0.438,1.979,0.586c0.617,0.114,2.094,0.181,2.387,0.129
			s0.855-0.405,1.156-0.88c0.498-0.758,0.703-1.854,0.852-2.641c0.303-1.606,0.721-4.966,0.156-5.533
			c-0.566-0.565-1.516-0.992-2.412-1.304c-0.631-0.226-1.9-0.641-2.104-0.502S183.396,340.196,183.326,340.572z"/>
		<path fill="#76A2BE" d="M203.346,341.678c0.379,0.3,0.34,2.548,0.232,3.717l-0.557,4.494c-0.15,1.192-0.281,2.318-0.5,3.49
			c-0.119,0.619-0.268,1.339-0.42,1.947c-0.133,0.542-0.078,1.069-0.109,1.645c-0.018,0.76-0.166,1.479-0.217,2.229l-0.189,2.021
			c-0.08,1.434-0.812,4.852-0.873,5.052c-0.062,0.199-1.066,0.144-1.666-0.042c-0.598-0.187-0.57-0.396-0.531-0.64
			s0.59-3.899,0.691-5.399c-0.004-0.221-0.033-0.484-0.078-0.571c-0.826-0.511-1.781-0.844-2.691-1.198
			c-0.887-0.312-2.254-0.846-2.395-0.854c-0.145-0.008-0.617,0.574-0.982,1.045c-0.363,0.471-2.365,4.334-2.457,4.633
			c-0.061,0.2-0.959-0.078-1.426-0.223c-0.299-0.094-0.83-0.258-0.748-0.524l0.361-1.164c0.248-0.798,1.367-2.527,2.088-3.799
			c0.246-0.435,0.602-0.762,0.879-1.187c0.361-0.58,0.764-1.403,0.92-1.792c0.23-0.513,1.035-2.632,2.221-4.927
			c0.994-1.915,2.107-3.976,3.088-5.493c0.373-0.613,0.689-1.281,1.072-1.929c0.311-0.523,1.033-1.685,1.799-1.446
			c0.365,0.112,0.807,0.104,1.205,0.228C202.463,341.112,202.965,341.376,203.346,341.678z M200.934,343.335
			c-0.158,0.278-0.523,1.224-0.705,1.567c-0.18,0.346-2.354,4.301-3.051,5.726c-0.77,1.547-2.053,4.503-2.061,4.646
			s0.412,0.2,0.611,0.263c0.631,0.196,1.244,0.568,1.867,0.798c0.621,0.229,1.721,0.681,1.84,0.645
			c0.121-0.035,0.098-0.662,0.111-1.061c0.01-0.507,0.191-1.324,0.332-2.011c0.262-1.195,0.512-2.355,0.674-3.583
			c0.127-0.763,0.098-1.609,0.225-2.372c0.162-0.753,0.201-1.47,0.336-2.375c0.049-0.275,0.291-1.879,0.174-2.206
			c-0.023-0.044-0.09-0.063-0.123-0.075C201.098,343.277,200.979,343.313,200.934,343.335z"/>
		<path fill="#C4C63A" d="M220.273,348.441c0.385,0.168,1.07,0.508,1.205,0.72s0.316,0.405,0.037,1.043
			c-0.084,0.191-0.24,0.542-0.539,0.79c-0.299,0.249-1.127-0.115-1.67-0.354c-0.764-0.336-1.199-0.644-1.691-0.82
			c-0.492-0.179-0.857-0.302-1.092-0.29c-0.232,0.012-0.473,1.162-0.721,1.812c-0.23,0.696-0.416,1.377-0.738,2.109
			c-0.631,1.435-1.344,2.794-2.039,4.2c-0.732,1.579-1.203,2.818-1.902,4.412c-0.252,0.573-0.756,1.455-1.09,1.955
			c-0.287,0.48-0.541,1.055-0.766,1.564c-0.557,1.009-1.162,2.037-1.625,3.089c-0.098,0.224-0.27,0.527-0.549,0.558
			c-0.324,0.047-1.055-0.197-1.34-0.324c-0.734-0.322-0.551-0.736-0.48-0.896c0.238-0.543,1.504-2.989,1.93-3.868l0.252-0.573
			c0.379-0.86,1.045-1.595,1.451-2.52c0.238-0.542,0.459-1.13,0.697-1.672c0.584-1.416,1.188-2.786,1.934-4.133
			c0.428-0.8,1.029-2.17,1.17-2.489c0.477-1.083,0.84-2.255,1.158-3.407c0.023-0.143,0.111-0.599-0.033-0.7
			c-0.146-0.103-0.887-0.237-1.586-0.546c-0.734-0.322-2.141-1.018-2.311-1.32c-0.172-0.303,0.129-1.16,0.256-1.447
			c0.252-0.572,0.578-0.62,1.023-0.424c0.543,0.238,1.947,0.934,2.236,1.061c0.35,0.153,4.666,1.406,5.049,1.574
			C219.01,347.771,219.764,348.216,220.273,348.441z"/>
		<path fill="#B5B6B3" d="M237.766,358.344c-0.145,0.237-0.41,0.403-0.717,0.909c-0.416,0.685-0.908,1.159-1.359,1.699
			c-0.883,1.053-1.771,2.916-2.639,3.938c-0.77,0.999-1.227,1.616-1.734,2.449c-0.506,0.835-1.146,2.156-1.652,2.989
			c-0.398,0.654-1.193,1.761-1.627,2.476c-0.633,1.041-1.07,2.161-1.674,3.222c-0.367,0.672-0.783,1.355-1.199,2.041
			c-0.381,0.625-0.766,0.922-1.271,0.613c-0.564-0.345-1.1-0.669-1.135-0.812c-0.047-0.19-0.213-0.252,0.238-0.996
			c0.254-0.416,0.861-1.351,1.248-2.053c0.586-1.03,1.062-2.084,1.738-3.263c0.598-0.982,1.248-1.852,1.398-2.166
			c0.322-0.661,0.773-1.608,0.787-1.764c0.014-0.154-1.457-1.09-2.016-1.512c-0.34-0.246-0.988-0.519-1.375-0.754
			c-0.684-0.416-1.422-1.149-1.518-1.126c-0.094,0.023-0.461,0.493-0.66,0.82c-1.104,1.814-2.012,2.771-3.047,4.139
			c-0.859,1.148-1.689,2.11-2.521,3.479c-0.254,0.416-0.633,1.041-0.854,1.07c-0.221,0.028-0.734-0.201-1.002-0.364
			c-0.416-0.253-0.893-0.543-0.777-0.799c0.133-0.286,0.297-0.757,0.459-1.023c0.705-1.161,1.373-1.855,2-2.819
			c0.445-0.667,0.963-1.249,1.432-1.819c0.65-0.868,1.33-1.719,1.891-2.641c0.598-0.982,1.316-2.298,2.002-3.429
			c0.471-0.773,0.99-1.56,1.459-2.332c0.236-0.389,0.449-1.072,0.686-1.46c0.486-0.804,1.076-1.504,1.5-2.47
			c0.273-0.649,0.877-1.709,0.92-1.847c0.041-0.137,0.098-0.632,0.207-0.812c0.107-0.179,0.879-0.036,1.354,0.254
			c0.537,0.325,0.791,0.644,0.826,0.787c0.035,0.143-0.135,0.69-0.178,0.827c-0.061,0.167-0.531,0.941-1.082,2.114
			c-0.363,0.798-0.887,1.458-1.463,2.41c-0.326,0.536-0.666,1.43-1.082,2.114c-0.17,0.346-0.881,1.38-0.852,1.602
			c0.027,0.222,1.234,1.118,1.92,1.534c0.297,0.181,0.721,0.356,1.107,0.591c0.297,0.183,0.916,0.64,1.125,0.767
			c0.396,0.282,0.736,0.529,0.91,0.513s1.064-1.349,1.805-2.366c0.613-0.809,1.363-2.309,1.99-3.07
			c0.535-0.61,1.189-1.354,1.605-2.038c0.344-0.565,0.672-0.772,0.889-0.927c0.217-0.153,0.697,0.059,1.145,0.329
			C237.445,357.66,237.891,358.136,237.766,358.344z"/>
		<path fill="#E1CC6C" d="M245.854,364.331c-0.201,0.549-1.326,1.791-1.664,2.234c-1.629,2.13-3.119,4.365-5.021,6.854
			c-1.078,1.41-1.785,1.878-3.043,3.238c-0.963,0.973-1.611,1.705-2.268,2.562c-0.146,0.193-0.467,0.782-0.721,1.114
			c-0.719,0.94-1.641,2.032-2.084,2.613c-0.232,0.305-0.43,0.504-0.84,0.41c-0.283-0.086-0.609-0.291-0.721-0.376
			c-0.359-0.274-0.893-0.727-0.75-0.968c0.143-0.242,0.475-0.734,0.686-1.012c0.824-1.078,1.414-1.679,1.752-2.121
			c0.361-0.471,0.812-1.177,0.982-1.397c0.619-0.753,1.463-1.687,2.404-2.632c1.16-1.173,1.928-1.945,2.689-2.941
			c1.67-2.186,3.166-4.373,4.771-6.475c0.424-0.554,1.248-1.459,1.67-2.012c0.086-0.11,0.121-0.216,0.311-0.465
			c0.191-0.249,0.828,0.063,1.299,0.424C245.691,363.683,245.91,364.199,245.854,364.331z"/>
		<path fill="#D8642E" d="M257.297,374.02c0.301,0.752,0.508,1.605,0.49,2.396c0.002,0.665-0.342,1.296-0.471,1.794
			c-0.223,0.601-0.52,1.18-0.945,1.64c-0.094,0.103-0.311,0.233-0.559,0.194c-0.371-0.059-1.371-0.413-1.5-0.53
			c-0.23-0.214-0.121-0.537,0.016-0.84c0.291-0.726,0.689-1.26,0.928-2.032c0.266-0.8,0.031-1.678-0.582-2.244
			c-0.461-0.425-1.568-1.021-2.307-0.942c-0.736,0.079-1.215,0.395-1.818,0.738c-1.951,1.089-3.738,2.664-5.391,4.455
			c-0.756,0.818-1.504,1.834-2.166,2.551c-1.182,1.279-2.16,2.649-2.809,4.327c-0.223,0.601-0.447,1.151-0.568,1.797
			c-0.139,0.868,0.811,1.742,1.348,2.238c0.256,0.234,1.148,1.013,1.686,0.844c0.484-0.167,0.852-0.256,1.211-0.492
			c0.432-0.312,0.85-0.971,1.203-1.354c0.283-0.308,1.158-0.021,1.645,0.428c0.256,0.236,0.414,0.476,0.326,0.775
			c-0.09,0.25-0.416,0.656-0.607,0.861c-0.543,0.588-1.227,1.33-1.855,1.651c-0.508,0.242-1.094,0.364-1.629,0.533
			c-1.314,0.397-3.146-1.058-3.967-1.812c-0.689-0.638-1.307-1.254-1.617-2.202c-0.475-1.436,0.014-2.784,0.527-4.111
			c0.559-1.428,1.266-2.859,2.445-4.141c0.379-0.409,0.758-0.77,0.971-1c0.377-0.409,1.709-2.212,2.631-3.21
			c0.803-0.871,1.951-1.755,2.979-2.608c1.238-1.035,3.643-2.562,4.742-2.777c1.102-0.217,3.422,0.504,4.625,1.614
			C256.711,372.958,257.053,373.462,257.297,374.02z"/>
		<path fill="#69C4BA" d="M269.484,387.015c0.688,1.931,0.188,3.597-0.785,5.298c-0.484,0.827-0.969,1.653-1.621,2.394
			c-0.246,0.302-1.584,1.31-1.875,1.559c-0.928,0.791-1.6,1.504-2.793,2.521c-1.35,1.154-2.662,1.817-4.148,2.812
			c-1.197,0.795-2.385,1.442-3.861,1.697c-0.953,0.172-1.863,0.446-2.93,0.165c-0.988-0.3-1.969-1.019-2.693-1.866
			c-0.748-0.873-1.264-1.53-1.479-2.265c-0.201-1.201-0.033-2.397,0.645-4.124c0.494-1.246,2.691-3.445,4.307-4.825
			c2.039-1.743,4.312-3.317,6.441-4.955c0.891-0.671,2.316-1.521,2.854-1.752c0.535-0.229,1.104-0.21,1.727-0.284
			c0.4-0.067,0.959-0.271,1.646-0.217c0.689,0.055,2.332,0.528,3.734,2.17C269.377,386.19,269.285,386.405,269.484,387.015z
			 M264.992,385.724c-0.559-0.118-1.271,0.122-1.822,0.228c-0.199,0.033-0.801,0.135-1.391,0.41
			c-0.975,0.467-2.025,1.272-2.84,1.877c-1.467,1.07-2.938,2.19-4.342,3.39c-0.979,0.837-2.197,1.878-3.139,2.866
			c-0.996,1.033-1.686,2.266-1.801,3.737c-0.049,0.639,0.629,1.433,1.059,1.936c0.861,1.006,2.232,1.163,3.414,0.887
			c0.73-0.166,1.643-0.763,2.598-1.305c1.398-0.829,2.953-1.745,4.092-2.718c0.926-0.792,1.842-1.758,2.795-2.572
			c0.688-0.588,1.906-1.629,2.463-2.426c0.92-1.336,1.791-3.96,0.932-4.966C266.264,386.193,265.6,385.846,264.992,385.724z"/>
	</g>
	<g>
		<path fill="#793636" d="M68.54,583.212c58.667,5.643,137.884-0.271,190.239-8.208C248,473.03,255.812,380.042,159.307,382.395
			C43.64,385.212,68.54,583.212,68.54,583.212z"/>
		<path fill="#81B1CA" d="M266.643,579.364c0,0-10.41-104.297-21.711-143.84c-11.299-39.545-47.748-56.502-83.104-56.502
			c-45.667,0-76.892,21.705-89.346,63.783c-13.286,44.879-5.37,147.2-5.37,147.2s4.642,1.781,16.5-9.166
			c14.686-13.557,22.696-92.85,14.122-112.909c31.062-11.279,55.461-36.347,62.805-67.416c12.43,30.506,35.037,51.694,61.42,66.338
			c-16.078,22.283-4.533,91.36,19.826,106.862C254.213,581.624,266.643,579.364,266.643,579.364z"/>
		<path fill="#971B00" d="M272.422,579.364c0,0-10.197-78.656-16.045-122.891c-6.266-47.394-44.992-83.191-96.441-83.191
			c-50.916,0-97.065,39.719-97.065,94.59c0,46.215-1.854,125.031-1.854,125.031l18.925,0.396
			c1.783-36.074-0.744-86.437,2.216-123.867c3.546-44.861,30.932-74.588,78.384-76.261c40.744-1.438,71.584,38.834,75.096,64.005
			c3.709,26.582,11.357,93.135,15.469,125.01L272.422,579.364z"/>
	</g>
</g>
</svg>
