<?xml version="1.0" encoding="utf-8"?>
<!-- Generator: Adobe Illustrator 15.0.2, SVG Export Plug-In . SVG Version: 6.00 Build 0)  -->
<!DOCTYPE svg PUBLIC "-//W3C//DTD SVG 1.1//EN" "http://www.w3.org/Graphics/SVG/1.1/DTD/svg11.dtd">
<svg version="1.1" id="Layer_1" xmlns="http://www.w3.org/2000/svg" xmlns:xlink="http://www.w3.org/1999/xlink" x="0px" y="0px"
	 width="278px" height="334px" viewBox="-0.5 -0.5 278 334" enable-background="new -0.5 -0.5 278 334" xml:space="preserve">
<g>
	<rect x="72.087" y="-0.5" fill="#A1856E" width="205.413" height="314.381"/>
	<rect x="80.578" y="8.017" fill="#811200" width="188.429" height="297.742"/>
	<rect x="80.578" y="267.152" fill="#6C0900" width="188.429" height="38.606"/>
	<g>
		<path fill="#C08880" d="M184.21,96.683c1.746,0.873,5.994,4.466,7.41,9.586c0.982,3.377,1.306,7.189,1.306,10.784
			c0,3.487-0.363,6.947-1.958,10.131c-1.86,3.708-5.926,8.075-7.494,9.724c-1.567,1.648-4.049,5.144-4.875,7.429
			c-0.885,2.439-0.805,10.843-0.805,12.477c0,0.545-2.289,1.197-3.923,1.197c-1.636,0-3.596-0.98-3.596-1.743
			c0-0.326-0.217-3.049-0.217-5.336c0-4.034,0.912-9.106,2.604-12.376c1.045-2.022,3.354-4.588,4.905-6.361
			c1.632-1.868,4.031-3.919,5.121-5.881c1.197-1.962,2.396-5.229,2.396-7.627c0-4.683-0.436-10.019-2.07-12.636
			c-2.894-4.628-9.873-4.038-14.428-2.481c-2.989,1.023-3.511,2.989-4.175,5.796c-0.584,2.452-2.228,3.096-3.561,3.096
			c-0.989,0-4.047-0.372-4.36-1.155c-0.416-1.042-0.14-2.645,0.163-4.528c1.257-7.778,7.266-10.063,13.934-11.619
			c1.416-0.327,4.364-0.327,5.889-0.327C179.094,94.939,182.467,95.81,184.21,96.683z M177.226,166.071
			c0.977,1.091,1.525,2.944,1.525,4.141c0,1.197,0,2.069-0.549,3.377c-0.652,1.526-2.503,2.395-5.009,2.395
			c-2.396,0-3.812-1.521-3.812-4.136c0-1.961,0.106-3.379,0.543-4.576c0.328-0.981,1.311-1.962,1.746-2.18
			c0.872-0.435,1.633-0.544,2.505-0.544C176.025,164.548,176.025,164.874,177.226,166.071z"/>
	</g>
	<g>
		<polygon fill="#A45447" points="7.62,333.5 -0.373,330.17 -0.373,5.798 7.62,3.579 		"/>
		<polygon fill="#9A4133" points="7.62,333.5 80.578,305.759 80.578,8.017 7.62,3.579 		"/>
		<polygon fill="#8E2A19" points="72.417,282.244 24.551,298.89 24.551,29.312 72.417,30.422 		"/>
		<polygon fill="#9A4133" points="69,279.603 27.969,292.918 27.969,34.171 69,34.171 		"/>
		<path fill="#8E2A19" d="M21.488,160.325c0,4.356-2.539,7.889-5.67,7.889s-5.668-3.532-5.668-7.889
			c0-4.352,2.537-7.882,5.668-7.882S21.488,155.973,21.488,160.325z"/>
	</g>
</g>
</svg>
