<?xml version="1.0" encoding="utf-8"?>
<!-- Generator: Adobe Illustrator 15.0.2, SVG Export Plug-In . SVG Version: 6.00 Build 0)  -->
<!DOCTYPE svg PUBLIC "-//W3C//DTD SVG 1.1//EN" "http://www.w3.org/Graphics/SVG/1.1/DTD/svg11.dtd">
<svg version="1.1" id="Layer_5" xmlns="http://www.w3.org/2000/svg" xmlns:xlink="http://www.w3.org/1999/xlink" x="0px" y="0px"
	 width="385.2px" height="198px" viewBox="0 0 385.2 198" enable-background="new 0 0 385.2 198" xml:space="preserve">
<g>
	<g>
		<rect x="60.718" y="20.489" fill="#FFFFFF" width="263.951" height="157.503"/>
		<g>
			<rect x="60.718" y="20.489" fill="#760D00" width="263.951" height="157.503"/>
		</g>
		<g>
			<rect x="65.377" y="20.453" fill="#811200" width="9.438" height="157.08"/>
			<rect x="81.627" y="20.453" fill="#811200" width="9.443" height="157.08"/>
			<rect x="97.884" y="20.453" fill="#811200" width="9.438" height="157.08"/>
			<rect x="114.136" y="20.453" fill="#811200" width="9.436" height="157.08"/>
			<rect x="130.385" y="20.453" fill="#811200" width="9.442" height="157.08"/>
			<rect x="146.642" y="20.453" fill="#811200" width="9.439" height="157.08"/>
			<rect x="162.891" y="20.453" fill="#811200" width="9.44" height="157.08"/>
			<rect x="179.146" y="20.453" fill="#811200" width="9.439" height="157.08"/>
			<rect x="211.651" y="20.453" fill="#811200" width="9.436" height="157.08"/>
			<rect x="195.396" y="20.453" fill="#811200" width="9.438" height="157.08"/>
			<rect x="227.902" y="20.453" fill="#811200" width="9.438" height="157.08"/>
			<rect x="244.155" y="20.453" fill="#811200" width="9.439" height="157.08"/>
			<rect x="260.407" y="20.453" fill="#811200" width="9.438" height="157.08"/>
			<rect x="276.661" y="20.453" fill="#811200" width="9.438" height="157.08"/>
			<rect x="292.913" y="20.453" fill="#811200" width="9.439" height="157.08"/>
			<rect x="309.167" y="20.453" fill="#811200" width="9.439" height="157.08"/>
		</g>
		<g>
			<rect x="60.718" y="138.837" fill="#C22D00" width="263.951" height="39.507"/>
			<rect x="60.718" y="138.658" fill="#AC2400" width="263.951" height="3.134"/>
		</g>
		<path fill="#69C4BA" d="M60.718,178.343V20.489h52.502c-4.9,15.469-18.775,39.361-35.538,49.512
			c1.433,35.988-2.902,75.604-11.443,108.343L60.718,178.343L60.718,178.343z"/>
		<path fill="#69C4BA" d="M324.668,178.343V20.489h-52.502c4.903,15.469,18.778,39.361,35.543,49.512
			c-1.436,35.988,2.9,75.604,11.441,108.343L324.668,178.343L324.668,178.343z"/>
		<path fill="#3F9583" d="M60.718,61.656c4.438,4.188,11.034,7.302,18.353,7.555c0,0.875-0.703,1.861-1.351,1.839
			c-5.349,0.291-13.527-2.102-16.939-5.544L60.718,61.656z"/>
		<path fill="#3F9583" d="M324.668,61.656c-4.438,4.188-11.033,7.302-18.348,7.555c0,0.875,0.695,1.861,1.348,1.839
			c5.348,0.291,13.523-2.102,16.938-5.544L324.668,61.656z"/>
		<g>
			<g>
				<g>
					<path fill="#8A4E4B" d="M194.092,162.346c-0.021-0.084-0.195-0.119-0.396-0.076c-0.196,0.043-0.344,0.146-0.323,0.231
						c0.02,0.083,0.193,0.116,0.391,0.074C193.959,162.532,194.108,162.43,194.092,162.346z"/>
					<path fill="#8A4E4B" d="M191.34,162.346c0.018-0.084,0.193-0.119,0.391-0.076c0.198,0.043,0.344,0.146,0.325,0.231
						c-0.018,0.083-0.192,0.116-0.393,0.074C191.467,162.532,191.321,162.43,191.34,162.346z"/>
				</g>
				<g>
					<circle fill="#EEE09C" cx="192.681" cy="159.066" r="12.425"/>
				</g>
				<g>
					<path fill="#713710" d="M199.702,152.223c-0.957-0.334-1.906-0.519-2.783-0.561c0.773-0.229,1.832-0.184,2.914,0.191
						c1.078,0.377,1.937,0.994,2.398,1.66C201.518,153,200.659,152.557,199.702,152.223z"/>
					<path fill="#713710" d="M185.728,152.223c0.955-0.334,1.907-0.519,2.784-0.561c-0.777-0.229-1.835-0.184-2.915,0.191
						c-1.075,0.377-1.932,0.994-2.401,1.66C183.913,153,184.767,152.557,185.728,152.223z"/>
				</g>
				<g>
					<path fill="#8A4E4B" d="M194.092,160.027c-0.021-0.086-0.195-0.121-0.396-0.077c-0.196,0.042-0.344,0.146-0.323,0.229
						c0.02,0.088,0.193,0.121,0.391,0.074C193.959,160.218,194.108,160.109,194.092,160.027z"/>
					<path fill="#8A4E4B" d="M191.34,160.027c0.018-0.086,0.193-0.121,0.391-0.077c0.198,0.042,0.344,0.146,0.325,0.229
						c-0.018,0.088-0.193,0.121-0.393,0.074C191.467,160.218,191.321,160.109,191.34,160.027z"/>
				</g>
				<g>
					<path opacity="0.75" fill="#BE9680" enable-background="new    " d="M192.712,162.464c-3.067,0-5.909-0.578-8.235-1.56
						c1.093,3.451,4.367,5.953,8.235,5.953c3.873,0,7.147-2.502,8.242-5.949C198.625,161.886,195.784,162.464,192.712,162.464z"/>
					<g>
						<path fill="#FFFFFF" d="M189.23,165.234c0.913,0.479,2.136,0.781,3.482,0.781c1.348,0,2.576-0.302,3.486-0.781H189.23z"/>
						<path fill="#FFFFFF" d="M192.712,163.162c-2.209,0-4.253-0.2-5.932-0.534c0.788,1.179,3.146,2.474,5.932,2.474
							c2.789,0,5.149-1.295,5.935-2.474C196.97,162.963,194.926,163.162,192.712,163.162z"/>
					</g>
				</g>
				<g>
					<g>
						<g>
							<g>
								<g>
									<path fill="#FFFFFF" d="M187.686,155.241c0,0.225-0.187,0.411-0.413,0.411s-0.413-0.188-0.413-0.411
										c0-0.23,0.187-0.413,0.413-0.413S187.686,155.011,187.686,155.241z"/>
								</g>
								<g>
									<path fill="#FFFFFF" d="M185.582,157.018c0.462-0.184,1.081-0.295,1.761-0.295c0.608,0,1.162,0.088,1.608,0.237
										c0.432-0.219,0.762-0.515,0.925-0.854c-0.562-0.842-1.514-1.396-2.602-1.396c-1.14,0-2.125,0.608-2.676,1.513
										C184.796,156.544,185.14,156.818,185.582,157.018z"/>
									<path fill="#661435" d="M188.385,154.916c-0.345-0.132-0.719-0.206-1.11-0.206c-0.084,0-0.167,0.004-0.25,0.011
										c-0.507,0.202-0.869,0.7-0.869,1.276c0,0.297,0.097,0.575,0.257,0.798c0.292-0.047,0.604-0.072,0.93-0.072
										c0.46,0,0.891,0.049,1.265,0.139c0.188-0.234,0.302-0.535,0.302-0.862C188.911,155.561,188.707,155.167,188.385,154.916z"
										/>
									<path fill="#FFFFFF" d="M187.076,155.241c0,0.225,0.186,0.411,0.413,0.411c0.23,0,0.415-0.188,0.415-0.411
										c0-0.23-0.185-0.413-0.415-0.413C187.262,154.828,187.076,155.011,187.076,155.241z"/>
								</g>
							</g>
							<path fill="#713710" d="M184.627,156.329l-0.169-0.152c0.884-0.969,1.846-1.465,2.861-1.472c0.008,0,0.017,0,0.021,0
								c1.577,0,2.696,1.173,2.742,1.222l-0.166,0.157c-0.013-0.012-1.101-1.148-2.579-1.148c-0.007,0-0.012,0-0.021,0
								C186.371,154.939,185.468,155.412,184.627,156.329z"/>
							<path fill="#713710" d="M185.49,157.164l-0.069-0.156c1.81-0.789,3.545-0.07,3.565-0.062l-0.066,0.156
								C188.902,157.096,187.231,156.404,185.49,157.164z"/>
						</g>
						<g>
							<g>
								<path fill="#B68D26" d="M184.221,156.342c-0.033,0-0.062-0.002-0.098-0.002c-1.033,0-1.896,0.439-2.078,1.02
									C182.568,156.751,183.347,156.361,184.221,156.342z"/>
								<path fill="#B68D26" d="M184.1,156.177c-0.032,0.001-0.065,0.005-0.096,0.005c-1.048,0-1.915-0.339-2.097-0.781
									C182.434,155.865,183.218,156.164,184.1,156.177z"/>
							</g>
						</g>
					</g>
					<g>
						<g>
							<path fill="#FFFFFF" d="M198.409,154.71c-1.087,0-2.041,0.554-2.604,1.392c0.165,0.34,0.492,0.641,0.923,0.858
								c0.444-0.149,1-0.239,1.608-0.239c0.677,0,1.293,0.111,1.763,0.295c0.44-0.197,0.788-0.472,0.983-0.793
								C200.536,155.316,199.543,154.71,198.409,154.71z"/>
							<path fill="#661435" d="M198.659,154.721c-0.082-0.007-0.168-0.011-0.25-0.011c-0.395,0-0.769,0.074-1.111,0.206
								c-0.321,0.251-0.528,0.645-0.528,1.081c0,0.327,0.112,0.628,0.304,0.862c0.377-0.09,0.811-0.14,1.268-0.14
								c0.328,0,0.638,0.026,0.93,0.073c0.16-0.225,0.253-0.501,0.253-0.798C199.521,155.421,199.163,154.923,198.659,154.721z"/>
							<path fill="#FFFFFF" d="M198.543,155.241c0,0.225-0.187,0.411-0.412,0.411c-0.229,0-0.412-0.188-0.412-0.411
								c0-0.23,0.183-0.413,0.412-0.413C198.358,154.828,198.543,155.011,198.543,155.241z"/>
						</g>
						<path fill="#713710" d="M201.038,156.329c-0.84-0.917-1.748-1.39-2.695-1.394c-0.006,0-0.016,0-0.021,0
							c-1.479,0-2.566,1.139-2.576,1.146l-0.166-0.157c0.045-0.053,1.166-1.222,2.742-1.222c0.012,0,0.02,0,0.025,0
							c1.011,0.007,1.976,0.503,2.859,1.472L201.038,156.329z"/>
						<path fill="#713710" d="M200.124,157.164c-1.744-0.76-3.418-0.068-3.435-0.062l-0.065-0.156
							c0.02-0.008,1.754-0.727,3.565,0.062L200.124,157.164z"/>
						<g>
							<path fill="#B68D26" d="M201.305,156.342c0.031,0,0.062-0.002,0.093-0.002c1.037,0,1.897,0.439,2.081,1.02
								C202.952,156.751,202.172,156.361,201.305,156.342z"/>
							<path fill="#B68D26" d="M201.329,156.177c0.034,0.001,0.065,0.005,0.101,0.005c1.044,0,1.909-0.339,2.097-0.781
								C202.995,155.865,202.209,156.164,201.329,156.177z"/>
						</g>
					</g>
				</g>
				<path fill="none" stroke="#713710" stroke-width="1.0635" stroke-miterlimit="10" d="M192.712,156.294"/>
				<path fill="none" stroke="#713710" stroke-width="1.0635" stroke-miterlimit="10" d="M192.712,156.104"/>
			</g>
			<g>
				<g>
					<circle fill="#EEE09C" cx="250.932" cy="159.066" r="12.427"/>
				</g>
				<g>
					<g>
						<ellipse fill="#FFFFFF" cx="246.036" cy="157.7" rx="2.09" ry="2.858"/>
						<circle fill="#661435" cx="246.136" cy="157.925" r="1.387"/>
						<path fill="#FFFFFF" d="M246.691,157.511c0,0.304-0.246,0.552-0.554,0.552c-0.309,0-0.557-0.248-0.557-0.552
							c0-0.308,0.248-0.558,0.557-0.558C246.443,156.953,246.691,157.203,246.691,157.511z"/>
					</g>
					<g>
						<ellipse fill="#FFFFFF" cx="255.897" cy="157.551" rx="2.09" ry="2.858"/>
						<circle fill="#661435" cx="255.87" cy="157.926" r="1.388"/>
						<path fill="#FFFFFF" d="M255.313,157.511c0,0.304,0.248,0.552,0.557,0.552c0.303,0,0.553-0.248,0.553-0.552
							c0-0.308-0.25-0.558-0.553-0.558C255.562,156.953,255.313,157.203,255.313,157.511z"/>
					</g>
				</g>
				<g>
					<path fill="#713710" d="M257.54,152.609c-0.783-0.486-1.584-0.849-2.346-1.082c0.719-0.02,1.637,0.256,2.518,0.807
						c0.884,0.548,1.526,1.255,1.826,1.91C258.995,153.659,258.319,153.102,257.54,152.609z"/>
					<path fill="#713710" d="M244.397,152.609c0.777-0.486,1.58-0.849,2.344-1.082c-0.722-0.02-1.638,0.256-2.52,0.807
						c-0.883,0.548-1.526,1.255-1.823,1.91C242.938,153.659,243.613,153.102,244.397,152.609z"/>
				</g>
				<g>
					<path fill="#8A4E4B" d="M252.342,162.698c-0.021-0.087-0.194-0.12-0.391-0.079c-0.197,0.044-0.344,0.146-0.326,0.229
						c0.019,0.088,0.192,0.123,0.395,0.079C252.215,162.889,252.36,162.779,252.342,162.698z"/>
					<path fill="#8A4E4B" d="M249.59,162.698c0.019-0.087,0.193-0.12,0.393-0.079c0.196,0.044,0.344,0.146,0.326,0.229
						c-0.021,0.088-0.193,0.123-0.395,0.079C249.717,162.889,249.575,162.779,249.59,162.698z"/>
				</g>
				<path opacity="0.75" fill="#BE9680" enable-background="new    " d="M252.903,167.706c0,1.097-0.863,1.979-1.936,1.979
					c-1.068,0-1.938-0.885-1.938-1.979c0-1.097,0.87-1.981,1.938-1.981C252.04,165.725,252.903,166.609,252.903,167.706z"/>
				<path fill="#8B6844" d="M250.967,167.3c-1.184,0-1.184,1.876,0,1.876S252.151,167.3,250.967,167.3z"/>
				<path fill="#FFFFFF" d="M251.34,169.086c-0.106-0.048-0.229-0.076-0.373-0.076c-0.141,0-0.266,0.028-0.373,0.076
					c0.109,0.047,0.232,0.079,0.373,0.079C251.11,169.165,251.233,169.133,251.34,169.086z"/>
			</g>
			<g>
				<g>
					<path fill="#EEE09C" d="M146.692,159.066c0,6.86-5.561,12.428-12.425,12.428c-8.348,0-12.426-7.479-12.426-12.428
						c0-6.862,5.563-12.426,12.426-12.426C141.131,146.641,146.692,152.204,146.692,159.066z"/>
				</g>
				<g>
					<path fill="#8A4E4B" d="M135.79,163.529c-0.018-0.084-0.191-0.118-0.392-0.077c-0.198,0.042-0.343,0.147-0.325,0.233
						c0.02,0.084,0.192,0.116,0.393,0.076C135.661,163.719,135.807,163.615,135.79,163.529z"/>
					<path fill="#8A4E4B" d="M133.037,163.529c0.018-0.084,0.193-0.118,0.391-0.077c0.199,0.042,0.344,0.147,0.325,0.233
						c-0.02,0.084-0.194,0.116-0.392,0.076C133.163,163.719,133.02,163.615,133.037,163.529z"/>
				</g>
				<path opacity="0.75" fill="#BE9680" enable-background="new    " d="M134.414,167.082c1.955,0,3.788,0.547,5.351,1.501
					c-1.411-1.538-3.29-2.479-5.351-2.479c-2.06,0-3.941,0.94-5.354,2.479C130.626,167.63,132.457,167.082,134.414,167.082z"/>
				<g>
					<g>
						<path fill="#FFFFFF" d="M139.186,158.491c-0.779-0.347-1.434-0.993-1.993-1.382c-0.505,1.107,0.209,2.613,1.476,3.177
							c1.299,0.575,2.856,0.037,3.408-1.171C142.082,159.105,140.173,158.932,139.186,158.491z"/>
						<path fill="#661435" d="M138.734,160.293c0.309,0.139,0.627,0.217,0.935,0.244c0.228-0.13,0.416-0.328,0.529-0.587
							c0.162-0.363,0.138-0.761-0.028-1.093c-0.299-0.105-0.603-0.229-0.912-0.366c-0.198-0.089-0.391-0.179-0.579-0.272
							c-0.346,0.104-0.646,0.35-0.802,0.701c-0.102,0.23-0.13,0.475-0.095,0.703C138.038,159.896,138.359,160.126,138.734,160.293z"
							/>
						<circle fill="#FFFFFF" cx="139.288" cy="158.88" r="0.382"/>
						<g>
							<path fill="#713710" d="M141.253,159.189c-0.947,0-2.54-0.318-4.067-2.086l0.218-0.188c2.241,2.596,4.532,1.93,4.628,1.896
								l0.088,0.274C142.111,159.089,141.783,159.189,141.253,159.189z"/>
						</g>
						<path fill="#713710" d="M140.493,160.706c-0.424,0-1.85-0.114-3.496-1.519l0.127-0.147c1.866,1.591,3.46,1.471,3.477,1.471
							l0.017,0.19C140.607,160.701,140.565,160.706,140.493,160.706z"/>
					</g>
					<g>
						<path fill="#FFFFFF" d="M129.644,158.491c-1.424,0.771-2.898,0.616-2.895,0.624c0.468,1.384,2.109,1.746,3.408,1.171
							c1.268-0.562,2.005-1.931,1.481-3.177C131.077,157.496,130.391,158.085,129.644,158.491z"/>
						<path fill="#661435" d="M130.931,158.92c-0.169-0.376-0.5-0.633-0.875-0.719c-0.347,0.328-0.843,0.564-1.409,0.646
							c-0.174,0.329-0.204,0.733-0.036,1.103c0.113,0.259,0.301,0.457,0.526,0.587c0.312-0.027,0.626-0.105,0.936-0.244
							c0.375-0.167,0.694-0.396,0.952-0.67C131.062,159.395,131.034,159.15,130.931,158.92z"/>
						<circle fill="#FFFFFF" cx="129.522" cy="158.88" r="0.382"/>
						<g>
							<path fill="#713710" d="M127.571,159.189c-0.526,0-0.855-0.103-0.865-0.104l0.085-0.274c0.098,0.031,2.39,0.699,4.63-1.896
								l0.223,0.188C130.112,158.871,128.524,159.189,127.571,159.189z"/>
						</g>
						<path fill="#713710" d="M128.336,160.706c-0.074,0-0.115-0.005-0.126-0.005l0.017-0.19c0.016,0,1.617,0.114,3.478-1.471
							l0.125,0.147C130.182,160.592,128.757,160.706,128.336,160.706z"/>
					</g>
				</g>
				<g>
					<g>
						<path fill="#713710" d="M128.513,155.834c-0.84,0.527-1.688,0.915-2.481,1.161c0.732,0.022,1.697-0.265,2.642-0.859
							c0.941-0.591,1.654-1.354,2.003-2.062C130.079,154.701,129.351,155.307,128.513,155.834z"/>
					</g>
					<g>
						<path fill="#713710" d="M140.271,155.839c0.858,0.494,1.721,0.845,2.527,1.06c-0.733,0.059-1.709-0.194-2.673-0.75
							c-0.965-0.553-1.711-1.289-2.089-1.979C138.657,154.773,139.412,155.35,140.271,155.839z"/>
					</g>
				</g>
			</g>
		</g>
		<g>
			<ellipse fill="#AC2400" cx="192.6" cy="78.925" rx="51.324" ry="51.453"/>
			<path fill="none" stroke="#AC2400" stroke-miterlimit="10" d="M240.776,78.924c0,26.674-21.57,48.301-48.179,48.301
				c-26.605,0-48.176-21.627-48.176-48.301c0-26.675,21.572-48.299,48.176-48.299C219.206,30.625,240.776,52.25,240.776,78.924z"/>
		</g>
	</g>
	<path fill="#A1856E" d="M324.668,20.489v157.002H60.566V20.489H324.668 M331.668,13.485H53.564v171.01h278.104V13.485
		L331.668,13.485z"/>
	<g>
		<g>
			<polygon fill="#971B00" points="353.11,174.533 329.331,177.491 323.309,177.491 345.766,3.863 353.11,4.617 			"/>
			<polygon fill="#B02F0D" points="323.309,177.491 345.766,174.784 345.766,3.863 323.309,20.489 			"/>
			<polygon opacity="0.68" fill="#971B00" enable-background="new    " points="328.256,162.617 340.821,160.016 340.821,26.352 
				328.256,33.425 			"/>
			<polygon fill="#B02F0D" points="331.452,157.467 337.627,156.234 337.627,35.153 331.452,38.522 			"/>
		</g>
		<g>
			<polygon fill="#971B00" points="15.339,174.739 54.698,177.473 60.706,177.473 21.848,3.898 15.339,4.822 			"/>
			<polygon fill="#B02F0D" points="60.706,177.473 21.848,174.823 21.848,3.898 60.718,20.489 			"/>
			<polygon opacity="0.68" fill="#971B00" enable-background="new    " points="52.611,162.462 29.803,161.104 29.803,26.339 
				52.611,33.271 			"/>
			<polygon fill="#B02F0D" points="49.418,157.331 32.997,155.296 32.997,34.215 49.418,38.39 			"/>
		</g>
	</g>
</g>
<g>
	<g>
		<path fill="#AAABA8" d="M241.497,78.924c0,27.003-21.892,48.89-48.895,48.89c-27.004,0-48.895-21.887-48.895-48.89
			c0-27,21.891-48.893,48.895-48.893C219.605,30.031,241.497,51.924,241.497,78.924z"/>
	</g>
	<g>
		<g>
			<path fill="#6D655B" d="M192.329,42.106c19.119,0,33.132,16.759,33.132,37.435s-14.832,33.285-33.132,33.285
				c-18.298,0-33.132-12.609-33.132-33.285S171.347,42.106,192.329,42.106z"/>
			<path fill="#DED4BD" d="M222.491,76.916c2.71,0.449,3.713,5.11,2.246,10.41c-1.463,5.297-4.848,9.231-7.555,8.781
				c-2.706-0.45-3.713-5.109-2.248-10.407C216.401,80.399,219.782,76.467,222.491,76.916z"/>
			<path fill="#DED4BD" d="M167.221,96.107c-2.706,0.45-6.088-3.484-7.554-8.781c-1.466-5.3-0.46-9.961,2.247-10.41
				c2.708-0.449,6.091,3.483,7.556,8.784C170.936,90.998,169.927,95.659,167.221,96.107z"/>
			<path fill="#CFC5B1" d="M208.049,124.976c0,0-5.309,2.841-15.716,2.841c-11.148,0-15.716-2.841-15.716-2.841l2.021-28.812h27.389
				l2.022,27.802V124.976z"/>
		</g>
		<path fill="#DED4BD" d="M199.325,61.506c17.348,0,24.389,13.532,21.887,24.803c-4.649,20.939-17.38,30.667-28.883,30.667
			c-12.526,0-23.039-9.525-28.875-30.667c-2.909-10.541,4.625-24.36,17.147-28.748C185.337,59.614,193.56,61.506,199.325,61.506z"/>
		<path fill="#AFA59D" d="M184.218,81.91c0,0.747-2.62,2.454-5.856,2.454c-3.782,0-5.855-2.454-5.855-2.454s2.033-3.163,5.855-3.163
			C181.598,78.747,184.218,81.159,184.218,81.91z"/>
		<path fill="#AFA59D" d="M211.5,81.91c0,0-2.055,2.454-5.855,2.454c-3.229,0-5.853-1.387-5.853-2.454
			c0-1.07,2.62-3.163,5.853-3.163C209.409,78.747,211.5,81.91,211.5,81.91z"/>
		<path fill="#B1A79F" d="M199.325,102.933c0,0-3.135,2.591-6.996,2.591c-3.859,0-6.992-2.591-6.992-2.591s3.13-1.584,6.992-1.584
			C196.194,101.349,199.325,102.933,199.325,102.933z"/>
	</g>
	<path fill="#DED4BD" d="M192.602,128.729c-27.464,0-49.808-22.341-49.808-49.805c0-27.463,22.344-49.805,49.808-49.805
		c27.465,0,49.805,22.342,49.805,49.805C242.407,106.386,220.067,128.729,192.602,128.729z M192.602,30.942
		c-26.459,0-47.984,21.524-47.984,47.981c0,26.456,21.525,47.98,47.984,47.98c26.458,0,47.982-21.524,47.982-47.98
		C240.583,52.467,219.059,30.942,192.602,30.942z"/>
</g>
</svg>
