<?xml version="1.0" encoding="utf-8"?>
<!-- Generator: Adobe Illustrator 15.0.2, SVG Export Plug-In . SVG Version: 6.00 Build 0)  -->
<!DOCTYPE svg PUBLIC "-//W3C//DTD SVG 1.1//EN" "http://www.w3.org/Graphics/SVG/1.1/DTD/svg11.dtd">
<svg version="1.1" id="Layer_3" xmlns="http://www.w3.org/2000/svg" xmlns:xlink="http://www.w3.org/1999/xlink" x="0px" y="0px"
	 width="385.2px" height="198px" viewBox="0 0 385.2 198" enable-background="new 0 0 385.2 198" xml:space="preserve">
<g>
	<rect x="56.833" y="18.961" fill="#4E7094" width="281.767" height="158.786"/>
	<path fill="#334F72" d="M338.6,123.371c-1.979-0.246-4.484,0.089-6.189-0.154c-4.125-0.584-8.248-1.39-12.441-1.75
		c-5.465-0.473-11.193,1.075-16.68,1.245c-5.906,0.183-11.858,0.433-17.715,0.931c-6.787,0.578-12.506,0.242-19.121-0.875
		c-8.646-1.463-17.785-0.565-26.543-1.273c-12.992-1.053-26.291-0.998-39.361-0.998c-7.225,0-14.47,1.033-21.656,0.746
		c-6.126-0.251-12.209-0.547-18.37-0.746c-11.115-0.365-22.324-0.546-33.411-0.998c-12.07-0.495-23.946,1.188-36.049,0.25
		c-7.407-0.573-14.646,0.57-22.036,0.748c-3.894,0.092-8.466,0.984-12.192,2.139v55.114H338.6V123.371z"/>
	<path fill="#22395A" d="M338.6,112.754c-0.662-1.199-1.627-2.115-3.037-2.525c-3.455-1.008-3.117,6.244-3.775,8.215
		c-0.414,1.242-1.533,3.32-2.934,3.733c-1.635,0.479-1.775-1.196-2.158-2.745c-0.312-1.272-0.123-3.123-0.641-4.295
		c-0.484-1.104-2.871-2.973-3.861-2.589c-3.619,1.41-2.695-3.712-3.033-4.55c-1.074-2.672-3.832-3.659-6.336-4.232
		c-3.66-0.842-4.809-0.713-6.977,2.16c-1.848,2.451-4.002,4.403-6.773,5.764c-1.754,0.86-2.597,0.572-3.082,2.435
		c-0.414,1.567,0.572,3.185,0.207,4.812c-0.649,2.906-2.277,5.135-4.121,2.676c-1.711-2.275-0.246-4.186-0.973-6.479
		c-0.441-1.397-3.006-4.522-4.499-4.696c-3.563-0.418-3.269,3.912-3.853,6.137c-0.596,2.271-0.539,5.546-2.73,6.275
		c-3.085,1.026-5.395-3.843-6.126-7.318c-0.67-3.176,1.5-4.317,2.47-7.217c1.967-5.896-1.06-12.758-5.348-16.871
		c-1.865-1.79-2.952-3.766-5.773-2.759c-2.604,0.931-4.5,3.051-5.307,5.675c-0.854,2.767-0.96,5.876-1.754,8.688
		c-0.673,2.377-1.861,4.556-2.674,6.858c-0.904,2.58-0.84,5.217-1.303,7.889c-0.467,2.673,0.273,6.982,0.273,10.257
		c0,4.526-2.306,12.325,0,17.188c0.771,1.615,2.396-0.688,7.604-0.45c3.037,0.138,4.604,0.312,6.854,2.382
		c1.912,1.762,1.789,4.051,3.331,5.562c1.475,1.442,5.143,1.682,7.1,1.971c2.892,0.426,4.488-0.221,7.186-0.932
		c2.424-0.637,4.996-1.139,7.536-1.252c1.345-0.062,3.146-0.276,4.46,0c1.912,0.401,1.129,0.438,2.123,1.59
		c3.879,4.483,8.697,2.756,14.07,1.117c6.18-1.888,12.482-0.188,18.533-1.647c2.881-0.696,4.305,0.043,5.316-2.849v-37.976
		L338.6,112.754L338.6,112.754z"/>
	<path fill="#44658B" d="M238.729,148.273c-10.062,1.119-20.334,3.146-30.541,4.041c-21.794,1.91-43.647,4.349-65.455,6.812
		c-20.271,2.287-40.65,3.521-60.88,6.104c-8.263,1.059-16.691,3.469-25.02,3.676v8.84H232.25c1.227-1.1,2.379-3.396,3.313-4.592
		c1.353-1.721,2.808-3.381,4.155-5.086c2.65-3.355,3.734-7.436,6.197-10.797c1.793-2.457,7.258-7.181,7.32-10.274
		C248.429,146.787,243.485,147.746,238.729,148.273z"/>
	<path fill="#22395A" d="M240.422,138.175c-1.539-2.305-2.899-5.098-5.076-4.421c-1.762,0.551-1.502,2.85-3.303,2.162
		c-1.219-0.468-2.654-3.148-3.049-4.307c-1.271-3.715-0.591-9.569-0.591-13.488c0-3.124,0.229-9.754-4.819-8.803
		c-3.186,0.597-1.623,4.548-2.701,6.736c-1.619,3.299-2.953,3.383-5.913,2.904c-2.357-0.379-3.861,0.289-5.095,2.318
		c-0.937,1.537-3.449,6.207-6.353,4.732c-2.354-1.197-1.517-6.777-2.942-8.031c-0.715-0.627-3.084-0.217-2.863,1.42
		c0.228,1.688-0.604,2.816-0.543,4.461c0.068,1.82,0.906,1.936-0.248,3.57c-0.735,1.051-2.774,2.121-3.928,2.562
		c-1.352-1.598-1.035-5.684-2.707-6.596c-2.916-1.59-2.774,3.139-3.497,4.703c-1.521,3.291-2.824,1.674-3.113-1.261
		c-0.193-1.962-1.606-8.159-3.664-5.778c-1.752,2.023-1.619,6.524-1.323,9.246c0.279,2.569-0.065,12.24-1.897,11.631
		c-1.937-0.646-3.552-11.125-7.1-8.188c-1.48,1.226-0.197,4.78-2.158,4.899c-3.437,0.209-1.897-11.201-1.646-15.842
		c0.255-4.754-2.978-12.24-8.41-12.639c-2.326-0.169-3.634,2.012-4.5,3.971c-1.176,2.664,1.237,6.088-1.046,8.269
		c-3.63,3.467-5.68-8.013-8.445-4.523c-0.737,0.929-0.277,2.372-1.027,3.308c-0.747-1.559-1.599-1.398-2.249,0.028
		c-0.621,1.367,0.506,2.179,0.329,3.489c-0.215,1.604-1.275,3.204-3.18,2.934c-1.803-0.259-1.728-1.932-2.383-3.182
		c-0.938-1.791-3.856-4.691-5.491-1.793c-0.572,1.016,0.423,3.062-0.642,3.914c-0.931,0.745-3.008-0.691-3.87,0.041
		c-1.692,1.439,0.358,6.201-3.44,6.258c-0.8-4.666-4.162-1.954-5.53,0.96c-0.768,1.638-0.876,3.185-1.133,4.91
		c-0.39,2.622-1.582,3.63-2.93,5.821c-1.187-1.172,0.273-3.622-2.051-4.278c-0.301-1.558-0.88-5.074-2.374-4.437
		c-0.834,0.356-0.547,1.82-1.112,2.334c-0.72-1.4-1.175-5.569-3.935-3.637c-1.618,1.133-0.399,5.1-2.898,3.617
		c0.306-1.865-0.945-4.104-2.958-4.716c-2.929-0.894-3.125,1.478-4.5,3.444c-0.624,0.895-1.997,1.717-2.452,2.634
		c-0.513,1.03-0.114,1.879-0.451,2.92c-0.662,2.032-2.541,4.675-3.99,2.116c-0.397-0.704,0.507-2.905-0.569-3.397
		c-1.64-0.758-2.669,1.619-2.716,2.397c-0.102,1.644,0.458,6.062-1.612,5.85c-1.748-0.184-0.719-3.999-0.503-5.531
		c0.417-2.961-0.055-6.099-0.055-9.184c0-1.943,0.353-7.413-1.669-8.342c-0.997-0.456-3.325,0.965-3.789,1.74
		c-0.803,1.344,0.154,3.562,0.408,4.95c0.306,1.688,0.537,9.099-2.705,6.171c-1.97-1.781,0.048-5.423-1.118-7.562
		c-0.438-0.809-1.509-2.133-2.606-1.662c-0.964,0.415-0.235,1.77-0.979,2.46c-1.734,1.61-0.524,0.015-2.176-0.138
		c-0.343-0.03-2.538,0.414-2.674,0.355c-1.834-0.795-1.228-3.719-2.885-5.056c-1.13-0.911-2.026-1.165-2.742-0.97v27.74
		c0.114,0.021,0.231,0.03,0.354,0.021c1.107-0.083,1.544-1.539,2.642-1.912c1.315-0.45,3.001,0.349,4.239,0.533
		c4.05,0.612,8.297-4.418,12.649-1.521c0.849,0.562,0.475,1.514,1.642,2.105c0.958,0.49,2.107-0.006,3.116,0.261
		c2.168,0.572,3.097,1.658,5.61,1.004c1.118-0.289,2.142-1.321,3.196-1.548c1.123-0.241,2.069,0.29,3.162,0.24
		c1.916-0.09,4.242-0.737,6.087-1.133c6.191-1.312,11.863-2.365,18.258-0.809c2.52,0.614,5.55,2.989,7.879,2.07
		c0.52-0.204,1.314-1.793,2.441-2.199c1.02-0.371,2.585-0.578,3.692-0.342c3.418,0.727,6.041,3.809,9.598,4.584
		c2.637,0.577,5.398,0.102,7.881-0.275c2.896-0.44,3.573-1.979,6.094-3.295c3.081-1.604,4.316-0.707,7.548-0.266
		c2.805,0.381,8.715,0.52,11.184-0.799c0.807-0.434,1.01-1.4,1.897-1.853c1.542-0.784,4.189-0.532,5.904-0.468
		c6.964,0.279,13.372,1.531,20.512,0.251c3.404-0.61,6.541-2.026,10.014-2.427c4.711-0.54,9.68,0.058,14.406,0.267
		c3.146,0.14,6.404,0.173,9.554,0c3.854-0.213,7.728-0.045,11.579-0.36c1.787-0.146,4.992-0.045,4.341-2.529
		c-0.349-1.327-3.293-2.893-4.49-3.329c-1.409-0.511-2.854,0.623-4.485,0.209C242.196,140.602,241.282,139.464,240.422,138.175z"/>
</g>
<g>
	<g>
		<g>
			<rect x="60.853" y="20.763" fill="#EBDB8A" width="36.172" height="163.303"/>
			<rect x="60.853" y="145.006" fill="#EBDB8A" width="273.964" height="39.241"/>
			<rect x="97.025" y="145.006" fill="#D7BD4E" width="237.792" height="3.064"/>
		</g>
	</g>
	<g>
		<g>
			<g>
				<path fill="#971B00" d="M96.696,148.073V20.594h34.591c-3.76,12.469-8.709,31.719-21.573,39.9
					c1.104,29.003-2.226,61.195-8.782,87.579H96.696L96.696,148.073z"/>
				<path fill="#971B00" d="M334.901,148.073V20.594h-34.59c3.76,12.469,8.707,31.719,21.574,39.9
					c-1.104,29.003,2.227,61.195,8.781,87.579H334.901L334.901,148.073z"/>
				<path fill="#811200" d="M96.766,53.71c3.406,3.383,8.468,5.896,14.081,6.102c0,0.707-0.537,1.503-1.035,1.486
					c-4.104,0.236-10.379-1.698-12.999-4.478L96.766,53.71z"/>
				<path fill="#811200" d="M334.833,53.71c-3.402,3.383-8.469,5.896-14.08,6.102c0,0.707,0.535,1.503,1.033,1.486
					c4.105,0.236,10.381-1.698,13-4.478L334.833,53.71z"/>
			</g>
		</g>
	</g>
	<g>
		<path fill="#C7A53A" d="M306.354,164.662c0,0.5-0.561,0.91-1.248,0.91H126.094c-0.687,0-1.25-0.41-1.25-0.91
			s0.562-0.909,1.25-0.909h179.012C305.793,163.753,306.354,164.162,306.354,164.662z"/>
		<g>
			<circle fill="#AC2400" cx="223.905" cy="164.714" r="8.153"/>
			<path fill="#DE723A" d="M216.525,164.714c0-4.067,3.312-7.379,7.38-7.379c4.069,0,7.381,3.313,7.381,7.379
				c0,4.069-3.312,7.38-7.381,7.38C219.836,172.094,216.525,168.782,216.525,164.714z M230.56,164.714
				c0-3.668-2.983-6.655-6.654-6.655c-3.669,0-6.653,2.985-6.653,6.655c0,3.672,2.981,6.657,6.653,6.657
				C227.575,171.368,230.56,168.385,230.56,164.714z"/>
		</g>
	</g>
	<g>
		<g>
			<g>
				<path fill="#DED4BD" d="M249.204,103.509c0,0,4.871-24.199,15.842-24.199c1.305,0,6.406,0,7.668,0
					c9.754,0,15.342,24.1,15.342,24.1l-3.266,1.326c0,0-4.268-9.646-7.906-14.729c0,0,1.125,4.071,1.125,15.492
					c0,16.701-1.43,29.979-1.43,29.979h-3.32c0,0-1.26-17.922-4.28-29.998c-2.769,11.926-5.199,29.998-5.199,29.998h-3.313
					c0,0-1.045-13.025-1.045-29.979c0-11.42,1.123-15.492,1.123-15.492c-4.31,4.992-8.35,14.066-8.35,14.066L249.204,103.509z"/>
				<g>
					<path fill="#9A8B6F" d="M288.429,144.654l-2.724-5.562h-0.021c0-0.844-7.625-1.525-17.025-1.525
						c-9.404,0-17.031,0.685-17.031,1.525h-0.02l-2.729,5.562c-0.045,0.047-0.066,0.097-0.066,0.146
						c0,0.982,8.882,1.782,19.846,1.782c10.961,0,19.844-0.8,19.844-1.782C288.5,144.752,288.473,144.701,288.429,144.654z"/>
					<ellipse fill="#B5A88D" cx="268.657" cy="139.093" rx="17.027" ry="1.529"/>
				</g>
				<path fill="#EDDF96" d="M277.293,137.893c0,1.146-0.938,1.444-2.287,1.444c-1.354,0-2.609-0.301-2.609-1.444
					c0-1.143,1.096-2.072,2.451-2.072C276.196,135.82,277.293,136.749,277.293,137.893z"/>
				<path fill="#EDDF96" d="M264.54,137.893c0,1.146-0.937,1.444-2.291,1.444c-1.353,0-2.608-0.301-2.608-1.444
					c0-1.143,1.104-2.072,2.45-2.072C263.442,135.82,264.54,136.749,264.54,137.893z"/>
				<g>
					<path fill="#EDDF96" d="M289.176,107.605c0.136,1.229,0.031,3.521-0.73,3.643c-1.333,0.217-0.729-2.861-1.604-2.986
						c-0.401-0.058-0.49,0.682-1.116,0.439c-0.634-0.244-0.712-4.487,1.333-4.205C288.479,104.693,289.06,106.529,289.176,107.605z"
						/>
				</g>
				<g>
					<path fill="#EDDF96" d="M248.432,107.736c-0.049,1.234,0.222,3.511,0.992,3.582c1.346,0.115,0.52-2.91,1.386-3.096
						c0.396-0.09,0.538,0.644,1.146,0.355c0.613-0.29,0.387-4.528-1.631-4.102C248.922,104.779,248.474,106.654,248.432,107.736z"/>
				</g>
				<g>
					<circle fill="#EEE09C" cx="268.972" cy="69.417" r="9.082"/>
					<path fill="none" stroke="#85524D" stroke-linecap="round" stroke-miterlimit="10" d="M265.188,72.908
						c1.982,2.364,6.057,2.011,7.564,0"/>
					<g>
						<ellipse fill="#804040" cx="272.642" cy="67.881" rx="0.892" ry="1.412"/>
						<path fill="#804040" d="M266.19,67.88c0,0.78-0.396,1.413-0.891,1.413c-0.495,0-0.887-0.633-0.887-1.413
							c0-0.777,0.395-1.407,0.887-1.407S266.19,67.103,266.19,67.88z"/>
					</g>
				</g>
			</g>
		</g>
		<g>
			<g>
				<circle fill="#D6BAA7" cx="268.97" cy="94.85" r="6.339"/>
				<path fill="#D39D87" d="M273.663,94.85c0,2.593-2.101,4.692-4.69,4.692c-2.591,0-4.693-2.1-4.693-4.692
					c0-2.591,2.104-4.695,4.693-4.695C271.562,90.155,273.663,92.259,273.663,94.85z"/>
				<path fill="#CF8168" d="M272.02,94.85c0,1.685-1.364,3.049-3.048,3.049c-1.685,0-3.052-1.364-3.052-3.049
					c0-1.682,1.367-3.048,3.052-3.048S272.02,93.168,272.02,94.85z"/>
				<path fill="#CC6448" d="M270.375,94.85c0,0.778-0.629,1.406-1.403,1.406c-0.777,0-1.403-0.627-1.403-1.406
					c0-0.773,0.624-1.403,1.403-1.403C269.747,93.447,270.375,94.077,270.375,94.85z"/>
			</g>
		</g>
	</g>
	<g>
		<path fill="#C7A53A" d="M77.994,152.6c-0.458,0-0.833-0.375-0.833-0.832V50.817c0-0.456,0.375-0.832,0.833-0.832h0.153
			c0.457,0,0.833,0.375,0.833,0.832v100.949c0,0.459-0.375,0.834-0.833,0.834H77.994L77.994,152.6z"/>
		<g>
			<circle fill="#AC2400" cx="78.071" cy="101.291" r="8.185"/>
			<path fill="#DE723A" d="M78.071,108.7c-4.086,0-7.41-3.323-7.41-7.408c0-4.086,3.323-7.41,7.41-7.41
				c4.085,0,7.41,3.323,7.41,7.41C85.481,105.376,82.155,108.7,78.071,108.7z M78.071,94.61c-3.684,0-6.683,2.997-6.683,6.682
				c0,3.687,2.999,6.683,6.683,6.683c3.685,0,6.681-2.996,6.681-6.683C84.751,97.607,81.756,94.61,78.071,94.61z"/>
		</g>
	</g>
	<path fill="#A1856E" d="M334.815,20.763v162.873H60.833V20.763H334.815 M342.079,13.499H53.571v177.399h288.508V13.499
		L342.079,13.499z"/>
	<g>
		<g>
			<polygon fill="#BF9930" points="30.145,184.127 37.762,184.387 37.762,3.951 30.145,4.734 			"/>
			<polygon fill="#D9C057" points="61.059,183.636 37.762,184.387 37.762,3.951 61.059,20.763 			"/>
			<polygon opacity="0.7" fill="#C7A53A" enable-background="new    " points="55.928,168.643 42.891,168.021 42.891,27.283 
				55.928,34.619 			"/>
			<polygon fill="#D9C057" points="52.613,163.297 46.206,162.182 46.206,36.411 52.613,39.906 			"/>
		</g>
		<g>
			<polygon fill="#BF9930" points="380.543,184.338 373.793,184.426 373.793,3.989 380.543,4.946 			"/>
			<polygon fill="#D9C057" points="333.625,183.621 373.793,184.426 373.793,3.989 333.625,20.75 			"/>
			<polygon opacity="0.7" fill="#C7A53A" enable-background="new    " points="341.879,168.48 365.542,167.073 365.542,27.268 
				341.879,34.459 			"/>
			<polygon fill="#D9C057" points="345.19,163.157 362.227,161.046 362.227,35.438 345.19,39.769 			"/>
		</g>
	</g>
</g>
<g>
	<g>
		<path fill="#AAABA8" d="M215.677,82.133c0,24.277-19.681,43.954-43.957,43.954c-24.276,0-43.956-19.677-43.956-43.954
			c0-24.274,19.68-43.955,43.956-43.955C195.997,38.178,215.677,57.858,215.677,82.133z"/>
	</g>
	<g>
		<g>
			<path fill="#6D655B" d="M171.478,49.033c17.188,0,29.786,15.066,29.786,33.655c0,18.587-13.334,29.925-29.786,29.925
				s-29.789-11.338-29.789-29.925S152.613,49.033,171.478,49.033z"/>
			<path fill="#DED4BD" d="M198.593,80.328c2.435,0.404,3.336,4.595,2.019,9.359c-1.315,4.765-4.357,8.301-6.791,7.896
				c-2.435-0.405-3.338-4.595-2.021-9.358C193.118,83.46,196.158,79.924,198.593,80.328z"/>
			<path fill="#DED4BD" d="M148.903,97.583c-2.432,0.405-5.474-3.131-6.791-7.896c-1.318-4.765-0.415-8.955,2.02-9.359
				c2.435-0.404,5.476,3.133,6.792,7.897C152.243,92.988,151.337,97.179,148.903,97.583z"/>
			<path fill="#CFC5B1" d="M185.608,123.537c0,0-4.771,2.552-14.128,2.552c-10.022,0-14.129-2.552-14.129-2.552l1.817-25.905h24.623
				l1.817,24.996V123.537z"/>
		</g>
		<path fill="#DED4BD" d="M177.764,66.474c15.598,0,21.926,12.166,19.676,22.3c-4.178,18.824-15.621,27.568-25.962,27.568
			c-11.263,0-20.715-8.562-25.961-27.568c-2.615-9.477,4.158-21.902,15.417-25.847C165.189,64.773,172.582,66.474,177.764,66.474z"
			/>
		<path fill="#AFA59D" d="M164.185,84.817c0,0.674-2.356,2.208-5.265,2.208c-3.4,0-5.264-2.208-5.264-2.208s1.827-2.84,5.264-2.84
			C161.828,81.977,164.185,84.144,164.185,84.817z"/>
		<path fill="#AFA59D" d="M188.714,84.817c0,0-1.848,2.208-5.266,2.208c-2.905,0-5.263-1.248-5.263-2.208
			c0-0.96,2.356-2.84,5.263-2.84C186.829,81.977,188.714,84.817,188.714,84.817z"/>
		<path fill="#B1A79F" d="M177.764,103.718c0,0-2.816,2.328-6.287,2.328c-3.472,0-6.288-2.328-6.288-2.328s2.814-1.424,6.288-1.424
			S177.764,103.718,177.764,103.718z"/>
	</g>
	<path fill="#DED4BD" d="M171.72,126.908c-24.689,0-44.777-20.085-44.777-44.775c0-24.689,20.087-44.775,44.777-44.775
		c24.692,0,44.775,20.085,44.775,44.775C216.496,106.821,196.413,126.908,171.72,126.908z M171.72,38.998
		c-23.786,0-43.137,19.351-43.137,43.135c0,23.784,19.352,43.136,43.137,43.136c23.786,0,43.136-19.352,43.136-43.136
		C214.856,58.348,195.506,38.998,171.72,38.998z"/>
</g>
</svg>
