<?xml version="1.0" encoding="utf-8"?>
<!-- Generator: Adobe Illustrator 15.0.2, SVG Export Plug-In . SVG Version: 6.00 Build 0)  -->
<!DOCTYPE svg PUBLIC "-//W3C//DTD SVG 1.1//EN" "http://www.w3.org/Graphics/SVG/1.1/DTD/svg11.dtd">
<svg version="1.1" id="Layer_1" xmlns="http://www.w3.org/2000/svg" xmlns:xlink="http://www.w3.org/1999/xlink" x="0px" y="0px"
	 width="385.2px" height="198px" viewBox="0 0 385.2 198" enable-background="new 0 0 385.2 198" xml:space="preserve">
<g>
	<rect x="58.833" y="18.534" fill="#4E7094" width="269.267" height="130.168"/>
	<path fill="#334F72" d="M328.1,96.74c-1.891-0.235-4.285,0.084-5.916-0.148c-3.941-0.558-7.881-1.328-11.891-1.672
		c-5.221-0.452-10.699,1.027-15.938,1.189c-5.646,0.174-11.333,0.412-16.931,0.889c-6.484,0.553-11.949,0.23-18.27-0.837
		c-8.266-1.397-16.996-0.541-25.365-1.218c-12.416-1.004-25.127-0.953-37.617-0.953c-6.901,0-13.828,0.988-20.695,0.713
		c-5.854-0.24-11.667-0.521-17.554-0.713c-10.622-0.35-21.333-0.521-31.929-0.954c-11.535-0.474-22.884,1.137-34.45,0.237
		c-7.079-0.547-13.997,0.549-21.058,0.717c-3.721,0.088-8.091,0.941-11.652,2.044v52.668H328.1V96.74z"/>
	<path fill="#22395A" d="M328.1,86.594c-0.633-1.146-1.555-2.021-2.902-2.414c-3.301-0.964-2.979,5.967-3.607,7.85
		c-0.395,1.188-1.467,3.177-2.803,3.568c-1.562,0.459-1.697-1.144-2.062-2.623c-0.299-1.218-0.113-2.982-0.607-4.104
		c-0.463-1.059-2.744-2.842-3.691-2.475c-3.459,1.348-2.574-3.547-2.898-4.352c-1.025-2.553-3.66-3.496-6.055-4.044
		c-3.498-0.805-4.594-0.682-6.666,2.062c-1.766,2.346-3.824,4.209-6.475,5.511c-1.678,0.821-2.479,0.548-2.943,2.323
		c-0.396,1.498,0.546,3.041,0.197,4.602c-0.621,2.775-2.176,4.906-3.938,2.559c-1.636-2.178-0.233-3.998-0.929-6.193
		c-0.422-1.336-2.873-4.321-4.301-4.487c-3.406-0.399-3.123,3.738-3.683,5.864c-0.565,2.17-0.519,5.299-2.608,5.996
		c-2.947,0.979-5.154-3.67-5.854-6.993c-0.64-3.035,1.435-4.127,2.358-6.897c1.882-5.633-1.012-12.191-5.108-16.121
		c-1.782-1.71-2.819-3.599-5.521-2.637c-2.487,0.889-4.299,2.916-5.068,5.423c-0.814,2.644-0.917,5.616-1.678,8.303
		c-0.644,2.272-1.777,4.352-2.555,6.555c-0.863,2.465-0.804,4.984-1.246,7.537c-0.442,2.555,0.267,6.675,0.267,9.802
		c0,4.326-2.204,11.778,0,16.425c0.733,1.544,2.291-0.656,7.266-0.431c2.904,0.132,4.4,0.297,6.552,2.276
		c1.828,1.684,1.709,3.871,3.186,5.314c1.404,1.379,4.911,1.604,6.781,1.881c2.764,0.408,4.291-0.21,6.867-0.889
		c2.313-0.605,4.771-1.087,7.199-1.196c1.284-0.06,3.006-0.265,4.264,0c1.828,0.388,1.078,0.418,2.029,1.521
		c3.704,4.287,8.311,2.635,13.443,1.065c5.904-1.803,11.93-0.177,17.711-1.571c2.754-0.666,4.113,0.041,5.086-2.724V86.592
		L328.1,86.594L328.1,86.594z"/>
	<path fill="#44658B" d="M232.661,120.537c-9.617,1.07-19.434,3.008-29.188,3.861c-20.827,1.826-41.711,4.156-62.551,6.51
		c-19.372,2.188-38.848,3.363-58.18,5.836c-7.896,1.01-15.95,3.312-23.909,3.512v8.446h167.634c1.172-1.048,2.273-3.246,3.168-4.386
		c1.291-1.646,2.682-3.232,3.972-4.86c2.535-3.208,3.569-7.104,5.925-10.317c1.713-2.349,6.936-6.861,6.995-9.82
		C241.929,119.116,237.206,120.033,232.661,120.537z"/>
	<path fill="#22395A" d="M234.277,110.886c-1.47-2.202-2.771-4.872-4.851-4.225c-1.684,0.524-1.436,2.724-3.155,2.065
		c-1.165-0.445-2.537-3.012-2.913-4.115c-1.214-3.551-0.562-9.146-0.562-12.891c0-2.984,0.22-9.32-4.605-8.412
		c-3.043,0.569-1.551,4.348-2.581,6.438c-1.548,3.152-2.821,3.23-5.649,2.777c-2.252-0.361-3.688,0.273-4.869,2.218
		c-0.894,1.469-3.295,5.931-6.066,4.521c-2.253-1.144-1.447-6.477-2.812-7.675c-0.685-0.601-2.947-0.207-2.735,1.356
		c0.218,1.611-0.578,2.689-0.519,4.263c0.065,1.739,0.868,1.849-0.237,3.412c-0.702,1.005-2.652,2.026-3.754,2.448
		c-1.292-1.526-0.989-5.43-2.586-6.303c-2.787-1.521-2.651,3-3.342,4.492c-1.453,3.146-2.699,1.604-2.975-1.201
		c-0.185-1.875-1.535-7.801-3.501-5.522c-1.675,1.937-1.547,6.237-1.264,8.835c0.267,2.458-0.062,11.699-1.813,11.117
		c-1.851-0.618-3.395-10.633-6.785-7.826c-1.415,1.17-0.189,4.568-2.063,4.684c-3.284,0.199-1.813-10.705-1.573-15.139
		c0.244-4.544-2.845-11.697-8.037-12.078c-2.223-0.161-3.473,1.923-4.3,3.793c-1.125,2.549,1.182,5.818-1,7.9
		c-3.469,3.312-5.428-7.654-8.07-4.321c-0.704,0.886-0.265,2.267-0.981,3.16c-0.714-1.489-1.528-1.339-2.149,0.026
		c-0.594,1.309,0.484,2.08,0.315,3.336c-0.207,1.527-1.219,3.062-3.04,2.801c-1.723-0.245-1.651-1.844-2.277-3.038
		c-0.896-1.712-3.685-4.483-5.247-1.714c-0.547,0.971,0.404,2.928-0.614,3.74c-0.89,0.711-2.875-0.662-3.698,0.039
		c-1.617,1.377,0.343,5.926-3.288,5.979c-0.764-4.459-3.978-1.867-5.285,0.917c-0.734,1.562-0.837,3.041-1.083,4.69
		c-0.373,2.506-1.511,3.471-2.8,5.562c-1.134-1.118,0.261-3.462-1.96-4.089c-0.288-1.489-0.841-4.851-2.269-4.238
		c-0.798,0.341-0.523,1.739-1.062,2.229c-0.688-1.34-1.124-5.323-3.76-3.477c-1.545,1.081-0.382,4.871-2.77,3.456
		c0.292-1.78-0.903-3.921-2.827-4.507c-2.798-0.854-2.986,1.412-4.3,3.293c-0.596,0.854-1.908,1.643-2.343,2.518
		c-0.49,0.983-0.109,1.797-0.431,2.791c-0.632,1.941-2.428,4.469-3.812,2.021c-0.38-0.675,0.484-2.775-0.544-3.247
		c-1.567-0.727-2.55,1.547-2.596,2.291c-0.097,1.568,0.438,5.794-1.54,5.59c-1.671-0.176-0.687-3.818-0.481-5.284
		c0.398-2.829-0.052-5.827-0.052-8.776c0-1.855,0.337-7.084-1.596-7.971c-0.952-0.438-3.177,0.922-3.621,1.663
		c-0.767,1.283,0.147,3.403,0.39,4.729c0.292,1.611,0.513,8.691-2.585,5.896c-1.882-1.702,0.045-5.182-1.068-7.227
		c-0.419-0.771-1.442-2.039-2.491-1.589c-0.921,0.396-0.225,1.689-0.936,2.353c-1.658,1.537-0.501,0.013-2.08-0.134
		c-0.328-0.026-2.425,0.396-2.556,0.343c-1.753-0.76-1.173-3.554-2.756-4.832c-1.08-0.868-1.936-1.112-2.621-0.926v26.51
		c0.109,0.021,0.221,0.029,0.338,0.021c1.059-0.078,1.476-1.471,2.524-1.826c1.257-0.432,2.869,0.332,4.052,0.51
		c3.87,0.585,7.929-4.223,12.088-1.451c0.812,0.538,0.454,1.444,1.569,2.014c0.916,0.47,2.013-0.006,2.978,0.248
		c2.072,0.549,2.96,1.586,5.361,0.961c1.068-0.275,2.046-1.264,3.055-1.479c1.073-0.229,1.977,0.277,3.021,0.229
		c1.831-0.086,4.054-0.707,5.817-1.082c5.917-1.254,11.337-2.262,17.448-0.771c2.407,0.588,5.303,2.856,7.53,1.979
		c0.497-0.193,1.256-1.713,2.333-2.104c0.974-0.354,2.47-0.553,3.527-0.323c3.267,0.691,5.773,3.639,9.172,4.381
		c2.52,0.551,5.159,0.097,7.532-0.267c2.768-0.421,3.415-1.892,5.823-3.146c2.944-1.533,4.125-0.678,7.214-0.254
		c2.681,0.364,8.328,0.496,10.687-0.766c0.771-0.414,0.965-1.34,1.813-1.771c1.473-0.75,4.003-0.51,5.642-0.444
		c6.655,0.269,12.778,1.464,19.604,0.241c3.254-0.588,6.25-1.938,9.568-2.32c4.504-0.518,9.252,0.057,13.77,0.256
		c3.008,0.133,6.119,0.163,9.129,0c3.684-0.201,7.385-0.045,11.064-0.347c1.709-0.142,4.771-0.042,4.146-2.418
		c-0.332-1.271-3.146-2.767-4.29-3.185c-1.35-0.484-2.729,0.6-4.287,0.201C235.973,113.204,235.098,112.118,234.277,110.886z"/>
</g>
<g>
	<g>
		<rect x="60.611" y="139.706" fill="#AAB036" width="263.886" height="37.793"/>
		<rect x="60.611" y="139.706" fill="#99A031" width="263.886" height="3.133"/>
	</g>
	<g>
		<g>
			<g>
				
					<ellipse transform="matrix(-0.9785 0.2061 -0.2061 -0.9785 416.8832 280.7928)" fill="#8A4E4B" cx="193.813" cy="162.114" rx="0.365" ry="0.159"/>
				
					<ellipse transform="matrix(0.9781 0.208 -0.208 0.9781 37.9239 -36.3533)" fill="#8A4E4B" cx="191.804" cy="162.133" rx="0.366" ry="0.158"/>
			</g>
			<g>
				<circle fill="#EEE09C" cx="192.754" cy="158.747" r="12.422"/>
			</g>
			<g>
				<path fill="#713710" d="M199.773,151.904c-0.955-0.334-1.905-0.516-2.782-0.562c0.776-0.229,1.834-0.183,2.911,0.192
					c1.078,0.375,1.937,0.993,2.401,1.655C201.588,152.684,200.731,152.236,199.773,151.904z"/>
				<path fill="#713710" d="M185.803,151.904c0.956-0.334,1.905-0.516,2.783-0.562c-0.777-0.229-1.834-0.183-2.912,0.192
					c-1.077,0.375-1.934,0.993-2.4,1.655C183.989,152.684,184.845,152.236,185.803,151.904z"/>
			</g>
			<g>
				
					<ellipse transform="matrix(-0.978 0.2087 -0.2087 -0.978 416.6357 275.6284)" fill="#8A4E4B" cx="193.776" cy="159.795" rx="0.365" ry="0.158"/>
				
					<ellipse transform="matrix(0.9781 0.208 -0.208 0.9781 37.44 -36.4)" fill="#8A4E4B" cx="191.784" cy="159.809" rx="0.366" ry="0.158"/>
			</g>
			<g>
				<path opacity="0.75" fill="#BE9680" enable-background="new    " d="M192.788,162.143c-3.069,0-5.909-0.576-8.236-1.558
					c1.094,3.449,4.368,5.953,8.236,5.953c3.868,0,7.144-2.504,8.235-5.951C198.698,161.566,195.858,162.143,192.788,162.143z"/>
				<g>
					<path fill="#FFFFFF" d="M189.305,164.913c0.914,0.483,2.135,0.782,3.483,0.782s2.568-0.299,3.483-0.782H189.305z"/>
					<path fill="#FFFFFF" d="M192.788,162.84c-2.21,0-4.254-0.195-5.933-0.531c0.789,1.178,3.147,2.471,5.933,2.471
						c2.789,0,5.144-1.293,5.931-2.471C197.043,162.645,195,162.84,192.788,162.84z"/>
				</g>
			</g>
			<g>
				<g>
					<g>
						<g>
							<g>
								<circle fill="#FFFFFF" cx="187.347" cy="154.922" r="0.412"/>
							</g>
							<g>
								<path fill="#FFFFFF" d="M185.656,156.698c0.465-0.185,1.085-0.298,1.764-0.298c0.604,0,1.16,0.092,1.605,0.24
									c0.433-0.222,0.762-0.518,0.927-0.856c-0.562-0.839-1.517-1.392-2.604-1.392c-1.136,0-2.126,0.604-2.675,1.51
									C184.87,156.225,185.215,156.5,185.656,156.698z"/>
								<path fill="#661435" d="M188.457,154.598c-0.344-0.132-0.718-0.205-1.108-0.205c-0.083,0-0.167,0.004-0.249,0.01
									c-0.507,0.205-0.865,0.699-0.865,1.277c0,0.299,0.094,0.572,0.253,0.797c0.29-0.047,0.603-0.074,0.932-0.074
									c0.458,0,0.888,0.057,1.262,0.144c0.189-0.233,0.305-0.535,0.305-0.86C188.986,155.239,188.779,154.85,188.457,154.598z"/>
								<circle fill="#FFFFFF" cx="187.565" cy="154.921" r="0.413"/>
							</g>
						</g>
						<path fill="#713710" d="M184.702,156.014l-0.167-0.152c0.884-0.969,1.847-1.467,2.86-1.475c0.008,0,0.016,0,0.022,0
							c1.578,0,2.696,1.176,2.742,1.225l-0.167,0.156c-0.01-0.013-1.104-1.17-2.598-1.148
							C186.447,154.622,185.542,155.093,184.702,156.014z"/>
						<path fill="#713710" d="M185.563,156.846l-0.067-0.158c1.811-0.787,3.549-0.066,3.567-0.062l-0.067,0.158
							C188.979,156.775,187.307,156.089,185.563,156.846z"/>
					</g>
					<g>
						<g>
							<path fill="#B68D26" d="M184.296,156.023c-0.033,0-0.063-0.002-0.097-0.002c-1.035,0-1.896,0.438-2.079,1.018
								C182.645,156.432,183.424,156.043,184.296,156.023z"/>
							<path fill="#B68D26" d="M184.174,155.859c-0.033,0-0.064,0.002-0.095,0.002c-1.046,0-1.914-0.338-2.098-0.782
								C182.51,155.545,183.295,155.846,184.174,155.859z"/>
						</g>
					</g>
				</g>
				<g>
					<g>
						<path fill="#FFFFFF" d="M198.48,154.393c-1.086,0-2.041,0.553-2.603,1.393c0.166,0.343,0.49,0.642,0.922,0.855
							c0.445-0.146,1.002-0.238,1.604-0.238c0.684,0,1.299,0.111,1.768,0.3c0.438-0.198,0.787-0.478,0.98-0.798
							C200.607,154.999,199.616,154.393,198.48,154.393z"/>
						<path fill="#661435" d="M198.729,154.402c-0.083-0.006-0.165-0.01-0.248-0.01c-0.395,0-0.766,0.07-1.109,0.205
							c-0.322,0.252-0.524,0.645-0.524,1.077c0,0.329,0.11,0.63,0.303,0.863c0.375-0.088,0.81-0.142,1.267-0.142
							c0.326,0,0.641,0.025,0.93,0.072c0.16-0.224,0.254-0.498,0.254-0.798C199.594,155.102,199.237,154.605,198.729,154.402z"/>
						<circle fill="#FFFFFF" cx="198.204" cy="154.922" r="0.412"/>
					</g>
					<path fill="#713710" d="M201.109,156.014c-0.84-0.918-1.747-1.393-2.694-1.396c-0.006,0-0.014,0-0.021,0
						c-1.479,0-2.563,1.14-2.575,1.149l-0.168-0.156c0.051-0.053,1.17-1.232,2.768-1.226c1.016,0.009,1.979,0.507,2.861,1.476
						L201.109,156.014z"/>
					<path fill="#713710" d="M200.194,156.846c-1.744-0.762-3.416-0.07-3.431-0.062l-0.067-0.158
						c0.02-0.008,1.754-0.726,3.566,0.062L200.194,156.846z"/>
					<g>
						<path fill="#B68D26" d="M201.375,156.023c0.031,0,0.062-0.002,0.095-0.002c1.034,0,1.896,0.438,2.079,1.018
							C203.025,156.432,202.247,156.043,201.375,156.023z"/>
						<path fill="#B68D26" d="M201.401,155.859c0.032,0,0.062,0.002,0.096,0.002c1.045,0,1.916-0.338,2.101-0.782
							C203.067,155.545,202.282,155.846,201.401,155.859z"/>
					</g>
				</g>
			</g>
			<path fill="none" stroke="#713710" stroke-width="1.0635" stroke-miterlimit="10" d="M192.788,155.977"/>
			<path fill="none" stroke="#713710" stroke-width="1.0635" stroke-miterlimit="10" d="M192.788,155.786"/>
		</g>
		<g>
			<g>
				<circle fill="#EEE09C" cx="250.993" cy="158.747" r="12.424"/>
			</g>
			<g>
				<g>
					<ellipse fill="#FFFFFF" cx="246.096" cy="157.381" rx="2.092" ry="2.857"/>
					<circle fill="#661435" cx="246.196" cy="157.606" r="1.387"/>
					<circle fill="#FFFFFF" cx="246.2" cy="157.189" r="0.555"/>
				</g>
				<g>
					<ellipse fill="#FFFFFF" cx="255.958" cy="157.232" rx="2.088" ry="2.857"/>
					<circle fill="#661435" cx="255.928" cy="157.606" r="1.387"/>
					<circle fill="#FFFFFF" cx="255.926" cy="157.189" r="0.555"/>
				</g>
			</g>
			<g>
				<path fill="#713710" d="M257.596,152.293c-0.783-0.488-1.584-0.85-2.344-1.081c0.718-0.019,1.639,0.253,2.518,0.806
					c0.882,0.549,1.529,1.254,1.824,1.907C259.053,153.342,258.377,152.779,257.596,152.293z"/>
				<path fill="#713710" d="M244.456,152.293c0.781-0.488,1.584-0.85,2.344-1.081c-0.719-0.019-1.637,0.253-2.516,0.806
					c-0.882,0.549-1.529,1.254-1.824,1.907C242.997,153.342,243.674,152.779,244.456,152.293z"/>
			</g>
			<g>
				<path fill="#8A4E4B" d="M252.402,162.377c-0.021-0.084-0.192-0.118-0.396-0.077c-0.196,0.043-0.342,0.146-0.319,0.231
					c0.017,0.086,0.192,0.119,0.39,0.076C252.275,162.566,252.418,162.462,252.402,162.377z"/>
				
					<ellipse transform="matrix(0.9777 0.2098 -0.2098 0.9777 39.6516 -48.833)" fill="#8A4E4B" cx="249.996" cy="162.478" rx="0.37" ry="0.158"/>
			</g>
			<ellipse opacity="0.75" fill="#BE9680" enable-background="new    " cx="251.026" cy="167.383" rx="1.936" ry="1.982"/>
			<path fill="#8B6844" d="M251.025,166.979c-1.185,0-1.185,1.877,0,1.877C252.211,168.855,252.211,166.979,251.025,166.979z"/>
			<path fill="#FFFFFF" d="M251.399,168.768c-0.105-0.051-0.23-0.076-0.374-0.076c-0.138,0-0.267,0.025-0.371,0.076
				c0.104,0.047,0.228,0.074,0.371,0.074C251.17,168.842,251.293,168.812,251.399,168.768z"/>
		</g>
		<g>
			<g>
				<path fill="#EEE09C" d="M146.778,158.746c0,6.861-5.562,12.425-12.422,12.425c-8.348,0-12.423-7.478-12.423-12.425
					c0-6.86,5.562-12.422,12.423-12.422C141.216,146.324,146.778,151.886,146.778,158.746z"/>
			</g>
			<g>
				
					<ellipse transform="matrix(-0.978 0.2087 -0.2087 -0.978 302.1497 294.7436)" fill="#8A4E4B" cx="135.525" cy="163.312" rx="0.365" ry="0.156"/>
				
					<ellipse transform="matrix(0.9777 0.21 -0.21 0.9777 37.2557 -24.3875)" fill="#8A4E4B" cx="133.472" cy="163.249" rx="0.365" ry="0.157"/>
			</g>
			<path opacity="0.75" fill="#BE9680" enable-background="new    " d="M134.502,166.76c1.957,0,3.786,0.551,5.352,1.502
				c-1.414-1.539-3.292-2.479-5.352-2.479c-2.062,0-3.939,0.939-5.353,2.479C130.715,167.311,132.546,166.76,134.502,166.76z"/>
			<g>
				<g>
					<path fill="#FFFFFF" d="M139.273,158.172c-0.779-0.347-1.432-0.992-1.992-1.383c-0.503,1.111,0.208,2.613,1.475,3.176
						c1.3,0.579,2.855,0.038,3.409-1.169C142.167,158.788,140.263,158.611,139.273,158.172z"/>
					<path fill="#661435" d="M138.822,159.973c0.31,0.139,0.626,0.215,0.937,0.245c0.225-0.132,0.413-0.329,0.527-0.584
						c0.163-0.364,0.138-0.765-0.031-1.095c-0.297-0.107-0.602-0.23-0.911-0.367c-0.198-0.088-0.392-0.18-0.579-0.271
						c-0.345,0.104-0.645,0.352-0.802,0.701c-0.101,0.229-0.129,0.476-0.094,0.701C138.127,159.576,138.448,159.807,138.822,159.973
						z"/>
					<path fill="#FFFFFF" d="M139.725,158.717c-0.086,0.194-0.313,0.281-0.506,0.194c-0.192-0.086-0.281-0.312-0.193-0.504
						c0.086-0.196,0.311-0.281,0.504-0.196C139.724,158.296,139.811,158.523,139.725,158.717z"/>
					<g>
						<path fill="#713710" d="M141.341,158.869c-0.949,0-2.542-0.318-4.067-2.084l0.22-0.188c2.241,2.596,4.53,1.926,4.627,1.896
							l0.086,0.276C142.197,158.771,141.869,158.869,141.341,158.869z"/>
					</g>
					<path fill="#713710" d="M140.581,160.387c-0.422,0-1.849-0.115-3.496-1.518l0.125-0.146c1.859,1.584,3.463,1.467,3.478,1.467
						l0.018,0.193C140.695,160.383,140.652,160.387,140.581,160.387z"/>
				</g>
				<g>
					<path fill="#FFFFFF" d="M129.731,158.172c-1.423,0.771-2.893,0.616-2.89,0.624c0.466,1.384,2.105,1.746,3.406,1.169
						c1.267-0.562,2.003-1.932,1.478-3.176C131.166,157.18,130.48,157.768,129.731,158.172z"/>
					<path fill="#661435" d="M131.022,158.602c-0.168-0.377-0.5-0.631-0.873-0.719c-0.348,0.328-0.845,0.562-1.412,0.646
						c-0.172,0.332-0.202,0.736-0.037,1.104c0.112,0.258,0.301,0.453,0.527,0.583c0.311-0.028,0.628-0.104,0.938-0.243
						c0.375-0.166,0.695-0.396,0.952-0.666C131.151,159.075,131.123,158.831,131.022,158.602z"/>
					<path fill="#FFFFFF" d="M129.263,158.717c0.085,0.194,0.312,0.281,0.506,0.194c0.192-0.086,0.28-0.312,0.194-0.504
						c-0.086-0.196-0.311-0.281-0.505-0.196C129.263,158.296,129.176,158.523,129.263,158.717z"/>
					<g>
						<path fill="#713710" d="M127.663,158.869c-0.526,0-0.856-0.1-0.864-0.1l0.086-0.276c0.096,0.028,2.385,0.698,4.627-1.896
							l0.218,0.188C130.205,158.551,128.612,158.869,127.663,158.869z"/>
					</g>
					<path fill="#713710" d="M128.424,160.387c-0.072,0-0.114-0.004-0.123-0.004l0.015-0.193c0.016,0,1.618,0.117,3.478-1.467
						l0.125,0.146C130.274,160.271,128.847,160.387,128.424,160.387z"/>
				</g>
			</g>
			<g>
				<g>
					<path fill="#713710" d="M128.603,155.518c-0.839,0.525-1.686,0.912-2.483,1.159c0.736,0.023,1.701-0.266,2.642-0.858
						c0.943-0.592,1.655-1.354,2.004-2.062C130.17,154.385,129.44,154.989,128.603,155.518z"/>
				</g>
				<g>
					<path fill="#713710" d="M140.358,155.521c0.859,0.492,1.721,0.846,2.529,1.058c-0.735,0.058-1.711-0.192-2.676-0.747
						c-0.965-0.553-1.708-1.288-2.085-1.98C138.745,154.455,139.498,155.029,140.358,155.521z"/>
				</g>
			</g>
		</g>
	</g>
</g>
<path fill="#C7E0DB" d="M324.321,177.5V19.688h-52.488c4.899,15.467,18.772,39.351,35.531,49.498
	c-1.438,35.982,2.898,75.585,11.438,108.314H324.321L324.321,177.5z"/>
<path fill="#9FCAC1" d="M324.321,60.846c-4.439,4.186-11.033,7.3-18.344,7.551c0,0.876,0.697,1.861,1.348,1.839
	c5.348,0.292,13.521-2.1,16.936-5.543L324.321,60.846z"/>
<path fill="#C7E0DB" d="M60.611,177.5V19.688h48.478c-4.901,15.467-14.76,39.351-31.519,49.498
	c1.437,35.982-2.899,75.585-11.438,108.314H60.611L60.611,177.5z"/>
<path fill="#9FCAC1" d="M60.611,60.846c4.438,4.186,11.032,7.3,18.348,7.551c0,0.876-0.7,1.861-1.349,1.839
	c-5.347,0.292-13.523-2.1-16.935-5.543L60.611,60.846z"/>
<path fill="#A1856E" d="M324.647,20.534v156.965H60.611V20.534H324.647 M331.651,13.535H53.614V184.5h278.037V13.535z"/>
<g>
	<g>
		<polygon fill="#788126" points="26.168,174.145 59.055,177.5 63.322,177.465 63.322,20.283 32.683,1.095 26.168,3.023 		"/>
		<polygon fill="#99A031" points="63.322,177.465 32.683,173.227 32.683,1.095 63.322,20.283 		"/>
		<polygon fill="#89912B" points="55.358,160.844 40.647,158.482 40.647,21.557 55.358,30.58 		"/>
		<polygon fill="#99A031" points="52.161,155.709 43.844,153.67 43.844,28.438 52.161,33.423 		"/>
	</g>
	<g>
		<polygon fill="#788126" points="361.651,174.145 328.764,177.5 324.497,177.465 324.497,20.283 355.135,1.095 361.651,3.023 		"/>
		<polygon fill="#99A031" points="324.497,177.465 355.135,173.227 355.135,1.095 324.497,20.283 		"/>
		<polygon fill="#89912B" points="332.459,160.844 347.17,158.482 347.17,21.557 332.459,30.246 		"/>
		<polygon fill="#99A031" points="335.659,155.709 343.973,153.67 343.973,28.438 335.659,33.256 		"/>
	</g>
</g>
</svg>
