<?xml version="1.0" encoding="utf-8"?>
<!-- Generator: Adobe Illustrator 15.0.2, SVG Export Plug-In . SVG Version: 6.00 Build 0)  -->
<!DOCTYPE svg PUBLIC "-//W3C//DTD SVG 1.1//EN" "http://www.w3.org/Graphics/SVG/1.1/DTD/svg11.dtd">
<svg version="1.1" id="Layer_1" xmlns="http://www.w3.org/2000/svg" xmlns:xlink="http://www.w3.org/1999/xlink" x="0px" y="0px"
	 width="1600px" height="900px" viewBox="0 0 1600 900" enable-background="new 0 0 1600 900" xml:space="preserve">
<g>
	<rect x="0.104" fill="#69C4BA" width="1600" height="900"/>
	<path fill="#C0D8E4" d="M1600.221,280.562l-806.388,0.833l-322.916,3.078l-266.058-2.992L0.221,280.562V0c0,0,1599.833,0,1600,0
		V280.562z"/>
	<path fill="#838B37" d="M1599.999,424.396c-416.08-3.49-1114.442-8.028-1599.999-4.281v219.315
		c6.508-0.267,13.034-0.41,19.585-0.402c54.564,0.063,111.336,5.053,166.509-1.551c134.021-16.041,237.559,1.601,350.095-1.792
		c73.817-2.226,207.156-14.014,269.29-10.608c72.082,3.949,139.943,23.803,212.677,20.107
		c89.217-4.535,177.354,10.039,265.184,2.227c85.006-7.561,176.271-4.045,262.072-0.686c18.144,0.711,36.35,1.445,54.588,2.071
		V424.396z"/>
	<path fill="#AAB036" d="M1599.998,580.679c-2.809-1.096-8.332-6.177-8.824-9.281c-3.625,8.173-25.797,18.418-35.865-1.576
		c-8.618,7.682-18.696,12.762-28.938,4.24c-9.076,12.973-21.782,10.981-29.199,6.391c-5.025,4.279-10.064,7.725-18.867,8.945
		c-5.18,0.719-13.22-2.022-16.622-4.392c-5.463,8.591-28.867,14.371-38.072,3.238c-2.873,12.015-16.826,14.26-25.076,3.627
		c-4.901,8.228-20.298,11.354-27.75,1.406c-10.795,6.83-22.223,1.158-29.631-7.658c-9.234,11.849-21.953,2.982-28.562-6.129
		c-5.924,6.51-21.59,7.177-29.17-1.838c-7.087,2.348-15.087,0.682-19.209-4.109c-6.878,3.791-25.211,4.124-31.943-1.082
		c-6.268,7.206-27.602,7.539-33.271,4.521c-11.33,7.352-36.354,7.775-46.33,1.352c-3.333,5.666-24.333,4-27.191,0.805
		c-2.142,4.195-6.754,7.69-11.97,9.323c-7.672,2.4-15.839-0.128-20.454-3.868c-5.718,3.74-13.429,6.562-23.89,3.272
		c-6.495,4.134-17.161,4.134-21.867-0.379c-7.294,3.847-18.294,4.513-20.936-4.902c-8.164,10.654-25.025,9.415-27.818-0.979
		c-12.874,12.394-29.207,7.061-32.854-5.164c-6.976,17.975-25.638,16.113-33.9,6.168c-4.694,15.447-23.049,12.758-30.334,1.027
		c-1.558,12.607-22.697,21.495-31.828,4.104c-11.389,11.734-29.624,4.592-32.401-7.963c-5.031,7.299-17.865,16.372-24.267,5.111
		c-3.732,11.354-16.395,23.287-33.212,10.078c-3.026,11.229-20.912,14.185-29.234,2.025c-8.705,6.932-18.097,9.293-22.92-2.553
		c-2.973,6.935-15.261,5.38-17.127,0.715c-7.465,3.732-17.885-2.022-16.631-8.426c-3.898,8.58-29.561,14.335-33.798-4.273
		c-7.083,6.965-15.978,11.047-26.004,10.392c-6.659-0.437-17.196-5.315-21.197-7.492c-1.909,4.976-8.131,10.344-16.417,11.766
		c-8.436,1.443-20.33-2.124-27.111-7.184c-4.417,4.593-11.318,10.146-18.354,12.541c-10.68,3.635-20.585,0.455-26.805-3.304
		c-5.134,7.025-19.292,14.955-30.179,1.735c-6.843,13.064-20.827,11.823-31.048,4.743c-8.502,17.68-32.252,13.765-39.739,4.271
		c-2.661,18.125-28.751,11.231-31.197,3.729c-7.503,4.056-16.057,2.034-17.186-3.219c-6.958,1.986-17.068-1.124-16.632-7.92
		c-9.9,11.852-32.211,9.082-40.391-3.449c-3.908,9.619-28.948,13.663-35.455-4.623c-11.112,10.521-31.052,11.086-41.498-1.119
		c-10.867,10.209-30.187,6.867-35.565-8.055c-10.033,5.701-19.709-0.017-26.251-9.205c-4.492,5.871-11.984,9.736-18.138,10.656
		c-5.584,0.83-11.394-1.52-15.461-3.334c-5.887,5.393-17.383,10.03-32.355,1.844c-4.684,9.568-14.484,13.777-23.162,6.547
		c-0.221,14.381-18.647,10.688-24.196,6.012c-5.183,3.121-11.446,4.509-18.091,4.521c-6.999-0.623-10.576-2.955-13.075-6.517
		c-2.323,2.161-6.382,4.909-10.721,4.184c-7.341-1.227-9.021-6.222-7.671-12.898C12.352,595.808,5.21,595.935,0,588.658v-408.79
		c8.726-2.908,19.351-0.474,22.319,8.307c6.006-15.874,23.414-18.509,33.558-3.518c3.465-17.6,29.453-20.206,39.174-6.595
		c6.295-13.611,34.345-14.124,39.301-2.091c4.747-11.521,24.811-12.425,36.264-0.835c4.88-12.845,28.5-14.143,36.229-0.728
		c9.401-10.862,28.429-4.744,31.6,4.208c3.876-8.951,21.723-5.791,24.49,2.239c8.578-4.885,26.009-2.239,28.499,8.966
		c12.164-4.765,26.881,0.875,28.095,12.923c10.767-7.171,22.523-0.653,22.008,10.679c14.044-4.211,29.711-0.888,33.218,10.87
		c7.719-12.935,28.489-8.257,33.907,1.509c4.728-10.855,24.229-10.503,29.847-0.196c7.96-19.674,27.794-13.499,33.423-4.435
		c5.208-18.516,29.54-17.154,37.221-1.84c6.438-7.058,16.406-11.512,26.382-10.457c9.606,1.014,16.656,6.975,20.244,11.109
		c10.072-8.625,30.19-18.46,44.575,2.43c11.926-7.534,28.178-9.628,36.764,3.123c11.432-8.663,24.425-7.219,29.854,6.43
		c6.363-6.633,26.256-7.12,24.293,7.732c8.403-9.366,32.07-11.699,32.432,4.557c3.746-3.876,13.007-5.19,18.736-4.53
		c6.164,0.715,9.989,3.411,12.658,8.573c9.658-8.244,27.014-5.486,32.853,3.272c9.57-6.001,23.844-2.757,28.309,10.751
		C822,252,839,243.333,852.732,257.893c4.31-21.082,28.315-12.323,32.627-1.652c3.879-14.217,16.826-12.407,26.131-5.621
		c9.674-19.094,28.177-15.619,33.828-2.666c2.349-7.286,7.487-10.893,13.84-13.265c11.518-4.303,19.842-0.355,24.957,6.862
		c9.885-9.884,26.262-18.111,38.357,3.369c4.073-2.972,10.625-8.219,16.118-9.199c10.994-1.96,17.409,5.613,20.711,10.339
		c5.365-4.393,11.541-5.689,16.908-4.397c6.49,1.564,10.123,6.005,14.084,10.339c6.039-7.334,26.039-15.667,36.471-0.353
		c4.235-6.315,14.568-5.982,19.666,0.659c9.569-5.641,25.235,0.359,28.226,11.947c6.01-17.588,24.01-19.588,34.146-7.545
		c2.549-11.836,11.531-12.043,18.646-6.32c3.886-8.39,14.006-13.523,26.35-1.822c3.536-17.567,21.203-14.567,26.16-4.152
		c3.709-17.749,21.709-15.415,27.717-4.91c3.881-7.353,6.822-13.733,15.291-16.743c8.502-3.021,15.035-0.095,20.224,2.961
		c2.478-4.389,4.478-11.723,16.812-14.723c14.304-3.479,23,1,29.58,5.935c4.753-3.935,10.147-7.879,21.006-9.803
		c11.248-1.993,23.747,1.202,29.135,6.428c3.949-3.615,11.73-4.138,16.707-2.997c4.412,1.013,11.316,3.908,13.086,9.979
		c0.287-6.071,3.738-14.415,13.185-16.449c12.002-2.586,18.998,2.354,23.578,10.634c-3.552-17.335,8.383-21.038,21.51-11.904
		c2.512-23.537,20.617-18.6,29.254-9.154c-3.957-17.812,13.979-20.088,24.9-12.445c5.308-9.314,11.6-12.63,18.067-10.852
		L1599.998,580.679z"/>
</g>
</svg>
