<?xml version="1.0" encoding="utf-8"?>
<!-- Generator: Adobe Illustrator 15.0.2, SVG Export Plug-In . SVG Version: 6.00 Build 0)  -->
<!DOCTYPE svg PUBLIC "-//W3C//DTD SVG 1.1//EN" "http://www.w3.org/Graphics/SVG/1.1/DTD/svg11.dtd">
<svg version="1.1" id="Layer_2" xmlns="http://www.w3.org/2000/svg" xmlns:xlink="http://www.w3.org/1999/xlink" x="0px" y="0px"
	 width="385.2px" height="198px" viewBox="0 0 385.2 198" enable-background="new 0 0 385.2 198" xml:space="preserve">
<g>
	<rect x="57.833" y="18.489" fill="#4E7094" width="269.767" height="152.022"/>
	<path fill="#334F72" d="M327.6,118.453c-1.894-0.236-4.293,0.085-5.927-0.147c-3.95-0.561-7.896-1.331-11.911-1.676
		c-5.231-0.453-10.72,1.028-15.969,1.19c-5.655,0.174-11.354,0.414-16.961,0.892c-6.497,0.554-11.974,0.232-18.307-0.838
		c-8.278-1.401-17.028-0.542-25.412-1.22c-12.439-1.008-25.173-0.957-37.686-0.957c-6.916,0-13.855,0.991-20.735,0.715
		c-5.866-0.24-11.689-0.521-17.587-0.715c-10.642-0.349-21.373-0.521-31.988-0.955c-11.556-0.474-22.926,1.139-34.514,0.24
		c-7.091-0.55-14.022,0.546-21.097,0.715c-3.728,0.089-8.105,0.944-11.673,2.048v52.767H327.6V118.453z"/>
	<path fill="#22395A" d="M327.6,108.287c-0.634-1.148-1.558-2.026-2.908-2.419c-3.307-0.964-2.985,5.979-3.615,7.866
		c-0.396,1.189-1.468,3.179-2.808,3.574c-1.564,0.46-1.7-1.146-2.066-2.629c-0.299-1.22-0.118-2.99-0.612-4.11
		c-0.465-1.061-2.75-2.848-3.698-2.479c-3.466,1.35-2.58-3.554-2.904-4.356c-1.028-2.558-3.668-3.503-6.065-4.052
		c-3.505-0.807-4.604-0.683-6.679,2.068c-1.769,2.346-3.832,4.215-6.486,5.517c-1.679,0.825-2.485,0.549-2.95,2.33
		c-0.396,1.5,0.548,3.046,0.197,4.607c-0.621,2.782-2.179,4.917-3.944,2.562c-1.639-2.179-0.236-4.006-0.932-6.204
		c-0.422-1.34-2.878-4.33-4.307-4.498c-3.413-0.4-3.13,3.746-3.688,5.876c-0.57,2.173-0.518,5.308-2.616,6.008
		c-2.953,0.983-5.164-3.678-5.865-7.007c-0.641-3.041,1.437-4.134,2.364-6.91c1.884-5.644-1.014-12.214-5.118-16.151
		c-1.787-1.713-2.827-3.605-5.529-2.642c-2.494,0.891-4.308,2.921-5.08,5.433c-0.816,2.649-0.919,5.626-1.679,8.318
		c-0.645,2.276-1.783,4.36-2.56,6.568c-0.866,2.469-0.805,4.994-1.248,7.551c-0.445,2.561,0.264,6.688,0.264,9.82
		c0,4.333-2.207,11.801,0,16.455c0.738,1.546,2.296-0.658,7.28-0.433c2.91,0.133,4.408,0.299,6.562,2.281
		c1.83,1.687,1.713,3.879,3.189,5.327c1.41,1.382,4.921,1.609,6.796,1.885c2.768,0.409,4.299-0.211,6.879-0.89
		c2.32-0.61,4.782-1.091,7.215-1.199c1.287-0.059,3.01-0.267,4.271,0c1.831,0.386,1.081,0.419,2.033,1.521
		c3.712,4.294,8.325,2.639,13.471,1.069c5.916-1.806,11.95-0.177,17.743-1.577c2.758-0.666,4.122,0.041,5.094-2.727V108.287z"/>
	<path fill="#44658B" d="M231.982,142.295c-9.634,1.071-19.468,3.014-29.24,3.868c-20.866,1.829-41.788,4.163-62.667,6.521
		c-19.408,2.189-38.919,3.37-58.288,5.847c-7.91,1.012-15.98,3.319-23.954,3.519v8.462h167.945c1.175-1.051,2.278-3.252,3.174-4.395
		c1.294-1.646,2.687-3.236,3.979-4.869c2.54-3.214,3.576-7.117,5.936-10.338c1.716-2.351,6.949-6.873,7.009-9.837
		C241.269,140.87,236.536,141.79,231.982,142.295z"/>
	<path fill="#22395A" d="M233.603,132.625c-1.473-2.206-2.775-4.881-4.859-4.232c-1.687,0.526-1.438,2.728-3.161,2.07
		c-1.167-0.448-2.542-3.015-2.919-4.123c-1.216-3.558-0.565-9.161-0.565-12.915c0-2.989,0.219-9.338-4.615-8.428
		c-3.048,0.572-1.554,4.355-2.585,6.449c-1.551,3.16-2.829,3.24-5.663,2.783c-2.257-0.361-3.696,0.277-4.877,2.223
		c-0.895,1.471-3.303,5.941-6.08,4.53c-2.257-1.146-1.45-6.488-2.818-7.688c-0.685-0.603-2.954-0.208-2.742,1.358
		c0.218,1.615-0.58,2.696-0.52,4.27c0.066,1.744,0.869,1.853-0.237,3.42c-0.705,1.006-2.657,2.03-3.762,2.453
		c-1.293-1.529-0.991-5.441-2.591-6.314c-2.792-1.521-2.656,3.006-3.348,4.504c-1.456,3.149-2.704,1.604-2.98-1.206
		c-0.185-1.879-1.538-7.814-3.508-5.534c-1.677,1.939-1.55,6.248-1.267,8.852c0.268,2.462-0.062,11.722-1.816,11.138
		c-1.854-0.618-3.401-10.652-6.798-7.841c-1.417,1.172-0.189,4.577-2.066,4.692c-3.29,0.199-1.816-10.725-1.576-15.167
		c0.244-4.552-2.851-11.718-8.052-12.1c-2.227-0.163-3.479,1.925-4.308,3.8c-1.126,2.552,1.184,5.83-1.001,7.916
		c-3.475,3.319-5.438-7.67-8.085-4.331c-0.706,0.889-0.266,2.271-0.983,3.165c-0.715-1.491-1.531-1.339-2.152,0.028
		c-0.595,1.31,0.484,2.084,0.315,3.342c-0.207,1.532-1.221,3.068-3.045,2.808c-1.726-0.248-1.653-1.85-2.281-3.046
		c-0.898-1.715-3.692-4.491-5.257-1.717c-0.548,0.973,0.406,2.933-0.615,3.749c-0.891,0.712-2.88-0.665-3.705,0.038
		c-1.62,1.38,0.343,5.938-3.294,5.991c-0.766-4.468-3.985-1.871-5.294,0.919c-0.735,1.567-0.839,3.048-1.085,4.701
		c-0.373,2.511-1.515,3.475-2.805,5.574c-1.136-1.12,0.262-3.468-1.964-4.098c-0.289-1.49-0.843-4.857-2.273-4.244
		c-0.799,0.341-0.523,1.741-1.064,2.232c-0.689-1.34-1.125-5.332-3.767-3.48c-1.549,1.083-0.383,4.88-2.775,3.464
		c0.293-1.787-0.905-3.93-2.832-4.516c-2.804-0.854-2.992,1.413-4.309,3.299c-0.597,0.855-1.912,1.643-2.348,2.521
		c-0.491,0.986-0.108,1.799-0.432,2.794c-0.633,1.947-2.433,4.478-3.819,2.027c-0.38-0.675,0.485-2.781-0.545-3.254
		c-1.57-0.725-2.555,1.552-2.6,2.296c-0.098,1.573,0.438,5.805-1.543,5.6c-1.673-0.175-0.688-3.828-0.482-5.295
		c0.399-2.834-0.052-5.839-0.052-8.793c0-1.86,0.337-7.097-1.599-7.985c-0.954-0.437-3.183,0.923-3.627,1.666
		c-0.769,1.286,0.147,3.411,0.39,4.741c0.293,1.615,0.514,8.709-2.59,5.906c-1.886-1.705,0.045-5.19-1.07-7.24
		c-0.42-0.771-1.445-2.041-2.496-1.59c-0.923,0.396-0.225,1.692-0.938,2.354c-1.661,1.543-0.502,0.012-2.083-0.132
		c-0.328-0.028-2.43,0.397-2.56,0.342c-1.756-0.761-1.175-3.56-2.762-4.839c-1.082-0.873-1.94-1.117-2.625-0.928v26.558
		c0.109,0.02,0.221,0.029,0.338,0.02c1.061-0.08,1.479-1.474,2.529-1.831c1.259-0.432,2.874,0.333,4.059,0.512
		c3.877,0.585,7.944-4.23,12.111-1.456c0.812,0.54,0.454,1.447,1.572,2.018c0.917,0.469,2.017-0.007,2.983,0.249
		c2.076,0.547,2.965,1.587,5.371,0.962c1.07-0.276,2.05-1.267,3.06-1.483c1.075-0.229,1.981,0.278,3.027,0.231
		c1.834-0.087,4.062-0.708,5.828-1.084c5.927-1.257,11.358-2.267,17.481-0.772c2.412,0.588,5.313,2.861,7.543,1.981
		c0.498-0.195,1.259-1.717,2.337-2.107c0.976-0.354,2.475-0.552,3.534-0.326c3.272,0.695,5.783,3.646,9.189,4.39
		c2.524,0.553,5.168,0.097,7.546-0.266c2.773-0.422,3.421-1.895,5.834-3.153c2.95-1.537,4.132-0.679,7.227-0.254
		c2.686,0.365,8.343,0.497,10.707-0.766c0.772-0.414,0.967-1.341,1.817-1.772c1.475-0.751,4.01-0.511,5.652-0.446
		c6.668,0.268,12.802,1.466,19.639,0.241c3.26-0.587,6.263-1.941,9.588-2.324c4.509-0.518,9.268,0.055,13.793,0.255
		c3.013,0.132,6.131,0.164,9.146,0c3.691-0.204,7.398-0.043,11.086-0.346c1.713-0.14,4.78-0.043,4.156-2.422
		c-0.333-1.272-3.153-2.771-4.299-3.188c-1.35-0.488-2.731,0.597-4.295,0.2C235.302,134.948,234.425,133.86,233.603,132.625z"/>
</g>
<g>
	<g>
		<g>
			<g>
				<polygon fill="#81B1CA" points="60.842,177.832 60.551,20.501 95.685,20.521 95.651,177.832 				"/>
				<rect x="61.191" y="140.246" fill="#81B1CA" width="263.622" height="37.76"/>
				<g>
					<g>
						<path fill="#6185A6" d="M78.304,146.523c-0.477,0-0.868-0.403-0.868-0.899V49.55c0-0.496,0.391-0.9,0.868-0.9
							s0.867,0.405,0.867,0.9v96.074C79.171,146.118,78.781,146.523,78.304,146.523z"/>
					</g>
					<g>
						<circle fill="#D7BD4E" cx="78.304" cy="96.122" r="7.866"/>
						<path fill="#E4D17B" d="M71.225,96.122c0-3.903,3.175-7.078,7.079-7.078c3.904,0,7.079,3.174,7.079,7.078
							c0,3.903-3.176,7.079-7.079,7.079C74.401,103.2,71.225,100.025,71.225,96.122z M84.688,96.122c0-3.52-2.863-6.383-6.384-6.383
							c-3.52,0-6.383,2.865-6.383,6.383c0,3.521,2.863,6.387,6.383,6.387C81.824,102.507,84.688,99.643,84.688,96.122z"/>
					</g>
				</g>
				<rect x="96.004" y="139.986" fill="#6C94B2" width="228.809" height="2.949"/>
			</g>
		</g>
		<g>
			<g>
				<g>
					<path fill="#DBC460" d="M95.685,142.938V20.521h33.287c-3.619,11.999-8.378,30.525-20.756,38.396
						c1.059,27.911-2.144,58.632-8.453,84.021H95.685z"/>
					<path fill="#DBC460" d="M324.268,142.938V20.521h-33.286c3.621,11.999,8.382,30.525,20.761,38.396
						c-1.061,27.911,2.145,58.632,8.451,84.021H324.268z"/>
					<path fill="#BD983C" d="M95.685,52.388c3.276,3.253,8.147,5.676,13.552,5.874c0,0.68-0.517,1.447-0.995,1.427
						c-3.952,0.228-10.038-1.631-12.557-4.309V52.388z"/>
					<path fill="#BD983C" d="M324.202,52.388c-3.273,3.253-8.146,5.676-13.547,5.874c0,0.68,0.514,1.447,0.992,1.427
						c3.949,0.228,9.992-1.631,12.51-4.309L324.202,52.388z"/>
				</g>
			</g>
		</g>
		<g>
			<g>
				<path fill="#6185A6" d="M293.374,159.161c0,0.479-0.403,0.874-0.899,0.874H127.838c-0.495,0-0.9-0.395-0.9-0.874
					s0.405-0.874,0.9-0.874h164.636C292.97,158.287,293.374,158.682,293.374,159.161z"/>
			</g>
			<g>
				<path fill="#D7BD4E" d="M210.155,151.295c4.348,0,7.866,3.521,7.866,7.863c0,4.344-3.521,7.865-7.866,7.865
					c-4.345,0-7.863-3.521-7.863-7.865C202.292,154.818,205.81,151.295,210.155,151.295z"/>
				<path fill="#E4D17B" d="M210.155,166.239c-3.9,0-7.078-3.175-7.078-7.078c0-3.9,3.178-7.08,7.078-7.08
					c3.906,0,7.079,3.18,7.079,7.08C217.234,163.064,214.061,166.239,210.155,166.239z M210.155,152.777
					c-3.519,0-6.383,2.863-6.383,6.384c0,3.522,2.864,6.386,6.383,6.386c3.52,0,6.385-2.863,6.385-6.386
					C216.54,155.643,213.674,152.777,210.155,152.777z"/>
			</g>
		</g>
		<g>
			<g>
				<g>
					<path fill="#DED4BD" d="M188.759,94.587c0,0,5.394-26.798,17.542-26.798c1.443,0,7.093,0,8.492,0
						c10.806,0,16.988,26.687,16.988,26.687l-3.615,1.47c0,0-4.729-10.68-8.756-16.31c0,0,1.244,4.51,1.244,17.155
						c0,18.493-1.585,33.203-1.585,33.203h-3.676c0,0-1.397-19.846-4.743-33.22c-3.064,13.205-5.757,33.22-5.757,33.22h-3.675
						c0,0-1.157-14.426-1.157-33.203c0-12.645,1.246-17.155,1.246-17.155c-4.774,5.53-9.248,15.58-9.248,15.58L188.759,94.587z"/>
					<g>
						<path fill="#9A8B6F" d="M232.2,140.154l-3.021-6.158h-0.017c0-0.936-8.447-1.694-18.863-1.694s-18.854,0.761-18.857,1.694
							h-0.017l-3.025,6.158c-0.046,0.056-0.076,0.107-0.076,0.162c0,1.091,9.84,1.974,21.975,1.974
							c12.139,0,21.979-0.883,21.979-1.974C232.279,140.266,232.249,140.209,232.2,140.154z"/>
						<path fill="#B5A88D" d="M229.163,134.002c0,0.93-8.445,1.688-18.863,1.688c-10.416,0-18.857-0.76-18.857-1.688
							c0-0.939,8.441-1.699,18.857-1.699C220.717,132.303,229.163,133.062,229.163,134.002z"/>
					</g>
					<path fill="#EDDF96" d="M219.863,132.664c0,1.27-1.032,1.6-2.532,1.6c-1.498,0-2.894-0.33-2.894-1.6
						c0-1.266,1.22-2.289,2.718-2.289C218.652,130.375,219.863,131.398,219.863,132.664z"/>
					<path fill="#EDDF96" d="M205.741,132.664c0,1.27-1.037,1.6-2.535,1.6c-1.492,0-2.886-0.33-2.886-1.6
						c0-1.266,1.216-2.289,2.709-2.289C204.527,130.375,205.741,131.398,205.741,132.664z"/>
					<g>
						<path fill="#EDDF96" d="M233.028,99.125c0.146,1.361,0.033,3.9-0.814,4.037c-1.477,0.236-0.803-3.174-1.772-3.312
							c-0.444-0.061-0.541,0.754-1.235,0.487c-0.703-0.272-0.789-4.968,1.478-4.658C232.254,95.9,232.897,97.932,233.028,99.125z"/>
					</g>
					<g>
						<path fill="#EDDF96" d="M187.905,99.27c-0.053,1.367,0.243,3.892,1.098,3.964c1.49,0.132,0.576-3.221,1.536-3.426
							c0.436-0.097,0.591,0.711,1.266,0.395c0.682-0.319,0.431-5.011-1.804-4.539C188.445,95.997,187.95,98.071,187.905,99.27z"/>
					</g>
					<g>
						<path fill="#EEE09C" d="M220.706,56.835c0,5.553-4.504,10.056-10.055,10.056c-5.555,0-10.059-4.503-10.059-10.056
							c0-5.558,4.504-10.061,10.059-10.061C216.202,46.775,220.706,51.278,220.706,56.835z"/>
						<path fill="#85524D" d="M210.647,62.922c-1.812,0-3.441-0.708-4.493-1.965c-0.141-0.17-0.118-0.423,0.052-0.566
							c0.168-0.144,0.422-0.12,0.565,0.05c0.931,1.109,2.408,1.722,4.046,1.674c1.549-0.04,2.965-0.675,3.697-1.658
							c0.134-0.177,0.385-0.214,0.562-0.079c0.178,0.132,0.215,0.385,0.082,0.563c-0.877,1.172-2.531,1.931-4.322,1.98
							C210.776,62.922,210.711,62.922,210.647,62.922z"/>
						<g>
							<path fill="#804040" d="M215.706,55.134c0,0.862-0.445,1.562-0.988,1.562c-0.547,0-0.99-0.699-0.99-1.562
								c0-0.866,0.441-1.564,0.99-1.564C215.26,53.57,215.706,54.268,215.706,55.134z"/>
							<path fill="#804040" d="M207.575,55.134c0,0.862-0.443,1.562-0.99,1.562c-0.545,0-0.988-0.699-0.988-1.562
								c0-0.866,0.443-1.564,0.988-1.564C207.131,53.57,207.575,54.268,207.575,55.134z"/>
						</g>
					</g>
				</g>
			</g>
		</g>
	</g>
	<path fill="#A1856E" d="M324.625,20.501v156.981H60.551V20.501H324.625 M331.627,13.5H53.55v170.984h278.078V13.5L331.627,13.5z"/>
	<g>
		<g>
			<polygon fill="#44658B" points="354.792,190.316 346.444,190.979 323.592,178.843 323.592,20.952 346.444,16.965 354.792,17.311 
							"/>
			<polygon fill="#6C94B2" points="323.592,178.843 346.444,190.979 346.444,16.965 323.592,20.521 			"/>
			<polygon fill="#577A9D" points="329.739,165.486 340.399,168.956 340.399,34.502 329.739,35.408 			"/>
			<polygon fill="#6C94B2" points="331.932,162.102 338.208,163.354 338.208,39.489 331.932,39.597 			"/>
		</g>
		<g>
			<polygon fill="#44658B" points="7.929,187.723 13.432,190.566 60.879,178.525 60.879,20.637 13.432,16.555 7.929,17.628 			"/>
			<polygon fill="#6C94B2" points="60.879,178.525 13.432,190.566 13.432,16.555 60.879,20.501 			"/>
			<polygon fill="#577A9D" points="49.913,166.568 24.396,171.549 24.396,33.892 49.913,35.339 			"/>
			<polygon fill="#6C94B2" points="45.716,162.499 28.593,164.739 28.593,39.899 45.716,40.514 			"/>
		</g>
	</g>
</g>
</svg>
