<?xml version="1.0" encoding="utf-8"?>
<!-- Generator: Adobe Illustrator 15.0.2, SVG Export Plug-In . SVG Version: 6.00 Build 0)  -->
<!DOCTYPE svg PUBLIC "-//W3C//DTD SVG 1.1//EN" "http://www.w3.org/Graphics/SVG/1.1/DTD/svg11.dtd">
<svg version="1.1" id="Layer_1" xmlns="http://www.w3.org/2000/svg" xmlns:xlink="http://www.w3.org/1999/xlink" x="0px" y="0px"
	 width="206px" height="314px" viewBox="0 0 206 314" enable-background="new 0 0 206 314" xml:space="preserve">
<g>
	<rect fill="#A1856E" width="206" height="314"/>
	<rect x="8.515" y="8.507" fill="#9A4133" width="188.971" height="297.38"/>
	<path fill="#8E2A19" d="M31.724,152.224c0,4.351-3.541,7.876-7.906,7.876c-4.367,0-7.906-3.525-7.906-7.876
		c0-4.347,3.539-7.872,7.906-7.872C28.183,144.352,31.724,147.877,31.724,152.224z"/>
	<rect x="35.81" y="36.426" fill="#8E2A19" width="134.381" height="241.544"/>
	<rect x="42.29" y="42.387" fill="#9A4133" width="121.42" height="229.62"/>
	<g>
		<path fill="#560000" d="M110.784,106.954c1.411,0.703,4.851,3.601,5.998,7.729c0.795,2.724,1.059,5.798,1.059,8.696
			c0,2.811-0.294,5.603-1.588,8.168c-1.507,2.99-4.795,6.513-6.066,7.842c-1.27,1.329-3.277,4.147-3.947,5.989
			c-0.714,1.967-0.651,8.743-0.651,10.061c0,0.439-1.853,0.966-3.175,0.966c-1.324,0-2.911-0.791-2.911-1.406
			c0-0.263-0.177-2.458-0.177-4.304c0-3.25,0.74-7.342,2.109-9.978c0.848-1.631,2.713-3.7,3.971-5.13
			c1.322-1.505,3.263-3.163,4.146-4.744c0.969-1.581,1.94-4.216,1.94-6.148c0-3.777-0.354-8.08-1.676-10.189
			c-2.344-3.733-7.992-3.257-11.68-2.002c-2.422,0.825-2.842,2.411-3.382,4.675c-0.471,1.975-1.804,2.495-2.882,2.495
			c-0.801,0-3.275-0.298-3.529-0.932c-0.337-0.84-0.115-2.132,0.132-3.651c1.017-6.271,5.882-8.114,11.28-9.369
			c1.146-0.263,3.533-0.263,4.768-0.263C106.64,105.548,109.372,106.251,110.784,106.954z M105.127,162.905
			c0.792,0.878,1.235,2.371,1.235,3.336c0,0.968,0,1.67-0.443,2.725c-0.527,1.229-2.027,1.932-4.055,1.932
			c-1.94,0-3.088-1.229-3.088-3.338c0-1.581,0.088-2.723,0.441-3.688c0.264-0.792,1.059-1.581,1.41-1.757
			c0.707-0.352,1.324-0.439,2.028-0.439C104.155,161.675,104.155,161.938,105.127,162.905z"/>
	</g>
</g>
</svg>
