<?xml version="1.0" encoding="utf-8"?>
<!-- Generator: Adobe Illustrator 15.0.2, SVG Export Plug-In . SVG Version: 6.00 Build 0)  -->
<!DOCTYPE svg PUBLIC "-//W3C//DTD SVG 1.1//EN" "http://www.w3.org/Graphics/SVG/1.1/DTD/svg11.dtd">
<svg version="1.1" id="Layer_5" xmlns="http://www.w3.org/2000/svg" xmlns:xlink="http://www.w3.org/1999/xlink" x="0px" y="0px"
	 width="385.2px" height="198px" viewBox="0 0 385.2 198" enable-background="new 0 0 385.2 198" xml:space="preserve">
<g>
	<g>
		<g>
			<rect x="58.506" y="19.264" fill="#971B00" width="268.187" height="159.473"/>
		</g>
	</g>
	<g>
		<g>
			<rect x="60.623" y="20.501" fill="#B02F0D" width="129.721" height="156.998"/>
			<rect x="195.019" y="20.501" fill="#B02F0D" width="129.707" height="156.998"/>
			<rect x="213.643" y="35.819" opacity="0.68" fill="#971B00" enable-background="new    " width="92.459" height="126.362"/>
			<rect x="221.119" y="42.947" fill="#B02F0D" width="77.507" height="112.106"/>
			<rect x="306.102" y="50.157" fill="#971B00" width="20.592" height="11.464"/>
			<rect x="306.102" y="136.378" fill="#971B00" width="20.592" height="11.463"/>
			<rect x="58.729" y="50.157" fill="#971B00" width="20.596" height="11.464"/>
			<rect x="58.729" y="136.378" fill="#971B00" width="20.596" height="11.463"/>
			<rect x="79.324" y="35.819" opacity="0.68" fill="#971B00" enable-background="new    " width="92.318" height="126.362"/>
			<rect x="86.878" y="42.947" fill="#B02F0D" width="77.366" height="112.106"/>
		</g>
		<path fill="#A1856E" d="M324.655,20.501v156.998H60.546V20.501H324.655 M331.638,13.5H53.562v171H331.64v-171H331.638z"/>
	</g>
</g>
</svg>
