<?xml version="1.0" encoding="utf-8"?>
<!-- Generator: Adobe Illustrator 15.0.2, SVG Export Plug-In . SVG Version: 6.00 Build 0)  -->
<!DOCTYPE svg PUBLIC "-//W3C//DTD SVG 1.1//EN" "http://www.w3.org/Graphics/SVG/1.1/DTD/svg11.dtd">
<svg version="1.1" id="Layer_1" xmlns="http://www.w3.org/2000/svg" xmlns:xlink="http://www.w3.org/1999/xlink" x="0px" y="0px"
	 width="1296px" height="760px" viewBox="0 0 1296 760" enable-background="new 0 0 1296 760" xml:space="preserve">
<g>
	<g>
		<g>
			<g>
				<g>
					<g>
						<rect x="194.999" y="684.028" fill="#AC2400" width="109.438" height="8.85"/>
						
							<rect x="194.993" y="683.996" transform="matrix(-0.866 0.5 -0.5 -0.866 810.1806 1159.7487)" fill="#AC2400" width="109.433" height="8.85"/>
						
							<rect x="194.98" y="684.035" transform="matrix(-0.5 0.866 -0.866 -0.5 970.7664 816.454)" fill="#AC2400" width="109.433" height="8.85"/>
						<rect x="245.292" y="633.737" fill="#AC2400" width="8.85" height="109.434"/>
						
							<rect x="194.985" y="684.043" transform="matrix(0.5 0.866 -0.866 0.5 721.0757 127.9804)" fill="#AC2400" width="109.433" height="8.85"/>
						
							<rect x="195.012" y="684.047" transform="matrix(0.866 0.5 -0.5 0.866 377.7033 -32.6253)" fill="#AC2400" width="109.435" height="8.847"/>
						<path fill="#7A574A" d="M249.716,617.178c-39.363,0-71.272,31.91-71.272,71.275c0,39.361,31.909,71.271,71.272,71.271
							c39.366,0,71.273-31.908,71.273-71.271C320.991,649.088,289.083,617.178,249.716,617.178z M249.716,739.162
							c-28.005,0-50.711-22.705-50.711-50.709c0-28.01,22.706-50.713,50.711-50.713c28.007,0,50.711,22.703,50.711,50.713
							C300.428,716.457,277.724,739.162,249.716,739.162z"/>
						<path fill="#971B00" d="M260.917,688.453c0,6.184-5.016,11.197-11.2,11.197c-6.186,0-11.198-5.014-11.198-11.197
							c0-6.188,5.013-11.199,11.198-11.199C255.902,677.254,260.917,682.267,260.917,688.453z"/>
					</g>
					<g>
						<rect x="991.066" y="684.028" fill="#AC2400" width="109.434" height="8.85"/>
						
							<rect x="991.032" y="684.013" transform="matrix(-0.866 0.5 -0.5 -0.866 2295.6128 761.755)" fill="#AC2400" width="109.431" height="8.851"/>
						
							<rect x="991.04" y="684.049" transform="matrix(-0.5 0.866 -0.866 -0.5 2164.8804 127.0777)" fill="#AC2400" width="109.434" height="8.847"/>
						<rect x="1041.357" y="633.737" fill="#AC2400" width="8.85" height="109.434"/>
						
							<rect x="991.061" y="684.062" transform="matrix(0.5 0.866 -0.866 0.5 1119.1116 -561.4291)" fill="#AC2400" width="109.434" height="8.848"/>
						
							<rect x="991.076" y="684.062" transform="matrix(0.866 0.5 -0.5 0.866 484.3661 -430.6636)" fill="#AC2400" width="109.431" height="8.847"/>
						<path fill="#7A574A" d="M1045.783,617.178c-39.363,0-71.27,31.91-71.27,71.275c0,39.361,31.906,71.271,71.27,71.271
							c39.365,0,71.275-31.908,71.275-71.271C1117.059,649.088,1085.148,617.178,1045.783,617.178z M1045.781,739.162
							c-28.004,0-50.709-22.705-50.709-50.709c0-28.01,22.705-50.713,50.709-50.713c28.01,0,50.713,22.703,50.713,50.713
							C1096.494,716.457,1073.789,739.162,1045.781,739.162z"/>
						<path fill="#971B00" d="M1056.982,688.453c0,6.184-5.014,11.197-11.201,11.197c-6.184,0-11.197-5.014-11.197-11.197
							c0-6.188,5.016-11.199,11.197-11.199C1051.969,677.254,1056.982,682.267,1056.982,688.453z"/>
					</g>
				</g>
				<g>
					<g>
						<rect x="36.626" y="136.986" fill="#EAE1C8" width="1221.642" height="527.795"/>
						<g>
							<rect x="36.628" y="283.934" fill="#FCF0CF" width="1221.64" height="32.617"/>
							<rect x="36.628" y="247.872" fill="#FCF0CF" width="1221.64" height="32.618"/>
							<rect x="36.628" y="211.812" fill="#FCF0CF" width="1221.64" height="32.62"/>
							<rect x="36.628" y="175.749" fill="#FCF0CF" width="1221.64" height="32.62"/>
							<rect x="36.628" y="139.688" fill="#FCF0CF" width="1221.64" height="32.618"/>
							<rect x="36.628" y="319.994" fill="#FCF0CF" width="1221.64" height="32.62"/>
							<rect x="36.628" y="356.058" fill="#FCF0CF" width="1221.64" height="32.618"/>
							<rect x="36.628" y="392.119" fill="#FCF0CF" width="1221.64" height="32.621"/>
							<rect x="36.628" y="428.183" fill="#FCF0CF" width="1221.64" height="32.62"/>
							<rect x="36.628" y="464.244" fill="#FCF0CF" width="1221.64" height="32.619"/>
							<rect x="36.628" y="500.31" fill="#FCF0CF" width="1221.64" height="32.616"/>
							<rect x="36.628" y="536.369" fill="#FCF0CF" width="1221.64" height="32.619"/>
							<rect x="36.628" y="572.43" fill="#FCF0CF" width="1221.64" height="32.621"/>
							<rect x="36.628" y="608.493" fill="#FCF0CF" width="1221.64" height="32.619"/>
						</g>
					</g>
					<polygon fill="#7A574A" points="1263.801,139.688 1258.268,141.25 1258.268,139.688 36.627,139.688 36.628,141.25 
						31.092,139.688 31.092,115.76 1263.801,115.76 					"/>
					<g>
						<path fill="#AC2400" d="M0,118.32c0,0,17.314-80.225,57.365-80.225c212.03,0,926.434,0,1180.67,0
							c39.166,0,56.482,80.225,56.482,80.225l-5.252,4.503H7.377L0,118.32z"/>
						<polygon fill="#6C0900" points="0,118.32 1294.518,118.32 1289.266,122.823 7.377,122.823 						"/>
					</g>
					<polygon fill="#7A574A" points="1263.801,667.485 31.092,667.485 31.092,643.121 36.628,641.112 36.625,643.121 
						1258.268,643.121 1258.268,641.112 1263.801,643.121 					"/>
				</g>
				<g>
					<g>
						<circle fill="#D8D3C1" cx="53.441" cy="228.75" r="4.027"/>
						<circle fill="#D8D3C1" cx="53.441" cy="264.687" r="4.027"/>
						<path fill="#D8D3C1" d="M57.467,156.875c0-2.224-1.802-4.029-4.027-4.029c-2.223,0-4.026,1.806-4.026,4.029
							c0,2.222,1.803,4.026,4.026,4.026C55.666,160.902,57.467,159.097,57.467,156.875z"/>
						<path fill="#D8D3C1" d="M57.467,192.812c0-2.226-1.802-4.028-4.027-4.028c-2.223,0-4.026,1.803-4.026,4.028
							c0,2.222,1.803,4.026,4.026,4.026C55.666,196.84,57.467,195.034,57.467,192.812z"/>
						<circle fill="#D8D3C1" cx="53.441" cy="300.625" r="4.027"/>
						<circle fill="#D8D3C1" cx="53.441" cy="336.561" r="4.027"/>
						<circle fill="#D8D3C1" cx="53.441" cy="372.5" r="4.027"/>
						<circle fill="#D8D3C1" cx="53.441" cy="408.438" r="4.027"/>
						<circle fill="#D8D3C1" cx="53.441" cy="444.375" r="4.027"/>
						<circle fill="#D8D3C1" cx="53.441" cy="480.313" r="4.027"/>
						<circle fill="#D8D3C1" cx="53.441" cy="516.252" r="4.027"/>
						<circle fill="#D8D3C1" cx="53.441" cy="552.188" r="4.027"/>
						<circle fill="#D8D3C1" cx="53.441" cy="588.127" r="4.027"/>
						<circle fill="#D8D3C1" cx="53.441" cy="624.063" r="4.027"/>
					</g>
					<g>
						<circle fill="#D8D3C1" cx="1240.553" cy="228.749" r="4.028"/>
						<circle fill="#D8D3C1" cx="1240.553" cy="264.687" r="4.028"/>
						<path fill="#D8D3C1" d="M1244.58,156.875c0-2.224-1.803-4.029-4.027-4.029s-4.027,1.806-4.027,4.029
							c0,2.222,1.805,4.026,4.027,4.026C1242.777,160.902,1244.58,159.097,1244.58,156.875z"/>
						<path fill="#D8D3C1" d="M1244.58,192.812c0-2.226-1.803-4.028-4.027-4.028s-4.027,1.803-4.027,4.028
							c0,2.222,1.805,4.026,4.027,4.026C1242.777,196.84,1244.58,195.034,1244.58,192.812z"/>
						<circle fill="#D8D3C1" cx="1240.553" cy="300.625" r="4.028"/>
						<circle fill="#D8D3C1" cx="1240.553" cy="336.561" r="4.028"/>
						<circle fill="#D8D3C1" cx="1240.553" cy="372.5" r="4.028"/>
						<circle fill="#D8D3C1" cx="1240.553" cy="408.438" r="4.028"/>
						<circle fill="#D8D3C1" cx="1240.553" cy="444.375" r="4.028"/>
						<circle fill="#D8D3C1" cx="1240.553" cy="480.313" r="4.028"/>
						<circle fill="#D8D3C1" cx="1240.553" cy="516.252" r="4.028"/>
						<circle fill="#D8D3C1" cx="1240.553" cy="552.188" r="4.028"/>
						<circle fill="#D8D3C1" cx="1240.553" cy="588.127" r="4.028"/>
						<circle fill="#D8D3C1" cx="1240.553" cy="624.063" r="4.028"/>
					</g>
				</g>
				<g>
					<g>
						<circle fill="#D8D3C1" cx="757.031" cy="408.438" r="4.026"/>
						<circle fill="#D8D3C1" cx="757.031" cy="444.375" r="4.026"/>
						<circle fill="#D8D3C1" cx="757.031" cy="480.313" r="4.026"/>
						<circle fill="#D8D3C1" cx="757.031" cy="516.252" r="4.026"/>
						<circle fill="#D8D3C1" cx="757.031" cy="552.188" r="4.026"/>
						<circle fill="#D8D3C1" cx="757.031" cy="588.127" r="4.026"/>
						<circle fill="#D8D3C1" cx="757.031" cy="624.063" r="4.026"/>
					</g>
					<g>
						<circle fill="#D8D3C1" cx="536.775" cy="408.438" r="4.026"/>
						<circle fill="#D8D3C1" cx="536.775" cy="444.375" r="4.026"/>
						<circle fill="#D8D3C1" cx="536.775" cy="480.313" r="4.026"/>
						<circle fill="#D8D3C1" cx="536.775" cy="516.252" r="4.026"/>
						<circle fill="#D8D3C1" cx="536.775" cy="552.188" r="4.026"/>
						<circle fill="#D8D3C1" cx="536.775" cy="588.127" r="4.026"/>
						<circle fill="#D8D3C1" cx="536.775" cy="624.063" r="4.026"/>
					</g>
				</g>
			</g>
			<path fill="#971B00" d="M1023.967,70.826c0,12.474-52.863,14.185-52.863,0c0-17.48,0-43.093,0-60.916
				c0-13.214,52.863-13.214,52.863,0C1023.967,27.734,1023.967,53.347,1023.967,70.826z"/>
		</g>
	</g>
	<g>
		<g>
			<polygon fill="#7A574A" points="589.786,733.066 582.6,733.066 587.104,655.3 594.29,655.3 			"/>
			<polygon fill="#7A574A" points="714.391,733.066 707.209,733.066 702.705,655.3 709.887,655.3 			"/>
			<polygon fill="#7A574A" points="761.816,746.574 533.077,746.574 532.297,738.349 762.594,738.349 			"/>
			<polygon fill="#A1856E" points="752.424,717.197 541.992,717.197 532.297,738.349 762.594,738.349 			"/>
			<polygon fill="#927765" points="756.512,727.51 752.424,717.197 541.992,717.197 537.904,727.51 			"/>
			<polygon fill="#7A574A" points="755.852,713.193 538.564,713.193 537.783,704.967 756.637,704.967 			"/>
			<polygon fill="#A1856E" points="746.264,684.529 548.154,684.529 537.783,704.967 756.637,704.967 			"/>
			<polygon fill="#927765" points="750.744,693.184 746.264,684.529 548.154,684.529 543.672,693.184 			"/>
			<polygon fill="#A1856E" points="739.766,650.603 554.651,650.603 543.595,672.701 750.82,672.701 			"/>
			<polygon fill="#7A574A" points="750.039,680.927 544.38,680.927 543.595,672.701 750.82,672.701 			"/>
		</g>
	</g>
</g>
</svg>
