<?xml version="1.0" encoding="utf-8"?>
<!-- Generator: Adobe Illustrator 15.0.2, SVG Export Plug-In . SVG Version: 6.00 Build 0)  -->
<!DOCTYPE svg PUBLIC "-//W3C//DTD SVG 1.1//EN" "http://www.w3.org/Graphics/SVG/1.1/DTD/svg11.dtd">
<svg version="1.1" id="Layer_4" xmlns="http://www.w3.org/2000/svg" xmlns:xlink="http://www.w3.org/1999/xlink" x="0px" y="0px"
	 width="385.2px" height="232.2px" viewBox="0 0 385.2 232.2" enable-background="new 0 0 385.2 232.2" xml:space="preserve">
<g>
	<g>
		<g>
			<rect x="61.12" y="20.501" fill="#3F9583" width="263.821" height="157.432"/>
			<g>
				<rect x="66.138" y="20.501" fill="#499A89" width="9.437" height="157.08"/>
				<rect x="82.39" y="20.501" fill="#499A89" width="9.441" height="157.08"/>
				<rect x="98.645" y="20.501" fill="#499A89" width="9.438" height="157.08"/>
				<rect x="114.897" y="20.501" fill="#499A89" width="9.438" height="157.08"/>
				<rect x="131.148" y="20.501" fill="#499A89" width="9.439" height="157.08"/>
				<rect x="147.401" y="20.501" fill="#499A89" width="9.438" height="157.08"/>
				<rect x="163.651" y="20.501" fill="#499A89" width="9.438" height="157.08"/>
				<rect x="179.905" y="20.501" fill="#499A89" width="9.438" height="157.08"/>
				<rect x="212.408" y="20.501" fill="#499A89" width="9.44" height="157.08"/>
				<rect x="196.159" y="20.501" fill="#499A89" width="9.437" height="157.08"/>
				<rect x="228.66" y="20.501" fill="#499A89" width="9.439" height="157.08"/>
				<rect x="244.912" y="20.501" fill="#499A89" width="9.441" height="157.08"/>
				<rect x="261.165" y="20.501" fill="#499A89" width="9.438" height="157.08"/>
				<rect x="277.417" y="20.501" fill="#499A89" width="9.442" height="157.08"/>
				<rect x="293.672" y="20.501" fill="#499A89" width="9.439" height="157.08"/>
				<rect x="309.924" y="20.501" fill="#499A89" width="9.439" height="157.08"/>
			</g>
		</g>
	</g>
	<path fill="#A1856E" d="M324.711,20.501v157.001h-264.1V20.501H324.711 M53.609,13.5v171.005h278.104V13.5H53.609z"/>
	<rect x="61.973" y="159.917" fill="#7A574A" width="262.738" height="17.585"/>
	<g>
		<g>
			<polygon fill="#3F9583" points="30.738,188.863 39.085,189.525 61.941,177.388 61.941,20.486 39.085,15.493 30.738,15.84 			"/>
			<polygon fill="#6FAFA2" points="61.89,177.388 39.034,189.525 39.034,15.493 61.89,20.486 			"/>
			<polygon fill="#58A393" points="55.792,164.03 45.28,167.979 45.131,33.035 55.792,33.938 			"/>
			<polygon fill="#6FAFA2" points="53.601,161.144 47.472,162.877 47.323,38.524 53.601,38.631 			"/>
		</g>
		<g>
			<polygon fill="#3F9583" points="377.635,186.271 372.131,189.114 324.68,177.069 324.68,20.169 372.131,15.083 377.635,16.159 
							"/>
			<polygon fill="#6FAFA2" points="324.68,177.069 372.131,189.114 372.131,15.083 324.68,20.169 			"/>
			<polygon fill="#58A393" points="335.647,165.111 361.164,170.097 361.164,32.421 335.647,33.869 			"/>
			<polygon fill="#6FAFA2" points="339.843,161.545 356.969,163.784 356.969,38.932 339.843,39.546 			"/>
		</g>
	</g>
</g>
<g>
	<g>
		<path fill="#D6CCB8" d="M149.581,159.188c0,0,9.47-62.339,36.565-62.339c3.222,0,15.829,0,18.943,0
			c24.098,0,35.337,62.089,35.337,62.089l-8.062,3.278c0,0-7.985-26.388-16.97-38.943c0,0,2.779,7.01,2.779,35.218
			c0,11.704-6.773,17.295-8.213,20.173c-1.185,2.375-3.895,39.036-3.895,39.036h-8.203c0,0-6.017-32.632-5.924-37.14
			c0.061-3.011-0.141-11.905-0.141-11.905s-6.937,7.099-8.859,11.349c-1.51,3.342-8.506,37.696-8.506,37.696h-8.189
			c0,0-3.824-33.372-2.871-39.527c1.027-6.642,4.544-14.776,8.861-19.682c0-28.208,2.784-35.218,2.784-35.218
			c-10.647,12.338-18.072,37.317-18.072,37.317L149.581,159.188z"/>
		<path fill="#EDDF96" d="M207.763,223.104c-0.208,2.995-5.432,7.096-8.708,7.763c-3.278,0.662-5.753-0.633-5.674-3.457
			c0.095-3.409,4.156-7.452,7.434-8.117C204.089,218.63,207.955,220.285,207.763,223.104z"/>
		<path fill="#EDDF96" d="M176.289,223.316c-0.423,2.876-5.643,6.904-8.944,7.442c-3.298,0.537-5.9-0.868-5.535-3.672
			c0.498-3.825,4.381-7.309,7.684-7.848C172.792,218.704,176.699,220.52,176.289,223.316z"/>
		<g>
			<path fill="#EDDF96" d="M244.826,162.084c2.925,0.878,8.037,3.322,7.584,5.177c-0.794,3.238-7.218-1.102-8.349,0.771
				c-0.51,0.854,1.079,1.764-0.072,2.961c-1.165,1.208-10.891-2.702-8.277-7.083C237.524,160.868,242.264,161.317,244.826,162.084z"
				/>
		</g>
		<g>
			<path fill="#EDDF96" d="M146.026,161.119c-2.961,0.744-8.179,2.964-7.803,4.841c0.652,3.271,7.259-0.787,8.302,1.138
				c0.475,0.874-1.153,1.716-0.058,2.953c1.116,1.264,11.004-2.219,8.587-6.705C153.375,160.227,148.621,160.47,146.026,161.119z"/>
		</g>
		<g>
			<path fill="#EEE09C" d="M218.289,72.406c0,12.393-10.042,22.438-22.436,22.438c-12.394,0-22.437-10.045-22.437-22.438
				c0-12.391,10.043-22.438,22.437-22.438C208.247,49.968,218.289,60.016,218.289,72.406z"/>
			<path fill="#85524D" d="M195.85,85.99c-4.05,0-7.683-1.583-10.028-4.386c-0.317-0.381-0.265-0.944,0.113-1.263
				c0.382-0.321,0.945-0.266,1.266,0.112c2.075,2.475,5.356,3.835,9.026,3.738c3.45-0.098,6.61-1.516,8.248-3.7
				c0.295-0.396,0.861-0.474,1.258-0.182c0.397,0.298,0.475,0.86,0.176,1.256c-1.953,2.618-5.647,4.305-9.633,4.418
				C196.13,85.99,195.989,85.99,195.85,85.99z"/>
			<g>
				<path fill="#804040" d="M207.125,68.615c0,1.926-0.988,3.483-2.206,3.483c-1.217,0-2.2-1.557-2.2-3.483
					c0-1.927,0.983-3.486,2.2-3.486C206.137,65.129,207.125,66.689,207.125,68.615z"/>
				<path fill="#804040" d="M188.986,68.615c0,1.926-0.985,3.483-2.2,3.483c-1.219,0-2.205-1.557-2.205-3.483
					c0-1.927,0.986-3.486,2.205-3.486C188.001,65.129,188.986,66.689,188.986,68.615z"/>
			</g>
		</g>
	</g>
	<g>
		<g>
			<path fill="#D6BAA7" d="M210.354,135.239c0,8.648-7.01,15.66-15.657,15.66c-8.648,0-15.664-7.012-15.664-15.66
				c0-8.652,7.016-15.66,15.664-15.66C203.344,119.579,210.354,126.587,210.354,135.239z"/>
			<path fill="#D39D87" d="M206.289,135.239c0,6.403-5.193,11.596-11.593,11.596c-6.403,0-11.599-5.192-11.599-11.596
				c0-6.406,5.196-11.597,11.599-11.597C201.096,123.643,206.289,128.833,206.289,135.239z"/>
			<path fill="#CF8168" d="M202.224,135.239c0,4.16-3.374,7.531-7.528,7.531c-4.157,0-7.532-3.371-7.532-7.531
				c0-4.159,3.375-7.531,7.532-7.531C198.851,127.707,202.224,131.08,202.224,135.239z"/>
			<path fill="#CC6448" d="M198.162,135.239c0,1.916-1.557,3.467-3.465,3.467c-1.912,0-3.467-1.551-3.467-3.467
				c0-1.913,1.555-3.468,3.467-3.468C196.604,131.771,198.162,133.326,198.162,135.239z"/>
		</g>
	</g>
</g>
</svg>
