<?xml version="1.0" encoding="utf-8"?>
<!-- Generator: Adobe Illustrator 15.0.2, SVG Export Plug-In . SVG Version: 6.00 Build 0)  -->
<!DOCTYPE svg PUBLIC "-//W3C//DTD SVG 1.1//EN" "http://www.w3.org/Graphics/SVG/1.1/DTD/svg11.dtd">
<svg version="1.1" id="Layer_1" xmlns="http://www.w3.org/2000/svg" xmlns:xlink="http://www.w3.org/1999/xlink" x="0px" y="0px"
	 width="132px" height="226px" viewBox="0 0 132 226" enable-background="new 0 0 132 226" xml:space="preserve">
<g>
	<path fill="#EBDB8A" d="M17.289,157.416L0.318,140.445c7.331-7.332,11.369-17.078,11.369-27.446
		c0-10.367-4.038-20.114-11.369-27.445l16.971-16.971C29.153,80.447,35.687,96.221,35.687,113
		C35.687,129.777,29.153,145.551,17.289,157.416z"/>
	<path fill="#EBDB8A" d="M51.229,191.354l-16.971-16.971c33.847-33.846,33.847-88.92,0-122.767l16.971-16.971
		C94.434,77.85,94.434,148.148,51.229,191.354z"/>
	<path fill="#EBDB8A" d="M85.168,225.295l-16.971-16.971c25.463-25.463,39.484-59.316,39.484-95.325
		c0-36.009-14.023-69.862-39.484-95.323L85.168,0.706c29.994,29.994,46.514,69.874,46.514,112.293
		C131.684,155.418,115.164,195.299,85.168,225.295z"/>
</g>
</svg>
