<?xml version="1.0" encoding="utf-8"?>
<!-- Generator: Adobe Illustrator 15.0.2, SVG Export Plug-In . SVG Version: 6.00 Build 0)  -->
<!DOCTYPE svg PUBLIC "-//W3C//DTD SVG 1.1//EN" "http://www.w3.org/Graphics/SVG/1.1/DTD/svg11.dtd">
<svg version="1.1" id="Layer_1" xmlns="http://www.w3.org/2000/svg" xmlns:xlink="http://www.w3.org/1999/xlink" x="0px" y="0px"
	 width="364px" height="364px" viewBox="0 0 364 364" enable-background="new 0 0 364 364" xml:space="preserve">
<g id="Layer_1_1_">
	<g>
		<path fill="#44658B" d="M182,1c24.436,0,48.139,4.786,70.453,14.224c21.553,9.116,40.91,22.167,57.533,38.79
			s29.674,35.98,38.79,57.534C358.215,133.861,363,157.564,363,182c0,24.436-4.785,48.141-14.224,70.454
			c-9.116,21.553-22.167,40.91-38.79,57.532c-16.623,16.623-35.98,29.674-57.533,38.789C230.139,358.215,206.436,363,182,363
			c-24.436,0-48.139-4.785-70.453-14.225c-21.554-9.115-40.911-22.166-57.534-38.789c-16.623-16.622-29.674-35.979-38.79-57.532
			C5.785,230.141,1,206.436,1,182c0-24.436,4.786-48.139,14.224-70.453c9.116-21.553,22.167-40.911,38.79-57.534
			c16.623-16.623,35.98-29.674,57.534-38.79C133.861,5.785,157.564,1,182,1 M182,0C81.484,0,0,81.484,0,182
			c0,100.518,81.484,182,182,182c100.516,0,182-81.482,182-182C364,81.484,282.516,0,182,0L182,0z"/>
	</g>
	<rect x="181.5" fill="#44658B" width="1" height="364"/>
	
		<rect x="-0.001" y="181.5" transform="matrix(0.5878 0.809 -0.809 0.5878 222.2643 -72.2179)" fill="#44658B" width="364.001" height="1"/>
	
		<rect x="-0.001" y="181.5" transform="matrix(0.9511 0.309 -0.309 0.9511 65.1494 -47.3336)" fill="#44658B" width="364" height="1"/>
	<rect x="181.5" y="0" transform="matrix(0.3086 0.9512 -0.9512 0.3086 298.9509 -47.282)" fill="#44658B" width="1" height="364"/>
	
		<rect x="181.499" y="0" transform="matrix(0.8088 0.5881 -0.5881 0.8088 141.8203 -72.2311)" fill="#44658B" width="1" height="364"/>
</g>
<g id="Layer_2">
	<g>
		<g>
			<g>
				<g>
					<path fill="#81B1CA" d="M182,182L288.736,34.759c32.453,23.633,53.568,52.762,65.967,91L182,182z"/>
				</g>
			</g>
			<g>
				<g>
					<path fill="#6185A6" d="M182,182V0c40.115,0,74.282,11.125,106.736,34.759L182,182z"/>
				</g>
			</g>
		</g>
	</g>
</g>
</svg>
