<?xml version="1.0" encoding="utf-8"?>
<!-- Generator: Adobe Illustrator 15.0.2, SVG Export Plug-In . SVG Version: 6.00 Build 0)  -->
<!DOCTYPE svg PUBLIC "-//W3C//DTD SVG 1.1//EN" "http://www.w3.org/Graphics/SVG/1.1/DTD/svg11.dtd">
<svg version="1.1" id="Layer_1" xmlns="http://www.w3.org/2000/svg" xmlns:xlink="http://www.w3.org/1999/xlink" x="0px" y="0px"
	 width="90px" height="90px" viewBox="0 0 90 90" enable-background="new 0 0 90 90" xml:space="preserve">
<circle fill="#CFE4E0" cx="45" cy="45" r="45"/>
<path fill="#687221" d="M87.866,58.71C89.248,54.387,90,49.782,90,45c0-4.88-0.787-9.574-2.224-13.974l-0.057-0.175l-0.002,0
	c-2.966-8.958-8.663-16.669-16.114-22.141l0.001-0.001L71.2,8.417l-0.004,0.005C63.88,3.173,54.93,0.059,45.25,0.006V0.002h-0.173
	C45.051,0.002,45.026,0,45,0s-0.051,0.002-0.077,0.002H44.75v0.004C35.049,0.06,26.082,3.186,18.757,8.455l-0.005-0.006
	l-0.404,0.294l0.001,0.002C7.223,16.937,0,30.122,0,45c0,4.937,0.806,9.682,2.274,14.125l0.009,0.028h0
	c2.965,8.954,8.66,16.661,16.107,22.132l-0.003,0.004l0.404,0.293l0.006-0.008c7.317,5.251,16.269,8.365,25.951,8.418V90h0.5v-0.008
	c9.7-0.053,18.668-3.179,25.993-8.448l0.006,0.008l0.404-0.294l-0.003-0.004c7.43-5.47,13.11-13.169,16.069-22.111l0.005,0.002
	L87.866,58.71z M87.396,58.513L45.81,45.002l41.585-13.521C88.758,35.747,89.5,40.288,89.5,45
	C89.5,49.71,88.759,54.249,87.396,58.513z M87.234,31.009l-41.59,13.522L71.299,9.132C78.66,14.544,84.296,22.165,87.234,31.009z
	 M70.892,8.842L45.25,44.224V0.506C54.808,0.56,63.654,3.646,70.892,8.842z M44.75,0.506V44.23L19.062,8.875
	C26.307,3.658,35.172,0.56,44.75,0.506z M18.654,9.165l25.693,35.362L2.764,31.017C5.694,22.188,11.313,14.577,18.654,9.165z
	 M2.603,31.49l41.591,13.513L2.607,58.523C1.243,54.256,0.5,49.714,0.5,45C0.5,40.291,1.241,35.753,2.603,31.49z M2.768,58.996
	L44.34,45.479L18.696,80.864C11.338,75.453,5.705,67.836,2.768,58.996z M19.104,81.153L44.75,45.765v43.728
	C35.19,89.439,26.341,86.353,19.104,81.153z M45.25,89.492V45.769l25.688,35.355C63.692,86.341,54.828,89.439,45.25,89.492z
	 M71.346,80.834L45.656,45.477l41.579,13.508C84.305,67.813,78.687,75.423,71.346,80.834z"/>
</svg>
