<?xml version="1.0" encoding="utf-8"?>
<!-- Generator: Adobe Illustrator 15.0.2, SVG Export Plug-In . SVG Version: 6.00 Build 0)  -->
<!DOCTYPE svg PUBLIC "-//W3C//DTD SVG 1.1//EN" "http://www.w3.org/Graphics/SVG/1.1/DTD/svg11.dtd">
<svg version="1.1" id="Layer_1" xmlns="http://www.w3.org/2000/svg" xmlns:xlink="http://www.w3.org/1999/xlink" x="0px" y="0px"
	 width="70px" height="70px" viewBox="0 0 70 70" enable-background="new 0 0 70 70" xml:space="preserve">
<g>
	<circle fill="#DBC460" cx="35" cy="35" r="35"/>
	<g>
		<path fill="#9C6C1E" d="M48.25,51.941c-0.789,0-1.535-0.469-1.854-1.241c-1.799-4.388-6.148-7.112-11.356-7.112
			c-5.288,0-9.844,2.852-11.074,6.932c-0.32,1.061-1.438,1.654-2.493,1.338c-1.058-0.317-1.655-1.437-1.337-2.491
			c1.766-5.849,7.754-9.775,14.904-9.775c6.862,0,12.633,3.679,15.06,9.597c0.418,1.021-0.07,2.188-1.094,2.607
			C48.757,51.895,48.501,51.941,48.25,51.941z"/>
		<ellipse fill="#9C6C1E" cx="49.65" cy="29.758" rx="3.783" ry="5.242"/>
		<ellipse fill="#9C6C1E" cx="20.347" cy="29.758" rx="3.784" ry="5.242"/>
	</g>
</g>
</svg>
