<?xml version="1.0" encoding="utf-8"?>
<!-- Generator: Adobe Illustrator 15.0.2, SVG Export Plug-In . SVG Version: 6.00 Build 0)  -->
<!DOCTYPE svg PUBLIC "-//W3C//DTD SVG 1.1//EN" "http://www.w3.org/Graphics/SVG/1.1/DTD/svg11.dtd">
<svg version="1.1" id="Layer_1" xmlns="http://www.w3.org/2000/svg" xmlns:xlink="http://www.w3.org/1999/xlink" x="0px" y="0px"
	 width="1600px" height="900px" viewBox="0 0 1600 900" enable-background="new 0 0 1600 900" xml:space="preserve">
<g>
	<rect fill="#93D5CD" width="1600" height="900"/>
</g>
<path fill="#971B00" d="M1600,900V225h-259c-1.1,0-2,0.9-2,2v48h-102c-1.1,0-2,0.9-2,2v48h-0.001H1133c-1.1,0-2,0.9-2,2v48h-102
	c-1.1,0-2,0.9-2,2v48H925c-1.1,0-2,0.9-2,2v48H821c-1.1,0-2,0.9-2,2v48H617c-1.1,0-2,0.9-2,2v48H513c-1.1,0-2,0.9-2,2v48H409
	c-1.1,0-2,0.9-2,2v48H305c-1.1,0-2,0.9-2,2v48h0H201c-1.1,0-2,0.9-2,2v48H0v125H1600z"/>
<!--
<g>
	<circle fill="#811200" cx="680" cy="585" r="45"/>
	<circle fill="#811200" cx="576.001" cy="635" r="45"/>
	<circle fill="#811200" cx="472.001" cy="685" r="45"/>
	<circle fill="#811200" cx="368.001" cy="735" r="45"/>
	<circle fill="#811200" cx="264.001" cy="785" r="45"/>
	<circle fill="#811200" cx="160.001" cy="835" r="45"/>
</g>
<g>
	<circle fill="#811200" cx="1404" cy="285" r="45"/>
	<circle fill="#811200" cx="1300.001" cy="335" r="45"/>
	<circle fill="#811200" cx="1196.001" cy="385" r="45"/>
	<circle fill="#811200" cx="1092.001" cy="435" r="45"/>
	<circle fill="#811200" cx="988.001" cy="485" r="45"/>
	<circle fill="#811200" cx="884.001" cy="535" r="45"/>
</g>
-->
</svg>
