<?xml version="1.0" encoding="utf-8"?>
<!-- Generator: Adobe Illustrator 15.0.2, SVG Export Plug-In . SVG Version: 6.00 Build 0)  -->
<!DOCTYPE svg PUBLIC "-//W3C//DTD SVG 1.1//EN" "http://www.w3.org/Graphics/SVG/1.1/DTD/svg11.dtd">
<svg version="1.1" id="Layer_1" xmlns="http://www.w3.org/2000/svg" xmlns:xlink="http://www.w3.org/1999/xlink" x="0px" y="0px"
	 width="90px" height="90px" viewBox="0 0 90 90" enable-background="new 0 0 90 90" xml:space="preserve">
<g>
	<g>
		<circle fill="#EFE2A1" cx="45" cy="45" r="45"/>
		<path fill="#44658B" d="M45,0.5c24.537,0,44.5,19.963,44.5,44.5S69.537,89.499,45,89.499C20.462,89.499,0.5,69.537,0.5,45
			S20.462,0.5,45,0.5 M45,0C20.146,0,0,20.146,0,45c0,24.854,20.146,44.999,45,44.999c24.854,0,45-20.146,45-44.999
			C90,20.146,69.854,0,45,0L45,0z"/>
	</g>
	<g>
		<rect x="44.75" y="0.002" fill="#44658B" width="0.5" height="89.998"/>
		
			<rect x="0.001" y="44.75" transform="matrix(-0.5878 -0.809 0.809 -0.5878 35.0465 107.8571)" fill="#44658B" width="89.998" height="0.5"/>
		
			<rect x="0.001" y="44.752" transform="matrix(-0.9511 -0.309 0.309 -0.9511 73.8972 101.7072)" fill="#44658B" width="90.003" height="0.499"/>
		
			<rect x="44.752" y="0.002" transform="matrix(-0.3092 -0.951 0.951 -0.3092 16.1178 101.7126)" fill="#44658B" width="0.499" height="90"/>
		
			<rect x="44.747" y="0.001" transform="matrix(-0.8091 -0.5877 0.5877 -0.8091 54.9559 107.8518)" fill="#44658B" width="0.498" height="89.996"/>
	</g>
</g>
<g>
	<g>
		<g>
			<g>
				<path fill="#6185A6" d="M45.001,45.002L71.39,81.407c-8.023,5.845-16.47,8.596-26.389,8.596V45.002z"/>
			</g>
		</g>
		<g>
			<g>
				<path fill="#81B1CA" d="M45.001,45.002l42.7,13.905c-3.065,9.453-8.286,16.656-16.312,22.5L45.001,45.002z"/>
			</g>
		</g>
		<g>
			<g>
				<path fill="#6185A6" d="M45.001,45.002l42.7-13.906c3.066,9.455,3.066,18.358,0,27.812L45.001,45.002z"/>
			</g>
		</g>
		<g>
			<g>
				<path fill="#81B1CA" d="M45.001,45.002L71.39,8.597c8.025,5.843,13.246,13.046,16.312,22.499L45.001,45.002z"/>
			</g>
		</g>
		<g>
			<g>
				<path fill="#6185A6" d="M45.001,45.002V0.003c9.919,0,18.366,2.751,26.389,8.594L45.001,45.002z"/>
			</g>
		</g>
	</g>
</g>
</svg>
