<?xml version="1.0" encoding="utf-8"?>
<!-- Generator: Adobe Illustrator 15.0.2, SVG Export Plug-In . SVG Version: 6.00 Build 0)  -->
<!DOCTYPE svg PUBLIC "-//W3C//DTD SVG 1.1//EN" "http://www.w3.org/Graphics/SVG/1.1/DTD/svg11.dtd">
<svg version="1.1" id="Layer_1" xmlns="http://www.w3.org/2000/svg" xmlns:xlink="http://www.w3.org/1999/xlink" x="0px" y="0px"
	 width="1600px" height="900px" viewBox="0 0 1600 900" enable-background="new 0 0 1600 900" xml:space="preserve">
<g>
	<rect fill="#BF9930" width="1600" height="900"/>
</g>
<g>
	<g>
		<g>
			<rect fill="#C7A53A" width="53.999" height="900"/>
			<rect x="96.625" fill="#C7A53A" width="54" height="900"/>
			<rect x="193.249" fill="#C7A53A" width="54.001" height="900"/>
			<rect x="289.875" fill="#C7A53A" width="54" height="900"/>
			<rect x="386.499" fill="#C7A53A" width="53.999" height="900"/>
			<rect x="483.123" fill="#C7A53A" width="54.001" height="900"/>
			<rect x="579.75" fill="#C7A53A" width="54.001" height="900"/>
			<rect x="676.375" fill="#C7A53A" width="54" height="900"/>
			<rect x="869.626" fill="#C7A53A" width="54" height="900"/>
			<rect x="773.001" fill="#C7A53A" width="53.999" height="900"/>
			<rect x="966.252" fill="#C7A53A" width="53.998" height="900"/>
			<rect x="1062.877" fill="#C7A53A" width="53.999" height="900"/>
			<rect x="1159.503" fill="#C7A53A" width="53.997" height="900"/>
			<rect x="1256.127" fill="#C7A53A" width="53.999" height="900"/>
			<rect x="1352.751" fill="#C7A53A" width="53.999" height="900"/>
			<rect x="1449.377" fill="#C7A53A" width="53.997" height="900"/>
			<rect x="1546.003" fill="#C7A53A" width="53.997" height="900"/>
		</g>
	</g>
</g>
<g>
	<g>
		<rect y="834" fill="#EBDB8A" width="1600" height="66"/>
		<rect y="834" fill="#E1CC6C" width="1600" height="16"/>
	</g>
</g>
<path fill="#F4EAAC" d="M800,105.366c-212.924,0-385.531,134.675-385.531,300.804c0,39.512,9.771,77.241,27.52,111.806
	l-63.077,88.04l116.851-15.072C566.31,661.557,676.355,706.975,800,706.975c212.921,0,385.531-134.676,385.531-300.805
	S1012.922,105.366,800,105.366z"/>
</svg>
