<?xml version="1.0" encoding="utf-8"?>
<!-- Generator: Adobe Illustrator 15.0.2, SVG Export Plug-In . SVG Version: 6.00 Build 0)  -->
<!DOCTYPE svg PUBLIC "-//W3C//DTD SVG 1.1//EN" "http://www.w3.org/Graphics/SVG/1.1/DTD/svg11.dtd">
<svg version="1.1" id="Layer_1" xmlns="http://www.w3.org/2000/svg" xmlns:xlink="http://www.w3.org/1999/xlink" x="0px" y="0px"
	 width="1600px" height="900px" viewBox="0 0 1600 900" enable-background="new 0 0 1600 900" xml:space="preserve">
<g>
	<g>
		<rect fill="#6C0900" width="1600" height="900"/>
	</g>
	<g>
		<g>
			<g>
				<rect fill="#811200" width="53.999" height="900"/>
				<rect x="96.625" fill="#811200" width="54" height="900"/>
				<rect x="193.249" fill="#811200" width="54.001" height="900"/>
				<rect x="289.875" fill="#811200" width="54" height="900"/>
				<rect x="386.499" fill="#811200" width="53.999" height="900"/>
				<rect x="483.123" fill="#811200" width="54.001" height="900"/>
				<rect x="579.75" fill="#811200" width="54.001" height="900"/>
				<rect x="676.375" fill="#811200" width="54" height="900"/>
				<rect x="869.626" fill="#811200" width="54" height="900"/>
				<rect x="773.001" fill="#811200" width="53.999" height="900"/>
				<rect x="966.252" fill="#811200" width="53.998" height="900"/>
				<rect x="1062.877" fill="#811200" width="53.999" height="900"/>
				<rect x="1159.503" fill="#811200" width="53.997" height="900"/>
				<rect x="1256.127" fill="#811200" width="53.999" height="900"/>
				<rect x="1352.751" fill="#811200" width="53.999" height="900"/>
				<rect x="1449.377" fill="#811200" width="53.997" height="900"/>
				<rect x="1546.003" fill="#811200" width="53.997" height="900"/>
			</g>
		</g>
	</g>
</g>
<g>
	<g>
		<path fill="#FCF0CF" d="M1317,85c0-15.4-12.6-28-28-28H311c-15.4,0-28,12.6-28,28v530c0,15.4,12.6,28,28,28h978
			c15.4,0,28-12.6,28-28V85z"/>
	</g>
</g>
<g>
	<path fill="#D1CCBA" d="M1273.666,616.005H326.334c-9.601,0-17.411-7.811-17.411-17.411V101.404c0-9.602,7.812-17.41,17.411-17.41
		h947.332c9.602,0,17.412,7.81,17.412,17.41v497.188C1291.078,608.194,1283.268,616.005,1273.666,616.005z M326.334,86.994
		c-7.946,0-14.411,6.464-14.411,14.41v497.188c0,7.946,6.465,14.411,14.411,14.411h947.332c7.947,0,14.412-6.465,14.412-14.411
		V101.404c0-7.946-6.465-14.41-14.412-14.41H326.334z"/>
	<path fill="#D1CCBA" d="M1267.666,600.094H332.334c-4.135,0-7.5-3.363-7.5-7.5V107.404c0-4.136,3.365-7.5,7.5-7.5h935.332
		c4.136,0,7.5,3.364,7.5,7.5v485.188C1275.166,596.729,1271.802,600.094,1267.666,600.094z M332.334,102.904
		c-2.48,0-4.5,2.019-4.5,4.5v485.188c0,2.481,2.02,4.5,4.5,4.5h935.332c2.48,0,4.5-2.019,4.5-4.5V107.404c0-2.481-2.02-4.5-4.5-4.5
		H332.334z"/>
</g>
</svg>
