<?xml version="1.0" encoding="utf-8"?>
<!-- Generator: Adobe Illustrator 15.0.2, SVG Export Plug-In . SVG Version: 6.00 Build 0)  -->
<!DOCTYPE svg PUBLIC "-//W3C//DTD SVG 1.1//EN" "http://www.w3.org/Graphics/SVG/1.1/DTD/svg11.dtd">
<svg version="1.1" id="Layer_1" xmlns="http://www.w3.org/2000/svg" xmlns:xlink="http://www.w3.org/1999/xlink" x="0px" y="0px"
	 width="72px" height="72px" viewBox="0 0 72 72" enable-background="new 0 0 72 72" xml:space="preserve">
<g>
	<circle fill="#AC2400" cx="36" cy="36" r="36"/>
	<polygon fill="#CD4917" points="36,58.17 50.933,41.802 42.47,41.802 42.47,30.198 50.933,30.198 36,13.831 21.067,30.198 
		29.53,30.198 29.53,41.802 21.067,41.802 	"/>
	<path fill="#DE723A" d="M3.6,36C3.6,18.134,18.134,3.6,36,3.6c17.865,0,32.4,14.534,32.4,32.4c0,17.865-14.535,32.4-32.4,32.4
		C18.134,68.4,3.6,53.865,3.6,36z M65.219,36C65.219,19.889,52.111,6.782,36,6.782S6.782,19.889,6.782,36S19.89,65.219,36,65.219
		C52.111,65.219,65.219,52.111,65.219,36z"/>
</g>
</svg>
