<?xml version="1.0" encoding="utf-8"?>
<!-- Generator: Adobe Illustrator 15.0.2, SVG Export Plug-In . SVG Version: 6.00 Build 0)  -->
<!DOCTYPE svg PUBLIC "-//W3C//DTD SVG 1.1//EN" "http://www.w3.org/Graphics/SVG/1.1/DTD/svg11.dtd">
<svg version="1.1" id="Layer_1" xmlns="http://www.w3.org/2000/svg" xmlns:xlink="http://www.w3.org/1999/xlink" x="0px" y="0px"
	 width="364px" height="364px" viewBox="0 0 364 364" enable-background="new 0 0 364 364" xml:space="preserve">
<g id="Layer_1_1_">
	<g>
		<path fill="#D7BD4E" d="M182,1c24.436,0,48.139,4.786,70.453,14.224c21.553,9.116,40.91,22.167,57.533,38.79
			s29.674,35.98,38.789,57.534C358.215,133.861,363,157.564,363,182c0,24.436-4.785,48.141-14.225,70.454
			c-9.115,21.553-22.166,40.91-38.789,57.532c-16.623,16.623-35.98,29.674-57.533,38.789C230.139,358.215,206.436,363,182,363
			c-24.436,0-48.139-4.785-70.453-14.225c-21.554-9.115-40.911-22.166-57.534-38.789s-29.674-35.979-38.79-57.532
			C5.785,230.141,1,206.436,1,182c0-24.436,4.786-48.139,14.224-70.453c9.116-21.553,22.167-40.911,38.79-57.534
			c16.623-16.623,35.98-29.674,57.534-38.79C133.861,5.785,157.564,1,182,1 M182,0C81.484,0,0,81.484,0,182
			c0,100.518,81.484,182,182,182c100.516,0,182-81.482,182-182C364,81.484,282.516,0,182,0L182,0z"/>
	</g>
	<rect x="181.5" fill="#D7BD4E" width="1" height="364"/>
	
		<rect x="0.012" y="181.5" transform="matrix(0.5878 0.809 -0.809 0.5878 222.2628 -72.2245)" fill="#D7BD4E" width="363.992" height="1.002"/>
	
		<rect x="-0.019" y="181.496" transform="matrix(0.9511 0.309 -0.309 0.9511 65.1405 -47.3321)" fill="#D7BD4E" width="364.052" height="1"/>
	
		<rect x="181.499" y="-0.006" transform="matrix(0.3083 0.9513 -0.9513 0.3083 299.0197 -47.247)" fill="#D7BD4E" width="1.001" height="364.011"/>
	
		<rect x="181.491" y="-0.024" transform="matrix(0.8087 0.5883 -0.5883 0.8087 141.8904 -72.2379)" fill="#D7BD4E" width="0.999" height="364.043"/>
</g>
<g>
	<g>
		<g>
			<g>
				<path fill="#F4EAAC" d="M182,181.999l106.736-147.24c32.453,23.632,53.567,52.761,65.967,91L182,181.999z"/>
			</g>
		</g>
		<g>
			<g>
				<path fill="#E1CC6C" d="M182,181.999V0c40.115,0,74.279,11.126,106.736,34.759L182,181.999z"/>
			</g>
		</g>
	</g>
</g>
</svg>
