<?xml version="1.0" encoding="utf-8"?>
<!-- Generator: Adobe Illustrator 15.0.2, SVG Export Plug-In . SVG Version: 6.00 Build 0)  -->
<!DOCTYPE svg PUBLIC "-//W3C//DTD SVG 1.1//EN" "http://www.w3.org/Graphics/SVG/1.1/DTD/svg11.dtd">
<svg version="1.1" id="Layer_1" xmlns="http://www.w3.org/2000/svg" xmlns:xlink="http://www.w3.org/1999/xlink" x="0px" y="0px"
	 width="70px" height="70px" viewBox="0 0 70 70" enable-background="new 0 0 70 70" xml:space="preserve">
<g>
	<circle fill="#DBC460" cx="35" cy="35" r="35"/>
	<g>
		<path fill="#9C6C1E" d="M35.108,55.715c-6.863,0-12.634-3.677-15.059-9.595c-0.421-1.022,0.069-2.19,1.092-2.609
			c1.03-0.418,2.188,0.071,2.609,1.093c1.798,4.389,6.148,7.111,11.356,7.111c5.287,0,9.844-2.852,11.074-6.932
			c0.32-1.057,1.439-1.653,2.495-1.338c1.056,0.32,1.651,1.437,1.334,2.494C48.246,51.786,42.259,55.715,35.108,55.715z"/>
		<ellipse fill="#9C6C1E" cx="49.65" cy="29.758" rx="3.785" ry="5.242"/>
		<ellipse fill="#9C6C1E" cx="20.347" cy="29.758" rx="3.783" ry="5.242"/>
	</g>
</g>
</svg>
