<?xml version="1.0" encoding="utf-8"?>
<!-- Generator: Adobe Illustrator 15.0.2, SVG Export Plug-In . SVG Version: 6.00 Build 0)  -->
<!DOCTYPE svg PUBLIC "-//W3C//DTD SVG 1.1//EN" "http://www.w3.org/Graphics/SVG/1.1/DTD/svg11.dtd">
<svg version="1.1" id="Layer_1" xmlns="http://www.w3.org/2000/svg" xmlns:xlink="http://www.w3.org/1999/xlink" x="0px" y="0px"
	 width="90px" height="90px" viewBox="0 0 90 90" enable-background="new 0 0 90 90" xml:space="preserve">
<circle fill="#971B00" cx="45" cy="45" r="45"/>
<path fill="#D7BD4E" d="M87.866,58.709C89.248,54.387,90,49.781,90,45c0-4.88-0.787-9.575-2.225-13.976l-0.058-0.174h-0.002
	c-2.966-8.959-8.661-16.67-16.112-22.142l0,0L71.2,8.417l-0.005,0.005C63.88,3.173,54.93,0.059,45.25,0.006V0.002h-0.173
	C45.051,0.002,45.025,0,45,0s-0.051,0.002-0.077,0.002H44.75v0.004c-9.701,0.055-18.668,3.18-25.993,8.449l-0.005-0.006
	l-0.404,0.294l0.002,0.002C7.223,16.938,0,30.122,0,45c0,4.937,0.807,9.681,2.273,14.125l0.01,0.027l0,0
	c2.965,8.955,8.66,16.662,16.107,22.133l-0.004,0.004l0.404,0.293l0.006-0.008c7.317,5.25,16.27,8.365,25.951,8.418V90h0.5v-0.008
	c9.7-0.053,18.668-3.18,25.993-8.449l0.006,0.008l0.402-0.293l-0.002-0.004c7.431-5.471,13.109-13.17,16.068-22.111l0.006,0.002
	L87.866,58.709z M87.396,58.514L45.811,45.002L87.395,31.48C88.758,35.747,89.5,40.288,89.5,45
	C89.5,49.709,88.759,54.248,87.396,58.514z M87.234,31.009l-41.59,13.523l25.654-35.4C78.66,14.544,84.296,22.165,87.234,31.009z
	 M70.893,8.842L45.25,44.225V0.506C54.809,0.561,63.654,3.646,70.893,8.842z M44.75,0.506V44.23L19.062,8.875
	C26.307,3.658,35.172,0.561,44.75,0.506z M18.654,9.165l25.694,35.362L2.764,31.018C5.693,22.188,11.312,14.577,18.654,9.165z
	 M2.604,31.49l41.589,13.512L2.607,58.523C1.243,54.256,0.5,49.713,0.5,45C0.5,40.291,1.241,35.753,2.604,31.49z M2.768,58.996
	L44.34,45.479L18.695,80.863C11.338,75.453,5.705,67.836,2.768,58.996z M19.104,81.152L44.75,45.766v43.729
	C35.189,89.439,26.341,86.354,19.104,81.152z M45.25,89.492V45.77l25.688,35.354C63.691,86.34,54.828,89.439,45.25,89.492z
	 M71.346,80.834L45.656,45.477l41.578,13.508C84.305,67.812,78.688,75.422,71.346,80.834z"/>
<g>
	<g>
		<g>
			<g>
				<path fill="#E1CC6C" d="M45,44.999l42.7-13.906c3.065,9.455,3.065,18.358,0,27.812L45,44.999z"/>
			</g>
		</g>
		<g>
			<g>
				<path fill="#F4EAAC" d="M45,44.999L71.389,8.594c8.025,5.842,13.246,13.045,16.312,22.499L45,44.999z"/>
			</g>
		</g>
		<g>
			<g>
				<path fill="#E1CC6C" d="M45,44.999V0c9.919,0,18.366,2.751,26.389,8.594L45,44.999z"/>
			</g>
		</g>
	</g>
</g>
</svg>
