<?xml version="1.0" encoding="utf-8"?>
<!-- Generator: Adobe Illustrator 15.0.2, SVG Export Plug-In . SVG Version: 6.00 Build 0)  -->
<!DOCTYPE svg PUBLIC "-//W3C//DTD SVG 1.1//EN" "http://www.w3.org/Graphics/SVG/1.1/DTD/svg11.dtd">
<svg version="1.1" id="Layer_1" xmlns="http://www.w3.org/2000/svg" xmlns:xlink="http://www.w3.org/1999/xlink" x="0px" y="0px"
	 width="90px" height="90px" viewBox="0 0 90 90" enable-background="new 0 0 90 90" xml:space="preserve">
<g>
	<circle fill="#AC2400" cx="45" cy="45" r="45"/>
	<polygon fill="#CD4917" points="45,72.712 63.666,52.253 53.087,52.253 53.087,37.747 63.666,37.747 45,17.288 26.334,37.747 
		36.913,37.747 36.913,52.253 26.334,52.253 	"/>
	<path fill="#DE723A" d="M4.5,45C4.5,22.668,22.668,4.5,45,4.5S85.5,22.668,85.5,45S67.332,85.5,45,85.5S4.5,67.332,4.5,45z
		 M81.523,45C81.523,24.861,65.139,8.477,45,8.477S8.477,24.861,8.477,45c0,20.139,16.385,36.523,36.523,36.523
		S81.523,65.139,81.523,45z"/>
</g>
</svg>
