<?xml version="1.0" encoding="utf-8"?>
<!-- Generator: Adobe Illustrator 15.0.2, SVG Export Plug-In . SVG Version: 6.00 Build 0)  -->
<!DOCTYPE svg PUBLIC "-//W3C//DTD SVG 1.1//EN" "http://www.w3.org/Graphics/SVG/1.1/DTD/svg11.dtd">
<svg version="1.1" id="Layer_1" xmlns="http://www.w3.org/2000/svg" xmlns:xlink="http://www.w3.org/1999/xlink" x="0px" y="0px"
	 width="70px" height="70px" viewBox="0 0 70 70" enable-background="new 0 0 70 70" xml:space="preserve">
<g>
	<circle fill="#DBC460" cx="35" cy="35" r="35"/>
	<g>
		<g>
			<path fill="#9C6C1E" d="M22.886,36.939c0,0,1.849-16.634,9.387-16.634c0.897,0,4.405,0,5.272,0
				c6.705,0,9.295,16.564,9.295,16.564l-2.244,0.912c0,0-1.686-6.631-4.186-10.123c0,0,0.775,2.799,0.775,10.646
				c0,11.479-0.984,20.607-0.984,20.607h-2.283c0,0-0.867-12.316-2.943-20.621c-1.903,8.193-3.574,20.621-3.574,20.621h-2.279
				c0,0-0.719-8.955-0.719-20.607c0-7.85,0.775-10.646,0.775-10.646c-2.963,3.432-4.242,9.668-4.242,9.668L22.886,36.939z"/>
			<path fill="#9C6C1E" d="M40.693,60.572c0,0.787-0.646,0.992-1.572,0.992c-0.93,0-1.795-0.205-1.795-0.992
				c0-0.785,0.754-1.422,1.686-1.422C39.939,59.15,40.693,59.787,40.693,60.572z"/>
			<path fill="#9C6C1E" d="M31.928,60.572c0,0.787-0.644,0.992-1.575,0.992c-0.928,0-1.793-0.205-1.793-0.992
				c0-0.785,0.754-1.422,1.683-1.422C31.173,59.15,31.928,59.787,31.928,60.572z"/>
			<g>
				<path fill="#9C6C1E" d="M47.613,39.756c0.094,0.844,0.021,2.42-0.504,2.504c-0.916,0.148-0.5-1.969-1.104-2.055
					c-0.272-0.039-0.336,0.469-0.767,0.303c-0.438-0.168-0.489-3.084,0.916-2.891C47.135,37.752,47.533,39.016,47.613,39.756z"/>
			</g>
			<g>
				<path fill="#9C6C1E" d="M22.355,39.844c-0.032,0.852,0.151,2.416,0.681,2.463c0.925,0.082,0.358-2,0.954-2.127
					c0.272-0.059,0.369,0.443,0.786,0.246c0.423-0.197,0.269-3.111-1.12-2.814C22.691,37.812,22.384,39.102,22.355,39.844z"/>
			</g>
			<g>
				<circle fill="#9C6C1E" cx="34.974" cy="13.506" r="6.242"/>
			</g>
		</g>
	</g>
</g>
</svg>
