<?xml version="1.0" encoding="utf-8"?>
<!-- Generator: Adobe Illustrator 15.0.2, SVG Export Plug-In . SVG Version: 6.00 Build 0)  -->
<!DOCTYPE svg PUBLIC "-//W3C//DTD SVG 1.1//EN" "http://www.w3.org/Graphics/SVG/1.1/DTD/svg11.dtd">
<svg version="1.1" id="Layer_1" xmlns="http://www.w3.org/2000/svg" xmlns:xlink="http://www.w3.org/1999/xlink" x="0px" y="0px"
	 width="56px" height="56px" viewBox="0 0 56 56" enable-background="new 0 0 56 56" xml:space="preserve">
<g>
	<circle fill="#B3D0DF" cx="28" cy="28" r="28"/>
	<g>
		<g>
			<path fill="#577A9D" d="M18.309,29.552c0,0,1.479-13.308,7.509-13.308c0.718,0,3.524,0,4.218,0
				c5.364,0,7.436,13.251,7.436,13.251l-1.795,0.73c0,0-1.349-5.305-3.349-8.099c0,0,0.62,2.239,0.62,8.517
				c0,9.184-0.787,16.487-0.787,16.487h-1.827c0,0-0.694-9.854-2.354-16.497c-1.522,6.556-2.859,16.497-2.859,16.497h-1.823
				c0,0-0.576-7.164-0.576-16.487c0-6.279,0.621-8.517,0.621-8.517c-2.371,2.746-3.394,7.734-3.394,7.734L18.309,29.552z"/>
			<path fill="#577A9D" d="M32.555,48.458c0,0.63-0.516,0.794-1.258,0.794c-0.744,0-1.436-0.164-1.436-0.794
				c0-0.628,0.603-1.138,1.349-1.138C31.952,47.32,32.555,47.83,32.555,48.458z"/>
			<path fill="#577A9D" d="M25.542,48.458c0,0.63-0.515,0.794-1.26,0.794c-0.742,0-1.434-0.164-1.434-0.794
				c0-0.628,0.603-1.138,1.346-1.138C24.938,47.32,25.542,47.83,25.542,48.458z"/>
			<g>
				<path fill="#577A9D" d="M38.091,31.805c0.075,0.675,0.017,1.936-0.403,2.003c-0.732,0.119-0.4-1.575-0.883-1.644
					c-0.219-0.031-0.269,0.375-0.612,0.242c-0.351-0.134-0.393-2.467,0.732-2.312C37.708,30.202,38.026,31.212,38.091,31.805z"/>
			</g>
			<g>
				<path fill="#577A9D" d="M17.884,31.875c-0.025,0.681,0.121,1.933,0.545,1.97c0.74,0.066,0.287-1.6,0.764-1.702
					c0.217-0.047,0.295,0.355,0.628,0.197c0.338-0.158,0.215-2.489-0.896-2.252C18.153,30.25,17.907,31.281,17.884,31.875z"/>
			</g>
			<g>
				<circle fill="#577A9D" cx="27.979" cy="10.805" r="4.993"/>
			</g>
		</g>
	</g>
</g>
</svg>
