<?xml version="1.0" encoding="utf-8"?>
<!-- Generator: Adobe Illustrator 15.0.2, SVG Export Plug-In . SVG Version: 6.00 Build 0)  -->
<!DOCTYPE svg PUBLIC "-//W3C//DTD SVG 1.1//EN" "http://www.w3.org/Graphics/SVG/1.1/DTD/svg11.dtd">
<svg version="1.1" id="Layer_1" xmlns="http://www.w3.org/2000/svg" xmlns:xlink="http://www.w3.org/1999/xlink" x="0px" y="0px"
	 width="364px" height="364px" viewBox="0 0 364 364" enable-background="new 0 0 364 364" xml:space="preserve">
<g>
	<g>
		<g>
			<g>
				<path fill="#AAB036" d="M181.609,182.798L75.103,329.393c-32.386-23.527-53.455-52.527-65.826-90.602L181.609,182.798z"/>
			</g>
		</g>
		<g>
			<g>
				<path fill="#C4C63A" d="M181.609,182.798V364c-40.03,0-74.123-11.078-106.507-34.607L181.609,182.798z"/>
			</g>
		</g>
		<g>
			<g>
				<path fill="#AAB036" d="M181.609,182.798l106.507,146.595C255.73,352.922,221.639,364,181.609,364V182.798z"/>
			</g>
		</g>
		<g>
			<g>
				<path fill="#C4C63A" d="M181.609,182.798l172.333,55.993c-12.371,38.072-33.44,67.072-65.824,90.602L181.609,182.798z"/>
			</g>
		</g>
		<g>
			<g>
				<path fill="#AAB036" d="M181.609,182.798l172.333-55.994c12.369,38.07,12.369,73.917,0,111.987L181.609,182.798z"/>
			</g>
		</g>
		<g>
			<g>
				<path fill="#C4C63A" d="M181.609,182.798L288.116,36.205c32.384,23.528,53.454,52.529,65.825,90.6L181.609,182.798z"/>
			</g>
		</g>
		<g>
			<g>
				<path fill="#AAB036" d="M181.609,182.798V1.598c40.03,0,74.122,11.077,106.507,34.607L181.609,182.798z"/>
			</g>
		</g>
	</g>
	<g>
		<g>
			<path fill="#C4C63A" d="M181.609,182.798L9.277,238.793c-12.37-38.072-12.37-73.918,0-111.989L181.609,182.798z"/>
		</g>
	</g>
	<g>
		<g>
			<path fill="#C4C63A" d="M181.609,182.798L75.104,36.205c32.384-23.53,66.477-34.606,106.506-34.606L181.609,182.798
				L181.609,182.798z"/>
		</g>
	</g>
	<g>
		<g>
			<path fill="#AAB036" d="M181.609,182.798L9.276,126.803c12.37-38.069,33.441-67.07,65.826-90.6L181.609,182.798z"/>
		</g>
	</g>
</g>
</svg>
