<?xml version="1.0" encoding="utf-8"?>
<!-- Generator: Adobe Illustrator 15.0.2, SVG Export Plug-In . SVG Version: 6.00 Build 0)  -->
<!DOCTYPE svg PUBLIC "-//W3C//DTD SVG 1.1//EN" "http://www.w3.org/Graphics/SVG/1.1/DTD/svg11.dtd">
<svg version="1.1" id="Layer_1" xmlns="http://www.w3.org/2000/svg" xmlns:xlink="http://www.w3.org/1999/xlink" x="0px" y="0px"
	 width="72px" height="72px" viewBox="0 0 72 72" enable-background="new 0 0 72 72" xml:space="preserve">
<g>
	<circle fill="#D7BD4E" cx="36" cy="36" r="36"/>
	<polygon fill="#EFE2A1" points="58.17,36 41.802,21.067 41.802,29.53 30.198,29.53 30.198,21.067 13.831,36 30.198,50.933 
		30.198,42.47 41.802,42.47 41.802,50.933 	"/>
	<path fill="#E4D17B" d="M36,68.4C18.134,68.4,3.6,53.865,3.6,36C3.6,18.134,18.134,3.6,36,3.6c17.865,0,32.4,14.534,32.4,32.4
		C68.4,53.865,53.865,68.4,36,68.4z M36,6.782C19.889,6.782,6.782,19.889,6.782,36S19.889,65.219,36,65.219S65.219,52.111,65.219,36
		C65.219,19.89,52.111,6.782,36,6.782z"/>
</g>
</svg>
