<?xml version="1.0" encoding="utf-8"?>
<!-- Generator: Adobe Illustrator 15.0.2, SVG Export Plug-In . SVG Version: 6.00 Build 0)  -->
<!DOCTYPE svg PUBLIC "-//W3C//DTD SVG 1.1//EN" "http://www.w3.org/Graphics/SVG/1.1/DTD/svg11.dtd">
<svg version="1.1" id="Layer_1" xmlns="http://www.w3.org/2000/svg" xmlns:xlink="http://www.w3.org/1999/xlink" x="0px" y="0px"
	 width="90px" height="90px" viewBox="0 0 90 90" enable-background="new 0 0 90 90" xml:space="preserve">
<g>
	<g>
		<circle fill="#EFE2A1" cx="45" cy="45" r="45"/>
		<path fill="#44658B" d="M45,0.5c24.537,0,44.5,19.963,44.5,44.5S69.537,89.499,45,89.499C20.462,89.499,0.5,69.537,0.5,45
			S20.462,0.5,45,0.5 M45,0C20.146,0,0,20.146,0,45c0,24.854,20.146,44.999,45,44.999c24.854,0,45-20.146,45-44.999
			C90,20.146,69.854,0,45,0L45,0z"/>
	</g>
	<g>
		<rect x="44.75" y="0.002" fill="#44658B" width="0.5" height="89.998"/>
		
			<rect x="0.001" y="44.751" transform="matrix(0.5878 0.809 -0.809 0.5878 54.9559 -17.8558)" fill="#44658B" width="89.998" height="0.5"/>
		
			<rect x="-0.002" y="44.751" transform="matrix(0.9511 0.309 -0.309 0.9511 16.1061 -11.7024)" fill="#44658B" width="90.006" height="0.499"/>
		
			<rect x="44.751" y="0.001" transform="matrix(0.3092 0.951 -0.951 0.3092 73.8839 -11.7077)" fill="#44658B" width="0.499" height="90.001"/>
		
			<rect x="44.747" y="0" transform="matrix(0.8097 0.5869 -0.5869 0.8097 34.9732 -17.8425)" fill="#44658B" width="0.498" height="89.998"/>
	</g>
</g>
<g>
	<g>
		<g>
			<g>
				<path fill="#81B1CA" d="M45.001,45.002v45.001c-9.919,0-18.367-2.751-26.391-8.596L45.001,45.002z"/>
			</g>
		</g>
		<g>
			<g>
				<path fill="#6185A6" d="M45.001,45.002l26.39,36.405c-8.023,5.845-16.471,8.596-26.39,8.596V45.002z"/>
			</g>
		</g>
		<g>
			<g>
				<path fill="#81B1CA" d="M45.001,45.002l42.7,13.905c-3.064,9.452-8.286,16.655-16.312,22.5L45.001,45.002z"/>
			</g>
		</g>
		<g>
			<g>
				<path fill="#6185A6" d="M45.001,45.002l42.7-13.906c3.066,9.455,3.066,18.358,0,27.812L45.001,45.002z"/>
			</g>
		</g>
		<g>
			<g>
				<path fill="#81B1CA" d="M45.001,45.002l26.39-36.405c8.024,5.843,13.246,13.046,16.312,22.499L45.001,45.002z"/>
			</g>
		</g>
		<g>
			<g>
				<path fill="#6185A6" d="M45.001,45.002V0.003c9.919,0,18.366,2.751,26.39,8.594L45.001,45.002z"/>
			</g>
		</g>
	</g>
</g>
</svg>
