<?xml version="1.0" encoding="utf-8"?>
<!-- Generator: Adobe Illustrator 15.0.2, SVG Export Plug-In . SVG Version: 6.00 Build 0)  -->
<!DOCTYPE svg PUBLIC "-//W3C//DTD SVG 1.1//EN" "http://www.w3.org/Graphics/SVG/1.1/DTD/svg11.dtd">
<svg version="1.1" id="Layer_1" xmlns="http://www.w3.org/2000/svg" xmlns:xlink="http://www.w3.org/1999/xlink" x="0px" y="0px"
	 width="90px" height="90px" viewBox="0 0 90 90" enable-background="new 0 0 90 90" xml:space="preserve">
<g>
	<g>
		<g>
			<g>
				<path fill="#F4EAAC" d="M45,44.999L18.608,8.594C26.633,2.751,35.082,0,45,0V44.999z"/>
			</g>
		</g>
		<g>
			<g>
				<path fill="#E1CC6C" d="M45,44.999L2.3,31.093c3.064-9.454,8.285-16.657,16.309-22.499L45,44.999z"/>
			</g>
		</g>
		<g>
			<g>
				<path fill="#F4EAAC" d="M45,44.999L2.3,58.904c-3.066-9.453-3.066-18.356,0-27.812L45,44.999z"/>
			</g>
		</g>
		<g>
			<g>
				<path fill="#E1CC6C" d="M45,44.999L18.608,81.404C10.585,75.561,5.364,68.357,2.3,58.904L45,44.999z"/>
			</g>
		</g>
		<g>
			<g>
				<path fill="#F4EAAC" d="M45,44.999V90c-9.919,0-18.366-2.751-26.392-8.596L45,44.999z"/>
			</g>
		</g>
		<g>
			<g>
				<path fill="#E1CC6C" d="M45,44.999L71.39,81.404C63.366,87.249,54.92,90,45,90V44.999z"/>
			</g>
		</g>
		<g>
			<g>
				<path fill="#F4EAAC" d="M45,44.999l42.701,13.905c-3.065,9.453-8.286,16.656-16.312,22.5L45,44.999z"/>
			</g>
		</g>
		<g>
			<g>
				<path fill="#E1CC6C" d="M45,44.999l42.701-13.906c3.065,9.455,3.065,18.358,0,27.812L45,44.999z"/>
			</g>
		</g>
		<g>
			<g>
				<path fill="#F4EAAC" d="M45,44.999L71.39,8.594c8.025,5.842,13.246,13.045,16.312,22.499L45,44.999z"/>
			</g>
		</g>
		<g>
			<g>
				<path fill="#E1CC6C" d="M45,44.999V0C54.92,0,63.367,2.751,71.39,8.594L45,44.999z"/>
			</g>
		</g>
	</g>
</g>
</svg>
