<?xml version="1.0" encoding="utf-8"?>
<!-- Generator: Adobe Illustrator 15.0.2, SVG Export Plug-In . SVG Version: 6.00 Build 0)  -->
<!DOCTYPE svg PUBLIC "-//W3C//DTD SVG 1.1//EN" "http://www.w3.org/Graphics/SVG/1.1/DTD/svg11.dtd">
<svg version="1.1" id="Layer_1" xmlns="http://www.w3.org/2000/svg" xmlns:xlink="http://www.w3.org/1999/xlink" x="0px" y="0px"
	 width="1600px" height="900px" viewBox="0 0 1600 900" enable-background="new 0 0 1600 900" xml:space="preserve">
<rect fill="#3F9583" width="1600" height="900"/>
<g>
	<g>
		<g>
			<rect fill="#4AA191" width="54" height="900"/>
			<rect x="96.625" fill="#4AA191" width="53.999" height="900"/>
			<rect x="193.248" fill="#4AA191" width="54.002" height="900"/>
			<rect x="289.874" fill="#4AA191" width="54.001" height="900"/>
			<rect x="386.5" fill="#4AA191" width="53.997" height="900"/>
			<rect x="483.123" fill="#4AA191" width="54.002" height="900"/>
			<rect x="579.748" fill="#4AA191" width="54.004" height="900"/>
			<rect x="676.376" fill="#4AA191" width="54" height="900"/>
			<rect x="869.627" fill="#4AA191" width="53.999" height="900"/>
			<rect x="773.003" fill="#4AA191" width="53.997" height="900"/>
			<rect x="966.253" fill="#4AA191" width="53.997" height="900"/>
			<rect x="1062.877" fill="#4AA191" width="53.999" height="900"/>
			<rect x="1159.502" fill="#4AA191" width="53.998" height="900"/>
			<rect x="1256.127" fill="#4AA191" width="53.998" height="900"/>
			<rect x="1352.75" fill="#4AA191" width="54" height="900"/>
			<rect x="1449.376" fill="#4AA191" width="54" height="900"/>
			<rect x="1546.002" fill="#4AA191" width="53.998" height="900"/>
		</g>
	</g>
</g>
<rect y="684" fill="#69C4BA" width="1600" height="216"/>
<rect fill="#69C4BA" width="216" height="900"/>
<rect x="200" y="684" fill="#5FB8AC" width="1400" height="16"/>
<g>
	<rect x="402.273" y="536" fill="#69C4BA" width="883.453" height="174"/>
	<polygon fill="#5FB8AC" points="418.273,523 1269.727,523 1285.727,536 402.273,536 	"/>
</g>
<rect x="200" fill="#5FB8AC" width="16" height="700"/>
</svg>
