<?xml version="1.0" encoding="utf-8"?>
<!-- Generator: Adobe Illustrator 15.0.2, SVG Export Plug-In . SVG Version: 6.00 Build 0)  -->
<!DOCTYPE svg PUBLIC "-//W3C//DTD SVG 1.1//EN" "http://www.w3.org/Graphics/SVG/1.1/DTD/svg11.dtd">
<svg version="1.1" id="Layer_1" xmlns="http://www.w3.org/2000/svg" xmlns:xlink="http://www.w3.org/1999/xlink" x="0px" y="0px"
	 width="364px" height="364px" viewBox="0 0 364 364" enable-background="new 0 0 364 364" xml:space="preserve">
<g id="Layer_1_1_">
	<g>
		<path fill="#687221" d="M182,1c24.436,0,48.139,4.786,70.453,14.224c21.553,9.116,40.91,22.167,57.533,38.79
			s29.674,35.98,38.789,57.534C358.215,133.861,363,157.564,363,182c0,24.436-4.785,48.141-14.225,70.454
			c-9.115,21.553-22.166,40.91-38.789,57.532c-16.623,16.623-35.98,29.674-57.533,38.789C230.139,358.215,206.436,363,182,363
			c-24.436,0-48.139-4.785-70.453-14.225c-21.554-9.115-40.911-22.166-57.534-38.789c-16.623-16.623-29.674-35.979-38.79-57.532
			C5.785,230.141,1,206.436,1,182c0-24.436,4.786-48.139,14.224-70.453c9.116-21.553,22.167-40.911,38.79-57.534
			c16.623-16.623,35.98-29.674,57.534-38.79C133.861,5.785,157.564,1,182,1 M182,0C81.484,0,0,81.484,0,182
			c0,100.518,81.484,182,182,182c100.516,0,182-81.482,182-182C364,81.484,282.516,0,182,0L182,0z"/>
	</g>
	<rect x="181.5" fill="#687221" width="1" height="364"/>
	
		<rect x="0.008" y="181.5" transform="matrix(0.5878 0.809 -0.809 0.5878 222.2618 -72.2236)" fill="#687221" width="363.997" height="1.001"/>
	
		<rect x="-0.006" y="181.496" transform="matrix(0.9511 0.309 -0.309 0.9511 65.1413 -47.3323)" fill="#687221" width="364.026" height="1"/>
	
		<rect x="181.499" y="-0.003" transform="matrix(0.3086 0.9512 -0.9512 0.3086 298.9514 -47.2813)" fill="#687221" width="1" height="364.006"/>
	
		<rect x="181.49" y="-0.009" transform="matrix(0.8084 0.5887 -0.5887 0.8084 142.0183 -72.2575)" fill="#687221" width="1" height="364.013"/>
</g>
<g>
	<g>
		<g>
			<g>
				<path fill="#AAB036" d="M181.609,181.2L75.103,327.795c-32.386-23.529-53.455-52.529-65.826-90.602L181.609,181.2z"/>
			</g>
		</g>
		<g>
			<g>
				<path fill="#C4C63A" d="M181.609,181.2v181.202c-40.03,0-74.123-11.078-106.507-34.607L181.609,181.2z"/>
			</g>
		</g>
		<g>
			<g>
				<path fill="#AAB036" d="M181.609,181.2l106.507,146.595c-32.386,23.529-66.478,34.607-106.507,34.607V181.2z"/>
			</g>
		</g>
		<g>
			<g>
				<path fill="#C4C63A" d="M181.609,181.2l172.333,55.993c-12.371,38.072-33.44,67.07-65.824,90.602L181.609,181.2z"/>
			</g>
		</g>
		<g>
			<g>
				<path fill="#AAB036" d="M181.609,181.2l172.333-55.994c12.369,38.07,12.369,73.917,0,111.987L181.609,181.2z"/>
			</g>
		</g>
		<g>
			<g>
				<path fill="#C4C63A" d="M181.609,181.2L288.116,34.607c32.384,23.528,53.454,52.529,65.825,90.6L181.609,181.2z"/>
			</g>
		</g>
		<g>
			<g>
				<path fill="#AAB036" d="M181.609,181.2V0c40.03,0,74.122,11.077,106.507,34.607L181.609,181.2z"/>
			</g>
		</g>
	</g>
	<g>
		<g>
			<path fill="#C4C63A" d="M181.609,181.2L9.277,237.195c-12.37-38.072-12.37-73.918,0-111.989L181.609,181.2z"/>
		</g>
	</g>
	<g>
		<g>
			<path fill="#AAB036" d="M181.609,181.2L9.276,125.206c12.37-38.069,33.441-67.07,65.826-90.6L181.609,181.2z"/>
		</g>
	</g>
</g>
</svg>
