<?xml version="1.0" encoding="utf-8"?>
<!-- Generator: Adobe Illustrator 15.0.2, SVG Export Plug-In . SVG Version: 6.00 Build 0)  -->
<!DOCTYPE svg PUBLIC "-//W3C//DTD SVG 1.1//EN" "http://www.w3.org/Graphics/SVG/1.1/DTD/svg11.dtd">
<svg version="1.1" id="Layer_1" xmlns="http://www.w3.org/2000/svg" xmlns:xlink="http://www.w3.org/1999/xlink" x="0px" y="0px"
	 width="364px" height="364px" viewBox="0 0 364 364" enable-background="new 0 0 364 364" xml:space="preserve">
<g id="Layer_1_1_">
	<g>
		<path fill="#971B00" d="M182,1c24.436,0,48.139,4.786,70.453,14.224c21.553,9.116,40.91,22.167,57.533,38.79
			s29.674,35.98,38.79,57.534C358.215,133.861,363,157.564,363,182c0,24.436-4.785,48.141-14.224,70.454
			c-9.116,21.553-22.167,40.91-38.79,57.532c-16.623,16.623-35.98,29.674-57.533,38.789C230.139,358.215,206.436,363,182,363
			c-24.436,0-48.139-4.785-70.453-14.225c-21.554-9.115-40.911-22.166-57.534-38.789c-16.623-16.622-29.674-35.979-38.79-57.532
			C5.785,230.141,1,206.436,1,182c0-24.436,4.786-48.139,14.224-70.453c9.116-21.553,22.167-40.911,38.79-57.534
			c16.623-16.623,35.98-29.674,57.534-38.79C133.861,5.785,157.564,1,182,1 M182,0C81.484,0,0,81.484,0,182
			c0,100.518,81.484,182,182,182c100.516,0,182-81.482,182-182C364,81.484,282.516,0,182,0L182,0z"/>
	</g>
	<line fill="none" stroke="#971B00" stroke-miterlimit="10" x1="182" y1="0" x2="182" y2="364"/>
	<line fill="none" stroke="#971B00" stroke-miterlimit="10" x1="75.023" y1="34.758" x2="288.977" y2="329.241"/>
	<line fill="none" stroke="#971B00" stroke-miterlimit="10" x1="8.907" y1="125.758" x2="355.092" y2="238.241"/>
	<line fill="none" stroke="#971B00" stroke-miterlimit="10" x1="8.907" y1="238.24" x2="355.092" y2="125.759"/>
	<line fill="none" stroke="#971B00" stroke-miterlimit="10" x1="75.022" y1="329.24" x2="288.977" y2="34.759"/>
</g>
<g id="Layer_2">
	<g>
		<g>
			<g>
				<g>
					<path fill="#C22D00" d="M182,182l106.736,147.242C256.282,352.875,222.115,364,182,364V182z"/>
				</g>
			</g>
			<g>
				<g>
					<path fill="#DE723A" d="M182,182l172.703,56.242c-12.397,38.238-33.514,67.367-65.967,91L182,182z"/>
				</g>
			</g>
			<g>
				<g>
					<path fill="#C22D00" d="M182,182l172.703-56.241c12.396,38.238,12.396,74.243,0,112.483L182,182z"/>
				</g>
			</g>
			<g>
				<g>
					<path fill="#DE723A" d="M182,182L288.736,34.759c32.453,23.633,53.568,52.762,65.967,91L182,182z"/>
				</g>
			</g>
			<g>
				<g>
					<path fill="#C22D00" d="M182,182V0c40.115,0,74.282,11.125,106.736,34.759L182,182z"/>
				</g>
			</g>
		</g>
	</g>
</g>
</svg>
