<?xml version="1.0" encoding="utf-8"?>
<!-- Generator: Adobe Illustrator 15.0.2, SVG Export Plug-In . SVG Version: 6.00 Build 0)  -->
<!DOCTYPE svg PUBLIC "-//W3C//DTD SVG 1.1//EN" "http://www.w3.org/Graphics/SVG/1.1/DTD/svg11.dtd">
<svg version="1.1" id="Layer_1" xmlns="http://www.w3.org/2000/svg" xmlns:xlink="http://www.w3.org/1999/xlink" x="0px" y="0px"
	 width="56px" height="56px" viewBox="0 0 56 56" enable-background="new 0 0 56 56" xml:space="preserve">
<g>
	<circle opacity="0.5" fill="#52A08F" enable-background="new    " cx="28" cy="28" r="28"/>
	<g>
		<path fill="#3C8271" d="M38.6,41.553c-0.631,0-1.228-0.375-1.482-0.992c-1.439-3.511-4.919-5.69-9.085-5.69
			c-4.23,0-7.875,2.281-8.859,5.546c-0.256,0.85-1.15,1.323-1.994,1.07c-0.847-0.253-1.324-1.149-1.07-1.992
			c1.413-4.68,6.203-7.82,11.923-7.82c5.49,0,10.106,2.944,12.048,7.679c0.334,0.816-0.057,1.75-0.875,2.084
			C39.006,41.516,38.801,41.553,38.6,41.553z"/>
		<ellipse fill="#3C8271" cx="39.721" cy="23.806" rx="3.026" ry="4.194"/>
		<ellipse fill="#3C8271" cx="16.278" cy="23.806" rx="3.027" ry="4.194"/>
	</g>
</g>
</svg>
