<?xml version="1.0" encoding="utf-8"?>
<!-- Generator: Adobe Illustrator 15.0.2, SVG Export Plug-In . SVG Version: 6.00 Build 0)  -->
<!DOCTYPE svg PUBLIC "-//W3C//DTD SVG 1.1//EN" "http://www.w3.org/Graphics/SVG/1.1/DTD/svg11.dtd">
<svg version="1.1" id="Layer_1" xmlns="http://www.w3.org/2000/svg" xmlns:xlink="http://www.w3.org/1999/xlink" x="0px" y="0px"
	 width="90px" height="90px" viewBox="0 0 90 90" enable-background="new 0 0 90 90" xml:space="preserve">
<g>
	<g>
		<circle fill="#93D5CD" cx="45" cy="45" r="45"/>
		<path fill="#971B00" d="M45,0.5c24.537,0,44.5,19.963,44.5,44.5S69.537,89.499,45,89.499C20.462,89.499,0.5,69.537,0.5,45
			S20.462,0.5,45,0.5 M45,0C20.146,0,0,20.146,0,45c0,24.853,20.146,44.999,45,44.999S90,69.853,90,45C90,20.146,69.854,0,45,0L45,0
			z"/>
	</g>
	<g>
		<rect x="44.75" y="0.002" fill="#971B00" width="0.5" height="89.998"/>
		
			<rect x="0" y="44.751" transform="matrix(0.5878 0.809 -0.809 0.5878 54.9556 -17.8559)" fill="#971B00" width="89.999" height="0.5"/>
		
			<rect x="0" y="44.751" transform="matrix(0.9511 0.309 -0.309 0.9511 16.1085 -11.7033)" fill="#971B00" width="90" height="0.5"/>
		
			<rect x="44.751" y="0.001" transform="matrix(0.3092 0.951 -0.951 0.3092 73.8835 -11.7076)" fill="#971B00" width="0.499" height="90"/>
		
			<rect x="44.75" y="0.001" transform="matrix(0.8097 0.5868 -0.5868 0.8097 34.9667 -17.8434)" fill="#971B00" width="0.499" height="89.999"/>
	</g>
</g>
<g>
	<g>
		<g>
			<g>
				<path fill="#C22D00" d="M45,44.999l42.7-13.906c3.065,9.455,3.065,18.358,0,27.812L45,44.999z"/>
			</g>
		</g>
		<g>
			<g>
				<path fill="#DE723A" d="M45,44.999L71.389,8.594c8.025,5.842,13.246,13.045,16.312,22.499L45,44.999z"/>
			</g>
		</g>
		<g>
			<g>
				<path fill="#C22D00" d="M45,44.999V0c9.919,0,18.366,2.751,26.389,8.594L45,44.999z"/>
			</g>
		</g>
	</g>
</g>
</svg>
