<?xml version="1.0" encoding="utf-8"?>
<!-- Generator: Adobe Illustrator 15.0.2, SVG Export Plug-In . SVG Version: 6.00 Build 0)  -->
<!DOCTYPE svg PUBLIC "-//W3C//DTD SVG 1.1//EN" "http://www.w3.org/Graphics/SVG/1.1/DTD/svg11.dtd">
<svg version="1.1" id="Layer_1" xmlns="http://www.w3.org/2000/svg" xmlns:xlink="http://www.w3.org/1999/xlink" x="0px" y="0px"
	 width="70px" height="70px" viewBox="0 0 70 70" enable-background="new 0 0 70 70" xml:space="preserve">
<g>
	<g>
		<circle fill="#6FAFA2" cx="35" cy="35" r="35"/>
	</g>
	<g>
		<g>
			<rect x="20.878" y="43.85" fill="#AC2400" width="0.4" height="7.676"/>
			
				<rect x="17.24" y="47.487" transform="matrix(-0.5 -0.866 0.866 -0.5 -9.6815 89.7854)" fill="#AC2400" width="7.676" height="0.4"/>
			
				<rect x="17.24" y="47.487" transform="matrix(-0.866 -0.5001 0.5001 -0.866 15.483 99.5246)" fill="#AC2400" width="7.676" height="0.4"/>
			<rect x="17.24" y="47.487" fill="#AC2400" width="7.676" height="0.4"/>
			
				<rect x="17.24" y="47.487" transform="matrix(-0.866 0.5 -0.5 -0.866 63.175 78.4485)" fill="#AC2400" width="7.676" height="0.401"/>
			
				<rect x="17.24" y="47.487" transform="matrix(-0.5 0.866 -0.866 -0.5 72.9158 53.2765)" fill="#AC2400" width="7.677" height="0.401"/>
			<path fill="#6C0900" d="M21.078,42.688c-2.762,0-5,2.239-5,5c0,2.762,2.238,4.998,5,4.998s5-2.236,5-4.998
				C26.078,44.927,23.84,42.688,21.078,42.688z M21.078,51.244c-1.965,0-3.557-1.593-3.557-3.557c0-1.967,1.592-3.558,3.557-3.558
				c1.963,0,3.555,1.591,3.555,3.558C24.633,49.651,23.041,51.244,21.078,51.244z"/>
			<circle fill="#6C0900" cx="21.078" cy="47.688" r="0.785"/>
		</g>
		<g>
			<rect x="47.986" y="43.85" fill="#AC2400" width="0.4" height="7.678"/>
			
				<rect x="44.348" y="47.488" transform="matrix(-0.5 -0.866 0.866 -0.5 30.9791 113.2631)" fill="#AC2400" width="7.678" height="0.4"/>
			
				<rect x="44.348" y="47.488" transform="matrix(-0.866 -0.5 0.5 -0.866 66.0743 113.0808)" fill="#AC2400" width="7.678" height="0.4"/>
			<rect x="44.348" y="47.488" fill="#AC2400" width="7.678" height="0.4"/>
			
				<rect x="44.348" y="47.488" transform="matrix(-0.866 0.5 -0.5 -0.866 113.7612 64.8959)" fill="#AC2400" width="7.678" height="0.4"/>
			
				<rect x="44.348" y="47.488" transform="matrix(-0.5 0.866 -0.866 -0.5 113.5789 29.8007)" fill="#AC2400" width="7.678" height="0.4"/>
			<path fill="#6C0900" d="M48.188,42.687c-2.762,0-5,2.239-5,5.001s2.238,4.999,5,4.999s5-2.237,5-4.999
				S50.949,42.687,48.188,42.687z M48.188,51.244c-1.965,0-3.557-1.592-3.557-3.557c0-1.967,1.592-3.559,3.557-3.559
				c1.963,0,3.557,1.592,3.557,3.559C51.744,49.652,50.15,51.244,48.188,51.244z"/>
			<circle fill="#6C0900" cx="48.187" cy="47.688" r="0.786"/>
		</g>
		<g>
			<g>
				<rect x="13.101" y="25.438" fill="#FCF1D4" width="44.136" height="19.185"/>
			</g>
			<g>
				<rect x="31.409" y="34.818" fill="#9D5A54" width="7.519" height="9.805"/>
			</g>
			<g>
				<rect x="16.293" y="36.634" fill="#A3C1D3" width="8" height="4.452"/>
			</g>
			<g>
				<rect x="45.375" y="36.634" fill="#7EB8AC" width="8" height="4.452"/>
			</g>
			<g>
				<rect x="19.613" y="29.881" fill="#C22D00" width="8" height="4.452"/>
			</g>
			<g>
				<rect x="42.623" y="29.881" fill="#C7A53A" width="8" height="4.452"/>
			</g>
			<g>
				<rect x="31.168" y="28.166" fill="#BBBF75" width="8" height="4.453"/>
			</g>
			<rect x="13.101" y="25.438" fill="#6C0900" width="44.136" height="0.55"/>
			<path fill="#AC2400" d="M11.484,25.442c0,0,0-4.409,1.507-4.409c7.979,0,34.488,0,44.054,0c1.472,0,1.472,4.409,1.472,4.409
				H11.484z"/>
		</g>
	</g>
</g>
</svg>
