<?xml version="1.0" encoding="utf-8"?>
<!-- Generator: Adobe Illustrator 15.0.2, SVG Export Plug-In . SVG Version: 6.00 Build 0)  -->
<!DOCTYPE svg PUBLIC "-//W3C//DTD SVG 1.1//EN" "http://www.w3.org/Graphics/SVG/1.1/DTD/svg11.dtd">
<svg version="1.1" id="Layer_1" xmlns="http://www.w3.org/2000/svg" xmlns:xlink="http://www.w3.org/1999/xlink" x="0px" y="0px"
	 width="114px" height="108px" viewBox="0 0 114 108" enable-background="new 0 0 114 108" xml:space="preserve">
<g>
	<path fill="#971B00" d="M99.943,13.931C96.518,3.403,86.529,1.696,73.688,10.232S57.136,40.679,57.136,40.679
		s-1.142-13.089-4.851-23.333c-3.71-10.243-18.29-27.602-30.955-9.391c-6.334,9.108,0.088,20.08,10.026,27.66
		C41.933,43.683,56.28,48.077,56.28,48.077s17.448-3.934,28.823-10.243C97.389,31.018,103.367,24.459,99.943,13.931z M82.535,32.427
		c-9.988,5.406-25.97,12.235-25.97,12.235S27.244,29.825,26.886,14.785C26.535,0,38.753,3.849,43.724,13.647
		c5.993,11.814,9.988,27.885,9.988,27.885l6.14,0.284c0,0,10.127-13.225,16.689-22.479c7.83-11.037,13.197-9.723,19.406-5.691
		C100.641,16.695,92.523,27.021,82.535,32.427z"/>
	<g>
		<polygon fill="#D59180" points="71.287,108 71.287,30.801 0,39.396 0,108 		"/>
		<polygon fill="#B43A19" points="114,39.396 71.287,30.801 71.287,108 114,108 		"/>
	</g>
	<polygon fill="#971B00" points="98.289,108 89.895,108 89.895,34.545 98.289,36.235 	"/>
	<polygon fill="#971B00" points="29.798,108 38.193,108 38.193,34.792 29.798,35.804 	"/>
</g>
</svg>
