<?xml version="1.0" encoding="utf-8"?>
<!-- Generator: Adobe Illustrator 15.0.2, SVG Export Plug-In . SVG Version: 6.00 Build 0)  -->
<!DOCTYPE svg PUBLIC "-//W3C//DTD SVG 1.1//EN" "http://www.w3.org/Graphics/SVG/1.1/DTD/svg11.dtd">
<svg version="1.1" id="Layer_1" xmlns="http://www.w3.org/2000/svg" xmlns:xlink="http://www.w3.org/1999/xlink" x="0px" y="0px"
	 width="114px" height="108px" viewBox="0 0 114 108" enable-background="new 0 0 114 108" xml:space="preserve">
<g>
	<path fill="#CD4917" d="M99.924,13.969C96.5,3.412,86.514,1.7,73.674,10.259C60.834,18.818,57.125,40.79,57.125,40.79
		s-1.141-13.125-4.851-23.396C48.565,7.122,33.988-10.284,21.326,7.977c-6.334,9.133,0.088,20.135,10.023,27.735
		c10.574,8.089,24.92,12.495,24.92,12.495s17.444-3.944,28.817-10.271C97.369,31.103,103.348,24.526,99.924,13.969z M82.52,32.515
		c-9.986,5.421-25.964,12.269-25.964,12.269S27.238,29.906,26.881,14.825C26.529,0,38.746,3.859,43.715,13.684
		c5.992,11.847,9.986,27.961,9.986,27.961l6.139,0.285c0,0,10.125-13.261,16.688-22.54c7.828-11.067,13.195-9.749,19.402-5.707
		C100.622,16.74,92.505,27.094,82.52,32.515z"/>
	<g>
		<polygon fill="#D6CCB8" points="71.273,108.295 71.273,30.884 0,39.503 0,108.295 		"/>
		<polygon fill="#B49D8B" points="113.979,39.503 71.273,30.884 71.273,108.295 113.979,108.295 		"/>
	</g>
	<polygon fill="#C83B0C" points="98.27,108.295 89.876,108.295 89.876,34.639 98.27,36.333 	"/>
	<polygon fill="#CD4917" points="29.792,108.295 38.186,108.295 38.186,34.886 29.792,35.901 	"/>
</g>
</svg>
