<?xml version="1.0" encoding="utf-8"?>
<!-- Generator: Adobe Illustrator 15.0.2, SVG Export Plug-In . SVG Version: 6.00 Build 0)  -->
<!DOCTYPE svg PUBLIC "-//W3C//DTD SVG 1.1//EN" "http://www.w3.org/Graphics/SVG/1.1/DTD/svg11.dtd">
<svg version="1.1" id="Layer_1" xmlns="http://www.w3.org/2000/svg" xmlns:xlink="http://www.w3.org/1999/xlink" x="0px" y="0px"
	 width="1600px" height="900px" viewBox="0 0 1600 900" enable-background="new 0 0 1600 900" xml:space="preserve">
<rect fill="#69C4BA" width="1600" height="900"/>
<polygon fill="#6DB3A9" points="1403.95,768.555 196.134,768.555 117.004,877.12 1483.079,877.12 "/>
<g>
	<g>
		<g>
			<rect x="294.608" y="776.559" fill="#AC2400" width="121.511" height="9.826"/>
			
				<rect x="294.605" y="776.533" transform="matrix(-0.866 0.5 -0.5 -0.866 1053.8369 1280.5132)" fill="#AC2400" width="121.508" height="9.828"/>
			
				<rect x="294.591" y="776.561" transform="matrix(-0.5 0.866 -0.866 -0.5 1209.7902 864.4857)" fill="#AC2400" width="121.506" height="9.824"/>
			<rect x="350.45" y="720.718" fill="#AC2400" width="9.826" height="121.511"/>
			
				<rect x="294.588" y="776.569" transform="matrix(0.5 0.866 -0.866 0.5 854.4413 82.9951)" fill="#AC2400" width="121.51" height="9.824"/>
			
				<rect x="294.626" y="776.578" transform="matrix(0.866 0.5 -0.5 0.866 438.3708 -72.9886)" fill="#AC2400" width="121.508" height="9.828"/>
			<path fill="#7A574A" d="M355.363,702.334c-43.706,0-79.136,35.432-79.136,79.139c0,43.705,35.43,79.137,79.136,79.137
				c43.709,0,79.139-35.432,79.139-79.137C434.502,737.766,399.072,702.334,355.363,702.334z M355.363,837.779
				c-31.097,0-56.307-25.21-56.307-56.308s25.21-56.309,56.307-56.309c31.099,0,56.308,25.211,56.308,56.309
				S386.462,837.779,355.363,837.779z"/>
			<circle fill="#971B00" cx="355.365" cy="781.473" r="12.435"/>
		</g>
		<g>
			<rect x="1178.514" y="776.559" fill="#AC2400" width="121.512" height="9.826"/>
			
				<rect x="1178.484" y="776.545" transform="matrix(-0.866 0.5 -0.5 -0.866 2703.1775 838.5902)" fill="#AC2400" width="121.506" height="9.829"/>
			
				<rect x="1178.487" y="776.579" transform="matrix(-0.5 0.866 -0.866 -0.5 2535.6604 99.0382)" fill="#AC2400" width="121.507" height="9.824"/>
			<rect x="1234.355" y="720.718" fill="#AC2400" width="9.826" height="121.511"/>
			
				<rect x="1178.494" y="776.591" transform="matrix(0.5 0.866 -0.866 0.5 1296.3994 -682.4701)" fill="#AC2400" width="121.51" height="9.824"/>
			
				<rect x="1178.542" y="776.581" transform="matrix(0.866 0.5 -0.5 0.866 556.7936 -514.9537)" fill="#AC2400" width="121.506" height="9.827"/>
			<path fill="#7A574A" d="M1239.271,702.334c-43.709,0-79.139,35.432-79.139,79.139c0,43.705,35.43,79.137,79.139,79.137
				c43.705,0,79.138-35.432,79.138-79.137C1318.408,737.766,1282.977,702.334,1239.271,702.334z M1239.268,837.779
				c-31.096,0-56.305-25.21-56.305-56.308s25.209-56.309,56.305-56.309c31.1,0,56.311,25.211,56.311,56.309
				C1295.577,812.569,1270.366,837.779,1239.268,837.779z"/>
			<circle fill="#971B00" cx="1239.27" cy="781.473" r="12.435"/>
		</g>
	</g>
	<g>
		<g>
			<rect x="118.76" y="169.157" fill="#EAE1C8" width="1356.439" height="586.033"/>
			<g>
				<rect x="118.762" y="332.319" fill="#FCF0CF" width="1356.438" height="36.216"/>
				<rect x="118.762" y="292.278" fill="#FCF0CF" width="1356.438" height="36.218"/>
				<rect x="118.762" y="252.239" fill="#FCF0CF" width="1356.438" height="36.216"/>
				<rect x="118.762" y="212.197" fill="#FCF0CF" width="1356.438" height="36.218"/>
				<rect x="118.762" y="172.157" fill="#FCF0CF" width="1356.438" height="36.217"/>
				<rect x="118.762" y="372.358" fill="#FCF0CF" width="1356.438" height="36.219"/>
				<rect x="118.762" y="412.401" fill="#FCF0CF" width="1356.438" height="36.218"/>
				<rect x="118.762" y="452.442" fill="#FCF0CF" width="1356.438" height="36.22"/>
				<rect x="118.762" y="492.486" fill="#FCF0CF" width="1356.438" height="36.218"/>
				<rect x="118.762" y="532.527" fill="#FCF0CF" width="1356.438" height="36.218"/>
				<rect x="118.762" y="572.568" fill="#FCF0CF" width="1356.438" height="36.217"/>
				<rect x="118.762" y="612.608" fill="#FCF0CF" width="1356.438" height="36.218"/>
				<rect x="118.762" y="652.648" fill="#FCF0CF" width="1356.438" height="36.219"/>
				<rect x="118.762" y="692.69" fill="#FCF0CF" width="1356.438" height="36.219"/>
			</g>
		</g>
		<g>
			<polygon fill="#7A574A" points="1481.343,172.156 1475.199,173.891 1475.199,172.156 118.761,172.156 118.762,173.891 
				112.616,172.156 112.616,145.588 1481.343,145.588 			"/>
			<polygon fill="#7A574A" points="1481.343,758.188 112.616,758.188 112.616,731.141 118.762,728.908 118.759,731.141 
				1475.2,731.141 1475.199,728.908 1481.343,731.141 			"/>
		</g>
		<g>
			<path fill="#971B00" d="M78.092,148.431c0,0,19.226-89.075,63.696-89.075c235.426,0,1028.656,0,1310.946,0
				c43.488,0,62.715,89.075,62.715,89.075l-5.832,5H86.283L78.092,148.431z"/>
			<polygon fill="#6C0900" points="78.092,148.431 1515.449,148.431 1509.617,153.431 86.283,153.431 			"/>
		</g>
	</g>
	<g>
		<circle fill="#D8D3C1" cx="137.43" cy="271.046" r="4.471"/>
		<circle fill="#D8D3C1" cx="137.43" cy="310.948" r="4.471"/>
		<circle fill="#D8D3C1" cx="137.43" cy="191.24" r="4.471"/>
		<circle fill="#D8D3C1" cx="137.43" cy="231.143" r="4.471"/>
		<circle fill="#D8D3C1" cx="137.43" cy="350.852" r="4.471"/>
		<circle fill="#D8D3C1" cx="137.43" cy="390.755" r="4.471"/>
		<circle fill="#D8D3C1" cx="137.43" cy="430.658" r="4.471"/>
		<circle fill="#D8D3C1" cx="137.43" cy="470.561" r="4.471"/>
		<circle fill="#D8D3C1" cx="137.43" cy="510.465" r="4.471"/>
		<circle fill="#D8D3C1" cx="137.43" cy="550.367" r="4.471"/>
		<circle fill="#D8D3C1" cx="137.43" cy="590.27" r="4.471"/>
		<circle fill="#D8D3C1" cx="137.43" cy="630.173" r="4.471"/>
		<circle fill="#D8D3C1" cx="137.43" cy="670.077" r="4.471"/>
		<circle fill="#D8D3C1" cx="137.43" cy="709.979" r="4.471"/>
	</g>
	<g>
		<circle fill="#D8D3C1" cx="1455.529" cy="271.046" r="4.471"/>
		<circle fill="#D8D3C1" cx="1455.529" cy="310.948" r="4.471"/>
		<circle fill="#D8D3C1" cx="1455.529" cy="191.24" r="4.471"/>
		<circle fill="#D8D3C1" cx="1455.529" cy="231.143" r="4.471"/>
		<circle fill="#D8D3C1" cx="1455.529" cy="350.852" r="4.471"/>
		<circle fill="#D8D3C1" cx="1455.529" cy="390.755" r="4.471"/>
		<circle fill="#D8D3C1" cx="1455.529" cy="430.658" r="4.471"/>
		<circle fill="#D8D3C1" cx="1455.529" cy="470.561" r="4.471"/>
		<circle fill="#D8D3C1" cx="1455.529" cy="510.465" r="4.471"/>
		<circle fill="#D8D3C1" cx="1455.529" cy="550.367" r="4.471"/>
		<circle fill="#D8D3C1" cx="1455.529" cy="590.27" r="4.471"/>
		<circle fill="#D8D3C1" cx="1455.529" cy="630.173" r="4.471"/>
		<circle fill="#D8D3C1" cx="1455.529" cy="670.077" r="4.471"/>
		<circle fill="#D8D3C1" cx="1455.529" cy="709.979" r="4.471"/>
	</g>
	<g>
		<g>
			<circle fill="#D8D3C1" cx="918.663" cy="470.561" r="4.471"/>
			<circle fill="#D8D3C1" cx="918.663" cy="510.465" r="4.471"/>
			<circle fill="#D8D3C1" cx="918.663" cy="550.367" r="4.471"/>
			<circle fill="#D8D3C1" cx="918.663" cy="590.27" r="4.471"/>
			<circle fill="#D8D3C1" cx="918.663" cy="630.173" r="4.471"/>
			<circle fill="#D8D3C1" cx="918.663" cy="670.077" r="4.471"/>
			<circle fill="#D8D3C1" cx="918.663" cy="709.979" r="4.471"/>
		</g>
		<g>
			<circle fill="#D8D3C1" cx="674.102" cy="470.561" r="4.471"/>
			<circle fill="#D8D3C1" cx="674.102" cy="510.465" r="4.471"/>
			<circle fill="#D8D3C1" cx="674.102" cy="550.367" r="4.471"/>
			<circle fill="#D8D3C1" cx="674.102" cy="590.27" r="4.471"/>
			<circle fill="#D8D3C1" cx="674.102" cy="630.173" r="4.471"/>
			<circle fill="#D8D3C1" cx="674.102" cy="670.077" r="4.471"/>
			<circle fill="#D8D3C1" cx="674.102" cy="709.979" r="4.471"/>
		</g>
	</g>
</g>
<g>
	<g>
		<polygon fill="#7A574A" points="731.845,831.012 723.868,831.012 728.868,744.666 736.845,744.666 		"/>
		<polygon fill="#7A574A" points="870.2,831.012 862.224,831.012 857.224,744.666 865.2,744.666 		"/>
		<polygon fill="#7A574A" points="922.858,846.011 668.879,846.011 668.013,836.877 923.722,836.877 		"/>
		<polygon fill="#A1856E" points="912.429,813.392 678.778,813.392 668.013,836.877 923.722,836.877 		"/>
		<polygon fill="#927765" points="916.969,824.845 912.429,813.392 678.778,813.392 674.238,824.845 		"/>
		<polygon fill="#7A574A" points="916.236,808.947 674.972,808.947 674.104,799.814 917.106,799.814 		"/>
		<polygon fill="#A1856E" points="905.589,777.121 685.62,777.121 674.104,799.814 917.106,799.814 		"/>
		<polygon fill="#927765" points="910.565,786.729 905.589,777.121 685.62,777.121 680.643,786.729 		"/>
		<polygon fill="#A1856E" points="898.374,739.449 692.834,739.449 680.558,763.988 910.65,763.988 		"/>
		<polygon fill="#7A574A" points="909.781,773.121 681.429,773.121 680.558,763.988 910.65,763.988 		"/>
	</g>
</g>
<path fill="#811200" d="M1215.043,95.696c0,13.852-58.695,15.75-58.695,0c0-19.41,0-47.848,0-67.636
	c0-14.673,58.695-14.673,58.695,0C1215.043,47.848,1215.043,76.288,1215.043,95.696z"/>
</svg>
