<?xml version="1.0" encoding="utf-8"?>
<!-- Generator: Adobe Illustrator 15.0.2, SVG Export Plug-In . SVG Version: 6.00 Build 0)  -->
<!DOCTYPE svg PUBLIC "-//W3C//DTD SVG 1.1//EN" "http://www.w3.org/Graphics/SVG/1.1/DTD/svg11.dtd">
<svg version="1.1" id="Layer_1" xmlns="http://www.w3.org/2000/svg" xmlns:xlink="http://www.w3.org/1999/xlink" x="0px" y="0px"
	 width="1200px" height="1200px" viewBox="0 0 1200 1200" enable-background="new 0 0 1200 1200" xml:space="preserve">
<g>
	<g>
		<g>
			<path fill="#69C4BA" d="M601.19,601.828c-0.308,0.421-0.767,0.658-1.248,0.706c0.022,0.003,0.042,0.011,0.065,0.014
				c0.966,0.104,1.833-0.594,1.936-1.56c0.102-0.931-0.397-1.783-1.183-2.186C601.695,599.528,601.893,600.867,601.19,601.828z"/>
			<path fill="#69C4BA" d="M598.762,600.997c0.065-0.617,0.621-1.064,1.238-0.997c-0.502-0.367-1.205-0.257-1.572,0.245
				c-0.46,0.627-0.321,1.507,0.307,1.966c0.363,0.266,0.793,0.364,1.208,0.323C599.206,602.418,598.678,601.748,598.762,600.997z"/>
			<path fill="#69C4BA" d="M600.015,604.787c-1.885-0.204-3.249-1.897-3.046-3.783c0.164-1.509,1.518-2.601,3.027-2.437
				c0.277,0.03,0.533,0.115,0.766,0.234c-0.018-0.014-0.031-0.031-0.05-0.044c-1.224-0.896-2.943-0.629-3.84,0.596
				c-1.118,1.53-0.785,3.68,0.748,4.8c1.441,1.055,3.322,1.075,4.76,0.202C601.671,604.709,600.86,604.878,600.015,604.787z"/>
			<path fill="#69C4BA" d="M603.619,603.222c-0.345,0.471-0.769,0.85-1.239,1.134c1.267-0.63,2.199-1.865,2.362-3.376
				c0.101-0.93-0.044-1.829-0.379-2.636C604.898,599.939,604.688,601.759,603.619,603.222z"/>
			<path fill="#69C4BA" d="M956.215,805.379c151.694-207.512,106.447-498.706-101.063-650.401
				C686.575,31.745,474.526,10.931,294.201,83.673c-92.781,55.069-169.445,134.432-221.23,229.326
				C192.392,156.429,388.395,64.322,598.455,87.022c255.559,27.618,440.341,257.176,412.726,512.734
				c-22.095,204.447-205.741,352.274-410.188,330.18c-163.557-17.675-281.818-164.593-264.144-328.15
				c14.139-130.846,131.673-225.455,262.519-211.315c104.678,11.312,180.364,105.339,169.053,210.017
				c-9.05,83.741-84.271,144.291-168.012,135.241c-66.993-7.238-115.433-67.416-108.192-134.41
				c5.79-53.594,53.932-92.346,107.527-86.555c42.874,4.633,73.876,43.146,69.243,86.022c-3.708,34.302-34.518,59.102-68.819,55.396
				c-27.439-2.966-47.28-27.614-44.314-55.056c2.371-21.95,22.091-37.824,44.043-35.452c17.562,1.898,30.258,17.672,28.363,35.235
				c-1.52,14.049-14.139,24.208-28.188,22.689c-11.24-1.214-19.367-11.311-18.151-22.55c0.972-8.991,9.049-15.494,18.04-14.521
				c7.192,0.776,12.394,7.238,11.615,14.433c-0.621,5.754-5.79,9.915-11.546,9.292c-4.602-0.498-7.93-4.632-7.434-9.237
				c0.398-3.682,3.707-6.345,7.39-5.947c2.016,0.217,3.649,1.526,4.378,3.275c-0.342-1.015-0.979-1.941-1.909-2.621
				c-2.992-2.188-7.188-1.534-9.375,1.455c-2.732,3.739-1.917,8.984,1.821,11.718c4.673,3.415,11.229,2.397,14.645-2.275
				c4.272-5.841,2.996-14.039-2.844-18.308c-7.302-5.338-17.546-3.745-22.884,3.555c-6.671,9.126-4.681,21.934,4.444,28.605
				c11.409,8.34,27.417,5.853,35.756-5.557c10.425-14.259,7.315-34.27-6.944-44.695c-17.825-13.03-42.839-9.143-55.87,8.683
				c-16.288,22.281-11.429,53.547,10.852,69.835c27.852,20.361,66.936,14.288,87.296-13.564
				c25.451-34.816,17.858-83.669-16.955-109.119c-43.518-31.813-104.587-22.323-136.4,21.194
				c-39.766,54.398-27.905,130.734,26.493,170.5c67.998,49.708,163.416,34.88,213.124-33.117
				c62.135-84.997,43.601-204.27-41.395-266.405c-106.247-77.668-255.339-54.501-333.007,51.745
				c-97.084,132.807-68.126,319.171,64.681,416.258C601.902,1007.587,834.857,971.389,956.215,805.379z"/>
		</g>
		<g>
			<path fill="#971B00" d="M599.427,601.484c-0.252-0.569,0.004-1.233,0.573-1.484c-0.617-0.067-1.173,0.38-1.238,0.998
				c-0.086,0.772,0.474,1.466,1.247,1.55c0.448,0.049,0.87-0.081,1.209-0.324C600.522,602.491,599.73,602.175,599.427,601.484z"/>
			<path fill="#971B00" d="M601.946,600.988c-0.057,0.518-0.336,0.954-0.729,1.236c0.021-0.008,0.042-0.012,0.062-0.021
				c0.889-0.394,1.291-1.431,0.898-2.32c-0.378-0.856-1.235-1.344-2.116-1.302C601.234,598.745,602.073,599.804,601.946,600.988z"/>
			<path fill="#971B00" d="M604.742,600.98c-0.062,0.582-0.24,1.122-0.505,1.605c0.784-1.18,0.976-2.717,0.36-4.109
				c-0.373-0.844-0.937-1.544-1.618-2.072C604.225,597.519,604.936,599.193,604.742,600.98z"/>
			<path fill="#971B00" d="M602.405,604.138c-1.735,0.768-3.761-0.018-4.53-1.753c-0.613-1.388,0.015-3.01,1.404-3.623
				c0.255-0.113,0.52-0.167,0.783-0.18c-0.023-0.003-0.043-0.012-0.067-0.014c-1.509-0.164-2.863,0.928-3.027,2.438
				c-0.204,1.885,1.161,3.579,3.046,3.782c1.774,0.191,3.413-0.729,4.223-2.201C603.799,603.244,603.183,603.795,602.405,604.138z"
				/>
			<path fill="#971B00" d="M0.172,614.215c25.356-195.009,148.981-372.432,342.001-457.694
				c235.128-103.863,509.934,2.549,613.797,237.677c83.09,188.104-2.04,407.949-190.145,491.039
				c-150.48,66.472-326.356-1.631-392.828-152.113c-53.177-120.386,1.305-261.088,121.691-314.266
				c96.309-42.541,208.87,1.045,251.411,97.353c34.034,77.048-0.836,167.096-77.884,201.13
				c-61.636,27.227-133.676-0.669-160.901-62.307c-21.782-49.31,0.534-106.942,49.844-128.723
				c39.448-17.424,85.552,0.427,102.978,39.876c13.941,31.559-0.34,68.442-31.9,82.383c-25.247,11.152-54.753-0.273-65.904-25.521
				c-8.923-20.197,0.217-43.804,20.415-52.726c16.159-7.137,35.042,0.176,42.179,16.333c5.71,12.927-0.138,28.034-13.065,33.745
				c-10.341,4.567-22.426-0.112-26.994-10.455c-3.655-8.271,0.09-17.941,8.362-21.594c6.619-2.925,14.354,0.071,17.277,6.689
				c2.338,5.295-0.057,11.483-5.352,13.822c-4.236,1.871-9.188-0.047-11.056-4.281c-1.497-3.389,0.036-7.349,3.424-8.847
				c1.868-0.824,3.951-0.499,5.458,0.668c-0.808-0.722-1.836-1.211-2.994-1.336c-3.682-0.398-6.993,2.265-7.389,5.947
				c-0.498,4.605,2.832,8.739,7.433,9.237c5.756,0.622,10.925-3.538,11.548-9.292c0.776-7.195-4.425-13.657-11.617-14.433
				c-8.991-0.972-17.068,5.53-18.041,14.521c-1.214,11.239,6.913,21.336,18.152,22.55c14.05,1.519,26.669-8.641,28.188-22.688
				c1.896-17.562-10.801-33.339-28.363-35.236c-21.952-2.372-41.672,13.501-44.043,35.453c-2.966,27.44,16.875,52.089,44.314,55.055
				c34.302,3.706,65.111-21.094,68.819-55.396c4.633-42.875-26.369-81.389-69.243-86.023
				c-53.595-5.79-101.738,32.961-107.529,86.556c-7.239,66.994,41.201,127.172,108.194,134.41
				c83.74,9.05,158.962-51.5,168.012-135.241c11.312-104.676-64.375-198.705-169.053-210.017
				c-130.846-14.141-248.38,80.469-262.519,211.315c-17.674,163.558,100.587,310.476,264.144,328.15
				c204.446,22.094,388.093-125.733,410.188-330.18c27.615-255.558-157.167-485.116-412.726-512.733
				C390.829,64.585,196.764,152.604,76.972,305.792C27.967,392.724,0,493.094,0,600C0,604.752,0.062,609.489,0.172,614.215z"/>
		</g>
		<g>
			<path fill="#BABF3B" d="M599.354,603.128c-1.224-0.897-1.493-2.615-0.596-3.841c0.164-0.225,0.365-0.404,0.585-0.546
				c-0.021,0.008-0.042,0.011-0.063,0.021c-1.39,0.613-2.017,2.234-1.402,3.623c0.764,1.735,2.792,2.521,4.527,1.753
				c1.633-0.721,2.591-2.335,2.558-4.015c-0.051,0.789-0.31,1.573-0.811,2.259C603.033,603.913,600.884,604.246,599.354,603.128z"/>
			<path fill="#BABF3B" d="M602.179,599.883c0.208,0.471,0.188,0.98-0.005,1.417c0.011-0.013,0.027-0.02,0.037-0.033
				c0.572-0.784,0.4-1.884-0.383-2.457c-0.756-0.553-1.743-0.547-2.485-0.068C600.439,598.295,601.696,598.792,602.179,599.883z"/>
			<path fill="#BABF3B" d="M600.246,601.572c-0.504-0.367-0.613-1.07-0.246-1.572c-0.569,0.251-0.825,0.915-0.573,1.484
				c0.313,0.71,1.144,1.031,1.854,0.718c0.418-0.185,0.724-0.515,0.894-0.902C601.707,601.892,600.857,602.021,600.246,601.572z"/>
			<path fill="#BABF3B" d="M604.598,598.477c0.237,0.536,0.354,1.095,0.365,1.646c0.09-1.415-0.514-2.843-1.742-3.741
				c-0.667-0.487-1.41-0.781-2.17-0.924C602.575,595.859,603.911,596.922,604.598,598.477z"/>
			<path fill="#BABF3B" d="M765.826,885.236c188.104-83.09,273.234-302.935,190.145-491.038
				C852.109,159.07,577.303,52.659,342.175,156.521C151.378,240.8,27.39,413.74,0.038,606.018
				c1.104,112.316,33.066,217.243,87.818,306.715c-75.792-181.667-57.525-397.375,67.12-567.883
				c151.696-207.512,442.891-252.76,650.405-101.063c166.009,121.357,202.206,354.312,80.85,520.323
				c-97.088,132.807-283.451,161.765-416.258,64.681c-106.246-77.669-129.414-226.763-51.745-333.007
				c62.136-84.997,181.408-103.529,266.406-41.395c67.998,49.707,82.823,145.126,33.115,213.125
				c-39.766,54.396-116.101,66.259-170.498,26.492c-43.519-31.814-53.008-92.882-21.194-136.4
				c25.45-34.815,74.303-42.406,109.119-16.956c27.853,20.36,33.926,59.444,13.565,87.296
				c-16.288,22.282-47.557,27.14-69.838,10.852c-17.824-13.03-21.712-38.044-8.682-55.87c10.425-14.26,30.437-17.369,44.696-6.944
				c11.407,8.34,13.895,24.348,5.555,35.758c-6.671,9.125-19.477,11.115-28.604,4.442c-7.3-5.336-8.893-15.582-3.554-22.883
				c4.269-5.84,12.466-7.114,18.306-2.845c4.673,3.417,5.693,9.974,2.275,14.646c-2.733,3.739-7.977,4.554-11.716,1.821
				c-2.989-2.187-3.641-6.383-1.456-9.374c1.262-1.726,3.359-2.46,5.329-2.089c-1.135-0.298-2.373-0.232-3.529,0.279
				c-3.388,1.498-4.922,5.458-3.426,8.846c1.871,4.235,6.822,6.153,11.058,4.282c5.295-2.339,7.689-8.527,5.352-13.822
				c-2.923-6.618-10.658-9.614-17.276-6.689c-8.272,3.653-12.017,13.322-8.362,21.595c4.568,10.342,16.655,15.021,26.994,10.454
				c12.928-5.711,18.778-20.818,13.065-33.745c-7.135-16.157-26.02-23.47-42.179-16.333c-20.197,8.922-29.338,32.527-20.415,52.727
				c11.151,25.246,40.657,36.672,65.904,25.52c31.561-13.94,45.842-50.824,31.9-82.383c-17.426-39.449-63.528-57.3-102.978-39.876
				c-49.31,21.782-71.625,79.413-49.844,128.723c27.226,61.638,99.266,89.533,160.901,62.307
				c77.048-34.034,111.918-124.083,77.886-201.129c-42.543-96.309-155.104-139.895-251.413-97.354
				c-120.385,53.178-174.869,193.879-121.691,314.266C439.47,883.605,615.346,951.708,765.826,885.236z"/>
		</g>
	</g>
	<g>
		<g>
			<path fill="#81B1CA" d="M600.997,601.239c-0.617-0.065-1.062-0.622-0.997-1.239c-0.367,0.502-0.258,1.205,0.246,1.572
				c0.625,0.459,1.505,0.321,1.965-0.306c0.265-0.362,0.363-0.791,0.323-1.204C602.414,600.796,601.747,601.32,600.997,601.239z"/>
			<path fill="#81B1CA" d="M601.828,598.81c0.422,0.309,0.659,0.771,0.706,1.253c0.004-0.024,0.012-0.046,0.015-0.07
				c0.104-0.966-0.595-1.833-1.56-1.938c-0.93-0.101-1.783,0.398-2.187,1.183C599.528,598.304,600.866,598.106,601.828,598.81z"/>
			<path fill="#81B1CA" d="M313.001,1127.03C156.43,1007.609,64.323,811.605,87.023,601.544
				C114.64,345.986,344.198,161.203,599.756,188.82c204.447,22.094,352.274,205.739,330.18,410.186
				c-17.674,163.558-164.593,281.818-328.15,264.145c-130.845-14.14-225.455-131.674-211.315-262.52
				c11.312-104.677,105.339-180.364,210.016-169.052c83.742,9.05,144.29,84.271,135.24,168.013
				c-7.237,66.992-67.416,115.433-134.409,108.192c-53.594-5.791-92.346-53.934-86.554-107.528
				c4.633-42.875,43.146-73.876,86.022-69.243c34.302,3.707,59.102,34.517,55.395,68.818c-2.966,27.439-27.613,47.281-55.055,44.315
				c-21.952-2.372-37.825-22.091-35.453-44.043c1.899-17.562,17.673-30.259,35.235-28.362c14.048,1.518,24.208,14.138,22.688,28.188
				c-1.211,11.24-11.309,19.367-22.55,18.152c-8.991-0.973-15.492-9.049-14.52-18.041c0.775-7.193,7.237-12.394,14.434-11.616
				c5.754,0.623,9.913,5.791,9.293,11.546c-0.5,4.604-4.636,7.931-9.239,7.436c-3.682-0.4-6.343-3.708-5.947-7.392
				c0.217-2.013,1.523-3.645,3.269-4.375c-1.013,0.341-1.936,0.979-2.616,1.908c-2.185,2.991-1.532,7.188,1.457,9.373
				c3.739,2.733,8.982,1.919,11.718-1.82c3.416-4.672,2.396-11.23-2.277-14.646c-5.84-4.27-14.038-2.996-18.306,2.845
				c-5.337,7.301-3.746,17.547,3.555,22.884c9.125,6.672,21.933,4.682,28.604-4.444c8.34-11.408,5.853-27.417-5.555-35.755
				c-14.26-10.425-34.271-7.317-44.694,6.943c-13.031,17.826-9.145,42.84,8.68,55.87c22.283,16.288,53.549,11.43,69.837-10.852
				c20.36-27.852,14.287-66.936-13.565-87.296c-34.813-25.45-83.67-17.859-109.119,16.956
				c-31.813,43.518-22.324,104.585,21.194,136.4c54.397,39.766,130.732,27.904,170.5-26.492
				c49.708-67.999,34.881-163.417-33.117-213.125c-84.998-62.134-204.27-43.602-266.406,41.395
				c-77.667,106.248-54.501,255.337,51.745,333.006c132.807,97.085,319.17,68.127,416.258-64.68
				c121.356-166.01,85.159-398.965-80.85-520.323C597.867,92.09,306.673,137.338,154.977,344.849
				C31.744,513.425,10.931,725.475,83.674,905.8C138.743,998.581,218.107,1075.246,313.001,1127.03z"/>
			<path fill="#81B1CA" d="M604.786,599.985c-0.203,1.886-1.897,3.25-3.782,3.045c-1.51-0.162-2.599-1.517-2.438-3.026
				c0.03-0.277,0.115-0.533,0.235-0.767c-0.014,0.018-0.031,0.031-0.044,0.049c-0.895,1.226-0.628,2.943,0.596,3.84
				c1.53,1.119,3.68,0.786,4.799-0.746c1.055-1.441,1.076-3.319,0.206-4.758C604.71,598.332,604.878,599.141,604.786,599.985z"/>
			<path fill="#81B1CA" d="M603.221,596.381c0.473,0.346,0.853,0.771,1.138,1.242c-0.63-1.269-1.865-2.204-3.378-2.367
				c-0.933-0.101-1.835,0.045-2.643,0.383C599.934,595.101,601.756,595.311,603.221,596.381z"/>
		</g>
		<g>
			<path fill="#CD4917" d="M156.521,857.825c-103.863-235.127,2.549-509.934,237.678-613.797
				c188.104-83.089,407.949,2.042,491.037,190.144c66.472,150.482-1.631,326.358-152.112,392.83
				c-120.387,53.177-261.088-1.306-314.266-121.69c-42.541-96.31,1.045-208.87,97.354-251.412
				c77.048-34.034,167.097,0.834,201.13,77.882c27.227,61.637-0.668,133.676-62.306,160.902
				c-49.311,21.782-106.942-0.534-128.724-49.845c-17.424-39.447,0.427-85.552,39.876-102.977
				c31.559-13.942,68.444,0.341,82.383,31.9c11.152,25.247-0.273,54.753-25.521,65.905c-20.197,8.922-43.803-0.218-52.726-20.415
				c-7.136-16.159,0.177-35.042,16.334-42.18c12.927-5.709,28.035,0.141,33.745,13.068c4.568,10.339-0.113,22.426-10.454,26.994
				c-8.273,3.653-17.942-0.091-21.595-8.363c-2.924-6.618,0.071-14.354,6.691-17.277c5.294-2.338,11.48,0.058,13.819,5.352
				c1.872,4.235-0.044,9.187-4.28,11.058c-3.389,1.495-7.35-0.037-8.847-3.426c-0.864-1.959-0.45-4.146,0.862-5.667
				c-0.83,0.834-1.394,1.942-1.529,3.202c-0.396,3.684,2.265,6.993,5.947,7.392c4.604,0.495,8.739-2.833,9.239-7.436
				c0.619-5.755-3.539-10.925-9.293-11.546c-7.196-0.778-13.658,4.423-14.434,11.616c-0.972,8.992,5.529,17.068,14.52,18.041
				c11.241,1.215,21.339-6.913,22.55-18.152c1.52-14.049-8.641-26.67-22.687-28.188c-17.564-1.897-33.338,10.799-35.237,28.362
				c-2.372,21.953,13.501,41.671,35.453,44.043c27.441,2.966,52.089-16.876,55.055-44.315c3.707-34.301-21.093-65.111-55.395-68.818
				c-42.875-4.633-81.391,26.367-86.025,69.243c-5.79,53.595,32.962,101.737,86.556,107.529
				c66.993,7.239,127.172-41.201,134.409-108.193c9.05-83.742-51.498-158.963-135.24-168.013
				c-104.677-11.312-198.705,64.375-210.016,169.052c-14.141,130.846,80.469,248.38,211.315,262.52
				c163.558,17.674,310.477-100.587,328.15-264.145C952.03,394.56,804.203,210.914,599.756,188.82
				C344.198,161.203,114.64,345.986,87.023,601.544c-22.438,207.628,65.582,401.692,218.77,521.484
				C392.724,1172.033,493.095,1200,600,1200c4.754,0,9.493-0.062,14.22-0.172C419.208,1174.474,241.784,1050.849,156.521,857.825z"
				/>
			<path fill="#CD4917" d="M601.484,600.574c-0.567,0.252-1.232-0.005-1.484-0.574c-0.065,0.617,0.38,1.174,0.997,1.239
				c0.774,0.084,1.466-0.475,1.552-1.248c0.049-0.449-0.082-0.873-0.327-1.212C602.493,599.476,602.176,600.269,601.484,600.574z"/>
			<path fill="#CD4917" d="M600.989,598.055c0.516,0.056,0.951,0.334,1.233,0.724c-0.008-0.02-0.011-0.04-0.02-0.06
				c-0.393-0.889-1.43-1.29-2.32-0.899c-0.853,0.378-1.341,1.233-1.301,2.113C598.746,598.765,599.806,597.927,600.989,598.055z"/>
			<path fill="#CD4917" d="M604.14,597.593c0.765,1.737-0.021,3.764-1.755,4.531c-1.388,0.612-3.01-0.015-3.623-1.404
				c-0.113-0.256-0.168-0.522-0.181-0.787c-0.003,0.024-0.012,0.046-0.015,0.071c-0.162,1.509,0.928,2.864,2.439,3.026
				c1.883,0.205,3.579-1.159,3.78-3.045c0.192-1.774-0.727-3.412-2.199-4.223C603.245,596.201,603.796,596.817,604.14,597.593z"/>
			<path fill="#CD4917" d="M600.98,595.256c0.582,0.063,1.124,0.241,1.606,0.507c-1.18-0.784-2.717-0.976-4.109-0.361
				c-0.752,0.332-1.376,0.826-1.88,1.41C597.708,595.696,599.294,595.074,600.98,595.256z"/>
		</g>
		<g>
			<path fill="#EBDB8A" d="M601.572,599.754c-0.365,0.503-1.071,0.612-1.572,0.246c0.251,0.569,0.917,0.825,1.484,0.574
				c0.711-0.314,1.032-1.145,0.718-1.856c-0.185-0.419-0.516-0.725-0.905-0.895C601.892,598.29,602.022,599.141,601.572,599.754z"/>
			<path fill="#EBDB8A" d="M599.883,597.821c0.47-0.207,0.979-0.187,1.414,0.003c-0.013-0.01-0.019-0.025-0.031-0.034
				c-0.782-0.572-1.882-0.402-2.457,0.383c-0.552,0.754-0.547,1.74-0.07,2.482C598.295,599.559,598.795,598.303,599.883,597.821z"/>
			<path fill="#EBDB8A" d="M598.478,595.402c0.536-0.237,1.093-0.353,1.645-0.364c-1.414-0.089-2.842,0.514-3.74,1.741
				c-0.488,0.667-0.781,1.412-0.925,2.173C595.858,597.425,596.922,596.088,598.478,595.402z"/>
			<path fill="#EBDB8A" d="M344.848,1045.023C137.337,893.328,92.089,602.133,243.786,394.62
				c121.357-166.008,354.313-202.205,520.322-80.85c132.808,97.086,161.767,283.451,64.682,416.257
				c-77.668,106.246-226.761,129.412-333.008,51.745c-84.996-62.135-103.529-181.407-41.394-266.405
				c49.707-67.997,145.125-82.824,213.125-33.116c54.396,39.766,66.26,116.102,26.492,170.5
				c-31.812,43.518-92.881,53.007-136.4,21.192c-34.815-25.449-42.404-74.302-16.956-109.118
				c20.36-27.853,59.445-33.926,87.295-13.564c22.283,16.287,27.141,47.555,10.853,69.836c-13.03,17.824-38.044,21.712-55.868,8.681
				c-14.263-10.425-17.37-30.436-6.945-44.694c8.34-11.409,24.348-13.897,35.757-5.557c9.125,6.671,11.115,19.479,4.443,28.605
				c-5.338,7.3-15.583,8.893-22.884,3.555c-5.841-4.27-7.114-12.466-2.846-18.308c3.417-4.673,9.974-5.691,14.648-2.274
				c3.736,2.732,4.551,7.977,1.819,11.715c-2.188,2.99-6.383,3.644-9.373,1.457c-1.726-1.262-2.461-3.356-2.09-5.325
				c-0.297,1.133-0.231,2.371,0.279,3.526c1.497,3.389,5.458,4.921,8.846,3.426c4.236-1.871,6.152-6.823,4.28-11.058
				c-2.339-5.294-8.526-7.69-13.82-5.352c-6.619,2.923-9.614,10.659-6.69,17.277c3.654,8.272,13.322,12.017,21.595,8.363
				c10.341-4.568,15.022-16.656,10.454-26.994c-5.71-12.927-20.818-18.778-33.745-13.068c-16.157,7.136-23.47,26.021-16.334,42.18
				c8.923,20.197,32.529,29.337,52.728,20.415c25.245-11.151,36.671-40.658,25.519-65.905c-13.939-31.559-50.824-45.842-82.383-31.9
				c-39.448,17.425-57.3,63.529-39.876,102.977c21.782,49.311,79.414,71.627,128.724,49.846
				c61.638-27.228,89.532-99.267,62.306-160.903c-34.033-77.048-124.082-111.916-201.129-77.883
				c-96.31,42.542-139.896,155.103-97.355,251.413c53.178,120.384,193.879,174.867,314.266,121.69
				c150.481-66.472,218.584-242.347,152.112-392.83C802.147,246.07,582.301,160.939,394.199,244.028
				C159.071,347.891,52.659,622.697,156.521,857.824c84.279,190.797,257.219,314.785,449.497,342.138
				c112.316-1.104,217.246-33.067,306.719-87.819C731.068,1187.935,515.358,1169.669,344.848,1045.023z"/>
			<path fill="#EBDB8A" d="M603.128,600.646c-0.896,1.225-2.615,1.492-3.841,0.597c-0.225-0.165-0.405-0.367-0.547-0.588
				c0.009,0.021,0.012,0.043,0.021,0.065c0.613,1.389,2.236,2.016,3.624,1.403c1.734-0.766,2.52-2.792,1.755-4.53
				c-0.722-1.632-2.338-2.59-4.018-2.556c0.789,0.049,1.574,0.308,2.261,0.809C603.913,596.967,604.244,599.115,603.128,600.646z"/>
		</g>
	</g>
	<g>
		<g>
			<path fill="#69C4BA" d="M599.985,595.213c1.885,0.205,3.25,1.897,3.046,3.784c-0.164,1.508-1.518,2.6-3.027,2.436
				c-0.278-0.03-0.536-0.115-0.771-0.236c0.019,0.015,0.033,0.032,0.053,0.047c1.226,0.896,2.945,0.628,3.842-0.598
				c1.119-1.53,0.785-3.679-0.747-4.799c-1.441-1.053-3.318-1.075-4.756-0.206C598.333,595.29,599.142,595.122,599.985,595.213z"/>
			<path fill="#69C4BA" d="M598.81,598.173c0.308-0.421,0.768-0.659,1.249-0.707c-0.022-0.003-0.042-0.011-0.064-0.014
				c-0.965-0.105-1.834,0.593-1.939,1.56c-0.1,0.929,0.396,1.779,1.179,2.184C598.302,600.469,598.106,599.132,598.81,598.173z"/>
			<path fill="#69C4BA" d="M601.238,599.003c-0.064,0.617-0.621,1.063-1.238,0.997c0.502,0.366,1.207,0.257,1.572-0.246
				c0.46-0.626,0.321-1.506-0.307-1.965c-0.362-0.265-0.792-0.364-1.208-0.323C600.794,597.582,601.32,598.252,601.238,599.003z"/>
			<path fill="#69C4BA" d="M596.381,596.779c0.346-0.473,0.771-0.853,1.244-1.138c-1.27,0.63-2.205,1.866-2.367,3.38
				c-0.101,0.931,0.044,1.831,0.38,2.638C595.101,600.062,595.312,598.241,596.381,596.779z"/>
			<path fill="#69C4BA" d="M1127.031,886.998c-119.421,156.57-315.426,248.679-525.486,225.979
				c-255.559-27.617-440.342-257.175-412.726-512.733c22.095-204.446,205.74-352.274,410.188-330.179
				c163.558,17.673,281.817,164.591,264.143,328.147C849.011,729.06,731.477,823.668,600.63,809.528
				C495.953,798.216,420.268,704.19,431.578,599.513c9.051-83.741,84.271-144.292,168.013-135.242
				c66.995,7.239,115.435,67.417,108.194,134.411c-5.792,53.594-53.936,92.347-107.529,86.555
				c-42.875-4.633-73.876-43.146-69.242-86.023c3.706-34.3,34.517-59.101,68.816-55.395c27.441,2.965,47.281,27.614,44.316,55.056
				c-2.372,21.95-22.09,37.823-44.043,35.451c-17.563-1.898-30.26-17.672-28.361-35.235c1.519-14.049,14.137-24.208,28.187-22.688
				c11.241,1.214,19.367,11.31,18.152,22.55c-0.973,8.991-9.048,15.494-18.041,14.521c-7.192-0.776-12.395-7.239-11.617-14.433
				c0.623-5.754,5.791-9.915,11.547-9.293c4.604,0.499,7.931,4.633,7.434,9.237c-0.397,3.683-3.707,6.346-7.39,5.948
				c-2.016-0.217-3.648-1.524-4.376-3.272c0.341,1.015,0.979,1.939,1.91,2.619c2.99,2.188,7.186,1.534,9.373-1.456
				c2.731-3.739,1.917-8.983-1.819-11.716c-4.675-3.417-11.231-2.398-14.649,2.274c-4.268,5.841-2.995,14.038,2.847,18.308
				c7.301,5.338,17.545,3.745,22.883-3.555c6.672-9.127,4.682-21.934-4.443-28.605c-11.41-8.34-27.418-5.853-35.757,5.556
				c-10.425,14.26-7.317,34.271,6.945,44.695c17.824,13.031,42.838,9.145,55.868-8.681c16.288-22.282,11.429-53.55-10.853-69.836
				c-27.851-20.362-66.934-14.289-87.295,13.564c-25.449,34.815-17.859,83.669,16.956,109.118
				c43.52,31.812,104.588,22.324,136.4-21.192c39.766-54.398,27.904-130.734-26.492-170.5
				c-67.999-49.708-163.417-34.881-213.125,33.116c-62.135,84.996-43.602,204.271,41.394,266.405
				c106.247,77.667,255.338,54.501,333.008-51.744c97.085-132.808,68.126-319.172-64.682-416.258
				c-166.009-121.358-398.965-85.159-520.322,80.85C92.089,602.132,137.337,893.326,344.848,1045.022
				c168.579,123.234,380.633,144.046,560.959,71.3C998.585,1061.253,1075.247,981.89,1127.031,886.998z"/>
		</g>
		<g>
			<path fill="#971B00" d="M597.594,595.861c1.736-0.767,3.762,0.019,4.53,1.754c0.611,1.388-0.015,3.01-1.404,3.623
				c-0.255,0.113-0.521,0.168-0.784,0.18c0.023,0.004,0.044,0.012,0.068,0.015c1.509,0.164,2.863-0.928,3.027-2.436
				c0.204-1.886-1.161-3.579-3.046-3.783c-1.776-0.193-3.414,0.729-4.223,2.202C596.2,596.756,596.817,596.205,597.594,595.861z"/>
			<path fill="#971B00" d="M600.573,598.516c0.254,0.569-0.004,1.232-0.573,1.484c0.617,0.066,1.174-0.381,1.238-0.998
				c0.084-0.772-0.474-1.465-1.247-1.549c-0.446-0.049-0.869,0.081-1.208,0.323C599.48,597.51,600.27,597.825,600.573,598.516z"/>
			<path fill="#971B00" d="M598.054,599.012c0.056-0.519,0.337-0.955,0.73-1.236c-0.021,0.008-0.043,0.012-0.064,0.021
				c-0.89,0.394-1.291,1.431-0.899,2.32c0.378,0.854,1.235,1.343,2.116,1.301C598.766,601.255,597.926,600.196,598.054,599.012z"/>
			<path fill="#971B00" d="M857.825,1043.479c-235.128,103.863-509.934-2.549-613.797-237.679
				c-83.089-188.103,2.04-407.946,190.145-491.037c150.481-66.472,326.357,1.631,392.829,152.114
				c53.176,120.385-1.306,261.087-121.691,314.264c-96.309,42.541-208.869-1.044-251.411-97.353
				c-34.033-77.047,0.835-167.096,77.882-201.13c61.638-27.227,133.676,0.67,160.902,62.308
				c21.783,49.309-0.533,106.941-49.845,128.722c-39.446,17.425-85.551-0.428-102.976-39.876
				c-13.941-31.559,0.342-68.442,31.9-82.382c25.246-11.152,54.753,0.273,65.906,25.52c8.921,20.197-0.219,43.804-20.417,52.726
				c-16.158,7.138-35.042-0.176-42.18-16.333c-5.709-12.927,0.142-28.034,13.067-33.745c10.34-4.567,22.426,0.112,26.996,10.455
				c3.652,8.271-0.093,17.941-8.366,21.595c-6.616,2.925-14.352-0.072-17.274-6.69c-2.339-5.295,0.058-11.482,5.352-13.821
				c4.236-1.871,9.186,0.046,11.057,4.282c1.496,3.388-0.036,7.348-3.424,8.846c-1.956,0.862-4.139,0.451-5.659-0.854
				c0.833,0.825,1.938,1.386,3.194,1.521c3.683,0.398,6.992-2.265,7.39-5.948c0.497-4.604-2.832-8.738-7.434-9.237
				c-5.757-0.621-10.925,3.54-11.547,9.294c-0.778,7.193,4.424,13.656,11.617,14.432c8.993,0.973,17.068-5.53,18.041-14.521
				c1.215-11.24-6.913-21.335-18.152-22.55c-14.05-1.52-26.669,8.64-28.187,22.688c-1.899,17.562,10.798,33.338,28.361,35.235
				c21.954,2.372,41.671-13.5,44.043-35.453c2.965-27.441-16.875-52.089-44.314-55.054c-34.302-3.706-65.112,21.094-68.818,55.396
				c-4.634,42.876,26.367,81.39,69.242,86.023c53.594,5.79,101.737-32.962,107.529-86.556
				c7.24-66.994-41.199-127.171-108.194-134.411c-83.741-9.05-158.962,51.501-168.013,135.242
				c-11.311,104.676,64.375,198.705,169.052,210.015c130.847,14.142,248.381-80.469,262.52-211.316
				c17.675-163.556-100.585-310.474-264.143-328.147c-204.446-22.096-388.094,125.732-410.188,330.179
				c-27.617,255.558,157.167,485.116,412.724,512.733c207.629,22.438,401.696-65.583,521.488-218.773
				C1172.034,807.272,1200,706.903,1200,600c0-4.755-0.062-9.495-0.172-14.224C1174.475,780.789,1050.85,958.217,857.825,1043.479z"
				/>
			<path fill="#971B00" d="M595.257,599.02c0.062-0.581,0.24-1.122,0.505-1.604c-0.783,1.18-0.975,2.716-0.36,4.108
				c0.333,0.756,0.831,1.382,1.418,1.886C595.7,602.3,595.074,600.71,595.257,599.02z"/>
		</g>
		<g>
			<path fill="#BABF3B" d="M599.756,598.428c0.502,0.366,0.611,1.07,0.245,1.572c0.568-0.252,0.824-0.917,0.573-1.484
				c-0.314-0.71-1.144-1.032-1.855-0.718c-0.419,0.185-0.725,0.516-0.896,0.905C598.288,598.108,599.14,597.977,599.756,598.428z"/>
			<path fill="#BABF3B" d="M597.82,600.117c-0.207-0.47-0.188-0.979,0.003-1.414c-0.009,0.012-0.024,0.018-0.033,0.031
				c-0.573,0.784-0.402,1.884,0.382,2.457c0.755,0.553,1.744,0.548,2.486,0.068C599.562,601.705,598.303,601.206,597.82,600.117z"/>
			<path fill="#BABF3B" d="M600.647,596.872c1.223,0.897,1.492,2.615,0.596,3.841c-0.164,0.225-0.365,0.403-0.585,0.546
				c0.021-0.009,0.042-0.012,0.062-0.021c1.39-0.613,2.016-2.235,1.404-3.623c-0.768-1.735-2.794-2.521-4.53-1.754
				c-1.631,0.722-2.59,2.336-2.557,4.015c0.05-0.789,0.309-1.573,0.809-2.258C596.967,596.087,599.116,595.754,600.647,596.872z"/>
			<path fill="#BABF3B" d="M1045.022,855.151c-151.694,207.511-442.89,252.759-650.402,101.063
				c-166.008-121.359-202.207-354.312-80.85-520.323c97.085-132.807,283.451-161.765,416.256-64.681
				c106.246,77.669,129.415,226.761,51.746,333.008c-62.135,84.994-181.408,103.528-266.406,41.394
				c-67.996-49.707-82.824-145.125-33.116-213.124c39.766-54.397,116.102-66.259,170.5-26.492
				c43.519,31.814,53.007,92.88,21.195,136.4c-25.451,34.814-74.305,42.405-109.121,16.955
				c-27.853-20.36-33.923-59.444-13.563-87.295c16.287-22.281,47.554-27.14,69.836-10.852c17.824,13.03,21.712,38.043,8.68,55.869
				c-10.425,14.261-30.435,17.37-44.694,6.945c-11.408-8.341-13.897-24.348-5.556-35.756c6.671-9.126,19.478-11.117,28.605-4.445
				c7.301,5.337,8.892,15.583,3.554,22.884c-4.27,5.841-12.466,7.115-18.307,2.845c-4.672-3.416-5.69-9.973-2.274-14.646
				c2.732-3.739,7.978-4.553,11.716-1.821c2.989,2.186,3.643,6.383,1.457,9.374c-1.262,1.726-3.358,2.46-5.328,2.09
				c1.134,0.298,2.373,0.231,3.529-0.279c3.388-1.498,4.923-5.458,3.424-8.845c-1.871-4.236-6.822-6.154-11.057-4.283
				c-5.295,2.339-7.691,8.527-5.353,13.821c2.924,6.618,10.66,9.615,17.275,6.689c8.273-3.652,12.019-13.323,8.366-21.595
				c-4.57-10.342-16.656-15.021-26.996-10.454c-12.926,5.711-18.776,20.818-13.067,33.745c7.138,16.156,26.021,23.471,42.18,16.333
				c20.198-8.922,29.338-32.527,20.417-52.726c-11.153-25.247-40.66-36.672-65.906-25.52c-31.558,13.939-45.842,50.824-31.9,82.382
				c17.425,39.447,63.53,57.301,102.976,39.876c49.312-21.783,71.628-79.413,49.847-128.722
				c-27.228-61.638-99.266-89.535-160.904-62.308c-77.047,34.034-111.915,124.083-77.882,201.129
				c42.542,96.31,155.103,139.895,251.411,97.354c120.386-53.177,174.869-193.877,121.691-314.264
				C760.53,316.395,584.654,248.292,434.173,314.764C246.068,397.854,160.939,617.698,244.028,805.8
				c103.863,235.13,378.669,341.541,613.797,237.68c190.793-84.277,314.782-257.213,342.137-449.487
				c-1.103-112.32-33.065-217.251-87.819-306.727C1187.936,468.934,1169.67,684.642,1045.022,855.151z"/>
			<path fill="#BABF3B" d="M595.402,601.523c-0.237-0.537-0.354-1.095-0.365-1.647c-0.089,1.415,0.514,2.843,1.742,3.742
				c0.667,0.487,1.41,0.781,2.171,0.925C597.425,604.142,596.088,603.078,595.402,601.523z"/>
		</g>
		<g>
			<path fill="#CD4917" d="M599.012,601.944c-0.519-0.056-0.954-0.335-1.235-0.727c0.008,0.021,0.011,0.041,0.02,0.062
				c0.394,0.891,1.431,1.291,2.32,0.898c0.855-0.378,1.345-1.235,1.302-2.117C601.256,601.232,600.196,602.072,599.012,601.944z"/>
			<path fill="#CD4917" d="M598.517,599.426c0.567-0.253,1.232,0.005,1.484,0.574c0.066-0.619-0.381-1.173-0.999-1.241
				c-0.771-0.083-1.465,0.476-1.549,1.249c-0.049,0.448,0.081,0.87,0.324,1.209C597.508,600.521,597.824,599.73,598.517,599.426z"/>
			<path fill="#CD4917" d="M585.788,0.172c195.008,25.357,372.43,148.981,457.692,342.001
				c103.863,235.129-2.549,509.934-237.68,613.798c-188.102,83.088-407.946-2.041-491.036-190.146
				c-66.473-150.48,1.632-326.356,152.113-392.829c120.385-53.178,261.088,1.305,314.266,121.691
				c42.541,96.309-1.045,208.869-97.354,251.412c-77.046,34.032-167.096-0.836-201.129-77.884
				c-27.227-61.637,0.669-133.676,62.306-160.902c49.309-21.782,106.939,0.534,128.722,49.845
				c17.426,39.447-0.427,85.551-39.875,102.977c-31.558,13.941-68.443-0.341-82.382-31.9c-11.153-25.246,0.273-54.753,25.52-65.905
				c20.197-8.922,43.805,0.218,52.725,20.416c7.14,16.158-0.175,35.042-16.332,42.18c-12.928,5.708-28.035-0.141-33.745-13.068
				c-4.568-10.34,0.112-22.426,10.454-26.994c8.271-3.654,17.942,0.089,21.594,8.362c2.924,6.618-0.071,14.353-6.69,17.277
				c-5.294,2.338-11.482-0.058-13.82-5.353c-1.872-4.236,0.046-9.186,4.281-11.057c3.388-1.498,7.348,0.037,8.847,3.424
				c0.862,1.956,0.451,4.139-0.854,5.658c0.824-0.833,1.386-1.938,1.521-3.193c0.399-3.682-2.265-6.992-5.947-7.391
				c-4.604-0.495-8.739,2.833-9.236,7.437c-0.623,5.755,3.538,10.924,9.292,11.545c7.195,0.778,13.657-4.423,14.434-11.616
				c0.973-8.992-5.529-17.069-14.521-18.04c-11.24-1.215-21.336,6.912-22.55,18.152c-1.519,14.048,8.641,26.668,22.689,28.188
				c17.563,1.896,33.336-10.801,35.234-28.362c2.372-21.954-13.5-41.672-35.451-44.045c-27.441-2.965-52.089,16.876-55.054,44.316
				c-3.708,34.301,21.093,65.111,55.394,68.819c42.877,4.632,81.39-26.369,86.023-69.243c5.792-53.597-32.96-101.737-86.554-107.529
				c-66.994-7.24-127.171,41.2-134.411,108.193c-9.05,83.741,51.501,158.963,135.242,168.013
				c104.677,11.312,198.703-64.375,210.016-169.052c14.141-130.846-80.468-248.381-211.315-262.52
				c-163.557-17.675-310.475,100.585-328.148,264.144c-22.095,204.446,125.732,388.092,330.18,410.188
				c255.558,27.616,485.115-157.167,512.732-412.725c22.438-207.627-65.582-401.692-218.77-521.484C807.275,27.967,706.905,0,600,0
				C595.249,0,590.512,0.062,585.788,0.172z"/>
			<path fill="#CD4917" d="M599.02,604.742c-0.583-0.062-1.124-0.241-1.606-0.507c1.179,0.785,2.716,0.977,4.108,0.361
				c0.757-0.334,1.383-0.831,1.888-1.419C602.3,604.299,600.71,604.926,599.02,604.742z"/>
			<path fill="#CD4917" d="M595.862,602.404c-0.767-1.734,0.018-3.761,1.753-4.529c1.388-0.613,3.01,0.015,3.624,1.404
				c0.112,0.254,0.167,0.519,0.18,0.781c0.003-0.022,0.012-0.042,0.014-0.065c0.164-1.509-0.927-2.864-2.436-3.028
				c-1.886-0.204-3.579,1.161-3.783,3.045c-0.192,1.776,0.728,3.413,2.2,4.223C596.755,603.798,596.205,603.182,595.862,602.404z"/>
		</g>
		<g>
			<path fill="#EBDB8A" d="M598.428,600.244c0.365-0.502,1.07-0.611,1.572-0.244c-0.252-0.57-0.917-0.826-1.484-0.575
				c-0.711,0.314-1.033,1.144-0.718,1.856c0.185,0.42,0.516,0.725,0.905,0.895C598.106,601.712,597.977,600.86,598.428,600.244z"/>
			<path fill="#EBDB8A" d="M600.115,602.177c-0.469,0.208-0.977,0.189-1.413-0.001c0.012,0.01,0.017,0.023,0.029,0.032
				c0.785,0.574,1.883,0.404,2.458-0.381c0.552-0.755,0.547-1.742,0.068-2.484C601.703,600.438,601.205,601.695,600.115,602.177z"/>
			<path fill="#EBDB8A" d="M596.872,599.353c0.896-1.224,2.614-1.492,3.84-0.596c0.225,0.165,0.404,0.366,0.547,0.587
				c-0.009-0.021-0.012-0.042-0.021-0.063c-0.613-1.39-2.235-2.017-3.625-1.404c-1.734,0.766-2.519,2.794-1.753,4.53
				c0.722,1.633,2.336,2.591,4.015,2.557c-0.789-0.05-1.573-0.309-2.258-0.81C596.087,603.032,595.753,600.884,596.872,599.353z"/>
			<path fill="#EBDB8A" d="M601.521,604.597c-0.536,0.237-1.095,0.354-1.646,0.365c1.415,0.089,2.842-0.514,3.742-1.743
				c0.49-0.67,0.784-1.417,0.927-2.182C604.146,602.567,603.08,603.908,601.521,604.597z"/>
			<path fill="#EBDB8A" d="M805.803,955.97c235.126-103.862,341.538-378.667,237.677-613.795
				C959.202,151.381,786.268,27.394,593.993,0.038C481.675,1.14,376.745,33.102,287.271,87.854
				c181.667-75.789,397.373-57.522,567.88,67.123c207.511,151.695,252.758,442.89,101.063,650.402
				c-121.357,166.009-354.315,202.207-520.323,80.85c-132.807-97.087-161.766-283.45-64.682-416.257
				c77.668-106.246,226.762-129.414,333.008-51.745c84.995,62.135,103.527,181.408,41.395,266.404
				c-49.708,67.998-145.126,82.826-213.125,33.116c-54.397-39.766-66.259-116.102-26.492-170.498
				c31.812-43.519,92.881-53.008,136.4-21.195c34.813,25.451,42.404,74.303,16.955,109.12
				c-20.36,27.851-59.444,33.924-87.296,13.563c-22.281-16.287-27.14-47.555-10.852-69.836c13.03-17.825,38.043-21.712,55.87-8.682
				c14.26,10.425,17.369,30.436,6.944,44.696c-8.341,11.408-24.349,13.896-35.757,5.556c-9.126-6.67-11.116-19.479-4.443-28.604
				c5.336-7.302,15.582-8.895,22.884-3.555c5.84,4.269,7.114,12.466,2.844,18.307c-3.415,4.672-9.973,5.69-14.646,2.274
				c-3.739-2.732-4.553-7.979-1.82-11.716c2.187-2.99,6.381-3.643,9.373-1.457c1.723,1.26,2.458,3.351,2.092,5.316
				c0.294-1.131,0.227-2.365-0.282-3.518c-1.497-3.387-5.456-4.921-8.844-3.426c-4.236,1.873-6.153,6.824-4.283,11.059
				c2.339,5.296,8.527,7.69,13.821,5.353c6.619-2.924,9.614-10.659,6.69-17.277c-3.652-8.272-13.324-12.016-21.595-8.363
				c-10.341,4.569-15.021,16.655-10.454,26.995c5.71,12.928,20.818,18.776,33.744,13.068c16.157-7.139,23.472-26.022,16.334-42.18
				c-8.922-20.198-32.528-29.338-52.726-20.416c-25.246,11.151-36.672,40.659-25.519,65.905c13.939,31.559,50.823,45.84,82.381,31.9
				c39.45-17.426,57.303-63.529,39.877-102.977c-21.782-49.311-79.412-71.627-128.723-49.847
				c-61.636,27.227-89.532,99.267-62.305,160.903c34.034,77.048,124.081,111.916,201.127,77.884
				c96.311-42.543,139.896-155.103,97.355-251.412c-53.178-120.387-193.88-174.87-314.266-121.691
				C316.395,439.47,248.291,615.346,314.764,765.826C397.852,953.931,617.698,1039.06,805.803,955.97z"/>
		</g>
	</g>
</g>
<g>
	<path fill="#81B1CA" d="M598.171,601.19c-0.421-0.308-0.659-0.77-0.706-1.251c-0.003,0.023-0.012,0.044-0.014,0.067
		c-0.103,0.967,0.594,1.833,1.56,1.939c0.933,0.101,1.785-0.398,2.188-1.185C600.473,601.695,599.134,601.894,598.171,601.19z"/>
	<path fill="#81B1CA" d="M595.214,600.013c0.204-1.884,1.896-3.248,3.783-3.045c1.507,0.164,2.601,1.519,2.437,3.028
		c-0.029,0.276-0.114,0.532-0.234,0.765c0.014-0.018,0.031-0.031,0.044-0.049c0.896-1.225,0.627-2.942-0.597-3.84
		c-1.53-1.119-3.68-0.785-4.801,0.746c-1.053,1.442-1.074,3.32-0.204,4.758C595.29,601.668,595.122,600.857,595.214,600.013z"/>
	<path fill="#81B1CA" d="M599.003,598.762c0.617,0.064,1.064,0.62,0.997,1.238c0.367-0.503,0.256-1.206-0.244-1.574
		c-0.627-0.458-1.509-0.32-1.967,0.308c-0.265,0.362-0.364,0.791-0.324,1.206C597.583,599.205,598.254,598.679,599.003,598.762z"/>
	<path fill="#81B1CA" d="M887.004,72.972c156.568,119.421,248.674,315.424,225.975,525.483
		c-27.617,255.559-257.177,440.342-512.735,412.726c-204.447-22.094-352.272-205.74-330.179-410.188
		c17.675-163.559,164.591-281.819,328.149-264.144c130.847,14.139,225.456,131.673,211.315,262.519
		c-11.311,104.678-105.339,180.364-210.015,169.053c-83.741-9.048-144.292-84.271-135.243-168.013
		c7.24-66.993,67.418-115.434,134.411-108.193c53.594,5.792,92.346,53.934,86.556,107.529
		c-4.635,42.874-43.147,73.876-86.024,69.244c-34.3-3.709-59.1-34.52-55.394-68.819c2.965-27.44,27.614-47.281,55.056-44.316
		c21.949,2.372,37.821,22.09,35.449,44.044c-1.896,17.562-17.671,30.259-35.233,28.362c-14.049-1.52-24.208-14.139-22.689-28.188
		c1.213-11.24,11.311-19.367,22.551-18.152c8.991,0.971,15.493,9.047,14.52,18.04c-0.776,7.193-7.238,12.395-14.432,11.617
		c-5.756-0.622-9.916-5.791-9.293-11.546c0.497-4.604,4.631-7.932,9.237-7.436c3.682,0.398,6.346,3.708,5.947,7.391
		c-0.218,2.016-1.525,3.647-3.272,4.377c1.015-0.342,1.94-0.98,2.62-1.91c2.186-2.99,1.534-7.187-1.457-9.373
		c-3.739-2.732-8.984-1.917-11.716,1.821c-3.417,4.673-2.398,11.23,2.273,14.645c5.842,4.271,14.04,2.997,18.308-2.846
		c5.338-7.3,3.747-17.545-3.554-22.882c-9.128-6.671-21.934-4.681-28.605,4.444c-8.34,11.408-5.853,27.417,5.556,35.756
		c14.259,10.425,34.269,7.315,44.694-6.944c13.032-17.826,9.145-42.839-8.68-55.869c-22.282-16.289-53.549-11.43-69.836,10.852
		c-20.36,27.851-14.29,66.934,13.563,87.295c34.816,25.449,83.669,17.859,109.121-16.955
		c31.812-43.52,22.323-104.586-21.195-136.401c-54.398-39.766-130.733-27.904-170.5,26.493c-49.708,68-34.88,163.417,33.116,213.126
		c84.999,62.134,204.271,43.599,266.406-41.396c77.669-106.247,54.502-255.338-51.744-333.008
		c-132.808-97.086-319.173-68.126-416.258,64.681C192.413,601.9,228.612,834.857,394.62,956.215
		c207.513,151.695,498.708,106.447,650.402-101.063c123.233-168.576,144.047-380.626,71.304-560.951
		C1061.258,201.421,981.896,124.757,887.004,72.972z"/>
	<path fill="#81B1CA" d="M596.78,603.618c-0.473-0.346-0.853-0.771-1.138-1.242c0.629,1.269,1.865,2.203,3.377,2.366
		c0.931,0.101,1.831-0.044,2.639-0.38C600.062,604.898,598.241,604.688,596.78,603.618z"/>
</g>
</svg>
