<?xml version="1.0" encoding="utf-8"?>
<!-- Generator: Adobe Illustrator 15.0.2, SVG Export Plug-In . SVG Version: 6.00 Build 0)  -->
<!DOCTYPE svg PUBLIC "-//W3C//DTD SVG 1.1//EN" "http://www.w3.org/Graphics/SVG/1.1/DTD/svg11.dtd">
<svg version="1.1" id="Layer_1" xmlns="http://www.w3.org/2000/svg" xmlns:xlink="http://www.w3.org/1999/xlink" x="0px" y="0px"
	 width="92px" height="92px" viewBox="0 0 92 92" enable-background="new 0 0 92 92" xml:space="preserve">
<rect fill="#6C0900" width="92" height="92"/>
<path fill="#4AA191" d="M63.167,0v52.75c0,11.765-6.162,24.428-19.69,24.428c-17.842,0-19.769-12.588-19.769-18.001
	c0-5.769,3.243-15.532,15.396-15.532c9.193,0,13.309,6.289,13.309,12.521c0,6.264-4.178,10.639-10.16,10.639
	c-3.312,0-8.869-0.867-8.869-6.674c0-3.069,1.376-6.652,5.256-6.652c2.696,0,4.37,1.224,4.37,3.193c0,0.586-0.353,0.957-0.649,1.164
	c-0.441,0.31-0.992,0.411-1.406,0.26c-1.555-0.564-3.278,0.237-3.845,1.793c-0.566,1.556,0.236,3.279,1.793,3.845
	c2.265,0.824,4.844,0.457,6.899-0.983c2.039-1.427,3.208-3.643,3.208-6.079c0-4.568-3.562-9.193-10.37-9.193
	c-6.522,0-11.256,5.321-11.256,12.652c0,7.699,5.836,12.674,14.869,12.674c9.213,0,16.16-7.153,16.16-16.639
	c0-9.204-6.632-18.521-19.309-18.521c-14.7,0-21.396,11.162-21.396,21.532c0,11.603,6.77,24.001,25.769,24.001
	c16.866,0,25.69-15.308,25.69-30.428V0H63.167z"/>
<path fill="#CD4917" d="M65.167,0v52.75c0,12.729-6.788,26.428-21.69,26.428c-20.199,0-21.769-15.309-21.769-20.001
	c0-6.512,3.664-17.532,17.396-17.532c10.518,0,15.309,7.527,15.309,14.521c0,7.324-5.114,12.639-12.16,12.639
	c-6.806,0-10.869-3.242-10.869-8.674c0-5.175,2.916-8.652,7.256-8.652c4.4,0,6.37,2.608,6.37,5.193c0,1.113-0.547,2.134-1.502,2.802
	c-0.973,0.682-2.213,0.873-3.237,0.501c-0.519-0.188-1.092,0.079-1.282,0.598c-0.188,0.519,0.079,1.093,0.598,1.282
	c1.651,0.6,3.545,0.322,5.068-0.742c1.496-1.048,2.354-2.667,2.354-4.441c0-3.464-2.619-7.193-8.37-7.193
	c-5.45,0-9.256,4.38-9.256,10.652c0,6.584,4.931,10.674,12.869,10.674c8.205,0,14.16-6.156,14.16-14.639
	c0-7.957-5.417-16.521-17.309-16.521c-13.326,0-19.396,10.125-19.396,19.532c0,5.161,1.714,22.001,23.769,22.001
	c16.277,0,23.69-14.736,23.69-28.428V0H65.167z"/>
</svg>
