<?xml version="1.0" encoding="utf-8"?>
<!-- Generator: Adobe Illustrator 15.0.2, SVG Export Plug-In . SVG Version: 6.00 Build 0)  -->
<!DOCTYPE svg PUBLIC "-//W3C//DTD SVG 1.1//EN" "http://www.w3.org/Graphics/SVG/1.1/DTD/svg11.dtd">
<svg version="1.1" id="Layer_1" xmlns="http://www.w3.org/2000/svg" xmlns:xlink="http://www.w3.org/1999/xlink" x="0px" y="0px"
	 width="92px" height="92px" viewBox="0 0 92 92" enable-background="new 0 0 92 92" xml:space="preserve">
<rect fill="#6C0900" width="92" height="92"/>
<rect x="32.766" fill="#560000" width="26.469" height="92"/>
<g>
	<g>
		<circle fill="#C4C63A" cx="30.811" cy="4.885" r="2.617"/>
		<circle fill="#C4C63A" cx="37.795" cy="4.885" r="2.617"/>
		<circle fill="#C4C63A" cx="45.947" cy="4.885" r="2.617"/>
		<circle fill="#C4C63A" cx="53.826" cy="4.885" r="2.616"/>
		<circle fill="#C4C63A" cx="61.189" cy="4.885" r="2.616"/>
	</g>
	<g>
		<circle fill="#99A031" cx="30.811" cy="13.108" r="2.617"/>
		<circle fill="#99A031" cx="37.795" cy="13.108" r="2.617"/>
		<circle fill="#99A031" cx="45.947" cy="13.108" r="2.617"/>
		<circle fill="#99A031" cx="53.826" cy="13.108" r="2.616"/>
		<circle fill="#99A031" cx="61.189" cy="13.108" r="2.616"/>
	</g>
	<g>
		<circle fill="#4AA191" cx="30.811" cy="21.331" r="2.617"/>
		<circle fill="#4AA191" cx="37.795" cy="21.331" r="2.617"/>
		<circle fill="#4AA191" cx="45.947" cy="21.331" r="2.617"/>
		<circle fill="#4AA191" cx="53.826" cy="21.331" r="2.616"/>
		<circle fill="#4AA191" cx="61.189" cy="21.331" r="2.616"/>
	</g>
	<g>
		<circle fill="#69C4BA" cx="30.811" cy="29.554" r="2.617"/>
		<circle fill="#69C4BA" cx="37.795" cy="29.554" r="2.617"/>
		<circle fill="#69C4BA" cx="45.947" cy="29.554" r="2.617"/>
		<circle fill="#69C4BA" cx="53.826" cy="29.554" r="2.616"/>
		<circle fill="#69C4BA" cx="61.189" cy="29.554" r="2.616"/>
	</g>
	<g>
		<circle fill="#81B1CA" cx="30.811" cy="37.777" r="2.617"/>
		<circle fill="#81B1CA" cx="37.795" cy="37.777" r="2.617"/>
		<circle fill="#81B1CA" cx="45.947" cy="37.777" r="2.617"/>
		<circle fill="#81B1CA" cx="53.826" cy="37.777" r="2.616"/>
		<circle fill="#81B1CA" cx="61.189" cy="37.777" r="2.616"/>
	</g>
	<g>
		<circle fill="#577A9D" cx="30.811" cy="46" r="2.617"/>
		<circle fill="#577A9D" cx="37.795" cy="46" r="2.617"/>
		<circle fill="#577A9D" cx="45.947" cy="46" r="2.617"/>
		<circle fill="#577A9D" cx="53.826" cy="46" r="2.616"/>
		<circle fill="#577A9D" cx="61.189" cy="46" r="2.616"/>
	</g>
	<g>
		<circle fill="#AC2400" cx="30.811" cy="54.224" r="2.617"/>
		<circle fill="#AC2400" cx="37.795" cy="54.224" r="2.617"/>
		<circle fill="#AC2400" cx="45.947" cy="54.224" r="2.617"/>
		<circle fill="#AC2400" cx="53.826" cy="54.224" r="2.616"/>
		<circle fill="#AC2400" cx="61.189" cy="54.224" r="2.616"/>
	</g>
	<g>
		<circle fill="#CD4917" cx="30.811" cy="62.445" r="2.617"/>
		<circle fill="#CD4917" cx="37.795" cy="62.445" r="2.617"/>
		<circle fill="#CD4917" cx="45.947" cy="62.445" r="2.617"/>
		<circle fill="#CD4917" cx="53.826" cy="62.445" r="2.616"/>
		<circle fill="#CD4917" cx="61.189" cy="62.445" r="2.616"/>
	</g>
	<g>
		<circle fill="#DE723A" cx="30.811" cy="70.67" r="2.617"/>
		<circle fill="#DE723A" cx="37.795" cy="70.67" r="2.617"/>
		<circle fill="#DE723A" cx="45.947" cy="70.67" r="2.617"/>
		<circle fill="#DE723A" cx="53.826" cy="70.67" r="2.616"/>
		<circle fill="#DE723A" cx="61.189" cy="70.67" r="2.616"/>
	</g>
	<g>
		<circle fill="#FCF0CF" cx="30.811" cy="78.893" r="2.617"/>
		<circle fill="#FCF0CF" cx="37.795" cy="78.893" r="2.617"/>
		<circle fill="#FCF0CF" cx="45.947" cy="78.893" r="2.617"/>
		<circle fill="#FCF0CF" cx="53.826" cy="78.893" r="2.616"/>
		<circle fill="#FCF0CF" cx="61.189" cy="78.893" r="2.616"/>
	</g>
	<g>
		<circle fill="#F4EAAC" cx="30.811" cy="87.115" r="2.617"/>
		<circle fill="#F4EAAC" cx="37.795" cy="87.115" r="2.617"/>
		<circle fill="#F4EAAC" cx="45.947" cy="87.115" r="2.617"/>
		<circle fill="#F4EAAC" cx="53.826" cy="87.115" r="2.616"/>
		<circle fill="#F4EAAC" cx="61.189" cy="87.115" r="2.616"/>
	</g>
</g>
</svg>
