<?xml version="1.0" encoding="utf-8"?>
<!-- Generator: Adobe Illustrator 15.0.2, SVG Export Plug-In . SVG Version: 6.00 Build 0)  -->
<!DOCTYPE svg PUBLIC "-//W3C//DTD SVG 1.1//EN" "http://www.w3.org/Graphics/SVG/1.1/DTD/svg11.dtd">
<svg version="1.1" id="Layer_1" xmlns="http://www.w3.org/2000/svg" xmlns:xlink="http://www.w3.org/1999/xlink" x="0px" y="0px"
	 width="92px" height="92px" viewBox="0 0 92 92" enable-background="new 0 0 92 92" xml:space="preserve">
<rect fill="#6C0900" width="92" height="92"/>
<path fill="#AC2400" d="M62.221,77.645c-0.156-3.68-2.181-6.482-3.837-7.309c-3.382-1.678-7.088-3.711-7.704-6.389
	c-0.274-1.189-0.256-2.754,0.082-4.229c2.202,0.821,4.705,1.124,6.459,0.085c5.45-3.236-1.686-10.101-6.818-5.557
	c-0.702,0.622-1.256,1.254-1.691,1.894c-0.172-0.072-0.342-0.149-0.504-0.234c-2.728-1.432-3.426-3.697-3.088-6.575
	c0.068-0.581,0.158-1.117,0.264-1.623c4.31,0.455,8.384-0.464,9.044-4.304c0.403-2.345-1.6-6.076-4.389-5.679
	c-3.842,0.548-5.222,4.442-6.084,7.769c-4.728-0.285-9.423-2.482-9.3-7.044c0.051-1.908,1.475-5.047,3.545-8.062
	c3.875,1.041,8.213,0.865,12.884-2.227c5.425-3.592-1.718-9.622-7.554-7.294c-2.414,0.962-5.112,3.478-7.219,6.59
	c-1.087-0.276-1.98-0.594-2.511-0.908c-2.376-1.406,0.743-8.616,3.448-10.738c-0.379-0.625-2.317-2.351-2.317-2.351
	c-4.586,4.346-8.194,11.758-0.868,15.346c0.362,0.177,0.731,0.345,1.104,0.508c-2.779,4.979-3.836,10.899-0.177,14.518
	c1.42,1.405,4.912,2.914,8.556,3.602c-0.612,4.028,0.4,7.663,3.721,10.353c0.151,0.123,0.314,0.244,0.485,0.365
	c-1.479,5.117,3.949,10.39,9.25,13.796c2.61,1.674,2.227,4.043,1.994,6.025C59.898,78.316,62.9,78.154,62.221,77.645z
	 M48.271,22.196c3.421-0.354,3.925,1.54,1.248,4.088c-1.982,1.886-6.027,2.172-9.589,1.805
	C42.474,25.007,45.554,22.476,48.271,22.196z M48.956,41.229c2.829-2.686,6.284,1.481,1.209,3.438
	c-1.197,0.461-2.63,0.744-4.134,0.831C46.787,43.554,47.853,42.275,48.956,41.229z M56.472,55.485
	c2.085,0.652-1.08,1.63-4.464,1.383C52.981,55.571,54.44,54.851,56.472,55.485z"/>
</svg>
