<?xml version="1.0" encoding="utf-8"?>
<!-- Generator: Adobe Illustrator 15.0.2, SVG Export Plug-In . SVG Version: 6.00 Build 0)  -->
<!DOCTYPE svg PUBLIC "-//W3C//DTD SVG 1.1//EN" "http://www.w3.org/Graphics/SVG/1.1/DTD/svg11.dtd">
<svg version="1.1" id="Layer_1" xmlns="http://www.w3.org/2000/svg" xmlns:xlink="http://www.w3.org/1999/xlink" x="0px" y="0px"
	 width="92px" height="92px" viewBox="0 0 92 92" enable-background="new 0 0 92 92" xml:space="preserve">
<rect fill="#6C0900" width="92" height="92"/>
<g>
	<path fill="#AC2400" d="M50.589,5.924C34.69,3.655,19.722,16.398,17.154,34.386c-2.619,18.355,15.441,37.891,21.194,43.589
		c-1.791,1.361-4.082,3.463-4.372,5.5c-0.226,1.574,2.171,2.184,5.172,2.611c3.003,0.429,5.483,0.45,5.7-1.058
		c0.287-2.016-1.287-4.64-2.617-6.446c7.138-3.608,29.71-16.465,32.495-35.98C77.293,24.614,66.486,8.193,50.589,5.924z"/>
	<g>
		<circle fill="#BCAD8D" cx="23.558" cy="27.423" r="2.404"/>
		<circle fill="#BCAD8D" cx="43.619" cy="35.785" r="3.08"/>
		<circle fill="#BCAD8D" cx="28.679" cy="46.714" r="3.08"/>
		<circle fill="#BCAD8D" cx="45.562" cy="56.017" r="3.08"/>
		<circle fill="#BCAD8D" cx="68.396" cy="44.12" r="2.548"/>
		<circle fill="#BCAD8D" cx="39.53" cy="19.266" r="3.08"/>
		<circle fill="#BCAD8D" cx="61.109" cy="30.173" r="3.08"/>
		<circle fill="#BCAD8D" cx="56.57" cy="14.042" r="2.694"/>
		<circle fill="#BCAD8D" cx="31.783" cy="63.102" r="2.694"/>
		<circle fill="#BCAD8D" cx="58.035" cy="61.528" r="2.695"/>
		<circle fill="#BCAD8D" cx="44.457" cy="73.263" r="2.143"/>
	</g>
</g>
</svg>
