<?xml version="1.0" encoding="utf-8"?>
<!-- Generator: Adobe Illustrator 15.0.2, SVG Export Plug-In . SVG Version: 6.00 Build 0)  -->
<!DOCTYPE svg PUBLIC "-//W3C//DTD SVG 1.1//EN" "http://www.w3.org/Graphics/SVG/1.1/DTD/svg11.dtd">
<svg version="1.1" id="Layer_1" xmlns="http://www.w3.org/2000/svg" xmlns:xlink="http://www.w3.org/1999/xlink" x="0px" y="0px"
	 width="92px" height="92px" viewBox="0 0 92 92" enable-background="new 0 0 92 92" xml:space="preserve">
<g>
	<g>
		<g>
			<g>
				<g>
					<path fill="#E58E61" d="M46,46L13.493,13.494c3.592-3.589,7.114-6.147,11.639-8.452L46,46z"/>
				</g>
			</g>
			<g>
				<g>
					<path fill="#E58E61" d="M46,46L0.596,38.81c0.793-5.017,2.139-9.156,4.445-13.679L46,46z"/>
				</g>
			</g>
			<g>
				<g>
					<path fill="#E58E61" d="M46,46L5.04,66.87c-2.306-4.527-3.65-8.667-4.445-13.68L46,46z"/>
				</g>
			</g>
			<g>
				<g>
					<path fill="#E58E61" d="M46,46L25.13,86.958c-4.523-2.305-8.045-4.861-11.637-8.453L46,46z"/>
				</g>
			</g>
			<g>
				<g>
					<path fill="#E58E61" d="M46,46l7.191,45.403c-5.014,0.796-9.366,0.796-14.382,0L46,46z"/>
				</g>
			</g>
			<g>
				<g>
					<path fill="#E58E61" d="M46,46l32.506,32.504c-3.592,3.59-7.111,6.15-11.636,8.456L46,46z"/>
				</g>
			</g>
			<g>
				<g>
					<path fill="#E58E61" d="M46,46l45.404,7.189c-0.795,5.017-2.139,9.157-4.445,13.678L46,46z"/>
				</g>
			</g>
			<g>
				<g>
					<path fill="#E58E61" d="M46,46l40.959-20.87c2.307,4.525,3.648,8.665,4.445,13.679L46,46z"/>
				</g>
			</g>
			<g>
				<g>
					<path fill="#E58E61" d="M46,46L66.871,5.042c4.522,2.304,8.045,4.863,11.635,8.453L46,46z"/>
				</g>
			</g>
			<g>
				<g>
					<path fill="#E58E61" d="M46,46L38.809,0.596c5.014-0.794,9.366-0.794,14.382,0.001L46,46z"/>
				</g>
			</g>
		</g>
		<g>
			<g>
				<g>
					<path fill="#D35623" d="M46,46L5.042,25.131c2.304-4.526,4.863-8.048,8.451-11.637L46,46z"/>
				</g>
			</g>
			<g>
				<g>
					<path fill="#971B00" d="M46,46L0.595,53.19c-0.794-5.013-0.793-9.368,0.001-14.381L46,46z"/>
				</g>
			</g>
			<g>
				<g>
					<path fill="#CD4917" d="M46,46L13.493,78.505c-3.587-3.59-6.147-7.109-8.453-11.635L46,46z"/>
				</g>
			</g>
			<g>
				<g>
					<path fill="#971B00" d="M46,46l-7.191,45.403c-5.016-0.795-9.155-2.139-13.679-4.445L46,46z"/>
				</g>
			</g>
			<g>
				<g>
					<path fill="#C83B0C" d="M46,46l20.87,40.96c-4.523,2.305-8.664,3.647-13.679,4.442L46,46z"/>
				</g>
			</g>
			<g>
				<g>
					<path fill="#971B00" d="M46,46l40.959,20.868c-2.305,4.527-4.863,8.047-8.453,11.637L46,46z"/>
				</g>
			</g>
			<g>
				<g>
					<path fill="#C22D00" d="M46,46l45.404-7.191c0.795,5.015,0.793,9.368,0,14.38L46,46z"/>
				</g>
			</g>
			<g>
				<g>
					<path fill="#971B00" d="M46,46l32.506-32.506c3.589,3.59,6.148,7.11,8.453,11.636L46,46z"/>
				</g>
			</g>
			<g>
				<g>
					<path fill="#AC2400" d="M46,46l7.191-45.403c5.015,0.793,9.152,2.138,13.68,4.445L46,46z"/>
				</g>
			</g>
			<g>
				<g>
					<path fill="#971B00" d="M46,46L25.131,5.042c4.523-2.305,8.662-3.651,13.678-4.446L46,46z"/>
				</g>
			</g>
		</g>
	</g>
	<g>
		<g>
			<circle fill="#811200" cx="26.152" cy="7.047" r="1.126"/>
			<circle fill="#811200" cx="65.849" cy="84.957" r="1.127"/>
		</g>
		<g>
			<circle fill="#811200" cx="15.085" cy="15.087" r="1.127"/>
			<circle fill="#811200" cx="76.916" cy="76.916" r="1.127"/>
		</g>
		<g>
			<circle fill="#811200" cx="7.045" cy="26.152" r="1.127"/>
			<circle fill="#811200" cx="84.956" cy="65.849" r="1.127"/>
		</g>
		<g>
			<circle fill="#811200" cx="2.819" cy="39.161" r="1.128"/>
			<path fill="#811200" d="M89.359,51.728c0.615,0.097,1.033,0.675,0.936,1.289c-0.096,0.615-0.674,1.034-1.287,0.938
				c-0.615-0.1-1.035-0.677-0.939-1.292C88.168,52.049,88.744,51.629,89.359,51.728z"/>
		</g>
		<g>
			<path fill="#811200" d="M2.643,51.728c0.613-0.098,1.191,0.321,1.288,0.935c0.097,0.615-0.322,1.193-0.935,1.292
				c-0.618,0.096-1.193-0.325-1.291-0.938C1.608,52.401,2.027,51.825,2.643,51.728z"/>
			<path fill="#811200" d="M89.008,38.049c0.613-0.098,1.191,0.322,1.287,0.938c0.1,0.613-0.32,1.19-0.934,1.289
				c-0.617,0.097-1.193-0.323-1.293-0.938C87.973,38.724,88.393,38.145,89.008,38.049z"/>
		</g>
		<g>
			<circle fill="#811200" cx="7.046" cy="65.849" r="1.128"/>
			<path fill="#811200" d="M84.445,25.147c0.553-0.282,1.232-0.061,1.514,0.494c0.285,0.556,0.062,1.232-0.49,1.515
				c-0.557,0.282-1.234,0.062-1.518-0.494C83.668,26.111,83.89,25.43,84.445,25.147z"/>
		</g>
		<g>
			<circle fill="#811200" cx="15.086" cy="76.915" r="1.127"/>
			<path fill="#811200" d="M76.119,14.289c0.439-0.439,1.152-0.439,1.593,0c0.44,0.441,0.44,1.155,0.003,1.593
				c-0.443,0.441-1.155,0.442-1.597,0.002C75.68,15.444,75.678,14.729,76.119,14.289z"/>
		</g>
		<g>
			<path fill="#811200" d="M25.148,84.444c0.282-0.554,0.959-0.773,1.516-0.492c0.554,0.282,0.774,0.961,0.492,1.515
				c-0.283,0.556-0.961,0.774-1.515,0.493C25.083,85.677,24.864,84.999,25.148,84.444z"/>
			<path fill="#811200" d="M64.846,6.534c0.281-0.553,0.96-0.773,1.514-0.491c0.557,0.282,0.776,0.96,0.496,1.514
				c-0.285,0.555-0.963,0.777-1.518,0.494S64.562,7.087,64.846,6.534z"/>
		</g>
		<g>
			<circle fill="#811200" cx="39.162" cy="89.183" r="1.127"/>
			<path fill="#811200" d="M51.726,2.643c0.099-0.614,0.675-1.033,1.29-0.936c0.617,0.095,1.034,0.673,0.938,1.287
				c-0.1,0.615-0.674,1.034-1.292,0.938C52.049,3.835,51.628,3.256,51.726,2.643z"/>
		</g>
		<g>
			<circle fill="#811200" cx="52.839" cy="89.183" r="1.127"/>
			<path fill="#811200" d="M38.048,2.995c-0.098-0.614,0.323-1.191,0.935-1.288c0.618-0.1,1.192,0.322,1.292,0.933
				c0.096,0.618-0.323,1.195-0.938,1.292C38.722,4.03,38.143,3.61,38.048,2.995z"/>
		</g>
	</g>
</g>
</svg>
