<?xml version="1.0" encoding="utf-8"?>
<!-- Generator: Adobe Illustrator 15.0.2, SVG Export Plug-In . SVG Version: 6.00 Build 0)  -->
<!DOCTYPE svg PUBLIC "-//W3C//DTD SVG 1.1//EN" "http://www.w3.org/Graphics/SVG/1.1/DTD/svg11.dtd">
<svg version="1.1" id="Layer_1" xmlns="http://www.w3.org/2000/svg" xmlns:xlink="http://www.w3.org/1999/xlink" x="0px" y="0px"
	 width="92px" height="92px" viewBox="0 0 92 92" enable-background="new 0 0 92 92" xml:space="preserve">
<g>
	<ellipse fill="#4E6460" cx="46" cy="46.459" rx="46" ry="45.541"/>
	<ellipse fill="#3C8271" cx="46" cy="45.542" rx="46" ry="45.542"/>
	<ellipse fill="#3F9583" cx="46" cy="45.541" rx="42.664" ry="42.24"/>
	<g>
		<g>
			<ellipse fill="#D6D775" cx="46" cy="45.542" rx="2.85" ry="2.819"/>
			<ellipse fill="#687221" cx="62.562" cy="45.542" rx="2.848" ry="2.819"/>
			<ellipse fill="#687221" cx="70.842" cy="45.542" rx="2.85" ry="2.819"/>
			<ellipse fill="#687221" cx="79.123" cy="45.542" rx="2.85" ry="2.819"/>
		</g>
		<g>
			<path fill="#687221" d="M55.641,40.031c0.785,1.35,0.318,3.074-1.043,3.854c-1.363,0.779-3.104,0.316-3.894-1.033
				c-0.785-1.35-0.32-3.076,1.044-3.854C53.109,38.219,54.854,38.682,55.641,40.031z"/>
			<path fill="#687221" d="M62.811,35.932c0.787,1.351,0.318,3.074-1.043,3.854c-1.36,0.776-3.104,0.315-3.892-1.033
				c-0.786-1.349-0.319-3.071,1.044-3.853C60.281,34.121,62.023,34.582,62.811,35.932z"/>
			<path fill="#687221" d="M69.98,31.832c0.787,1.352,0.318,3.076-1.043,3.854c-1.361,0.778-3.105,0.315-3.893-1.033
				c-0.789-1.348-0.318-3.072,1.043-3.853C67.453,30.021,69.195,30.482,69.98,31.832z"/>
			<path fill="#687221" d="M77.152,27.734c0.787,1.348,0.32,3.074-1.043,3.852c-1.363,0.779-3.105,0.316-3.893-1.031
				c-0.787-1.349-0.32-3.074,1.045-3.854C74.623,25.924,76.365,26.383,77.152,27.734z"/>
		</g>
		<g>
			<path fill="#687221" d="M55.706,28.9c1.36,0.779,1.83,2.504,1.042,3.854c-0.785,1.35-2.527,1.811-3.893,1.031
				c-1.361-0.777-1.83-2.502-1.041-3.854C52.602,28.582,54.343,28.121,55.706,28.9z"/>
			<path fill="#687221" d="M59.846,21.801c1.361,0.777,1.83,2.504,1.045,3.854c-0.787,1.351-2.531,1.812-3.895,1.033
				c-1.362-0.778-1.829-2.504-1.042-3.854C56.74,21.482,58.484,21.021,59.846,21.801z"/>
			<path fill="#687221" d="M63.986,14.701c1.363,0.779,1.83,2.504,1.043,3.854c-0.787,1.348-2.529,1.812-3.891,1.031
				c-1.363-0.777-1.832-2.504-1.046-3.854S62.623,13.922,63.986,14.701z"/>
		</g>
		<g>
			<ellipse fill="#687221" cx="46.001" cy="78.333" rx="2.851" ry="2.821"/>
			<ellipse fill="#687221" cx="46.002" cy="70.136" rx="2.85" ry="2.821"/>
			<ellipse fill="#687221" cx="46.001" cy="61.938" rx="2.851" ry="2.82"/>
			<ellipse fill="#687221" cx="46.001" cy="53.739" rx="2.851" ry="2.821"/>
		</g>
		<g>
			<path fill="#687221" d="M61.139,71.498c1.361-0.779,3.104-0.318,3.891,1.031s0.32,3.074-1.043,3.854
				c-1.361,0.779-3.105,0.318-3.891-1.031C59.309,74.002,59.775,72.275,61.139,71.498z"/>
			<path fill="#687221" d="M56.998,64.396c1.361-0.777,3.104-0.314,3.893,1.035c0.785,1.348,0.318,3.072-1.045,3.852
				c-1.361,0.777-3.104,0.316-3.892-1.033S55.634,65.178,56.998,64.396z"/>
			<path fill="#687221" d="M52.857,57.297c1.363-0.777,3.104-0.316,3.891,1.035c0.789,1.348,0.318,3.072-1.042,3.852
				c-1.362,0.779-3.104,0.316-3.892-1.033C51.025,59.802,51.495,58.076,52.857,57.297z"/>
		</g>
		<g>
			<path fill="#687221" d="M72.219,60.527c0.785-1.351,2.529-1.812,3.893-1.033c1.363,0.779,1.83,2.504,1.041,3.854
				c-0.787,1.352-2.527,1.812-3.891,1.031C71.898,63.602,71.43,61.877,72.219,60.527z"/>
			<path fill="#687221" d="M65.047,56.428c0.785-1.35,2.529-1.811,3.893-1.031c1.363,0.78,1.83,2.502,1.043,3.854
				c-0.787,1.351-2.527,1.812-3.893,1.033C64.729,59.502,64.262,57.777,65.047,56.428z"/>
			<path fill="#687221" d="M57.876,52.33c0.787-1.35,2.528-1.812,3.892-1.033s1.83,2.506,1.043,3.854
				c-0.785,1.351-2.527,1.812-3.892,1.031C57.557,55.402,57.09,53.68,57.876,52.33z"/>
			<path fill="#687221" d="M50.704,48.229c0.788-1.348,2.53-1.811,3.894-1.028c1.361,0.776,1.828,2.504,1.041,3.852
				c-0.787,1.351-2.527,1.812-3.891,1.033C50.385,51.307,49.917,49.58,50.704,48.229z"/>
		</g>
		<g>
			<g>
				<ellipse fill="#99A031" cx="29.439" cy="45.542" rx="2.849" ry="2.819"/>
				<ellipse fill="#99A031" cx="21.159" cy="45.542" rx="2.849" ry="2.819"/>
				<ellipse fill="#99A031" cx="12.878" cy="45.542" rx="2.849" ry="2.819"/>
			</g>
			<g>
				<path fill="#89912B" d="M36.361,51.051c-0.787-1.348-0.32-3.074,1.043-3.852c1.364-0.781,3.106-0.316,3.892,1.029
					c0.787,1.352,0.321,3.076-1.042,3.854C38.892,52.861,37.147,52.4,36.361,51.051z"/>
				<path fill="#89912B" d="M29.189,55.148c-0.786-1.349-0.319-3.072,1.044-3.853c1.363-0.78,3.104-0.315,3.892,1.031
					c0.787,1.35,0.32,3.073-1.043,3.854C31.72,56.963,29.977,56.5,29.189,55.148z"/>
				<path fill="#89912B" d="M22.019,59.25c-0.786-1.352-0.32-3.074,1.043-3.855c1.363-0.776,3.105-0.313,3.894,1.033
					c0.786,1.35,0.319,3.074-1.044,3.855C24.549,61.061,22.806,60.6,22.019,59.25z"/>
				<path fill="#89912B" d="M14.848,63.348c-0.787-1.35-0.32-3.072,1.043-3.854c1.362-0.777,3.105-0.314,3.893,1.033
					c0.786,1.35,0.32,3.072-1.044,3.854C17.377,65.16,15.634,64.697,14.848,63.348z"/>
			</g>
			<g>
				<path fill="#788126" d="M36.295,62.182c-1.363-0.775-1.829-2.504-1.043-3.852c0.787-1.354,2.529-1.812,3.894-1.035
					c1.362,0.781,1.829,2.504,1.042,3.855C39.401,62.5,37.658,62.961,36.295,62.182z"/>
				<path fill="#788126" d="M32.155,69.279c-1.362-0.775-1.83-2.502-1.043-3.85c0.787-1.352,2.529-1.812,3.893-1.035
					c1.362,0.779,1.828,2.504,1.042,3.855C35.261,69.6,33.518,70.061,32.155,69.279z"/>
				<path fill="#788126" d="M28.015,76.383c-1.363-0.781-1.83-2.506-1.043-3.855c0.787-1.348,2.529-1.811,3.892-1.029
					c1.363,0.777,1.83,2.504,1.044,3.854C31.12,76.699,29.377,77.16,28.015,76.383z"/>
			</g>
			<g>
				<ellipse fill="#C4C63A" cx="46" cy="12.75" rx="2.852" ry="2.82"/>
				<ellipse fill="#C4C63A" cx="46" cy="20.948" rx="2.85" ry="2.821"/>
				<ellipse fill="#C4C63A" cx="46" cy="29.145" rx="2.852" ry="2.82"/>
				<ellipse fill="#C4C63A" cx="46" cy="37.344" rx="2.852" ry="2.82"/>
			</g>
			<g>
				<path fill="#BABF3B" d="M30.863,19.584c-1.362,0.777-3.105,0.316-3.892-1.031c-0.788-1.352-0.32-3.074,1.043-3.854
					c1.362-0.779,3.105-0.318,3.893,1.031C32.693,17.08,32.227,18.807,30.863,19.584z"/>
				<path fill="#BABF3B" d="M35.002,26.686c-1.36,0.777-3.103,0.314-3.89-1.033c-0.787-1.35-0.32-3.073,1.043-3.854
					c1.362-0.779,3.104-0.318,3.892,1.033C36.833,24.182,36.367,25.904,35.002,26.686z"/>
				<path fill="#BABF3B" d="M39.145,33.785c-1.363,0.777-3.105,0.314-3.893-1.033c-0.788-1.35-0.32-3.074,1.043-3.854
					c1.362-0.778,3.106-0.317,3.893,1.033C40.975,31.279,40.507,33.004,39.145,33.785z"/>
			</g>
			<g>
				<path fill="#AAB036" d="M19.783,30.555c-0.787,1.348-2.53,1.812-3.893,1.031c-1.363-0.777-1.83-2.504-1.042-3.852
					c0.786-1.351,2.528-1.812,3.891-1.033C20.103,27.48,20.569,29.205,19.783,30.555z"/>
				<path fill="#AAB036" d="M26.954,34.654c-0.787,1.35-2.53,1.811-3.893,1.031c-1.363-0.778-1.83-2.502-1.042-3.854
					c0.786-1.348,2.529-1.812,3.892-1.031C27.273,31.58,27.741,33.305,26.954,34.654z"/>
				<path fill="#AAB036" d="M34.125,38.752c-0.787,1.352-2.528,1.812-3.892,1.033c-1.363-0.779-1.83-2.506-1.044-3.855
					c0.787-1.346,2.53-1.811,3.894-1.029C34.445,35.68,34.912,37.402,34.125,38.752z"/>
				<path fill="#AAB036" d="M41.296,42.852c-0.785,1.351-2.528,1.812-3.892,1.033c-1.363-0.777-1.83-2.504-1.042-3.854
					c0.786-1.35,2.527-1.811,3.892-1.033C41.616,39.775,42.083,41.502,41.296,42.852z"/>
			</g>
		</g>
	</g>
</g>
</svg>
