<?xml version="1.0" encoding="utf-8"?>
<!-- Generator: Adobe Illustrator 15.0.2, SVG Export Plug-In . SVG Version: 6.00 Build 0)  -->
<!DOCTYPE svg PUBLIC "-//W3C//DTD SVG 1.1//EN" "http://www.w3.org/Graphics/SVG/1.1/DTD/svg11.dtd">
<svg version="1.1" id="Layer_1" xmlns="http://www.w3.org/2000/svg" xmlns:xlink="http://www.w3.org/1999/xlink" x="0px" y="0px"
	 width="92px" height="92px" viewBox="0 0 92 92" enable-background="new 0 0 92 92" xml:space="preserve">
<rect fill="#6C0900" width="92" height="92"/>
<g>
	<path fill="#939491" d="M79.228,92H64.009V61.269c0-18.339-9.341-26.88-27.065-26.88H19.919V14.821l17.024,2.174
		c27.157,0,42.284,16.551,42.284,44.273V92z"/>
	<path fill="#939491" d="M26.282,35.158c0,0.55-0.45,1-1,1H12.694c-0.55,0-1.1-0.438-1.223-0.975L6.17,11.984
		c-0.123-0.537,0.228-0.975,0.777-0.975h18.335c0.55,0,1,0.45,1,1V35.158z"/>
	<polygon fill="#939491" points="24.643,34.388 36.897,34.388 51.096,18.724 24.643,12.507 	"/>
	<rect x="61.946" y="65.334" fill="#939491" width="20.109" height="26.666"/>
	<path fill="#939491" d="M84.17,72.43c0,0.55-0.45,1-1,1H60.833c-0.55,0-1-0.45-1-1v-6.096c0-0.55,0.45-1,1-1H83.17
		c0.55,0,1,0.45,1,1V72.43z"/>
</g>
</svg>
