<?xml version="1.0" encoding="utf-8"?>
<!-- Generator: Adobe Illustrator 15.0.2, SVG Export Plug-In . SVG Version: 6.00 Build 0)  -->
<!DOCTYPE svg PUBLIC "-//W3C//DTD SVG 1.1//EN" "http://www.w3.org/Graphics/SVG/1.1/DTD/svg11.dtd">
<svg version="1.1" id="Layer_1" xmlns="http://www.w3.org/2000/svg" xmlns:xlink="http://www.w3.org/1999/xlink" x="0px" y="0px"
	 width="92px" height="92px" viewBox="0 0 92 92" enable-background="new 0 0 92 92" xml:space="preserve">
<rect fill="#6C0900" width="92" height="92"/>
<g>
	<g>
		<polygon fill="#C83B0C" points="56.763,92 35.237,92 38.875,63.354 53.125,63.354 		"/>
		<polygon fill="#CD4917" points="36.911,92 35.237,92 38.875,63.354 39.982,63.354 		"/>
		<polygon fill="#CD4917" points="43.719,92 39.66,92 41.802,63.354 44.688,63.354 		"/>
		<polygon fill="#CD4917" points="55.089,92 56.763,92 53.125,63.354 52.017,63.354 		"/>
		<polygon fill="#CD4917" points="48.281,92 52.34,92 50.197,63.354 47.312,63.354 		"/>
		<g>
			<polygon fill="#971B00" points="53.373,65.308 53.125,63.354 38.875,63.354 38.627,65.308 			"/>
			<polygon fill="#971B00" points="35.531,89.689 35.237,92 56.763,92 56.469,89.689 			"/>
		</g>
	</g>
	<g>
		<polygon fill="#F4EAAC" points="74.697,56.595 66.405,47.056 75.944,55.348 84.236,64.887 		"/>
		<polygon fill="#F4EAAC" points="74.8,55.449 82.784,48.508 75.843,56.492 67.858,63.434 		"/>
		<polygon fill="#F4EAAC" points="75.32,55.582 80.89,55.97 75.322,56.361 69.754,55.97 		"/>
		<polygon fill="#F4EAAC" points="75.711,55.972 75.322,61.538 74.933,55.971 75.322,50.403 		"/>
	</g>
	<g>
		<polygon fill="#F4EAAC" points="25.942,23.731 25.709,7.008 28.269,23.536 28.5,40.259 		"/>
		<polygon fill="#F4EAAC" points="27.024,22.66 41.021,22.465 27.188,24.606 13.189,24.801 		"/>
		<polygon fill="#F4EAAC" points="27.437,23.24 32.733,28.389 26.773,24.028 21.479,18.877 		"/>
		<polygon fill="#F4EAAC" points="27.498,23.967 22.351,29.259 26.712,23.3 31.861,18.006 		"/>
	</g>
	<g>
		<polygon fill="#F4EAAC" points="51.958,26.699 47.044,17.663 53.168,25.926 58.081,34.962 		"/>
		<polygon fill="#F4EAAC" points="52.24,25.806 59.803,21.693 52.886,26.818 45.323,30.932 		"/>
		<polygon fill="#F4EAAC" points="52.631,26.003 56.987,27.29 52.495,26.623 48.139,25.334 		"/>
		<polygon fill="#F4EAAC" points="52.872,26.381 51.585,30.735 52.254,26.244 53.541,21.888 		"/>
	</g>
	<g>
		<polygon fill="#F4EAAC" points="25.522,65.729 20.608,56.694 26.732,64.958 31.646,73.993 		"/>
		<polygon fill="#F4EAAC" points="25.805,64.837 33.367,60.725 26.451,65.85 18.887,69.963 		"/>
		<polygon fill="#F4EAAC" points="26.195,65.035 30.552,66.321 26.06,65.653 21.704,64.365 		"/>
		<polygon fill="#F4EAAC" points="26.437,65.413 25.15,69.767 25.818,65.274 27.105,60.919 		"/>
	</g>
	<g>
		<polygon fill="#F4EAAC" points="78.84,33.458 86.236,26.312 79.905,34.419 72.508,41.562 		"/>
		<polygon fill="#F4EAAC" points="79.774,33.492 85.754,39.684 78.97,34.385 72.989,28.193 		"/>
		<polygon fill="#F4EAAC" points="79.688,33.921 79.609,38.463 79.055,33.955 79.136,29.414 		"/>
		<polygon fill="#F4EAAC" points="79.388,34.254 74.849,34.175 79.355,33.621 83.897,33.701 		"/>
	</g>
	<g>
		<polygon fill="#F4EAAC" points="13.542,43.374 17.922,31.169 15.283,43.866 10.902,56.071 		"/>
		<polygon fill="#F4EAAC" points="14.619,42.892 24.835,46.558 14.208,44.349 3.991,40.683 		"/>
		<polygon fill="#F4EAAC" points="14.761,43.424 17.205,48.604 14.065,43.817 11.622,38.636 		"/>
		<polygon fill="#F4EAAC" points="14.607,43.97 9.43,46.412 14.218,43.272 19.397,40.828 		"/>
	</g>
	<path fill="#F4EAAC" d="M60.671,52.144c5.819-0.932,12.165,3.44,12.165,3.44s-3.914-5.473-12.187-4.656
		c-7.368,0.727-9.522,7.542-9.522,7.542S53.414,53.305,60.671,52.144z"/>
	<path fill="#F4EAAC" d="M47.846,59.934c-0.497-7.242,0.914-13.26,6.163-18.371c7.96-7.75,18.827-6.601,18.827-6.601
		s-10.854-3.167-19.315,5.023C44.49,48.726,47.883,60.478,47.846,59.934L47.846,59.934z"/>
	<path fill="#F4EAAC" d="M34.756,56.071c-4.16,0.479-6.323,5.389-6.323,5.389s2.525-3.667,6.842-4.047
		c3.693-0.325,5.457,1.506,7.237,3.628C42.867,61.464,40.03,55.464,34.756,56.071z"/>
	<path fill="#F4EAAC" d="M34.544,44.144c-8.046-4.369-15.146-2.002-15.146-2.002s8.44-0.58,14.539,3.289
		c5.29,3.355,7.468,7.849,9.932,12.427C44.138,58.359,42.219,48.312,34.544,44.144z"/>
	<path fill="#F4EAAC" d="M40.075,34.963c-4.347-8.162-11.642-10.347-11.642-10.347s7.419,5.48,9.925,9.638
		c2.757,4.574,5.425,11.757,5.933,17.151C44.346,51.991,44.684,43.62,40.075,34.963z"/>
	<path fill="#F4EAAC" d="M48.049,43.62c0.241-2.009,0.596-3.785,1.047-5.412c0.708-2.548,1.656-4.73,2.785-6.871
		c0.358-0.679-2.633,2.138-3.649,6.702C47.357,41.964,48.014,44.145,48.049,43.62L48.049,43.62z"/>
</g>
</svg>
