<?xml version="1.0" encoding="utf-8"?>
<!-- Generator: Adobe Illustrator 15.0.2, SVG Export Plug-In . SVG Version: 6.00 Build 0)  -->
<!DOCTYPE svg PUBLIC "-//W3C//DTD SVG 1.1//EN" "http://www.w3.org/Graphics/SVG/1.1/DTD/svg11.dtd">
<svg version="1.1" id="Layer_1" xmlns="http://www.w3.org/2000/svg" xmlns:xlink="http://www.w3.org/1999/xlink" x="0px" y="0px"
	 width="92px" height="92px" viewBox="0 0 92 92" enable-background="new 0 0 92 92" xml:space="preserve">
<rect fill="#6C0900" width="92" height="92"/>
<g>
	<circle fill="#6185A6" cx="41.748" cy="32.843" r="1.765"/>
	<circle fill="#6185A6" cx="27.037" cy="35.28" r="1.765"/>
	<circle fill="#6185A6" cx="52.961" cy="24.954" r="1.764"/>
	<circle fill="#6185A6" cx="52.961" cy="6.395" r="1.764"/>
	<circle fill="#6185A6" cx="52.961" cy="53.629" r="1.764"/>
	<circle fill="#6185A6" cx="8.146" cy="64.533" r="1.765"/>
	<circle fill="#6185A6" cx="77.425" cy="52.164" r="1.764"/>
	<circle fill="#6185A6" cx="70.455" cy="76.305" r="1.764"/>
	<circle fill="#81B1CA" cx="54.726" cy="42.728" r="1.765"/>
	<circle fill="#81B1CA" cx="27.037" cy="22.24" r="1.765"/>
	<circle fill="#81B1CA" cx="79.189" cy="35.28" r="1.764"/>
	<circle fill="#81B1CA" cx="61.783" cy="82.27" r="1.764"/>
	<circle fill="#81B1CA" cx="25.272" cy="42.728" r="1.764"/>
	<circle fill="#81B1CA" cx="19.725" cy="52.603" r="1.764"/>
	<circle fill="#81B1CA" cx="39.984" cy="55.393" r="1.764"/>
	<circle fill="#69C4BA" cx="58.255" cy="32.843" r="1.764"/>
	<circle fill="#69C4BA" cx="66.926" cy="17.788" r="1.765"/>
	<circle fill="#69C4BA" cx="47.415" cy="15.198" r="1.764"/>
	<circle fill="#69C4BA" cx="9.911" cy="46.941" r="1.764"/>
	<circle fill="#69C4BA" cx="68.69" cy="28.713" r="1.765"/>
	<circle fill="#69C4BA" cx="52.961" cy="64.766" r="1.764"/>
	<circle fill="#69C4BA" cx="34.691" cy="9.077" r="1.764"/>
	<circle fill="#69C4BA" cx="46.316" cy="47.437" r="1.765"/>
	<circle fill="#69C4BA" cx="38.219" cy="73.359" r="1.764"/>
	<circle fill="#EBDB8A" cx="39.984" cy="20.187" r="1.764"/>
	<circle fill="#EBDB8A" cx="86.383" cy="46.295" r="1.764"/>
	<circle fill="#EBDB8A" cx="19.725" cy="13.02" r="1.764"/>
	<circle fill="#EBDB8A" cx="52.961" cy="35.406" r="1.764"/>
	<circle fill="#EBDB8A" cx="4.609" cy="34.089" r="1.765"/>
	<circle fill="#EBDB8A" cx="34.691" cy="26.949" r="1.764"/>
	<circle fill="#EBDB8A" cx="61.783" cy="51.296" r="1.764"/>
	<circle fill="#EBDB8A" cx="43.512" cy="65.434" r="1.764"/>
	<circle fill="#EBDB8A" cx="52.961" cy="74.107" r="1.764"/>
	<circle fill="#EBDB8A" cx="28.926" cy="82.541" r="1.764"/>
	<circle fill="#EBDB8A" cx="79.647" cy="24.139" r="1.764"/>
	<circle fill="#C7473A" cx="56.49" cy="16.088" r="1.764"/>
	<circle fill="#C7473A" cx="36.455" cy="42.167" r="1.764"/>
	<circle fill="#C7473A" cx="9.911" cy="23.19" r="1.764"/>
	<circle fill="#C7473A" cx="70.455" cy="65.453" r="1.764"/>
	<circle fill="#C7473A" cx="16.197" cy="37.17" r="1.764"/>
	<circle fill="#C7473A" cx="66.926" cy="39.911" r="1.765"/>
	<circle fill="#C7473A" cx="27.69" cy="62.689" r="1.764"/>
	<circle fill="#C7473A" cx="47.415" cy="85.012" r="1.764"/>
	<circle fill="#C7473A" cx="20.508" cy="73.361" r="1.764"/>
</g>
</svg>
