<?xml version="1.0" encoding="utf-8"?>
<!-- Generator: Adobe Illustrator 15.0.2, SVG Export Plug-In . SVG Version: 6.00 Build 0)  -->
<!DOCTYPE svg PUBLIC "-//W3C//DTD SVG 1.1//EN" "http://www.w3.org/Graphics/SVG/1.1/DTD/svg11.dtd">
<svg version="1.1" id="Layer_1" xmlns="http://www.w3.org/2000/svg" xmlns:xlink="http://www.w3.org/1999/xlink" x="0px" y="0px"
	 width="92px" height="92px" viewBox="0 0 92 92" enable-background="new 0 0 92 92" xml:space="preserve">
<rect fill="#6C0900" width="92" height="92"/>
<g>
	<circle fill="#6185A6" cx="45.074" cy="52.8" r="2.75"/>
	<circle fill="#6185A6" cx="22.146" cy="56.598" r="2.75"/>
	<circle fill="#6185A6" cx="62.549" cy="40.504" r="2.75"/>
	<circle fill="#6185A6" cx="62.549" cy="11.58" r="2.75"/>
	<circle fill="#6185A6" cx="62.549" cy="85.195" r="2.75"/>
	<circle fill="#81B1CA" cx="65.299" cy="68.203" r="2.75"/>
	<circle fill="#81B1CA" cx="22.146" cy="36.275" r="2.75"/>
	<circle fill="#81B1CA" cx="24.895" cy="85.195" r="2.75"/>
	<circle fill="#81B1CA" cx="19.396" cy="68.203" r="2.75"/>
	<circle fill="#81B1CA" cx="10.751" cy="83.596" r="2.75"/>
	<circle fill="#81B1CA" cx="42.324" cy="87.943" r="2.75"/>
	<circle fill="#69C4BA" cx="70.799" cy="52.8" r="2.75"/>
	<circle fill="#69C4BA" cx="81.564" cy="8.831" r="2.75"/>
	<circle fill="#69C4BA" cx="84.314" cy="29.335" r="2.75"/>
	<circle fill="#69C4BA" cx="53.905" cy="25.298" r="2.75"/>
	<circle fill="#69C4BA" cx="87.062" cy="46.363" r="2.75"/>
	<circle fill="#69C4BA" cx="34.075" cy="15.76" r="2.75"/>
	<circle fill="#69C4BA" cx="22.146" cy="6.633" r="2.75"/>
	<circle fill="#69C4BA" cx="42.324" cy="74.762" r="2.75"/>
	<circle fill="#EBDB8A" cx="42.324" cy="33.074" r="2.75"/>
	<circle fill="#EBDB8A" cx="47.824" cy="3.884" r="2.75"/>
	<circle fill="#EBDB8A" cx="10.751" cy="21.905" r="2.75"/>
	<circle fill="#EBDB8A" cx="62.549" cy="56.793" r="2.75"/>
	<circle fill="#EBDB8A" cx="34.075" cy="43.614" r="2.75"/>
	<circle fill="#EBDB8A" cx="76.299" cy="81.561" r="2.75"/>
	<circle fill="#C7473A" cx="68.05" cy="26.687" r="2.751"/>
	<circle fill="#C7473A" cx="36.824" cy="67.33" r="2.75"/>
	<circle fill="#C7473A" cx="5.252" cy="59.543" r="2.75"/>
	<circle fill="#C7473A" cx="84.314" cy="63.814" r="2.75"/>
</g>
</svg>
