<?xml version="1.0" encoding="utf-8"?>
<!-- Generator: Adobe Illustrator 15.0.2, SVG Export Plug-In . SVG Version: 6.00 Build 0)  -->
<!DOCTYPE svg PUBLIC "-//W3C//DTD SVG 1.1//EN" "http://www.w3.org/Graphics/SVG/1.1/DTD/svg11.dtd">
<svg version="1.1" id="Layer_1" xmlns="http://www.w3.org/2000/svg" xmlns:xlink="http://www.w3.org/1999/xlink" x="0px" y="0px"
	 width="92px" height="92px" viewBox="0 0 92 92" enable-background="new 0 0 92 92" xml:space="preserve">
<rect fill="#6C0900" width="92" height="92"/>
<path fill="#3F9583" d="M48.062,14.43c4.621,4.119-3.441,10.395-6.416,12.826c-2.814,2.303-7.602,5.416-11.414,5.348
	c-3.705-0.066,0.1-4.323,1.287-5.061c2.168-1.344,5.48-2.286,7.951-2.81c3.721-0.788,10.248-1.812,12.355,2.061
	c2.248,4.129-4.172,9.982-6.891,12.278c-2.041,1.723-7.639,5.988-10.418,3.982c-4.639-3.352,9.451-6.697,10.811-6.761
	c4.115-0.194,9.906,0.131,10.021,5.037c0.113,4.898-5.635,10.356-9.217,13.021c-1.572,1.17-3.523,2.226-5.52,2.274
	c-1.168,0.028-3.324-0.155-1.48-2.083c4.096-4.286,14.188-2.921,17.865-0.47c4.561,3.037,0.137,9.968-2.348,13.171
	c-1.355,1.748-3.371,3.52-5.652,3.762c-1.174,0.125-2.736,0.215-3.314-0.67c-1.73-2.654,4.812-3.639,5.471-3.65
	c6.244-0.115,13.113,0.803,7.426,9.584c-1.459,2.252-6.127,6.186-6.752,2.533c-0.184-1.074,5.037-1.354,7.408,0.449
	c1.948,1.484,3.283,3.184,2.98,5.713c0.047-0.393,1.931-0.172,1.728-2.463c-0.178-2.002-2.585-4.396-4.167-5.324
	c-2.574-1.506-11.133-3.178-9.01,2.539c2.551,6.873,9.273-2.043,10.414-4.852C64.389,66.977,56.334,64,49.795,64.57
	c-4.664,0.408-8.744,5.785-2.957,8.445c5.303,2.438,10.93-6.631,12.402-10.27c6.273-15.509-21.861-16.149-22.406-7.458
	c-0.398,6.317,7.727,2.321,10.164,0.657c5.029-3.432,10.955-10.401,9.176-16.953c-1.705-6.279-11.326-5.237-15.975-4.056
	c-3.004,0.765-10.742,4.825-6.873,9.005c3.693,3.992,11.154-2.039,13.889-4.512c3.783-3.422,8.475-9.811,4.801-14.83
	c-4.094-5.594-16.639-1.828-21.1,1.367c-5.164,3.697-4.184,10.258,2.895,7.965c6.354-2.058,15.17-8.53,16.617-15.459
	c1.533-7.349-11.811-9.989-18.309-9.363c-0.15,0.374-0.225,1.54-0.32,2.229C34.816,11.507,44.18,10.969,48.062,14.43z"/>
</svg>
