<?xml version="1.0" encoding="utf-8"?>
<!-- Generator: Adobe Illustrator 15.0.2, SVG Export Plug-In . SVG Version: 6.00 Build 0)  -->
<!DOCTYPE svg PUBLIC "-//W3C//DTD SVG 1.1//EN" "http://www.w3.org/Graphics/SVG/1.1/DTD/svg11.dtd">
<svg version="1.1" id="Layer_1" xmlns="http://www.w3.org/2000/svg" xmlns:xlink="http://www.w3.org/1999/xlink" x="0px" y="0px"
	 width="92px" height="92px" viewBox="0 0 92 92" enable-background="new 0 0 92 92" xml:space="preserve">
<rect fill="#6C0900" width="92" height="92"/>
<g>
	<g>
		<g>
			<polygon fill="#CD4917" points="46,87.002 44.174,46 46,4.998 47.827,46 			"/>
		</g>
		<g>
			<polygon fill="#CD4917" points="66.502,81.509 44.418,46.913 25.5,10.491 47.583,45.087 			"/>
		</g>
		<g>
			<polygon fill="#CD4917" points="81.51,66.501 45.087,47.583 10.492,25.499 46.914,44.417 			"/>
		</g>
		<g>
			<polygon fill="#CD4917" points="87.002,46 46,47.827 4.998,46 46,44.173 			"/>
		</g>
		<g>
			<polygon fill="#CD4917" points="81.51,25.499 46.914,47.583 10.492,66.501 45.087,44.417 			"/>
		</g>
		<g>
			<polygon fill="#CD4917" points="66.502,10.491 47.583,46.913 25.5,81.509 44.418,45.087 			"/>
		</g>
	</g>
	<g>
		<g>
			<polygon fill="#D35623" points="52.742,71.164 44.879,46.3 39.258,20.835 47.121,45.699 			"/>
		</g>
		<g>
			<polygon fill="#D35623" points="64.422,64.422 45.179,46.821 27.579,27.579 46.821,45.179 			"/>
		</g>
		<g>
			<polygon fill="#D35623" points="71.166,52.742 45.7,47.122 20.837,39.258 46.302,44.878 			"/>
		</g>
		<g>
			<polygon fill="#D35623" points="71.166,39.258 46.302,47.122 20.837,52.742 45.7,44.878 			"/>
		</g>
		<g>
			<polygon fill="#D35623" points="64.422,27.579 46.821,46.821 27.579,64.421 45.179,45.179 			"/>
		</g>
		<g>
			<polygon fill="#D35623" points="52.742,20.835 47.121,46.3 39.258,71.164 44.879,45.699 			"/>
		</g>
	</g>
</g>
</svg>
