<?xml version="1.0" encoding="utf-8"?>
<!-- Generator: Adobe Illustrator 15.0.2, SVG Export Plug-In . SVG Version: 6.00 Build 0)  -->
<!DOCTYPE svg PUBLIC "-//W3C//DTD SVG 1.1//EN" "http://www.w3.org/Graphics/SVG/1.1/DTD/svg11.dtd">
<svg version="1.1" id="Layer_1" xmlns="http://www.w3.org/2000/svg" xmlns:xlink="http://www.w3.org/1999/xlink" x="0px" y="0px"
	 width="92px" height="92px" viewBox="0 0 92 92" enable-background="new 0 0 92 92" xml:space="preserve">
<rect fill="#6C0900" width="92" height="92"/>
<g>
	<path fill="#C4C63A" d="M66.011,77.738c3.949-7.994,15.473-34.563,4.896-53.828C61.157,6.154,40.531-1.256,24.837,7.361
		C9.144,15.978,4.325,37.357,14.074,55.114c9.949,18.117,39.124,23.451,48.068,24.681c-0.686,2.412-1.321,5.819-0.217,7.831
		c0.853,1.554,3.397,0.492,6.359-1.135c2.965-1.627,5.19-3.27,4.373-4.757C71.565,79.745,68.406,78.459,66.011,77.738z"/>
	<circle fill="#FCF0CF" cx="15.124" cy="44.62" r="2.68"/>
	<circle fill="#FCF0CF" cx="38.607" cy="38.651" r="3.434"/>
	<circle fill="#FCF0CF" cx="32.6" cy="58.394" r="3.434"/>
	<circle fill="#FCF0CF" cx="53.879" cy="55.39" r="3.434"/>
	<circle fill="#FCF0CF" cx="66.278" cy="29.501" r="2.841"/>
	<circle fill="#FCF0CF" cx="23.906" cy="26.659" r="3.434"/>
	<circle fill="#FCF0CF" cx="50.446" cy="21.941" r="3.434"/>
	<circle fill="#FCF0CF" cx="35.603" cy="10.597" r="3.004"/>
	<circle fill="#FCF0CF" cx="46.334" cy="70.927" r="3.003"/>
	<circle fill="#FCF0CF" cx="68.689" cy="51.956" r="3.003"/>
	<circle fill="#FCF0CF" cx="64.435" cy="71.506" r="2.388"/>
</g>
</svg>
