<?xml version="1.0" encoding="utf-8"?>
<!-- Generator: Adobe Illustrator 15.0.2, SVG Export Plug-In . SVG Version: 6.00 Build 0)  -->
<!DOCTYPE svg PUBLIC "-//W3C//DTD SVG 1.1//EN" "http://www.w3.org/Graphics/SVG/1.1/DTD/svg11.dtd">
<svg version="1.1" id="Layer_1" xmlns="http://www.w3.org/2000/svg" xmlns:xlink="http://www.w3.org/1999/xlink" x="0px" y="0px"
	 width="92px" height="92px" viewBox="0 0 92 92" enable-background="new 0 0 92 92" xml:space="preserve">
<rect fill="#6C0900" width="92" height="92"/>
<g>
	<polygon fill="#C7A53A" points="64.319,92 27.681,92 33.872,43.241 58.128,43.241 	"/>
	<polygon fill="#D7BD4E" points="30.53,92 27.681,92 33.872,43.241 35.759,43.241 	"/>
	<polygon fill="#D7BD4E" points="42.118,92 35.208,92 38.856,43.241 43.769,43.241 	"/>
	<polygon fill="#D7BD4E" points="61.472,92 64.319,92 58.128,43.241 56.243,43.241 	"/>
	<polygon fill="#D7BD4E" points="49.884,92 56.792,92 53.146,43.241 48.233,43.241 	"/>
	<g>
		<polygon fill="#B68D26" points="58.55,46.566 58.128,43.241 33.872,43.241 33.45,46.566 		"/>
		<polygon fill="#B68D26" points="28.181,88.066 27.681,92 64.319,92 63.819,88.066 		"/>
	</g>
</g>
<g>
	<path fill="#F4EAAC" d="M64.536,32.896c-0.034,0.122,0.016,0.157,0.104,0.131C64.596,32.987,64.561,32.943,64.536,32.896z"/>
	<path fill="#F4EAAC" d="M75.842,19.175c0.01-0.008,0.013-0.008,0.022-0.017C75.277,18.382,75.544,18.78,75.842,19.175z"/>
	<path fill="#F4EAAC" d="M79.537,19.622c-0.338,0.016-0.216,0.265-0.053,0.438C79.622,19.897,79.697,19.712,79.537,19.622z"/>
	<path fill="#F4EAAC" d="M84.012,22.704c0.003,0.016,0.019,0.027,0.025,0.042C84.035,22.725,84.028,22.708,84.012,22.704z"/>
	<path fill="#F4EAAC" d="M75.633,19.31C75.733,18.931,75.508,19.319,75.633,19.31L75.633,19.31z"/>
	<path fill="#F4EAAC" d="M67.87,22.618c0.035,0.138,0.107,0.243,0.19,0.316C68.271,22.635,68.475,22.292,67.87,22.618z"/>
	<path fill="#F4EAAC" d="M69.585,21.198c-0.006-0.132-0.002-0.232,0.009-0.31C69.54,20.911,69.519,21.003,69.585,21.198z"/>
	<path fill="#F4EAAC" d="M68.866,21.64C68.775,21.358,68.753,21.585,68.866,21.64L68.866,21.64z"/>
	<path fill="#F4EAAC" d="M66.42,24.367c0.012-0.013,0.017-0.019,0.03-0.033C66.159,24.354,66.241,24.366,66.42,24.367z"/>
	<path fill="#F4EAAC" d="M65.104,34.992c-0.041-0.008-0.061-0.021-0.096-0.03C64.821,34.935,64.748,34.934,65.104,34.992z"/>
	<path fill="#F4EAAC" d="M82.16,21.28c0.008-0.047,0.022-0.122,0.043-0.219C82.046,21.073,82.009,21.15,82.16,21.28z"/>
	<path fill="#F4EAAC" d="M64.536,32.896c0.006-0.021,0.002-0.033,0.014-0.061C64.473,32.556,64.443,32.72,64.536,32.896z"/>
	<path fill="#F4EAAC" d="M65.378,35.684c0.066-0.071,0.114-0.136,0.147-0.194C65.468,35.472,65.421,35.515,65.378,35.684z"/>
	<path fill="#F4EAAC" d="M65.236,34.411c0.013,0.004,0.025,0.007,0.037,0.011C65.261,34.419,65.249,34.414,65.236,34.411z"/>
	<path fill="#F4EAAC" d="M82.193,21.303c-0.01-0.007-0.025-0.016-0.033-0.023C82.137,21.416,82.158,21.372,82.193,21.303z"/>
	<path fill="#F4EAAC" d="M73.381,19.414c-0.427-0.02-0.405,0.086-0.221,0.206c0.057-0.051,0.163-0.099,0.329-0.142
		C73.435,19.447,73.4,19.428,73.381,19.414z"/>
	<path fill="#F4EAAC" d="M68.782,39.996c0.04-0.013,0.084-0.051,0.13-0.114c-0.01-0.003-0.019-0.006-0.027-0.008
		C68.85,39.917,68.814,39.96,68.782,39.996z"/>
	<path fill="#F4EAAC" d="M65.29,34.428c-0.005-0.002-0.011-0.003-0.017-0.005c0.006,0.001,0.01,0.005,0.016,0.007
		C65.29,34.429,65.29,34.428,65.29,34.428z"/>
	<path fill="#F4EAAC" d="M65.236,34.411c-0.112-0.037-0.227-0.062-0.325-0.08c0.023,0.032,0.047,0.065,0.07,0.088
		C65.064,34.402,65.151,34.395,65.236,34.411z"/>
	<path fill="#F4EAAC" d="M67.408,38.232c-0.116,0.008-0.204,0.035-0.261,0.075c0.068-0.02,0.156-0.042,0.257-0.064
		C67.405,38.239,67.407,38.236,67.408,38.232z"/>
	<path fill="#F4EAAC" d="M87.988,29.836c-0.049-0.066-0.111-0.135-0.182-0.205c0.308-0.009,0.143-0.439,0.116-0.498
		c-0.512,0.627-0.748-0.501-0.529-0.277c0.727-0.473,0.914-1.621,0.39-0.453c-0.082,0.375-1.531,0.588-0.546-0.244
		c0.934,0.087,0.144-0.337,0.36-0.475c0.058-0.043,0.204-0.206-0.394-0.21c0.002-0.069-0.153-0.272,0.164-0.498
		c0.311-0.312-0.055,0.099-0.571-0.173c-0.648-0.008,0.554-0.433,0.298-0.518c-0.779,0.449-1.38-0.958-0.581-0.137
		c-0.233,0.41,1.335-0.873,0.265-0.535c-0.443,0.301-0.394-0.12-0.589-0.101c0.016-0.074,0.318-0.621,0.23-0.551
		c-0.086,0.016-0.259-0.008-0.438-0.042c0.038-0.127,0.067-0.295,0.071-0.422c-0.096-0.046-0.316-0.231-0.515-0.39
		c-0.091-0.004-0.19-0.021-0.283-0.05c0.04,0.065,0.091,0.142,0.17,0.251c-0.823-0.283-0.739-0.722-0.46-0.862
		c-0.162-0.009-0.402-0.346-0.448-0.237c0.142-0.076,0.213-0.152,0.244-0.224c-0.209,0.052-0.63-0.036-0.724-0.239
		c0.014,0.135-0.213,0.485,0.024-0.637c0.219-0.345,0.031-0.205-0.188-0.041c0.039-0.194-0.104-0.459-0.386-0.433
		c-0.02-0.202-0.069-0.288-0.13-0.32c-0.122-0.138-0.324-0.227-0.471-0.117c-0.21-0.076-0.386-0.116-0.524-0.132
		c-0.015,0.045-0.033,0.091-0.055,0.134c-0.025-0.07-0.077,0.029-0.114,0.103c0.008,0.007,0.02,0.014,0.029,0.021
		c-0.129,0.145-0.312,0.155-0.503-0.272c0.155-0.142,0.417-0.485-0.112-0.609c-0.528-0.26,0.294,0.638-0.535,0.265
		c0.714,0.825-1.066,0.26-0.138-0.582c-0.038-0.18-0.272,0.287-0.413,0.395c-0.049-0.173-0.241-0.628-0.277-0.668
		c-0.59,0.796-0.48,0.314-0.498,0.329c0.012,0.102-0.137,0.012-0.262-0.121c-0.254,0.299-0.73,0.521-0.424-0.078
		c0.113-0.397-0.566,0.726-0.243-0.545c0.02-0.307-0.711,0.321-0.452,0.39c-0.492,0.292-0.567-0.423-0.278-0.528
		c0.33-0.07-0.176-0.683-0.428,0.417c-0.974,0.167,0.542-0.273-0.31-0.51c0.184-0.366-0.358,0.302-0.445,0.455
		c-0.147,0.039-0.3,0.068-0.423,0.074c-0.095,0.357-0.106,0.137-0.15-0.012c-0.054-0.015-0.081-0.048-0.079-0.099
		c-0.006,0.001-0.01,0-0.016,0.003c-0.016,0.035-0.211-0.207-0.395-0.45c-0.111,0.098-0.174,0.132-0.209,0.135
		c-0.021,0.078-0.054,0.183-0.109,0.338c-0.307-0.125,0.541-0.46-0.4-0.443c0.24,0.114-0.346,0.428-0.56,0.555
		c-0.021-0.135-0.069-0.294-0.178-0.462c-0.715,0.149-1.108,0.039-1.005,0.115c0.077,0.003,0.167,0.011,0.274,0.023
		c-0.066,0.012-0.113,0.026-0.166,0.04c0.118,0.064,0.319,0.171,0.618,0.35c0.013,0.191-0.661-0.022-0.947-0.208
		c-0.031,0.028-0.051,0.056-0.057,0.084c-0.141-0.159-0.13-0.212-0.169-0.081c0.524-0.032-0.411,1.336-0.209,0.559
		c-0.523,0.084-0.06-0.09-0.497-0.329c-0.473,0.579-0.537,0.044-0.213,0.516c-0.125-0.044-0.299-0.119-0.479-0.243
		c0.019,0.298,0.001,0.489-0.035,0.61c0.395,0.105,0.256,0.124-0.017,0.046c-0.131,0.322-0.429-0.052-0.369-0.153
		c-0.096-0.053-0.187-0.112-0.252-0.187c-0.435,0.271,0.47,1.103-0.101,0.589c-0.364-0.114-0.318-0.441-0.551-0.23
		c-0.133,0.039-0.229,0.095-0.311,0.155c-0.183-0.276-0.278-0.275-0.309-0.067c0.059-0.025,0.151,0.038,0.219,0.143
		c-0.2,0.208-0.168,0.453,0.004,0.489c-0.039,0.071-0.104,0.141-0.189,0.211c-0.301,0.054-0.941,0.177-0.643-0.096
		c-0.052,0.025-0.088,0.019-0.118,0.004c0.027,0.085,0.062,0.232,0.1,0.433c-0.146-0.204-0.705-0.183-0.554,0.037
		c-0.093-0.394-0.198,1.257,0.049,0.595c0.175,0.378-0.16,0.441-0.4,0.23c-0.059,0.084-0.115,0.163-0.157,0.224
		c-0.553-0.53-0.407-0.378-0.542,0.001c0.154-0.281,0.049,0.115,0.01,0.401c-0.315-0.015-0.812,0.073-0.483,0.172
		c0.381,0.473,0.749,0.385,0.159,0.576c-0.016,0.042-0.401,0.059-0.627,0.059c-0.146,0.146-0.199,0.22-0.197,0.255
		c-0.332-0.046-0.654,0.033-0.171,0.34c1.25,0.644-0.288,1.359,0.23,0.551c0.014-0.43-1.508-0.333-0.588,0.101
		c0.587-0.21-0.503,1.097,0.264,0.535c-0.072,0.373-0.362,0.515-0.65,0.542c0.041,0.047,0.098,0.086,0.162,0.117
		c-0.27,0.009-0.423,0.047-0.495,0.096c-0.812-0.444-0.558,0.717-0.045,0.825c0.057,0.044,0.111,0.088,0.165,0.131
		c-0.107,0.133-0.235,0.302-0.405,0.545c0.408,0.064,0.762,0.059,0.389,0.453c0.373,0.157-0.986,0.015-0.528,0.277
		c0.327,0.126,0.392,0.27,0.383,0.377c-0.004-0.004-0.006-0.011-0.01-0.015c-0.011,0.138-0.48,0.866-0.023,0.775
		c1.043,0.589-0.438,0.909-0.489,0.342c-0.513-0.172,0.321,0.958,0.458,0.393c0.049,0.08,0.443,0.363-0.448,0.35
		c0.181,0.199,0.366,0.389,0.455,0.442c-0.015,0.056-0.029,0.112-0.038,0.163c0.157,0.04,0.26,0.158,0.13,0.448
		c0.233,0.211-0.124,0.56-0.327,0.619c0.034,0.031,0.075,0.054,0.122,0.073c-0.277,0.099-0.422,0.454-0.072,0.466
		c-1.246,0.565-0.187,0.374,0.545,0.243c0.14,0.274,0.133,0.503,0.056,0.619c0.052,0.02,0.101,0.042,0.144,0.067
		c-0.043-0.033-0.094-0.049-0.145-0.065c-0.066,0.099-0.183,0.112-0.308-0.01c-0.345,0.074-0.567,0.385,0.026,0.542
		c0.258,0.039,0.739,0.131,0.667,0.203c-0.409-0.156,0.082-0.083-0.149,0.324c0.073,0.023,0.165,0.146,0.288,0.243
		c-0.096,0.099-0.214,0.348-0.282,0.55c0.15,0.027,0.397,0.08,0.596,0.131c-0.166,0.071,0.299,0.925-0.075,0.593
		c-0.01,1.725,0.39-0.851,0.595,0.063c0.166,0.174,0.301-0.322-0.196,0.564c0.366-0.296,0.367,0.45,0.597,0.026
		c0.24,0.087,0.377,0.379,0.361,0.572c0.026-0.002,0.046-0.009,0.076-0.008c-0.032,0.007-0.051,0.013-0.08,0.019
		c-0.017,0.135-0.114,0.21-0.314,0.118c0.017-0.019,0.033-0.037,0.058-0.054c-0.037,0.011-0.064,0.021-0.093,0.031
		c-0.052-0.027-0.103-0.053-0.167-0.103c0.022,0.069,0.038,0.117,0.052,0.156c-0.174,0.113,0.101,0.217,0.422,0.417
		c0.262,0.083,0.553,0.053,0.718,0.009c0.131,0.069,0.147,0.13,0.103,0.186c0.104-0.071,0.093,0.068,0.144,0.17
		c-0.064,0.146,0.221,1.117,0.087,0.685c-0.113,0.435-0.004,0.532,0.324,0.186c0.054,0.053,0.128,0.133,0.248,0.289
		c-0.116-0.157-0.176-0.258-0.207-0.333c0.002-0.002,0.004-0.003,0.005-0.005c-0.002,0-0.004,0-0.007,0
		c-0.049-0.12-0.001-0.15,0.109-0.122c0.036-0.044,0.071-0.085,0.111-0.138c-0.027,0.066-0.057,0.107-0.084,0.146
		c0.154,0.046,0.397,0.171,0.647,0.292c-0.405,0.555,0.937-0.74,0.025,0.597c-0.618,0.586,0.47-0.37,0.564-0.196
		c0.187,0.2,0.23,0.353,0.202,0.457c0.023-0.062,0.117-0.11,0.412-0.094c-0.056,0.398-0.1,0.568-0.124,0.637
		c0.03-0.049,0.099-0.11,0.225-0.048c-0.023-0.206,0.749-0.45,0.535-0.265c0,0.514-0.418,0.677,0.138,0.582
		c0.194,0.025,0.31,0.012,0.394-0.014c0.116,0.443,1.03,1.08,0.298,0.288c-0.011-0.635,1.224,0.193,0.497-0.33
		c0.043-0.332,0.446-0.524,0.227,0.47c0.074-0.053,0.295-0.013,0.469,0.007c0.053,0.256,0.184,0.541,0.234,0.268
		c0.12,0.091,0.351-0.22,0.447-0.37c-0.303,1.184-0.104,1.354,0.283,0.508c0.278,0.65,0.429-0.277,0.434-0.416
		c0.275,0.047,0.437,0.094,0.523,0.143c0.04-0.213,0.073-0.379,0.181-0.077c0.691-0.125,0.999,0.007,0.814,0.214
		c0.034-0.096-0.131-0.144-0.102-0.191c-0.292,0.127-0.195,0.221-0.022,0.292c-0.087,0.057-0.194,0.116-0.35,0.176
		c0.182-0.067,0.291-0.122,0.364-0.17c0.236,0.092,0.596,0.143,0.379,0.17c-0.212,0.432,1.045,0.007,0.342-0.49
		c0.139-0.434,0.734,0.397,0.4,0.443c0.248,0.28,0.461,0.122,0.525-0.089c0.044-0.001,0.108-0.002,0.212-0.004
		c0.016-0.037,0.035-0.076,0.053-0.114c-0.034,0.059-0.174,0.09-0.261,0.106c0.047-0.172-0.001-0.372-0.22-0.409
		c0.396,0.132,0.502,0.224,0.488,0.287c0.325-0.705,0.896-1.57,0.218-0.399c0.437,1.197,0.325,0.031,0.452,0.39
		c-0.131,0.529,0.154-0.134,0.288-0.507c-0.016,0.169,0.061,0.337,0.432,0.322c0.253-0.435,0.097-0.539,0.024-0.559
		c0.028,0.004,0.078,0.006,0.185-0.001c0.158,0.122,0.272,0.196,0.368,0.252c0.034-0.229,0.19-0.613,0.303-0.494
		c-0.283,0.021,0.22,0.187,0.54,0.286c0.595-0.211-0.233-0.735,0.115-0.57c0.426-0.295,0.411,0.734,0.535,0.265
		c0.063,1.061,0.104,0.43,0.111-0.099c-0.301-0.139,0.311-1.436,0.604-0.853c0.349,0.771,0.743,0.062,0.564,0.196
		c-0.275-0.219-0.146-0.872,0.026-0.597c0.637-0.093,0.049,0.306,0.557,0.164c0.034-0.201,0.058-0.45,0.006-0.601
		c0.143-0.152,0.162,0.319,0.497,0.168c0.119,0.175,0.339,0.183,0.521-0.246c-0.105-0.125-0.215-0.618,0.022-0.898
		c0.639,1.045,0.408-0.083,0.595,0.049c0.223-0.364,0.451-0.282,0.22-0.403c0.308,0.068,0.625,0.077,0.254-0.17
		c-0.109,0.105-0.213,0.142-0.31,0.141c-0.069-0.036-0.156-0.08-0.287-0.152c-0.007,0.001-0.002,0.004-0.007,0.006
		c-0.331-0.367-0.346-1.224,0.443-0.57c0.104-0.06,0.193-0.098,0.272-0.124c-0.007-0.111,0.025-0.263,0.13-0.466
		c1.027,0.075-0.412-0.284,0.593-0.063c0.754,0.161-0.96-0.24-0.23-0.551c-0.545-0.418,1.172,0.319,0.589-0.101
		c-0.118-0.289-0.133-0.499-0.104-0.646c-0.05,0.036-0.089,0.068-0.161,0.11c-0.701-0.136-0.321-0.336,0.211-0.244
		c0.101-0.187,0.256-0.156,0.094,0.016c0.091,0.021,0.184,0.05,0.276,0.091c0.703-0.104,1.781,0.15-0.298-0.518
		c0.527-0.283-0.269-0.477,0.571-0.173c0.6,0.424,0.349-0.352,0.024-0.571c0.021,0,0.042-0.007,0.063-0.015
		c-0.148-0.182-0.343-0.693-0.219-0.597c0.477-0.266,0.513,0.294,0.546-0.243c-0.982-0.237-0.097-0.127-0.361-0.418
		c0.2,0.018,1.184-0.261,0.501-0.312c0.074-1.254-0.725,0.093-0.418-0.427c-0.205-0.373-0.188-0.233,0.511-0.31
		c0.599-0.413-1.167-0.261-0.573-0.377c-0.042,0.019-0.028,0.034,0.072-0.013c0.021-0.003,0.034-0.006,0.058-0.01
		c-0.018,0-0.031,0.003-0.047,0.005c0.098-0.046,0.268-0.145,0.537-0.347c-0.245-0.261-0.375-0.559-0.441-0.766
		c0.224-0.071,0.481-0.088,0.441,0.023c0.193,0.407,0.583-0.052-0.49-0.342C87.3,30.193,87.655,29.985,87.988,29.836z
		 M64.893,29.628C64.864,29.67,64.846,29.676,64.893,29.628L64.893,29.628z M65.234,28.16c0.023-0.05,0.041-0.092,0.061-0.138
		C65.521,28.213,65.605,28.32,65.234,28.16z M66.412,24.662c0.078,0.005,0.158,0.026,0.202,0.101
		C66.569,24.723,66.498,24.688,66.412,24.662z M68.682,39.993C68.643,39.976,68.635,39.956,68.682,39.993L68.682,39.993z
		 M72.054,41.546c-0.001-0.002-0.002-0.004-0.003-0.006C72.053,41.543,72.053,41.542,72.054,41.546
		C72.054,41.546,72.054,41.546,72.054,41.546z M74.568,19.797c0.052-0.016,0.128-0.042,0.244-0.082
		C74.419,20.343,74.616,20.195,74.568,19.797z M80.417,20.423c0.032,0.057,0.052,0.087,0.07,0.114
		C80.451,20.547,80.423,20.524,80.417,20.423z M83.608,22.251c-0.087,0.05-0.146,0.062-0.133-0.02
		C83.527,22.249,83.567,22.249,83.608,22.251z M83.897,39.56c-0.007,0.067-0.005,0.13,0.011,0.191
		C82.925,39.062,83.586,39.592,83.897,39.56z M85.604,24.835C85.386,24.781,85.295,24.75,85.604,24.835L85.604,24.835z
		 M87.039,34.495c0.02-0.154,0.077-0.154,0.152-0.127C87.137,34.382,87.085,34.42,87.039,34.495z M87.581,30.602
		c0.006,0.097,0.011,0.222,0.014,0.383C87.145,30.855,87.324,30.693,87.581,30.602z"/>
	<path fill="#F4EAAC" d="M86.675,35.71c0.062-0.044,0.111-0.083,0.144-0.118c-0.032-0.007-0.062-0.01-0.094-0.016
		C86.705,35.615,86.686,35.655,86.675,35.71z"/>
	<path fill="#F4EAAC" d="M84.988,23.744c-0.107,0.133,0.058,0.249,0.267,0.313c-0.194-0.313,0.019-0.163,0.283,0.05
		c0.261,0.013,0.433-0.086,0.047-0.375c-0.13-0.297-0.365-0.367-0.55-0.314c0.039-0.038,0.069-0.109,0.076-0.259
		c-0.293-0.903-0.197-0.378-0.143,0.285c-0.002,0.001-0.003,0.001-0.004,0.002c0.001,0,0.002,0,0.004,0
		C84.977,23.544,84.983,23.645,84.988,23.744z"/>
	<path fill="#F4EAAC" d="M64.457,32.098c0.61,0.716,0.255,0.555,0.38-0.138C64.545,31.887,64.055,32.101,64.457,32.098z"/>
	<path fill="#F4EAAC" d="M64.457,29.871c0.28-0.282,0.406-0.391,0.449-0.398C64.686,29.407,63.986,30.571,64.457,29.871z"/>
	<path fill="#F4EAAC" d="M71.502,20.735c-0.036-0.01-0.057-0.017-0.103-0.028c-0.179-0.117-0.259-0.12-0.283-0.079
		c0.124,0.068,0.254,0.12,0.369,0.153C71.491,20.767,71.497,20.752,71.502,20.735z"/>
	<path fill="#F4EAAC" d="M64.236,31.15C63.854,30.695,63.987,30.865,64.236,31.15L64.236,31.15z"/>
	<path fill="#F4EAAC" d="M64.906,29.472c0.008,0.002,0.01,0.018,0.017,0.023C64.924,29.479,64.92,29.47,64.906,29.472z"/>
	<path fill="#F4EAAC" d="M64.41,31.356c0.004,0,0.006,0,0.01,0c-0.064-0.071-0.126-0.14-0.184-0.206
		C64.287,31.209,64.342,31.274,64.41,31.356z"/>
	<path fill="#F4EAAC" d="M65.378,26.285c-1.211,0.037-0.646,0.457-0.07,0.404C65.224,26.593,65.212,26.461,65.378,26.285z"/>
	<path fill="#F4EAAC" d="M64.911,34.332c-0.013-0.017-0.024-0.027-0.037-0.046C64.579,34.292,64.695,34.294,64.911,34.332z"/>
	<path fill="#F4EAAC" d="M82.362,21.066c0.071-0.217,0.057-0.426-0.104-0.266c-0.023,0.106-0.04,0.188-0.056,0.26
		C82.247,21.057,82.3,21.059,82.362,21.066z"/>
	<path fill="#F4EAAC" d="M80.257,42.114C80.475,42.207,80.403,42.062,80.257,42.114L80.257,42.114z"/>
	<path fill="#F4EAAC" d="M80.957,41.832c-0.009,0.003-0.012,0.008-0.022,0.012C81.346,41.945,81.205,41.908,80.957,41.832z"/>
	<path fill="#F4EAAC" d="M87.988,29.836c0.008,0.012,0.021,0.024,0.027,0.035C88.73,29.572,88.375,29.663,87.988,29.836z"/>
	<path fill="#F4EAAC" d="M75.343,42.397c-0.018,0.091-0.037,0.186-0.063,0.262C75.425,42.554,75.474,42.472,75.343,42.397z"/>
	<path fill="#F4EAAC" d="M78.147,42.541c-0.003,0.005-0.005,0.01-0.008,0.016C78.143,42.551,78.146,42.546,78.147,42.541z"/>
	<path fill="#F4EAAC" d="M81.855,41.426c-0.065-0.104-0.121-0.255-0.146-0.488c0.011,0.026,0.014,0.247,0.01,0.49
		C81.753,41.443,81.798,41.443,81.855,41.426z"/>
	<path fill="#F4EAAC" d="M80.244,42.117c0.005-0.002,0.008-0.001,0.013-0.002c-0.038-0.016-0.086-0.042-0.143-0.075
		C80.093,42.186,80.12,42.27,80.244,42.117z"/>
	<path fill="#F4EAAC" d="M84.603,39.351c-0.033,0.128-0.07,0.219-0.108,0.308C84.559,39.734,84.621,39.675,84.603,39.351z"/>
	<path fill="#F4EAAC" d="M86.022,37.635c0.209,0.339,0.251-0.28-0.325-0.098C85.715,37.853,86.053,37.83,86.022,37.635z"/>
	<path fill="#F4EAAC" d="M87.599,34.285c-0.048,0.073-0.096,0.104-0.143,0.121C87.533,34.502,87.6,34.512,87.599,34.285z"/>
	<path fill="#F4EAAC" d="M83.432,40.529C83.383,40.707,83.4,40.668,83.432,40.529L83.432,40.529z"/>
	<path fill="#F4EAAC" d="M82.259,41.168c-0.178,0.153-0.307,0.228-0.403,0.257C82.087,41.795,82.466,41.473,82.259,41.168z"/>
	<path fill="#F4EAAC" d="M83.487,40.333c-0.008,0.002-0.01,0.002-0.018,0.004c-0.013,0.075-0.025,0.138-0.038,0.192
		C83.445,40.479,83.461,40.422,83.487,40.333z"/>
	<path fill="#F4EAAC" d="M67.87,39.351c0.106-0.138,0.176-0.217,0.232-0.275C67.989,39.159,67.831,39.242,67.87,39.351z"/>
	<path fill="#F4EAAC" d="M84.635,22.643c-0.018-0.015-0.031-0.024-0.032-0.025C84.618,22.627,84.621,22.633,84.635,22.643z"/>
	<path fill="#F4EAAC" d="M70.341,41.062c0.005-0.009,0.008-0.02,0.011-0.03C70.348,41.042,70.341,41.051,70.341,41.062z"/>
	<path fill="#F4EAAC" d="M68.182,39.004c-0.021,0.013-0.049,0.041-0.079,0.071C68.136,39.052,68.162,39.028,68.182,39.004z"/>
	<path fill="#F4EAAC" d="M76.331,19.721c0.04,0.012,0.091,0.015,0.15,0.012c0.031-0.12,0.071-0.303,0.126-0.575
		c-0.26,0.235-0.354,0.377-0.355,0.464C76.288,19.615,76.312,19.661,76.331,19.721z"/>
	<path fill="#F4EAAC" d="M75.279,42.659c-0.045,0.033-0.096,0.067-0.156,0.104C75.198,42.819,75.245,42.758,75.279,42.659z"/>
	<path fill="#F4EAAC" d="M65.694,36.356c-0.078-0.021-0.126-0.034-0.171-0.047C65.443,36.559,65.449,36.715,65.694,36.356z"/>
	<path fill="#F4EAAC" d="M70.213,41.168c0.306,0.14,0.127,0.009,0.128-0.106C70.316,41.114,70.276,41.154,70.213,41.168z"/>
	<path fill="#F4EAAC" d="M65.523,36.309c0.003-0.009,0.005-0.017,0.008-0.026C65.39,36.258,65.349,36.259,65.523,36.309z"/>
	<path fill="#F4EAAC" d="M72.935,42.347c0.009-0.035,0.011-0.057,0.018-0.089C72.928,42.275,72.919,42.303,72.935,42.347z"/>
	<path fill="#F4EAAC" d="M70.64,41.575C70.612,41.619,70.616,41.642,70.64,41.575L70.64,41.575z"/>
	<path fill="#F4EAAC" d="M84.635,22.643c0.064,0.052,0.194,0.185,0.126,0.342C84.91,22.947,84.937,22.837,84.635,22.643z"/>
	<path fill="#F4EAAC" d="M86.022,24.334c0.026,0.008,0.034,0.076,0.03,0.163C86.119,24.529,86.129,24.497,86.022,24.334z"/>
	<path fill="#F4EAAC" d="M25.525,32.473c0.024,0.007,0.031,0.068,0.028,0.146C25.612,32.647,25.62,32.618,25.525,32.473z"/>
	<path fill="#F4EAAC" d="M24.282,30.957c-0.015-0.012-0.027-0.021-0.028-0.021C24.267,30.943,24.27,30.949,24.282,30.957z"/>
	<path fill="#F4EAAC" d="M24.282,30.957c0.057,0.046,0.175,0.166,0.113,0.308C24.53,31.23,24.553,31.132,24.282,30.957z"/>
	<path fill="#F4EAAC" d="M23.724,31.013c0.002,0.014,0.017,0.024,0.023,0.037C23.745,31.031,23.739,31.017,23.724,31.013z"/>
	<path fill="#F4EAAC" d="M22.065,29.736c0.007-0.042,0.021-0.109,0.039-0.197C21.962,29.551,21.929,29.62,22.065,29.736z"/>
	<path fill="#F4EAAC" d="M14.199,28.064c-0.383-0.018-0.363,0.078-0.198,0.184c0.051-0.045,0.146-0.089,0.295-0.127
		C14.246,28.095,14.216,28.077,14.199,28.064z"/>
	<path fill="#F4EAAC" d="M16.842,28.34c0.035,0.01,0.08,0.013,0.132,0.011c0.029-0.106,0.064-0.257,0.115-0.516
		c-0.238,0.215-0.321,0.344-0.32,0.421C16.803,28.25,16.825,28.286,16.842,28.34z"/>
	<path fill="#F4EAAC" d="M12.515,29.249c-0.033-0.009-0.051-0.015-0.092-0.025c-0.16-0.104-0.232-0.107-0.254-0.07
		c0.111,0.062,0.228,0.107,0.332,0.137C12.505,29.277,12.51,29.264,12.515,29.249z"/>
	<path fill="#F4EAAC" d="M22.246,29.544c0.064-0.195,0.051-0.382-0.092-0.238c-0.021,0.095-0.037,0.168-0.05,0.233
		C22.143,29.536,22.19,29.538,22.246,29.544z"/>
	<path fill="#F4EAAC" d="M24.582,31.682c0.007,0.086,0.013,0.175,0.018,0.263c-0.096,0.119,0.052,0.223,0.239,0.28
		c-0.173-0.279,0.015-0.146,0.25,0.042c0.234,0.011,0.392-0.074,0.046-0.333c-0.118-0.268-0.33-0.327-0.496-0.278
		c0.037-0.033,0.064-0.098,0.071-0.235c-0.262-0.81-0.176-0.338-0.128,0.257c0.002,0,0.004,0,0.006,0
		C24.585,31.679,24.584,31.681,24.582,31.682z"/>
	<path fill="#F4EAAC" d="M7.96,32.502c0.011-0.011,0.015-0.017,0.028-0.029C7.728,32.491,7.8,32.501,7.96,32.502z"/>
	<path fill="#F4EAAC" d="M13.799,48.613c0.007-0.031,0.009-0.051,0.016-0.08C13.793,48.549,13.785,48.574,13.799,48.613z"/>
	<path fill="#F4EAAC" d="M15.899,48.893c-0.041,0.029-0.086,0.06-0.14,0.094C15.827,49.037,15.868,48.981,15.899,48.893z"/>
	<path fill="#F4EAAC" d="M15.956,48.659c-0.015,0.082-0.033,0.167-0.057,0.234C16.03,48.799,16.074,48.725,15.956,48.659z"/>
	<path fill="#F4EAAC" d="M11.742,47.922C11.718,47.96,11.721,47.981,11.742,47.922L11.742,47.922z"/>
	<path fill="#F4EAAC" d="M7.311,43.245c-0.07-0.018-0.112-0.03-0.153-0.042C7.086,43.427,7.091,43.566,7.311,43.245z"/>
	<path fill="#F4EAAC" d="M11.474,47.463c0.004-0.009,0.007-0.02,0.01-0.03C11.48,47.443,11.474,47.452,11.474,47.463z"/>
	<path fill="#F4EAAC" d="M22.094,29.757c-0.008-0.006-0.022-0.014-0.029-0.021C22.044,29.858,22.063,29.819,22.094,29.757z"/>
	<path fill="#F4EAAC" d="M9.54,45.618c-0.018,0.012-0.043,0.037-0.07,0.063C9.499,45.661,9.522,45.64,9.54,45.618z"/>
	<path fill="#F4EAAC" d="M9.26,45.929c0.096-0.124,0.159-0.195,0.209-0.247C9.368,45.756,9.225,45.831,9.26,45.929z"/>
	<path fill="#F4EAAC" d="M20.348,48.407c0.004-0.001,0.007-0.001,0.011-0.002c-0.034-0.014-0.077-0.037-0.127-0.067
		C20.212,48.469,20.237,48.544,20.348,48.407z"/>
	<path fill="#F4EAAC" d="M18.469,48.787c-0.002,0.004-0.004,0.009-0.006,0.014C18.466,48.796,18.468,48.792,18.469,48.787z"/>
	<path fill="#F4EAAC" d="M25.525,44.391c0.188,0.304,0.226-0.251-0.291-0.087C25.25,44.586,25.553,44.566,25.525,44.391z"/>
	<path fill="#F4EAAC" d="M23.253,46.809c-0.006,0.002-0.009,0.001-0.015,0.003c-0.01,0.061-0.021,0.115-0.032,0.161
		C23.219,46.929,23.231,46.883,23.253,46.809z"/>
	<path fill="#F4EAAC" d="M26.938,41.39c-0.042,0.065-0.086,0.093-0.128,0.108C26.879,41.583,26.938,41.593,26.938,41.39z"/>
	<path fill="#F4EAAC" d="M27.312,37.434c0.64-0.268,0.322-0.186-0.025-0.031C27.294,37.413,27.306,37.424,27.312,37.434z"/>
	<path fill="#F4EAAC" d="M22.154,47.558c-0.16,0.137-0.275,0.205-0.362,0.23C21.999,48.119,22.338,47.83,22.154,47.558z"/>
	<path fill="#F4EAAC" d="M21.792,47.788c-0.059-0.093-0.109-0.229-0.131-0.438c0.01,0.023,0.013,0.222,0.01,0.439
		C21.7,47.804,21.74,47.804,21.792,47.788z"/>
	<path fill="#F4EAAC" d="M20.988,48.152c-0.009,0.003-0.011,0.007-0.021,0.01C21.335,48.253,21.21,48.22,20.988,48.152z"/>
	<path fill="#F4EAAC" d="M20.359,48.404C20.555,48.488,20.49,48.357,20.359,48.404L20.359,48.404z"/>
	<path fill="#F4EAAC" d="M23.207,46.973C23.159,47.149,23.176,47.11,23.207,46.973L23.207,46.973z"/>
	<path fill="#F4EAAC" d="M11.36,47.558c0.272,0.125,0.114,0.008,0.114-0.095C11.452,47.509,11.417,47.545,11.36,47.558z"/>
	<path fill="#F4EAAC" d="M9.26,30.935c0.032,0.123,0.096,0.217,0.17,0.283C9.618,30.949,9.802,30.643,9.26,30.935z"/>
	<path fill="#F4EAAC" d="M10.153,30.059C10.071,29.806,10.051,30.01,10.153,30.059L10.153,30.059z"/>
	<path fill="#F4EAAC" d="M6.203,37.434c0.251-0.253,0.364-0.351,0.403-0.357C6.407,37.02,5.781,38.061,6.203,37.434z"/>
	<path fill="#F4EAAC" d="M6.605,37.077c0.006,0.002,0.008,0.016,0.014,0.021C6.621,37.083,6.617,37.075,6.605,37.077z"/>
	<path fill="#F4EAAC" d="M7.158,43.203c0.003-0.008,0.004-0.015,0.007-0.023C7.038,43.157,7.001,43.158,7.158,43.203z"/>
	<path fill="#F4EAAC" d="M19.714,28.251c-0.303,0.014-0.194,0.237-0.047,0.393C19.791,28.498,19.858,28.332,19.714,28.251z"/>
	<path fill="#F4EAAC" d="M16.403,27.851c0.008-0.007,0.011-0.008,0.02-0.016C15.897,27.14,16.136,27.497,16.403,27.851z"/>
	<path fill="#F4EAAC" d="M16.215,27.971C16.306,27.632,16.104,27.979,16.215,27.971L16.215,27.971z"/>
	<path fill="#F4EAAC" d="M10.797,29.663c-0.005-0.118-0.002-0.208,0.008-0.278C10.757,29.406,10.738,29.488,10.797,29.663z"/>
	<path fill="#F4EAAC" d="M7.027,34.222c-1.088,0.033-0.575,0.411-0.058,0.362C6.893,34.497,6.878,34.38,7.027,34.222z"/>
	<path fill="#F4EAAC" d="M5.994,38.567C5.667,38.18,5.779,38.322,5.994,38.567L5.994,38.567z"/>
	<path fill="#F4EAAC" d="M6.608,41.431c-0.011-0.015-0.022-0.024-0.033-0.042C6.312,41.396,6.416,41.397,6.608,41.431z"/>
	<path fill="#F4EAAC" d="M7.027,42.643c0.06-0.064,0.103-0.122,0.132-0.174C7.107,42.453,7.065,42.491,7.027,42.643z"/>
	<path fill="#F4EAAC" d="M6.9,41.502c0.011,0.003,0.022,0.006,0.033,0.01C6.922,41.509,6.912,41.504,6.9,41.502z"/>
	<path fill="#F4EAAC" d="M6.781,42.023c-0.037-0.007-0.054-0.018-0.085-0.026C6.528,41.971,6.462,41.971,6.781,42.023z"/>
	<path fill="#F4EAAC" d="M6.273,40.145c0.005-0.019,0.002-0.03,0.013-0.054C6.217,39.84,6.19,39.987,6.273,40.145z"/>
	<path fill="#F4EAAC" d="M6.16,38.765c0.004,0,0.006,0,0.01,0c-0.062-0.068-0.122-0.135-0.176-0.197
		C6.041,38.623,6.094,38.686,6.16,38.765z"/>
	<path fill="#F4EAAC" d="M6.203,39.43c0.547,0.642,0.229,0.498,0.34-0.123C6.281,39.24,5.842,39.432,6.203,39.43z"/>
	<path fill="#F4EAAC" d="M6.273,40.145c-0.03,0.109,0.015,0.141,0.093,0.118C6.327,40.226,6.295,40.187,6.273,40.145z"/>
	<path fill="#F4EAAC" d="M24.253,45.929c-0.029,0.115-0.063,0.196-0.097,0.275C24.214,46.272,24.27,46.219,24.253,45.929z"/>
	<path fill="#F4EAAC" d="M10.078,46.506c0.036-0.012,0.075-0.045,0.116-0.102c-0.008-0.002-0.017-0.005-0.024-0.007
		C10.138,46.437,10.106,46.475,10.078,46.506z"/>
	<path fill="#F4EAAC" d="M26.109,42.667c0.056-0.04,0.101-0.075,0.13-0.106c-0.029-0.007-0.056-0.01-0.084-0.015
		C26.137,42.581,26.119,42.617,26.109,42.667z"/>
	<path fill="#F4EAAC" d="M27.124,37.219c0.276-0.007,0.128-0.394,0.104-0.445c-0.459,0.562-0.67-0.449-0.474-0.249
		c0.651-0.424,0.818-1.453,0.349-0.405c-0.073,0.336-1.371,0.527-0.488-0.219c0.835,0.078,0.128-0.302,0.322-0.425
		c0.052-0.039,0.184-0.185-0.353-0.188c0.001-0.062-0.137-0.244,0.148-0.446c0.277-0.28-0.049,0.089-0.513-0.155
		c-0.581-0.007,0.497-0.388,0.267-0.464c-0.697,0.402-1.236-0.859-0.52-0.123c-0.209,0.367,1.195-0.783,0.236-0.48
		c-0.396,0.271-0.353-0.107-0.527-0.09c0.014-0.066,0.285-0.556,0.207-0.494c-0.077,0.014-0.232-0.007-0.394-0.038
		c0.034-0.114,0.06-0.264,0.064-0.378c-0.087-0.041-0.286-0.209-0.465-0.352c-0.081-0.004-0.167-0.017-0.25-0.042
		c0.036,0.058,0.082,0.127,0.153,0.225c-0.738-0.253-0.659-0.644-0.409-0.768c0-0.001,0-0.002,0-0.004
		c-0.145-0.003-0.364-0.311-0.405-0.213c0.126-0.068,0.19-0.136,0.218-0.201c-0.187,0.047-0.564-0.032-0.647-0.214
		c0.012,0.121-0.191,0.436,0.021-0.57c0.196-0.309,0.028-0.184-0.168-0.037c0.035-0.174-0.092-0.412-0.346-0.388
		c-0.017-0.179-0.062-0.256-0.115-0.286c-0.109-0.124-0.291-0.204-0.422-0.106c-0.188-0.068-0.346-0.104-0.471-0.119
		c-0.013,0.041-0.029,0.082-0.049,0.12c-0.023-0.062-0.069,0.026-0.103,0.093c0.007,0.006,0.018,0.013,0.026,0.019
		c-0.116,0.13-0.28,0.14-0.451-0.244c0.139-0.127,0.373-0.435-0.1-0.546c-0.474-0.233,0.263,0.572-0.479,0.237
		c0.64,0.739-0.955,0.233-0.123-0.521c-0.034-0.161-0.245,0.257-0.37,0.354c-0.044-0.155-0.217-0.562-0.249-0.599
		c-0.528,0.714-0.431,0.282-0.446,0.295c0.011,0.091-0.123,0.011-0.235-0.108c-0.228,0.268-0.654,0.466-0.379-0.07
		c0.102-0.355-0.508,0.651-0.218-0.488c0.017-0.275-0.638,0.287-0.406,0.349c-0.44,0.261-0.508-0.379-0.248-0.474
		c0.295-0.063-0.158-0.612-0.383,0.373c-0.873,0.151,0.485-0.244-0.278-0.457c0.165-0.328-0.321,0.271-0.399,0.407
		c-0.133,0.035-0.27,0.062-0.381,0.067c-0.08,0.293-0.093,0.12-0.132-0.011c-0.047-0.013-0.072-0.041-0.072-0.083
		c-0.004,0.001-0.007-0.005-0.012-0.002c-0.014,0.031-0.189-0.186-0.354-0.403c-0.1,0.088-0.156,0.118-0.188,0.12
		c-0.019,0.07-0.048,0.164-0.098,0.303c-0.274-0.111,0.485-0.412-0.358-0.397c0.215,0.102-0.31,0.383-0.501,0.498
		c-0.019-0.121-0.062-0.263-0.159-0.414c-0.641,0.134-0.994,0.035-0.9,0.104c0.069,0.003,0.149,0.01,0.246,0.021
		c-0.06,0.011-0.102,0.024-0.149,0.036c0.106,0.058,0.287,0.153,0.554,0.313c0.012,0.171-0.592-0.021-0.849-0.186
		c-0.028,0.025-0.045,0.05-0.051,0.075c-0.125-0.143-0.116-0.189-0.15-0.073c0.469-0.029-0.368,1.197-0.188,0.501
		c-0.47,0.075-0.054-0.081-0.446-0.295c-0.423,0.52-0.481,0.04-0.19,0.463c-0.112-0.04-0.267-0.106-0.429-0.218
		c0.017,0.267,0,0.438-0.032,0.546c0.354,0.095,0.229,0.111-0.015,0.042c-0.117,0.289-0.384-0.046-0.332-0.137
		c-0.085-0.047-0.167-0.101-0.226-0.167c-0.389,0.242,0.421,0.988-0.09,0.527c-0.326-0.103-0.286-0.395-0.493-0.207
		c-0.119,0.035-0.206,0.085-0.279,0.139c-0.163-0.247-0.249-0.247-0.276-0.061c0.052-0.022,0.135,0.034,0.195,0.128
		c-0.179,0.186-0.15,0.406,0.004,0.438c-0.035,0.063-0.093,0.126-0.169,0.189c-0.268,0.048-0.845,0.159-0.577-0.086
		c-0.046,0.022-0.078,0.017-0.105,0.004c0.025,0.076,0.055,0.208,0.089,0.387c-0.13-0.183-0.631-0.163-0.496,0.033
		c-0.083-0.353-0.177,1.126,0.044,0.533c0.157,0.339-0.144,0.396-0.359,0.205c-0.054,0.077-0.103,0.146-0.141,0.202
		c-0.495-0.475-0.365-0.339-0.486,0.001c0.139-0.251,0.044,0.104,0.009,0.359c-0.282-0.014-0.728,0.066-0.433,0.154
		c0.341,0.424,0.672,0.345,0.143,0.516c-0.014,0.038-0.36,0.053-0.563,0.052c-0.137,0.138-0.182,0.204-0.174,0.232
		c-0.298-0.042-0.589,0.025-0.155,0.301c1.119,0.577-0.258,1.218,0.206,0.494c0.013-0.386-1.351-0.299-0.526,0.09
		c0.525-0.188-0.451,0.983,0.236,0.48c-0.064,0.332-0.322,0.46-0.579,0.485c0.038,0.043,0.088,0.077,0.147,0.104
		c-0.246,0.008-0.385,0.042-0.451,0.087c-0.728-0.399-0.499,0.642-0.04,0.739c0.051,0.04,0.1,0.079,0.148,0.118
		c-0.096,0.119-0.211,0.271-0.363,0.488c0.365,0.057,0.683,0.052,0.349,0.405c0.334,0.141-0.885,0.014-0.474,0.249
		c0.292,0.113,0.35,0.242,0.343,0.337c-0.003-0.004-0.005-0.01-0.009-0.013c-0.009,0.123-0.431,0.776-0.021,0.695
		c0.935,0.527-0.394,0.814-0.439,0.306c-0.459-0.155,0.289,0.858,0.411,0.353c0.044,0.071,0.397,0.325-0.401,0.312
		c0.162,0.178,0.329,0.349,0.408,0.396c-0.013,0.05-0.026,0.101-0.035,0.146c0.141,0.035,0.233,0.142,0.117,0.401
		c0.208,0.189-0.112,0.501-0.293,0.555c0.031,0.028,0.067,0.048,0.109,0.065c-0.249,0.088-0.378,0.407-0.065,0.417
		c-1.116,0.506-0.168,0.335,0.488,0.218c0.125,0.246,0.118,0.451,0.049,0.555c0.046,0.017,0.09,0.037,0.128,0.06
		c-0.039-0.029-0.084-0.044-0.129-0.058c-0.06,0.088-0.164,0.1-0.276-0.009c-0.308,0.067-0.508,0.346,0.024,0.487
		c0.231,0.035,0.663,0.117,0.599,0.182c-0.367-0.14,0.073-0.074-0.136,0.29c0.066,0.021,0.149,0.131,0.259,0.218
		c-0.086,0.089-0.192,0.312-0.253,0.493c0.134,0.024,0.356,0.072,0.533,0.117c-0.148,0.064,0.267,0.83-0.067,0.532
		c-0.009,1.545,0.349-0.763,0.532,0.056c0.148,0.157,0.271-0.289-0.176,0.506c0.329-0.265,0.33,0.403,0.535,0.023
		c0.215,0.079,0.338,0.34,0.323,0.512c0.024-0.001,0.042-0.008,0.068-0.007c-0.028,0.006-0.045,0.011-0.071,0.017
		c-0.015,0.121-0.103,0.189-0.282,0.105c0.015-0.017,0.03-0.033,0.051-0.048c-0.033,0.01-0.058,0.019-0.083,0.028
		c-0.046-0.025-0.091-0.047-0.149-0.092c0.02,0.062,0.034,0.104,0.046,0.14c-0.157,0.101,0.09,0.194,0.378,0.374
		c0.235,0.075,0.496,0.048,0.644,0.009c0.117,0.062,0.131,0.116,0.091,0.167c0.094-0.063,0.083,0.061,0.128,0.152
		c-0.058,0.13,0.198,1.001,0.078,0.614c-0.102,0.389-0.002,0.476,0.291,0.166c0.048,0.047,0.115,0.119,0.222,0.258
		c-0.104-0.14-0.157-0.231-0.185-0.298c0.001-0.002,0.003-0.003,0.004-0.005c-0.002,0.001-0.004,0-0.006,0.001
		c-0.043-0.108-0.001-0.135,0.099-0.11c0.032-0.04,0.063-0.076,0.099-0.123c-0.025,0.059-0.05,0.096-0.075,0.13
		c0.139,0.042,0.357,0.153,0.581,0.262c-0.363,0.498,0.838-0.663,0.022,0.535c-0.554,0.526,0.421-0.331,0.506-0.175
		c0.167,0.178,0.206,0.314,0.181,0.408c0.022-0.054,0.106-0.097,0.369-0.083c-0.05,0.357-0.089,0.509-0.111,0.571
		c0.027-0.044,0.088-0.099,0.201-0.043c-0.021-0.184,0.672-0.403,0.479-0.238c0,0.461-0.374,0.606,0.124,0.521
		c0.181,0.023,0.286,0.01,0.361-0.016c0.098,0.397,0.917,0.974,0.258,0.26c-0.01-0.569,1.097,0.173,0.446-0.295
		c0.037-0.297,0.397-0.47,0.203,0.421c0.066-0.048,0.264-0.012,0.419,0.006c0.048,0.229,0.165,0.484,0.21,0.239
		c0.107,0.082,0.314-0.196,0.4-0.331c-0.271,1.061-0.093,1.213,0.254,0.456c0.25,0.582,0.384-0.248,0.389-0.372
		c0.246,0.042,0.391,0.083,0.468,0.127c0.036-0.191,0.065-0.339,0.162-0.069c0.62-0.112,0.896,0.007,0.73,0.192
		c0.032-0.086-0.117-0.129-0.09-0.172c-0.262,0.114-0.176,0.198-0.021,0.261c-0.077,0.051-0.174,0.104-0.313,0.157
		c0.163-0.06,0.261-0.109,0.327-0.152c0.211,0.083,0.534,0.128,0.339,0.152c-0.189,0.387,0.937,0.007,0.306-0.438
		c0.125-0.389,0.659,0.355,0.359,0.397c0.223,0.25,0.413,0.109,0.471-0.08c0.039-0.001,0.097-0.002,0.19-0.004
		c0.014-0.033,0.032-0.068,0.047-0.103c-0.03,0.053-0.156,0.081-0.234,0.095c0.042-0.153,0-0.333-0.196-0.366
		c0.354,0.119,0.45,0.2,0.437,0.257c0.292-0.632,0.803-1.407,0.194-0.357c0.392,1.072,0.293,0.028,0.406,0.349
		c-0.117,0.474,0.138-0.118,0.258-0.453c-0.014,0.151,0.055,0.301,0.387,0.287c0.227-0.389,0.087-0.482,0.022-0.5
		c0.026,0.003,0.069,0.005,0.165-0.001c0.141,0.109,0.244,0.176,0.33,0.226c0.03-0.206,0.171-0.55,0.272-0.442
		c-0.253,0.019,0.196,0.168,0.484,0.257c0.531-0.19-0.21-0.659,0.103-0.511c0.381-0.264,0.368,0.658,0.479,0.238
		c0.058,0.95,0.093,0.385,0.101-0.088c-0.271-0.123,0.277-1.287,0.54-0.765c0.312,0.69,0.666,0.056,0.506,0.175
		c-0.247-0.196-0.132-0.781,0.023-0.535c0.569-0.083,0.042,0.275,0.499,0.146c0.03-0.18,0.051-0.402,0.005-0.538
		c0.128-0.137,0.145,0.286,0.445,0.15c0.107,0.157,0.303,0.164,0.468-0.221c-0.095-0.112-0.194-0.554,0.02-0.805
		c0.572,0.937,0.365-0.074,0.533,0.044c0.199-0.326,0.403-0.252,0.196-0.361c0.276,0.061,0.561,0.069,0.229-0.152
		c-0.098,0.094-0.191,0.127-0.277,0.126c-0.062-0.032-0.14-0.072-0.258-0.137c-0.006,0.001-0.001,0.004-0.006,0.005
		c-0.296-0.329-0.31-1.096,0.398-0.51c0.093-0.054,0.172-0.088,0.243-0.11c-0.006-0.1,0.022-0.236,0.116-0.418
		c0.921,0.067-0.369-0.254,0.532-0.056c0.676,0.144-0.86-0.216-0.207-0.494c-0.489-0.375,1.05,0.286,0.527-0.09
		c-0.106-0.258-0.119-0.446-0.094-0.578c-0.044,0.032-0.079,0.061-0.143,0.098c-0.628-0.122-0.289-0.301,0.188-0.219
		c0.09-0.167,0.229-0.14,0.084,0.015c0.082,0.019,0.165,0.045,0.247,0.081c0.631-0.093,1.597,0.134-0.267-0.464
		c0.473-0.254-0.24-0.428,0.513-0.156c0.538,0.38,0.312-0.315,0.021-0.512c0.019,0,0.038-0.006,0.057-0.013
		c-0.133-0.163-0.306-0.621-0.195-0.535c0.427-0.238,0.459,0.264,0.488-0.218c-0.88-0.213-0.086-0.114-0.324-0.375
		c0.18,0.017,1.061-0.233,0.449-0.28c0.066-1.124-0.649,0.083-0.373-0.383c-0.185-0.333-0.17-0.208,0.457-0.278
		c0.537-0.37-1.047-0.233-0.513-0.338c-0.039,0.017-0.027,0.031,0.064-0.012c0.018-0.003,0.031-0.006,0.052-0.009
		c-0.016,0-0.028,0.002-0.042,0.004c0.087-0.042,0.239-0.13,0.48-0.311c-0.219-0.233-0.335-0.5-0.395-0.687
		c0.2-0.063,0.431-0.078,0.395,0.021c0.174,0.364,0.522-0.047-0.438-0.306c-0.245-0.07,0.075-0.257,0.373-0.39
		C27.244,37.344,27.188,37.282,27.124,37.219z M6.593,37.217C6.567,37.254,6.551,37.259,6.593,37.217L6.593,37.217z M6.899,35.901
		c0.021-0.045,0.037-0.083,0.054-0.123C7.156,35.949,7.231,36.045,6.899,35.901z M7.938,32.767c0.077,0.003,0.158,0.021,0.199,0.098
		C8.095,32.824,8.023,32.791,7.938,32.767z M9.987,46.504C9.952,46.489,9.945,46.471,9.987,46.504L9.987,46.504z M13.009,47.896
		c-0.001-0.001-0.001-0.004-0.002-0.006C13.009,47.893,13.008,47.893,13.009,47.896C13.01,47.896,13.01,47.896,13.009,47.896z
		 M15.263,28.408c0.046-0.014,0.115-0.037,0.218-0.074C15.128,28.897,15.306,28.765,15.263,28.408z M20.503,28.969
		c0.029,0.051,0.047,0.078,0.063,0.102C20.534,29.081,20.509,29.06,20.503,28.969z M23.363,30.607
		c-0.078,0.045-0.131,0.055-0.119-0.018C23.29,30.604,23.326,30.605,23.363,30.607z M23.622,46.116
		c-0.006,0.061-0.004,0.118,0.01,0.172C22.749,45.669,23.343,46.145,23.622,46.116z M25.142,32.92
		C24.957,32.875,24.894,32.853,25.142,32.92L25.142,32.92z M26.436,41.577c0.018-0.138,0.069-0.138,0.137-0.114
		C26.524,41.476,26.478,41.51,26.436,41.577z M26.923,38.089c0.005,0.087,0.01,0.199,0.012,0.343
		C26.532,38.316,26.693,38.17,26.923,38.089z"/>
	<path fill="#F4EAAC" d="M6.9,41.502c-0.101-0.033-0.204-0.056-0.292-0.071C6.629,41.46,6.65,41.49,6.671,41.51
		C6.746,41.494,6.824,41.487,6.9,41.502z"/>
	<path fill="#F4EAAC" d="M8.846,44.926c-0.103,0.007-0.182,0.031-0.233,0.067c0.062-0.018,0.141-0.038,0.23-0.057
		C8.844,44.933,8.846,44.93,8.846,44.926z"/>
	<path fill="#F4EAAC" d="M6.948,41.518c-0.005-0.002-0.01-0.003-0.015-0.005c0.005,0.001,0.009,0.005,0.015,0.006
		C6.948,41.519,6.948,41.518,6.948,41.518z"/>
	<path fill="#F4EAAC" d="M36.824,5.922C36.896,5.652,36.735,5.928,36.824,5.922L36.824,5.922z"/>
	<path fill="#F4EAAC" d="M32.521,7.266C32.517,7.172,32.52,7.1,32.527,7.045C32.489,7.061,32.474,7.127,32.521,7.266z"/>
	<path fill="#F4EAAC" d="M32.009,7.58C31.944,7.379,31.928,7.542,32.009,7.58L32.009,7.58z"/>
	<path fill="#F4EAAC" d="M36.974,5.826c0.006-0.006,0.009-0.006,0.016-0.012C36.572,5.262,36.761,5.545,36.974,5.826z"/>
	<path fill="#F4EAAC" d="M39.603,6.144c-0.24,0.011-0.154,0.188-0.038,0.312C39.664,6.34,39.717,6.208,39.603,6.144z"/>
	<path fill="#F4EAAC" d="M41.471,7.324c0.005-0.032,0.016-0.084,0.031-0.157C41.388,7.176,41.362,7.231,41.471,7.324z"/>
	<path fill="#F4EAAC" d="M41.494,7.34c-0.006-0.005-0.017-0.011-0.023-0.016C41.458,7.405,41.47,7.387,41.494,7.34z"/>
	<path fill="#F4EAAC" d="M29.192,13.154c0,0,0,0.001,0.001,0.002C29.192,13.156,29.193,13.154,29.192,13.154z"/>
	<path fill="#F4EAAC" d="M28.872,13.438c0.2-0.202,0.29-0.279,0.32-0.283C29.034,13.108,28.537,13.936,28.872,13.438z"/>
	<path fill="#F4EAAC" d="M28.71,14.343C28.444,14.027,28.536,14.144,28.71,14.343L28.71,14.343z"/>
	<path fill="#F4EAAC" d="M31.3,8.276c0.025,0.098,0.076,0.172,0.135,0.225C31.584,8.287,31.73,8.044,31.3,8.276z"/>
	<path fill="#F4EAAC" d="M42.788,8.337c0.002,0.011,0.013,0.019,0.018,0.03C42.804,8.352,42.799,8.34,42.788,8.337z"/>
	<path fill="#F4EAAC" d="M29.526,10.886c-0.864,0.026-0.457,0.327-0.046,0.287C29.42,11.104,29.408,11.012,29.526,10.886z"/>
	<path fill="#F4EAAC" d="M30.268,9.521c0.009-0.009,0.012-0.014,0.022-0.023C30.083,9.512,30.141,9.52,30.268,9.521z"/>
	<path fill="#F4EAAC" d="M43.469,8.869c0.005,0.068,0.01,0.139,0.014,0.208c-0.076,0.094,0.041,0.176,0.189,0.222
		c-0.137-0.221,0.012-0.116,0.199,0.034c0.186,0.009,0.311-0.058,0.037-0.264c-0.093-0.213-0.262-0.26-0.394-0.221
		c0.029-0.026,0.052-0.078,0.057-0.187c-0.208-0.643-0.14-0.268-0.102,0.204c0.002,0,0.003,0,0.005,0
		C43.472,8.867,43.471,8.868,43.469,8.869z"/>
	<path fill="#F4EAAC" d="M30.972,19.388c-0.083,0.006-0.145,0.025-0.186,0.054c0.049-0.014,0.111-0.03,0.183-0.045
		C30.97,19.393,30.971,19.391,30.972,19.388z"/>
	<path fill="#F4EAAC" d="M33.876,6.935c-0.023-0.006-0.036-0.011-0.065-0.018c-0.126-0.083-0.18-0.082-0.197-0.053
		c0.084,0.045,0.172,0.081,0.251,0.104C33.87,6.958,33.873,6.945,33.876,6.935z"/>
	<path fill="#F4EAAC" d="M29.426,16.668c-0.08-0.026-0.162-0.044-0.232-0.057c0.017,0.023,0.033,0.047,0.05,0.063
		C29.304,16.662,29.365,16.657,29.426,16.668z"/>
	<path fill="#F4EAAC" d="M45.488,13.267c0.219-0.006,0.101-0.312,0.083-0.354c-0.365,0.446-0.532-0.357-0.376-0.198
		c0.518-0.336,0.65-1.154,0.277-0.322c-0.058,0.267-1.089,0.418-0.388-0.174c0.664,0.062,0.102-0.239,0.256-0.338
		c0.041-0.03,0.146-0.146-0.281-0.149c0.001-0.049-0.108-0.194,0.118-0.354c0.22-0.223-0.039,0.071-0.407-0.123
		c-0.461-0.006,0.395-0.309,0.212-0.369c-0.554,0.319-0.982-0.682-0.413-0.098c-0.166,0.291,0.95-0.622,0.188-0.381
		c-0.315,0.215-0.28-0.085-0.419-0.071c0.011-0.052,0.227-0.441,0.165-0.392c-0.061,0.011-0.185-0.006-0.312-0.03
		c0.027-0.091,0.047-0.209,0.05-0.3c-0.069-0.033-0.227-0.166-0.369-0.28C43.806,9.331,43.738,9.32,43.672,9.3
		c0.029,0.046,0.065,0.102,0.122,0.179c-0.586-0.201-0.523-0.511-0.325-0.61c0-0.001,0-0.002,0-0.003
		c-0.115-0.002-0.289-0.247-0.322-0.169c0.101-0.054,0.151-0.108,0.173-0.16c-0.148,0.038-0.448-0.025-0.515-0.17
		c0.01,0.096-0.151,0.346,0.017-0.453c0.156-0.245,0.022-0.146-0.134-0.029c0.027-0.138-0.073-0.327-0.275-0.308
		C42.4,7.435,42.365,7.374,42.323,7.35c-0.087-0.099-0.231-0.163-0.335-0.084c-0.151-0.055-0.277-0.083-0.376-0.095
		c-0.011,0.034-0.022,0.066-0.039,0.098c-0.018-0.043-0.053,0.02-0.079,0.071c0.005,0.004,0.013,0.009,0.019,0.013
		c-0.091,0.103-0.22,0.108-0.355-0.193c0.111-0.102,0.294-0.345-0.081-0.433c-0.376-0.186,0.209,0.454-0.381,0.188
		c0.508,0.586-0.758,0.185-0.098-0.414c-0.027-0.128-0.194,0.204-0.294,0.281c-0.036-0.124-0.172-0.446-0.198-0.476
		c-0.419,0.567-0.342,0.224-0.354,0.234c0.008,0.072-0.098,0.009-0.187-0.086c-0.181,0.212-0.519,0.37-0.301-0.056
		c0.081-0.282-0.403,0.517-0.173-0.388c0.013-0.218-0.506,0.228-0.323,0.277c-0.35,0.208-0.403-0.301-0.197-0.376
		c0.234-0.05-0.126-0.486-0.304,0.296c-0.693,0.12,0.385-0.194-0.221-0.363c0.131-0.26-0.255,0.214-0.317,0.323
		c-0.105,0.028-0.214,0.049-0.303,0.053c-0.063,0.233-0.074,0.095-0.105-0.009c-0.037-0.01-0.057-0.032-0.057-0.066
		c-0.004,0-0.006-0.004-0.01-0.002C37.244,6.172,37.104,6,36.974,5.826c-0.08,0.07-0.124,0.094-0.149,0.096
		c-0.015,0.056-0.038,0.13-0.078,0.241c-0.218-0.088,0.385-0.327-0.285-0.315c0.171,0.081-0.247,0.305-0.398,0.396
		c-0.015-0.096-0.049-0.209-0.126-0.329c-0.509,0.106-0.789,0.028-0.715,0.082c0.055,0.002,0.119,0.008,0.196,0.017
		c-0.047,0.009-0.081,0.019-0.118,0.029c0.083,0.045,0.227,0.122,0.439,0.249c0.009,0.136-0.47-0.016-0.674-0.147
		c-0.022,0.02-0.036,0.04-0.041,0.06c-0.1-0.113-0.093-0.151-0.12-0.058c0.373-0.023-0.292,0.951-0.149,0.398
		c-0.373,0.06-0.042-0.064-0.354-0.234c-0.335,0.411-0.382,0.035-0.154,0.364c-0.09-0.031-0.206-0.078-0.338-0.169
		c0.014,0.224-0.005,0.347-0.034,0.432c0.296,0.078,0.189,0.091-0.011,0.033c-0.096,0.211-0.295-0.035-0.251-0.104
		c-0.07-0.038-0.136-0.081-0.184-0.135c-0.309,0.192,0.334,0.784-0.071,0.418c-0.259-0.081-0.227-0.313-0.392-0.164
		c-0.095,0.028-0.163,0.067-0.221,0.11c-0.129-0.196-0.198-0.195-0.219-0.048c0.042-0.018,0.107,0.027,0.155,0.102
		c-0.143,0.148-0.119,0.323,0.003,0.348c-0.028,0.05-0.074,0.1-0.134,0.15c-0.213,0.039-0.671,0.126-0.458-0.068
		c-0.036,0.018-0.062,0.014-0.083,0.003c0.02,0.061,0.044,0.166,0.07,0.308c-0.103-0.145-0.501-0.129-0.394,0.026
		c-0.065-0.28-0.14,0.895,0.035,0.423c0.125,0.27-0.114,0.314-0.285,0.163c-0.043,0.062-0.082,0.117-0.112,0.161
		c-0.384-0.369-0.29-0.268-0.386,0c0.11-0.2,0.035,0.082,0.007,0.285c-0.224-0.011-0.578,0.052-0.344,0.123
		c0.271,0.337,0.534,0.274,0.113,0.41c-0.012,0.03-0.286,0.042-0.447,0.042c-0.109,0.109-0.145,0.162-0.138,0.185
		c-0.237-0.033-0.468,0.02-0.123,0.239c0.889,0.458-0.205,0.967,0.164,0.392c0.01-0.306-1.073-0.237-0.418,0.071
		c0.417-0.149-0.358,0.781,0.188,0.381c-0.051,0.263-0.255,0.365-0.459,0.385c0.032,0.037,0.077,0.065,0.128,0.088
		c-0.192,0.007-0.317,0.03-0.368,0.065c-0.579-0.318-0.398,0.508-0.033,0.586c0.041,0.032,0.08,0.063,0.118,0.094
		c-0.077,0.094-0.168,0.215-0.289,0.388c0.29,0.045,0.542,0.042,0.277,0.322c0.265,0.112-0.703,0.011-0.376,0.198
		c0.232,0.09,0.278,0.192,0.272,0.268c-0.006-0.007-0.009-0.021-0.017-0.024c0.076,0.003-0.365,0.637-0.006,0.566
		c0.742,0.419-0.313,0.646-0.349,0.243c-0.365-0.123,0.229,0.682,0.326,0.28c0.035,0.056,0.315,0.258-0.319,0.248
		c0.129,0.141,0.261,0.277,0.325,0.315c-0.011,0.04-0.021,0.08-0.027,0.116c0.111,0.028,0.185,0.113,0.092,0.318
		c0.165,0.15-0.089,0.398-0.233,0.441c0.024,0.022,0.053,0.038,0.086,0.052c-0.197,0.07-0.3,0.323-0.051,0.332
		c-0.887,0.402-0.133,0.266,0.388,0.173c0.1,0.195,0.094,0.358,0.04,0.44c0.037,0.014,0.071,0.029,0.102,0.047
		c-0.031-0.023-0.066-0.035-0.103-0.046c-0.047,0.07-0.13,0.079-0.219-0.007c-0.245,0.053-0.403,0.275,0.02,0.387
		c0.184,0.028,0.526,0.093,0.475,0.145c-0.292-0.111,0.057-0.06-0.108,0.23c0.053,0.016,0.12,0.105,0.209,0.175
		c-0.07,0.069-0.152,0.244-0.201,0.39c0.107,0.019,0.282,0.057,0.421,0.092c-0.118,0.051,0.211,0.659-0.053,0.423
		c-0.007,1.228,0.277-0.605,0.422,0.044c0.118,0.125,0.215-0.229-0.14,0.402c0.262-0.21,0.262,0.32,0.425,0.019
		c0.171,0.062,0.268,0.27,0.257,0.407c0.019-0.001,0.033-0.006,0.054-0.005c-0.023,0.005-0.036,0.009-0.057,0.014
		c-0.012,0.096-0.082,0.149-0.224,0.083c0.012-0.013,0.023-0.026,0.041-0.038c-0.026,0.007-0.046,0.015-0.066,0.022
		c-0.037-0.02-0.073-0.037-0.119-0.073c0.016,0.049,0.027,0.083,0.037,0.111c-0.125,0.08,0.071,0.154,0.3,0.296
		c0.187,0.06,0.394,0.038,0.511,0.007c0.093,0.049,0.104,0.092,0.073,0.132c0.075-0.05,0.065,0.048,0.102,0.121
		c-0.046,0.103,0.157,0.795,0.062,0.488c-0.08,0.306,0.001,0.367,0.229,0.13c0.038,0.037,0.092,0.095,0.179,0.207
		c-0.084-0.113-0.126-0.186-0.148-0.24c-0.001,0-0.001,0-0.003,0c0.001,0,0.001-0.001,0.002-0.002
		c-0.033-0.083-0.001-0.104,0.075-0.086c0.029-0.035,0.05-0.053,0.083-0.096c-0.02,0.046-0.04,0.076-0.06,0.103
		c0.11,0.033,0.283,0.122,0.461,0.208c-0.289,0.396,0.666-0.526,0.018,0.425c-0.439,0.418,0.334-0.263,0.402-0.139
		c0.132,0.141,0.163,0.249,0.144,0.323c0.018-0.042,0.084-0.077,0.292-0.065c-0.039,0.283-0.07,0.403-0.088,0.453
		c0.022-0.035,0.07-0.078,0.159-0.034c-0.016-0.146,0.534-0.32,0.381-0.188c0,0.366-0.297,0.481,0.099,0.414
		c0.144,0.019,0.228,0.008,0.287-0.012c0.078,0.315,0.729,0.773,0.205,0.207c-0.008-0.452,0.871,0.138,0.354-0.234
		c0.029-0.236,0.316-0.374,0.161,0.334c0.053-0.038,0.21-0.009,0.333,0.005c0.038,0.182,0.131,0.385,0.167,0.19
		c0.085,0.065,0.25-0.157,0.318-0.263c-0.217,0.843-0.075,0.965,0.201,0.363c0.198,0.462,0.305-0.197,0.309-0.296
		c0.195,0.034,0.311,0.066,0.372,0.102c0.029-0.152,0.052-0.27,0.128-0.055c0.493-0.089,0.712,0.005,0.58,0.152
		c0.025-0.068-0.093-0.103-0.071-0.137c-0.208,0.091-0.14,0.157-0.017,0.208c-0.062,0.041-0.139,0.082-0.249,0.125
		c0.129-0.048,0.207-0.087,0.26-0.121c0.167,0.065,0.424,0.102,0.27,0.121c-0.151,0.308,0.744,0.005,0.243-0.348
		c0.099-0.309,0.523,0.282,0.285,0.315c0.177,0.199,0.328,0.087,0.374-0.063c0.031,0,0.076-0.001,0.151-0.003
		c0.219-0.512,0.71-1.261,0.197-0.376c0.311,0.851,0.233,0.022,0.323,0.277c-0.093,0.376,0.109-0.093,0.205-0.359
		c-0.011,0.12,0.044,0.238,0.307,0.228c0.181-0.31,0.069-0.383,0.018-0.397c0.021,0.002,0.055,0.004,0.131-0.001
		c0.112,0.086,0.194,0.14,0.262,0.179c0.024-0.163,0.136-0.436,0.216-0.351c-0.203,0.015,0.156,0.133,0.385,0.204
		c0.421-0.151-0.167-0.523,0.081-0.406c0.303-0.21,0.292,0.522,0.381,0.188c0.046,0.755,0.075,0.306,0.08-0.07
		c-0.215-0.098,0.22-1.022,0.429-0.607c0.248,0.548,0.529,0.044,0.402,0.139c-0.196-0.156-0.104-0.621,0.019-0.425
		c0.452-0.065,0.034,0.219,0.396,0.116c0.024-0.143,0.041-0.319,0.004-0.427c0.102-0.109,0.115,0.227,0.354,0.119
		c0.085,0.125,0.241,0.13,0.371-0.175c-0.075-0.088-0.154-0.439,0.016-0.639c0.455,0.744,0.29-0.059,0.423,0.035
		c0.158-0.259,0.32-0.201,0.156-0.287c0.219,0.048,0.446,0.055,0.182-0.121c-0.086,0.083-0.167,0.099-0.241,0.09
		c-0.045-0.023-0.1-0.052-0.174-0.093c-0.244-0.255-0.267-0.878,0.302-0.406c0.073-0.042,0.137-0.07,0.193-0.088
		c-0.004-0.079,0.018-0.187,0.092-0.333c0.731,0.054-0.293-0.202,0.423-0.044c0.537,0.114-0.684-0.171-0.165-0.393
		c-0.389-0.297,0.834,0.227,0.419-0.071c-0.084-0.205-0.095-0.354-0.074-0.459c-0.035,0.025-0.063,0.049-0.114,0.078
		c-0.499-0.097-0.229-0.239,0.15-0.174c0.072-0.133,0.182-0.111,0.067,0.012c0.064,0.015,0.131,0.036,0.196,0.064
		c0.501-0.074,1.268,0.106-0.212-0.368c0.375-0.202-0.191-0.34,0.407-0.124c0.427,0.302,0.248-0.25,0.017-0.406
		c0.015,0,0.03-0.005,0.045-0.011c-0.105-0.129-0.243-0.493-0.155-0.425c0.339-0.189,0.365,0.209,0.388-0.173
		c-0.699-0.169-0.068-0.091-0.257-0.298c0.142,0.013,0.843-0.186,0.356-0.222c0.053-0.893-0.516,0.066-0.296-0.304
		c-0.146-0.265-0.135-0.165,0.363-0.221c0.418-0.288-0.764-0.191-0.412-0.266c-0.016,0.009,0,0.007,0.038-0.008
		c0.022-0.004,0.028-0.006,0.059-0.012c-0.027,0-0.039,0.006-0.057,0.011c0.059-0.022,0.175-0.081,0.405-0.254
		c-0.174-0.185-0.267-0.397-0.313-0.545c0.159-0.05,0.342-0.062,0.313,0.017c0.138,0.289,0.415-0.038-0.348-0.243
		c-0.194-0.056,0.059-0.204,0.296-0.31C45.583,13.366,45.539,13.316,45.488,13.267z M29.182,13.265
		C29.162,13.294,29.148,13.299,29.182,13.265L29.182,13.265z M29.425,12.22c0.017-0.036,0.029-0.065,0.043-0.098
		C29.628,12.258,29.689,12.334,29.425,12.22z M30.25,9.73c0.061,0.002,0.125,0.017,0.158,0.078C30.375,9.776,30.318,9.75,30.25,9.73
		z M31.878,20.642C31.85,20.629,31.844,20.614,31.878,20.642L31.878,20.642z M34.278,21.747c0-0.001-0.001-0.003-0.002-0.005
		C34.277,21.744,34.277,21.744,34.278,21.747C34.278,21.746,34.278,21.747,34.278,21.747z M36.067,6.268
		c0.037-0.011,0.089-0.028,0.173-0.058C35.961,6.657,36.102,6.552,36.067,6.268z M38.423,22.541c0.034-0.122,0-0.265-0.155-0.291
		C38.859,22.448,38.55,22.518,38.423,22.541z M40.23,6.714c0.023,0.041,0.037,0.062,0.05,0.081
		C40.254,6.803,40.234,6.787,40.23,6.714z M42.501,8.016c-0.062,0.035-0.104,0.043-0.095-0.014
		C42.443,8.014,42.472,8.014,42.501,8.016z M42.707,20.331c-0.005,0.049-0.003,0.095,0.007,0.14
		C42.036,19.996,42.487,20.355,42.707,20.331z M43.915,9.854C43.767,9.816,43.716,9.799,43.915,9.854L43.915,9.854z M44.941,16.728
		c0.014-0.109,0.055-0.11,0.109-0.09C45.012,16.648,44.974,16.675,44.941,16.728z M45.328,13.958
		c0.004,0.069,0.008,0.158,0.01,0.272C45.018,14.139,45.146,14.022,45.328,13.958z"/>
	<path fill="#F4EAAC" d="M31.944,20.642c0,0.001,0,0.001,0,0.002c0.03-0.008,0.062-0.034,0.098-0.082
		c-0.008-0.002-0.017-0.005-0.023-0.007C31.992,20.587,31.967,20.616,31.944,20.642z"/>
	<path fill="#F4EAAC" d="M44.682,17.594c0.044-0.032,0.08-0.06,0.103-0.084c-0.023-0.005-0.044-0.008-0.067-0.012
		C44.704,17.525,44.69,17.554,44.682,17.594z"/>
	<path fill="#F4EAAC" d="M43.23,8.292c-0.012-0.01-0.021-0.016-0.022-0.017C43.218,8.282,43.22,8.286,43.23,8.292z"/>
	<path fill="#F4EAAC" d="M44.218,9.497c0.02,0.006,0.024,0.054,0.022,0.116C44.287,9.636,44.293,9.613,44.218,9.497z"/>
	<path fill="#F4EAAC" d="M43.23,8.292c0.044,0.036,0.14,0.131,0.09,0.245C43.428,8.51,43.446,8.432,43.23,8.292z"/>
	<path fill="#F4EAAC" d="M28.838,14.494c0.003,0,0.004,0,0.007,0c-0.047-0.052-0.093-0.104-0.135-0.151
		C28.747,14.386,28.788,14.434,28.838,14.494z"/>
	<path fill="#F4EAAC" d="M37.322,6.215c0.028,0.008,0.063,0.011,0.105,0.009c0.023-0.084,0.051-0.204,0.092-0.41
		c-0.189,0.171-0.255,0.273-0.254,0.335C37.291,6.143,37.309,6.172,37.322,6.215z"/>
	<path fill="#F4EAAC" d="M35.222,5.996c-0.304-0.015-0.288,0.062-0.157,0.146c0.041-0.037,0.116-0.071,0.234-0.101
		C35.26,6.02,35.236,6.006,35.222,5.996z"/>
	<path fill="#F4EAAC" d="M41.611,7.171c0.051-0.154,0.043-0.303-0.07-0.188c-0.018,0.082-0.028,0.131-0.039,0.185
		C41.532,7.165,41.568,7.166,41.611,7.171z"/>
	<polygon fill="#F4EAAC" points="29.464,16.681 29.451,16.676 29.463,16.682 	"/>
	<path fill="#F4EAAC" d="M40.615,21.95c-0.007,0.002-0.009,0.006-0.017,0.008C40.888,22.03,40.788,22.003,40.615,21.95z"/>
	<path fill="#F4EAAC" d="M41.253,21.661c-0.046-0.074-0.086-0.182-0.104-0.348c0.008,0.019,0.01,0.176,0.008,0.349
		C41.18,21.673,41.212,21.673,41.253,21.661z"/>
	<path fill="#F4EAAC" d="M41.541,21.478c-0.126,0.109-0.219,0.163-0.288,0.183C41.417,21.924,41.687,21.694,41.541,21.478z"/>
	<path fill="#F4EAAC" d="M40.115,22.15C40.271,22.216,40.219,22.113,40.115,22.15L40.115,22.15z"/>
	<path fill="#F4EAAC" d="M40.106,22.152c0.003-0.001,0.005-0.001,0.009-0.002c-0.027-0.011-0.061-0.029-0.102-0.053
		C39.998,22.202,40.018,22.262,40.106,22.152z"/>
	<path fill="#F4EAAC" d="M28.872,15.022c0.434,0.51,0.181,0.396,0.271-0.098C28.934,14.872,28.585,15.024,28.872,15.022z"/>
	<path fill="#F4EAAC" d="M36.618,22.353c-0.012,0.064-0.026,0.132-0.045,0.186C36.677,22.463,36.712,22.405,36.618,22.353z"/>
	<path fill="#F4EAAC" d="M43.208,20.184c-0.023,0.091-0.05,0.156-0.077,0.219C43.177,20.457,43.221,20.415,43.208,20.184z"/>
	<path fill="#F4EAAC" d="M42.377,21.013C42.339,21.153,42.353,21.123,42.377,21.013L42.377,21.013z"/>
	<path fill="#F4EAAC" d="M44.218,18.963c0.149,0.241,0.179-0.2-0.231-0.069C44,19.118,44.24,19.102,44.218,18.963z"/>
	<path fill="#F4EAAC" d="M45.637,13.438c0.509-0.212,0.256-0.147-0.02-0.024C45.624,13.421,45.632,13.43,45.637,13.438z"/>
	<path fill="#F4EAAC" d="M45.34,16.579c-0.034,0.052-0.068,0.074-0.102,0.086C45.294,16.733,45.341,16.74,45.34,16.579z"/>
	<path fill="#F4EAAC" d="M34.905,22.316c0.006-0.025,0.007-0.041,0.012-0.063C34.9,22.265,34.894,22.285,34.905,22.316z"/>
	<path fill="#F4EAAC" d="M42.414,20.883c-0.005,0.001-0.007,0.001-0.012,0.002c-0.008,0.048-0.017,0.091-0.025,0.127
		C42.387,20.979,42.397,20.942,42.414,20.883z"/>
	<path fill="#F4EAAC" d="M36.573,22.538c-0.032,0.023-0.068,0.048-0.111,0.075C36.516,22.652,36.549,22.608,36.573,22.538z"/>
	<path fill="#F4EAAC" d="M29.426,16.668c0.008,0.003,0.017,0.005,0.025,0.008C29.443,16.674,29.435,16.67,29.426,16.668z"/>
	<path fill="#F4EAAC" d="M29.194,16.612c-0.009-0.012-0.018-0.019-0.026-0.033C28.958,16.584,29.041,16.585,29.194,16.612z"/>
	<path fill="#F4EAAC" d="M29.526,17.574c0.047-0.051,0.081-0.097,0.104-0.138C29.59,17.424,29.557,17.454,29.526,17.574z"/>
	<path fill="#F4EAAC" d="M29.331,17.082c-0.029-0.006-0.042-0.014-0.067-0.021C29.13,17.041,29.078,17.04,29.331,17.082z"/>
	<path fill="#F4EAAC" d="M28.928,15.59c0.004-0.015,0.002-0.023,0.01-0.043C28.883,15.349,28.862,15.465,28.928,15.59z"/>
	<path fill="#F4EAAC" d="M28.928,15.59c-0.023,0.087,0.012,0.112,0.074,0.094C28.97,15.655,28.945,15.624,28.928,15.59z"/>
	<path fill="#F4EAAC" d="M32.968,21.478c0.217,0.099,0.091,0.006,0.091-0.075C33.041,21.439,33.013,21.468,32.968,21.478z"/>
	<path fill="#F4EAAC" d="M33.059,21.403c0.004-0.008,0.006-0.016,0.008-0.024C33.063,21.387,33.059,21.394,33.059,21.403z"/>
	<path fill="#F4EAAC" d="M31.522,19.938c-0.015,0.009-0.035,0.029-0.057,0.051C31.489,19.972,31.509,19.955,31.522,19.938z"/>
	<path fill="#F4EAAC" d="M33.271,21.767C33.252,21.798,33.255,21.814,33.271,21.767L33.271,21.767z"/>
	<path fill="#F4EAAC" d="M29.632,18.02c0.002-0.006,0.004-0.012,0.006-0.019C29.535,17.983,29.505,17.983,29.632,18.02z"/>
	<path fill="#F4EAAC" d="M29.752,18.053c-0.055-0.014-0.087-0.023-0.12-0.033C29.576,18.196,29.578,18.307,29.752,18.053z"/>
	<path fill="#F4EAAC" d="M31.3,20.184c0.076-0.098,0.125-0.154,0.166-0.195C31.385,20.047,31.272,20.107,31.3,20.184z"/>
</g>
</svg>
