<?xml version="1.0" encoding="utf-8"?>
<!-- Generator: Adobe Illustrator 15.0.2, SVG Export Plug-In . SVG Version: 6.00 Build 0)  -->
<!DOCTYPE svg PUBLIC "-//W3C//DTD SVG 1.1//EN" "http://www.w3.org/Graphics/SVG/1.1/DTD/svg11.dtd">
<svg version="1.1" id="Layer_1" xmlns="http://www.w3.org/2000/svg" xmlns:xlink="http://www.w3.org/1999/xlink" x="0px" y="0px"
	 width="92px" height="92px" viewBox="0 0 92 92" enable-background="new 0 0 92 92" xml:space="preserve">
<rect fill="#6C0900" width="92" height="92"/>
<rect x="30.995" y="0" fill="#560000" width="30.01" height="92"/>
<g>
	<path fill="#F4EAAC" d="M31.526,53.533c-0.382,0-0.77-0.087-1.134-0.272c-1.23-0.625-1.719-2.123-1.091-3.347
		c0.17-0.333,0.354-0.666,0.548-0.996c0.696-1.187,2.227-1.586,3.419-0.894c1.192,0.692,1.594,2.216,0.898,3.403
		c-0.146,0.249-0.283,0.498-0.411,0.747C33.313,53.037,32.436,53.533,31.526,53.533z M37.03,46.488
		c-0.643,0-1.285-0.245-1.773-0.734c-0.973-0.975-0.968-2.55,0.011-3.519c0.244-0.241,0.493-0.483,0.745-0.724
		c0.995-0.953,2.577-0.922,3.535,0.068c0.957,0.991,0.926,2.566-0.069,3.519c-0.232,0.222-0.461,0.445-0.686,0.667
		C38.304,46.247,37.667,46.488,37.03,46.488z M43.76,40.528c-0.718,0-1.43-0.306-1.925-0.898c-0.882-1.057-0.736-2.625,0.326-3.504
		l0.774-0.639c1.063-0.876,2.64-0.727,3.52,0.331c0.88,1.059,0.731,2.627-0.333,3.503l-0.767,0.633
		C44.889,40.34,44.323,40.528,43.76,40.528z M50.683,34.787c-0.701,0-1.397-0.291-1.892-0.86c-0.903-1.04-0.79-2.61,0.255-3.51
		l0.738-0.641C50.82,28.869,52.4,28.968,53.312,30c0.912,1.031,0.812,2.604-0.225,3.512l-0.771,0.669
		C51.845,34.587,51.262,34.787,50.683,34.787z M57.1,28.509c-0.565,0-1.134-0.19-1.602-0.58c-1.059-0.88-1.2-2.45-0.314-3.504
		c0.197-0.234,0.388-0.471,0.573-0.707c0.849-1.083,2.419-1.28,3.508-0.436c1.09,0.844,1.286,2.408,0.438,3.492
		c-0.22,0.281-0.448,0.562-0.683,0.843C58.525,28.206,57.815,28.509,57.1,28.509z M61.039,20.614c-0.089,0-0.178-0.004-0.269-0.014
		c-1.373-0.146-2.367-1.372-2.22-2.738c0.026-0.241,0.04-0.482,0.04-0.724c0-1.374,1.119-2.488,2.5-2.488s2.5,1.114,2.5,2.488
		c0,0.411-0.022,0.832-0.067,1.252C63.385,19.666,62.301,20.614,61.039,20.614z"/>
	<path fill="#F4EAAC" d="M31.526,30.776c-0.382,0-0.77-0.088-1.134-0.273c-1.23-0.624-1.719-2.122-1.091-3.346
		c0.17-0.333,0.354-0.666,0.548-0.997c0.696-1.187,2.227-1.586,3.419-0.894c1.192,0.693,1.594,2.217,0.898,3.403
		c-0.146,0.249-0.283,0.498-0.411,0.747C33.313,30.28,32.436,30.776,31.526,30.776z M37.03,23.731c-0.643,0-1.285-0.245-1.773-0.734
		c-0.973-0.975-0.968-2.551,0.011-3.519c0.244-0.241,0.493-0.483,0.745-0.724c0.995-0.954,2.577-0.922,3.535,0.068
		c0.957,0.99,0.926,2.565-0.069,3.518c-0.232,0.222-0.461,0.445-0.686,0.667C38.305,23.49,37.667,23.731,37.03,23.731z
		 M43.76,17.771c-0.718,0-1.43-0.306-1.925-0.898c-0.882-1.057-0.736-2.626,0.326-3.504l0.774-0.638
		c1.063-0.877,2.64-0.729,3.52,0.331c0.88,1.059,0.731,2.627-0.333,3.503l-0.767,0.633C44.889,17.583,44.323,17.771,43.76,17.771z
		 M50.682,12.03c-0.701,0-1.397-0.291-1.892-0.86c-0.903-1.039-0.79-2.61,0.255-3.51l0.738-0.641
		C50.82,6.111,52.4,6.21,53.312,7.242c0.912,1.032,0.812,2.604-0.225,3.512l-0.771,0.669C51.844,11.83,51.262,12.03,50.682,12.03z
		 M57.1,5.752c-0.565,0-1.134-0.19-1.602-0.58c-1.059-0.881-1.2-2.451-0.314-3.505c0.197-0.234,0.388-0.47,0.571-0.706
		c0.848-1.085,2.417-1.282,3.508-0.439c1.09,0.843,1.288,2.407,0.44,3.492c-0.22,0.282-0.448,0.563-0.684,0.844
		C58.525,5.448,57.815,5.752,57.1,5.752z"/>
	<path fill="#F4EAAC" d="M31.526,76.29c-0.382,0-0.77-0.088-1.134-0.272c-1.23-0.625-1.719-2.123-1.091-3.348
		c0.17-0.333,0.354-0.664,0.548-0.996c0.696-1.187,2.227-1.587,3.419-0.894c1.192,0.692,1.594,2.217,0.898,3.403
		c-0.146,0.248-0.283,0.498-0.411,0.747C33.313,75.793,32.436,76.29,31.526,76.29z M37.03,69.244c-0.643,0-1.285-0.245-1.773-0.733
		c-0.973-0.977-0.968-2.551,0.011-3.52c0.244-0.241,0.493-0.483,0.745-0.724c0.995-0.953,2.577-0.924,3.535,0.067
		c0.957,0.991,0.926,2.566-0.069,3.519c-0.232,0.222-0.461,0.445-0.686,0.668C38.305,69.003,37.667,69.244,37.03,69.244z
		 M43.761,63.284c-0.718,0-1.43-0.307-1.925-0.899c-0.882-1.057-0.736-2.625,0.326-3.503l0.774-0.639
		c1.063-0.876,2.639-0.728,3.52,0.331c0.88,1.059,0.731,2.627-0.333,3.504l-0.767,0.632C44.89,63.097,44.324,63.284,43.761,63.284z
		 M50.683,57.542c-0.701,0-1.397-0.291-1.892-0.86c-0.903-1.039-0.79-2.61,0.255-3.509l0.738-0.641
		c1.036-0.907,2.616-0.808,3.528,0.224c0.912,1.031,0.812,2.604-0.225,3.511l-0.771,0.669
		C51.845,57.343,51.262,57.542,50.683,57.542z M57.1,51.265c-0.565,0-1.134-0.19-1.602-0.579c-1.059-0.881-1.2-2.45-0.314-3.504
		c0.197-0.234,0.388-0.47,0.571-0.706c0.848-1.085,2.417-1.282,3.508-0.439c1.09,0.844,1.288,2.407,0.44,3.492
		c-0.22,0.282-0.448,0.564-0.684,0.845C58.525,50.961,57.815,51.265,57.1,51.265z M61.039,43.37c-0.089,0-0.178-0.004-0.269-0.014
		c-1.373-0.146-2.367-1.372-2.22-2.738c0.026-0.241,0.04-0.482,0.04-0.724c0-1.375,1.119-2.488,2.5-2.488s2.5,1.114,2.5,2.488
		c0,0.411-0.022,0.832-0.067,1.252C63.385,42.422,62.301,43.37,61.039,43.37z"/>
	<path fill="#F4EAAC" d="M37.03,92c-0.642,0-1.283-0.244-1.771-0.732c-0.974-0.973-0.971-2.549,0.007-3.519
		c0.245-0.243,0.495-0.486,0.749-0.729c0.996-0.95,2.58-0.919,3.535,0.072c0.956,0.992,0.923,2.567-0.073,3.519
		c-0.231,0.22-0.458,0.441-0.682,0.664C38.306,91.758,37.668,92,37.03,92z M43.76,86.041c-0.718,0-1.43-0.307-1.925-0.898
		c-0.882-1.057-0.736-2.625,0.326-3.503L42.936,81c1.063-0.876,2.64-0.729,3.52,0.331c0.88,1.058,0.731,2.628-0.333,3.503
		l-0.767,0.633C44.889,85.853,44.323,86.041,43.76,86.041z M50.682,80.301c-0.702,0-1.4-0.293-1.895-0.865
		c-0.901-1.04-0.784-2.612,0.262-3.508c0.247-0.213,0.491-0.425,0.732-0.637c1.036-0.909,2.616-0.811,3.529,0.22
		c0.914,1.03,0.815,2.603-0.22,3.512c-0.257,0.225-0.516,0.45-0.777,0.674C51.841,80.102,51.26,80.301,50.682,80.301z
		 M57.099,74.022c-0.564,0-1.131-0.188-1.598-0.577c-1.061-0.879-1.205-2.448-0.322-3.503c0.199-0.237,0.391-0.475,0.576-0.712
		c0.849-1.083,2.418-1.279,3.508-0.437c1.09,0.845,1.286,2.408,0.438,3.492c-0.219,0.279-0.445,0.56-0.68,0.84
		C58.527,73.718,57.816,74.022,57.099,74.022z M61.039,66.127c-0.089,0-0.178-0.004-0.269-0.014
		c-1.373-0.146-2.367-1.372-2.22-2.738c0.026-0.241,0.04-0.482,0.04-0.725c0-1.374,1.119-2.488,2.5-2.488s2.5,1.114,2.5,2.488
		c0,0.412-0.022,0.832-0.067,1.252C63.385,65.179,62.301,66.127,61.039,66.127z"/>
</g>
</svg>
