<?xml version="1.0" encoding="utf-8"?>
<!-- Generator: Adobe Illustrator 15.0.2, SVG Export Plug-In . SVG Version: 6.00 Build 0)  -->
<!DOCTYPE svg PUBLIC "-//W3C//DTD SVG 1.1//EN" "http://www.w3.org/Graphics/SVG/1.1/DTD/svg11.dtd">
<svg version="1.1" id="Layer_1" xmlns="http://www.w3.org/2000/svg" xmlns:xlink="http://www.w3.org/1999/xlink" x="0px" y="0px"
	 width="92px" height="92px" viewBox="0 0 92 92" enable-background="new 0 0 92 92" xml:space="preserve">
<g>
	<ellipse fill="#B68D26" cx="46" cy="46.495" rx="46" ry="45.505"/>
	<ellipse fill="#BF9930" cx="46" cy="45.506" rx="46" ry="45.505"/>
	<path fill="#F4EAAC" d="M43.046,85.231c-0.12,0-0.237-0.005-0.357-0.016l-0.023-0.002c-2.185-0.179-3.845-2.063-3.687-4.229
		c0.156-2.164,2.018-3.834,4.206-3.67c0.035,0.002,0.173,0.013,0.208,0.016c2.201,0.192,3.828,2.113,3.633,4.291
		C46.842,83.681,45.095,85.231,43.046,85.231z M54.781,84.292c-1.743,0-3.33-1.146-3.828-2.896c-0.597-2.103,0.672-4.297,2.8-4.889
		c0.047-0.013,0.189-0.049,0.236-0.061c2.153-0.512,4.311,0.791,4.831,2.915c0.521,2.123-0.798,4.264-2.945,4.777l-0.016,0.005
		C55.498,84.245,55.136,84.292,54.781,84.292z M31.46,82.353c-0.55,0-1.109-0.113-1.645-0.352l-0.019-0.01
		c-2.005-0.882-2.942-3.205-2.074-5.197c0.872-1.992,3.177-2.929,5.197-2.09c0.033,0.014,0.156,0.068,0.189,0.082
		c2.014,0.9,2.909,3.244,2,5.236C34.442,81.485,32.985,82.353,31.46,82.353z M65.779,79.553c-1.305,0-2.584-0.63-3.354-1.789
		c-1.209-1.828-0.691-4.282,1.156-5.48c0.012-0.007,0.102-0.065,0.111-0.071c1.859-1.183,4.336-0.649,5.529,1.188
		c1.195,1.84,0.658,4.289-1.203,5.47l-0.051,0.036C67.293,79.344,66.531,79.553,65.779,79.553z M21.416,75.882
		c-0.949,0-1.899-0.339-2.659-1.03l-0.072-0.066c-1.628-1.479-1.733-3.982-0.237-5.593c1.496-1.606,4.027-1.711,5.653-0.232
		c1.625,1.48,1.769,4.017,0.272,5.627C23.576,75.442,22.496,75.882,21.416,75.882z M74.57,71.574c-0.852,0-1.707-0.269-2.434-0.82
		c-1.754-1.335-2.084-3.819-0.734-5.552c0.004-0.006,0.07-0.089,0.076-0.094c1.354-1.726,3.867-2.039,5.613-0.694
		c1.744,1.342,2.057,3.829,0.699,5.554l-0.045,0.06C76.957,71.042,75.77,71.574,74.57,71.574z M14.121,66.598
		c-1.43,0-2.813-0.762-3.534-2.097l-0.019-0.038c-1.059-1.917-0.354-4.323,1.58-5.374c1.932-1.049,4.361-0.36,5.425,1.551
		c0.01,0.016,0.066,0.119,0.074,0.136c1.042,1.928,0.302,4.327-1.647,5.354C15.4,66.445,14.756,66.598,14.121,66.598z
		 M80.287,61.207c-0.428,0-0.869-0.069-1.299-0.216c-2.092-0.711-3.201-2.963-2.484-5.03c0.719-2.067,3.01-3.215,5.1-2.503
		c2.092,0.711,3.219,2.917,2.502,4.984l-0.033,0.092C83.5,60.176,81.949,61.207,80.287,61.207z M10.229,55.453
		c-1.901,0-3.59-1.354-3.942-3.266c-0.008-0.045-0.031-0.186-0.037-0.229c-0.322-2.164,1.189-4.174,3.376-4.492
		c2.182-0.32,4.218,1.177,4.54,3.339c0.396,2.151-1.048,4.194-3.223,4.585C10.702,55.433,10.463,55.453,10.229,55.453z
		 M82.275,49.561c-2.211,0-4.002-1.772-4.002-3.958c0-0.023,0-0.048,0.002-0.072c-0.002-0.023-0.002-0.048-0.002-0.073
		c0-2.186,1.791-4.006,4.002-4.006c2.209,0,4,1.723,4,3.909v0.097c0,0.009,0,0.016,0,0.024c0,0,0,0.016,0,0.023v0.097
		C86.275,47.789,84.484,49.561,82.275,49.561z M10.201,43.606c-0.207,0-0.414-0.016-0.625-0.048
		c-2.171-0.342-3.662-2.33-3.333-4.481c0.004-0.018,0.014-0.08,0.016-0.097c0.359-2.143,2.413-3.624,4.57-3.291
		c2.17,0.337,3.665,2.312,3.344,4.461c-0.002,0.023-0.015,0.099-0.019,0.123C13.83,42.212,12.128,43.606,10.201,43.606z
		 M80.307,37.774c-1.662,0-3.213-1.031-3.785-2.672c-0.717-2.067,0.377-4.365,2.471-5.076c2.086-0.711,4.348,0.343,5.066,2.411
		l0.033,0.092c0.717,2.067-0.395,4.32-2.484,5.03C81.176,37.705,80.738,37.774,80.307,37.774z M14.04,32.4
		c-0.626,0-1.259-0.146-1.85-0.457c-1.95-1.028-2.709-3.383-1.67-5.312l0.047-0.085c1.039-1.932,3.461-2.663,5.413-1.629
		c1.95,1.027,2.689,3.425,1.647,5.354C16.902,31.616,15.49,32.4,14.04,32.4z M74.592,27.389c-1.16,0-2.309-0.498-3.094-1.462
		c-0.016-0.02-0.094-0.116-0.109-0.134c-1.355-1.727-1.041-4.212,0.701-5.555c1.744-1.343,4.26-1.031,5.615,0.694l0.021,0.027
		c1.367,1.709,1.09,4.2-0.629,5.56C76.357,27.105,75.473,27.389,74.592,27.389z M21.367,23.121c-1.081,0-2.157-0.43-2.946-1.277
		c-1.496-1.611-1.391-4.114,0.237-5.593l0.021-0.021c1.608-1.482,4.14-1.421,5.652,0.16c1.513,1.581,1.463,4.059-0.125,5.565
		c-0.019,0.019-0.111,0.104-0.131,0.122C23.305,22.775,22.334,23.121,21.367,23.121z M65.818,19.405
		c-0.752,0-1.512-0.208-2.188-0.646c-1.844-1.194-2.404-3.665-1.207-5.491c1.201-1.829,3.623-2.379,5.479-1.202
		c0.012,0.007,0.104,0.065,0.111,0.072c1.85,1.198,2.367,3.652,1.154,5.48C68.4,18.776,67.121,19.405,65.818,19.405z M31.404,16.596
		c-1.542,0-3.023-0.867-3.685-2.34c-0.889-1.989-0.035-4.293,1.968-5.189c0.02-0.009,0.127-0.056,0.147-0.064
		c2.028-0.868,4.384,0.052,5.26,2.058c0.879,2.005-0.052,4.336-2.079,5.205C32.493,16.49,31.943,16.596,31.404,16.596z
		 M54.892,14.666c-0.359,0-0.722-0.048-1.086-0.149c-2.147-0.515-3.445-2.649-2.923-4.772c0.52-2.125,2.71-3.423,4.854-2.908
		c0.046,0.011,0.189,0.048,0.236,0.061c2.127,0.59,3.365,2.776,2.767,4.881C58.245,13.525,56.64,14.666,54.892,14.666z
		 M42.891,13.708c-2.051,0-3.798-1.551-3.981-3.61C38.717,7.921,40.344,6,42.543,5.807l0.088-0.008
		c2.197-0.2,4.147,1.407,4.347,3.583c0.201,2.177-1.42,4.103-3.622,4.3c-0.004,0.001-0.106,0.01-0.11,0.01
		C43.128,13.704,43.009,13.708,42.891,13.708z"/>
	<path fill="#EBDB8A" d="M43.933,74.191c-0.086,0-0.172-0.004-0.258-0.012l-0.018-0.002c-1.576-0.13-2.776-1.49-2.663-3.053
		c0.114-1.562,1.459-2.769,3.039-2.65c0.025,0.002,0.125,0.01,0.15,0.012c1.588,0.138,2.764,1.524,2.624,3.098
		C46.674,73.07,45.415,74.191,43.933,74.191z M52.406,73.513c-1.259,0-2.403-0.829-2.762-2.091c-0.432-1.52,0.484-3.104,2.021-3.53
		c0.033-0.009,0.137-0.035,0.17-0.043c1.554-0.37,3.112,0.57,3.489,2.103c0.376,1.534-0.579,3.079-2.126,3.45l-0.012,0.004
		C52.923,73.478,52.664,73.513,52.406,73.513z M35.567,72.111c-0.396,0-0.801-0.081-1.187-0.254l-0.014-0.007
		c-1.448-0.636-2.124-2.314-1.497-3.751c0.629-1.439,2.294-2.115,3.751-1.51c0.025,0.01,0.115,0.049,0.139,0.059
		c1.454,0.649,2.1,2.342,1.443,3.781C37.72,71.485,36.669,72.111,35.567,72.111z M60.347,70.089c-0.942,0-1.866-0.454-2.419-1.291
		c-0.875-1.319-0.502-3.091,0.832-3.957c0.008-0.005,0.074-0.047,0.08-0.052c1.343-0.853,3.132-0.468,3.994,0.858
		c0.863,1.329,0.475,3.096-0.867,3.949l-0.041,0.025C61.439,69.939,60.891,70.089,60.347,70.089z M28.314,67.44
		c-0.685,0-1.37-0.245-1.919-0.744l-0.052-0.048c-1.174-1.069-1.251-2.876-0.17-4.038c1.08-1.161,2.907-1.236,4.082-0.169
		c1.174,1.068,1.277,2.9,0.197,4.062C29.875,67.121,29.095,67.44,28.314,67.44z M66.693,64.329c-0.613,0-1.232-0.193-1.758-0.594
		c-1.264-0.961-1.502-2.756-0.529-4.007c0.004-0.005,0.051-0.065,0.055-0.069c0.979-1.245,2.793-1.473,4.055-0.5
		c1.258,0.968,1.486,2.762,0.506,4.009l-0.033,0.045C68.418,63.944,67.562,64.329,66.693,64.329z M23.047,60.735
		c-1.032,0-2.032-0.55-2.551-1.514l-0.014-0.026c-0.765-1.383-0.257-3.122,1.141-3.88c1.395-0.757,3.149-0.26,3.917,1.121
		c0.008,0.011,0.049,0.084,0.055,0.096c0.751,1.393,0.219,3.125-1.189,3.867C23.97,60.626,23.505,60.735,23.047,60.735z
		 M70.822,56.844c-0.311,0-0.627-0.05-0.938-0.156c-1.51-0.513-2.311-2.14-1.793-3.632c0.52-1.492,2.174-2.322,3.682-1.808
		s2.322,2.106,1.805,3.6l-0.023,0.067C73.145,56.099,72.023,56.844,70.822,56.844z M20.237,52.689c-1.371,0-2.592-0.977-2.846-2.36
		c-0.006-0.032-0.023-0.133-0.027-0.166c-0.232-1.561,0.86-3.014,2.438-3.243c1.574-0.23,3.046,0.851,3.278,2.412
		c0.285,1.553-0.758,3.029-2.329,3.31C20.579,52.673,20.408,52.689,20.237,52.689z M72.26,48.436c-1.598,0-2.891-1.28-2.891-2.858
		c0-0.018,0-0.035,0-0.053c0-0.017,0-0.034,0-0.052c0-1.579,1.293-2.894,2.891-2.894c1.594,0,2.889,1.244,2.889,2.822v0.072v0.018
		c0,0.005,0,0.011,0,0.016v0.072C75.148,47.155,73.854,48.436,72.26,48.436z M20.218,44.135c-0.148,0-0.299-0.011-0.451-0.034
		c-1.569-0.246-2.644-1.683-2.407-3.235c0.002-0.014,0.01-0.059,0.012-0.072c0.257-1.548,1.743-2.616,3.3-2.375
		c1.566,0.241,2.645,1.67,2.414,3.22c-0.002,0.017-0.011,0.073-0.013,0.089C22.837,43.129,21.609,44.135,20.218,44.135z
		 M70.836,39.924c-1.199,0-2.318-0.746-2.73-1.93c-0.52-1.493,0.273-3.152,1.781-3.665c1.508-0.514,3.139,0.247,3.658,1.739
		l0.023,0.068c0.518,1.492-0.283,3.117-1.793,3.63C71.467,39.874,71.148,39.924,70.836,39.924z M22.99,36.044
		c-0.453,0-0.91-0.107-1.337-0.331c-1.408-0.743-1.958-2.443-1.205-3.835l0.034-0.062c0.75-1.394,2.499-1.921,3.909-1.178
		c1.407,0.744,1.94,2.476,1.19,3.868C25.055,35.477,24.035,36.044,22.99,36.044z M66.711,32.426c-0.836,0-1.668-0.36-2.236-1.058
		c-0.01-0.014-0.066-0.083-0.076-0.097c-0.98-1.246-0.754-3.041,0.506-4.01c1.262-0.969,3.076-0.744,4.055,0.5l0.016,0.02
		c0.986,1.235,0.787,3.033-0.457,4.015C67.984,32.218,67.346,32.426,66.711,32.426z M28.279,29.344c-0.78,0-1.557-0.311-2.125-0.923
		c-1.081-1.163-1.005-2.969,0.169-4.038l0.016-0.016c1.16-1.071,2.989-1.025,4.081,0.117c1.09,1.14,1.057,2.93-0.09,4.019
		c-0.015,0.013-0.08,0.075-0.096,0.086C29.68,29.094,28.978,29.344,28.279,29.344z M60.376,26.661c-0.543,0-1.093-0.151-1.581-0.468
		c-1.33-0.862-1.737-2.646-0.872-3.966c0.866-1.319,2.619-1.718,3.957-0.866c0.008,0.004,0.074,0.046,0.082,0.051
		c1.334,0.867,1.707,2.637,0.832,3.957C62.24,26.207,61.318,26.661,60.376,26.661z M35.526,24.631c-1.113,0-2.184-0.626-2.659-1.688
		c-0.642-1.436-0.025-3.102,1.421-3.747c0.014-0.006,0.092-0.041,0.105-0.047c1.463-0.626,3.165,0.039,3.798,1.486
		c0.635,1.449-0.037,3.131-1.5,3.759C36.312,24.555,35.917,24.631,35.526,24.631z M52.486,23.238c-0.258,0-0.521-0.035-0.784-0.108
		c-1.548-0.371-2.486-1.911-2.109-3.446c0.375-1.535,1.955-2.473,3.504-2.1c0.034,0.009,0.137,0.035,0.17,0.044
		c1.535,0.427,2.43,2.005,1.998,3.524C54.908,22.414,53.748,23.238,52.486,23.238z M43.821,22.546c-1.48,0-2.743-1.119-2.874-2.607
		c-0.141-1.571,1.033-2.959,2.624-3.097l0.062-0.006c1.586-0.144,2.995,1.016,3.139,2.587c0.145,1.572-1.027,2.963-2.615,3.106
		c-0.004,0-0.076,0.005-0.081,0.005C43.992,22.542,43.906,22.546,43.821,22.546z"/>
	<path fill="#E1CC6C" d="M44.626,65.556c-0.061,0-0.12-0.002-0.18-0.008l-0.011-0.002c-1.104-0.089-1.942-1.041-1.862-2.133
		c0.079-1.093,1.02-1.936,2.124-1.853c0.018,0.001,0.086,0.007,0.105,0.009c1.111,0.096,1.931,1.066,1.833,2.164
		C46.543,64.773,45.662,65.556,44.626,65.556z M50.55,65.083c-0.881,0-1.682-0.58-1.932-1.462c-0.3-1.062,0.34-2.17,1.413-2.467
		c0.025-0.007,0.095-0.025,0.119-0.031c1.086-0.26,2.177,0.399,2.438,1.471c0.264,1.072-0.402,2.152-1.485,2.411l-0.01,0.002
		C50.911,65.057,50.728,65.083,50.55,65.083z M38.779,64.104c-0.277,0-0.559-0.058-0.831-0.179l-0.01-0.005
		c-1.012-0.442-1.485-1.618-1.045-2.621c0.44-1.007,1.603-1.478,2.623-1.055c0.017,0.006,0.08,0.033,0.096,0.04
		c1.018,0.455,1.468,1.636,1.01,2.643C40.284,63.666,39.549,64.104,38.779,64.104z M56.1,62.689c-0.659,0-1.305-0.317-1.692-0.903
		c-0.612-0.923-0.35-2.16,0.582-2.765c0.005-0.002,0.053-0.033,0.057-0.036c0.938-0.598,2.188-0.328,2.792,0.6
		c0.601,0.93,0.33,2.165-0.608,2.76l-0.027,0.019C56.864,62.584,56.479,62.689,56.1,62.689z M33.71,60.836
		c-0.479,0-0.958-0.17-1.34-0.518l-0.038-0.035c-0.822-0.747-0.875-2.011-0.119-2.823c0.753-0.81,2.032-0.862,2.852-0.117
		s0.893,2.027,0.137,2.839C34.799,60.614,34.256,60.836,33.71,60.836z M60.537,58.662c-0.43,0-0.863-0.135-1.229-0.413
		c-0.885-0.674-1.051-1.927-0.372-2.802c0.004-0.002,0.036-0.044,0.038-0.047c0.686-0.871,1.954-1.029,2.833-0.35
		c0.879,0.677,1.041,1.931,0.355,2.802l-0.023,0.03C61.74,58.393,61.143,58.662,60.537,58.662z M30.029,56.151
		c-0.723,0-1.421-0.384-1.784-1.059l-0.01-0.02c-0.535-0.966-0.179-2.181,0.797-2.712c0.975-0.528,2.2-0.181,2.737,0.784
		c0.006,0.008,0.036,0.06,0.04,0.068c0.523,0.973,0.152,2.184-0.833,2.703C30.673,56.075,30.35,56.151,30.029,56.151z
		 M63.422,53.431c-0.215,0-0.439-0.034-0.656-0.109c-1.055-0.358-1.615-1.494-1.252-2.538c0.361-1.044,1.518-1.623,2.572-1.264
		c1.057,0.359,1.623,1.472,1.262,2.517l-0.016,0.046C65.043,52.912,64.262,53.431,63.422,53.431z M28.064,50.527
		c-0.959,0-1.811-0.683-1.989-1.649c-0.004-0.022-0.015-0.093-0.019-0.116c-0.162-1.091,0.602-2.107,1.703-2.267
		c1.103-0.16,2.13,0.593,2.292,1.686c0.201,1.086-0.53,2.116-1.628,2.313C28.304,50.517,28.183,50.527,28.064,50.527z
		 M64.424,47.554c-1.115,0-2.018-0.895-2.018-1.998c0-0.012,0-0.023,0-0.038c0-0.011,0-0.022,0-0.035
		c0-1.103,0.902-2.023,2.018-2.023s2.02,0.87,2.02,1.973v0.05c0,0,0,0.007,0,0.013v0.01v0.05
		C66.443,46.659,65.539,47.554,64.424,47.554z M28.05,44.549c-0.104,0-0.209-0.009-0.315-0.025
		c-1.096-0.172-1.848-1.175-1.682-2.262c0.002-0.009,0.006-0.04,0.008-0.05c0.18-1.08,1.216-1.827,2.307-1.659
		c1.093,0.17,1.848,1.167,1.688,2.25c-0.002,0.011-0.01,0.05-0.012,0.062C29.882,43.846,29.022,44.549,28.05,44.549z M63.432,41.606
		c-0.84,0-1.621-0.522-1.91-1.349c-0.365-1.044,0.191-2.204,1.246-2.562c1.053-0.359,2.193,0.173,2.557,1.215l0.016,0.048
		c0.363,1.044-0.195,2.18-1.252,2.538C63.873,41.57,63.648,41.606,63.432,41.606z M29.988,38.892c-0.316,0-0.637-0.074-0.935-0.229
		c-0.984-0.52-1.367-1.708-0.841-2.681l0.023-0.045c0.524-0.973,1.747-1.343,2.731-0.823c0.985,0.52,1.358,1.731,0.833,2.704
		C31.432,38.498,30.719,38.892,29.988,38.892z M60.549,36.365c-0.586,0-1.167-0.253-1.563-0.74c-0.008-0.01-0.047-0.058-0.055-0.068
		c-0.684-0.87-0.525-2.124,0.355-2.802c0.879-0.679,2.147-0.521,2.833,0.349l0.01,0.014c0.688,0.862,0.549,2.119-0.316,2.805
		C61.438,36.221,60.992,36.365,60.549,36.365z M33.684,34.21c-0.543,0-1.088-0.218-1.485-0.646
		c-0.756-0.811-0.703-2.076,0.118-2.822l0.011-0.012c0.813-0.748,2.088-0.717,2.852,0.082c0.762,0.797,0.739,2.049-0.062,2.808
		c-0.009,0.01-0.057,0.053-0.066,0.062C34.665,34.035,34.175,34.21,33.684,34.21z M56.12,32.334c-0.379,0-0.763-0.106-1.105-0.326
		c-0.929-0.604-1.215-1.849-0.609-2.771c0.605-0.923,1.829-1.202,2.766-0.606c0.004,0.002,0.051,0.034,0.057,0.037
		c0.932,0.604,1.192,1.842,0.582,2.765C57.422,32.017,56.778,32.334,56.12,32.334z M38.752,30.917c-0.78,0-1.528-0.438-1.86-1.18
		c-0.449-1.003-0.017-2.168,0.993-2.62c0.01-0.003,0.064-0.028,0.075-0.033c1.023-0.438,2.211,0.028,2.654,1.039
		c0.443,1.012-0.025,2.189-1.049,2.627C39.301,30.863,39.023,30.917,38.752,30.917z M50.604,29.942c-0.18,0-0.364-0.024-0.547-0.075
		c-1.084-0.26-1.738-1.337-1.474-2.41c0.261-1.072,1.367-1.727,2.449-1.468c0.023,0.006,0.095,0.025,0.119,0.031
		c1.073,0.297,1.698,1.402,1.397,2.465C52.298,29.367,51.487,29.942,50.604,29.942z M44.548,29.459
		c-1.033,0-1.916-0.782-2.008-1.823c-0.1-1.098,0.723-2.067,1.834-2.164l0.042-0.004c1.11-0.102,2.094,0.709,2.193,1.806
		c0.102,1.099-0.716,2.072-1.826,2.171c-0.004,0-0.055,0.004-0.057,0.004C44.667,29.456,44.606,29.459,44.548,29.459z"/>
	<path fill="#D7BD4E" d="M45.199,58.437c-0.039,0-0.079-0.001-0.116-0.006h-0.007c-0.714-0.058-1.253-0.671-1.202-1.376
		c0.051-0.705,0.659-1.248,1.37-1.194c0.012,0,0.057,0.004,0.068,0.006c0.715,0.062,1.245,0.687,1.182,1.394
		C46.434,57.932,45.865,58.437,45.199,58.437z M49.019,58.131c-0.568,0-1.084-0.374-1.248-0.943c-0.193-0.685,0.22-1.399,0.911-1.59
		c0.018-0.004,0.062-0.016,0.079-0.02c0.701-0.167,1.402,0.257,1.572,0.948c0.17,0.691-0.26,1.389-0.959,1.554l-0.004,0.002
		C49.25,58.115,49.134,58.131,49.019,58.131z M41.428,57.5c-0.18,0-0.361-0.038-0.536-0.115l-0.007-0.003
		c-0.653-0.287-0.957-1.044-0.674-1.69c0.283-0.651,1.033-0.955,1.692-0.681c0.009,0.002,0.051,0.021,0.062,0.025
		c0.654,0.293,0.947,1.056,0.648,1.706C42.397,57.217,41.925,57.5,41.428,57.5z M52.597,56.589c-0.424,0-0.84-0.206-1.091-0.583
		c-0.394-0.594-0.226-1.394,0.376-1.784c0.003-0.002,0.033-0.022,0.037-0.024c0.604-0.384,1.412-0.21,1.8,0.387
		c0.388,0.601,0.212,1.398-0.391,1.783l-0.02,0.011C53.09,56.519,52.841,56.589,52.597,56.589z M38.158,55.393
		c-0.307,0-0.617-0.109-0.864-0.335l-0.026-0.021c-0.529-0.481-0.562-1.296-0.076-1.82s1.311-0.556,1.84-0.076
		c0.529,0.481,0.575,1.306,0.087,1.83C38.861,55.25,38.511,55.393,38.158,55.393z M55.457,53.992c-0.275,0-0.555-0.087-0.791-0.267
		c-0.57-0.435-0.678-1.243-0.239-1.808c0.002-0.001,0.022-0.029,0.024-0.03c0.441-0.562,1.261-0.664,1.829-0.226
		c0.566,0.438,0.668,1.246,0.227,1.808l-0.014,0.02C56.235,53.817,55.848,53.992,55.457,53.992z M35.784,52.372
		c-0.465,0-0.917-0.248-1.15-0.682l-0.006-0.014c-0.346-0.623-0.116-1.406,0.514-1.75c0.629-0.34,1.418-0.116,1.766,0.505
		c0.004,0.005,0.021,0.041,0.025,0.045c0.338,0.626,0.098,1.408-0.537,1.742C36.2,52.322,35.992,52.372,35.784,52.372z
		 M57.319,50.617c-0.139,0-0.284-0.021-0.422-0.07c-0.682-0.231-1.043-0.963-0.809-1.637c0.235-0.673,0.979-1.046,1.66-0.814
		c0.679,0.232,1.045,0.949,0.812,1.623l-0.011,0.03C58.366,50.282,57.86,50.617,57.319,50.617z M34.516,48.745
		c-0.617,0-1.166-0.44-1.281-1.062c-0.002-0.015-0.012-0.06-0.012-0.076c-0.106-0.704,0.387-1.359,1.098-1.462
		c0.711-0.104,1.374,0.383,1.478,1.086c0.129,0.7-0.34,1.365-1.049,1.494C34.672,48.738,34.595,48.745,34.516,48.745z
		 M57.966,46.828c-0.719,0-1.301-0.576-1.301-1.289c0-0.008,0-0.016,0-0.024c0-0.007,0-0.014,0-0.014
		c0-0.72,0.582-1.312,1.301-1.312c0.718,0,1.302,0.56,1.302,1.271v0.033v0.009v0.005v0.033
		C59.268,46.251,58.684,46.828,57.966,46.828z M34.508,44.889c-0.066,0-0.134-0.005-0.203-0.015
		c-0.708-0.113-1.192-0.758-1.085-1.46c0-0.006,0.004-0.026,0.004-0.032c0.117-0.696,0.785-1.177,1.488-1.069
		c0.706,0.11,1.192,0.752,1.089,1.452c0,0.008-0.006,0.032-0.008,0.04C35.688,44.436,35.136,44.889,34.508,44.889z M57.325,42.991
		c-0.542,0-1.045-0.336-1.231-0.869c-0.234-0.674,0.123-1.422,0.803-1.652c0.68-0.231,1.414,0.111,1.65,0.782l0.009,0.031
		c0.233,0.674-0.129,1.406-0.809,1.637C57.608,42.968,57.466,42.991,57.325,42.991z M35.759,41.242
		c-0.205,0-0.411-0.048-0.602-0.148c-0.635-0.335-0.882-1.101-0.545-1.73l0.016-0.029c0.337-0.627,1.127-0.864,1.762-0.53
		c0.635,0.336,0.875,1.116,0.535,1.745C36.689,40.988,36.229,41.242,35.759,41.242z M55.464,39.611c-0.377,0-0.75-0.163-1.008-0.478
		c-0.004-0.006-0.03-0.036-0.033-0.042c-0.442-0.561-0.34-1.37,0.229-1.807c0.566-0.438,1.385-0.335,1.827,0.225l0.006,0.009
		c0.445,0.557,0.355,1.367-0.203,1.809C56.04,39.518,55.753,39.611,55.464,39.611z M38.142,38.222c-0.352,0-0.701-0.14-0.959-0.418
		c-0.486-0.522-0.451-1.336,0.079-1.818l0.006-0.008c0.523-0.481,1.348-0.462,1.84,0.053c0.49,0.513,0.477,1.32-0.041,1.81
		c-0.006,0.007-0.038,0.034-0.043,0.041C38.773,38.109,38.458,38.222,38.142,38.222z M52.611,37.014
		c-0.246,0-0.492-0.069-0.714-0.211c-0.599-0.389-0.783-1.195-0.393-1.79c0.391-0.596,1.182-0.773,1.785-0.391
		c0.004,0.002,0.034,0.022,0.038,0.024c0.601,0.389,0.768,1.188,0.375,1.784C53.451,36.809,53.035,37.014,52.611,37.014z
		 M41.411,36.098c-0.504,0-0.987-0.282-1.199-0.761c-0.289-0.646-0.012-1.397,0.639-1.689c0.006-0.001,0.042-0.019,0.048-0.02
		c0.661-0.282,1.426,0.017,1.713,0.669c0.285,0.653-0.017,1.412-0.678,1.693C41.765,36.063,41.585,36.098,41.411,36.098z
		 M49.053,35.47c-0.117,0-0.234-0.017-0.351-0.049c-0.699-0.168-1.123-0.861-0.952-1.553c0.168-0.691,0.882-1.114,1.579-0.947
		c0.016,0.004,0.062,0.018,0.076,0.021c0.693,0.192,1.095,0.905,0.902,1.589C50.146,35.098,49.622,35.47,49.053,35.47z
		 M45.148,35.158c-0.667,0-1.237-0.504-1.296-1.176c-0.064-0.708,0.467-1.332,1.183-1.395l0.029-0.003
		c0.715-0.066,1.35,0.458,1.413,1.166c0.067,0.711-0.462,1.335-1.177,1.401c-0.002,0-0.035,0.002-0.037,0.002
		C45.226,35.156,45.185,35.158,45.148,35.158z"/>
	<path fill="#C7A53A" d="M45.584,53.641c-0.026,0-0.049-0.001-0.072-0.003h-0.006c-0.447-0.036-0.787-0.423-0.753-0.865
		c0.031-0.444,0.413-0.785,0.861-0.752c0.006,0,0.036,0.002,0.042,0.004c0.45,0.039,0.784,0.433,0.744,0.877
		C46.36,53.323,46.003,53.641,45.584,53.641z M47.987,53.449c-0.358,0-0.683-0.235-0.785-0.594c-0.123-0.43,0.137-0.879,0.572-0.999
		c0.01-0.004,0.04-0.011,0.049-0.014c0.44-0.105,0.884,0.162,0.989,0.596c0.107,0.435-0.163,0.874-0.602,0.979h-0.004
		C48.134,53.438,48.06,53.449,47.987,53.449z M43.211,53.052c-0.113,0-0.228-0.022-0.337-0.072l-0.004-0.002
		c-0.41-0.18-0.602-0.657-0.424-1.063c0.178-0.409,0.651-0.601,1.065-0.428c0.006,0.002,0.031,0.013,0.039,0.016
		c0.412,0.183,0.596,0.665,0.408,1.072C43.821,52.875,43.525,53.052,43.211,53.052z M50.239,52.479
		c-0.267,0-0.529-0.129-0.688-0.367c-0.248-0.374-0.14-0.876,0.237-1.122c0.002-0.002,0.021-0.013,0.023-0.015
		c0.381-0.242,0.887-0.132,1.133,0.245c0.245,0.376,0.133,0.878-0.246,1.121l-0.012,0.006
		C50.548,52.436,50.391,52.479,50.239,52.479z M41.155,51.728c-0.194,0-0.389-0.07-0.545-0.211l-0.013-0.014
		c-0.334-0.303-0.355-0.816-0.049-1.146c0.307-0.329,0.825-0.351,1.157-0.047c0.333,0.302,0.363,0.822,0.056,1.153
		C41.596,51.637,41.375,51.728,41.155,51.728z M52.039,50.845c-0.174,0-0.35-0.056-0.499-0.168
		c-0.359-0.273-0.428-0.782-0.151-1.137l0.014-0.018c0.28-0.354,0.794-0.419,1.151-0.144c0.357,0.276,0.422,0.785,0.145,1.138
		l-0.01,0.012C52.527,50.734,52.283,50.845,52.039,50.845z M39.66,49.826c-0.292,0-0.577-0.156-0.723-0.429l-0.004-0.009
		c-0.216-0.392-0.072-0.885,0.325-1.1c0.395-0.214,0.891-0.074,1.11,0.317c0.002,0.004,0.013,0.025,0.015,0.029
		c0.213,0.395,0.062,0.885-0.338,1.095C39.924,49.795,39.791,49.826,39.66,49.826z M53.209,48.721c-0.088,0-0.179-0.013-0.266-0.043
		c-0.428-0.146-0.657-0.606-0.508-1.029c0.146-0.425,0.615-0.66,1.042-0.514c0.428,0.146,0.658,0.598,0.512,1.021l-0.006,0.019
		C53.867,48.511,53.548,48.721,53.209,48.721z M38.863,47.544c-0.388,0-0.734-0.277-0.806-0.669c0-0.009-0.006-0.037-0.008-0.047
		c-0.064-0.442,0.244-0.854,0.691-0.92c0.447-0.064,0.864,0.241,0.931,0.684c0.082,0.44-0.215,0.858-0.661,0.939
		C38.96,47.54,38.912,47.544,38.863,47.544z M53.615,46.338c-0.451,0-0.818-0.363-0.818-0.812v-0.014c0-0.005,0-0.009,0-0.015
		c0-0.448,0.367-0.821,0.818-0.821c0.453,0,0.82,0.354,0.82,0.8v0.021c0,0,0,0.002,0,0.006v0.002v0.021
		C54.435,45.975,54.068,46.338,53.615,46.338z M38.859,45.12c-0.043,0-0.086-0.004-0.129-0.011c-0.445-0.07-0.75-0.476-0.682-0.916
		l0.004-0.021c0.072-0.439,0.492-0.742,0.935-0.673s0.749,0.474,0.685,0.913c0,0.006-0.004,0.021-0.004,0.027
		C39.602,44.833,39.253,45.12,38.859,45.12z M53.213,43.925c-0.34,0-0.659-0.213-0.773-0.548c-0.149-0.424,0.076-0.894,0.504-1.039
		c0.427-0.147,0.891,0.07,1.038,0.493l0.006,0.02c0.146,0.423-0.082,0.886-0.51,1.031C53.391,43.91,53.3,43.925,53.213,43.925z
		 M39.645,42.823c-0.129,0-0.258-0.029-0.379-0.092c-0.399-0.211-0.555-0.694-0.342-1.088l0.01-0.017
		c0.213-0.396,0.71-0.545,1.108-0.334c0.401,0.211,0.551,0.702,0.338,1.096C40.23,42.663,39.941,42.823,39.645,42.823z
		 M52.042,41.799c-0.237,0-0.473-0.104-0.634-0.301c-0.004-0.003-0.02-0.022-0.023-0.027c-0.277-0.353-0.212-0.861,0.145-1.136
		c0.357-0.277,0.872-0.212,1.151,0.141l0.004,0.006c0.278,0.35,0.222,0.86-0.129,1.138C52.404,41.74,52.222,41.799,52.042,41.799z
		 M41.145,40.925c-0.221,0-0.442-0.088-0.604-0.263c-0.307-0.33-0.286-0.843,0.049-1.145l0.004-0.005
		c0.33-0.303,0.848-0.291,1.156,0.033c0.311,0.322,0.301,0.831-0.023,1.14c-0.006,0.003-0.023,0.021-0.027,0.025
		C41.542,40.854,41.342,40.925,41.145,40.925z M50.247,40.165c-0.154,0-0.311-0.044-0.449-0.133
		c-0.377-0.244-0.492-0.75-0.246-1.125c0.244-0.375,0.743-0.486,1.122-0.245c0.002,0.001,0.021,0.014,0.023,0.014
		c0.379,0.246,0.483,0.748,0.237,1.123C50.774,40.035,50.512,40.165,50.247,40.165z M43.2,39.588c-0.316,0-0.62-0.178-0.754-0.479
		c-0.182-0.407-0.007-0.879,0.403-1.062c0.004,0,0.025-0.012,0.029-0.013c0.416-0.178,0.897,0.011,1.079,0.421
		c0.179,0.41-0.012,0.888-0.426,1.065C43.423,39.565,43.31,39.588,43.2,39.588z M48.009,39.192c-0.072,0-0.146-0.011-0.222-0.03
		c-0.439-0.106-0.705-0.542-0.599-0.978c0.107-0.435,0.555-0.701,0.995-0.595c0.01,0.003,0.039,0.011,0.048,0.013
		c0.436,0.121,0.689,0.57,0.566,1C48.696,38.959,48.368,39.192,48.009,39.192z M45.552,38.996c-0.419,0-0.778-0.318-0.814-0.74
		c-0.042-0.444,0.294-0.838,0.742-0.877l0.02-0.002c0.449-0.041,0.848,0.288,0.889,0.733c0.042,0.446-0.292,0.842-0.74,0.882h-0.024
		C45.601,38.994,45.576,38.996,45.552,38.996z"/>
</g>
</svg>
