<?xml version="1.0" encoding="utf-8"?>
<!-- Generator: Adobe Illustrator 15.0.2, SVG Export Plug-In . SVG Version: 6.00 Build 0)  -->
<!DOCTYPE svg PUBLIC "-//W3C//DTD SVG 1.1//EN" "http://www.w3.org/Graphics/SVG/1.1/DTD/svg11.dtd">
<svg version="1.1" id="Layer_1" xmlns="http://www.w3.org/2000/svg" xmlns:xlink="http://www.w3.org/1999/xlink" x="0px" y="0px"
	 width="92px" height="92px" viewBox="0 0 92 92" enable-background="new 0 0 92 92" xml:space="preserve">
<rect fill="#6C0900" width="92" height="92"/>
<path fill="#CD4917" d="M91.573,71h-26c0-0.271-0.003-0.54-0.007-0.811l25.998-0.381C91.57,70.206,91.573,70.604,91.573,71z
	 M26.427,70.639h-26c0-0.399,0.003-0.797,0.009-1.191l25.997,0.383C26.429,70.098,26.427,70.367,26.427,70.639z M65.518,68.568
	c-0.012-0.258-0.024-0.514-0.041-0.771L91.428,66.2c0.025,0.409,0.047,0.817,0.064,1.229L65.518,68.568z M26.481,68.229
	L0.507,67.051c0.019-0.404,0.04-0.811,0.065-1.213l25.95,1.607C26.506,67.705,26.493,67.966,26.481,68.229z M65.354,66.188
	c-0.023-0.268-0.051-0.537-0.08-0.805l25.855-2.746c0.041,0.396,0.081,0.789,0.117,1.184L65.354,66.188z M26.645,65.861
	l-25.887-2.43c0.039-0.406,0.08-0.812,0.124-1.214l25.842,2.867C26.695,65.344,26.668,65.604,26.645,65.861z M65.079,63.816
	c-0.037-0.265-0.076-0.526-0.116-0.789l25.693-3.978c0.062,0.394,0.119,0.789,0.175,1.187L65.079,63.816z M26.921,63.546
	L1.193,59.79c0.06-0.412,0.124-0.821,0.191-1.229l25.652,4.236C26.996,63.047,26.958,63.296,26.921,63.546z M64.702,61.518
	c-0.052-0.262-0.103-0.523-0.156-0.785l25.459-5.275c0.081,0.389,0.158,0.777,0.231,1.169L64.702,61.518z M27.311,61.312
	L1.835,56.118c0.084-0.415,0.172-0.827,0.265-1.235l25.365,5.709C27.412,60.83,27.36,61.07,27.311,61.312z M64.204,59.223
	c-0.06-0.242-0.12-0.484-0.185-0.727l25.137-6.646c0.105,0.401,0.208,0.807,0.308,1.211L64.204,59.223z M27.817,59.152L2.699,52.438
	c0.109-0.408,0.222-0.812,0.338-1.215l24.978,7.219C27.947,58.678,27.881,58.915,27.817,59.152z M28.439,57.093L3.811,48.757
	c0.139-0.409,0.281-0.815,0.428-1.218l24.435,8.885C28.593,56.645,28.515,56.867,28.439,57.093z M63.611,57.061
	c-0.074-0.24-0.15-0.482-0.229-0.724l24.711-8.084c0.13,0.394,0.255,0.787,0.375,1.183L63.611,57.061z M29.178,55.129L5.187,45.107
	c0.17-0.407,0.345-0.812,0.524-1.213l23.737,10.609C29.356,54.711,29.266,54.919,29.178,55.129z M62.902,54.96
	c-0.084-0.226-0.172-0.448-0.26-0.671l24.15-9.629c0.158,0.395,0.312,0.794,0.462,1.195L62.902,54.96z M30.023,53.302L6.86,41.492
	c0.204-0.399,0.412-0.795,0.625-1.188l22.844,12.416C30.225,52.912,30.123,53.105,30.023,53.302z M62.09,52.986
	c-0.093-0.205-0.188-0.41-0.285-0.613l23.42-11.291c0.19,0.396,0.377,0.795,0.56,1.197L62.09,52.986z M30.965,51.622L8.854,37.943
	c0.238-0.385,0.481-0.768,0.729-1.145L31.31,51.08C31.192,51.259,31.078,51.439,30.965,51.622z M61.195,51.184
	c-0.106-0.197-0.217-0.395-0.329-0.588l22.493-13.039c0.223,0.381,0.438,0.768,0.65,1.155L61.195,51.184z M32.025,50.057
	L11.157,34.548c0.279-0.375,0.563-0.746,0.852-1.11L32.39,49.582C32.266,49.738,32.145,49.896,32.025,50.057z M60.189,49.497
	c-0.111-0.171-0.226-0.339-0.34-0.505L81.16,34.098c0.265,0.379,0.523,0.762,0.779,1.151L60.189,49.497z M33.161,48.666
	l-19.347-17.37c0.316-0.353,0.637-0.698,0.961-1.037l18.782,17.979C33.424,48.378,33.292,48.521,33.161,48.666z M59.133,48.029
	c-0.125-0.156-0.251-0.312-0.38-0.465L78.602,30.77c0.301,0.355,0.596,0.717,0.887,1.084L59.133,48.029z M34.39,47.422
	L16.802,28.273c0.352-0.323,0.708-0.641,1.07-0.951l16.942,19.722C34.671,47.168,34.53,47.294,34.39,47.422z M57.98,46.717
	c-0.115-0.119-0.233-0.238-0.354-0.354l18-18.762c0.359,0.344,0.714,0.696,1.061,1.057L57.98,46.717z M35.705,46.329L20.098,25.534
	c0.386-0.29,0.777-0.573,1.173-0.849l14.877,21.323C35.998,46.111,35.851,46.221,35.705,46.329z M56.854,45.671
	c-0.139-0.112-0.276-0.226-0.418-0.333l15.844-20.615c0.386,0.297,0.767,0.601,1.144,0.912L56.854,45.671z M37.1,45.387
	L23.661,23.129c0.405-0.244,0.814-0.482,1.228-0.714L37.6,45.098C37.431,45.189,37.264,45.288,37.1,45.387z M55.625,44.766
	c-0.135-0.09-0.271-0.176-0.412-0.259L68.54,22.182c0.437,0.26,0.864,0.528,1.287,0.804L55.625,44.766z M38.595,44.582
	L27.444,21.095c0.428-0.203,0.859-0.4,1.295-0.589l10.379,23.838C38.943,44.421,38.768,44.5,38.595,44.582z M54.371,44.049
	c-0.145-0.07-0.288-0.14-0.436-0.205l10.566-23.756c0.464,0.206,0.921,0.421,1.374,0.644L54.371,44.049z M40.205,43.912
	l-8.839-24.451c0.444-0.161,0.892-0.315,1.345-0.462l8.04,24.726C40.567,43.785,40.385,43.848,40.205,43.912z M53.02,43.479
	c-0.148-0.053-0.299-0.104-0.451-0.149l7.697-24.834c0.486,0.151,0.969,0.312,1.444,0.48L53.02,43.479z M41.905,43.387l-6.513-25.17
	c0.439-0.114,0.882-0.221,1.329-0.324l5.797,25.346C42.312,43.285,42.107,43.335,41.905,43.387z M51.57,43.061
	c-0.166-0.037-0.332-0.071-0.5-0.104l4.881-25.538c0.49,0.094,0.975,0.196,1.455,0.306L51.57,43.061z M43.727,43.002l-4.293-25.644
	c0.447-0.075,0.898-0.144,1.352-0.206l3.565,25.754C44.142,42.936,43.934,42.967,43.727,43.002z M50.001,42.791
	c-0.183-0.021-0.368-0.041-0.554-0.057l2.193-25.907c0.481,0.041,0.961,0.089,1.434,0.146L50.001,42.791z M45.646,42.762
	l-2.185-25.908c0.441-0.037,0.885-0.068,1.332-0.095l1.516,25.956C46.087,42.729,45.866,42.744,45.646,42.762z M48.288,42.676
	l-0.399-0.005l-0.227,0.001l-0.227-25.999l0.453-0.002c0.309,0,0.615,0.003,0.92,0.009L48.288,42.676z"/>
</svg>
