<?xml version="1.0" encoding="utf-8"?>
<!-- Generator: Adobe Illustrator 15.0.2, SVG Export Plug-In . SVG Version: 6.00 Build 0)  -->
<!DOCTYPE svg PUBLIC "-//W3C//DTD SVG 1.1//EN" "http://www.w3.org/Graphics/SVG/1.1/DTD/svg11.dtd">
<svg version="1.1" id="Layer_1" xmlns="http://www.w3.org/2000/svg" xmlns:xlink="http://www.w3.org/1999/xlink" x="0px" y="0px"
	 width="92px" height="92px" viewBox="0 0 92 92" enable-background="new 0 0 92 92" xml:space="preserve">
<circle fill="#4E7094" cx="46" cy="46" r="46"/>
<g>
	<g>
		<path fill="#6185A6" d="M46.317,18.996v5.644c2.062,0.003,4.13,0.031,6.184,0.085c-0.174-1.989-0.37-3.877-0.586-5.656
			C50.099,19.024,48.234,18.998,46.317,18.996z"/>
		<path fill="#6185A6" d="M46.317,13.825v4.569c1.842,0.002,3.689,0.027,5.526,0.075c-0.206-1.627-0.427-3.156-0.663-4.588
			C49.601,13.847,47.98,13.827,46.317,13.825z"/>
		<path fill="#6185A6" d="M46.317,25.241v6.021c2.22,0.002,4.445,0.031,6.656,0.083c-0.118-2.095-0.258-4.105-0.418-6.024
			C50.535,25.271,48.456,25.244,46.317,25.241z"/>
		<path fill="#6185A6" d="M46.317,54.005c2.307,0.002,4.625,0.025,6.931,0.069c0.071-2.407,0.109-4.901,0.115-7.479
			c-2.276-0.046-4.629-0.07-7.046-0.072V54.005z"/>
		<path fill="#6185A6" d="M46.317,9.334v3.888c1.587,0.002,3.179,0.022,4.762,0.059c-0.239-1.403-0.492-2.708-0.755-3.901
			C49.013,9.352,47.677,9.336,46.317,9.334z"/>
		<path fill="#6185A6" d="M46.317,70.177c1.79,0.001,3.788,0.015,5.904,0.043c0.246-2.356,0.458-4.88,0.63-7.551
			c-2.098-0.033-4.278-0.051-6.535-0.053V70.177z"/>
		<path fill="#6185A6" d="M46.317,38.583c2.312,0.001,4.639,0.024,6.953,0.067c-0.061-2.32-0.149-4.559-0.263-6.71
			c-2.162-0.048-4.394-0.074-6.69-0.076V38.583z"/>
		<path fill="#6185A6" d="M46.317,85.814c1.083,0.001,2.149,0.005,3.198,0.013c0.56-1.931,1.086-4.312,1.56-7.088
			c-1.521-0.018-3.111-0.027-4.758-0.028V85.814z"/>
		<path fill="#6185A6" d="M46.317,39.186v6.734c2.344,0.002,4.704,0.026,7.048,0.075c0-2.316-0.029-4.563-0.081-6.745
			C51.031,39.209,48.706,39.188,46.317,39.186z"/>
		<path fill="#6185A6" d="M46.317,78.109c0.726,0.001,2.503,0.008,4.858,0.04c0.365-2.211,0.694-4.666,0.982-7.336
			c-1.867-0.022-3.816-0.034-5.84-0.035V78.109z"/>
		<path fill="#6185A6" d="M46.317,62.014c2.225,0.002,4.419,0.021,6.575,0.056c0.146-2.354,0.258-4.827,0.338-7.396
			c-2.232-0.041-4.541-0.063-6.913-0.065V62.014z"/>
		<path fill="#6185A6" d="M46.317,86.416v5.222c1.026-0.31,2.064-2.128,3.016-5.211C48.359,86.42,47.353,86.417,46.317,86.416z"/>
		<path fill="#6185A6" d="M46.317,6.193v2.539c1.314,0.002,2.603,0.016,3.868,0.042c-0.213-0.918-0.432-1.772-0.656-2.55
			C48.487,6.206,47.416,6.195,46.317,6.193z"/>
		<path fill="#6185A6" d="M46.317,3.584v2.007c1.029,0.002,2.039,0.011,3.031,0.028c-0.229-0.746-0.463-1.42-0.702-2.015
			C47.89,3.592,47.112,3.586,46.317,3.584z"/>
		<path fill="#6185A6" d="M46.317,0.362v0.692c0.316,0,0.628,0.003,0.939,0.006C46.943,0.694,46.629,0.457,46.317,0.362z"/>
		<path fill="#6185A6" d="M46.317,2.982c0.701,0.001,1.392,0.006,2.073,0.017c-0.229-0.516-0.462-0.963-0.697-1.333
			c-0.452-0.006-0.912-0.009-1.375-0.01V2.982z"/>
	</g>
	<g>
		<path fill="#6185A6" d="M45.683,13.824c-1.665,0.002-3.285,0.022-4.864,0.057c-0.236,1.432-0.458,2.96-0.663,4.588
			c1.836-0.048,3.684-0.072,5.527-0.075V13.824z"/>
		<path fill="#6185A6" d="M45.683,9.334c-1.361,0.002-2.698,0.017-4.007,0.044c-0.265,1.194-0.517,2.499-0.756,3.902
			c1.583-0.036,3.174-0.056,4.763-0.058V9.334z"/>
		<path fill="#6185A6" d="M45.683,18.996c-1.919,0.002-3.783,0.028-5.599,0.073c-0.217,1.778-0.414,3.666-0.588,5.656
			c2.055-0.054,4.123-0.083,6.187-0.085V18.996z"/>
		<path fill="#6185A6" d="M45.683,0.362c-0.314,0.095-0.628,0.333-0.94,0.701c0.312-0.003,0.621-0.008,0.94-0.009V0.362z"/>
		<path fill="#6185A6" d="M45.683,25.241c-2.14,0.002-4.22,0.03-6.238,0.08c-0.162,1.918-0.302,3.929-0.418,6.024
			c2.21-0.052,4.436-0.081,6.657-0.083V25.241z"/>
		<path fill="#6185A6" d="M45.683,1.657c-0.467,0.001-0.926,0.005-1.376,0.012c-0.235,0.37-0.468,0.817-0.697,1.333
			c0.683-0.012,1.375-0.018,2.074-0.02V1.657z"/>
		<path fill="#6185A6" d="M45.683,3.585c-0.792,0.001-1.571,0.009-2.33,0.023c-0.239,0.595-0.473,1.27-0.702,2.016
			c0.996-0.02,2.006-0.031,3.032-0.033V3.585z"/>
		<path fill="#6185A6" d="M45.683,6.194c-1.099,0.001-2.169,0.014-3.214,0.035c-0.223,0.776-0.442,1.628-0.654,2.544
			c1.264-0.025,2.553-0.039,3.868-0.041V6.194z"/>
		<path fill="#6185A6" d="M45.683,31.864c-2.297,0.002-4.529,0.028-6.691,0.076c-0.115,2.151-0.203,4.39-0.265,6.71
			c2.314-0.043,4.642-0.065,6.956-0.067V31.864z"/>
		<path fill="#6185A6" d="M45.683,78.711c-1.648,0.001-3.237,0.011-4.759,0.028c0.474,2.775,1,5.157,1.562,7.088
			c1.049-0.008,2.115-0.012,3.198-0.013V78.711z"/>
		<path fill="#6185A6" d="M45.683,78.109v-7.331c-2.024,0.001-3.974,0.013-5.842,0.035c0.288,2.67,0.618,5.125,0.982,7.336
			C43.184,78.117,44.962,78.11,45.683,78.109z"/>
		<path fill="#6185A6" d="M42.667,86.427c0.952,3.081,1.989,4.899,3.017,5.211v-5.222C44.647,86.417,43.64,86.42,42.667,86.427z"/>
		<path fill="#6185A6" d="M45.683,62.014v-7.406c-2.374,0.002-4.683,0.024-6.916,0.065c0.08,2.569,0.194,5.042,0.34,7.396
			C41.261,62.034,43.458,62.016,45.683,62.014z"/>
		<path fill="#85A1BA" d="M45.683,46.522c-2.418,0.001-4.771,0.026-7.048,0.072c0.006,2.578,0.045,5.072,0.115,7.479
			c2.306-0.044,4.625-0.067,6.933-0.069V46.522z"/>
		<path fill="#6185A6" d="M45.683,39.186c-2.39,0.002-4.717,0.023-6.97,0.064c-0.052,2.181-0.081,4.429-0.081,6.745
			c2.346-0.049,4.705-0.073,7.051-0.075V39.186z"/>
		<path fill="#6185A6" d="M45.683,62.616c-2.257,0.002-4.439,0.02-6.537,0.053c0.173,2.671,0.385,5.194,0.63,7.551
			c2.118-0.028,4.116-0.042,5.907-0.043V62.616z"/>
	</g>
	<g>
		<path fill="#6185A6" d="M41.836,6.242c-1.051,0.025-2.077,0.06-3.07,0.103c-0.438,0.785-0.861,1.64-1.268,2.558
			c1.201-0.05,2.432-0.09,3.692-0.118C41.396,7.879,41.612,7.032,41.836,6.242z"/>
		<path fill="#6185A6" d="M41.056,9.39c-1.305,0.031-2.579,0.075-3.822,0.129c-0.514,1.213-1.002,2.53-1.459,3.941
			c1.497-0.07,3.012-0.125,4.538-0.165C40.544,11.91,40.792,10.605,41.056,9.39z"/>
		<path fill="#6185A6" d="M40.216,13.894c-1.593,0.039-3.138,0.093-4.636,0.162c-0.455,1.456-0.88,3.007-1.271,4.643
			c1.73-0.091,3.488-0.161,5.258-0.212C39.765,16.882,39.981,15.348,40.216,13.894z"/>
		<path fill="#6185A6" d="M39.493,19.082c-1.832,0.05-3.604,0.121-5.32,0.21c-0.416,1.802-0.791,3.701-1.122,5.686
			c1.928-0.102,3.887-0.182,5.863-0.238C39.084,22.787,39.277,20.892,39.493,19.082z"/>
		<path fill="#6185A6" d="M42.703,3.623c-0.751,0.018-1.485,0.041-2.203,0.07c-0.472,0.604-0.93,1.289-1.377,2.038
			c0.945-0.04,1.91-0.07,2.889-0.093C42.232,4.903,42.464,4.233,42.703,3.623z"/>
		<path fill="#6185A6" d="M38.033,46.608c-2.284,0.05-4.494,0.12-6.618,0.211c0.015,2.54,0.094,5.033,0.236,7.457
			c2.135-0.082,4.311-0.146,6.505-0.19C38.08,51.607,38.039,49.105,38.033,46.608z"/>
		<path fill="#6185A6" d="M43.609,1.683c-0.401,0.009-0.8,0.019-1.188,0.032c-0.48,0.379-0.949,0.833-1.407,1.357
			c0.636-0.023,1.28-0.042,1.933-0.057C43.161,2.519,43.382,2.075,43.609,1.683z"/>
		<path fill="#6185A6" d="M44.364,0.606c-0.341,0.12-0.677,0.288-1.01,0.48c0.215-0.005,0.424-0.012,0.645-0.016
			C44.118,0.9,44.241,0.745,44.364,0.606z"/>
		<path fill="#6185A6" d="M40.224,78.157c-0.365-2.265-0.689-4.727-0.966-7.336c-1.911,0.024-3.737,0.06-5.476,0.104
			c0.551,2.642,1.187,5.097,1.896,7.322C37.308,78.205,38.85,78.178,40.224,78.157z"/>
		<path fill="#6185A6" d="M40.321,78.747c-1.552,0.02-3.037,0.048-4.451,0.083c0.903,2.732,1.917,5.104,3.021,7.04
			c0.966-0.016,1.952-0.029,2.966-0.038C41.286,83.834,40.771,81.442,40.321,78.747z"/>
		<path fill="#6185A6" d="M39.235,86.464c1.565,2.574,3.297,4.287,5.13,4.931c-0.856-0.963-1.635-2.676-2.332-4.963
			C41.066,86.44,40.134,86.45,39.235,86.464z"/>
		<path fill="#6185A6" d="M38.564,62.679c-2.129,0.037-4.174,0.089-6.128,0.153c0.335,2.631,0.746,5.142,1.224,7.507
			c1.886-0.049,3.749-0.086,5.536-0.111C38.948,67.814,38.736,65.287,38.564,62.679z"/>
		<path fill="#6185A6" d="M38.03,45.999c0-2.245,0.031-4.499,0.088-6.737c-2.263,0.045-4.454,0.107-6.559,0.188
			c-0.099,2.139-0.151,4.327-0.151,6.549c0,0.073,0.001,0.145,0.002,0.218c2.174-0.091,4.389-0.16,6.619-0.209
			C38.03,46.005,38.03,46.002,38.03,45.999z"/>
		<path fill="#6185A6" d="M38.409,31.953c-2.18,0.052-4.286,0.127-6.313,0.222c-0.22,2.161-0.389,4.389-0.504,6.675
			c2.15-0.081,4.338-0.144,6.542-0.188C38.196,36.398,38.289,34.156,38.409,31.953z"/>
		<path fill="#6185A6" d="M38.863,25.334c-2.04,0.055-4.008,0.135-5.911,0.234c-0.31,1.933-0.576,3.945-0.797,6.022
			c2.066-0.099,4.167-0.176,6.287-0.23C38.557,29.305,38.698,27.291,38.863,25.334z"/>
		<path fill="#6185A6" d="M38.528,62.078c-0.152-2.414-0.269-4.889-0.353-7.394c-2.242,0.046-4.407,0.109-6.488,0.189
			c0.16,2.534,0.388,4.991,0.676,7.357C34.366,62.165,36.426,62.114,38.528,62.078z"/>
	</g>
	<g>
		<path fill="#6185A6" d="M28.836,4.843c-0.344,0.061-0.677,0.123-1.001,0.187c-1.253,0.69-2.469,1.453-3.646,2.277
			c0.503-0.099,1.031-0.194,1.571-0.286C26.754,6.236,27.782,5.512,28.836,4.843z"/>
		<path fill="#6185A6" d="M21.29,11.157c-0.837,0.158-1.621,0.325-2.353,0.5c-1.333,1.299-2.588,2.694-3.76,4.172
			c0.854-0.195,1.771-0.379,2.738-0.553C18.969,13.819,20.095,12.441,21.29,11.157z"/>
		<path fill="#6185A6" d="M24.799,7.804c-0.636,0.12-1.241,0.245-1.81,0.374c-1.113,0.839-2.189,1.734-3.22,2.688
			c0.698-0.153,1.44-0.299,2.218-0.438C22.891,9.503,23.827,8.624,24.799,7.804z"/>
		<path fill="#6185A6" d="M14.924,72.018c-0.939,0.106-1.764,0.214-2.476,0.324c1.637,2.567,3.506,4.937,5.572,7.076
			c0.539-0.093,1.136-0.181,1.787-0.26C17.994,76.987,16.355,74.598,14.924,72.018z"/>
		<path fill="#6185A6" d="M8.483,48.965c-1.294,0.228-2.446,0.464-3.443,0.707c0.177,2.447,0.527,4.84,1.039,7.164
			c0.957-0.229,2.044-0.442,3.246-0.644C8.894,53.846,8.611,51.432,8.483,48.965z"/>
		<path fill="#6185A6" d="M11.503,64.391c-1.105,0.155-2.082,0.316-2.92,0.479c0.999,2.437,2.187,4.756,3.538,6.941
			c0.74-0.129,1.578-0.249,2.499-0.36C13.422,69.223,12.376,66.863,11.503,64.391z"/>
		<path fill="#6185A6" d="M9.433,56.78c-1.213,0.197-2.292,0.401-3.223,0.611c0.553,2.385,1.273,4.692,2.149,6.911
			c0.809-0.167,1.781-0.336,2.94-0.504C10.532,61.543,9.904,59.199,9.433,56.78z"/>
		<path fill="#6185A6" d="M32.048,3.027c-0.81,0.326-1.604,0.687-2.39,1.067c0.188-0.03,0.376-0.06,0.568-0.088
			C30.826,3.662,31.433,3.332,32.048,3.027z"/>
		<path fill="#6185A6" d="M8.4,45.999c0-1.558,0.069-3.096,0.192-4.615c-1.323,0.208-2.5,0.426-3.525,0.649
			c-0.103,1.308-0.159,2.63-0.159,3.966c0,1.024,0.038,2.039,0.098,3.047c1.021-0.255,2.177-0.495,3.446-0.721
			C8.421,47.555,8.4,46.78,8.4,45.999z"/>
		<path fill="#6185A6" d="M27.555,86.305c-2.641-1.838-5.086-4.055-7.283-6.595c-0.651,0.072-1.238,0.145-1.754,0.219
			c2.504,2.508,5.285,4.678,8.286,6.449C27.025,86.354,27.276,86.329,27.555,86.305z"/>
		<path fill="#6185A6" d="M27.695,86.896c1.407,0.781,2.86,1.477,4.354,2.078c-1.271-0.628-2.506-1.34-3.705-2.128
			C28.116,86.862,27.898,86.879,27.695,86.896z"/>
		<path fill="#6185A6" d="M11.332,28.107c-1.279,0.278-2.434,0.57-3.459,0.871c-0.672,1.856-1.238,3.773-1.689,5.741
			c1.056-0.279,2.237-0.542,3.518-0.79C10.139,31.932,10.687,29.989,11.332,28.107z"/>
		<path fill="#6185A6" d="M9.574,34.542c-1.317,0.259-2.5,0.529-3.537,0.809c-0.425,1.974-0.729,4-0.915,6.063
			c1.049-0.233,2.227-0.452,3.52-0.657C8.836,38.638,9.153,36.564,9.574,34.542z"/>
		<path fill="#6185A6" d="M14.042,21.656c-1.187,0.255-2.268,0.521-3.242,0.797c-1.01,1.859-1.901,3.806-2.668,5.825
			c1.042-0.294,2.187-0.572,3.428-0.833C12.277,25.436,13.109,23.504,14.042,21.656z"/>
		<path fill="#6185A6" d="M17.435,15.948c-1.021,0.193-1.961,0.395-2.821,0.604c-1.235,1.626-2.369,3.351-3.394,5.159
			c0.978-0.262,2.036-0.51,3.174-0.743C15.316,19.209,16.333,17.532,17.435,15.948z"/>
	</g>
	<g>
		<path fill="#87A2BB" d="M55.346,9.554c0.51,1.217,0.995,2.532,1.45,3.935c1.387,0.069,2.753,0.152,4.093,0.247
			c-0.653-1.421-1.35-2.75-2.086-3.976C57.681,9.681,56.529,9.611,55.346,9.554z"/>
		<path fill="#6185A6" d="M59.632,25.598c0.312,1.935,0.583,3.945,0.807,6.021c1.907,0.096,3.778,0.211,5.604,0.344
			c-0.311-2.071-0.686-4.076-1.123-6.006C63.225,25.819,61.465,25.698,59.632,25.598z"/>
		<path fill="#6185A6" d="M56.989,14.084c0.458,1.461,0.885,3.014,1.277,4.647c1.601,0.089,3.182,0.193,4.723,0.316
			c-0.561-1.661-1.174-3.235-1.83-4.715C59.817,14.236,58.425,14.154,56.989,14.084z"/>
		<path fill="#6185A6" d="M60.945,54.301c1.957,0.079,3.877,0.174,5.74,0.283c0.211-2.411,0.334-4.891,0.363-7.42
			c-1.869-0.122-3.826-0.229-5.863-0.318C61.17,49.386,61.09,51.877,60.945,54.301z"/>
		<path fill="#8CA6BE" d="M58.912,70.354c1.615,0.043,3.24,0.096,4.848,0.159c0.689-2.341,1.281-4.826,1.768-7.429
			c-1.705-0.089-3.502-0.166-5.381-0.231C59.808,65.478,59.396,67.987,58.912,70.354z"/>
		<path fill="#6185A6" d="M61.008,38.872c1.979,0.078,3.922,0.171,5.812,0.279c-0.156-2.261-0.393-4.467-0.697-6.608
			c-1.797-0.13-3.67-0.244-5.621-0.339C60.725,34.362,60.891,36.591,61.008,38.872z"/>
		<path fill="#6185A6" d="M53.696,85.879c0.865,0.015,1.701,0.033,2.513,0.054c1.586-1.915,3.046-4.26,4.348-6.964
			c-1.224-0.047-2.513-0.09-3.869-0.125C55.793,81.548,54.788,83.915,53.696,85.879z"/>
		<path fill="#6185A6" d="M58.403,19.323c0.419,1.807,0.8,3.703,1.134,5.687c1.783,0.099,3.535,0.218,5.244,0.354
			c-0.467-1.994-0.998-3.907-1.592-5.72C61.654,19.521,60.057,19.414,58.403,19.323z"/>
		<path fill="#6185A6" d="M60.222,62.251c1.86,0.064,3.671,0.143,5.417,0.231c0.42-2.345,0.752-4.785,0.988-7.3
			c-1.822-0.109-3.73-0.204-5.721-0.285C60.744,57.429,60.514,59.886,60.222,62.251z"/>
		<path fill="#6185A6" d="M56.877,78.261c1.288,0.033,2.62,0.074,3.959,0.125c1.027-2.214,1.949-4.656,2.752-7.289
			c-1.516-0.06-3.117-0.112-4.799-0.157C58.232,73.574,57.592,76.027,56.877,78.261z"/>
		<path fill="#6185A6" d="M66.865,39.758c-1.859-0.109-3.807-0.204-5.826-0.284c0.098,2.133,0.152,4.31,0.152,6.525
			c0,0.082-0.002,0.162-0.002,0.244c2,0.086,3.961,0.19,5.865,0.31c0.002-0.185,0.006-0.367,0.006-0.554
			C67.061,43.883,66.994,41.8,66.865,39.758z"/>
		<path fill="#6185A6" d="M53.821,6.353c0.435,0.799,0.857,1.659,1.263,2.583c1.135,0.053,2.246,0.116,3.324,0.188
			c-0.594-0.943-1.21-1.823-1.849-2.629C55.674,6.441,54.763,6.393,53.821,6.353z"/>
		<path fill="#6185A6" d="M53.352,86.474c-1.204,2.038-2.506,3.601-3.882,4.583c2.216-0.8,4.315-2.356,6.241-4.536
			C54.957,86.502,54.17,86.487,53.352,86.474z"/>
		<path fill="#6185A6" d="M54.047,3.793c-0.615-0.034-1.246-0.064-1.894-0.09c0.454,0.615,0.896,1.292,1.324,2.033
			c0.871,0.035,1.724,0.077,2.557,0.125C55.391,5.101,54.729,4.407,54.047,3.793z"/>
		<path fill="#6185A6" d="M51.676,3.085c0.547,0.02,1.086,0.043,1.617,0.069c-0.662-0.532-1.339-0.999-2.031-1.386
			c-0.274-0.012-0.558-0.021-0.837-0.031C50.849,2.132,51.267,2.582,51.676,3.085z"/>
		<path fill="#6185A6" d="M49.677,1.104c0.07,0.002,0.136,0.005,0.206,0.008c-0.138-0.056-0.274-0.12-0.412-0.17
			C49.541,0.992,49.609,1.052,49.677,1.104z"/>
	</g>
	<g>
		<path fill="#6185A6" d="M28.615,10.13c-0.975,0.1-1.915,0.207-2.819,0.323c-1.107,1.269-2.152,2.639-3.133,4.1
			c1.08-0.138,2.203-0.265,3.355-0.382C26.831,12.732,27.7,11.385,28.615,10.13z"/>
		<path fill="#6185A6" d="M31.297,6.883c-0.762,0.079-1.497,0.164-2.206,0.254c-0.928,0.814-1.821,1.695-2.684,2.634
			c0.866-0.106,1.765-0.205,2.691-0.295C29.804,8.551,30.539,7.689,31.297,6.883z"/>
		<path fill="#6185A6" d="M18.474,47.677c-1.649,0.155-3.2,0.324-4.65,0.504c0.083,2.491,0.307,4.931,0.661,7.303
			c1.421-0.162,2.922-0.312,4.499-0.446C18.701,52.644,18.527,50.187,18.474,47.677z"/>
		<path fill="#6185A6" d="M37.412,2.024c-0.051,0.004-0.104,0.008-0.154,0.013c-1.058,0.423-2.094,0.918-3.105,1.487
			c0.346-0.034,0.696-0.067,1.05-0.098C35.925,2.909,36.661,2.439,37.412,2.024z"/>
		<path fill="#C8D4E0" d="M20.348,62.86c-0.542-2.322-0.977-4.734-1.292-7.222c-1.591,0.139-3.082,0.288-4.475,0.446
			c0.393,2.459,0.924,4.844,1.585,7.136c0.166-0.016,0.326-0.033,0.496-0.049C17.833,63.06,19.069,62.957,20.348,62.86z"/>
		<path fill="#6185A6" d="M26.82,79.189c-0.993,0.058-1.928,0.118-2.793,0.183c1.978,2.619,4.188,4.889,6.58,6.742
			c0.241-0.012,0.489-0.023,0.752-0.035c0.272-0.012,0.563-0.022,0.848-0.033C30.246,84.132,28.437,81.828,26.82,79.189z"/>
		<path fill="#6185A6" d="M20.494,63.462c-1.481,0.112-2.864,0.233-4.149,0.36c0.757,2.522,1.665,4.934,2.716,7.201
			c1.171-0.091,2.405-0.173,3.682-0.247C21.869,68.47,21.117,66.021,20.494,63.462z"/>
		<path fill="#6185A6" d="M34.295,4.112c-0.469,0.046-0.924,0.095-1.371,0.146c-1.03,0.651-2.028,1.38-2.998,2.175
			c0.653-0.076,1.322-0.147,2.008-0.214C32.697,5.454,33.486,4.753,34.295,4.112z"/>
		<path fill="#6185A6" d="M26.471,78.604c-1.305-2.207-2.478-4.633-3.499-7.242c-1.3,0.077-2.508,0.159-3.631,0.245
			c1.247,2.6,2.676,5.006,4.262,7.186C24.524,78.723,25.486,78.66,26.471,78.604z"/>
		<path fill="#6185A6" d="M18.453,45.999c0-1.956,0.074-3.886,0.214-5.779c-1.648,0.141-3.204,0.292-4.658,0.453
			c-0.145,1.749-0.223,3.525-0.223,5.327c0,0.518,0.011,1.031,0.022,1.544c1.473-0.179,3.031-0.342,4.658-0.492
			C18.461,46.701,18.453,46.353,18.453,45.999z"/>
		<path fill="#6185A6" d="M31.361,86.68c2.009,1.461,4.14,2.635,6.365,3.475c-1.719-0.911-3.364-2.101-4.919-3.532
			C32.301,86.64,31.819,86.659,31.361,86.68z"/>
		<path fill="#6185A6" d="M23.143,20.201c-1.389,0.164-2.713,0.339-3.964,0.528c-0.863,1.837-1.633,3.769-2.305,5.78
			c1.374-0.203,2.811-0.39,4.303-0.561C21.75,23.948,22.41,22.029,23.143,20.201z"/>
		<path fill="#6185A6" d="M19.542,33.101c-1.609,0.17-3.13,0.354-4.555,0.55c-0.412,2.077-0.728,4.21-0.929,6.394
			c1.477-0.161,3.035-0.31,4.662-0.444C18.904,37.381,19.178,35.209,19.542,33.101z"/>
		<path fill="#6185A6" d="M25.687,14.779c-1.207,0.126-2.354,0.263-3.449,0.409c-0.995,1.54-1.91,3.181-2.75,4.903
			c1.252-0.182,2.556-0.35,3.905-0.504C24.094,17.898,24.861,16.294,25.687,14.779z"/>
		<path fill="#6185A6" d="M21.009,26.552c-1.532,0.18-2.978,0.376-4.343,0.585c-0.612,1.907-1.134,3.883-1.559,5.918
			c1.445-0.195,2.96-0.376,4.543-0.542C20.022,30.463,20.477,28.472,21.009,26.552z"/>
	</g>
	<g>
		<path fill="#6185A6" d="M36.657,9.545c-1.182,0.055-2.333,0.121-3.451,0.197c-0.739,1.23-1.439,2.565-2.098,3.993
			c1.342-0.095,2.708-0.178,4.094-0.247C35.659,12.083,36.145,10.765,36.657,9.545z"/>
		<path fill="#6185A6" d="M38.167,6.373c-0.945,0.045-1.864,0.098-2.753,0.159c-0.627,0.793-1.231,1.656-1.814,2.58
			c1.077-0.07,2.185-0.131,3.32-0.182C37.32,8.016,37.736,7.165,38.167,6.373z"/>
		<path fill="#6185A6" d="M35.01,14.083c-1.436,0.07-2.829,0.152-4.168,0.248c-0.658,1.48-1.271,3.054-1.833,4.715
			c1.542-0.123,3.123-0.227,4.724-0.315C34.126,17.097,34.553,15.545,35.01,14.083z"/>
		<path fill="#6185A6" d="M42.529,0.942c-0.146,0.053-0.289,0.12-0.434,0.179c0.069-0.002,0.144-0.003,0.213-0.006
			C42.382,1.059,42.455,0.996,42.529,0.942z"/>
		<path fill="#6185A6" d="M30.813,46.845c-2.037,0.091-3.993,0.197-5.862,0.318c0.029,2.53,0.15,5.01,0.363,7.421
			c1.862-0.11,3.781-0.204,5.74-0.283C30.909,51.876,30.828,49.385,30.813,46.845z"/>
		<path fill="#90AAC1" d="M33.596,19.323c-1.653,0.09-3.251,0.198-4.786,0.321c-0.594,1.813-1.124,3.726-1.592,5.72
			c1.71-0.137,3.462-0.255,5.245-0.354C32.795,23.026,33.176,21.129,33.596,19.323z"/>
		<path fill="#6185A6" d="M41.561,1.75c-0.291,0.012-0.581,0.024-0.864,0.04c-0.688,0.389-1.361,0.858-2.021,1.391
			c0.54-0.03,1.083-0.058,1.637-0.082C40.721,2.595,41.137,2.146,41.561,1.75z"/>
		<path fill="#6185A6" d="M39.834,3.72c-0.654,0.03-1.29,0.065-1.914,0.104C37.238,4.44,36.575,5.137,35.932,5.9
			c0.842-0.054,1.702-0.102,2.577-0.141C38.938,5.015,39.38,4.336,39.834,3.72z"/>
		<path fill="#6185A6" d="M31.854,62.853c-1.881,0.065-3.677,0.144-5.381,0.232c0.485,2.603,1.077,5.088,1.767,7.428
			c1.606-0.062,3.233-0.115,4.847-0.158C32.604,67.987,32.191,65.477,31.854,62.853z"/>
		<path fill="#6185A6" d="M35.122,78.261c-0.715-2.234-1.354-4.687-1.91-7.321c-1.684,0.045-3.284,0.098-4.799,0.158
			c0.801,2.632,1.724,5.074,2.752,7.288C32.502,78.335,33.834,78.294,35.122,78.261z"/>
		<path fill="#6185A6" d="M35.311,78.844c-1.355,0.035-2.646,0.078-3.868,0.125c1.302,2.703,2.761,5.049,4.347,6.964
			c0.812-0.021,1.648-0.039,2.514-0.054C37.211,83.915,36.207,81.548,35.311,78.844z"/>
		<path fill="#6185A6" d="M38.646,86.473c-0.817,0.015-1.605,0.029-2.358,0.048c1.926,2.18,4.025,3.736,6.241,4.536
			C41.153,90.074,39.852,88.512,38.646,86.473z"/>
		<path fill="#6185A6" d="M32.368,25.598c-1.834,0.1-3.594,0.221-5.29,0.358c-0.436,1.93-0.812,3.935-1.122,6.006
			c1.824-0.132,3.695-0.248,5.605-0.343C31.785,29.543,32.054,27.532,32.368,25.598z"/>
		<path fill="#6185A6" d="M31.497,32.204c-1.951,0.095-3.826,0.209-5.621,0.339c-0.306,2.141-0.54,4.347-0.697,6.609
			c1.89-0.108,3.833-0.201,5.812-0.279C31.107,36.591,31.275,34.362,31.497,32.204z"/>
		<path fill="#6185A6" d="M30.807,45.999c0-2.215,0.054-4.392,0.153-6.525c-2.02,0.08-3.967,0.175-5.826,0.284
			c-0.129,2.042-0.196,4.125-0.196,6.241c0,0.187,0.004,0.369,0.006,0.554c1.906-0.121,3.867-0.224,5.865-0.311
			C30.809,46.161,30.807,46.08,30.807,45.999z"/>
		<path fill="#6185A6" d="M31.777,62.251c-0.292-2.365-0.522-4.822-0.684-7.354c-1.989,0.08-3.899,0.176-5.722,0.285
			c0.237,2.514,0.569,4.953,0.989,7.3C28.106,62.393,29.916,62.315,31.777,62.251z"/>
	</g>
	<g>
		<path fill="#6185A6" d="M34.659,6.585c-0.847,0.062-1.667,0.132-2.461,0.208c-0.793,0.805-1.561,1.673-2.3,2.608
			c0.975-0.089,1.979-0.17,3.014-0.243C33.474,8.244,34.056,7.38,34.659,6.585z"/>
		<path fill="#6185A6" d="M32.523,9.792c-1.071,0.078-2.115,0.164-3.122,0.26c-0.94,1.25-1.832,2.602-2.667,4.049
			c1.215-0.118,2.458-0.225,3.732-0.32C31.113,12.361,31.798,11.025,32.523,9.792z"/>
		<path fill="#6185A6" d="M28.188,19.696c-1.52,0.128-2.986,0.27-4.38,0.426c-0.743,1.825-1.406,3.75-1.988,5.753
			c1.544-0.171,3.142-0.325,4.782-0.461C27.067,23.421,27.6,21.513,28.188,19.696z"/>
		<path fill="#6185A6" d="M30.202,14.378c-1.32,0.099-2.589,0.209-3.808,0.331c-0.837,1.508-1.614,3.112-2.327,4.802
			c1.397-0.153,2.84-0.291,4.316-0.413C28.94,17.439,29.549,15.865,30.202,14.378z"/>
		<path fill="#6185A6" d="M24.348,47.204c-1.847,0.125-3.606,0.265-5.272,0.417c0.052,2.512,0.226,4.973,0.509,7.366
			c1.646-0.136,3.36-0.259,5.133-0.367C24.504,52.208,24.378,49.731,24.348,47.204z"/>
		<path fill="#6185A6" d="M37.028,3.883c-0.55,0.039-1.091,0.08-1.617,0.126c-0.875,0.636-1.727,1.34-2.551,2.124
			c0.75-0.066,1.518-0.128,2.303-0.183C35.767,5.201,36.388,4.507,37.028,3.883z"/>
		<path fill="#6185A6" d="M39.485,1.862c-0.165,0.011-0.333,0.021-0.494,0.032c-0.883,0.404-1.747,0.887-2.593,1.435
			c0.435-0.033,0.876-0.064,1.323-0.093C38.297,2.726,38.885,2.267,39.485,1.862z"/>
		<path fill="#6185A6" d="M30.552,78.409c-1.021-2.223-1.94-4.664-2.737-7.287c-1.493,0.062-2.902,0.131-4.223,0.205
			c1.032,2.617,2.22,5.042,3.54,7.24C28.254,78.507,29.403,78.455,30.552,78.409z"/>
		<path fill="#6185A6" d="M26.467,26.005c-1.682,0.142-3.29,0.301-4.821,0.475c-0.539,1.922-1.002,3.915-1.379,5.972
			c1.639-0.165,3.335-0.315,5.086-0.447C25.66,29.938,26.034,27.935,26.467,26.005z"/>
		<path fill="#6185A6" d="M35.564,86.538c-0.663,0.017-1.299,0.035-1.905,0.055c2.069,1.815,4.292,3.194,6.629,4.053
			C38.624,89.673,37.043,88.282,35.564,86.538z"/>
		<path fill="#6185A6" d="M25.874,63.116c-1.687,0.091-3.281,0.192-4.783,0.303c0.628,2.567,1.394,5.014,2.274,7.322
			c1.39-0.077,2.824-0.145,4.278-0.205C26.956,68.194,26.359,65.715,25.874,63.116z"/>
		<path fill="#6185A6" d="M30.829,78.992c-1.181,0.049-2.295,0.103-3.345,0.16c1.66,2.665,3.52,4.975,5.538,6.862
			c0.658-0.023,1.351-0.045,2.062-0.063C33.532,84.009,32.104,81.668,30.829,78.992z"/>
		<path fill="#6185A6" d="M25.264,32.587c-1.783,0.134-3.482,0.285-5.098,0.45c-0.369,2.112-0.652,4.287-0.839,6.514
			c1.687-0.135,3.442-0.257,5.249-0.364C24.732,36.931,24.96,34.725,25.264,32.587z"/>
		<path fill="#6185A6" d="M24.336,45.999c0-2.104,0.069-4.174,0.196-6.204c-1.839,0.112-3.594,0.236-5.256,0.373
			c-0.144,1.911-0.221,3.856-0.221,5.831c0,0.334,0.009,0.665,0.013,0.997c1.693-0.15,3.457-0.285,5.274-0.404
			C24.341,46.394,24.336,46.198,24.336,45.999z"/>
		<path fill="#6185A6" d="M25.766,62.515c-0.421-2.347-0.756-4.784-0.995-7.297c-1.795,0.112-3.5,0.236-5.114,0.372
			c0.315,2.49,0.751,4.903,1.295,7.226C22.489,62.704,24.097,62.604,25.766,62.515z"/>
	</g>
	<g>
		<path fill="#6185A6" d="M35.161,2.316c-1.115,0.422-2.203,0.916-3.271,1.462c0.278-0.035,0.559-0.068,0.843-0.101
			C33.526,3.18,34.335,2.725,35.161,2.316z"/>
		<path fill="#6185A6" d="M31.604,4.419c-0.414,0.055-0.813,0.112-1.206,0.17c-1.169,0.675-2.307,1.417-3.406,2.233
			c0.602-0.091,1.225-0.177,1.864-0.259C29.745,5.791,30.661,5.071,31.604,4.419z"/>
		<path fill="#6185A6" d="M28.061,7.274c-0.721,0.101-1.411,0.207-2.07,0.318c-1.036,0.826-2.033,1.718-2.995,2.664
			c0.799-0.131,1.639-0.253,2.51-0.369C26.325,8.96,27.179,8.089,28.061,7.274z"/>
		<path fill="#6185A6" d="M24.919,10.571c-0.924,0.127-1.809,0.263-2.647,0.408c-1.243,1.286-2.414,2.675-3.511,4.149
			c0.991-0.167,2.035-0.323,3.119-0.47C22.83,13.206,23.847,11.842,24.919,10.571z"/>
		<path fill="#6185A6" d="M15.733,63.882c-1.323,0.136-2.533,0.278-3.626,0.425c0.882,2.479,1.938,4.843,3.148,7.069
			c0.983-0.109,2.049-0.211,3.179-0.303C17.392,68.804,16.484,66.401,15.733,63.882z"/>
		<path fill="#6185A6" d="M13.985,56.152c-1.436,0.17-2.757,0.348-3.955,0.533c0.473,2.423,1.101,4.771,1.872,7.028
			c1.066-0.146,2.276-0.292,3.66-0.434C14.906,60.989,14.376,58.607,13.985,56.152z"/>
		<path fill="#6185A6" d="M13.226,48.253c-1.501,0.192-2.885,0.396-4.145,0.606c0.125,2.47,0.408,4.886,0.838,7.234
			c1.222-0.193,2.551-0.375,3.97-0.542C13.536,53.18,13.31,50.742,13.226,48.253z"/>
		<path fill="#6185A6" d="M18.703,71.658c-1.147,0.093-2.194,0.19-3.139,0.29c1.448,2.583,3.111,4.968,4.949,7.127
			c0.749-0.082,1.554-0.158,2.4-0.228C21.347,76.658,19.933,74.253,18.703,71.658z"/>
		<path fill="#6185A6" d="M29.715,86.159c-2.32-1.878-4.463-4.142-6.383-6.733c-0.848,0.067-1.625,0.137-2.336,0.208
			c2.26,2.563,4.774,4.788,7.495,6.6C28.859,86.208,29.265,86.184,29.715,86.159z"/>
		<path fill="#6185A6" d="M29.347,86.781c1.855,1.16,3.796,2.139,5.814,2.902c-1.641-0.812-3.223-1.807-4.733-2.961
			C30.046,86.742,29.688,86.761,29.347,86.781z"/>
		<path fill="#6185A6" d="M21.477,15.29c-1.139,0.16-2.208,0.33-3.212,0.508c-1.13,1.579-2.167,3.259-3.113,5.021
			c1.145-0.222,2.352-0.431,3.624-0.624C19.598,18.474,20.502,16.836,21.477,15.29z"/>
		<path fill="#6185A6" d="M13.183,45.999c0-1.778,0.075-3.531,0.214-5.258c-1.515,0.174-2.916,0.358-4.192,0.55
			c-0.129,1.549-0.202,3.118-0.202,4.708c0,0.746,0.019,1.486,0.047,2.224c1.283-0.217,2.674-0.419,4.156-0.604
			C13.192,47.08,13.183,46.541,13.183,45.999z"/>
		<path fill="#6185A6" d="M18.474,20.84c-1.311,0.207-2.546,0.426-3.687,0.658c-0.955,1.849-1.8,3.791-2.536,5.806
			c1.238-0.247,2.56-0.478,3.954-0.693C16.863,24.604,17.625,22.679,18.474,20.84z"/>
		<path fill="#6185A6" d="M14.356,33.74c-1.493,0.214-2.878,0.44-4.144,0.678c-0.432,2.03-0.753,4.114-0.955,6.243
			c1.298-0.196,2.701-0.379,4.193-0.548C13.647,37.938,13.953,35.811,14.356,33.74z"/>
		<path fill="#6185A6" d="M16.008,27.238c-1.437,0.228-2.769,0.472-4,0.727c-0.659,1.884-1.211,3.837-1.662,5.842
			c1.284-0.237,2.663-0.459,4.126-0.665C14.89,31.113,15.406,29.143,16.008,27.238z"/>
	</g>
	<g>
		<path fill="#6185A6" d="M61.797,14.379c0.652,1.487,1.262,3.061,1.818,4.721c1.477,0.123,2.918,0.26,4.316,0.413
			c-0.713-1.69-1.49-3.295-2.326-4.803C64.387,14.589,63.117,14.478,61.797,14.379z"/>
		<path fill="#98B0C5" d="M65.531,26.006c0.436,1.93,0.807,3.934,1.115,6c1.75,0.132,3.445,0.282,5.086,0.447
			c-0.379-2.057-0.842-4.05-1.381-5.972C68.82,26.307,67.215,26.147,65.531,26.006z"/>
		<path fill="#6185A6" d="M63.811,19.697c0.59,1.817,1.121,3.726,1.586,5.718c1.643,0.136,3.238,0.291,4.781,0.461
			c-0.582-2.003-1.244-3.928-1.988-5.753C66.797,19.967,65.33,19.825,63.811,19.697z"/>
		<path fill="#6185A6" d="M67.424,39.187c1.807,0.107,3.561,0.229,5.248,0.364c-0.188-2.227-0.471-4.401-0.84-6.514
			c-1.615-0.165-3.314-0.315-5.098-0.449C67.039,34.726,67.268,36.932,67.424,39.187z"/>
		<path fill="#6185A6" d="M67.281,54.62c1.771,0.109,3.486,0.231,5.131,0.368c0.283-2.395,0.457-4.854,0.51-7.366
			c-1.666-0.153-3.424-0.292-5.271-0.418C67.619,49.732,67.494,52.208,67.281,54.62z"/>
		<path fill="#6185A6" d="M64.355,70.537c1.453,0.06,2.889,0.127,4.277,0.204c0.881-2.309,1.646-4.754,2.273-7.322
			c-1.5-0.109-3.094-0.211-4.781-0.303C65.639,65.716,65.045,68.194,64.355,70.537z"/>
		<path fill="#6185A6" d="M56.916,85.951c0.71,0.019,1.402,0.04,2.061,0.063c2.015-1.887,3.876-4.197,5.537-6.862
			c-1.051-0.058-2.162-0.111-3.344-0.16C59.895,81.668,58.467,84.009,56.916,85.951z"/>
		<path fill="#6185A6" d="M66.234,62.515c1.666,0.089,3.275,0.189,4.812,0.301c0.543-2.322,0.98-4.735,1.295-7.226
			c-1.615-0.136-3.318-0.26-5.115-0.371C66.988,57.73,66.654,60.168,66.234,62.515z"/>
		<path fill="#6185A6" d="M72.721,40.168c-1.66-0.137-3.416-0.261-5.254-0.373c0.127,2.03,0.195,4.1,0.195,6.204
			c0,0.199-0.004,0.396-0.006,0.593c1.818,0.12,3.582,0.255,5.273,0.406c0.004-0.333,0.014-0.664,0.014-0.999
			C72.943,44.024,72.865,42.079,72.721,40.168z"/>
		<path fill="#6185A6" d="M61.447,78.409c1.148,0.046,2.295,0.099,3.418,0.158c1.32-2.198,2.51-4.624,3.541-7.241
			c-1.32-0.074-2.729-0.144-4.223-0.205C63.387,73.745,62.469,76.187,61.447,78.409z"/>
		<path fill="#6185A6" d="M59.486,9.81c0.722,1.229,1.403,2.559,2.045,3.971c1.273,0.095,2.518,0.203,3.732,0.32
			c-0.828-1.437-1.713-2.778-2.645-4.021C61.607,9.981,60.561,9.89,59.486,9.81z"/>
		<path fill="#6185A6" d="M56.435,86.538c-1.478,1.744-3.061,3.135-4.723,4.107c2.336-0.859,4.56-2.238,6.628-4.053
			C57.734,86.573,57.098,86.555,56.435,86.538z"/>
		<path fill="#6185A6" d="M57.309,6.545c0.618,0.812,1.213,1.693,1.79,2.628c1.036,0.075,2.042,0.159,3.019,0.251
			C61.355,8.456,60.561,7.56,59.74,6.73C58.957,6.663,58.146,6.601,57.309,6.545z"/>
		<path fill="#6185A6" d="M54.244,3.205c0.437,0.025,0.866,0.053,1.291,0.082c-0.848-0.546-1.714-1.027-2.599-1.428
			c-0.152-0.01-0.313-0.017-0.467-0.026C53.071,2.237,53.664,2.693,54.244,3.205z"/>
		<path fill="#6185A6" d="M54.93,3.844c0.642,0.623,1.266,1.314,1.873,2.063c0.772,0.049,1.529,0.102,2.265,0.16
			c-0.824-0.778-1.675-1.479-2.55-2.11C56.001,3.917,55.475,3.878,54.93,3.844z"/>
	</g>
	<g>
		<path fill="#6185A6" d="M74.209,80.042c-2.441,2.495-5.15,4.671-8.074,6.469c0.074,0.014,0.143,0.028,0.203,0.042
			c3.223-1.729,6.215-3.851,8.914-6.309C74.965,80.177,74.611,80.11,74.209,80.042z"/>
		<path fill="#6185A6" d="M87.494,41.556c1.029,0.247,1.914,0.509,2.637,0.784c-0.154-1.984-0.434-3.932-0.826-5.838
			c-0.707-0.329-1.615-0.652-2.693-0.966C87.021,37.499,87.318,39.508,87.494,41.556z"/>
		<path fill="#6185A6" d="M84.842,29.197c0.65,1.849,1.197,3.754,1.633,5.708c1.039,0.296,1.939,0.608,2.695,0.936
			c-0.424-1.911-0.967-3.774-1.615-5.585C86.822,29.895,85.922,29.541,84.842,29.197z"/>
		<path fill="#6185A6" d="M86.381,57.534c-0.553,2.38-1.275,4.682-2.146,6.897c0.871,0.198,1.523,0.392,2.016,0.575
			c0.969-2.173,1.775-4.436,2.404-6.774C88.08,57.996,87.312,57.763,86.381,57.534z"/>
		<path fill="#6185A6" d="M84.014,64.992c-0.988,2.431-2.162,4.751-3.5,6.938c0.646,0.129,1.195,0.266,1.635,0.412
			c1.473-2.146,2.771-4.428,3.873-6.823C85.52,65.344,84.842,65.167,84.014,64.992z"/>
		<path fill="#6185A6" d="M82.008,22.695c0.977,1.854,1.84,3.789,2.582,5.794c1.014,0.309,1.912,0.634,2.68,0.976
			c-0.76-2.01-1.652-3.952-2.668-5.813C83.877,23.325,83.01,23.005,82.008,22.695z"/>
		<path fill="#6185A6" d="M86.5,56.979c0.908,0.235,1.676,0.483,2.295,0.744c0.592-2.293,1.008-4.658,1.246-7.076
			c-0.635-0.279-1.473-0.556-2.496-0.824C87.365,52.267,87.012,54.656,86.5,56.979z"/>
		<path fill="#6185A6" d="M78.311,16.791c1.195,1.629,2.295,3.349,3.287,5.15c0.928,0.27,1.773,0.552,2.516,0.85
			c-1.066-1.854-2.254-3.622-3.553-5.296C79.908,17.254,79.158,17.019,78.311,16.791z"/>
		<path fill="#6185A6" d="M90.172,42.942c-0.674-0.262-1.547-0.521-2.627-0.773c0.094,1.264,0.146,2.541,0.146,3.83
			c0,1.077-0.035,2.146-0.102,3.204c0.984,0.266,1.824,0.548,2.506,0.845c0.113-1.335,0.18-2.684,0.18-4.049
			C90.275,44.972,90.236,43.954,90.172,42.942z"/>
		<path fill="#6185A6" d="M80.199,72.436c-1.619,2.574-3.467,4.96-5.514,7.117c0.395,0.082,0.742,0.168,1.037,0.26
			c2.266-2.119,4.312-4.477,6.113-7.033C81.426,72.666,80.879,72.551,80.199,72.436z"/>
		<path fill="#6185A6" d="M65.336,86.994c-0.359,0.21-0.721,0.417-1.086,0.615c0.41-0.192,0.816-0.395,1.221-0.599
			C65.426,87.005,65.383,87,65.336,86.994z"/>
		<path fill="#6185A6" d="M65.771,5.264c1.094,0.658,2.16,1.369,3.193,2.13c0.346,0.073,0.678,0.148,1,0.225
			c-1.219-0.814-2.482-1.565-3.779-2.254C66.049,5.331,65.91,5.297,65.771,5.264z"/>
		<path fill="#6185A6" d="M76.236,12.677c-0.582-0.218-1.229-0.429-1.941-0.629c1.227,1.26,2.391,2.597,3.473,4.011
			c0.77,0.193,1.484,0.395,2.131,0.606C78.756,15.261,77.533,13.929,76.236,12.677z"/>
		<path fill="#6185A6" d="M70.137,8.288c1.156,0.915,2.268,1.894,3.334,2.931c0.613,0.156,1.189,0.318,1.729,0.486
			c-1.205-1.092-2.465-2.117-3.777-3.071C71.021,8.516,70.594,8.401,70.137,8.288z"/>
	</g>
	<g>
		<path fill="#6185A6" d="M1.378,50.925c-0.357,0.2-0.6,0.4-0.741,0.601c0.283,2.342,0.746,4.629,1.371,6.849
			c0.173-0.136,0.395-0.266,0.643-0.396C2.056,55.692,1.626,53.336,1.378,50.925z"/>
		<path fill="#6185A6" d="M11.023,17.045c1.058-1.356,2.188-2.651,3.385-3.876c-0.116,0.058-0.228,0.117-0.335,0.176
			c-1.262,1.233-2.45,2.54-3.563,3.91C10.673,17.184,10.846,17.114,11.023,17.045z"/>
		<path fill="#6185A6" d="M6.973,23.181c1.009-1.825,2.131-3.573,3.362-5.232c-0.231,0.108-0.442,0.218-0.631,0.328
			c-1.29,1.683-2.464,3.456-3.512,5.311C6.435,23.449,6.692,23.313,6.973,23.181z"/>
		<path fill="#6185A6" d="M2.787,58.492c-0.288,0.156-0.49,0.313-0.61,0.47c0.672,2.268,1.517,4.461,2.517,6.567
			c0.126-0.092,0.291-0.189,0.5-0.291C4.229,63.073,3.421,60.82,2.787,58.492z"/>
		<path fill="#6185A6" d="M5.417,65.745c-0.221,0.107-0.378,0.214-0.467,0.317c1.151,2.345,2.499,4.576,4.019,6.675
			c0.087-0.059,0.189-0.117,0.311-0.174C7.814,70.416,6.518,68.138,5.417,65.745z"/>
		<path fill="#6185A6" d="M15.527,12.066c0.472-0.45,0.95-0.894,1.439-1.323c-0.544,0.449-1.077,0.914-1.601,1.387
			C15.422,12.108,15.471,12.087,15.527,12.066z"/>
		<path fill="#6185A6" d="M15.648,80.049c-2.246-2.132-4.282-4.492-6.07-7.051c-0.135,0.061-0.233,0.119-0.293,0.177
			c1.865,2.511,3.982,4.822,6.311,6.901C15.615,80.067,15.63,80.058,15.648,80.049z"/>
		<path fill="#6185A6" d="M16.023,80.458c0.311,0.271,0.625,0.537,0.943,0.8c-0.305-0.269-0.605-0.54-0.904-0.815
			C16.049,80.447,16.036,80.452,16.023,80.458z"/>
		<path fill="#6185A6" d="M1.122,45.999c0-0.936,0.029-1.863,0.083-2.786c-0.433,0.217-0.716,0.434-0.849,0.65
			c-0.033,0.708-0.054,1.42-0.054,2.136c0,1.625,0.089,3.229,0.255,4.81c0.209-0.166,0.464-0.327,0.764-0.485
			C1.191,48.898,1.122,47.458,1.122,45.999z"/>
		<path fill="#6185A6" d="M1.246,42.6c0.138-1.95,0.392-3.867,0.757-5.743c-0.413,0.241-0.717,0.483-0.92,0.726
			c-0.336,1.797-0.568,3.629-0.686,5.492C0.629,42.912,0.912,42.754,1.246,42.6z"/>
		<path fill="#6185A6" d="M3.949,29.837c0.717-1.978,1.562-3.892,2.525-5.732c-0.352,0.198-0.648,0.397-0.894,0.598
			c-0.964,1.822-1.808,3.716-2.523,5.672C3.323,30.192,3.617,30.013,3.949,29.837z"/>
		<path fill="#6185A6" d="M2.148,36.158c0.394-1.869,0.897-3.697,1.504-5.475c-0.411,0.253-0.738,0.508-0.97,0.764
			c-0.574,1.703-1.051,3.449-1.422,5.233C1.511,36.502,1.815,36.328,2.148,36.158z"/>
	</g>
	<g>
		<path fill="#6185A6" d="M25.922,5.452c-0.176,0.044-0.35,0.088-0.519,0.133c-1.29,0.703-2.54,1.468-3.75,2.294
			c0.342-0.089,0.702-0.174,1.069-0.259C23.756,6.845,24.826,6.125,25.922,5.452z"/>
		<path fill="#6185A6" d="M14.232,16.056c1.111-1.45,2.306-2.819,3.567-4.108c-0.692,0.189-1.329,0.387-1.9,0.593
			c-1.346,1.29-2.613,2.667-3.796,4.12C12.75,16.45,13.463,16.249,14.232,16.056z"/>
		<path fill="#6185A6" d="M4.452,49.82c-1.022,0.27-1.86,0.545-2.495,0.823c0.237,2.418,0.654,4.784,1.245,7.077
			c0.618-0.261,1.387-0.509,2.295-0.743C4.987,54.655,4.633,52.265,4.452,49.82z"/>
		<path fill="#6185A6" d="M21.546,8.535c-0.494,0.133-0.957,0.269-1.385,0.407c-1.123,0.835-2.207,1.722-3.248,2.66
			c0.53-0.162,1.098-0.317,1.701-0.466C19.557,10.223,20.533,9.352,21.546,8.535z"/>
		<path fill="#6185A6" d="M17.79,80.042c-0.404,0.067-0.757,0.134-1.045,0.201c2.701,2.458,5.692,4.581,8.915,6.309
			c0.061-0.014,0.13-0.027,0.203-0.041C22.939,84.712,20.23,82.537,17.79,80.042z"/>
		<path fill="#6185A6" d="M5.618,57.532c-0.931,0.229-1.7,0.462-2.275,0.697c0.632,2.339,1.437,4.603,2.406,6.775
			c0.493-0.184,1.144-0.376,2.015-0.574C6.893,62.215,6.169,59.911,5.618,57.532z"/>
		<path fill="#6185A6" d="M7.983,64.99c-0.826,0.176-1.505,0.352-2.007,0.525c1.103,2.396,2.399,4.679,3.874,6.824
			c0.439-0.146,0.989-0.282,1.634-0.411C10.146,69.741,8.973,67.422,7.983,64.99z"/>
		<path fill="#6185A6" d="M27.747,4.392c-0.043,0.021-0.087,0.043-0.13,0.064c0.009-0.002,0.019-0.004,0.027-0.006
			C27.678,4.431,27.711,4.41,27.747,4.392z"/>
		<path fill="#6185A6" d="M4.307,45.999c0-1.289,0.053-2.566,0.147-3.83c-1.081,0.252-1.953,0.512-2.626,0.773
			c-0.065,1.012-0.104,2.029-0.104,3.057c0,1.364,0.066,2.712,0.18,4.045c0.681-0.297,1.521-0.577,2.505-0.843
			C4.343,48.143,4.307,47.076,4.307,45.999z"/>
		<path fill="#6185A6" d="M17.312,79.552c-2.042-2.154-3.888-4.535-5.505-7.105c-0.676,0.116-1.221,0.233-1.633,0.349
			c1.796,2.55,3.842,4.902,6.101,7.017C16.569,79.72,16.917,79.634,17.312,79.552z"/>
		<path fill="#6185A6" d="M26.529,87.011c0.403,0.204,0.808,0.405,1.218,0.598c-0.366-0.198-0.726-0.405-1.084-0.614
			C26.616,86.999,26.573,87.005,26.529,87.011z"/>
		<path fill="#6185A6" d="M10.403,21.938c0.992-1.801,2.091-3.521,3.288-5.15c-0.848,0.228-1.598,0.462-2.249,0.703
			c-1.3,1.673-2.488,3.442-3.553,5.296C8.63,22.489,9.475,22.207,10.403,21.938z"/>
		<path fill="#6185A6" d="M5.387,35.533c-1.078,0.313-1.985,0.636-2.692,0.964c-0.393,1.907-0.674,3.856-0.827,5.842
			c0.722-0.275,1.606-0.537,2.636-0.784C4.681,39.507,4.977,37.497,5.387,35.533z"/>
		<path fill="#6185A6" d="M7.409,28.486c0.742-2.006,1.606-3.941,2.583-5.795C8.991,23,8.125,23.32,7.401,23.646
			c-1.017,1.861-1.91,3.804-2.671,5.814C5.498,29.12,6.396,28.794,7.409,28.486z"/>
		<path fill="#6185A6" d="M7.158,29.194c-1.078,0.342-1.98,0.696-2.713,1.056c-0.647,1.812-1.191,3.675-1.614,5.586
			c0.756-0.327,1.656-0.639,2.693-0.934C5.958,32.948,6.506,31.043,7.158,29.194z"/>
	</g>
	<g>
		<path fill="#6185A6" d="M65.178,79.189c-1.617,2.639-3.426,4.942-5.386,6.856c0.282,0.011,0.573,0.021,0.843,0.033
			c0.264,0.012,0.514,0.023,0.756,0.035c2.393-1.854,4.604-4.122,6.58-6.742C67.105,79.309,66.17,79.247,65.178,79.189z"/>
		<path fill="#6185A6" d="M73.277,39.6c1.627,0.135,3.186,0.284,4.664,0.445c-0.203-2.184-0.518-4.317-0.93-6.393
			c-1.426-0.196-2.947-0.38-4.557-0.551C72.818,35.209,73.094,37.381,73.277,39.6z"/>
		<path fill="#6185A6" d="M68.855,20.203c0.732,1.828,1.391,3.746,1.967,5.746c1.492,0.171,2.93,0.359,4.303,0.562
			c-0.672-2.011-1.441-3.943-2.303-5.78C71.57,20.542,70.244,20.366,68.855,20.203z"/>
		<path fill="#6185A6" d="M69.256,70.776c1.275,0.074,2.512,0.156,3.684,0.248c1.051-2.269,1.957-4.68,2.715-7.202
			c-1.285-0.127-2.668-0.247-4.15-0.36C70.881,66.021,70.129,68.47,69.256,70.776z"/>
		<path fill="#6185A6" d="M66.312,14.78c0.824,1.515,1.592,3.119,2.293,4.808c1.35,0.154,2.652,0.323,3.906,0.504
			c-0.84-1.722-1.756-3.363-2.75-4.903C68.666,15.044,67.52,14.906,66.312,14.78z"/>
		<path fill="#6185A6" d="M73.014,55.038c1.578,0.136,3.078,0.284,4.5,0.445c0.355-2.371,0.578-4.812,0.66-7.303
			c-1.449-0.179-3-0.347-4.648-0.504C73.471,50.187,73.297,52.645,73.014,55.038z"/>
		<path fill="#6185A6" d="M71.648,62.86c1.279,0.097,2.512,0.199,3.682,0.312c0.172,0.017,0.334,0.033,0.502,0.049
			c0.66-2.292,1.193-4.677,1.586-7.136c-1.395-0.158-2.887-0.308-4.477-0.444C72.627,58.127,72.193,60.538,71.648,62.86z"/>
		<path fill="#6185A6" d="M70.99,26.553c0.531,1.92,0.986,3.911,1.359,5.961c1.582,0.165,3.098,0.347,4.543,0.542
			c-0.424-2.035-0.945-4.012-1.559-5.918C73.969,26.93,72.521,26.734,70.99,26.553z"/>
		<path fill="#6185A6" d="M65.525,78.604c0.986,0.056,1.949,0.119,2.869,0.188c1.588-2.18,3.018-4.589,4.264-7.189
			c-1.123-0.085-2.332-0.167-3.633-0.243C68.004,73.971,66.832,76.397,65.525,78.604z"/>
		<path fill="#6185A6" d="M63.404,10.162c0.908,1.246,1.77,2.583,2.576,4.01c1.152,0.118,2.275,0.245,3.355,0.383
			c-0.969-1.445-2.002-2.802-3.096-4.058C65.33,10.376,64.385,10.265,63.404,10.162z"/>
		<path fill="#6185A6" d="M59.191,86.622c-1.554,1.433-3.2,2.621-4.918,3.532c2.226-0.84,4.356-2.014,6.366-3.475
			C60.18,86.66,59.698,86.64,59.191,86.622z"/>
		<path fill="#6185A6" d="M77.99,40.672c-1.455-0.161-3.01-0.312-4.66-0.453c0.141,1.894,0.215,3.822,0.215,5.779
			c0,0.354-0.008,0.702-0.014,1.053c1.627,0.149,3.186,0.313,4.66,0.492c0.012-0.514,0.023-1.027,0.023-1.545
			C78.215,44.197,78.135,42.421,77.99,40.672z"/>
		<path fill="#6185A6" d="M56.724,3.375c0.339,0.027,0.674,0.056,1.003,0.085c-1.016-0.565-2.056-1.059-3.119-1.478
			c-0.039-0.003-0.074-0.007-0.112-0.01C55.253,2.386,55.997,2.856,56.724,3.375z"/>
		<path fill="#6185A6" d="M62.799,7.039c-0.695-0.081-1.418-0.157-2.166-0.228c0.789,0.835,1.553,1.73,2.285,2.691
			c0.934,0.094,1.836,0.197,2.709,0.307C64.719,8.818,63.777,7.89,62.799,7.039z"/>
		<path fill="#6185A6" d="M57.626,4.05c0.809,0.636,1.597,1.334,2.361,2.094c0.673,0.059,1.328,0.123,1.966,0.19
			c-0.975-0.791-1.978-1.512-3.012-2.157C58.515,4.132,58.075,4.09,57.626,4.05z"/>
	</g>
	<g>
		<path fill="#6185A6" d="M53.135,25.334c0.165,1.956,0.306,3.971,0.422,6.026c2.121,0.055,4.222,0.131,6.288,0.23
			c-0.221-2.077-0.487-4.089-0.797-6.022C57.144,25.47,55.176,25.39,53.135,25.334z"/>
		<path fill="#6185A6" d="M52.506,19.082c0.216,1.81,0.408,3.705,0.578,5.659c1.976,0.057,3.935,0.136,5.863,0.238
			c-0.33-1.985-0.705-3.884-1.122-5.686C56.109,19.204,54.337,19.132,52.506,19.082z"/>
		<path fill="#6185A6" d="M51.783,13.894c0.234,1.455,0.45,2.989,0.649,4.593c1.77,0.051,3.527,0.121,5.258,0.212
			c-0.39-1.635-0.815-3.186-1.271-4.642C54.921,13.987,53.376,13.933,51.783,13.894z"/>
		<path fill="#6185A6" d="M50.142,85.832c1.015,0.009,2.001,0.022,2.966,0.038c1.104-1.937,2.119-4.308,3.021-7.04
			c-1.415-0.035-2.899-0.062-4.451-0.083C51.228,81.442,50.713,83.834,50.142,85.832z"/>
		<path fill="#6185A6" d="M53.841,54.086c2.194,0.045,4.371,0.108,6.506,0.19c0.142-2.424,0.223-4.916,0.236-7.457
			c-2.125-0.09-4.333-0.16-6.619-0.211C53.959,49.105,53.918,51.607,53.841,54.086z"/>
		<path fill="#6185A6" d="M52.802,70.228c1.787,0.026,3.65,0.062,5.538,0.111c0.477-2.365,0.889-4.876,1.223-7.507
			c-1.954-0.064-3.999-0.116-6.129-0.153C53.262,65.287,53.051,67.814,52.802,70.228z"/>
		<path fill="#6185A6" d="M53.864,38.662c2.205,0.044,4.394,0.107,6.544,0.188c-0.115-2.286-0.285-4.514-0.504-6.674
			c-2.028-0.094-4.134-0.169-6.315-0.222C53.708,34.156,53.801,36.398,53.864,38.662z"/>
		<path fill="#6185A6" d="M50.943,9.393c0.263,1.214,0.511,2.518,0.742,3.903c1.526,0.04,3.043,0.095,4.541,0.165
			c-0.457-1.408-0.943-2.722-1.456-3.933C53.523,9.471,52.248,9.425,50.943,9.393z"/>
		<path fill="#6185A6" d="M50.162,6.237c0.224,0.792,0.44,1.642,0.646,2.55c1.26,0.029,2.492,0.071,3.695,0.123
			c-0.412-0.927-0.838-1.789-1.279-2.581C52.233,6.291,51.212,6.26,50.162,6.237z"/>
		<path fill="#6185A6" d="M53.47,62.078c2.104,0.037,4.163,0.087,6.167,0.153c0.288-2.366,0.515-4.823,0.676-7.357
			c-2.082-0.08-4.248-0.144-6.49-0.188C53.739,57.189,53.622,59.664,53.47,62.078z"/>
		<path fill="#6185A6" d="M49.966,86.432c-0.696,2.287-1.475,3.999-2.329,4.962c1.832-0.644,3.562-2.356,5.126-4.929
			C51.866,86.45,50.933,86.44,49.966,86.432z"/>
		<path fill="#6185A6" d="M51.774,78.157c1.375,0.021,2.918,0.049,4.546,0.09c0.71-2.226,1.345-4.681,1.896-7.322
			c-1.739-0.044-3.566-0.079-5.478-0.104C52.462,73.431,52.14,75.893,51.774,78.157z"/>
		<path fill="#6185A6" d="M60.44,39.45c-2.107-0.08-4.298-0.143-6.562-0.188c0.058,2.239,0.088,4.492,0.088,6.737
			c0,0.003,0,0.006,0,0.009c2.231,0.049,4.446,0.118,6.621,0.209c0-0.073,0.002-0.145,0.002-0.218
			C60.59,43.776,60.537,41.589,60.44,39.45z"/>
		<path fill="#6185A6" d="M49.295,3.617c0.239,0.611,0.469,1.28,0.691,2.015c0.98,0.02,1.941,0.047,2.88,0.082
			c-0.447-0.75-0.906-1.434-1.38-2.037C50.776,3.652,50.044,3.632,49.295,3.617z"/>
		<path fill="#6185A6" d="M49.05,3.011c0.65,0.012,1.293,0.028,1.923,0.048c-0.459-0.523-0.93-0.976-1.41-1.355
			c-0.384-0.011-0.78-0.018-1.174-0.025C48.615,2.071,48.836,2.515,49.05,3.011z"/>
		<path fill="#6185A6" d="M48,1.068c0.216,0.003,0.424,0.01,0.637,0.014c-0.331-0.19-0.663-0.357-1-0.476
			C47.759,0.745,47.88,0.899,48,1.068z"/>
	</g>
	<g>
		<path fill="#6185A6" d="M83.357,40.756c1.291,0.205,2.469,0.424,3.518,0.657c-0.186-2.062-0.488-4.087-0.914-6.06
			c-1.035-0.28-2.219-0.55-3.535-0.81C82.846,36.565,83.162,38.638,83.357,40.756z"/>
		<path fill="#6185A6" d="M77.078,72.011c-1.432,2.582-3.072,4.975-4.887,7.147c0.65,0.081,1.248,0.167,1.785,0.26
			c2.07-2.142,3.943-4.515,5.58-7.086C78.844,72.223,78.02,72.115,77.078,72.011z"/>
		<path fill="#6185A6" d="M77.959,21.658c0.932,1.848,1.764,3.78,2.48,5.789c1.242,0.261,2.387,0.54,3.43,0.833
			c-0.768-2.019-1.66-3.965-2.67-5.825C80.227,22.179,79.145,21.913,77.959,21.658z"/>
		<path fill="#6185A6" d="M80.668,28.11c0.643,1.881,1.191,3.824,1.631,5.822c1.281,0.248,2.461,0.511,3.516,0.791
			c-0.449-1.967-1.016-3.884-1.688-5.741C83.102,28.68,81.947,28.388,80.668,28.11z"/>
		<path fill="#6185A6" d="M80.496,64.391c-0.875,2.474-1.92,4.834-3.117,7.061c0.922,0.111,1.76,0.23,2.5,0.36
			c1.35-2.187,2.539-4.505,3.537-6.941C82.578,64.708,81.6,64.547,80.496,64.391z"/>
		<path fill="#6185A6" d="M82.674,56.194c1.201,0.2,2.289,0.415,3.246,0.643c0.51-2.323,0.861-4.716,1.039-7.162
			c-0.998-0.243-2.148-0.481-3.443-0.709C83.389,51.433,83.105,53.848,82.674,56.194z"/>
		<path fill="#6185A6" d="M80.699,63.8c1.158,0.168,2.131,0.337,2.939,0.504c0.875-2.218,1.598-4.526,2.15-6.91
			c-0.932-0.21-2.01-0.414-3.223-0.611C82.096,59.201,81.467,61.545,80.699,63.8z"/>
		<path fill="#6185A6" d="M74.564,15.95c1.104,1.584,2.119,3.261,3.043,5.02c1.137,0.232,2.193,0.481,3.174,0.743
			c-1.025-1.808-2.158-3.533-3.395-5.159C76.527,16.345,75.586,16.143,74.564,15.95z"/>
		<path fill="#6185A6" d="M63.654,86.847c-1.197,0.787-2.434,1.499-3.703,2.126c1.492-0.601,2.945-1.296,4.351-2.077
			C64.1,86.879,63.883,86.862,63.654,86.847z"/>
		<path fill="#6185A6" d="M86.932,42.033c-1.025-0.223-2.201-0.44-3.525-0.648c0.123,1.519,0.193,3.057,0.193,4.614
			c0,0.781-0.023,1.557-0.053,2.328c1.27,0.225,2.424,0.465,3.445,0.721c0.061-1.009,0.098-2.023,0.098-3.049
			C87.09,44.663,87.033,43.341,86.932,42.033z"/>
		<path fill="#6185A6" d="M71.727,79.71c-2.197,2.541-4.643,4.757-7.283,6.596c0.279,0.023,0.529,0.048,0.75,0.072
			c3-1.771,5.781-3.939,8.285-6.449C72.963,79.855,72.377,79.782,71.727,79.71z"/>
		<path fill="#6185A6" d="M59.952,3.027c0.55,0.272,1.093,0.566,1.632,0.869c0.164,0.023,0.328,0.045,0.488,0.068
			C61.373,3.634,60.668,3.316,59.952,3.027z"/>
		<path fill="#6185A6" d="M66.994,7.637c1.064,0.885,2.09,1.837,3.072,2.848c0.787,0.145,1.535,0.297,2.242,0.456
			c-1.143-1.061-2.338-2.053-3.578-2.973C68.184,7.854,67.605,7.743,66.994,7.637z"/>
		<path fill="#6185A6" d="M73.16,11.75c-0.742-0.183-1.537-0.358-2.387-0.523c1.172,1.265,2.275,2.619,3.312,4.051
			c0.967,0.174,1.885,0.358,2.736,0.553C75.678,14.389,74.457,13.023,73.16,11.75z"/>
		<path fill="#6185A6" d="M62.949,4.708c1.059,0.661,2.09,1.376,3.088,2.153c0.512,0.08,1.012,0.163,1.49,0.25
			c-1.186-0.815-2.412-1.565-3.674-2.245C63.561,4.812,63.26,4.759,62.949,4.708z"/>
	</g>
	<g>
		<path fill="#6185A6" d="M78.549,40.113c1.492,0.169,2.895,0.352,4.191,0.548c-0.201-2.128-0.521-4.211-0.953-6.241
			c-1.266-0.238-2.65-0.464-4.145-0.678C78.047,35.812,78.352,37.938,78.549,40.113z"/>
		<path fill="#6185A6" d="M69.086,78.848c0.846,0.07,1.65,0.146,2.4,0.229c1.838-2.163,3.502-4.55,4.951-7.135
			c-0.943-0.1-1.992-0.195-3.141-0.288C72.066,74.25,70.652,76.657,69.086,78.848z"/>
		<path fill="#6185A6" d="M75.99,27.24c0.604,1.905,1.119,3.875,1.537,5.904c1.461,0.206,2.842,0.428,4.125,0.665
			c-0.451-2.004-1.004-3.957-1.662-5.841C78.76,27.711,77.428,27.468,75.99,27.24z"/>
		<path fill="#6185A6" d="M73.564,71.073c1.129,0.094,2.195,0.193,3.178,0.304c1.211-2.227,2.268-4.59,3.148-7.069
			c-1.094-0.147-2.303-0.289-3.625-0.425C75.514,66.401,74.605,68.804,73.564,71.073z"/>
		<path fill="#6185A6" d="M78.109,55.552c1.418,0.168,2.75,0.35,3.969,0.543c0.432-2.349,0.715-4.765,0.84-7.233
			c-1.26-0.212-2.645-0.415-4.145-0.606C78.688,50.743,78.463,53.181,78.109,55.552z"/>
		<path fill="#6185A6" d="M73.525,20.841c0.85,1.839,1.609,3.765,2.27,5.771c1.395,0.215,2.715,0.446,3.953,0.693
			c-0.734-2.016-1.58-3.958-2.535-5.806C76.072,21.268,74.836,21.049,73.525,20.841z"/>
		<path fill="#6185A6" d="M76.438,63.281c1.385,0.142,2.594,0.287,3.66,0.433c0.771-2.256,1.398-4.604,1.871-7.027
			c-1.199-0.186-2.52-0.363-3.955-0.532C77.623,58.608,77.094,60.99,76.438,63.281z"/>
		<path fill="#6185A6" d="M63.82,7.163c0.936,0.857,1.84,1.779,2.707,2.762c0.881,0.12,1.723,0.248,2.529,0.383
			c-1.037-1.023-2.117-1.98-3.24-2.863C65.18,7.347,64.516,7.252,63.82,7.163z"/>
		<path fill="#6185A6" d="M61.57,86.724c-1.509,1.153-3.091,2.147-4.732,2.96c2.018-0.764,3.958-1.742,5.814-2.902
			C62.311,86.762,61.951,86.742,61.57,86.724z"/>
		<path fill="#6185A6" d="M68.666,79.426c-1.92,2.592-4.062,4.855-6.383,6.734c0.451,0.023,0.855,0.049,1.225,0.074
			c2.721-1.812,5.234-4.037,7.494-6.6C70.291,79.563,69.514,79.493,68.666,79.426z"/>
		<path fill="#6185A6" d="M82.793,41.291c-1.275-0.192-2.676-0.376-4.191-0.55c0.139,1.727,0.215,3.48,0.215,5.258
			c0,0.543-0.01,1.082-0.023,1.62c1.482,0.187,2.873,0.389,4.156,0.604c0.029-0.737,0.049-1.478,0.049-2.225
			C82.998,44.408,82.924,42.84,82.793,41.291z"/>
		<path fill="#6185A6" d="M60.257,4.325c0.946,0.646,1.864,1.36,2.758,2.127c0.617,0.072,1.221,0.148,1.805,0.229
			c-1.105-0.808-2.246-1.542-3.42-2.208C61.029,4.423,60.65,4.373,60.257,4.325z"/>
		<path fill="#6185A6" d="M67.119,10.618c1.059,1.259,2.062,2.607,3,4.042c1.084,0.146,2.129,0.303,3.119,0.47
			c-1.078-1.45-2.23-2.817-3.449-4.085C68.943,10.893,68.051,10.751,67.119,10.618z"/>
		<path fill="#6185A6" d="M56.838,2.316c0.782,0.387,1.551,0.816,2.304,1.283c0.268,0.028,0.531,0.058,0.792,0.088
			C58.923,3.177,57.892,2.715,56.838,2.316z"/>
		<path fill="#6185A6" d="M70.523,15.291c0.975,1.547,1.879,3.184,2.701,4.905c1.271,0.193,2.479,0.402,3.623,0.624
			c-0.945-1.761-1.982-3.441-3.111-5.021C72.73,15.621,71.664,15.451,70.523,15.291z"/>
	</g>
	<g>
		<path fill="#6185A6" d="M89.996,36.863c0.365,1.874,0.619,3.79,0.756,5.737c0.334,0.154,0.619,0.312,0.85,0.475
			c-0.119-1.858-0.348-3.687-0.684-5.479C90.719,37.351,90.41,37.106,89.996,36.863z"/>
		<path fill="#6185A6" d="M85.527,24.112c0.963,1.839,1.807,3.753,2.523,5.731c0.334,0.176,0.629,0.357,0.893,0.542
			c-0.713-1.956-1.557-3.849-2.52-5.67C86.178,24.513,85.881,24.311,85.527,24.112z"/>
		<path fill="#6185A6" d="M88.35,30.689c0.605,1.778,1.107,3.605,1.502,5.474c0.332,0.171,0.639,0.346,0.889,0.525
			c-0.371-1.78-0.846-3.521-1.416-5.219C89.094,31.208,88.766,30.948,88.35,30.689z"/>
		<path fill="#6185A6" d="M86.58,65.748c-1.102,2.393-2.396,4.67-3.861,6.816c0.119,0.058,0.221,0.116,0.309,0.176
			c1.521-2.098,2.867-4.328,4.018-6.673C86.959,65.963,86.801,65.855,86.58,65.748z"/>
		<path fill="#6185A6" d="M89.211,58.496c-0.635,2.328-1.443,4.58-2.406,6.745c0.209,0.103,0.373,0.199,0.5,0.291
			c0.998-2.104,1.842-4.297,2.516-6.562C89.703,58.812,89.5,58.654,89.211,58.496z"/>
		<path fill="#6185A6" d="M90.621,50.929c-0.25,2.412-0.68,4.767-1.275,7.054c0.25,0.129,0.471,0.262,0.643,0.397
			c0.627-2.218,1.088-4.503,1.371-6.843C91.221,51.335,90.98,51.132,90.621,50.929z"/>
		<path fill="#6185A6" d="M91.645,43.864c-0.133-0.216-0.418-0.434-0.85-0.65c0.053,0.922,0.082,1.851,0.082,2.785
			c0,1.461-0.07,2.903-0.199,4.328c0.301,0.159,0.555,0.321,0.764,0.488c0.166-1.583,0.256-3.188,0.256-4.816
			C91.697,45.283,91.676,44.572,91.645,43.864z"/>
		<path fill="#6185A6" d="M75.936,80.444c-0.299,0.275-0.6,0.548-0.904,0.814c0.316-0.262,0.633-0.529,0.941-0.8
			C75.961,80.454,75.947,80.448,75.936,80.444z"/>
		<path fill="#6185A6" d="M82.432,72.981c-1.791,2.565-3.832,4.933-6.084,7.068c0.02,0.01,0.035,0.02,0.053,0.028
			c2.332-2.082,4.453-4.398,6.318-6.913C82.666,73.105,82.572,73.044,82.432,72.981z"/>
		<path fill="#6185A6" d="M81.668,17.955c1.23,1.66,2.354,3.408,3.361,5.232c0.281,0.134,0.541,0.271,0.783,0.409
			c-1.049-1.854-2.223-3.627-3.51-5.31C82.111,18.175,81.9,18.064,81.668,17.955z"/>
		<path fill="#6185A6" d="M76.605,12.193c0.057,0.022,0.115,0.044,0.172,0.066c-0.57-0.52-1.152-1.027-1.746-1.518
			C75.566,11.212,76.092,11.697,76.605,12.193z"/>
		<path fill="#6185A6" d="M78.117,13.535c-0.113-0.066-0.238-0.131-0.363-0.196c1.139,1.176,2.215,2.416,3.227,3.711
			c0.176,0.069,0.35,0.139,0.514,0.21C80.436,15.958,79.309,14.714,78.117,13.535z"/>
	</g>
</g>
<g>
	<polygon fill="#EDF4F8" points="29.822,23.839 27.954,6.805 32.176,23.413 34.043,40.448 	"/>
	<polygon fill="#EDF4F8" points="30.822,22.642 45.079,21.078 31.179,24.611 16.919,26.175 	"/>
	<polygon fill="#EDF4F8" points="31.299,23.193 37.204,27.928 30.699,24.062 24.797,19.323 	"/>
	<polygon fill="#EDF4F8" points="31.433,23.93 26.698,29.829 30.566,23.326 35.302,17.423 	"/>
</g>
</svg>
