<?xml version="1.0" encoding="utf-8"?>
<!-- Generator: Adobe Illustrator 15.0.2, SVG Export Plug-In . SVG Version: 6.00 Build 0)  -->
<!DOCTYPE svg PUBLIC "-//W3C//DTD SVG 1.1//EN" "http://www.w3.org/Graphics/SVG/1.1/DTD/svg11.dtd">
<svg version="1.1" id="Layer_1" xmlns="http://www.w3.org/2000/svg" xmlns:xlink="http://www.w3.org/1999/xlink" x="0px" y="0px"
	 width="92px" height="92px" viewBox="0 0 92 92" enable-background="new 0 0 92 92" xml:space="preserve">
<rect fill="#6C0900" width="92" height="92"/>
<g>
	<g>
		<g>
			<g>
				<path fill="#811200" d="M46,46.728v-10.69c0,0-8.867-6.034-19.757-6.034v16.725H46z"/>
				<path fill="#C83B0C" d="M42.653,46.728H9.707c0,0,10.069-16.725,16.542-16.725S42.653,46.728,42.653,46.728z"/>
			</g>
			<g>
				<path fill="#811200" d="M46,46.728v10.69c0,0,8.867,6.034,19.757,6.034V46.728H46z"/>
				<path fill="#C83B0C" d="M49.347,46.728h32.946c0,0-10.069,16.725-16.542,16.725S49.347,46.728,49.347,46.728z"/>
			</g>
		</g>
		<g>
			<g>
				<path fill="#811200" d="M46,46.728l9.206,2.436c0,0,7.519-11.303,7.519-22.193L46,43.381V46.728z"/>
				<path fill="#C83B0C" d="M46,43.381c0,0,4.464-19.874,0-32.946c4.198,2.754,16.725,10.069,16.725,16.542
					C62.725,36.154,46,43.381,46,43.381z"/>
			</g>
			<g>
				<g>
					<path fill="#811200" d="M46,46.728l-9.206-2.436c0,0-7.519,11.303-7.519,22.193L46,50.074V46.728z"/>
					<path fill="#C83B0C" d="M46,50.074c0,0-4.464,19.873,0,32.946c-4.198-2.755-16.725-10.069-16.725-16.542
						C29.275,57.301,46,50.074,46,50.074z"/>
				</g>
			</g>
		</g>
		<g>
			<g>
				<path fill="#811200" d="M46,46.728l-1.135,10.011c0,0,10.002,6.714,20.892,6.714l-16.41-16.725H46z"/>
				<path fill="#C83B0C" d="M49.347,46.728c0,0,19.873,4.464,32.946,0c-2.755,4.198-10.069,16.725-16.542,16.725
					C56.573,63.452,49.347,46.728,49.347,46.728z"/>
			</g>
			<g>
				<g>
					<path fill="#811200" d="M46,46.728l1.134-10.011c0,0-10.001-6.714-20.891-6.714l16.41,16.725H46z"/>
					<path fill="#C83B0C" d="M42.653,46.728c0,0-19.874-4.464-32.946,0c2.754-4.198,10.069-16.725,16.542-16.725
						C35.427,30.003,42.653,46.728,42.653,46.728z"/>
				</g>
			</g>
		</g>
	</g>
	<circle fill="#C83B0C" cx="46" cy="46.728" r="2.437"/>
</g>
</svg>
