<?xml version="1.0" encoding="utf-8"?>
<!-- Generator: Adobe Illustrator 15.0.2, SVG Export Plug-In . SVG Version: 6.00 Build 0)  -->
<!DOCTYPE svg PUBLIC "-//W3C//DTD SVG 1.1//EN" "http://www.w3.org/Graphics/SVG/1.1/DTD/svg11.dtd">
<svg version="1.1" id="Layer_1" xmlns="http://www.w3.org/2000/svg" xmlns:xlink="http://www.w3.org/1999/xlink" x="0px" y="0px"
	 width="142px" height="142px" viewBox="0 0 142 142" enable-background="new 0 0 142 142" xml:space="preserve">
<g>
	<g>
		<path fill="#914E4B" d="M79.057,89.739c-0.104-0.482-1.104-0.683-2.233-0.439c-1.132,0.24-1.962,0.831-1.854,1.315
			c0.1,0.486,1.102,0.687,2.234,0.443C78.33,90.816,79.16,90.225,79.057,89.739z"/>
		<path fill="#914E4B" d="M63.334,89.739c0.104-0.482,1.102-0.683,2.23-0.439c1.131,0.24,1.964,0.831,1.857,1.315
			c-0.104,0.486-1.102,0.687-2.234,0.443C64.061,90.816,63.23,90.225,63.334,89.739z"/>
	</g>
	<g>
		<path fill="#EEE09C" d="M142,71.001C142,110.212,110.214,142,70.998,142C31.79,142,0,110.212,0,71.001C0,31.787,31.79,0,70.998,0
			C110.214,0,142,31.787,142,71.001z"/>
	</g>
	<g>
		<path fill="#713710" d="M111.12,31.896c-5.476-1.907-10.896-2.942-15.907-3.196c4.432-1.312,10.479-1.049,16.639,1.098
			c6.156,2.142,11.062,5.689,13.719,9.473C121.484,36.353,116.591,33.799,111.12,31.896z"/>
		<path fill="#713710" d="M31.271,31.896c5.474-1.907,10.893-2.942,15.906-3.196c-4.434-1.312-10.479-1.049-16.639,1.098
			c-6.159,2.142-11.062,5.689-13.719,9.473C20.904,36.353,25.797,33.799,31.271,31.896z"/>
	</g>
	<g>
		<path fill="#914E4B" d="M79.057,76.491c-0.106-0.485-1.104-0.685-2.233-0.441c-1.132,0.242-1.962,0.832-1.854,1.318
			c0.1,0.485,1.102,0.687,2.23,0.442C78.33,77.57,79.16,76.977,79.057,76.491z"/>
		
			<ellipse transform="matrix(-0.2099 0.9777 -0.9777 -0.2099 154.3127 29.1501)" fill="#914E4B" cx="65.379" cy="76.923" rx="0.899" ry="2.09"/>
	</g>
	<g>
		<path fill="#C29A5B" d="M71.193,90.414c-17.54,0-33.774-3.3-47.072-8.9c6.247,19.705,24.961,34.014,47.072,34.014
			c22.114,0,40.829-14.309,47.073-34.012C104.968,87.114,88.734,90.414,71.193,90.414z"/>
		<g>
			<path fill="#FFFFFF" d="M51.291,106.247c5.217,2.762,12.202,4.466,19.902,4.466c7.706,0,14.688-1.704,19.905-4.466H51.291z"/>
			<path fill="#FFFFFF" d="M71.193,94.393c-12.63,0-24.318-1.129-33.899-3.041c4.498,6.732,17.977,14.131,33.899,14.131
				c15.925,0,29.401-7.397,33.897-14.131C95.516,93.266,83.828,94.393,71.193,94.393z"/>
		</g>
	</g>
	<g>
		<g>
			<g>
				<g>
					<g>
						<path fill="#FFFFFF" d="M42.456,49.142c0,1.299-1.057,2.351-2.356,2.351c-1.303,0-2.357-1.052-2.357-2.351
							c0-1.307,1.055-2.36,2.357-2.36C41.399,46.781,42.456,47.835,42.456,49.142z"/>
					</g>
					<g>
						<path fill="#FFFFFF" d="M30.426,59.292c2.668-1.049,6.198-1.693,10.084-1.693c3.46,0,6.637,0.513,9.178,1.364
							c2.477-1.245,4.354-2.937,5.296-4.885c-3.208-4.802-7.665-6.966-13.874-6.966c-6.494,0-11.592,2.024-16.294,7.639
							C25.94,56.587,27.911,58.161,30.426,59.292z"/>
						<path fill="#661435" d="M46.448,47.283c-1.972-0.749-4.104-1.171-6.339-1.171c-0.482,0-0.959,0.023-1.432,0.061
							c-2.896,1.162-4.943,3.991-4.943,7.301c0,1.699,0.544,3.267,1.459,4.553c1.654-0.272,3.441-0.428,5.316-0.428
							c2.617,0,5.078,0.291,7.222,0.802c1.085-1.35,1.737-3.06,1.737-4.927C49.469,50.959,48.284,48.724,46.448,47.283z"/>
						<path fill="#FFFFFF" d="M38.991,49.142c0,1.299,1.052,2.351,2.352,2.351c1.304,0,2.358-1.052,2.358-2.351
							c0-1.307-1.055-2.36-2.358-2.36C40.043,46.781,38.991,47.835,38.991,49.142z"/>
					</g>
				</g>
				<path fill="#713710" d="M24.979,55.374l-0.961-0.877c5.053-5.541,10.555-8.37,16.351-8.41c9.072-0.021,15.53,6.703,15.8,6.99
					l-0.949,0.89c-0.062-0.066-6.286-6.58-14.73-6.58c-0.042,0-0.083,0-0.125,0C34.952,47.429,29.775,50.116,24.979,55.374z"/>
				<path fill="#713710" d="M29.907,60.135l-0.39-0.895c10.352-4.509,20.282-0.405,20.381-0.363l-0.38,0.898
					C49.423,59.735,39.862,55.797,29.907,60.135z"/>
			</g>
			<g>
				<g>
					<path fill="#B68D26" d="M22.66,55.446c-0.185-0.004-0.364-0.016-0.551-0.016c-5.917,0-10.838,2.507-11.878,5.815
						C13.229,57.771,17.673,55.542,22.66,55.446z"/>
					<path fill="#B68D26" d="M21.968,54.497c-0.187,0.006-0.366,0.014-0.553,0.014c-5.973,0-10.935-1.929-11.985-4.471
						C12.454,52.712,16.938,54.425,21.968,54.497z"/>
				</g>
			</g>
		</g>
		<g>
			<g>
				<path fill="#FFFFFF" d="M102.721,47.112c-6.201,0-10.654,2.155-13.865,6.946c0.941,1.952,2.795,3.658,5.277,4.906
					c2.543-0.854,5.725-1.366,9.188-1.366c3.883,0,7.412,0.645,10.08,1.692c2.516-1.128,4.486-2.699,5.617-4.53
					C115.684,50.73,109.216,47.112,102.721,47.112z"/>
				<path fill="#661435" d="M105.146,46.173c-0.471-0.037-0.946-0.061-1.428-0.061c-2.238,0-4.371,0.423-6.343,1.173
					c-1.836,1.44-3.021,3.675-3.021,6.188c0,1.867,0.652,3.578,1.738,4.927c2.145-0.51,4.604-0.802,7.225-0.802
					c1.873,0,3.658,0.155,5.312,0.427c0.915-1.285,1.459-2.853,1.459-4.552C110.091,50.163,108.043,47.335,105.146,46.173z"/>
				<path fill="#FFFFFF" d="M104.497,49.142c0,1.299-1.056,2.351-2.354,2.351c-1.304,0-2.357-1.052-2.357-2.351
					c0-1.307,1.055-2.36,2.357-2.36C103.441,46.781,104.497,47.835,104.497,49.142z"/>
			</g>
			<path fill="#713710" d="M118.748,55.374c-4.795-5.257-9.973-7.944-15.387-7.986c-0.043,0-0.084,0-0.127,0
				c-8.445,0-14.672,6.514-14.733,6.58l-0.949-0.89c0.271-0.288,6.751-7.068,15.806-6.99c5.797,0.041,11.299,2.87,16.352,8.41
				L118.748,55.374z"/>
			<path fill="#713710" d="M113.52,60.135c-9.959-4.337-19.519-0.399-19.612-0.359l-0.38-0.898
				c0.099-0.042,10.031-4.145,20.382,0.363L113.52,60.135z"/>
			<g>
				<path fill="#B68D26" d="M120.266,55.446c0.183-0.004,0.359-0.016,0.549-0.016c5.918,0,10.838,2.507,11.879,5.815
					C129.693,57.771,125.249,55.542,120.266,55.446z"/>
				<path fill="#B68D26" d="M120.418,54.497c0.188,0.006,0.367,0.014,0.555,0.014c5.973,0,10.932-1.929,11.984-4.471
					C129.938,52.712,125.448,54.425,120.418,54.497z"/>
			</g>
		</g>
	</g>
	<path fill="none" stroke="#713710" stroke-width="1.0635" stroke-miterlimit="10" d="M71.193,55.167"/>
	<path fill="none" stroke="#713710" stroke-width="1.0635" stroke-miterlimit="10" d="M71.193,54.083"/>
</g>
</svg>
