<?xml version="1.0" encoding="utf-8"?>
<!-- Generator: Adobe Illustrator 15.0.2, SVG Export Plug-In . SVG Version: 6.00 Build 0)  -->
<!DOCTYPE svg PUBLIC "-//W3C//DTD SVG 1.1//EN" "http://www.w3.org/Graphics/SVG/1.1/DTD/svg11.dtd">
<svg version="1.1" id="Layer_1" xmlns="http://www.w3.org/2000/svg" xmlns:xlink="http://www.w3.org/1999/xlink" x="0px" y="0px"
	 width="142px" height="142px" viewBox="0 0 142 142" enable-background="new 0 0 142 142" xml:space="preserve">
<g>
	<g>
		<path fill="#EEE09C" d="M142,70.999C142,110.213,110.211,142,71,142C23.291,142,0,99.273,0,70.999C0,31.787,31.786,0,71,0
			C110.211,0,142,31.787,142,70.999z"/>
	</g>
	<g>
		<path fill="#914E4B" d="M79.701,96.509c-0.104-0.483-1.102-0.684-2.23-0.44c-1.131,0.242-1.965,0.832-1.857,1.316
			c0.104,0.487,1.103,0.686,2.234,0.445C78.975,97.587,79.805,96.993,79.701,96.509z"/>
		<path fill="#914E4B" d="M63.979,96.509c0.104-0.483,1.104-0.684,2.234-0.44c1.128,0.242,1.959,0.832,1.853,1.316
			c-0.101,0.487-1.102,0.686-2.233,0.445C64.706,97.587,63.875,96.993,63.979,96.509z"/>
	</g>
	<path fill="#C29A5B" d="M71.837,116.8c11.183,0,21.644,3.136,30.588,8.582c-8.077-8.801-18.806-14.168-30.588-14.168
		c-11.778,0-22.511,5.367-30.585,14.168C50.199,119.936,60.656,116.8,71.837,116.8z"/>
	<g>
		<g>
			<path fill="#FFFFFF" d="M99.104,67.72c-4.449-1.977-8.188-5.675-11.386-7.911c-2.875,6.353,1.197,14.942,8.435,18.162
				c7.428,3.297,16.314,0.213,19.472-6.687C115.643,71.243,104.757,70.229,99.104,67.72z"/>
			<path fill="#661435" d="M96.525,78.008c1.771,0.785,3.582,1.235,5.358,1.4c1.289-0.741,2.366-1.877,3.017-3.342
				c0.926-2.084,0.789-4.368-0.176-6.253c-1.701-0.614-3.442-1.312-5.207-2.094c-1.134-0.504-2.234-1.025-3.303-1.559
				c-1.973,0.582-3.688,1.987-4.585,4.011c-0.582,1.312-0.737,2.7-0.54,4.021C92.557,75.73,94.384,77.055,96.525,78.008z"/>
			<path fill="#FFFFFF" d="M101.686,70.828c-0.49,1.105-1.787,1.602-2.894,1.109c-1.101-0.492-1.601-1.777-1.104-2.883
				c0.489-1.11,1.778-1.607,2.883-1.115C101.676,68.425,102.176,69.721,101.686,70.828z"/>
			<g>
				<path fill="#713710" d="M110.93,71.701c-5.426,0-14.529-1.817-23.246-11.912l1.248-1.079
					c12.853,14.882,26.312,10.881,26.445,10.84l0.494,1.575C115.818,71.142,113.939,71.701,110.93,71.701z"/>
			</g>
			<path fill="#713710" d="M106.576,80.367c-2.413,0-10.567-0.655-19.973-8.664l0.713-0.838c10.656,9.074,19.781,8.388,19.875,8.381
				l0.097,1.097C107.23,80.348,106.986,80.367,106.576,80.367z"/>
		</g>
		<g>
			<path fill="#FFFFFF" d="M44.574,67.72c-8.136,4.408-16.534,3.521-16.519,3.564c2.667,7.903,12.042,9.981,19.471,6.687
				c7.237-3.22,11.443-11.037,8.444-18.162C52.773,62.045,48.855,65.399,44.574,67.72z"/>
			<path fill="#661435" d="M51.945,70.172c-0.959-2.16-2.851-3.613-4.99-4.113c-1.99,1.884-4.825,3.225-8.07,3.692
				c-0.993,1.896-1.146,4.209-0.209,6.315c0.648,1.465,1.727,2.601,3.015,3.342c1.776-0.165,3.589-0.615,5.358-1.4
				c2.141-0.953,3.97-2.275,5.436-3.814C52.683,72.872,52.527,71.483,51.945,70.172z"/>
			<path fill="#FFFFFF" d="M41.889,70.828c0.49,1.105,1.786,1.602,2.893,1.109c1.102-0.492,1.601-1.777,1.106-2.883
				c-0.49-1.11-1.78-1.607-2.884-1.115C41.898,68.425,41.397,69.721,41.889,70.828z"/>
			<g>
				<path fill="#713710" d="M32.749,71.701c-3.011,0-4.889-0.56-4.941-0.576L28.3,69.55c0.551,0.171,13.631,4,26.447-10.839
					l1.249,1.079C47.279,69.883,38.175,71.701,32.749,71.701z"/>
			</g>
			<path fill="#713710" d="M37.102,80.367c-0.411,0-0.655-0.02-0.711-0.024l0.095-1.097c0.089,0.007,9.249,0.667,19.877-8.381
				l0.714,0.838C47.67,79.712,39.516,80.367,37.102,80.367z"/>
		</g>
	</g>
	<g>
		<g>
			<path fill="#713710" d="M38.118,52.536c-4.788,3.01-9.63,5.224-14.188,6.63c4.212,0.148,9.718-1.512,15.102-4.901
				c5.384-3.388,9.457-7.749,11.45-11.801C47.081,46.065,42.905,49.525,38.118,52.536z"/>
		</g>
		<g>
			<path fill="#713710" d="M105.301,52.569c4.909,2.814,9.833,4.827,14.449,6.046c-4.201,0.32-9.771-1.114-15.291-4.28
				c-5.518-3.164-9.768-7.356-11.922-11.321C96.081,46.472,100.398,49.759,105.301,52.569z"/>
		</g>
	</g>
</g>
</svg>
