<?xml version="1.0" encoding="utf-8"?>
<!-- Generator: Adobe Illustrator 15.0.2, SVG Export Plug-In . SVG Version: 6.00 Build 0)  -->
<!DOCTYPE svg PUBLIC "-//W3C//DTD SVG 1.1//EN" "http://www.w3.org/Graphics/SVG/1.1/DTD/svg11.dtd">
<svg version="1.1" id="Layer_1" xmlns="http://www.w3.org/2000/svg" xmlns:xlink="http://www.w3.org/1999/xlink" x="0px" y="0px"
	 width="142px" height="142px" viewBox="0 0 142 142" enable-background="new 0 0 142 142" xml:space="preserve">
<g>
	<path fill="#EEE09C" d="M142,70.998C142,110.21,110.212,142,70.999,142C31.788,142,0,110.21,0,70.998C0,31.789,31.788,0,70.999,0
		C110.212,0,142,31.789,142,70.998z"/>
</g>
<g>
	<path fill="#713710" d="M37.392,48.331c4.899-0.123,9.539,0.389,13.643,1.389c-3.231-2.031-8.17-3.267-13.69-3.127
		c-5.519,0.14-10.388,1.62-13.514,3.814C27.881,49.199,32.487,48.456,37.392,48.331z"/>
	<path fill="#713710" d="M105,48.381c-4.906-0.124-9.543,0.388-13.651,1.388c3.233-2.031,8.176-3.266,13.692-3.127
		c5.52,0.14,10.39,1.62,13.514,3.816C114.509,49.248,109.899,48.505,105,48.381z"/>
</g>
<path fill="#C29A5B" d="M86.038,115.66c0,0.911-6.73,2.647-15.039,2.647c-8.305,0-15.039-1.736-15.039-2.647
	c0-0.912,6.734-0.243,15.039-0.243C79.308,115.417,86.038,114.748,86.038,115.66z"/>
<g>
	<g>
		<path fill="#FFFFFF" d="M118.382,68.167c0,4.221-6.703,7.634-14.969,7.634s-14.969-3.413-14.969-7.634
			c0-4.215,6.703-7.63,14.969-7.63S118.382,63.952,118.382,68.167z"/>
		<path fill="#560000" d="M111.232,67.92c0,4.073-3.304,7.379-7.381,7.379c-4.068,0-7.372-3.306-7.372-7.379
			c0-4.076,3.304-7.383,7.372-7.383C107.929,60.537,111.232,63.844,111.232,67.92z"/>
		<path fill="#FFFFFF" d="M105.986,65.789c0,1.214-0.988,2.209-2.209,2.209c-1.222,0-2.211-0.995-2.211-2.209
			c0-1.225,0.989-2.211,2.211-2.211C104.998,63.578,105.986,64.564,105.986,65.789z"/>
	</g>
	<g>
		<path fill="#FFFFFF" d="M24.006,68.108c0,4.182,6.701,7.572,14.971,7.572c8.259,0,14.966-3.39,14.966-7.572
			c0-4.183-6.707-7.571-14.966-7.571C30.707,60.537,24.006,63.925,24.006,68.108z"/>
		<circle fill="#560000" cx="38.529" cy="67.92" r="7.379"/>
		<path fill="#FFFFFF" d="M36.396,65.789c0,1.214,0.989,2.209,2.209,2.209c1.222,0,2.21-0.995,2.21-2.209
			c0-1.225-0.989-2.214-2.21-2.214C37.384,63.575,36.396,64.564,36.396,65.789z"/>
	</g>
</g>
<g>
	<path fill="#8F4E4B" d="M79.053,94.451c-0.104-0.483-1.102-0.683-2.232-0.44c-1.132,0.242-1.96,0.832-1.854,1.32
		c0.102,0.483,1.1,0.687,2.234,0.44C78.327,95.532,79.157,94.939,79.053,94.451z"/>
	<path fill="#8F4E4B" d="M63.331,94.451c0.106-0.483,1.101-0.683,2.232-0.44c1.13,0.242,1.962,0.832,1.856,1.32
		c-0.104,0.483-1.103,0.687-2.234,0.44C64.059,95.532,63.229,94.939,63.331,94.451z"/>
</g>
</svg>
