<?xml version="1.0" encoding="utf-8"?>
<!-- Generator: Adobe Illustrator 15.0.2, SVG Export Plug-In . SVG Version: 6.00 Build 0)  -->
<!DOCTYPE svg PUBLIC "-//W3C//DTD SVG 1.1//EN" "http://www.w3.org/Graphics/SVG/1.1/DTD/svg11.dtd">
<svg version="1.1" id="Layer_1" xmlns="http://www.w3.org/2000/svg" xmlns:xlink="http://www.w3.org/1999/xlink" x="0px" y="0px"
	 width="142px" height="142px" viewBox="0 0 142 142" enable-background="new 0 0 142 142" xml:space="preserve">
<g>
	<circle fill="#EEE09C" cx="71" cy="71" r="71"/>
</g>
<g>
	<g>
		<path fill="#FFFFFF" d="M54.776,65.875c0,7.537-5.346,13.644-11.944,13.644c-6.598,0-11.951-6.106-11.951-13.644
			c0-7.533,5.354-13.645,11.951-13.645C49.431,52.23,54.776,58.342,54.776,65.875z"/>
		<path fill="#560000" d="M51.329,64.483c0,4.375-3.553,7.929-7.929,7.929c-4.377,0-7.926-3.554-7.926-7.929
			c0-4.38,3.549-7.928,7.926-7.928C47.776,56.555,51.329,60.104,51.329,64.483z"/>
		<path fill="#FFFFFF" d="M46.579,62.104c0,1.752-1.422,3.171-3.171,3.171c-1.752,0-3.174-1.419-3.174-3.171
			c0-1.75,1.422-3.169,3.174-3.169C45.157,58.934,46.579,60.354,46.579,62.104z"/>
	</g>
	<g>
		<path fill="#FFFFFF" d="M87.229,65.166c0,7.535,5.348,13.643,11.946,13.643c6.602,0,11.943-6.107,11.943-13.643
			c0-7.535-5.342-13.646-11.943-13.646C92.577,51.521,87.229,57.631,87.229,65.166z"/>
		<path fill="#560000" d="M91.085,64.483c0,4.375,3.549,7.929,7.927,7.929c4.379,0,7.928-3.554,7.928-7.929
			c0-4.38-3.549-7.928-7.928-7.928C94.634,56.555,91.085,60.104,91.085,64.483z"/>
		<path fill="#FFFFFF" d="M95.837,62.104c0,1.752,1.418,3.171,3.165,3.171c1.754,0,3.176-1.419,3.176-3.171
			c0-1.75-1.422-3.169-3.176-3.169C97.255,58.934,95.837,60.354,95.837,62.104z"/>
	</g>
</g>
<g>
	<path fill="#8A4E4B" d="M78.861,91.749c-0.105-0.483-1.104-0.683-2.234-0.441c-1.131,0.243-1.961,0.834-1.854,1.319
		c0.1,0.486,1.102,0.687,2.234,0.442C78.135,92.828,78.965,92.234,78.861,91.749z"/>
	<path fill="#8A4E4B" d="M63.139,91.749c0.102-0.483,1.102-0.683,2.23-0.441c1.131,0.243,1.963,0.834,1.857,1.319
		c-0.104,0.486-1.102,0.687-2.234,0.442C63.865,92.828,63.033,92.234,63.139,91.749z"/>
</g>
<path fill="#C29A5B" d="M82.001,120.369c0,6.253-4.923,11.325-11.001,11.325c-6.074,0-10.997-5.072-10.997-11.325
	c0-6.256,4.923-11.324,10.997-11.324C77.078,109.045,82.001,114.113,82.001,120.369z"/>
<g>
	<path fill="#8B6844" d="M70.996,112.266c-11.991,0-11.991,14.999,0,14.999C83.003,127.265,83.003,112.266,70.996,112.266z"/>
	<path fill="#FFFFFF" d="M74.781,126.546c-1.092-0.381-2.342-0.605-3.785-0.605c-1.43,0-2.684,0.225-3.773,0.605
		c1.092,0.381,2.334,0.623,3.773,0.623C72.447,127.169,73.689,126.927,74.781,126.546z"/>
</g>
<g>
	<g>
		<path fill="#713710" d="M100.582,34.076c7.898,0,12.494,3.419,16.138,6.49c-2.751-4.727-7.306-9.454-16.233-9.454
			c-6.685,0-11.315,3.28-14.208,8.164C90.087,36.67,94.132,34.076,100.582,34.076z"/>
	</g>
	<g>
		<path fill="#713710" d="M41.42,34.076c-7.9,0-12.496,3.419-16.138,6.49c2.749-4.727,7.306-9.454,16.233-9.454
			c6.685,0,11.315,3.28,14.208,8.164C51.915,36.67,47.87,34.076,41.42,34.076z"/>
	</g>
</g>
</svg>
