<?xml version="1.0" encoding="utf-8"?>
<!-- Generator: Adobe Illustrator 15.0.2, SVG Export Plug-In . SVG Version: 6.00 Build 0)  -->
<!DOCTYPE svg PUBLIC "-//W3C//DTD SVG 1.1//EN" "http://www.w3.org/Graphics/SVG/1.1/DTD/svg11.dtd">
<svg version="1.1" id="Layer_1" xmlns="http://www.w3.org/2000/svg" xmlns:xlink="http://www.w3.org/1999/xlink" x="0px" y="0px"
	 width="142px" height="142px" viewBox="0 0 142 142" enable-background="new 0 0 142 142" xml:space="preserve">
<g>
	<path fill="#EEE09C" d="M141.996,70.226c0.429,39.209-31.009,71.342-70.225,71.769c-39.21,0.43-71.341-31.012-71.767-70.219
		C-0.426,32.564,31.011,0.431,70.221,0.004C109.435-0.422,141.566,31.016,141.996,70.226z"/>
</g>
<g>
	<path fill="#8F4E4B" d="M78.86,93.767c-0.104-0.486-1.103-0.684-2.23-0.442c-1.132,0.242-1.964,0.834-1.856,1.317
		c0.104,0.487,1.101,0.687,2.232,0.444C78.134,94.844,78.964,94.25,78.86,93.767z"/>
	<path fill="#8F4E4B" d="M63.14,93.767c0.104-0.486,1.099-0.684,2.23-0.442c1.13,0.242,1.964,0.834,1.856,1.317
		c-0.104,0.487-1.103,0.687-2.234,0.444C63.866,94.844,63.036,94.25,63.14,93.767z"/>
</g>
<g>
	<path fill="#C29A5B" d="M45.749,113.803c0-7.429,11.439-7.132,25.384-7.132c13.947,0,25.12-0.594,25.12,7.132
		c0,16.117-11.305,4.723-25.253,4.726C57.052,118.528,45.749,128.965,45.749,113.803z"/>
	<path fill="#FFFFFF" d="M87.664,107.971c0,0-16.664-1.3-33.328,0c0,0-0.081,5.374,15.908,5.515
		C86.235,113.625,87.664,107.971,87.664,107.971z"/>
	<path fill="#FFFFFF" d="M57.371,120.398c0,0,11.963-5.382,27.258,0c0,0-0.715-5.872-13.592-5.872
		C58.513,114.526,57.371,120.398,57.371,120.398z"/>
</g>
<g>
	<g>
		<path fill="#FFFFFF" d="M57.516,62.065c0,7.435-6.315,13.462-14.107,13.462c-7.789,0-14.104-6.028-14.104-13.462
			c0-7.443,6.315-13.464,14.104-13.464C51.2,48.601,57.516,54.622,57.516,62.065z"/>
		<path fill="#8F4E4B" d="M43.408,76.027c-8.053,0-14.604-6.264-14.604-13.962c0-7.7,6.551-13.964,14.604-13.964
			c8.055,0,14.607,6.264,14.607,13.964C58.016,69.764,51.463,76.027,43.408,76.027z M43.408,49.101
			c-7.501,0-13.604,5.816-13.604,12.964c0,7.147,6.103,12.962,13.604,12.962c7.503,0,13.607-5.815,13.607-12.962
			C57.016,54.917,50.911,49.101,43.408,49.101z"/>
	</g>
	<circle fill="#560000" cx="43.409" cy="63.59" r="7.251"/>
	<path fill="#FFFFFF" d="M45.737,60.526c0,1.283-1.04,2.326-2.329,2.326c-1.284,0-2.326-1.043-2.326-2.326
		c0-1.288,1.042-2.329,2.326-2.329C44.697,58.197,45.737,59.238,45.737,60.526z"/>
	<path fill="none" stroke="#2B2523" stroke-width="0.5638" stroke-miterlimit="10" d="M43.408,52.544"/>
	<path fill="none" stroke="#2B2523" stroke-width="0.5638" stroke-miterlimit="10" d="M43.408,51.91"/>
	<g>
		<path fill="#FFFFFF" d="M84.486,62.065c0,7.435,6.313,13.462,14.104,13.462c7.793,0,14.106-6.028,14.106-13.462
			c0-7.443-6.313-13.464-14.106-13.464C90.8,48.601,84.486,54.622,84.486,62.065z"/>
		<path fill="#8F4E4B" d="M98.59,76.027c-8.053,0-14.604-6.264-14.604-13.962c0-7.7,6.551-13.964,14.604-13.964
			c8.054,0,14.606,6.264,14.606,13.964C113.196,69.764,106.644,76.027,98.59,76.027z M98.59,49.101
			c-7.501,0-13.604,5.816-13.604,12.964c0,7.147,6.103,12.962,13.604,12.962c7.503,0,13.606-5.815,13.606-12.962
			C112.196,54.917,106.093,49.101,98.59,49.101z"/>
	</g>
	<circle fill="#560000" cx="98.591" cy="63.59" r="7.251"/>
	<path fill="#FFFFFF" d="M96.263,60.526c0,1.283,1.044,2.326,2.327,2.326c1.286,0,2.328-1.043,2.328-2.326
		c0-1.288-1.042-2.329-2.328-2.329C97.307,58.197,96.263,59.238,96.263,60.526z"/>
</g>
<g>
	<path fill="#713710" d="M97.398,37.283c-5.206-1.36-10.231-1.653-14.769-1.047c3.77-2.444,9.233-3.22,15.094-1.688
		c5.859,1.529,10.815,5.031,13.794,9.238C107.394,40.913,102.604,38.643,97.398,37.283z"/>
	<path fill="#713710" d="M44.602,37.283c5.204-1.36,10.231-1.653,14.771-1.049c-3.771-2.443-9.237-3.219-15.096-1.688
		c-5.859,1.53-10.815,5.031-13.793,9.236C34.604,40.913,39.396,38.641,44.602,37.283z"/>
</g>
</svg>
