<?xml version="1.0" encoding="utf-8"?>
<!-- Generator: Adobe Illustrator 15.0.2, SVG Export Plug-In . SVG Version: 6.00 Build 0)  -->
<!DOCTYPE svg PUBLIC "-//W3C//DTD SVG 1.1//EN" "http://www.w3.org/Graphics/SVG/1.1/DTD/svg11.dtd">
<svg version="1.1" id="Layer_1" xmlns="http://www.w3.org/2000/svg" xmlns:xlink="http://www.w3.org/1999/xlink" x="0px" y="0px"
	 width="142px" height="142px" viewBox="0 0 142 142" enable-background="new 0 0 142 142" xml:space="preserve">
<g>
	<g>
		<circle fill="#EEE09C" cx="71" cy="71" r="71"/>
	</g>
	<path fill="#C29A5B" d="M93.573,121.006c0,3.246-11.548-5.795-22.38-5.795c-12.361,0-22.385,9.387-22.385,5.795
		c0-3.5,10.023-6.395,22.385-6.395C83.559,114.611,93.573,117.703,93.573,121.006z"/>
	<g>
		<path fill="#964E4B" d="M67.569,100.628c-0.266,0.625-1.459,0.718-2.666,0.205c-1.208-0.513-1.972-1.438-1.702-2.063
			c0.263-0.629,1.458-0.725,2.67-0.209C67.076,99.074,67.838,99.999,67.569,100.628z"/>
		<path fill="#964E4B" d="M74.812,100.628c0.266,0.625,1.459,0.718,2.666,0.205c1.209-0.513,1.974-1.438,1.701-2.063
			c-0.263-0.629-1.459-0.725-2.668-0.209C75.307,99.074,74.545,99.999,74.812,100.628z"/>
	</g>
	<g>
		<g>
			<g>
				<g>
					
						<ellipse transform="matrix(0.1413 -0.99 0.99 0.1413 -30.1875 103.3365)" fill="#FFFFFF" cx="44.473" cy="69.069" rx="13.817" ry="15.708"/>
					<path fill="#560000" d="M52.271,71.848c-0.734,5.144-5.503,8.727-10.648,7.991c-5.148-0.735-8.721-5.506-7.985-10.649
						c0.735-5.151,5.501-8.72,10.649-7.984C49.428,61.937,53.006,66.699,52.271,71.848z"/>
					<path fill="#FFFFFF" d="M45.34,70.835c-0.189,1.315-1.405,2.229-2.725,2.042c-1.312-0.191-2.229-1.41-2.042-2.725
						c0.187-1.317,1.41-2.233,2.727-2.046C44.615,68.293,45.525,69.516,45.34,70.835z"/>
					<path fill="#EEE09C" d="M47.193,54.064c12.515,3.993,21.258,11.623,19.529,17.042c-0.624,1.955-3.238,5.839-5.996,6.638
						c-3.166-3.998-8.908-10.533-16.914-13.087c-8.005-2.557-15.013-6.068-21.521-3.062c-1.785-2.254-1.514-2.995-0.888-4.949
						C23.131,51.231,34.681,50.075,47.193,54.064z"/>
					<path fill="#EEE09C" d="M40.302,89.848c-13.007-1.834-22.911-7.885-22.117-13.522c0.29-2.026,1.938-3.722,4.524-4.973
						c3.786,3.414,10.818,6.316,19.143,7.483c8.322,1.174,15.883,0.323,20.472-1.901c2.139,1.92,3.257,4,2.969,6.029
						C64.495,88.6,53.309,91.68,40.302,89.848z"/>
				</g>
				<path fill="none" stroke="#713710" stroke-width="1.6389" stroke-miterlimit="10" d="M59.313,75.607"/>
				<path fill="none" stroke="#713710" stroke-width="1.6389" stroke-miterlimit="10" d="M29.86,58.59"/>
				<path fill="none" stroke="#713710" stroke-width="1.2291" stroke-miterlimit="10" d="M56.9,78.975"/>
				<path fill="none" stroke="#713710" stroke-width="1.2291" stroke-miterlimit="10" d="M31.962,75.416"/>
			</g>
			<g>
				<path fill="#713710" d="M59.76,77.529c-0.143,0-0.284-0.061-0.383-0.178c-12.024-14.247-29.911-16.999-30.09-17.024
					c-0.273-0.04-0.462-0.293-0.422-0.567c0.039-0.273,0.292-0.465,0.567-0.422c0.183,0.026,18.444,2.836,30.71,17.37
					c0.178,0.211,0.151,0.526-0.06,0.705C59.988,77.492,59.874,77.529,59.76,77.529z"/>
				<path fill="#713710" d="M47.894,80.102c-9.697,0-16.669-4.065-16.764-4.123c-0.237-0.142-0.315-0.447-0.174-0.686
					c0.141-0.236,0.449-0.314,0.686-0.174c0.127,0.076,12.949,7.531,27.883,1.85c0.259-0.1,0.547,0.031,0.645,0.29
					s-0.031,0.548-0.29,0.646C55.645,79.516,51.573,80.102,47.894,80.102z"/>
			</g>
		</g>
		<g>
			<g>
				<g>
					<path fill="#FFFFFF" d="M82.359,71.288c1.082,7.553,8.914,12.687,17.504,11.458c8.588-1.225,14.673-8.346,13.595-15.898
						c-1.077-7.555-8.912-12.684-17.5-11.458C87.368,56.616,81.285,63.733,82.359,71.288z"/>
					<path fill="#560000" d="M90.109,71.848c0.732,5.144,5.502,8.727,10.647,7.991c5.147-0.735,8.724-5.506,7.988-10.649
						c-0.735-5.151-5.502-8.72-10.649-7.984C92.952,61.937,89.376,66.699,90.109,71.848z"/>
					<path fill="#FFFFFF" d="M97.041,70.835c0.188,1.315,1.404,2.229,2.723,2.042c1.316-0.191,2.233-1.41,2.043-2.725
						c-0.188-1.317-1.41-2.233-2.724-2.046C97.766,68.293,96.854,69.516,97.041,70.835z"/>
					<path fill="#EEE09C" d="M95.188,54.064C82.673,58.057,73.932,65.688,75.66,71.107c0.623,1.954,3.234,5.84,5.994,6.638
						c3.168-3.998,8.906-10.533,16.912-13.087c8.009-2.557,11.059-6.068,21.524-3.062c1.783-2.254,1.511-2.995,0.886-4.949
						C119.247,51.231,107.702,50.075,95.188,54.064z"/>
					<path fill="#EEE09C" d="M102.081,89.848c13.007-1.834,22.907-7.885,22.116-13.522c-0.293-2.026-1.94-3.722-4.527-4.973
						c-3.785,3.414-10.818,6.316-19.141,7.483c-8.321,1.174-15.881,0.323-20.473-1.901c-2.136,1.92-3.255,4-2.968,6.029
						C77.887,88.6,89.07,91.68,102.081,89.848z"/>
				</g>
				<path fill="none" stroke="#713710" stroke-width="1.6389" stroke-miterlimit="10" d="M83.068,75.607"/>
				<path fill="none" stroke="#713710" stroke-width="1.6389" stroke-miterlimit="10" d="M112.521,58.59"/>
				<path fill="none" stroke="#713710" stroke-width="1.2291" stroke-miterlimit="10" d="M85.48,78.975"/>
				<path fill="none" stroke="#713710" stroke-width="1.2291" stroke-miterlimit="10" d="M110.417,75.416"/>
			</g>
			<g>
				<path fill="#713710" d="M82.619,77.529c-0.114,0-0.229-0.038-0.322-0.117c-0.211-0.178-0.236-0.493-0.059-0.705
					c12.27-14.534,30.531-17.343,30.714-17.37c0.271-0.041,0.526,0.149,0.567,0.422c0.039,0.273-0.149,0.527-0.422,0.567
					c-0.18,0.026-18.076,2.79-30.096,17.025C82.902,77.471,82.762,77.529,82.619,77.529z"/>
				<path fill="#713710" d="M94.486,80.102c-3.678,0-7.75-0.586-11.986-2.197c-0.258-0.098-0.389-0.387-0.29-0.646
					c0.099-0.258,0.388-0.389,0.646-0.29c14.937,5.682,27.754-1.773,27.883-1.85c0.236-0.141,0.544-0.062,0.686,0.174
					c0.141,0.236,0.062,0.544-0.174,0.686C111.154,76.035,104.184,80.102,94.486,80.102z"/>
			</g>
		</g>
	</g>
	<path fill="#713710" d="M71.189,65.219c-0.276,0-0.5-0.224-0.5-0.5v-16.63c0-0.276,0.224-0.5,0.5-0.5s0.5,0.224,0.5,0.5v16.63
		C71.689,64.996,71.466,65.219,71.189,65.219z"/>
	<g>
		<path fill="#713710" d="M74.648,54.572c0,0,2.059,14.854,27.194-3.875c0,0,7.566-6.365,12.583-3.105c0,0-3.322-1.127-9.566,2.964
			c-3.282,2.15-6.184,5.209-13.159,9.887C74.323,72.096,74.202,58.369,74.648,54.572z"/>
		<path fill="#713710" d="M68.137,54.376c0,0-1.108,14.909-27.414-2.961c0,0-7.968-6.106-12.768-2.681c0,0,3.25-1.237,9.746,2.638
			c3.419,2.041,6.51,5.001,13.78,9.443C69.584,71.874,68.822,58.155,68.137,54.376z"/>
	</g>
</g>
</svg>
