<?xml version="1.0" encoding="utf-8"?>
<!-- Generator: Adobe Illustrator 15.0.2, SVG Export Plug-In . SVG Version: 6.00 Build 0)  -->
<!DOCTYPE svg PUBLIC "-//W3C//DTD SVG 1.1//EN" "http://www.w3.org/Graphics/SVG/1.1/DTD/svg11.dtd">
<svg version="1.1" id="Layer_1" xmlns="http://www.w3.org/2000/svg" xmlns:xlink="http://www.w3.org/1999/xlink" x="0px" y="0px"
	 width="1600px" height="900px" viewBox="0 0 1600 900" enable-background="new 0 0 1600 900" xml:space="preserve">
<rect fill="#69C4BA" width="1600" height="900"/>
<rect fill="#C0D8E4" width="1600" height="267"/>
<path fill="#81918E" d="M1103.945,572.158c-11.031,13.115-34.467,24.842-65.467,31.662c-36.868,8.112-75.096,12.964-107.422,24.412
	c-58.767,20.812,17.323,65.093,39.424,85.484c34.978,32.272,15.83,69.077-27.191,91.897c-24.54,13.018-56.466,25.983-82.812,31.582
	c-1.861-11.343-9.623-28.429-21.39-34.412c5.114,6.276,9.908,20.542,11.551,28.198c-3.54-3.493-7.118-6.973-10.716-10.416
	c7.102,9.255,9.23,16.494,5.565,21.011c-7.929,3.033-36.791,10.143-50.192,14.013c0.691-7.456,3.438-16.679-1.354-22.534
	c-1.479,4.158-3.659,6.15-3.376,10.833c-0.943-6.89-3.689-13.517-6.035-19.713c-3.192,4.354-2.263,20.059-4.454,24.633
	c2.177-17.226-12.355-34.729-23.854-46.854c2.056,7.884,8.095,14.581,10.351,22.396c2.392,8.284,1.374,18.38,2.694,26.955
	c-6.82-10.772-9.582-23.9-23.473-31.014c3.214,10.855,23.075,33.867,14.097,44.41c-5.572,3.611-48.427,11.35-60.258,13.836
	c-40.366,8.488-81.002,15.603-121.886,21.461H0V770.33c27.558-3.286,43.323-1.954,83.579-5.222c0.22-7.544-5.47-26.115-7.679-40.143
	c5.291,9.31,13.095,18.484,14.544,31.938c-0.505-12.026,1.042-20.211-1.379-31.972c2.91,9.253,7.354,16.619,6.887,26.732
	c6.169-20.115-0.661-37.633-5.753-49.805c-0.594-0.494-0.622-0.472-0.083,0.073c12.159,9.791,17.083,35.92,15.405,50.591
	c4.814-10.452,6.769-24.478,6.376-36.15c5.736,8.535,6.213,23.791,2.516,33.404c5.014-7.204,9.136-16.259,16.417-20.896
	c-0.753,7.634-4.954,16.307-7.383,23.573c2.79-2.974,6.154-4.245,9-6.418c-2.775,3.92-5.041,13.243-6.043,17.438
	c57.388-2.51,144.748-9.098,199.763-12.446c59.487-3.622,154.908-8.279,214.059-15.372c44.028-5.28,89.938-8.928,129.229-25.098
	c19.018-7.825,38.415-16.34,48.387-32.526c10.913-17.719,2.656-22.072-8.773-36.369c-51.856-64.853,134.034-65.408,179.278-69.508
	c37.844-3.429,70.767-2.898,99.662-8.889c23.414-4.851,41.694-13.85,34.159-19.632c0,0,79.044,1.089,98.154,1.089
	C1120.322,544.729,1121.23,551.608,1103.945,572.158z"/>
<path fill="#838B37" d="M0.116,292.878c0,0,1428.954-15.512,1600.052,4.11V451.41c-40.846-5.41-83.496-5.067-125.127-3.41
	c-37.867,1.508-72.635-6.749-109.994-8.555c-38.098-1.843-74.426-9.481-112-9.438c-35.402,0.042-71.982-1.006-108.035-1.006
	c-95.045,0-186.373-13-281.787-13c-40.508,0-79.77,2.745-120.084,4.954c-46.768,2.562-90.798,11.445-137.988,9.046
	c-57.887-2.941-115.071,9.514-172.059,4.445C377.94,429.54,318.725,438.82,263.055,441c-42.303,1.657-85.132,5.523-127.569,3.555
	C124.369,444.04-0.003,454.652,0,451.168C0,450.547,0.116,292.878,0.116,292.878z"/>
<g>
	<path fill="#BD6F5E" d="M199.062,454.764c6.44-1.955,8.298-17.741,8.306-24.346c0.006-5.953,0.977-47.539,1.371-55.835
		c0.237-4.974,0.025-9.803,0.99-14.706c0.738-3.757-0.29-5.594,3.655-6.812c2.153-0.665,5.886-2.079,8.082-1.88
		c2.259,0.206,1.924-0.103,1.64,2.368c-0.352,3.06-1.33,6.355-1.668,9.556c-0.531,5.062-0.285,10.247-0.285,15.351
		c0,11.862,1.34,15.426,1.436,27.324c0.054,6.515,1.154,13.051,2.225,19.465c0.941,5.624,1.107,11.438,2.645,16.945
		c1.744,6.254,13.716,11.973,13.716,15.521c-3.854,0.18-9.206-3.302-12.546-1.666c-2.441,1.196-3.263,5.392-6.389,5.896
		c-3.995,0.642-1.051-5.376-5.166-5.989c-3.115-0.465-8.011,3.324-10.509,4.875c-0.302-1.408,0.192-2.887,0.767-4.004
		c-2.347-1.205-10.186,2.008-13.269,1.84C193.52,456.887,195.765,455.766,199.062,454.764z"/>
	<path fill="#BD6F5E" d="M512.351,453.34c3.694-0.196,7.863-15.493,7.869-21.146c0.006-5.098,0.836-40.704,1.177-47.809
		c0.202-4.259,0.021-8.395,0.848-12.592c0.633-3.216-0.25-4.79,3.129-5.834c1.844-0.568,5.041-1.779,6.92-1.607
		c1.937,0.175,1.648-0.09,1.404,2.026c-0.301,2.619-1.139,5.442-1.428,8.182c-0.455,4.333-0.244,8.773-0.244,13.146
		c0,7.65,1.906,29.729,3.135,40.062c0.576,4.849,0.947,9.795,2.262,14.51c1.494,5.354,10.52,9.019,11.744,13.29
		c-3.299,0.153-7.881-2.826-10.74-1.428c-2.092,1.024-2.795,4.616-5.473,5.049c-3.42,0.551-0.898-4.604-4.422-5.128
		c-2.666-0.397-6.859,2.846-8.998,4.175c-0.258-1.205,0.166-2.472,0.656-3.431c-2.011-1.028-9.533,1.855-12.174,1.711
		C506.921,454.82,508.656,453.535,512.351,453.34z"/>
	<path fill="#BD6F5E" d="M713.833,435.016c3.96-2.066,4.832-14.347,4.838-20.003c0.006-5.096,0.838-35.122,1.174-42.227
		c0.205-4.258,0.021-1.416,0.851-5.614c0.631-3.216-0.248-4.79,3.129-5.833c1.844-0.57,5.039-1.782,6.92-1.608
		c1.934,0.175,1.646-0.091,1.404,2.026c-0.304,2.617-1.14,5.441-1.429,8.183c-0.457,4.333-0.246-5.183-0.246-0.812
		c0,10.156,1.148,14.604,1.23,24.792c0.045,5.577,0.988,11.176,1.904,16.667c0.805,4.816,0.946,9.793,2.264,14.509
		c1.496,5.354,11.744,9.048,11.744,13.29c-3.299,0.155-7.881-2.827-10.74-1.426c-2.092,1.025,0.971,4.657-1.709,5.089
		c-3.418,0.55-4.662-4.644-8.186-5.168c-2.666-0.397-6.859,2.844-8.998,4.172c-0.259-1.205,0.164-2.471,0.655-3.428
		c-2.01-1.031-8.721,1.997-11.36,1.853C707.232,437.61,709.873,437.083,713.833,435.016z"/>
</g>
<path fill="#C37B6B" d="M1471.878,478.434c-7.922-1.096-7.651-17.082-7.66-23.316c-0.004-5.62-0.813-56.423-1.143-64.255
	c-0.197-4.697-0.021-9.257-0.824-13.886c-0.615-3.547,0.24-5.282-3.047-6.433c-1.797-0.629-4.908-1.963-6.738-1.774
	c-1.883,0.193-1.604-0.098-1.366,2.237c0.295,2.886,1.108,5.999,1.391,9.021c0.443,4.777,0.24,9.674,0.24,14.493
	c0,11.198-1.119,26.104-1.199,37.339c-0.043,6.149-0.961,12.321-1.854,18.377c-0.784,5.31-0.922,10.798-2.202,15.997
	c-1.455,5.904-7.188,11.045-11.435,14.653c3.211,0.172,7.672-3.115,10.457-1.572c2.035,1.131,2.721,5.091,5.326,5.566
	c3.33,0.606,0.875-5.075,4.305-5.653c2.599-0.439,6.679,3.137,8.761,4.603c0.252-1.331-0.16-2.727-0.64-3.78
	c1.957-1.139,6.494,2.067,9.064,1.908c5.213-0.32,0.756-3.563-1.195-3.252L1471.878,478.434z"/>
<path fill="#AAB036" d="M0,72.319c0-8.593,8.772-12.679,16.594-5.223c6.23-7.522,17.401-6.522,22.977,1.549
	c3.7-4.604,14.893-4.307,15.178,3.204c6.103-3.218,20.24-6.291,21.98,8c6.129-0.254,14.653-0.376,13.794,7.83
	c4.912-4.472,12.301,0.085,11.174,6.944c7.232-3.531,14.246,0.484,15.952,8.046c-0.41-9.475,16.793-4.97,20.02,1.024
	c-1.936-10.776,15.206-8.149,18.948-1.995c2.843-8.768,12.941-5.861,18.785-2.048c3.494-8.247,16.083-4.906,21.199-0.726
	c7.849-7.555,14.844-5.092,20.219-0.126c5.074-4.965,15.985-6.786,21.028,3.126c5.917-4.83,19.952-5.059,20.832,4.209
	c6.59-4.551,19.457-3.138,20.398,9.258c4.708-3.924,15.535-2.669,16.79,7.218c6.324-4.279,15.42,0.339,13.884,8.307
	c5.568-4.534,13.52-4.069,15.874,3.778c3.472-9.195,19.222-8.695,21.976-1.525c4.246-9.92,18.246-8.92,21.773,0.798
	c4.473-11.468,23.466-14.035,28.497-5.048c6.607-8.822,17.726-11.67,23.149-5.239c5.825-4.182,19.325-9.182,25.879,0.189
	c0.01-0.006,0.022-0.008,0.029-0.019c3.917-6.102,15.167-6.602,23.478,1.548c3.439-7.399,14.939-5.149,19.794,1.403
	c5.146-6.803,17.896-4.553,23.396,4.947c6.25-3.75,17-0.75,17.722,6.934c5.278-2.434,12.528,0.566,12.201,8.251
	c6.984-4.653,12.429-0.657,14.278,6.929c6.549-3.365,20.299-0.548,21.553,7.052c5.324-8.875,18.746-5.917,22,0.979
	c3.067-7.043,15.721-6.815,19.365-0.128c0.01-15.267,19.083-12.451,21.687-2.877c3.379-12.013,19.166-11.13,24.148-1.194
	c4.177-4.579,9.878-7.484,16.386-7.484c6.146,0,10.753,3.103,13.866,7.906c5.079-7.394,19.589-11.977,28.922,1.578
	c7.737-4.889,18.282-6.247,23.854,2.026c7.417-5.621,15.848-4.684,19.37,4.172c3.852-3.777,14.625-4.289,15.762,5.017
	c3.451-4.826,17.708-9.306,21.042,2.956c9.207-6.704,22.293-6.52,27.27,3.986c8.847-7.004,26.355-3.687,32.783,7.736
	c3.156-7.92,14.629-12.897,23.67-2.874c3.814-10.945,14.504-10.023,21.168-1.072c2.519-9.225,10.918-8.05,16.955-3.647
	c6.275-12.389,14.902-11.018,21.947-1.73c4.383-9.84,16.547-11.315,25.174-4.154c4.826-6.607,17.039-11.751,24.888,2.185
	c7.771-8.133,17.541-8.133,23.896,0.741c5.625-4.925,16.498-3.82,20.109,3.854c5.604-6.753,16.479-10.254,23.662-0.229
	c5.317-5.233,11.432-5.971,17.254,1.349c3.393-5.108,12.24-0.869,13.817,6.831c5.353-11.542,10.533-10.746,22.156-4.896
	c1.652-7.679,6.849-2.61,12.096-4.1c6.974-1.981,9.089-8.774,17.099-1.183c-1.861-12.842,11.504-4.355,16.973-2.694
	c0.5-11.428,11.555-8.461,17.982-3.186c2.52-4.771,4.428-8.911,9.922-10.863c5.516-1.96,9.037,2.584,13.121,1.922
	c4.838-0.783,4.399-6.219,8.904-8.528c7.44-3.817,15-1.817,21.196,2.826c4.554-8.066,18.804-9.921,25.822-2.9
	c3.479-4.741,11.479-5.167,14.729,0.074c4.871-5.855,11.5-6.621,16.23-2.365c5.52-6.797,15.787-4.256,18.93,3.758
	c-0.66-10.555,8.09-13.96,13.957-7.725c-2.116-12.986,12.134-12.986,18.98-5.939c-2.566-11.557,9.07-13.033,16.156-8.074
	c5.633-9.886,12.977-9.356,19.731-0.984c2.773-9.18,13.265-12.488,19.562-9.282c4.953-4.957,10.203-5.207,16.965-0.587
	c6.238-5.119,14.988-4.369,18.646,1.001c2.843-5.62,12.209-9.497,19.046-0.43c5.809-7.143,12.797-8.46,20.918-4.196
	c-2.291-11.761,11.416-11.709,17.194-5.059c-2.5-13.402,8.252-14.709,17.779-10.496c-1.658-10.971,9.498-16.9,17.879-10.023
	c-1.975-7.167,7.025-14.667,15.445-6.97c1.329-8.947,13.079-10.447,20.834-6.878c2.495-7.569,16.495-9.569,20.194-1.376
	C1589.348,67.5,1600,70.4,1600,79c0,14.994-0.168,324.595,0,330.75c-1.785,3.333-10.529,4.051-12.199,0.139
	c-1.336,6.544-8.25,7.506-11.449,2.978c-2.411,9.675-17.987,8.334-22.977,1.979c-3.479,1.966-5.047,1.277-8.707,2.026
	c-3.424,0.7-10.23-4.025-12.848-5.763c-6.015,10.474-16.931-0.606-24.22-1.227c-2.954-0.25-3.616,4.426-7.733,3.992
	c-2.99-0.316-7.65-4.801-9.512-6.771c-5.451,2.813-20.246,4.932-18.714-4.748c-7.098,8.626-13.067,4.846-19.041-2
	c-5.434,6.336-16.776,5.875-18.952-3.004c-5.654,4.438-18.349,4.407-19.181-4.243c-6.586,2.947-25.901,10.314-25.074-4.026
	c-7.608,10.379-13.413-1.899-20.801-2.955c-8.297-1.185-16.738,11.95-23.271-1.022c-5.593,4.984-12.131,8.279-18.777,2.751
	c-5.889,8.418-12.059,4.105-18.943,4.146c-3.586,0.021-3.03-0.801-7.008,0.203c-1.994,0.504-3.848,4.156-6.996,4.812
	c-3.322,0.694-6.096-2.387-9.022-2.061c-3.111,0.346-3.531,2.292-6.129,3.048c-7.363,2.141-12.603,6.276-18.574-0.946
	c-4.121,8.227-9.865,9.965-16.271,2.354c-5.489,5.632-12.709,8.013-18.004,0.912c-7.004,4.431-14.42,0.752-19.227-4.968
	c-5.99,7.687-14.242,1.935-18.531-3.978c-10.854,1.883-9.049,4.792-18.928-1.192c-4.637-2.811-6.959-1.206-12.463-2.666
	c-14.025-3.718-28.308,1.247-42.312,2.231c-11.646,0.817-23.346,1.036-35.02,1.034c-4.07-0.001-9.025-1.165-12.685,0.366
	c-3.021,1.263-4.381,4.988-7.766,6.049c-4.978,1.558-8.846-2.39-13.271-2.511c-5.082-0.14-8.711,4.258-15.5,2.125
	c-6.87-2.159-7.1-2.384-14.186-0.246c-0.863,0.26-17.308,1.676-13.586-3.181c-5.297,6.912-12.383,4.277-18.047-0.636
	c-5.242,8.895-17.297,2.375-21.316-3.35c-4.526,11.662-16.635,10.454-21.996,4.002c-3.047,10.021-14.955,8.277-19.682,0.667
	c-5.558,5.211-14.728,13.946-20.65,2.664c-7.389,7.612-15.323,1.821-21.022-5.167c-3.267,4.736-12.176,10.477-16.328,3.169
	c-7.455,6.796-10.055,15.256-20.965,6.687c-4.504,7.227-15.006,10.398-18.969,1.313c-5.648,4.498-11.742,6.028-14.871-1.657
	c-3.938,2.399-8.311,3.396-13.088,2.602c-5.093-0.847-8.26-4.347-8.814-7.604c-5.111,5.09-17.944,7.757-21.929-2.773
	c-4.597,4.52-10.367,7.168-16.872,6.742c-4.321-0.282-10.945-2.002-13.754-4.86c-1.891,3.481-5.275,6.711-10.651,7.633
	c-5.474,0.938-14.238-2.15-17.591-4.662c-2.814,3.345-7.344,6.585-11.909,8.139c-6.93,2.358-13.905,1.206-17.392-2.143
	c-3.515,4.682-11.013,10.11-21.507,1.15c-3.462,8.862-11.588,7.646-18.219,3.052c-5.517,11.472-17.622,9.384-23.442,3.694
	c-2.18,7.552-14.013,7.103-18.18,3.785c-4.167,3.317-11.833,4.333-15.554-0.377c-5.779,3.694-11.113-0.79-10.791-5.139
	c-6.424,7.689-20.899,5.893-26.207-2.237c-6.455,5.195-20.658,9.754-23.004-3c-7.21,6.827-20.147,7.193-26.925-0.727
	c-7.052,6.625-19.586,4.456-23.075-5.226c-6.511,3.699-12.788-0.011-17.032-5.973c0.255,6.178-8.245,7.345-11.745,5.678
	c-2.344,3.833-11,3.167-13.905-0.169c-3.621,3.683-7.428,5.751-17.143,0.438c-3.039,6.208-9.397,8.938-15.027,4.247
	c-1.367,7.649-12.324,7.488-15.925,2.316c-4.666,5.333-15,3.833-16.666-0.667c-5.334,3.833-16.336,1.02-15.263-4.697
	c-2.454,5.661-7.969,5.744-11.349,1.023c-3.237,7.234-11.268,6.856-16.523,2.051c-3.74,5.047-10.209,4.722-14.222,0.029
	c-4.131,6.828-10.125,10.217-16.781,4.67c-3.936,10.004-19.453,7.803-22.921,1.075c-7.43,6.778-23.766,3.21-25.5-3.751
	c-6.321,6.487-12.914,1.323-15.751-5.302c-5.023,5.023-9.82,2.797-15.875,2.053c-1.34,9.603-10.161,9.172-16.977,5.974
	c-3.966,8.535-16.835,7.989-23.997,4.226c-1.233,9.344-17.251,7.846-21.942,2.746c-3.909,6.598-19.542,3.481-22.057-2.346
	c-5.694,3.91-14.684,2.346-15.465-4.689c-9.504,7.289-18.755,3.127-21.515-2.934c-5.534,8.869-17.875,8.322-25.441,2.271
	c-5.251,5.87-12.845,8.028-19.552,2.729c-5.203,10.648-21.131,10.814-27.005,3.023C10.177,421.53,2.231,419.15,0,413.342
	C0,413.342,0,79.498,0,72.319z"/>
<path fill="#99A031" d="M1600,342.74c-2.051,0.264-4.836,1.953-6.861,3.171c-3.733,2.248-3.987-0.489-7.205-2.033
	c-3.344-1.605-4.461,2.911-8.319,3.399c-4.084,0.516-7.406-2.067-8.105-5.952c-2.991,0.564-4.784,3.422-8.291,3.141
	c-3.061-0.247-4.739-1.907-6.1-4.572c-3.871,0.449-5.295,4.803-10.297,3.084c-3.41-1.171-4.803-3.908-5.226-7.116
	c-2.784,0.939-4.518,3.511-7.784,2.212c-2.572-1.023-4.095-3.963-4.293-6.542c-2.509,1.931-3.818,4.985-7.709,2.832
	c-2.865-1.588-5-5.825-6.408-8.578c-3.558,2.331-4.283,5.871-9.121,3.124c-2.076-1.181-5.039-6.148-7.498-5.685
	c-3.426,0.647-4.387,7.167-8.908,7.463c-3.401,0.225-5.237-3.615-8.062-3.787c-5.178-0.316-6.287,8.444-12.281,7.72
	c-2.199-0.267-4.133-2.981-6.064-3.07c-1.832-0.083-2.754,1.761-3.86,2.914c-2.621,2.724-4.984,4.542-8.795,4.824
	c-3.103,0.227-5.113-1.263-7.933-1.674c-4.334-0.632-5.66,5.182-9.746,6.851c-3.52,1.438-9.688-1.766-11.942,0.058
	c-1.873,1.516-1.047,4.812-4.027,5.999c-2.082,0.826-4.082-0.127-5.895-1.171c-4.884-2.811-3.72-0.031-7.293,3.234
	c-2.724,2.489-7.179,2.007-10.406,0.983c-1.793-0.569-6.754-4.001-8.625-2.458c-1.092,0.9-0.119,3.828-0.996,5.266
	c-0.928,1.525-2.705,2.214-4.33,2.699c-8.713,2.604-17.854-1.056-26.635-0.57c-21.68,1.195-42.084-5.487-65.445-7.954
	c-43.108-4.552-84.993-2.128-127.25,1.91c-27.659,2.645-54.653,8.828-82.155,13.123c-13.388,2.091-26.754,1.119-39.871,3.716
	c-14.894,2.95-42.726,13.101-58.086,4.387c-12.939,15.024-34.715,1.044-48.187-1.942c-0.36-1.416,0.054-2.683-0.442-4.062
	c-4.959-1.058-9.302-1.64-14.558-1.948c-1.328-14.25-13.155-3.418-19.799-3.15c-1.906,0.078-8.475-1.876-10.047-1.485
	c-1.008,0.249-8.521,4.911-9.375,4.976c-8.857,0.662-16.127-9.691-23.998-9.784c-3.912-0.045-28.065,4.938-28.926-1.901
	c-2.099,1.074-4.004,2.032-6.451,1.675c-2.236-0.326-3.957-2.579-5.688-2.498c-2.088,0.099-3.239,1.761-5.688,0.94
	c-1.453-0.485-3.674-1.828-3.855-3.484c-3.731,3.64-6.569-2.287-9.145-4.232c-2.842,3.408-6.377,0.12-7.86-2.693
	c-3.623,3.222-5.875,1.037-9.855-0.576c-3.235,2.681-7.543,3.683-10.416-0.204c-3.052,3.059-6.03,0.973-8.442-1.5
	c-4.211,4.521-5.687,0.55-10.591,1.031c-2.611,0.258-3.024,2.772-5.591,3.112c-1.775,0.235-3.277-1.181-5.089-0.472
	c-2.021,0.791-2.399,3.377-5.16,3.325c-1.619-0.03-2.998-1.321-4.481-0.759c-1.688,0.642-1.714,2.738-3.817,2.953
	c-1.329,0.137-2.764-0.961-3.964-1.222c-1.175,4.224-6.323,2.749-8.755,0.73c-1.082,3.431-2.016,2.37-4.776,2.971
	c-0.275,0.059-7.342,2.69-7.227,1.558c-0.555,5.438-7.582,2.391-10.585,3.01c-2.292,0.475-3.438,2.704-5.931,2.973
	c-2.613,0.282-4.506-1.255-6.803-2.023c-0.933,1.131-2.388,2.266-3.877,2.456c-2.061,0.266-3.555-1.921-5.322-1.931
	c-1.244-0.007-1.471,1.138-2.707,1.493c-1.54,0.44-3.464-0.485-4.836-1.024c-1.02-0.4-2.677-1.574-3.728-1.447
	c-1.077,0.129-1.799,1.64-2.944,1.901c-2.137,0.487-7.362-1.837-7.541-4.142c-3.761,3.685-6.792,3.356-10.262-0.311
	c-3.979,6.809-8.373-4.108-12.618-4.448c-1.923-0.149-3.044,2.091-5.29,1.91c-0.54-0.043-5.355-2.216-4.144-3.182
	c-3.381,2.693-6.708,1.93-9.449-1.182c-1.339,1.137-2.715,1.904-4.515,1.604c-1.277-0.213-4.479-1.819-3.314-3.105
	c-4.077,3.14-6.478,1.605-9.243-1.83c-2.011,1.661-5.964,3.949-7.164,0.079c-0.962,1.001-1.795,2.311-3.264,2.418
	c-1.94,0.144-1.966-1.189-3.743-0.262c-2.106,1.1-2.372,2.567-4.938,2.486c-1.568-0.051-3.098-0.617-4.506-1.199
	c-2.318,2.787-5.626,4.523-8.812,1.813c-1.771,4.073-5.964,4.02-9.465,2.48c0.374,4.554-5.711,4.342-8.312,2.625
	c-1.653,2.482-7.463,4.551-7.719-0.386c-2.852,2.981-6.854,1.888-8.824-1.811c-4.106,2.828-8.239,2.028-9.664-3.235
	c-3.199,1.146-6.457,2.354-7.7-2.139c-1.08,1.297-2.987,2.926-4.906,2.617c-1.714-0.275-1.502-1.601-2.919-2.278
	c-2.849-1.366-4.119,2.822-7.312,2.584c-1.411-0.104-2.742-1.394-3.882-1.064c-0.645,0.187-1.006,1.639-1.796,1.954
	c-2.105,0.838-4.579-0.909-5.954-2.174c-0.813,3.965-4.289,0.448-6.631,0.45c-1.617,0.001-2.16,1.05-3.624-0.278
	c-0.447-0.407-1.655-1.862-0.834-2.425c-1.901,1.303-2.646,2.924-5.267,2.729c-2.289-0.17-3.284-1.229-4.434-3.036
	c-4.365,2.235-5.229,2.889-8.998-0.463c-3.187,3.912-6.132,0.092-8.265-2.163c-2.528,2.503-9.461,1.62-9.3-2.809
	c-1.869,1.577-3.025,2.816-5.518,1.544c-1.67-0.853-4.075-3.351-4.494-5.308c-3.643,3.382-9.094-0.848-10.244-4.987
	c-2.522,3.038-10.441-1.476-8.657-4.946c-1.44,1.246-2.923,2.091-4.791,1.355c-1.422-0.561-1.933-2.398-3.701-2.144
	c-1.146,4.209-6.648,4.416-8.725,0.782c-1.572,2.491-6.146,5.509-7.726,1.286c-2.174,2.297-4.229,4.188-7.056,1.407
	c1.438,3.725-3.071,2.812-4.738,1.394c-1.719,2.252-6.085,5.995-9.062,3.433c-1.541,1.215-2.805,3.336-4.842,3.854
	c-1.469,0.374-3.071-0.779-4.334-0.416c-1.834,0.527-2.368,2.879-4.825,2.972c-1.105,0.042-2.696-0.632-3.674-0.979
	c-2.393,5.394-8.372,2.794-12.27,2.007c-0.396,3.807-4.739,3.58-7.5,3.756c-1.526,3.893-3.815,3.153-7.25,3.25
	c-0.987,3.775-5.235,4.204-8.244,3.495c-1.652,4.357-6.598,4.386-10.256,2.75c-0.738,2.084-3.673,2.591-5.604,2.467
	c-1.829-0.117-3.697-1.998-5.19-2.021c-1.698-0.028-2.831,2.216-4.748,2.271c-1.833,0.056-3.048-1.144-3.989-2.533
	c-1.886,1.363-7.366,3.271-6.739-1.389c-2.485,2.87-6.507-0.527-5.7-3.052c-0.778,1.263-1.185,0.352-2.236-0.491
	c-1.971-1.583-0.087-1.832-2.996-1.212c-1.588,0.338-2.701,0.812-4.363,0.204c-0.312-0.114-3.616-2.318-3.022-2.688
	c-2.651,1.644-7.849,3.012-8.506-1.812c-1.832,1.362-9.967,2.738-8.794-1.55c-1.71,0.955-2.585,2.002-4.713,1.474
	c-1.767-0.439-5.268-2.58-5.176-4.631c-2.835,3.914-12.481-0.707-9.605-4.787c-4.118,1.467-7.142,1.024-9.464-3.5
	c-2.56,1.183-3.483,3.495-6.712,2.779c-2.016-0.447-4.077-1.902-4.55-4.042c-3.108,4.927-7.291,3.045-10.882,0.325
	c-2.302,1.04-3.827,3.395-6.556,2.718c-2.242-0.557-3.641-2.979-5.957-3.281c-0.695,1.729-2.94,3.197-4.792,3.218
	c-1.616,0.02-3.529-2.174-5.013-1.711c-0.482,0.151-1.588,2.019-2.225,2.45c-1.145,0.774-1.658,1.039-3.013,0.957
	c-1.748-0.106-3.217-1.629-4.957-1.65c-2.836,4.873-9.382,3.062-12.55-0.456c-1.712,5.261-8.06,0.546-9.68-1.812
	c-2.293,6.095-7.392-3.214-8.442-3.805c-1.16-0.652-9.208-0.747-6.852-3.896c-2.467,3.296-10.272,0.005-10.317-3.805
	c-1.843,3.575-6.408-1.689-6.252-4.189c-4.276,3.853-9.455,1.92-10.749-2.986c-5.688,3.707-8.748,0.22-12.275-4.074
	c-1.018,2.048-4.192,3.218-6.481,2.431c-2.528-0.869-3.168-3.839-5.396-4.663c-1.427,1.664-2.672,3.173-4.812,3.961
	c-2.014,0.743-3.836-0.872-5.237-0.455c-2.039,0.606-2.39,4.373-4.994,4.976c-2.295,0.529-4.394-1.237-6.47-1.481
	c-0.386,6.652-8.117,0.864-10.494,0.75c-2.217,4.498-10.697,2.723-13.542-0.199c-1.926,3.46-4.29,2.836-6.683,1.278v96.236
	c0.029,0.078,0.056,0.163,0.085,0.24c2.231,5.807,10.177,8.187,13.795-0.191c5.875,7.791,21.803,7.625,27.005-3.023
	c6.707,5.3,14.3,3.141,19.552-2.729c7.566,6.052,19.908,6.599,25.441-2.271c2.76,6.062,12.011,10.223,21.515,2.934
	c0.782,7.036,9.771,8.6,15.465,4.689c2.514,5.827,18.148,8.943,22.057,2.347c4.69,5.099,20.708,6.597,21.942-2.747
	c7.161,3.764,20.031,4.31,23.997-4.226c6.815,3.198,15.636,3.628,16.977-5.974c6.056,0.744,10.853,2.971,15.875-2.052
	c2.837,6.625,9.43,11.789,15.751,5.301c1.734,6.961,18.07,10.53,25.5,3.751c3.468,6.728,18.986,8.929,22.921-1.075
	c6.657,5.546,12.65,2.158,16.781-4.67c4.013,4.693,10.482,5.019,14.222-0.029c5.256,4.807,13.286,5.185,16.523-2.051
	c3.38,4.721,8.895,4.639,11.349-1.022c-1.073,5.716,9.929,8.53,15.263,4.696c1.666,4.5,12,6,16.666,0.667
	c3.601,5.172,14.558,5.333,15.925-2.315c5.63,4.69,11.988,1.96,15.027-4.248c9.715,5.312,13.521,3.244,17.143-0.438
	c2.905,3.336,11.562,4.002,13.905,0.169c3.5,1.667,12,0.5,11.745-5.678c4.244,5.962,10.522,9.672,17.032,5.973
	c3.488,9.682,16.023,11.851,23.075,5.226c6.776,7.919,19.715,7.553,26.925,0.727c2.346,12.754,16.549,8.195,23.004,3
	c5.308,8.13,19.783,9.928,26.207,2.237c-0.322,4.35,5.012,8.833,10.791,5.139c3.721,4.71,11.387,3.694,15.554,0.377
	c4.167,3.317,16,3.768,18.179-3.784c5.821,5.688,17.928,7.776,23.443-3.695c6.631,4.595,14.757,5.811,18.219-3.051
	c10.494,8.96,17.992,3.53,21.506-1.151c3.486,3.349,10.463,4.501,17.393,2.143c4.564-1.554,9.095-4.794,11.909-8.139
	c3.353,2.511,12.117,5.599,17.591,4.662c5.376-0.921,8.762-4.15,10.651-7.633c2.809,2.857,9.433,4.579,13.754,4.86
	c6.505,0.427,12.275-2.223,16.872-6.741c3.983,10.53,16.816,7.863,21.929,2.772c0.556,3.257,3.723,6.757,8.815,7.604
	c4.776,0.794,9.147-0.203,13.088-2.603c3.129,7.687,9.221,6.154,14.869,1.657c3.963,9.085,14.465,5.912,18.969-1.312
	c10.912,8.568,13.51,0.108,20.965-6.688c4.154,7.307,13.064,1.567,16.328-3.169c5.701,6.989,13.635,12.78,21.022,5.167
	c5.925,11.283,15.095,2.547,20.65-2.664c4.729,7.611,16.635,9.355,19.682-0.667c5.361,6.452,17.472,7.66,21.996-4.002
	c4.021,5.726,16.074,12.244,21.316,3.35c5.666,4.914,12.752,7.549,18.049,0.637c-3.721,4.855,12.723,3.439,13.584,3.18
	c7.086-2.137,7.313-1.913,14.188,0.246c6.786,2.133,10.416-2.265,15.5-2.125c4.426,0.122,8.293,4.069,13.271,2.511
	c3.383-1.06,4.744-4.786,7.766-6.049c3.658-1.531,8.611-0.367,12.685-0.366c11.672,0.001,23.371-0.217,35.018-1.034
	c14.006-0.984,28.289-5.949,42.314-2.231c5.502,1.459,7.826-0.145,12.463,2.667c9.877,5.984,8.074,3.075,18.926,1.191
	c4.289,5.912,12.541,11.664,18.533,3.978c4.807,5.72,12.221,9.398,19.225,4.968c5.295,7.101,12.514,4.72,18.004-0.912
	c6.406,7.612,12.148,5.874,16.271-2.353c5.973,7.222,11.209,3.087,18.574,0.945c2.596-0.756,3.016-2.701,6.127-3.048
	c2.93-0.327,5.7,2.754,9.022,2.062c3.147-0.658,5.004-4.311,6.996-4.813c3.977-1.003,3.422-0.182,7.008-0.203
	c6.885-0.04,13.058,4.271,18.945-4.146c6.645,5.528,13.184,2.233,18.776-2.751c6.531,12.973,14.974-0.162,23.271,1.022
	c7.387,1.057,13.19,13.334,20.801,2.955c-0.828,14.342,18.488,6.976,25.076,4.026c0.832,8.65,13.522,8.681,19.18,4.244
	c2.175,8.878,13.519,9.339,18.951,3.003c5.976,6.846,11.943,10.626,19.041,2c-1.53,9.68,13.263,7.562,18.713,4.749
	c1.861,1.968,6.523,6.454,9.515,6.77c4.115,0.436,4.779-4.242,7.731-3.992c7.291,0.62,18.207,11.7,24.22,1.227
	c2.616,1.738,9.426,6.462,12.85,5.763c3.658-0.749,5.227-0.06,8.705-2.025c4.988,6.354,20.563,7.695,22.977-1.979
	c3.201,4.53,10.115,3.567,11.449-2.977c1.375,3.222,8.589,3.984,12.094,2.294V342.74H1600z"/>
<g>
	<path fill="#BD6F5E" d="M308.934,460.298c8.356-1.021,8.072-15.907,8.08-21.713c0.004-5.233,0.857-40.107,1.205-47.401
		c0.209-4.374,0.021-8.621,0.87-12.93c0.649-3.302-0.255-4.918,3.214-5.989c1.894-0.585,5.176-1.829,7.105-1.652
		c1.986,0.18,1.691-0.091,1.441,2.082c-0.31,2.688-1.168,5.588-1.465,8.399c-0.47,4.45-0.253,9.009-0.253,13.496
		c0,10.429,2.276,33.812,3.22,39.45c0.825,4.944,0.972,10.056,2.323,14.896c1.534,5.499,7.578,10.284,12.059,13.646
		c-3.387,0.16-8.092-2.9-11.028-1.465c-2.147,1.053-2.869,4.74-5.618,5.184c-3.512,0.566-0.924-4.725-4.541-5.264
		c-2.739-0.41-7.042,2.92-9.238,4.285c-0.267-1.238,0.168-2.538,0.674-3.521c-2.064-1.06-8.955,1.339-11.666,1.19
		C304.154,461.949,308.934,460.298,308.934,460.298z"/>
	<path fill="#BD6F5E" d="M431.188,450.322c-2.534-1.525-4.869-12.982-4.878-18.638c-0.004-5.097-1.163-40.18-1.969-44.378
		c-0.615-3.216,0.242-4.79-3.047-5.833c-1.795-0.568-4.906-1.779-6.736-1.608c-1.883,0.176-1.604-0.089-1.367,2.026
		c0.295,2.619,1.109,5.441,1.391,8.183c0.443,4.333-0.99,26.207-1.748,33.258c-0.736,6.851-1.988,13.719-3.27,18.435
		c-1.453,5.354-9.625,8.555-11.434,13.29c3.213,0.155,7.674-2.825,10.457-1.427c2.035,1.025,5.154,3.763,6.976,5.09
		c3.063-0.98-0.772-4.644,2.657-5.168c2.598-0.397,8.434,3.84,10.516,5.168c0.252-1.206-0.596-3.71-1.073-4.668
		c1.957-1.03,6.889,1.773,9.457,1.627C436.763,453.826,433.721,451.847,431.188,450.322z"/>
	<path fill="#BD6F5E" d="M243.508,481.344c2.325-5.01,12.248-9.098,15.159-15.352c5.397-11.593,4.896-24.499,5.723-34.646
		c0.858-10.541,1.976-27.682-0.139-32.359c-0.973-2.151-2.028-4.274-3.634-5.971c-1.597-1.687-3.759-2.86-4.361-5.29
		c-0.312-1.258,6.447,0.89,7.067,1.29c2.666,1.728,4.142,4.863,6.719,6.704c1.935-1.688,3.123-7.002,5.157-7.647
		c2.887-0.916,6.655,2.803,9.258,3.727c0.059,3.128-2.375,6.308-2.766,9.655c-0.429,3.675-0.488,14.509-0.955,26.372
		c-0.57,14.495,0.983,26.248,5.763,36.22c3.497,7.297,15.993,10.314,18.345,15.787c-5.845,0.5-14.652-6.102-21.579-2.969
		c-4.648,2.104-3.453,10.162-8.143,11.311C266.873,476.213,256.949,478.641,243.508,481.344z"/>
	<path fill="#BD6F5E" d="M397.335,474.878c0-4.442-8.73-7.643-9.108-12.142c-0.611-7.273-1.064-16.796-2.454-36.752
		c-0.824-11.845-3.115-47.301-1.922-52.591c0.614-2.721,5.31-10.182,3.803-12.333c-3.063-4.37-4.037,1.524-7.144,1.286
		c-0.637-3.072-1.878-7.48-4.698-2.876c-1.072,1.751,0.731,2.273-1.326,4.092c-0.413,0.365-3.242,1.685-3.78,1.703
		c-1.015,0.035-8.295-4.357-6.935,0.524c1.17,4.199,8.409,4.229,9.694,9.301c1.124,4.437,0.266,36.124,0.081,46.914
		c-0.288,16.834-0.719,30.372-1.638,40.634c-0.498,5.561-10.409,8.577-10.409,12.65c4.38,1.594,6.971-0.504,12.247-0.413
		c2.772,0.049,6.697,4.232,9.344,5.53c1.723-3.178,2.295-4.65,4.136-5.53C389.526,473.779,393.258,473.807,397.335,474.878z"/>
	<path fill="#BD6F5E" d="M635.591,441.833c-7.924-0.994-7.653-12.493-7.66-18.147c-0.006-5.097-1.166-17.62-1.969-21.816
		c-0.615-3.217,0.242-4.791-3.047-5.833c-1.797-0.569-4.908-1.781-6.738-1.609c-1.881,0.176-1.602-0.09-1.364,2.027
		c0.293,2.618,1.106,5.439,1.389,8.182c0.445,4.333-1.734,21.417-3.016,26.133c-1.455,5.354-11.436,9.232-13.435,13.29
		c3.211,0.155,7.672-2.825,10.457-1.426c2.035,1.025,2.721,4.617,5.326,5.048c3.328,0.552,0.875-4.602,4.305-5.127
		c2.599-0.397,6.678,2.846,8.76,4.173c0.255-1.205-0.159-2.471-0.639-3.429c1.957-1.031,7.984,1.634,10.555,1.489
		C638.475,442.945,635.591,441.833,635.591,441.833z"/>
	<path fill="#BD6F5E" d="M445.138,466.877c3.053-5.155,9.607-6.475,12.061-10.284c4.401-6.836,4.612-15.381,5.242-28.225
		c0.6-12.237,3.954-26.815-7.001-35.524c-2.733-2.173-6.038-4.541-8.995-6.485c-3.062-2.016-8.639-2.441-10.839-4.709
		c4.137-5.372,9-1.657,13.884-0.012c3.875,1.307,7.991,3.669,12.212,2.698c4.725-1.086,3.931-3.958,6.215-7.387
		c2.166-0.133,4.457-0.128,6.63-0.009c0.136,2.686-0.021,5.45,0.112,8.137c-0.003-0.061,10.927-8.774,11.616-8.798
		c4.786-0.166,4.01,4.006,2.418,6.393c-3.878,5.817-10.488,8.967-12.448,16.208c-2.551,9.42-1.542,17.95-1.205,27.825
		c0.396,11.637,2.548,20.065,4.398,27.204c1.379,5.317,16.39,7.812,18.288,14.064c-7.617,1.384-13.405-3.271-20.204-0.194
		c-4.562,2.063-3.39,5.973-7.993,7.099C461.431,463.139,458.33,464.225,445.138,466.877z"/>
	<path fill="#BD6F5E" d="M113.056,471.062c-2.961-2.35-5.639-15.913-5.648-23.512c-0.006-6.85-1.564-70.895-2.645-76.536
		c-0.827-4.321,0.324-6.436-4.093-7.838c-2.413-0.764-6.596-2.391-9.053-2.162c-2.53,0.236-2.155-0.117-1.837,2.727
		c0.395,3.518,2.188,22.782,2.188,28.653c0,13.646-1.5,21.125-1.609,34.812c-0.059,7.498-1.292,7.016-2.493,14.396
		c-1.052,6.47-1.238,13.16-2.959,19.495c-1.955,7.194-9.656,13.458-15.363,17.857c4.317,0.206,10.31-3.8,14.051-1.916
		c2.735,1.376,3.655,6.202,7.16,6.782c2.078-2.822,1.175-6.185,5.781-6.89c3.491-0.536,9.83,5.106,12.63,6.89
		c0.337-1.617,0.143-5.87-0.5-7.156c3.167-0.832,10.793,3.36,14.245,3.168C122.885,477.267,117.739,474.775,113.056,471.062z"/>
	<path fill="#BD6F5E" d="M69.992,493.086c0.978-0.045,1.933-0.189,2.845-0.52c-1.833-2.405-6.734-3.002-9.284-5.125
		c-2.941-2.451-5.378-4.199-6.178-7.993c-0.9-4.273-1.533-37.486-1.806-40.858c-0.507-6.281-2.817-68.414-1.213-75.521
		c0.775-3.436,1.381-6.985,2.785-10.144c0.819-1.842,4.273-5.229,2.67-7.459c-3.087-4.29-15.336,12.834-18.268,4.216
		c0.994-0.735,1.046-1.934,1.557-2.635c-1.333-0.521-2.835-1.011-4.124-1.692c0.527,0.279-3.567,2.854-4.21,2.936
		c-1.821,0.235-4.179-1.337-5.817-1.985c-2.953-1.167-8.265-3.815-9.167,1.099c5.904,3.185,11.341,6.34,14.11,12.858
		c1.372,3.229,1.369,6.966,1.715,10.372c1.973,19.351,1.61,65.871,0.41,76.862c-1.085,9.937-1.07,20.074-5.299,29.332
		c-3.258,7.133-13.4,8.874-16.766,15.811c4.579,2.894,9.901-1.696,14.706-1.664c6.362,0.043,2.083,8.947,4.012,13.134
		c3.248,0.764,4.704-5.051,7.193-6.543c4.09-2.453,12.728,3.244,16.546,2.676c2.684-0.402-0.891-3.447,0.291-4.99
		c1.073-1.4,2.936-2.009,4.612-2.299C64.077,492.475,67.132,493.214,69.992,493.086z"/>
	<path fill="#BD6F5E" d="M127.246,491.066c4.201-5.041,13.26-7.361,17.774-12.823c5.538-6.7,10.44-14.292,12.716-22.821
		c3.875-14.521,3.488-21.484,3.327-36.375c-0.126-11.63,0.159-5.193-0.485-17.142c-0.419-7.767-2.004-15.461-5.216-22.568
		c-1.479-3.268-3.083-6.495-5.523-9.07c-2.088-2.201-5.101-3.654-7.031-5.821c-1.663-1.867,5.083-3.828,6.262-3.542
		c2.526,0.613,4.672,3.666,6.407,5.393c2.141,2.132,9.96,9.722,12.832,4.113c1.014-1.989-2.016-6.925-1.639-9.583
		c2.063-0.169,4.188-0.143,6.141,0.427c0.746,3.204,1.434,8.084,5.229,8.732c3.68,0.628,7.879-3.862,10.896-5.3
		c1.093-0.521,3.415-1.92,4.634-1.854c1.686,0.092,2.376,1.961,3.956,2.062c1.799,0.116,5.127-1.917,6.638-2.812
		c1.227,1.296,2.138,2.731,2.134,4.479c0.003-1.705-13.509,8.494-14.534,9.552c-16.156,16.669-12.067,30.679-11.356,51.546
		c1.186,34.684,2.96,45.095,30.123,61.63c-1.271-0.771-6.438-0.234-8.346-0.77c-3.17-0.886-13.396-3.24-18.325-2.906
		c1.648,3.834,5.267,8.184,4.532,12.512c-12.127-0.536-16.283-14.517-26.751-1.828c-7.198-6.172-0.33-12.746-12.072-9.478
		c-7.471,2.079-15.582,6.771-23.46,5.904C126.429,492.138,126.811,491.588,127.246,491.066z"/>
	<path fill="#BD6F5E" d="M599.751,459.992c-1.751-7.242-11.159-7.628-11.943-11.302c-2.308-10.818-3.773-16.492-4.414-25.706
		c-0.823-11.845-1.116-28.346,0.076-33.635c0.549-2.433,1.146-4.833,2.052-6.75c0.901-1.906,2.122-3.235,2.463-5.981
		c-2.14-1.489-4.793,1.729-6.855,2.723c-2.377,1.147-2.229-1.537-4.142-3.566c-1.746-1.841-5.47,3.882-5.776,5.146
		c-0.862,3.534,1.124,2.858,1.477,6.382c0.235,2.354,1.661,24.978,1.479,35.683c-0.269,15.711,0.322,14.489-2.979,21.96
		c-2.123,4.804-9.936,9.055-10.953,13.055c4.379,1.594,8.596-5.086,12.506-1.541c2.623,2.377,1.949,9.49,4.598,10.787
		C581.991,453.721,592.163,456.935,599.751,459.992z"/>
	<path fill="#BD6F5E" d="M832.52,454.833c-7.925-0.993-7.654-15.493-7.66-21.147c-0.006-5.097-0.816-22.121-1.146-29.227
		c-0.197-4.258-0.021-1.416-0.824-5.613c-0.616-3.216,0.24-4.79-3.047-5.833c-1.795-0.568-4.907-1.78-6.737-1.608
		c-1.881,0.175-1.604-0.089-1.367,2.026c0.295,2.618,1.108,5.441,1.391,8.183c0.443,4.333,0.24-5.183,0.24-0.812
		c0,10.156-1.117,14.604-1.199,24.792c-0.043,5.578-0.963-1.825-1.854,3.667c-0.783,4.815-0.922,9.793-2.205,14.509
		c-1.453,5.354-7.185,10.016-11.433,13.29c3.211,0.155,7.672-2.825,10.457-1.427c2.033,1.025,2.722,4.617,5.328,5.049
		c3.328,0.552,0.873-4.603,4.303-5.127c2.599-0.397,6.679,2.845,8.761,4.173c0.252-1.205-0.158-2.472-0.64-3.429
		c1.957-1.031,6.496,1.876,9.066,1.731c5.213-0.29,0.754-3.231-1.197-2.95L832.52,454.833z"/>
	<path fill="#BD6F5E" d="M646.157,452.544c1.676-4.544,10.657-7.831,13.403-12.752c4.438-7.95,5.049-6.486,5.045-16.827
		c-0.006-10.693-0.125-26.844-2.264-31.574c-2.144-4.742-4.311-7.667-8.771-10.646c5.32-3.647,8.149,3.521,12.723,5.192
		c3.701,1.352,3.394-0.965,5.291-3.689c1.979-2.842,2.9-1.88,6.406-1.536c-0.759,2.208-3.41,7.462-2.306,10.004
		c1.077,2.472,5.89-0.359,7.977-1.75c3.043-2.029,5.914-4.72,8.796-6.97c3.578-2.793,5.685-2.052,10.028-1.61
		c-2.799,3.273-7.822,5.57-11.287,8.402c-1.749,1.43-3.952,2.846-5.374,4.688c-2.563,3.322-4.77,8.627-5.574,12.746
		c-1.481,7.585-1.355,9.063-1.009,19.238c0.436,12.762,1.938,8.921,6.249,14.63c3.486,4.617,15.328,8.41,16.89,13.205
		c-7.847,1.424-13.812-7.491-20.813-4.322c-4.699,2.125-3.491,10.275-8.234,11.436C664.992,448.312,659.748,449.811,646.157,452.544
		z"/>
	<path fill="#BD6F5E" d="M794.106,446.15c-0.773-3.983-6.512-5.108-8.132-8.828c-4.138-9.503-4.771-47.101-3.577-52.391
		c0.551-2.432,1.145-4.833,2.051-6.75c0.901-1.907,2.123-3.233,2.463-5.98c-2.139-1.49-4.793,1.729-6.855,2.723
		c-2.377,1.147-2.229-1.538-4.139-3.563c-1.232-1.308-3.6,2.064-4.827,2.523c-1.412,0.527-2.322,0.213-3.774,0.105
		c-1.149-0.086-2.708-0.958-3.859-0.412c-0.502,0.238-2.705,2.421-1.729,3.033c2.32,1.454,6.907,2.848,8.643,5.114
		c2.09,2.73,1.513,17.417,1.513,22.066c0,18.014,3.368,21.516-4.554,33.979c-2.182,3.435-8.493,6.211-9.424,9.329
		c4.381,1.595,9.853-4.184,13.763-0.64c2.623,2.377,0.668,4.262,4.339,6.042C778.833,448,782.818,445.675,794.106,446.15z"/>
	<path fill="#BD6F5E" d="M920.771,454.833c8.142-0.993,7.863-15.493,7.869-21.147c0.006-5.097,0.838-22.121,1.177-29.227
		c0.202-4.258,0.021-1.416,0.848-5.613c0.631-3.216-0.248-4.79,3.129-5.833c1.844-0.568,5.041-1.78,6.922-1.608
		c1.935,0.175,1.646-0.089,1.402,2.026c-0.303,2.618-1.14,5.441-1.428,8.183c-0.457,4.333-0.246-5.183-0.246-0.812
		c0,10.156,1.147,14.604,1.229,24.792c0.045,5.578,0.988-1.825,1.904,3.667c0.807,4.815,0.947,9.793,2.264,14.509
		c1.494,5.354,7.381,10.016,11.746,13.29c-3.301,0.155-7.883-2.825-10.742-1.427c-2.09,1.025-2.795,4.617-5.473,5.049
		c-3.42,0.552-0.898-4.603-4.422-5.127c-2.666-0.397-6.859,2.845-8.998,4.173c-0.258-1.205,0.166-2.472,0.656-3.429
		c-2.011-1.031-6.672,1.876-9.312,1.731c-5.352-0.29-0.773-3.231,1.23-2.95L920.771,454.833z"/>
	<path fill="#BD6F5E" d="M1048.825,467.833c-7.924-0.993-7.654-15.493-7.66-21.147c-0.006-5.097-0.816-35.121-1.146-42.227
		c-0.196-4.258-0.02-8.394-0.823-12.59c-0.615-3.217,0.241-4.791-3.048-5.833c-1.795-0.569-4.907-1.781-6.737-1.609
		c-1.881,0.176-1.604-0.09-1.365,2.027c0.293,2.618,1.107,5.439,1.389,8.182c0.445,4.333,0.24,1.795,0.24,6.166
		c0,10.156-1.117,14.604-1.199,24.792c-0.043,5.578-0.961,11.175-1.854,16.667c-0.785,4.815-0.922,9.793-2.203,14.508
		c-1.455,5.355-7.187,10.017-11.435,13.29c3.212,0.155,7.673-2.825,10.457-1.427c2.035,1.025,2.722,4.617,5.328,5.049
		c3.326,0.552,0.875-4.603,4.304-5.127c2.598-0.397,6.678,2.845,8.76,4.173c0.254-1.205-0.16-2.472-0.637-3.429
		c1.954-1.031,6.493,1.876,9.063,1.731c5.213-0.29,0.752-3.231-1.195-2.95L1048.825,467.833z"/>
	<path fill="#BD6F5E" d="M853.773,469.521c18.849-10.289,21.425-27.851,23.611-43.537c1.652-11.845,2.236-27.764-0.156-33.053
		c-1.1-2.432-2.291-4.833-4.106-6.75c-1.81-1.907-4.252-3.233-4.935-5.98c4.285-1.49,9.604,1.729,13.732,2.723
		c4.766,1.147,4.467-1.538,8.293-3.563c2.592-1.372,5.711,1.814,8.854,2.28c3.192,0.474,6.362-0.312,9.45-1.059
		c0.877-0.212,8.103-1.758,8.162-2.053c-1.998,9.888-16.356,19.673-19.42,30.989c-2.938,10.854-1.776,8.088-1.389,19.467
		c0.883,25.813,5.924,28.004,26.137,40.307c-8.774,1.594-15.445-8.377-23.276-4.832c-5.255,2.377-3.904,11.49-9.209,12.787
		C880.194,463.721,868.974,466.465,853.773,469.521z"/>
	<path fill="#BD6F5E" d="M1010.413,482.521c-9.406-10.289-10.695-40.851-11.787-56.537c-0.822-11.845-2.186-11.205-1.861-23.234
		c0.158-5.779,0.746-4.528,1.941-9.818c0.547-2.432,1.143-4.833,2.051-6.75c0.9-1.907,2.121-3.233,2.461-5.98
		c-2.139-1.49-4.793,1.729-6.854,2.723c-2.379,1.147-2.23-1.538-4.142-3.563c-1.293-1.372-2.85,1.814-4.42,2.28
		c-1.594,0.474-3.176-0.312-4.715-1.059c-0.439-0.212-4.045-1.758-4.076-2.053c0.998,9.888,8.166,19.673,9.693,30.989
		c1.467,10.854,0.889,8.088,0.693,19.467c-0.441,25.813-2.955,41.004-13.045,53.307c4.379,1.594,7.707-8.377,11.616-4.832
		c2.625,2.377,1.949,11.49,4.599,12.787C997.227,476.721,1002.825,479.465,1010.413,482.521z"/>
	<path fill="#BD6F5E" d="M1130.101,467.833c8.142-0.993,7.865-15.493,7.871-21.147c0.004-5.097,0.836-35.121,1.174-42.227
		c0.203-4.258,0.023-8.394,0.849-12.59c0.633-3.217-0.248-4.791,3.129-5.833c1.846-0.569,5.041-1.781,6.922-1.609
		c1.934,0.176,1.645-0.09,1.402,2.027c-0.302,2.618-1.138,5.439-1.429,8.182c-0.454,4.333-0.243,1.795-0.243,6.166
		c0,10.156,1.147,14.604,1.229,24.792c0.045,5.578,0.986,11.175,1.906,16.667c0.803,4.815,0.944,9.793,2.262,14.508
		c1.494,5.355,7.381,10.017,11.744,13.29c-3.299,0.155-7.881-2.825-10.74-1.427c-2.092,1.025-2.795,4.617-5.475,5.049
		c-3.418,0.552-0.898-4.603-4.42-5.127c-2.668-0.397-6.859,2.845-8.998,4.173c-0.261-1.205,0.163-2.472,0.655-3.429
		c-2.01-1.031-6.672,1.876-9.312,1.731c-5.354-0.29-0.775-3.231,1.229-2.95L1130.101,467.833z"/>
	<path fill="#BD6F5E" d="M1269.153,467.833c-7.923-0.993-7.652-15.493-7.66-21.147c-0.004-5.097-0.814-42.1-1.144-49.203
		c-0.196-4.26-0.021-8.396-0.826-12.593c-0.612-3.217,0.242-4.79-3.047-5.833c-1.795-0.569-4.905-1.779-6.735-1.608
		c-1.884,0.175-1.603-0.089-1.367,2.026c0.295,2.618,1.109,5.441,1.391,8.183c0.443,4.332-0.879,27.747-0.959,37.935
		c-0.045,5.578-0.961,11.175-1.854,16.667c-0.783,4.815-0.92,9.793-2.203,14.508c-1.453,5.355-7.186,10.017-11.432,13.29
		c3.211,0.155,7.672-2.825,10.455-1.427c2.036,1.025,2.721,4.617,5.327,5.049c3.328,0.552,0.877-4.603,4.306-5.127
		c2.598-0.397,6.676,2.844,8.76,4.173c0.252-1.206-0.16-2.472-0.639-3.429c1.957-1.031,6.496,1.876,9.063,1.731
		c5.213-0.29,0.756-3.231-1.194-2.95L1269.153,467.833z"/>
	<path fill="#BD6F5E" d="M1063.104,482.521c18.847-10.289,21.425-40.851,23.611-56.537c1.65-11.845,4.381-11.205,3.729-23.234
		c-0.314-5.779-1.492-11.506-3.886-16.795c-1.1-2.434-2.293-4.833-4.108-6.75c-1.808-1.908,4.67-4.253,8.801-3.259
		c4.766,1.146,4.465-1.538,8.293-3.564c2.592-1.373,5.709,1.816,8.854,2.281c3.192,0.472,6.362-0.313,9.45-1.058
		c0.877-0.214,8.103-1.76,8.162-2.055c-1.998,9.887-16.356,16.185-19.422,27.501c-2.938,10.854-1.774,18.554-1.387,29.933
		c0.881,25.813,5.924,41.004,26.137,53.307c-8.774,1.594-15.444-8.377-23.276-4.832c-5.257,2.377-3.904,11.49-9.209,12.787
		C1089.524,476.721,1078.304,479.465,1063.104,482.521z"/>
	<path fill="#BD6F5E" d="M1219.743,482.521c-9.408-10.289-10.695-40.851-11.787-56.537c-0.824-11.845-1.117-41.72,0.078-47.008
		c0.549-2.433,1.145-4.833,2.051-6.75c0.902-1.906,2.123-3.235,2.463-5.98c-2.141-1.49-4.795,1.729-6.854,2.722
		c-2.379,1.147-2.229-1.537-4.14-3.562c-1.295-1.373-2.852,1.814-4.42,2.279c-1.594,0.474-3.176-0.312-4.717-1.058
		c-0.438-0.211-4.043-1.758-4.074-2.051c0.998,9.887,10.58,53.031,10.388,64.41c-0.439,25.813-2.957,41.004-13.048,53.307
		c4.382,1.594,7.709-8.377,11.619-4.832c2.623,2.377,1.949,11.49,4.599,12.787C1206.554,476.721,1212.155,479.465,1219.743,482.521z
		"/>
	<path fill="#BD6F5E" d="M1340.827,467.833c8.141-0.993,7.863-15.493,7.869-21.147c0.006-5.097,0.838-49.076,1.176-56.181
		c0.201-4.259,0.021-8.394,0.846-12.592c0.634-3.216-0.248-4.79,3.131-5.832c1.845-0.57,5.041-1.781,6.921-1.61
		c1.934,0.177,1.646-0.089,1.403,2.028c-0.303,2.619-1.139,5.441-1.428,8.182c-0.457,4.333-0.246,8.773-0.246,13.145
		c0,10.157,1.148,21.582,1.23,31.77c0.045,5.578,0.985,11.175,1.903,16.667c0.806,4.815,0.947,9.793,2.265,14.508
		c1.494,5.355,7.381,10.017,11.744,13.29c-3.3,0.155-7.882-2.825-10.74-1.427c-2.092,1.025-2.795,4.617-5.474,5.049
		c-3.418,0.552-0.897-4.603-4.422-5.127c-2.666-0.397-6.858,2.845-8.998,4.174c-0.26-1.206,0.164-2.473,0.656-3.43
		c-2.01-1.031-6.672,1.876-9.312,1.731c-5.353-0.29-0.773-3.231,1.229-2.95L1340.827,467.833z"/>
	<path fill="#BD6F5E" d="M1273.829,482.521c18.846-10.289,21.424-40.851,23.61-56.537c1.65-11.845,4.382-25.162,3.729-37.19
		c-0.418-7.706-1.979-15.302-7.28-21.243c-2.438-2.732-5.58-3.903-8.215-6.312c4.844-7.136,16.121,2.723,21.719,4.987
		c4.245,1.719,7.558,0.49,10.846-2.979c1.271-1.342,1.963-4.458,3.718-5.015c1.396-0.443,3.575,1.072,5.088,1.117
		c-0.084,2.004-2.568,4.989-1.496,6.845c3.118-0.692,6.285-2.926,9.253-4.556c1.414-0.775,3.287-2.312,4.862-1.876
		c2.521,0.699,2.238,2.809,0.985,4.012c-3.12,2.996-8.588,4.04-12.176,6.785c-4.972,3.805-9.468,8.288-11.158,14.536
		c-2.938,10.854-1.777,25.533-1.388,36.91c0.881,25.814,5.922,47.982,26.138,60.285c-8.775,1.594-15.445-8.377-23.277-4.832
		c-5.254,2.377-3.902,11.49-9.209,12.787C1300.249,476.721,1289.028,479.465,1273.829,482.521z"/>
	<path fill="#BD6F5E" d="M1430.468,482.521c-9.407-10.289-10.694-40.851-11.787-56.537c-0.823-11.845-2.186-27.256-1.858-39.283
		c0.156-5.779,0.744-11.506,1.938-16.795c0.312-1.384,0.484-3.02,1.111-4.28c0.711-1.428,2.206-2.381,2.673-3.987
		c0.695-2.396-0.918-2.038-2.596-3.418c-1.538,0.848-2.358,2.984-4.216,2.853c-0.263-4.245-1.698-6.123-6.11-5.183
		c-0.442,0.095-1.416,2.773-2.461,3.188c-1.545,0.612-2.594-0.205-3.927-0.787c-3.294-1.434-6.862-4.135-10.692-3.03
		c-4.874,1.406,4.812,5.161,7.538,6.99c8.751,5.878,8.956,15.31,9.165,25.389c0.238,11.479,0.405,22.878,0.21,34.367
		c-0.439,25.814-2.957,47.982-13.045,60.285c4.379,1.594,7.707-8.377,11.617-4.832c2.623,2.377,1.948,11.49,4.598,12.787
		C1417.28,476.721,1422.878,479.465,1430.468,482.521z"/>
	<path fill="#BD6F5E" d="M1548.011,484.014c9.058-1.219,8.748-19.006,8.754-25.942c0.007-6.252,0.933-56.206,1.31-64.92
		c0.225-5.226,0.022-10.298,0.94-15.446c0.703-3.946-0.276-8.877,3.482-10.157c2.053-0.698,5.609-2.183,7.699-1.973
		c2.151,0.215,1.832,2.89,1.562,5.485c-0.336,3.214-1.268,6.676-1.588,10.037c-0.51,5.315,2.193,64.807,3.215,71.543
		c0.896,5.906,1.051,12.017,2.517,17.797c1.663,6.57,8.213,12.288,13.065,16.306c-3.67,0.188-8.768-3.467-11.949-1.748
		c-2.325,1.256-3.108,5.66-6.088,6.188c-3.803,0.679-1-5.644-4.92-6.289c-2.967-0.487-7.631,3.491-10.012,5.12
		c-0.287-1.478,0.186-3.03,0.73-4.205c-2.234-1.266-7.423,2.302-10.359,2.124c-5.955-0.356-0.861-3.967,1.367-3.617
		L1548.011,484.014z"/>
	<path fill="#BD6F5E" d="M1476.843,497.945c-0.262-5.164,7.309-6.229,10.619-8.021c4.121-2.229,7.55-7.658,9.898-11.611
		c5.898-9.93,7.747-21.552,7.64-32.957c-0.136-14.36-0.386-43.17-1.11-57.635c-0.352-6.948-1.661-13.834-4.321-20.194
		c-1.226-2.926-2.554-5.812-4.572-8.117c-2.01-2.294-4.73-3.892-5.486-7.192c-0.261-1.138,7.616,0.425,8.21,0.706
		c1.574,0.746,2.823,1.982,4.021,3.211c1.909,1.958,5.132,6.676,7.082,2.106c1.939-4.546,4.862-8.929,10.597-6.333
		c0.387,2.13-1.086,3.955-0.698,6.046c2.225-1.146,4.101-1.837,6.553-2.334c0.866,2.045,1.59,4.16,1.597,6.305
		c-4.254,1.641-4.076,8.989-4.417,12.619c-0.255,2.705-0.135,5.472-0.385,8.169c-0.331,3.554-0.016,36.851,0.241,44.947
		c0.979,31.041,4.59,57.698,27.077,72.493c-9.764,1.915-17.182-10.072-25.896-5.812c-2.46,1.203-3.971,4.371-5.348,6.623
		c-1.405,2.297-0.461,5.073-1.612,7.077c-2.062,3.579-5.072-3.169-6.619-4.538c-1.17-1.035-3.463-2.377-5.021-2.562
		c-1.881-0.221-3.413,0.84-5.015,0.919c-3.395,0.169-2.409-4.871-6.859-5.25C1487.604,496.15,1482.323,498.23,1476.843,497.945z"/>
</g>
<g>
	<path fill="#971B00" d="M925.246,199.378c0-2.766-6.35-2.814-6.35,0c0,2.813,0,256.216,0,256.216h6.35
		C925.246,455.594,925.246,202.144,925.246,199.378z"/>
	<path fill="#6185A6" d="M916.713,201.768c-7.095-3.046-23.832,5.639-32.363,7.638c-6.752,1.583-12.259-3.678-22.4-4.118
		c-7.505-0.327-15.987,7.503-23.818,7.503c-8.138,0-23.063,0.102-26.428,2.236c3.948-0.979,18.56,5.921,26.102,5.921
		c6.688,0,17.633-2.936,24.146-2.936c6.854,0,17.045,9.409,25.228,9.409c8.535,0,16.818-4.172,26.856-3.004
		c0,0-2.779-7.378-3.144-11.951C910.477,207.269,916.713,201.768,916.713,201.768z"/>
</g>
<g>
	<path fill="#793636" d="M1462.469,456.977c0,55.615-135.171,100.705-301.908,100.705s-301.906-11.8-301.906-100.705
		c0-93.931,135.169-100.695,301.906-100.695C1327.298,356.28,1462.469,401.364,1462.469,456.977z"/>
	<line fill="none" x1="1140.113" y1="166.221" x2="1143.412" y2="166.166"/>
	<line fill="none" x1="1133.311" y1="166.325" x2="1136.75" y2="166.278"/>
	<path fill="#D35623" d="M1379.547,344.774c-14.502-0.391-49.396,0.177-66.777-4.057"/>
	<g>
		<path fill="#C83B0C" d="M785.976,499.96c11.294-43.104,22.385-119.889,22.385-167.585
			c147.672-27.515,257.359-108.098,308.235-185.873l33.029-0.456c40.193,77.049,222.62,170.732,337.312,192.999
			c3.421,48.411,11.547,136.155,26.848,177.491c-9.799,5.442-23.557,15.073-33.188,23.329c-18.617,2.358-49.529,8.255-66.958,16.051
			c-16.137-0.848-59.217,0.6-81.632,7.337c-30.395-2.517-93.238-0.318-105.479,5.046c-20.41-4.356-68.527-3.888-96.733-2.512
			c1.147-31.646-4.162-57.516-4.162-90.587c0-30.27-11.044-75.779-65.121-77.962c-44.327-1.791-69.565,30.75-72.004,73.584
			c-2.15,37.812-2.216,60.718-5.655,86.858c-19.261-2.752-45.709-1.309-64.28-0.619c-11.007-4.127-51.595-11.693-64.702-11.181
			c-13.033-8.769-31.618-15.433-51.052-20.948C788.532,508.119,785.976,499.96,785.976,499.96z"/>
		<path fill="#D35623" d="M1136.426,146.364c0,0-3.115-0.04-3.115-0.039c-13.416,58.321-55.527,133.989-119.812,168.449
			c32.567,1.926,79.618,4.089,111.47,0.829C1133.77,254.539,1136.996,194.279,1136.426,146.364z"/>
		<path fill="#D35623" d="M836.047,327.475l-27.688,4.9c147.672-27.515,257.359-108.098,308.235-185.873c0,0,3.298-0.03,3.298-0.029
			C1076.104,214.202,976.635,292.623,836.047,327.475z"/>
		<path fill="#D35623" d="M882.837,322.862l57.677-4.845c89.862-35.879,156.708-87.271,188.78-171.516l-3.089-0.099
			C1084.825,210.388,1027.211,272.974,882.837,322.862z"/>
		<path fill="#D35623" d="M1141.762,146.278l-1.647-0.057c2.524,44.294,26.804,112.213,78.37,172.067
			c25.701,1.164,70.647,4.308,94.285,2.431C1226.529,272.109,1174.23,218.322,1141.762,146.278z"/>
		<path fill="#D35623" d="M1143.412,146.166l2.857-0.04c64.81,98.753,176.427,147.325,298.146,187.556
			c-10.048,0.636-42.929-5.059-64.87-8.907C1270.598,284.795,1192.651,234.632,1143.412,146.166z"/>
		<path fill="#D35623" d="M1444.417,333.683c14.94,3.02,42.521,5.362,42.521,5.362c3.422,48.411,15.437,134.676,26.849,177.491
			c-9.799,5.442-23.556,15.073-33.188,23.329L1444.417,333.683z"/>
		<path fill="#D35623" d="M1312.77,320.719c22.985,0.75,48.947,3.387,66.777,4.057l34.094,231.142
			c-16.137-0.848-59.217,0.6-81.632,7.337L1312.77,320.719z"/>
		<path fill="#D35623" d="M1121.932,317.282c19.471,0.739,57.262,1.608,93.517,2.684l11.082,248.333
			c-20.41-4.356-71.563-2.21-99.771-0.834L1121.932,317.282z"/>
		<path fill="#D35623" d="M982.854,557.682c-19.261-2.752-45.709-1.309-64.28-0.619l21.94-239.045
			c30.019-2.484,66.579-3.243,72.984-3.243L982.854,557.682z"/>
		<path fill="#D35623" d="M836.047,327.475c13.266-1.447,29.703-3.053,46.79-4.612l-28.967,223.02
			c-13.033-8.769-31.618-15.433-51.052-20.948L836.047,327.475z"/>
	</g>
	<g>
		<path fill="#5C1812" d="M1141.135,148.474c0.744,0.273,1.964-1.544,1.964-1.544s1.428,1.399,2.103,1.261
			c0.676-0.139,0.014-1.878,0.014-1.878s2.291,1.016,3.058,0.473c0.766-0.542-3.296-3.352-5.018-2.904
			C1140.549,144.589,1140.392,148.202,1141.135,148.474z"/>
		<path fill="#5C1812" d="M1122.66,146.034c0.039,0.789-0.154,1.862,0.429,1.954c0.583,0.091,1.881-1.165,1.881-1.165
			s1.261,1.585,1.886,1.19c0.625-0.396-0.891-3.423-2.441-3.793c-1.919-0.456-4.7,1.646-4.391,2.147
			C1120.333,146.872,1121.822,146.504,1122.66,146.034z"/>
		<path fill="#325D93" d="M1110.02,119.632c0-9.228,2.125-14.893,4.807-19.226c-2.559-2.958-2.723-7.482-0.34-11.494
			c0.965,2.853,9.018,6.812,19.281,7.084c10.791,0.291,17.162-1.109,21.918-4.27c1.316,2.424-0.118,7.497-1.966,9.92
			c1.937,4.632,3.912,10.149,4.55,19.112c0.666,9.378-1.711,21.514-3.653,23.765c-1.438-0.529-3.197-1.775-4.216-3.014
			c-5.057,4.957-26.15,5.79-31.57,0.487c-1.116,1.511-5.144,3.899-5.144,3.899S1110.02,132.704,1110.02,119.632z"/>
		<path fill="#6185A6" d="M1117.011,118.798c-5.169-11.944,2.989-24.7,17.188-17.591c14.226-7.585,21.397,6.404,16.199,18.226
			c-5.841,13.277-1.953,19.331,0,22.079c-2.782,4.872-12.7,5.136-17.663,5.185c-4.848,0.049-10.436-1.447-13.906-4.698
			C1118.829,141.998,1124.873,136.972,1117.011,118.798z"/>
		<path fill="#81B1CA" d="M1131.847,108.25c-0.04,0.358-0.102,0.714-0.18,1.068c-0.626,2.805-3.353,4.134-6.057,3.75
			c-3.188-0.455-5.331-2.825-4.978-6.054c0.401-3.647,4.764-5.557,8.018-4.56C1131.414,103.306,1132.13,105.761,1131.847,108.25z"/>
		<path fill="#81B1CA" d="M1148.152,108.854c-0.267,1.164-0.846,1.918-1.672,2.743c-1.451,1.453-3.884,1.865-5.895,1.382
			c-2.701-0.648-3.83-3.2-3.549-5.771c0.144-1.297,0.909-2.335,1.827-3.227c0.957-0.933,2.338-1.658,3.671-1.673
			c2.23-0.021,4.22,1.027,5.232,3.531C1148.092,106.643,1148.489,107.385,1148.152,108.854z"/>
		<path fill="#5C1812" d="M1142.953,110.966c-0.523,0.631-1.338,0.86-2.174,0.704c-1.139-0.21-2.14-1.314-2.008-2.487
			c0.283-2.56,4.136-2.524,4.677-0.214C1143.604,109.626,1143.384,110.448,1142.953,110.966z"/>
		<path fill="#5C1812" d="M1131.015,107.129c-0.031,0.206-0.086,0.398-0.157,0.571c-0.396,0.943-1.402,1.782-2.66,1.536
			c-1.237-0.242-1.693-1.004-1.926-1.848c-0.239-0.892,0.22-1.925,0.913-2.453c0.876-0.661,2.262-0.661,3.071,0.112
			C1130.704,105.473,1131.133,106.381,1131.015,107.129z"/>
		<path opacity="0.5" fill="#B6D2E0" enable-background="new    " d="M1128.597,106.939c0.098-0.674-0.868-0.801-1.002-0.11
			C1127.486,107.402,1128.49,107.695,1128.597,106.939z"/>
		<path opacity="0.5" fill="#B6D2E0" enable-background="new    " d="M1141.123,109.518c0.219-0.731-0.871-0.801-1.001-0.111
			C1140.012,109.982,1140.904,110.248,1141.123,109.518z"/>
		<path fill="#560000" d="M1131.71,114.164c0.361,2.177,3.206,4.251,3.206,4.251s3.113-2.896,2.912-4.705
			c-1.216-0.408-2.437-0.23-3.432-1.235C1133.468,113.716,1131.71,114.164,1131.71,114.164z"/>
		<path fill="#6C0900" d="M1131.71,114.164c0.67,0.77,3.206,2.457,3.206,2.457s2.285-1.958,2.912-2.91
			c-1.216-0.408-2.437-1.257-3.432-2.263C1133.468,112.688,1131.71,114.164,1131.71,114.164z"/>
		<g>
			<path fill="#5C1812" d="M1129.798,92.802c1.186-0.259,3.002-0.041,4.084,0.496c0.388-1.088,2.517-5.522,4.824-6.426
				c1.033-0.408,2.808,0.962,4.342,1.349c1.606,0.405,3.817,0.107,4.465,1.004c0.579,0.803,0.645,5.72,0.304,7.155
				c1.472,0.242,4.528,1.167,4.275,2.673c-0.232,1.366-2.4,1.739-4.664,2.009c-2.827,0.336-5.928,0.082-8.714-0.542
				c-2.925-0.653-6.397-2.056-8.292-3.719C1128.695,95.284,1127.607,93.279,1129.798,92.802z"/>
			<path fill="#811200" d="M1138.999,96.065c3.698,0.998,7.283,0.853,8.816,0.316c0.102-0.372,0.144-0.722,0.137-0.995
				c-2.144,0.271-4.729,0.09-7.425-0.42c-2.044-0.386-3.876-0.867-6.238-2.625c-0.158,0.364-0.393,0.646-0.407,0.957
				C1134.134,93.962,1136.235,95.318,1138.999,96.065z"/>
		</g>
	</g>
	<g>
		<path fill="#81B1CA" d="M973.374,557.146c0,0,8.451-84.673,17.626-116.775c9.172-32.104,38.763-45.872,67.466-45.872
			c37.074,0,62.424,17.623,72.534,51.784c10.786,36.434,4.36,119.503,4.36,119.503s-3.77,1.445-13.396-7.441
			c-11.923-11.006-18.426-75.379-11.465-91.666c-25.217-9.155-45.025-29.506-50.987-54.729
			c-10.091,24.765-28.442,41.966-49.863,53.854c13.054,18.09,3.681,74.172-16.095,86.756
			C983.466,558.982,973.374,557.146,973.374,557.146z"/>
		<path fill="#971B00" d="M968.871,557.146c0,0,8.09-63.856,12.838-99.769c5.087-38.475,36.525-67.538,78.294-67.538
			c41.336,0,78.803,32.247,78.803,76.792c0,37.521,1.505,101.505,1.505,101.505l-15.363,0.321
			c-1.447-29.285,0.604-70.171-1.799-100.559c-2.88-36.422-25.112-60.555-63.636-61.912c-33.078-1.167-58.114,31.528-60.966,51.963
			c-3.012,21.58-9.221,74.985-12.559,100.862L968.871,557.146z"/>
		<g>
			<path fill="#811200" d="M959.37,404.294c0,0,25.964-53.953,102.331-53.953c77.7,0,105.033,63.146,105.033,63.146l-30.657,19.068
				c0,0-21.079-47.012-75.608-47.553c-47.801-0.475-73.091,40.346-73.091,40.346L959.37,404.294z"/>
			<g>
				<path fill="#E1CC6C" d="M992.193,406.678c0.234,0.204-0.502,1.137-0.892,1.585l-1.336,1.536
					c-0.557,0.64-0.797,1.218-1.332,1.876c-0.479,0.595-0.776,0.936-1.28,1.472c-0.241,0.277-0.549,0.76-0.827,1.08
					c-0.204,0.234-0.432,0.411-0.536,0.357c-0.082-0.034-0.229-0.124-0.399-0.272c-0.362-0.315-0.821-0.865-1.107-1.226
					c-0.636-0.777-1.892-2.995-2.569-4.671c-0.121-0.292-0.471-1.57-0.529-1.847c-0.051-0.237-0.346-0.796-0.577-1.459l-0.267,0.275
					c-0.207,0.194-1.737,1.824-1.887,1.694c-0.213-0.186-0.407-0.393-0.565-0.642c-0.117-0.252-0.467-0.669-0.309-0.98
					c0.105-0.208,0.807-0.797,1.475-1.565c0.249-0.287,0.477-0.609,0.688-0.919c-0.445-0.985-0.927-2.009-0.984-2.187
					c-0.103-0.313-0.164-0.63-0.435-1.353c-0.322-0.879-0.693-2.176-0.843-2.306c-0.148-0.13-0.663,0.547-0.941,0.867
					c-0.501,0.576-2.074,1.868-2.278,2.103c-0.204,0.235-0.76,1.175-0.902,1.426c-0.144,0.25-0.228,0.477-0.524,0.818
					c-0.13,0.149-0.348,0.185-0.465,0.233c-0.117,0.048-1.046-0.348-1.323-0.589c-0.149-0.13,0.239-0.878,0.438-1.193
					c0.252-0.418,1.231-1.889,1.417-2.103s1.329-1.055,1.96-1.78c0.464-0.533,0.974-0.99,1.438-1.523
					c0.315-0.362,0.609-0.744,0.906-1.085c0.167-0.192,0.677-0.348,0.763-0.273c0.746,0.649,1.167,1.802,1.559,2.817
					c0.367,0.956,0.649,2.139,1.11,3.289c0.091,0.22,0.182,0.439,0.491,1.117c0.562-0.584,1.171-1.175,1.67-1.749
					c0.111-0.128,0.396-0.068,0.566,0.081c0.256,0.223,0.902,1.16,0.68,1.416c-0.649,0.747-1.38,1.423-2.013,2.221
					c0.314,0.793,0.756,2.095,0.849,2.349l0.665,2.078c0.376,1.076,1.482,2.863,1.555,3.038s0.553,0.743,0.702,0.873
					s0.997-0.931,1.164-1.123c0.371-0.427,0.881-1.444,1.122-1.722c0.816-0.938,1.599-1.794,2.415-2.733
					C990.851,405.809,991.959,406.474,992.193,406.678z"/>
				<path fill="#DE723A" d="M983.188,389.001c0.566,0.593,1.144,1.526,1.515,1.915c0.547,0.572,1.406,1.432,1.933,2.024
					c0.564,0.633,0.992,1.163,1.655,1.858c0.566,0.593,1.428,1.373,2.15,2.129c0.683,0.716,1.206,1.428,1.519,1.755
					c0.761,0.797,1.173,1.107,1.996,1.846c0.507,0.532,1.278,0.89,1.767,1.4c0.176,0.184,0.329,0.468,0.542,0.732
					c0.214,0.265,0.329,0.468,0.022,0.76c-0.449,0.429-1.103,1.014-1.239,0.871c-0.234-0.245-0.543-0.732-0.777-0.978
					c-0.176-0.184-0.431-0.37-0.687-0.556c-0.236-0.166-0.451-0.391-0.686-0.596c-0.645-0.675-1.492-1.194-2.155-1.89
					c-0.664-0.695-1.168-1.347-1.793-2.001c-0.624-0.654-1.699-1.699-2.676-2.721c-0.741-0.777-2.241-2.471-3.002-3.269
					c-0.547-0.573-0.989-1.323-1.243-1.588c-0.176-0.184-0.37-0.429-0.485-0.631c-0.077-0.122,0.398-0.77,0.746-1.102
					C982.718,388.55,982.855,388.653,983.188,389.001z"/>
				<path fill="#5FB8AC" d="M1006.904,394.228c0.192,0.245-0.134,0.607-0.423,0.834c-0.445,0.349-0.868,0.68-0.973,0.546
					c-0.14-0.178-0.496-0.221-0.909-0.472c-1.014-0.606-2.006-1.229-2.908-1.923c-0.293-0.237-1.806-1.386-2.522-1.614
					c-1.228-0.364-1.884-0.735-2.871-0.833c-0.321,0.307-0.639,0.631-0.643,0.75c0.003,0.142,0.247,0.453,0.334,0.564
					c0.192,0.245,0.951,1.625,1.684,2.56c0.175,0.222,1.213,1.456,1.562,1.9c0.105,0.134,0.951,1.625,1.144,1.87
					c0.296,0.378,0.699,0.709,0.769,0.798c0.053,0.067-0.019,0.159-0.108,0.229c-0.178,0.14-0.479,0.304-0.72,0.457
					c-0.217,0.135-0.812,0.385-0.908,0.353s-0.363-0.326-0.485-0.481c-0.419-0.534-0.863-1.514-1.334-2.115
					c-0.279-0.356-1.021-1.211-1.51-1.834c-0.646-0.823-1.879-2.946-2.698-3.991c-0.924-1.179-1.923-2.408-3.127-3.943
					c-0.436-0.556-2.618-2.653-2.81-2.897c-0.244-0.312,0.41-0.896,0.499-0.966c0.111-0.087,0.183-0.179,0.562-0.476
					c1.001-0.785,2.694-1.969,3.227-2.207c0.532-0.238,1.825-0.604,2.87-0.418c1.458,0.257,2.243,1.259,3.133,2.393
					c0.506,0.645,0.614,1.242,0.696,1.896c0.041,0.327,0.153,0.562,0.204,0.81c0.174,0.726,0.03,1.413-0.205,2.029
					c-0.125,0.341-0.37,0.727-0.658,1.108c0.676-0.031,1.027,0.198,2.085,0.575c0.814,0.26,2.751,1.723,3.142,1.991
					c0.873,0.609,1.803,1.246,2.764,1.785C1006.045,393.68,1006.713,393.982,1006.904,394.228z M995.808,388.595
					c0.603-0.652,0.878-1.263,0.89-2.027c0.007-0.221-0.071-0.411-0.1-0.676c-0.075-0.875-0.244-1.137-0.523-1.493
					c-1.012-1.29-2.05-1.698-2.611-1.544c-0.377,0.115-0.948,0.348-1.548,0.638c-0.834,0.402-1.516,1.044-1.85,1.306
					c-0.089,0.07,0.998,0.906,1.766,1.885c0.418,0.534,2.437,3.154,2.521,3.124C994.437,389.777,995.271,389.194,995.808,388.595z"
					/>
				<path fill="#81B1CA" d="M1014.602,385.098c1.011,0.719,2.865,2.32,3.022,2.588c0.171,0.292-0.162,0.619-0.514,0.857
					c-0.157,0.125-0.387,0.292-0.533,0.377c-0.122,0.071-0.456,0.004-0.696-0.182c-0.441-0.364-1.709-1.522-2.162-1.847
					c-1.024-0.743-2.329-1.126-3.393-1.879c-1.012-0.724-2.586-2.244-3.347-2.562c-0.188,0.749-0.332,1.454-0.304,1.586
					c0.121,0.486,0.406,0.975,0.647,1.554c0.586,1.393,1.423,2.934,2.037,3.983c0.257,0.439,1.036,1.49,1.207,1.783
					c0.172,0.293,0.149,0.535,0.134,0.676c-0.017,0.14-0.193,0.342-0.584,0.57c-0.365,0.214-0.561,0.329-0.74,0.303
					c-0.246-0.085-0.417-0.378-0.66-0.793c-0.157-0.269-0.636-0.807-1.051-1.515c-0.542-0.927-1.497-2.727-2.23-4.427
					c-0.747-1.725-1.562-3.115-1.919-3.725c-0.157-0.269-0.913-1.169-1.271-1.779c-0.471-0.805-0.951-1.736-1.45-2.59
					c-0.472-0.805-1.132-1.205-1.546-1.913c-0.071-0.122,0.151-0.58,0.465-0.829c0.205-0.153,0.396-0.33,0.519-0.402
					c0.098-0.057,0.237-0.041,0.407,0.024c0.599,0.239,1.573,1.569,1.887,2.105c0.486,0.83,0.859,1.692,1.303,2.448
					c0.2,0.342,1.289,1.866,1.486,1.98c0.221-1.079,0.584-2.472,0.65-3.198s0.033-2.182,0.156-2.811
					c0.21-1.04,0.062-2.133,0.075-3.287c0.079-0.145,0.26-0.283,0.479-0.412c0.22-0.128,0.429-0.218,0.639-0.308
					c0.282-0.133,0.481-0.184,0.582-0.013c0.514,0.878,0.338,2.816,0.243,3.887c-0.05,0.586-0.098,2.351-0.177,2.888
					c-0.077,0.533-0.101,1.71-0.405,2.356c1.128,0.433,2.919,2.06,3.736,2.606C1012.321,383.943,1013.765,384.507,1014.602,385.098
					L1014.602,385.098z"/>
				<path fill="#BABF3B" d="M1021.609,364.78c0.137,0.341,1.136,2.073,1.356,2.625c0.515,1.286,0.982,2.53,1.582,4.026
					c0.284,0.708,0.463,1.459,0.721,2.178c0.231,0.578,0.541,1.124,0.746,1.711c0.273,0.834,0.547,1.669,0.741,2.535
					c0.189,0.777,0.343,1.538,0.405,2.305c0.074,0.641,0.18,1.816-0.077,2.772c-0.257,0.956-0.649,1.875-2.907,2.779
					c-0.42,0.168-0.834,0.273-1.223,0.368c-1.854,0.468-4.264-1.672-5.011-3.536c-0.325-0.813-0.757-1.737-1.135-2.682
					c-0.221-0.551-0.416-1.113-0.562-1.632c-0.326-1.271-0.857-2.824-1.299-4.231c-0.127-0.467-0.279-0.924-0.469-1.396
					c-0.557-1.391-1.429-2.808-1.523-3.044c-0.105-0.263-0.415-0.961-0.326-1.118c0.089-0.158,0.54-0.399,1.039-0.599
					c0.184-0.074,0.404,0.021,0.577,0.073c0.174,0.052,0.315,0.331,0.399,0.541c0.421,1.05,1.051,1.863,1.703,3.49
					c0.189,0.473,0.763,2.284,1.02,3.155c0.348,1.171,0.616,2.373,1.194,3.816c0.41,1.023,0.862,2,1.293,3.076
					c0.273,0.683,1.671,2.042,2.327,2.083c0.378,0.032,0.971-0.084,1.443-0.273c1.181-0.473,1.438-0.82,1.627-1.718
					c0.246-0.982,0.009-2.105-0.26-3.155c-0.188-0.777-0.583-2.142-0.836-2.924c-0.115-0.441-0.457-1.065-0.752-1.8
					c-0.325-0.813-0.704-2.063-0.936-2.64c-0.283-0.708-0.883-2.357-1.293-3.38c-0.137-0.341-1.004-1.669-1.225-2.22
					c-0.199-0.499-0.315-0.788,0.157-0.977C1020.765,364.723,1021.547,364.622,1021.609,364.78z"/>
				<path fill="#AAABA8" d="M1034.867,361.899c0.458,0.208,0.89,0.421,1.093,1.012c0.021,0.083,0.013,0.288-0.009,0.556
					c-0.021,0.267-0.188,0.891-0.545,0.979c-0.109,0.027-0.616-0.256-0.767-0.394c-0.26-0.227-0.54-0.42-0.992-0.6
					c-0.451-0.18-1.186-0.203-1.789-0.054c-0.494,0.122-1.339,0.592-1.628,0.954c-0.152,0.212-0.105,0.637-0.06,1.179
					c0.02,0.432,0.009,1.454,0.09,1.783c0.216,0.879,0.352,1.311,1.2,1.801c0.849,0.49,1.246,0.567,2.109,0.762
					c0.959,0.23,3.171,1.17,3.628,1.61c0.458,0.44,1.413,1.953,1.643,2.886c0.21,0.851,0.404,1.997,0.373,3.169
					c-0.038,1.028-0.138,2.16-0.758,2.953c-0.62,0.793-1.856,1.331-2.707,1.54c-0.439,0.108-1.215,0.27-1.619,0.166
					c-1.706-0.424-2.909-1.409-3.268-2.864c-0.121-0.494-0.229-1.05-0.283-1.27c-0.095-0.384,0.249-0.644,0.476-0.787
					c0.303-0.191,0.522-0.245,0.742-0.299c0.302-0.075,0.589,0.146,0.677,0.503c0.122,0.494,0.141,0.926,0.297,1.324
					c0.272,0.632,0.415,0.975,1.429,1.424c0.294,0.131,0.692-0.025,1.049-0.113c0.961-0.237,1.538-0.612,1.842-1.152
					c0.222-0.521,0.175-1.062,0.19-1.59c0.03-0.823-0.151-1.681-0.354-2.504c-0.155-0.632-0.796-1.58-1.199-2.034
					s-1.979-0.939-2.938-1.169c-0.822-0.264-1.918-0.576-2.444-0.941c-0.944-0.641-1.763-1.953-1.985-2.859
					c-0.148-0.604-0.2-1.523-0.204-2.366c-0.018-0.782-0.016-1.481,0.178-1.878c0.436-0.835,1.68-1.811,2.833-2.095
					C1033.17,361.037,1034.224,361.534,1034.867,361.899z"/>
				<path fill="#E1CC6C" d="M1054.958,358.701c0.282-0.016,0.822,0.01,1.022,0.056c0.115,0.022,0.366,0.461,0.377,0.658
					c0.013,0.226-0.065,0.854-0.169,1.029c-0.078,0.118-0.581,0.231-1.062,0.258c-0.508,0.028-1.276-0.042-1.926-0.005
					c-0.169,0.009-0.617,0.091-1.238,0.126c-0.48,0.027-0.934,0.024-0.987,0.084c-0.026,0.03-0.05,0.116-0.04,0.285
					c0.027,0.48,0.195,1.462,0.23,2.083c0.036,0.649-0.011,1.332,0.027,2.009c0.034,0.593,0.151,1.181,0.186,1.773
					c0.006,0.113,0.262,0.127,0.544,0.111c0.169-0.01,1.063-0.229,1.401-0.249c0.283-0.016,0.683,0.047,1.334,0.039
					c0.707-0.011,1.406-0.164,1.577-0.146c0.398,0.035,0.501,0.85,0.523,1.245c0.011,0.198-0.062,0.4-0.114,0.488
					s-0.528,0.171-0.864,0.247c-0.111,0.034-0.618,0.091-1.183,0.123c-0.564,0.031-0.88-0.036-1.105-0.023
					c-0.311,0.018-1.178,0.208-1.827,0.244c-0.169,0.01-0.22,0.125-0.27,0.242s-0.084,0.515-0.053,1.079
					c0.032,0.564,0.191,1.887,0.252,2.959c0.034,0.621-0.128,1.763-0.088,2.468c0.031,0.564,0.173,1.066,0.343,1.057
					c0.338-0.019,1.011-0.142,1.209-0.153c0.536-0.03,2.07,0.053,2.296,0.041c0.339-0.019,0.977-0.253,1.287-0.271
					c0.142-0.008,0.386,0.318,0.509,0.481c0.152,0.19,0.243,0.808,0.26,1.09c0.019,0.339-1.856,0.728-2.365,0.756
					c-0.678,0.038-1.62-0.107-1.931-0.089c-0.536,0.03-2.161,0.348-2.697,0.378c-0.226,0.013-0.439-0.768-0.606-1.722
					c-0.087-0.533-0.148-1.125-0.178-1.661c-0.051-0.903,0-2.011-0.013-2.236c-0.041-0.734-0.159-1.322-0.209-2.197
					c-0.056-0.988-0.083-1.978,0.015-2.776c0.038-0.313,0.049-0.625,0.032-0.936c-0.046-0.819-0.232-1.602-0.278-2.42
					c-0.034-0.621-0.018-1.33-0.05-1.895c-0.036-0.649-0.129-1.295-0.167-1.973c-0.038-0.678,0.086-1.987,0.336-2.086
					c0.111-0.035,1.289-0.242,1.6-0.26c0.338-0.019,1.655-0.263,2.248-0.296C1053.655,358.689,1054.45,358.729,1054.958,358.701z"/>
				<path fill="#D35623" d="M1065.926,359.456c0.091,0.263,0.317,1.588,0.384,2.133c0.243,2.121,0.545,4.218,0.79,6.311
					c0.046,0.458,0.149,1.233,0.264,1.555c0.114,0.322,0.395,1.68,0.69,2.528c0.114,0.322,0.223,1.041,0.307,1.048
					c0.169,0.015,0.673-1.219,0.979-1.817c0.441-0.842,0.799-1.691,1.212-2.535c0.585-1.198,1.258-2.417,1.764-3.679
					c0.464-1.095,0.924-2.162,1.416-3.255c0.248-0.574,0.642-1.193,0.908-1.653c0.165-0.27,1.696-0.251,2.118-0.214
					c0.563,0.048,0.816,0.411,0.77,0.946c-0.089,1.042-0.148,2.059-0.238,3.101c-0.106,1.239-0.567,3.952-0.587,4.177
					c-0.02,0.226-0.156,3.789-0.183,4.099c-0.039,0.451-0.467,3.109-0.632,5.025c-0.056,0.648-0.039,1.444-0.088,2.007
					c-0.017,0.197-0.153,0.469-0.215,0.521c-0.061,0.051-0.599,0.034-0.965,0.002c-0.45-0.039-0.79-0.38-0.772-0.917
					c0.001-0.993,0.113-1.977,0.198-2.963c0.109-1.268,0.461-3.365,0.494-3.76c0.034-0.395,0.164-3.874,0.19-4.184
					c0.026-0.31,0.655-4.313,0.672-4.511c0.02-0.225-0.091-0.263-0.203-0.272c-0.141-0.012-1.222,2.987-1.291,3.124
					c-0.39,0.903-0.864,1.798-1.308,2.668c-0.27,0.487-0.51,0.978-0.751,1.467c-0.666,1.475-1.394,3.001-2.236,4.546
					c-0.065,0.108-0.489,0.412-0.614,0.543c-0.124,0.131-0.269,0.488-0.471,0.527c-0.202,0.039-0.425-0.008-0.734-0.035
					c-0.817-0.07-0.985-1.078-1.176-1.832c-0.244-1.128-1.052-3.609-1.135-3.957c-0.084-0.348-0.166-1.376-0.334-2.384
					c-0.164-1.064-0.349-2.215-0.391-3.042c-0.022-0.399-0.273-2.095-0.433-2.562c-0.067-0.205-0.149-0.24-0.233-0.248
					c-0.197-0.017-0.421,3.568-0.544,4.664c-0.128,1.152-0.327,2.809-0.482,3.959c-0.126,1.124-0.062,3.031-0.185,4.439
					c-0.061,0.704-0.352,2.438-0.378,2.748c-0.008,0.084,0.02,0.427,0.013,0.512c-0.02,0.226-0.342,0.34-0.708,0.308
					c-0.141-0.012-0.901-0.078-1.056-0.261s-0.215-0.473-0.188-0.782c0.024-0.282,0.271-1.821,0.341-2.638
					c0.11-1.608,0.077-3.2,0.216-4.806c0.106-1.239,0.38-2.436,0.486-3.675c0.131-1.521,0.203-3.019,0.504-4.525
					c0.14-0.641,0.309-1.278,0.364-1.926c0.021-0.253-0.038-0.542-0.017-0.796c0.02-0.225,0.093-0.417,0.33-0.539
					c0.182-0.126,1.113-0.074,1.423-0.047C1065.001,358.667,1065.835,359.193,1065.926,359.456z"/>
				<path fill="#69C4BA" d="M1090.688,363.78c0.432,0.486,0.809,1.425,0.863,2.022c0.056,0.596-0.088,2.337-0.403,3.599
					c-0.288,1.152-0.624,2.495-1.227,3.393c-0.699,1.049-1.549,1.536-1.981,1.632c-0.432,0.096-2.509-0.103-3.111-0.253
					c-0.411-0.103-1.439-0.418-1.604-0.459c-0.096,0.034-0.109,0.206-0.15,0.37c-0.268,1.069-0.363,2.152-0.631,3.222
					c-0.232,0.932-0.596,1.803-0.884,2.722c-0.068,0.274-0.226,0.905-0.37,1.014c-0.144,0.11-0.952-0.034-1.336-0.13
					c-0.302-0.076-0.48-0.295-0.385-0.679c0.151-0.603,0.658-1.816,0.885-2.721c0.321-1.289,0.472-2.708,0.801-4.024
					c0.411-1.646,0.733-3.284,1.199-5.148c0.178-0.713,0.404-1.384,0.637-2.083c0.288-0.802,0.651-1.673,0.864-2.523
					c0.13-0.521,0.212-1.549,0.28-1.823c0.082-0.329,0.13-0.405,0.302-0.507c0.171-0.103,0.98,0.041,1.419,0.15
					C1087.747,362.025,1090.256,363.293,1090.688,363.78z M1085.63,364.788c-0.343,1.371-0.885,2.256-1.22,3.599
					c-0.281,1.125-0.713,3.318-0.672,3.386c0.199,0.254,0.946,0.411,1.577,0.569c0.493,0.124,1.687,0.247,1.926,0.219
					c0.24-0.027,0.713-0.288,0.98-0.658c0.438-0.59,0.658-1.467,0.815-2.098c0.322-1.289,0.822-3.99,0.39-4.477
					c-0.432-0.486-1.179-0.877-1.892-1.172c-0.5-0.212-1.508-0.609-1.68-0.507C1085.685,363.753,1085.705,364.487,1085.63,364.788z"
					/>
				<path fill="#76A2BE" d="M1101.871,366.7c0.293,0.263,0.145,2.082-0.003,3.024l-0.682,3.612
					c-0.185,0.958-0.348,1.864-0.585,2.802c-0.128,0.496-0.287,1.071-0.441,1.556c-0.135,0.433-0.117,0.863-0.173,1.326
					c-0.053,0.615-0.212,1.19-0.291,1.795l-0.257,1.626c-0.139,1.157-0.908,3.889-0.969,4.047c-0.061,0.159-0.871,0.062-1.346-0.12
					c-0.476-0.181-0.441-0.35-0.397-0.545s0.679-3.129,0.838-4.339c0.007-0.179-0.002-0.394-0.034-0.467
					c-0.643-0.457-1.398-0.775-2.118-1.11c-0.703-0.298-1.782-0.801-1.897-0.814c-0.116-0.014-0.528,0.434-0.849,0.796
					c-0.319,0.362-2.14,3.39-2.229,3.627c-0.061,0.158-0.773-0.114-1.144-0.255c-0.238-0.09-0.66-0.251-0.58-0.463l0.353-0.924
					c0.242-0.634,1.238-1.979,1.889-2.971c0.221-0.339,0.526-0.586,0.773-0.916c0.323-0.452,0.69-1.098,0.838-1.405
					c0.214-0.403,0.974-2.079,2.053-3.876c0.904-1.5,1.913-3.113,2.786-4.292c0.333-0.478,0.624-1.002,0.968-1.506
					c0.276-0.409,0.924-1.312,1.531-1.08c0.29,0.11,0.647,0.126,0.965,0.247C1101.186,366.197,1101.578,366.437,1101.871,366.7z
					 M1099.833,367.919c-0.144,0.218-0.488,0.963-0.651,1.234c-0.164,0.271-2.13,3.363-2.768,4.481
					c-0.705,1.214-1.896,3.543-1.909,3.659c-0.015,0.116,0.323,0.184,0.481,0.244c0.502,0.191,0.979,0.525,1.472,0.743
					c0.491,0.218,1.359,0.64,1.459,0.617c0.099-0.022,0.112-0.532,0.144-0.853c0.035-0.41,0.224-1.064,0.373-1.613
					c0.272-0.955,0.536-1.883,0.73-2.868c0.142-0.611,0.162-1.299,0.305-1.911c0.169-0.601,0.238-1.18,0.395-1.907
					c0.054-0.222,0.332-1.507,0.254-1.779c-0.016-0.036-0.069-0.057-0.096-0.066
					C1099.969,367.881,1099.869,367.903,1099.833,367.919z"/>
				<path fill="#C4C63A" d="M1115.261,373.074c0.301,0.156,0.84,0.468,0.938,0.647c0.098,0.179,0.234,0.345-0.026,0.847
					c-0.078,0.15-0.222,0.426-0.478,0.612s-0.908-0.153-1.335-0.375c-0.602-0.313-0.939-0.584-1.328-0.754
					c-0.39-0.17-0.679-0.289-0.868-0.292s-0.444,0.916-0.681,1.431c-0.224,0.553-0.409,1.094-0.709,1.671
					c-0.588,1.129-1.236,2.193-1.874,3.296c-0.678,1.241-1.123,2.22-1.775,3.475c-0.234,0.452-0.688,1.14-0.985,1.527
					c-0.259,0.375-0.494,0.827-0.702,1.228c-0.506,0.789-1.05,1.589-1.48,2.417c-0.092,0.176-0.247,0.414-0.475,0.422
					c-0.266,0.021-0.844-0.215-1.069-0.333c-0.577-0.3-0.408-0.626-0.343-0.751c0.222-0.426,1.378-2.343,1.769-3.032l0.234-0.452
					c0.353-0.677,0.931-1.237,1.309-1.965c0.222-0.426,0.432-0.891,0.653-1.317c0.549-1.117,1.11-2.195,1.785-3.247
					c0.389-0.626,0.95-1.705,1.08-1.956c0.443-0.853,0.8-1.783,1.118-2.701c0.027-0.114,0.121-0.479,0.009-0.569
					c-0.112-0.09-0.704-0.239-1.256-0.526c-0.577-0.3-1.68-0.937-1.802-1.192c-0.123-0.255,0.166-0.933,0.283-1.159
					c0.235-0.451,0.501-0.472,0.853-0.29c0.426,0.222,1.529,0.859,1.755,0.976c0.275,0.144,3.709,1.387,4.01,1.543
					C1114.271,372.464,1114.859,372.865,1115.261,373.074z"/>
				<path fill="#B5B6B3" d="M1128.904,382.007c-0.13,0.186-0.352,0.306-0.627,0.7c-0.373,0.533-0.796,0.893-1.189,1.308
					c-0.771,0.807-1.587,2.271-2.341,3.055c-0.676,0.77-1.078,1.247-1.531,1.896s-1.041,1.688-1.494,2.336
					c-0.356,0.51-1.057,1.365-1.445,1.921c-0.566,0.811-0.979,1.696-1.521,2.524c-0.333,0.526-0.705,1.059-1.078,1.592
					c-0.34,0.487-0.666,0.707-1.061,0.432c-0.44-0.308-0.857-0.599-0.878-0.717c-0.028-0.158-0.16-0.215,0.244-0.795
					c0.227-0.324,0.769-1.05,1.117-1.599c0.527-0.804,0.969-1.634,1.577-2.554c0.534-0.765,1.105-1.435,1.244-1.683
					c0.294-0.519,0.71-1.263,0.729-1.388s-1.124-0.958-1.556-1.328c-0.262-0.217-0.773-0.472-1.075-0.682
					c-0.533-0.373-1.092-1.004-1.171-0.99c-0.078,0.014-0.4,0.375-0.578,0.63c-0.987,1.414-1.772,2.142-2.682,3.197
					c-0.756,0.886-1.478,1.623-2.223,2.689c-0.227,0.325-0.566,0.811-0.747,0.823c-0.181,0.012-0.584-0.201-0.793-0.347
					c-0.324-0.227-0.695-0.486-0.589-0.688c0.123-0.225,0.279-0.598,0.426-0.806c0.631-0.904,1.207-1.433,1.765-2.182
					c0.396-0.517,0.845-0.962,1.254-1.4c0.571-0.67,1.166-1.323,1.668-2.042c0.534-0.765,1.184-1.794,1.799-2.675
					c0.421-0.603,0.882-1.212,1.303-1.815c0.21-0.301,0.418-0.846,0.629-1.147c0.437-0.626,0.95-1.164,1.344-1.924
					c0.254-0.512,0.798-1.339,0.839-1.448c0.042-0.109,0.113-0.507,0.21-0.646c0.098-0.139,0.714,0.016,1.085,0.274
					c0.417,0.292,0.607,0.562,0.628,0.68c0.021,0.118-0.146,0.554-0.187,0.663c-0.059,0.132-0.479,0.735-0.985,1.657
					c-0.335,0.628-0.793,1.136-1.312,1.877c-0.291,0.417-0.612,1.124-0.984,1.657c-0.155,0.271-0.784,1.073-0.772,1.253
					s0.943,0.97,1.477,1.342c0.231,0.162,0.565,0.326,0.866,0.536c0.232,0.162,0.71,0.564,0.872,0.678
					c0.309,0.25,0.57,0.467,0.712,0.462c0.141-0.004,0.932-1.038,1.584-1.824c0.539-0.624,1.224-1.801,1.77-2.385
					c0.465-0.468,1.034-1.036,1.407-1.569c0.308-0.44,0.585-0.591,0.768-0.705c0.184-0.114,0.563,0.083,0.911,0.325
					C1128.681,381.438,1129.018,381.845,1128.904,382.007z"/>
				<path fill="#E1CC6C" d="M1135.132,387.247c-0.188,0.435-1.162,1.387-1.458,1.729c-1.424,1.646-2.741,3.384-4.405,5.309
					c-0.943,1.09-1.54,1.434-2.627,2.474c-0.828,0.741-1.389,1.303-1.962,1.966c-0.129,0.149-0.416,0.611-0.639,0.868
					c-0.629,0.727-1.43,1.566-1.817,2.015c-0.204,0.235-0.373,0.388-0.701,0.292c-0.227-0.084-0.479-0.266-0.565-0.34
					c-0.277-0.241-0.687-0.632-0.561-0.821c0.127-0.189,0.42-0.571,0.604-0.785c0.722-0.834,1.229-1.292,1.525-1.633
					c0.314-0.364,0.716-0.914,0.863-1.084c0.539-0.58,1.27-1.294,2.079-2.014c0.997-0.894,1.656-1.483,2.322-2.252
					c1.461-1.688,2.78-3.387,4.187-5.012c0.369-0.428,1.081-1.121,1.451-1.548c0.073-0.086,0.107-0.168,0.274-0.361
					c0.166-0.192,0.668,0.092,1.031,0.406C1135.033,386.713,1135.185,387.143,1135.132,387.247z"/>
				<path fill="#D8642E" d="M1143.908,395.594c0.21,0.623,0.339,1.325,0.288,1.964c-0.028,0.54-0.336,1.034-0.463,1.432
					c-0.207,0.477-0.475,0.932-0.84,1.286c-0.081,0.079-0.263,0.176-0.462,0.133c-0.299-0.065-1.094-0.397-1.192-0.499
					c-0.177-0.183-0.072-0.441,0.052-0.679c0.269-0.575,0.615-0.99,0.845-1.606c0.25-0.636,0.103-1.358-0.37-1.845
					c-0.354-0.366-1.225-0.899-1.825-0.869s-1.004,0.264-1.508,0.516c-1.633,0.793-3.151,1.989-4.573,3.366
					c-0.649,0.629-1.302,1.418-1.871,1.969c-1.015,0.983-1.872,2.05-2.473,3.379c-0.208,0.477-0.415,0.913-0.543,1.431
					c-0.151,0.697,0.576,1.449,0.989,1.875c0.197,0.203,0.886,0.874,1.328,0.761c0.401-0.113,0.702-0.168,1.005-0.344
					c0.363-0.234,0.731-0.748,1.036-1.043c0.244-0.236,0.939,0.035,1.313,0.421c0.196,0.203,0.312,0.405,0.229,0.644
					c-0.083,0.199-0.368,0.514-0.531,0.671c-0.467,0.452-1.056,1.022-1.579,1.254c-0.423,0.173-0.904,0.246-1.346,0.358
					c-1.084,0.263-2.503-1-3.133-1.649c-0.531-0.549-1.002-1.076-1.21-1.859c-0.32-1.185,0.137-2.257,0.613-3.31
					c0.518-1.131,1.156-2.261,2.172-3.244c0.324-0.314,0.648-0.589,0.832-0.766c0.324-0.315,1.486-1.716,2.278-2.483
					c0.69-0.669,1.661-1.333,2.531-1.979c1.053-0.783,3.07-1.91,3.972-2.036s2.75,0.564,3.675,1.519
					C1143.482,394.707,1143.735,395.131,1143.908,395.594z"/>
				<path fill="#69C4BA" d="M1153.168,406.558c0.48,1.593,0.008,2.923-0.849,4.265c-0.427,0.65-0.853,1.301-1.409,1.875
					c-0.212,0.235-1.337,0.998-1.583,1.188c-0.783,0.605-1.357,1.156-2.364,1.935c-1.141,0.882-2.231,1.367-3.476,2.114
					c-1.004,0.597-1.992,1.075-3.2,1.223c-0.778,0.102-1.528,0.288-2.38,0.017c-0.79-0.283-1.558-0.905-2.11-1.621
					c-0.57-0.738-0.963-1.292-1.107-1.896c-0.116-0.982,0.067-1.946,0.687-3.318c0.45-0.99,2.319-2.686,3.685-3.74
					c1.722-1.331,3.628-2.518,5.419-3.76c0.751-0.508,1.94-1.142,2.385-1.307c0.444-0.165,0.902-0.126,1.411-0.162
					c0.327-0.039,0.789-0.181,1.345-0.11c0.555,0.071,1.867,0.521,2.939,1.909C1153.113,405.886,1153.03,406.057,1153.168,406.558z
					 M1149.576,405.332c-0.448-0.118-1.034,0.049-1.485,0.112c-0.164,0.019-0.655,0.077-1.145,0.276
					c-0.809,0.34-1.693,0.952-2.377,1.409c-1.232,0.81-2.47,1.659-3.655,2.575c-0.828,0.64-1.856,1.435-2.66,2.199
					c-0.848,0.798-1.456,1.769-1.608,2.958c-0.065,0.515,0.453,1.187,0.781,1.611c0.657,0.85,1.763,1.032,2.732,0.854
					c0.598-0.105,1.36-0.551,2.157-0.953c1.168-0.616,2.464-1.296,3.426-2.04c0.783-0.605,1.564-1.351,2.369-1.974
					c0.582-0.45,1.61-1.245,2.094-1.868c0.799-1.046,1.611-3.139,0.954-3.989C1150.589,405.764,1150.064,405.455,1149.576,405.332z"
					/>
			</g>
			<path fill="none" d="M967.871,447.254c0,0,21.484-68.492,91.318-68.492c71.666,0,94.758,70.561,94.758,70.561"/>
			
				<text transform="matrix(0.6565 -0.7543 0.7543 0.6565 1041.8359 380.2158)" fill="#E1CC6C" font-family="'Supernettcn-Regular'" font-size="28.2704"> </text>
		</g>
	</g>
	<g>
		<g>
			<path fill="#DE723A" d="M812.83,359.013c-0.778-12.039-1.078-13.269-2.261-25.19c3.427-0.951,5.799-1.5,10.823-2.565
				C818.847,340.615,815.457,349.679,812.83,359.013z"/>
			<path fill="#EBDB8A" d="M922.634,356.136c-0.855-12.38-3.338-24.492-6.36-36.504c7.339-0.602,11.295-0.914,19.58-1.449
				C932.572,331.217,927.42,343.612,922.634,356.136z"/>
			<path fill="#69C4BA" d="M946.284,356.279c-0.688-12.988-2.943-25.777-6.181-38.36c8.446-0.505,12.885-0.729,21.983-1.008
				C957.654,330.484,952.141,343.267,946.284,356.279z"/>
			<path fill="#81B1CA" d="M1000.469,357.04c-0.863-13.855-2.541-27.228-5.834-40.741c9.283-0.142,13.93-0.206,23.461-0.298
				C1012.98,330.129,1007.087,343.552,1000.469,357.04z"/>
			<path fill="#FCF0CF" d="M973.648,356.69c-1.088-13.684-3.065-26.692-6.908-39.905c9.202-0.216,13.912-0.264,23.18-0.413
				C985.208,330.192,979.666,343.39,973.648,356.69z"/>
			<path fill="#DE723A" d="M1030.472,357.234c-1.712-14.006-4.323-27.536-7.513-41.276c9.615-0.079,14.513-0.104,24.71-0.104
				C1042.885,330.247,1037.261,343.668,1030.472,357.234z"/>
			<path fill="#EBDB8A" d="M827.938,357.52c-1.483-13.525-2.217-14.724-3.945-26.804c5.197-1.062,8.081-1.601,13.38-2.516
				C834.812,338.144,831.168,347.784,827.938,357.52z"/>
			<path fill="#69C4BA" d="M845.782,356.468c-1.812-9.598-3.982-19.112-5.748-28.719c5.167-0.858,6.188-1.027,12.18-1.782
				C850.255,336.192,848.127,346.324,845.782,356.468z"/>
			<path fill="#81B1CA" d="M881.271,355.72c-1.525-11.116-3.697-21.432-6.467-32.298c6.754-0.689,10.238-1.022,17.152-1.662
				C889.327,333.377,884.744,344.355,881.271,355.72z"/>
			<path fill="#FCF0CF" d="M863.215,355.934c-2.113-10.403-4.767-20.215-7.916-30.349c6.139-0.747,9.409-1.109,16.09-1.81
				C868.796,334.537,865.88,345.19,863.215,355.934z"/>
			<path fill="#DE723A" d="M900.914,355.897c-1.229-11.76-3.047-22.885-5.446-34.458c6.906-0.627,10.016-0.9,17.131-1.5
				C910.163,332.397,905.414,344.087,900.914,355.897z"/>
		</g>
	</g>
	<g>
		<g>
			<path fill="#EBDB8A" d="M1098.217,358.859c-6.453-13.819-11.886-27.808-17.065-42.146c10.561,0,16.256,0.06,27.486,0.188
				C1103.372,330.506,1100.573,344.521,1098.217,358.859z"/>
			<path fill="#69C4BA" d="M1129.155,358.79c-4.977-13.926-9.788-27.911-14.811-41.82c11.223,0.14,16.892,0.229,27.356,0.339
				C1136.104,330.809,1132.354,344.559,1129.155,358.79z"/>
			<path fill="#81B1CA" d="M1193.006,358.971c-5.529-13.837-11.297-27.567-16.943-41.355c10.521,0.215,16.517,0.408,27.687,0.702
				C1198.915,331.61,1195.761,345.122,1193.006,358.971z"/>
			<path fill="#FCF0CF" d="M1160.062,358.622c-4.356-13.758-8.866-27.47-13.114-41.262c10.169,0.089,13.821,0,23.878,0.159
				C1166.545,331.069,1163.171,344.762,1160.062,358.622z"/>
			<path fill="#DE723A" d="M1224.917,359.482c-5.087-13.71-10.161-27.424-15.54-41.022c10.968,0.271,16.359,0.397,24.683,0.365
				C1230.163,332.228,1227.352,345.749,1224.917,359.482z"/>
			<path fill="#EBDB8A" d="M1395.797,362.841c-4.713-11.731-8.515-23.789-11.882-35.969c8.388,0.536,12.54,0.888,20.573,1.658
				C1401.189,339.862,1398.194,351.283,1395.797,362.841z"/>
			<path fill="#69C4BA" d="M1420.32,363.909c-4.398-11.503-8.619-23.062-11.774-34.979c7.935,0.804,11.793,1.252,19.104,2.141
				C1425.107,342.002,1422.627,352.925,1420.32,363.909z"/>
			<path fill="#81B1CA" d="M1465.422,366.669c-4.096-10.67-8.187-21.301-12-32.077c7.29,1.155,10.773,1.777,17.16,2.812
				C1468.927,347.175,1466.857,356.859,1465.422,366.669z"/>
			<path fill="#FCF0CF" d="M1443.68,365.008c-4.049-11.213-9.098-21.986-12.352-33.486c7.158,0.89,10.915,1.353,18.35,2.487
				C1447.17,344.312,1445.266,354.529,1443.68,365.008z"/>
			<path fill="#DE723A" d="M1484.202,368.561c-3.31-10.281-6.604-20.544-10.431-30.648c6.164,0.966,8.991,1.386,13.866,1.8
				C1486.166,349.296,1484.592,358.853,1484.202,368.561z"/>
			<path fill="#EBDB8A" d="M1251.551,359.487c-4.98-13.425-9.872-26.836-13.531-40.695c7.438-0.052,12.433,0.079,22.738,0.423
				C1256.341,332.379,1253.794,345.819,1251.551,359.487z"/>
			<path fill="#69C4BA" d="M1281.758,360.073c-5.194-13.57-10.597-27.062-15.689-40.67c10.562,0.39,16.312,0.656,26.514,1.102
				C1288.043,333.441,1284.9,346.747,1281.758,360.073z"/>
			<path fill="#81B1CA" d="M1340.562,361.042c-5.144-12.854-10.146-25.744-14.556-38.873c10.114,0.738,15.56,1.247,25.758,2.157
				C1347.479,336.392,1344.089,348.74,1340.562,361.042z"/>
			<path fill="#FCF0CF" d="M1310.912,360.514c-4.193-13.343-8.815-26.522-13.24-39.79c9.8,0.421,13.374,0.446,23.255,1.093
				C1316.526,334.415,1313.733,347.494,1310.912,360.514z"/>
			<path fill="#DE723A" d="M1371.186,362.031c-5.381-12.164-9.942-24.682-14.281-37.247c10,0.888,14.857,1.332,22.83,1.832
				C1376.487,338.324,1373.773,350.164,1371.186,362.031z"/>
		</g>
	</g>
	<line fill="none" stroke="#A6574A" stroke-miterlimit="10" x1="1486.938" y1="339.045" x2="1598.411" y2="470.097"/>
	<line fill="none" stroke="#A6574A" stroke-miterlimit="10" x1="808.359" y1="332.375" x2="618.531" y2="512.178"/>
	<line fill="none" stroke="#A6574A" stroke-miterlimit="10" x1="882.837" y1="322.862" x2="691.219" y2="573.646"/>
	<line fill="none" stroke="#A6574A" stroke-miterlimit="10" x1="1379.547" y1="324.774" x2="1578.846" y2="593.135"/>
</g>
<g>
	<g>
		<g>
			<path fill="#812B24" d="M1437.613,624.021c-0.944,18.067,9.843,33.322,24.096,34.068c14.254,0.746,26.579-13.298,27.523-31.364
				c0.947-18.068-9.841-33.32-24.097-34.07C1450.882,591.91,1438.562,605.952,1437.613,624.021z M1445.061,624.41
				c0.674-12.857,9.442-22.849,19.582-22.317c10.146,0.534,17.816,11.385,17.145,24.243c-0.675,12.857-9.441,22.846-19.581,22.316
				C1452.062,648.123,1444.386,637.27,1445.061,624.41z"/>
			<g>
				<polygon fill="#AC2400" points="1440.588,626.367 1480.219,628.442 1480.429,624.377 1440.798,622.302 				"/>
				<polygon fill="#AC2400" points="1443.112,613.631 1476.118,640.545 1477.906,637.113 1444.896,610.195 				"/>
				<polygon fill="#AC2400" points="1450.298,604.041 1467.836,648.586 1470.719,646.699 1453.18,602.154 				"/>
				
					<rect x="1435.363" y="623.827" transform="matrix(-0.0523 0.9986 -0.9986 -0.0523 2161.4751 -800.3727)" fill="#AC2400" width="50.301" height="3.206"/>
				<polygon fill="#AC2400" points="1470.221,603.047 1448.129,645.516 1450.796,647.693 1472.891,605.226 				"/>
				<polygon fill="#AC2400" points="1477.617,611.91 1441.979,635.229 1443.396,638.834 1479.036,615.512 				"/>
				<path fill="#933324" d="M1434.697,624.019c-0.947,18.068,9.844,33.324,24.096,34.069c14.254,0.746,26.578-13.298,27.521-31.364
					c0.948-18.068-9.841-33.32-24.097-34.07C1447.965,591.908,1435.645,605.951,1434.697,624.019z M1442.145,624.409
					c0.675-12.858,9.443-22.85,19.584-22.319c10.142,0.535,17.817,11.386,17.144,24.244c-0.673,12.857-9.441,22.846-19.586,22.316
					C1449.146,648.121,1441.473,637.268,1442.145,624.409z"/>
				<path fill="#971B00" d="M1456.453,625.159c-0.152,2.839,1.546,5.233,3.785,5.353c2.238,0.119,4.174-2.09,4.327-4.93
					c0.146-2.836-1.553-5.234-3.788-5.354C1458.535,620.111,1456.6,622.32,1456.453,625.159"/>
				<path fill="#971B00" d="M1454.417,625.159c-0.15,2.839,1.546,5.233,3.786,5.353c2.234,0.119,4.174-2.09,4.326-4.93
					c0.146-2.836-1.553-5.234-3.789-5.354C1456.502,620.111,1454.566,622.32,1454.417,625.159"/>
			</g>
		</g>
		<g>
			<path fill="#812B24" d="M1542.533,610.131c-0.846,16.152,8.794,29.78,21.529,30.447c12.738,0.668,23.753-11.881,24.597-28.029
				c0.846-16.146-8.798-29.776-21.533-30.445C1554.389,581.438,1543.378,593.989,1542.533,610.131z M1549.182,610.482
				c0.604-11.489,8.439-20.42,17.502-19.944c9.066,0.477,15.922,10.177,15.32,21.662s-8.438,20.419-17.497,19.942
				C1555.443,631.671,1548.584,621.972,1549.182,610.482z"/>
			<g>
				
					<rect x="1545.875" y="609.574" transform="matrix(0.9986 0.0522 -0.0522 0.9986 34.0415 -80.776)" fill="#AC2400" width="35.457" height="3.636"/>
				<polygon fill="#AC2400" points="1548.014,600.85 1577.508,624.902 1579.105,621.832 1549.611,597.781 				"/>
				<polygon fill="#AC2400" points="1554.438,592.281 1570.105,632.088 1572.688,630.399 1557.014,590.596 				"/>
				
					<rect x="1541.083" y="609.965" transform="matrix(-0.0523 0.9986 -0.9986 -0.0523 2255.9111 -918.0389)" fill="#AC2400" width="44.954" height="2.866"/>
				<polygon fill="#AC2400" points="1572.238,591.394 1552.498,629.343 1554.879,631.287 1574.627,593.339 				"/>
				<polygon fill="#AC2400" points="1578.846,599.312 1547.004,620.15 1548.273,623.369 1580.117,602.533 				"/>
				<path fill="#933324" d="M1540.498,610.131c-0.848,16.152,8.795,29.78,21.532,30.447c12.734,0.668,23.746-11.881,24.593-28.029
					c0.847-16.146-8.795-29.776-21.533-30.445C1552.354,581.438,1541.344,593.989,1540.498,610.131z M1547.148,610.482
					c0.602-11.489,8.438-20.42,17.5-19.944c9.062,0.477,15.924,10.177,15.32,21.662s-8.437,20.419-17.502,19.942
					C1553.408,631.671,1546.546,621.972,1547.148,610.482z"/>
				<path fill="#971B00" d="M1559.936,611.152c-0.135,2.538,1.385,4.682,3.386,4.783c1.997,0.104,3.729-1.868,3.862-4.404
					c0.134-2.538-1.387-4.679-3.386-4.783C1561.802,606.644,1560.069,608.616,1559.936,611.152"/>
				<path fill="#971B00" d="M1557.901,611.152c-0.137,2.538,1.384,4.682,3.382,4.783c2.001,0.104,3.731-1.868,3.867-4.404
					c0.134-2.538-1.388-4.679-3.387-4.783S1558.034,608.616,1557.901,611.152"/>
			</g>
		</g>
		<g>
			<path fill="#812B24" d="M1245.003,596.746c-0.815,15.581,8.486,28.729,20.775,29.375c12.295,0.646,22.916-11.465,23.733-27.043
				c0.815-15.578-8.484-28.73-20.778-29.373C1256.444,569.06,1245.821,581.168,1245.003,596.746z M1251.425,597.082
				c0.58-11.084,8.14-19.699,16.886-19.24c8.745,0.457,15.359,9.814,14.78,20.899c-0.581,11.089-8.135,19.701-16.885,19.241
				C1257.463,617.526,1250.847,608.168,1251.425,597.082z"/>
			<g>
				
					<rect x="1248.729" y="596.155" transform="matrix(0.9986 0.0523 -0.0523 0.9986 33.0118 -65.4013)" fill="#AC2400" width="34.218" height="3.509"/>
				<polygon fill="#AC2400" points="1250.789,587.788 1279.247,610.998 1280.789,608.031 1252.332,584.828 				"/>
				<polygon fill="#AC2400" points="1256.987,579.52 1272.109,617.926 1274.592,616.303 1259.472,577.896 				"/>
				
					<rect x="1244.138" y="596.595" transform="matrix(-0.0523 0.9986 -0.9986 -0.0523 1929.1904 -634.8392)" fill="#AC2400" width="43.375" height="2.767"/>
				<polygon fill="#AC2400" points="1274.162,578.666 1255.113,615.279 1257.416,617.156 1276.466,580.543 				"/>
				<polygon fill="#AC2400" points="1280.539,586.305 1249.817,606.41 1251.038,609.518 1281.765,589.409 				"/>
				<path fill="#933324" d="M1243.536,596.746c-0.815,15.581,8.483,28.729,20.774,29.373c12.293,0.646,22.918-11.465,23.733-27.041
					c0.813-15.58-8.487-28.731-20.779-29.374C1254.979,569.059,1244.352,581.166,1243.536,596.746z M1249.958,597.082
					c0.58-11.085,8.139-19.699,16.882-19.241c8.747,0.457,15.365,9.813,14.781,20.899c-0.58,11.088-8.136,19.702-16.885,19.239
					C1255.995,617.525,1249.377,608.166,1249.958,597.082z"/>
				<path fill="#971B00" d="M1262.295,597.729c-0.127,2.448,1.333,4.516,3.266,4.616c1.928,0.102,3.596-1.801,3.728-4.252
					c0.129-2.445-1.332-4.515-3.264-4.614C1264.092,593.379,1262.422,595.279,1262.295,597.729z"/>
				<path fill="#971B00" d="M1260.26,597.729c-0.129,2.448,1.332,4.516,3.264,4.616c1.931,0.102,3.6-1.801,3.728-4.252
					c0.13-2.445-1.329-4.515-3.262-4.614C1262.056,593.379,1260.387,595.279,1260.26,597.729z"/>
			</g>
		</g>
		<path fill="#AC2400" d="M1575.09,391.367l3.127,0.016C1577.164,391.318,1576.122,391.323,1575.09,391.367z"/>
		<g>
			<polygon fill="#FCF1D2" points="1518.331,616.479 1523.926,424.953 1223.265,417.398 1219.162,579.473 			"/>
		</g>
		<polygon fill="#8F2C1C" points="1337.872,595.127 1389.646,601.531 1389.646,511.893 1337.872,507.555 		"/>
		<polygon fill="#7A574A" points="1518.331,616.479 1219.162,579.473 1219.162,586.939 1518.326,625.944 1518.326,625.944 		"/>
		<polygon fill="#9A4133" points="1340.895,590.598 1386.625,596.253 1386.625,516.043 1340.895,511.893 		"/>
		<path fill="#CAC8BE" d="M1600,412.223c-6.439-8.102-15.341-15.239-27.141-16.558c-30.9-3.451-48.939,29.288-48.939,29.288
			l-5.594,191.523l81.674-13.94V412.223z"/>
		<path fill="#B43A19" d="M1600,402.509c-6.463-6.08-13.886-10.677-21.783-11.126l-3.129-0.016c0,0,0,0,0.002,0l-308.813-0.716
			c-33.435,0.117-51.543,29.149-51.543,29.149l313.065,10.936c0,0,44.169,3.932,72.201,6.324V402.509L1600,402.509z"/>
		<path fill="#AC2400" d="M1600,406.576c-6.386-6.028-13.793-10.612-21.783-11.065l-307.562-0.688
			c-33.437,0.115-53.476,29.104-53.476,29.104L1600,438.021V406.576z"/>
		<path fill="#7A574A" d="M1600,412.223c-6.439-8.102-15.341-15.239-27.141-16.558c-30.9-3.451-48.939,46.321-48.939,46.321
			l76.08,1.26V412.223z"/>
		<path fill="#6F4435" d="M1600,438.618c-25.355-0.429-76.766-1.299-76.768-1.296l-0.021,10.97l76.787-1.583L1600,438.618
			L1600,438.618z"/>
		<polygon fill="#7A574A" points="1523.232,437.322 1223.021,424.174 1222.864,431.63 1523.213,448.292 		"/>
		<path fill="#B43A19" d="M1531.299,437.852c0,0,19.434-44.274,48.381-42.44l-310.651-3.384
			c-25.075,0.088-48.635,17.88-54.296,27.773l2.447,4.126L1531.299,437.852z"/>
		<path fill="#AC2400" d="M1527.799,434.863c0,0,21.471-45.313,50.418-43.48l-311.941-0.731
			c-25.074,0.089-45.882,19.256-51.543,29.149L1527.799,434.863z"/>
		<g>
			<path fill="#A1856E" d="M1487.979,488.166l-75.162-5.252l-0.646,44.245l74.77,7.007L1487.979,488.166z"/>
			<path fill="#A1856E" d="M1399.168,453.68l-72-4.357l-1.312,42.994l72.979,5.685L1399.168,453.68z"/>
			<path fill="#A1856E" d="M1319.276,476.539l-71.991-4.578l-0.426,40.941l71.509,6.737L1319.276,476.539z"/>
			<path fill="#A1856E" d="M1308.73,529.203l-72.204-6.603l-0.997,41.941l72.305,8.763L1308.73,529.203z"/>
			<polygon fill="#E2CF73" points="1415.098,524.855 1484.032,531.203 1485.036,491.231 1415.548,485.836 			"/>
			<polygon fill="#C7A53A" points="1448.501,527.917 1446.396,527.725 1447.025,488.28 1449.13,488.443 			"/>
			<polygon fill="#99A031" points="1328.787,489.801 1396.035,494.432 1396.473,456.75 1329.226,452.68 			"/>
			<polygon fill="#B02F0D" points="1249.121,510.823 1315.121,516.904 1316.135,479.606 1249.551,474.696 			"/>
			<polygon fill="#6C94B2" points="1237.88,562.151 1304.504,569.646 1305.513,531.323 1238.886,525.235 			"/>
			<path fill="#A1856E" d="M1499,546.639l-75.163-6.475l-1.499,45.523l75.322,8.547L1499,546.639z"/>
			<polygon fill="#54AC9F" points="1425.633,583.406 1495.12,591.432 1496.412,549.173 1426.923,542.826 			"/>
			<polygon fill="#89912B" points="1362.896,492.15 1360.923,492.014 1360.923,454.599 1362.896,454.719 			"/>
			<polygon fill="#971B00" points="1282.169,514.057 1280.234,513.879 1280.642,476.988 1282.576,477.133 			"/>
			<polygon fill="#577A9D" points="1270.094,565.722 1268.159,565.557 1269.126,527.873 1271.061,528.051 			"/>
			<polygon fill="#3F9583" points="1460.506,587.418 1458.325,587.166 1458.908,545.748 1461.089,545.934 			"/>
		</g>
	</g>
</g>
<path fill="#A0C4D7" d="M1600,0C1444.983,0,132.363,0,0,0v27.764c12.992-1.428,30.657-0.239,43.005,1.92
	C61.464,32.912,75.801,39.71,95.07,41.209c22.561,1.757,45.32-4.63,67.843-5.531c32.752-1.309,98.552-0.328,113.799,0.393
	c9.547,0.452,51.883,5.209,61.01,6.653c37.691,5.959,77.932,4.47,115.585,6.519c43.762,2.382,88.519-3.614,132.392-3.668
	c33.625-0.041,56.417,11.31,87.729,10.659c27.478-0.571,83.374,2.63,111.269,4.445c32.091,2.087,71.678-11.03,89.46-11
	c33.685,0.059,60.023,11.727,91.341,12c39.666,0.347,77.194-2.528,115.483-6.445c24.384-2.495,159.278,6.429,193.812-3.206
	c26.771-7.47,55.36-6.344,82.905-6.349c49.052-0.008,85.609,2.898,136.709-6.445c21.043-3.848,41.296-6.341,62.544-9.452
	c9.406-1.374,26.807,0.4,43.047-0.986V0H1600z"/>
<g>
	<path fill="#99A031" d="M254.778,352.525c0.12-0.194,0.248-0.438,0.389-0.742C254.976,352.015,254.86,352.267,254.778,352.525z"/>
	<path fill="#99A031" d="M631.436,355.977c0.007,0.008,0.014,0.014,0.021,0.021c0.008-0.014,0.016-0.025,0.024-0.039
		C631.457,355.784,631.442,355.791,631.436,355.977z"/>
</g>
<path fill="#6F4435" d="M1600,602.536c-23.526,4.015-81.667,13.938-81.669,13.94l-0.005,9.468h0.003L1600,610.217V602.536z"/>
</svg>
