<?xml version="1.0" encoding="utf-8"?>
<!-- Generator: Adobe Illustrator 15.0.2, SVG Export Plug-In . SVG Version: 6.00 Build 0)  -->
<!DOCTYPE svg PUBLIC "-//W3C//DTD SVG 1.1//EN" "http://www.w3.org/Graphics/SVG/1.1/DTD/svg11.dtd">
<svg version="1.1" id="Layer_1" xmlns="http://www.w3.org/2000/svg" xmlns:xlink="http://www.w3.org/1999/xlink" x="0px" y="0px"
	 width="178px" height="178px" viewBox="0 0 178 178" enable-background="new 0 0 178 178" xml:space="preserve">
<g>
	<g>
		<path fill="none" stroke="#560000" stroke-width="1.8" stroke-miterlimit="10" d="M171.279,89
			c0,45.443-36.834,82.281-82.281,82.281C43.561,171.281,6.72,134.443,6.72,89c0-45.442,36.841-82.28,82.278-82.28
			C134.445,6.72,171.279,43.558,171.279,89z"/>
	</g>
	<g>
		<path fill="none" stroke="#560000" stroke-width="2.5" stroke-miterlimit="10" d="M165.066,89
			c0,42.012-34.055,76.066-76.068,76.066c-42.005,0-76.063-34.055-76.063-76.066c0-42.011,34.059-76.065,76.063-76.065
			C131.012,12.935,165.066,46.989,165.066,89z"/>
	</g>
	<g>
		<path fill="none" stroke="#560000" stroke-width="1.2" stroke-miterlimit="10" d="M176.5,89c0,48.326-39.172,87.5-87.502,87.5
			C40.678,176.5,1.5,137.326,1.5,89S40.678,1.5,88.998,1.5C137.328,1.5,176.5,40.674,176.5,89z"/>
	</g>
</g>
</svg>
