<?xml version="1.0" encoding="utf-8"?>
<!-- Generator: Adobe Illustrator 15.0.2, SVG Export Plug-In . SVG Version: 6.00 Build 0)  -->
<!DOCTYPE svg PUBLIC "-//W3C//DTD SVG 1.1//EN" "http://www.w3.org/Graphics/SVG/1.1/DTD/svg11.dtd">
<svg version="1.1" id="Layer_1" xmlns="http://www.w3.org/2000/svg" xmlns:xlink="http://www.w3.org/1999/xlink" x="0px" y="0px"
	 width="178px" height="178px" viewBox="0 0 178 178" enable-background="new 0 0 178 178" xml:space="preserve">
<g>
	<g>
		<path fill="none" stroke="#EEE09C" stroke-width="1.8" stroke-miterlimit="10" d="M171.28,89c0,45.442-36.836,82.28-82.281,82.28
			C43.561,171.28,6.72,134.442,6.72,89c0-45.443,36.841-82.28,82.279-82.28C134.444,6.72,171.28,43.557,171.28,89z"/>
	</g>
	<g>
		<path fill="none" stroke="#EEE09C" stroke-width="2.5" stroke-miterlimit="10" d="M165.065,89
			c0,42.011-34.054,76.065-76.066,76.065c-42.006,0-76.064-34.055-76.064-76.065s34.059-76.065,76.064-76.065
			C131.012,12.935,165.065,46.989,165.065,89z"/>
	</g>
	<g>
		<path fill="none" stroke="#EEE09C" stroke-width="1.2" stroke-miterlimit="10" d="M176.5,89c0,48.325-39.173,87.5-87.501,87.5
			C40.678,176.5,1.5,137.325,1.5,89c0-48.326,39.178-87.5,87.499-87.5C137.327,1.5,176.5,40.674,176.5,89z"/>
	</g>
</g>
</svg>
