<?xml version="1.0" encoding="utf-8"?>
<!-- Generator: Adobe Illustrator 15.0.2, SVG Export Plug-In . SVG Version: 6.00 Build 0)  -->
<!DOCTYPE svg PUBLIC "-//W3C//DTD SVG 1.1//EN" "http://www.w3.org/Graphics/SVG/1.1/DTD/svg11.dtd">
<svg version="1.1" id="Layer_1" xmlns="http://www.w3.org/2000/svg" xmlns:xlink="http://www.w3.org/1999/xlink" x="0px" y="0px"
	 width="420px" height="168px" viewBox="0 0 420 168" enable-background="new 0 0 420 168" xml:space="preserve">
<g>
	<rect fill="#C7C4BA" width="420" height="168"/>
	<rect x="10" y="10" fill="#AAABA8" width="400" height="148"/>
	<g>
		<g>
			<g>
				<g>
					<path fill="#EEE09C" d="M16.117,10c17.831,73.784,76.526,131.439,150.557,148h87.641c74.286-16.59,132.812-74.427,150.604-148
						H16.117z"/>
					<g>
						<path fill="#8A4E4B" d="M233.396,26.954c-0.293-1.367-3.105-1.925-6.283-1.243c-3.188,0.682-5.532,2.347-5.229,3.709
							c0.293,1.375,3.1,1.934,6.287,1.254C231.352,29.989,233.689,28.316,233.396,26.954z"/>
						<path fill="#8A4E4B" d="M189.113,26.954c0.292-1.367,3.094-1.925,6.282-1.243c3.184,0.682,5.533,2.347,5.229,3.709
							c-0.291,1.375-3.106,1.934-6.294,1.254C191.16,29.989,188.82,28.316,189.113,26.954z"/>
					</g>
					<g>
						<path fill="#C29A5B" d="M140.124,83.396c0-20.926,32.225-20.09,71.506-20.09c39.286,0,70.761-1.673,70.761,20.09
							c0,45.399-31.845,13.301-71.136,13.311C171.964,96.707,140.124,126.107,140.124,83.396z"/>
						<path fill="#FFFFFF" d="M258.197,66.969c0,0-46.942-3.662-93.885,0c0,0-0.227,15.136,44.813,15.533
							C254.171,82.893,258.197,66.969,258.197,66.969z"/>
						<path fill="#FFFFFF" d="M172.862,101.975c0,0,33.698-15.158,76.785,0c0,0-2.014-16.539-38.287-16.539
							C176.079,85.436,172.862,101.975,172.862,101.975z"/>
					</g>
				</g>
			</g>
		</g>
	</g>
</g>
</svg>
