<?xml version="1.0" encoding="utf-8"?>
<!-- Generator: Adobe Illustrator 15.0.2, SVG Export Plug-In . SVG Version: 6.00 Build 0)  -->
<!DOCTYPE svg PUBLIC "-//W3C//DTD SVG 1.1//EN" "http://www.w3.org/Graphics/SVG/1.1/DTD/svg11.dtd">
<svg version="1.1" id="Layer_1" xmlns="http://www.w3.org/2000/svg" xmlns:xlink="http://www.w3.org/1999/xlink" x="0px" y="0px"
	 width="420px" height="168px" viewBox="0 0 420 168" enable-background="new 0 0 420 168" xml:space="preserve">
<rect fill="#C7C4BA" width="420" height="168"/>
<rect x="10" y="10" fill="#AAABA8" width="400" height="148"/>
<g>
	<path fill="#EEE09C" d="M17.5,126.831c0,10.614,0.873,21.022,2.525,31.169h379.95c1.652-10.146,2.525-20.555,2.525-31.169
		c0-43.94-14.731-84.432-39.511-116.831H57.009C32.23,42.399,17.5,82.891,17.5,126.831z"/>
	<g>
		<g>
			<path fill="#FFFFFF" d="M166.013,112.936c0,20.435-14.494,36.991-32.384,36.991c-17.888,0-32.403-16.557-32.403-36.991
				c0-20.425,14.515-36.994,32.403-36.994C151.52,75.941,166.013,92.511,166.013,112.936z"/>
			<path fill="#560000" d="M156.667,109.162c0,11.859-9.632,21.497-21.497,21.497c-11.867,0-21.489-9.638-21.489-21.497
				c0-11.875,9.622-21.497,21.489-21.497C147.035,87.665,156.667,97.287,156.667,109.162z"/>
			<path fill="#FFFFFF" d="M143.789,102.71c0,4.75-3.855,8.597-8.597,8.597c-4.75,0-8.605-3.847-8.605-8.597
				c0-4.745,3.855-8.595,8.605-8.595C139.933,94.115,143.789,97.965,143.789,102.71z"/>
		</g>
		<g>
			<path fill="#FFFFFF" d="M254.003,111.013c0,20.431,14.498,36.989,32.39,36.989c17.898,0,32.381-16.559,32.381-36.989
				c0-20.43-14.482-36.996-32.381-36.996C268.501,74.017,254.003,90.583,254.003,111.013z"/>
			<path fill="#560000" d="M264.456,109.162c0,11.859,9.621,21.497,21.491,21.497c11.872,0,21.494-9.638,21.494-21.497
				c0-11.875-9.622-21.497-21.494-21.497C274.077,87.665,264.456,97.287,264.456,109.162z"/>
			<path fill="#FFFFFF" d="M277.34,102.71c0,4.75,3.844,8.597,8.581,8.597c4.755,0,8.61-3.847,8.61-8.597
				c0-4.745-3.855-8.595-8.61-8.595C281.184,94.115,277.34,97.965,277.34,102.71z"/>
		</g>
	</g>
	<g>
		<g>
			<path fill="#713710" d="M290.205,26.72c21.414,0,33.875,9.272,43.753,17.598c-7.458-12.815-19.808-25.633-44.013-25.633
				c-18.124,0-30.679,8.894-38.521,22.132C261.75,33.753,272.717,26.72,290.205,26.72z"/>
		</g>
		<g>
			<path fill="#713710" d="M129.8,26.72c-21.42,0-33.88,9.272-43.753,17.598c7.453-12.815,19.808-25.633,44.013-25.633
				c18.124,0,30.679,8.894,38.521,22.132C158.255,33.753,147.289,26.72,129.8,26.72z"/>
		</g>
	</g>
</g>
</svg>
