<?xml version="1.0" encoding="utf-8"?>
<!-- Generator: Adobe Illustrator 15.0.2, SVG Export Plug-In . SVG Version: 6.00 Build 0)  -->
<!DOCTYPE svg PUBLIC "-//W3C//DTD SVG 1.1//EN" "http://www.w3.org/Graphics/SVG/1.1/DTD/svg11.dtd">
<svg version="1.1" id="Layer_1" xmlns="http://www.w3.org/2000/svg" xmlns:xlink="http://www.w3.org/1999/xlink" x="0px" y="0px"
	 width="420px" height="168px" viewBox="0 0 420 168" enable-background="new 0 0 420 168" xml:space="preserve">
<rect fill="#C7C4BA" width="420" height="168"/>
<rect x="10" y="10" fill="#AAABA8" width="400" height="148"/>
<g>
	<path fill="#EEE09C" d="M15.239,10c14.602,69.704,65.672,125.992,132.34,148h124.838c66.669-22.008,117.741-78.296,132.343-148
		H15.239z"/>
	<path fill="#C29A5B" d="M252.149,94.174c0,2.554-18.865,7.421-42.152,7.421c-23.276,0-42.151-4.867-42.151-7.421
		c0-2.556,18.875-0.681,42.151-0.681C233.284,93.493,252.149,91.618,252.149,94.174z"/>
	<g>
		<path fill="#8F4E4B" d="M232.569,34.729c-0.289-1.355-3.088-1.913-6.256-1.234c-3.174,0.679-5.494,2.332-5.195,3.7
			c0.283,1.355,3.082,1.925,6.262,1.234C230.536,37.76,232.862,36.098,232.569,34.729z"/>
		<path fill="#8F4E4B" d="M188.504,34.729c0.297-1.355,3.086-1.913,6.256-1.234s5.502,2.332,5.207,3.7
			c-0.293,1.355-3.094,1.925-6.264,1.234C190.545,37.76,188.219,36.098,188.504,34.729z"/>
	</g>
</g>
</svg>
