<?xml version="1.0" encoding="utf-8"?>
<!-- Generator: Adobe Illustrator 15.0.2, SVG Export Plug-In . SVG Version: 6.00 Build 0)  -->
<!DOCTYPE svg PUBLIC "-//W3C//DTD SVG 1.1//EN" "http://www.w3.org/Graphics/SVG/1.1/DTD/svg11.dtd">
<svg version="1.1" id="Layer_1" xmlns="http://www.w3.org/2000/svg" xmlns:xlink="http://www.w3.org/1999/xlink" x="0px" y="0px"
	 width="420px" height="168px" viewBox="0 0 420 168" enable-background="new 0 0 420 168" xml:space="preserve">
<g>
	<rect fill="#C7C4BA" width="420" height="168"/>
	<rect x="10" y="10" fill="#AAABA8" width="400" height="148"/>
	<g>
		<g>
			<g>
				<g>
					<path fill="#EEE09C" d="M20.527,10C43.948,79.124,106.62,150.348,210,150.348c89.678,0,165.57-59.024,190.949-140.348H20.527z"
						/>
					<g>
						<path fill="#8A4E4B" d="M234.508,22.198c-0.29-1.361-3.099-1.92-6.283-1.24c-3.184,0.682-5.533,2.346-5.229,3.711
							c0.295,1.372,3.103,1.931,6.294,1.254C232.462,25.238,234.801,23.565,234.508,22.198z"/>
						<path fill="#8A4E4B" d="M190.222,22.198c0.292-1.361,3.108-1.92,6.294-1.24c3.18,0.682,5.521,2.346,5.221,3.711
							c-0.283,1.372-3.103,1.931-6.293,1.254C192.269,25.238,189.931,23.565,190.222,22.198z"/>
					</g>
					<path fill="#C29A5B" d="M212.359,79.358c31.502,0,60.968,8.835,86.164,24.176c-22.754-24.792-52.974-39.91-86.164-39.91
						c-33.179,0-63.412,15.118-86.155,39.91C151.404,88.193,180.861,79.358,212.359,79.358z"/>
				</g>
			</g>
		</g>
	</g>
</g>
</svg>
