<?xml version="1.0" encoding="utf-8"?>
<!-- Generator: Adobe Illustrator 15.0.2, SVG Export Plug-In . SVG Version: 6.00 Build 0)  -->
<!DOCTYPE svg PUBLIC "-//W3C//DTD SVG 1.1//EN" "http://www.w3.org/Graphics/SVG/1.1/DTD/svg11.dtd">
<svg version="1.1" id="Layer_1" xmlns="http://www.w3.org/2000/svg" xmlns:xlink="http://www.w3.org/1999/xlink" x="0px" y="0px"
	 width="420px" height="168px" viewBox="0 0 420 168" enable-background="new 0 0 420 168" xml:space="preserve">
<g>
	<rect fill="#C7C4BA" width="420" height="168"/>
	<rect x="10" y="10" fill="#AAABA8" width="400" height="148"/>
	<g>
		<g>
			<g>
				<g>
					<path fill="#EEE09C" d="M15.24,10c16.878,72.286,72.955,129.497,144.601,148h100.318c71.646-18.503,127.722-75.714,144.601-148
						H15.24z"/>
					<path fill="#C29A5B" d="M273.59,105.205c0,9.145-32.529-16.321-63.042-16.321c-34.823,0-63.056,26.439-63.056,16.321
						c0-9.857,28.232-18.014,63.056-18.014C245.38,87.191,273.59,95.9,273.59,105.205z"/>
					<g>
						<path fill="#8A4E4B" d="M200.339,47.803c-0.748,1.763-4.109,2.021-7.51,0.577c-3.405-1.447-5.554-4.052-4.797-5.814
							c0.742-1.771,4.109-2.039,7.523-0.584C198.95,43.426,201.099,46.03,200.339,47.803z"/>
						<path fill="#8A4E4B" d="M220.745,47.803c0.746,1.763,4.11,2.021,7.51,0.577c3.403-1.447,5.558-4.052,4.79-5.814
							c-0.74-1.771-4.107-2.039-7.516-0.584C222.135,43.426,219.988,46.03,220.745,47.803z"/>
					</g>
				</g>
			</g>
		</g>
	</g>
</g>
</svg>
