<?xml version="1.0" encoding="utf-8"?>
<!-- Generator: Adobe Illustrator 15.0.2, SVG Export Plug-In . SVG Version: 6.00 Build 0)  -->
<!DOCTYPE svg PUBLIC "-//W3C//DTD SVG 1.1//EN" "http://www.w3.org/Graphics/SVG/1.1/DTD/svg11.dtd">
<svg version="1.1" id="Layer_1" xmlns="http://www.w3.org/2000/svg" xmlns:xlink="http://www.w3.org/1999/xlink" x="0px" y="0px"
	 width="420px" height="168px" viewBox="0 0 420 168" enable-background="new 0 0 420 168" xml:space="preserve">
<g>
	<rect fill="#C7C4BA" width="420" height="168"/>
	<rect x="10" y="10" fill="#AAABA8" width="400" height="148"/>
	<g>
		<g>
			<g>
				<g>
					<g>
						<path fill="#EEE09C" d="M11.073,158h397.854c-1.571-59.539-29.291-112.559-72.099-148H83.174
							C40.367,45.441,12.645,98.461,11.073,158z"/>
						<g>
							<path fill="#713710" d="M322.444,53.746c-15.345-5.345-30.53-8.248-44.585-8.954c12.423-3.677,29.371-2.944,46.638,3.069
								c17.258,6.006,31.002,15.945,38.451,26.555C351.498,66.236,337.778,59.081,322.444,53.746z"/>
							<path fill="#713710" d="M98.647,53.746c15.34-5.345,30.53-8.248,44.581-8.954c-12.426-3.677-29.37-2.944-46.636,3.069
								c-17.261,6.006-31,15.945-38.451,26.555C69.591,66.236,83.301,59.081,98.647,53.746z"/>
						</g>
						<g>
							<g>
								<g>
									<g>
										<g>
											<path fill="#FFFFFF" d="M129.994,102.082c0,3.641-2.96,6.588-6.604,6.588c-3.651,0-6.607-2.947-6.607-6.588
												c0-3.66,2.956-6.615,6.607-6.615C127.034,95.467,129.994,98.422,129.994,102.082z"/>
										</g>
										<g>
											<path fill="#FFFFFF" d="M96.275,130.532c7.481-2.938,17.372-4.743,28.265-4.743c9.695,0,18.6,1.434,25.722,3.82
												c6.942-3.488,12.205-8.229,14.846-13.69c-8.996-13.46-24.29-22.323-41.69-22.323c-18.201,0-34.07,9.707-42.863,24.209
												C83.706,122.949,89.229,127.363,96.275,130.532z"/>
											<path fill="#5C1812" d="M141.182,96.874c-5.524-2.099-11.5-3.278-17.764-3.278c-1.353,0-2.689,0.064-4.012,0.166
												c-8.116,3.258-13.855,11.188-13.855,20.463c0,4.758,1.523,9.157,4.089,12.76c4.638-0.762,9.646-1.194,14.9-1.194
												c7.334,0,14.23,0.812,20.238,2.247c3.042-3.78,4.873-8.579,4.873-13.812C149.651,107.175,146.331,100.912,141.182,96.874
												z"/>
											<path fill="#FFFFFF" d="M120.283,102.082c0,3.641,2.947,6.588,6.592,6.588c3.653,0,6.609-2.947,6.609-6.588
												c0-3.66-2.956-6.615-6.609-6.615C123.23,95.467,120.283,98.422,120.283,102.082z"/>
										</g>
									</g>
									<path fill="#713710" d="M81.013,119.549l-2.693-2.46c14.163-15.526,29.583-23.455,45.829-23.569c0.114,0,0.235,0,0.35,0
										c25.273,0,43.179,18.791,43.936,19.592l-2.659,2.498c-0.175-0.188-17.621-18.441-41.286-18.441c-0.117,0-0.232,0-0.349,0
										C108.965,97.282,94.455,104.812,81.013,119.549z"/>
									<path fill="#713710" d="M94.821,132.895l-1.093-2.51c29.013-12.634,56.849-1.132,57.126-1.016l-1.065,2.516
										C149.521,131.775,122.728,120.736,94.821,132.895z"/>
								</g>
								<g>
									<g>
										<path fill="#B68D26" d="M74.511,119.75c-0.517-0.007-1.019-0.04-1.541-0.04c-16.589,0-30.381,7.024-33.297,16.3
											C48.076,126.271,60.533,120.023,74.511,119.75z"/>
										<path fill="#B68D26" d="M72.569,117.089c-0.521,0.021-1.024,0.039-1.548,0.039c-16.742,0-30.646-5.403-33.595-12.532
											C45.904,112.09,58.473,116.887,72.569,117.089z"/>
									</g>
								</g>
							</g>
							<g>
								<g>
									<path fill="#FFFFFF" d="M301.707,93.596c-17.383,0-32.664,8.842-41.662,22.269c2.639,5.475,7.831,10.254,14.794,13.751
										c7.125-2.391,16.038-3.825,25.744-3.825c10.885,0,20.772,1.806,28.252,4.741c7.052-3.161,12.58-7.568,15.747-12.702
										C335.787,103.314,319.912,93.596,301.707,93.596z"/>
									<path fill="#5C1812" d="M305.708,93.762c-1.32-0.102-2.654-0.166-4.001-0.166c-6.271,0-12.253,1.18-17.78,3.285
										c-5.146,4.038-8.463,10.299-8.463,17.344c0,5.232,1.83,10.031,4.871,13.812c6.013-1.432,12.908-2.247,20.248-2.247
										c5.25,0,10.254,0.435,14.891,1.19c2.563-3.603,4.088-7.998,4.088-12.756C319.562,104.945,313.821,97.02,305.708,93.762z"/>
									<path fill="#FFFFFF" d="M303.888,102.082c0,3.641-2.956,6.588-6.601,6.588c-3.652,0-6.612-2.947-6.612-6.588
										c0-3.66,2.96-6.615,6.612-6.615C300.932,95.467,303.888,98.422,303.888,102.082z"/>
								</g>
								<path fill="#713710" d="M343.828,119.549c-13.44-14.732-27.95-22.265-43.129-22.382
									c-23.788-0.286-41.475,18.255-41.648,18.44l-2.658-2.496c0.752-0.801,18.67-19.592,43.943-19.592c0.12,0,0.234,0,0.354,0
									c16.247,0.115,31.668,8.047,45.829,23.568L343.828,119.549z"/>
								<path fill="#713710" d="M329.172,132.895c-27.951-12.172-54.699-1.119-54.967-1.01l-1.066-2.516
									c0.277-0.116,28.108-11.624,57.125,1.016L329.172,132.895z"/>
								<g>
									<path fill="#B68D26" d="M348.08,119.75c0.511-0.007,1.01-0.04,1.536-0.04c16.587,0,30.38,7.024,33.297,16.3
										C374.507,126.271,362.051,120.023,348.08,119.75z"/>
									<path fill="#B68D26" d="M348.507,117.089c0.527,0.021,1.029,0.039,1.553,0.039c16.74,0,30.646-5.403,33.597-12.532
										C375.188,112.09,362.611,116.887,348.507,117.089z"/>
								</g>
							</g>
						</g>
						<path fill="none" stroke="#713710" stroke-width="1.0635" stroke-miterlimit="10" d="M210.541,118.971"/>
						<path fill="none" stroke="#713710" stroke-width="1.0635" stroke-miterlimit="10" d="M210.541,115.932"/>
					</g>
				</g>
			</g>
		</g>
	</g>
</g>
</svg>
