<?xml version="1.0" encoding="utf-8"?>
<!-- Generator: Adobe Illustrator 15.0.2, SVG Export Plug-In . SVG Version: 6.00 Build 0)  -->
<!DOCTYPE svg PUBLIC "-//W3C//DTD SVG 1.1//EN" "http://www.w3.org/Graphics/SVG/1.1/DTD/svg11.dtd">
<svg version="1.1" id="Layer_1" xmlns="http://www.w3.org/2000/svg" xmlns:xlink="http://www.w3.org/1999/xlink" x="0px" y="0px"
	 width="420px" height="168px" viewBox="0 0 420 168" enable-background="new 0 0 420 168" xml:space="preserve">
<rect fill="#C7C4BA" width="420" height="168"/>
<rect x="10" y="10" fill="#AAABA8" width="400" height="148"/>
<g>
	<path fill="#EEE09C" d="M11.52,110.596c0,16.338,1.983,32.21,5.697,47.404h386.606c3.713-15.194,5.696-31.066,5.696-47.404
		c0-36.702-9.949-71.077-27.28-100.596H38.8C21.469,39.519,11.52,73.894,11.52,110.596z"/>
	<g>
		<path fill="#713710" d="M116.325,47.064c13.729-0.345,26.733,1.089,38.237,3.893c-9.054-5.692-22.898-9.156-38.369-8.766
			c-15.47,0.393-29.117,4.54-37.876,10.691C89.665,49.497,102.573,47.414,116.325,47.064z"/>
		<path fill="#713710" d="M305.816,47.204c-13.752-0.346-26.748,1.088-38.264,3.89c9.062-5.692,22.916-9.153,38.379-8.766
			c15.469,0.393,29.119,4.541,37.875,10.695C332.467,49.633,319.549,47.552,305.816,47.204z"/>
	</g>
	<g>
		<g>
			<path fill="#FFFFFF" d="M343.322,102.662c0,11.832-18.787,21.398-41.955,21.398c-23.166,0-41.953-9.566-41.953-21.398
				c0-11.814,18.787-21.387,41.953-21.387C324.535,81.275,343.322,90.848,343.322,102.662z"/>
			<path fill="#560000" d="M323.283,101.969c0,11.416-9.26,20.682-20.686,20.682c-11.404,0-20.664-9.266-20.664-20.682
				c0-11.425,9.26-20.693,20.664-20.693C314.023,81.275,323.283,90.544,323.283,101.969z"/>
			<path fill="#FFFFFF" d="M308.58,95.996c0,3.404-2.77,6.191-6.191,6.191c-3.424,0-6.197-2.787-6.197-6.191
				c0-3.432,2.773-6.197,6.197-6.197C305.811,89.799,308.58,92.564,308.58,95.996z"/>
		</g>
		<g>
			<path fill="#FFFFFF" d="M78.804,102.496c0,11.721,18.782,21.222,41.96,21.222c23.15,0,41.949-9.501,41.949-21.222
				c0-11.725-18.799-21.221-41.949-21.221C97.586,81.275,78.804,90.771,78.804,102.496z"/>
			<path fill="#560000" d="M98.827,101.969c0,11.416,9.265,20.682,20.679,20.682c11.425,0,20.687-9.266,20.687-20.682
				c0-11.425-9.262-20.693-20.687-20.693C108.091,81.275,98.827,90.544,98.827,101.969z"/>
			<path fill="#FFFFFF" d="M113.53,95.996c0,3.404,2.773,6.191,6.191,6.191c3.424,0,6.194-2.787,6.194-6.191
				c0-3.432-2.771-6.205-6.194-6.205C116.303,89.791,113.53,92.564,113.53,95.996z"/>
		</g>
	</g>
</g>
</svg>
