<?xml version="1.0" encoding="utf-8"?>
<!-- Generator: Adobe Illustrator 15.0.2, SVG Export Plug-In . SVG Version: 6.00 Build 0)  -->
<!DOCTYPE svg PUBLIC "-//W3C//DTD SVG 1.1//EN" "http://www.w3.org/Graphics/SVG/1.1/DTD/svg11.dtd">
<svg version="1.1" id="Layer_1" xmlns="http://www.w3.org/2000/svg" xmlns:xlink="http://www.w3.org/1999/xlink" x="0px" y="0px"
	 width="420px" height="168px" viewBox="0 0 420 168" enable-background="new 0 0 420 168" xml:space="preserve">
<g>
	<rect fill="#C7C4BA" width="420" height="168"/>
	<rect x="10" y="10" fill="#AAABA8" width="400" height="148"/>
	<g>
		<g>
			<g>
				<g>
					<path fill="#EEE09C" d="M11,104.344c0,18.593,2.558,36.586,7.326,53.656h383.348c4.769-17.07,7.326-35.063,7.326-53.656
						c0-34.139-8.602-66.267-23.747-94.344H34.748C19.602,38.077,11,70.205,11,104.344z"/>
					<g>
						<g>
							<g>
								<g>
									<path fill="#FFFFFF" d="M128.302,126.304c14.537,2.049,29.361,0.816,40.74-1.099c3.095-2.862,4.565-5.1,6.513-8.779
										c-9.386-10.769-24.902-21.926-41.753-29.856c-11.609-5.464-23.614-8.596-34.404-10.702
										c-3.829,4.815-6.43,10.521-7.334,16.841c-1.263,8.844,0.987,17.475,5.784,24.779
										C100.587,118.632,117.545,124.795,128.302,126.304z"/>
									<path fill="#560000" d="M157.508,106.72c-1.505,10.542-9.06,18.746-18.651,21.588c-3.523,1.043-20.567-1.933-24.167-4.884
										c-6.902-5.658-10.763-14.682-9.408-24.155c1.202-8.422,6.249-15.334,13.11-19.224c6.263,2.494,32.272,16.12,39.339,21.334
										C157.835,103.129,157.766,104.916,157.508,106.72z"/>
									<path fill="#FFFFFF" d="M138.085,103.884c-0.536,3.684-3.941,6.246-7.642,5.721c-3.676-0.533-6.246-3.952-5.72-7.637
										c0.522-3.692,3.953-6.26,7.642-5.734C136.048,96.756,138.602,100.183,138.085,103.884z"/>
								</g>
								<path fill="none" stroke="#713710" stroke-width="1.6389" stroke-miterlimit="10" d="M177.248,117.258"/>
								<path fill="none" stroke="#713710" stroke-width="1.6389" stroke-miterlimit="10" d="M94.696,69.561"/>
								<path fill="none" stroke="#713710" stroke-width="1.2291" stroke-miterlimit="10" d="M170.482,126.692"/>
								<path fill="none" stroke="#713710" stroke-width="1.2291" stroke-miterlimit="10" d="M100.587,116.721"/>
							</g>
							<g>
								<path fill="#713710" d="M178.5,122.737c-0.425,0-0.846-0.18-1.142-0.529c-33.682-39.906-83.779-47.613-84.281-47.686
									c-0.815-0.119-1.381-0.877-1.262-1.693s0.884-1.381,1.692-1.261c0.514,0.074,51.729,7.953,86.132,48.714
									c0.532,0.631,0.452,1.572-0.178,2.104C179.182,122.622,178.84,122.737,178.5,122.737z"/>
								<path fill="#713710" d="M144.161,129.02c-26.602,0-45.655-10.477-45.921-10.625c-0.718-0.404-0.973-1.313-0.569-2.032
									c0.404-0.719,1.313-0.977,2.032-0.57c0.36,0.201,36.424,19.978,78.266,4.058c0.77-0.289,1.632,0.096,1.925,0.865
									c0.293,0.771-0.094,1.632-0.864,1.926C166.681,127.339,154.813,129.02,144.161,129.02z"/>
							</g>
						</g>
						<g>
							<g>
								<g>
									<path fill="#FFFFFF" d="M252.639,125.467c11.379,1.915,25.597,2.886,40.132,0.837c10.754-1.509,30.059-8.226,30.369-8.694
										c4.852-7.331,7.135-16.007,5.866-24.901c-0.944-6.625-3.742-12.583-7.879-17.539c-11.432,1.533-20.291,4.879-33.862,11.4
										c-17.307,8.315-32.359,19.089-41.745,29.857C247.467,120.106,249.543,122.605,252.639,125.467z"/>
									<path fill="#560000" d="M263.565,106.72c1.502,10.542,9.057,18.747,18.648,21.589c3.523,1.042,20.086-1.716,23.575-4.411
										c7.275-5.62,11.4-14.887,10.01-24.629c-1.202-8.42-6.248-15.331-13.108-19.221c-5.26,2.072-31.766,16.117-39.346,21.331
										C263.239,103.129,263.309,104.916,263.565,106.72z"/>
									<path fill="#FFFFFF" d="M282.991,103.884c0.526,3.684,3.936,6.246,7.631,5.721c3.688-0.533,6.26-3.952,5.727-7.637
										c-0.525-3.692-3.952-6.26-7.634-5.734C285.02,96.756,282.469,100.183,282.991,103.884z"/>
								</g>
								<path fill="none" stroke="#713710" stroke-width="1.6389" stroke-miterlimit="10" d="M243.831,117.258"/>
								<path fill="none" stroke="#713710" stroke-width="1.6389" stroke-miterlimit="10" d="M326.38,69.561"/>
								<path fill="none" stroke="#713710" stroke-width="1.2291" stroke-miterlimit="10" d="M250.592,126.692"/>
								<path fill="none" stroke="#713710" stroke-width="1.2291" stroke-miterlimit="10" d="M320.481,116.721"/>
							</g>
							<g>
								<path fill="#713710" d="M242.569,122.737c-0.34,0-0.682-0.115-0.963-0.352c-0.629-0.532-0.709-1.474-0.177-2.104
									c34.413-40.761,85.629-48.64,86.142-48.714c0.811-0.119,1.573,0.445,1.692,1.261s-0.445,1.573-1.261,1.693
									c-0.502,0.073-50.63,7.813-84.293,47.686C243.415,122.558,242.993,122.737,242.569,122.737z"/>
								<path fill="#713710" d="M276.91,129.02c-10.655,0-22.519-1.68-34.871-6.379c-0.771-0.294-1.157-1.155-0.864-1.926
									c0.293-0.77,1.156-1.154,1.926-0.865c41.898,15.94,77.909-3.856,78.268-4.058c0.718-0.405,1.629-0.148,2.033,0.569
									c0.403,0.72,0.148,1.629-0.57,2.033C322.566,118.543,303.509,129.02,276.91,129.02z"/>
							</g>
						</g>
					</g>
					<path fill="#713710" d="M210.534,88.234c-0.824,0-1.492-0.669-1.492-1.492V40.128c0-0.823,0.668-1.492,1.492-1.492
						s1.492,0.669,1.492,1.492v46.614C212.026,87.565,211.358,88.234,210.534,88.234z"/>
					<g>
						<path fill="#713710" d="M220.231,58.3c0,0,5.768,41.632,76.221-10.86c0,0,21.208-17.841,35.269-8.702
							c0,0-9.314-3.158-26.815,8.308c-9.2,6.026-17.329,14.6-36.883,27.71C219.317,107.415,218.979,68.941,220.231,58.3z"/>
						<path fill="#713710" d="M201.978,57.749c0,0-3.106,41.788-76.836-8.299c0,0-22.333-17.112-35.785-7.513
							c0,0,9.108-3.465,27.313,7.393c9.585,5.721,18.249,14.018,38.626,26.469C206.032,106.793,203.899,68.342,201.978,57.749z"/>
					</g>
				</g>
			</g>
		</g>
	</g>
</g>
</svg>
