<?xml version="1.0" encoding="utf-8"?>
<!-- Generator: Adobe Illustrator 15.0.2, SVG Export Plug-In . SVG Version: 6.00 Build 0)  -->
<!DOCTYPE svg PUBLIC "-//W3C//DTD SVG 1.1//EN" "http://www.w3.org/Graphics/SVG/1.1/DTD/svg11.dtd">
<svg version="1.1" id="Layer_1" xmlns="http://www.w3.org/2000/svg" xmlns:xlink="http://www.w3.org/1999/xlink" x="0px" y="0px"
	 width="420px" height="168px" viewBox="0 0 420 168" enable-background="new 0 0 420 168" xml:space="preserve">
<rect fill="#C7C4BA" width="420" height="168"/>
<rect x="10" y="10" fill="#AAABA8" width="400" height="148"/>
<g>
	<path fill="#EEE09C" d="M21.967,10c15.097,73.17,71.822,131.122,144.328,148h87.409c72.504-16.878,129.232-74.83,144.33-148H21.967
		z"/>
	<g>
		<path fill="#8A4E4B" d="M231.259,27.109c-0.285-1.307-2.984-1.846-6.042-1.193c-3.059,0.657-5.303,2.255-5.013,3.567
			c0.27,1.315,2.979,1.856,6.042,1.196C229.294,30.027,231.539,28.422,231.259,27.109z"/>
		<path fill="#8A4E4B" d="M188.741,27.109c0.274-1.307,2.979-1.846,6.032-1.193c3.058,0.657,5.308,2.255,5.023,3.567
			c-0.28,1.315-2.979,1.856-6.042,1.196C190.706,30.027,188.456,28.422,188.741,27.109z"/>
	</g>
	<path fill="#C29A5B" d="M239.749,104.505c0,16.909-13.312,30.626-29.749,30.626c-16.426,0-29.739-13.717-29.739-30.626
		c0-16.917,13.312-30.623,29.739-30.623C226.437,73.882,239.749,87.588,239.749,104.505z"/>
	<g>
		<path fill="#8B6844" d="M209.989,82.591c-32.427,0-32.427,40.562,0,40.562C242.459,123.152,242.459,82.591,209.989,82.591z"/>
		<path fill="#FFFFFF" d="M220.226,121.208c-2.953-1.029-6.333-1.637-10.236-1.637c-3.866,0-7.257,0.607-10.204,1.637
			c2.953,1.03,6.312,1.685,10.204,1.685C213.914,122.893,217.272,122.238,220.226,121.208z"/>
	</g>
</g>
</svg>
