<?xml version="1.0" encoding="utf-8"?>
<!-- Generator: Adobe Illustrator 15.0.2, SVG Export Plug-In . SVG Version: 6.00 Build 0)  -->
<!DOCTYPE svg PUBLIC "-//W3C//DTD SVG 1.1//EN" "http://www.w3.org/Graphics/SVG/1.1/DTD/svg11.dtd">
<svg version="1.1" id="Layer_1" xmlns="http://www.w3.org/2000/svg" xmlns:xlink="http://www.w3.org/1999/xlink" x="0px" y="0px"
	 width="420px" height="168px" viewBox="0 0 420 168" enable-background="new 0 0 420 168" xml:space="preserve">
<g>
	<rect fill="#C7C4BA" width="420" height="168"/>
	<rect x="10" y="10" fill="#AAABA8" width="400" height="148"/>
	<g>
		<g>
			<g>
				<g>
					<path fill="#EEE09C" d="M11,109.344c0,15.115,2.383,31.705,7.155,48.656h384.843c3.913-15.572,6.002-31.869,6.002-48.656
						c0-36.183-9.66-70.108-26.537-99.344H37.536C20.659,39.235,11,73.161,11,109.344z"/>
					<g>
						<g>
							<path fill="#FFFFFF" d="M288.773,100.15c-12.47-5.542-22.953-15.904-31.914-22.173c-8.058,17.805,3.356,41.882,23.64,50.902
								c20.817,9.24,45.727,0.597,54.576-18.739C335.126,110.024,304.617,107.182,288.773,100.15z"/>
							<path fill="#560000" d="M281.545,128.984c4.961,2.201,10.041,3.465,15.021,3.928c3.612-2.077,6.631-5.261,8.451-9.363
								c2.598-5.841,2.209-12.248-0.489-17.53c-4.769-1.722-9.651-3.676-14.594-5.868c-3.181-1.412-6.268-2.874-9.259-4.368
								c-5.526,1.628-10.332,5.569-12.852,11.24c-1.631,3.679-2.068,7.571-1.511,11.271
								C270.424,122.607,275.545,126.313,281.545,128.984z"/>
							<path fill="#FFFFFF" d="M296.009,108.862c-1.373,3.102-5.009,4.488-8.109,3.115c-3.084-1.38-4.486-4.987-3.101-8.086
								c1.377-3.111,4.991-4.505,8.083-3.125C295.981,102.123,297.384,105.759,296.009,108.862z"/>
							<g>
								<path fill="#713710" d="M321.695,111.087c-3.282,0-7.045-0.244-11.185-0.917c-13.521-2.197-33.778-9.612-53.507-32.456
									l3.013-2.603c36.16,41.875,74.084,30.597,74.463,30.478l1.191,3.798C335.37,109.48,330.115,111.087,321.695,111.087z"/>
							</g>
							<path fill="#713710" d="M309.712,135.55c-6.756,0-29.591-1.833-55.946-24.272l1.935-2.273
								c29.811,25.381,55.49,23.532,55.743,23.506l0.259,2.974C311.544,135.497,310.858,135.55,309.712,135.55z"/>
						</g>
						<g>
							<path fill="#FFFFFF" d="M135.932,100.15c-22.801,12.357-46.339,9.872-46.298,9.99c7.475,22.155,33.752,27.979,54.572,18.739
								c20.287-9.021,32.077-30.933,23.669-50.902C158.914,84.246,147.931,93.647,135.932,100.15z"/>
							<path fill="#560000" d="M156.594,107.022c-2.69-6.054-7.989-10.127-13.989-11.528c-5.578,5.28-13.523,9.038-22.618,10.349
								c-2.784,5.315-3.213,11.8-0.586,17.706c1.817,4.103,4.839,7.286,8.449,9.363c4.979-0.463,10.059-1.727,15.018-3.928
								c5.999-2.671,11.125-6.377,15.237-10.69C158.662,114.594,158.224,110.699,156.594,107.022z"/>
							<path fill="#FFFFFF" d="M128.408,108.862c1.374,3.102,5.006,4.488,8.106,3.115c3.087-1.38,4.486-4.987,3.104-8.086
								c-1.377-3.111-4.992-4.505-8.084-3.125C128.433,102.123,127.028,105.759,128.408,108.862z"/>
							<g>
								<path fill="#713710" d="M103.011,111.087c-8.42,0-13.673-1.606-13.974-1.7l1.191-3.798l-0.595,1.899l0.592-1.9
									c0.38,0.117,38.396,11.291,74.466-30.477l3.013,2.603c-19.729,22.844-39.988,30.259-53.508,32.456
									C110.057,110.843,106.294,111.087,103.011,111.087z"/>
							</g>
							<path fill="#713710" d="M114.991,135.55c-1.148,0-1.833-0.053-1.991-0.066l0.261-2.974l-0.13,1.486l0.128-1.486
								c0.252,0.024,25.939,1.875,55.749-23.506l1.935,2.273C144.589,133.715,121.75,135.55,114.991,135.55z"/>
						</g>
					</g>
					<g>
						<g>
							<path fill="#713710" d="M117.838,57.593c-13.42,8.436-26.992,14.644-39.766,18.585c11.805,0.415,27.236-4.237,42.327-13.74
								c15.089-9.497,26.505-21.718,32.091-33.073C142.958,39.458,131.254,49.155,117.838,57.593z"/>
						</g>
						<g>
							<path fill="#713710" d="M306.142,57.687c13.76,7.89,27.561,13.531,40.496,16.947c-11.773,0.897-27.386-3.123-42.855-12
								c-15.464-8.867-27.375-20.617-33.412-31.729C280.299,40.597,292.402,49.809,306.142,57.687z"/>
						</g>
					</g>
				</g>
			</g>
		</g>
	</g>
</g>
</svg>
