<?xml version="1.0" encoding="utf-8"?>
<!-- Generator: Adobe Illustrator 15.0.2, SVG Export Plug-In . SVG Version: 6.00 Build 0)  -->
<!DOCTYPE svg PUBLIC "-//W3C//DTD SVG 1.1//EN" "http://www.w3.org/Graphics/SVG/1.1/DTD/svg11.dtd">
<svg version="1.1" id="Layer_1" xmlns="http://www.w3.org/2000/svg" xmlns:xlink="http://www.w3.org/1999/xlink" x="0px" y="0px"
	 width="420px" height="168px" viewBox="0 0 420 168" enable-background="new 0 0 420 168" xml:space="preserve">
<g>
	<rect fill="#C7C4BA" width="420" height="168"/>
	<rect x="10" y="10" fill="#AAABA8" width="400" height="148"/>
	<g>
		<g>
			<g>
				<g>
					<path fill="#EEE09C" d="M10.008,10c0.189,60.291,27.064,112.811,69.439,148h261.109c42.375-35.189,69.247-87.709,69.438-148
						H10.008z"/>
					<g>
						<path fill="#8A4E4B" d="M232.691,24.824c-0.301-1.363-3.11-1.923-6.293-1.24c-3.185,0.681-5.521,2.346-5.223,3.711
							c0.283,1.369,3.104,1.935,6.283,1.248C230.646,27.865,232.98,26.196,232.691,24.824z"/>
						<path fill="#8A4E4B" d="M188.404,24.824c0.292-1.363,3.104-1.923,6.285-1.24c3.186,0.681,5.521,2.346,5.231,3.711
							c-0.296,1.369-3.11,1.935-6.295,1.248C190.442,27.865,188.104,26.196,188.404,24.824z"/>
					</g>
					<g>
						<path fill="#C29A5B" d="M210.544,59.037c-49.409,0-95.14-9.293-132.597-25.073c17.595,55.511,70.31,95.81,132.597,95.81
							c62.292,0,115.01-40.299,132.596-95.8C305.685,49.744,259.958,59.037,210.544,59.037z"/>
						<g>
							<path fill="#FFFFFF" d="M154.479,103.639c14.699,7.776,34.373,12.577,56.065,12.577c21.701,0,41.374-4.801,56.071-12.577
								H154.479z"/>
							<path fill="#FFFFFF" d="M210.544,70.242c-35.576,0-68.505-3.178-95.493-8.563c12.672,18.965,50.641,39.805,95.493,39.805
								c44.856,0,82.82-20.84,95.488-39.805C279.059,67.072,246.13,70.242,210.544,70.242z"/>
						</g>
					</g>
				</g>
			</g>
		</g>
	</g>
</g>
</svg>
