<?xml version="1.0" encoding="utf-8"?>
<!-- Generator: Adobe Illustrator 15.0.2, SVG Export Plug-In . SVG Version: 6.00 Build 0)  -->
<!DOCTYPE svg PUBLIC "-//W3C//DTD SVG 1.1//EN" "http://www.w3.org/Graphics/SVG/1.1/DTD/svg11.dtd">
<svg version="1.1" id="Layer_1" xmlns="http://www.w3.org/2000/svg" xmlns:xlink="http://www.w3.org/1999/xlink" x="0px" y="0px"
	 width="420px" height="168px" viewBox="0 0 420 168" enable-background="new 0 0 420 168" xml:space="preserve">
<g>
	<rect fill="#C7C4BA" width="420" height="168"/>
	<rect x="10" y="10" fill="#AAABA8" width="400" height="148"/>
	<g>
		<path fill="#EEE09C" d="M20,124.927c0,11.282,0.989,22.332,2.875,33.073h374.25c1.886-10.741,2.875-21.791,2.875-33.073
			C400,81.733,385.577,41.914,361.297,10H58.703C34.423,41.914,20,81.733,20,124.927z"/>
		<g>
			<g>
				<path fill="#FFFFFF" d="M173.915,101.016c0,19.896-16.9,36.026-37.752,36.026c-20.844,0-37.743-16.13-37.743-36.026
					c0-19.917,16.899-36.031,37.743-36.031C157.015,64.984,173.915,81.099,173.915,101.016z"/>
				<path fill="#8F4E4B" d="M136.163,138.38c-21.549,0-39.081-16.762-39.081-37.364c0-20.605,17.531-37.369,39.081-37.369
					c21.555,0,39.09,16.764,39.09,37.369C175.253,121.618,157.718,138.38,136.163,138.38z M136.163,66.322
					c-20.074,0-36.405,15.563-36.405,34.693c0,19.128,16.331,34.688,36.405,34.688c20.079,0,36.415-15.561,36.415-34.688
					C172.577,81.886,156.241,66.322,136.163,66.322z"/>
			</g>
			<path fill="#560000" d="M155.569,105.098c0,10.724-8.684,19.41-19.407,19.41c-10.72,0-19.404-8.687-19.404-19.41
				c0-10.715,8.684-19.401,19.404-19.401C146.885,85.696,155.569,94.383,155.569,105.098z"/>
			<path fill="#FFFFFF" d="M142.396,96.897c0,3.434-2.783,6.225-6.233,6.225c-3.437,0-6.225-2.791-6.225-6.225
				c0-3.446,2.788-6.232,6.225-6.232C139.612,90.665,142.396,93.451,142.396,96.897z"/>
			<path fill="none" stroke="#2B2523" stroke-width="0.5638" stroke-miterlimit="10" d="M136.163,75.539"/>
			<path fill="none" stroke="#2B2523" stroke-width="0.5638" stroke-miterlimit="10" d="M136.163,73.84"/>
			<g>
				<path fill="#FFFFFF" d="M246.09,101.016c0,19.896,16.896,36.026,37.742,36.026c20.854,0,37.749-16.13,37.749-36.026
					c0-19.917-16.895-36.031-37.749-36.031C262.986,64.984,246.09,81.099,246.09,101.016z"/>
				<path fill="#8F4E4B" d="M283.832,138.38c-21.55,0-39.08-16.762-39.08-37.364c0-20.605,17.53-37.369,39.08-37.369
					c21.553,0,39.087,16.764,39.087,37.369C322.919,121.618,305.385,138.38,283.832,138.38z M283.832,66.322
					c-20.072,0-36.404,15.563-36.404,34.693c0,19.128,16.332,34.688,36.404,34.688c20.079,0,36.411-15.561,36.411-34.688
					C320.243,81.886,303.911,66.322,283.832,66.322z"/>
			</g>
			<path fill="#560000" d="M264.431,105.098c0,10.724,8.695,19.41,19.406,19.41c10.72,0,19.405-8.687,19.405-19.41
				c0-10.715-8.686-19.401-19.405-19.401C273.126,85.696,264.431,94.383,264.431,105.098z"/>
			<path fill="#FFFFFF" d="M277.604,96.897c0,3.434,2.795,6.225,6.229,6.225c3.441,0,6.23-2.791,6.23-6.225
				c0-3.446-2.789-6.232-6.23-6.232C280.398,90.665,277.604,93.451,277.604,96.897z"/>
		</g>
		<g>
			<path fill="#713710" d="M280.644,34.698c-13.932-3.64-27.379-4.425-39.521-2.803c10.087-6.541,24.709-8.617,40.392-4.518
				c15.68,4.092,28.943,13.464,36.914,24.721C307.392,44.411,294.573,38.336,280.644,34.698z"/>
			<path fill="#713710" d="M139.356,34.698c13.926-3.64,27.38-4.425,39.526-2.807c-10.092-6.538-24.719-8.614-40.397-4.516
				c-15.68,4.094-28.942,13.464-36.912,24.717C112.604,44.411,125.427,38.333,139.356,34.698z"/>
		</g>
	</g>
</g>
</svg>
