<?xml version="1.0" encoding="utf-8"?>
<!-- Generator: Adobe Illustrator 15.0.2, SVG Export Plug-In . SVG Version: 6.00 Build 0)  -->
<!DOCTYPE svg PUBLIC "-//W3C//DTD SVG 1.1//EN" "http://www.w3.org/Graphics/SVG/1.1/DTD/svg11.dtd">
<svg version="1.1" id="Layer_1" xmlns="http://www.w3.org/2000/svg" xmlns:xlink="http://www.w3.org/1999/xlink" x="0px" y="0px"
	 width="244px" height="244px" viewBox="0 0 244 244" enable-background="new 0 0 244 244" xml:space="preserve">
<circle fill="#AF9474" cx="122" cy="123" r="121"/>
<circle fill="#F9F4D5" cx="122" cy="121" r="121"/>
<g>
	<g>
		<g>
			<g>
				<g>
					<path fill="#AF9474" d="M50.032,216.24c1.616,1.025,2.804,2.784,3.37,5c18.61,12.703,40.938,20.361,65.015,21.004
						c1.521-11.119,2.441-21.671,2.775-32.047c-8.317,5.743-27.056,8.422-44.729,8.422C66.734,218.619,57.532,217.781,50.032,216.24
						z"/>
				</g>
				<g>
					<path fill="#AF9474" d="M135.203,207.292c0.075,0.283,0.14,0.536,0.18,0.74c0.473,2.196,1.494,4.309,3.961,4.786
						c2.65,0.51,4.543-0.754,5.27-3.303c0.588-2.079,0.719-4.172,0.055-6.271c-1.038-3.311-3.469-7.147-7.285-7.51
						c-3.159-0.307-5.426,1.991-7.213,4.244c-1.164,1.465-2.277,4.548-0.763,6.259c1.303,1.469,2.134,0.006,2.646-0.936
						C133.543,202.543,134.706,205.465,135.203,207.292z"/>
				</g>
			</g>
			<g>
				<path fill="#C83B0C" d="M126.286,126.26c-2.922-1.211-6.945-0.715-7.583,1.963c0,0,1.642,2.295,3.621,5.317
					c1.628,2.475,3.534,5.162,2.837,6.845c-0.943,2.278-4.708-0.052-5.571,1.599c-0.694,1.303,0.751,2.56,2.123,3.62
					c1.471,1.13,3.91,1.699,5.529,1.805c3.542,0.241,6.012-1.578,6.899-4.737C136.073,135.839,131.801,128.544,126.286,126.26z"/>
				<g>
					<path fill="#AF9474" d="M141.262,193.063c-1.131-12.411-5.365-29.17-12.347-44.618c-0.344,0.043-0.69,0.077-1.052,0.077
						c-0.229,0-0.461-0.008-0.693-0.024c-1.753-0.113-4.411-0.714-6.128-2.029c-1.167-0.906-3.598-2.786-2.423-4.992
						c0.642-1.228,2.001-1.231,2.454-1.231c0.001,0,0.003,0,0.004,0c0.359,0,0.728,0.029,1.085,0.061
						c0.344,0.027,0.671,0.056,0.972,0.056c0.853,0,0.944-0.22,1.017-0.395c0.122-0.298,0.062-0.724-0.1-1.21
						c-1.444-2.596-2.971-5.113-4.583-7.52c-0.978-1.433-1.644-2.364-1.654-2.378l-0.29-0.407l0.001-0.002
						c-2.462-3.394-5.098-6.525-7.906-9.287c-5.257,6.153-10.902,9.032-14.427,9.054h-0.15c-5.708,0-17.549-2.582-26.775-9.69
						c-1.589-1.224-3.125-2.66-4.67-4.333l0.121,0.611l-1.846-0.703c-0.65-0.246-1.351-0.622-2.092-1.1
						c-0.952,0.816-1.885,1.708-2.799,2.687l0.002,0.004c-0.006,0.005-0.012,0.01-0.02,0.015c-0.059,0.062-0.12,0.12-0.179,0.185
						l-0.008-0.043C32.79,133.08,24.05,168.381,33.838,204.619c3.126,3.282,6.439,6.385,9.913,9.302l2.863-0.935
						c-7.324-44.631,15.215-66.607,15.444-66.825l0.753,0.793c-0.226,0.217-22.499,21.979-15.041,66.315l0.077,0.465l-1.566,0.512
						c26.611,7.031,77.966,2.451,78.234-10.796c0.506-24.77-12.357-55.965-12.357-55.965s15.638,27.393,18.114,47.094
						L141.262,193.063z"/>
				</g>
				<path fill="#AF9474" d="M30.936,197.326c-0.08,1.277-0.148,2.573-0.207,3.887c0.494,0.559,0.99,1.118,1.493,1.667
					C31.745,201.027,31.316,199.175,30.936,197.326z"/>
			</g>
		</g>
	</g>
	<g>
		<path fill="#AF9474" d="M64.438,95.329c4.128-2.439,7.195-1.981,11.031-2.458c0.631-9.596,2.056-16.491,6.357-22.157
			c3.624-4.775,11.415-8.646,18.465-9.675c5.241-0.763,11.561-0.566,15.813,1.875c5.021,2.873,6.009,10.258,6.29,17.563
			c2.612-12.339-3.263-25.34-11.278-32.608c-7.759-7.039-33.165-15.587-49.265-4.101c-26.1,18.621-14.639,49.81-12.623,57.934
			c3.75,4.027,9.422,10.005,13.03,11.378C60.649,104.951,60.895,97.42,64.438,95.329z"/>
		<g>
			<path fill="#AF9474" d="M119.929,70.224c-0.641-2.432-2.18-5.11-4.368-6.362c-2.424-1.39-5.849-2.125-9.904-2.125
				c-1.705,0-3.457,0.13-5.208,0.385c-6.991,1.022-14.458,4.914-17.752,9.254c-4.287,5.649-5.553,12.708-6.135,21.567l-0.06,0.903
				l-0.897,0.111c-0.942,0.116-1.831,0.178-2.69,0.239c-2.681,0.186-4.996,0.348-7.921,2.075c-2.601,1.536-3.291,7.672-1.818,15.74
				c0.13,0.181,0.26,0.36,0.396,0.532c1.602,1.827,3.384,3.59,5.361,5.116c8.882,6.845,20.546,9.506,26.25,9.463
				c7.03-0.045,21.752-12.064,25.483-36.934c0.018-0.18,0.04-0.375,0.065-0.58l0.047-0.485c0.265-2.838,0.625-5.739,0.521-8.604
				C121.191,77.668,120.93,74.029,119.929,70.224z M97.401,92.494c-1.414,0.04-2.611-2.115-2.691-4.81
				c-0.078-2.694,1.001-4.913,2.408-4.957c1.407-0.038,2.617,2.115,2.687,4.814C99.892,90.239,98.802,92.452,97.401,92.494z
				 M114.116,92.18c-1.242,0.039-2.312-2.165-2.39-4.919c-0.072-2.751,0.859-5.013,2.105-5.047c1.229-0.039,2.3,2.168,2.383,4.921
				C116.29,89.888,115.346,92.144,114.116,92.18z"/>
		</g>
	</g>
	<g>
		<g>
			<path fill="#C83B0C" d="M233.655,117.588c-1.718,1.235-4.087,2.745-5.766,3.041l-1.126,0.198l-0.147-1.135
				c-0.013-0.099-0.013-0.099-0.012-1.262c0.018-13.266-0.259-22.761-0.821-28.225c-1.128-10.948-3.396-16.076-4.747-19.141
				c-0.22-0.493-0.41-0.928-0.567-1.321c-1.622-4.039-7.843-15.002-17.051-17.207c-2.649-0.637-5.754-0.959-9.229-0.959
				c-2.745,0-5.531,0.203-8.216,0.516c-0.179,0.168-0.363,0.334-0.523,0.506c-6.892,7.575-11.455,17.898-11.662,30.349
				c-0.491,29.724,14.788,45.954,22.723,46.981c7.601,0.976,23.962-1.912,37.575-11.519l-0.082-0.536
				C233.881,117.964,233.765,117.849,233.655,117.588z M183.447,83.053c-0.45,2.965-1.903,5.2-3.24,5.002
				c-1.321-0.203-2.05-2.773-1.6-5.738c0.453-2.966,1.901-5.206,3.231-5.012C183.175,77.513,183.899,80.08,183.447,83.053z
				 M201.874,86.851c-0.44,2.908-2.029,5.078-3.545,4.851c-1.518-0.229-2.396-2.776-1.951-5.683
				c0.436-2.917,2.026-5.073,3.543-4.849C201.439,81.401,202.312,83.941,201.874,86.851z"/>
			<g>
				<path fill="#F9F4D5" d="M183.447,83.053c-0.432,2.844-1.784,5.015-3.075,5.015c-0.055,0-0.109-0.004-0.165-0.012
					c-1.321-0.203-2.05-2.773-1.6-5.738c0.436-2.846,1.787-5.022,3.07-5.022c0.054,0,0.107,0.003,0.161,0.012
					C183.175,77.513,183.899,80.08,183.447,83.053z"/>
				<path fill="#C83B0C" d="M172.693,82.932c0.192-11.698,4.163-22.234,11.486-30.541c-0.361,0.037-0.586,0.046-0.551,0.007
					c-2.188,0.313-4.268,0.686-6.151,1.068c-0.172,0.182-0.339,0.358-0.508,0.555c-0.668,0.797-1.306,1.653-1.906,2.583
					c-10.508,16.473-6.55,43.807-6.55,43.807l2.274-2.432l3.334,7.055l0.758-0.808c0.118-0.112,0.228-0.229,0.343-0.343
					C173.55,97.833,172.562,90.836,172.693,82.932z"/>
			</g>
		</g>
	</g>
	<path fill="#AF9474" d="M48.686,216.754c-0.758-0.321-1.561-0.572-2.379-0.742c1.823,1.447,3.687,2.843,5.592,4.188
		C51.264,218.709,50.214,217.402,48.686,216.754z"/>
	<path fill="#C83B0C" d="M190.423,220.947c-8.534-2.062-14.936-5.353-18.382-9.569c-1.063,6.646-1.668,13.588-1.842,20.818
		C177.324,229.083,184.091,225.309,190.423,220.947z"/>
	<path fill="#C83B0C" d="M242.529,124.39l-4.587,4.427l-1.508,1.452l-0.333-2.065l-1.056-6.563
		c-0.917-0.257-1.839-0.498-2.768-0.704c-11.825,7.54-24.783,10.268-32.646,10.268c-1.19,0-2.287-0.064-3.265-0.188
		c-1.998-0.26-4.343-1.354-6.766-3.232c-17.159,8.995-30.74,20.466-52.187,11.203l-4.544,9.691
		c17.983,13.86,43.604,14.887,43.604,14.887s-7.725,19.941-5.936,42.599c1.554,6.325,9.303,11.281,21.093,13.944
		c30.158-21.316,50.155-56.05,51.308-95.513C242.806,124.529,242.669,124.453,242.529,124.39z"/>
	<path fill="#C83B0C" d="M195.156,38.241c-9.417,0.987-27.725,0.286-27.725,0.286l13.185,7.263l-12.665,8.901
		c0,0,21.372-6.663,35.721-3.218c9.425,2.256,15.849,12.972,17.809,17.862c1.132,2.8,4.065,7.883,5.39,20.757
		c0.994,9.62,0.805,29.261,0.83,29.458c2.553-0.448,7.404-4.45,7.404-4.45l2.077,12.928l5.8-5.596
		c0.006-0.482,0.019-0.96,0.019-1.444c0-32.778-13.007-62.516-34.135-84.346C204.629,37.072,200.183,37.712,195.156,38.241z"/>
</g>
<path fill="#C8A95C" d="M122,244C54.729,244,0,189.271,0,122C0,54.729,54.729,0,122,0c67.271,0,122,54.729,122,122
	C244,189.271,189.271,244,122,244z M122,4C56.935,4,4,56.935,4,122s52.935,118,118,118s118-52.935,118-118S187.065,4,122,4z"/>
</svg>
