<?xml version="1.0" encoding="utf-8"?>
<!-- Generator: Adobe Illustrator 15.0.2, SVG Export Plug-In . SVG Version: 6.00 Build 0)  -->
<!DOCTYPE svg PUBLIC "-//W3C//DTD SVG 1.1//EN" "http://www.w3.org/Graphics/SVG/1.1/DTD/svg11.dtd">
<svg version="1.1" id="Layer_1" xmlns="http://www.w3.org/2000/svg" xmlns:xlink="http://www.w3.org/1999/xlink" x="0px" y="0px"
	 width="244px" height="244px" viewBox="0 0 244 244" enable-background="new 0 0 244 244" xml:space="preserve">
<circle fill="#AF9474" cx="122" cy="123" r="121"/>
<circle fill="#F9F4D5" cx="122" cy="121" r="121"/>
<g>
	<g>
		<g>
			<g>
				<path fill="#C83B0C" d="M200.602,140.324c-3.041,3.701-11.998,5.381-20.379,5.381c-7.211,0-15.463-1.301-19.363-4.699
					c-0.221,0.449-0.424,0.903-0.604,1.365c-4.72,12.084-4.928,28.115,1.266,42.588l4.735-0.646
					c0.36-12.726,5.101-23.72,14.126-27.78c4.059,10.381,14.158,18.544,27.268,23.53l3.607-3.732
					C200.021,165.336,203.408,152.044,200.602,140.324z"/>
			</g>
		</g>
		<g>
			<path fill="#C83B0C" d="M169.725,129.365c1.467-1.025-1.752-0.727-1.274-2.061c0.429-1.195,2.966-1.07,3.896-0.641
				c1.367,0.634,2,2.186,1.883,3.611c-0.09,1.117-1.166,2.84-2.123,3.418c-1.476,0.892-3.469,1.98-4.854,0.469
				c-1.043-1.143-1.045-2.93,0.291-3.842C167.958,130.037,169.098,129.802,169.725,129.365z"/>
			<g>
				<path fill="#C83B0C" d="M195.135,109.563c0.118,1.856,0.021,3.724-0.33,5.557c-1.68,8.758-8.65,14.753-19.129,16.448
					l-0.422,0.067l-0.178-0.544c-0.377,1.32-1.41,2.826-2.455,3.459c-1.094,0.66-2.371,1.364-3.688,1.364
					c-0.939,0-1.775-0.372-2.422-1.078c-0.75-0.819-1.111-1.896-0.988-2.952c0.11-0.977,0.629-1.824,1.453-2.391
					c0.293-0.199,0.668-0.334,1.104-0.488c0.047-0.02,0.096-0.033,0.146-0.053c-0.562-0.369-1.076-0.987-0.722-1.988
					c0.366-1.021,1.499-1.605,3.104-1.605c0.811,0,1.613,0.147,2.15,0.397c0.256,0.118,0.489,0.271,0.711,0.44l-0.221-0.68
					l0.461-0.162c4.288-1.506,7.049-3.702,8.204-6.523c1.431-3.497-0.136-6.767-0.151-6.799l0.896-0.44
					c0.074,0.15,1.779,3.71,0.18,7.619c-1.225,2.994-4.029,5.322-8.337,6.924l1.431,4.375c13.396-2.329,16.957-10.74,17.887-15.58
					c1.697-8.853-2.592-18.584-10.199-23.139l0.086-0.144c-0.424-0.188-0.859-0.368-1.316-0.53
					c-0.383,0.772-0.846,1.662-1.383,2.571l-0.556,0.938l-0.89-0.634c-0.148-0.108-0.31-0.225-0.477-0.35l-0.333,0.196
					c-5.319,3.132-10.985,3.471-13.175,3.471c-0.746,0-1.444-0.044-2.078-0.114c-2.256,3.779-3.461,8.511-3.883,13.267
					c-0.947,10.726-0.881,17.989-0.01,26.434c1.078,10.465,38.367,9.845,40.936,1.517
					C202.984,130.51,197.695,115.857,195.135,109.563z"/>
				<path fill="#C83B0C" d="M169.725,129.365c-0.627,0.437-1.767,0.672-2.184,0.957c-1.336,0.914-1.334,2.701-0.291,3.842
					c0.5,0.546,1.078,0.753,1.684,0.753c1.072,0,2.229-0.651,3.17-1.222c0.957-0.578,2.033-2.299,2.123-3.416
					c0.117-1.43-0.515-2.979-1.883-3.613c-0.388-0.18-1.054-0.307-1.729-0.307c-0.947,0-1.915,0.248-2.165,0.945
					C167.973,128.639,171.191,128.34,169.725,129.365z"/>
			</g>
		</g>
		<g>
			<path fill="#C83B0C" d="M164.934,189.668c-1.229,0.377-4.076,1.156-5.213,0.652c-2.447-1.072,0.967-3.176,2.729-4.014
				C166.979,184.162,170.414,187.998,164.934,189.668z"/>
		</g>
		<g>
			<path fill="#C83B0C" d="M213.59,182.246c-0.924,0.891-3.102,2.881-4.342,2.953c-2.672,0.158-0.971-4.143,0.225-5.691
				C212.525,175.534,217.711,178.262,213.59,182.246z"/>
		</g>
		<g>
			<path fill="#C83B0C" d="M195.032,85c-1.875-3.094-1.958-8.354-2.19-12.88c-0.424-8.305-1.42-10.722-4.9-14.104
				c-2.889-2.809-5.928-4.914-10.396-5.641c-5.323-0.862-11.372,0.669-14.771,2.505c-1.428,0.77-4.338,2.18-7.188,3.874
				c-1.897,1.125-7.399,2.733-9.709,2.558c1.246,1.317,5.177,2.352,7.328,3.004c-1.886,1.519-5.819,2.612-5.961,3.089
				c5.604,1.53,11.803,0.812,18.36-0.335c1.056,4.035,2.612,8.497,4.998,13.995c2.396,5.525,6.092,9.647,9.545,12.117
				c1.358-2.298,2.319-4.61,2.319-4.61s2.638,1.449,7.22,2.376c-0.776-2.605-0.6-5.388-0.6-5.388S192.281,85.178,195.032,85z"/>
			<path fill="#C83B0C" d="M169.688,81.461c-2.16-4.979-3.701-9.218-4.812-13.252c-3.251,0.551-6.948,1.068-10.499,1.068
				c-0.463,0-0.904-0.021-1.35-0.038c-0.289,1.379-0.463,2.828-0.498,4.346c-0.331,14.244,6.938,22.07,10.736,22.585
				c3.053,0.418,9.469,0.056,14.982-3.192C175.748,90.924,172.193,87.243,169.688,81.461z"/>
		</g>
		<path fill="#F9F4D5" d="M158.084,77.606c0.064,1.408-0.479,2.577-1.215,2.609c-0.735,0.034-1.383-1.077-1.447-2.488
			c-0.062-1.411,0.484-2.573,1.219-2.609C157.372,75.085,158.021,76.2,158.084,77.606z"/>
	</g>
</g>
<polygon fill="#C8A95C" points="145.32,114.02 118.655,114.02 123.887,105.01 92.05,118.02 123.887,131.025 118.656,122.02 
	145.32,122.02 "/>
<g>
	<g>
		<g>
			<path fill="#AF9474" d="M39.135,188.4c1.271,0.268,4.208,0.785,5.306,0.18c2.369-1.309-1.263-3.111-3.117-3.79
				C36.566,183.047,33.463,187.229,39.135,188.4z"/>
		</g>
		<g>
			<path fill="#AF9474" d="M65.389,182.723c1.284,0.18,4.248,0.521,5.308-0.154c2.28-1.45-1.456-3.025-3.35-3.588
				C62.491,177.537,59.653,181.9,65.389,182.723z"/>
		</g>
		<g>
			<g>
				<path fill="#AF9474" d="M28.906,139.082c-0.775-0.895-1.149-1.88-1.109-2.934l0.213-4.563l0.821,3.517
					c0.27,1.153,0.583,2.336,0.932,3.51l0.656,2.216L28.906,139.082z"/>
				<path fill="#F9F4D5" d="M28.344,135.214c0.274,1.175,0.588,2.356,0.939,3.54c-0.668-0.77-1.023-1.63-0.987-2.586
					C28.308,135.844,28.329,135.533,28.344,135.214 M27.676,127.957l-0.331,7.211l-0.02,0.389c-0.01,0.189-0.021,0.379-0.028,0.573
					c-0.044,1.185,0.371,2.287,1.231,3.279l3.027,3.487l-1.313-4.429c-0.346-1.166-0.657-2.338-0.924-3.481L27.676,127.957
					L27.676,127.957z"/>
			</g>
			<path fill="#AF9474" d="M83.627,131.592c-1.01-11.087-6.96-29.109-16.861-37.943c-2.479,2.947-5.211,4.515-7.271,4.529h-0.076
				c-2.803,0-8.614-1.265-13.135-4.75c-0.9-0.693-1.794-1.544-2.659-2.526c-0.85,0.636-1.668,1.414-2.46,2.306l0.034,0.047
				c-13.284,9.451-17.086,29.302-9.525,49.509l4.168-1.356c-3.589-22.322,7.711-33.339,7.826-33.449l0.688,0.725
				c-0.112,0.107-11.168,10.93-7.458,32.982l0.071,0.425l-0.549,0.18c13.401,3.4,38.695,1.096,38.83-5.48
				c0.252-12.395-6.184-28.003-6.184-28.003s7.825,13.707,9.063,23.563L83.627,131.592z"/>
		</g>
		<g>
			<path fill="#AF9474" d="M36.99,146.598c0.469,0.203,0.974,0.652,1.259,0.797c1.008,0.517,1.083-0.639,0.945-1.326
				c-0.219-1.088-0.828-2.172-1.889-2.62c-1.295-0.55-2.851-0.767-4.061,0.103c-1.883,1.354-2.38,5.215-0.636,6.873
				c0.458,0.436,1.055,0.739,1.628,0.946c0.632,0.228,1.305,0.334,1.964,0.206c1.908-0.367,0.239-2.537-0.188-3.46
				c-0.196-0.423-0.359-1.04-0.024-1.431C36.345,146.723,36.534,146.4,36.99,146.598z"/>
			<g>
				<g>
					<path fill="#AF9474" d="M35.111,142.969c-0.657,0.008-1.301,0.174-1.868,0.58c-1.883,1.354-2.38,5.215-0.636,6.873
						c0.458,0.434,1.055,0.739,1.628,0.946c0.448,0.159,0.917,0.261,1.386,0.261c0.193,0,0.386-0.018,0.579-0.055
						c1.908-0.367,0.239-2.537-0.188-3.46c-0.196-0.423-0.359-1.04-0.024-1.429c0.02,0.002,0.039,0.004,0.058,0.004
						c0.241,0,0.409-0.156,0.659-0.156c0.084,0,0.177,0.018,0.285,0.064c0.469,0.201,0.974,0.65,1.259,0.795
						c0.175,0.09,0.322,0.129,0.445,0.129c0.583,0,0.615-0.887,0.5-1.455c-0.206-1.021-0.762-2.035-1.711-2.527
						c-0.447-0.096-0.89-0.195-1.31-0.301L35.111,142.969z"/>
				</g>
				<g>
					<path fill="#AF9474" d="M51.211,144.829c-4.275,0-8.368-0.324-11.859-0.925c0.386,0.552,0.67,1.215,0.821,1.966
						c0.064,0.317,0.229,1.413-0.35,2.119c-0.282,0.344-0.683,0.532-1.131,0.532c-0.288,0-0.591-0.08-0.893-0.234
						c-0.185-0.092-0.363-0.221-0.57-0.367c-0.095-0.068-0.201-0.145-0.306-0.213c0.065,0.139,0.161,0.307,0.266,0.492
						c0.521,0.923,1.235,2.188,0.733,3.271c-0.183,0.396-0.598,0.903-1.535,1.086c-0.249,0.047-0.507,0.07-0.769,0.07
						c-0.549,0-1.128-0.105-1.726-0.318c-0.805-0.291-1.47-0.684-1.978-1.162c-0.986-0.938-1.485-2.443-1.369-4.129
						c0.083-1.194,0.473-2.314,1.07-3.187l-0.548,0.18l-0.335-0.896c-0.622-1.661-1.159-3.319-1.63-4.973
						c-0.774,14.682,3.151,30.561,7.688,45.197l4.65,0.07c3.328-13.156,5.94-21.916,11.212-28.736
						c4.499,5.846,7.372,11.189,10.38,23.062h5.101c3.267-14.146,5.031-25.83,5.43-37.082
						C69.142,143.5,59.924,144.829,51.211,144.829z"/>
				</g>
			</g>
		</g>
		<g>
			<path fill="#AF9474" d="M71.746,79.179l0.021-0.232c0.126-1.361,0.16-2.749,0.11-4.123c-0.127-3.329-0.538-6.508-2.701-7.804
				c-1.776-1.061-5.078-1.152-7.308-0.823c-2.964,0.446-6.691,2.253-8.26,4.32c-2.036,2.685-2.639,6.048-2.917,10.272l-0.038,0.549
				l-0.543,0.066c-0.456,0.059-0.885,0.087-1.299,0.117c-0.829,0.055-1.613,0.112-2.433,0.377c-0.443,0.142-0.867,0.339-1.303,0.597
				c-1.225,0.727-1.519,3.734-0.755,7.686c0.768,0.878,1.624,1.723,2.573,2.454c4.261,3.284,9.856,4.563,12.593,4.542
				c3.373-0.023,10.436-5.789,12.224-17.719C71.721,79.373,71.732,79.277,71.746,79.179z M59.259,78.256
				c-0.037-1.292,0.48-2.357,1.155-2.377c0.675-0.018,1.256,1.016,1.29,2.309c0.042,1.294-0.482,2.356-1.154,2.376
				C59.872,80.583,59.297,79.549,59.259,78.256z M69.576,77.994c0.036,1.32-0.417,2.403-1.007,2.42
				c-0.596,0.018-1.109-1.039-1.146-2.36c-0.036-1.321,0.414-2.406,1.01-2.422C69.022,75.615,69.535,76.672,69.576,77.994z"/>
			<g>
				<path fill="#AF9474" d="M44.567,81.636c0.512-0.303,1.004-0.528,1.503-0.687c0.958-0.311,1.871-0.371,2.669-0.424l0.103-0.007
					c0.282-0.02,0.571-0.041,0.87-0.072c0.299-4.274,0.959-7.709,3.1-10.532c1.872-2.466,5.986-4.265,8.911-4.705
					c0.795-0.118,1.679-0.18,2.556-0.18c1.312,0,3.76,0.147,5.412,1.134c2.169,1.3,2.844,4.014,3.085,6.977
					c0.473-5.397-2.159-10.822-5.646-13.985c-3.723-3.376-15.912-7.478-23.635-1.966c-12.522,8.932-7.024,23.896-6.057,27.794
					c1.678,1.8,4.147,4.391,5.878,5.272C42.898,88.034,42.246,83.013,44.567,81.636z"/>
			</g>
		</g>
	</g>
	<g>
		<path fill="#AF9474" d="M80.595,138.712c0.039,0.14,0.07,0.269,0.09,0.37c0.236,1.1,0.748,2.156,1.982,2.396
			c1.326,0.254,2.273-0.379,2.636-1.654c0.293-1.04,0.36-2.088,0.029-3.137c-0.52-1.656-1.737-3.576-3.646-3.761
			c-1.582-0.149-2.715,0.997-3.611,2.125c-0.582,0.73-1.139,2.275-0.381,3.132c0.653,0.733,1.068,0.004,1.325-0.47
			C79.766,136.336,80.346,137.797,80.595,138.712z"/>
	</g>
</g>
</svg>
