<?xml version="1.0" encoding="utf-8"?>
<!-- Generator: Adobe Illustrator 15.0.2, SVG Export Plug-In . SVG Version: 6.00 Build 0)  -->
<!DOCTYPE svg PUBLIC "-//W3C//DTD SVG 1.1//EN" "http://www.w3.org/Graphics/SVG/1.1/DTD/svg11.dtd">
<svg version="1.1" id="Layer_1" xmlns="http://www.w3.org/2000/svg" xmlns:xlink="http://www.w3.org/1999/xlink" x="0px" y="0px"
	 width="244px" height="244px" viewBox="0 0 244 244" enable-background="new 0 0 244 244" xml:space="preserve">
<circle fill="#AF9474" cx="122" cy="123" r="121"/>
<circle fill="#F9F4D5" cx="122" cy="121" r="121"/>
<g>
	<g>
		<path fill="#AF9474" d="M93.437,145.008l0.048-0.485c0.261-2.865,0.335-5.778,0.227-8.668c-0.267-6.999-1.129-13.686-5.672-16.414
			c-3.737-2.227-10.683-2.421-15.369-1.728c-6.234,0.939-14.071,4.737-17.372,9.085c-4.277,5.643-5.544,12.716-6.127,21.599
			l-0.082,1.155l-1.144,0.137c-0.958,0.128-1.858,0.188-2.73,0.251c-1.741,0.111-3.394,0.233-5.116,0.795
			c-0.93,0.295-1.824,0.713-2.737,1.251c-2.575,1.524-3.193,7.856-1.593,16.163c1.619,1.844,3.417,3.623,5.414,5.156
			c8.959,6.91,20.724,9.597,26.479,9.553c7.092-0.053,21.939-12.175,25.708-37.26C93.385,145.414,93.408,145.221,93.437,145.008z
			 M67.183,143.068c-0.077-2.718,1.013-4.951,2.429-4.996c1.422-0.04,2.638,2.134,2.711,4.852c0.083,2.721-1.015,4.954-2.423,5.002
			C68.472,147.96,67.263,145.788,67.183,143.068z M88.876,142.521c0.076,2.769-0.875,5.049-2.118,5.084
			c-1.253,0.038-2.33-2.182-2.414-4.962c-0.074-2.778,0.874-5.058,2.122-5.093C87.715,137.513,88.792,139.738,88.876,142.521z"/>
		<g>
			<g>
				<path fill="#AF9474" d="M83.736,102.902c-7.831-7.099-33.462-15.721-49.696-4.133c-26.327,18.782-14.769,50.245-12.738,58.433
					c3.787,4.067,9.503,10.097,13.151,11.486c0.188,0.087,0.362,0.146,0.545,0.228c-0.015-0.019-0.031-0.035-0.047-0.053
					l-0.196-0.223l-0.056-0.29c-1.737-9.024-0.949-15.495,2.108-17.309c1.015-0.598,1.984-1.041,2.954-1.346
					c1.781-0.58,3.424-0.722,5.378-0.847c0.854-0.059,1.738-0.12,2.678-0.246l0.25-0.028l0.019-0.251
					c0.596-9.078,1.903-16.324,6.347-22.188c3.776-4.972,12.131-8.608,18.079-9.503c1.624-0.241,3.429-0.368,5.226-0.368
					c2.655,0,7.595,0.291,10.863,2.239c4.983,2.994,5.925,10.088,6.201,17.31c0.003,0.072,0.002,0.148,0.005,0.222
					c0.103-0.077,0.214-0.159,0.304-0.235C97.744,123.349,91.819,110.242,83.736,102.902z"/>
			</g>
		</g>
	</g>
	<g>
		<g>
			<g>
				<path fill="#C83B0C" d="M206.49,175.287c-0.392,0.686-0.799,1.385-1.23,2.086l-0.624,1.014l-0.953-0.711
					c-0.448-0.333-0.934-0.707-1.449-1.12c-10.453,6.39-21.901,7.188-26.845,7.188c-2.125,0-4.132-0.138-5.807-0.396
					c-0.562-0.088-1.15-0.245-1.756-0.468c-5.55,6.98-9.267,16.147-11.449,25.567c-2.691,11.629-4.483,21.274-5.666,30.438
					c29.382-7.146,54.559-25.023,71.148-49.251c-1.212-2.091-2.909-4.359-5.351-6.978
					C213.778,179.731,210.253,177.239,206.49,175.287z"/>
				<g>
					<path fill="#C83B0C" d="M235.032,160.666c-3.717-6.387-3.686-17.132-3.987-26.378c-0.555-16.974-2.497-21.946-9.47-28.985
						c-5.796-5.841-11.92-10.258-21.018-11.909c-10.837-1.958-23.237,0.933-30.249,4.552c-2.94,1.518-8.937,4.291-14.823,7.638
						c-3.912,2.227-15.206,5.303-19.915,4.851c2.49,2.737,10.479,5.001,14.842,6.418c-3.903,3.026-11.979,5.105-12.284,6.076
						c11.385,3.337,24.071,2.105,37.505,0.012c2,8.278,5.007,17.448,9.669,28.765c4.682,11.368,12.074,19.924,19.03,25.097
						c2.856-4.641,4.91-9.326,4.91-9.326s5.326,3.059,14.653,5.13c-1.493-5.349-1.021-11.027-1.021-11.027
						S229.403,160.929,235.032,160.666z"/>
					<g>
						<path fill="#C83B0C" d="M184.295,152.119c-4.342-10.532-7.366-19.445-9.483-27.949c-6.345,0.972-13.66,1.916-20.727,1.916
							c-1.371,0-2.697-0.042-3.992-0.11c-0.771,3.076-1.263,6.334-1.408,9.771c-1.213,29.07,13.323,45.326,21.062,46.524
							c6.377,0.991,20.016,0.454,31.593-6.456C196.376,171.64,189.206,164.047,184.295,152.119z"/>
					</g>
				</g>
			</g>
			<path fill="#F9F4D5" d="M159.872,144.167c0.076,2.88-1.073,5.244-2.58,5.284c-1.504,0.039-2.784-2.256-2.858-5.136
				c-0.077-2.882,1.084-5.236,2.584-5.283C158.514,138.996,159.803,141.297,159.872,144.167z"/>
		</g>
	</g>
	<path fill="#AF9474" d="M79.809,177.372c-4.556,4.439-9.118,6.552-12.137,6.572h-0.151c-5.757,0-17.699-2.604-27-9.777
		c-1.541-1.184-3.035-2.565-4.539-4.177c-0.218,0.155-0.601,0.555-0.601,0.555c-5.737,4.082-10.898,9.527-15.264,15.934
		c4.265,6.667,9.167,12.886,14.617,18.573c0.642-0.731,1.036-1.116,1.064-1.145l0.75,0.79c-0.027,0.027-0.418,0.411-1.052,1.137
		c17.219,17.648,39.785,30.056,65.084,34.586C98.442,219.753,92.276,192.581,79.809,177.372z"/>
	<g>
		<path fill="#AF9474" d="M141.893,77.348c6.812-6.461,10.95-14.895,10.95-24.127c0-20.322-19.972-36.797-44.602-36.797
			c-24.631,0-44.603,16.475-44.603,36.797c0,20.32,19.971,36.794,44.603,36.794c8.477,0,16.403-1.955,23.157-5.344l16.086,11.09
			v-1.706L141.893,77.348z"/>
		<path fill="#FFFFFF" d="M141.893,75.639c6.812-6.461,10.95-14.893,10.95-24.128c0-20.323-19.972-36.795-44.602-36.795
			c-24.631,0-44.603,16.472-44.603,36.795c0,20.321,19.971,36.793,44.603,36.793c8.477,0,16.403-1.949,23.157-5.34l16.086,11.093
			L141.893,75.639z"/>
		<g>
			<path fill="#AF9474" d="M113.354,34.888c0.731,0.366,2.511,1.873,3.107,4.019c0.41,1.416,0.55,3.013,0.55,4.518
				c0,1.462-0.155,2.914-0.824,4.246c-0.778,1.557-2.482,3.385-3.14,4.076c-0.66,0.692-1.698,2.156-2.043,3.113
				c-0.371,1.024-0.339,4.545-0.339,5.231c0,0.229-0.958,0.503-1.642,0.503c-0.685,0-1.506-0.413-1.506-0.731
				c0-0.137-0.092-1.279-0.092-2.239c0-1.688,0.381-3.813,1.091-5.185c0.438-0.846,1.406-1.923,2.056-2.667
				c0.682-0.781,1.691-1.641,2.146-2.465c0.501-0.821,1.005-2.19,1.005-3.197c0-1.959-0.186-4.195-0.867-5.295
				c-1.213-1.939-4.138-1.692-6.049-1.039c-1.253,0.429-1.471,1.25-1.749,2.43c-0.244,1.027-0.933,1.298-1.493,1.298
				c-0.416,0-1.695-0.156-1.827-0.485c-0.175-0.438-0.057-1.11,0.068-1.899c0.527-3.258,3.046-4.216,5.841-4.869
				c0.595-0.135,1.829-0.135,2.466-0.135C111.209,34.157,112.623,34.521,113.354,34.888z M110.425,63.968
				c0.41,0.458,0.642,1.233,0.642,1.734c0,0.505,0,0.87-0.232,1.418c-0.271,0.639-1.048,1.003-2.099,1.003
				c-1.001,0-1.596-0.64-1.596-1.734c0-0.822,0.045-1.417,0.228-1.916c0.136-0.414,0.549-0.824,0.729-0.915
				c0.367-0.183,0.684-0.229,1.051-0.229C109.925,63.329,109.925,63.466,110.425,63.968z"/>
		</g>
	</g>
</g>
</svg>
