<?xml version="1.0" encoding="utf-8"?>
<!-- Generator: Adobe Illustrator 15.0.2, SVG Export Plug-In . SVG Version: 6.00 Build 0)  -->
<!DOCTYPE svg PUBLIC "-//W3C//DTD SVG 1.1//EN" "http://www.w3.org/Graphics/SVG/1.1/DTD/svg11.dtd">
<svg version="1.1" id="Layer_1" xmlns="http://www.w3.org/2000/svg" xmlns:xlink="http://www.w3.org/1999/xlink" x="0px" y="0px"
	 width="244px" height="244px" viewBox="0 0 244 244" enable-background="new 0 0 244 244" xml:space="preserve">
<circle fill="#AF9474" cx="122" cy="123" r="121"/>
<circle fill="#F9F4D5" cx="122" cy="121" r="121"/>
<g>
	<g>
		<g>
			<g>
				<g>
					<path fill="#AF9474" d="M59.843,94.971c-8.34-6.354-34.411-12.703-49.479,0.122c-3.432,2.922-6.082,6.031-8.132,9.233
						C1.426,109.959,1,115.715,1,121.572c0,12.386,1.868,24.336,5.331,35.587c3.579,3.088,7.628,6.246,10.362,7.032
						c-2.306-7.977-2.703-15.502,0.654-17.896c3.912-2.786,7.007-2.586,10.789-3.389c-0.189-9.63,0.645-16.615,4.449-22.645
						c3.207-5.068,10.645-9.597,17.593-11.225c5.157-1.212,11.478-1.551,15.929,0.519c5.254,2.438,6.87,9.715,7.776,16.976
						C75.428,114.001,68.458,101.542,59.843,94.971z"/>
					<path fill="#AF9474" d="M63.119,167.924c-4.374,5.442-9.102,8.245-12.292,8.541c-0.694,0.065-1.464,0.102-2.289,0.102
						c-6.356,0-16.821-1.961-25.396-7.471c-1.669-1.072-3.359-2.403-5.035-3.933l0.178,0.614l-1.892-0.543
						c-0.697-0.198-1.461-0.534-2.278-0.97c-1.446,0.909-2.848,1.872-4.21,2.89c13.063,32.036,39.48,57.204,72.341,68.588
						c-3.325-16.857-11.587-35.37-11.587-35.37s12.073,18.103,29.618,25.034l4.33-8.205
						C88.782,208.732,78.876,182.791,63.119,167.924z"/>
				</g>
				<g>
					<path fill="#AF9474" d="M72.802,126.666c-0.518-6.751-2.345-13.891-7.155-16.123c-1.982-0.923-4.497-1.39-7.47-1.39
						c-2.444,0-5.124,0.327-7.75,0.944c-6.888,1.614-14.004,6.133-16.922,10.747c-3.794,6.008-4.456,13.157-4.281,22.041
						l0.019,0.899l-0.882,0.188c-0.926,0.193-1.804,0.331-2.654,0.464c-2.659,0.413-4.953,0.772-7.726,2.744
						c-2.459,1.752-2.631,7.9-0.494,15.783c0.157,0.199,0.312,0.399,0.468,0.579c1.753,1.686,3.684,3.291,5.778,4.64
						c9.45,6.074,21.31,7.732,26.996,7.2c7.004-0.651,20.661-13.893,22.259-39.012c0.004-0.186,0.021-1.073,0.021-1.073
						C73.132,131.218,72.966,128.816,72.802,126.666z M49.98,140.66c-1.41,0.154-2.789-1.893-3.104-4.574
						c-0.296-2.678,0.584-4.984,1.984-5.148c1.402-0.157,2.788,1.885,3.093,4.568C52.269,138.189,51.371,140.497,49.98,140.66z
						 M66.622,138.923c-1.235,0.14-2.488-1.967-2.805-4.708c-0.31-2.745,0.431-5.078,1.667-5.215
						c1.229-0.146,2.476,1.965,2.799,4.705C68.59,136.441,67.841,138.771,66.622,138.923z"/>
				</g>
			</g>
		</g>
		<g>
			<path fill="#AF9474" d="M114.521,222.127c0.29,0.054,0.55,0.089,0.76,0.115c2.235,0.282,4.438,1.127,5.12,3.553
				c0.742,2.604-0.362,4.607-2.847,5.555c-2.031,0.765-4.109,1.073-6.264,0.591c-3.398-0.756-7.447-2.859-8.137-6.641
				c-0.576-3.134,1.529-5.6,3.624-7.581c1.369-1.289,4.359-2.665,6.196-1.293c1.578,1.173,0.187,2.129-0.708,2.723
				C109.633,220.873,112.654,221.786,114.521,222.127z"/>
		</g>
	</g>
	<g>
		<path fill="#AF9474" d="M75.334,74.907c-6.703-6.356-10.771-14.654-10.771-23.739c0-19.997,19.65-36.206,43.883-36.206
			c24.236,0,43.885,16.209,43.885,36.206c0,19.991-19.649,36.201-43.885,36.201c-8.34,0-16.141-1.92-22.784-5.257L69.836,93.023
			v-1.68L75.334,74.907z"/>
		<path fill="#FFFFFF" d="M75.334,73.225c-6.702-6.357-10.771-14.655-10.771-23.738c0-19.999,19.65-36.203,43.883-36.203
			c24.236,0,43.885,16.204,43.885,36.203c0,19.993-19.649,36.201-43.885,36.201c-8.34,0-16.141-1.922-22.784-5.256L69.836,91.343
			L75.334,73.225z"/>
	</g>
	<g>
		<path fill="#AF9474" d="M130.072,37.997H86.819c-0.451,0-0.818-0.365-0.818-0.816s0.367-0.816,0.818-0.816h43.253
			c0.45,0,0.815,0.365,0.815,0.816S130.522,37.997,130.072,37.997z"/>
		<path fill="#AF9474" d="M130.072,45.824H86.819c-0.451,0-0.818-0.365-0.818-0.815c0-0.451,0.367-0.816,0.818-0.816h43.253
			c0.45,0,0.815,0.365,0.815,0.816C130.888,45.459,130.522,45.824,130.072,45.824z"/>
		<path fill="#AF9474" d="M130.072,53.647H86.819c-0.451,0-0.818-0.366-0.818-0.816c0-0.45,0.367-0.816,0.818-0.816h43.253
			c0.45,0,0.815,0.366,0.815,0.816C130.888,53.282,130.522,53.647,130.072,53.647z"/>
		<path fill="#AF9474" d="M113.259,61.476h-26.44c-0.451,0-0.818-0.365-0.818-0.816s0.367-0.817,0.818-0.817h26.44
			c0.451,0,0.815,0.366,0.815,0.817S113.71,61.476,113.259,61.476z"/>
	</g>
	<g>
		<g>
			<g>
				<g>
					<g>
						<path fill="#C83B0C" d="M202.93,124.5l-0.23-0.139c-5.313-3.157-15.931-9.462-20.384-16.381
							c-4.499,6.975-14.094,11.611-21.238,15.062c-0.828,0.4-1.625,0.786-2.387,1.159c-4.766,2.35-7.948,6.245-9.814,10.606
							c0,0,0,0-0.002,0l-0.257,0.536c-2.493-1.191-4.647-1.291-6.238-0.291c-1.794,1.133-2.742,3.581-2.742,7.086
							c0,3.873,1.401,7.307,3.411,8.345c1.197,0.621,2.585,0.41,4.121-0.601c0.085,0.812,0.169,1.604,0.251,2.377
							c7.972,15.572,23.154,23.648,32.381,23.31c7.604-0.276,19.519-7.663,27.127-19.85
							C206.493,145.478,205.452,131.124,202.93,124.5z"/>
						<path fill="#F9F4D5" d="M165.348,133.408c1.901-0.08,3.494,2.241,3.543,5.207c0.053,2.951-1.455,5.403-3.354,5.486
							c-1.918,0.081-3.501-2.248-3.554-5.204C161.934,135.948,163.449,133.488,165.348,133.408z"/>
						<path fill="#F9F4D5" d="M190.64,144.102c-1.846,0.071-3.378-2.306-3.428-5.32c-0.046-3.017,1.415-5.522,3.256-5.6
							c1.841-0.072,3.372,2.311,3.418,5.321C193.939,141.522,192.465,144.019,190.64,144.102z"/>
					</g>
				</g>
			</g>
		</g>
		<g>
			<path fill="#C83B0C" d="M217.338,116.862c-8.097-17.545-17.234-25.975-31.979-27.731c-22.156-3.78-42.059,10.252-48.228,29.744
				c-0.932,2.953-1.582,6.075-2.016,9.269c2.78,0.35,5.413,2.834,7.237,5.699c1.598-0.765,3.547-0.741,5.723,0.089
				c1.992-4.417,5.296-8.322,10.136-10.705c7.87-3.877,19.944-9.023,24.11-17.452c0.003,0.007,0.007,0.015,0.011,0.021
				c0.73-1.386,1.387-2.986,1.573-4.161l1.076,0.167c-0.24,1.535-1.138,3.56-2.026,5.122c4.195,7.033,15.498,13.648,20.658,16.715
				h0.001c2.599,1.61,5.821,2.638,7.456,3.094c-0.981-2.345-3.304-8.19-3.963-12.563l1.077-0.162
				c0.802,5.33,4.284,13.232,4.321,13.311l0.437,0.99l-1.056-0.24c-0.181-0.04-4.026-0.926-7.532-2.762
				c3.841,12.077,3.964,41.904,3.964,41.904l7.268-11.207l2.622,5.673C218.209,161.676,225.556,134.681,217.338,116.862z"/>
		</g>
		<g>
			<g>
				<path fill="#C83B0C" d="M142.548,151.45c-2.765-1.429-4-5.706-4-9.312c0-3.653,1.002-6.298,2.878-7.725
					c-2.471-3.895-6.401-6.875-9.705-4.201c-2.626,2.125-0.916,7.491-0.681,11.784c0.312,5.677,0.362,9.184,1.394,10.768
					c2.475,3.799,6.041,2.832,9.049,0.448c0.499-0.397,0.972-0.957,1.418-1.604C142.778,151.562,142.656,151.507,142.548,151.45z"/>
			</g>
		</g>
		<g>
			<path fill="#C83B0C" d="M193.204,171.505c-4.657,3.101-9.422,5.009-13.364,5.153c-0.197,0.006-0.399,0.01-0.603,0.01
				c-4.999,0-10.967-2.15-16.534-5.78c-1.783,0.516-3.416,1.146-4.936,1.86c-5.475,2.346-9.185,6.295-12.21,9.576
				c-3.061,3.317-5.474,5.932-8.462,5.373c-0.897-0.169-1.611-0.692-2.12-1.562c-2.94-5.025,1.882-21.03,4.304-28.252l-9.842-3.013
				c-9.352,13.483-17.265,38.178-7.998,50.136c8.048,10.384,17.068,5.742,17.448,5.54c0.164-0.087,0.35-0.075,0.505,0.006
				l0.401-0.77c-0.642,1.719-5.215,14.332-8.399,32.217c37.726-2.961,70.579-23.253,90.605-52.916
				C214.131,180.938,204.643,174.679,193.204,171.505z"/>
			<g>
				<path fill="#C83B0C" d="M139.599,156.841l1.069,0.326l-0.284,0.847l7.704,9.196c0,0-0.836-6.217-1.835-15.64
					c-0.648,0.243-1.24,0.351-1.771,0.351c-0.159,0-0.309-0.016-0.46-0.031c-0.562,0.874-1.185,1.634-1.861,2.175
					c-1.521,1.204-2.996,1.941-4.406,2.211L139.599,156.841z"/>
			</g>
		</g>
	</g>
</g>
</svg>
