<?xml version="1.0" encoding="utf-8"?>
<!-- Generator: Adobe Illustrator 15.0.2, SVG Export Plug-In . SVG Version: 6.00 Build 0)  -->
<!DOCTYPE svg PUBLIC "-//W3C//DTD SVG 1.1//EN" "http://www.w3.org/Graphics/SVG/1.1/DTD/svg11.dtd">
<svg version="1.1" id="Layer_1" xmlns="http://www.w3.org/2000/svg" xmlns:xlink="http://www.w3.org/1999/xlink" x="0px" y="0px"
	 width="244px" height="244px" viewBox="0 0 244 244" enable-background="new 0 0 244 244" xml:space="preserve">
<circle fill="#AF9474" cx="122" cy="123" r="121"/>
<circle fill="#F9F4D5" cx="122" cy="121" r="121"/>
<g>
	<g>
		<g>
			<g>
				<g>
					<g>
						<path fill="#C83B0C" d="M137.535,133.044c3.316,3.378,7.646,6.108,12.839,7.997l2.549-4.732
							c-1.581-0.933-2.915-1.936-4.049-2.975C144.964,132.346,141.034,132.178,137.535,133.044z"/>
					</g>
					<g>
						<path fill="#C83B0C" d="M169.662,150.07c-0.316-0.762-0.691-1.5-1.094-2.228c-4.407,3.513-13.328,4.872-21.723,4.872
							c-8.726,0-18.266-1.527-22.101-4.824c-3.976,14-0.136,29.889-12.364,42.133l4.204,4.164
							c14.813-6.004,26.123-15.557,30.489-27.483c10.386,4.407,15.854,16.263,16.578,30.756l4.945,0.675
							C175.297,181.492,175.336,163.725,169.662,150.07z"/>
					</g>
				</g>
				<g>
					<path fill="#C83B0C" d="M156.908,140.229c-1.527-1.02,1.783-0.783,1.264-2.141c-0.465-1.218-3.064-1.029-4.01-0.57
						c-1.391,0.682-2.008,2.287-1.855,3.75c0.116,1.146,1.262,2.887,2.26,3.461c1.529,0.881,3.602,1.955,4.99,0.369
						c1.043-1.191,1.006-3.024-0.387-3.935C158.736,140.882,157.562,140.663,156.908,140.229z"/>
					<g>
						<path fill="#C83B0C" d="M169.594,113.7c-0.576-5.231-1.986-10.417-4.49-14.594l-0.225,0.212l-1.391,1.314l-0.284-1.893
							l-0.427-2.839c-0.237-0.271-0.48-0.536-0.733-0.792c-6.254,3.941-13.162,5.365-17.351,5.365c-0.723,0-1.387-0.042-1.971-0.124
							c-0.145-0.02-1.434-0.234-2.57-1.014c-1.137-0.78-1.924-1.38-3.004-2.563c-5.099,5.436-7.797,13.282-6.932,21.042
							c1.18,10.547,8.518,18.995,20.156,23.226l2.549-4.731c-13.318-7.861-9.559-20.533-9.52-20.662l0.955,0.297
							c-0.153,0.499-3.627,12.305,9.48,19.738l0.426,0.242l-0.328,0.61c0.568-0.228,1.348-0.371,2.113-0.371
							c1.562,0,2.676,0.571,3.055,1.565c0.394,1.026-0.151,1.67-0.728,2.054c0.071,0.024,0.14,0.048,0.207,0.069
							c0.444,0.147,0.829,0.275,1.132,0.473c0.854,0.557,1.396,1.41,1.534,2.402c0.147,1.071-0.196,2.176-0.942,3.026
							c-0.66,0.755-1.533,1.154-2.524,1.154c-1.32,0-2.611-0.681-3.716-1.315c-1.284-0.736-2.588-2.729-2.752-4.195l-0.469,0.871
							l-0.402-0.143c-12.25-4.314-19.984-13.136-21.221-24.202c-0.156-1.404-0.19-2.811-0.129-4.208
							c-2.447,7.001-6.735,22.188-5.045,31.348c1.568,8.526,45.331,9.889,46.303-2.063
							C171.139,133.359,170.939,125.896,169.594,113.7z"/>
						<path fill="#C83B0C" d="M158.172,138.088c-0.26-0.682-1.188-0.923-2.121-0.923c-0.734,0-1.473,0.149-1.889,0.353
							c-1.391,0.682-2.008,2.287-1.855,3.75c0.116,1.146,1.262,2.887,2.26,3.461c0.959,0.553,2.134,1.183,3.218,1.183
							c0.644,0,1.256-0.222,1.772-0.812c1.043-1.192,1.006-3.025-0.387-3.936c-0.434-0.281-1.607-0.5-2.262-0.936
							C155.381,139.209,158.691,139.445,158.172,138.088z"/>
					</g>
				</g>
				<g>
					<path fill="#C83B0C" d="M166.137,204.521c1.734,0.283,5.738,0.814,7.184-0.078c3.127-1.904-1.893-4.123-4.434-4.936
						C162.35,197.436,158.398,203.27,166.137,204.521z"/>
				</g>
				<g>
					<path fill="#C83B0C" d="M109.856,197.165c1.188,0.851,3.971,2.733,5.383,2.608c3.039-0.267,0.408-4.832-1.193-6.379
						C109.944,189.417,104.549,193.352,109.856,197.165z"/>
				</g>
			</g>
			<g>
				<path fill="#C83B0C" d="M130.21,74.583c0.162-5.967,2.181-11.334,5.81-15.624c-1.062,0.15-2.074,0.321-2.979,0.504
					c-0.354,0.412-0.692,0.857-1.013,1.341c-5.603,8.577-3.68,22.929-3.68,22.929l1.207-1.263l1.707,3.719l0.254-0.268
					C130.617,82.647,130.094,78.869,130.21,74.583z"/>
				<g>
					<g>
						<path fill="#C83B0C" d="M158.971,93.839l0.5,0.006l-0.498-0.096l0.018-1.715l0.771,0.522c0.27,0.183,0.532,0.37,0.788,0.567
							l0.63,0.484l-0.709,0.358c-0.246,0.125-0.479,0.231-0.676,0.3c-0.061,0.021-0.124,0.042-0.188,0.06l-0.645,0.183
							L158.971,93.839z"/>
						<path fill="#F9F4D5" d="M159.479,92.97c0.262,0.177,0.518,0.358,0.766,0.549c-0.225,0.113-0.438,0.211-0.615,0.274
							c-0.054,0.02-0.105,0.037-0.158,0.051c0.002-0.081,0.002-0.188,0.004-0.332C159.477,93.326,159.479,93.155,159.479,92.97
							 M158.499,91.098l-0.021,1.862l-0.002,0.277l-0.002,0.267l-0.004,0.24l-0.001,0.089l-0.017,1.339l1.289-0.365
							c0.074-0.021,0.15-0.046,0.228-0.074c0.19-0.067,0.425-0.17,0.724-0.321l1.42-0.716l-1.26-0.97
							c-0.265-0.203-0.535-0.396-0.812-0.584L158.499,91.098L158.499,91.098z"/>
					</g>
				</g>
			</g>
		</g>
		<polygon fill="#C8A95C" points="232.109,122 200.271,108.994 205.504,118 179.711,118 179.711,126 205.504,126 200.271,135.01 		
			"/>
		<g>
			<g>
				<g>
					<path fill="#AF9474" d="M37.947,203.172c1.471,0.309,4.868,0.909,6.139,0.207c2.741-1.514-1.461-3.6-3.606-4.385
						C34.974,196.977,31.385,201.814,37.947,203.172z"/>
				</g>
				<g>
					<path fill="#AF9474" d="M68.323,196.602c1.486,0.209,4.915,0.604,6.142-0.18c2.638-1.679-1.685-3.502-3.875-4.15
						C64.971,190.602,61.687,195.65,68.323,196.602z"/>
				</g>
				<g>
					<g>
						<path fill="#AF9474" d="M26.171,146.059c-0.884-1.021-1.309-2.144-1.264-3.338c0.008-0.226,0.221-4.715,0.221-4.715
							l0.82,3.514c0.312,1.338,0.676,2.707,1.08,4.068l0.658,2.219L26.171,146.059z"/>
						<path fill="#F9F4D5" d="M25.461,141.633c0.318,1.361,0.681,2.727,1.087,4.098c-0.773-0.892-1.184-1.887-1.143-2.991
							C25.42,142.361,25.444,142.004,25.461,141.633 M24.794,134.379l-0.332,7.208l-0.023,0.445
							c-0.012,0.221-0.024,0.44-0.033,0.669c-0.05,1.326,0.417,2.564,1.387,3.686l3.029,3.493l-1.315-4.435
							c-0.401-1.354-0.762-2.713-1.072-4.04L24.794,134.379L24.794,134.379z"/>
					</g>
					<path fill="#AF9474" d="M89.425,137.443c-1.169-12.828-8.053-33.68-19.509-43.901c-2.868,3.41-6.029,5.224-8.412,5.241h-0.088
						c-3.243,0-9.967-1.464-15.198-5.496c-1.041-0.802-2.076-1.787-3.077-2.923c-0.983,0.735-1.93,1.635-2.846,2.667l0.039,0.055
						c-15.369,10.934-19.769,33.902-11.021,57.281l4.823-1.571c-4.153-25.827,8.922-38.573,9.055-38.7l0.797,0.839
						c-0.129,0.124-12.921,12.646-8.629,38.161l0.082,0.492l-0.635,0.207c15.505,3.934,44.77,1.268,44.927-6.344
						c0.291-14.338-7.155-32.398-7.155-32.398s9.053,15.859,10.486,27.263L89.425,137.443z"/>
				</g>
				<g>
					<path fill="#AF9474" d="M35.465,154.805c0.542,0.236,1.126,0.756,1.456,0.922c1.167,0.597,1.254-0.737,1.093-1.535
						c-0.253-1.256-0.958-2.512-2.186-3.031c-1.499-0.637-3.298-0.887-4.698,0.117c-2.179,1.565-2.754,6.033-0.736,7.953
						c0.53,0.502,1.221,0.854,1.884,1.095c0.731,0.262,1.509,0.387,2.272,0.239c2.208-0.426,0.277-2.938-0.218-4.004
						c-0.227-0.488-0.416-1.203-0.028-1.652C34.719,154.95,34.938,154.578,35.465,154.805z"/>
					<g>
						<g>
							<path fill="#AF9474" d="M33.292,150.605c-0.76,0.01-1.505,0.201-2.161,0.672c-2.179,1.564-2.754,6.033-0.736,7.953
								c0.53,0.5,1.221,0.854,1.884,1.094c0.517,0.186,1.06,0.302,1.603,0.302c0.224,0,0.447-0.019,0.669-0.062
								c2.208-0.426,0.277-2.938-0.218-4.004c-0.227-0.488-0.416-1.203-0.028-1.652c0.023,0.002,0.045,0.003,0.068,0.003
								c0.278,0,0.473-0.181,0.762-0.181c0.097,0,0.205,0.021,0.33,0.074c0.542,0.236,1.126,0.756,1.456,0.922
								c0.203,0.104,0.373,0.148,0.515,0.148c0.675,0,0.711-1.025,0.579-1.684c-0.238-1.184-0.882-2.355-1.979-2.926
								c-0.518-0.111-1.03-0.226-1.515-0.349L33.292,150.605z"/>
						</g>
						<g>
							<path fill="#AF9474" d="M51.919,152.758c-4.946,0-9.681-0.375-13.721-1.068c0.446,0.639,0.775,1.404,0.95,2.273
								c0.075,0.369,0.265,1.635-0.404,2.452c-0.326,0.397-0.791,0.617-1.309,0.617c-0.333,0-0.684-0.093-1.033-0.272
								c-0.214-0.107-0.42-0.254-0.66-0.425c-0.11-0.079-0.232-0.166-0.353-0.247c0.075,0.16,0.186,0.354,0.307,0.57
								c0.604,1.066,1.43,2.531,0.849,3.785c-0.21,0.457-0.691,1.047-1.775,1.256c-0.289,0.056-0.587,0.084-0.89,0.084
								c-0.635,0-1.306-0.125-1.997-0.371c-0.931-0.336-1.7-0.788-2.288-1.344c-1.14-1.086-1.718-2.827-1.583-4.777
								c0.096-1.382,0.548-2.678,1.238-3.686l-0.634,0.207l-0.388-1.037c-0.719-1.922-1.341-3.84-1.885-5.752
								c-0.896,16.985,3.646,35.356,8.894,52.295l5.381,0.082c3.85-15.224,6.873-25.358,12.973-33.25
								c5.205,6.764,8.529,12.947,12.01,26.683h5.902c3.78-16.368,5.821-29.886,6.283-42.903
								C72.665,151.221,62,152.758,51.919,152.758z"/>
						</g>
					</g>
				</g>
				<g>
					<path fill="#AF9474" d="M75.678,76.801l0.025-0.269c0.146-1.575,0.184-3.18,0.127-4.77c-0.147-3.851-0.622-7.529-3.125-9.029
						c-2.055-1.227-5.875-1.333-8.455-0.952c-3.429,0.516-7.742,2.606-9.557,4.999c-2.355,3.106-3.053,6.998-3.375,11.885
						L51.275,79.3l-0.629,0.077c-0.528,0.069-1.024,0.102-1.503,0.136c-0.958,0.063-1.866,0.13-2.815,0.437
						c-0.513,0.164-1.003,0.392-1.507,0.69c-1.417,0.84-1.757,4.32-0.874,8.893c0.889,1.016,1.879,1.993,2.977,2.839
						c4.93,3.8,11.404,5.28,14.57,5.254c3.902-0.026,12.074-6.697,14.144-20.501C75.649,77.026,75.662,76.915,75.678,76.801z
						 M61.231,75.733c-0.043-1.494,0.556-2.727,1.336-2.751c0.78-0.02,1.453,1.175,1.492,2.672c0.048,1.498-0.558,2.727-1.334,2.749
						C61.939,78.426,61.275,77.229,61.231,75.733z M73.167,75.43c0.042,1.527-0.481,2.781-1.165,2.801
						c-0.689,0.02-1.283-1.202-1.326-2.73c-0.041-1.529,0.479-2.784,1.168-2.803C72.527,72.677,73.12,73.901,73.167,75.43z"/>
					<g>
						<path fill="#AF9474" d="M44.232,79.644c0.592-0.35,1.162-0.61,1.739-0.795c1.109-0.36,2.165-0.43,3.089-0.491l0.119-0.008
							c0.326-0.023,0.661-0.048,1.006-0.084c0.346-4.945,1.11-8.92,3.586-12.186c2.166-2.853,6.926-4.934,10.31-5.444
							c0.921-0.136,1.943-0.208,2.957-0.208c1.518,0,4.35,0.171,6.262,1.312c2.51,1.505,3.291,4.644,3.57,8.072
							c0.547-6.245-2.499-12.521-6.532-16.181c-4.308-3.906-18.41-8.652-27.345-2.274c-14.488,10.334-8.127,27.647-7.008,32.158
							c1.942,2.082,4.799,5.08,6.801,6.1C42.302,87.046,41.546,81.237,44.232,79.644z"/>
					</g>
				</g>
			</g>
			<g>
				<path fill="#AF9474" d="M85.917,145.682c0.044,0.161,0.08,0.312,0.104,0.428c0.273,1.271,0.865,2.496,2.294,2.771
					c1.533,0.295,2.63-0.438,3.05-1.914c0.339-1.203,0.417-2.416,0.033-3.629c-0.602-1.916-2.01-4.138-4.218-4.35
					c-1.83-0.176-3.141,1.154-4.177,2.459c-0.673,0.846-1.318,2.633-0.441,3.623c0.756,0.85,1.236,0.004,1.533-0.543
					C84.957,142.932,85.628,144.623,85.917,145.682z"/>
			</g>
		</g>
	</g>
	<g>
		<path fill="#C83B0C" d="M147.051,58.273c4.928,1.236,8.234,6.889,9.238,9.462c0.576,1.474,2.085,4.157,2.709,10.911
			c0.47,5.05,0.26,15.344,0.271,15.446c1.34-0.22,3.905-2.288,3.905-2.288l1.019,6.787l5.246-4.955l0.641,3.59
			c0,0,5.916-10.964,6.768-20.376c0.81-8.942-3.19-16.299-6.932-19.965c-3.109-3.039-6.398-5.23-11.205-6.129
			c-5.311-0.987-9.848-0.053-16.051,0.533c-4.942,0.466-14.535-0.006-14.535-0.006l6.873,3.883l-6.691,4.597
			C128.307,59.764,139.548,56.389,147.051,58.273z"/>
		<path fill="#C83B0C" d="M162.434,93.599c-0.924,0.632-2.109,1.334-3.002,1.48l-1.025,0.168l-0.129-1.032
			c-0.01-0.082-0.01-0.082-0.002-0.73c0.084-6.936-0.008-11.897-0.272-14.748c-0.524-5.677-1.667-8.341-2.351-9.933
			c-0.112-0.264-0.213-0.497-0.295-0.707c-0.807-2.069-3.914-7.692-8.551-8.855c-1.432-0.359-3.129-0.542-5.047-0.542
			c-1.494,0-3.008,0.113-4.453,0.283c-3.55,3.913-5.923,9.216-6.098,15.626c-0.421,15.579,7.498,24.173,11.65,24.75
			c3.949,0.554,12.43-0.844,19.582-5.709L162.434,93.599z M136.273,74.715c-0.252,1.554-1.025,2.718-1.729,2.604
			c-0.69-0.109-1.058-1.464-0.803-3.015c0.25-1.552,1.024-2.72,1.722-2.607C136.16,71.81,136.525,73.162,136.273,74.715z
			 M145.914,76.81c-0.25,1.522-1.091,2.65-1.889,2.521c-0.793-0.129-1.238-1.466-0.991-2.986c0.247-1.526,1.091-2.652,1.888-2.524
			C145.711,73.95,146.16,75.289,145.914,76.81z"/>
	</g>
</g>
</svg>
