<?xml version="1.0" encoding="utf-8"?>
<!-- Generator: Adobe Illustrator 15.0.2, SVG Export Plug-In . SVG Version: 6.00 Build 0)  -->
<!DOCTYPE svg PUBLIC "-//W3C//DTD SVG 1.1//EN" "http://www.w3.org/Graphics/SVG/1.1/DTD/svg11.dtd">
<svg version="1.1" id="Layer_1" xmlns="http://www.w3.org/2000/svg" xmlns:xlink="http://www.w3.org/1999/xlink" x="0px" y="0px"
	 width="244px" height="244px" viewBox="0 0 244 244" enable-background="new 0 0 244 244" xml:space="preserve">
<circle fill="#AF9474" cx="122" cy="123" r="121"/>
<circle fill="#F9F4D5" cx="122" cy="121" r="121"/>
<g>
	<g>
		<path fill="#C8A95C" d="M121.857,35.544c-15.141,0-27.413,12.273-27.413,27.415c0,15.139,12.272,27.414,27.413,27.414
			c15.14,0,27.415-12.275,27.415-27.414C149.271,47.817,136.997,35.544,121.857,35.544z M121.857,86.926
			c-13.239,0-23.967-10.731-23.967-23.966c0-13.239,10.728-23.968,23.967-23.968c13.237,0,23.968,10.729,23.968,23.968
			c0,4.316-1.142,8.368-3.14,11.865C138.558,82.053,130.777,86.926,121.857,86.926z"/>
		<path fill="#E3D29C" d="M145.825,62.96c0,4.316-1.142,8.368-3.14,11.865l-20.829-11.866V38.992
			C135.094,38.992,145.825,49.721,145.825,62.96z"/>
		<path fill="#C8A95C" d="M123.975,62.959c0,0.381-0.101,0.74-0.277,1.048c-0.363,0.639-1.052,1.068-1.839,1.068
			c-1.17,0-2.118-0.948-2.118-2.117c0-1.17,0.948-2.118,2.118-2.118C123.026,60.841,123.975,61.789,123.975,62.959z"/>
		<g>
			<g>
				<g>
					<path fill="#C8A95C" d="M121.857,46.186c-0.546,0-0.99-0.443-0.99-0.99v-2.242c0-0.546,0.443-0.99,0.99-0.99
						s0.991,0.443,0.991,0.99v2.242C122.848,45.744,122.403,46.186,121.857,46.186z"/>
					<path fill="#C8A95C" d="M121.857,83.953c-0.546,0-0.99-0.443-0.99-0.99v-2.241c0-0.547,0.443-0.99,0.99-0.99
						s0.991,0.443,0.991,0.99v2.241C122.848,83.509,122.403,83.953,121.857,83.953z"/>
				</g>
			</g>
			<g>
				<g>
					<path fill="#C8A95C" d="M112.975,48.565c-0.342,0-0.675-0.177-0.858-0.495l-1.12-1.941c-0.273-0.474-0.111-1.079,0.362-1.352
						c0.474-0.274,1.078-0.111,1.352,0.362l1.12,1.941c0.273,0.474,0.111,1.079-0.362,1.352
						C113.314,48.522,113.144,48.565,112.975,48.565z"/>
					<path fill="#C8A95C" d="M131.859,81.271c-0.343,0-0.675-0.177-0.858-0.495l-1.12-1.941c-0.271-0.474-0.11-1.079,0.364-1.352
						c0.473-0.274,1.078-0.112,1.351,0.362l1.12,1.941c0.272,0.474,0.11,1.079-0.361,1.353
						C132.197,81.229,132.027,81.271,131.859,81.271z"/>
				</g>
			</g>
			<g>
				<g>
					<path fill="#C8A95C" d="M106.475,55.066c-0.167,0-0.338-0.042-0.494-0.133l-1.941-1.119c-0.474-0.273-0.637-0.878-0.364-1.352
						c0.272-0.473,0.878-0.637,1.353-0.364l1.941,1.119c0.474,0.273,0.637,0.878,0.363,1.353
						C107.15,54.888,106.816,55.066,106.475,55.066z"/>
					<path fill="#C8A95C" d="M139.18,73.95c-0.168,0-0.338-0.042-0.494-0.132l-1.939-1.12c-0.475-0.274-0.637-0.879-0.363-1.353
						c0.272-0.474,0.878-0.637,1.353-0.362l1.939,1.12c0.475,0.273,0.637,0.879,0.363,1.352
						C139.855,73.773,139.521,73.95,139.18,73.95z"/>
				</g>
			</g>
			<g>
				<g>
					<path fill="#C8A95C" d="M104.093,63.948h-2.24c-0.547,0-0.99-0.443-0.99-0.99c0-0.546,0.443-0.99,0.99-0.99h2.24
						c0.547,0,0.99,0.444,0.99,0.99C105.083,63.505,104.64,63.948,104.093,63.948z"/>
					<path fill="#C8A95C" d="M141.86,63.948h-2.239c-0.548,0-0.99-0.443-0.99-0.99c0-0.546,0.442-0.99,0.99-0.99h2.239
						c0.547,0,0.991,0.444,0.991,0.99C142.852,63.505,142.407,63.948,141.86,63.948z"/>
				</g>
			</g>
			<g>
				<g>
					<path fill="#C8A95C" d="M104.535,73.95c-0.342,0-0.675-0.177-0.858-0.495c-0.273-0.474-0.11-1.079,0.364-1.352l1.941-1.12
						c0.473-0.273,1.08-0.111,1.353,0.363c0.273,0.474,0.111,1.079-0.363,1.353l-1.941,1.12
						C104.873,73.908,104.703,73.95,104.535,73.95z"/>
					<path fill="#C8A95C" d="M137.241,55.066c-0.344,0-0.676-0.178-0.858-0.495c-0.273-0.474-0.111-1.079,0.363-1.353l1.94-1.119
						c0.472-0.273,1.079-0.11,1.352,0.364s0.111,1.079-0.363,1.352l-1.94,1.119C137.579,55.024,137.408,55.066,137.241,55.066z"/>
				</g>
			</g>
			<g>
				<g>
					<path fill="#C8A95C" d="M111.854,81.271c-0.167,0-0.338-0.042-0.494-0.132c-0.473-0.273-0.636-0.879-0.362-1.353l1.12-1.941
						c0.273-0.474,0.878-0.636,1.353-0.362c0.473,0.273,0.635,0.879,0.362,1.352l-1.12,1.941
						C112.529,81.094,112.196,81.271,111.854,81.271z"/>
					<path fill="#C8A95C" d="M130.737,48.565c-0.167,0-0.337-0.043-0.492-0.133c-0.475-0.273-0.637-0.879-0.364-1.352l1.12-1.941
						c0.272-0.473,0.878-0.637,1.354-0.362c0.473,0.273,0.636,0.879,0.361,1.352l-1.12,1.941
						C131.413,48.388,131.079,48.565,130.737,48.565z"/>
				</g>
			</g>
		</g>
	</g>
	<g>
		<g>
			<g>
				<path fill="#AF9474" d="M59.675,208.628c1.471,0.208,4.862,0.597,6.074-0.178c2.609-1.66-1.665-3.463-3.832-4.105
					C56.359,202.694,53.11,207.687,59.675,208.628z"/>
			</g>
			<g>
				<path fill="#AF9474" d="M27.546,166.914c0.535,0.232,1.114,0.747,1.439,0.912c1.155,0.59,1.24-0.731,1.082-1.521
					c-0.251-1.241-0.947-2.484-2.162-2.998c-1.482-0.627-3.263-0.875-4.646,0.117c-2.154,1.549-2.724,5.967-0.728,7.866
					c0.522,0.497,1.204,0.848,1.862,1.083c0.722,0.26,1.493,0.382,2.249,0.235c2.183-0.419,0.274-2.904-0.215-3.959
					c-0.224-0.484-0.411-1.192-0.028-1.637C26.808,167.057,27.023,166.689,27.546,166.914z"/>
				<path fill="#AF9474" d="M30.24,164.098c0.369,0.578,0.645,1.255,0.799,2.014c0.07,0.348,0.249,1.542-0.369,2.299
					c-0.292,0.354-0.71,0.553-1.175,0.553c-0.305,0-0.627-0.085-0.958-0.255c-0.196-0.1-0.392-0.24-0.62-0.403
					c-0.233-0.165-0.493-0.352-0.709-0.457c-0.005,0.002-0.011,0.004-0.016,0.006c0.023,0.102,0.064,0.229,0.133,0.378
					c0.075,0.165,0.19,0.365,0.316,0.588c0.58,1.029,1.375,2.439,0.833,3.61c-0.193,0.419-0.637,0.959-1.645,1.154
					c-0.276,0.052-0.563,0.079-0.854,0.079c-0.613,0-1.259-0.121-1.917-0.355c-0.9-0.323-1.643-0.761-2.21-1.298
					c-1.095-1.043-1.649-2.719-1.52-4.601c0.101-1.469,0.613-2.839,1.393-3.844h-0.001l-0.901,0.294l-0.333-0.887
					c-0.393-1.047-0.618-1.665-0.954-2.713c-0.411-0.319-1.163-0.793-1.433-1.023c-0.332,9.512,1.01,19.221,3.17,29.056
					c3.697,5.589,7.845,10.848,12.394,15.733c3.207-12.124,6.156-20.66,11.439-27.492c5.148,6.688,8.436,12.806,11.88,26.391h5.837
					c3.754-16.26,5.775-29.678,6.221-42.604c-4.979,3.264-15.574,4.787-25.583,4.787C38.687,165.104,34.152,164.751,30.24,164.098z"
					/>
			</g>
			<g>
				<path fill="#AF9474" d="M66.951,90.129l0.022-0.267c0.146-1.559,0.185-3.146,0.127-4.718c-0.145-3.81-0.614-7.447-3.09-8.932
					c-2.032-1.212-5.812-1.317-8.363-0.941c-3.392,0.511-7.658,2.578-9.455,4.944c-2.33,3.073-3.019,6.922-3.336,11.756
					l-0.044,0.628l-0.623,0.076c-0.521,0.066-1.013,0.1-1.487,0.135c-0.948,0.063-1.845,0.128-2.784,0.432
					c-0.507,0.161-0.992,0.39-1.49,0.683c-1.402,0.831-1.74,4.273-0.867,8.798c0.88,1.002,1.859,1.969,2.946,2.807
					c4.875,3.759,11.281,5.221,14.413,5.198c3.859-0.027,11.941-6.625,13.989-20.279C66.922,90.349,66.936,90.241,66.951,90.129z
					 M52.661,89.072c-0.042-1.479,0.55-2.696,1.321-2.722c0.772-0.02,1.437,1.163,1.477,2.643c0.047,1.481-0.552,2.696-1.32,2.721
					C53.362,91.736,52.705,90.554,52.661,89.072z M64.468,88.771c0.041,1.51-0.479,2.75-1.154,2.769
					c-0.681,0.021-1.268-1.187-1.312-2.7c-0.041-1.51,0.474-2.753,1.157-2.771C63.834,86.049,64.421,87.26,64.468,88.771z"/>
				<g>
					<path fill="#AF9474" d="M35.926,93.071c0.58-0.341,1.134-0.595,1.688-0.771c1.076-0.349,2.111-0.417,3.017-0.477l0.13-0.009
						c0.362-0.027,0.734-0.053,1.12-0.098c0.335-4.922,1.075-8.869,3.523-12.098c2.118-2.791,6.782-4.827,10.098-5.326
						c0.903-0.133,1.906-0.204,2.902-0.204c1.486,0,4.255,0.165,6.115,1.275c2.633,1.579,3.303,5.043,3.516,8.715
						C68.955,77.623,65.845,71,61.67,67.211c-4.262-3.863-18.211-8.557-27.049-2.25c-14.329,10.223-8.038,27.347-6.931,31.808
						c1.975,2.118,4.916,5.217,6.901,6.135C34.12,100.46,33.309,94.623,35.926,93.071z"/>
				</g>
			</g>
		</g>
		<g>
			<path fill="#AF9474" d="M77.326,158.424c0.044,0.163,0.081,0.309,0.103,0.427c0.27,1.257,0.855,2.468,2.268,2.74
				c1.518,0.292,2.601-0.432,3.017-1.89c0.337-1.191,0.413-2.391,0.034-3.592c-0.595-1.895-1.988-4.095-4.173-4.301
				c-1.81-0.177-3.107,1.14-4.132,2.431c-0.666,0.837-1.303,2.604-0.437,3.582c0.747,0.842,1.222,0.004,1.515-0.535
				C76.376,155.706,77.041,157.379,77.326,158.424z"/>
		</g>
		<g>
			<path fill="#AF9474" d="M80.548,150.111c-1.16-12.729-8.01-33.449-19.408-43.521c-2.802,3.335-5.886,5.111-8.211,5.127h-0.081
				c-3.188,0-9.799-1.439-14.944-5.405c-1.029-0.793-2.015-1.732-3.012-2.857c-0.808,0.592-1.589,1.301-2.352,2.092l0.022,0.032
				c-15.159,10.787-19.714,34.194-11.149,57.045l4.904-1.6c-4.134-25.552,8.791-38.15,8.922-38.276l0.682,0.718
				c-0.129,0.125-12.811,12.532-8.559,37.814l0.071,0.423l-0.655,0.212c0.494,0.104,0.999,0.265,1.512,0.481
				c0.311,0.133,0.598,0.308,0.867,0.512c15.786,3.01,41.656,0.268,41.802-6.848c0.288-14.186-7.077-32.051-7.077-32.051
				s8.956,15.688,10.374,26.969L80.548,150.111z"/>
			<path fill="#AF9474" d="M17.394,152.165c-0.067,1.04-0.129,2.096-0.169,3.185c-0.054,1.43,0.655,2.675,1.935,3.742
				C18.439,156.777,17.854,154.465,17.394,152.165z"/>
		</g>
	</g>
	<g>
		<g>
			<path fill="#C83B0C" d="M162.938,164.227c0.719,0.948,1.597,1.85,2.664,0.87c0.942-0.864,0.572-1.993,0.546-3.079
				c-0.029-1.39,0.186-2.455,1.007-2.711c1.101-0.349,1.402,1.71,2.253,1.523c0.682-0.146,0.694-1.047,0.664-1.856
				c-0.038-0.872-0.568-1.921-1.02-2.536c-0.982-1.349-2.385-1.685-3.788-1.053C162.223,156.754,160.866,161.515,162.938,164.227z"
				/>
			<path fill="#C83B0C" d="M178.735,212.908c-1.229,0.255-5.767,0.259-6.485-0.637c-1.415-1.75,2.464-3.171,4.343-3.561
				C180.917,207.811,183.627,211.899,178.735,212.908z"/>
		</g>
		<g>
			<path fill="#C83B0C" d="M198.579,74.349c5.363,1.027,9.256,6.896,10.488,9.599c0.707,1.545,2.488,4.333,3.563,11.546
				c0.81,5.391,1.206,16.453,1.225,16.561c1.425-0.313,4.054-2.692,4.054-2.692l1.503,7.225l5.332-5.635l0.903,3.815
				c0,0,5.688-12.124,6.036-22.275c0.33-9.65-4.411-17.304-8.646-21.011c-3.52-3.073-7.182-5.229-12.396-5.901
				c-5.758-0.739-10.572,0.537-17.192,1.538c-5.277,0.798-15.603,0.871-15.603,0.871l7.609,3.753l-6.902,5.337
				C178.553,77.077,190.413,72.777,198.579,74.349z"/>
			<g>
				<path fill="#C83B0C" d="M217.277,111.184c-0.961,0.75-2.237,1.624-3.208,1.838l-1.006,0.222l-0.183-1.013
					c-0.015-0.081-0.015-0.081-0.043-0.758c-0.328-7.455-0.729-12.781-1.186-15.833c-0.907-6.083-2.299-8.879-3.131-10.549
					c-0.136-0.272-0.255-0.514-0.355-0.732c-0.995-2.184-4.689-8.064-9.772-9.037c-1.13-0.217-2.409-0.328-3.806-0.328
					c-2.107,0-4.301,0.253-6.358,0.608c-3.611,4.425-5.866,10.298-5.667,17.236c0.488,16.745,9.505,25.49,14,25.863
					c4.282,0.355,13.35-1.672,20.746-7.367L217.277,111.184z M188.005,92.644c-0.177,1.683-0.933,2.979-1.695,2.9
					c-0.75-0.078-1.227-1.507-1.046-3.188c0.174-1.681,0.934-2.98,1.69-2.904C187.709,89.533,188.182,90.96,188.005,92.644z
					 M198.479,94.311c-0.177,1.649-1.012,2.911-1.875,2.822c-0.86-0.092-1.417-1.499-1.243-3.147c0.171-1.652,1.01-2.91,1.871-2.821
					C198.09,91.253,198.65,92.663,198.479,94.311z"/>
				<g>
					<g>
						<path fill="#C83B0C" d="M237.938,155.919c1.112-3.774,2.044-7.623,2.787-11.541c-6.359-17.519-15.131-26.757-26.45-29.816
							c-5.985,3.529-12.533,5.168-16.698,5.168c-0.388,0-0.757-0.015-1.097-0.043c-1.754-0.146-4.01-1.375-6.237-3.593
							c-15.965,6.448-23.428,23.231-25.076,37.497l4.758,1.36c4.173-13.916,12.657-21.084,12.657-21.084s-5.674,12.606-5.937,25.415
							c0.827,5.819,10.465,9.76,24.752,10.79c12.458,0.899,25.761-0.585,27.874-5.396c2.113-4.817-3.809-29.302-3.809-29.302
							S231.409,140.402,237.938,155.919z"/>
						<path fill="#C83B0C" d="M228.458,178.962c0.228-3.938,0.158-7.783-0.287-11.529c-4.7,3.452-15.11,3.882-19.952,3.882
							c-2.265,0-4.583-0.086-6.893-0.251c-12.313-0.89-20.947-3.919-24.242-8.333c-3.242,12.582-3.774,27.352-1.512,44.384
							l4.652,0.188c4.587-12.575,12.031-22.103,20.215-29.096c4.842,6.307,8.688,13.946,12.074,23.574
							C218.66,194.84,224.023,187.189,228.458,178.962z"/>
					</g>
				</g>
			</g>
			<path fill="#C83B0C" d="M187.006,75.829c-1.266,0.248-2.448,0.525-3.508,0.8c-0.311,0.42-0.612,0.862-0.89,1.342
				c-5.495,9.542-2.565,24.83-2.565,24.83l1.22-1.428l2.056,3.887l0.406-0.475c-1.133-3.412-1.89-7.392-2.022-11.922
				C181.516,86.484,183.466,80.538,187.006,75.829z"/>
		</g>
	</g>
</g>
<path fill="#C8A95C" d="M122,244C54.729,244,0,189.271,0,122C0,54.729,54.729,0,122,0c67.271,0,122,54.729,122,122
	C244,189.271,189.271,244,122,244z M122,4C56.935,4,4,56.935,4,122s52.935,118,118,118s118-52.935,118-118S187.065,4,122,4z"/>
</svg>
