<?xml version="1.0" encoding="utf-8"?>
<!-- Generator: Adobe Illustrator 15.0.2, SVG Export Plug-In . SVG Version: 6.00 Build 0)  -->
<!DOCTYPE svg PUBLIC "-//W3C//DTD SVG 1.1//EN" "http://www.w3.org/Graphics/SVG/1.1/DTD/svg11.dtd">
<svg version="1.1" id="Layer_1" xmlns="http://www.w3.org/2000/svg" xmlns:xlink="http://www.w3.org/1999/xlink" x="0px" y="0px"
	 width="244px" height="244px" viewBox="0 0 244 244" enable-background="new 0 0 244 244" xml:space="preserve">
<circle fill="#AF9474" cx="122" cy="123" r="121"/>
<circle fill="#F9F4D5" cx="122" cy="121" r="121"/>
<g>
	<g>
		<g>
			<g>
				<g>
					<path fill="#AF9474" d="M112.965,187.177c-1.054-2.501,4.62-4.742,4.979-7.747c0.43-3.615-4.227-4.502-7.561-4.168
						c-2.751,0.274-5.844,1.656-7.881,3.547c-2.226,2.061-4.16,4.749-4.78,7.877c-0.328,1.62-0.616,5.376,2.315,8.047
						c1.544,1.412,3.953,1.671,5.864,1.728c2.272,0.065,4.484-0.671,6.204-1.789c1.282-0.831,5.238-3.362,4.561-5.958
						C116.212,186.988,113.358,188.108,112.965,187.177z"/>
				</g>
				<g>
					<g>
						<path fill="#AF9474" d="M53.268,80.535c-7.208-5.592-26.147-11.273-42.436-7.276C4.509,87.931,1,104.103,1,121.094
							c0,6.954,0.595,13.767,1.721,20.399c0.435-1.018,1.015-1.812,1.756-2.332c1.083-0.757,2.127-1.335,3.189-1.765
							c2.073-0.857,4.058-1.144,5.972-1.422l0.339-0.049c0.861-0.129,1.751-0.261,2.677-0.455l0.396-0.079l-0.002-0.409
							c-0.114-10.284,0.732-18.565,5.227-25.558c3.679-5.707,12.816-10.709,19.526-12.249c2.801-0.64,5.988-0.991,8.976-0.991
							c2.675,0,6.457,0.294,9.278,1.698c5.788,2.894,7.477,10.654,8.41,18.658c0.08,0.287,0.108,0.945,0.168,1.486
							c0.154-0.417,0.269-0.783,0.35-1.292C71.244,102.487,63.045,88.123,53.268,80.535z"/>
						<path fill="#AF9474" d="M50.308,169.616c-3.061,2.355-5.951,3.609-8.173,3.797c-0.7,0.061-1.471,0.091-2.29,0.091
							c-7.286,0-19.297-2.295-29.171-8.761c-0.715-0.467-1.424-0.984-2.132-1.522c10.222,27.517,30.164,50.312,55.657,64.198
							c-3.585-8.991-5.681-17.7-5.681-17.7s24.96,6.463,40.726-11.715l-4.694-8.936C65.341,199.179,57.076,184.116,50.308,169.616z"
							/>
					</g>
				</g>
			</g>
			<g>
				<g>
					<path fill="#C83B0C" d="M131.858,184.844c-0.569,0-1.128-0.038-1.658-0.115c-2.878-0.419-5.573-2.513-5.108-6.25
						c0.413-3.338,2.968-5.604,5.039-6.916c0.472-0.3,0.987-0.597,1.502-0.893c1.36-0.78,3.222-1.851,3.016-2.49
						c-0.021-0.059-0.06-0.182-0.505-0.182c-0.407,0-0.945,0.109-1.515,0.226c-0.656,0.134-1.336,0.271-1.951,0.271
						c-0.889,0-1.505-0.309-1.826-0.913c-0.436-0.816-0.495-1.643-0.174-2.458c0.859-2.185,4.097-3.345,4.463-3.471
						c1.235-0.422,2.57-0.635,3.969-0.635c0.908,0,1.821,0.089,2.714,0.267c4.268,0.831,7.377,5.216,7.806,8.8
						c0.37,3.085-0.698,6.142-3.093,8.842C141.396,182.467,136.301,184.844,131.858,184.844z"/>
					<path fill="#F9F4D5" d="M137.109,161.517c0.949,0,1.839,0.104,2.617,0.257c3.842,0.747,6.979,4.768,7.411,8.372
						c0.935,7.802-8.074,14.203-15.279,14.203c-0.541,0-1.071-0.036-1.588-0.11c-2.769-0.403-5.105-2.319-4.687-5.697
						c0.364-2.946,2.532-5.114,4.812-6.56c2.112-1.338,5.146-2.644,4.724-3.952c-0.128-0.395-0.49-0.525-0.976-0.525
						c-0.949,0-2.374,0.497-3.466,0.497c-0.615,0-1.128-0.158-1.388-0.648c-1.406-2.631,2.205-4.608,4.012-5.228
						C134.594,161.684,135.9,161.517,137.109,161.517 M137.109,160.524L137.109,160.524c-1.453,0-2.842,0.222-4.128,0.661
						c-0.39,0.133-3.823,1.366-4.766,3.759c-0.371,0.942-0.303,1.937,0.198,2.873c0.284,0.534,0.908,1.175,2.263,1.175
						c0.666,0,1.369-0.145,2.049-0.282c0.457-0.092,0.927-0.188,1.276-0.21c-0.48,0.514-1.835,1.291-2.617,1.742
						c-0.511,0.293-1.038,0.597-1.521,0.901c-3.099,1.964-4.921,4.48-5.267,7.275c-0.506,4.067,2.413,6.347,5.528,6.8
						c0.557,0.081,1.138,0.121,1.73,0.121c4.575,0,9.819-2.444,13.048-6.084c2.491-2.807,3.604-5.997,3.216-9.229
						c-0.451-3.758-3.718-8.354-8.206-9.228C138.996,160.617,138.051,160.524,137.109,160.524L137.109,160.524z"/>
				</g>
				<g>
					<g>
						<path fill="#C83B0C" d="M224.855,74.644c-1.152,1.917-3.142,4.924-4.872,6.011l-0.988,0.621l-0.554-1.029
							c-0.04-0.075-0.04-0.075-0.431-1.038c-6.497-16.074-10.104-23.663-11.986-27.198c-5.419-10.199-9.642-14.275-12.165-16.711
							c-0.399-0.385-0.752-0.726-1.058-1.042c-3.392-3.514-12.129-10.163-20.909-10.162c-0.835,0-1.657,0.061-2.45,0.181
							c-5.591,0.848-11.62,3.459-16.968,6.385c-0.145,0.27-0.286,0.541-0.412,0.812c-3.7,10.054-4.057,21.862,0.649,34.015
							c11.235,29.008,32.443,38.723,40.545,36.593c7.755-2.049,22.479-11.299,31.894-25.976l0.296-0.491L224.855,74.644z
							 M160.949,67.916c-1.359,0.322-3.076-1.883-3.808-4.936c-0.732-3.058-0.212-5.797,1.162-6.129
							c1.371-0.328,3.079,1.876,3.814,4.936C162.85,64.839,162.331,67.575,160.949,67.916z M179.955,64.306
							c-1.565,0.38-3.414-1.75-4.127-4.743c-0.731-3-0.036-5.72,1.516-6.098c1.564-0.371,3.415,1.742,4.136,4.742
							C182.196,61.195,181.515,63.928,179.955,64.306z"/>
						<g>
							<path fill="#C83B0C" d="M151.694,65.885c-4.452-11.496-4.726-23.351-0.814-34.32c-1.981,1.162-4.618,2.774-6.212,3.831
								c-0.096,0.274-0.187,0.542-0.272,0.796c-0.323,1.038-0.613,2.113-0.827,3.252c-3.696,20.116,10.914,45.058,10.914,45.058
								l1.246-3.259l6.014,5.521l0.646-1.516C158.42,80.077,154.714,73.68,151.694,65.885z"/>
						</g>
					</g>
				</g>
			</g>
		</g>
	</g>
	<path fill="#AF9474" d="M59.567,98.86c-4.416-2.195-12.286-1.814-17.523-0.62c-6.967,1.599-15.501,6.579-18.852,11.777
		c-4.346,6.761-5.164,14.864-5.052,24.953l0.008,1.312l-1.278,0.26c-1.073,0.225-2.092,0.366-3.069,0.514
		c-1.957,0.283-3.813,0.562-5.715,1.351c-1.026,0.414-1.995,0.958-2.981,1.648c-0.976,0.684-1.619,2.025-1.944,3.864
		c1.138,5.958,2.713,11.763,4.69,17.377c1.092,0.899,2.232,1.753,3.422,2.533c10.731,7.028,24.27,9.045,30.771,8.495
		c8.016-0.676,23.743-15.671,25.82-44.361c0.01-0.207,0.02-0.434,0.033-0.67l0.004-0.557c0.05-3.262-0.116-6.563-0.49-9.821
		C66.506,109.029,64.945,101.549,59.567,98.86z M41.531,132.635c-1.605,0.167-3.162-2.183-3.488-5.245
		c-0.326-3.068,0.711-5.693,2.31-5.868c1.605-0.167,3.169,2.185,3.491,5.251C44.173,129.846,43.125,132.467,41.531,132.635z
		 M60.569,130.811c-1.415,0.158-2.823-2.259-3.155-5.399c-0.33-3.133,0.542-5.795,1.957-5.941c1.401-0.15,2.815,2.273,3.153,5.403
		C62.847,128.006,61.974,130.661,60.569,130.811z"/>
	<path fill="#C83B0C" d="M221.107,190.516c-4.312,0.582-8.431,0.878-12.327,0.878c-10.838,0-18.903-2.294-23.353-6.532
		c-1.432,12.233-1.487,25.363-0.173,39.396C199.39,215.57,211.602,204.062,221.107,190.516z"/>
	<path fill="#C83B0C" d="M236.839,82.892c-0.943-0.224-1.894-0.429-2.854-0.601l-1.047,2.36l-0.847,1.91l-1.083-1.785l-1.903-3.133
		c-2.09-0.19-4.21-0.283-6.371-0.252c-9.833,12.729-22.711,20.032-29.2,21.747c-0.803,0.211-1.709,0.318-2.692,0.318
		c-2.641,0-6.019-0.792-9.744-2.513c-13.657,18.615-17.429,46.048-37.214,60.141l5.66,8.855
		c24.913-10.329,30.891-30.646,30.891-30.646s1.438,18.616,3.305,41.523c4.003,8.113,18.632,11.292,38.222,8.469
		C235.233,169.868,243,146.389,243,121.094C243,107.744,240.83,94.901,236.839,82.892z"/>
	<path fill="#C83B0C" d="M224.83,72.497l7.111,11.713l2.966-6.692c-12.248-31.716-37.468-56.972-69.161-69.268
		c-3.1,1.704-6.337,3.554-9.934,5.477c-8.742,4.669-26.764,11.204-26.764,11.204l15.648,1.842l-8.783,13.623
		c0,0,18.097-14.878,33.365-17.196c10.029-1.528,20.478,6.329,24.309,10.302c2.201,2.265,7.045,6.033,13.403,17.997
		c4.758,8.938,12.316,28.05,12.414,28.232C221.701,78.286,224.83,72.497,224.83,72.497z"/>
</g>
<path fill="#C8A95C" d="M122,244C54.729,244,0,189.271,0,122C0,54.729,54.729,0,122,0c67.271,0,122,54.729,122,122
	C244,189.271,189.271,244,122,244z M122,4C56.935,4,4,56.935,4,122s52.935,118,118,118s118-52.935,118-118S187.065,4,122,4z"/>
</svg>
