<?xml version="1.0" encoding="utf-8"?>
<!-- Generator: Adobe Illustrator 15.0.2, SVG Export Plug-In . SVG Version: 6.00 Build 0)  -->
<!DOCTYPE svg PUBLIC "-//W3C//DTD SVG 1.1//EN" "http://www.w3.org/Graphics/SVG/1.1/DTD/svg11.dtd">
<svg version="1.1" id="Layer_1" xmlns="http://www.w3.org/2000/svg" xmlns:xlink="http://www.w3.org/1999/xlink" x="0px" y="0px"
	 width="244px" height="244px" viewBox="0 0 244 244" enable-background="new 0 0 244 244" xml:space="preserve">
<circle fill="#AF9474" cx="122" cy="123" r="121"/>
<circle fill="#F9F4D5" cx="122" cy="121" r="121"/>
<g>
	<g>
		<g>
			<path fill="#AF9474" d="M93.377,145.111l0.048-0.486c0.26-2.866,0.336-5.782,0.227-8.674c-0.267-7.006-1.13-13.697-5.677-16.428
				c-3.74-2.229-10.692-2.423-15.382-1.728c-6.239,0.939-14.082,4.74-17.385,9.092c-4.281,5.648-5.548,12.726-6.132,21.616
				l-0.082,1.157l-1.145,0.137c-0.958,0.126-1.859,0.188-2.732,0.249c-1.742,0.111-3.396,0.233-5.121,0.797
				c-0.93,0.295-1.825,0.714-2.739,1.252c-2.577,1.526-3.196,7.863-1.595,16.177c1.62,1.847,3.419,3.625,5.418,5.161
				c8.967,6.915,20.741,9.604,26.5,9.56c7.099-0.052,21.957-12.184,25.729-37.29C93.326,145.519,93.349,145.324,93.377,145.111z
				 M67.103,143.171c-0.078-2.72,1.013-4.955,2.431-5c1.423-0.041,2.64,2.135,2.713,4.854c0.083,2.725-1.016,4.959-2.425,5.006
				C68.392,148.066,67.182,145.893,67.103,143.171z M88.813,142.623c0.075,2.771-0.875,5.053-2.12,5.088
				c-1.253,0.039-2.332-2.183-2.416-4.965c-0.075-2.78,0.875-5.062,2.124-5.098C87.651,137.61,88.728,139.838,88.813,142.623z"/>
			<g>
				<g>
					<path fill="#AF9474" d="M83.669,102.972c-7.837-7.105-33.489-15.735-49.736-4.137c-26.349,18.797-14.782,50.284-12.749,58.48
						c3.79,4.07,9.511,10.104,13.163,11.496c0.188,0.087,0.361,0.147,0.545,0.228c-0.015-0.019-0.031-0.035-0.047-0.053
						l-0.196-0.223l-0.056-0.291c-1.738-9.031-0.95-15.506,2.111-17.319c1.016-0.6,1.985-1.044,2.956-1.35
						c1.783-0.582,3.427-0.723,5.382-0.847c0.855-0.061,1.74-0.12,2.68-0.246l0.25-0.029l0.019-0.252
						c0.596-9.084,1.904-16.336,6.352-22.203c3.779-4.978,12.142-8.616,18.093-9.512c1.625-0.241,3.433-0.368,5.23-0.368
						c2.656,0,7.601,0.291,10.872,2.24c4.986,2.997,5.929,10.097,6.205,17.323c0.003,0.073,0.002,0.149,0.005,0.224
						c0.104-0.078,0.215-0.159,0.306-0.237C97.688,123.435,91.759,110.317,83.669,102.972z"/>
				</g>
			</g>
		</g>
		<g>
			<g>
				<path fill="#C83B0C" d="M206.522,175.416c-0.392,0.686-0.801,1.385-1.232,2.088l-0.624,1.013l-0.955-0.71
					c-0.447-0.334-0.934-0.708-1.448-1.122c-10.462,6.395-21.92,7.194-26.867,7.194c-2.126,0-4.135-0.138-5.812-0.397
					c-0.56-0.087-1.15-0.244-1.756-0.467c-5.555,6.985-9.273,16.16-11.459,25.589c-2.692,11.637-4.486,21.292-5.67,30.462
					c29.404-7.151,54.602-25.044,71.205-49.292c-1.212-2.092-2.911-4.362-5.354-6.982
					C213.816,179.863,210.288,177.37,206.522,175.416z"/>
				<path fill="#C83B0C" d="M235.087,160.783c-3.72-6.393-3.688-17.146-3.988-26.399c-0.557-16.988-2.501-21.964-9.479-29.009
					c-5.802-5.846-11.929-10.266-21.035-11.917c-10.847-1.96-23.255,0.933-30.273,4.554c-2.943,1.52-8.943,4.294-14.835,7.645
					c-3.916,2.229-15.219,5.307-19.932,4.855c2.492,2.74,10.487,5.005,14.854,6.424c-3.906,3.029-11.989,5.109-12.294,6.08
					c11.394,3.342,24.09,2.107,37.534,0.014c2.002,8.283,5.011,17.461,9.678,28.787c4.686,11.377,12.083,19.939,19.045,25.117
					c2.859-4.645,4.914-9.333,4.914-9.333s5.331,3.061,14.665,5.133c-1.494-5.352-1.021-11.035-1.021-11.035
					S229.454,161.045,235.087,160.783z"/>
			</g>
			<path fill="#C83B0C" d="M184.31,152.23c-4.346-10.542-7.373-19.462-9.491-27.974c-6.349,0.972-13.671,1.917-20.743,1.917
				c-1.373,0-2.7-0.04-3.997-0.11c-0.771,3.079-1.263,6.34-1.408,9.78c-0.6,14.328,2.628,25.539,6.983,33.378
				c3.777,0.156,7.572-1.63,10.729-5.077c0.243-0.267,0.658-0.284,0.925-0.041c0.266,0.244,0.284,0.658,0.04,0.926
				c-3.2,3.492-7.047,5.41-10.937,5.505c4.354,7.253,9.627,11.297,13.339,11.873c6.383,0.991,20.031,0.454,31.617-6.463
				C196.4,171.765,189.224,164.167,184.31,152.23z M156.982,149.56c-1.346,0.039-2.492-2.259-2.559-5.142
				c-0.068-2.884,0.971-5.239,2.314-5.286c1.337-0.037,2.49,2.267,2.553,5.138C159.358,147.152,158.329,149.519,156.982,149.56z"/>
		</g>
		<g>
			<path fill="#AF9474" d="M141.874,77.622c6.815-6.465,10.956-14.906,10.956-24.146c0-20.338-19.984-36.826-44.638-36.826
				c-24.65,0-44.637,16.488-44.637,36.826c0,20.337,19.986,36.824,44.637,36.824c8.483,0,16.417-1.956,23.174-5.348l16.1,11.099
				v-1.708L141.874,77.622z"/>
			<path fill="#FFFFFF" d="M141.874,75.912c6.815-6.467,10.956-14.906,10.956-24.149c0-20.339-19.984-36.824-44.638-36.824
				c-24.65,0-44.637,16.485-44.637,36.824c0,20.338,19.986,36.823,44.637,36.823c8.483,0,16.417-1.95,23.174-5.345l16.1,11.103
				L141.874,75.912z"/>
			<g>
				<circle fill="#EEE09C" cx="108.192" cy="50.896" r="21.809"/>
				<path fill="#804040" d="M108.198,64.635c4.09,0,7.771-1.609,10.153-4.452c0.497-0.597,0.423-1.484-0.174-1.983
					c-0.599-0.498-1.484-0.422-1.985,0.176c-1.907,2.277-4.938,3.51-8.35,3.439c-3.196-0.086-6.113-1.383-7.604-3.381
					c-0.466-0.62-1.345-0.75-1.968-0.283c-0.623,0.465-0.75,1.345-0.286,1.969c2.025,2.713,5.687,4.395,9.781,4.507
					C107.909,64.63,108.055,64.635,108.198,64.635z"/>
				<g>
					<path fill="#804040" d="M97.232,47.21c0,1.867,0.961,3.387,2.145,3.387s2.14-1.52,2.14-3.387c0-1.874-0.957-3.39-2.14-3.39
						S97.232,45.336,97.232,47.21z"/>
					<path fill="#804040" d="M114.867,47.21c0,1.867,0.956,3.387,2.144,3.387c1.178,0,2.139-1.52,2.139-3.387
						c0-1.874-0.963-3.39-2.139-3.39C115.822,43.82,114.867,45.336,114.867,47.21z"/>
				</g>
			</g>
		</g>
	</g>
	<path fill="#AF9474" d="M79.717,177.487c-4.56,4.445-9.125,6.555-12.148,6.577h-0.151c-5.762,0-17.713-2.605-27.022-9.786
		c-1.542-1.184-3.038-2.567-4.542-4.178c-0.219,0.154-0.601,0.556-0.601,0.556c-5.742,4.083-10.907,9.532-15.276,15.944
		c4.269,6.673,9.174,12.896,14.629,18.589c0.642-0.732,1.036-1.118,1.064-1.146l0.75,0.791c-0.027,0.026-0.418,0.41-1.052,1.136
		c17.233,17.664,39.817,30.081,65.137,34.615C98.365,219.902,92.194,192.708,79.717,177.487z"/>
</g>
<path fill="#C8A95C" d="M122,244C54.729,244,0,189.271,0,122C0,54.729,54.729,0,122,0c67.271,0,122,54.729,122,122
	C244,189.271,189.271,244,122,244z M122,4C56.935,4,4,56.935,4,122s52.935,118,118,118s118-52.935,118-118S187.065,4,122,4z"/>
</svg>
